%TF.GenerationSoftware,KiCad,Pcbnew,7.0.11+dfsg-1build4*%
%TF.CreationDate,2025-10-15T20:37:07-05:00*%
%TF.ProjectId,mcu-proto-115x70mm,6d63752d-7072-46f7-946f-2d3131357837,rev?*%
%TF.SameCoordinates,Original*%
%TF.FileFunction,Soldermask,Top*%
%TF.FilePolarity,Negative*%
%FSLAX46Y46*%
G04 Gerber Fmt 4.6, Leading zero omitted, Abs format (unit mm)*
G04 Created by KiCad (PCBNEW 7.0.11+dfsg-1build4) date 2025-10-15 20:37:07*
%MOMM*%
%LPD*%
G01*
G04 APERTURE LIST*
%ADD10C,1.700000*%
%ADD11C,3.500000*%
G04 APERTURE END LIST*
D10*
%TO.C,REF\u002A\u002A1032*%
X184170000Y-111670000D03*
%TD*%
%TO.C,REF\u002A\u002A350*%
X128290000Y-73570000D03*
%TD*%
%TO.C,REF\u002A\u002A926*%
X138450000Y-106590000D03*
%TD*%
%TO.C,REF\u002A\u002A513*%
X207030000Y-81190000D03*
%TD*%
%TO.C,REF\u002A\u002A216*%
X123210000Y-65950000D03*
%TD*%
%TO.C,REF\u002A\u002A1057*%
X135910000Y-114210000D03*
%TD*%
%TO.C,REF\u002A\u002A755*%
X151150000Y-96430000D03*
%TD*%
%TO.C,REF\u002A\u002A156*%
X194330000Y-60870000D03*
%TD*%
%TO.C,REF\u002A\u002A767*%
X181630000Y-96430000D03*
%TD*%
%TO.C,REF\u002A\u002A85*%
X125750000Y-58330000D03*
%TD*%
%TO.C,REF\u002A\u002A679*%
X181630000Y-91350000D03*
%TD*%
%TO.C,REF\u002A\u002A434*%
X118130000Y-78650000D03*
%TD*%
%TO.C,REF\u002A\u002A418*%
X189250000Y-76110000D03*
%TD*%
%TO.C,REF\u002A\u002A472*%
X102890000Y-81190000D03*
%TD*%
%TO.C,REF\u002A\u002A1093*%
X115590000Y-116750000D03*
%TD*%
%TO.C,REF\u002A\u002A90*%
X138450000Y-58330000D03*
%TD*%
%TO.C,REF\u002A\u002A699*%
X120670000Y-93890000D03*
%TD*%
%TO.C,REF\u002A\u002A1030*%
X179090000Y-111670000D03*
%TD*%
%TO.C,REF\u002A\u002A217*%
X125750000Y-65950000D03*
%TD*%
%TO.C,REF\u002A\u002A122*%
X107970000Y-60870000D03*
%TD*%
%TO.C,REF\u002A\u002A1020*%
X153690000Y-111670000D03*
%TD*%
%TO.C,REF\u002A\u002A735*%
X212110000Y-93890000D03*
%TD*%
%TO.C,REF\u002A\u002A727*%
X191790000Y-93890000D03*
%TD*%
%TO.C,REF\u002A\u002A272*%
X153690000Y-68490000D03*
%TD*%
%TO.C,REF\u002A\u002A1047*%
X110510000Y-114210000D03*
%TD*%
%TO.C,REF\u002A\u002A882*%
X138450000Y-104050000D03*
%TD*%
%TO.C,REF\u002A\u002A315*%
X151150000Y-71030000D03*
%TD*%
%TO.C,REF\u002A\u002A705*%
X135910000Y-93890000D03*
%TD*%
%TO.C,REF\u002A\u002A479*%
X120670000Y-81190000D03*
%TD*%
%TO.C,REF\u002A\u002A1124*%
X194330000Y-116750000D03*
%TD*%
%TO.C,REF\u002A\u002A124*%
X113050000Y-60870000D03*
%TD*%
%TO.C,REF\u002A\u002A745*%
X125750000Y-96430000D03*
%TD*%
%TO.C,REF\u002A\u002A376*%
X194330000Y-73570000D03*
%TD*%
%TO.C,REF\u002A\u002A1094*%
X118130000Y-116750000D03*
%TD*%
%TO.C,REF\u002A\u002A54*%
X148610000Y-55790000D03*
%TD*%
%TO.C,REF\u002A\u002A672*%
X163850000Y-91350000D03*
%TD*%
%TO.C,REF\u002A\u002A608*%
X113050000Y-88810000D03*
%TD*%
%TO.C,REF\u002A\u002A296*%
X102890000Y-71030000D03*
%TD*%
%TO.C,REF\u002A\u002A314*%
X148610000Y-71030000D03*
%TD*%
%TO.C,REF\u002A\u002A129*%
X125750000Y-60870000D03*
%TD*%
%TO.C,REF\u002A\u002A834*%
X128290000Y-101510000D03*
%TD*%
%TO.C,REF\u002A\u002A1055*%
X130830000Y-114210000D03*
%TD*%
%TO.C,REF\u002A\u002A552*%
X194330000Y-83730000D03*
%TD*%
%TO.C,REF\u002A\u002A930*%
X148610000Y-106590000D03*
%TD*%
%TO.C,REF\u002A\u002A1074*%
X179090000Y-114210000D03*
%TD*%
%TO.C,REF\u002A\u002A924*%
X133370000Y-106590000D03*
%TD*%
%TO.C,REF\u002A\u002A157*%
X196870000Y-60870000D03*
%TD*%
%TO.C,REF\u002A\u002A474*%
X107970000Y-81190000D03*
%TD*%
%TO.C,REF\u002A\u002A489*%
X146070000Y-81190000D03*
%TD*%
%TO.C,REF\u002A\u002A421*%
X196870000Y-76110000D03*
%TD*%
%TO.C,REF\u002A\u002A669*%
X156230000Y-91350000D03*
%TD*%
%TO.C,REF\u002A\u002A752*%
X143530000Y-96430000D03*
%TD*%
%TO.C,REF\u002A\u002A811*%
X181630000Y-98970000D03*
%TD*%
%TO.C,REF\u002A\u002A675*%
X171470000Y-91350000D03*
%TD*%
%TO.C,REF\u002A\u002A600*%
X204490000Y-86270000D03*
%TD*%
%TO.C,REF\u002A\u002A1080*%
X194330000Y-114210000D03*
%TD*%
%TO.C,REF\u002A\u002A1100*%
X133370000Y-116750000D03*
%TD*%
%TO.C,REF\u002A\u002A13*%
X146070000Y-53250000D03*
%TD*%
%TO.C,REF\u002A\u002A453*%
X166390000Y-78650000D03*
%TD*%
%TO.C,REF\u002A\u002A1000*%
X102890000Y-111670000D03*
%TD*%
%TO.C,REF\u002A\u002A1043*%
X212110000Y-111670000D03*
%TD*%
%TO.C,REF\u002A\u002A867*%
X212110000Y-101510000D03*
%TD*%
%TO.C,REF\u002A\u002A290*%
X199410000Y-68490000D03*
%TD*%
%TO.C,REF\u002A\u002A590*%
X179090000Y-86270000D03*
%TD*%
%TO.C,REF\u002A\u002A707*%
X140990000Y-93890000D03*
%TD*%
%TO.C,REF\u002A\u002A259*%
X120670000Y-68490000D03*
%TD*%
%TO.C,REF\u002A\u002A367*%
X171470000Y-73570000D03*
%TD*%
%TO.C,REF\u002A\u002A304*%
X123210000Y-71030000D03*
%TD*%
%TO.C,REF\u002A\u002A203*%
X201950000Y-63410000D03*
%TD*%
%TO.C,REF\u002A\u002A578*%
X148610000Y-86270000D03*
%TD*%
%TO.C,REF\u002A\u002A229*%
X156230000Y-65950000D03*
%TD*%
%TO.C,REF\u002A\u002A933*%
X156230000Y-106590000D03*
%TD*%
%TO.C,REF\u002A\u002A545*%
X176550000Y-83730000D03*
%TD*%
%TO.C,REF\u002A\u002A394*%
X128290000Y-76110000D03*
%TD*%
%TO.C,REF\u002A\u002A870*%
X107970000Y-104050000D03*
%TD*%
%TO.C,REF\u002A\u002A128*%
X123210000Y-60870000D03*
%TD*%
%TO.C,REF\u002A\u002A502*%
X179090000Y-81190000D03*
%TD*%
%TO.C,REF\u002A\u002A990*%
X189250000Y-109130000D03*
%TD*%
%TO.C,REF\u002A\u002A726*%
X189250000Y-93890000D03*
%TD*%
%TO.C,REF\u002A\u002A383*%
X212110000Y-73570000D03*
%TD*%
%TO.C,REF\u002A\u002A674*%
X168930000Y-91350000D03*
%TD*%
%TO.C,REF\u002A\u002A465*%
X196870000Y-78650000D03*
%TD*%
%TO.C,REF\u002A\u002A670*%
X158770000Y-91350000D03*
%TD*%
%TO.C,REF\u002A\u002A830*%
X118130000Y-101510000D03*
%TD*%
%TO.C,REF\u002A\u002A663*%
X140990000Y-91350000D03*
%TD*%
%TO.C,REF\u002A\u002A704*%
X133370000Y-93890000D03*
%TD*%
%TO.C,REF\u002A\u002A684*%
X194330000Y-91350000D03*
%TD*%
%TO.C,REF\u002A\u002A996*%
X204490000Y-109130000D03*
%TD*%
%TO.C,REF\u002A\u002A523*%
X120670000Y-83730000D03*
%TD*%
%TO.C,REF\u002A\u002A945*%
X186710000Y-106590000D03*
%TD*%
%TO.C,REF\u002A\u002A250*%
X209570000Y-65950000D03*
%TD*%
%TO.C,REF\u002A\u002A120*%
X102890000Y-60870000D03*
%TD*%
%TO.C,REF\u002A\u002A370*%
X179090000Y-73570000D03*
%TD*%
%TO.C,REF\u002A\u002A1112*%
X163850000Y-116750000D03*
%TD*%
%TO.C,REF\u002A\u002A970*%
X138450000Y-109130000D03*
%TD*%
%TO.C,REF\u002A\u002A561*%
X105430000Y-86270000D03*
%TD*%
%TO.C,REF\u002A\u002A636*%
X184170000Y-88810000D03*
%TD*%
%TO.C,REF\u002A\u002A836*%
X133370000Y-101510000D03*
%TD*%
%TO.C,REF\u002A\u002A760*%
X163850000Y-96430000D03*
%TD*%
%TO.C,REF\u002A\u002A848*%
X163850000Y-101510000D03*
%TD*%
%TO.C,REF\u002A\u002A433*%
X115590000Y-78650000D03*
%TD*%
%TO.C,REF\u002A\u002A773*%
X196870000Y-96430000D03*
%TD*%
%TO.C,REF\u002A\u002A715*%
X161310000Y-93890000D03*
%TD*%
%TO.C,REF\u002A\u002A374*%
X189250000Y-73570000D03*
%TD*%
%TO.C,REF\u002A\u002A614*%
X128290000Y-88810000D03*
%TD*%
%TO.C,REF\u002A\u002A143*%
X161310000Y-60870000D03*
%TD*%
%TO.C,REF\u002A\u002A676*%
X174010000Y-91350000D03*
%TD*%
%TO.C,REF\u002A\u002A722*%
X179090000Y-93890000D03*
%TD*%
%TO.C,REF\u002A\u002A1049*%
X115590000Y-114210000D03*
%TD*%
%TO.C,REF\u002A\u002A584*%
X163850000Y-86270000D03*
%TD*%
%TO.C,REF\u002A\u002A102*%
X168930000Y-58330000D03*
%TD*%
%TO.C,REF\u002A\u002A997*%
X207030000Y-109130000D03*
%TD*%
%TO.C,REF\u002A\u002A151*%
X181630000Y-60870000D03*
%TD*%
%TO.C,REF\u002A\u002A785*%
X115590000Y-98970000D03*
%TD*%
%TO.C,REF\u002A\u002A140*%
X153690000Y-60870000D03*
%TD*%
%TO.C,REF\u002A\u002A311*%
X140990000Y-71030000D03*
%TD*%
%TO.C,REF\u002A\u002A540*%
X163850000Y-83730000D03*
%TD*%
%TO.C,REF\u002A\u002A732*%
X204490000Y-93890000D03*
%TD*%
%TO.C,REF\u002A\u002A332*%
X194330000Y-71030000D03*
%TD*%
%TO.C,REF\u002A\u002A144*%
X163850000Y-60870000D03*
%TD*%
%TO.C,REF\u002A\u002A306*%
X128290000Y-71030000D03*
%TD*%
%TO.C,REF\u002A\u002A803*%
X161310000Y-98970000D03*
%TD*%
%TO.C,REF\u002A\u002A607*%
X110510000Y-88810000D03*
%TD*%
%TO.C,REF\u002A\u002A723*%
X181630000Y-93890000D03*
%TD*%
%TO.C,REF\u002A\u002A56*%
X153690000Y-55790000D03*
%TD*%
%TO.C,REF\u002A\u002A393*%
X125750000Y-76110000D03*
%TD*%
%TO.C,REF\u002A\u002A60*%
X163850000Y-55790000D03*
%TD*%
%TO.C,REF\u002A\u002A648*%
X102890000Y-91350000D03*
%TD*%
%TO.C,REF\u002A\u002A357*%
X146070000Y-73570000D03*
%TD*%
%TO.C,REF\u002A\u002A629*%
X166390000Y-88810000D03*
%TD*%
%TO.C,REF\u002A\u002A896*%
X174010000Y-104050000D03*
%TD*%
%TO.C,REF\u002A\u002A352*%
X133370000Y-73570000D03*
%TD*%
%TO.C,REF\u002A\u002A907*%
X201950000Y-104050000D03*
%TD*%
%TO.C,REF\u002A\u002A585*%
X166390000Y-86270000D03*
%TD*%
%TO.C,REF\u002A\u002A1035*%
X191790000Y-111670000D03*
%TD*%
%TO.C,REF\u002A\u002A596*%
X194330000Y-86270000D03*
%TD*%
%TO.C,REF\u002A\u002A897*%
X176550000Y-104050000D03*
%TD*%
%TO.C,REF\u002A\u002A605*%
X105430000Y-88810000D03*
%TD*%
%TO.C,REF\u002A\u002A728*%
X194330000Y-93890000D03*
%TD*%
%TO.C,REF\u002A\u002A1021*%
X156230000Y-111670000D03*
%TD*%
%TO.C,REF\u002A\u002A1062*%
X148610000Y-114210000D03*
%TD*%
%TO.C,REF\u002A\u002A487*%
X140990000Y-81190000D03*
%TD*%
%TO.C,REF\u002A\u002A25*%
X176550000Y-53250000D03*
%TD*%
%TO.C,REF\u002A\u002A962*%
X118130000Y-109130000D03*
%TD*%
%TO.C,REF\u002A\u002A286*%
X189250000Y-68490000D03*
%TD*%
%TO.C,REF\u002A\u002A488*%
X143530000Y-81190000D03*
%TD*%
%TO.C,REF\u002A\u002A838*%
X138450000Y-101510000D03*
%TD*%
%TO.C,REF\u002A\u002A397*%
X135910000Y-76110000D03*
%TD*%
%TO.C,REF\u002A\u002A2*%
X118130000Y-53250000D03*
%TD*%
%TO.C,REF\u002A\u002A721*%
X176550000Y-93890000D03*
%TD*%
%TO.C,REF\u002A\u002A792*%
X133370000Y-98970000D03*
%TD*%
%TO.C,REF\u002A\u002A242*%
X189250000Y-65950000D03*
%TD*%
%TO.C,REF\u002A\u002A299*%
X110510000Y-71030000D03*
%TD*%
%TO.C,REF\u002A\u002A251*%
X212110000Y-65950000D03*
%TD*%
%TO.C,REF\u002A\u002A683*%
X191790000Y-91350000D03*
%TD*%
%TO.C,REF\u002A\u002A342*%
X107970000Y-73570000D03*
%TD*%
%TO.C,REF\u002A\u002A446*%
X148610000Y-78650000D03*
%TD*%
%TO.C,REF\u002A\u002A5*%
X125750000Y-53250000D03*
%TD*%
%TO.C,REF\u002A\u002A431*%
X110510000Y-78650000D03*
%TD*%
%TO.C,REF\u002A\u002A671*%
X161310000Y-91350000D03*
%TD*%
%TO.C,REF\u002A\u002A961*%
X115590000Y-109130000D03*
%TD*%
%TO.C,REF\u002A\u002A234*%
X168930000Y-65950000D03*
%TD*%
%TO.C,REF\u002A\u002A258*%
X118130000Y-68490000D03*
%TD*%
%TO.C,REF\u002A\u002A631*%
X171470000Y-88810000D03*
%TD*%
%TO.C,REF\u002A\u002A221*%
X135910000Y-65950000D03*
%TD*%
%TO.C,REF\u002A\u002A361*%
X156230000Y-73570000D03*
%TD*%
%TO.C,REF\u002A\u002A969*%
X135910000Y-109130000D03*
%TD*%
%TO.C,REF\u002A\u002A983*%
X171470000Y-109130000D03*
%TD*%
%TO.C,REF\u002A\u002A68*%
X184170000Y-55790000D03*
%TD*%
%TO.C,REF\u002A\u002A963*%
X120670000Y-109130000D03*
%TD*%
%TO.C,REF\u002A\u002A402*%
X148610000Y-76110000D03*
%TD*%
%TO.C,REF\u002A\u002A396*%
X133370000Y-76110000D03*
%TD*%
%TO.C,REF\u002A\u002A21*%
X166390000Y-53250000D03*
%TD*%
%TO.C,REF\u002A\u002A869*%
X105430000Y-104050000D03*
%TD*%
%TO.C,REF\u002A\u002A505*%
X186710000Y-81190000D03*
%TD*%
%TO.C,REF\u002A\u002A470*%
X209570000Y-78650000D03*
%TD*%
D11*
%TO.C,REF\u002A\u002A*%
X104500000Y-117000000D03*
%TD*%
D10*
%TO.C,REF\u002A\u002A246*%
X199410000Y-65950000D03*
%TD*%
%TO.C,REF\u002A\u002A400*%
X143530000Y-76110000D03*
%TD*%
%TO.C,REF\u002A\u002A36*%
X204490000Y-53250000D03*
%TD*%
%TO.C,REF\u002A\u002A19*%
X161310000Y-53250000D03*
%TD*%
%TO.C,REF\u002A\u002A1084*%
X204490000Y-114210000D03*
%TD*%
%TO.C,REF\u002A\u002A543*%
X171470000Y-83730000D03*
%TD*%
%TO.C,REF\u002A\u002A612*%
X123210000Y-88810000D03*
%TD*%
%TO.C,REF\u002A\u002A197*%
X186710000Y-63410000D03*
%TD*%
%TO.C,REF\u002A\u002A528*%
X133370000Y-83730000D03*
%TD*%
%TO.C,REF\u002A\u002A345*%
X115590000Y-73570000D03*
%TD*%
%TO.C,REF\u002A\u002A1007*%
X120670000Y-111670000D03*
%TD*%
%TO.C,REF\u002A\u002A166*%
X107970000Y-63410000D03*
%TD*%
%TO.C,REF\u002A\u002A191*%
X171470000Y-63410000D03*
%TD*%
%TO.C,REF\u002A\u002A145*%
X166390000Y-60870000D03*
%TD*%
%TO.C,REF\u002A\u002A1036*%
X194330000Y-111670000D03*
%TD*%
%TO.C,REF\u002A\u002A413*%
X176550000Y-76110000D03*
%TD*%
%TO.C,REF\u002A\u002A770*%
X189250000Y-96430000D03*
%TD*%
%TO.C,REF\u002A\u002A575*%
X140990000Y-86270000D03*
%TD*%
%TO.C,REF\u002A\u002A901*%
X186710000Y-104050000D03*
%TD*%
%TO.C,REF\u002A\u002A1118*%
X179090000Y-116750000D03*
%TD*%
%TO.C,REF\u002A\u002A519*%
X110510000Y-83730000D03*
%TD*%
%TO.C,REF\u002A\u002A387*%
X110510000Y-76110000D03*
%TD*%
%TO.C,REF\u002A\u002A1031*%
X181630000Y-111670000D03*
%TD*%
%TO.C,REF\u002A\u002A710*%
X148610000Y-93890000D03*
%TD*%
%TO.C,REF\u002A\u002A278*%
X168930000Y-68490000D03*
%TD*%
%TO.C,REF\u002A\u002A651*%
X110510000Y-91350000D03*
%TD*%
%TO.C,REF\u002A\u002A281*%
X176550000Y-68490000D03*
%TD*%
%TO.C,REF\u002A\u002A307*%
X130830000Y-71030000D03*
%TD*%
D11*
%TO.C,REF\u002A\u002A*%
X157500000Y-85000000D03*
%TD*%
D10*
%TO.C,REF\u002A\u002A789*%
X125750000Y-98970000D03*
%TD*%
%TO.C,REF\u002A\u002A883*%
X140990000Y-104050000D03*
%TD*%
%TO.C,REF\u002A\u002A22*%
X168930000Y-53250000D03*
%TD*%
%TO.C,REF\u002A\u002A283*%
X181630000Y-68490000D03*
%TD*%
%TO.C,REF\u002A\u002A187*%
X161310000Y-63410000D03*
%TD*%
%TO.C,REF\u002A\u002A265*%
X135910000Y-68490000D03*
%TD*%
%TO.C,REF\u002A\u002A601*%
X207030000Y-86270000D03*
%TD*%
%TO.C,REF\u002A\u002A1127*%
X201950000Y-116750000D03*
%TD*%
%TO.C,REF\u002A\u002A861*%
X196870000Y-101510000D03*
%TD*%
%TO.C,REF\u002A\u002A362*%
X158770000Y-73570000D03*
%TD*%
%TO.C,REF\u002A\u002A1010*%
X128290000Y-111670000D03*
%TD*%
%TO.C,REF\u002A\u002A366*%
X168930000Y-73570000D03*
%TD*%
%TO.C,REF\u002A\u002A62*%
X168930000Y-55790000D03*
%TD*%
%TO.C,REF\u002A\u002A409*%
X166390000Y-76110000D03*
%TD*%
%TO.C,REF\u002A\u002A260*%
X123210000Y-68490000D03*
%TD*%
%TO.C,REF\u002A\u002A701*%
X125750000Y-93890000D03*
%TD*%
%TO.C,REF\u002A\u002A333*%
X196870000Y-71030000D03*
%TD*%
%TO.C,REF\u002A\u002A742*%
X118130000Y-96430000D03*
%TD*%
%TO.C,REF\u002A\u002A295*%
X212110000Y-68490000D03*
%TD*%
%TO.C,REF\u002A\u002A223*%
X140990000Y-65950000D03*
%TD*%
%TO.C,REF\u002A\u002A268*%
X143530000Y-68490000D03*
%TD*%
%TO.C,REF\u002A\u002A696*%
X113050000Y-93890000D03*
%TD*%
%TO.C,REF\u002A\u002A344*%
X113050000Y-73570000D03*
%TD*%
%TO.C,REF\u002A\u002A316*%
X153690000Y-71030000D03*
%TD*%
%TO.C,REF\u002A\u002A610*%
X118130000Y-88810000D03*
%TD*%
%TO.C,REF\u002A\u002A948*%
X194330000Y-106590000D03*
%TD*%
%TO.C,REF\u002A\u002A717*%
X166390000Y-93890000D03*
%TD*%
%TO.C,REF\u002A\u002A709*%
X146070000Y-93890000D03*
%TD*%
%TO.C,REF\u002A\u002A998*%
X209570000Y-109130000D03*
%TD*%
%TO.C,REF\u002A\u002A940*%
X174010000Y-106590000D03*
%TD*%
%TO.C,REF\u002A\u002A285*%
X186710000Y-68490000D03*
%TD*%
%TO.C,REF\u002A\u002A593*%
X186710000Y-86270000D03*
%TD*%
%TO.C,REF\u002A\u002A224*%
X143530000Y-65950000D03*
%TD*%
%TO.C,REF\u002A\u002A641*%
X196870000Y-88810000D03*
%TD*%
%TO.C,REF\u002A\u002A775*%
X201950000Y-96430000D03*
%TD*%
%TO.C,REF\u002A\u002A624*%
X153690000Y-88810000D03*
%TD*%
%TO.C,REF\u002A\u002A469*%
X207030000Y-78650000D03*
%TD*%
%TO.C,REF\u002A\u002A560*%
X102890000Y-86270000D03*
%TD*%
%TO.C,REF\u002A\u002A43*%
X120670000Y-55790000D03*
%TD*%
%TO.C,REF\u002A\u002A1073*%
X176550000Y-114210000D03*
%TD*%
%TO.C,REF\u002A\u002A12*%
X143530000Y-53250000D03*
%TD*%
%TO.C,REF\u002A\u002A647*%
X212110000Y-88810000D03*
%TD*%
%TO.C,REF\u002A\u002A527*%
X130830000Y-83730000D03*
%TD*%
%TO.C,REF\u002A\u002A168*%
X113050000Y-63410000D03*
%TD*%
D11*
%TO.C,REF\u002A\u002A*%
X210500000Y-117000000D03*
%TD*%
D10*
%TO.C,REF\u002A\u002A164*%
X102890000Y-63410000D03*
%TD*%
%TO.C,REF\u002A\u002A905*%
X196870000Y-104050000D03*
%TD*%
%TO.C,REF\u002A\u002A298*%
X107970000Y-71030000D03*
%TD*%
%TO.C,REF\u002A\u002A594*%
X189250000Y-86270000D03*
%TD*%
%TO.C,REF\u002A\u002A108*%
X184170000Y-58330000D03*
%TD*%
%TO.C,REF\u002A\u002A844*%
X153690000Y-101510000D03*
%TD*%
%TO.C,REF\u002A\u002A1059*%
X140990000Y-114210000D03*
%TD*%
%TO.C,REF\u002A\u002A138*%
X148610000Y-60870000D03*
%TD*%
%TO.C,REF\u002A\u002A232*%
X163850000Y-65950000D03*
%TD*%
%TO.C,REF\u002A\u002A978*%
X158770000Y-109130000D03*
%TD*%
%TO.C,REF\u002A\u002A113*%
X196870000Y-58330000D03*
%TD*%
%TO.C,REF\u002A\u002A697*%
X115590000Y-93890000D03*
%TD*%
%TO.C,REF\u002A\u002A225*%
X146070000Y-65950000D03*
%TD*%
%TO.C,REF\u002A\u002A857*%
X186710000Y-101510000D03*
%TD*%
%TO.C,REF\u002A\u002A777*%
X207030000Y-96430000D03*
%TD*%
%TO.C,REF\u002A\u002A423*%
X201950000Y-76110000D03*
%TD*%
%TO.C,REF\u002A\u002A399*%
X140990000Y-76110000D03*
%TD*%
%TO.C,REF\u002A\u002A1117*%
X176550000Y-116750000D03*
%TD*%
%TO.C,REF\u002A\u002A*%
X110510000Y-53250000D03*
%TD*%
%TO.C,REF\u002A\u002A796*%
X143530000Y-98970000D03*
%TD*%
%TO.C,REF\u002A\u002A852*%
X174010000Y-101510000D03*
%TD*%
%TO.C,REF\u002A\u002A1054*%
X128290000Y-114210000D03*
%TD*%
%TO.C,REF\u002A\u002A211*%
X110510000Y-65950000D03*
%TD*%
%TO.C,REF\u002A\u002A1113*%
X166390000Y-116750000D03*
%TD*%
%TO.C,REF\u002A\u002A514*%
X209570000Y-81190000D03*
%TD*%
%TO.C,REF\u002A\u002A687*%
X201950000Y-91350000D03*
%TD*%
%TO.C,REF\u002A\u002A149*%
X176550000Y-60870000D03*
%TD*%
%TO.C,REF\u002A\u002A866*%
X209570000Y-101510000D03*
%TD*%
%TO.C,REF\u002A\u002A207*%
X212110000Y-63410000D03*
%TD*%
%TO.C,REF\u002A\u002A957*%
X105430000Y-109130000D03*
%TD*%
%TO.C,REF\u002A\u002A553*%
X196870000Y-83730000D03*
%TD*%
%TO.C,REF\u002A\u002A1023*%
X161310000Y-111670000D03*
%TD*%
%TO.C,REF\u002A\u002A1029*%
X176550000Y-111670000D03*
%TD*%
%TO.C,REF\u002A\u002A182*%
X148610000Y-63410000D03*
%TD*%
%TO.C,REF\u002A\u002A800*%
X153690000Y-98970000D03*
%TD*%
%TO.C,REF\u002A\u002A363*%
X161310000Y-73570000D03*
%TD*%
%TO.C,REF\u002A\u002A178*%
X138450000Y-63410000D03*
%TD*%
%TO.C,REF\u002A\u002A550*%
X189250000Y-83730000D03*
%TD*%
%TO.C,REF\u002A\u002A1107*%
X151150000Y-116750000D03*
%TD*%
%TO.C,REF\u002A\u002A57*%
X156230000Y-55790000D03*
%TD*%
%TO.C,REF\u002A\u002A165*%
X105430000Y-63410000D03*
%TD*%
%TO.C,REF\u002A\u002A774*%
X199410000Y-96430000D03*
%TD*%
%TO.C,REF\u002A\u002A806*%
X168930000Y-98970000D03*
%TD*%
%TO.C,REF\u002A\u002A121*%
X105430000Y-60870000D03*
%TD*%
%TO.C,REF\u002A\u002A111*%
X191790000Y-58330000D03*
%TD*%
%TO.C,REF\u002A\u002A953*%
X207030000Y-106590000D03*
%TD*%
%TO.C,REF\u002A\u002A126*%
X118130000Y-60870000D03*
%TD*%
%TO.C,REF\u002A\u002A1075*%
X181630000Y-114210000D03*
%TD*%
%TO.C,REF\u002A\u002A743*%
X120670000Y-96430000D03*
%TD*%
%TO.C,REF\u002A\u002A649*%
X105430000Y-91350000D03*
%TD*%
%TO.C,REF\u002A\u002A331*%
X191790000Y-71030000D03*
%TD*%
%TO.C,REF\u002A\u002A422*%
X199410000Y-76110000D03*
%TD*%
%TO.C,REF\u002A\u002A174*%
X128290000Y-63410000D03*
%TD*%
%TO.C,REF\u002A\u002A107*%
X181630000Y-58330000D03*
%TD*%
%TO.C,REF\u002A\u002A765*%
X176550000Y-96430000D03*
%TD*%
%TO.C,REF\u002A\u002A87*%
X130830000Y-58330000D03*
%TD*%
%TO.C,REF\u002A\u002A927*%
X140990000Y-106590000D03*
%TD*%
%TO.C,REF\u002A\u002A769*%
X186710000Y-96430000D03*
%TD*%
%TO.C,REF\u002A\u002A1009*%
X125750000Y-111670000D03*
%TD*%
%TO.C,REF\u002A\u002A635*%
X181630000Y-88810000D03*
%TD*%
%TO.C,REF\u002A\u002A455*%
X171470000Y-78650000D03*
%TD*%
%TO.C,REF\u002A\u002A460*%
X184170000Y-78650000D03*
%TD*%
%TO.C,REF\u002A\u002A11*%
X140990000Y-53250000D03*
%TD*%
%TO.C,REF\u002A\u002A591*%
X181630000Y-86270000D03*
%TD*%
%TO.C,REF\u002A\u002A980*%
X163850000Y-109130000D03*
%TD*%
%TO.C,REF\u002A\u002A1103*%
X140990000Y-116750000D03*
%TD*%
%TO.C,REF\u002A\u002A712*%
X153690000Y-93890000D03*
%TD*%
%TO.C,REF\u002A\u002A939*%
X171470000Y-106590000D03*
%TD*%
%TO.C,REF\u002A\u002A837*%
X135910000Y-101510000D03*
%TD*%
%TO.C,REF\u002A\u002A569*%
X125750000Y-86270000D03*
%TD*%
%TO.C,REF\u002A\u002A353*%
X135910000Y-73570000D03*
%TD*%
%TO.C,REF\u002A\u002A142*%
X158770000Y-60870000D03*
%TD*%
%TO.C,REF\u002A\u002A475*%
X110510000Y-81190000D03*
%TD*%
%TO.C,REF\u002A\u002A320*%
X163850000Y-71030000D03*
%TD*%
%TO.C,REF\u002A\u002A334*%
X199410000Y-71030000D03*
%TD*%
%TO.C,REF\u002A\u002A554*%
X199410000Y-83730000D03*
%TD*%
D11*
%TO.C,REF\u002A\u002A*%
X210500000Y-53000000D03*
%TD*%
D10*
%TO.C,REF\u002A\u002A340*%
X102890000Y-73570000D03*
%TD*%
%TO.C,REF\u002A\u002A83*%
X120670000Y-58330000D03*
%TD*%
%TO.C,REF\u002A\u002A253*%
X105430000Y-68490000D03*
%TD*%
%TO.C,REF\u002A\u002A689*%
X207030000Y-91350000D03*
%TD*%
%TO.C,REF\u002A\u002A966*%
X128290000Y-109130000D03*
%TD*%
%TO.C,REF\u002A\u002A616*%
X133370000Y-88810000D03*
%TD*%
%TO.C,REF\u002A\u002A758*%
X158770000Y-96430000D03*
%TD*%
%TO.C,REF\u002A\u002A894*%
X168930000Y-104050000D03*
%TD*%
%TO.C,REF\u002A\u002A236*%
X174010000Y-65950000D03*
%TD*%
%TO.C,REF\u002A\u002A31*%
X191790000Y-53250000D03*
%TD*%
%TO.C,REF\u002A\u002A82*%
X118130000Y-58330000D03*
%TD*%
%TO.C,REF\u002A\u002A911*%
X212110000Y-104050000D03*
%TD*%
%TO.C,REF\u002A\u002A733*%
X207030000Y-93890000D03*
%TD*%
%TO.C,REF\u002A\u002A75*%
X201950000Y-55790000D03*
%TD*%
%TO.C,REF\u002A\u002A412*%
X174010000Y-76110000D03*
%TD*%
%TO.C,REF\u002A\u002A33*%
X196870000Y-53250000D03*
%TD*%
%TO.C,REF\u002A\u002A365*%
X166390000Y-73570000D03*
%TD*%
%TO.C,REF\u002A\u002A1121*%
X186710000Y-116750000D03*
%TD*%
%TO.C,REF\u002A\u002A241*%
X186710000Y-65950000D03*
%TD*%
%TO.C,REF\u002A\u002A816*%
X194330000Y-98970000D03*
%TD*%
%TO.C,REF\u002A\u002A318*%
X158770000Y-71030000D03*
%TD*%
%TO.C,REF\u002A\u002A337*%
X207030000Y-71030000D03*
%TD*%
%TO.C,REF\u002A\u002A15*%
X151150000Y-53250000D03*
%TD*%
%TO.C,REF\u002A\u002A776*%
X204490000Y-96430000D03*
%TD*%
%TO.C,REF\u002A\u002A659*%
X130830000Y-91350000D03*
%TD*%
%TO.C,REF\u002A\u002A881*%
X135910000Y-104050000D03*
%TD*%
%TO.C,REF\u002A\u002A642*%
X199410000Y-88810000D03*
%TD*%
%TO.C,REF\u002A\u002A161*%
X207030000Y-60870000D03*
%TD*%
%TO.C,REF\u002A\u002A985*%
X176550000Y-109130000D03*
%TD*%
%TO.C,REF\u002A\u002A598*%
X199410000Y-86270000D03*
%TD*%
%TO.C,REF\u002A\u002A95*%
X151150000Y-58330000D03*
%TD*%
%TO.C,REF\u002A\u002A518*%
X107970000Y-83730000D03*
%TD*%
%TO.C,REF\u002A\u002A8*%
X133370000Y-53250000D03*
%TD*%
%TO.C,REF\u002A\u002A312*%
X143530000Y-71030000D03*
%TD*%
%TO.C,REF\u002A\u002A618*%
X138450000Y-88810000D03*
%TD*%
%TO.C,REF\u002A\u002A117*%
X207030000Y-58330000D03*
%TD*%
%TO.C,REF\u002A\u002A452*%
X163850000Y-78650000D03*
%TD*%
%TO.C,REF\u002A\u002A685*%
X196870000Y-91350000D03*
%TD*%
%TO.C,REF\u002A\u002A459*%
X181630000Y-78650000D03*
%TD*%
%TO.C,REF\u002A\u002A754*%
X148610000Y-96430000D03*
%TD*%
%TO.C,REF\u002A\u002A106*%
X179090000Y-58330000D03*
%TD*%
%TO.C,REF\u002A\u002A407*%
X161310000Y-76110000D03*
%TD*%
%TO.C,REF\u002A\u002A238*%
X179090000Y-65950000D03*
%TD*%
%TO.C,REF\u002A\u002A706*%
X138450000Y-93890000D03*
%TD*%
%TO.C,REF\u002A\u002A426*%
X209570000Y-76110000D03*
%TD*%
%TO.C,REF\u002A\u002A273*%
X156230000Y-68490000D03*
%TD*%
%TO.C,REF\u002A\u002A210*%
X107970000Y-65950000D03*
%TD*%
%TO.C,REF\u002A\u002A155*%
X191790000Y-60870000D03*
%TD*%
%TO.C,REF\u002A\u002A427*%
X212110000Y-76110000D03*
%TD*%
%TO.C,REF\u002A\u002A26*%
X179090000Y-53250000D03*
%TD*%
%TO.C,REF\u002A\u002A325*%
X176550000Y-71030000D03*
%TD*%
%TO.C,REF\u002A\u002A1038*%
X199410000Y-111670000D03*
%TD*%
%TO.C,REF\u002A\u002A1017*%
X146070000Y-111670000D03*
%TD*%
%TO.C,REF\u002A\u002A215*%
X120670000Y-65950000D03*
%TD*%
%TO.C,REF\u002A\u002A1056*%
X133370000Y-114210000D03*
%TD*%
%TO.C,REF\u002A\u002A574*%
X138450000Y-86270000D03*
%TD*%
%TO.C,REF\u002A\u002A35*%
X201950000Y-53250000D03*
%TD*%
%TO.C,REF\u002A\u002A439*%
X130830000Y-78650000D03*
%TD*%
%TO.C,REF\u002A\u002A458*%
X179090000Y-78650000D03*
%TD*%
%TO.C,REF\u002A\u002A994*%
X199410000Y-109130000D03*
%TD*%
%TO.C,REF\u002A\u002A377*%
X196870000Y-73570000D03*
%TD*%
%TO.C,REF\u002A\u002A176*%
X133370000Y-63410000D03*
%TD*%
%TO.C,REF\u002A\u002A904*%
X194330000Y-104050000D03*
%TD*%
%TO.C,REF\u002A\u002A740*%
X113050000Y-96430000D03*
%TD*%
%TO.C,REF\u002A\u002A853*%
X176550000Y-101510000D03*
%TD*%
%TO.C,REF\u002A\u002A918*%
X118130000Y-106590000D03*
%TD*%
%TO.C,REF\u002A\u002A204*%
X204490000Y-63410000D03*
%TD*%
%TO.C,REF\u002A\u002A424*%
X204490000Y-76110000D03*
%TD*%
%TO.C,REF\u002A\u002A903*%
X191790000Y-104050000D03*
%TD*%
%TO.C,REF\u002A\u002A1041*%
X207030000Y-111670000D03*
%TD*%
%TO.C,REF\u002A\u002A309*%
X135910000Y-71030000D03*
%TD*%
%TO.C,REF\u002A\u002A1081*%
X196870000Y-114210000D03*
%TD*%
%TO.C,REF\u002A\u002A201*%
X196870000Y-63410000D03*
%TD*%
%TO.C,REF\u002A\u002A657*%
X125750000Y-91350000D03*
%TD*%
%TO.C,REF\u002A\u002A1064*%
X153690000Y-114210000D03*
%TD*%
%TO.C,REF\u002A\u002A463*%
X191790000Y-78650000D03*
%TD*%
%TO.C,REF\u002A\u002A801*%
X156230000Y-98970000D03*
%TD*%
%TO.C,REF\u002A\u002A228*%
X153690000Y-65950000D03*
%TD*%
%TO.C,REF\u002A\u002A772*%
X194330000Y-96430000D03*
%TD*%
%TO.C,REF\u002A\u002A936*%
X163850000Y-106590000D03*
%TD*%
%TO.C,REF\u002A\u002A637*%
X186710000Y-88810000D03*
%TD*%
%TO.C,REF\u002A\u002A1082*%
X199410000Y-114210000D03*
%TD*%
%TO.C,REF\u002A\u002A1034*%
X189250000Y-111670000D03*
%TD*%
%TO.C,REF\u002A\u002A1123*%
X191790000Y-116750000D03*
%TD*%
%TO.C,REF\u002A\u002A162*%
X209570000Y-60870000D03*
%TD*%
%TO.C,REF\u002A\u002A72*%
X194330000Y-55790000D03*
%TD*%
%TO.C,REF\u002A\u002A294*%
X209570000Y-68490000D03*
%TD*%
%TO.C,REF\u002A\u002A506*%
X189250000Y-81190000D03*
%TD*%
%TO.C,REF\u002A\u002A119*%
X212110000Y-58330000D03*
%TD*%
%TO.C,REF\u002A\u002A588*%
X174010000Y-86270000D03*
%TD*%
%TO.C,REF\u002A\u002A547*%
X181630000Y-83730000D03*
%TD*%
%TO.C,REF\u002A\u002A300*%
X113050000Y-71030000D03*
%TD*%
%TO.C,REF\u002A\u002A447*%
X151150000Y-78650000D03*
%TD*%
%TO.C,REF\u002A\u002A952*%
X204490000Y-106590000D03*
%TD*%
%TO.C,REF\u002A\u002A558*%
X209570000Y-83730000D03*
%TD*%
%TO.C,REF\u002A\u002A288*%
X194330000Y-68490000D03*
%TD*%
%TO.C,REF\u002A\u002A199*%
X191790000Y-63410000D03*
%TD*%
%TO.C,REF\u002A\u002A150*%
X179090000Y-60870000D03*
%TD*%
%TO.C,REF\u002A\u002A464*%
X194330000Y-78650000D03*
%TD*%
%TO.C,REF\u002A\u002A824*%
X102890000Y-101510000D03*
%TD*%
%TO.C,REF\u002A\u002A46*%
X128290000Y-55790000D03*
%TD*%
%TO.C,REF\u002A\u002A495*%
X161310000Y-81190000D03*
%TD*%
%TO.C,REF\u002A\u002A274*%
X158770000Y-68490000D03*
%TD*%
%TO.C,REF\u002A\u002A512*%
X204490000Y-81190000D03*
%TD*%
%TO.C,REF\u002A\u002A212*%
X113050000Y-65950000D03*
%TD*%
%TO.C,REF\u002A\u002A382*%
X209570000Y-73570000D03*
%TD*%
%TO.C,REF\u002A\u002A18*%
X158770000Y-53250000D03*
%TD*%
%TO.C,REF\u002A\u002A61*%
X166390000Y-55790000D03*
%TD*%
%TO.C,REF\u002A\u002A395*%
X130830000Y-76110000D03*
%TD*%
%TO.C,REF\u002A\u002A840*%
X143530000Y-101510000D03*
%TD*%
%TO.C,REF\u002A\u002A477*%
X115590000Y-81190000D03*
%TD*%
%TO.C,REF\u002A\u002A89*%
X135910000Y-58330000D03*
%TD*%
%TO.C,REF\u002A\u002A555*%
X201950000Y-83730000D03*
%TD*%
%TO.C,REF\u002A\u002A532*%
X143530000Y-83730000D03*
%TD*%
%TO.C,REF\u002A\u002A443*%
X140990000Y-78650000D03*
%TD*%
%TO.C,REF\u002A\u002A136*%
X143530000Y-60870000D03*
%TD*%
%TO.C,REF\u002A\u002A694*%
X107970000Y-93890000D03*
%TD*%
%TO.C,REF\u002A\u002A937*%
X166390000Y-106590000D03*
%TD*%
%TO.C,REF\u002A\u002A209*%
X105430000Y-65950000D03*
%TD*%
%TO.C,REF\u002A\u002A879*%
X130830000Y-104050000D03*
%TD*%
%TO.C,REF\u002A\u002A276*%
X163850000Y-68490000D03*
%TD*%
%TO.C,REF\u002A\u002A570*%
X128290000Y-86270000D03*
%TD*%
%TO.C,REF\u002A\u002A420*%
X194330000Y-76110000D03*
%TD*%
%TO.C,REF\u002A\u002A1037*%
X196870000Y-111670000D03*
%TD*%
%TO.C,REF\u002A\u002A711*%
X151150000Y-93890000D03*
%TD*%
%TO.C,REF\u002A\u002A691*%
X212110000Y-91350000D03*
%TD*%
%TO.C,REF\u002A\u002A158*%
X199410000Y-60870000D03*
%TD*%
%TO.C,REF\u002A\u002A277*%
X166390000Y-68490000D03*
%TD*%
%TO.C,REF\u002A\u002A534*%
X148610000Y-83730000D03*
%TD*%
%TO.C,REF\u002A\u002A449*%
X156230000Y-78650000D03*
%TD*%
%TO.C,REF\u002A\u002A297*%
X105430000Y-71030000D03*
%TD*%
%TO.C,REF\u002A\u002A665*%
X146070000Y-91350000D03*
%TD*%
%TO.C,REF\u002A\u002A327*%
X181630000Y-71030000D03*
%TD*%
%TO.C,REF\u002A\u002A338*%
X209570000Y-71030000D03*
%TD*%
%TO.C,REF\u002A\u002A977*%
X156230000Y-109130000D03*
%TD*%
%TO.C,REF\u002A\u002A146*%
X168930000Y-60870000D03*
%TD*%
%TO.C,REF\u002A\u002A960*%
X113050000Y-109130000D03*
%TD*%
%TO.C,REF\u002A\u002A440*%
X133370000Y-78650000D03*
%TD*%
%TO.C,REF\u002A\u002A66*%
X179090000Y-55790000D03*
%TD*%
%TO.C,REF\u002A\u002A944*%
X184170000Y-106590000D03*
%TD*%
%TO.C,REF\u002A\u002A1040*%
X204490000Y-111670000D03*
%TD*%
%TO.C,REF\u002A\u002A73*%
X196870000Y-55790000D03*
%TD*%
%TO.C,REF\u002A\u002A48*%
X133370000Y-55790000D03*
%TD*%
%TO.C,REF\u002A\u002A613*%
X125750000Y-88810000D03*
%TD*%
%TO.C,REF\u002A\u002A249*%
X207030000Y-65950000D03*
%TD*%
%TO.C,REF\u002A\u002A14*%
X148610000Y-53250000D03*
%TD*%
%TO.C,REF\u002A\u002A482*%
X128290000Y-81190000D03*
%TD*%
%TO.C,REF\u002A\u002A784*%
X113050000Y-98970000D03*
%TD*%
%TO.C,REF\u002A\u002A245*%
X196870000Y-65950000D03*
%TD*%
%TO.C,REF\u002A\u002A779*%
X212110000Y-96430000D03*
%TD*%
%TO.C,REF\u002A\u002A329*%
X186710000Y-71030000D03*
%TD*%
%TO.C,REF\u002A\u002A368*%
X174010000Y-73570000D03*
%TD*%
%TO.C,REF\u002A\u002A880*%
X133370000Y-104050000D03*
%TD*%
%TO.C,REF\u002A\u002A1002*%
X107970000Y-111670000D03*
%TD*%
%TO.C,REF\u002A\u002A860*%
X194330000Y-101510000D03*
%TD*%
%TO.C,REF\u002A\u002A507*%
X191790000Y-81190000D03*
%TD*%
%TO.C,REF\u002A\u002A39*%
X110510000Y-55790000D03*
%TD*%
%TO.C,REF\u002A\u002A818*%
X199410000Y-98970000D03*
%TD*%
%TO.C,REF\u002A\u002A74*%
X199410000Y-55790000D03*
%TD*%
%TO.C,REF\u002A\u002A634*%
X179090000Y-88810000D03*
%TD*%
%TO.C,REF\u002A\u002A826*%
X107970000Y-101510000D03*
%TD*%
%TO.C,REF\u002A\u002A324*%
X174010000Y-71030000D03*
%TD*%
%TO.C,REF\u002A\u002A1051*%
X120670000Y-114210000D03*
%TD*%
%TO.C,REF\u002A\u002A375*%
X191790000Y-73570000D03*
%TD*%
%TO.C,REF\u002A\u002A788*%
X123210000Y-98970000D03*
%TD*%
%TO.C,REF\u002A\u002A127*%
X120670000Y-60870000D03*
%TD*%
%TO.C,REF\u002A\u002A822*%
X209570000Y-98970000D03*
%TD*%
%TO.C,REF\u002A\u002A559*%
X212110000Y-83730000D03*
%TD*%
%TO.C,REF\u002A\u002A858*%
X189250000Y-101510000D03*
%TD*%
%TO.C,REF\u002A\u002A401*%
X146070000Y-76110000D03*
%TD*%
%TO.C,REF\u002A\u002A544*%
X174010000Y-83730000D03*
%TD*%
%TO.C,REF\u002A\u002A652*%
X113050000Y-91350000D03*
%TD*%
%TO.C,REF\u002A\u002A118*%
X209570000Y-58330000D03*
%TD*%
%TO.C,REF\u002A\u002A64*%
X174010000Y-55790000D03*
%TD*%
%TO.C,REF\u002A\u002A321*%
X166390000Y-71030000D03*
%TD*%
%TO.C,REF\u002A\u002A114*%
X199410000Y-58330000D03*
%TD*%
%TO.C,REF\u002A\u002A946*%
X189250000Y-106590000D03*
%TD*%
%TO.C,REF\u002A\u002A762*%
X168930000Y-96430000D03*
%TD*%
%TO.C,REF\u002A\u002A310*%
X138450000Y-71030000D03*
%TD*%
%TO.C,REF\u002A\u002A303*%
X120670000Y-71030000D03*
%TD*%
%TO.C,REF\u002A\u002A39*%
X102890000Y-58330000D03*
%TD*%
%TO.C,REF\u002A\u002A1128*%
X204490000Y-116750000D03*
%TD*%
%TO.C,REF\u002A\u002A780*%
X102890000Y-98970000D03*
%TD*%
%TO.C,REF\u002A\u002A341*%
X105430000Y-73570000D03*
%TD*%
%TO.C,REF\u002A\u002A856*%
X184170000Y-101510000D03*
%TD*%
%TO.C,REF\u002A\u002A123*%
X110510000Y-60870000D03*
%TD*%
%TO.C,REF\u002A\u002A942*%
X179090000Y-106590000D03*
%TD*%
%TO.C,REF\u002A\u002A490*%
X148610000Y-81190000D03*
%TD*%
%TO.C,REF\u002A\u002A263*%
X130830000Y-68490000D03*
%TD*%
%TO.C,REF\u002A\u002A592*%
X184170000Y-86270000D03*
%TD*%
%TO.C,REF\u002A\u002A603*%
X212110000Y-86270000D03*
%TD*%
%TO.C,REF\u002A\u002A1070*%
X168930000Y-114210000D03*
%TD*%
%TO.C,REF\u002A\u002A381*%
X207030000Y-73570000D03*
%TD*%
%TO.C,REF\u002A\u002A86*%
X128290000Y-58330000D03*
%TD*%
%TO.C,REF\u002A\u002A748*%
X133370000Y-96430000D03*
%TD*%
%TO.C,REF\u002A\u002A415*%
X181630000Y-76110000D03*
%TD*%
%TO.C,REF\u002A\u002A988*%
X184170000Y-109130000D03*
%TD*%
%TO.C,REF\u002A\u002A135*%
X140990000Y-60870000D03*
%TD*%
%TO.C,REF\u002A\u002A887*%
X151150000Y-104050000D03*
%TD*%
%TO.C,REF\u002A\u002A928*%
X143530000Y-106590000D03*
%TD*%
%TO.C,REF\u002A\u002A444*%
X143530000Y-78650000D03*
%TD*%
%TO.C,REF\u002A\u002A451*%
X161310000Y-78650000D03*
%TD*%
%TO.C,REF\u002A\u002A909*%
X207030000Y-104050000D03*
%TD*%
%TO.C,REF\u002A\u002A725*%
X186710000Y-93890000D03*
%TD*%
%TO.C,REF\u002A\u002A620*%
X143530000Y-88810000D03*
%TD*%
%TO.C,REF\u002A\u002A973*%
X146070000Y-109130000D03*
%TD*%
%TO.C,REF\u002A\u002A404*%
X153690000Y-76110000D03*
%TD*%
%TO.C,REF\u002A\u002A40*%
X113050000Y-55790000D03*
%TD*%
%TO.C,REF\u002A\u002A1092*%
X113050000Y-116750000D03*
%TD*%
%TO.C,REF\u002A\u002A371*%
X181630000Y-73570000D03*
%TD*%
%TO.C,REF\u002A\u002A196*%
X184170000Y-63410000D03*
%TD*%
%TO.C,REF\u002A\u002A445*%
X146070000Y-78650000D03*
%TD*%
%TO.C,REF\u002A\u002A379*%
X201950000Y-73570000D03*
%TD*%
%TO.C,REF\u002A\u002A562*%
X107970000Y-86270000D03*
%TD*%
%TO.C,REF\u002A\u002A847*%
X161310000Y-101510000D03*
%TD*%
%TO.C,REF\u002A\u002A437*%
X125750000Y-78650000D03*
%TD*%
%TO.C,REF\u002A\u002A373*%
X186710000Y-73570000D03*
%TD*%
%TO.C,REF\u002A\u002A718*%
X168930000Y-93890000D03*
%TD*%
%TO.C,REF\u002A\u002A261*%
X125750000Y-68490000D03*
%TD*%
%TO.C,REF\u002A\u002A132*%
X133370000Y-60870000D03*
%TD*%
%TO.C,REF\u002A\u002A564*%
X113050000Y-86270000D03*
%TD*%
%TO.C,REF\u002A\u002A787*%
X120670000Y-98970000D03*
%TD*%
%TO.C,REF\u002A\u002A832*%
X123210000Y-101510000D03*
%TD*%
%TO.C,REF\u002A\u002A898*%
X179090000Y-104050000D03*
%TD*%
%TO.C,REF\u002A\u002A690*%
X209570000Y-91350000D03*
%TD*%
%TO.C,REF\u002A\u002A1097*%
X125750000Y-116750000D03*
%TD*%
%TO.C,REF\u002A\u002A916*%
X113050000Y-106590000D03*
%TD*%
%TO.C,REF\u002A\u002A442*%
X138450000Y-78650000D03*
%TD*%
%TO.C,REF\u002A\u002A791*%
X130830000Y-98970000D03*
%TD*%
%TO.C,REF\u002A\u002A301*%
X115590000Y-71030000D03*
%TD*%
%TO.C,REF\u002A\u002A206*%
X209570000Y-63410000D03*
%TD*%
%TO.C,REF\u002A\u002A524*%
X123210000Y-83730000D03*
%TD*%
%TO.C,REF\u002A\u002A619*%
X140990000Y-88810000D03*
%TD*%
%TO.C,REF\u002A\u002A835*%
X130830000Y-101510000D03*
%TD*%
%TO.C,REF\u002A\u002A275*%
X161310000Y-68490000D03*
%TD*%
%TO.C,REF\u002A\u002A655*%
X120670000Y-91350000D03*
%TD*%
%TO.C,REF\u002A\u002A468*%
X204490000Y-78650000D03*
%TD*%
%TO.C,REF\u002A\u002A69*%
X186710000Y-55790000D03*
%TD*%
%TO.C,REF\u002A\u002A139*%
X151150000Y-60870000D03*
%TD*%
%TO.C,REF\u002A\u002A448*%
X153690000Y-78650000D03*
%TD*%
%TO.C,REF\u002A\u002A1003*%
X110510000Y-111670000D03*
%TD*%
%TO.C,REF\u002A\u002A974*%
X148610000Y-109130000D03*
%TD*%
%TO.C,REF\u002A\u002A967*%
X130830000Y-109130000D03*
%TD*%
%TO.C,REF\u002A\u002A188*%
X163850000Y-63410000D03*
%TD*%
%TO.C,REF\u002A\u002A326*%
X179090000Y-71030000D03*
%TD*%
%TO.C,REF\u002A\u002A941*%
X176550000Y-106590000D03*
%TD*%
%TO.C,REF\u002A\u002A231*%
X161310000Y-65950000D03*
%TD*%
%TO.C,REF\u002A\u002A1091*%
X110510000Y-116750000D03*
%TD*%
%TO.C,REF\u002A\u002A771*%
X191790000Y-96430000D03*
%TD*%
%TO.C,REF\u002A\u002A1108*%
X153690000Y-116750000D03*
%TD*%
%TO.C,REF\u002A\u002A750*%
X138450000Y-96430000D03*
%TD*%
%TO.C,REF\u002A\u002A1005*%
X115590000Y-111670000D03*
%TD*%
%TO.C,REF\u002A\u002A541*%
X166390000Y-83730000D03*
%TD*%
%TO.C,REF\u002A\u002A1109*%
X156230000Y-116750000D03*
%TD*%
%TO.C,REF\u002A\u002A293*%
X207030000Y-68490000D03*
%TD*%
%TO.C,REF\u002A\u002A1067*%
X161310000Y-114210000D03*
%TD*%
%TO.C,REF\u002A\u002A681*%
X186710000Y-91350000D03*
%TD*%
%TO.C,REF\u002A\u002A831*%
X120670000Y-101510000D03*
%TD*%
%TO.C,REF\u002A\u002A134*%
X138450000Y-60870000D03*
%TD*%
%TO.C,REF\u002A\u002A500*%
X174010000Y-81190000D03*
%TD*%
%TO.C,REF\u002A\u002A759*%
X161310000Y-96430000D03*
%TD*%
%TO.C,REF\u002A\u002A213*%
X115590000Y-65950000D03*
%TD*%
%TO.C,REF\u002A\u002A292*%
X204490000Y-68490000D03*
%TD*%
%TO.C,REF\u002A\u002A900*%
X184170000Y-104050000D03*
%TD*%
%TO.C,REF\u002A\u002A1014*%
X138450000Y-111670000D03*
%TD*%
%TO.C,REF\u002A\u002A317*%
X156230000Y-71030000D03*
%TD*%
%TO.C,REF\u002A\u002A436*%
X123210000Y-78650000D03*
%TD*%
%TO.C,REF\u002A\u002A24*%
X174010000Y-53250000D03*
%TD*%
%TO.C,REF\u002A\u002A131*%
X130830000Y-60870000D03*
%TD*%
%TO.C,REF\u002A\u002A110*%
X189250000Y-58330000D03*
%TD*%
%TO.C,REF\u002A\u002A47*%
X130830000Y-55790000D03*
%TD*%
%TO.C,REF\u002A\u002A378*%
X199410000Y-73570000D03*
%TD*%
%TO.C,REF\u002A\u002A678*%
X179090000Y-91350000D03*
%TD*%
%TO.C,REF\u002A\u002A921*%
X125750000Y-106590000D03*
%TD*%
%TO.C,REF\u002A\u002A335*%
X201950000Y-71030000D03*
%TD*%
%TO.C,REF\u002A\u002A269*%
X146070000Y-68490000D03*
%TD*%
%TO.C,REF\u002A\u002A63*%
X171470000Y-55790000D03*
%TD*%
%TO.C,REF\u002A\u002A567*%
X120670000Y-86270000D03*
%TD*%
%TO.C,REF\u002A\u002A1058*%
X138450000Y-114210000D03*
%TD*%
%TO.C,REF\u002A\u002A949*%
X196870000Y-106590000D03*
%TD*%
%TO.C,REF\u002A\u002A175*%
X130830000Y-63410000D03*
%TD*%
%TO.C,REF\u002A\u002A1115*%
X171470000Y-116750000D03*
%TD*%
%TO.C,REF\u002A\u002A214*%
X118130000Y-65950000D03*
%TD*%
%TO.C,REF\u002A\u002A354*%
X138450000Y-73570000D03*
%TD*%
%TO.C,REF\u002A\u002A330*%
X189250000Y-71030000D03*
%TD*%
%TO.C,REF\u002A\u002A849*%
X166390000Y-101510000D03*
%TD*%
%TO.C,REF\u002A\u002A257*%
X115590000Y-68490000D03*
%TD*%
%TO.C,REF\u002A\u002A243*%
X191790000Y-65950000D03*
%TD*%
%TO.C,REF\u002A\u002A159*%
X201950000Y-60870000D03*
%TD*%
%TO.C,REF\u002A\u002A17*%
X156230000Y-53250000D03*
%TD*%
%TO.C,REF\u002A\u002A700*%
X123210000Y-93890000D03*
%TD*%
%TO.C,REF\u002A\u002A125*%
X115590000Y-60870000D03*
%TD*%
%TO.C,REF\u002A\u002A185*%
X156230000Y-63410000D03*
%TD*%
%TO.C,REF\u002A\u002A160*%
X204490000Y-60870000D03*
%TD*%
%TO.C,REF\u002A\u002A749*%
X135910000Y-96430000D03*
%TD*%
%TO.C,REF\u002A\u002A222*%
X138450000Y-65950000D03*
%TD*%
%TO.C,REF\u002A\u002A609*%
X115590000Y-88810000D03*
%TD*%
%TO.C,REF\u002A\u002A492*%
X153690000Y-81190000D03*
%TD*%
%TO.C,REF\u002A\u002A76*%
X204490000Y-55790000D03*
%TD*%
%TO.C,REF\u002A\u002A390*%
X118130000Y-76110000D03*
%TD*%
%TO.C,REF\u002A\u002A999*%
X212110000Y-109130000D03*
%TD*%
%TO.C,REF\u002A\u002A339*%
X212110000Y-71030000D03*
%TD*%
%TO.C,REF\u002A\u002A542*%
X168930000Y-83730000D03*
%TD*%
%TO.C,REF\u002A\u002A993*%
X196870000Y-109130000D03*
%TD*%
%TO.C,REF\u002A\u002A287*%
X191790000Y-68490000D03*
%TD*%
%TO.C,REF\u002A\u002A922*%
X128290000Y-106590000D03*
%TD*%
%TO.C,REF\u002A\u002A1012*%
X133370000Y-111670000D03*
%TD*%
%TO.C,REF\u002A\u002A189*%
X166390000Y-63410000D03*
%TD*%
%TO.C,REF\u002A\u002A938*%
X168930000Y-106590000D03*
%TD*%
%TO.C,REF\u002A\u002A247*%
X201950000Y-65950000D03*
%TD*%
%TO.C,REF\u002A\u002A680*%
X184170000Y-91350000D03*
%TD*%
%TO.C,REF\u002A\u002A192*%
X174010000Y-63410000D03*
%TD*%
%TO.C,REF\u002A\u002A1048*%
X113050000Y-114210000D03*
%TD*%
%TO.C,REF\u002A\u002A587*%
X171470000Y-86270000D03*
%TD*%
%TO.C,REF\u002A\u002A109*%
X186710000Y-58330000D03*
%TD*%
%TO.C,REF\u002A\u002A991*%
X191790000Y-109130000D03*
%TD*%
%TO.C,REF\u002A\u002A1050*%
X118130000Y-114210000D03*
%TD*%
%TO.C,REF\u002A\u002A692*%
X102890000Y-93890000D03*
%TD*%
%TO.C,REF\u002A\u002A525*%
X125750000Y-83730000D03*
%TD*%
%TO.C,REF\u002A\u002A202*%
X199410000Y-63410000D03*
%TD*%
%TO.C,REF\u002A\u002A995*%
X201950000Y-109130000D03*
%TD*%
%TO.C,REF\u002A\u002A530*%
X138450000Y-83730000D03*
%TD*%
%TO.C,REF\u002A\u002A483*%
X130830000Y-81190000D03*
%TD*%
%TO.C,REF\u002A\u002A403*%
X151150000Y-76110000D03*
%TD*%
%TO.C,REF\u002A\u002A308*%
X133370000Y-71030000D03*
%TD*%
%TO.C,REF\u002A\u002A28*%
X184170000Y-53250000D03*
%TD*%
%TO.C,REF\u002A\u002A989*%
X186710000Y-109130000D03*
%TD*%
%TO.C,REF\u002A\u002A270*%
X148610000Y-68490000D03*
%TD*%
%TO.C,REF\u002A\u002A476*%
X113050000Y-81190000D03*
%TD*%
%TO.C,REF\u002A\u002A1001*%
X105430000Y-111670000D03*
%TD*%
%TO.C,REF\u002A\u002A979*%
X161310000Y-109130000D03*
%TD*%
%TO.C,REF\u002A\u002A101*%
X166390000Y-58330000D03*
%TD*%
%TO.C,REF\u002A\u002A646*%
X209570000Y-88810000D03*
%TD*%
%TO.C,REF\u002A\u002A864*%
X204490000Y-101510000D03*
%TD*%
%TO.C,REF\u002A\u002A30*%
X189250000Y-53250000D03*
%TD*%
%TO.C,REF\u002A\u002A932*%
X153690000Y-106590000D03*
%TD*%
%TO.C,REF\u002A\u002A874*%
X118130000Y-104050000D03*
%TD*%
%TO.C,REF\u002A\u002A741*%
X115590000Y-96430000D03*
%TD*%
%TO.C,REF\u002A\u002A813*%
X186710000Y-98970000D03*
%TD*%
%TO.C,REF\u002A\u002A411*%
X171470000Y-76110000D03*
%TD*%
%TO.C,REF\u002A\u002A1006*%
X118130000Y-111670000D03*
%TD*%
%TO.C,REF\u002A\u002A599*%
X201950000Y-86270000D03*
%TD*%
%TO.C,REF\u002A\u002A839*%
X140990000Y-101510000D03*
%TD*%
%TO.C,REF\u002A\u002A1078*%
X189250000Y-114210000D03*
%TD*%
%TO.C,REF\u002A\u002A682*%
X189250000Y-91350000D03*
%TD*%
%TO.C,REF\u002A\u002A218*%
X128290000Y-65950000D03*
%TD*%
%TO.C,REF\u002A\u002A78*%
X107970000Y-58330000D03*
%TD*%
%TO.C,REF\u002A\u002A572*%
X133370000Y-86270000D03*
%TD*%
%TO.C,REF\u002A\u002A262*%
X128290000Y-68490000D03*
%TD*%
%TO.C,REF\u002A\u002A198*%
X189250000Y-63410000D03*
%TD*%
%TO.C,REF\u002A\u002A1104*%
X143530000Y-116750000D03*
%TD*%
%TO.C,REF\u002A\u002A668*%
X153690000Y-91350000D03*
%TD*%
%TO.C,REF\u002A\u002A714*%
X158770000Y-93890000D03*
%TD*%
%TO.C,REF\u002A\u002A509*%
X196870000Y-81190000D03*
%TD*%
%TO.C,REF\u002A\u002A841*%
X146070000Y-101510000D03*
%TD*%
%TO.C,REF\u002A\u002A406*%
X158770000Y-76110000D03*
%TD*%
%TO.C,REF\u002A\u002A640*%
X194330000Y-88810000D03*
%TD*%
%TO.C,REF\u002A\u002A828*%
X113050000Y-101510000D03*
%TD*%
D11*
%TO.C,REF\u002A\u002A*%
X104500000Y-53000000D03*
%TD*%
D10*
%TO.C,REF\u002A\u002A766*%
X179090000Y-96430000D03*
%TD*%
%TO.C,REF\u002A\u002A32*%
X194330000Y-53250000D03*
%TD*%
%TO.C,REF\u002A\u002A842*%
X148610000Y-101510000D03*
%TD*%
%TO.C,REF\u002A\u002A931*%
X151150000Y-106590000D03*
%TD*%
%TO.C,REF\u002A\u002A305*%
X125750000Y-71030000D03*
%TD*%
%TO.C,REF\u002A\u002A902*%
X189250000Y-104050000D03*
%TD*%
%TO.C,REF\u002A\u002A622*%
X148610000Y-88810000D03*
%TD*%
%TO.C,REF\u002A\u002A219*%
X130830000Y-65950000D03*
%TD*%
%TO.C,REF\u002A\u002A384*%
X102890000Y-76110000D03*
%TD*%
%TO.C,REF\u002A\u002A819*%
X201950000Y-98970000D03*
%TD*%
%TO.C,REF\u002A\u002A1077*%
X186710000Y-114210000D03*
%TD*%
%TO.C,REF\u002A\u002A53*%
X146070000Y-55790000D03*
%TD*%
%TO.C,REF\u002A\u002A180*%
X143530000Y-63410000D03*
%TD*%
%TO.C,REF\u002A\u002A1*%
X115590000Y-53250000D03*
%TD*%
%TO.C,REF\u002A\u002A170*%
X118130000Y-63410000D03*
%TD*%
%TO.C,REF\u002A\u002A1072*%
X174010000Y-114210000D03*
%TD*%
%TO.C,REF\u002A\u002A724*%
X184170000Y-93890000D03*
%TD*%
%TO.C,REF\u002A\u002A548*%
X184170000Y-83730000D03*
%TD*%
%TO.C,REF\u002A\u002A854*%
X179090000Y-101510000D03*
%TD*%
%TO.C,REF\u002A\u002A1027*%
X171470000Y-111670000D03*
%TD*%
%TO.C,REF\u002A\u002A1114*%
X168930000Y-116750000D03*
%TD*%
%TO.C,REF\u002A\u002A237*%
X176550000Y-65950000D03*
%TD*%
%TO.C,REF\u002A\u002A914*%
X107970000Y-106590000D03*
%TD*%
%TO.C,REF\u002A\u002A965*%
X125750000Y-109130000D03*
%TD*%
%TO.C,REF\u002A\u002A807*%
X171470000Y-98970000D03*
%TD*%
%TO.C,REF\u002A\u002A279*%
X171470000Y-68490000D03*
%TD*%
%TO.C,REF\u002A\u002A359*%
X151150000Y-73570000D03*
%TD*%
%TO.C,REF\u002A\u002A876*%
X123210000Y-104050000D03*
%TD*%
%TO.C,REF\u002A\u002A392*%
X123210000Y-76110000D03*
%TD*%
%TO.C,REF\u002A\u002A70*%
X189250000Y-55790000D03*
%TD*%
%TO.C,REF\u002A\u002A284*%
X184170000Y-68490000D03*
%TD*%
%TO.C,REF\u002A\u002A606*%
X107970000Y-88810000D03*
%TD*%
%TO.C,REF\u002A\u002A1106*%
X148610000Y-116750000D03*
%TD*%
%TO.C,REF\u002A\u002A79*%
X110510000Y-58330000D03*
%TD*%
%TO.C,REF\u002A\u002A611*%
X120670000Y-88810000D03*
%TD*%
%TO.C,REF\u002A\u002A529*%
X135910000Y-83730000D03*
%TD*%
%TO.C,REF\u002A\u002A323*%
X171470000Y-71030000D03*
%TD*%
%TO.C,REF\u002A\u002A893*%
X166390000Y-104050000D03*
%TD*%
%TO.C,REF\u002A\u002A147*%
X171470000Y-60870000D03*
%TD*%
%TO.C,REF\u002A\u002A913*%
X105430000Y-106590000D03*
%TD*%
%TO.C,REF\u002A\u002A520*%
X113050000Y-83730000D03*
%TD*%
%TO.C,REF\u002A\u002A799*%
X151150000Y-98970000D03*
%TD*%
%TO.C,REF\u002A\u002A41*%
X115590000Y-55790000D03*
%TD*%
%TO.C,REF\u002A\u002A226*%
X148610000Y-65950000D03*
%TD*%
%TO.C,REF\u002A\u002A289*%
X196870000Y-68490000D03*
%TD*%
%TO.C,REF\u002A\u002A1025*%
X166390000Y-111670000D03*
%TD*%
%TO.C,REF\u002A\u002A597*%
X196870000Y-86270000D03*
%TD*%
%TO.C,REF\u002A\u002A1122*%
X189250000Y-116750000D03*
%TD*%
%TO.C,REF\u002A\u002A1069*%
X166390000Y-114210000D03*
%TD*%
%TO.C,REF\u002A\u002A920*%
X123210000Y-106590000D03*
%TD*%
%TO.C,REF\u002A\u002A1011*%
X130830000Y-111670000D03*
%TD*%
%TO.C,REF\u002A\u002A456*%
X174010000Y-78650000D03*
%TD*%
%TO.C,REF\u002A\u002A602*%
X209570000Y-86270000D03*
%TD*%
%TO.C,REF\u002A\u002A410*%
X168930000Y-76110000D03*
%TD*%
%TO.C,REF\u002A\u002A1098*%
X128290000Y-116750000D03*
%TD*%
%TO.C,REF\u002A\u002A923*%
X130830000Y-106590000D03*
%TD*%
%TO.C,REF\u002A\u002A254*%
X107970000Y-68490000D03*
%TD*%
%TO.C,REF\u002A\u002A516*%
X102890000Y-83730000D03*
%TD*%
%TO.C,REF\u002A\u002A968*%
X133370000Y-109130000D03*
%TD*%
%TO.C,REF\u002A\u002A632*%
X174010000Y-88810000D03*
%TD*%
%TO.C,REF\u002A\u002A91*%
X140990000Y-58330000D03*
%TD*%
%TO.C,REF\u002A\u002A98*%
X158770000Y-58330000D03*
%TD*%
%TO.C,REF\u002A\u002A623*%
X151150000Y-88810000D03*
%TD*%
%TO.C,REF\u002A\u002A875*%
X120670000Y-104050000D03*
%TD*%
%TO.C,REF\u002A\u002A313*%
X146070000Y-71030000D03*
%TD*%
%TO.C,REF\u002A\u002A430*%
X107970000Y-78650000D03*
%TD*%
%TO.C,REF\u002A\u002A1071*%
X171470000Y-114210000D03*
%TD*%
%TO.C,REF\u002A\u002A130*%
X128290000Y-60870000D03*
%TD*%
%TO.C,REF\u002A\u002A328*%
X184170000Y-71030000D03*
%TD*%
%TO.C,REF\u002A\u002A644*%
X204490000Y-88810000D03*
%TD*%
%TO.C,REF\u002A\u002A845*%
X156230000Y-101510000D03*
%TD*%
%TO.C,REF\u002A\u002A935*%
X161310000Y-106590000D03*
%TD*%
%TO.C,REF\u002A\u002A244*%
X194330000Y-65950000D03*
%TD*%
%TO.C,REF\u002A\u002A148*%
X174010000Y-60870000D03*
%TD*%
%TO.C,REF\u002A\u002A698*%
X118130000Y-93890000D03*
%TD*%
%TO.C,REF\u002A\u002A833*%
X125750000Y-101510000D03*
%TD*%
%TO.C,REF\u002A\u002A730*%
X199410000Y-93890000D03*
%TD*%
%TO.C,REF\u002A\u002A405*%
X156230000Y-76110000D03*
%TD*%
%TO.C,REF\u002A\u002A183*%
X151150000Y-63410000D03*
%TD*%
%TO.C,REF\u002A\u002A790*%
X128290000Y-98970000D03*
%TD*%
%TO.C,REF\u002A\u002A859*%
X191790000Y-101510000D03*
%TD*%
%TO.C,REF\u002A\u002A235*%
X171470000Y-65950000D03*
%TD*%
%TO.C,REF\u002A\u002A388*%
X113050000Y-76110000D03*
%TD*%
%TO.C,REF\u002A\u002A956*%
X102890000Y-109130000D03*
%TD*%
%TO.C,REF\u002A\u002A556*%
X204490000Y-83730000D03*
%TD*%
%TO.C,REF\u002A\u002A177*%
X135910000Y-63410000D03*
%TD*%
%TO.C,REF\u002A\u002A171*%
X120670000Y-63410000D03*
%TD*%
%TO.C,REF\u002A\u002A220*%
X133370000Y-65950000D03*
%TD*%
%TO.C,REF\u002A\u002A1111*%
X161310000Y-116750000D03*
%TD*%
%TO.C,REF\u002A\u002A152*%
X184170000Y-60870000D03*
%TD*%
%TO.C,REF\u002A\u002A1125*%
X196870000Y-116750000D03*
%TD*%
%TO.C,REF\u002A\u002A347*%
X120670000Y-73570000D03*
%TD*%
%TO.C,REF\u002A\u002A302*%
X118130000Y-71030000D03*
%TD*%
%TO.C,REF\u002A\u002A627*%
X161310000Y-88810000D03*
%TD*%
%TO.C,REF\u002A\u002A1026*%
X168930000Y-111670000D03*
%TD*%
%TO.C,REF\u002A\u002A29*%
X186710000Y-53250000D03*
%TD*%
%TO.C,REF\u002A\u002A786*%
X118130000Y-98970000D03*
%TD*%
%TO.C,REF\u002A\u002A97*%
X156230000Y-58330000D03*
%TD*%
%TO.C,REF\u002A\u002A501*%
X176550000Y-81190000D03*
%TD*%
%TO.C,REF\u002A\u002A96*%
X153690000Y-58330000D03*
%TD*%
%TO.C,REF\u002A\u002A16*%
X153690000Y-53250000D03*
%TD*%
%TO.C,REF\u002A\u002A573*%
X135910000Y-86270000D03*
%TD*%
%TO.C,REF\u002A\u002A208*%
X102890000Y-65950000D03*
%TD*%
%TO.C,REF\u002A\u002A795*%
X140990000Y-98970000D03*
%TD*%
%TO.C,REF\u002A\u002A389*%
X115590000Y-76110000D03*
%TD*%
%TO.C,REF\u002A\u002A1101*%
X135910000Y-116750000D03*
%TD*%
%TO.C,REF\u002A\u002A843*%
X151150000Y-101510000D03*
%TD*%
%TO.C,REF\u002A\u002A319*%
X161310000Y-71030000D03*
%TD*%
%TO.C,REF\u002A\u002A850*%
X168930000Y-101510000D03*
%TD*%
%TO.C,REF\u002A\u002A190*%
X168930000Y-63410000D03*
%TD*%
%TO.C,REF\u002A\u002A526*%
X128290000Y-83730000D03*
%TD*%
%TO.C,REF\u002A\u002A414*%
X179090000Y-76110000D03*
%TD*%
%TO.C,REF\u002A\u002A986*%
X179090000Y-109130000D03*
%TD*%
%TO.C,REF\u002A\u002A348*%
X123210000Y-73570000D03*
%TD*%
%TO.C,REF\u002A\u002A179*%
X140990000Y-63410000D03*
%TD*%
%TO.C,REF\u002A\u002A267*%
X140990000Y-68490000D03*
%TD*%
%TO.C,REF\u002A\u002A466*%
X199410000Y-78650000D03*
%TD*%
%TO.C,REF\u002A\u002A1022*%
X158770000Y-111670000D03*
%TD*%
%TO.C,REF\u002A\u002A1024*%
X163850000Y-111670000D03*
%TD*%
%TO.C,REF\u002A\u002A480*%
X123210000Y-81190000D03*
%TD*%
%TO.C,REF\u002A\u002A1105*%
X146070000Y-116750000D03*
%TD*%
%TO.C,REF\u002A\u002A891*%
X161310000Y-104050000D03*
%TD*%
%TO.C,REF\u002A\u002A255*%
X110510000Y-68490000D03*
%TD*%
%TO.C,REF\u002A\u002A*%
X113050000Y-53250000D03*
%TD*%
%TO.C,REF\u002A\u002A693*%
X105430000Y-93890000D03*
%TD*%
%TO.C,REF\u002A\u002A666*%
X148610000Y-91350000D03*
%TD*%
%TO.C,REF\u002A\u002A688*%
X204490000Y-91350000D03*
%TD*%
%TO.C,REF\u002A\u002A10*%
X138450000Y-53250000D03*
%TD*%
%TO.C,REF\u002A\u002A45*%
X125750000Y-55790000D03*
%TD*%
%TO.C,REF\u002A\u002A751*%
X140990000Y-96430000D03*
%TD*%
%TO.C,REF\u002A\u002A793*%
X135910000Y-98970000D03*
%TD*%
%TO.C,REF\u002A\u002A950*%
X199410000Y-106590000D03*
%TD*%
%TO.C,REF\u002A\u002A992*%
X194330000Y-109130000D03*
%TD*%
%TO.C,REF\u002A\u002A660*%
X133370000Y-91350000D03*
%TD*%
%TO.C,REF\u002A\u002A372*%
X184170000Y-73570000D03*
%TD*%
%TO.C,REF\u002A\u002A511*%
X201950000Y-81190000D03*
%TD*%
%TO.C,REF\u002A\u002A1083*%
X201950000Y-114210000D03*
%TD*%
%TO.C,REF\u002A\u002A1096*%
X123210000Y-116750000D03*
%TD*%
%TO.C,REF\u002A\u002A266*%
X138450000Y-68490000D03*
%TD*%
%TO.C,REF\u002A\u002A731*%
X201950000Y-93890000D03*
%TD*%
%TO.C,REF\u002A\u002A964*%
X123210000Y-109130000D03*
%TD*%
%TO.C,REF\u002A\u002A504*%
X184170000Y-81190000D03*
%TD*%
%TO.C,REF\u002A\u002A677*%
X176550000Y-91350000D03*
%TD*%
%TO.C,REF\u002A\u002A419*%
X191790000Y-76110000D03*
%TD*%
%TO.C,REF\u002A\u002A919*%
X120670000Y-106590000D03*
%TD*%
%TO.C,REF\u002A\u002A889*%
X156230000Y-104050000D03*
%TD*%
%TO.C,REF\u002A\u002A50*%
X138450000Y-55790000D03*
%TD*%
%TO.C,REF\u002A\u002A181*%
X146070000Y-63410000D03*
%TD*%
%TO.C,REF\u002A\u002A1042*%
X209570000Y-111670000D03*
%TD*%
%TO.C,REF\u002A\u002A855*%
X181630000Y-101510000D03*
%TD*%
%TO.C,REF\u002A\u002A645*%
X207030000Y-88810000D03*
%TD*%
%TO.C,REF\u002A\u002A846*%
X158770000Y-101510000D03*
%TD*%
%TO.C,REF\u002A\u002A291*%
X201950000Y-68490000D03*
%TD*%
%TO.C,REF\u002A\u002A906*%
X199410000Y-104050000D03*
%TD*%
%TO.C,REF\u002A\u002A1079*%
X191790000Y-114210000D03*
%TD*%
%TO.C,REF\u002A\u002A975*%
X151150000Y-109130000D03*
%TD*%
%TO.C,REF\u002A\u002A1099*%
X130830000Y-116750000D03*
%TD*%
%TO.C,REF\u002A\u002A104*%
X174010000Y-58330000D03*
%TD*%
%TO.C,REF\u002A\u002A804*%
X163850000Y-98970000D03*
%TD*%
%TO.C,REF\u002A\u002A517*%
X105430000Y-83730000D03*
%TD*%
%TO.C,REF\u002A\u002A105*%
X176550000Y-58330000D03*
%TD*%
%TO.C,REF\u002A\u002A872*%
X113050000Y-104050000D03*
%TD*%
%TO.C,REF\u002A\u002A586*%
X168930000Y-86270000D03*
%TD*%
%TO.C,REF\u002A\u002A398*%
X138450000Y-76110000D03*
%TD*%
%TO.C,REF\u002A\u002A747*%
X130830000Y-96430000D03*
%TD*%
%TO.C,REF\u002A\u002A1061*%
X146070000Y-114210000D03*
%TD*%
%TO.C,REF\u002A\u002A484*%
X133370000Y-81190000D03*
%TD*%
%TO.C,REF\u002A\u002A871*%
X110510000Y-104050000D03*
%TD*%
%TO.C,REF\u002A\u002A886*%
X148610000Y-104050000D03*
%TD*%
%TO.C,REF\u002A\u002A1068*%
X163850000Y-114210000D03*
%TD*%
%TO.C,REF\u002A\u002A729*%
X196870000Y-93890000D03*
%TD*%
%TO.C,REF\u002A\u002A59*%
X161310000Y-55790000D03*
%TD*%
%TO.C,REF\u002A\u002A783*%
X110510000Y-98970000D03*
%TD*%
%TO.C,REF\u002A\u002A1052*%
X123210000Y-114210000D03*
%TD*%
%TO.C,REF\u002A\u002A1015*%
X140990000Y-111670000D03*
%TD*%
%TO.C,REF\u002A\u002A971*%
X140990000Y-109130000D03*
%TD*%
%TO.C,REF\u002A\u002A535*%
X151150000Y-83730000D03*
%TD*%
%TO.C,REF\u002A\u002A49*%
X135910000Y-55790000D03*
%TD*%
%TO.C,REF\u002A\u002A481*%
X125750000Y-81190000D03*
%TD*%
%TO.C,REF\u002A\u002A1126*%
X199410000Y-116750000D03*
%TD*%
%TO.C,REF\u002A\u002A917*%
X115590000Y-106590000D03*
%TD*%
%TO.C,REF\u002A\u002A719*%
X171470000Y-93890000D03*
%TD*%
%TO.C,REF\u002A\u002A233*%
X166390000Y-65950000D03*
%TD*%
%TO.C,REF\u002A\u002A103*%
X171470000Y-58330000D03*
%TD*%
%TO.C,REF\u002A\u002A515*%
X212110000Y-81190000D03*
%TD*%
%TO.C,REF\u002A\u002A878*%
X128290000Y-104050000D03*
%TD*%
%TO.C,REF\u002A\u002A172*%
X123210000Y-63410000D03*
%TD*%
%TO.C,REF\u002A\u002A65*%
X176550000Y-55790000D03*
%TD*%
%TO.C,REF\u002A\u002A521*%
X115590000Y-83730000D03*
%TD*%
%TO.C,REF\u002A\u002A797*%
X146070000Y-98970000D03*
%TD*%
%TO.C,REF\u002A\u002A615*%
X130830000Y-88810000D03*
%TD*%
%TO.C,REF\u002A\u002A982*%
X168930000Y-109130000D03*
%TD*%
%TO.C,REF\u002A\u002A781*%
X105430000Y-98970000D03*
%TD*%
%TO.C,REF\u002A\u002A71*%
X191790000Y-55790000D03*
%TD*%
%TO.C,REF\u002A\u002A84*%
X123210000Y-58330000D03*
%TD*%
%TO.C,REF\u002A\u002A908*%
X204490000Y-104050000D03*
%TD*%
%TO.C,REF\u002A\u002A369*%
X176550000Y-73570000D03*
%TD*%
%TO.C,REF\u002A\u002A473*%
X105430000Y-81190000D03*
%TD*%
%TO.C,REF\u002A\u002A621*%
X146070000Y-88810000D03*
%TD*%
%TO.C,REF\u002A\u002A336*%
X204490000Y-71030000D03*
%TD*%
%TO.C,REF\u002A\u002A230*%
X158770000Y-65950000D03*
%TD*%
%TO.C,REF\u002A\u002A351*%
X130830000Y-73570000D03*
%TD*%
%TO.C,REF\u002A\u002A186*%
X158770000Y-63410000D03*
%TD*%
%TO.C,REF\u002A\u002A252*%
X102890000Y-68490000D03*
%TD*%
%TO.C,REF\u002A\u002A496*%
X163850000Y-81190000D03*
%TD*%
%TO.C,REF\u002A\u002A566*%
X118130000Y-86270000D03*
%TD*%
%TO.C,REF\u002A\u002A551*%
X191790000Y-83730000D03*
%TD*%
%TO.C,REF\u002A\u002A737*%
X105430000Y-96430000D03*
%TD*%
%TO.C,REF\u002A\u002A815*%
X191790000Y-98970000D03*
%TD*%
%TO.C,REF\u002A\u002A450*%
X158770000Y-78650000D03*
%TD*%
%TO.C,REF\u002A\u002A823*%
X212110000Y-98970000D03*
%TD*%
%TO.C,REF\u002A\u002A821*%
X207030000Y-98970000D03*
%TD*%
%TO.C,REF\u002A\u002A280*%
X174010000Y-68490000D03*
%TD*%
%TO.C,REF\u002A\u002A633*%
X176550000Y-88810000D03*
%TD*%
%TO.C,REF\u002A\u002A23*%
X171470000Y-53250000D03*
%TD*%
%TO.C,REF\u002A\u002A471*%
X212110000Y-78650000D03*
%TD*%
%TO.C,REF\u002A\u002A264*%
X133370000Y-68490000D03*
%TD*%
%TO.C,REF\u002A\u002A1039*%
X201950000Y-111670000D03*
%TD*%
%TO.C,REF\u002A\u002A1008*%
X123210000Y-111670000D03*
%TD*%
%TO.C,REF\u002A\u002A1065*%
X156230000Y-114210000D03*
%TD*%
%TO.C,REF\u002A\u002A817*%
X196870000Y-98970000D03*
%TD*%
%TO.C,REF\u002A\u002A154*%
X189250000Y-60870000D03*
%TD*%
%TO.C,REF\u002A\u002A498*%
X168930000Y-81190000D03*
%TD*%
%TO.C,REF\u002A\u002A910*%
X209570000Y-104050000D03*
%TD*%
%TO.C,REF\u002A\u002A92*%
X143530000Y-58330000D03*
%TD*%
%TO.C,REF\u002A\u002A738*%
X107970000Y-96430000D03*
%TD*%
%TO.C,REF\u002A\u002A654*%
X118130000Y-91350000D03*
%TD*%
%TO.C,REF\u002A\u002A417*%
X186710000Y-76110000D03*
%TD*%
%TO.C,REF\u002A\u002A686*%
X199410000Y-91350000D03*
%TD*%
%TO.C,REF\u002A\u002A356*%
X143530000Y-73570000D03*
%TD*%
%TO.C,REF\u002A\u002A503*%
X181630000Y-81190000D03*
%TD*%
%TO.C,REF\u002A\u002A51*%
X140990000Y-55790000D03*
%TD*%
%TO.C,REF\u002A\u002A428*%
X102890000Y-78650000D03*
%TD*%
%TO.C,REF\u002A\u002A768*%
X184170000Y-96430000D03*
%TD*%
%TO.C,REF\u002A\u002A656*%
X123210000Y-91350000D03*
%TD*%
%TO.C,REF\u002A\u002A820*%
X204490000Y-98970000D03*
%TD*%
%TO.C,REF\u002A\u002A778*%
X209570000Y-96430000D03*
%TD*%
%TO.C,REF\u002A\u002A885*%
X146070000Y-104050000D03*
%TD*%
%TO.C,REF\u002A\u002A239*%
X181630000Y-65950000D03*
%TD*%
%TO.C,REF\u002A\u002A432*%
X113050000Y-78650000D03*
%TD*%
%TO.C,REF\u002A\u002A88*%
X133370000Y-58330000D03*
%TD*%
%TO.C,REF\u002A\u002A987*%
X181630000Y-109130000D03*
%TD*%
%TO.C,REF\u002A\u002A355*%
X140990000Y-73570000D03*
%TD*%
%TO.C,REF\u002A\u002A890*%
X158770000Y-104050000D03*
%TD*%
%TO.C,REF\u002A\u002A661*%
X135910000Y-91350000D03*
%TD*%
%TO.C,REF\u002A\u002A467*%
X201950000Y-78650000D03*
%TD*%
%TO.C,REF\u002A\u002A478*%
X118130000Y-81190000D03*
%TD*%
%TO.C,REF\u002A\u002A628*%
X163850000Y-88810000D03*
%TD*%
%TO.C,REF\u002A\u002A163*%
X212110000Y-60870000D03*
%TD*%
%TO.C,REF\u002A\u002A153*%
X186710000Y-60870000D03*
%TD*%
%TO.C,REF\u002A\u002A1053*%
X125750000Y-114210000D03*
%TD*%
%TO.C,REF\u002A\u002A462*%
X189250000Y-78650000D03*
%TD*%
%TO.C,REF\u002A\u002A929*%
X146070000Y-106590000D03*
%TD*%
%TO.C,REF\u002A\u002A739*%
X110510000Y-96430000D03*
%TD*%
%TO.C,REF\u002A\u002A643*%
X201950000Y-88810000D03*
%TD*%
%TO.C,REF\u002A\u002A829*%
X115590000Y-101510000D03*
%TD*%
%TO.C,REF\u002A\u002A52*%
X143530000Y-55790000D03*
%TD*%
%TO.C,REF\u002A\u002A510*%
X199410000Y-81190000D03*
%TD*%
%TO.C,REF\u002A\u002A441*%
X135910000Y-78650000D03*
%TD*%
%TO.C,REF\u002A\u002A868*%
X102890000Y-104050000D03*
%TD*%
%TO.C,REF\u002A\u002A1028*%
X174010000Y-111670000D03*
%TD*%
%TO.C,REF\u002A\u002A744*%
X123210000Y-96430000D03*
%TD*%
%TO.C,REF\u002A\u002A386*%
X107970000Y-76110000D03*
%TD*%
%TO.C,REF\u002A\u002A802*%
X158770000Y-98970000D03*
%TD*%
%TO.C,REF\u002A\u002A1119*%
X181630000Y-116750000D03*
%TD*%
%TO.C,REF\u002A\u002A1095*%
X120670000Y-116750000D03*
%TD*%
%TO.C,REF\u002A\u002A497*%
X166390000Y-81190000D03*
%TD*%
%TO.C,REF\u002A\u002A746*%
X128290000Y-96430000D03*
%TD*%
%TO.C,REF\u002A\u002A1063*%
X151150000Y-114210000D03*
%TD*%
%TO.C,REF\u002A\u002A958*%
X107970000Y-109130000D03*
%TD*%
%TO.C,REF\u002A\u002A703*%
X130830000Y-93890000D03*
%TD*%
%TO.C,REF\u002A\u002A563*%
X110510000Y-86270000D03*
%TD*%
%TO.C,REF\u002A\u002A282*%
X179090000Y-68490000D03*
%TD*%
%TO.C,REF\u002A\u002A99*%
X161310000Y-58330000D03*
%TD*%
%TO.C,REF\u002A\u002A549*%
X186710000Y-83730000D03*
%TD*%
%TO.C,REF\u002A\u002A761*%
X166390000Y-96430000D03*
%TD*%
%TO.C,REF\u002A\u002A862*%
X199410000Y-101510000D03*
%TD*%
%TO.C,REF\u002A\u002A485*%
X135910000Y-81190000D03*
%TD*%
%TO.C,REF\u002A\u002A589*%
X176550000Y-86270000D03*
%TD*%
%TO.C,REF\u002A\u002A734*%
X209570000Y-93890000D03*
%TD*%
%TO.C,REF\u002A\u002A522*%
X118130000Y-83730000D03*
%TD*%
%TO.C,REF\u002A\u002A814*%
X189250000Y-98970000D03*
%TD*%
%TO.C,REF\u002A\u002A1102*%
X138450000Y-116750000D03*
%TD*%
%TO.C,REF\u002A\u002A653*%
X115590000Y-91350000D03*
%TD*%
%TO.C,REF\u002A\u002A184*%
X153690000Y-63410000D03*
%TD*%
%TO.C,REF\u002A\u002A763*%
X171470000Y-96430000D03*
%TD*%
%TO.C,REF\u002A\u002A812*%
X184170000Y-98970000D03*
%TD*%
%TO.C,REF\u002A\u002A169*%
X115590000Y-63410000D03*
%TD*%
%TO.C,REF\u002A\u002A716*%
X163850000Y-93890000D03*
%TD*%
%TO.C,REF\u002A\u002A116*%
X204490000Y-58330000D03*
%TD*%
%TO.C,REF\u002A\u002A546*%
X179090000Y-83730000D03*
%TD*%
%TO.C,REF\u002A\u002A873*%
X115590000Y-104050000D03*
%TD*%
%TO.C,REF\u002A\u002A827*%
X110510000Y-101510000D03*
%TD*%
%TO.C,REF\u002A\u002A173*%
X125750000Y-63410000D03*
%TD*%
%TO.C,REF\u002A\u002A884*%
X143530000Y-104050000D03*
%TD*%
%TO.C,REF\u002A\u002A1110*%
X158770000Y-116750000D03*
%TD*%
%TO.C,REF\u002A\u002A851*%
X171470000Y-101510000D03*
%TD*%
%TO.C,REF\u002A\u002A943*%
X181630000Y-106590000D03*
%TD*%
%TO.C,REF\u002A\u002A141*%
X156230000Y-60870000D03*
%TD*%
%TO.C,REF\u002A\u002A81*%
X115590000Y-58330000D03*
%TD*%
%TO.C,REF\u002A\u002A461*%
X186710000Y-78650000D03*
%TD*%
%TO.C,REF\u002A\u002A757*%
X156230000Y-96430000D03*
%TD*%
%TO.C,REF\u002A\u002A380*%
X204490000Y-73570000D03*
%TD*%
%TO.C,REF\u002A\u002A1013*%
X135910000Y-111670000D03*
%TD*%
%TO.C,REF\u002A\u002A638*%
X189250000Y-88810000D03*
%TD*%
%TO.C,REF\u002A\u002A408*%
X163850000Y-76110000D03*
%TD*%
%TO.C,REF\u002A\u002A756*%
X153690000Y-96430000D03*
%TD*%
%TO.C,REF\u002A\u002A915*%
X110510000Y-106590000D03*
%TD*%
%TO.C,REF\u002A\u002A27*%
X181630000Y-53250000D03*
%TD*%
%TO.C,REF\u002A\u002A42*%
X118130000Y-55790000D03*
%TD*%
%TO.C,REF\u002A\u002A435*%
X120670000Y-78650000D03*
%TD*%
%TO.C,REF\u002A\u002A955*%
X212110000Y-106590000D03*
%TD*%
%TO.C,REF\u002A\u002A736*%
X102890000Y-96430000D03*
%TD*%
%TO.C,REF\u002A\u002A491*%
X151150000Y-81190000D03*
%TD*%
%TO.C,REF\u002A\u002A568*%
X123210000Y-86270000D03*
%TD*%
%TO.C,REF\u002A\u002A4*%
X123210000Y-53250000D03*
%TD*%
%TO.C,REF\u002A\u002A976*%
X153690000Y-109130000D03*
%TD*%
%TO.C,REF\u002A\u002A673*%
X166390000Y-91350000D03*
%TD*%
%TO.C,REF\u002A\u002A579*%
X151150000Y-86270000D03*
%TD*%
%TO.C,REF\u002A\u002A557*%
X207030000Y-83730000D03*
%TD*%
%TO.C,REF\u002A\u002A533*%
X146070000Y-83730000D03*
%TD*%
%TO.C,REF\u002A\u002A805*%
X166390000Y-98970000D03*
%TD*%
%TO.C,REF\u002A\u002A486*%
X138450000Y-81190000D03*
%TD*%
%TO.C,REF\u002A\u002A895*%
X171470000Y-104050000D03*
%TD*%
%TO.C,REF\u002A\u002A248*%
X204490000Y-65950000D03*
%TD*%
%TO.C,REF\u002A\u002A1076*%
X184170000Y-114210000D03*
%TD*%
%TO.C,REF\u002A\u002A662*%
X138450000Y-91350000D03*
%TD*%
%TO.C,REF\u002A\u002A1033*%
X186710000Y-111670000D03*
%TD*%
%TO.C,REF\u002A\u002A981*%
X166390000Y-109130000D03*
%TD*%
%TO.C,REF\u002A\u002A457*%
X176550000Y-78650000D03*
%TD*%
%TO.C,REF\u002A\u002A702*%
X128290000Y-93890000D03*
%TD*%
%TO.C,REF\u002A\u002A322*%
X168930000Y-71030000D03*
%TD*%
%TO.C,REF\u002A\u002A133*%
X135910000Y-60870000D03*
%TD*%
%TO.C,REF\u002A\u002A58*%
X158770000Y-55790000D03*
%TD*%
%TO.C,REF\u002A\u002A205*%
X207030000Y-63410000D03*
%TD*%
%TO.C,REF\u002A\u002A576*%
X143530000Y-86270000D03*
%TD*%
%TO.C,REF\u002A\u002A508*%
X194330000Y-81190000D03*
%TD*%
%TO.C,REF\u002A\u002A947*%
X191790000Y-106590000D03*
%TD*%
%TO.C,REF\u002A\u002A595*%
X191790000Y-86270000D03*
%TD*%
%TO.C,REF\u002A\u002A3*%
X120670000Y-53250000D03*
%TD*%
%TO.C,REF\u002A\u002A1004*%
X113050000Y-111670000D03*
%TD*%
%TO.C,REF\u002A\u002A972*%
X143530000Y-109130000D03*
%TD*%
%TO.C,REF\u002A\u002A346*%
X118130000Y-73570000D03*
%TD*%
%TO.C,REF\u002A\u002A167*%
X110510000Y-63410000D03*
%TD*%
%TO.C,REF\u002A\u002A20*%
X163850000Y-53250000D03*
%TD*%
%TO.C,REF\u002A\u002A44*%
X123210000Y-55790000D03*
%TD*%
%TO.C,REF\u002A\u002A93*%
X146070000Y-58330000D03*
%TD*%
%TO.C,REF\u002A\u002A667*%
X151150000Y-91350000D03*
%TD*%
%TO.C,REF\u002A\u002A630*%
X168930000Y-88810000D03*
%TD*%
%TO.C,REF\u002A\u002A67*%
X181630000Y-55790000D03*
%TD*%
%TO.C,REF\u002A\u002A1019*%
X151150000Y-111670000D03*
%TD*%
%TO.C,REF\u002A\u002A664*%
X143530000Y-91350000D03*
%TD*%
%TO.C,REF\u002A\u002A360*%
X153690000Y-73570000D03*
%TD*%
%TO.C,REF\u002A\u002A809*%
X176550000Y-98970000D03*
%TD*%
%TO.C,REF\u002A\u002A753*%
X146070000Y-96430000D03*
%TD*%
%TO.C,REF\u002A\u002A425*%
X207030000Y-76110000D03*
%TD*%
%TO.C,REF\u002A\u002A115*%
X201950000Y-58330000D03*
%TD*%
%TO.C,REF\u002A\u002A912*%
X102890000Y-106590000D03*
%TD*%
%TO.C,REF\u002A\u002A194*%
X179090000Y-63410000D03*
%TD*%
%TO.C,REF\u002A\u002A1016*%
X143530000Y-111670000D03*
%TD*%
%TO.C,REF\u002A\u002A888*%
X153690000Y-104050000D03*
%TD*%
%TO.C,REF\u002A\u002A195*%
X181630000Y-63410000D03*
%TD*%
%TO.C,REF\u002A\u002A658*%
X128290000Y-91350000D03*
%TD*%
%TO.C,REF\u002A\u002A385*%
X105430000Y-76110000D03*
%TD*%
%TO.C,REF\u002A\u002A1120*%
X184170000Y-116750000D03*
%TD*%
%TO.C,REF\u002A\u002A7*%
X130830000Y-53250000D03*
%TD*%
%TO.C,REF\u002A\u002A808*%
X174010000Y-98970000D03*
%TD*%
%TO.C,REF\u002A\u002A349*%
X125750000Y-73570000D03*
%TD*%
%TO.C,REF\u002A\u002A650*%
X107970000Y-91350000D03*
%TD*%
%TO.C,REF\u002A\u002A34*%
X199410000Y-53250000D03*
%TD*%
%TO.C,REF\u002A\u002A200*%
X194330000Y-63410000D03*
%TD*%
%TO.C,REF\u002A\u002A227*%
X151150000Y-65950000D03*
%TD*%
%TO.C,REF\u002A\u002A713*%
X156230000Y-93890000D03*
%TD*%
%TO.C,REF\u002A\u002A137*%
X146070000Y-60870000D03*
%TD*%
%TO.C,REF\u002A\u002A429*%
X105430000Y-78650000D03*
%TD*%
%TO.C,REF\u002A\u002A112*%
X194330000Y-58330000D03*
%TD*%
%TO.C,REF\u002A\u002A764*%
X174010000Y-96430000D03*
%TD*%
%TO.C,REF\u002A\u002A892*%
X163850000Y-104050000D03*
%TD*%
%TO.C,REF\u002A\u002A877*%
X125750000Y-104050000D03*
%TD*%
%TO.C,REF\u002A\u002A256*%
X113050000Y-68490000D03*
%TD*%
%TO.C,REF\u002A\u002A271*%
X151150000Y-68490000D03*
%TD*%
%TO.C,REF\u002A\u002A639*%
X191790000Y-88810000D03*
%TD*%
%TO.C,REF\u002A\u002A782*%
X107970000Y-98970000D03*
%TD*%
%TO.C,REF\u002A\u002A391*%
X120670000Y-76110000D03*
%TD*%
%TO.C,REF\u002A\u002A899*%
X181630000Y-104050000D03*
%TD*%
%TO.C,REF\u002A\u002A240*%
X184170000Y-65950000D03*
%TD*%
%TO.C,REF\u002A\u002A810*%
X179090000Y-98970000D03*
%TD*%
%TO.C,REF\u002A\u002A6*%
X128290000Y-53250000D03*
%TD*%
%TO.C,REF\u002A\u002A454*%
X168930000Y-78650000D03*
%TD*%
%TO.C,REF\u002A\u002A416*%
X184170000Y-76110000D03*
%TD*%
%TO.C,REF\u002A\u002A531*%
X140990000Y-83730000D03*
%TD*%
%TO.C,REF\u002A\u002A77*%
X105430000Y-58330000D03*
%TD*%
%TO.C,REF\u002A\u002A959*%
X110510000Y-109130000D03*
%TD*%
%TO.C,REF\u002A\u002A720*%
X174010000Y-93890000D03*
%TD*%
%TO.C,REF\u002A\u002A94*%
X148610000Y-58330000D03*
%TD*%
%TO.C,REF\u002A\u002A1066*%
X158770000Y-114210000D03*
%TD*%
%TO.C,REF\u002A\u002A954*%
X209570000Y-106590000D03*
%TD*%
%TO.C,REF\u002A\u002A571*%
X130830000Y-86270000D03*
%TD*%
%TO.C,REF\u002A\u002A617*%
X135910000Y-88810000D03*
%TD*%
%TO.C,REF\u002A\u002A863*%
X201950000Y-101510000D03*
%TD*%
%TO.C,REF\u002A\u002A798*%
X148610000Y-98970000D03*
%TD*%
%TO.C,REF\u002A\u002A364*%
X163850000Y-73570000D03*
%TD*%
%TO.C,REF\u002A\u002A951*%
X201950000Y-106590000D03*
%TD*%
%TO.C,REF\u002A\u002A343*%
X110510000Y-73570000D03*
%TD*%
%TO.C,REF\u002A\u002A577*%
X146070000Y-86270000D03*
%TD*%
%TO.C,REF\u002A\u002A80*%
X113050000Y-58330000D03*
%TD*%
%TO.C,REF\u002A\u002A984*%
X174010000Y-109130000D03*
%TD*%
%TO.C,REF\u002A\u002A9*%
X135910000Y-53250000D03*
%TD*%
%TO.C,REF\u002A\u002A794*%
X138450000Y-98970000D03*
%TD*%
%TO.C,REF\u002A\u002A438*%
X128290000Y-78650000D03*
%TD*%
%TO.C,REF\u002A\u002A499*%
X171470000Y-81190000D03*
%TD*%
%TO.C,REF\u002A\u002A1018*%
X148610000Y-111670000D03*
%TD*%
%TO.C,REF\u002A\u002A358*%
X148610000Y-73570000D03*
%TD*%
%TO.C,REF\u002A\u002A100*%
X163850000Y-58330000D03*
%TD*%
%TO.C,REF\u002A\u002A825*%
X105430000Y-101510000D03*
%TD*%
%TO.C,REF\u002A\u002A1116*%
X174010000Y-116750000D03*
%TD*%
%TO.C,REF\u002A\u002A604*%
X102890000Y-88810000D03*
%TD*%
%TO.C,REF\u002A\u002A934*%
X158770000Y-106590000D03*
%TD*%
%TO.C,REF\u002A\u002A1060*%
X143530000Y-114210000D03*
%TD*%
%TO.C,REF\u002A\u002A708*%
X143530000Y-93890000D03*
%TD*%
%TO.C,REF\u002A\u002A55*%
X151150000Y-55790000D03*
%TD*%
%TO.C,REF\u002A\u002A865*%
X207030000Y-101510000D03*
%TD*%
%TO.C,REF\u002A\u002A925*%
X135910000Y-106590000D03*
%TD*%
%TO.C,REF\u002A\u002A695*%
X110510000Y-93890000D03*
%TD*%
%TO.C,REF\u002A\u002A565*%
X115590000Y-86270000D03*
%TD*%
%TO.C,REF\u002A\u002A193*%
X176550000Y-63410000D03*
%TD*%
M02*
