G04 #@! TF.GenerationSoftware,KiCad,Pcbnew,7.0.11+dfsg-1build4*
G04 #@! TF.CreationDate,2025-11-10T09:45:06-05:00*
G04 #@! TF.ProjectId,MCU_PROTO_100x68mm,4d43555f-5052-44f5-944f-5f3130307836,rev?*
G04 #@! TF.SameCoordinates,Original*
G04 #@! TF.FileFunction,Copper,L1,Top*
G04 #@! TF.FilePolarity,Positive*
%FSLAX46Y46*%
G04 Gerber Fmt 4.6, Leading zero omitted, Abs format (unit mm)*
G04 Created by KiCad (PCBNEW 7.0.11+dfsg-1build4) date 2025-11-10 09:45:06*
%MOMM*%
%LPD*%
G01*
G04 APERTURE LIST*
G04 #@! TA.AperFunction,ComponentPad*
%ADD10C,1.700000*%
G04 #@! TD*
G04 #@! TA.AperFunction,ComponentPad*
%ADD11R,2.400000X2.400000*%
G04 #@! TD*
G04 #@! TA.AperFunction,ComponentPad*
%ADD12C,2.400000*%
G04 #@! TD*
G04 #@! TA.AperFunction,Conductor*
%ADD13C,0.500000*%
G04 #@! TD*
G04 #@! TA.AperFunction,Profile*
%ADD14C,0.050000*%
G04 #@! TD*
G04 APERTURE END LIST*
D10*
X130780000Y-153710000D03*
X161260000Y-141010000D03*
X143480000Y-148630000D03*
X133320000Y-113070000D03*
X128240000Y-105450000D03*
X135860000Y-156250000D03*
X158720000Y-130850000D03*
X166340000Y-128310000D03*
X153640000Y-107990000D03*
X118080000Y-110530000D03*
X133320000Y-115610000D03*
X140940000Y-148630000D03*
X133320000Y-102910000D03*
X140940000Y-138470000D03*
X123160000Y-110530000D03*
X140940000Y-110530000D03*
X125700000Y-143550000D03*
X135860000Y-125770000D03*
X113000000Y-113070000D03*
X151100000Y-133390000D03*
X161260000Y-120690000D03*
X128240000Y-125770000D03*
X161260000Y-128310000D03*
X135860000Y-151170000D03*
X148560000Y-125770000D03*
X146020000Y-118150000D03*
X123160000Y-143550000D03*
X138400000Y-133390000D03*
X143480000Y-151170000D03*
X138400000Y-135930000D03*
X123160000Y-138470000D03*
X151100000Y-128310000D03*
X161260000Y-133390000D03*
X174500000Y-147000000D03*
X125700000Y-107990000D03*
X151100000Y-141010000D03*
X146020000Y-123230000D03*
X158720000Y-123230000D03*
X118080000Y-113070000D03*
X138400000Y-123230000D03*
X125700000Y-133390000D03*
X113000000Y-156250000D03*
X174500000Y-136500000D03*
X128240000Y-128310000D03*
X151100000Y-156250000D03*
X156180000Y-123230000D03*
X120620000Y-107990000D03*
X135860000Y-113070000D03*
X151100000Y-110530000D03*
X128240000Y-148630000D03*
X118080000Y-128310000D03*
X148560000Y-102910000D03*
X168880000Y-118150000D03*
X166340000Y-113070000D03*
X166340000Y-146090000D03*
X113000000Y-118150000D03*
X158720000Y-118150000D03*
X125700000Y-113070000D03*
X118080000Y-107990000D03*
X130780000Y-130850000D03*
X156180000Y-102910000D03*
X125700000Y-105450000D03*
X156180000Y-141010000D03*
X156180000Y-135930000D03*
X143480000Y-105450000D03*
X174500000Y-121500000D03*
X120620000Y-138470000D03*
X166340000Y-118150000D03*
X156180000Y-151170000D03*
X143480000Y-141010000D03*
X146020000Y-141010000D03*
X115540000Y-153710000D03*
X166340000Y-141010000D03*
X153640000Y-113070000D03*
X133320000Y-128310000D03*
X168880000Y-125770000D03*
X123160000Y-135930000D03*
X133320000Y-151170000D03*
X151100000Y-138470000D03*
X115540000Y-102910000D03*
X140940000Y-153710000D03*
X168880000Y-120690000D03*
X158720000Y-148630000D03*
X130780000Y-143550000D03*
X133320000Y-107990000D03*
X161260000Y-146090000D03*
X161260000Y-156250000D03*
X140940000Y-128310000D03*
X113000000Y-125770000D03*
X161260000Y-105450000D03*
X113000000Y-141010000D03*
X156180000Y-148630000D03*
X138400000Y-138470000D03*
X123160000Y-128310000D03*
X148560000Y-118150000D03*
X153640000Y-141010000D03*
X133320000Y-105450000D03*
X156180000Y-143550000D03*
X158720000Y-141010000D03*
X153640000Y-135930000D03*
X163800000Y-123230000D03*
X125700000Y-128310000D03*
X148560000Y-141010000D03*
X153640000Y-115610000D03*
X143480000Y-107990000D03*
X161260000Y-130850000D03*
X115540000Y-135930000D03*
X153640000Y-130850000D03*
X120620000Y-128310000D03*
X130780000Y-151170000D03*
X130780000Y-146090000D03*
X146020000Y-138470000D03*
X143480000Y-128310000D03*
X146020000Y-128310000D03*
X140940000Y-130850000D03*
X115540000Y-138470000D03*
X113000000Y-115610000D03*
X163800000Y-120690000D03*
X133320000Y-120690000D03*
X113000000Y-133390000D03*
X125700000Y-120690000D03*
X151100000Y-153710000D03*
X125700000Y-138470000D03*
X130780000Y-123230000D03*
X128240000Y-123230000D03*
X174500000Y-111000000D03*
X133320000Y-138470000D03*
X161260000Y-135930000D03*
X123160000Y-146090000D03*
X138400000Y-102910000D03*
X146020000Y-156250000D03*
X123160000Y-115610000D03*
X151100000Y-105450000D03*
X123160000Y-125770000D03*
X166340000Y-123230000D03*
X153640000Y-120690000D03*
X153640000Y-153710000D03*
X128240000Y-107990000D03*
X128240000Y-151170000D03*
X135860000Y-143550000D03*
X146020000Y-151170000D03*
X113000000Y-120690000D03*
X166340000Y-125770000D03*
X123160000Y-118150000D03*
X140940000Y-113070000D03*
X153640000Y-138470000D03*
X140940000Y-125770000D03*
X168880000Y-115610000D03*
X148560000Y-156250000D03*
X140940000Y-143550000D03*
X130780000Y-118150000D03*
X113000000Y-123230000D03*
X128240000Y-133390000D03*
X156180000Y-128310000D03*
X130780000Y-138470000D03*
X135860000Y-146090000D03*
X148560000Y-133390000D03*
X140940000Y-105450000D03*
X125700000Y-110530000D03*
X133320000Y-143550000D03*
X168880000Y-138470000D03*
X166340000Y-115610000D03*
X143480000Y-146090000D03*
X128240000Y-102910000D03*
X158720000Y-105450000D03*
X123160000Y-133390000D03*
X133320000Y-153710000D03*
X135860000Y-148630000D03*
X174500000Y-143500000D03*
X161260000Y-138470000D03*
X148560000Y-130850000D03*
X151100000Y-102910000D03*
X118080000Y-130850000D03*
X158720000Y-102910000D03*
X135860000Y-102910000D03*
X115540000Y-115610000D03*
X158720000Y-133390000D03*
X148560000Y-143550000D03*
X163800000Y-141010000D03*
X146020000Y-110530000D03*
X153640000Y-123230000D03*
X151100000Y-151170000D03*
X120620000Y-118150000D03*
X130780000Y-133390000D03*
X118080000Y-133390000D03*
X115540000Y-128310000D03*
X113000000Y-151170000D03*
X118080000Y-135930000D03*
X158720000Y-110530000D03*
X151100000Y-130850000D03*
X128240000Y-110530000D03*
X128240000Y-135930000D03*
X123160000Y-123230000D03*
X130780000Y-156250000D03*
X151100000Y-125770000D03*
X174500000Y-118000000D03*
X153640000Y-151170000D03*
X140940000Y-115610000D03*
X118080000Y-125770000D03*
X161260000Y-125770000D03*
X163800000Y-138470000D03*
X143480000Y-156250000D03*
X158720000Y-113070000D03*
X133320000Y-110530000D03*
X158720000Y-115610000D03*
X113000000Y-110530000D03*
X146020000Y-130850000D03*
X133320000Y-133390000D03*
X156180000Y-113070000D03*
X118080000Y-115610000D03*
X130780000Y-120690000D03*
D11*
X180000000Y-147000000D03*
D12*
X180000000Y-143500000D03*
X180000000Y-140000000D03*
X180000000Y-136500000D03*
D10*
X135860000Y-130850000D03*
X166340000Y-130850000D03*
X140940000Y-146090000D03*
X143480000Y-153710000D03*
X130780000Y-141010000D03*
X158720000Y-107990000D03*
X118080000Y-120690000D03*
X118080000Y-105450000D03*
X146020000Y-102910000D03*
X153640000Y-148630000D03*
X135860000Y-118150000D03*
X156180000Y-120690000D03*
X151100000Y-115610000D03*
X148560000Y-105450000D03*
X163800000Y-125770000D03*
X115540000Y-156250000D03*
X118080000Y-146090000D03*
X140940000Y-156250000D03*
X161260000Y-110530000D03*
X128240000Y-120690000D03*
X146020000Y-107990000D03*
X113000000Y-105450000D03*
X140940000Y-118150000D03*
X163800000Y-146090000D03*
X161260000Y-151170000D03*
X143480000Y-130850000D03*
X123160000Y-141010000D03*
X146020000Y-120690000D03*
X133320000Y-146090000D03*
X120620000Y-123230000D03*
X156180000Y-118150000D03*
X166340000Y-135930000D03*
X138400000Y-125770000D03*
X115540000Y-107990000D03*
X115540000Y-113070000D03*
X153640000Y-125770000D03*
X148560000Y-107990000D03*
X163800000Y-135930000D03*
X156180000Y-156250000D03*
X146020000Y-143550000D03*
X120620000Y-125770000D03*
X143480000Y-143550000D03*
X115540000Y-110530000D03*
X168880000Y-135930000D03*
X166340000Y-120690000D03*
X128240000Y-143550000D03*
X140940000Y-123230000D03*
X161260000Y-102910000D03*
X163800000Y-128310000D03*
X174500000Y-140000000D03*
X113000000Y-153710000D03*
X133320000Y-118150000D03*
X115540000Y-130850000D03*
X174500000Y-128310000D03*
X130780000Y-102910000D03*
X130780000Y-107990000D03*
X125700000Y-141010000D03*
X146020000Y-146090000D03*
X153640000Y-105450000D03*
X133320000Y-141010000D03*
X125700000Y-125770000D03*
X138400000Y-141010000D03*
X143480000Y-120690000D03*
X163800000Y-130850000D03*
X143480000Y-125770000D03*
X143480000Y-133390000D03*
X115540000Y-125770000D03*
X151100000Y-107990000D03*
X138400000Y-113070000D03*
X151100000Y-118150000D03*
X123160000Y-120690000D03*
X135860000Y-128310000D03*
X161260000Y-143550000D03*
X161260000Y-113070000D03*
X138400000Y-148630000D03*
X166340000Y-133390000D03*
X158720000Y-151170000D03*
X115540000Y-148630000D03*
X163800000Y-113070000D03*
X120620000Y-146090000D03*
X143480000Y-102910000D03*
X153640000Y-128310000D03*
X143480000Y-135930000D03*
X128240000Y-130850000D03*
X118080000Y-102910000D03*
X125700000Y-130850000D03*
X133320000Y-123230000D03*
X120620000Y-115610000D03*
X138400000Y-118150000D03*
X115540000Y-146090000D03*
X118080000Y-138470000D03*
X118080000Y-143550000D03*
X168880000Y-141010000D03*
X128240000Y-141010000D03*
X168880000Y-130850000D03*
X118080000Y-141010000D03*
X125700000Y-115610000D03*
X115540000Y-118150000D03*
X168880000Y-123230000D03*
X163800000Y-118150000D03*
X166340000Y-143550000D03*
X128240000Y-156250000D03*
X158720000Y-120690000D03*
X153640000Y-143550000D03*
X138400000Y-153710000D03*
X128240000Y-153710000D03*
X156180000Y-115610000D03*
X163800000Y-143550000D03*
X138400000Y-143550000D03*
X138400000Y-146090000D03*
X161260000Y-148630000D03*
X166340000Y-138470000D03*
X125700000Y-102910000D03*
X161260000Y-115610000D03*
X148560000Y-123230000D03*
X130780000Y-135930000D03*
X148560000Y-135930000D03*
X146020000Y-115610000D03*
X115540000Y-133390000D03*
X115540000Y-143550000D03*
X168880000Y-128310000D03*
X168880000Y-146090000D03*
X133320000Y-135930000D03*
X148560000Y-128310000D03*
X156180000Y-107990000D03*
X158720000Y-153710000D03*
X153640000Y-146090000D03*
X123160000Y-105450000D03*
X143480000Y-138470000D03*
X156180000Y-146090000D03*
X133320000Y-148630000D03*
X156180000Y-153710000D03*
X143480000Y-113070000D03*
X151100000Y-143550000D03*
X146020000Y-153710000D03*
X140940000Y-141010000D03*
X120620000Y-130850000D03*
X138400000Y-128310000D03*
X135860000Y-135930000D03*
X140940000Y-102910000D03*
X130780000Y-110530000D03*
X130780000Y-115610000D03*
X153640000Y-133390000D03*
X151100000Y-123230000D03*
X161260000Y-153710000D03*
X148560000Y-148630000D03*
X130780000Y-148630000D03*
X148560000Y-120690000D03*
X130780000Y-105450000D03*
X151100000Y-146090000D03*
X146020000Y-148630000D03*
X174500000Y-114500000D03*
X135860000Y-153710000D03*
X115540000Y-123230000D03*
X135860000Y-110530000D03*
X158720000Y-128310000D03*
X120620000Y-135930000D03*
X120620000Y-143550000D03*
X113000000Y-128310000D03*
X151100000Y-148630000D03*
X140940000Y-120690000D03*
X138400000Y-156250000D03*
X168880000Y-143550000D03*
X138400000Y-120690000D03*
X130780000Y-128310000D03*
X113000000Y-102910000D03*
X115540000Y-141010000D03*
X113000000Y-135930000D03*
X158720000Y-138470000D03*
X135860000Y-138470000D03*
X135860000Y-120690000D03*
X138400000Y-107990000D03*
X128240000Y-115610000D03*
X138400000Y-115610000D03*
X135860000Y-133390000D03*
X153640000Y-156250000D03*
X128240000Y-146090000D03*
X156180000Y-130850000D03*
X161260000Y-118150000D03*
X158720000Y-156250000D03*
X161260000Y-107990000D03*
X163800000Y-115610000D03*
X174500000Y-130850000D03*
X123160000Y-130850000D03*
X113000000Y-138470000D03*
X148560000Y-151170000D03*
X151100000Y-120690000D03*
X158720000Y-146090000D03*
X135860000Y-105450000D03*
X130780000Y-125770000D03*
X125700000Y-123230000D03*
X135860000Y-123230000D03*
X120620000Y-110530000D03*
X158720000Y-125770000D03*
X135860000Y-141010000D03*
X158720000Y-143550000D03*
X146020000Y-135930000D03*
X161260000Y-123230000D03*
X151100000Y-135930000D03*
X135860000Y-107990000D03*
X168880000Y-113070000D03*
X148560000Y-115610000D03*
X128240000Y-118150000D03*
X133320000Y-156250000D03*
X113000000Y-146090000D03*
X156180000Y-105450000D03*
X151100000Y-113070000D03*
X113000000Y-130850000D03*
X115540000Y-151170000D03*
X120620000Y-141010000D03*
X138400000Y-151170000D03*
X140940000Y-133390000D03*
X125700000Y-118150000D03*
X156180000Y-138470000D03*
X146020000Y-113070000D03*
X133320000Y-130850000D03*
X148560000Y-113070000D03*
X138400000Y-110530000D03*
X113000000Y-148630000D03*
X153640000Y-118150000D03*
X138400000Y-130850000D03*
X120620000Y-102910000D03*
X146020000Y-125770000D03*
X115540000Y-120690000D03*
X143480000Y-115610000D03*
X123160000Y-102910000D03*
X143480000Y-123230000D03*
X156180000Y-133390000D03*
X156180000Y-110530000D03*
X118080000Y-123230000D03*
X140940000Y-107990000D03*
X113000000Y-107990000D03*
X133320000Y-125770000D03*
X120620000Y-113070000D03*
X146020000Y-105450000D03*
X120620000Y-120690000D03*
X156180000Y-125770000D03*
X143480000Y-118150000D03*
X115540000Y-105450000D03*
X148560000Y-146090000D03*
X168880000Y-133390000D03*
X123160000Y-113070000D03*
X120620000Y-133390000D03*
X148560000Y-138470000D03*
X125700000Y-135930000D03*
X140940000Y-151170000D03*
X125700000Y-146090000D03*
X158720000Y-135930000D03*
X128240000Y-138470000D03*
X148560000Y-110530000D03*
X153640000Y-102910000D03*
X163800000Y-133390000D03*
X140940000Y-135930000D03*
X128240000Y-113070000D03*
X113000000Y-143550000D03*
D11*
X180000000Y-121500000D03*
D12*
X180000000Y-118000000D03*
X180000000Y-114500000D03*
X180000000Y-111000000D03*
D10*
X120620000Y-105450000D03*
X148560000Y-153710000D03*
X146020000Y-133390000D03*
X123160000Y-107990000D03*
X135860000Y-115610000D03*
X153640000Y-110530000D03*
X138400000Y-105450000D03*
X130780000Y-113070000D03*
X118080000Y-118150000D03*
X143480000Y-110530000D03*
D13*
X125700000Y-105450000D02*
X125700000Y-107990000D01*
X151100000Y-123230000D02*
X151100000Y-125770000D01*
X148560000Y-125770000D02*
X148560000Y-128310000D01*
X166340000Y-113070000D02*
X168880000Y-113070000D01*
X135860000Y-105450000D02*
X135860000Y-107990000D01*
X125700000Y-141010000D02*
X128240000Y-141010000D01*
X115540000Y-133390000D02*
X115540000Y-135930000D01*
X166340000Y-123230000D02*
X166340000Y-125770000D01*
X156180000Y-128310000D02*
X156180000Y-130850000D01*
X133320000Y-110530000D02*
X133320000Y-113070000D01*
X146020000Y-141010000D02*
X148560000Y-141010000D01*
X118080000Y-115610000D02*
X120620000Y-115610000D01*
X135860000Y-102910000D02*
X135860000Y-105450000D01*
X138400000Y-115610000D02*
X140940000Y-115610000D01*
X151100000Y-120690000D02*
X151100000Y-123230000D01*
X113000000Y-105450000D02*
X113000000Y-107990000D01*
X151100000Y-105450000D02*
X151100000Y-107990000D01*
X130780000Y-141010000D02*
X133320000Y-141010000D01*
X156180000Y-115610000D02*
X158720000Y-115610000D01*
X133320000Y-123230000D02*
X133320000Y-125770000D01*
X138400000Y-110530000D02*
X138400000Y-113070000D01*
X120620000Y-128310000D02*
X120620000Y-130850000D01*
X118080000Y-133390000D02*
X118080000Y-135930000D01*
X148560000Y-133390000D02*
X148560000Y-135930000D01*
X120620000Y-143550000D02*
X120620000Y-146090000D01*
X118080000Y-118150000D02*
X120620000Y-118150000D01*
X161260000Y-120690000D02*
X161260000Y-123230000D01*
X138400000Y-125770000D02*
X138400000Y-128310000D01*
X123160000Y-125770000D02*
X123160000Y-128310000D01*
X113000000Y-123230000D02*
X113000000Y-125770000D01*
X143480000Y-143550000D02*
X143480000Y-146090000D01*
X138400000Y-120690000D02*
X138400000Y-123230000D01*
X115540000Y-120690000D02*
X115540000Y-123230000D01*
X135860000Y-130850000D02*
X135860000Y-133390000D01*
X156180000Y-118150000D02*
X158720000Y-118150000D01*
X140940000Y-153710000D02*
X140940000Y-156250000D01*
X146020000Y-143550000D02*
X146020000Y-146090000D01*
X140940000Y-128310000D02*
X140940000Y-130850000D01*
X135860000Y-141010000D02*
X138400000Y-141010000D01*
X151100000Y-128310000D02*
X151100000Y-130850000D01*
X133320000Y-102910000D02*
X133320000Y-105450000D01*
X153640000Y-105450000D02*
X153640000Y-107990000D01*
X123160000Y-123230000D02*
X123160000Y-125770000D01*
X123160000Y-118150000D02*
X125700000Y-118150000D01*
X153640000Y-115610000D02*
X156180000Y-115610000D01*
X115540000Y-102910000D02*
X115540000Y-105450000D01*
X156180000Y-123230000D02*
X156180000Y-125770000D01*
X140940000Y-110530000D02*
X140940000Y-113070000D01*
X115540000Y-141010000D02*
X118080000Y-141010000D01*
X163800000Y-128310000D02*
X163800000Y-130850000D01*
X120620000Y-138470000D02*
X123160000Y-138470000D01*
X133320000Y-143550000D02*
X133320000Y-146090000D01*
X143480000Y-128310000D02*
X143480000Y-130850000D01*
X130780000Y-153710000D02*
X130780000Y-156250000D01*
X123160000Y-133390000D02*
X123160000Y-135930000D01*
X143480000Y-102910000D02*
X143480000Y-105450000D01*
X130780000Y-120690000D02*
X130780000Y-123230000D01*
X138400000Y-130850000D02*
X138400000Y-133390000D01*
X158720000Y-151170000D02*
X161260000Y-151170000D01*
X158720000Y-125770000D02*
X158720000Y-128310000D01*
X133320000Y-141010000D02*
X135860000Y-141010000D01*
X135860000Y-148630000D02*
X138400000Y-148630000D01*
X123160000Y-102910000D02*
X123160000Y-105450000D01*
X166340000Y-138470000D02*
X168880000Y-138470000D01*
X146020000Y-105450000D02*
X146020000Y-107990000D01*
X168880000Y-130850000D02*
X168880000Y-133390000D01*
X128240000Y-143550000D02*
X128240000Y-146090000D01*
X148560000Y-120690000D02*
X148560000Y-123230000D01*
X130780000Y-102910000D02*
X130780000Y-105450000D01*
X135860000Y-123230000D02*
X135860000Y-125770000D01*
X125700000Y-115610000D02*
X128240000Y-115610000D01*
X135860000Y-133390000D02*
X135860000Y-135930000D01*
X125700000Y-110530000D02*
X125700000Y-113070000D01*
X148560000Y-151170000D02*
X151100000Y-151170000D01*
X118080000Y-130850000D02*
X118080000Y-133390000D01*
X133320000Y-133390000D02*
X133320000Y-135930000D01*
X140940000Y-125770000D02*
X140940000Y-128310000D01*
X138400000Y-153710000D02*
X138400000Y-156250000D01*
X120620000Y-115610000D02*
X123160000Y-115610000D01*
X148560000Y-115610000D02*
X151100000Y-115610000D01*
X133320000Y-153710000D02*
X133320000Y-156250000D01*
X163800000Y-120690000D02*
X163800000Y-123230000D01*
X146020000Y-138470000D02*
X148560000Y-138470000D01*
X138400000Y-143550000D02*
X138400000Y-146090000D01*
X113000000Y-153710000D02*
X113000000Y-156250000D01*
X130780000Y-125770000D02*
X130780000Y-128310000D01*
X156180000Y-133390000D02*
X156180000Y-135930000D01*
X135860000Y-120690000D02*
X135860000Y-123230000D01*
X158720000Y-128310000D02*
X158720000Y-130850000D01*
X168880000Y-128310000D02*
X168880000Y-130850000D01*
X156180000Y-141010000D02*
X158720000Y-141010000D01*
X146020000Y-151170000D02*
X148560000Y-151170000D01*
X156180000Y-143550000D02*
X156180000Y-146090000D01*
X158720000Y-141010000D02*
X161260000Y-141010000D01*
X153640000Y-128310000D02*
X153640000Y-130850000D01*
X128240000Y-102910000D02*
X128240000Y-105450000D01*
X115540000Y-115610000D02*
X118080000Y-115610000D01*
X163800000Y-118150000D02*
X166340000Y-118150000D01*
X140940000Y-120690000D02*
X140940000Y-123230000D01*
X166340000Y-125770000D02*
X166340000Y-128310000D01*
X130780000Y-138470000D02*
X133320000Y-138470000D01*
X125700000Y-133390000D02*
X125700000Y-135930000D01*
X153640000Y-148630000D02*
X156180000Y-148630000D01*
X161260000Y-125770000D02*
X161260000Y-128310000D01*
X115540000Y-143550000D02*
X115540000Y-146090000D01*
X130780000Y-130850000D02*
X130780000Y-133390000D01*
X135860000Y-125770000D02*
X135860000Y-128310000D01*
X130780000Y-110530000D02*
X130780000Y-113070000D01*
X156180000Y-105450000D02*
X156180000Y-107990000D01*
X125700000Y-138470000D02*
X128240000Y-138470000D01*
X153640000Y-143550000D02*
X153640000Y-146090000D01*
X163800000Y-143550000D02*
X163800000Y-146090000D01*
X153640000Y-151170000D02*
X156180000Y-151170000D01*
X138400000Y-105450000D02*
X138400000Y-107990000D01*
X113000000Y-133390000D02*
X113000000Y-135930000D01*
X146020000Y-120690000D02*
X146020000Y-123230000D01*
X118080000Y-141010000D02*
X120620000Y-141010000D01*
X161260000Y-133390000D02*
X161260000Y-135930000D01*
X138400000Y-151170000D02*
X140940000Y-151170000D01*
X128240000Y-133390000D02*
X128240000Y-135930000D01*
X140940000Y-105450000D02*
X140940000Y-107990000D01*
X146020000Y-153710000D02*
X146020000Y-156250000D01*
X148560000Y-105450000D02*
X148560000Y-107990000D01*
X158720000Y-110530000D02*
X158720000Y-113070000D01*
X146020000Y-133390000D02*
X146020000Y-135930000D01*
X151100000Y-151170000D02*
X153640000Y-151170000D01*
X143480000Y-110530000D02*
X143480000Y-113070000D01*
X153640000Y-118150000D02*
X156180000Y-118150000D01*
X148560000Y-110530000D02*
X148560000Y-113070000D01*
X156180000Y-153710000D02*
X156180000Y-156250000D01*
X166340000Y-143550000D02*
X166340000Y-146090000D01*
X161260000Y-130850000D02*
X161260000Y-133390000D01*
X133320000Y-138470000D02*
X135860000Y-138470000D01*
X133320000Y-125770000D02*
X133320000Y-128310000D01*
X120620000Y-141010000D02*
X123160000Y-141010000D01*
X156180000Y-138470000D02*
X158720000Y-138470000D01*
X120620000Y-120690000D02*
X120620000Y-123230000D01*
X128240000Y-125770000D02*
X128240000Y-128310000D01*
X128240000Y-153710000D02*
X128240000Y-156250000D01*
X123160000Y-143550000D02*
X123160000Y-146090000D01*
X168880000Y-133390000D02*
X168880000Y-135930000D01*
X148560000Y-148630000D02*
X151100000Y-148630000D01*
X143480000Y-133390000D02*
X143480000Y-135930000D01*
X158720000Y-130850000D02*
X158720000Y-133390000D01*
X146020000Y-115610000D02*
X148560000Y-115610000D01*
X151100000Y-141010000D02*
X153640000Y-141010000D01*
X146020000Y-128310000D02*
X146020000Y-130850000D01*
X138400000Y-118150000D02*
X140940000Y-118150000D01*
X151100000Y-143550000D02*
X151100000Y-146090000D01*
X166340000Y-128310000D02*
X166340000Y-130850000D01*
X156180000Y-110530000D02*
X156180000Y-113070000D01*
X113000000Y-130850000D02*
X113000000Y-133390000D01*
X133320000Y-118150000D02*
X135860000Y-118150000D01*
X128240000Y-120690000D02*
X128240000Y-123230000D01*
X158720000Y-105450000D02*
X158720000Y-107990000D01*
X161260000Y-128310000D02*
X161260000Y-130850000D01*
X140940000Y-123230000D02*
X140940000Y-125770000D01*
X158720000Y-133390000D02*
X158720000Y-135930000D01*
X128240000Y-138470000D02*
X130780000Y-138470000D01*
X130780000Y-115610000D02*
X133320000Y-115610000D01*
X151100000Y-130850000D02*
X151100000Y-133390000D01*
X115540000Y-123230000D02*
X115540000Y-125770000D01*
X148560000Y-102910000D02*
X148560000Y-105450000D01*
X138400000Y-133390000D02*
X138400000Y-135930000D01*
X158720000Y-118150000D02*
X161260000Y-118150000D01*
X125700000Y-143550000D02*
X125700000Y-146090000D01*
X118080000Y-120690000D02*
X118080000Y-123230000D01*
X140940000Y-102910000D02*
X140940000Y-105450000D01*
X135860000Y-128310000D02*
X135860000Y-130850000D01*
X166340000Y-130850000D02*
X166340000Y-133390000D01*
X115540000Y-125770000D02*
X115540000Y-128310000D01*
X135860000Y-153710000D02*
X135860000Y-156250000D01*
X113000000Y-143550000D02*
X113000000Y-146090000D01*
X148560000Y-138470000D02*
X151100000Y-138470000D01*
X113000000Y-141010000D02*
X115540000Y-141010000D01*
X153640000Y-110530000D02*
X153640000Y-113070000D01*
X158720000Y-143550000D02*
X158720000Y-146090000D01*
X123160000Y-105450000D02*
X123160000Y-107990000D01*
X113000000Y-115610000D02*
X115540000Y-115610000D01*
X161260000Y-105450000D02*
X161260000Y-107990000D01*
X125700000Y-118150000D02*
X128240000Y-118150000D01*
X143480000Y-115610000D02*
X146020000Y-115610000D01*
X128240000Y-105450000D02*
X128240000Y-107990000D01*
X161260000Y-143550000D02*
X161260000Y-146090000D01*
X168880000Y-125770000D02*
X168880000Y-128310000D01*
X163800000Y-133390000D02*
X163800000Y-135930000D01*
X140940000Y-130850000D02*
X140940000Y-133390000D01*
X148560000Y-141010000D02*
X151100000Y-141010000D01*
X156180000Y-148630000D02*
X158720000Y-148630000D01*
X166340000Y-115610000D02*
X168880000Y-115610000D01*
X143480000Y-105450000D02*
X143480000Y-107990000D01*
X133320000Y-148630000D02*
X135860000Y-148630000D01*
X120620000Y-110530000D02*
X120620000Y-113070000D01*
X158720000Y-115610000D02*
X161260000Y-115610000D01*
X120620000Y-102910000D02*
X120620000Y-105450000D01*
X158720000Y-148630000D02*
X161260000Y-148630000D01*
X135860000Y-118150000D02*
X138400000Y-118150000D01*
X138400000Y-123230000D02*
X138400000Y-125770000D01*
X153640000Y-120690000D02*
X153640000Y-123230000D01*
X123160000Y-130850000D02*
X123160000Y-133390000D01*
X148560000Y-128310000D02*
X148560000Y-130850000D01*
X163800000Y-130850000D02*
X163800000Y-133390000D01*
X143480000Y-138470000D02*
X146020000Y-138470000D01*
X158720000Y-120690000D02*
X158720000Y-123230000D01*
X151100000Y-133390000D02*
X151100000Y-135930000D01*
X138400000Y-148630000D02*
X140940000Y-148630000D01*
X113000000Y-110530000D02*
X113000000Y-113070000D01*
X151100000Y-148630000D02*
X153640000Y-148630000D01*
X163800000Y-138470000D02*
X166340000Y-138470000D01*
X135860000Y-110530000D02*
X135860000Y-113070000D01*
X166340000Y-120690000D02*
X166340000Y-123230000D01*
X128240000Y-151170000D02*
X130780000Y-151170000D01*
X166340000Y-118150000D02*
X168880000Y-118150000D01*
X153640000Y-130850000D02*
X153640000Y-133390000D01*
X158720000Y-102910000D02*
X158720000Y-105450000D01*
X125700000Y-120690000D02*
X125700000Y-123230000D01*
X133320000Y-128310000D02*
X133320000Y-130850000D01*
X123160000Y-120690000D02*
X123160000Y-123230000D01*
X120620000Y-123230000D02*
X120620000Y-125770000D01*
X118080000Y-102910000D02*
X118080000Y-105450000D01*
X151100000Y-153710000D02*
X151100000Y-156250000D01*
X113000000Y-148630000D02*
X115540000Y-148630000D01*
X118080000Y-123230000D02*
X118080000Y-125770000D01*
X168880000Y-120690000D02*
X168880000Y-123230000D01*
X123160000Y-128310000D02*
X123160000Y-130850000D01*
X120620000Y-118150000D02*
X123160000Y-118150000D01*
X148560000Y-153710000D02*
X148560000Y-156250000D01*
X123160000Y-110530000D02*
X123160000Y-113070000D01*
X113000000Y-118150000D02*
X115540000Y-118150000D01*
X118080000Y-128310000D02*
X118080000Y-130850000D01*
X156180000Y-130850000D02*
X156180000Y-133390000D01*
X130780000Y-128310000D02*
X130780000Y-130850000D01*
X168880000Y-123230000D02*
X168880000Y-125770000D01*
X133320000Y-120690000D02*
X133320000Y-123230000D01*
X163800000Y-115610000D02*
X166340000Y-115610000D01*
X113000000Y-151170000D02*
X115540000Y-151170000D01*
X130780000Y-118150000D02*
X133320000Y-118150000D01*
X158720000Y-153710000D02*
X158720000Y-156250000D01*
X143480000Y-151170000D02*
X146020000Y-151170000D01*
X143480000Y-125770000D02*
X143480000Y-128310000D01*
X133320000Y-115610000D02*
X135860000Y-115610000D01*
X128240000Y-128310000D02*
X128240000Y-130850000D01*
X158720000Y-123230000D02*
X158720000Y-125770000D01*
X151100000Y-118150000D02*
X153640000Y-118150000D01*
X166340000Y-141010000D02*
X168880000Y-141010000D01*
X166340000Y-133390000D02*
X166340000Y-135930000D01*
X128240000Y-141010000D02*
X130780000Y-141010000D01*
X135860000Y-151170000D02*
X138400000Y-151170000D01*
X120620000Y-125770000D02*
X120620000Y-128310000D01*
X138400000Y-138470000D02*
X140940000Y-138470000D01*
X138400000Y-102910000D02*
X138400000Y-105450000D01*
X130780000Y-133390000D02*
X130780000Y-135930000D01*
X128240000Y-148630000D02*
X130780000Y-148630000D01*
X120620000Y-130850000D02*
X120620000Y-133390000D01*
X158720000Y-138470000D02*
X161260000Y-138470000D01*
X118080000Y-125770000D02*
X118080000Y-128310000D01*
X143480000Y-141010000D02*
X146020000Y-141010000D01*
X118080000Y-138470000D02*
X120620000Y-138470000D01*
X143480000Y-148630000D02*
X146020000Y-148630000D01*
X146020000Y-123230000D02*
X146020000Y-125770000D01*
X161260000Y-123230000D02*
X161260000Y-125770000D01*
X153640000Y-153710000D02*
X153640000Y-156250000D01*
X115540000Y-128310000D02*
X115540000Y-130850000D01*
X153640000Y-138470000D02*
X156180000Y-138470000D01*
X115540000Y-130850000D02*
X115540000Y-133390000D01*
X130780000Y-105450000D02*
X130780000Y-107990000D01*
X125700000Y-128310000D02*
X125700000Y-130850000D01*
X128240000Y-130850000D02*
X128240000Y-133390000D01*
X120620000Y-105450000D02*
X120620000Y-107990000D01*
X130780000Y-143550000D02*
X130780000Y-146090000D01*
X156180000Y-120690000D02*
X156180000Y-123230000D01*
X115540000Y-118150000D02*
X118080000Y-118150000D01*
X113000000Y-120690000D02*
X113000000Y-123230000D01*
X125700000Y-102910000D02*
X125700000Y-105450000D01*
X146020000Y-130850000D02*
X146020000Y-133390000D01*
X135860000Y-143550000D02*
X135860000Y-146090000D01*
X113000000Y-102910000D02*
X113000000Y-105450000D01*
X113000000Y-125770000D02*
X113000000Y-128310000D01*
X125700000Y-125770000D02*
X125700000Y-128310000D01*
X128240000Y-110530000D02*
X128240000Y-113070000D01*
X130780000Y-148630000D02*
X133320000Y-148630000D01*
X115540000Y-138470000D02*
X118080000Y-138470000D01*
X143480000Y-123230000D02*
X143480000Y-125770000D01*
X128240000Y-123230000D02*
X128240000Y-125770000D01*
X153640000Y-133390000D02*
X153640000Y-135930000D01*
X146020000Y-125770000D02*
X146020000Y-128310000D01*
X163800000Y-141010000D02*
X166340000Y-141010000D01*
X115540000Y-110530000D02*
X115540000Y-113070000D01*
X151100000Y-102910000D02*
X151100000Y-105450000D01*
X163800000Y-125770000D02*
X163800000Y-128310000D01*
X168880000Y-143550000D02*
X168880000Y-146090000D01*
X113000000Y-138470000D02*
X115540000Y-138470000D01*
X133320000Y-151170000D02*
X135860000Y-151170000D01*
X153640000Y-123230000D02*
X153640000Y-125770000D01*
X161260000Y-138470000D02*
X163800000Y-138470000D01*
X161260000Y-102910000D02*
X161260000Y-105450000D01*
X140940000Y-143550000D02*
X140940000Y-146090000D01*
X123160000Y-141010000D02*
X125700000Y-141010000D01*
X161260000Y-118150000D02*
X163800000Y-118150000D01*
X143480000Y-130850000D02*
X143480000Y-133390000D01*
X143480000Y-120690000D02*
X143480000Y-123230000D01*
X148560000Y-143550000D02*
X148560000Y-146090000D01*
X153640000Y-141010000D02*
X156180000Y-141010000D01*
X146020000Y-118150000D02*
X148560000Y-118150000D01*
X125700000Y-123230000D02*
X125700000Y-125770000D01*
X163800000Y-113070000D02*
X166340000Y-113070000D01*
X161260000Y-110530000D02*
X161260000Y-113070000D01*
X123160000Y-115610000D02*
X125700000Y-115610000D01*
X143480000Y-153710000D02*
X143480000Y-156250000D01*
X163800000Y-123230000D02*
X163800000Y-125770000D01*
X130780000Y-123230000D02*
X130780000Y-125770000D01*
X140940000Y-133390000D02*
X140940000Y-135930000D01*
X146020000Y-110530000D02*
X146020000Y-113070000D01*
X133320000Y-130850000D02*
X133320000Y-133390000D01*
X118080000Y-105450000D02*
X118080000Y-107990000D01*
X153640000Y-102910000D02*
X153640000Y-105450000D01*
X118080000Y-143550000D02*
X118080000Y-146090000D01*
X113000000Y-128310000D02*
X113000000Y-130850000D01*
X123160000Y-138470000D02*
X125700000Y-138470000D01*
X156180000Y-102910000D02*
X156180000Y-105450000D01*
X115540000Y-105450000D02*
X115540000Y-107990000D01*
X128240000Y-118150000D02*
X130780000Y-118150000D01*
X133320000Y-105450000D02*
X133320000Y-107990000D01*
X146020000Y-148630000D02*
X148560000Y-148630000D01*
X118080000Y-110530000D02*
X118080000Y-113070000D01*
X153640000Y-125770000D02*
X153640000Y-128310000D01*
X151100000Y-110530000D02*
X151100000Y-113070000D01*
X130780000Y-151170000D02*
X133320000Y-151170000D01*
X151100000Y-138470000D02*
X153640000Y-138470000D01*
X143480000Y-118150000D02*
X146020000Y-118150000D01*
X151100000Y-115610000D02*
X153640000Y-115610000D01*
X138400000Y-128310000D02*
X138400000Y-130850000D01*
X156180000Y-125770000D02*
X156180000Y-128310000D01*
X135860000Y-115610000D02*
X138400000Y-115610000D01*
X120620000Y-133390000D02*
X120620000Y-135930000D01*
X151100000Y-125770000D02*
X151100000Y-128310000D01*
X138400000Y-141010000D02*
X140940000Y-141010000D01*
X148560000Y-118150000D02*
X151100000Y-118150000D01*
X115540000Y-153710000D02*
X115540000Y-156250000D01*
X146020000Y-102910000D02*
X146020000Y-105450000D01*
X148560000Y-130850000D02*
X148560000Y-133390000D01*
X161260000Y-141010000D02*
X163800000Y-141010000D01*
X135860000Y-138470000D02*
X138400000Y-138470000D01*
X161260000Y-115610000D02*
X163800000Y-115610000D01*
X128240000Y-115610000D02*
X130780000Y-115610000D01*
X156180000Y-151170000D02*
X158720000Y-151170000D01*
X161260000Y-153710000D02*
X161260000Y-156250000D01*
X148560000Y-123230000D02*
X148560000Y-125770000D01*
X125700000Y-130850000D02*
X125700000Y-133390000D01*
X174500000Y-111000000D02*
X179402200Y-111000000D01*
X179402200Y-111000000D02*
X179654200Y-111252000D01*
X179295400Y-114500000D02*
X179463700Y-114668300D01*
X174500000Y-114500000D02*
X179295400Y-114500000D01*
X174500000Y-118000000D02*
X180001400Y-118000000D01*
X180001400Y-118000000D02*
X180136800Y-118135400D01*
X179337600Y-121500000D02*
X179616100Y-121221500D01*
X174500000Y-121500000D02*
X179337600Y-121500000D01*
X179540300Y-136500000D02*
X179946300Y-136906000D01*
X174500000Y-136500000D02*
X179540300Y-136500000D01*
X179392300Y-140000000D02*
X179616100Y-139776200D01*
X174500000Y-140000000D02*
X179392300Y-140000000D01*
X179511800Y-143500000D02*
X179946300Y-143065500D01*
X174500000Y-143500000D02*
X179511800Y-143500000D01*
X174500000Y-147000000D02*
X179918400Y-147000000D01*
X179918400Y-147000000D02*
X179946300Y-147027900D01*
G04 #@! TA.AperFunction,Conductor*
G36*
X179917539Y-100045185D02*
G01*
X179963294Y-100097989D01*
X179974500Y-100149500D01*
X179974500Y-100302947D01*
X180011081Y-100907711D01*
X180084111Y-101509162D01*
X180084112Y-101509170D01*
X180193325Y-102105123D01*
X180193326Y-102105128D01*
X180338320Y-102693394D01*
X180338325Y-102693410D01*
X180518568Y-103271831D01*
X180733413Y-103838333D01*
X180966442Y-104356103D01*
X180982078Y-104390843D01*
X181252201Y-104905521D01*
X181263648Y-104927330D01*
X181577080Y-105445810D01*
X181577096Y-105445835D01*
X181921262Y-105944445D01*
X182294913Y-106421376D01*
X182294914Y-106421377D01*
X182696681Y-106874878D01*
X182696715Y-106874914D01*
X183125085Y-107303284D01*
X183125121Y-107303318D01*
X183578622Y-107705085D01*
X183578623Y-107705086D01*
X184055554Y-108078737D01*
X184252054Y-108214371D01*
X184554180Y-108422914D01*
X185072679Y-108736357D01*
X185609157Y-109017922D01*
X186161656Y-109266582D01*
X186161663Y-109266584D01*
X186161666Y-109266586D01*
X186166402Y-109268382D01*
X186728161Y-109481429D01*
X187306605Y-109661679D01*
X187894877Y-109806675D01*
X188490830Y-109915888D01*
X189017106Y-109979789D01*
X189092288Y-109988918D01*
X189163170Y-109993205D01*
X189697061Y-110025500D01*
X189850500Y-110025500D01*
X189917539Y-110045185D01*
X189963294Y-110097989D01*
X189974500Y-110149500D01*
X189974500Y-147850500D01*
X189954815Y-147917539D01*
X189902011Y-147963294D01*
X189850500Y-147974500D01*
X189697052Y-147974500D01*
X189092288Y-148011081D01*
X188490837Y-148084111D01*
X188490834Y-148084111D01*
X188490830Y-148084112D01*
X188179362Y-148141191D01*
X187894871Y-148193326D01*
X187306605Y-148338320D01*
X187306589Y-148338325D01*
X186728168Y-148518568D01*
X186161666Y-148733413D01*
X185609162Y-148982075D01*
X185072669Y-149263648D01*
X184554189Y-149577080D01*
X184554164Y-149577096D01*
X184055554Y-149921262D01*
X183578623Y-150294913D01*
X183578622Y-150294914D01*
X183125121Y-150696681D01*
X183125085Y-150696715D01*
X182696715Y-151125085D01*
X182696681Y-151125121D01*
X182294914Y-151578622D01*
X182294913Y-151578623D01*
X181921262Y-152055554D01*
X181577096Y-152554164D01*
X181577080Y-152554189D01*
X181263648Y-153072669D01*
X180982075Y-153609162D01*
X180733413Y-154161666D01*
X180518568Y-154728168D01*
X180338325Y-155306589D01*
X180338320Y-155306605D01*
X180193326Y-155894871D01*
X180193325Y-155894877D01*
X180087129Y-156474371D01*
X180084111Y-156490837D01*
X180011081Y-157092288D01*
X179974500Y-157697052D01*
X179974500Y-157850500D01*
X179954815Y-157917539D01*
X179902011Y-157963294D01*
X179850500Y-157974500D01*
X110149500Y-157974500D01*
X110082461Y-157954815D01*
X110036706Y-157902011D01*
X110025500Y-157850500D01*
X110025500Y-157697073D01*
X110025500Y-157697061D01*
X109988918Y-157092289D01*
X109915888Y-156490830D01*
X109871755Y-156250005D01*
X111636844Y-156250005D01*
X111655434Y-156474359D01*
X111655436Y-156474371D01*
X111710703Y-156692614D01*
X111801140Y-156898792D01*
X111924276Y-157087265D01*
X111924284Y-157087276D01*
X112076756Y-157252902D01*
X112076760Y-157252906D01*
X112254424Y-157391189D01*
X112254425Y-157391189D01*
X112254427Y-157391191D01*
X112381135Y-157459761D01*
X112452426Y-157498342D01*
X112665365Y-157571444D01*
X112887431Y-157608500D01*
X113112569Y-157608500D01*
X113334635Y-157571444D01*
X113547574Y-157498342D01*
X113745576Y-157391189D01*
X113923240Y-157252906D01*
X114075722Y-157087268D01*
X114166193Y-156948790D01*
X114219338Y-156903437D01*
X114288569Y-156894013D01*
X114351905Y-156923515D01*
X114373804Y-156948787D01*
X114464278Y-157087268D01*
X114464283Y-157087273D01*
X114464284Y-157087276D01*
X114616756Y-157252902D01*
X114616760Y-157252906D01*
X114794424Y-157391189D01*
X114794425Y-157391189D01*
X114794427Y-157391191D01*
X114921135Y-157459761D01*
X114992426Y-157498342D01*
X115205365Y-157571444D01*
X115427431Y-157608500D01*
X115652569Y-157608500D01*
X115874635Y-157571444D01*
X116087574Y-157498342D01*
X116285576Y-157391189D01*
X116463240Y-157252906D01*
X116615722Y-157087268D01*
X116738860Y-156898791D01*
X116829296Y-156692616D01*
X116884564Y-156474368D01*
X116903156Y-156250000D01*
X116899182Y-156202046D01*
X116884565Y-156025640D01*
X116884563Y-156025628D01*
X116829296Y-155807385D01*
X116738859Y-155601207D01*
X116615723Y-155412734D01*
X116615715Y-155412723D01*
X116463243Y-155247097D01*
X116463238Y-155247092D01*
X116346337Y-155156103D01*
X116305524Y-155099392D01*
X116298500Y-155058250D01*
X116298500Y-154901748D01*
X116318185Y-154834709D01*
X116346338Y-154803895D01*
X116443640Y-154728161D01*
X116463240Y-154712906D01*
X116615722Y-154547268D01*
X116738860Y-154358791D01*
X116829296Y-154152616D01*
X116884564Y-153934368D01*
X116903156Y-153710000D01*
X116900456Y-153677420D01*
X116884565Y-153485640D01*
X116884563Y-153485628D01*
X116829296Y-153267385D01*
X116738859Y-153061207D01*
X116615723Y-152872734D01*
X116615715Y-152872723D01*
X116463243Y-152707097D01*
X116463238Y-152707092D01*
X116285577Y-152568812D01*
X116285578Y-152568812D01*
X116285576Y-152568811D01*
X116249070Y-152549055D01*
X116199479Y-152499836D01*
X116184371Y-152431619D01*
X116208541Y-152366064D01*
X116249070Y-152330945D01*
X116249084Y-152330936D01*
X116285576Y-152311189D01*
X116463240Y-152172906D01*
X116501645Y-152131187D01*
X120749500Y-152131187D01*
X120755789Y-152172907D01*
X120788604Y-152390615D01*
X120788605Y-152390617D01*
X120788606Y-152390623D01*
X120865938Y-152641326D01*
X120979767Y-152877696D01*
X120979768Y-152877697D01*
X120979770Y-152877700D01*
X120979772Y-152877704D01*
X121104884Y-153061209D01*
X121127567Y-153094479D01*
X121306014Y-153286801D01*
X121306018Y-153286804D01*
X121306019Y-153286805D01*
X121511143Y-153450386D01*
X121738357Y-153581568D01*
X121982584Y-153677420D01*
X122238370Y-153735802D01*
X122238376Y-153735802D01*
X122238379Y-153735803D01*
X122434484Y-153750499D01*
X122434503Y-153750499D01*
X122434506Y-153750500D01*
X122434508Y-153750500D01*
X122565492Y-153750500D01*
X122565494Y-153750500D01*
X122565496Y-153750499D01*
X122565515Y-153750499D01*
X122761620Y-153735803D01*
X122761622Y-153735802D01*
X122761630Y-153735802D01*
X123017416Y-153677420D01*
X123261643Y-153581568D01*
X123488857Y-153450386D01*
X123693981Y-153286805D01*
X123872433Y-153094479D01*
X124020228Y-152877704D01*
X124022622Y-152872734D01*
X124102390Y-152707092D01*
X124134063Y-152641323D01*
X124211396Y-152390615D01*
X124250500Y-152131182D01*
X124250500Y-151868818D01*
X124211396Y-151609385D01*
X124134063Y-151358677D01*
X124122121Y-151333880D01*
X124020232Y-151122303D01*
X124020231Y-151122302D01*
X124020230Y-151122301D01*
X124020228Y-151122296D01*
X123872433Y-150905521D01*
X123862441Y-150894753D01*
X123693985Y-150713198D01*
X123654533Y-150681736D01*
X123488857Y-150549614D01*
X123261643Y-150418432D01*
X123017416Y-150322580D01*
X123017411Y-150322578D01*
X123017402Y-150322576D01*
X122799818Y-150272914D01*
X122761630Y-150264198D01*
X122761629Y-150264197D01*
X122761625Y-150264197D01*
X122761620Y-150264196D01*
X122565515Y-150249500D01*
X122565494Y-150249500D01*
X122434506Y-150249500D01*
X122434484Y-150249500D01*
X122238379Y-150264196D01*
X122238374Y-150264197D01*
X121982597Y-150322576D01*
X121982578Y-150322582D01*
X121738356Y-150418432D01*
X121511143Y-150549614D01*
X121306014Y-150713198D01*
X121127567Y-150905520D01*
X120979768Y-151122302D01*
X120979767Y-151122303D01*
X120865938Y-151358673D01*
X120788606Y-151609376D01*
X120788605Y-151609381D01*
X120788604Y-151609385D01*
X120773853Y-151707247D01*
X120749500Y-151868812D01*
X120749500Y-152131187D01*
X116501645Y-152131187D01*
X116615722Y-152007268D01*
X116738860Y-151818791D01*
X116829296Y-151612616D01*
X116884564Y-151394368D01*
X116885284Y-151385683D01*
X116903156Y-151170005D01*
X116903156Y-151169994D01*
X116884565Y-150945640D01*
X116884563Y-150945628D01*
X116829296Y-150727385D01*
X116815828Y-150696681D01*
X116738860Y-150521209D01*
X116722706Y-150496484D01*
X116677291Y-150426970D01*
X116615722Y-150332732D01*
X116615719Y-150332729D01*
X116615715Y-150332723D01*
X116463243Y-150167097D01*
X116463238Y-150167092D01*
X116285577Y-150028812D01*
X116285578Y-150028812D01*
X116285576Y-150028811D01*
X116249070Y-150009055D01*
X116199479Y-149959836D01*
X116184371Y-149891619D01*
X116208541Y-149826064D01*
X116249070Y-149790945D01*
X116249084Y-149790936D01*
X116285576Y-149771189D01*
X116463240Y-149632906D01*
X116615722Y-149467268D01*
X116738860Y-149278791D01*
X116829296Y-149072616D01*
X116884564Y-148854368D01*
X116884565Y-148854359D01*
X116903156Y-148630005D01*
X116903156Y-148629994D01*
X116884565Y-148405640D01*
X116884563Y-148405628D01*
X116881876Y-148395018D01*
X116829296Y-148187384D01*
X116738860Y-147981209D01*
X116722706Y-147956484D01*
X116644817Y-147837265D01*
X116615722Y-147792732D01*
X116615719Y-147792729D01*
X116615715Y-147792723D01*
X116463243Y-147627097D01*
X116463238Y-147627092D01*
X116285577Y-147488812D01*
X116285578Y-147488812D01*
X116285576Y-147488811D01*
X116249070Y-147469055D01*
X116199479Y-147419836D01*
X116184371Y-147351619D01*
X116208541Y-147286064D01*
X116249070Y-147250945D01*
X116249084Y-147250936D01*
X116285576Y-147231189D01*
X116463240Y-147092906D01*
X116615722Y-146927268D01*
X116706193Y-146788790D01*
X116759338Y-146743437D01*
X116828569Y-146734013D01*
X116891905Y-146763515D01*
X116913804Y-146788787D01*
X117004278Y-146927268D01*
X117004283Y-146927273D01*
X117004284Y-146927276D01*
X117156756Y-147092902D01*
X117156760Y-147092906D01*
X117334424Y-147231189D01*
X117334425Y-147231189D01*
X117334427Y-147231191D01*
X117435824Y-147286064D01*
X117532426Y-147338342D01*
X117745365Y-147411444D01*
X117967431Y-147448500D01*
X118192569Y-147448500D01*
X118414635Y-147411444D01*
X118627574Y-147338342D01*
X118825576Y-147231189D01*
X119003240Y-147092906D01*
X119155722Y-146927268D01*
X119246193Y-146788790D01*
X119299338Y-146743437D01*
X119368569Y-146734013D01*
X119431905Y-146763515D01*
X119453804Y-146788787D01*
X119544278Y-146927268D01*
X119544283Y-146927273D01*
X119544284Y-146927276D01*
X119696756Y-147092902D01*
X119696760Y-147092906D01*
X119874424Y-147231189D01*
X119874425Y-147231189D01*
X119874427Y-147231191D01*
X119975824Y-147286064D01*
X120072426Y-147338342D01*
X120285365Y-147411444D01*
X120507431Y-147448500D01*
X120732569Y-147448500D01*
X120954635Y-147411444D01*
X121167574Y-147338342D01*
X121365576Y-147231189D01*
X121543240Y-147092906D01*
X121695722Y-146927268D01*
X121786193Y-146788790D01*
X121839338Y-146743437D01*
X121908569Y-146734013D01*
X121971905Y-146763515D01*
X121993804Y-146788787D01*
X122084278Y-146927268D01*
X122084283Y-146927273D01*
X122084284Y-146927276D01*
X122236756Y-147092902D01*
X122236760Y-147092906D01*
X122414424Y-147231189D01*
X122414425Y-147231189D01*
X122414427Y-147231191D01*
X122515824Y-147286064D01*
X122612426Y-147338342D01*
X122825365Y-147411444D01*
X123047431Y-147448500D01*
X123272569Y-147448500D01*
X123494635Y-147411444D01*
X123707574Y-147338342D01*
X123905576Y-147231189D01*
X124083240Y-147092906D01*
X124235722Y-146927268D01*
X124326193Y-146788790D01*
X124379338Y-146743437D01*
X124448569Y-146734013D01*
X124511905Y-146763515D01*
X124533804Y-146788787D01*
X124624278Y-146927268D01*
X124624283Y-146927273D01*
X124624284Y-146927276D01*
X124776756Y-147092902D01*
X124776760Y-147092906D01*
X124954424Y-147231189D01*
X124954425Y-147231189D01*
X124954427Y-147231191D01*
X125055824Y-147286064D01*
X125152426Y-147338342D01*
X125365365Y-147411444D01*
X125587431Y-147448500D01*
X125812569Y-147448500D01*
X126034635Y-147411444D01*
X126247574Y-147338342D01*
X126445576Y-147231189D01*
X126623240Y-147092906D01*
X126775722Y-146927268D01*
X126866193Y-146788790D01*
X126919338Y-146743437D01*
X126988569Y-146734013D01*
X127051905Y-146763515D01*
X127073804Y-146788787D01*
X127164278Y-146927268D01*
X127164283Y-146927273D01*
X127164284Y-146927276D01*
X127316756Y-147092902D01*
X127316760Y-147092906D01*
X127494424Y-147231189D01*
X127494429Y-147231191D01*
X127494431Y-147231193D01*
X127530930Y-147250946D01*
X127580520Y-147300165D01*
X127595628Y-147368382D01*
X127571457Y-147433937D01*
X127530930Y-147469054D01*
X127494431Y-147488806D01*
X127494422Y-147488812D01*
X127316761Y-147627092D01*
X127316756Y-147627097D01*
X127164284Y-147792723D01*
X127164276Y-147792734D01*
X127041140Y-147981207D01*
X126950703Y-148187385D01*
X126895436Y-148405628D01*
X126895434Y-148405640D01*
X126876844Y-148629994D01*
X126876844Y-148630005D01*
X126895434Y-148854359D01*
X126895436Y-148854371D01*
X126950703Y-149072614D01*
X127041140Y-149278792D01*
X127164276Y-149467265D01*
X127164284Y-149467276D01*
X127316756Y-149632902D01*
X127316760Y-149632906D01*
X127494424Y-149771189D01*
X127494429Y-149771191D01*
X127494431Y-149771193D01*
X127530930Y-149790946D01*
X127580520Y-149840165D01*
X127595628Y-149908382D01*
X127571457Y-149973937D01*
X127530930Y-150009054D01*
X127494431Y-150028806D01*
X127494422Y-150028812D01*
X127316761Y-150167092D01*
X127316756Y-150167097D01*
X127164284Y-150332723D01*
X127164276Y-150332734D01*
X127041140Y-150521207D01*
X126950703Y-150727385D01*
X126895436Y-150945628D01*
X126895434Y-150945640D01*
X126876844Y-151169994D01*
X126876844Y-151170005D01*
X126895434Y-151394359D01*
X126895436Y-151394371D01*
X126950703Y-151612614D01*
X127041140Y-151818792D01*
X127164276Y-152007265D01*
X127164284Y-152007276D01*
X127316756Y-152172902D01*
X127316760Y-152172906D01*
X127494424Y-152311189D01*
X127494429Y-152311191D01*
X127494431Y-152311193D01*
X127530930Y-152330946D01*
X127580520Y-152380165D01*
X127595628Y-152448382D01*
X127571457Y-152513937D01*
X127530930Y-152549054D01*
X127494431Y-152568806D01*
X127494422Y-152568812D01*
X127316761Y-152707092D01*
X127316756Y-152707097D01*
X127164284Y-152872723D01*
X127164276Y-152872734D01*
X127041140Y-153061207D01*
X126950703Y-153267385D01*
X126895436Y-153485628D01*
X126895434Y-153485640D01*
X126876844Y-153709994D01*
X126876844Y-153710005D01*
X126895434Y-153934359D01*
X126895436Y-153934371D01*
X126950703Y-154152614D01*
X127041140Y-154358792D01*
X127164276Y-154547265D01*
X127164284Y-154547276D01*
X127316756Y-154712902D01*
X127316766Y-154712911D01*
X127433662Y-154803895D01*
X127474475Y-154860605D01*
X127481500Y-154901748D01*
X127481500Y-155058250D01*
X127461815Y-155125289D01*
X127433663Y-155156103D01*
X127316761Y-155247092D01*
X127316756Y-155247097D01*
X127164284Y-155412723D01*
X127164276Y-155412734D01*
X127041140Y-155601207D01*
X126950703Y-155807385D01*
X126895436Y-156025628D01*
X126895434Y-156025640D01*
X126876844Y-156249994D01*
X126876844Y-156250005D01*
X126895434Y-156474359D01*
X126895436Y-156474371D01*
X126950703Y-156692614D01*
X127041140Y-156898792D01*
X127164276Y-157087265D01*
X127164284Y-157087276D01*
X127316756Y-157252902D01*
X127316760Y-157252906D01*
X127494424Y-157391189D01*
X127494425Y-157391189D01*
X127494427Y-157391191D01*
X127621135Y-157459761D01*
X127692426Y-157498342D01*
X127905365Y-157571444D01*
X128127431Y-157608500D01*
X128352569Y-157608500D01*
X128574635Y-157571444D01*
X128787574Y-157498342D01*
X128985576Y-157391189D01*
X129163240Y-157252906D01*
X129315722Y-157087268D01*
X129406193Y-156948790D01*
X129459338Y-156903437D01*
X129528569Y-156894013D01*
X129591905Y-156923515D01*
X129613804Y-156948787D01*
X129704278Y-157087268D01*
X129704283Y-157087273D01*
X129704284Y-157087276D01*
X129856756Y-157252902D01*
X129856760Y-157252906D01*
X130034424Y-157391189D01*
X130034425Y-157391189D01*
X130034427Y-157391191D01*
X130161135Y-157459761D01*
X130232426Y-157498342D01*
X130445365Y-157571444D01*
X130667431Y-157608500D01*
X130892569Y-157608500D01*
X131114635Y-157571444D01*
X131327574Y-157498342D01*
X131525576Y-157391189D01*
X131703240Y-157252906D01*
X131855722Y-157087268D01*
X131946193Y-156948790D01*
X131999338Y-156903437D01*
X132068569Y-156894013D01*
X132131905Y-156923515D01*
X132153804Y-156948787D01*
X132244278Y-157087268D01*
X132244283Y-157087273D01*
X132244284Y-157087276D01*
X132396756Y-157252902D01*
X132396760Y-157252906D01*
X132574424Y-157391189D01*
X132574425Y-157391189D01*
X132574427Y-157391191D01*
X132701135Y-157459761D01*
X132772426Y-157498342D01*
X132985365Y-157571444D01*
X133207431Y-157608500D01*
X133432569Y-157608500D01*
X133654635Y-157571444D01*
X133867574Y-157498342D01*
X134065576Y-157391189D01*
X134243240Y-157252906D01*
X134395722Y-157087268D01*
X134486193Y-156948790D01*
X134539338Y-156903437D01*
X134608569Y-156894013D01*
X134671905Y-156923515D01*
X134693804Y-156948787D01*
X134784278Y-157087268D01*
X134784283Y-157087273D01*
X134784284Y-157087276D01*
X134936756Y-157252902D01*
X134936760Y-157252906D01*
X135114424Y-157391189D01*
X135114425Y-157391189D01*
X135114427Y-157391191D01*
X135241135Y-157459761D01*
X135312426Y-157498342D01*
X135525365Y-157571444D01*
X135747431Y-157608500D01*
X135972569Y-157608500D01*
X136194635Y-157571444D01*
X136407574Y-157498342D01*
X136605576Y-157391189D01*
X136783240Y-157252906D01*
X136935722Y-157087268D01*
X137026193Y-156948790D01*
X137079338Y-156903437D01*
X137148569Y-156894013D01*
X137211905Y-156923515D01*
X137233804Y-156948787D01*
X137324278Y-157087268D01*
X137324283Y-157087273D01*
X137324284Y-157087276D01*
X137476756Y-157252902D01*
X137476760Y-157252906D01*
X137654424Y-157391189D01*
X137654425Y-157391189D01*
X137654427Y-157391191D01*
X137781135Y-157459761D01*
X137852426Y-157498342D01*
X138065365Y-157571444D01*
X138287431Y-157608500D01*
X138512569Y-157608500D01*
X138734635Y-157571444D01*
X138947574Y-157498342D01*
X139145576Y-157391189D01*
X139323240Y-157252906D01*
X139475722Y-157087268D01*
X139566193Y-156948790D01*
X139619338Y-156903437D01*
X139688569Y-156894013D01*
X139751905Y-156923515D01*
X139773804Y-156948787D01*
X139864278Y-157087268D01*
X139864283Y-157087273D01*
X139864284Y-157087276D01*
X140016756Y-157252902D01*
X140016760Y-157252906D01*
X140194424Y-157391189D01*
X140194425Y-157391189D01*
X140194427Y-157391191D01*
X140321135Y-157459761D01*
X140392426Y-157498342D01*
X140605365Y-157571444D01*
X140827431Y-157608500D01*
X141052569Y-157608500D01*
X141274635Y-157571444D01*
X141487574Y-157498342D01*
X141685576Y-157391189D01*
X141863240Y-157252906D01*
X142015722Y-157087268D01*
X142106193Y-156948790D01*
X142159338Y-156903437D01*
X142228569Y-156894013D01*
X142291905Y-156923515D01*
X142313804Y-156948787D01*
X142404278Y-157087268D01*
X142404283Y-157087273D01*
X142404284Y-157087276D01*
X142556756Y-157252902D01*
X142556760Y-157252906D01*
X142734424Y-157391189D01*
X142734425Y-157391189D01*
X142734427Y-157391191D01*
X142861135Y-157459761D01*
X142932426Y-157498342D01*
X143145365Y-157571444D01*
X143367431Y-157608500D01*
X143592569Y-157608500D01*
X143814635Y-157571444D01*
X144027574Y-157498342D01*
X144225576Y-157391189D01*
X144403240Y-157252906D01*
X144555722Y-157087268D01*
X144646193Y-156948790D01*
X144699338Y-156903437D01*
X144768569Y-156894013D01*
X144831905Y-156923515D01*
X144853804Y-156948787D01*
X144944278Y-157087268D01*
X144944283Y-157087273D01*
X144944284Y-157087276D01*
X145096756Y-157252902D01*
X145096760Y-157252906D01*
X145274424Y-157391189D01*
X145274425Y-157391189D01*
X145274427Y-157391191D01*
X145401135Y-157459761D01*
X145472426Y-157498342D01*
X145685365Y-157571444D01*
X145907431Y-157608500D01*
X146132569Y-157608500D01*
X146354635Y-157571444D01*
X146567574Y-157498342D01*
X146765576Y-157391189D01*
X146943240Y-157252906D01*
X147095722Y-157087268D01*
X147186193Y-156948790D01*
X147239338Y-156903437D01*
X147308569Y-156894013D01*
X147371905Y-156923515D01*
X147393804Y-156948787D01*
X147484278Y-157087268D01*
X147484283Y-157087273D01*
X147484284Y-157087276D01*
X147636756Y-157252902D01*
X147636760Y-157252906D01*
X147814424Y-157391189D01*
X147814425Y-157391189D01*
X147814427Y-157391191D01*
X147941135Y-157459761D01*
X148012426Y-157498342D01*
X148225365Y-157571444D01*
X148447431Y-157608500D01*
X148672569Y-157608500D01*
X148894635Y-157571444D01*
X149107574Y-157498342D01*
X149305576Y-157391189D01*
X149483240Y-157252906D01*
X149635722Y-157087268D01*
X149726193Y-156948790D01*
X149779338Y-156903437D01*
X149848569Y-156894013D01*
X149911905Y-156923515D01*
X149933804Y-156948787D01*
X150024278Y-157087268D01*
X150024283Y-157087273D01*
X150024284Y-157087276D01*
X150176756Y-157252902D01*
X150176760Y-157252906D01*
X150354424Y-157391189D01*
X150354425Y-157391189D01*
X150354427Y-157391191D01*
X150481135Y-157459761D01*
X150552426Y-157498342D01*
X150765365Y-157571444D01*
X150987431Y-157608500D01*
X151212569Y-157608500D01*
X151434635Y-157571444D01*
X151647574Y-157498342D01*
X151845576Y-157391189D01*
X152023240Y-157252906D01*
X152175722Y-157087268D01*
X152266193Y-156948790D01*
X152319338Y-156903437D01*
X152388569Y-156894013D01*
X152451905Y-156923515D01*
X152473804Y-156948787D01*
X152564278Y-157087268D01*
X152564283Y-157087273D01*
X152564284Y-157087276D01*
X152716756Y-157252902D01*
X152716760Y-157252906D01*
X152894424Y-157391189D01*
X152894425Y-157391189D01*
X152894427Y-157391191D01*
X153021135Y-157459761D01*
X153092426Y-157498342D01*
X153305365Y-157571444D01*
X153527431Y-157608500D01*
X153752569Y-157608500D01*
X153974635Y-157571444D01*
X154187574Y-157498342D01*
X154385576Y-157391189D01*
X154563240Y-157252906D01*
X154715722Y-157087268D01*
X154806193Y-156948790D01*
X154859338Y-156903437D01*
X154928569Y-156894013D01*
X154991905Y-156923515D01*
X155013804Y-156948787D01*
X155104278Y-157087268D01*
X155104283Y-157087273D01*
X155104284Y-157087276D01*
X155256756Y-157252902D01*
X155256760Y-157252906D01*
X155434424Y-157391189D01*
X155434425Y-157391189D01*
X155434427Y-157391191D01*
X155561135Y-157459761D01*
X155632426Y-157498342D01*
X155845365Y-157571444D01*
X156067431Y-157608500D01*
X156292569Y-157608500D01*
X156514635Y-157571444D01*
X156727574Y-157498342D01*
X156925576Y-157391189D01*
X157103240Y-157252906D01*
X157255722Y-157087268D01*
X157346193Y-156948790D01*
X157399338Y-156903437D01*
X157468569Y-156894013D01*
X157531905Y-156923515D01*
X157553804Y-156948787D01*
X157644278Y-157087268D01*
X157644283Y-157087273D01*
X157644284Y-157087276D01*
X157796756Y-157252902D01*
X157796760Y-157252906D01*
X157974424Y-157391189D01*
X157974425Y-157391189D01*
X157974427Y-157391191D01*
X158101135Y-157459761D01*
X158172426Y-157498342D01*
X158385365Y-157571444D01*
X158607431Y-157608500D01*
X158832569Y-157608500D01*
X159054635Y-157571444D01*
X159267574Y-157498342D01*
X159465576Y-157391189D01*
X159643240Y-157252906D01*
X159795722Y-157087268D01*
X159886193Y-156948790D01*
X159939338Y-156903437D01*
X160008569Y-156894013D01*
X160071905Y-156923515D01*
X160093804Y-156948787D01*
X160184278Y-157087268D01*
X160184283Y-157087273D01*
X160184284Y-157087276D01*
X160336756Y-157252902D01*
X160336760Y-157252906D01*
X160514424Y-157391189D01*
X160514425Y-157391189D01*
X160514427Y-157391191D01*
X160641135Y-157459761D01*
X160712426Y-157498342D01*
X160925365Y-157571444D01*
X161147431Y-157608500D01*
X161372569Y-157608500D01*
X161594635Y-157571444D01*
X161807574Y-157498342D01*
X162005576Y-157391189D01*
X162183240Y-157252906D01*
X162335722Y-157087268D01*
X162458860Y-156898791D01*
X162549296Y-156692616D01*
X162604564Y-156474368D01*
X162623156Y-156250000D01*
X162619182Y-156202046D01*
X162604565Y-156025640D01*
X162604563Y-156025628D01*
X162549296Y-155807385D01*
X162458859Y-155601207D01*
X162335723Y-155412734D01*
X162335715Y-155412723D01*
X162183243Y-155247097D01*
X162183238Y-155247092D01*
X162066337Y-155156103D01*
X162025524Y-155099392D01*
X162018500Y-155058250D01*
X162018500Y-154901748D01*
X162038185Y-154834709D01*
X162066338Y-154803895D01*
X162163640Y-154728161D01*
X162183240Y-154712906D01*
X162335722Y-154547268D01*
X162458860Y-154358791D01*
X162549296Y-154152616D01*
X162604564Y-153934368D01*
X162623156Y-153710000D01*
X162620456Y-153677420D01*
X162604565Y-153485640D01*
X162604563Y-153485628D01*
X162549296Y-153267385D01*
X162458859Y-153061207D01*
X162335723Y-152872734D01*
X162335715Y-152872723D01*
X162183243Y-152707097D01*
X162183238Y-152707092D01*
X162005577Y-152568812D01*
X162005578Y-152568812D01*
X162005576Y-152568811D01*
X161969070Y-152549055D01*
X161919479Y-152499836D01*
X161904371Y-152431619D01*
X161928541Y-152366064D01*
X161969070Y-152330945D01*
X161969084Y-152330936D01*
X162005576Y-152311189D01*
X162183240Y-152172906D01*
X162221645Y-152131187D01*
X165749500Y-152131187D01*
X165755789Y-152172907D01*
X165788604Y-152390615D01*
X165788605Y-152390617D01*
X165788606Y-152390623D01*
X165865938Y-152641326D01*
X165979767Y-152877696D01*
X165979768Y-152877697D01*
X165979770Y-152877700D01*
X165979772Y-152877704D01*
X166104884Y-153061209D01*
X166127567Y-153094479D01*
X166306014Y-153286801D01*
X166306018Y-153286804D01*
X166306019Y-153286805D01*
X166511143Y-153450386D01*
X166738357Y-153581568D01*
X166982584Y-153677420D01*
X167238370Y-153735802D01*
X167238376Y-153735802D01*
X167238379Y-153735803D01*
X167434484Y-153750499D01*
X167434503Y-153750499D01*
X167434506Y-153750500D01*
X167434508Y-153750500D01*
X167565492Y-153750500D01*
X167565494Y-153750500D01*
X167565496Y-153750499D01*
X167565515Y-153750499D01*
X167761620Y-153735803D01*
X167761622Y-153735802D01*
X167761630Y-153735802D01*
X168017416Y-153677420D01*
X168261643Y-153581568D01*
X168488857Y-153450386D01*
X168693981Y-153286805D01*
X168872433Y-153094479D01*
X169020228Y-152877704D01*
X169022622Y-152872734D01*
X169102390Y-152707092D01*
X169134063Y-152641323D01*
X169211396Y-152390615D01*
X169250500Y-152131182D01*
X169250500Y-151868818D01*
X169211396Y-151609385D01*
X169134063Y-151358677D01*
X169122121Y-151333880D01*
X169020232Y-151122303D01*
X169020231Y-151122302D01*
X169020230Y-151122301D01*
X169020228Y-151122296D01*
X168872433Y-150905521D01*
X168862441Y-150894753D01*
X168693985Y-150713198D01*
X168654533Y-150681736D01*
X168488857Y-150549614D01*
X168261643Y-150418432D01*
X168017416Y-150322580D01*
X168017411Y-150322578D01*
X168017402Y-150322576D01*
X167799818Y-150272914D01*
X167761630Y-150264198D01*
X167761629Y-150264197D01*
X167761625Y-150264197D01*
X167761620Y-150264196D01*
X167565515Y-150249500D01*
X167565494Y-150249500D01*
X167434506Y-150249500D01*
X167434484Y-150249500D01*
X167238379Y-150264196D01*
X167238374Y-150264197D01*
X166982597Y-150322576D01*
X166982578Y-150322582D01*
X166738356Y-150418432D01*
X166511143Y-150549614D01*
X166306014Y-150713198D01*
X166127567Y-150905520D01*
X165979768Y-151122302D01*
X165979767Y-151122303D01*
X165865938Y-151358673D01*
X165788606Y-151609376D01*
X165788605Y-151609381D01*
X165788604Y-151609385D01*
X165773853Y-151707247D01*
X165749500Y-151868812D01*
X165749500Y-152131187D01*
X162221645Y-152131187D01*
X162335722Y-152007268D01*
X162458860Y-151818791D01*
X162549296Y-151612616D01*
X162604564Y-151394368D01*
X162605284Y-151385683D01*
X162623156Y-151170005D01*
X162623156Y-151169994D01*
X162604565Y-150945640D01*
X162604563Y-150945628D01*
X162549296Y-150727385D01*
X162535828Y-150696681D01*
X162458860Y-150521209D01*
X162442706Y-150496484D01*
X162397291Y-150426970D01*
X162335722Y-150332732D01*
X162335719Y-150332729D01*
X162335715Y-150332723D01*
X162183243Y-150167097D01*
X162183238Y-150167092D01*
X162005577Y-150028812D01*
X162005578Y-150028812D01*
X162005576Y-150028811D01*
X161969070Y-150009055D01*
X161919479Y-149959836D01*
X161904371Y-149891619D01*
X161928541Y-149826064D01*
X161969070Y-149790945D01*
X161969084Y-149790936D01*
X162005576Y-149771189D01*
X162183240Y-149632906D01*
X162335722Y-149467268D01*
X162458860Y-149278791D01*
X162549296Y-149072616D01*
X162604564Y-148854368D01*
X162604565Y-148854359D01*
X162623156Y-148630005D01*
X162623156Y-148629994D01*
X162604565Y-148405640D01*
X162604563Y-148405628D01*
X162601876Y-148395018D01*
X162549296Y-148187384D01*
X162458860Y-147981209D01*
X162442706Y-147956484D01*
X162364817Y-147837265D01*
X162335722Y-147792732D01*
X162335719Y-147792729D01*
X162335715Y-147792723D01*
X162183243Y-147627097D01*
X162183238Y-147627092D01*
X162005577Y-147488812D01*
X162005578Y-147488812D01*
X162005576Y-147488811D01*
X161969070Y-147469055D01*
X161919479Y-147419836D01*
X161904371Y-147351619D01*
X161928541Y-147286064D01*
X161969070Y-147250945D01*
X161969084Y-147250936D01*
X162005576Y-147231189D01*
X162183240Y-147092906D01*
X162335722Y-146927268D01*
X162426193Y-146788790D01*
X162479338Y-146743437D01*
X162548569Y-146734013D01*
X162611905Y-146763515D01*
X162633804Y-146788787D01*
X162724278Y-146927268D01*
X162724283Y-146927273D01*
X162724284Y-146927276D01*
X162876756Y-147092902D01*
X162876760Y-147092906D01*
X163054424Y-147231189D01*
X163054425Y-147231189D01*
X163054427Y-147231191D01*
X163155824Y-147286064D01*
X163252426Y-147338342D01*
X163465365Y-147411444D01*
X163687431Y-147448500D01*
X163912569Y-147448500D01*
X164134635Y-147411444D01*
X164347574Y-147338342D01*
X164545576Y-147231189D01*
X164723240Y-147092906D01*
X164875722Y-146927268D01*
X164966193Y-146788790D01*
X165019338Y-146743437D01*
X165088569Y-146734013D01*
X165151905Y-146763515D01*
X165173804Y-146788787D01*
X165264278Y-146927268D01*
X165264283Y-146927273D01*
X165264284Y-146927276D01*
X165416756Y-147092902D01*
X165416760Y-147092906D01*
X165594424Y-147231189D01*
X165594425Y-147231189D01*
X165594427Y-147231191D01*
X165695824Y-147286064D01*
X165792426Y-147338342D01*
X166005365Y-147411444D01*
X166227431Y-147448500D01*
X166452569Y-147448500D01*
X166674635Y-147411444D01*
X166887574Y-147338342D01*
X167085576Y-147231189D01*
X167263240Y-147092906D01*
X167415722Y-146927268D01*
X167506193Y-146788790D01*
X167559338Y-146743437D01*
X167628569Y-146734013D01*
X167691905Y-146763515D01*
X167713804Y-146788787D01*
X167804278Y-146927268D01*
X167804283Y-146927273D01*
X167804284Y-146927276D01*
X167956756Y-147092902D01*
X167956760Y-147092906D01*
X168134424Y-147231189D01*
X168134425Y-147231189D01*
X168134427Y-147231191D01*
X168235824Y-147286064D01*
X168332426Y-147338342D01*
X168545365Y-147411444D01*
X168767431Y-147448500D01*
X168992569Y-147448500D01*
X169214635Y-147411444D01*
X169427574Y-147338342D01*
X169625576Y-147231189D01*
X169803240Y-147092906D01*
X169888762Y-147000005D01*
X173136844Y-147000005D01*
X173155434Y-147224359D01*
X173155436Y-147224371D01*
X173210703Y-147442614D01*
X173301140Y-147648792D01*
X173424276Y-147837265D01*
X173424284Y-147837276D01*
X173576756Y-148002902D01*
X173576761Y-148002907D01*
X173601811Y-148022404D01*
X173754424Y-148141189D01*
X173754425Y-148141189D01*
X173754427Y-148141191D01*
X173839785Y-148187384D01*
X173952426Y-148248342D01*
X174165365Y-148321444D01*
X174387431Y-148358500D01*
X174612569Y-148358500D01*
X174834635Y-148321444D01*
X175047574Y-148248342D01*
X175245576Y-148141189D01*
X175423240Y-148002906D01*
X175544209Y-147871500D01*
X175575715Y-147837276D01*
X175575715Y-147837274D01*
X175575722Y-147837268D01*
X175590482Y-147814675D01*
X175643628Y-147769321D01*
X175694289Y-147758500D01*
X178167500Y-147758500D01*
X178234539Y-147778185D01*
X178280294Y-147830989D01*
X178291500Y-147882500D01*
X178291500Y-148248654D01*
X178298011Y-148309202D01*
X178298011Y-148309204D01*
X178333978Y-148405632D01*
X178349111Y-148446204D01*
X178436739Y-148563261D01*
X178553796Y-148650889D01*
X178690799Y-148701989D01*
X178718050Y-148704918D01*
X178751345Y-148708499D01*
X178751362Y-148708500D01*
X181248638Y-148708500D01*
X181248654Y-148708499D01*
X181275692Y-148705591D01*
X181309201Y-148701989D01*
X181446204Y-148650889D01*
X181563261Y-148563261D01*
X181650889Y-148446204D01*
X181701989Y-148309201D01*
X181705591Y-148275692D01*
X181708499Y-148248654D01*
X181708500Y-148248637D01*
X181708500Y-145751362D01*
X181708499Y-145751345D01*
X181705157Y-145720270D01*
X181701989Y-145690799D01*
X181650889Y-145553796D01*
X181563261Y-145436739D01*
X181446204Y-145349111D01*
X181309203Y-145298011D01*
X181248654Y-145291500D01*
X181248638Y-145291500D01*
X180760883Y-145291500D01*
X180693844Y-145271815D01*
X180648089Y-145219011D01*
X180638145Y-145149853D01*
X180667170Y-145086297D01*
X180707082Y-145055780D01*
X180856638Y-144983758D01*
X180856638Y-144983757D01*
X180856646Y-144983754D01*
X181068219Y-144839505D01*
X181255931Y-144665334D01*
X181415587Y-144465131D01*
X181543622Y-144243369D01*
X181637174Y-144005001D01*
X181694155Y-143755353D01*
X181709544Y-143550000D01*
X181713291Y-143500004D01*
X181713291Y-143499995D01*
X181694156Y-143244656D01*
X181694155Y-143244651D01*
X181694155Y-143244647D01*
X181637174Y-142994999D01*
X181543622Y-142756631D01*
X181415587Y-142534869D01*
X181255931Y-142334666D01*
X181255930Y-142334665D01*
X181255927Y-142334661D01*
X181087684Y-142178556D01*
X181068219Y-142160495D01*
X181054571Y-142151190D01*
X180856649Y-142016248D01*
X180856638Y-142016241D01*
X180625940Y-141905144D01*
X180625921Y-141905137D01*
X180507116Y-141868491D01*
X180448857Y-141829921D01*
X180420699Y-141765977D01*
X180431581Y-141696960D01*
X180478050Y-141644783D01*
X180507116Y-141631509D01*
X180575268Y-141610486D01*
X180625935Y-141594858D01*
X180810651Y-141505903D01*
X180856638Y-141483758D01*
X180856638Y-141483757D01*
X180856646Y-141483754D01*
X181068219Y-141339505D01*
X181255931Y-141165334D01*
X181415587Y-140965131D01*
X181543622Y-140743369D01*
X181637174Y-140505001D01*
X181694155Y-140255353D01*
X181698654Y-140195323D01*
X181713291Y-140000004D01*
X181713291Y-139999995D01*
X181694156Y-139744656D01*
X181694155Y-139744651D01*
X181694155Y-139744647D01*
X181637174Y-139494999D01*
X181543622Y-139256631D01*
X181415587Y-139034869D01*
X181255931Y-138834666D01*
X181255930Y-138834665D01*
X181255927Y-138834661D01*
X181134989Y-138722448D01*
X181068219Y-138660495D01*
X180856646Y-138516246D01*
X180856645Y-138516245D01*
X180856638Y-138516241D01*
X180625940Y-138405144D01*
X180625921Y-138405137D01*
X180507116Y-138368491D01*
X180448857Y-138329921D01*
X180420699Y-138265977D01*
X180431581Y-138196960D01*
X180478050Y-138144783D01*
X180507116Y-138131509D01*
X180575268Y-138110486D01*
X180625935Y-138094858D01*
X180856646Y-137983754D01*
X181068219Y-137839505D01*
X181255931Y-137665334D01*
X181415587Y-137465131D01*
X181543622Y-137243369D01*
X181637174Y-137005001D01*
X181694155Y-136755353D01*
X181696478Y-136724359D01*
X181713291Y-136500004D01*
X181713291Y-136499995D01*
X181694156Y-136244656D01*
X181694155Y-136244651D01*
X181694155Y-136244647D01*
X181637174Y-135994999D01*
X181543622Y-135756631D01*
X181415587Y-135534869D01*
X181255931Y-135334666D01*
X181255930Y-135334665D01*
X181255927Y-135334661D01*
X181087684Y-135178556D01*
X181068219Y-135160495D01*
X180968816Y-135092723D01*
X180856649Y-135016248D01*
X180856638Y-135016241D01*
X180625940Y-134905144D01*
X180625921Y-134905137D01*
X180381248Y-134829666D01*
X180381238Y-134829663D01*
X180128041Y-134791500D01*
X180128034Y-134791500D01*
X179871966Y-134791500D01*
X179871958Y-134791500D01*
X179618761Y-134829663D01*
X179618755Y-134829665D01*
X179374061Y-134905143D01*
X179143362Y-135016241D01*
X179143361Y-135016242D01*
X178931780Y-135160495D01*
X178744072Y-135334661D01*
X178584413Y-135534869D01*
X178500910Y-135679500D01*
X178450343Y-135727716D01*
X178393523Y-135741500D01*
X175694289Y-135741500D01*
X175627250Y-135721815D01*
X175590482Y-135685324D01*
X175575722Y-135662732D01*
X175575718Y-135662728D01*
X175575715Y-135662723D01*
X175423243Y-135497097D01*
X175423238Y-135497092D01*
X175245577Y-135358812D01*
X175245572Y-135358808D01*
X175047580Y-135251661D01*
X175047577Y-135251659D01*
X175047574Y-135251658D01*
X175047571Y-135251657D01*
X175047569Y-135251656D01*
X174834637Y-135178556D01*
X174612569Y-135141500D01*
X174387431Y-135141500D01*
X174165362Y-135178556D01*
X173952430Y-135251656D01*
X173952419Y-135251661D01*
X173754427Y-135358808D01*
X173754422Y-135358812D01*
X173576761Y-135497092D01*
X173576756Y-135497097D01*
X173424284Y-135662723D01*
X173424276Y-135662734D01*
X173301140Y-135851207D01*
X173210703Y-136057385D01*
X173155436Y-136275628D01*
X173155434Y-136275640D01*
X173136844Y-136499994D01*
X173136844Y-136500005D01*
X173155434Y-136724359D01*
X173155436Y-136724371D01*
X173210703Y-136942614D01*
X173301140Y-137148792D01*
X173424276Y-137337265D01*
X173424284Y-137337276D01*
X173543792Y-137467094D01*
X173576760Y-137502906D01*
X173754424Y-137641189D01*
X173754425Y-137641189D01*
X173754427Y-137641191D01*
X173847973Y-137691815D01*
X173952426Y-137748342D01*
X174165365Y-137821444D01*
X174387431Y-137858500D01*
X174612569Y-137858500D01*
X174834635Y-137821444D01*
X175047574Y-137748342D01*
X175245576Y-137641189D01*
X175423240Y-137502906D01*
X175575722Y-137337268D01*
X175590482Y-137314675D01*
X175643628Y-137269321D01*
X175694289Y-137258500D01*
X178393523Y-137258500D01*
X178460562Y-137278185D01*
X178500909Y-137320499D01*
X178584413Y-137465131D01*
X178713367Y-137626835D01*
X178744072Y-137665338D01*
X178858172Y-137771206D01*
X178931781Y-137839505D01*
X179143355Y-137983754D01*
X179143360Y-137983756D01*
X179143361Y-137983757D01*
X179143362Y-137983758D01*
X179265890Y-138042764D01*
X179374061Y-138094856D01*
X179374062Y-138094856D01*
X179374065Y-138094858D01*
X179468210Y-138123897D01*
X179492885Y-138131509D01*
X179551144Y-138170080D01*
X179579302Y-138234024D01*
X179568418Y-138303041D01*
X179521949Y-138355218D01*
X179492885Y-138368491D01*
X179374061Y-138405143D01*
X179143362Y-138516241D01*
X179143361Y-138516242D01*
X178931780Y-138660495D01*
X178744072Y-138834661D01*
X178584413Y-139034869D01*
X178500910Y-139179500D01*
X178450343Y-139227716D01*
X178393523Y-139241500D01*
X175694289Y-139241500D01*
X175627250Y-139221815D01*
X175590482Y-139185324D01*
X175575722Y-139162732D01*
X175575718Y-139162728D01*
X175575715Y-139162723D01*
X175423243Y-138997097D01*
X175423238Y-138997092D01*
X175245577Y-138858812D01*
X175245572Y-138858808D01*
X175047580Y-138751661D01*
X175047577Y-138751659D01*
X175047574Y-138751658D01*
X175047571Y-138751657D01*
X175047569Y-138751656D01*
X174834637Y-138678556D01*
X174612569Y-138641500D01*
X174387431Y-138641500D01*
X174165362Y-138678556D01*
X173952430Y-138751656D01*
X173952419Y-138751661D01*
X173754427Y-138858808D01*
X173754422Y-138858812D01*
X173576761Y-138997092D01*
X173576756Y-138997097D01*
X173424284Y-139162723D01*
X173424276Y-139162734D01*
X173301140Y-139351207D01*
X173210703Y-139557385D01*
X173155436Y-139775628D01*
X173155434Y-139775640D01*
X173136844Y-139999994D01*
X173136844Y-140000005D01*
X173155434Y-140224359D01*
X173155436Y-140224371D01*
X173210703Y-140442614D01*
X173301140Y-140648792D01*
X173424276Y-140837265D01*
X173424284Y-140837276D01*
X173576756Y-141002902D01*
X173576761Y-141002907D01*
X173635981Y-141049000D01*
X173754424Y-141141189D01*
X173754425Y-141141189D01*
X173754427Y-141141191D01*
X173881135Y-141209761D01*
X173952426Y-141248342D01*
X174165365Y-141321444D01*
X174387431Y-141358500D01*
X174612569Y-141358500D01*
X174834635Y-141321444D01*
X175047574Y-141248342D01*
X175245576Y-141141189D01*
X175423240Y-141002906D01*
X175575722Y-140837268D01*
X175590482Y-140814675D01*
X175643628Y-140769321D01*
X175694289Y-140758500D01*
X178393523Y-140758500D01*
X178460562Y-140778185D01*
X178500909Y-140820499D01*
X178584413Y-140965131D01*
X178620190Y-141009994D01*
X178744072Y-141165338D01*
X178912315Y-141321443D01*
X178931781Y-141339505D01*
X179143355Y-141483754D01*
X179143360Y-141483756D01*
X179143361Y-141483757D01*
X179143362Y-141483758D01*
X179265890Y-141542764D01*
X179374061Y-141594856D01*
X179374062Y-141594856D01*
X179374065Y-141594858D01*
X179468210Y-141623897D01*
X179492885Y-141631509D01*
X179551144Y-141670080D01*
X179579302Y-141734024D01*
X179568418Y-141803041D01*
X179521949Y-141855218D01*
X179492885Y-141868491D01*
X179374061Y-141905143D01*
X179143362Y-142016241D01*
X179143361Y-142016242D01*
X178931780Y-142160495D01*
X178744072Y-142334661D01*
X178584413Y-142534869D01*
X178500910Y-142679500D01*
X178450343Y-142727716D01*
X178393523Y-142741500D01*
X175694289Y-142741500D01*
X175627250Y-142721815D01*
X175590482Y-142685324D01*
X175575722Y-142662732D01*
X175575718Y-142662728D01*
X175575715Y-142662723D01*
X175423243Y-142497097D01*
X175423238Y-142497092D01*
X175245577Y-142358812D01*
X175245572Y-142358808D01*
X175047580Y-142251661D01*
X175047577Y-142251659D01*
X175047574Y-142251658D01*
X175047571Y-142251657D01*
X175047569Y-142251656D01*
X174834637Y-142178556D01*
X174612569Y-142141500D01*
X174387431Y-142141500D01*
X174165362Y-142178556D01*
X173952430Y-142251656D01*
X173952419Y-142251661D01*
X173754427Y-142358808D01*
X173754422Y-142358812D01*
X173576761Y-142497092D01*
X173576756Y-142497097D01*
X173424284Y-142662723D01*
X173424276Y-142662734D01*
X173301141Y-142851206D01*
X173210703Y-143057385D01*
X173155436Y-143275628D01*
X173155434Y-143275640D01*
X173136844Y-143499994D01*
X173136844Y-143500005D01*
X173155434Y-143724359D01*
X173155436Y-143724371D01*
X173210703Y-143942614D01*
X173301140Y-144148792D01*
X173424276Y-144337265D01*
X173424284Y-144337276D01*
X173541984Y-144465130D01*
X173576760Y-144502906D01*
X173754424Y-144641189D01*
X173754425Y-144641189D01*
X173754427Y-144641191D01*
X173828227Y-144681129D01*
X173952426Y-144748342D01*
X174165365Y-144821444D01*
X174387431Y-144858500D01*
X174612569Y-144858500D01*
X174834635Y-144821444D01*
X175047574Y-144748342D01*
X175245576Y-144641189D01*
X175423240Y-144502906D01*
X175575722Y-144337268D01*
X175590482Y-144314675D01*
X175643628Y-144269321D01*
X175694289Y-144258500D01*
X178393523Y-144258500D01*
X178460562Y-144278185D01*
X178500909Y-144320499D01*
X178584413Y-144465131D01*
X178654408Y-144552902D01*
X178744072Y-144665338D01*
X178912315Y-144821443D01*
X178931781Y-144839505D01*
X179143355Y-144983754D01*
X179143360Y-144983756D01*
X179143361Y-144983757D01*
X179143363Y-144983758D01*
X179292918Y-145055780D01*
X179344778Y-145102602D01*
X179363091Y-145170029D01*
X179342043Y-145236653D01*
X179288317Y-145281322D01*
X179239117Y-145291500D01*
X178751345Y-145291500D01*
X178690797Y-145298011D01*
X178690795Y-145298011D01*
X178553795Y-145349111D01*
X178436739Y-145436739D01*
X178349111Y-145553795D01*
X178298011Y-145690795D01*
X178298011Y-145690797D01*
X178291500Y-145751345D01*
X178291500Y-146117500D01*
X178271815Y-146184539D01*
X178219011Y-146230294D01*
X178167500Y-146241500D01*
X175694289Y-146241500D01*
X175627250Y-146221815D01*
X175590482Y-146185324D01*
X175575722Y-146162732D01*
X175575718Y-146162728D01*
X175575715Y-146162723D01*
X175423243Y-145997097D01*
X175423238Y-145997092D01*
X175254350Y-145865640D01*
X175245576Y-145858811D01*
X175245575Y-145858810D01*
X175245572Y-145858808D01*
X175047580Y-145751661D01*
X175047577Y-145751659D01*
X175047574Y-145751658D01*
X175047571Y-145751657D01*
X175047569Y-145751656D01*
X174834637Y-145678556D01*
X174612569Y-145641500D01*
X174387431Y-145641500D01*
X174165362Y-145678556D01*
X173952430Y-145751656D01*
X173952419Y-145751661D01*
X173754427Y-145858808D01*
X173754422Y-145858812D01*
X173576761Y-145997092D01*
X173576756Y-145997097D01*
X173424284Y-146162723D01*
X173424276Y-146162734D01*
X173301140Y-146351207D01*
X173210703Y-146557385D01*
X173155436Y-146775628D01*
X173155434Y-146775640D01*
X173136844Y-146999994D01*
X173136844Y-147000005D01*
X169888762Y-147000005D01*
X169955722Y-146927268D01*
X170078860Y-146738791D01*
X170169296Y-146532616D01*
X170224564Y-146314368D01*
X170231531Y-146230294D01*
X170243156Y-146090005D01*
X170243156Y-146089994D01*
X170224565Y-145865640D01*
X170224563Y-145865628D01*
X170221876Y-145855018D01*
X170169296Y-145647384D01*
X170078860Y-145441209D01*
X170062706Y-145416484D01*
X169974401Y-145281322D01*
X169955722Y-145252732D01*
X169955719Y-145252729D01*
X169955715Y-145252723D01*
X169803243Y-145087097D01*
X169803238Y-145087092D01*
X169686337Y-144996103D01*
X169645524Y-144939392D01*
X169638500Y-144898250D01*
X169638500Y-144741748D01*
X169658185Y-144674709D01*
X169686338Y-144643895D01*
X169690481Y-144640670D01*
X169803240Y-144552906D01*
X169955722Y-144387268D01*
X170078860Y-144198791D01*
X170169296Y-143992616D01*
X170224564Y-143774368D01*
X170226140Y-143755348D01*
X170243156Y-143550005D01*
X170243156Y-143549994D01*
X170224565Y-143325640D01*
X170224563Y-143325628D01*
X170169296Y-143107385D01*
X170147364Y-143057385D01*
X170078860Y-142901209D01*
X170062706Y-142876484D01*
X170017291Y-142806970D01*
X169955722Y-142712732D01*
X169955719Y-142712729D01*
X169955715Y-142712723D01*
X169803243Y-142547097D01*
X169803238Y-142547092D01*
X169625577Y-142408812D01*
X169625578Y-142408812D01*
X169625576Y-142408811D01*
X169589070Y-142389055D01*
X169539479Y-142339836D01*
X169524371Y-142271619D01*
X169548541Y-142206064D01*
X169589070Y-142170945D01*
X169589084Y-142170936D01*
X169625576Y-142151189D01*
X169803240Y-142012906D01*
X169936185Y-141868491D01*
X169955715Y-141847276D01*
X169955717Y-141847273D01*
X169955722Y-141847268D01*
X170078860Y-141658791D01*
X170169296Y-141452616D01*
X170224564Y-141234368D01*
X170230284Y-141165338D01*
X170243156Y-141010005D01*
X170243156Y-141009994D01*
X170224565Y-140785640D01*
X170224563Y-140785628D01*
X170217693Y-140758500D01*
X170169296Y-140567384D01*
X170078860Y-140361209D01*
X170062706Y-140336484D01*
X169989457Y-140224368D01*
X169955722Y-140172732D01*
X169955719Y-140172729D01*
X169955715Y-140172723D01*
X169803243Y-140007097D01*
X169803238Y-140007092D01*
X169625577Y-139868812D01*
X169625578Y-139868812D01*
X169625576Y-139868811D01*
X169589070Y-139849055D01*
X169539479Y-139799836D01*
X169524371Y-139731619D01*
X169548541Y-139666064D01*
X169589070Y-139630945D01*
X169589084Y-139630936D01*
X169625576Y-139611189D01*
X169803240Y-139472906D01*
X169955722Y-139307268D01*
X170078860Y-139118791D01*
X170169296Y-138912616D01*
X170224564Y-138694368D01*
X170224565Y-138694359D01*
X170243156Y-138470005D01*
X170243156Y-138469994D01*
X170224565Y-138245640D01*
X170224563Y-138245628D01*
X170205432Y-138170080D01*
X170169296Y-138027384D01*
X170078860Y-137821209D01*
X170062706Y-137796484D01*
X169994323Y-137691815D01*
X169955722Y-137632732D01*
X169955719Y-137632729D01*
X169955715Y-137632723D01*
X169803243Y-137467097D01*
X169803238Y-137467092D01*
X169684797Y-137374905D01*
X169625576Y-137328811D01*
X169589070Y-137309055D01*
X169539479Y-137259836D01*
X169524371Y-137191619D01*
X169548541Y-137126064D01*
X169589070Y-137090945D01*
X169589084Y-137090936D01*
X169625576Y-137071189D01*
X169803240Y-136932906D01*
X169955722Y-136767268D01*
X170078860Y-136578791D01*
X170169296Y-136372616D01*
X170224564Y-136154368D01*
X170224565Y-136154359D01*
X170243156Y-135930005D01*
X170243156Y-135929994D01*
X170224565Y-135705640D01*
X170224563Y-135705628D01*
X170181321Y-135534869D01*
X170169296Y-135487384D01*
X170078860Y-135281209D01*
X170062706Y-135256484D01*
X169955723Y-135092734D01*
X169955715Y-135092723D01*
X169803243Y-134927097D01*
X169803238Y-134927092D01*
X169686337Y-134836103D01*
X169645524Y-134779392D01*
X169638500Y-134738250D01*
X169638500Y-134581748D01*
X169658185Y-134514709D01*
X169686338Y-134483895D01*
X169690481Y-134480670D01*
X169803240Y-134392906D01*
X169955722Y-134227268D01*
X170078860Y-134038791D01*
X170169296Y-133832616D01*
X170224564Y-133614368D01*
X170243156Y-133390000D01*
X170224564Y-133165632D01*
X170169296Y-132947384D01*
X170078860Y-132741209D01*
X170062706Y-132716484D01*
X169955723Y-132552734D01*
X169955715Y-132552723D01*
X169803243Y-132387097D01*
X169803238Y-132387092D01*
X169686337Y-132296103D01*
X169645524Y-132239392D01*
X169638500Y-132198250D01*
X169638500Y-132041748D01*
X169658185Y-131974709D01*
X169686338Y-131943895D01*
X169690481Y-131940670D01*
X169803240Y-131852906D01*
X169955722Y-131687268D01*
X170078860Y-131498791D01*
X170169296Y-131292616D01*
X170224564Y-131074368D01*
X170243156Y-130850001D01*
X173144843Y-130850001D01*
X173165430Y-131085315D01*
X173165432Y-131085326D01*
X173226566Y-131313483D01*
X173226570Y-131313492D01*
X173326400Y-131527579D01*
X173326402Y-131527583D01*
X173385072Y-131611373D01*
X173385073Y-131611373D01*
X174016923Y-130979523D01*
X174040507Y-131059844D01*
X174118239Y-131180798D01*
X174226900Y-131274952D01*
X174357685Y-131334680D01*
X174367466Y-131336086D01*
X173738625Y-131964925D01*
X173822421Y-132023599D01*
X174036507Y-132123429D01*
X174036516Y-132123433D01*
X174264673Y-132184567D01*
X174264684Y-132184569D01*
X174499998Y-132205157D01*
X174500002Y-132205157D01*
X174735315Y-132184569D01*
X174735326Y-132184567D01*
X174963483Y-132123433D01*
X174963492Y-132123429D01*
X175177578Y-132023600D01*
X175177582Y-132023598D01*
X175261373Y-131964926D01*
X175261373Y-131964925D01*
X174632533Y-131336086D01*
X174642315Y-131334680D01*
X174773100Y-131274952D01*
X174881761Y-131180798D01*
X174959493Y-131059844D01*
X174983076Y-130979524D01*
X175614925Y-131611373D01*
X175614926Y-131611373D01*
X175673598Y-131527582D01*
X175673600Y-131527578D01*
X175773429Y-131313492D01*
X175773433Y-131313483D01*
X175834567Y-131085326D01*
X175834569Y-131085315D01*
X175855157Y-130850001D01*
X175855157Y-130849998D01*
X175834569Y-130614684D01*
X175834567Y-130614673D01*
X175773433Y-130386516D01*
X175773429Y-130386507D01*
X175673600Y-130172423D01*
X175673599Y-130172421D01*
X175614925Y-130088626D01*
X175614925Y-130088625D01*
X174983076Y-130720475D01*
X174959493Y-130640156D01*
X174881761Y-130519202D01*
X174773100Y-130425048D01*
X174642315Y-130365320D01*
X174632533Y-130363913D01*
X175261373Y-129735073D01*
X175184969Y-129681576D01*
X175141344Y-129626999D01*
X175134150Y-129557501D01*
X175165672Y-129495146D01*
X175184968Y-129478425D01*
X175261373Y-129424925D01*
X174967635Y-129131187D01*
X183249500Y-129131187D01*
X183269794Y-129265823D01*
X183288604Y-129390615D01*
X183288605Y-129390617D01*
X183288606Y-129390623D01*
X183365938Y-129641326D01*
X183479767Y-129877696D01*
X183479768Y-129877697D01*
X183479770Y-129877700D01*
X183479772Y-129877704D01*
X183627567Y-130094479D01*
X183806014Y-130286801D01*
X183806018Y-130286804D01*
X183806019Y-130286805D01*
X184011143Y-130450386D01*
X184238357Y-130581568D01*
X184482584Y-130677420D01*
X184738370Y-130735802D01*
X184738376Y-130735802D01*
X184738379Y-130735803D01*
X184934484Y-130750499D01*
X184934503Y-130750499D01*
X184934506Y-130750500D01*
X184934508Y-130750500D01*
X185065492Y-130750500D01*
X185065494Y-130750500D01*
X185065496Y-130750499D01*
X185065515Y-130750499D01*
X185261620Y-130735803D01*
X185261622Y-130735802D01*
X185261630Y-130735802D01*
X185517416Y-130677420D01*
X185761643Y-130581568D01*
X185988857Y-130450386D01*
X186193981Y-130286805D01*
X186372433Y-130094479D01*
X186520228Y-129877704D01*
X186634063Y-129641323D01*
X186711396Y-129390615D01*
X186750500Y-129131182D01*
X186750500Y-128868818D01*
X186711396Y-128609385D01*
X186634063Y-128358677D01*
X186610621Y-128309999D01*
X186520232Y-128122303D01*
X186520231Y-128122302D01*
X186520230Y-128122301D01*
X186520228Y-128122296D01*
X186372433Y-127905521D01*
X186337047Y-127867384D01*
X186193985Y-127713198D01*
X186134783Y-127665986D01*
X185988857Y-127549614D01*
X185761643Y-127418432D01*
X185517416Y-127322580D01*
X185517411Y-127322578D01*
X185517402Y-127322576D01*
X185299818Y-127272914D01*
X185261630Y-127264198D01*
X185261629Y-127264197D01*
X185261625Y-127264197D01*
X185261620Y-127264196D01*
X185065515Y-127249500D01*
X185065494Y-127249500D01*
X184934506Y-127249500D01*
X184934484Y-127249500D01*
X184738379Y-127264196D01*
X184738374Y-127264197D01*
X184482597Y-127322576D01*
X184482578Y-127322582D01*
X184238356Y-127418432D01*
X184011143Y-127549614D01*
X183806014Y-127713198D01*
X183627567Y-127905520D01*
X183479768Y-128122302D01*
X183479767Y-128122303D01*
X183365938Y-128358673D01*
X183288606Y-128609376D01*
X183288605Y-128609381D01*
X183288604Y-128609385D01*
X183273853Y-128707247D01*
X183249500Y-128868812D01*
X183249500Y-129131187D01*
X174967635Y-129131187D01*
X174632533Y-128796086D01*
X174642315Y-128794680D01*
X174773100Y-128734952D01*
X174881761Y-128640798D01*
X174959493Y-128519844D01*
X174983076Y-128439524D01*
X175614925Y-129071373D01*
X175614926Y-129071373D01*
X175673598Y-128987582D01*
X175673600Y-128987578D01*
X175773429Y-128773492D01*
X175773433Y-128773483D01*
X175834567Y-128545326D01*
X175834569Y-128545315D01*
X175855157Y-128310001D01*
X175855157Y-128309998D01*
X175834569Y-128074684D01*
X175834567Y-128074673D01*
X175773433Y-127846516D01*
X175773429Y-127846507D01*
X175673600Y-127632423D01*
X175673599Y-127632421D01*
X175614925Y-127548626D01*
X175614925Y-127548625D01*
X174983076Y-128180475D01*
X174959493Y-128100156D01*
X174881761Y-127979202D01*
X174773100Y-127885048D01*
X174642315Y-127825320D01*
X174632533Y-127823913D01*
X175261373Y-127195073D01*
X175261373Y-127195072D01*
X175177583Y-127136402D01*
X175177579Y-127136400D01*
X174963492Y-127036570D01*
X174963483Y-127036566D01*
X174735326Y-126975432D01*
X174735315Y-126975430D01*
X174500002Y-126954843D01*
X174499998Y-126954843D01*
X174264684Y-126975430D01*
X174264673Y-126975432D01*
X174036516Y-127036566D01*
X174036507Y-127036570D01*
X173822419Y-127136401D01*
X173738625Y-127195072D01*
X174367466Y-127823913D01*
X174357685Y-127825320D01*
X174226900Y-127885048D01*
X174118239Y-127979202D01*
X174040507Y-128100156D01*
X174016923Y-128180476D01*
X173385072Y-127548625D01*
X173326401Y-127632419D01*
X173226570Y-127846507D01*
X173226566Y-127846516D01*
X173165432Y-128074673D01*
X173165430Y-128074684D01*
X173144843Y-128309998D01*
X173144843Y-128310001D01*
X173165430Y-128545315D01*
X173165432Y-128545326D01*
X173226566Y-128773483D01*
X173226570Y-128773492D01*
X173326400Y-128987579D01*
X173326402Y-128987583D01*
X173385072Y-129071373D01*
X173385073Y-129071373D01*
X174016923Y-128439523D01*
X174040507Y-128519844D01*
X174118239Y-128640798D01*
X174226900Y-128734952D01*
X174357685Y-128794680D01*
X174367466Y-128796086D01*
X173738625Y-129424925D01*
X173815031Y-129478425D01*
X173858655Y-129533002D01*
X173865848Y-129602501D01*
X173834326Y-129664855D01*
X173815029Y-129681576D01*
X173738625Y-129735072D01*
X174367466Y-130363913D01*
X174357685Y-130365320D01*
X174226900Y-130425048D01*
X174118239Y-130519202D01*
X174040507Y-130640156D01*
X174016923Y-130720476D01*
X173385072Y-130088625D01*
X173326401Y-130172419D01*
X173226570Y-130386507D01*
X173226566Y-130386516D01*
X173165432Y-130614673D01*
X173165430Y-130614684D01*
X173144843Y-130849998D01*
X173144843Y-130850001D01*
X170243156Y-130850001D01*
X170243156Y-130850000D01*
X170233693Y-130735803D01*
X170224565Y-130625640D01*
X170224563Y-130625628D01*
X170191850Y-130496447D01*
X170169296Y-130407384D01*
X170078860Y-130201209D01*
X170062706Y-130176484D01*
X169955723Y-130012734D01*
X169955715Y-130012723D01*
X169803243Y-129847097D01*
X169803238Y-129847092D01*
X169686337Y-129756103D01*
X169645524Y-129699392D01*
X169638500Y-129658250D01*
X169638500Y-129501748D01*
X169658185Y-129434709D01*
X169686338Y-129403895D01*
X169703400Y-129390615D01*
X169803240Y-129312906D01*
X169955722Y-129147268D01*
X170078860Y-128958791D01*
X170169296Y-128752616D01*
X170224564Y-128534368D01*
X170237199Y-128381889D01*
X170243156Y-128310005D01*
X170243156Y-128309994D01*
X170224565Y-128085640D01*
X170224563Y-128085628D01*
X170191850Y-127956447D01*
X170169296Y-127867384D01*
X170078860Y-127661209D01*
X170062706Y-127636484D01*
X169955723Y-127472734D01*
X169955715Y-127472723D01*
X169803243Y-127307097D01*
X169803238Y-127307092D01*
X169686337Y-127216103D01*
X169645524Y-127159392D01*
X169638500Y-127118250D01*
X169638500Y-126961748D01*
X169658185Y-126894709D01*
X169686338Y-126863895D01*
X169690481Y-126860670D01*
X169803240Y-126772906D01*
X169955722Y-126607268D01*
X170078860Y-126418791D01*
X170169296Y-126212616D01*
X170224564Y-125994368D01*
X170243156Y-125770000D01*
X170224564Y-125545632D01*
X170169296Y-125327384D01*
X170078860Y-125121209D01*
X170062706Y-125096484D01*
X169955723Y-124932734D01*
X169955715Y-124932723D01*
X169803243Y-124767097D01*
X169803238Y-124767092D01*
X169686337Y-124676103D01*
X169645524Y-124619392D01*
X169638500Y-124578250D01*
X169638500Y-124421748D01*
X169658185Y-124354709D01*
X169686338Y-124323895D01*
X169690481Y-124320670D01*
X169803240Y-124232906D01*
X169955722Y-124067268D01*
X170078860Y-123878791D01*
X170169296Y-123672616D01*
X170224564Y-123454368D01*
X170243156Y-123230000D01*
X170241374Y-123208500D01*
X170224565Y-123005640D01*
X170224563Y-123005628D01*
X170177921Y-122821443D01*
X170169296Y-122787384D01*
X170078860Y-122581209D01*
X170062706Y-122556484D01*
X169955723Y-122392734D01*
X169955715Y-122392723D01*
X169803243Y-122227097D01*
X169803238Y-122227092D01*
X169686337Y-122136103D01*
X169645524Y-122079392D01*
X169638500Y-122038250D01*
X169638500Y-121881748D01*
X169658185Y-121814709D01*
X169686338Y-121783895D01*
X169762814Y-121724371D01*
X169803240Y-121692906D01*
X169955722Y-121527268D01*
X169973534Y-121500005D01*
X173136844Y-121500005D01*
X173155434Y-121724359D01*
X173155436Y-121724371D01*
X173210703Y-121942614D01*
X173301140Y-122148792D01*
X173424276Y-122337265D01*
X173424284Y-122337276D01*
X173576756Y-122502902D01*
X173576760Y-122502906D01*
X173754424Y-122641189D01*
X173754425Y-122641189D01*
X173754427Y-122641191D01*
X173881135Y-122709761D01*
X173952426Y-122748342D01*
X174165365Y-122821444D01*
X174387431Y-122858500D01*
X174612569Y-122858500D01*
X174834635Y-122821444D01*
X175047574Y-122748342D01*
X175245576Y-122641189D01*
X175423240Y-122502906D01*
X175575722Y-122337268D01*
X175590482Y-122314675D01*
X175643628Y-122269321D01*
X175694289Y-122258500D01*
X178167500Y-122258500D01*
X178234539Y-122278185D01*
X178280294Y-122330989D01*
X178291500Y-122382500D01*
X178291500Y-122748654D01*
X178298011Y-122809202D01*
X178298011Y-122809204D01*
X178349111Y-122946204D01*
X178436739Y-123063261D01*
X178553796Y-123150889D01*
X178690799Y-123201989D01*
X178718050Y-123204918D01*
X178751345Y-123208499D01*
X178751362Y-123208500D01*
X181248638Y-123208500D01*
X181248654Y-123208499D01*
X181275692Y-123205591D01*
X181309201Y-123201989D01*
X181446204Y-123150889D01*
X181563261Y-123063261D01*
X181650889Y-122946204D01*
X181701989Y-122809201D01*
X181705591Y-122775692D01*
X181708499Y-122748654D01*
X181708500Y-122748637D01*
X181708500Y-120251362D01*
X181708499Y-120251345D01*
X181703343Y-120203393D01*
X181701989Y-120190799D01*
X181650889Y-120053796D01*
X181563261Y-119936739D01*
X181446204Y-119849111D01*
X181309203Y-119798011D01*
X181248654Y-119791500D01*
X181248638Y-119791500D01*
X180760883Y-119791500D01*
X180693844Y-119771815D01*
X180648089Y-119719011D01*
X180638145Y-119649853D01*
X180667170Y-119586297D01*
X180707082Y-119555780D01*
X180856638Y-119483758D01*
X180856638Y-119483757D01*
X180856646Y-119483754D01*
X181068219Y-119339505D01*
X181255931Y-119165334D01*
X181415587Y-118965131D01*
X181543622Y-118743369D01*
X181637174Y-118505001D01*
X181694155Y-118255353D01*
X181713291Y-118000000D01*
X181694155Y-117744647D01*
X181637174Y-117494999D01*
X181543622Y-117256631D01*
X181415587Y-117034869D01*
X181255931Y-116834666D01*
X181255930Y-116834665D01*
X181255927Y-116834661D01*
X181087684Y-116678556D01*
X181068219Y-116660495D01*
X180998419Y-116612906D01*
X180856649Y-116516248D01*
X180856638Y-116516241D01*
X180625940Y-116405144D01*
X180625921Y-116405137D01*
X180507116Y-116368491D01*
X180448857Y-116329921D01*
X180420699Y-116265977D01*
X180431581Y-116196960D01*
X180478050Y-116144783D01*
X180507116Y-116131509D01*
X180575268Y-116110486D01*
X180625935Y-116094858D01*
X180856646Y-115983754D01*
X181068219Y-115839505D01*
X181255931Y-115665334D01*
X181415587Y-115465131D01*
X181543622Y-115243369D01*
X181637174Y-115005001D01*
X181694155Y-114755353D01*
X181703460Y-114631187D01*
X181713291Y-114500004D01*
X181713291Y-114499995D01*
X181694156Y-114244656D01*
X181694155Y-114244651D01*
X181694155Y-114244647D01*
X181637174Y-113994999D01*
X181543622Y-113756631D01*
X181415587Y-113534869D01*
X181255931Y-113334666D01*
X181255930Y-113334665D01*
X181255927Y-113334661D01*
X181087684Y-113178556D01*
X181068219Y-113160495D01*
X180935495Y-113070005D01*
X180856649Y-113016248D01*
X180856638Y-113016241D01*
X180625940Y-112905144D01*
X180625921Y-112905137D01*
X180507116Y-112868491D01*
X180448857Y-112829921D01*
X180420699Y-112765977D01*
X180431581Y-112696960D01*
X180478050Y-112644783D01*
X180507116Y-112631509D01*
X180575268Y-112610486D01*
X180625935Y-112594858D01*
X180856646Y-112483754D01*
X181068219Y-112339505D01*
X181255931Y-112165334D01*
X181415587Y-111965131D01*
X181543622Y-111743369D01*
X181637174Y-111505001D01*
X181694155Y-111255353D01*
X181694156Y-111255343D01*
X181713291Y-111000004D01*
X181713291Y-110999995D01*
X181694156Y-110744656D01*
X181694155Y-110744651D01*
X181694155Y-110744647D01*
X181637174Y-110494999D01*
X181543622Y-110256631D01*
X181415587Y-110034869D01*
X181255931Y-109834666D01*
X181255930Y-109834665D01*
X181255927Y-109834661D01*
X181102962Y-109692732D01*
X181068219Y-109660495D01*
X181007090Y-109618818D01*
X180856649Y-109516248D01*
X180856638Y-109516241D01*
X180625940Y-109405144D01*
X180625921Y-109405137D01*
X180381248Y-109329666D01*
X180381238Y-109329663D01*
X180128041Y-109291500D01*
X180128034Y-109291500D01*
X179871966Y-109291500D01*
X179871958Y-109291500D01*
X179618761Y-109329663D01*
X179618755Y-109329665D01*
X179374061Y-109405143D01*
X179143362Y-109516241D01*
X179143361Y-109516242D01*
X178931780Y-109660495D01*
X178744072Y-109834661D01*
X178584413Y-110034869D01*
X178518231Y-110149500D01*
X178500910Y-110179500D01*
X178450343Y-110227716D01*
X178393523Y-110241500D01*
X175694289Y-110241500D01*
X175627250Y-110221815D01*
X175590482Y-110185324D01*
X175575722Y-110162732D01*
X175575718Y-110162728D01*
X175575715Y-110162723D01*
X175423243Y-109997097D01*
X175423238Y-109997092D01*
X175280490Y-109885986D01*
X175245576Y-109858811D01*
X175245575Y-109858810D01*
X175245572Y-109858808D01*
X175047580Y-109751661D01*
X175047577Y-109751659D01*
X175047574Y-109751658D01*
X175047571Y-109751657D01*
X175047569Y-109751656D01*
X174834637Y-109678556D01*
X174612569Y-109641500D01*
X174387431Y-109641500D01*
X174165362Y-109678556D01*
X173952430Y-109751656D01*
X173952419Y-109751661D01*
X173754427Y-109858808D01*
X173754422Y-109858812D01*
X173576761Y-109997092D01*
X173576756Y-109997097D01*
X173424284Y-110162723D01*
X173424276Y-110162734D01*
X173301140Y-110351207D01*
X173210703Y-110557385D01*
X173155436Y-110775628D01*
X173155434Y-110775640D01*
X173136844Y-110999994D01*
X173136844Y-111000005D01*
X173155434Y-111224359D01*
X173155436Y-111224371D01*
X173210703Y-111442614D01*
X173301140Y-111648792D01*
X173424276Y-111837265D01*
X173424284Y-111837276D01*
X173576756Y-112002902D01*
X173576760Y-112002906D01*
X173754424Y-112141189D01*
X173754425Y-112141189D01*
X173754427Y-112141191D01*
X173881135Y-112209761D01*
X173952426Y-112248342D01*
X174165365Y-112321444D01*
X174387431Y-112358500D01*
X174612569Y-112358500D01*
X174834635Y-112321444D01*
X175047574Y-112248342D01*
X175245576Y-112141189D01*
X175423240Y-112002906D01*
X175575722Y-111837268D01*
X175590482Y-111814675D01*
X175643628Y-111769321D01*
X175694289Y-111758500D01*
X178393523Y-111758500D01*
X178460562Y-111778185D01*
X178500909Y-111820499D01*
X178584413Y-111965131D01*
X178665728Y-112067097D01*
X178744072Y-112165338D01*
X178841054Y-112255323D01*
X178931781Y-112339505D01*
X179143355Y-112483754D01*
X179143360Y-112483756D01*
X179143361Y-112483757D01*
X179143362Y-112483758D01*
X179265890Y-112542764D01*
X179374061Y-112594856D01*
X179374062Y-112594856D01*
X179374065Y-112594858D01*
X179468210Y-112623897D01*
X179492885Y-112631509D01*
X179551144Y-112670080D01*
X179579302Y-112734024D01*
X179568418Y-112803041D01*
X179521949Y-112855218D01*
X179492885Y-112868491D01*
X179374061Y-112905143D01*
X179143362Y-113016241D01*
X179143361Y-113016242D01*
X178931780Y-113160495D01*
X178744072Y-113334661D01*
X178584413Y-113534869D01*
X178500910Y-113679500D01*
X178450343Y-113727716D01*
X178393523Y-113741500D01*
X175694289Y-113741500D01*
X175627250Y-113721815D01*
X175590482Y-113685324D01*
X175575722Y-113662732D01*
X175575718Y-113662728D01*
X175575715Y-113662723D01*
X175423243Y-113497097D01*
X175423238Y-113497092D01*
X175245577Y-113358812D01*
X175245572Y-113358808D01*
X175047580Y-113251661D01*
X175047577Y-113251659D01*
X175047574Y-113251658D01*
X175047571Y-113251657D01*
X175047569Y-113251656D01*
X174834637Y-113178556D01*
X174612569Y-113141500D01*
X174387431Y-113141500D01*
X174165362Y-113178556D01*
X173952430Y-113251656D01*
X173952419Y-113251661D01*
X173754427Y-113358808D01*
X173754422Y-113358812D01*
X173576761Y-113497092D01*
X173576756Y-113497097D01*
X173424284Y-113662723D01*
X173424276Y-113662734D01*
X173301140Y-113851207D01*
X173210703Y-114057385D01*
X173155436Y-114275628D01*
X173155434Y-114275640D01*
X173136844Y-114499994D01*
X173136844Y-114500005D01*
X173155434Y-114724359D01*
X173155436Y-114724371D01*
X173210703Y-114942614D01*
X173301140Y-115148792D01*
X173424276Y-115337265D01*
X173424284Y-115337276D01*
X173541984Y-115465130D01*
X173576760Y-115502906D01*
X173754424Y-115641189D01*
X173754425Y-115641189D01*
X173754427Y-115641191D01*
X173881135Y-115709761D01*
X173952426Y-115748342D01*
X174165365Y-115821444D01*
X174387431Y-115858500D01*
X174612569Y-115858500D01*
X174834635Y-115821444D01*
X175047574Y-115748342D01*
X175245576Y-115641189D01*
X175423240Y-115502906D01*
X175575722Y-115337268D01*
X175590482Y-115314675D01*
X175643628Y-115269321D01*
X175694289Y-115258500D01*
X178393523Y-115258500D01*
X178460562Y-115278185D01*
X178500909Y-115320499D01*
X178584413Y-115465131D01*
X178687564Y-115594479D01*
X178744072Y-115665338D01*
X178912315Y-115821443D01*
X178931781Y-115839505D01*
X179143355Y-115983754D01*
X179143360Y-115983756D01*
X179143361Y-115983757D01*
X179143362Y-115983758D01*
X179265890Y-116042764D01*
X179374061Y-116094856D01*
X179374062Y-116094856D01*
X179374065Y-116094858D01*
X179468210Y-116123897D01*
X179492885Y-116131509D01*
X179551144Y-116170080D01*
X179579302Y-116234024D01*
X179568418Y-116303041D01*
X179521949Y-116355218D01*
X179492885Y-116368491D01*
X179374061Y-116405143D01*
X179143362Y-116516241D01*
X179143361Y-116516242D01*
X178931780Y-116660495D01*
X178744072Y-116834661D01*
X178584413Y-117034869D01*
X178500910Y-117179500D01*
X178450343Y-117227716D01*
X178393523Y-117241500D01*
X175694289Y-117241500D01*
X175627250Y-117221815D01*
X175590482Y-117185324D01*
X175575722Y-117162732D01*
X175575718Y-117162728D01*
X175575715Y-117162723D01*
X175423243Y-116997097D01*
X175423238Y-116997092D01*
X175272799Y-116880000D01*
X175245576Y-116858811D01*
X175245575Y-116858810D01*
X175245572Y-116858808D01*
X175047580Y-116751661D01*
X175047577Y-116751659D01*
X175047574Y-116751658D01*
X175047571Y-116751657D01*
X175047569Y-116751656D01*
X174834637Y-116678556D01*
X174612569Y-116641500D01*
X174387431Y-116641500D01*
X174165362Y-116678556D01*
X173952430Y-116751656D01*
X173952419Y-116751661D01*
X173754427Y-116858808D01*
X173754422Y-116858812D01*
X173576761Y-116997092D01*
X173576756Y-116997097D01*
X173424284Y-117162723D01*
X173424276Y-117162734D01*
X173301140Y-117351207D01*
X173210703Y-117557385D01*
X173155436Y-117775628D01*
X173155434Y-117775640D01*
X173136844Y-117999994D01*
X173136844Y-118000005D01*
X173155434Y-118224359D01*
X173155436Y-118224371D01*
X173210703Y-118442614D01*
X173301140Y-118648792D01*
X173424276Y-118837265D01*
X173424284Y-118837276D01*
X173562371Y-118987276D01*
X173576760Y-119002906D01*
X173754424Y-119141189D01*
X173754425Y-119141189D01*
X173754427Y-119141191D01*
X173881135Y-119209761D01*
X173952426Y-119248342D01*
X174165365Y-119321444D01*
X174387431Y-119358500D01*
X174612569Y-119358500D01*
X174834635Y-119321444D01*
X175047574Y-119248342D01*
X175245576Y-119141189D01*
X175423240Y-119002906D01*
X175522614Y-118894957D01*
X175575715Y-118837276D01*
X175575715Y-118837274D01*
X175575722Y-118837268D01*
X175590482Y-118814675D01*
X175643628Y-118769321D01*
X175694289Y-118758500D01*
X178393523Y-118758500D01*
X178460562Y-118778185D01*
X178500909Y-118820499D01*
X178584413Y-118965131D01*
X178713367Y-119126835D01*
X178744072Y-119165338D01*
X178901002Y-119310946D01*
X178931781Y-119339505D01*
X179143355Y-119483754D01*
X179143360Y-119483756D01*
X179143361Y-119483757D01*
X179143363Y-119483758D01*
X179292918Y-119555780D01*
X179344778Y-119602602D01*
X179363091Y-119670029D01*
X179342043Y-119736653D01*
X179288317Y-119781322D01*
X179239117Y-119791500D01*
X178751345Y-119791500D01*
X178690797Y-119798011D01*
X178690795Y-119798011D01*
X178553795Y-119849111D01*
X178436739Y-119936739D01*
X178349111Y-120053795D01*
X178298011Y-120190795D01*
X178298011Y-120190797D01*
X178291500Y-120251345D01*
X178291500Y-120617500D01*
X178271815Y-120684539D01*
X178219011Y-120730294D01*
X178167500Y-120741500D01*
X175694289Y-120741500D01*
X175627250Y-120721815D01*
X175590482Y-120685324D01*
X175575722Y-120662732D01*
X175575718Y-120662728D01*
X175575715Y-120662723D01*
X175423243Y-120497097D01*
X175423238Y-120497092D01*
X175245577Y-120358812D01*
X175245572Y-120358808D01*
X175047580Y-120251661D01*
X175047577Y-120251659D01*
X175047574Y-120251658D01*
X175047571Y-120251657D01*
X175047569Y-120251656D01*
X174834637Y-120178556D01*
X174612569Y-120141500D01*
X174387431Y-120141500D01*
X174165362Y-120178556D01*
X173952430Y-120251656D01*
X173952419Y-120251661D01*
X173754427Y-120358808D01*
X173754422Y-120358812D01*
X173576761Y-120497092D01*
X173576756Y-120497097D01*
X173424284Y-120662723D01*
X173424276Y-120662734D01*
X173301140Y-120851207D01*
X173210703Y-121057385D01*
X173155436Y-121275628D01*
X173155434Y-121275640D01*
X173136844Y-121499994D01*
X173136844Y-121500005D01*
X169973534Y-121500005D01*
X170078860Y-121338791D01*
X170169296Y-121132616D01*
X170224564Y-120914368D01*
X170243156Y-120690000D01*
X170242768Y-120685323D01*
X170224565Y-120465640D01*
X170224563Y-120465628D01*
X170169296Y-120247385D01*
X170144475Y-120190799D01*
X170078860Y-120041209D01*
X170062706Y-120016484D01*
X169955723Y-119852734D01*
X169955715Y-119852723D01*
X169803243Y-119687097D01*
X169803238Y-119687092D01*
X169673737Y-119586297D01*
X169625576Y-119548811D01*
X169589070Y-119529055D01*
X169539479Y-119479836D01*
X169524371Y-119411619D01*
X169548541Y-119346064D01*
X169589070Y-119310945D01*
X169589084Y-119310936D01*
X169625576Y-119291189D01*
X169803240Y-119152906D01*
X169955722Y-118987268D01*
X170078860Y-118798791D01*
X170169296Y-118592616D01*
X170224564Y-118374368D01*
X170234426Y-118255353D01*
X170243156Y-118150005D01*
X170243156Y-118149994D01*
X170224565Y-117925640D01*
X170224563Y-117925628D01*
X170186578Y-117775628D01*
X170169296Y-117707384D01*
X170078860Y-117501209D01*
X170074811Y-117495012D01*
X169955723Y-117312734D01*
X169955715Y-117312723D01*
X169803243Y-117147097D01*
X169803238Y-117147092D01*
X169625577Y-117008812D01*
X169625578Y-117008812D01*
X169625576Y-117008811D01*
X169589070Y-116989055D01*
X169539479Y-116939836D01*
X169524371Y-116871619D01*
X169548541Y-116806064D01*
X169589070Y-116770945D01*
X169589084Y-116770936D01*
X169625576Y-116751189D01*
X169803240Y-116612906D01*
X169955722Y-116447268D01*
X170078860Y-116258791D01*
X170169296Y-116052616D01*
X170224564Y-115834368D01*
X170225635Y-115821443D01*
X170243156Y-115610005D01*
X170243156Y-115609994D01*
X170224565Y-115385640D01*
X170224563Y-115385628D01*
X170169296Y-115167385D01*
X170161140Y-115148792D01*
X170078860Y-114961209D01*
X170066711Y-114942614D01*
X169955723Y-114772734D01*
X169955715Y-114772723D01*
X169803243Y-114607097D01*
X169803238Y-114607092D01*
X169625577Y-114468812D01*
X169625578Y-114468812D01*
X169625576Y-114468811D01*
X169589070Y-114449055D01*
X169539479Y-114399836D01*
X169524371Y-114331619D01*
X169548541Y-114266064D01*
X169589070Y-114230945D01*
X169589084Y-114230936D01*
X169625576Y-114211189D01*
X169803240Y-114072906D01*
X169955722Y-113907268D01*
X170078860Y-113718791D01*
X170169296Y-113512616D01*
X170224564Y-113294368D01*
X170228103Y-113251658D01*
X170243156Y-113070005D01*
X170243156Y-113069994D01*
X170224565Y-112845640D01*
X170224563Y-112845628D01*
X170210856Y-112791500D01*
X170169296Y-112627384D01*
X170078860Y-112421209D01*
X170062706Y-112396484D01*
X169965921Y-112248343D01*
X169955722Y-112232732D01*
X169955719Y-112232729D01*
X169955715Y-112232723D01*
X169803243Y-112067097D01*
X169803238Y-112067092D01*
X169646747Y-111945289D01*
X169625576Y-111928811D01*
X169625575Y-111928810D01*
X169625572Y-111928808D01*
X169427580Y-111821661D01*
X169427577Y-111821659D01*
X169427574Y-111821658D01*
X169427571Y-111821657D01*
X169427569Y-111821656D01*
X169214637Y-111748556D01*
X168992569Y-111711500D01*
X168767431Y-111711500D01*
X168545362Y-111748556D01*
X168332430Y-111821656D01*
X168332419Y-111821661D01*
X168134427Y-111928808D01*
X168134422Y-111928812D01*
X167956761Y-112067092D01*
X167956756Y-112067097D01*
X167804284Y-112232723D01*
X167804280Y-112232729D01*
X167804278Y-112232731D01*
X167804278Y-112232732D01*
X167789517Y-112255324D01*
X167736372Y-112300679D01*
X167685711Y-112311500D01*
X167534289Y-112311500D01*
X167467250Y-112291815D01*
X167430482Y-112255324D01*
X167415722Y-112232732D01*
X167415718Y-112232728D01*
X167415715Y-112232723D01*
X167263243Y-112067097D01*
X167263238Y-112067092D01*
X167106747Y-111945289D01*
X167085576Y-111928811D01*
X167085575Y-111928810D01*
X167085572Y-111928808D01*
X166887580Y-111821661D01*
X166887577Y-111821659D01*
X166887574Y-111821658D01*
X166887571Y-111821657D01*
X166887569Y-111821656D01*
X166674637Y-111748556D01*
X166452569Y-111711500D01*
X166373311Y-111711500D01*
X166306272Y-111691815D01*
X166260517Y-111639011D01*
X166250573Y-111569853D01*
X166279598Y-111506297D01*
X166338376Y-111468523D01*
X166345719Y-111466609D01*
X166517416Y-111427420D01*
X166761643Y-111331568D01*
X166988857Y-111200386D01*
X167193981Y-111036805D01*
X167372433Y-110844479D01*
X167520228Y-110627704D01*
X167634063Y-110391323D01*
X167711396Y-110140615D01*
X167750500Y-109881182D01*
X167750500Y-109618818D01*
X167711396Y-109359385D01*
X167634063Y-109108677D01*
X167578309Y-108992902D01*
X167520232Y-108872303D01*
X167520231Y-108872302D01*
X167520230Y-108872301D01*
X167520228Y-108872296D01*
X167372433Y-108655521D01*
X167261525Y-108535990D01*
X167193985Y-108463198D01*
X167154533Y-108431736D01*
X166988857Y-108299614D01*
X166761643Y-108168432D01*
X166517416Y-108072580D01*
X166517411Y-108072578D01*
X166517402Y-108072576D01*
X166299818Y-108022914D01*
X166261630Y-108014198D01*
X166261629Y-108014197D01*
X166261625Y-108014197D01*
X166261620Y-108014196D01*
X166065515Y-107999500D01*
X166065494Y-107999500D01*
X165934506Y-107999500D01*
X165934484Y-107999500D01*
X165738379Y-108014196D01*
X165738374Y-108014197D01*
X165482597Y-108072576D01*
X165482578Y-108072582D01*
X165238356Y-108168432D01*
X165011143Y-108299614D01*
X164806014Y-108463198D01*
X164627567Y-108655520D01*
X164479768Y-108872302D01*
X164479767Y-108872303D01*
X164365938Y-109108673D01*
X164288606Y-109359376D01*
X164288605Y-109359381D01*
X164288604Y-109359385D01*
X164284169Y-109388809D01*
X164249500Y-109618812D01*
X164249500Y-109881187D01*
X164264937Y-109983597D01*
X164288604Y-110140615D01*
X164288605Y-110140617D01*
X164288606Y-110140623D01*
X164365938Y-110391326D01*
X164479767Y-110627696D01*
X164479768Y-110627697D01*
X164479770Y-110627700D01*
X164479772Y-110627704D01*
X164627567Y-110844479D01*
X164806014Y-111036801D01*
X164806018Y-111036804D01*
X164806019Y-111036805D01*
X165011143Y-111200386D01*
X165238357Y-111331568D01*
X165482584Y-111427420D01*
X165738370Y-111485802D01*
X165738376Y-111485802D01*
X165738379Y-111485803D01*
X165934484Y-111500499D01*
X165934503Y-111500499D01*
X165934506Y-111500500D01*
X165934508Y-111500500D01*
X165995424Y-111500500D01*
X166062463Y-111520185D01*
X166108218Y-111572989D01*
X166118162Y-111642147D01*
X166089137Y-111705703D01*
X166030359Y-111743477D01*
X166015834Y-111746809D01*
X166005361Y-111748556D01*
X165792430Y-111821656D01*
X165792419Y-111821661D01*
X165594427Y-111928808D01*
X165594422Y-111928812D01*
X165416761Y-112067092D01*
X165416756Y-112067097D01*
X165264284Y-112232723D01*
X165264280Y-112232729D01*
X165264278Y-112232731D01*
X165264278Y-112232732D01*
X165249517Y-112255324D01*
X165196372Y-112300679D01*
X165145711Y-112311500D01*
X164994289Y-112311500D01*
X164927250Y-112291815D01*
X164890482Y-112255324D01*
X164875722Y-112232732D01*
X164875718Y-112232728D01*
X164875715Y-112232723D01*
X164723243Y-112067097D01*
X164723238Y-112067092D01*
X164566747Y-111945289D01*
X164545576Y-111928811D01*
X164545575Y-111928810D01*
X164545572Y-111928808D01*
X164347580Y-111821661D01*
X164347577Y-111821659D01*
X164347574Y-111821658D01*
X164347571Y-111821657D01*
X164347569Y-111821656D01*
X164134637Y-111748556D01*
X163912569Y-111711500D01*
X163687431Y-111711500D01*
X163465362Y-111748556D01*
X163252430Y-111821656D01*
X163252419Y-111821661D01*
X163054427Y-111928808D01*
X163054422Y-111928812D01*
X162876761Y-112067092D01*
X162876756Y-112067097D01*
X162724284Y-112232723D01*
X162724276Y-112232734D01*
X162633808Y-112371206D01*
X162580662Y-112416562D01*
X162511431Y-112425986D01*
X162448095Y-112396484D01*
X162426192Y-112371206D01*
X162345921Y-112248343D01*
X162335722Y-112232732D01*
X162335719Y-112232729D01*
X162335715Y-112232723D01*
X162183243Y-112067097D01*
X162183238Y-112067092D01*
X162066337Y-111976103D01*
X162025524Y-111919392D01*
X162018500Y-111878250D01*
X162018500Y-111721748D01*
X162038185Y-111654709D01*
X162066338Y-111623895D01*
X162070481Y-111620670D01*
X162183240Y-111532906D01*
X162335722Y-111367268D01*
X162458860Y-111178791D01*
X162549296Y-110972616D01*
X162604564Y-110754368D01*
X162615060Y-110627704D01*
X162623156Y-110530005D01*
X162623156Y-110529994D01*
X162604565Y-110305640D01*
X162604563Y-110305628D01*
X162592155Y-110256630D01*
X162549296Y-110087384D01*
X162458860Y-109881209D01*
X162458842Y-109881182D01*
X162335723Y-109692734D01*
X162335715Y-109692723D01*
X162183243Y-109527097D01*
X162183238Y-109527092D01*
X162005577Y-109388812D01*
X162005578Y-109388812D01*
X162005576Y-109388811D01*
X161969070Y-109369055D01*
X161919479Y-109319836D01*
X161904371Y-109251619D01*
X161928541Y-109186064D01*
X161969070Y-109150945D01*
X161969084Y-109150936D01*
X162005576Y-109131189D01*
X162183240Y-108992906D01*
X162294270Y-108872296D01*
X162335715Y-108827276D01*
X162335717Y-108827273D01*
X162335722Y-108827268D01*
X162458860Y-108638791D01*
X162549296Y-108432616D01*
X162604564Y-108214368D01*
X162605021Y-108208853D01*
X162623156Y-107990005D01*
X162623156Y-107989994D01*
X162604565Y-107765640D01*
X162604563Y-107765628D01*
X162582225Y-107677417D01*
X162549296Y-107547384D01*
X162458860Y-107341209D01*
X162442706Y-107316484D01*
X162335723Y-107152734D01*
X162335715Y-107152723D01*
X162183243Y-106987097D01*
X162183238Y-106987092D01*
X162066337Y-106896103D01*
X162025524Y-106839392D01*
X162018500Y-106798250D01*
X162018500Y-106641748D01*
X162038185Y-106574709D01*
X162066338Y-106543895D01*
X162070481Y-106540670D01*
X162183240Y-106452906D01*
X162335722Y-106287268D01*
X162437695Y-106131187D01*
X165749500Y-106131187D01*
X165769794Y-106265823D01*
X165788604Y-106390615D01*
X165788605Y-106390617D01*
X165788606Y-106390623D01*
X165865938Y-106641326D01*
X165979767Y-106877696D01*
X165979768Y-106877697D01*
X165979770Y-106877700D01*
X165979772Y-106877704D01*
X166054352Y-106987092D01*
X166127567Y-107094479D01*
X166306014Y-107286801D01*
X166306018Y-107286804D01*
X166306019Y-107286805D01*
X166511143Y-107450386D01*
X166738357Y-107581568D01*
X166982584Y-107677420D01*
X167238370Y-107735802D01*
X167238376Y-107735802D01*
X167238379Y-107735803D01*
X167434484Y-107750499D01*
X167434503Y-107750499D01*
X167434506Y-107750500D01*
X167434508Y-107750500D01*
X167565492Y-107750500D01*
X167565494Y-107750500D01*
X167565496Y-107750499D01*
X167565515Y-107750499D01*
X167761620Y-107735803D01*
X167761622Y-107735802D01*
X167761630Y-107735802D01*
X168017416Y-107677420D01*
X168261643Y-107581568D01*
X168488857Y-107450386D01*
X168693981Y-107286805D01*
X168872433Y-107094479D01*
X169020228Y-106877704D01*
X169134063Y-106641323D01*
X169211396Y-106390615D01*
X169250500Y-106131182D01*
X169250500Y-105868818D01*
X169211396Y-105609385D01*
X169134063Y-105358677D01*
X169038475Y-105160186D01*
X169020232Y-105122303D01*
X169020231Y-105122302D01*
X169020230Y-105122301D01*
X169020228Y-105122296D01*
X168872433Y-104905521D01*
X168862441Y-104894753D01*
X168693985Y-104713198D01*
X168596405Y-104635381D01*
X168488857Y-104549614D01*
X168261643Y-104418432D01*
X168017416Y-104322580D01*
X168017411Y-104322578D01*
X168017402Y-104322576D01*
X167799818Y-104272914D01*
X167761630Y-104264198D01*
X167761629Y-104264197D01*
X167761625Y-104264197D01*
X167761620Y-104264196D01*
X167565515Y-104249500D01*
X167565494Y-104249500D01*
X167434506Y-104249500D01*
X167434484Y-104249500D01*
X167238379Y-104264196D01*
X167238374Y-104264197D01*
X166982597Y-104322576D01*
X166982578Y-104322582D01*
X166738356Y-104418432D01*
X166511143Y-104549614D01*
X166306014Y-104713198D01*
X166127567Y-104905520D01*
X165979768Y-105122302D01*
X165979767Y-105122303D01*
X165865938Y-105358673D01*
X165788606Y-105609376D01*
X165788605Y-105609381D01*
X165788604Y-105609385D01*
X165780046Y-105666162D01*
X165749500Y-105868812D01*
X165749500Y-106131187D01*
X162437695Y-106131187D01*
X162458860Y-106098791D01*
X162549296Y-105892616D01*
X162604564Y-105674368D01*
X162609949Y-105609382D01*
X162623156Y-105450005D01*
X162623156Y-105449994D01*
X162604565Y-105225640D01*
X162604563Y-105225628D01*
X162549296Y-105007385D01*
X162504614Y-104905520D01*
X162458860Y-104801209D01*
X162442706Y-104776484D01*
X162335723Y-104612734D01*
X162335715Y-104612723D01*
X162183243Y-104447097D01*
X162183238Y-104447092D01*
X162066337Y-104356103D01*
X162025524Y-104299392D01*
X162018500Y-104258250D01*
X162018500Y-104101748D01*
X162038185Y-104034709D01*
X162066338Y-104003895D01*
X162070481Y-104000670D01*
X162183240Y-103912906D01*
X162335722Y-103747268D01*
X162458860Y-103558791D01*
X162549296Y-103352616D01*
X162604564Y-103134368D01*
X162623156Y-102910000D01*
X162605207Y-102693395D01*
X162604565Y-102685640D01*
X162604563Y-102685628D01*
X162549296Y-102467385D01*
X162458859Y-102261207D01*
X162335723Y-102072734D01*
X162335715Y-102072723D01*
X162183243Y-101907097D01*
X162183238Y-101907092D01*
X162064797Y-101814905D01*
X162005576Y-101768811D01*
X162005575Y-101768810D01*
X162005572Y-101768808D01*
X161807580Y-101661661D01*
X161807577Y-101661659D01*
X161807574Y-101661658D01*
X161807571Y-101661657D01*
X161807569Y-101661656D01*
X161594637Y-101588556D01*
X161372569Y-101551500D01*
X161147431Y-101551500D01*
X160925362Y-101588556D01*
X160712430Y-101661656D01*
X160712419Y-101661661D01*
X160514427Y-101768808D01*
X160514422Y-101768812D01*
X160336761Y-101907092D01*
X160336756Y-101907097D01*
X160184284Y-102072723D01*
X160184276Y-102072734D01*
X160093808Y-102211206D01*
X160040662Y-102256562D01*
X159971431Y-102265986D01*
X159908095Y-102236484D01*
X159886192Y-102211206D01*
X159795723Y-102072734D01*
X159795715Y-102072723D01*
X159643243Y-101907097D01*
X159643238Y-101907092D01*
X159524797Y-101814905D01*
X159465576Y-101768811D01*
X159465575Y-101768810D01*
X159465572Y-101768808D01*
X159267580Y-101661661D01*
X159267577Y-101661659D01*
X159267574Y-101661658D01*
X159267571Y-101661657D01*
X159267569Y-101661656D01*
X159054637Y-101588556D01*
X158832569Y-101551500D01*
X158607431Y-101551500D01*
X158385362Y-101588556D01*
X158172430Y-101661656D01*
X158172419Y-101661661D01*
X157974427Y-101768808D01*
X157974422Y-101768812D01*
X157796761Y-101907092D01*
X157796756Y-101907097D01*
X157644284Y-102072723D01*
X157644276Y-102072734D01*
X157553808Y-102211206D01*
X157500662Y-102256562D01*
X157431431Y-102265986D01*
X157368095Y-102236484D01*
X157346192Y-102211206D01*
X157255723Y-102072734D01*
X157255715Y-102072723D01*
X157103243Y-101907097D01*
X157103238Y-101907092D01*
X156984797Y-101814905D01*
X156925576Y-101768811D01*
X156925575Y-101768810D01*
X156925572Y-101768808D01*
X156727580Y-101661661D01*
X156727577Y-101661659D01*
X156727574Y-101661658D01*
X156727571Y-101661657D01*
X156727569Y-101661656D01*
X156514637Y-101588556D01*
X156292569Y-101551500D01*
X156067431Y-101551500D01*
X155845362Y-101588556D01*
X155632430Y-101661656D01*
X155632419Y-101661661D01*
X155434427Y-101768808D01*
X155434422Y-101768812D01*
X155256761Y-101907092D01*
X155256756Y-101907097D01*
X155104284Y-102072723D01*
X155104276Y-102072734D01*
X155013808Y-102211206D01*
X154960662Y-102256562D01*
X154891431Y-102265986D01*
X154828095Y-102236484D01*
X154806192Y-102211206D01*
X154715723Y-102072734D01*
X154715715Y-102072723D01*
X154563243Y-101907097D01*
X154563238Y-101907092D01*
X154444797Y-101814905D01*
X154385576Y-101768811D01*
X154385575Y-101768810D01*
X154385572Y-101768808D01*
X154187580Y-101661661D01*
X154187577Y-101661659D01*
X154187574Y-101661658D01*
X154187571Y-101661657D01*
X154187569Y-101661656D01*
X153974637Y-101588556D01*
X153752569Y-101551500D01*
X153527431Y-101551500D01*
X153305362Y-101588556D01*
X153092430Y-101661656D01*
X153092419Y-101661661D01*
X152894427Y-101768808D01*
X152894422Y-101768812D01*
X152716761Y-101907092D01*
X152716756Y-101907097D01*
X152564284Y-102072723D01*
X152564276Y-102072734D01*
X152473808Y-102211206D01*
X152420662Y-102256562D01*
X152351431Y-102265986D01*
X152288095Y-102236484D01*
X152266192Y-102211206D01*
X152175723Y-102072734D01*
X152175715Y-102072723D01*
X152023243Y-101907097D01*
X152023238Y-101907092D01*
X151904797Y-101814905D01*
X151845576Y-101768811D01*
X151845575Y-101768810D01*
X151845572Y-101768808D01*
X151647580Y-101661661D01*
X151647577Y-101661659D01*
X151647574Y-101661658D01*
X151647571Y-101661657D01*
X151647569Y-101661656D01*
X151434637Y-101588556D01*
X151212569Y-101551500D01*
X150987431Y-101551500D01*
X150765362Y-101588556D01*
X150552430Y-101661656D01*
X150552419Y-101661661D01*
X150354427Y-101768808D01*
X150354422Y-101768812D01*
X150176761Y-101907092D01*
X150176756Y-101907097D01*
X150024284Y-102072723D01*
X150024276Y-102072734D01*
X149933808Y-102211206D01*
X149880662Y-102256562D01*
X149811431Y-102265986D01*
X149748095Y-102236484D01*
X149726192Y-102211206D01*
X149635723Y-102072734D01*
X149635715Y-102072723D01*
X149483243Y-101907097D01*
X149483238Y-101907092D01*
X149364797Y-101814905D01*
X149305576Y-101768811D01*
X149305575Y-101768810D01*
X149305572Y-101768808D01*
X149107580Y-101661661D01*
X149107577Y-101661659D01*
X149107574Y-101661658D01*
X149107571Y-101661657D01*
X149107569Y-101661656D01*
X148894637Y-101588556D01*
X148672569Y-101551500D01*
X148447431Y-101551500D01*
X148225362Y-101588556D01*
X148012430Y-101661656D01*
X148012419Y-101661661D01*
X147814427Y-101768808D01*
X147814422Y-101768812D01*
X147636761Y-101907092D01*
X147636756Y-101907097D01*
X147484284Y-102072723D01*
X147484276Y-102072734D01*
X147393808Y-102211206D01*
X147340662Y-102256562D01*
X147271431Y-102265986D01*
X147208095Y-102236484D01*
X147186192Y-102211206D01*
X147095723Y-102072734D01*
X147095715Y-102072723D01*
X146943243Y-101907097D01*
X146943238Y-101907092D01*
X146824797Y-101814905D01*
X146765576Y-101768811D01*
X146765575Y-101768810D01*
X146765572Y-101768808D01*
X146567580Y-101661661D01*
X146567577Y-101661659D01*
X146567574Y-101661658D01*
X146567571Y-101661657D01*
X146567569Y-101661656D01*
X146354637Y-101588556D01*
X146132569Y-101551500D01*
X145907431Y-101551500D01*
X145685362Y-101588556D01*
X145472430Y-101661656D01*
X145472419Y-101661661D01*
X145274427Y-101768808D01*
X145274422Y-101768812D01*
X145096761Y-101907092D01*
X145096756Y-101907097D01*
X144944284Y-102072723D01*
X144944276Y-102072734D01*
X144853808Y-102211206D01*
X144800662Y-102256562D01*
X144731431Y-102265986D01*
X144668095Y-102236484D01*
X144646192Y-102211206D01*
X144555723Y-102072734D01*
X144555715Y-102072723D01*
X144403243Y-101907097D01*
X144403238Y-101907092D01*
X144284797Y-101814905D01*
X144225576Y-101768811D01*
X144225575Y-101768810D01*
X144225572Y-101768808D01*
X144027580Y-101661661D01*
X144027577Y-101661659D01*
X144027574Y-101661658D01*
X144027571Y-101661657D01*
X144027569Y-101661656D01*
X143814637Y-101588556D01*
X143592569Y-101551500D01*
X143367431Y-101551500D01*
X143145362Y-101588556D01*
X142932430Y-101661656D01*
X142932419Y-101661661D01*
X142734427Y-101768808D01*
X142734422Y-101768812D01*
X142556761Y-101907092D01*
X142556756Y-101907097D01*
X142404284Y-102072723D01*
X142404276Y-102072734D01*
X142313808Y-102211206D01*
X142260662Y-102256562D01*
X142191431Y-102265986D01*
X142128095Y-102236484D01*
X142106192Y-102211206D01*
X142015723Y-102072734D01*
X142015715Y-102072723D01*
X141863243Y-101907097D01*
X141863238Y-101907092D01*
X141744797Y-101814905D01*
X141685576Y-101768811D01*
X141685575Y-101768810D01*
X141685572Y-101768808D01*
X141487580Y-101661661D01*
X141487577Y-101661659D01*
X141487574Y-101661658D01*
X141487571Y-101661657D01*
X141487569Y-101661656D01*
X141274637Y-101588556D01*
X141052569Y-101551500D01*
X140827431Y-101551500D01*
X140605362Y-101588556D01*
X140392430Y-101661656D01*
X140392419Y-101661661D01*
X140194427Y-101768808D01*
X140194422Y-101768812D01*
X140016761Y-101907092D01*
X140016756Y-101907097D01*
X139864284Y-102072723D01*
X139864276Y-102072734D01*
X139773808Y-102211206D01*
X139720662Y-102256562D01*
X139651431Y-102265986D01*
X139588095Y-102236484D01*
X139566192Y-102211206D01*
X139475723Y-102072734D01*
X139475715Y-102072723D01*
X139323243Y-101907097D01*
X139323238Y-101907092D01*
X139204797Y-101814905D01*
X139145576Y-101768811D01*
X139145575Y-101768810D01*
X139145572Y-101768808D01*
X138947580Y-101661661D01*
X138947577Y-101661659D01*
X138947574Y-101661658D01*
X138947571Y-101661657D01*
X138947569Y-101661656D01*
X138734637Y-101588556D01*
X138512569Y-101551500D01*
X138287431Y-101551500D01*
X138065362Y-101588556D01*
X137852430Y-101661656D01*
X137852419Y-101661661D01*
X137654427Y-101768808D01*
X137654422Y-101768812D01*
X137476761Y-101907092D01*
X137476756Y-101907097D01*
X137324284Y-102072723D01*
X137324276Y-102072734D01*
X137233808Y-102211206D01*
X137180662Y-102256562D01*
X137111431Y-102265986D01*
X137048095Y-102236484D01*
X137026192Y-102211206D01*
X136935723Y-102072734D01*
X136935715Y-102072723D01*
X136783243Y-101907097D01*
X136783238Y-101907092D01*
X136664797Y-101814905D01*
X136605576Y-101768811D01*
X136605575Y-101768810D01*
X136605572Y-101768808D01*
X136407580Y-101661661D01*
X136407577Y-101661659D01*
X136407574Y-101661658D01*
X136407571Y-101661657D01*
X136407569Y-101661656D01*
X136194637Y-101588556D01*
X135972569Y-101551500D01*
X135747431Y-101551500D01*
X135525362Y-101588556D01*
X135312430Y-101661656D01*
X135312419Y-101661661D01*
X135114427Y-101768808D01*
X135114422Y-101768812D01*
X134936761Y-101907092D01*
X134936756Y-101907097D01*
X134784284Y-102072723D01*
X134784276Y-102072734D01*
X134693808Y-102211206D01*
X134640662Y-102256562D01*
X134571431Y-102265986D01*
X134508095Y-102236484D01*
X134486192Y-102211206D01*
X134395723Y-102072734D01*
X134395715Y-102072723D01*
X134243243Y-101907097D01*
X134243238Y-101907092D01*
X134124797Y-101814905D01*
X134065576Y-101768811D01*
X134065575Y-101768810D01*
X134065572Y-101768808D01*
X133867580Y-101661661D01*
X133867577Y-101661659D01*
X133867574Y-101661658D01*
X133867571Y-101661657D01*
X133867569Y-101661656D01*
X133654637Y-101588556D01*
X133432569Y-101551500D01*
X133207431Y-101551500D01*
X132985362Y-101588556D01*
X132772430Y-101661656D01*
X132772419Y-101661661D01*
X132574427Y-101768808D01*
X132574422Y-101768812D01*
X132396761Y-101907092D01*
X132396756Y-101907097D01*
X132244284Y-102072723D01*
X132244276Y-102072734D01*
X132153808Y-102211206D01*
X132100662Y-102256562D01*
X132031431Y-102265986D01*
X131968095Y-102236484D01*
X131946192Y-102211206D01*
X131855723Y-102072734D01*
X131855715Y-102072723D01*
X131703243Y-101907097D01*
X131703238Y-101907092D01*
X131584797Y-101814905D01*
X131525576Y-101768811D01*
X131525575Y-101768810D01*
X131525572Y-101768808D01*
X131327580Y-101661661D01*
X131327577Y-101661659D01*
X131327574Y-101661658D01*
X131327571Y-101661657D01*
X131327569Y-101661656D01*
X131114637Y-101588556D01*
X130892569Y-101551500D01*
X130667431Y-101551500D01*
X130445362Y-101588556D01*
X130232430Y-101661656D01*
X130232419Y-101661661D01*
X130034427Y-101768808D01*
X130034422Y-101768812D01*
X129856761Y-101907092D01*
X129856756Y-101907097D01*
X129704284Y-102072723D01*
X129704276Y-102072734D01*
X129613808Y-102211206D01*
X129560662Y-102256562D01*
X129491431Y-102265986D01*
X129428095Y-102236484D01*
X129406192Y-102211206D01*
X129315723Y-102072734D01*
X129315715Y-102072723D01*
X129163243Y-101907097D01*
X129163238Y-101907092D01*
X129044797Y-101814905D01*
X128985576Y-101768811D01*
X128985575Y-101768810D01*
X128985572Y-101768808D01*
X128787580Y-101661661D01*
X128787577Y-101661659D01*
X128787574Y-101661658D01*
X128787571Y-101661657D01*
X128787569Y-101661656D01*
X128574637Y-101588556D01*
X128352569Y-101551500D01*
X128127431Y-101551500D01*
X127905362Y-101588556D01*
X127692430Y-101661656D01*
X127692419Y-101661661D01*
X127494427Y-101768808D01*
X127494422Y-101768812D01*
X127316761Y-101907092D01*
X127316756Y-101907097D01*
X127164284Y-102072723D01*
X127164276Y-102072734D01*
X127073808Y-102211206D01*
X127020662Y-102256562D01*
X126951431Y-102265986D01*
X126888095Y-102236484D01*
X126866192Y-102211206D01*
X126775723Y-102072734D01*
X126775715Y-102072723D01*
X126623243Y-101907097D01*
X126623238Y-101907092D01*
X126504797Y-101814905D01*
X126445576Y-101768811D01*
X126445575Y-101768810D01*
X126445572Y-101768808D01*
X126247580Y-101661661D01*
X126247577Y-101661659D01*
X126247574Y-101661658D01*
X126247571Y-101661657D01*
X126247569Y-101661656D01*
X126034637Y-101588556D01*
X125812569Y-101551500D01*
X125587431Y-101551500D01*
X125365362Y-101588556D01*
X125152430Y-101661656D01*
X125152419Y-101661661D01*
X124954427Y-101768808D01*
X124954422Y-101768812D01*
X124776761Y-101907092D01*
X124776756Y-101907097D01*
X124624284Y-102072723D01*
X124624276Y-102072734D01*
X124533808Y-102211206D01*
X124480662Y-102256562D01*
X124411431Y-102265986D01*
X124348095Y-102236484D01*
X124326192Y-102211206D01*
X124235723Y-102072734D01*
X124235715Y-102072723D01*
X124083243Y-101907097D01*
X124083238Y-101907092D01*
X123964797Y-101814905D01*
X123905576Y-101768811D01*
X123905575Y-101768810D01*
X123905572Y-101768808D01*
X123707580Y-101661661D01*
X123707577Y-101661659D01*
X123707574Y-101661658D01*
X123707571Y-101661657D01*
X123707569Y-101661656D01*
X123494637Y-101588556D01*
X123272569Y-101551500D01*
X123047431Y-101551500D01*
X122825362Y-101588556D01*
X122612430Y-101661656D01*
X122612419Y-101661661D01*
X122414427Y-101768808D01*
X122414422Y-101768812D01*
X122236761Y-101907092D01*
X122236756Y-101907097D01*
X122084284Y-102072723D01*
X122084276Y-102072734D01*
X121993808Y-102211206D01*
X121940662Y-102256562D01*
X121871431Y-102265986D01*
X121808095Y-102236484D01*
X121786192Y-102211206D01*
X121695723Y-102072734D01*
X121695715Y-102072723D01*
X121543243Y-101907097D01*
X121543238Y-101907092D01*
X121424797Y-101814905D01*
X121365576Y-101768811D01*
X121365575Y-101768810D01*
X121365572Y-101768808D01*
X121167580Y-101661661D01*
X121167577Y-101661659D01*
X121167574Y-101661658D01*
X121167571Y-101661657D01*
X121167569Y-101661656D01*
X120954637Y-101588556D01*
X120732569Y-101551500D01*
X120507431Y-101551500D01*
X120285362Y-101588556D01*
X120072430Y-101661656D01*
X120072419Y-101661661D01*
X119874427Y-101768808D01*
X119874422Y-101768812D01*
X119696761Y-101907092D01*
X119696756Y-101907097D01*
X119544284Y-102072723D01*
X119544276Y-102072734D01*
X119453808Y-102211206D01*
X119400662Y-102256562D01*
X119331431Y-102265986D01*
X119268095Y-102236484D01*
X119246192Y-102211206D01*
X119155723Y-102072734D01*
X119155715Y-102072723D01*
X119003243Y-101907097D01*
X119003238Y-101907092D01*
X118884797Y-101814905D01*
X118825576Y-101768811D01*
X118825575Y-101768810D01*
X118825572Y-101768808D01*
X118627580Y-101661661D01*
X118627577Y-101661659D01*
X118627574Y-101661658D01*
X118627571Y-101661657D01*
X118627569Y-101661656D01*
X118414637Y-101588556D01*
X118192569Y-101551500D01*
X117967431Y-101551500D01*
X117745362Y-101588556D01*
X117532430Y-101661656D01*
X117532419Y-101661661D01*
X117334427Y-101768808D01*
X117334422Y-101768812D01*
X117156761Y-101907092D01*
X117156756Y-101907097D01*
X117004284Y-102072723D01*
X117004276Y-102072734D01*
X116913808Y-102211206D01*
X116860662Y-102256562D01*
X116791431Y-102265986D01*
X116728095Y-102236484D01*
X116706192Y-102211206D01*
X116615723Y-102072734D01*
X116615715Y-102072723D01*
X116463243Y-101907097D01*
X116463238Y-101907092D01*
X116344797Y-101814905D01*
X116285576Y-101768811D01*
X116285575Y-101768810D01*
X116285572Y-101768808D01*
X116087580Y-101661661D01*
X116087577Y-101661659D01*
X116087574Y-101661658D01*
X116087571Y-101661657D01*
X116087569Y-101661656D01*
X115874637Y-101588556D01*
X115652569Y-101551500D01*
X115427431Y-101551500D01*
X115205362Y-101588556D01*
X114992430Y-101661656D01*
X114992419Y-101661661D01*
X114794427Y-101768808D01*
X114794422Y-101768812D01*
X114616761Y-101907092D01*
X114616756Y-101907097D01*
X114464284Y-102072723D01*
X114464276Y-102072734D01*
X114373808Y-102211206D01*
X114320662Y-102256562D01*
X114251431Y-102265986D01*
X114188095Y-102236484D01*
X114166192Y-102211206D01*
X114075723Y-102072734D01*
X114075715Y-102072723D01*
X113923243Y-101907097D01*
X113923238Y-101907092D01*
X113804797Y-101814905D01*
X113745576Y-101768811D01*
X113745575Y-101768810D01*
X113745572Y-101768808D01*
X113547580Y-101661661D01*
X113547577Y-101661659D01*
X113547574Y-101661658D01*
X113547571Y-101661657D01*
X113547569Y-101661656D01*
X113334637Y-101588556D01*
X113112569Y-101551500D01*
X112887431Y-101551500D01*
X112665362Y-101588556D01*
X112452430Y-101661656D01*
X112452419Y-101661661D01*
X112254427Y-101768808D01*
X112254422Y-101768812D01*
X112076761Y-101907092D01*
X112076756Y-101907097D01*
X111924284Y-102072723D01*
X111924276Y-102072734D01*
X111801140Y-102261207D01*
X111710703Y-102467385D01*
X111655436Y-102685628D01*
X111655434Y-102685640D01*
X111636844Y-102909994D01*
X111636844Y-102910005D01*
X111655434Y-103134359D01*
X111655436Y-103134371D01*
X111710703Y-103352614D01*
X111801140Y-103558792D01*
X111924276Y-103747265D01*
X111924284Y-103747276D01*
X112076756Y-103912902D01*
X112076766Y-103912911D01*
X112193662Y-104003895D01*
X112234475Y-104060605D01*
X112241500Y-104101748D01*
X112241500Y-104258250D01*
X112221815Y-104325289D01*
X112193663Y-104356103D01*
X112076761Y-104447092D01*
X112076756Y-104447097D01*
X111924284Y-104612723D01*
X111924276Y-104612734D01*
X111801140Y-104801207D01*
X111710703Y-105007385D01*
X111655436Y-105225628D01*
X111655434Y-105225640D01*
X111636844Y-105449994D01*
X111636844Y-105450005D01*
X111655434Y-105674359D01*
X111655436Y-105674371D01*
X111710703Y-105892614D01*
X111801140Y-106098792D01*
X111924276Y-106287265D01*
X111924284Y-106287276D01*
X112076756Y-106452902D01*
X112076766Y-106452911D01*
X112193662Y-106543895D01*
X112234475Y-106600605D01*
X112241500Y-106641748D01*
X112241500Y-106798250D01*
X112221815Y-106865289D01*
X112193663Y-106896103D01*
X112076761Y-106987092D01*
X112076756Y-106987097D01*
X111924284Y-107152723D01*
X111924276Y-107152734D01*
X111801140Y-107341207D01*
X111710703Y-107547385D01*
X111655436Y-107765628D01*
X111655434Y-107765640D01*
X111636844Y-107989994D01*
X111636844Y-107990005D01*
X111655434Y-108214359D01*
X111655436Y-108214371D01*
X111710703Y-108432614D01*
X111801140Y-108638792D01*
X111924276Y-108827265D01*
X111924284Y-108827276D01*
X112076756Y-108992902D01*
X112076760Y-108992906D01*
X112254424Y-109131189D01*
X112254429Y-109131191D01*
X112254431Y-109131193D01*
X112290930Y-109150946D01*
X112340520Y-109200165D01*
X112355628Y-109268382D01*
X112331457Y-109333937D01*
X112290930Y-109369054D01*
X112254431Y-109388806D01*
X112254422Y-109388812D01*
X112076761Y-109527092D01*
X112076756Y-109527097D01*
X111924284Y-109692723D01*
X111924276Y-109692734D01*
X111801140Y-109881207D01*
X111710703Y-110087385D01*
X111655436Y-110305628D01*
X111655434Y-110305640D01*
X111636844Y-110529994D01*
X111636844Y-110530005D01*
X111655434Y-110754359D01*
X111655436Y-110754371D01*
X111710703Y-110972614D01*
X111801140Y-111178792D01*
X111924276Y-111367265D01*
X111924284Y-111367276D01*
X112076756Y-111532902D01*
X112076766Y-111532911D01*
X112193662Y-111623895D01*
X112234475Y-111680605D01*
X112241500Y-111721748D01*
X112241500Y-111878250D01*
X112221815Y-111945289D01*
X112193663Y-111976103D01*
X112076761Y-112067092D01*
X112076756Y-112067097D01*
X111924284Y-112232723D01*
X111924276Y-112232734D01*
X111801140Y-112421207D01*
X111710703Y-112627385D01*
X111655436Y-112845628D01*
X111655434Y-112845640D01*
X111636844Y-113069994D01*
X111636844Y-113070005D01*
X111655434Y-113294359D01*
X111655436Y-113294371D01*
X111710703Y-113512614D01*
X111801140Y-113718792D01*
X111924276Y-113907265D01*
X111924284Y-113907276D01*
X112076756Y-114072902D01*
X112076760Y-114072906D01*
X112254424Y-114211189D01*
X112254429Y-114211191D01*
X112254431Y-114211193D01*
X112290930Y-114230946D01*
X112340520Y-114280165D01*
X112355628Y-114348382D01*
X112331457Y-114413937D01*
X112290930Y-114449054D01*
X112254431Y-114468806D01*
X112254422Y-114468812D01*
X112076761Y-114607092D01*
X112076756Y-114607097D01*
X111924284Y-114772723D01*
X111924276Y-114772734D01*
X111801140Y-114961207D01*
X111710703Y-115167385D01*
X111655436Y-115385628D01*
X111655434Y-115385640D01*
X111636844Y-115609994D01*
X111636844Y-115610005D01*
X111655434Y-115834359D01*
X111655436Y-115834371D01*
X111710703Y-116052614D01*
X111801140Y-116258792D01*
X111924276Y-116447265D01*
X111924284Y-116447276D01*
X112076756Y-116612902D01*
X112076760Y-116612906D01*
X112254424Y-116751189D01*
X112254429Y-116751191D01*
X112254431Y-116751193D01*
X112290930Y-116770946D01*
X112340520Y-116820165D01*
X112355628Y-116888382D01*
X112331457Y-116953937D01*
X112290930Y-116989054D01*
X112254431Y-117008806D01*
X112254422Y-117008812D01*
X112076761Y-117147092D01*
X112076756Y-117147097D01*
X111924284Y-117312723D01*
X111924276Y-117312734D01*
X111801140Y-117501207D01*
X111710703Y-117707385D01*
X111655436Y-117925628D01*
X111655434Y-117925640D01*
X111636844Y-118149994D01*
X111636844Y-118150005D01*
X111655434Y-118374359D01*
X111655436Y-118374371D01*
X111710703Y-118592614D01*
X111801140Y-118798792D01*
X111924276Y-118987265D01*
X111924284Y-118987276D01*
X112065975Y-119141191D01*
X112076760Y-119152906D01*
X112254424Y-119291189D01*
X112254429Y-119291191D01*
X112254431Y-119291193D01*
X112290930Y-119310946D01*
X112340520Y-119360165D01*
X112355628Y-119428382D01*
X112331457Y-119493937D01*
X112290930Y-119529054D01*
X112254431Y-119548806D01*
X112254422Y-119548812D01*
X112076761Y-119687092D01*
X112076756Y-119687097D01*
X111924284Y-119852723D01*
X111924276Y-119852734D01*
X111801140Y-120041207D01*
X111710703Y-120247385D01*
X111655436Y-120465628D01*
X111655434Y-120465640D01*
X111636844Y-120689994D01*
X111636844Y-120690005D01*
X111655434Y-120914359D01*
X111655436Y-120914371D01*
X111710703Y-121132614D01*
X111801140Y-121338792D01*
X111924276Y-121527265D01*
X111924284Y-121527276D01*
X112076756Y-121692902D01*
X112076766Y-121692911D01*
X112193662Y-121783895D01*
X112234475Y-121840605D01*
X112241500Y-121881748D01*
X112241500Y-122038250D01*
X112221815Y-122105289D01*
X112193663Y-122136103D01*
X112076761Y-122227092D01*
X112076756Y-122227097D01*
X111924284Y-122392723D01*
X111924276Y-122392734D01*
X111801140Y-122581207D01*
X111710703Y-122787385D01*
X111655436Y-123005628D01*
X111655434Y-123005640D01*
X111636844Y-123229994D01*
X111636844Y-123230005D01*
X111655434Y-123454359D01*
X111655436Y-123454371D01*
X111710703Y-123672614D01*
X111801140Y-123878792D01*
X111924276Y-124067265D01*
X111924284Y-124067276D01*
X112076756Y-124232902D01*
X112076766Y-124232911D01*
X112193662Y-124323895D01*
X112234475Y-124380605D01*
X112241500Y-124421748D01*
X112241500Y-124578250D01*
X112221815Y-124645289D01*
X112193663Y-124676103D01*
X112076761Y-124767092D01*
X112076756Y-124767097D01*
X111924284Y-124932723D01*
X111924276Y-124932734D01*
X111801140Y-125121207D01*
X111710703Y-125327385D01*
X111655436Y-125545628D01*
X111655434Y-125545640D01*
X111636844Y-125769994D01*
X111636844Y-125770005D01*
X111655434Y-125994359D01*
X111655436Y-125994371D01*
X111710703Y-126212614D01*
X111801140Y-126418792D01*
X111924276Y-126607265D01*
X111924284Y-126607276D01*
X112076756Y-126772902D01*
X112076766Y-126772911D01*
X112193662Y-126863895D01*
X112234475Y-126920605D01*
X112241500Y-126961748D01*
X112241500Y-127118250D01*
X112221815Y-127185289D01*
X112193663Y-127216103D01*
X112076761Y-127307092D01*
X112076756Y-127307097D01*
X111924284Y-127472723D01*
X111924276Y-127472734D01*
X111801140Y-127661207D01*
X111710703Y-127867385D01*
X111655436Y-128085628D01*
X111655434Y-128085640D01*
X111636844Y-128309994D01*
X111636844Y-128310005D01*
X111655434Y-128534359D01*
X111655436Y-128534371D01*
X111710703Y-128752614D01*
X111801140Y-128958792D01*
X111924276Y-129147265D01*
X111924284Y-129147276D01*
X112076756Y-129312902D01*
X112076766Y-129312911D01*
X112193662Y-129403895D01*
X112234475Y-129460605D01*
X112241500Y-129501748D01*
X112241500Y-129658250D01*
X112221815Y-129725289D01*
X112193663Y-129756103D01*
X112076761Y-129847092D01*
X112076756Y-129847097D01*
X111924284Y-130012723D01*
X111924276Y-130012734D01*
X111801140Y-130201207D01*
X111710703Y-130407385D01*
X111655436Y-130625628D01*
X111655434Y-130625640D01*
X111636844Y-130849994D01*
X111636844Y-130850005D01*
X111655434Y-131074359D01*
X111655436Y-131074371D01*
X111710703Y-131292614D01*
X111801140Y-131498792D01*
X111924276Y-131687265D01*
X111924284Y-131687276D01*
X112076756Y-131852902D01*
X112076766Y-131852911D01*
X112193662Y-131943895D01*
X112234475Y-132000605D01*
X112241500Y-132041748D01*
X112241500Y-132198250D01*
X112221815Y-132265289D01*
X112193663Y-132296103D01*
X112076761Y-132387092D01*
X112076756Y-132387097D01*
X111924284Y-132552723D01*
X111924276Y-132552734D01*
X111801140Y-132741207D01*
X111710703Y-132947385D01*
X111655436Y-133165628D01*
X111655434Y-133165640D01*
X111636844Y-133389994D01*
X111636844Y-133390005D01*
X111655434Y-133614359D01*
X111655436Y-133614371D01*
X111710703Y-133832614D01*
X111801140Y-134038792D01*
X111924276Y-134227265D01*
X111924284Y-134227276D01*
X112076756Y-134392902D01*
X112076766Y-134392911D01*
X112193662Y-134483895D01*
X112234475Y-134540605D01*
X112241500Y-134581748D01*
X112241500Y-134738250D01*
X112221815Y-134805289D01*
X112193663Y-134836103D01*
X112076761Y-134927092D01*
X112076756Y-134927097D01*
X111924284Y-135092723D01*
X111924276Y-135092734D01*
X111801140Y-135281207D01*
X111710703Y-135487385D01*
X111655436Y-135705628D01*
X111655434Y-135705640D01*
X111636844Y-135929994D01*
X111636844Y-135930005D01*
X111655434Y-136154359D01*
X111655436Y-136154371D01*
X111710703Y-136372614D01*
X111801140Y-136578792D01*
X111924276Y-136767265D01*
X111924284Y-136767276D01*
X112076756Y-136932902D01*
X112076761Y-136932907D01*
X112089235Y-136942616D01*
X112254424Y-137071189D01*
X112254429Y-137071191D01*
X112254431Y-137071193D01*
X112290930Y-137090946D01*
X112340520Y-137140165D01*
X112355628Y-137208382D01*
X112331457Y-137273937D01*
X112290930Y-137309054D01*
X112254431Y-137328806D01*
X112254422Y-137328812D01*
X112076761Y-137467092D01*
X112076756Y-137467097D01*
X111924284Y-137632723D01*
X111924276Y-137632734D01*
X111801140Y-137821207D01*
X111710703Y-138027385D01*
X111655436Y-138245628D01*
X111655434Y-138245640D01*
X111636844Y-138469994D01*
X111636844Y-138470005D01*
X111655434Y-138694359D01*
X111655436Y-138694371D01*
X111710703Y-138912614D01*
X111801140Y-139118792D01*
X111924276Y-139307265D01*
X111924284Y-139307276D01*
X112076756Y-139472902D01*
X112076760Y-139472906D01*
X112254424Y-139611189D01*
X112254429Y-139611191D01*
X112254431Y-139611193D01*
X112290930Y-139630946D01*
X112340520Y-139680165D01*
X112355628Y-139748382D01*
X112331457Y-139813937D01*
X112290930Y-139849054D01*
X112254431Y-139868806D01*
X112254422Y-139868812D01*
X112076761Y-140007092D01*
X112076756Y-140007097D01*
X111924284Y-140172723D01*
X111924276Y-140172734D01*
X111801140Y-140361207D01*
X111710703Y-140567385D01*
X111655436Y-140785628D01*
X111655434Y-140785640D01*
X111636844Y-141009994D01*
X111636844Y-141010005D01*
X111655434Y-141234359D01*
X111655436Y-141234371D01*
X111710703Y-141452614D01*
X111801140Y-141658792D01*
X111924276Y-141847265D01*
X111924284Y-141847276D01*
X112076756Y-142012902D01*
X112076761Y-142012907D01*
X112135981Y-142059000D01*
X112254424Y-142151189D01*
X112254429Y-142151191D01*
X112254431Y-142151193D01*
X112290930Y-142170946D01*
X112340520Y-142220165D01*
X112355628Y-142288382D01*
X112331457Y-142353937D01*
X112290930Y-142389054D01*
X112254431Y-142408806D01*
X112254422Y-142408812D01*
X112076761Y-142547092D01*
X112076756Y-142547097D01*
X111924284Y-142712723D01*
X111924276Y-142712734D01*
X111801140Y-142901207D01*
X111710703Y-143107385D01*
X111655436Y-143325628D01*
X111655434Y-143325640D01*
X111636844Y-143549994D01*
X111636844Y-143550005D01*
X111655434Y-143774359D01*
X111655436Y-143774371D01*
X111710703Y-143992614D01*
X111801140Y-144198792D01*
X111924276Y-144387265D01*
X111924284Y-144387276D01*
X112076756Y-144552902D01*
X112076766Y-144552911D01*
X112193662Y-144643895D01*
X112234475Y-144700605D01*
X112241500Y-144741748D01*
X112241500Y-144898250D01*
X112221815Y-144965289D01*
X112193663Y-144996103D01*
X112076761Y-145087092D01*
X112076756Y-145087097D01*
X111924284Y-145252723D01*
X111924276Y-145252734D01*
X111801140Y-145441207D01*
X111710703Y-145647385D01*
X111655436Y-145865628D01*
X111655434Y-145865640D01*
X111636844Y-146089994D01*
X111636844Y-146090005D01*
X111655434Y-146314359D01*
X111655436Y-146314371D01*
X111710703Y-146532614D01*
X111801140Y-146738792D01*
X111924276Y-146927265D01*
X111924284Y-146927276D01*
X112076756Y-147092902D01*
X112076760Y-147092906D01*
X112254424Y-147231189D01*
X112254429Y-147231191D01*
X112254431Y-147231193D01*
X112290930Y-147250946D01*
X112340520Y-147300165D01*
X112355628Y-147368382D01*
X112331457Y-147433937D01*
X112290930Y-147469054D01*
X112254431Y-147488806D01*
X112254422Y-147488812D01*
X112076761Y-147627092D01*
X112076756Y-147627097D01*
X111924284Y-147792723D01*
X111924276Y-147792734D01*
X111801140Y-147981207D01*
X111710703Y-148187385D01*
X111655436Y-148405628D01*
X111655434Y-148405640D01*
X111636844Y-148629994D01*
X111636844Y-148630005D01*
X111655434Y-148854359D01*
X111655436Y-148854371D01*
X111710703Y-149072614D01*
X111801140Y-149278792D01*
X111924276Y-149467265D01*
X111924284Y-149467276D01*
X112076756Y-149632902D01*
X112076760Y-149632906D01*
X112254424Y-149771189D01*
X112254429Y-149771191D01*
X112254431Y-149771193D01*
X112290930Y-149790946D01*
X112340520Y-149840165D01*
X112355628Y-149908382D01*
X112331457Y-149973937D01*
X112290930Y-150009054D01*
X112254431Y-150028806D01*
X112254422Y-150028812D01*
X112076761Y-150167092D01*
X112076756Y-150167097D01*
X111924284Y-150332723D01*
X111924276Y-150332734D01*
X111801140Y-150521207D01*
X111710703Y-150727385D01*
X111655436Y-150945628D01*
X111655434Y-150945640D01*
X111636844Y-151169994D01*
X111636844Y-151170005D01*
X111655434Y-151394359D01*
X111655436Y-151394371D01*
X111710703Y-151612614D01*
X111801140Y-151818792D01*
X111924276Y-152007265D01*
X111924284Y-152007276D01*
X112076756Y-152172902D01*
X112076760Y-152172906D01*
X112254424Y-152311189D01*
X112254429Y-152311191D01*
X112254431Y-152311193D01*
X112290930Y-152330946D01*
X112340520Y-152380165D01*
X112355628Y-152448382D01*
X112331457Y-152513937D01*
X112290930Y-152549054D01*
X112254431Y-152568806D01*
X112254422Y-152568812D01*
X112076761Y-152707092D01*
X112076756Y-152707097D01*
X111924284Y-152872723D01*
X111924276Y-152872734D01*
X111801140Y-153061207D01*
X111710703Y-153267385D01*
X111655436Y-153485628D01*
X111655434Y-153485640D01*
X111636844Y-153709994D01*
X111636844Y-153710005D01*
X111655434Y-153934359D01*
X111655436Y-153934371D01*
X111710703Y-154152614D01*
X111801140Y-154358792D01*
X111924276Y-154547265D01*
X111924284Y-154547276D01*
X112076756Y-154712902D01*
X112076766Y-154712911D01*
X112193662Y-154803895D01*
X112234475Y-154860605D01*
X112241500Y-154901748D01*
X112241500Y-155058250D01*
X112221815Y-155125289D01*
X112193663Y-155156103D01*
X112076761Y-155247092D01*
X112076756Y-155247097D01*
X111924284Y-155412723D01*
X111924276Y-155412734D01*
X111801140Y-155601207D01*
X111710703Y-155807385D01*
X111655436Y-156025628D01*
X111655434Y-156025640D01*
X111636844Y-156249994D01*
X111636844Y-156250005D01*
X109871755Y-156250005D01*
X109806675Y-155894877D01*
X109661679Y-155306605D01*
X109481429Y-154728161D01*
X109266582Y-154161656D01*
X109017922Y-153609157D01*
X108736357Y-153072679D01*
X108422914Y-152554180D01*
X108422903Y-152554164D01*
X108078737Y-152055554D01*
X107705086Y-151578623D01*
X107705085Y-151578622D01*
X107303318Y-151125121D01*
X107303284Y-151125085D01*
X106874914Y-150696715D01*
X106874878Y-150696681D01*
X106421377Y-150294914D01*
X106421376Y-150294913D01*
X105944445Y-149921262D01*
X105445835Y-149577096D01*
X105445827Y-149577091D01*
X105445820Y-149577086D01*
X105258769Y-149464010D01*
X104927330Y-149263648D01*
X104927324Y-149263645D01*
X104927321Y-149263643D01*
X104390843Y-148982078D01*
X104390841Y-148982077D01*
X104390837Y-148982075D01*
X103838333Y-148733413D01*
X103271831Y-148518568D01*
X102693410Y-148338325D01*
X102693394Y-148338320D01*
X102105128Y-148193326D01*
X102105123Y-148193325D01*
X101509170Y-148084112D01*
X101509162Y-148084111D01*
X100907711Y-148011081D01*
X100302947Y-147974500D01*
X100302939Y-147974500D01*
X100149500Y-147974500D01*
X100082461Y-147954815D01*
X100036706Y-147902011D01*
X100025500Y-147850500D01*
X100025500Y-129131187D01*
X103249500Y-129131187D01*
X103269794Y-129265823D01*
X103288604Y-129390615D01*
X103288605Y-129390617D01*
X103288606Y-129390623D01*
X103365938Y-129641326D01*
X103479767Y-129877696D01*
X103479768Y-129877697D01*
X103479770Y-129877700D01*
X103479772Y-129877704D01*
X103627567Y-130094479D01*
X103806014Y-130286801D01*
X103806018Y-130286804D01*
X103806019Y-130286805D01*
X104011143Y-130450386D01*
X104238357Y-130581568D01*
X104482584Y-130677420D01*
X104738370Y-130735802D01*
X104738376Y-130735802D01*
X104738379Y-130735803D01*
X104934484Y-130750499D01*
X104934503Y-130750499D01*
X104934506Y-130750500D01*
X104934508Y-130750500D01*
X105065492Y-130750500D01*
X105065494Y-130750500D01*
X105065496Y-130750499D01*
X105065515Y-130750499D01*
X105261620Y-130735803D01*
X105261622Y-130735802D01*
X105261630Y-130735802D01*
X105517416Y-130677420D01*
X105761643Y-130581568D01*
X105988857Y-130450386D01*
X106193981Y-130286805D01*
X106372433Y-130094479D01*
X106520228Y-129877704D01*
X106634063Y-129641323D01*
X106711396Y-129390615D01*
X106750500Y-129131182D01*
X106750500Y-128868818D01*
X106711396Y-128609385D01*
X106634063Y-128358677D01*
X106610621Y-128309999D01*
X106520232Y-128122303D01*
X106520231Y-128122302D01*
X106520230Y-128122301D01*
X106520228Y-128122296D01*
X106372433Y-127905521D01*
X106337047Y-127867384D01*
X106193985Y-127713198D01*
X106134783Y-127665986D01*
X105988857Y-127549614D01*
X105761643Y-127418432D01*
X105517416Y-127322580D01*
X105517411Y-127322578D01*
X105517402Y-127322576D01*
X105299818Y-127272914D01*
X105261630Y-127264198D01*
X105261629Y-127264197D01*
X105261625Y-127264197D01*
X105261620Y-127264196D01*
X105065515Y-127249500D01*
X105065494Y-127249500D01*
X104934506Y-127249500D01*
X104934484Y-127249500D01*
X104738379Y-127264196D01*
X104738374Y-127264197D01*
X104482597Y-127322576D01*
X104482578Y-127322582D01*
X104238356Y-127418432D01*
X104011143Y-127549614D01*
X103806014Y-127713198D01*
X103627567Y-127905520D01*
X103479768Y-128122302D01*
X103479767Y-128122303D01*
X103365938Y-128358673D01*
X103288606Y-128609376D01*
X103288605Y-128609381D01*
X103288604Y-128609385D01*
X103273853Y-128707247D01*
X103249500Y-128868812D01*
X103249500Y-129131187D01*
X100025500Y-129131187D01*
X100025500Y-114631187D01*
X103749500Y-114631187D01*
X103763544Y-114724359D01*
X103788604Y-114890615D01*
X103788605Y-114890617D01*
X103788606Y-114890623D01*
X103865938Y-115141326D01*
X103979767Y-115377696D01*
X103979768Y-115377697D01*
X103979770Y-115377700D01*
X103979772Y-115377704D01*
X104065134Y-115502907D01*
X104127567Y-115594479D01*
X104306014Y-115786801D01*
X104306018Y-115786804D01*
X104306019Y-115786805D01*
X104511143Y-115950386D01*
X104738357Y-116081568D01*
X104982584Y-116177420D01*
X105238370Y-116235802D01*
X105238376Y-116235802D01*
X105238379Y-116235803D01*
X105434484Y-116250499D01*
X105434503Y-116250499D01*
X105434506Y-116250500D01*
X105434508Y-116250500D01*
X105565492Y-116250500D01*
X105565494Y-116250500D01*
X105565496Y-116250499D01*
X105565515Y-116250499D01*
X105761620Y-116235803D01*
X105761622Y-116235802D01*
X105761630Y-116235802D01*
X106017416Y-116177420D01*
X106261643Y-116081568D01*
X106488857Y-115950386D01*
X106693981Y-115786805D01*
X106872433Y-115594479D01*
X107020228Y-115377704D01*
X107134063Y-115141323D01*
X107211396Y-114890615D01*
X107250500Y-114631182D01*
X107250500Y-114368818D01*
X107211396Y-114109385D01*
X107134063Y-113858677D01*
X107090777Y-113768793D01*
X107020232Y-113622303D01*
X107020231Y-113622302D01*
X107020230Y-113622301D01*
X107020228Y-113622296D01*
X106872433Y-113405521D01*
X106862441Y-113394753D01*
X106693985Y-113213198D01*
X106627897Y-113160495D01*
X106488857Y-113049614D01*
X106261643Y-112918432D01*
X106017416Y-112822580D01*
X106017411Y-112822578D01*
X106017402Y-112822576D01*
X105769424Y-112765977D01*
X105761630Y-112764198D01*
X105761629Y-112764197D01*
X105761625Y-112764197D01*
X105761620Y-112764196D01*
X105565515Y-112749500D01*
X105565494Y-112749500D01*
X105434506Y-112749500D01*
X105434484Y-112749500D01*
X105238379Y-112764196D01*
X105238374Y-112764197D01*
X104982597Y-112822576D01*
X104982578Y-112822582D01*
X104738356Y-112918432D01*
X104511143Y-113049614D01*
X104306014Y-113213198D01*
X104127567Y-113405520D01*
X103979768Y-113622302D01*
X103979767Y-113622303D01*
X103865938Y-113858673D01*
X103788606Y-114109376D01*
X103788605Y-114109381D01*
X103788604Y-114109385D01*
X103773853Y-114207247D01*
X103749500Y-114368812D01*
X103749500Y-114631187D01*
X100025500Y-114631187D01*
X100025500Y-110149500D01*
X100045185Y-110082461D01*
X100097989Y-110036706D01*
X100149500Y-110025500D01*
X100302926Y-110025500D01*
X100302939Y-110025500D01*
X100907711Y-109988918D01*
X101509170Y-109915888D01*
X102105123Y-109806675D01*
X102693395Y-109661679D01*
X103271839Y-109481429D01*
X103838344Y-109266582D01*
X104390843Y-109017922D01*
X104927321Y-108736357D01*
X105445820Y-108422914D01*
X105944447Y-108078736D01*
X106344084Y-107765640D01*
X106421376Y-107705086D01*
X106421377Y-107705085D01*
X106452601Y-107677423D01*
X106874889Y-107303309D01*
X107303309Y-106874889D01*
X107705080Y-106421383D01*
X107705085Y-106421377D01*
X107705086Y-106421376D01*
X107961558Y-106094013D01*
X108078736Y-105944447D01*
X108422914Y-105445820D01*
X108736357Y-104927321D01*
X109017922Y-104390843D01*
X109266582Y-103838344D01*
X109481429Y-103271839D01*
X109661679Y-102693395D01*
X109806675Y-102105123D01*
X109915888Y-101509170D01*
X109988918Y-100907711D01*
X110025500Y-100302939D01*
X110025500Y-100149500D01*
X110045185Y-100082461D01*
X110097989Y-100036706D01*
X110149500Y-100025500D01*
X179850500Y-100025500D01*
X179917539Y-100045185D01*
G37*
G04 #@! TD.AperFunction*
D14*
X190000000Y-110000000D02*
X190000000Y-148000000D01*
X100000000Y-110000000D02*
X100000000Y-148000000D01*
X100000000Y-110000000D02*
G75*
G03*
X110000000Y-100000000I0J10000000D01*
G01*
X110000000Y-158000000D02*
X180000000Y-158000000D01*
X110000000Y-100000000D02*
X180000000Y-100000000D01*
X190000000Y-148000000D02*
G75*
G03*
X180000000Y-158000000I0J-10000000D01*
G01*
X110000000Y-158000000D02*
G75*
G03*
X100000000Y-148000000I-10000000J0D01*
G01*
X180000000Y-100000000D02*
G75*
G03*
X190000000Y-110000000I10000000J0D01*
G01*
M02*
