G04 #@! TF.GenerationSoftware,KiCad,Pcbnew,5.1.5+dfsg1-2build2*
G04 #@! TF.CreationDate,2022-04-08T15:09:35-05:00*
G04 #@! TF.ProjectId,MCU_PROTO_100x68mm,4d43555f-5052-44f5-944f-5f3130307836,rev?*
G04 #@! TF.SameCoordinates,Original*
G04 #@! TF.FileFunction,Legend,Bot*
G04 #@! TF.FilePolarity,Positive*
%FSLAX46Y46*%
G04 Gerber Fmt 4.6, Leading zero omitted, Abs format (unit mm)*
G04 Created by KiCad (PCBNEW 5.1.5+dfsg1-2build2) date 2022-04-08 15:09:35*
%MOMM*%
%LPD*%
G04 APERTURE LIST*
%ADD10C,0.150000*%
%ADD11C,3.102000*%
%ADD12C,2.102000*%
%ADD13O,1.802000X1.802000*%
%ADD14R,1.802000X1.802000*%
%ADD15C,2.502000*%
%ADD16R,2.502000X2.502000*%
%ADD17C,2.100980*%
G04 APERTURE END LIST*
D10*
X106749804Y-133896966D02*
X105949804Y-133896966D01*
X106521233Y-134163633D01*
X105949804Y-134430300D01*
X106749804Y-134430300D01*
X106673614Y-135268395D02*
X106711709Y-135230300D01*
X106749804Y-135116014D01*
X106749804Y-135039823D01*
X106711709Y-134925538D01*
X106635519Y-134849347D01*
X106559328Y-134811252D01*
X106406947Y-134773157D01*
X106292661Y-134773157D01*
X106140280Y-134811252D01*
X106064090Y-134849347D01*
X105987900Y-134925538D01*
X105949804Y-135039823D01*
X105949804Y-135116014D01*
X105987900Y-135230300D01*
X106025995Y-135268395D01*
X105949804Y-135611252D02*
X106597423Y-135611252D01*
X106673614Y-135649347D01*
X106711709Y-135687442D01*
X106749804Y-135763633D01*
X106749804Y-135916014D01*
X106711709Y-135992204D01*
X106673614Y-136030300D01*
X106597423Y-136068395D01*
X105949804Y-136068395D01*
X106749804Y-137058871D02*
X105949804Y-137058871D01*
X105949804Y-137363633D01*
X105987900Y-137439823D01*
X106025995Y-137477919D01*
X106102185Y-137516014D01*
X106216471Y-137516014D01*
X106292661Y-137477919D01*
X106330757Y-137439823D01*
X106368852Y-137363633D01*
X106368852Y-137058871D01*
X106749804Y-138316014D02*
X106368852Y-138049347D01*
X106749804Y-137858871D02*
X105949804Y-137858871D01*
X105949804Y-138163633D01*
X105987900Y-138239823D01*
X106025995Y-138277919D01*
X106102185Y-138316014D01*
X106216471Y-138316014D01*
X106292661Y-138277919D01*
X106330757Y-138239823D01*
X106368852Y-138163633D01*
X106368852Y-137858871D01*
X105949804Y-138811252D02*
X105949804Y-138963633D01*
X105987900Y-139039823D01*
X106064090Y-139116014D01*
X106216471Y-139154109D01*
X106483138Y-139154109D01*
X106635519Y-139116014D01*
X106711709Y-139039823D01*
X106749804Y-138963633D01*
X106749804Y-138811252D01*
X106711709Y-138735061D01*
X106635519Y-138658871D01*
X106483138Y-138620776D01*
X106216471Y-138620776D01*
X106064090Y-138658871D01*
X105987900Y-138735061D01*
X105949804Y-138811252D01*
X105949804Y-139382680D02*
X105949804Y-139839823D01*
X106749804Y-139611252D02*
X105949804Y-139611252D01*
X105949804Y-140258871D02*
X105949804Y-140411252D01*
X105987900Y-140487442D01*
X106064090Y-140563633D01*
X106216471Y-140601728D01*
X106483138Y-140601728D01*
X106635519Y-140563633D01*
X106711709Y-140487442D01*
X106749804Y-140411252D01*
X106749804Y-140258871D01*
X106711709Y-140182680D01*
X106635519Y-140106490D01*
X106483138Y-140068395D01*
X106216471Y-140068395D01*
X106064090Y-140106490D01*
X105987900Y-140182680D01*
X105949804Y-140258871D01*
X106749804Y-141973157D02*
X106749804Y-141516014D01*
X106749804Y-141744585D02*
X105949804Y-141744585D01*
X106064090Y-141668395D01*
X106140280Y-141592204D01*
X106178376Y-141516014D01*
X105949804Y-142468395D02*
X105949804Y-142544585D01*
X105987900Y-142620776D01*
X106025995Y-142658871D01*
X106102185Y-142696966D01*
X106254566Y-142735061D01*
X106445042Y-142735061D01*
X106597423Y-142696966D01*
X106673614Y-142658871D01*
X106711709Y-142620776D01*
X106749804Y-142544585D01*
X106749804Y-142468395D01*
X106711709Y-142392204D01*
X106673614Y-142354109D01*
X106597423Y-142316014D01*
X106445042Y-142277919D01*
X106254566Y-142277919D01*
X106102185Y-142316014D01*
X106025995Y-142354109D01*
X105987900Y-142392204D01*
X105949804Y-142468395D01*
X105949804Y-143230300D02*
X105949804Y-143306490D01*
X105987900Y-143382680D01*
X106025995Y-143420776D01*
X106102185Y-143458871D01*
X106254566Y-143496966D01*
X106445042Y-143496966D01*
X106597423Y-143458871D01*
X106673614Y-143420776D01*
X106711709Y-143382680D01*
X106749804Y-143306490D01*
X106749804Y-143230300D01*
X106711709Y-143154109D01*
X106673614Y-143116014D01*
X106597423Y-143077919D01*
X106445042Y-143039823D01*
X106254566Y-143039823D01*
X106102185Y-143077919D01*
X106025995Y-143116014D01*
X105987900Y-143154109D01*
X105949804Y-143230300D01*
X106749804Y-143763633D02*
X106216471Y-144182680D01*
X106216471Y-143763633D02*
X106749804Y-144182680D01*
X105949804Y-144830300D02*
X105949804Y-144677919D01*
X105987900Y-144601728D01*
X106025995Y-144563633D01*
X106140280Y-144487442D01*
X106292661Y-144449347D01*
X106597423Y-144449347D01*
X106673614Y-144487442D01*
X106711709Y-144525538D01*
X106749804Y-144601728D01*
X106749804Y-144754109D01*
X106711709Y-144830300D01*
X106673614Y-144868395D01*
X106597423Y-144906490D01*
X106406947Y-144906490D01*
X106330757Y-144868395D01*
X106292661Y-144830300D01*
X106254566Y-144754109D01*
X106254566Y-144601728D01*
X106292661Y-144525538D01*
X106330757Y-144487442D01*
X106406947Y-144449347D01*
X106292661Y-145363633D02*
X106254566Y-145287442D01*
X106216471Y-145249347D01*
X106140280Y-145211252D01*
X106102185Y-145211252D01*
X106025995Y-145249347D01*
X105987900Y-145287442D01*
X105949804Y-145363633D01*
X105949804Y-145516014D01*
X105987900Y-145592204D01*
X106025995Y-145630300D01*
X106102185Y-145668395D01*
X106140280Y-145668395D01*
X106216471Y-145630300D01*
X106254566Y-145592204D01*
X106292661Y-145516014D01*
X106292661Y-145363633D01*
X106330757Y-145287442D01*
X106368852Y-145249347D01*
X106445042Y-145211252D01*
X106597423Y-145211252D01*
X106673614Y-145249347D01*
X106711709Y-145287442D01*
X106749804Y-145363633D01*
X106749804Y-145516014D01*
X106711709Y-145592204D01*
X106673614Y-145630300D01*
X106597423Y-145668395D01*
X106445042Y-145668395D01*
X106368852Y-145630300D01*
X106330757Y-145592204D01*
X106292661Y-145516014D01*
X106749804Y-146011252D02*
X106216471Y-146011252D01*
X106292661Y-146011252D02*
X106254566Y-146049347D01*
X106216471Y-146125538D01*
X106216471Y-146239823D01*
X106254566Y-146316014D01*
X106330757Y-146354109D01*
X106749804Y-146354109D01*
X106330757Y-146354109D02*
X106254566Y-146392204D01*
X106216471Y-146468395D01*
X106216471Y-146582680D01*
X106254566Y-146658871D01*
X106330757Y-146696966D01*
X106749804Y-146696966D01*
X106749804Y-147077919D02*
X106216471Y-147077919D01*
X106292661Y-147077919D02*
X106254566Y-147116014D01*
X106216471Y-147192204D01*
X106216471Y-147306490D01*
X106254566Y-147382680D01*
X106330757Y-147420776D01*
X106749804Y-147420776D01*
X106330757Y-147420776D02*
X106254566Y-147458871D01*
X106216471Y-147535061D01*
X106216471Y-147649347D01*
X106254566Y-147725538D01*
X106330757Y-147763633D01*
X106749804Y-147763633D01*
%LPC*%
D11*
X166000000Y-109750000D03*
X105500000Y-114500000D03*
D12*
X130780000Y-135930000D03*
X161260000Y-125770000D03*
X158720000Y-125770000D03*
X156180000Y-125770000D03*
X153640000Y-125770000D03*
X151100000Y-125770000D03*
X148560000Y-125770000D03*
X146020000Y-125770000D03*
X143480000Y-125770000D03*
X140940000Y-125770000D03*
X138400000Y-125770000D03*
X135860000Y-125770000D03*
X133320000Y-125770000D03*
X130780000Y-125770000D03*
X128240000Y-125770000D03*
X125700000Y-125770000D03*
X123160000Y-125770000D03*
X120620000Y-125770000D03*
X118080000Y-125770000D03*
X115540000Y-125770000D03*
X113000000Y-125770000D03*
D13*
X161260000Y-110530000D03*
X158720000Y-110530000D03*
X156180000Y-110530000D03*
X153640000Y-110530000D03*
X151100000Y-110530000D03*
X148560000Y-110530000D03*
X146020000Y-110530000D03*
X143480000Y-110530000D03*
X140940000Y-110530000D03*
X138400000Y-110530000D03*
X135860000Y-110530000D03*
X133320000Y-110530000D03*
X130780000Y-110530000D03*
X128240000Y-110530000D03*
X125700000Y-110530000D03*
X123160000Y-110530000D03*
X120620000Y-110530000D03*
X118080000Y-110530000D03*
X115540000Y-110530000D03*
D14*
X113000000Y-110530000D03*
D13*
X161260000Y-107990000D03*
X158720000Y-107990000D03*
X156180000Y-107990000D03*
X153640000Y-107990000D03*
X151100000Y-107990000D03*
X148560000Y-107990000D03*
X146020000Y-107990000D03*
X143480000Y-107990000D03*
X140940000Y-107990000D03*
X138400000Y-107990000D03*
X135860000Y-107990000D03*
X133320000Y-107990000D03*
X130780000Y-107990000D03*
X128240000Y-107990000D03*
X125700000Y-107990000D03*
X123160000Y-107990000D03*
X120620000Y-107990000D03*
X118080000Y-107990000D03*
X115540000Y-107990000D03*
D14*
X113000000Y-107990000D03*
D12*
X174500000Y-121500000D03*
X174500000Y-118000000D03*
X174500000Y-114500000D03*
X174500000Y-111000000D03*
D11*
X167500000Y-106000000D03*
D12*
X168880000Y-133390000D03*
X166340000Y-133390000D03*
X163800000Y-133390000D03*
X168880000Y-130850000D03*
X166340000Y-130850000D03*
X163800000Y-130850000D03*
X168880000Y-128310000D03*
X166340000Y-128310000D03*
X163800000Y-128310000D03*
X168880000Y-125770000D03*
X166340000Y-125770000D03*
X163800000Y-125770000D03*
X168880000Y-123230000D03*
X166340000Y-123230000D03*
X163800000Y-123230000D03*
X168880000Y-120690000D03*
X166340000Y-120690000D03*
X163800000Y-120690000D03*
X168880000Y-118150000D03*
X166340000Y-118150000D03*
X163800000Y-118150000D03*
X168880000Y-115610000D03*
X166340000Y-115610000D03*
X163800000Y-115610000D03*
X168880000Y-113070000D03*
X166340000Y-113070000D03*
X163800000Y-113070000D03*
X174500000Y-147000000D03*
X168880000Y-146090000D03*
X166340000Y-146090000D03*
X163800000Y-146090000D03*
X174500000Y-143500000D03*
X168880000Y-143550000D03*
X166340000Y-143550000D03*
X163800000Y-143550000D03*
X174500000Y-140000000D03*
X168880000Y-141010000D03*
X166340000Y-141010000D03*
X163800000Y-141010000D03*
X174500000Y-136500000D03*
X168880000Y-138470000D03*
X166340000Y-138470000D03*
X163800000Y-138470000D03*
X168880000Y-135930000D03*
X166340000Y-135930000D03*
X163800000Y-135930000D03*
X161260000Y-156250000D03*
X158720000Y-156250000D03*
X156180000Y-156250000D03*
X153640000Y-156250000D03*
X151100000Y-156250000D03*
X148560000Y-156250000D03*
X146020000Y-156250000D03*
X143480000Y-156250000D03*
X140940000Y-156250000D03*
X138400000Y-156250000D03*
X135860000Y-156250000D03*
X133320000Y-156250000D03*
X130780000Y-156250000D03*
X128240000Y-156250000D03*
X161260000Y-153710000D03*
X158720000Y-153710000D03*
X156180000Y-153710000D03*
X153640000Y-153710000D03*
X151100000Y-153710000D03*
X148560000Y-153710000D03*
X146020000Y-153710000D03*
X143480000Y-153710000D03*
X140940000Y-153710000D03*
X138400000Y-153710000D03*
X135860000Y-153710000D03*
X133320000Y-153710000D03*
X130780000Y-153710000D03*
X128240000Y-153710000D03*
X161260000Y-151170000D03*
X158720000Y-151170000D03*
X156180000Y-151170000D03*
X153640000Y-151170000D03*
X151100000Y-151170000D03*
X148560000Y-151170000D03*
X146020000Y-151170000D03*
X143480000Y-151170000D03*
X140940000Y-151170000D03*
X138400000Y-151170000D03*
X135860000Y-151170000D03*
X133320000Y-151170000D03*
X130780000Y-151170000D03*
X128240000Y-151170000D03*
X161260000Y-148630000D03*
X158720000Y-148630000D03*
X156180000Y-148630000D03*
X153640000Y-148630000D03*
X151100000Y-148630000D03*
X148560000Y-148630000D03*
X146020000Y-148630000D03*
X143480000Y-148630000D03*
X140940000Y-148630000D03*
X138400000Y-148630000D03*
X135860000Y-148630000D03*
X133320000Y-148630000D03*
X130780000Y-148630000D03*
X128240000Y-148630000D03*
X115540000Y-156250000D03*
X113000000Y-156250000D03*
X115540000Y-153710000D03*
X113000000Y-153710000D03*
X115540000Y-151170000D03*
X113000000Y-151170000D03*
X115540000Y-148630000D03*
X113000000Y-148630000D03*
D15*
X180000000Y-136500000D03*
X180000000Y-140000000D03*
X180000000Y-143500000D03*
D16*
X180000000Y-147000000D03*
D15*
X180000000Y-111000000D03*
X180000000Y-114500000D03*
X180000000Y-118000000D03*
D16*
X180000000Y-121500000D03*
D12*
X161260000Y-146090000D03*
X158720000Y-146090000D03*
X156180000Y-146090000D03*
X153640000Y-146090000D03*
X151100000Y-146090000D03*
X148560000Y-146090000D03*
X146020000Y-146090000D03*
X143480000Y-146090000D03*
X140940000Y-146090000D03*
X138400000Y-146090000D03*
X135860000Y-146090000D03*
X133320000Y-146090000D03*
X130780000Y-146090000D03*
X128240000Y-146090000D03*
X125700000Y-146090000D03*
X123160000Y-146090000D03*
X120620000Y-146090000D03*
X118080000Y-146090000D03*
X115540000Y-146090000D03*
X113000000Y-146090000D03*
X161260000Y-143550000D03*
X158720000Y-143550000D03*
X156180000Y-143550000D03*
X153640000Y-143550000D03*
X151100000Y-143550000D03*
X148560000Y-143550000D03*
X146020000Y-143550000D03*
X143480000Y-143550000D03*
X140940000Y-143550000D03*
X138400000Y-143550000D03*
X135860000Y-143550000D03*
X133320000Y-143550000D03*
X130780000Y-143550000D03*
X128240000Y-143550000D03*
X125700000Y-143550000D03*
X123160000Y-143550000D03*
X120620000Y-143550000D03*
X118080000Y-143550000D03*
X115540000Y-143550000D03*
X113000000Y-143550000D03*
X161260000Y-141010000D03*
X158720000Y-141010000D03*
X156180000Y-141010000D03*
X153640000Y-141010000D03*
X151100000Y-141010000D03*
X148560000Y-141010000D03*
X146020000Y-141010000D03*
X143480000Y-141010000D03*
X140940000Y-141010000D03*
X138400000Y-141010000D03*
X135860000Y-141010000D03*
X133320000Y-141010000D03*
X130780000Y-141010000D03*
X128240000Y-141010000D03*
X125700000Y-141010000D03*
X123160000Y-141010000D03*
X120620000Y-141010000D03*
X118080000Y-141010000D03*
X115540000Y-141010000D03*
X113000000Y-141010000D03*
X161260000Y-138470000D03*
X158720000Y-138470000D03*
X156180000Y-138470000D03*
X153640000Y-138470000D03*
X151100000Y-138470000D03*
X148560000Y-138470000D03*
X146020000Y-138470000D03*
X143480000Y-138470000D03*
X140940000Y-138470000D03*
X138400000Y-138470000D03*
X135860000Y-138470000D03*
X133320000Y-138470000D03*
X130780000Y-138470000D03*
X128240000Y-138470000D03*
X125700000Y-138470000D03*
X123160000Y-138470000D03*
X120620000Y-138470000D03*
X118080000Y-138470000D03*
X115540000Y-138470000D03*
X113000000Y-138470000D03*
X161260000Y-135930000D03*
X158720000Y-135930000D03*
X156180000Y-135930000D03*
X153640000Y-135930000D03*
X151100000Y-135930000D03*
X148560000Y-135930000D03*
X146020000Y-135930000D03*
X143480000Y-135930000D03*
X140940000Y-135930000D03*
X138400000Y-135930000D03*
X135860000Y-135930000D03*
X133320000Y-135930000D03*
X128240000Y-135930000D03*
X125700000Y-135930000D03*
X123160000Y-135930000D03*
X120620000Y-135930000D03*
X118080000Y-135930000D03*
X115540000Y-135930000D03*
X161260000Y-118150000D03*
X158720000Y-118150000D03*
X156180000Y-118150000D03*
X153640000Y-118150000D03*
X151100000Y-118150000D03*
X148560000Y-118150000D03*
X146020000Y-118150000D03*
X143480000Y-118150000D03*
X140940000Y-118150000D03*
X138400000Y-118150000D03*
X135860000Y-118150000D03*
X133320000Y-118150000D03*
X130780000Y-118150000D03*
X128240000Y-118150000D03*
X125700000Y-118150000D03*
X123160000Y-118150000D03*
X120620000Y-118150000D03*
X118080000Y-118150000D03*
X115540000Y-118150000D03*
X113000000Y-118150000D03*
X161260000Y-115610000D03*
X158720000Y-115610000D03*
X156180000Y-115610000D03*
X153640000Y-115610000D03*
X151100000Y-115610000D03*
X148560000Y-115610000D03*
X146020000Y-115610000D03*
X143480000Y-115610000D03*
X140940000Y-115610000D03*
X138400000Y-115610000D03*
X135860000Y-115610000D03*
X133320000Y-115610000D03*
X130780000Y-115610000D03*
X128240000Y-115610000D03*
X125700000Y-115610000D03*
X123160000Y-115610000D03*
X120620000Y-115610000D03*
X118080000Y-115610000D03*
X115540000Y-115610000D03*
X113000000Y-115610000D03*
X161260000Y-113070000D03*
X158720000Y-113070000D03*
X156180000Y-113070000D03*
X153640000Y-113070000D03*
X151100000Y-113070000D03*
X148560000Y-113070000D03*
X146020000Y-113070000D03*
X143480000Y-113070000D03*
X140940000Y-113070000D03*
X138400000Y-113070000D03*
X135860000Y-113070000D03*
X133320000Y-113070000D03*
X130780000Y-113070000D03*
X128240000Y-113070000D03*
X125700000Y-113070000D03*
X123160000Y-113070000D03*
X120620000Y-113070000D03*
X118080000Y-113070000D03*
X115540000Y-113070000D03*
X113000000Y-113070000D03*
D11*
X122500000Y-152000000D03*
D12*
X113000000Y-135930000D03*
X113000000Y-102910000D03*
X115540000Y-102910000D03*
X118080000Y-102910000D03*
X120620000Y-102910000D03*
X123160000Y-102910000D03*
X125700000Y-102910000D03*
D13*
X161260000Y-133390000D03*
X158720000Y-133390000D03*
X156180000Y-133390000D03*
X153640000Y-133390000D03*
X151100000Y-133390000D03*
X148560000Y-133390000D03*
X146020000Y-133390000D03*
X143480000Y-133390000D03*
X140940000Y-133390000D03*
X138400000Y-133390000D03*
X135860000Y-133390000D03*
X133320000Y-133390000D03*
X130780000Y-133390000D03*
X128240000Y-133390000D03*
X125700000Y-133390000D03*
X123160000Y-133390000D03*
X120620000Y-133390000D03*
X118080000Y-133390000D03*
X115540000Y-133390000D03*
D14*
X113000000Y-133390000D03*
D13*
X161260000Y-130850000D03*
X158720000Y-130850000D03*
X156180000Y-130850000D03*
X153640000Y-130850000D03*
X151100000Y-130850000D03*
X148560000Y-130850000D03*
X146020000Y-130850000D03*
X143480000Y-130850000D03*
X140940000Y-130850000D03*
X138400000Y-130850000D03*
X135860000Y-130850000D03*
X133320000Y-130850000D03*
X130780000Y-130850000D03*
X128240000Y-130850000D03*
X125700000Y-130850000D03*
X123160000Y-130850000D03*
X120620000Y-130850000D03*
X118080000Y-130850000D03*
X115540000Y-130850000D03*
D14*
X113000000Y-130850000D03*
D13*
X161260000Y-128310000D03*
X158720000Y-128310000D03*
X156180000Y-128310000D03*
X153640000Y-128310000D03*
X151100000Y-128310000D03*
X148560000Y-128310000D03*
X146020000Y-128310000D03*
X143480000Y-128310000D03*
X140940000Y-128310000D03*
X138400000Y-128310000D03*
X135860000Y-128310000D03*
X133320000Y-128310000D03*
X130780000Y-128310000D03*
X128240000Y-128310000D03*
X125700000Y-128310000D03*
X123160000Y-128310000D03*
X120620000Y-128310000D03*
X118080000Y-128310000D03*
X115540000Y-128310000D03*
D14*
X113000000Y-128310000D03*
D13*
X161260000Y-120690000D03*
X158720000Y-120690000D03*
X156180000Y-120690000D03*
X153640000Y-120690000D03*
X151100000Y-120690000D03*
X148560000Y-120690000D03*
X146020000Y-120690000D03*
X143480000Y-120690000D03*
X140940000Y-120690000D03*
X138400000Y-120690000D03*
X135860000Y-120690000D03*
X133320000Y-120690000D03*
X130780000Y-120690000D03*
X128240000Y-120690000D03*
X125700000Y-120690000D03*
X123160000Y-120690000D03*
X120620000Y-120690000D03*
X118080000Y-120690000D03*
X115540000Y-120690000D03*
D14*
X113000000Y-120690000D03*
D13*
X161260000Y-105450000D03*
X158720000Y-105450000D03*
X156180000Y-105450000D03*
X153640000Y-105450000D03*
X151100000Y-105450000D03*
X148560000Y-105450000D03*
X146020000Y-105450000D03*
X143480000Y-105450000D03*
X140940000Y-105450000D03*
X138400000Y-105450000D03*
X135860000Y-105450000D03*
X133320000Y-105450000D03*
X130780000Y-105450000D03*
X128240000Y-105450000D03*
X125700000Y-105450000D03*
X123160000Y-105450000D03*
X120620000Y-105450000D03*
X118080000Y-105450000D03*
X115540000Y-105450000D03*
D14*
X113000000Y-105450000D03*
D13*
X161260000Y-123230000D03*
X158720000Y-123230000D03*
X156180000Y-123230000D03*
X153640000Y-123230000D03*
X151100000Y-123230000D03*
X148560000Y-123230000D03*
X146020000Y-123230000D03*
X143480000Y-123230000D03*
X140940000Y-123230000D03*
X138400000Y-123230000D03*
X135860000Y-123230000D03*
X133320000Y-123230000D03*
X130780000Y-123230000D03*
X128240000Y-123230000D03*
X125700000Y-123230000D03*
X123160000Y-123230000D03*
X120620000Y-123230000D03*
X118080000Y-123230000D03*
X115540000Y-123230000D03*
D14*
X113000000Y-123230000D03*
D17*
X174500000Y-130850000D03*
X174500000Y-128310000D03*
D12*
X148560000Y-102910000D03*
X161260000Y-102910000D03*
X158720000Y-102910000D03*
X156180000Y-102910000D03*
X153640000Y-102910000D03*
X151100000Y-102910000D03*
X146020000Y-102910000D03*
X143480000Y-102910000D03*
X140940000Y-102910000D03*
X138400000Y-102910000D03*
X135860000Y-102910000D03*
X133320000Y-102910000D03*
X130780000Y-102910000D03*
X128240000Y-102910000D03*
D11*
X167500000Y-152000000D03*
X105000000Y-129000000D03*
X185000000Y-129000000D03*
M02*
