G04 #@! TF.GenerationSoftware,KiCad,Pcbnew,7.0.11+dfsg-1build4*
G04 #@! TF.CreationDate,2025-11-10T09:45:06-05:00*
G04 #@! TF.ProjectId,MCU_PROTO_100x68mm,4d43555f-5052-44f5-944f-5f3130307836,rev?*
G04 #@! TF.SameCoordinates,Original*
G04 #@! TF.FileFunction,Soldermask,Bot*
G04 #@! TF.FilePolarity,Negative*
%FSLAX46Y46*%
G04 Gerber Fmt 4.6, Leading zero omitted, Abs format (unit mm)*
G04 Created by KiCad (PCBNEW 7.0.11+dfsg-1build4) date 2025-11-10 09:45:06*
%MOMM*%
%LPD*%
G01*
G04 APERTURE LIST*
%ADD10C,1.700000*%
%ADD11C,3.000000*%
%ADD12R,2.400000X2.400000*%
%ADD13C,2.400000*%
G04 #@! TA.AperFunction,Profile*
%ADD14C,0.050000*%
G04 #@! TD*
G04 APERTURE END LIST*
D10*
X130780000Y-153710000D03*
X161260000Y-141010000D03*
X143480000Y-148630000D03*
X133320000Y-113070000D03*
X128240000Y-105450000D03*
X135860000Y-156250000D03*
X158720000Y-130850000D03*
X166340000Y-128310000D03*
X153640000Y-107990000D03*
X118080000Y-110530000D03*
X133320000Y-115610000D03*
X140940000Y-148630000D03*
X133320000Y-102910000D03*
X140940000Y-138470000D03*
X123160000Y-110530000D03*
X140940000Y-110530000D03*
X125700000Y-143550000D03*
X135860000Y-125770000D03*
X113000000Y-113070000D03*
X151100000Y-133390000D03*
X161260000Y-120690000D03*
X128240000Y-125770000D03*
X161260000Y-128310000D03*
X135860000Y-151170000D03*
X148560000Y-125770000D03*
X146020000Y-118150000D03*
X123160000Y-143550000D03*
X138400000Y-133390000D03*
X143480000Y-151170000D03*
X138400000Y-135930000D03*
X123160000Y-138470000D03*
X151100000Y-128310000D03*
X161260000Y-133390000D03*
X174500000Y-147000000D03*
X125700000Y-107990000D03*
X151100000Y-141010000D03*
X146020000Y-123230000D03*
X158720000Y-123230000D03*
X118080000Y-113070000D03*
X138400000Y-123230000D03*
X125700000Y-133390000D03*
X113000000Y-156250000D03*
X174500000Y-136500000D03*
X128240000Y-128310000D03*
X151100000Y-156250000D03*
X156180000Y-123230000D03*
X120620000Y-107990000D03*
D11*
X105000000Y-129000000D03*
D10*
X135860000Y-113070000D03*
X151100000Y-110530000D03*
X128240000Y-148630000D03*
X118080000Y-128310000D03*
X148560000Y-102910000D03*
X168880000Y-118150000D03*
X166340000Y-113070000D03*
X166340000Y-146090000D03*
X113000000Y-118150000D03*
X158720000Y-118150000D03*
X125700000Y-113070000D03*
X118080000Y-107990000D03*
X130780000Y-130850000D03*
X156180000Y-102910000D03*
X125700000Y-105450000D03*
X156180000Y-141010000D03*
X156180000Y-135930000D03*
X143480000Y-105450000D03*
X174500000Y-121500000D03*
X120620000Y-138470000D03*
X166340000Y-118150000D03*
X156180000Y-151170000D03*
X143480000Y-141010000D03*
X146020000Y-141010000D03*
X115540000Y-153710000D03*
X166340000Y-141010000D03*
X153640000Y-113070000D03*
X133320000Y-128310000D03*
X168880000Y-125770000D03*
X123160000Y-135930000D03*
X133320000Y-151170000D03*
X151100000Y-138470000D03*
X115540000Y-102910000D03*
X140940000Y-153710000D03*
X168880000Y-120690000D03*
X158720000Y-148630000D03*
X130780000Y-143550000D03*
X133320000Y-107990000D03*
X161260000Y-146090000D03*
X161260000Y-156250000D03*
X140940000Y-128310000D03*
X113000000Y-125770000D03*
X161260000Y-105450000D03*
X113000000Y-141010000D03*
X156180000Y-148630000D03*
X138400000Y-138470000D03*
X123160000Y-128310000D03*
X148560000Y-118150000D03*
X153640000Y-141010000D03*
X133320000Y-105450000D03*
X156180000Y-143550000D03*
X158720000Y-141010000D03*
X153640000Y-135930000D03*
X163800000Y-123230000D03*
X125700000Y-128310000D03*
X148560000Y-141010000D03*
X153640000Y-115610000D03*
X143480000Y-107990000D03*
X161260000Y-130850000D03*
X115540000Y-135930000D03*
X153640000Y-130850000D03*
X120620000Y-128310000D03*
X130780000Y-151170000D03*
X130780000Y-146090000D03*
X146020000Y-138470000D03*
X143480000Y-128310000D03*
X146020000Y-128310000D03*
X140940000Y-130850000D03*
X115540000Y-138470000D03*
X113000000Y-115610000D03*
X163800000Y-120690000D03*
X133320000Y-120690000D03*
X113000000Y-133390000D03*
X125700000Y-120690000D03*
X151100000Y-153710000D03*
X125700000Y-138470000D03*
X130780000Y-123230000D03*
X128240000Y-123230000D03*
X174500000Y-111000000D03*
X133320000Y-138470000D03*
X161260000Y-135930000D03*
X123160000Y-146090000D03*
X138400000Y-102910000D03*
X146020000Y-156250000D03*
X123160000Y-115610000D03*
X151100000Y-105450000D03*
X123160000Y-125770000D03*
X166340000Y-123230000D03*
X153640000Y-120690000D03*
X153640000Y-153710000D03*
X128240000Y-107990000D03*
X128240000Y-151170000D03*
X135860000Y-143550000D03*
X146020000Y-151170000D03*
X113000000Y-120690000D03*
X166340000Y-125770000D03*
X123160000Y-118150000D03*
X140940000Y-113070000D03*
X153640000Y-138470000D03*
X140940000Y-125770000D03*
X168880000Y-115610000D03*
X148560000Y-156250000D03*
X140940000Y-143550000D03*
X130780000Y-118150000D03*
X113000000Y-123230000D03*
X128240000Y-133390000D03*
X156180000Y-128310000D03*
X130780000Y-138470000D03*
X135860000Y-146090000D03*
X148560000Y-133390000D03*
X140940000Y-105450000D03*
X125700000Y-110530000D03*
X133320000Y-143550000D03*
X168880000Y-138470000D03*
X166340000Y-115610000D03*
X143480000Y-146090000D03*
X128240000Y-102910000D03*
X158720000Y-105450000D03*
X123160000Y-133390000D03*
X133320000Y-153710000D03*
X135860000Y-148630000D03*
X174500000Y-143500000D03*
X161260000Y-138470000D03*
X148560000Y-130850000D03*
X151100000Y-102910000D03*
X118080000Y-130850000D03*
X158720000Y-102910000D03*
X135860000Y-102910000D03*
D11*
X105500000Y-114500000D03*
D10*
X115540000Y-115610000D03*
X158720000Y-133390000D03*
X148560000Y-143550000D03*
X163800000Y-141010000D03*
X146020000Y-110530000D03*
X153640000Y-123230000D03*
X151100000Y-151170000D03*
X120620000Y-118150000D03*
X130780000Y-133390000D03*
X118080000Y-133390000D03*
X115540000Y-128310000D03*
X113000000Y-151170000D03*
X118080000Y-135930000D03*
X158720000Y-110530000D03*
X151100000Y-130850000D03*
X128240000Y-110530000D03*
X128240000Y-135930000D03*
X123160000Y-123230000D03*
X130780000Y-156250000D03*
X151100000Y-125770000D03*
X174500000Y-118000000D03*
X153640000Y-151170000D03*
X140940000Y-115610000D03*
X118080000Y-125770000D03*
X161260000Y-125770000D03*
X163800000Y-138470000D03*
X143480000Y-156250000D03*
X158720000Y-113070000D03*
X133320000Y-110530000D03*
X158720000Y-115610000D03*
X113000000Y-110530000D03*
X146020000Y-130850000D03*
X133320000Y-133390000D03*
X156180000Y-113070000D03*
X118080000Y-115610000D03*
X130780000Y-120690000D03*
D12*
X180000000Y-147000000D03*
D13*
X180000000Y-143500000D03*
X180000000Y-140000000D03*
X180000000Y-136500000D03*
D11*
X185000000Y-129000000D03*
D10*
X135860000Y-130850000D03*
X166340000Y-130850000D03*
X140940000Y-146090000D03*
X143480000Y-153710000D03*
X130780000Y-141010000D03*
X158720000Y-107990000D03*
X118080000Y-120690000D03*
X118080000Y-105450000D03*
X146020000Y-102910000D03*
X153640000Y-148630000D03*
X135860000Y-118150000D03*
X156180000Y-120690000D03*
X151100000Y-115610000D03*
X148560000Y-105450000D03*
X163800000Y-125770000D03*
X115540000Y-156250000D03*
X118080000Y-146090000D03*
X140940000Y-156250000D03*
D11*
X166000000Y-109750000D03*
D10*
X161260000Y-110530000D03*
X128240000Y-120690000D03*
X146020000Y-107990000D03*
X113000000Y-105450000D03*
X140940000Y-118150000D03*
X163800000Y-146090000D03*
X161260000Y-151170000D03*
X143480000Y-130850000D03*
X123160000Y-141010000D03*
X146020000Y-120690000D03*
X133320000Y-146090000D03*
X120620000Y-123230000D03*
X156180000Y-118150000D03*
X166340000Y-135930000D03*
X138400000Y-125770000D03*
X115540000Y-107990000D03*
X115540000Y-113070000D03*
X153640000Y-125770000D03*
X148560000Y-107990000D03*
X163800000Y-135930000D03*
X156180000Y-156250000D03*
X146020000Y-143550000D03*
X120620000Y-125770000D03*
X143480000Y-143550000D03*
X115540000Y-110530000D03*
X168880000Y-135930000D03*
X166340000Y-120690000D03*
X128240000Y-143550000D03*
X140940000Y-123230000D03*
X161260000Y-102910000D03*
X163800000Y-128310000D03*
X174500000Y-140000000D03*
X113000000Y-153710000D03*
X133320000Y-118150000D03*
X115540000Y-130850000D03*
X174500000Y-128310000D03*
X130780000Y-102910000D03*
X130780000Y-107990000D03*
X125700000Y-141010000D03*
X146020000Y-146090000D03*
X153640000Y-105450000D03*
X133320000Y-141010000D03*
X125700000Y-125770000D03*
X138400000Y-141010000D03*
X143480000Y-120690000D03*
X163800000Y-130850000D03*
X143480000Y-125770000D03*
X143480000Y-133390000D03*
X115540000Y-125770000D03*
X151100000Y-107990000D03*
X138400000Y-113070000D03*
X151100000Y-118150000D03*
X123160000Y-120690000D03*
X135860000Y-128310000D03*
X161260000Y-143550000D03*
X161260000Y-113070000D03*
X138400000Y-148630000D03*
X166340000Y-133390000D03*
X158720000Y-151170000D03*
X115540000Y-148630000D03*
X163800000Y-113070000D03*
X120620000Y-146090000D03*
X143480000Y-102910000D03*
X153640000Y-128310000D03*
D11*
X122500000Y-152000000D03*
D10*
X143480000Y-135930000D03*
X128240000Y-130850000D03*
X118080000Y-102910000D03*
X125700000Y-130850000D03*
X133320000Y-123230000D03*
X120620000Y-115610000D03*
X138400000Y-118150000D03*
X115540000Y-146090000D03*
X118080000Y-138470000D03*
X118080000Y-143550000D03*
X168880000Y-141010000D03*
X128240000Y-141010000D03*
X168880000Y-130850000D03*
X118080000Y-141010000D03*
X125700000Y-115610000D03*
X115540000Y-118150000D03*
X168880000Y-123230000D03*
X163800000Y-118150000D03*
X166340000Y-143550000D03*
X128240000Y-156250000D03*
X158720000Y-120690000D03*
X153640000Y-143550000D03*
X138400000Y-153710000D03*
X128240000Y-153710000D03*
X156180000Y-115610000D03*
X163800000Y-143550000D03*
X138400000Y-143550000D03*
X138400000Y-146090000D03*
X161260000Y-148630000D03*
X166340000Y-138470000D03*
X125700000Y-102910000D03*
X161260000Y-115610000D03*
D11*
X167500000Y-152000000D03*
D10*
X148560000Y-123230000D03*
X130780000Y-135930000D03*
X148560000Y-135930000D03*
X146020000Y-115610000D03*
X115540000Y-133390000D03*
X115540000Y-143550000D03*
X168880000Y-128310000D03*
X168880000Y-146090000D03*
X133320000Y-135930000D03*
X148560000Y-128310000D03*
X156180000Y-107990000D03*
X158720000Y-153710000D03*
X153640000Y-146090000D03*
X123160000Y-105450000D03*
X143480000Y-138470000D03*
X156180000Y-146090000D03*
X133320000Y-148630000D03*
X156180000Y-153710000D03*
X143480000Y-113070000D03*
X151100000Y-143550000D03*
X146020000Y-153710000D03*
X140940000Y-141010000D03*
X120620000Y-130850000D03*
X138400000Y-128310000D03*
X135860000Y-135930000D03*
X140940000Y-102910000D03*
X130780000Y-110530000D03*
X130780000Y-115610000D03*
X153640000Y-133390000D03*
X151100000Y-123230000D03*
X161260000Y-153710000D03*
X148560000Y-148630000D03*
X130780000Y-148630000D03*
X148560000Y-120690000D03*
X130780000Y-105450000D03*
X151100000Y-146090000D03*
X146020000Y-148630000D03*
X174500000Y-114500000D03*
X135860000Y-153710000D03*
X115540000Y-123230000D03*
X135860000Y-110530000D03*
X158720000Y-128310000D03*
X120620000Y-135930000D03*
X120620000Y-143550000D03*
X113000000Y-128310000D03*
X151100000Y-148630000D03*
X140940000Y-120690000D03*
X138400000Y-156250000D03*
X168880000Y-143550000D03*
X138400000Y-120690000D03*
X130780000Y-128310000D03*
X113000000Y-102910000D03*
X115540000Y-141010000D03*
X113000000Y-135930000D03*
X158720000Y-138470000D03*
X135860000Y-138470000D03*
X135860000Y-120690000D03*
X138400000Y-107990000D03*
X128240000Y-115610000D03*
X138400000Y-115610000D03*
X135860000Y-133390000D03*
X153640000Y-156250000D03*
X128240000Y-146090000D03*
X156180000Y-130850000D03*
X161260000Y-118150000D03*
X158720000Y-156250000D03*
X161260000Y-107990000D03*
X163800000Y-115610000D03*
X174500000Y-130850000D03*
X123160000Y-130850000D03*
X113000000Y-138470000D03*
X148560000Y-151170000D03*
X151100000Y-120690000D03*
X158720000Y-146090000D03*
X135860000Y-105450000D03*
X130780000Y-125770000D03*
X125700000Y-123230000D03*
X135860000Y-123230000D03*
X120620000Y-110530000D03*
X158720000Y-125770000D03*
X135860000Y-141010000D03*
X158720000Y-143550000D03*
X146020000Y-135930000D03*
X161260000Y-123230000D03*
X151100000Y-135930000D03*
X135860000Y-107990000D03*
X168880000Y-113070000D03*
X148560000Y-115610000D03*
X128240000Y-118150000D03*
X133320000Y-156250000D03*
X113000000Y-146090000D03*
X156180000Y-105450000D03*
X151100000Y-113070000D03*
X113000000Y-130850000D03*
X115540000Y-151170000D03*
X120620000Y-141010000D03*
X138400000Y-151170000D03*
X140940000Y-133390000D03*
X125700000Y-118150000D03*
X156180000Y-138470000D03*
X146020000Y-113070000D03*
X133320000Y-130850000D03*
X148560000Y-113070000D03*
X138400000Y-110530000D03*
X113000000Y-148630000D03*
X153640000Y-118150000D03*
X138400000Y-130850000D03*
X120620000Y-102910000D03*
X146020000Y-125770000D03*
X115540000Y-120690000D03*
X143480000Y-115610000D03*
D11*
X167500000Y-106000000D03*
D10*
X123160000Y-102910000D03*
X143480000Y-123230000D03*
X156180000Y-133390000D03*
X156180000Y-110530000D03*
X118080000Y-123230000D03*
X140940000Y-107990000D03*
X113000000Y-107990000D03*
X133320000Y-125770000D03*
X120620000Y-113070000D03*
X146020000Y-105450000D03*
X120620000Y-120690000D03*
X156180000Y-125770000D03*
X143480000Y-118150000D03*
X115540000Y-105450000D03*
X148560000Y-146090000D03*
X168880000Y-133390000D03*
X123160000Y-113070000D03*
X120620000Y-133390000D03*
X148560000Y-138470000D03*
X125700000Y-135930000D03*
X140940000Y-151170000D03*
X125700000Y-146090000D03*
X158720000Y-135930000D03*
X128240000Y-138470000D03*
X148560000Y-110530000D03*
X153640000Y-102910000D03*
X163800000Y-133390000D03*
X140940000Y-135930000D03*
X128240000Y-113070000D03*
X113000000Y-143550000D03*
D12*
X180000000Y-121500000D03*
D13*
X180000000Y-118000000D03*
X180000000Y-114500000D03*
X180000000Y-111000000D03*
D10*
X120620000Y-105450000D03*
X148560000Y-153710000D03*
X146020000Y-133390000D03*
X123160000Y-107990000D03*
X135860000Y-115610000D03*
X153640000Y-110530000D03*
X138400000Y-105450000D03*
X130780000Y-113070000D03*
X118080000Y-118150000D03*
X143480000Y-110530000D03*
D14*
X190000000Y-110000000D02*
X190000000Y-148000000D01*
X100000000Y-110000000D02*
X100000000Y-148000000D01*
X100000000Y-110000000D02*
G75*
G03*
X110000000Y-100000000I0J10000000D01*
G01*
X110000000Y-158000000D02*
X180000000Y-158000000D01*
X110000000Y-100000000D02*
X180000000Y-100000000D01*
X190000000Y-148000000D02*
G75*
G03*
X180000000Y-158000000I0J-10000000D01*
G01*
X110000000Y-158000000D02*
G75*
G03*
X100000000Y-148000000I-10000000J0D01*
G01*
X180000000Y-100000000D02*
G75*
G03*
X190000000Y-110000000I10000000J0D01*
G01*
M02*
