G04 #@! TF.GenerationSoftware,KiCad,Pcbnew,5.1.5+dfsg1-2build2*
G04 #@! TF.CreationDate,2021-12-07T18:35:01-05:00*
G04 #@! TF.ProjectId,ESP32CAM_SJ4000_ENCLOSURE,45535033-3243-4414-9d5f-534a34303030,rev?*
G04 #@! TF.SameCoordinates,Original*
G04 #@! TF.FileFunction,Legend,Bot*
G04 #@! TF.FilePolarity,Positive*
%FSLAX46Y46*%
G04 Gerber Fmt 4.6, Leading zero omitted, Abs format (unit mm)*
G04 Created by KiCad (PCBNEW 5.1.5+dfsg1-2build2) date 2021-12-07 18:35:01*
%MOMM*%
%LPD*%
G04 APERTURE LIST*
%ADD10C,0.150000*%
%ADD11C,2.102000*%
%ADD12C,2.100980*%
%ADD13O,1.802000X1.802000*%
%ADD14R,1.802000X1.802000*%
G04 APERTURE END LIST*
D10*
X113385857Y-120698290D02*
X113500142Y-120660195D01*
X113690619Y-120660195D01*
X113766809Y-120698290D01*
X113804904Y-120736385D01*
X113843000Y-120812576D01*
X113843000Y-120888766D01*
X113804904Y-120964957D01*
X113766809Y-121003052D01*
X113690619Y-121041147D01*
X113538238Y-121079242D01*
X113462047Y-121117338D01*
X113423952Y-121155433D01*
X113385857Y-121231623D01*
X113385857Y-121307814D01*
X113423952Y-121384004D01*
X113462047Y-121422100D01*
X113538238Y-121460195D01*
X113728714Y-121460195D01*
X113843000Y-121422100D01*
X114414428Y-121460195D02*
X114414428Y-120888766D01*
X114376333Y-120774480D01*
X114300142Y-120698290D01*
X114185857Y-120660195D01*
X114109666Y-120660195D01*
X115138238Y-121193528D02*
X115138238Y-120660195D01*
X114947761Y-121498290D02*
X114757285Y-120926861D01*
X115252523Y-120926861D01*
X115709666Y-121460195D02*
X115785857Y-121460195D01*
X115862047Y-121422100D01*
X115900142Y-121384004D01*
X115938238Y-121307814D01*
X115976333Y-121155433D01*
X115976333Y-120964957D01*
X115938238Y-120812576D01*
X115900142Y-120736385D01*
X115862047Y-120698290D01*
X115785857Y-120660195D01*
X115709666Y-120660195D01*
X115633476Y-120698290D01*
X115595380Y-120736385D01*
X115557285Y-120812576D01*
X115519190Y-120964957D01*
X115519190Y-121155433D01*
X115557285Y-121307814D01*
X115595380Y-121384004D01*
X115633476Y-121422100D01*
X115709666Y-121460195D01*
X116471571Y-121460195D02*
X116547761Y-121460195D01*
X116623952Y-121422100D01*
X116662047Y-121384004D01*
X116700142Y-121307814D01*
X116738238Y-121155433D01*
X116738238Y-120964957D01*
X116700142Y-120812576D01*
X116662047Y-120736385D01*
X116623952Y-120698290D01*
X116547761Y-120660195D01*
X116471571Y-120660195D01*
X116395380Y-120698290D01*
X116357285Y-120736385D01*
X116319190Y-120812576D01*
X116281095Y-120964957D01*
X116281095Y-121155433D01*
X116319190Y-121307814D01*
X116357285Y-121384004D01*
X116395380Y-121422100D01*
X116471571Y-121460195D01*
X117233476Y-121460195D02*
X117309666Y-121460195D01*
X117385857Y-121422100D01*
X117423952Y-121384004D01*
X117462047Y-121307814D01*
X117500142Y-121155433D01*
X117500142Y-120964957D01*
X117462047Y-120812576D01*
X117423952Y-120736385D01*
X117385857Y-120698290D01*
X117309666Y-120660195D01*
X117233476Y-120660195D01*
X117157285Y-120698290D01*
X117119190Y-120736385D01*
X117081095Y-120812576D01*
X117043000Y-120964957D01*
X117043000Y-121155433D01*
X117081095Y-121307814D01*
X117119190Y-121384004D01*
X117157285Y-121422100D01*
X117233476Y-121460195D01*
X112147761Y-119729242D02*
X112414428Y-119729242D01*
X112528714Y-119310195D02*
X112147761Y-119310195D01*
X112147761Y-120110195D01*
X112528714Y-120110195D01*
X112871571Y-119310195D02*
X112871571Y-120110195D01*
X113328714Y-119310195D01*
X113328714Y-120110195D01*
X114166809Y-119386385D02*
X114128714Y-119348290D01*
X114014428Y-119310195D01*
X113938238Y-119310195D01*
X113823952Y-119348290D01*
X113747761Y-119424480D01*
X113709666Y-119500671D01*
X113671571Y-119653052D01*
X113671571Y-119767338D01*
X113709666Y-119919719D01*
X113747761Y-119995909D01*
X113823952Y-120072100D01*
X113938238Y-120110195D01*
X114014428Y-120110195D01*
X114128714Y-120072100D01*
X114166809Y-120034004D01*
X114890619Y-119310195D02*
X114509666Y-119310195D01*
X114509666Y-120110195D01*
X115309666Y-120110195D02*
X115462047Y-120110195D01*
X115538238Y-120072100D01*
X115614428Y-119995909D01*
X115652523Y-119843528D01*
X115652523Y-119576861D01*
X115614428Y-119424480D01*
X115538238Y-119348290D01*
X115462047Y-119310195D01*
X115309666Y-119310195D01*
X115233476Y-119348290D01*
X115157285Y-119424480D01*
X115119190Y-119576861D01*
X115119190Y-119843528D01*
X115157285Y-119995909D01*
X115233476Y-120072100D01*
X115309666Y-120110195D01*
X115957285Y-119348290D02*
X116071571Y-119310195D01*
X116262047Y-119310195D01*
X116338238Y-119348290D01*
X116376333Y-119386385D01*
X116414428Y-119462576D01*
X116414428Y-119538766D01*
X116376333Y-119614957D01*
X116338238Y-119653052D01*
X116262047Y-119691147D01*
X116109666Y-119729242D01*
X116033476Y-119767338D01*
X115995380Y-119805433D01*
X115957285Y-119881623D01*
X115957285Y-119957814D01*
X115995380Y-120034004D01*
X116033476Y-120072100D01*
X116109666Y-120110195D01*
X116300142Y-120110195D01*
X116414428Y-120072100D01*
X116757285Y-120110195D02*
X116757285Y-119462576D01*
X116795380Y-119386385D01*
X116833476Y-119348290D01*
X116909666Y-119310195D01*
X117062047Y-119310195D01*
X117138238Y-119348290D01*
X117176333Y-119386385D01*
X117214428Y-119462576D01*
X117214428Y-120110195D01*
X118052523Y-119310195D02*
X117785857Y-119691147D01*
X117595380Y-119310195D02*
X117595380Y-120110195D01*
X117900142Y-120110195D01*
X117976333Y-120072100D01*
X118014428Y-120034004D01*
X118052523Y-119957814D01*
X118052523Y-119843528D01*
X118014428Y-119767338D01*
X117976333Y-119729242D01*
X117900142Y-119691147D01*
X117595380Y-119691147D01*
X118395380Y-119729242D02*
X118662047Y-119729242D01*
X118776333Y-119310195D02*
X118395380Y-119310195D01*
X118395380Y-120110195D01*
X118776333Y-120110195D01*
%LPC*%
D11*
X129781300Y-138490000D03*
X155181300Y-138490000D03*
X152641300Y-138490000D03*
X150101300Y-138490000D03*
X147561300Y-138490000D03*
X145021300Y-138490000D03*
X142481300Y-138490000D03*
X139941300Y-138490000D03*
X137401300Y-138490000D03*
X134861300Y-138490000D03*
X132321300Y-138490000D03*
X155181300Y-135950000D03*
X152641300Y-135950000D03*
X150101300Y-135950000D03*
X147561300Y-135950000D03*
X145021300Y-135950000D03*
X142481300Y-135950000D03*
X139941300Y-135950000D03*
X137401300Y-135950000D03*
X134861300Y-135950000D03*
X132321300Y-135950000D03*
X155181300Y-133410000D03*
X152641300Y-133410000D03*
X150101300Y-133410000D03*
X147561300Y-133410000D03*
X145021300Y-133410000D03*
X142481300Y-133410000D03*
X139941300Y-133410000D03*
X137401300Y-133410000D03*
X134861300Y-133410000D03*
X132321300Y-133410000D03*
X155181300Y-130870000D03*
X152641300Y-130870000D03*
X150101300Y-130870000D03*
X147561300Y-130870000D03*
X145021300Y-130870000D03*
X142481300Y-130870000D03*
X139941300Y-130870000D03*
X137401300Y-130870000D03*
X134861300Y-130870000D03*
X132321300Y-130870000D03*
X155181300Y-128330000D03*
X152641300Y-128330000D03*
X150101300Y-128330000D03*
X147561300Y-128330000D03*
X145021300Y-128330000D03*
X142481300Y-128330000D03*
X139941300Y-128330000D03*
X137401300Y-128330000D03*
X134861300Y-128330000D03*
X132321300Y-128330000D03*
X155181300Y-125790000D03*
X152641300Y-125790000D03*
X150101300Y-125790000D03*
X147561300Y-125790000D03*
X145021300Y-125790000D03*
X142481300Y-125790000D03*
X139941300Y-125790000D03*
X137401300Y-125790000D03*
X134861300Y-125790000D03*
X132321300Y-125790000D03*
X155181300Y-123250000D03*
X152641300Y-123250000D03*
X150101300Y-123250000D03*
X147561300Y-123250000D03*
X145021300Y-123250000D03*
X142481300Y-123250000D03*
X139941300Y-123250000D03*
X137401300Y-123250000D03*
X134861300Y-123250000D03*
X132321300Y-123250000D03*
X155181300Y-120710000D03*
X152641300Y-120710000D03*
X150101300Y-120710000D03*
X147561300Y-120710000D03*
X145021300Y-120710000D03*
X142481300Y-120710000D03*
X139941300Y-120710000D03*
X137401300Y-120710000D03*
X134861300Y-120710000D03*
X132321300Y-120710000D03*
X155181300Y-118170000D03*
X152641300Y-118170000D03*
X150101300Y-118170000D03*
X147561300Y-118170000D03*
X145021300Y-118170000D03*
X142481300Y-118170000D03*
X139941300Y-118170000D03*
X137401300Y-118170000D03*
X134861300Y-118170000D03*
X132321300Y-118170000D03*
X155181300Y-115630000D03*
X152641300Y-115630000D03*
X150101300Y-115630000D03*
X147561300Y-115630000D03*
X145021300Y-115630000D03*
X142481300Y-115630000D03*
X139941300Y-115630000D03*
X137401300Y-115630000D03*
X134861300Y-115630000D03*
X132321300Y-115630000D03*
X155181300Y-113090000D03*
X152641300Y-113090000D03*
X150101300Y-113090000D03*
X147561300Y-113090000D03*
X145021300Y-113090000D03*
X142481300Y-113090000D03*
X139941300Y-113090000D03*
X137401300Y-113090000D03*
X134861300Y-113090000D03*
X132321300Y-113090000D03*
X155181300Y-110550000D03*
X152641300Y-110550000D03*
X150101300Y-110550000D03*
X147561300Y-110550000D03*
X145021300Y-110550000D03*
X142481300Y-110550000D03*
X139941300Y-110550000D03*
X137401300Y-110550000D03*
X134861300Y-110550000D03*
X155181300Y-102930000D03*
X152641300Y-102930000D03*
X150101300Y-102930000D03*
X147561300Y-102930000D03*
X145021300Y-102930000D03*
X142481300Y-102930000D03*
X139941300Y-102930000D03*
X137401300Y-102930000D03*
X134861300Y-102930000D03*
X132321300Y-102930000D03*
X129781300Y-102930000D03*
X127241300Y-102930000D03*
X124701300Y-102930000D03*
X122161300Y-102930000D03*
X119621300Y-102930000D03*
X117081300Y-102930000D03*
X114541300Y-102930000D03*
X112001300Y-102930000D03*
X109461300Y-102930000D03*
X106921300Y-102930000D03*
X104381300Y-102930000D03*
X155181300Y-105470000D03*
X152641300Y-105470000D03*
X150101300Y-105470000D03*
X147561300Y-105470000D03*
X145021300Y-105470000D03*
X142481300Y-105470000D03*
X139941300Y-105470000D03*
X137401300Y-105470000D03*
X134861300Y-105470000D03*
X132321300Y-105470000D03*
X129781300Y-105470000D03*
X127241300Y-105470000D03*
X124701300Y-105470000D03*
X122161300Y-105470000D03*
X119621300Y-105470000D03*
X117081300Y-105470000D03*
X114541300Y-105470000D03*
X112001300Y-105470000D03*
X109461300Y-105470000D03*
X106921300Y-105470000D03*
X104381300Y-105470000D03*
X155181300Y-108010000D03*
X152641300Y-108010000D03*
X150101300Y-108010000D03*
X147561300Y-108010000D03*
X145021300Y-108010000D03*
X142481300Y-108010000D03*
X139941300Y-108010000D03*
X137401300Y-108010000D03*
X134861300Y-108010000D03*
X132321300Y-108010000D03*
X129781300Y-108010000D03*
X127241300Y-108010000D03*
X124701300Y-108010000D03*
X122161300Y-108010000D03*
X119621300Y-108010000D03*
X117081300Y-108010000D03*
X114541300Y-108010000D03*
X112001300Y-108010000D03*
X109461300Y-108010000D03*
X106921300Y-108010000D03*
X104381300Y-108010000D03*
X124701300Y-138490000D03*
X122161300Y-138490000D03*
X119621300Y-138490000D03*
X117081300Y-138490000D03*
X114541300Y-138490000D03*
X112001300Y-138490000D03*
X122161300Y-133410000D03*
X119621300Y-133410000D03*
X117081300Y-133410000D03*
X114541300Y-133410000D03*
X112001300Y-133410000D03*
X127241300Y-115630000D03*
X124701300Y-115630000D03*
X122161300Y-115630000D03*
X119621300Y-115630000D03*
X117081300Y-115630000D03*
X114541300Y-115630000D03*
X112001300Y-115630000D03*
X127241300Y-110550000D03*
X124701300Y-110550000D03*
X122161300Y-110550000D03*
X119621300Y-110550000D03*
X117081300Y-110550000D03*
X114541300Y-110550000D03*
X112001300Y-110550000D03*
X124701300Y-118170000D03*
X124701300Y-120710000D03*
X124701300Y-123250000D03*
X124701300Y-125790000D03*
X124701300Y-128330000D03*
X124701300Y-130870000D03*
X106921300Y-118170000D03*
X106921300Y-120710000D03*
X106921300Y-123250000D03*
X106921300Y-125790000D03*
X106921300Y-128330000D03*
X106921300Y-130870000D03*
X106921300Y-133410000D03*
X129781300Y-118170000D03*
X129781300Y-120710000D03*
X129781300Y-123250000D03*
X129781300Y-125790000D03*
X129781300Y-128330000D03*
X129781300Y-130870000D03*
X129781300Y-133410000D03*
X101841300Y-118170000D03*
X101841300Y-120710000D03*
X101841300Y-123250000D03*
X101841300Y-125790000D03*
X101841300Y-128330000D03*
X101841300Y-130870000D03*
X101841300Y-133410000D03*
D12*
X101841300Y-139255500D03*
X101841300Y-113090000D03*
D11*
X101841300Y-135950000D03*
X109461300Y-115630000D03*
X101841300Y-108010000D03*
X109461300Y-110550000D03*
X106921300Y-135950000D03*
X124701300Y-133410000D03*
X109461300Y-133410000D03*
X129781300Y-135950000D03*
X127241300Y-138490000D03*
X109461300Y-138490000D03*
X132321300Y-110550000D03*
X101841300Y-102930000D03*
X101841300Y-105470000D03*
D13*
X127241300Y-135950000D03*
X124701300Y-135950000D03*
X122161300Y-135950000D03*
X119621300Y-135950000D03*
X117081300Y-135950000D03*
X114541300Y-135950000D03*
X112001300Y-135950000D03*
D14*
X109461300Y-135950000D03*
D13*
X127241300Y-113090000D03*
X124701300Y-113090000D03*
X122161300Y-113090000D03*
X119621300Y-113090000D03*
X117081300Y-113090000D03*
X114541300Y-113090000D03*
X112001300Y-113090000D03*
D14*
X109461300Y-113090000D03*
D13*
X104381300Y-118170000D03*
X104381300Y-120710000D03*
X104381300Y-123250000D03*
X104381300Y-125790000D03*
X104381300Y-128330000D03*
X104381300Y-130870000D03*
X104381300Y-133410000D03*
D14*
X104381300Y-135950000D03*
D13*
X127241300Y-118170000D03*
X127241300Y-120710000D03*
X127241300Y-123250000D03*
X127241300Y-125790000D03*
X127241300Y-128330000D03*
X127241300Y-130870000D03*
X127241300Y-133410000D03*
D14*
X127241300Y-135950000D03*
M02*
