G04 #@! TF.GenerationSoftware,KiCad,Pcbnew,5.1.5+dfsg1-2build2*
G04 #@! TF.CreationDate,2021-11-15T17:15:24-05:00*
G04 #@! TF.ProjectId,,58585858-5858-4585-9858-585858585858,rev?*
G04 #@! TF.SameCoordinates,Original*
G04 #@! TF.FileFunction,Legend,Top*
G04 #@! TF.FilePolarity,Positive*
%FSLAX46Y46*%
G04 Gerber Fmt 4.6, Leading zero omitted, Abs format (unit mm)*
G04 Created by KiCad (PCBNEW 5.1.5+dfsg1-2build2) date 2021-11-15 17:15:24*
%MOMM*%
%LPD*%
G04 APERTURE LIST*
%ADD10C,0.500000*%
%ADD11C,0.120000*%
%ADD12C,0.150000*%
%ADD13C,0.010000*%
%ADD14C,2.100980*%
%ADD15C,3.102000*%
%ADD16R,2.502000X2.502000*%
%ADD17C,2.502000*%
%ADD18R,1.802000X1.802000*%
%ADD19O,1.802000X1.802000*%
%ADD20C,2.102000*%
G04 APERTURE END LIST*
D10*
X129844800Y-105193100D02*
X129844800Y-105370700D01*
X132384800Y-105193300D02*
X132384800Y-105370900D01*
X134924800Y-105206000D02*
X134924800Y-105383600D01*
X137464800Y-105218700D02*
X137464800Y-105396300D01*
X140004800Y-105231400D02*
X140004800Y-105409000D01*
X142544800Y-105218700D02*
X142544800Y-105396300D01*
X145097500Y-105231400D02*
X145097500Y-105409000D01*
X147637500Y-105218700D02*
X147637500Y-105396300D01*
X145097500Y-107619000D02*
X145097500Y-107796600D01*
X147637500Y-107619000D02*
X147637500Y-107796600D01*
X142557500Y-107618800D02*
X142557500Y-107796400D01*
X140030200Y-107618800D02*
X140030200Y-107796400D01*
X137477500Y-107606300D02*
X137477500Y-107783900D01*
X134924800Y-107619000D02*
X134924800Y-107796600D01*
X132410200Y-107619000D02*
X132410200Y-107796600D01*
X129857500Y-107618800D02*
X129857500Y-107796400D01*
X115887500Y-111593900D02*
X116065100Y-111593900D01*
X118275300Y-111593900D02*
X118452900Y-111593900D01*
X115887500Y-114121200D02*
X116065100Y-114121200D01*
X118275300Y-114133900D02*
X118452900Y-114133900D01*
X115874800Y-116661200D02*
X116052400Y-116661200D01*
X118262600Y-116673900D02*
X118440200Y-116673900D01*
X115875000Y-119213900D02*
X116052600Y-119213900D01*
X118275300Y-119188500D02*
X118452900Y-119188500D01*
X115874800Y-121753900D02*
X116052400Y-121753900D01*
X118262600Y-121753900D02*
X118440200Y-121753900D01*
X115875000Y-124281200D02*
X116052600Y-124281200D01*
X118262600Y-124293900D02*
X118440200Y-124293900D01*
X115874800Y-126821200D02*
X116052400Y-126821200D01*
X118262600Y-126833900D02*
X118440200Y-126833900D01*
X115874700Y-129361200D02*
X116052300Y-129361200D01*
X118262300Y-129373900D02*
X118439900Y-129373900D01*
X138735000Y-111581200D02*
X138912600Y-111581200D01*
X141135300Y-111581200D02*
X141312900Y-111581200D01*
X138735000Y-114121200D02*
X138912600Y-114121200D01*
X141122600Y-114133900D02*
X141300200Y-114133900D01*
X138734800Y-116673900D02*
X138912400Y-116673900D01*
X141122400Y-116673900D02*
X141300000Y-116673900D01*
X138734800Y-119201200D02*
X138912400Y-119201200D01*
X141122600Y-119201200D02*
X141300200Y-119201200D01*
X138734800Y-121753900D02*
X138912400Y-121753900D01*
X141122600Y-121741200D02*
X141300200Y-121741200D01*
X138734800Y-124306600D02*
X138912400Y-124306600D01*
X141122400Y-124293900D02*
X141300000Y-124293900D01*
X138747700Y-126821200D02*
X138925300Y-126821200D01*
X141135300Y-126821200D02*
X141312900Y-126821200D01*
X131559300Y-128472200D02*
X130898900Y-127824500D01*
X134086600Y-128497600D02*
X133426200Y-127849900D01*
X136575800Y-128484900D02*
X135915400Y-127837200D01*
X149186900Y-130948700D02*
X148526500Y-130301000D01*
X146646900Y-130910600D02*
X145986500Y-130262900D01*
X144106900Y-130923300D02*
X143446500Y-130275600D01*
X130848100Y-130897900D02*
X131495800Y-130237500D01*
X133388100Y-130910600D02*
X134035800Y-130250200D01*
X135966200Y-130897900D02*
X136613900Y-130237500D01*
X143459200Y-128472200D02*
X144106900Y-127811800D01*
X145999200Y-128497600D02*
X146646900Y-127837200D01*
X128714500Y-128230900D02*
X128346200Y-127862600D01*
X141528800Y-130936000D02*
X141160500Y-130567700D01*
X148551900Y-128434100D02*
X149161500Y-127837200D01*
X138493500Y-130910600D02*
X138861800Y-130542300D01*
X128308100Y-130885200D02*
X128676400Y-130516900D01*
D11*
X148909400Y-102697500D02*
X148909400Y-110317500D01*
X143829400Y-110317500D02*
X148909400Y-110317500D01*
X143829400Y-110317500D02*
X143829400Y-125557500D01*
X143829400Y-125557500D02*
X151449400Y-125557500D01*
X151449400Y-125557500D02*
X151449400Y-133177500D01*
X151449400Y-133177500D02*
X113349400Y-133177500D01*
X113349400Y-133177500D02*
X113349400Y-110336600D01*
X113349400Y-110336600D02*
X126049400Y-110336600D01*
X126049400Y-110336600D02*
X126049400Y-102697500D01*
X126049400Y-102697500D02*
X148909400Y-102697500D01*
D10*
X170497500Y-112258700D02*
X166878000Y-112258700D01*
X170510200Y-115751200D02*
X166890700Y-115751200D01*
X170510200Y-119256400D02*
X166890700Y-119256400D01*
X170510200Y-131867500D02*
X166890700Y-131867500D01*
X170484800Y-135347300D02*
X166865300Y-135347300D01*
X170510200Y-138839800D02*
X166890700Y-138839800D01*
X122237500Y-140719400D02*
X122237500Y-140897000D01*
X124777500Y-140719400D02*
X124777500Y-140897000D01*
X127317500Y-140719400D02*
X127317500Y-140897000D01*
X129857500Y-140719400D02*
X129857500Y-140897000D01*
X132397500Y-140719400D02*
X132397500Y-140897000D01*
X134937500Y-140719400D02*
X134937500Y-140897000D01*
X137477500Y-140719400D02*
X137477500Y-140897000D01*
X140017500Y-140719400D02*
X140017500Y-140897000D01*
X142557500Y-140719400D02*
X142557500Y-140897000D01*
X145097500Y-140719400D02*
X145097500Y-140897000D01*
X147637500Y-140719400D02*
X147637500Y-140897000D01*
X150177500Y-140719400D02*
X150177500Y-140897000D01*
X152717500Y-140719400D02*
X152717500Y-140897000D01*
X155257500Y-140719400D02*
X155257500Y-140897000D01*
X157797500Y-140719400D02*
X157797500Y-140897000D01*
X160337500Y-140719400D02*
X160337500Y-140897000D01*
X162877500Y-140719400D02*
X162877500Y-140897000D01*
X122237500Y-143259400D02*
X122237500Y-143437000D01*
X124777500Y-143259400D02*
X124777500Y-143437000D01*
X127317500Y-143259400D02*
X127317500Y-143437000D01*
X129857500Y-143259400D02*
X129857500Y-143437000D01*
X132397500Y-143259400D02*
X132397500Y-143437000D01*
X134937500Y-143259400D02*
X134937500Y-143437000D01*
X137477500Y-143259400D02*
X137477500Y-143437000D01*
X140017500Y-143259400D02*
X140017500Y-143437000D01*
X142557500Y-143259400D02*
X142557500Y-143437000D01*
X145097500Y-143259400D02*
X145097500Y-143437000D01*
X147637500Y-143259400D02*
X147637500Y-143437000D01*
X150177500Y-143259400D02*
X150177500Y-143437000D01*
X152717500Y-143259400D02*
X152717500Y-143437000D01*
X155257500Y-143259400D02*
X155257500Y-143437000D01*
X157797500Y-143259400D02*
X157797500Y-143437000D01*
X160337500Y-143259400D02*
X160337500Y-143437000D01*
X162877500Y-143259400D02*
X162877500Y-143437000D01*
X122237500Y-145799400D02*
X122237500Y-145977000D01*
X124777500Y-145799400D02*
X124777500Y-145977000D01*
X127317500Y-145799400D02*
X127317500Y-145977000D01*
X129857500Y-145799400D02*
X129857500Y-145977000D01*
X132397500Y-145799400D02*
X132397500Y-145977000D01*
X134937500Y-145799400D02*
X134937500Y-145977000D01*
X137477500Y-145799400D02*
X137477500Y-145977000D01*
X140017500Y-145799400D02*
X140017500Y-145977000D01*
X142557500Y-145799400D02*
X142557500Y-145977000D01*
X145097500Y-145799400D02*
X145097500Y-145977000D01*
X147637500Y-145799400D02*
X147637500Y-145977000D01*
X150177500Y-145799400D02*
X150177500Y-145977000D01*
X152717500Y-145799400D02*
X152717500Y-145977000D01*
X155257500Y-145799400D02*
X155257500Y-145977000D01*
X157797500Y-145799400D02*
X157797500Y-145977000D01*
X160337500Y-145799400D02*
X160337500Y-145977000D01*
X162877500Y-145799400D02*
X162877500Y-145977000D01*
X113284000Y-134445600D02*
X113461600Y-134445600D01*
X115824000Y-134445600D02*
X116001600Y-134445600D01*
X118364000Y-134445600D02*
X118541600Y-134445600D01*
X120904000Y-134445600D02*
X121081600Y-134445600D01*
X123444000Y-134445600D02*
X123621600Y-134445600D01*
X125984000Y-134445600D02*
X126161600Y-134445600D01*
X128524000Y-134445600D02*
X128701600Y-134445600D01*
X131064000Y-134445600D02*
X131241600Y-134445600D01*
X133604000Y-134445600D02*
X133781600Y-134445600D01*
X136144000Y-134445600D02*
X136321600Y-134445600D01*
X138684000Y-134445600D02*
X138861600Y-134445600D01*
X141224000Y-134445600D02*
X141401600Y-134445600D01*
X143764000Y-134445600D02*
X143941600Y-134445600D01*
X146304000Y-134445600D02*
X146481600Y-134445600D01*
X148844000Y-134445600D02*
X149021600Y-134445600D01*
X151384000Y-134445600D02*
X151561600Y-134445600D01*
X153924000Y-134445600D02*
X154101600Y-134445600D01*
X156464000Y-134445600D02*
X156641600Y-134445600D01*
X159004000Y-134445600D02*
X159181600Y-134445600D01*
X161544000Y-134445600D02*
X161721600Y-134445600D01*
X113284000Y-136985600D02*
X113461600Y-136985600D01*
X115824000Y-136985600D02*
X116001600Y-136985600D01*
X118364000Y-136985600D02*
X118541600Y-136985600D01*
X120904000Y-136985600D02*
X121081600Y-136985600D01*
X123444000Y-136985600D02*
X123621600Y-136985600D01*
X125984000Y-136985600D02*
X126161600Y-136985600D01*
X128524000Y-136985600D02*
X128701600Y-136985600D01*
X131064000Y-136985600D02*
X131241600Y-136985600D01*
X133604000Y-136985600D02*
X133781600Y-136985600D01*
X136144000Y-136985600D02*
X136321600Y-136985600D01*
X138684000Y-136985600D02*
X138861600Y-136985600D01*
X141224000Y-136985600D02*
X141401600Y-136985600D01*
X143764000Y-136985600D02*
X143941600Y-136985600D01*
X146304000Y-136985600D02*
X146481600Y-136985600D01*
X148844000Y-136985600D02*
X149021600Y-136985600D01*
X151384000Y-136985600D02*
X151561600Y-136985600D01*
X153924000Y-136985600D02*
X154101600Y-136985600D01*
X156464000Y-136985600D02*
X156641600Y-136985600D01*
X159004000Y-136985600D02*
X159181600Y-136985600D01*
X161544000Y-136985600D02*
X161721600Y-136985600D01*
X152717500Y-128045000D02*
X152717500Y-128222600D01*
X155257500Y-128045000D02*
X155257500Y-128222600D01*
X157797500Y-128045000D02*
X157797500Y-128222600D01*
X160337500Y-128045000D02*
X160337500Y-128222600D01*
X162877500Y-128045000D02*
X162877500Y-128222600D01*
X152717500Y-130585000D02*
X152717500Y-130762600D01*
X155257500Y-130585000D02*
X155257500Y-130762600D01*
X157797500Y-130585000D02*
X157797500Y-130762600D01*
X160337500Y-130585000D02*
X160337500Y-130762600D01*
X162877500Y-130585000D02*
X162877500Y-130762600D01*
X161506100Y-103965600D02*
X161683700Y-103965600D01*
X161506100Y-106505600D02*
X161683700Y-106505600D01*
X161506100Y-109045600D02*
X161683700Y-109045600D01*
X161506100Y-111585600D02*
X161683700Y-111585600D01*
X161506100Y-114125600D02*
X161683700Y-114125600D01*
X161506100Y-116665600D02*
X161683700Y-116665600D01*
X161506100Y-119205600D02*
X161683700Y-119205600D01*
X161506100Y-121745600D02*
X161683700Y-121745600D01*
X161506100Y-124285600D02*
X161683700Y-124285600D01*
X151371500Y-103978300D02*
X151549100Y-103978300D01*
X151371500Y-106518300D02*
X151549100Y-106518300D01*
X151371500Y-109058300D02*
X151549100Y-109058300D01*
X151371500Y-111598300D02*
X151549100Y-111598300D01*
X151371500Y-114138300D02*
X151549100Y-114138300D01*
X151371500Y-116678300D02*
X151549100Y-116678300D01*
X151371500Y-119218300D02*
X151549100Y-119218300D01*
X151371500Y-121758300D02*
X151549100Y-121758300D01*
X151371500Y-124298300D02*
X151549100Y-124298300D01*
X155257500Y-105172100D02*
X155257500Y-105349700D01*
X157797500Y-105172100D02*
X157797500Y-105349700D01*
X155257500Y-107712100D02*
X155257500Y-107889700D01*
X157797500Y-107712100D02*
X157797500Y-107889700D01*
X155257500Y-110252100D02*
X155257500Y-110429700D01*
X157797500Y-110252100D02*
X157797500Y-110429700D01*
X155257500Y-112792100D02*
X155257500Y-112969700D01*
X157797500Y-112792100D02*
X157797500Y-112969700D01*
X155257500Y-115332100D02*
X155257500Y-115509700D01*
X157797500Y-115332100D02*
X157797500Y-115509700D01*
X155257500Y-117872100D02*
X155257500Y-118049700D01*
X157797500Y-117872100D02*
X157797500Y-118049700D01*
X155257500Y-120412100D02*
X155257500Y-120589700D01*
X157797500Y-120412100D02*
X157797500Y-120589700D01*
X155257500Y-122952100D02*
X155257500Y-123129700D01*
X157797500Y-122952100D02*
X157797500Y-123129700D01*
X146291300Y-111585600D02*
X146468900Y-111585600D01*
X148831300Y-111585600D02*
X149008900Y-111585600D01*
X146291300Y-114125600D02*
X146468900Y-114125600D01*
X148831300Y-114125600D02*
X149008900Y-114125600D01*
X146291300Y-116665600D02*
X146468900Y-116665600D01*
X148831300Y-116665600D02*
X149008900Y-116665600D01*
X146291300Y-119205600D02*
X146468900Y-119205600D01*
X148831300Y-119205600D02*
X149008900Y-119205600D01*
X146291300Y-121745600D02*
X146468900Y-121745600D01*
D12*
X110035357Y-120912890D02*
X110035357Y-120646223D01*
X110454404Y-120531938D02*
X110454404Y-120912890D01*
X109654404Y-120912890D01*
X109654404Y-120531938D01*
X110416309Y-120227176D02*
X110454404Y-120112890D01*
X110454404Y-119922414D01*
X110416309Y-119846223D01*
X110378214Y-119808128D01*
X110302023Y-119770033D01*
X110225833Y-119770033D01*
X110149642Y-119808128D01*
X110111547Y-119846223D01*
X110073452Y-119922414D01*
X110035357Y-120074795D01*
X109997261Y-120150985D01*
X109959166Y-120189080D01*
X109882976Y-120227176D01*
X109806785Y-120227176D01*
X109730595Y-120189080D01*
X109692500Y-120150985D01*
X109654404Y-120074795D01*
X109654404Y-119884319D01*
X109692500Y-119770033D01*
X110454404Y-119427176D02*
X109654404Y-119427176D01*
X109654404Y-119122414D01*
X109692500Y-119046223D01*
X109730595Y-119008128D01*
X109806785Y-118970033D01*
X109921071Y-118970033D01*
X109997261Y-119008128D01*
X110035357Y-119046223D01*
X110073452Y-119122414D01*
X110073452Y-119427176D01*
X109654404Y-118703366D02*
X109654404Y-118208128D01*
X109959166Y-118474795D01*
X109959166Y-118360509D01*
X109997261Y-118284319D01*
X110035357Y-118246223D01*
X110111547Y-118208128D01*
X110302023Y-118208128D01*
X110378214Y-118246223D01*
X110416309Y-118284319D01*
X110454404Y-118360509D01*
X110454404Y-118589080D01*
X110416309Y-118665271D01*
X110378214Y-118703366D01*
X109730595Y-117903366D02*
X109692500Y-117865271D01*
X109654404Y-117789080D01*
X109654404Y-117598604D01*
X109692500Y-117522414D01*
X109730595Y-117484319D01*
X109806785Y-117446223D01*
X109882976Y-117446223D01*
X109997261Y-117484319D01*
X110454404Y-117941461D01*
X110454404Y-117446223D01*
X110378214Y-116036700D02*
X110416309Y-116074795D01*
X110454404Y-116189080D01*
X110454404Y-116265271D01*
X110416309Y-116379557D01*
X110340119Y-116455747D01*
X110263928Y-116493842D01*
X110111547Y-116531938D01*
X109997261Y-116531938D01*
X109844880Y-116493842D01*
X109768690Y-116455747D01*
X109692500Y-116379557D01*
X109654404Y-116265271D01*
X109654404Y-116189080D01*
X109692500Y-116074795D01*
X109730595Y-116036700D01*
X110225833Y-115731938D02*
X110225833Y-115350985D01*
X110454404Y-115808128D02*
X109654404Y-115541461D01*
X110454404Y-115274795D01*
X110454404Y-115008128D02*
X109654404Y-115008128D01*
X110225833Y-114741461D01*
X109654404Y-114474795D01*
X110454404Y-114474795D01*
X110454404Y-113484319D02*
X109654404Y-113484319D01*
X109654404Y-113179557D01*
X109692500Y-113103366D01*
X109730595Y-113065271D01*
X109806785Y-113027176D01*
X109921071Y-113027176D01*
X109997261Y-113065271D01*
X110035357Y-113103366D01*
X110073452Y-113179557D01*
X110073452Y-113484319D01*
X110454404Y-112227176D02*
X110073452Y-112493842D01*
X110454404Y-112684319D02*
X109654404Y-112684319D01*
X109654404Y-112379557D01*
X109692500Y-112303366D01*
X109730595Y-112265271D01*
X109806785Y-112227176D01*
X109921071Y-112227176D01*
X109997261Y-112265271D01*
X110035357Y-112303366D01*
X110073452Y-112379557D01*
X110073452Y-112684319D01*
X109654404Y-111731938D02*
X109654404Y-111579557D01*
X109692500Y-111503366D01*
X109768690Y-111427176D01*
X109921071Y-111389080D01*
X110187738Y-111389080D01*
X110340119Y-111427176D01*
X110416309Y-111503366D01*
X110454404Y-111579557D01*
X110454404Y-111731938D01*
X110416309Y-111808128D01*
X110340119Y-111884319D01*
X110187738Y-111922414D01*
X109921071Y-111922414D01*
X109768690Y-111884319D01*
X109692500Y-111808128D01*
X109654404Y-111731938D01*
X109654404Y-111160509D02*
X109654404Y-110703366D01*
X110454404Y-110931938D02*
X109654404Y-110931938D01*
X109654404Y-110284319D02*
X109654404Y-110131938D01*
X109692500Y-110055747D01*
X109768690Y-109979557D01*
X109921071Y-109941461D01*
X110187738Y-109941461D01*
X110340119Y-109979557D01*
X110416309Y-110055747D01*
X110454404Y-110131938D01*
X110454404Y-110284319D01*
X110416309Y-110360509D01*
X110340119Y-110436700D01*
X110187738Y-110474795D01*
X109921071Y-110474795D01*
X109768690Y-110436700D01*
X109692500Y-110360509D01*
X109654404Y-110284319D01*
X109654404Y-109712890D02*
X109654404Y-109255747D01*
X110454404Y-109484319D02*
X109654404Y-109484319D01*
X110073452Y-108836700D02*
X110454404Y-108836700D01*
X109654404Y-109103366D02*
X110073452Y-108836700D01*
X109654404Y-108570033D01*
X110454404Y-108303366D02*
X109654404Y-108303366D01*
X109654404Y-107998604D01*
X109692500Y-107922414D01*
X109730595Y-107884319D01*
X109806785Y-107846223D01*
X109921071Y-107846223D01*
X109997261Y-107884319D01*
X110035357Y-107922414D01*
X110073452Y-107998604D01*
X110073452Y-108303366D01*
X110035357Y-107503366D02*
X110035357Y-107236700D01*
X110454404Y-107122414D02*
X110454404Y-107503366D01*
X109654404Y-107503366D01*
X109654404Y-107122414D01*
X111347261Y-121522414D02*
X111309166Y-121598604D01*
X111271071Y-121636700D01*
X111194880Y-121674795D01*
X111156785Y-121674795D01*
X111080595Y-121636700D01*
X111042500Y-121598604D01*
X111004404Y-121522414D01*
X111004404Y-121370033D01*
X111042500Y-121293842D01*
X111080595Y-121255747D01*
X111156785Y-121217652D01*
X111194880Y-121217652D01*
X111271071Y-121255747D01*
X111309166Y-121293842D01*
X111347261Y-121370033D01*
X111347261Y-121522414D01*
X111385357Y-121598604D01*
X111423452Y-121636700D01*
X111499642Y-121674795D01*
X111652023Y-121674795D01*
X111728214Y-121636700D01*
X111766309Y-121598604D01*
X111804404Y-121522414D01*
X111804404Y-121370033D01*
X111766309Y-121293842D01*
X111728214Y-121255747D01*
X111652023Y-121217652D01*
X111499642Y-121217652D01*
X111423452Y-121255747D01*
X111385357Y-121293842D01*
X111347261Y-121370033D01*
X111004404Y-120950985D02*
X111004404Y-120455747D01*
X111309166Y-120722414D01*
X111309166Y-120608128D01*
X111347261Y-120531938D01*
X111385357Y-120493842D01*
X111461547Y-120455747D01*
X111652023Y-120455747D01*
X111728214Y-120493842D01*
X111766309Y-120531938D01*
X111804404Y-120608128D01*
X111804404Y-120836700D01*
X111766309Y-120912890D01*
X111728214Y-120950985D01*
X111804404Y-120189080D02*
X111271071Y-119770033D01*
X111271071Y-120189080D02*
X111804404Y-119770033D01*
X111004404Y-119084319D02*
X111004404Y-119465271D01*
X111385357Y-119503366D01*
X111347261Y-119465271D01*
X111309166Y-119389080D01*
X111309166Y-119198604D01*
X111347261Y-119122414D01*
X111385357Y-119084319D01*
X111461547Y-119046223D01*
X111652023Y-119046223D01*
X111728214Y-119084319D01*
X111766309Y-119122414D01*
X111804404Y-119198604D01*
X111804404Y-119389080D01*
X111766309Y-119465271D01*
X111728214Y-119503366D01*
X111347261Y-118589080D02*
X111309166Y-118665271D01*
X111271071Y-118703366D01*
X111194880Y-118741461D01*
X111156785Y-118741461D01*
X111080595Y-118703366D01*
X111042500Y-118665271D01*
X111004404Y-118589080D01*
X111004404Y-118436700D01*
X111042500Y-118360509D01*
X111080595Y-118322414D01*
X111156785Y-118284319D01*
X111194880Y-118284319D01*
X111271071Y-118322414D01*
X111309166Y-118360509D01*
X111347261Y-118436700D01*
X111347261Y-118589080D01*
X111385357Y-118665271D01*
X111423452Y-118703366D01*
X111499642Y-118741461D01*
X111652023Y-118741461D01*
X111728214Y-118703366D01*
X111766309Y-118665271D01*
X111804404Y-118589080D01*
X111804404Y-118436700D01*
X111766309Y-118360509D01*
X111728214Y-118322414D01*
X111652023Y-118284319D01*
X111499642Y-118284319D01*
X111423452Y-118322414D01*
X111385357Y-118360509D01*
X111347261Y-118436700D01*
X111804404Y-118017652D02*
X111271071Y-117598604D01*
X111271071Y-118017652D02*
X111804404Y-117598604D01*
X111004404Y-117370033D02*
X111004404Y-116874795D01*
X111309166Y-117141461D01*
X111309166Y-117027176D01*
X111347261Y-116950985D01*
X111385357Y-116912890D01*
X111461547Y-116874795D01*
X111652023Y-116874795D01*
X111728214Y-116912890D01*
X111766309Y-116950985D01*
X111804404Y-117027176D01*
X111804404Y-117255747D01*
X111766309Y-117331938D01*
X111728214Y-117370033D01*
X111004404Y-116608128D02*
X111004404Y-116112890D01*
X111309166Y-116379557D01*
X111309166Y-116265271D01*
X111347261Y-116189080D01*
X111385357Y-116150985D01*
X111461547Y-116112890D01*
X111652023Y-116112890D01*
X111728214Y-116150985D01*
X111766309Y-116189080D01*
X111804404Y-116265271D01*
X111804404Y-116493842D01*
X111766309Y-116570033D01*
X111728214Y-116608128D01*
X111804404Y-115770033D02*
X111271071Y-115770033D01*
X111347261Y-115770033D02*
X111309166Y-115731938D01*
X111271071Y-115655747D01*
X111271071Y-115541461D01*
X111309166Y-115465271D01*
X111385357Y-115427176D01*
X111804404Y-115427176D01*
X111385357Y-115427176D02*
X111309166Y-115389080D01*
X111271071Y-115312890D01*
X111271071Y-115198604D01*
X111309166Y-115122414D01*
X111385357Y-115084319D01*
X111804404Y-115084319D01*
X111804404Y-114703366D02*
X111271071Y-114703366D01*
X111347261Y-114703366D02*
X111309166Y-114665271D01*
X111271071Y-114589080D01*
X111271071Y-114474795D01*
X111309166Y-114398604D01*
X111385357Y-114360509D01*
X111804404Y-114360509D01*
X111385357Y-114360509D02*
X111309166Y-114322414D01*
X111271071Y-114246223D01*
X111271071Y-114131938D01*
X111309166Y-114055747D01*
X111385357Y-114017652D01*
X111804404Y-114017652D01*
X111385357Y-113027176D02*
X111385357Y-112760509D01*
X111804404Y-112646223D02*
X111804404Y-113027176D01*
X111004404Y-113027176D01*
X111004404Y-112646223D01*
X111804404Y-112303366D02*
X111004404Y-112303366D01*
X111804404Y-111846223D01*
X111004404Y-111846223D01*
X111728214Y-111008128D02*
X111766309Y-111046223D01*
X111804404Y-111160509D01*
X111804404Y-111236700D01*
X111766309Y-111350985D01*
X111690119Y-111427176D01*
X111613928Y-111465271D01*
X111461547Y-111503366D01*
X111347261Y-111503366D01*
X111194880Y-111465271D01*
X111118690Y-111427176D01*
X111042500Y-111350985D01*
X111004404Y-111236700D01*
X111004404Y-111160509D01*
X111042500Y-111046223D01*
X111080595Y-111008128D01*
X111804404Y-110284319D02*
X111804404Y-110665271D01*
X111004404Y-110665271D01*
X111004404Y-109865271D02*
X111004404Y-109712890D01*
X111042500Y-109636700D01*
X111118690Y-109560509D01*
X111271071Y-109522414D01*
X111537738Y-109522414D01*
X111690119Y-109560509D01*
X111766309Y-109636700D01*
X111804404Y-109712890D01*
X111804404Y-109865271D01*
X111766309Y-109941461D01*
X111690119Y-110017652D01*
X111537738Y-110055747D01*
X111271071Y-110055747D01*
X111118690Y-110017652D01*
X111042500Y-109941461D01*
X111004404Y-109865271D01*
X111766309Y-109217652D02*
X111804404Y-109103366D01*
X111804404Y-108912890D01*
X111766309Y-108836700D01*
X111728214Y-108798604D01*
X111652023Y-108760509D01*
X111575833Y-108760509D01*
X111499642Y-108798604D01*
X111461547Y-108836700D01*
X111423452Y-108912890D01*
X111385357Y-109065271D01*
X111347261Y-109141461D01*
X111309166Y-109179557D01*
X111232976Y-109217652D01*
X111156785Y-109217652D01*
X111080595Y-109179557D01*
X111042500Y-109141461D01*
X111004404Y-109065271D01*
X111004404Y-108874795D01*
X111042500Y-108760509D01*
X111004404Y-108417652D02*
X111652023Y-108417652D01*
X111728214Y-108379557D01*
X111766309Y-108341461D01*
X111804404Y-108265271D01*
X111804404Y-108112890D01*
X111766309Y-108036700D01*
X111728214Y-107998604D01*
X111652023Y-107960509D01*
X111004404Y-107960509D01*
X111804404Y-107122414D02*
X111423452Y-107389080D01*
X111804404Y-107579557D02*
X111004404Y-107579557D01*
X111004404Y-107274795D01*
X111042500Y-107198604D01*
X111080595Y-107160509D01*
X111156785Y-107122414D01*
X111271071Y-107122414D01*
X111347261Y-107160509D01*
X111385357Y-107198604D01*
X111423452Y-107274795D01*
X111423452Y-107579557D01*
X111385357Y-106779557D02*
X111385357Y-106512890D01*
X111804404Y-106398604D02*
X111804404Y-106779557D01*
X111004404Y-106779557D01*
X111004404Y-106398604D01*
D10*
X148831300Y-124285600D02*
X149008900Y-124285600D01*
X146291300Y-124285600D02*
X146468900Y-124285600D01*
X148831300Y-121745600D02*
X149008900Y-121745600D01*
D12*
X110035357Y-71912890D02*
X110035357Y-71646223D01*
X110454404Y-71531938D02*
X110454404Y-71912890D01*
X109654404Y-71912890D01*
X109654404Y-71531938D01*
X110416309Y-71227176D02*
X110454404Y-71112890D01*
X110454404Y-70922414D01*
X110416309Y-70846223D01*
X110378214Y-70808128D01*
X110302023Y-70770033D01*
X110225833Y-70770033D01*
X110149642Y-70808128D01*
X110111547Y-70846223D01*
X110073452Y-70922414D01*
X110035357Y-71074795D01*
X109997261Y-71150985D01*
X109959166Y-71189080D01*
X109882976Y-71227176D01*
X109806785Y-71227176D01*
X109730595Y-71189080D01*
X109692500Y-71150985D01*
X109654404Y-71074795D01*
X109654404Y-70884319D01*
X109692500Y-70770033D01*
X110454404Y-70427176D02*
X109654404Y-70427176D01*
X109654404Y-70122414D01*
X109692500Y-70046223D01*
X109730595Y-70008128D01*
X109806785Y-69970033D01*
X109921071Y-69970033D01*
X109997261Y-70008128D01*
X110035357Y-70046223D01*
X110073452Y-70122414D01*
X110073452Y-70427176D01*
X109654404Y-69703366D02*
X109654404Y-69208128D01*
X109959166Y-69474795D01*
X109959166Y-69360509D01*
X109997261Y-69284319D01*
X110035357Y-69246223D01*
X110111547Y-69208128D01*
X110302023Y-69208128D01*
X110378214Y-69246223D01*
X110416309Y-69284319D01*
X110454404Y-69360509D01*
X110454404Y-69589080D01*
X110416309Y-69665271D01*
X110378214Y-69703366D01*
X109730595Y-68903366D02*
X109692500Y-68865271D01*
X109654404Y-68789080D01*
X109654404Y-68598604D01*
X109692500Y-68522414D01*
X109730595Y-68484319D01*
X109806785Y-68446223D01*
X109882976Y-68446223D01*
X109997261Y-68484319D01*
X110454404Y-68941461D01*
X110454404Y-68446223D01*
X110378214Y-67036700D02*
X110416309Y-67074795D01*
X110454404Y-67189080D01*
X110454404Y-67265271D01*
X110416309Y-67379557D01*
X110340119Y-67455747D01*
X110263928Y-67493842D01*
X110111547Y-67531938D01*
X109997261Y-67531938D01*
X109844880Y-67493842D01*
X109768690Y-67455747D01*
X109692500Y-67379557D01*
X109654404Y-67265271D01*
X109654404Y-67189080D01*
X109692500Y-67074795D01*
X109730595Y-67036700D01*
X110225833Y-66731938D02*
X110225833Y-66350985D01*
X110454404Y-66808128D02*
X109654404Y-66541461D01*
X110454404Y-66274795D01*
X110454404Y-66008128D02*
X109654404Y-66008128D01*
X110225833Y-65741461D01*
X109654404Y-65474795D01*
X110454404Y-65474795D01*
X110454404Y-64484319D02*
X109654404Y-64484319D01*
X109654404Y-64179557D01*
X109692500Y-64103366D01*
X109730595Y-64065271D01*
X109806785Y-64027176D01*
X109921071Y-64027176D01*
X109997261Y-64065271D01*
X110035357Y-64103366D01*
X110073452Y-64179557D01*
X110073452Y-64484319D01*
X110454404Y-63227176D02*
X110073452Y-63493842D01*
X110454404Y-63684319D02*
X109654404Y-63684319D01*
X109654404Y-63379557D01*
X109692500Y-63303366D01*
X109730595Y-63265271D01*
X109806785Y-63227176D01*
X109921071Y-63227176D01*
X109997261Y-63265271D01*
X110035357Y-63303366D01*
X110073452Y-63379557D01*
X110073452Y-63684319D01*
X109654404Y-62731938D02*
X109654404Y-62579557D01*
X109692500Y-62503366D01*
X109768690Y-62427176D01*
X109921071Y-62389080D01*
X110187738Y-62389080D01*
X110340119Y-62427176D01*
X110416309Y-62503366D01*
X110454404Y-62579557D01*
X110454404Y-62731938D01*
X110416309Y-62808128D01*
X110340119Y-62884319D01*
X110187738Y-62922414D01*
X109921071Y-62922414D01*
X109768690Y-62884319D01*
X109692500Y-62808128D01*
X109654404Y-62731938D01*
X109654404Y-62160509D02*
X109654404Y-61703366D01*
X110454404Y-61931938D02*
X109654404Y-61931938D01*
X109654404Y-61284319D02*
X109654404Y-61131938D01*
X109692500Y-61055747D01*
X109768690Y-60979557D01*
X109921071Y-60941461D01*
X110187738Y-60941461D01*
X110340119Y-60979557D01*
X110416309Y-61055747D01*
X110454404Y-61131938D01*
X110454404Y-61284319D01*
X110416309Y-61360509D01*
X110340119Y-61436700D01*
X110187738Y-61474795D01*
X109921071Y-61474795D01*
X109768690Y-61436700D01*
X109692500Y-61360509D01*
X109654404Y-61284319D01*
X109654404Y-60712890D02*
X109654404Y-60255747D01*
X110454404Y-60484319D02*
X109654404Y-60484319D01*
X110073452Y-59836700D02*
X110454404Y-59836700D01*
X109654404Y-60103366D02*
X110073452Y-59836700D01*
X109654404Y-59570033D01*
X110454404Y-59303366D02*
X109654404Y-59303366D01*
X109654404Y-58998604D01*
X109692500Y-58922414D01*
X109730595Y-58884319D01*
X109806785Y-58846223D01*
X109921071Y-58846223D01*
X109997261Y-58884319D01*
X110035357Y-58922414D01*
X110073452Y-58998604D01*
X110073452Y-59303366D01*
X110035357Y-58503366D02*
X110035357Y-58236700D01*
X110454404Y-58122414D02*
X110454404Y-58503366D01*
X109654404Y-58503366D01*
X109654404Y-58122414D01*
X111347261Y-72522414D02*
X111309166Y-72598604D01*
X111271071Y-72636700D01*
X111194880Y-72674795D01*
X111156785Y-72674795D01*
X111080595Y-72636700D01*
X111042500Y-72598604D01*
X111004404Y-72522414D01*
X111004404Y-72370033D01*
X111042500Y-72293842D01*
X111080595Y-72255747D01*
X111156785Y-72217652D01*
X111194880Y-72217652D01*
X111271071Y-72255747D01*
X111309166Y-72293842D01*
X111347261Y-72370033D01*
X111347261Y-72522414D01*
X111385357Y-72598604D01*
X111423452Y-72636700D01*
X111499642Y-72674795D01*
X111652023Y-72674795D01*
X111728214Y-72636700D01*
X111766309Y-72598604D01*
X111804404Y-72522414D01*
X111804404Y-72370033D01*
X111766309Y-72293842D01*
X111728214Y-72255747D01*
X111652023Y-72217652D01*
X111499642Y-72217652D01*
X111423452Y-72255747D01*
X111385357Y-72293842D01*
X111347261Y-72370033D01*
X111004404Y-71950985D02*
X111004404Y-71455747D01*
X111309166Y-71722414D01*
X111309166Y-71608128D01*
X111347261Y-71531938D01*
X111385357Y-71493842D01*
X111461547Y-71455747D01*
X111652023Y-71455747D01*
X111728214Y-71493842D01*
X111766309Y-71531938D01*
X111804404Y-71608128D01*
X111804404Y-71836700D01*
X111766309Y-71912890D01*
X111728214Y-71950985D01*
X111804404Y-71189080D02*
X111271071Y-70770033D01*
X111271071Y-71189080D02*
X111804404Y-70770033D01*
X111004404Y-70084319D02*
X111004404Y-70465271D01*
X111385357Y-70503366D01*
X111347261Y-70465271D01*
X111309166Y-70389080D01*
X111309166Y-70198604D01*
X111347261Y-70122414D01*
X111385357Y-70084319D01*
X111461547Y-70046223D01*
X111652023Y-70046223D01*
X111728214Y-70084319D01*
X111766309Y-70122414D01*
X111804404Y-70198604D01*
X111804404Y-70389080D01*
X111766309Y-70465271D01*
X111728214Y-70503366D01*
X111347261Y-69589080D02*
X111309166Y-69665271D01*
X111271071Y-69703366D01*
X111194880Y-69741461D01*
X111156785Y-69741461D01*
X111080595Y-69703366D01*
X111042500Y-69665271D01*
X111004404Y-69589080D01*
X111004404Y-69436700D01*
X111042500Y-69360509D01*
X111080595Y-69322414D01*
X111156785Y-69284319D01*
X111194880Y-69284319D01*
X111271071Y-69322414D01*
X111309166Y-69360509D01*
X111347261Y-69436700D01*
X111347261Y-69589080D01*
X111385357Y-69665271D01*
X111423452Y-69703366D01*
X111499642Y-69741461D01*
X111652023Y-69741461D01*
X111728214Y-69703366D01*
X111766309Y-69665271D01*
X111804404Y-69589080D01*
X111804404Y-69436700D01*
X111766309Y-69360509D01*
X111728214Y-69322414D01*
X111652023Y-69284319D01*
X111499642Y-69284319D01*
X111423452Y-69322414D01*
X111385357Y-69360509D01*
X111347261Y-69436700D01*
X111804404Y-69017652D02*
X111271071Y-68598604D01*
X111271071Y-69017652D02*
X111804404Y-68598604D01*
X111004404Y-68370033D02*
X111004404Y-67874795D01*
X111309166Y-68141461D01*
X111309166Y-68027176D01*
X111347261Y-67950985D01*
X111385357Y-67912890D01*
X111461547Y-67874795D01*
X111652023Y-67874795D01*
X111728214Y-67912890D01*
X111766309Y-67950985D01*
X111804404Y-68027176D01*
X111804404Y-68255747D01*
X111766309Y-68331938D01*
X111728214Y-68370033D01*
X111004404Y-67608128D02*
X111004404Y-67112890D01*
X111309166Y-67379557D01*
X111309166Y-67265271D01*
X111347261Y-67189080D01*
X111385357Y-67150985D01*
X111461547Y-67112890D01*
X111652023Y-67112890D01*
X111728214Y-67150985D01*
X111766309Y-67189080D01*
X111804404Y-67265271D01*
X111804404Y-67493842D01*
X111766309Y-67570033D01*
X111728214Y-67608128D01*
X111804404Y-66770033D02*
X111271071Y-66770033D01*
X111347261Y-66770033D02*
X111309166Y-66731938D01*
X111271071Y-66655747D01*
X111271071Y-66541461D01*
X111309166Y-66465271D01*
X111385357Y-66427176D01*
X111804404Y-66427176D01*
X111385357Y-66427176D02*
X111309166Y-66389080D01*
X111271071Y-66312890D01*
X111271071Y-66198604D01*
X111309166Y-66122414D01*
X111385357Y-66084319D01*
X111804404Y-66084319D01*
X111804404Y-65703366D02*
X111271071Y-65703366D01*
X111347261Y-65703366D02*
X111309166Y-65665271D01*
X111271071Y-65589080D01*
X111271071Y-65474795D01*
X111309166Y-65398604D01*
X111385357Y-65360509D01*
X111804404Y-65360509D01*
X111385357Y-65360509D02*
X111309166Y-65322414D01*
X111271071Y-65246223D01*
X111271071Y-65131938D01*
X111309166Y-65055747D01*
X111385357Y-65017652D01*
X111804404Y-65017652D01*
X111385357Y-64027176D02*
X111385357Y-63760509D01*
X111804404Y-63646223D02*
X111804404Y-64027176D01*
X111004404Y-64027176D01*
X111004404Y-63646223D01*
X111804404Y-63303366D02*
X111004404Y-63303366D01*
X111804404Y-62846223D01*
X111004404Y-62846223D01*
X111728214Y-62008128D02*
X111766309Y-62046223D01*
X111804404Y-62160509D01*
X111804404Y-62236700D01*
X111766309Y-62350985D01*
X111690119Y-62427176D01*
X111613928Y-62465271D01*
X111461547Y-62503366D01*
X111347261Y-62503366D01*
X111194880Y-62465271D01*
X111118690Y-62427176D01*
X111042500Y-62350985D01*
X111004404Y-62236700D01*
X111004404Y-62160509D01*
X111042500Y-62046223D01*
X111080595Y-62008128D01*
X111804404Y-61284319D02*
X111804404Y-61665271D01*
X111004404Y-61665271D01*
X111004404Y-60865271D02*
X111004404Y-60712890D01*
X111042500Y-60636700D01*
X111118690Y-60560509D01*
X111271071Y-60522414D01*
X111537738Y-60522414D01*
X111690119Y-60560509D01*
X111766309Y-60636700D01*
X111804404Y-60712890D01*
X111804404Y-60865271D01*
X111766309Y-60941461D01*
X111690119Y-61017652D01*
X111537738Y-61055747D01*
X111271071Y-61055747D01*
X111118690Y-61017652D01*
X111042500Y-60941461D01*
X111004404Y-60865271D01*
X111766309Y-60217652D02*
X111804404Y-60103366D01*
X111804404Y-59912890D01*
X111766309Y-59836700D01*
X111728214Y-59798604D01*
X111652023Y-59760509D01*
X111575833Y-59760509D01*
X111499642Y-59798604D01*
X111461547Y-59836700D01*
X111423452Y-59912890D01*
X111385357Y-60065271D01*
X111347261Y-60141461D01*
X111309166Y-60179557D01*
X111232976Y-60217652D01*
X111156785Y-60217652D01*
X111080595Y-60179557D01*
X111042500Y-60141461D01*
X111004404Y-60065271D01*
X111004404Y-59874795D01*
X111042500Y-59760509D01*
X111004404Y-59417652D02*
X111652023Y-59417652D01*
X111728214Y-59379557D01*
X111766309Y-59341461D01*
X111804404Y-59265271D01*
X111804404Y-59112890D01*
X111766309Y-59036700D01*
X111728214Y-58998604D01*
X111652023Y-58960509D01*
X111004404Y-58960509D01*
X111804404Y-58122414D02*
X111423452Y-58389080D01*
X111804404Y-58579557D02*
X111004404Y-58579557D01*
X111004404Y-58274795D01*
X111042500Y-58198604D01*
X111080595Y-58160509D01*
X111156785Y-58122414D01*
X111271071Y-58122414D01*
X111347261Y-58160509D01*
X111385357Y-58198604D01*
X111423452Y-58274795D01*
X111423452Y-58579557D01*
X111385357Y-57779557D02*
X111385357Y-57512890D01*
X111804404Y-57398604D02*
X111804404Y-57779557D01*
X111004404Y-57779557D01*
X111004404Y-57398604D01*
D10*
X148831300Y-75285600D02*
X149008900Y-75285600D01*
X146291300Y-75285600D02*
X146468900Y-75285600D01*
X148831300Y-72745600D02*
X149008900Y-72745600D01*
X146291300Y-72745600D02*
X146468900Y-72745600D01*
X148831300Y-70205600D02*
X149008900Y-70205600D01*
X146291300Y-70205600D02*
X146468900Y-70205600D01*
X148831300Y-67665600D02*
X149008900Y-67665600D01*
X146291300Y-67665600D02*
X146468900Y-67665600D01*
X148831300Y-65125600D02*
X149008900Y-65125600D01*
X146291300Y-65125600D02*
X146468900Y-65125600D01*
X148831300Y-62585600D02*
X149008900Y-62585600D01*
X146291300Y-62585600D02*
X146468900Y-62585600D01*
X157797500Y-73952100D02*
X157797500Y-74129700D01*
X155257500Y-73952100D02*
X155257500Y-74129700D01*
X157797500Y-71412100D02*
X157797500Y-71589700D01*
X155257500Y-71412100D02*
X155257500Y-71589700D01*
X157797500Y-68872100D02*
X157797500Y-69049700D01*
X155257500Y-68872100D02*
X155257500Y-69049700D01*
X157797500Y-66332100D02*
X157797500Y-66509700D01*
X155257500Y-66332100D02*
X155257500Y-66509700D01*
X157797500Y-63792100D02*
X157797500Y-63969700D01*
X155257500Y-63792100D02*
X155257500Y-63969700D01*
X157797500Y-61252100D02*
X157797500Y-61429700D01*
X155257500Y-61252100D02*
X155257500Y-61429700D01*
X157797500Y-58712100D02*
X157797500Y-58889700D01*
X155257500Y-58712100D02*
X155257500Y-58889700D01*
X157797500Y-56172100D02*
X157797500Y-56349700D01*
X155257500Y-56172100D02*
X155257500Y-56349700D01*
X151371500Y-75298300D02*
X151549100Y-75298300D01*
X151371500Y-72758300D02*
X151549100Y-72758300D01*
X151371500Y-70218300D02*
X151549100Y-70218300D01*
X151371500Y-67678300D02*
X151549100Y-67678300D01*
X151371500Y-65138300D02*
X151549100Y-65138300D01*
X151371500Y-62598300D02*
X151549100Y-62598300D01*
X151371500Y-60058300D02*
X151549100Y-60058300D01*
X151371500Y-57518300D02*
X151549100Y-57518300D01*
X151371500Y-54978300D02*
X151549100Y-54978300D01*
X161506100Y-75285600D02*
X161683700Y-75285600D01*
X161506100Y-72745600D02*
X161683700Y-72745600D01*
X161506100Y-70205600D02*
X161683700Y-70205600D01*
X161506100Y-67665600D02*
X161683700Y-67665600D01*
X161506100Y-65125600D02*
X161683700Y-65125600D01*
X161506100Y-62585600D02*
X161683700Y-62585600D01*
X161506100Y-60045600D02*
X161683700Y-60045600D01*
X161506100Y-57505600D02*
X161683700Y-57505600D01*
X161506100Y-54965600D02*
X161683700Y-54965600D01*
X162877500Y-81585000D02*
X162877500Y-81762600D01*
X160337500Y-81585000D02*
X160337500Y-81762600D01*
X157797500Y-81585000D02*
X157797500Y-81762600D01*
X155257500Y-81585000D02*
X155257500Y-81762600D01*
X152717500Y-81585000D02*
X152717500Y-81762600D01*
X162877500Y-79045000D02*
X162877500Y-79222600D01*
X160337500Y-79045000D02*
X160337500Y-79222600D01*
X157797500Y-79045000D02*
X157797500Y-79222600D01*
X155257500Y-79045000D02*
X155257500Y-79222600D01*
X152717500Y-79045000D02*
X152717500Y-79222600D01*
X161544000Y-87985600D02*
X161721600Y-87985600D01*
X159004000Y-87985600D02*
X159181600Y-87985600D01*
X156464000Y-87985600D02*
X156641600Y-87985600D01*
X153924000Y-87985600D02*
X154101600Y-87985600D01*
X151384000Y-87985600D02*
X151561600Y-87985600D01*
X148844000Y-87985600D02*
X149021600Y-87985600D01*
X146304000Y-87985600D02*
X146481600Y-87985600D01*
X143764000Y-87985600D02*
X143941600Y-87985600D01*
X141224000Y-87985600D02*
X141401600Y-87985600D01*
X138684000Y-87985600D02*
X138861600Y-87985600D01*
X136144000Y-87985600D02*
X136321600Y-87985600D01*
X133604000Y-87985600D02*
X133781600Y-87985600D01*
X131064000Y-87985600D02*
X131241600Y-87985600D01*
X128524000Y-87985600D02*
X128701600Y-87985600D01*
X125984000Y-87985600D02*
X126161600Y-87985600D01*
X123444000Y-87985600D02*
X123621600Y-87985600D01*
X120904000Y-87985600D02*
X121081600Y-87985600D01*
X118364000Y-87985600D02*
X118541600Y-87985600D01*
X115824000Y-87985600D02*
X116001600Y-87985600D01*
X113284000Y-87985600D02*
X113461600Y-87985600D01*
X161544000Y-85445600D02*
X161721600Y-85445600D01*
X159004000Y-85445600D02*
X159181600Y-85445600D01*
X156464000Y-85445600D02*
X156641600Y-85445600D01*
X153924000Y-85445600D02*
X154101600Y-85445600D01*
X151384000Y-85445600D02*
X151561600Y-85445600D01*
X148844000Y-85445600D02*
X149021600Y-85445600D01*
X146304000Y-85445600D02*
X146481600Y-85445600D01*
X143764000Y-85445600D02*
X143941600Y-85445600D01*
X141224000Y-85445600D02*
X141401600Y-85445600D01*
X138684000Y-85445600D02*
X138861600Y-85445600D01*
X136144000Y-85445600D02*
X136321600Y-85445600D01*
X133604000Y-85445600D02*
X133781600Y-85445600D01*
X131064000Y-85445600D02*
X131241600Y-85445600D01*
X128524000Y-85445600D02*
X128701600Y-85445600D01*
X125984000Y-85445600D02*
X126161600Y-85445600D01*
X123444000Y-85445600D02*
X123621600Y-85445600D01*
X120904000Y-85445600D02*
X121081600Y-85445600D01*
X118364000Y-85445600D02*
X118541600Y-85445600D01*
X115824000Y-85445600D02*
X116001600Y-85445600D01*
X113284000Y-85445600D02*
X113461600Y-85445600D01*
X162877500Y-96799400D02*
X162877500Y-96977000D01*
X160337500Y-96799400D02*
X160337500Y-96977000D01*
X157797500Y-96799400D02*
X157797500Y-96977000D01*
X155257500Y-96799400D02*
X155257500Y-96977000D01*
X152717500Y-96799400D02*
X152717500Y-96977000D01*
X150177500Y-96799400D02*
X150177500Y-96977000D01*
X147637500Y-96799400D02*
X147637500Y-96977000D01*
X145097500Y-96799400D02*
X145097500Y-96977000D01*
X142557500Y-96799400D02*
X142557500Y-96977000D01*
X140017500Y-96799400D02*
X140017500Y-96977000D01*
X137477500Y-96799400D02*
X137477500Y-96977000D01*
X134937500Y-96799400D02*
X134937500Y-96977000D01*
X132397500Y-96799400D02*
X132397500Y-96977000D01*
X129857500Y-96799400D02*
X129857500Y-96977000D01*
X127317500Y-96799400D02*
X127317500Y-96977000D01*
X124777500Y-96799400D02*
X124777500Y-96977000D01*
X122237500Y-96799400D02*
X122237500Y-96977000D01*
X162877500Y-94259400D02*
X162877500Y-94437000D01*
X160337500Y-94259400D02*
X160337500Y-94437000D01*
X157797500Y-94259400D02*
X157797500Y-94437000D01*
X155257500Y-94259400D02*
X155257500Y-94437000D01*
X152717500Y-94259400D02*
X152717500Y-94437000D01*
X150177500Y-94259400D02*
X150177500Y-94437000D01*
X147637500Y-94259400D02*
X147637500Y-94437000D01*
X145097500Y-94259400D02*
X145097500Y-94437000D01*
X142557500Y-94259400D02*
X142557500Y-94437000D01*
X140017500Y-94259400D02*
X140017500Y-94437000D01*
X137477500Y-94259400D02*
X137477500Y-94437000D01*
X134937500Y-94259400D02*
X134937500Y-94437000D01*
X132397500Y-94259400D02*
X132397500Y-94437000D01*
X129857500Y-94259400D02*
X129857500Y-94437000D01*
X127317500Y-94259400D02*
X127317500Y-94437000D01*
X124777500Y-94259400D02*
X124777500Y-94437000D01*
X122237500Y-94259400D02*
X122237500Y-94437000D01*
X162877500Y-91719400D02*
X162877500Y-91897000D01*
X160337500Y-91719400D02*
X160337500Y-91897000D01*
X157797500Y-91719400D02*
X157797500Y-91897000D01*
X155257500Y-91719400D02*
X155257500Y-91897000D01*
X152717500Y-91719400D02*
X152717500Y-91897000D01*
X150177500Y-91719400D02*
X150177500Y-91897000D01*
X147637500Y-91719400D02*
X147637500Y-91897000D01*
X145097500Y-91719400D02*
X145097500Y-91897000D01*
X142557500Y-91719400D02*
X142557500Y-91897000D01*
X140017500Y-91719400D02*
X140017500Y-91897000D01*
X137477500Y-91719400D02*
X137477500Y-91897000D01*
X134937500Y-91719400D02*
X134937500Y-91897000D01*
X132397500Y-91719400D02*
X132397500Y-91897000D01*
X129857500Y-91719400D02*
X129857500Y-91897000D01*
X127317500Y-91719400D02*
X127317500Y-91897000D01*
X124777500Y-91719400D02*
X124777500Y-91897000D01*
X122237500Y-91719400D02*
X122237500Y-91897000D01*
X170510200Y-89839800D02*
X166890700Y-89839800D01*
X170484800Y-86347300D02*
X166865300Y-86347300D01*
X170510200Y-82867500D02*
X166890700Y-82867500D01*
X170510200Y-70256400D02*
X166890700Y-70256400D01*
X170510200Y-66751200D02*
X166890700Y-66751200D01*
X170497500Y-63258700D02*
X166878000Y-63258700D01*
D11*
X126049400Y-53697500D02*
X148909400Y-53697500D01*
X126049400Y-61336600D02*
X126049400Y-53697500D01*
X113349400Y-61336600D02*
X126049400Y-61336600D01*
X113349400Y-84177500D02*
X113349400Y-61336600D01*
X151449400Y-84177500D02*
X113349400Y-84177500D01*
X151449400Y-76557500D02*
X151449400Y-84177500D01*
X143829400Y-76557500D02*
X151449400Y-76557500D01*
X143829400Y-61317500D02*
X143829400Y-76557500D01*
X143829400Y-61317500D02*
X148909400Y-61317500D01*
X148909400Y-53697500D02*
X148909400Y-61317500D01*
D10*
X128308100Y-81885200D02*
X128676400Y-81516900D01*
X138493500Y-81910600D02*
X138861800Y-81542300D01*
X148551900Y-79434100D02*
X149161500Y-78837200D01*
X141528800Y-81936000D02*
X141160500Y-81567700D01*
X128714500Y-79230900D02*
X128346200Y-78862600D01*
X145999200Y-79497600D02*
X146646900Y-78837200D01*
X143459200Y-79472200D02*
X144106900Y-78811800D01*
X135966200Y-81897900D02*
X136613900Y-81237500D01*
X133388100Y-81910600D02*
X134035800Y-81250200D01*
X130848100Y-81897900D02*
X131495800Y-81237500D01*
X144106900Y-81923300D02*
X143446500Y-81275600D01*
X146646900Y-81910600D02*
X145986500Y-81262900D01*
X149186900Y-81948700D02*
X148526500Y-81301000D01*
X136575800Y-79484900D02*
X135915400Y-78837200D01*
X134086600Y-79497600D02*
X133426200Y-78849900D01*
X131559300Y-79472200D02*
X130898900Y-78824500D01*
X141135300Y-77821200D02*
X141312900Y-77821200D01*
X138747700Y-77821200D02*
X138925300Y-77821200D01*
X141122400Y-75293900D02*
X141300000Y-75293900D01*
X138734800Y-75306600D02*
X138912400Y-75306600D01*
X141122600Y-72741200D02*
X141300200Y-72741200D01*
X138734800Y-72753900D02*
X138912400Y-72753900D01*
X141122600Y-70201200D02*
X141300200Y-70201200D01*
X138734800Y-70201200D02*
X138912400Y-70201200D01*
X141122400Y-67673900D02*
X141300000Y-67673900D01*
X138734800Y-67673900D02*
X138912400Y-67673900D01*
X141122600Y-65133900D02*
X141300200Y-65133900D01*
X138735000Y-65121200D02*
X138912600Y-65121200D01*
X141135300Y-62581200D02*
X141312900Y-62581200D01*
X138735000Y-62581200D02*
X138912600Y-62581200D01*
X118262300Y-80373900D02*
X118439900Y-80373900D01*
X115874700Y-80361200D02*
X116052300Y-80361200D01*
X118262600Y-77833900D02*
X118440200Y-77833900D01*
X115874800Y-77821200D02*
X116052400Y-77821200D01*
X118262600Y-75293900D02*
X118440200Y-75293900D01*
X115875000Y-75281200D02*
X116052600Y-75281200D01*
X118262600Y-72753900D02*
X118440200Y-72753900D01*
X115874800Y-72753900D02*
X116052400Y-72753900D01*
X118275300Y-70188500D02*
X118452900Y-70188500D01*
X115875000Y-70213900D02*
X116052600Y-70213900D01*
X118262600Y-67673900D02*
X118440200Y-67673900D01*
X115874800Y-67661200D02*
X116052400Y-67661200D01*
X118275300Y-65133900D02*
X118452900Y-65133900D01*
X115887500Y-65121200D02*
X116065100Y-65121200D01*
X118275300Y-62593900D02*
X118452900Y-62593900D01*
X115887500Y-62593900D02*
X116065100Y-62593900D01*
X129857500Y-58618800D02*
X129857500Y-58796400D01*
X132410200Y-58619000D02*
X132410200Y-58796600D01*
X134924800Y-58619000D02*
X134924800Y-58796600D01*
X137477500Y-58606300D02*
X137477500Y-58783900D01*
X140030200Y-58618800D02*
X140030200Y-58796400D01*
X142557500Y-58618800D02*
X142557500Y-58796400D01*
X147637500Y-58619000D02*
X147637500Y-58796600D01*
X145097500Y-58619000D02*
X145097500Y-58796600D01*
X147637500Y-56218700D02*
X147637500Y-56396300D01*
X145097500Y-56231400D02*
X145097500Y-56409000D01*
X142544800Y-56218700D02*
X142544800Y-56396300D01*
X140004800Y-56231400D02*
X140004800Y-56409000D01*
X137464800Y-56218700D02*
X137464800Y-56396300D01*
X134924800Y-56206000D02*
X134924800Y-56383600D01*
X132384800Y-56193300D02*
X132384800Y-56370900D01*
X129844800Y-56193100D02*
X129844800Y-56370700D01*
D13*
G36*
X125840531Y-117455986D02*
G01*
X126285155Y-117372165D01*
X126412653Y-117062880D01*
X126540151Y-116753594D01*
X126287846Y-116382554D01*
X126217596Y-116278643D01*
X126154872Y-116184713D01*
X126102538Y-116105148D01*
X126063457Y-116044330D01*
X126040493Y-116006643D01*
X126035542Y-115996379D01*
X126048276Y-115977890D01*
X126083482Y-115938380D01*
X126136662Y-115882278D01*
X126203318Y-115814013D01*
X126278954Y-115738014D01*
X126359072Y-115658708D01*
X126439174Y-115580525D01*
X126514764Y-115507893D01*
X126581345Y-115445241D01*
X126634418Y-115396997D01*
X126669487Y-115367590D01*
X126681223Y-115360559D01*
X126702860Y-115370677D01*
X126750262Y-115399041D01*
X126818793Y-115442671D01*
X126903815Y-115498582D01*
X127000693Y-115563794D01*
X127055950Y-115601581D01*
X127156848Y-115670457D01*
X127247899Y-115731660D01*
X127324570Y-115782222D01*
X127382328Y-115819172D01*
X127416643Y-115839542D01*
X127423854Y-115842603D01*
X127444348Y-115835664D01*
X127492113Y-115816749D01*
X127560432Y-115788713D01*
X127642589Y-115754409D01*
X127731870Y-115716691D01*
X127821558Y-115678413D01*
X127904938Y-115642430D01*
X127975294Y-115611594D01*
X128025910Y-115588761D01*
X128050071Y-115576783D01*
X128051022Y-115576076D01*
X128055636Y-115557269D01*
X128065928Y-115507182D01*
X128080887Y-115431007D01*
X128099501Y-115333935D01*
X128120759Y-115221157D01*
X128133018Y-115155358D01*
X128155962Y-115034850D01*
X128177795Y-114926003D01*
X128197322Y-114834324D01*
X128213348Y-114765319D01*
X128224679Y-114724496D01*
X128228274Y-114716289D01*
X128252606Y-114708252D01*
X128307559Y-114701767D01*
X128386708Y-114696830D01*
X128483626Y-114693436D01*
X128591887Y-114691582D01*
X128705065Y-114691262D01*
X128816735Y-114692473D01*
X128920468Y-114695210D01*
X129009841Y-114699469D01*
X129078426Y-114705245D01*
X129119797Y-114712533D01*
X129128410Y-114716905D01*
X129138733Y-114743036D01*
X129153492Y-114798407D01*
X129170952Y-114875693D01*
X129189380Y-114967570D01*
X129195341Y-114999642D01*
X129223666Y-115154276D01*
X129246476Y-115276425D01*
X129264680Y-115370127D01*
X129279183Y-115439416D01*
X129290892Y-115488329D01*
X129300715Y-115520903D01*
X129309556Y-115541172D01*
X129318324Y-115553174D01*
X129320057Y-115554853D01*
X129347971Y-115571616D01*
X129402295Y-115597186D01*
X129476377Y-115629012D01*
X129563565Y-115664540D01*
X129657208Y-115701217D01*
X129750652Y-115736489D01*
X129837247Y-115767804D01*
X129910340Y-115792607D01*
X129963278Y-115808346D01*
X129989411Y-115812468D01*
X129990326Y-115812124D01*
X130011686Y-115798159D01*
X130058684Y-115766478D01*
X130126427Y-115720409D01*
X130210023Y-115663282D01*
X130304582Y-115598427D01*
X130331454Y-115579957D01*
X130428875Y-115514101D01*
X130517763Y-115456150D01*
X130593012Y-115409262D01*
X130649520Y-115376593D01*
X130682181Y-115361300D01*
X130686193Y-115360559D01*
X130707284Y-115373408D01*
X130749064Y-115408912D01*
X130807045Y-115462507D01*
X130876735Y-115529629D01*
X130953645Y-115605713D01*
X131033283Y-115686196D01*
X131111161Y-115766513D01*
X131182786Y-115842101D01*
X131243670Y-115908395D01*
X131289321Y-115960831D01*
X131315250Y-115994845D01*
X131319483Y-116004255D01*
X131309512Y-116026157D01*
X131282620Y-116071000D01*
X131243336Y-116131479D01*
X131211717Y-116178011D01*
X131153698Y-116262325D01*
X131085384Y-116362174D01*
X131017179Y-116462327D01*
X130980675Y-116516173D01*
X130857400Y-116698429D01*
X130940120Y-116851419D01*
X130976359Y-116921118D01*
X131004526Y-116980386D01*
X131020591Y-117020489D01*
X131022826Y-117030697D01*
X131006322Y-117042971D01*
X130959682Y-117067187D01*
X130887209Y-117101537D01*
X130793206Y-117144212D01*
X130681974Y-117193406D01*
X130557815Y-117247310D01*
X130425032Y-117304116D01*
X130287927Y-117362018D01*
X130150802Y-117419207D01*
X130017958Y-117473876D01*
X129893698Y-117524216D01*
X129782325Y-117568420D01*
X129688139Y-117604681D01*
X129615444Y-117631191D01*
X129568541Y-117646142D01*
X129552433Y-117648546D01*
X129531886Y-117629489D01*
X129498533Y-117587764D01*
X129459302Y-117532094D01*
X129456199Y-117527422D01*
X129341023Y-117383536D01*
X129206653Y-117267517D01*
X129057384Y-117180370D01*
X128897513Y-117123101D01*
X128731337Y-117096714D01*
X128563152Y-117102215D01*
X128397255Y-117140610D01*
X128237942Y-117212905D01*
X128203087Y-117234174D01*
X128062337Y-117344804D01*
X127949314Y-117475498D01*
X127864603Y-117621736D01*
X127808794Y-117778992D01*
X127782474Y-117942743D01*
X127786230Y-118108467D01*
X127820650Y-118271638D01*
X127886323Y-118427735D01*
X127983835Y-118572233D01*
X128023413Y-118616931D01*
X128147303Y-118730688D01*
X128277724Y-118813582D01*
X128423915Y-118870444D01*
X128568688Y-118902113D01*
X128731460Y-118909931D01*
X128895040Y-118883862D01*
X129053898Y-118826555D01*
X129202506Y-118740656D01*
X129335335Y-118628814D01*
X129446856Y-118493677D01*
X129458611Y-118475917D01*
X129497108Y-118419650D01*
X129530463Y-118376877D01*
X129551760Y-118356428D01*
X129552433Y-118356131D01*
X129575471Y-118360521D01*
X129627757Y-118377924D01*
X129704990Y-118406532D01*
X129802868Y-118444535D01*
X129917091Y-118490126D01*
X130043358Y-118541497D01*
X130177367Y-118596838D01*
X130314818Y-118654342D01*
X130451408Y-118712199D01*
X130582837Y-118768602D01*
X130704805Y-118821742D01*
X130813009Y-118869810D01*
X130903149Y-118910999D01*
X130970923Y-118943499D01*
X131012030Y-118965503D01*
X131022826Y-118974364D01*
X131014419Y-119001440D01*
X130991872Y-119052103D01*
X130959213Y-119117617D01*
X130940120Y-119153641D01*
X130857400Y-119306632D01*
X130980675Y-119488888D01*
X131043828Y-119581925D01*
X131113327Y-119683785D01*
X131178765Y-119779238D01*
X131211717Y-119827050D01*
X131256873Y-119894295D01*
X131292657Y-119951236D01*
X131314538Y-119990446D01*
X131319163Y-120003181D01*
X131306685Y-120021717D01*
X131271852Y-120062741D01*
X131218278Y-120122275D01*
X131149583Y-120196342D01*
X131069381Y-120280965D01*
X131017886Y-120334485D01*
X130925886Y-120428119D01*
X130843599Y-120509041D01*
X130774545Y-120573977D01*
X130722244Y-120619658D01*
X130690216Y-120642811D01*
X130683716Y-120645032D01*
X130658994Y-120634724D01*
X130609005Y-120606239D01*
X130538812Y-120562737D01*
X130453475Y-120507377D01*
X130358056Y-120443320D01*
X130331454Y-120425103D01*
X130234767Y-120358727D01*
X130147717Y-120299178D01*
X130075195Y-120249784D01*
X130022093Y-120213875D01*
X129993303Y-120194781D01*
X129990326Y-120192936D01*
X129967382Y-120195695D01*
X129916936Y-120210338D01*
X129845641Y-120234313D01*
X129760147Y-120265066D01*
X129667107Y-120300044D01*
X129573174Y-120336693D01*
X129484999Y-120372461D01*
X129409234Y-120404794D01*
X129352531Y-120431138D01*
X129321543Y-120448942D01*
X129320057Y-120450207D01*
X129311201Y-120461094D01*
X129302443Y-120479482D01*
X129292877Y-120509406D01*
X129281596Y-120554903D01*
X129267693Y-120620009D01*
X129250263Y-120708761D01*
X129228398Y-120825193D01*
X129201191Y-120973342D01*
X129195341Y-121005418D01*
X129176974Y-121100486D01*
X129159005Y-121183365D01*
X129143169Y-121246730D01*
X129131200Y-121283258D01*
X129128410Y-121288156D01*
X129103672Y-121296227D01*
X129048390Y-121302787D01*
X128968989Y-121307833D01*
X128871896Y-121311359D01*
X128763538Y-121313361D01*
X128650340Y-121313836D01*
X128538728Y-121312777D01*
X128435129Y-121310182D01*
X128345968Y-121306046D01*
X128277672Y-121300363D01*
X128236666Y-121293131D01*
X128228274Y-121288771D01*
X128219808Y-121264498D01*
X128206035Y-121209226D01*
X128188150Y-121128462D01*
X128167348Y-121027712D01*
X128144823Y-120912483D01*
X128133018Y-120849702D01*
X128110751Y-120730587D01*
X128090579Y-120624365D01*
X128073515Y-120536227D01*
X128060569Y-120471366D01*
X128052755Y-120434974D01*
X128051022Y-120428984D01*
X128031490Y-120418861D01*
X127984443Y-120397462D01*
X127916603Y-120367639D01*
X127834691Y-120332245D01*
X127745428Y-120294132D01*
X127655535Y-120256153D01*
X127571735Y-120221160D01*
X127500747Y-120192006D01*
X127449294Y-120171543D01*
X127424097Y-120162623D01*
X127422996Y-120162457D01*
X127403119Y-120172569D01*
X127357377Y-120200917D01*
X127290317Y-120244523D01*
X127206484Y-120300406D01*
X127110426Y-120365587D01*
X127055250Y-120403479D01*
X126954081Y-120472525D01*
X126862230Y-120533850D01*
X126784344Y-120584463D01*
X126725069Y-120621371D01*
X126689051Y-120641582D01*
X126680977Y-120644501D01*
X126662184Y-120631953D01*
X126622057Y-120597263D01*
X126565093Y-120544863D01*
X126495785Y-120479184D01*
X126418631Y-120404656D01*
X126338125Y-120325713D01*
X126258763Y-120246783D01*
X126185040Y-120172300D01*
X126121452Y-120106694D01*
X126072494Y-120054396D01*
X126042661Y-120019839D01*
X126035542Y-120008278D01*
X126045553Y-119989454D01*
X126073678Y-119944431D01*
X126117054Y-119877587D01*
X126172818Y-119793299D01*
X126238106Y-119695944D01*
X126287846Y-119622507D01*
X126540151Y-119251467D01*
X126285155Y-118632895D01*
X125840531Y-118549075D01*
X125395907Y-118465254D01*
X125395907Y-117539806D01*
X125840531Y-117455986D01*
G37*
X125840531Y-117455986D02*
X126285155Y-117372165D01*
X126412653Y-117062880D01*
X126540151Y-116753594D01*
X126287846Y-116382554D01*
X126217596Y-116278643D01*
X126154872Y-116184713D01*
X126102538Y-116105148D01*
X126063457Y-116044330D01*
X126040493Y-116006643D01*
X126035542Y-115996379D01*
X126048276Y-115977890D01*
X126083482Y-115938380D01*
X126136662Y-115882278D01*
X126203318Y-115814013D01*
X126278954Y-115738014D01*
X126359072Y-115658708D01*
X126439174Y-115580525D01*
X126514764Y-115507893D01*
X126581345Y-115445241D01*
X126634418Y-115396997D01*
X126669487Y-115367590D01*
X126681223Y-115360559D01*
X126702860Y-115370677D01*
X126750262Y-115399041D01*
X126818793Y-115442671D01*
X126903815Y-115498582D01*
X127000693Y-115563794D01*
X127055950Y-115601581D01*
X127156848Y-115670457D01*
X127247899Y-115731660D01*
X127324570Y-115782222D01*
X127382328Y-115819172D01*
X127416643Y-115839542D01*
X127423854Y-115842603D01*
X127444348Y-115835664D01*
X127492113Y-115816749D01*
X127560432Y-115788713D01*
X127642589Y-115754409D01*
X127731870Y-115716691D01*
X127821558Y-115678413D01*
X127904938Y-115642430D01*
X127975294Y-115611594D01*
X128025910Y-115588761D01*
X128050071Y-115576783D01*
X128051022Y-115576076D01*
X128055636Y-115557269D01*
X128065928Y-115507182D01*
X128080887Y-115431007D01*
X128099501Y-115333935D01*
X128120759Y-115221157D01*
X128133018Y-115155358D01*
X128155962Y-115034850D01*
X128177795Y-114926003D01*
X128197322Y-114834324D01*
X128213348Y-114765319D01*
X128224679Y-114724496D01*
X128228274Y-114716289D01*
X128252606Y-114708252D01*
X128307559Y-114701767D01*
X128386708Y-114696830D01*
X128483626Y-114693436D01*
X128591887Y-114691582D01*
X128705065Y-114691262D01*
X128816735Y-114692473D01*
X128920468Y-114695210D01*
X129009841Y-114699469D01*
X129078426Y-114705245D01*
X129119797Y-114712533D01*
X129128410Y-114716905D01*
X129138733Y-114743036D01*
X129153492Y-114798407D01*
X129170952Y-114875693D01*
X129189380Y-114967570D01*
X129195341Y-114999642D01*
X129223666Y-115154276D01*
X129246476Y-115276425D01*
X129264680Y-115370127D01*
X129279183Y-115439416D01*
X129290892Y-115488329D01*
X129300715Y-115520903D01*
X129309556Y-115541172D01*
X129318324Y-115553174D01*
X129320057Y-115554853D01*
X129347971Y-115571616D01*
X129402295Y-115597186D01*
X129476377Y-115629012D01*
X129563565Y-115664540D01*
X129657208Y-115701217D01*
X129750652Y-115736489D01*
X129837247Y-115767804D01*
X129910340Y-115792607D01*
X129963278Y-115808346D01*
X129989411Y-115812468D01*
X129990326Y-115812124D01*
X130011686Y-115798159D01*
X130058684Y-115766478D01*
X130126427Y-115720409D01*
X130210023Y-115663282D01*
X130304582Y-115598427D01*
X130331454Y-115579957D01*
X130428875Y-115514101D01*
X130517763Y-115456150D01*
X130593012Y-115409262D01*
X130649520Y-115376593D01*
X130682181Y-115361300D01*
X130686193Y-115360559D01*
X130707284Y-115373408D01*
X130749064Y-115408912D01*
X130807045Y-115462507D01*
X130876735Y-115529629D01*
X130953645Y-115605713D01*
X131033283Y-115686196D01*
X131111161Y-115766513D01*
X131182786Y-115842101D01*
X131243670Y-115908395D01*
X131289321Y-115960831D01*
X131315250Y-115994845D01*
X131319483Y-116004255D01*
X131309512Y-116026157D01*
X131282620Y-116071000D01*
X131243336Y-116131479D01*
X131211717Y-116178011D01*
X131153698Y-116262325D01*
X131085384Y-116362174D01*
X131017179Y-116462327D01*
X130980675Y-116516173D01*
X130857400Y-116698429D01*
X130940120Y-116851419D01*
X130976359Y-116921118D01*
X131004526Y-116980386D01*
X131020591Y-117020489D01*
X131022826Y-117030697D01*
X131006322Y-117042971D01*
X130959682Y-117067187D01*
X130887209Y-117101537D01*
X130793206Y-117144212D01*
X130681974Y-117193406D01*
X130557815Y-117247310D01*
X130425032Y-117304116D01*
X130287927Y-117362018D01*
X130150802Y-117419207D01*
X130017958Y-117473876D01*
X129893698Y-117524216D01*
X129782325Y-117568420D01*
X129688139Y-117604681D01*
X129615444Y-117631191D01*
X129568541Y-117646142D01*
X129552433Y-117648546D01*
X129531886Y-117629489D01*
X129498533Y-117587764D01*
X129459302Y-117532094D01*
X129456199Y-117527422D01*
X129341023Y-117383536D01*
X129206653Y-117267517D01*
X129057384Y-117180370D01*
X128897513Y-117123101D01*
X128731337Y-117096714D01*
X128563152Y-117102215D01*
X128397255Y-117140610D01*
X128237942Y-117212905D01*
X128203087Y-117234174D01*
X128062337Y-117344804D01*
X127949314Y-117475498D01*
X127864603Y-117621736D01*
X127808794Y-117778992D01*
X127782474Y-117942743D01*
X127786230Y-118108467D01*
X127820650Y-118271638D01*
X127886323Y-118427735D01*
X127983835Y-118572233D01*
X128023413Y-118616931D01*
X128147303Y-118730688D01*
X128277724Y-118813582D01*
X128423915Y-118870444D01*
X128568688Y-118902113D01*
X128731460Y-118909931D01*
X128895040Y-118883862D01*
X129053898Y-118826555D01*
X129202506Y-118740656D01*
X129335335Y-118628814D01*
X129446856Y-118493677D01*
X129458611Y-118475917D01*
X129497108Y-118419650D01*
X129530463Y-118376877D01*
X129551760Y-118356428D01*
X129552433Y-118356131D01*
X129575471Y-118360521D01*
X129627757Y-118377924D01*
X129704990Y-118406532D01*
X129802868Y-118444535D01*
X129917091Y-118490126D01*
X130043358Y-118541497D01*
X130177367Y-118596838D01*
X130314818Y-118654342D01*
X130451408Y-118712199D01*
X130582837Y-118768602D01*
X130704805Y-118821742D01*
X130813009Y-118869810D01*
X130903149Y-118910999D01*
X130970923Y-118943499D01*
X131012030Y-118965503D01*
X131022826Y-118974364D01*
X131014419Y-119001440D01*
X130991872Y-119052103D01*
X130959213Y-119117617D01*
X130940120Y-119153641D01*
X130857400Y-119306632D01*
X130980675Y-119488888D01*
X131043828Y-119581925D01*
X131113327Y-119683785D01*
X131178765Y-119779238D01*
X131211717Y-119827050D01*
X131256873Y-119894295D01*
X131292657Y-119951236D01*
X131314538Y-119990446D01*
X131319163Y-120003181D01*
X131306685Y-120021717D01*
X131271852Y-120062741D01*
X131218278Y-120122275D01*
X131149583Y-120196342D01*
X131069381Y-120280965D01*
X131017886Y-120334485D01*
X130925886Y-120428119D01*
X130843599Y-120509041D01*
X130774545Y-120573977D01*
X130722244Y-120619658D01*
X130690216Y-120642811D01*
X130683716Y-120645032D01*
X130658994Y-120634724D01*
X130609005Y-120606239D01*
X130538812Y-120562737D01*
X130453475Y-120507377D01*
X130358056Y-120443320D01*
X130331454Y-120425103D01*
X130234767Y-120358727D01*
X130147717Y-120299178D01*
X130075195Y-120249784D01*
X130022093Y-120213875D01*
X129993303Y-120194781D01*
X129990326Y-120192936D01*
X129967382Y-120195695D01*
X129916936Y-120210338D01*
X129845641Y-120234313D01*
X129760147Y-120265066D01*
X129667107Y-120300044D01*
X129573174Y-120336693D01*
X129484999Y-120372461D01*
X129409234Y-120404794D01*
X129352531Y-120431138D01*
X129321543Y-120448942D01*
X129320057Y-120450207D01*
X129311201Y-120461094D01*
X129302443Y-120479482D01*
X129292877Y-120509406D01*
X129281596Y-120554903D01*
X129267693Y-120620009D01*
X129250263Y-120708761D01*
X129228398Y-120825193D01*
X129201191Y-120973342D01*
X129195341Y-121005418D01*
X129176974Y-121100486D01*
X129159005Y-121183365D01*
X129143169Y-121246730D01*
X129131200Y-121283258D01*
X129128410Y-121288156D01*
X129103672Y-121296227D01*
X129048390Y-121302787D01*
X128968989Y-121307833D01*
X128871896Y-121311359D01*
X128763538Y-121313361D01*
X128650340Y-121313836D01*
X128538728Y-121312777D01*
X128435129Y-121310182D01*
X128345968Y-121306046D01*
X128277672Y-121300363D01*
X128236666Y-121293131D01*
X128228274Y-121288771D01*
X128219808Y-121264498D01*
X128206035Y-121209226D01*
X128188150Y-121128462D01*
X128167348Y-121027712D01*
X128144823Y-120912483D01*
X128133018Y-120849702D01*
X128110751Y-120730587D01*
X128090579Y-120624365D01*
X128073515Y-120536227D01*
X128060569Y-120471366D01*
X128052755Y-120434974D01*
X128051022Y-120428984D01*
X128031490Y-120418861D01*
X127984443Y-120397462D01*
X127916603Y-120367639D01*
X127834691Y-120332245D01*
X127745428Y-120294132D01*
X127655535Y-120256153D01*
X127571735Y-120221160D01*
X127500747Y-120192006D01*
X127449294Y-120171543D01*
X127424097Y-120162623D01*
X127422996Y-120162457D01*
X127403119Y-120172569D01*
X127357377Y-120200917D01*
X127290317Y-120244523D01*
X127206484Y-120300406D01*
X127110426Y-120365587D01*
X127055250Y-120403479D01*
X126954081Y-120472525D01*
X126862230Y-120533850D01*
X126784344Y-120584463D01*
X126725069Y-120621371D01*
X126689051Y-120641582D01*
X126680977Y-120644501D01*
X126662184Y-120631953D01*
X126622057Y-120597263D01*
X126565093Y-120544863D01*
X126495785Y-120479184D01*
X126418631Y-120404656D01*
X126338125Y-120325713D01*
X126258763Y-120246783D01*
X126185040Y-120172300D01*
X126121452Y-120106694D01*
X126072494Y-120054396D01*
X126042661Y-120019839D01*
X126035542Y-120008278D01*
X126045553Y-119989454D01*
X126073678Y-119944431D01*
X126117054Y-119877587D01*
X126172818Y-119793299D01*
X126238106Y-119695944D01*
X126287846Y-119622507D01*
X126540151Y-119251467D01*
X126285155Y-118632895D01*
X125840531Y-118549075D01*
X125395907Y-118465254D01*
X125395907Y-117539806D01*
X125840531Y-117455986D01*
D11*
X173790785Y-138249913D02*
G75*
G02X173914400Y-138857500I-1431385J-607587D01*
G01*
X171751658Y-137425391D02*
G75*
G02X172967400Y-137425500I607742J-1432109D01*
G01*
X170927291Y-139465242D02*
G75*
G02X170927400Y-138249500I1432109J607742D01*
G01*
X172967142Y-140289609D02*
G75*
G02X171751400Y-140289500I-607742J1432109D01*
G01*
X173914892Y-138830489D02*
G75*
G02X173791400Y-139465500I-1555492J-27011D01*
G01*
X173914400Y-135357500D02*
G75*
G03X173914400Y-135357500I-1555000J0D01*
G01*
X173914400Y-131857500D02*
G75*
G03X173914400Y-131857500I-1555000J0D01*
G01*
X174459400Y-141017500D02*
X174459400Y-129697500D01*
X168899400Y-141017500D02*
X168899400Y-129697500D01*
X176019400Y-141017500D02*
X176019400Y-129697500D01*
X168899400Y-141017500D02*
X176019400Y-141017500D01*
X168899400Y-129697500D02*
X176019400Y-129697500D01*
X174519400Y-141257500D02*
X176259400Y-141257500D01*
X176259400Y-141257500D02*
X176259400Y-139757500D01*
X141349400Y-128097500D02*
X138689400Y-128097500D01*
X141349400Y-128097500D02*
X141349400Y-110257500D01*
X141349400Y-110257500D02*
X138689400Y-110257500D01*
X138689400Y-128097500D02*
X138689400Y-110257500D01*
X138689400Y-130697500D02*
X138689400Y-129367500D01*
X140019400Y-130697500D02*
X138689400Y-130697500D01*
X118489400Y-128097500D02*
X115829400Y-128097500D01*
X118489400Y-128097500D02*
X118489400Y-110257500D01*
X118489400Y-110257500D02*
X115829400Y-110257500D01*
X115829400Y-128097500D02*
X115829400Y-110257500D01*
X115829400Y-130697500D02*
X115829400Y-129367500D01*
X117159400Y-130697500D02*
X115829400Y-130697500D01*
X131129400Y-107837500D02*
X131129400Y-105177500D01*
X131129400Y-107837500D02*
X148969400Y-107837500D01*
X148969400Y-107837500D02*
X148969400Y-105177500D01*
X131129400Y-105177500D02*
X148969400Y-105177500D01*
X128529400Y-105177500D02*
X129859400Y-105177500D01*
X128529400Y-106507500D02*
X128529400Y-105177500D01*
X131129400Y-130697500D02*
X131129400Y-128037500D01*
X131129400Y-130697500D02*
X148969400Y-130697500D01*
X148969400Y-130697500D02*
X148969400Y-128037500D01*
X131129400Y-128037500D02*
X148969400Y-128037500D01*
X128529400Y-128037500D02*
X129859400Y-128037500D01*
X128529400Y-129367500D02*
X128529400Y-128037500D01*
X173790785Y-118649913D02*
G75*
G02X173914400Y-119257500I-1431385J-607587D01*
G01*
X171751658Y-117825391D02*
G75*
G02X172967400Y-117825500I607742J-1432109D01*
G01*
X170927291Y-119865242D02*
G75*
G02X170927400Y-118649500I1432109J607742D01*
G01*
X172967142Y-120689609D02*
G75*
G02X171751400Y-120689500I-607742J1432109D01*
G01*
X173914892Y-119230489D02*
G75*
G02X173791400Y-119865500I-1555492J-27011D01*
G01*
X173914400Y-115757500D02*
G75*
G03X173914400Y-115757500I-1555000J0D01*
G01*
X173914400Y-112257500D02*
G75*
G03X173914400Y-112257500I-1555000J0D01*
G01*
X174459400Y-121417500D02*
X174459400Y-110097500D01*
X168899400Y-121417500D02*
X168899400Y-110097500D01*
X176019400Y-121417500D02*
X176019400Y-110097500D01*
X168899400Y-121417500D02*
X176019400Y-121417500D01*
X168899400Y-110097500D02*
X176019400Y-110097500D01*
X174519400Y-121657500D02*
X176259400Y-121657500D01*
X176259400Y-121657500D02*
X176259400Y-120157500D01*
X176259400Y-72657500D02*
X176259400Y-71157500D01*
X174519400Y-72657500D02*
X176259400Y-72657500D01*
X168899400Y-61097500D02*
X176019400Y-61097500D01*
X168899400Y-72417500D02*
X176019400Y-72417500D01*
X176019400Y-72417500D02*
X176019400Y-61097500D01*
X168899400Y-72417500D02*
X168899400Y-61097500D01*
X174459400Y-72417500D02*
X174459400Y-61097500D01*
X173914400Y-63257500D02*
G75*
G03X173914400Y-63257500I-1555000J0D01*
G01*
X173914400Y-66757500D02*
G75*
G03X173914400Y-66757500I-1555000J0D01*
G01*
X173914892Y-70230489D02*
G75*
G02X173791400Y-70865500I-1555492J-27011D01*
G01*
X172967142Y-71689609D02*
G75*
G02X171751400Y-71689500I-607742J1432109D01*
G01*
X170927291Y-70865242D02*
G75*
G02X170927400Y-69649500I1432109J607742D01*
G01*
X171751658Y-68825391D02*
G75*
G02X172967400Y-68825500I607742J-1432109D01*
G01*
X173790785Y-69649913D02*
G75*
G02X173914400Y-70257500I-1431385J-607587D01*
G01*
X128529400Y-80367500D02*
X128529400Y-79037500D01*
X128529400Y-79037500D02*
X129859400Y-79037500D01*
X131129400Y-79037500D02*
X148969400Y-79037500D01*
X148969400Y-81697500D02*
X148969400Y-79037500D01*
X131129400Y-81697500D02*
X148969400Y-81697500D01*
X131129400Y-81697500D02*
X131129400Y-79037500D01*
X128529400Y-57507500D02*
X128529400Y-56177500D01*
X128529400Y-56177500D02*
X129859400Y-56177500D01*
X131129400Y-56177500D02*
X148969400Y-56177500D01*
X148969400Y-58837500D02*
X148969400Y-56177500D01*
X131129400Y-58837500D02*
X148969400Y-58837500D01*
X131129400Y-58837500D02*
X131129400Y-56177500D01*
X117159400Y-81697500D02*
X115829400Y-81697500D01*
X115829400Y-81697500D02*
X115829400Y-80367500D01*
X115829400Y-79097500D02*
X115829400Y-61257500D01*
X118489400Y-61257500D02*
X115829400Y-61257500D01*
X118489400Y-79097500D02*
X118489400Y-61257500D01*
X118489400Y-79097500D02*
X115829400Y-79097500D01*
X140019400Y-81697500D02*
X138689400Y-81697500D01*
X138689400Y-81697500D02*
X138689400Y-80367500D01*
X138689400Y-79097500D02*
X138689400Y-61257500D01*
X141349400Y-61257500D02*
X138689400Y-61257500D01*
X141349400Y-79097500D02*
X141349400Y-61257500D01*
X141349400Y-79097500D02*
X138689400Y-79097500D01*
X176259400Y-92257500D02*
X176259400Y-90757500D01*
X174519400Y-92257500D02*
X176259400Y-92257500D01*
X168899400Y-80697500D02*
X176019400Y-80697500D01*
X168899400Y-92017500D02*
X176019400Y-92017500D01*
X176019400Y-92017500D02*
X176019400Y-80697500D01*
X168899400Y-92017500D02*
X168899400Y-80697500D01*
X174459400Y-92017500D02*
X174459400Y-80697500D01*
X173914400Y-82857500D02*
G75*
G03X173914400Y-82857500I-1555000J0D01*
G01*
X173914400Y-86357500D02*
G75*
G03X173914400Y-86357500I-1555000J0D01*
G01*
X173914892Y-89830489D02*
G75*
G02X173791400Y-90465500I-1555492J-27011D01*
G01*
X172967142Y-91289609D02*
G75*
G02X171751400Y-91289500I-607742J1432109D01*
G01*
X170927291Y-90465242D02*
G75*
G02X170927400Y-89249500I1432109J607742D01*
G01*
X171751658Y-88425391D02*
G75*
G02X172967400Y-88425500I607742J-1432109D01*
G01*
X173790785Y-89249913D02*
G75*
G02X173914400Y-89857500I-1431385J-607587D01*
G01*
D13*
G36*
X125840531Y-68455986D02*
G01*
X126285155Y-68372165D01*
X126412653Y-68062880D01*
X126540151Y-67753594D01*
X126287846Y-67382554D01*
X126217596Y-67278643D01*
X126154872Y-67184713D01*
X126102538Y-67105148D01*
X126063457Y-67044330D01*
X126040493Y-67006643D01*
X126035542Y-66996379D01*
X126048276Y-66977890D01*
X126083482Y-66938380D01*
X126136662Y-66882278D01*
X126203318Y-66814013D01*
X126278954Y-66738014D01*
X126359072Y-66658708D01*
X126439174Y-66580525D01*
X126514764Y-66507893D01*
X126581345Y-66445241D01*
X126634418Y-66396997D01*
X126669487Y-66367590D01*
X126681223Y-66360559D01*
X126702860Y-66370677D01*
X126750262Y-66399041D01*
X126818793Y-66442671D01*
X126903815Y-66498582D01*
X127000693Y-66563794D01*
X127055950Y-66601581D01*
X127156848Y-66670457D01*
X127247899Y-66731660D01*
X127324570Y-66782222D01*
X127382328Y-66819172D01*
X127416643Y-66839542D01*
X127423854Y-66842603D01*
X127444348Y-66835664D01*
X127492113Y-66816749D01*
X127560432Y-66788713D01*
X127642589Y-66754409D01*
X127731870Y-66716691D01*
X127821558Y-66678413D01*
X127904938Y-66642430D01*
X127975294Y-66611594D01*
X128025910Y-66588761D01*
X128050071Y-66576783D01*
X128051022Y-66576076D01*
X128055636Y-66557269D01*
X128065928Y-66507182D01*
X128080887Y-66431007D01*
X128099501Y-66333935D01*
X128120759Y-66221157D01*
X128133018Y-66155358D01*
X128155962Y-66034850D01*
X128177795Y-65926003D01*
X128197322Y-65834324D01*
X128213348Y-65765319D01*
X128224679Y-65724496D01*
X128228274Y-65716289D01*
X128252606Y-65708252D01*
X128307559Y-65701767D01*
X128386708Y-65696830D01*
X128483626Y-65693436D01*
X128591887Y-65691582D01*
X128705065Y-65691262D01*
X128816735Y-65692473D01*
X128920468Y-65695210D01*
X129009841Y-65699469D01*
X129078426Y-65705245D01*
X129119797Y-65712533D01*
X129128410Y-65716905D01*
X129138733Y-65743036D01*
X129153492Y-65798407D01*
X129170952Y-65875693D01*
X129189380Y-65967570D01*
X129195341Y-65999642D01*
X129223666Y-66154276D01*
X129246476Y-66276425D01*
X129264680Y-66370127D01*
X129279183Y-66439416D01*
X129290892Y-66488329D01*
X129300715Y-66520903D01*
X129309556Y-66541172D01*
X129318324Y-66553174D01*
X129320057Y-66554853D01*
X129347971Y-66571616D01*
X129402295Y-66597186D01*
X129476377Y-66629012D01*
X129563565Y-66664540D01*
X129657208Y-66701217D01*
X129750652Y-66736489D01*
X129837247Y-66767804D01*
X129910340Y-66792607D01*
X129963278Y-66808346D01*
X129989411Y-66812468D01*
X129990326Y-66812124D01*
X130011686Y-66798159D01*
X130058684Y-66766478D01*
X130126427Y-66720409D01*
X130210023Y-66663282D01*
X130304582Y-66598427D01*
X130331454Y-66579957D01*
X130428875Y-66514101D01*
X130517763Y-66456150D01*
X130593012Y-66409262D01*
X130649520Y-66376593D01*
X130682181Y-66361300D01*
X130686193Y-66360559D01*
X130707284Y-66373408D01*
X130749064Y-66408912D01*
X130807045Y-66462507D01*
X130876735Y-66529629D01*
X130953645Y-66605713D01*
X131033283Y-66686196D01*
X131111161Y-66766513D01*
X131182786Y-66842101D01*
X131243670Y-66908395D01*
X131289321Y-66960831D01*
X131315250Y-66994845D01*
X131319483Y-67004255D01*
X131309512Y-67026157D01*
X131282620Y-67071000D01*
X131243336Y-67131479D01*
X131211717Y-67178011D01*
X131153698Y-67262325D01*
X131085384Y-67362174D01*
X131017179Y-67462327D01*
X130980675Y-67516173D01*
X130857400Y-67698429D01*
X130940120Y-67851419D01*
X130976359Y-67921118D01*
X131004526Y-67980386D01*
X131020591Y-68020489D01*
X131022826Y-68030697D01*
X131006322Y-68042971D01*
X130959682Y-68067187D01*
X130887209Y-68101537D01*
X130793206Y-68144212D01*
X130681974Y-68193406D01*
X130557815Y-68247310D01*
X130425032Y-68304116D01*
X130287927Y-68362018D01*
X130150802Y-68419207D01*
X130017958Y-68473876D01*
X129893698Y-68524216D01*
X129782325Y-68568420D01*
X129688139Y-68604681D01*
X129615444Y-68631191D01*
X129568541Y-68646142D01*
X129552433Y-68648546D01*
X129531886Y-68629489D01*
X129498533Y-68587764D01*
X129459302Y-68532094D01*
X129456199Y-68527422D01*
X129341023Y-68383536D01*
X129206653Y-68267517D01*
X129057384Y-68180370D01*
X128897513Y-68123101D01*
X128731337Y-68096714D01*
X128563152Y-68102215D01*
X128397255Y-68140610D01*
X128237942Y-68212905D01*
X128203087Y-68234174D01*
X128062337Y-68344804D01*
X127949314Y-68475498D01*
X127864603Y-68621736D01*
X127808794Y-68778992D01*
X127782474Y-68942743D01*
X127786230Y-69108467D01*
X127820650Y-69271638D01*
X127886323Y-69427735D01*
X127983835Y-69572233D01*
X128023413Y-69616931D01*
X128147303Y-69730688D01*
X128277724Y-69813582D01*
X128423915Y-69870444D01*
X128568688Y-69902113D01*
X128731460Y-69909931D01*
X128895040Y-69883862D01*
X129053898Y-69826555D01*
X129202506Y-69740656D01*
X129335335Y-69628814D01*
X129446856Y-69493677D01*
X129458611Y-69475917D01*
X129497108Y-69419650D01*
X129530463Y-69376877D01*
X129551760Y-69356428D01*
X129552433Y-69356131D01*
X129575471Y-69360521D01*
X129627757Y-69377924D01*
X129704990Y-69406532D01*
X129802868Y-69444535D01*
X129917091Y-69490126D01*
X130043358Y-69541497D01*
X130177367Y-69596838D01*
X130314818Y-69654342D01*
X130451408Y-69712199D01*
X130582837Y-69768602D01*
X130704805Y-69821742D01*
X130813009Y-69869810D01*
X130903149Y-69910999D01*
X130970923Y-69943499D01*
X131012030Y-69965503D01*
X131022826Y-69974364D01*
X131014419Y-70001440D01*
X130991872Y-70052103D01*
X130959213Y-70117617D01*
X130940120Y-70153641D01*
X130857400Y-70306632D01*
X130980675Y-70488888D01*
X131043828Y-70581925D01*
X131113327Y-70683785D01*
X131178765Y-70779238D01*
X131211717Y-70827050D01*
X131256873Y-70894295D01*
X131292657Y-70951236D01*
X131314538Y-70990446D01*
X131319163Y-71003181D01*
X131306685Y-71021717D01*
X131271852Y-71062741D01*
X131218278Y-71122275D01*
X131149583Y-71196342D01*
X131069381Y-71280965D01*
X131017886Y-71334485D01*
X130925886Y-71428119D01*
X130843599Y-71509041D01*
X130774545Y-71573977D01*
X130722244Y-71619658D01*
X130690216Y-71642811D01*
X130683716Y-71645032D01*
X130658994Y-71634724D01*
X130609005Y-71606239D01*
X130538812Y-71562737D01*
X130453475Y-71507377D01*
X130358056Y-71443320D01*
X130331454Y-71425103D01*
X130234767Y-71358727D01*
X130147717Y-71299178D01*
X130075195Y-71249784D01*
X130022093Y-71213875D01*
X129993303Y-71194781D01*
X129990326Y-71192936D01*
X129967382Y-71195695D01*
X129916936Y-71210338D01*
X129845641Y-71234313D01*
X129760147Y-71265066D01*
X129667107Y-71300044D01*
X129573174Y-71336693D01*
X129484999Y-71372461D01*
X129409234Y-71404794D01*
X129352531Y-71431138D01*
X129321543Y-71448942D01*
X129320057Y-71450207D01*
X129311201Y-71461094D01*
X129302443Y-71479482D01*
X129292877Y-71509406D01*
X129281596Y-71554903D01*
X129267693Y-71620009D01*
X129250263Y-71708761D01*
X129228398Y-71825193D01*
X129201191Y-71973342D01*
X129195341Y-72005418D01*
X129176974Y-72100486D01*
X129159005Y-72183365D01*
X129143169Y-72246730D01*
X129131200Y-72283258D01*
X129128410Y-72288156D01*
X129103672Y-72296227D01*
X129048390Y-72302787D01*
X128968989Y-72307833D01*
X128871896Y-72311359D01*
X128763538Y-72313361D01*
X128650340Y-72313836D01*
X128538728Y-72312777D01*
X128435129Y-72310182D01*
X128345968Y-72306046D01*
X128277672Y-72300363D01*
X128236666Y-72293131D01*
X128228274Y-72288771D01*
X128219808Y-72264498D01*
X128206035Y-72209226D01*
X128188150Y-72128462D01*
X128167348Y-72027712D01*
X128144823Y-71912483D01*
X128133018Y-71849702D01*
X128110751Y-71730587D01*
X128090579Y-71624365D01*
X128073515Y-71536227D01*
X128060569Y-71471366D01*
X128052755Y-71434974D01*
X128051022Y-71428984D01*
X128031490Y-71418861D01*
X127984443Y-71397462D01*
X127916603Y-71367639D01*
X127834691Y-71332245D01*
X127745428Y-71294132D01*
X127655535Y-71256153D01*
X127571735Y-71221160D01*
X127500747Y-71192006D01*
X127449294Y-71171543D01*
X127424097Y-71162623D01*
X127422996Y-71162457D01*
X127403119Y-71172569D01*
X127357377Y-71200917D01*
X127290317Y-71244523D01*
X127206484Y-71300406D01*
X127110426Y-71365587D01*
X127055250Y-71403479D01*
X126954081Y-71472525D01*
X126862230Y-71533850D01*
X126784344Y-71584463D01*
X126725069Y-71621371D01*
X126689051Y-71641582D01*
X126680977Y-71644501D01*
X126662184Y-71631953D01*
X126622057Y-71597263D01*
X126565093Y-71544863D01*
X126495785Y-71479184D01*
X126418631Y-71404656D01*
X126338125Y-71325713D01*
X126258763Y-71246783D01*
X126185040Y-71172300D01*
X126121452Y-71106694D01*
X126072494Y-71054396D01*
X126042661Y-71019839D01*
X126035542Y-71008278D01*
X126045553Y-70989454D01*
X126073678Y-70944431D01*
X126117054Y-70877587D01*
X126172818Y-70793299D01*
X126238106Y-70695944D01*
X126287846Y-70622507D01*
X126540151Y-70251467D01*
X126285155Y-69632895D01*
X125840531Y-69549075D01*
X125395907Y-69465254D01*
X125395907Y-68539806D01*
X125840531Y-68455986D01*
G37*
X125840531Y-68455986D02*
X126285155Y-68372165D01*
X126412653Y-68062880D01*
X126540151Y-67753594D01*
X126287846Y-67382554D01*
X126217596Y-67278643D01*
X126154872Y-67184713D01*
X126102538Y-67105148D01*
X126063457Y-67044330D01*
X126040493Y-67006643D01*
X126035542Y-66996379D01*
X126048276Y-66977890D01*
X126083482Y-66938380D01*
X126136662Y-66882278D01*
X126203318Y-66814013D01*
X126278954Y-66738014D01*
X126359072Y-66658708D01*
X126439174Y-66580525D01*
X126514764Y-66507893D01*
X126581345Y-66445241D01*
X126634418Y-66396997D01*
X126669487Y-66367590D01*
X126681223Y-66360559D01*
X126702860Y-66370677D01*
X126750262Y-66399041D01*
X126818793Y-66442671D01*
X126903815Y-66498582D01*
X127000693Y-66563794D01*
X127055950Y-66601581D01*
X127156848Y-66670457D01*
X127247899Y-66731660D01*
X127324570Y-66782222D01*
X127382328Y-66819172D01*
X127416643Y-66839542D01*
X127423854Y-66842603D01*
X127444348Y-66835664D01*
X127492113Y-66816749D01*
X127560432Y-66788713D01*
X127642589Y-66754409D01*
X127731870Y-66716691D01*
X127821558Y-66678413D01*
X127904938Y-66642430D01*
X127975294Y-66611594D01*
X128025910Y-66588761D01*
X128050071Y-66576783D01*
X128051022Y-66576076D01*
X128055636Y-66557269D01*
X128065928Y-66507182D01*
X128080887Y-66431007D01*
X128099501Y-66333935D01*
X128120759Y-66221157D01*
X128133018Y-66155358D01*
X128155962Y-66034850D01*
X128177795Y-65926003D01*
X128197322Y-65834324D01*
X128213348Y-65765319D01*
X128224679Y-65724496D01*
X128228274Y-65716289D01*
X128252606Y-65708252D01*
X128307559Y-65701767D01*
X128386708Y-65696830D01*
X128483626Y-65693436D01*
X128591887Y-65691582D01*
X128705065Y-65691262D01*
X128816735Y-65692473D01*
X128920468Y-65695210D01*
X129009841Y-65699469D01*
X129078426Y-65705245D01*
X129119797Y-65712533D01*
X129128410Y-65716905D01*
X129138733Y-65743036D01*
X129153492Y-65798407D01*
X129170952Y-65875693D01*
X129189380Y-65967570D01*
X129195341Y-65999642D01*
X129223666Y-66154276D01*
X129246476Y-66276425D01*
X129264680Y-66370127D01*
X129279183Y-66439416D01*
X129290892Y-66488329D01*
X129300715Y-66520903D01*
X129309556Y-66541172D01*
X129318324Y-66553174D01*
X129320057Y-66554853D01*
X129347971Y-66571616D01*
X129402295Y-66597186D01*
X129476377Y-66629012D01*
X129563565Y-66664540D01*
X129657208Y-66701217D01*
X129750652Y-66736489D01*
X129837247Y-66767804D01*
X129910340Y-66792607D01*
X129963278Y-66808346D01*
X129989411Y-66812468D01*
X129990326Y-66812124D01*
X130011686Y-66798159D01*
X130058684Y-66766478D01*
X130126427Y-66720409D01*
X130210023Y-66663282D01*
X130304582Y-66598427D01*
X130331454Y-66579957D01*
X130428875Y-66514101D01*
X130517763Y-66456150D01*
X130593012Y-66409262D01*
X130649520Y-66376593D01*
X130682181Y-66361300D01*
X130686193Y-66360559D01*
X130707284Y-66373408D01*
X130749064Y-66408912D01*
X130807045Y-66462507D01*
X130876735Y-66529629D01*
X130953645Y-66605713D01*
X131033283Y-66686196D01*
X131111161Y-66766513D01*
X131182786Y-66842101D01*
X131243670Y-66908395D01*
X131289321Y-66960831D01*
X131315250Y-66994845D01*
X131319483Y-67004255D01*
X131309512Y-67026157D01*
X131282620Y-67071000D01*
X131243336Y-67131479D01*
X131211717Y-67178011D01*
X131153698Y-67262325D01*
X131085384Y-67362174D01*
X131017179Y-67462327D01*
X130980675Y-67516173D01*
X130857400Y-67698429D01*
X130940120Y-67851419D01*
X130976359Y-67921118D01*
X131004526Y-67980386D01*
X131020591Y-68020489D01*
X131022826Y-68030697D01*
X131006322Y-68042971D01*
X130959682Y-68067187D01*
X130887209Y-68101537D01*
X130793206Y-68144212D01*
X130681974Y-68193406D01*
X130557815Y-68247310D01*
X130425032Y-68304116D01*
X130287927Y-68362018D01*
X130150802Y-68419207D01*
X130017958Y-68473876D01*
X129893698Y-68524216D01*
X129782325Y-68568420D01*
X129688139Y-68604681D01*
X129615444Y-68631191D01*
X129568541Y-68646142D01*
X129552433Y-68648546D01*
X129531886Y-68629489D01*
X129498533Y-68587764D01*
X129459302Y-68532094D01*
X129456199Y-68527422D01*
X129341023Y-68383536D01*
X129206653Y-68267517D01*
X129057384Y-68180370D01*
X128897513Y-68123101D01*
X128731337Y-68096714D01*
X128563152Y-68102215D01*
X128397255Y-68140610D01*
X128237942Y-68212905D01*
X128203087Y-68234174D01*
X128062337Y-68344804D01*
X127949314Y-68475498D01*
X127864603Y-68621736D01*
X127808794Y-68778992D01*
X127782474Y-68942743D01*
X127786230Y-69108467D01*
X127820650Y-69271638D01*
X127886323Y-69427735D01*
X127983835Y-69572233D01*
X128023413Y-69616931D01*
X128147303Y-69730688D01*
X128277724Y-69813582D01*
X128423915Y-69870444D01*
X128568688Y-69902113D01*
X128731460Y-69909931D01*
X128895040Y-69883862D01*
X129053898Y-69826555D01*
X129202506Y-69740656D01*
X129335335Y-69628814D01*
X129446856Y-69493677D01*
X129458611Y-69475917D01*
X129497108Y-69419650D01*
X129530463Y-69376877D01*
X129551760Y-69356428D01*
X129552433Y-69356131D01*
X129575471Y-69360521D01*
X129627757Y-69377924D01*
X129704990Y-69406532D01*
X129802868Y-69444535D01*
X129917091Y-69490126D01*
X130043358Y-69541497D01*
X130177367Y-69596838D01*
X130314818Y-69654342D01*
X130451408Y-69712199D01*
X130582837Y-69768602D01*
X130704805Y-69821742D01*
X130813009Y-69869810D01*
X130903149Y-69910999D01*
X130970923Y-69943499D01*
X131012030Y-69965503D01*
X131022826Y-69974364D01*
X131014419Y-70001440D01*
X130991872Y-70052103D01*
X130959213Y-70117617D01*
X130940120Y-70153641D01*
X130857400Y-70306632D01*
X130980675Y-70488888D01*
X131043828Y-70581925D01*
X131113327Y-70683785D01*
X131178765Y-70779238D01*
X131211717Y-70827050D01*
X131256873Y-70894295D01*
X131292657Y-70951236D01*
X131314538Y-70990446D01*
X131319163Y-71003181D01*
X131306685Y-71021717D01*
X131271852Y-71062741D01*
X131218278Y-71122275D01*
X131149583Y-71196342D01*
X131069381Y-71280965D01*
X131017886Y-71334485D01*
X130925886Y-71428119D01*
X130843599Y-71509041D01*
X130774545Y-71573977D01*
X130722244Y-71619658D01*
X130690216Y-71642811D01*
X130683716Y-71645032D01*
X130658994Y-71634724D01*
X130609005Y-71606239D01*
X130538812Y-71562737D01*
X130453475Y-71507377D01*
X130358056Y-71443320D01*
X130331454Y-71425103D01*
X130234767Y-71358727D01*
X130147717Y-71299178D01*
X130075195Y-71249784D01*
X130022093Y-71213875D01*
X129993303Y-71194781D01*
X129990326Y-71192936D01*
X129967382Y-71195695D01*
X129916936Y-71210338D01*
X129845641Y-71234313D01*
X129760147Y-71265066D01*
X129667107Y-71300044D01*
X129573174Y-71336693D01*
X129484999Y-71372461D01*
X129409234Y-71404794D01*
X129352531Y-71431138D01*
X129321543Y-71448942D01*
X129320057Y-71450207D01*
X129311201Y-71461094D01*
X129302443Y-71479482D01*
X129292877Y-71509406D01*
X129281596Y-71554903D01*
X129267693Y-71620009D01*
X129250263Y-71708761D01*
X129228398Y-71825193D01*
X129201191Y-71973342D01*
X129195341Y-72005418D01*
X129176974Y-72100486D01*
X129159005Y-72183365D01*
X129143169Y-72246730D01*
X129131200Y-72283258D01*
X129128410Y-72288156D01*
X129103672Y-72296227D01*
X129048390Y-72302787D01*
X128968989Y-72307833D01*
X128871896Y-72311359D01*
X128763538Y-72313361D01*
X128650340Y-72313836D01*
X128538728Y-72312777D01*
X128435129Y-72310182D01*
X128345968Y-72306046D01*
X128277672Y-72300363D01*
X128236666Y-72293131D01*
X128228274Y-72288771D01*
X128219808Y-72264498D01*
X128206035Y-72209226D01*
X128188150Y-72128462D01*
X128167348Y-72027712D01*
X128144823Y-71912483D01*
X128133018Y-71849702D01*
X128110751Y-71730587D01*
X128090579Y-71624365D01*
X128073515Y-71536227D01*
X128060569Y-71471366D01*
X128052755Y-71434974D01*
X128051022Y-71428984D01*
X128031490Y-71418861D01*
X127984443Y-71397462D01*
X127916603Y-71367639D01*
X127834691Y-71332245D01*
X127745428Y-71294132D01*
X127655535Y-71256153D01*
X127571735Y-71221160D01*
X127500747Y-71192006D01*
X127449294Y-71171543D01*
X127424097Y-71162623D01*
X127422996Y-71162457D01*
X127403119Y-71172569D01*
X127357377Y-71200917D01*
X127290317Y-71244523D01*
X127206484Y-71300406D01*
X127110426Y-71365587D01*
X127055250Y-71403479D01*
X126954081Y-71472525D01*
X126862230Y-71533850D01*
X126784344Y-71584463D01*
X126725069Y-71621371D01*
X126689051Y-71641582D01*
X126680977Y-71644501D01*
X126662184Y-71631953D01*
X126622057Y-71597263D01*
X126565093Y-71544863D01*
X126495785Y-71479184D01*
X126418631Y-71404656D01*
X126338125Y-71325713D01*
X126258763Y-71246783D01*
X126185040Y-71172300D01*
X126121452Y-71106694D01*
X126072494Y-71054396D01*
X126042661Y-71019839D01*
X126035542Y-71008278D01*
X126045553Y-70989454D01*
X126073678Y-70944431D01*
X126117054Y-70877587D01*
X126172818Y-70793299D01*
X126238106Y-70695944D01*
X126287846Y-70622507D01*
X126540151Y-70251467D01*
X126285155Y-69632895D01*
X125840531Y-69549075D01*
X125395907Y-69465254D01*
X125395907Y-68539806D01*
X125840531Y-68455986D01*
D12*
X171829480Y-142594433D02*
X172543766Y-142594433D01*
X172686623Y-142642052D01*
X172781861Y-142737290D01*
X172829480Y-142880147D01*
X172829480Y-142975385D01*
X171924719Y-142165861D02*
X171877100Y-142118242D01*
X171829480Y-142023004D01*
X171829480Y-141784909D01*
X171877100Y-141689671D01*
X171924719Y-141642052D01*
X172019957Y-141594433D01*
X172115195Y-141594433D01*
X172258052Y-141642052D01*
X172829480Y-142213480D01*
X172829480Y-141594433D01*
X139471780Y-132470833D02*
X140186066Y-132470833D01*
X140328923Y-132518452D01*
X140424161Y-132613690D01*
X140471780Y-132756547D01*
X140471780Y-132851785D01*
X139471780Y-131566071D02*
X139471780Y-131756547D01*
X139519400Y-131851785D01*
X139567019Y-131899404D01*
X139709876Y-131994642D01*
X139900352Y-132042261D01*
X140281304Y-132042261D01*
X140376542Y-131994642D01*
X140424161Y-131947023D01*
X140471780Y-131851785D01*
X140471780Y-131661309D01*
X140424161Y-131566071D01*
X140376542Y-131518452D01*
X140281304Y-131470833D01*
X140043209Y-131470833D01*
X139947971Y-131518452D01*
X139900352Y-131566071D01*
X139852733Y-131661309D01*
X139852733Y-131851785D01*
X139900352Y-131947023D01*
X139947971Y-131994642D01*
X140043209Y-132042261D01*
X116611780Y-132470833D02*
X117326066Y-132470833D01*
X117468923Y-132518452D01*
X117564161Y-132613690D01*
X117611780Y-132756547D01*
X117611780Y-132851785D01*
X116611780Y-131518452D02*
X116611780Y-131994642D01*
X117087971Y-132042261D01*
X117040352Y-131994642D01*
X116992733Y-131899404D01*
X116992733Y-131661309D01*
X117040352Y-131566071D01*
X117087971Y-131518452D01*
X117183209Y-131470833D01*
X117421304Y-131470833D01*
X117516542Y-131518452D01*
X117564161Y-131566071D01*
X117611780Y-131661309D01*
X117611780Y-131899404D01*
X117564161Y-131994642D01*
X117516542Y-132042261D01*
X126541780Y-106840833D02*
X127256066Y-106840833D01*
X127398923Y-106888452D01*
X127494161Y-106983690D01*
X127541780Y-107126547D01*
X127541780Y-107221785D01*
X126541780Y-106459880D02*
X126541780Y-105840833D01*
X126922733Y-106174166D01*
X126922733Y-106031309D01*
X126970352Y-105936071D01*
X127017971Y-105888452D01*
X127113209Y-105840833D01*
X127351304Y-105840833D01*
X127446542Y-105888452D01*
X127494161Y-105936071D01*
X127541780Y-106031309D01*
X127541780Y-106317023D01*
X127494161Y-106412261D01*
X127446542Y-106459880D01*
X126541780Y-129700833D02*
X127256066Y-129700833D01*
X127398923Y-129748452D01*
X127494161Y-129843690D01*
X127541780Y-129986547D01*
X127541780Y-130081785D01*
X126875114Y-128796071D02*
X127541780Y-128796071D01*
X126494161Y-129034166D02*
X127208447Y-129272261D01*
X127208447Y-128653214D01*
X172070780Y-109124933D02*
X172785066Y-109124933D01*
X172927923Y-109172552D01*
X173023161Y-109267790D01*
X173070780Y-109410647D01*
X173070780Y-109505885D01*
X173070780Y-108124933D02*
X173070780Y-108696361D01*
X173070780Y-108410647D02*
X172070780Y-108410647D01*
X172213638Y-108505885D01*
X172308876Y-108601123D01*
X172356495Y-108696361D01*
X172070780Y-60124933D02*
X172785066Y-60124933D01*
X172927923Y-60172552D01*
X173023161Y-60267790D01*
X173070780Y-60410647D01*
X173070780Y-60505885D01*
X173070780Y-59124933D02*
X173070780Y-59696361D01*
X173070780Y-59410647D02*
X172070780Y-59410647D01*
X172213638Y-59505885D01*
X172308876Y-59601123D01*
X172356495Y-59696361D01*
X126541780Y-80700833D02*
X127256066Y-80700833D01*
X127398923Y-80748452D01*
X127494161Y-80843690D01*
X127541780Y-80986547D01*
X127541780Y-81081785D01*
X126875114Y-79796071D02*
X127541780Y-79796071D01*
X126494161Y-80034166D02*
X127208447Y-80272261D01*
X127208447Y-79653214D01*
X126541780Y-57840833D02*
X127256066Y-57840833D01*
X127398923Y-57888452D01*
X127494161Y-57983690D01*
X127541780Y-58126547D01*
X127541780Y-58221785D01*
X126541780Y-57459880D02*
X126541780Y-56840833D01*
X126922733Y-57174166D01*
X126922733Y-57031309D01*
X126970352Y-56936071D01*
X127017971Y-56888452D01*
X127113209Y-56840833D01*
X127351304Y-56840833D01*
X127446542Y-56888452D01*
X127494161Y-56936071D01*
X127541780Y-57031309D01*
X127541780Y-57317023D01*
X127494161Y-57412261D01*
X127446542Y-57459880D01*
X116611780Y-83470833D02*
X117326066Y-83470833D01*
X117468923Y-83518452D01*
X117564161Y-83613690D01*
X117611780Y-83756547D01*
X117611780Y-83851785D01*
X116611780Y-82518452D02*
X116611780Y-82994642D01*
X117087971Y-83042261D01*
X117040352Y-82994642D01*
X116992733Y-82899404D01*
X116992733Y-82661309D01*
X117040352Y-82566071D01*
X117087971Y-82518452D01*
X117183209Y-82470833D01*
X117421304Y-82470833D01*
X117516542Y-82518452D01*
X117564161Y-82566071D01*
X117611780Y-82661309D01*
X117611780Y-82899404D01*
X117564161Y-82994642D01*
X117516542Y-83042261D01*
X139471780Y-83470833D02*
X140186066Y-83470833D01*
X140328923Y-83518452D01*
X140424161Y-83613690D01*
X140471780Y-83756547D01*
X140471780Y-83851785D01*
X139471780Y-82566071D02*
X139471780Y-82756547D01*
X139519400Y-82851785D01*
X139567019Y-82899404D01*
X139709876Y-82994642D01*
X139900352Y-83042261D01*
X140281304Y-83042261D01*
X140376542Y-82994642D01*
X140424161Y-82947023D01*
X140471780Y-82851785D01*
X140471780Y-82661309D01*
X140424161Y-82566071D01*
X140376542Y-82518452D01*
X140281304Y-82470833D01*
X140043209Y-82470833D01*
X139947971Y-82518452D01*
X139900352Y-82566071D01*
X139852733Y-82661309D01*
X139852733Y-82851785D01*
X139900352Y-82947023D01*
X139947971Y-82994642D01*
X140043209Y-83042261D01*
X171829480Y-93594433D02*
X172543766Y-93594433D01*
X172686623Y-93642052D01*
X172781861Y-93737290D01*
X172829480Y-93880147D01*
X172829480Y-93975385D01*
X171924719Y-93165861D02*
X171877100Y-93118242D01*
X171829480Y-93023004D01*
X171829480Y-92784909D01*
X171877100Y-92689671D01*
X171924719Y-92642052D01*
X172019957Y-92594433D01*
X172115195Y-92594433D01*
X172258052Y-92642052D01*
X172829480Y-93213480D01*
X172829480Y-92594433D01*
%LPC*%
D14*
X167959400Y-126827500D03*
D15*
X174859400Y-125557500D03*
X110859400Y-125557500D03*
X167859400Y-105557500D03*
X117859400Y-145557500D03*
X117859400Y-105557500D03*
X167859400Y-145557500D03*
D16*
X172359400Y-138857500D03*
D17*
X172359400Y-135357500D03*
X172359400Y-131857500D03*
D18*
X140019400Y-129367500D03*
D19*
X140019400Y-126827500D03*
X140019400Y-124287500D03*
X140019400Y-121747500D03*
X140019400Y-119207500D03*
X140019400Y-116667500D03*
X140019400Y-114127500D03*
X140019400Y-111587500D03*
D18*
X117159400Y-129367500D03*
D19*
X117159400Y-126827500D03*
X117159400Y-124287500D03*
X117159400Y-121747500D03*
X117159400Y-119207500D03*
X117159400Y-116667500D03*
X117159400Y-114127500D03*
X117159400Y-111587500D03*
D18*
X129859400Y-106507500D03*
D19*
X132399400Y-106507500D03*
X134939400Y-106507500D03*
X137479400Y-106507500D03*
X140019400Y-106507500D03*
X142559400Y-106507500D03*
X145099400Y-106507500D03*
X147639400Y-106507500D03*
D18*
X129859400Y-129367500D03*
D19*
X132399400Y-129367500D03*
X134939400Y-129367500D03*
X137479400Y-129367500D03*
X140019400Y-129367500D03*
X142559400Y-129367500D03*
X145099400Y-129367500D03*
X147639400Y-129367500D03*
D20*
X129859400Y-103967500D03*
X132399400Y-103967500D03*
X134939400Y-103967500D03*
X137479400Y-103967500D03*
X140019400Y-103967500D03*
X147639400Y-103967500D03*
X129859400Y-109047500D03*
X132399400Y-109047500D03*
X134939400Y-109047500D03*
X137479400Y-109047500D03*
X140019400Y-109047500D03*
X142559400Y-109047500D03*
X145099400Y-109047500D03*
X147639400Y-109047500D03*
X114619400Y-129367500D03*
X114619400Y-126827500D03*
X114619400Y-124287500D03*
X114619400Y-121747500D03*
X114619400Y-119207500D03*
X114619400Y-116667500D03*
X114619400Y-114127500D03*
X114619400Y-111587500D03*
X119699400Y-129367500D03*
X119699400Y-126827500D03*
X119699400Y-124287500D03*
X119699400Y-121747500D03*
X119699400Y-119207500D03*
X119699400Y-116667500D03*
X119699400Y-114127500D03*
X119699400Y-111587500D03*
X137479400Y-111587500D03*
X137479400Y-114127500D03*
X137479400Y-116667500D03*
X137479400Y-119207500D03*
X137479400Y-121747500D03*
X137479400Y-124306600D03*
X137479400Y-126827500D03*
X142559400Y-111587500D03*
X142559400Y-114127500D03*
X142559400Y-116667500D03*
X142559400Y-119207500D03*
X142559400Y-121747500D03*
X142559400Y-124287500D03*
X142559400Y-126827500D03*
X134939400Y-126827500D03*
X132399400Y-126827500D03*
X129859400Y-126827500D03*
X127319400Y-126827500D03*
X127319400Y-131907500D03*
X129859400Y-131907500D03*
X132399400Y-131907500D03*
X134939400Y-131907500D03*
X145099400Y-126827500D03*
X147639400Y-126827500D03*
X150179400Y-126827500D03*
X145099400Y-131907500D03*
X147639400Y-131907500D03*
X150179400Y-131907500D03*
X137479400Y-131907500D03*
X142559400Y-131907500D03*
X165419400Y-112257500D03*
X165419400Y-119257500D03*
X165419400Y-131857500D03*
X165419400Y-135357500D03*
X165419400Y-138857500D03*
X165419400Y-115757500D03*
D16*
X172359400Y-119257500D03*
D17*
X172359400Y-115757500D03*
X172359400Y-112257500D03*
D20*
X152719400Y-103967500D03*
X152719400Y-106507500D03*
X152719400Y-109047500D03*
X152719400Y-111587500D03*
X152719400Y-114127500D03*
X152719400Y-116667500D03*
X152719400Y-119207500D03*
X152719400Y-121747500D03*
X152719400Y-136987500D03*
X152719400Y-139527500D03*
X152719400Y-142067500D03*
X152719400Y-144607500D03*
X152719400Y-147147500D03*
X155259400Y-103967500D03*
X155259400Y-106507500D03*
X155259400Y-109047500D03*
X155259400Y-111587500D03*
X155259400Y-114127500D03*
X155259400Y-116667500D03*
X155259400Y-119207500D03*
X155259400Y-121747500D03*
X155259400Y-124287500D03*
X155259400Y-126827500D03*
X155259400Y-129367500D03*
X155259400Y-131907500D03*
X155259400Y-134447500D03*
X155259400Y-136987500D03*
X155259400Y-139527500D03*
X155259400Y-142067500D03*
X155259400Y-144607500D03*
X155259400Y-147147500D03*
X157799400Y-103967500D03*
X157799400Y-106507500D03*
X157799400Y-109047500D03*
X157799400Y-111587500D03*
X157799400Y-114127500D03*
X157799400Y-116667500D03*
X157799400Y-119207500D03*
X157799400Y-121747500D03*
X157799400Y-124287500D03*
X157799400Y-126827500D03*
X157799400Y-129367500D03*
X157799400Y-131907500D03*
X157799400Y-134447500D03*
X157799400Y-136987500D03*
X157799400Y-139527500D03*
X157799400Y-142067500D03*
X157799400Y-144607500D03*
X157799400Y-147147500D03*
X160339400Y-103967500D03*
X160339400Y-106507500D03*
X160339400Y-109047500D03*
X160339400Y-111587500D03*
X160339400Y-114127500D03*
X160339400Y-116667500D03*
X160339400Y-119207500D03*
X160339400Y-121747500D03*
X160339400Y-124287500D03*
X160339400Y-126827500D03*
X160339400Y-129367500D03*
X160339400Y-131907500D03*
X160339400Y-134447500D03*
X160339400Y-136987500D03*
X160339400Y-139527500D03*
X145099400Y-103967500D03*
X160339400Y-142067500D03*
X142559400Y-103967500D03*
X160339400Y-144607500D03*
X160339400Y-147147500D03*
X162879400Y-103967500D03*
X162879400Y-106507500D03*
X162879400Y-109047500D03*
X162879400Y-111587500D03*
X162879400Y-114127500D03*
X162879400Y-116667500D03*
X162879400Y-119207500D03*
X162879400Y-121747500D03*
X162879400Y-124287500D03*
X162879400Y-126827500D03*
X132399400Y-134447500D03*
X127319400Y-139527500D03*
X122239400Y-147147500D03*
X127319400Y-142067500D03*
X137479400Y-142067500D03*
X147639400Y-121747500D03*
X150179400Y-136987500D03*
X150179400Y-139527500D03*
X124779400Y-139527500D03*
X145099400Y-114127500D03*
X142559400Y-134447500D03*
X145099400Y-124287500D03*
X162879400Y-129367500D03*
X162879400Y-131907500D03*
X162879400Y-134447500D03*
X162879400Y-136987500D03*
X162879400Y-139527500D03*
X162879400Y-142067500D03*
X162879400Y-144607500D03*
X162879400Y-147147500D03*
X150179400Y-114127500D03*
X150179400Y-116667500D03*
X150179400Y-119207500D03*
X150179400Y-121747500D03*
X147639400Y-114127500D03*
X147639400Y-116667500D03*
X147639400Y-119207500D03*
X127319400Y-147147500D03*
X129859400Y-136987500D03*
X127319400Y-144607500D03*
X147639400Y-134447500D03*
X145099400Y-134447500D03*
X142559400Y-147147500D03*
X150179400Y-124287500D03*
X134939400Y-147147500D03*
X122239400Y-134447500D03*
X132399400Y-136987500D03*
X137479400Y-134447500D03*
X134939400Y-134447500D03*
X134939400Y-144607500D03*
X114619400Y-134447500D03*
X112079400Y-134447500D03*
X140019400Y-142067500D03*
X132399400Y-144607500D03*
X142559400Y-136987500D03*
X147639400Y-142067500D03*
X122239400Y-139527500D03*
X124779400Y-147147500D03*
X119699400Y-136987500D03*
X129859400Y-142067500D03*
X137479400Y-136987500D03*
X147639400Y-124287500D03*
X140019400Y-144607500D03*
X134939400Y-139527500D03*
X124779400Y-144607500D03*
X145099400Y-119207500D03*
X140019400Y-147147500D03*
X147639400Y-144607500D03*
X129859400Y-147147500D03*
X152719400Y-126827500D03*
X145099400Y-111587500D03*
X152719400Y-129367500D03*
X145099400Y-144607500D03*
X124779400Y-136987500D03*
X145099400Y-121747500D03*
X132399400Y-147147500D03*
X145099400Y-116667500D03*
X112079400Y-136987500D03*
X145099400Y-139527500D03*
X150179400Y-134447500D03*
X152719400Y-134447500D03*
X122239400Y-142067500D03*
X124779400Y-142067500D03*
X122239400Y-144607500D03*
X147639400Y-136987500D03*
X142559400Y-142067500D03*
X140019400Y-136987500D03*
X117159400Y-134447500D03*
X150179400Y-144607500D03*
X150179400Y-147147500D03*
X150179400Y-142067500D03*
X145099400Y-136987500D03*
X129859400Y-134447500D03*
X137479400Y-144607500D03*
X127319400Y-134447500D03*
X124779400Y-134447500D03*
X140019400Y-134447500D03*
X152719400Y-131907500D03*
X140019400Y-139527500D03*
X147639400Y-139527500D03*
X137479400Y-139527500D03*
X114619400Y-136987500D03*
X147639400Y-147147500D03*
X132399400Y-142067500D03*
X127319400Y-136987500D03*
X129859400Y-139527500D03*
X134939400Y-142067500D03*
X132399400Y-139527500D03*
X117159400Y-136987500D03*
X145099400Y-142067500D03*
X119699400Y-134447500D03*
X122239400Y-136987500D03*
X142559400Y-144607500D03*
X142559400Y-139527500D03*
X129859400Y-144607500D03*
X134939400Y-136987500D03*
X137479400Y-147147500D03*
X145099400Y-147147500D03*
D14*
X167959400Y-124287500D03*
D20*
X150179400Y-103967500D03*
X150179400Y-106507500D03*
X150179400Y-109047500D03*
X152719400Y-124287500D03*
X150179400Y-111587500D03*
X147639400Y-111587500D03*
D14*
X167959400Y-77827500D03*
X167959400Y-75287500D03*
D20*
X150179400Y-54967500D03*
X150179400Y-57507500D03*
X150179400Y-60047500D03*
X150179400Y-62587500D03*
X147639400Y-62587500D03*
X145099400Y-62587500D03*
X145099400Y-65127500D03*
X145099400Y-67667500D03*
X145099400Y-70207500D03*
X145099400Y-72747500D03*
X145099400Y-75287500D03*
X147639400Y-75287500D03*
X150179400Y-75287500D03*
X152719400Y-82907500D03*
X152719400Y-80367500D03*
X152719400Y-77827500D03*
X152719400Y-75287500D03*
X112079400Y-85447500D03*
X114619400Y-85447500D03*
X117159400Y-85447500D03*
X119699400Y-85447500D03*
X122239400Y-85447500D03*
X124779400Y-85447500D03*
X127319400Y-85447500D03*
X129859400Y-85447500D03*
X132399400Y-85447500D03*
X134939400Y-85447500D03*
X137479400Y-85447500D03*
X140019400Y-85447500D03*
X142559400Y-85447500D03*
X145099400Y-85447500D03*
X147639400Y-85447500D03*
X150179400Y-85447500D03*
X152719400Y-85447500D03*
X112079400Y-87987500D03*
X122239400Y-98147500D03*
X124779400Y-98147500D03*
X122239400Y-95607500D03*
X124779400Y-95607500D03*
X122239400Y-93067500D03*
X124779400Y-93067500D03*
X122239400Y-90527500D03*
X124779400Y-90527500D03*
X114619400Y-87987500D03*
X117159400Y-87987500D03*
X119699400Y-87987500D03*
X122239400Y-87987500D03*
X124779400Y-87987500D03*
X127319400Y-98147500D03*
X129859400Y-98147500D03*
X132399400Y-98147500D03*
X134939400Y-98147500D03*
X137479400Y-98147500D03*
X140019400Y-98147500D03*
X142559400Y-98147500D03*
X145099400Y-98147500D03*
X147639400Y-98147500D03*
X127319400Y-95607500D03*
X129859400Y-95607500D03*
X132399400Y-95607500D03*
X134939400Y-95607500D03*
X137479400Y-95607500D03*
X140019400Y-95607500D03*
X142559400Y-95607500D03*
X145099400Y-95607500D03*
X147639400Y-95607500D03*
X127319400Y-93067500D03*
X129859400Y-93067500D03*
X132399400Y-93067500D03*
X134939400Y-93067500D03*
X137479400Y-93067500D03*
X140019400Y-93067500D03*
X142559400Y-93067500D03*
X145099400Y-93067500D03*
X147639400Y-93067500D03*
X127319400Y-90527500D03*
X129859400Y-90527500D03*
X132399400Y-90527500D03*
X134939400Y-90527500D03*
X137479400Y-90527500D03*
X140019400Y-90527500D03*
X142559400Y-90527500D03*
X145099400Y-90527500D03*
X147639400Y-90527500D03*
X127319400Y-87987500D03*
X129859400Y-87987500D03*
X132399400Y-87987500D03*
X134939400Y-87987500D03*
X137479400Y-87987500D03*
X140019400Y-87987500D03*
X142559400Y-87987500D03*
X145099400Y-87987500D03*
X147639400Y-87987500D03*
X150179400Y-98147500D03*
X150179400Y-95607500D03*
X150179400Y-93067500D03*
X150179400Y-90527500D03*
X150179400Y-87987500D03*
X147639400Y-72747500D03*
X147639400Y-70207500D03*
X147639400Y-67667500D03*
X147639400Y-65127500D03*
X150179400Y-72747500D03*
X150179400Y-70207500D03*
X150179400Y-67667500D03*
X150179400Y-65127500D03*
X162879400Y-98147500D03*
X162879400Y-95607500D03*
X162879400Y-93067500D03*
X162879400Y-90527500D03*
X162879400Y-87987500D03*
X162879400Y-85447500D03*
X162879400Y-82907500D03*
X162879400Y-80367500D03*
X162879400Y-77827500D03*
X162879400Y-75287500D03*
X162879400Y-72747500D03*
X162879400Y-70207500D03*
X162879400Y-67667500D03*
X162879400Y-65127500D03*
X162879400Y-62587500D03*
X162879400Y-60047500D03*
X162879400Y-57507500D03*
X162879400Y-54967500D03*
X160339400Y-98147500D03*
X160339400Y-95607500D03*
X160339400Y-93067500D03*
X160339400Y-90527500D03*
X160339400Y-87987500D03*
X160339400Y-85447500D03*
X160339400Y-82907500D03*
X160339400Y-80367500D03*
X160339400Y-77827500D03*
X160339400Y-75287500D03*
X160339400Y-72747500D03*
X160339400Y-70207500D03*
X160339400Y-67667500D03*
X160339400Y-65127500D03*
X160339400Y-62587500D03*
X160339400Y-60047500D03*
X160339400Y-57507500D03*
X160339400Y-54967500D03*
X157799400Y-98147500D03*
X157799400Y-95607500D03*
X157799400Y-93067500D03*
X157799400Y-90527500D03*
X157799400Y-87987500D03*
X157799400Y-85447500D03*
X157799400Y-82907500D03*
X157799400Y-80367500D03*
X157799400Y-77827500D03*
X157799400Y-75287500D03*
X157799400Y-72747500D03*
X157799400Y-70207500D03*
X157799400Y-67667500D03*
X157799400Y-65127500D03*
X157799400Y-62587500D03*
X157799400Y-60047500D03*
X157799400Y-57507500D03*
X157799400Y-54967500D03*
X155259400Y-98147500D03*
X155259400Y-95607500D03*
X155259400Y-93067500D03*
X155259400Y-90527500D03*
X155259400Y-87987500D03*
X155259400Y-85447500D03*
X155259400Y-82907500D03*
X155259400Y-80367500D03*
X155259400Y-77827500D03*
X155259400Y-75287500D03*
X155259400Y-72747500D03*
X155259400Y-70207500D03*
X155259400Y-67667500D03*
X155259400Y-65127500D03*
X155259400Y-62587500D03*
X155259400Y-60047500D03*
X155259400Y-57507500D03*
X155259400Y-54967500D03*
X152719400Y-98147500D03*
X152719400Y-95607500D03*
X152719400Y-93067500D03*
X152719400Y-90527500D03*
X152719400Y-87987500D03*
X152719400Y-72747500D03*
X152719400Y-70207500D03*
X152719400Y-67667500D03*
X152719400Y-65127500D03*
X152719400Y-62587500D03*
X152719400Y-60047500D03*
X152719400Y-57507500D03*
X152719400Y-54967500D03*
D17*
X172359400Y-63257500D03*
X172359400Y-66757500D03*
D16*
X172359400Y-70257500D03*
D20*
X165419400Y-66757500D03*
X165419400Y-89857500D03*
X165419400Y-86357500D03*
X165419400Y-82857500D03*
X165419400Y-70257500D03*
X165419400Y-63257500D03*
X142559400Y-82907500D03*
X137479400Y-82907500D03*
X150179400Y-82907500D03*
X147639400Y-82907500D03*
X145099400Y-82907500D03*
X150179400Y-77827500D03*
X147639400Y-77827500D03*
X145099400Y-77827500D03*
X134939400Y-82907500D03*
X132399400Y-82907500D03*
X129859400Y-82907500D03*
X127319400Y-82907500D03*
X127319400Y-77827500D03*
X129859400Y-77827500D03*
X132399400Y-77827500D03*
X134939400Y-77827500D03*
X142559400Y-77827500D03*
X142559400Y-75287500D03*
X142559400Y-72747500D03*
X142559400Y-70207500D03*
X142559400Y-67667500D03*
X142559400Y-65127500D03*
X142559400Y-62587500D03*
X137479400Y-77827500D03*
X137479400Y-75306600D03*
X137479400Y-72747500D03*
X137479400Y-70207500D03*
X137479400Y-67667500D03*
X137479400Y-65127500D03*
X137479400Y-62587500D03*
X119699400Y-62587500D03*
X119699400Y-65127500D03*
X119699400Y-67667500D03*
X119699400Y-70207500D03*
X119699400Y-72747500D03*
X119699400Y-75287500D03*
X119699400Y-77827500D03*
X119699400Y-80367500D03*
X114619400Y-62587500D03*
X114619400Y-65127500D03*
X114619400Y-67667500D03*
X114619400Y-70207500D03*
X114619400Y-72747500D03*
X114619400Y-75287500D03*
X114619400Y-77827500D03*
X114619400Y-80367500D03*
X147639400Y-60047500D03*
X145099400Y-60047500D03*
X142559400Y-60047500D03*
X140019400Y-60047500D03*
X137479400Y-60047500D03*
X134939400Y-60047500D03*
X132399400Y-60047500D03*
X129859400Y-60047500D03*
X147639400Y-54967500D03*
X145099400Y-54967500D03*
X142559400Y-54967500D03*
X140019400Y-54967500D03*
X137479400Y-54967500D03*
X134939400Y-54967500D03*
X132399400Y-54967500D03*
X129859400Y-54967500D03*
D19*
X147639400Y-80367500D03*
X145099400Y-80367500D03*
X142559400Y-80367500D03*
X140019400Y-80367500D03*
X137479400Y-80367500D03*
X134939400Y-80367500D03*
X132399400Y-80367500D03*
D18*
X129859400Y-80367500D03*
D19*
X147639400Y-57507500D03*
X145099400Y-57507500D03*
X142559400Y-57507500D03*
X140019400Y-57507500D03*
X137479400Y-57507500D03*
X134939400Y-57507500D03*
X132399400Y-57507500D03*
D18*
X129859400Y-57507500D03*
D19*
X117159400Y-62587500D03*
X117159400Y-65127500D03*
X117159400Y-67667500D03*
X117159400Y-70207500D03*
X117159400Y-72747500D03*
X117159400Y-75287500D03*
X117159400Y-77827500D03*
D18*
X117159400Y-80367500D03*
D19*
X140019400Y-62587500D03*
X140019400Y-65127500D03*
X140019400Y-67667500D03*
X140019400Y-70207500D03*
X140019400Y-72747500D03*
X140019400Y-75287500D03*
X140019400Y-77827500D03*
D18*
X140019400Y-80367500D03*
D17*
X172359400Y-82857500D03*
X172359400Y-86357500D03*
D16*
X172359400Y-89857500D03*
D15*
X167859400Y-96557500D03*
X117859400Y-56557500D03*
X110859400Y-76557500D03*
X117859400Y-96557500D03*
X167859400Y-56557500D03*
X174859400Y-76557500D03*
M02*
