M48
; DRILL file {KiCad 5.1.5+dfsg1-2build2} date lun 15 nov 2021 17:15:14
; FORMAT={-:-/ absolute / metric / decimal}
; #@! TF.CreationDate,2021-11-15T17:15:14-05:00
; #@! TF.GenerationSoftware,Kicad,Pcbnew,5.1.5+dfsg1-2build2
; #@! TF.FileFunction,Plated,1,2,PTH
FMAT,2
METRIC
T1C0.800
T2C1.000
T3C1.200
%
G90
G05
T1
X167.959Y-77.828
X167.959Y-124.287
X167.959Y-75.287
X167.959Y-126.828
T2
X129.859Y-80.367
X132.399Y-80.367
X134.939Y-80.367
X137.479Y-80.367
X140.019Y-80.367
X142.559Y-80.367
X145.099Y-80.367
X147.639Y-80.367
X129.859Y-106.507
X132.399Y-106.507
X134.939Y-106.507
X137.479Y-106.507
X140.019Y-106.507
X142.559Y-106.507
X145.099Y-106.507
X147.639Y-106.507
X140.019Y-62.587
X140.019Y-65.127
X140.019Y-67.668
X140.019Y-70.207
X140.019Y-72.748
X140.019Y-75.287
X140.019Y-77.828
X140.019Y-80.367
X140.019Y-111.587
X140.019Y-114.127
X140.019Y-116.667
X140.019Y-119.207
X140.019Y-121.747
X140.019Y-124.287
X140.019Y-126.828
X140.019Y-129.368
X117.159Y-62.587
X117.159Y-65.127
X117.159Y-67.668
X117.159Y-70.207
X117.159Y-72.748
X117.159Y-75.287
X117.159Y-77.828
X117.159Y-80.367
X129.859Y-129.368
X132.399Y-129.368
X134.939Y-129.368
X137.479Y-129.368
X140.019Y-129.368
X142.559Y-129.368
X145.099Y-129.368
X147.639Y-129.368
X117.159Y-111.587
X117.159Y-114.127
X117.159Y-116.667
X117.159Y-119.207
X117.159Y-121.747
X117.159Y-124.287
X117.159Y-126.828
X117.159Y-129.368
X129.859Y-57.508
X132.399Y-57.508
X134.939Y-57.508
X137.479Y-57.508
X140.019Y-57.508
X142.559Y-57.508
X145.099Y-57.508
X147.639Y-57.508
T3
X142.559Y-77.828
X145.099Y-60.047
X150.179Y-103.968
X157.799Y-126.828
X124.779Y-95.608
X145.099Y-77.828
X134.939Y-126.828
X150.179Y-98.147
X152.719Y-144.607
X152.719Y-114.127
X137.479Y-144.607
X162.879Y-139.528
X152.719Y-75.287
X137.479Y-77.828
X160.339Y-144.607
X155.259Y-147.147
X147.639Y-98.147
X145.099Y-75.287
X155.259Y-70.207
X137.479Y-121.747
X152.719Y-82.907
X160.339Y-67.668
X142.559Y-109.047
X122.239Y-144.607
X124.779Y-144.607
X132.399Y-144.607
X145.099Y-114.127
X122.239Y-147.147
X140.019Y-93.067
X157.799Y-62.587
X172.359Y-112.257
X172.359Y-115.757
X172.359Y-119.257
X160.339Y-124.287
X122.239Y-98.147
X162.879Y-57.508
X165.419Y-119.257
X119.699Y-124.287
X114.619Y-136.987
X124.779Y-136.987
X150.179Y-124.287
X137.479Y-85.447
X162.879Y-77.828
X155.259Y-95.608
X140.019Y-134.447
X157.799Y-144.607
X132.399Y-90.527
X134.939Y-131.907
X137.479Y-147.147
X155.259Y-116.667
X150.179Y-121.747
X162.879Y-65.127
X155.259Y-82.907
X162.879Y-116.667
X157.799Y-119.207
X145.099Y-65.127
X165.419Y-70.257
X119.699Y-67.668
X165.419Y-138.857
X142.559Y-121.747
X122.239Y-136.987
X145.099Y-98.147
X150.179Y-111.587
X147.639Y-54.967
X152.719Y-136.987
X152.719Y-106.507
X150.179Y-142.067
X162.879Y-131.907
X132.399Y-77.828
X114.619Y-80.367
X145.099Y-103.968
X155.259Y-139.528
X134.939Y-90.527
X142.559Y-98.147
X157.799Y-95.608
X150.179Y-77.828
X137.479Y-114.127
X119.699Y-62.587
X134.939Y-109.047
X117.159Y-136.987
X152.719Y-134.447
X147.639Y-124.287
X114.619Y-134.447
X150.179Y-136.987
X162.879Y-126.828
X122.239Y-87.987
X129.859Y-93.067
X160.339Y-87.987
X155.259Y-57.508
X142.559Y-65.127
X160.339Y-116.667
X147.639Y-87.987
X162.879Y-87.987
X157.799Y-82.907
X152.719Y-72.748
X127.319Y-77.828
X137.479Y-131.907
X114.619Y-111.587
X140.019Y-139.528
X145.099Y-111.587
X147.639Y-134.447
X124.779Y-98.147
X127.319Y-95.608
X150.179Y-72.748
X160.339Y-75.287
X157.799Y-136.987
X122.239Y-95.608
X134.939Y-95.608
X150.179Y-90.527
X157.799Y-70.207
X127.319Y-131.907
X140.019Y-90.527
X145.099Y-67.668
X127.319Y-93.067
X155.259Y-65.127
X152.719Y-90.527
X155.259Y-109.047
X165.419Y-115.757
X150.179Y-114.127
X137.479Y-98.147
X162.879Y-95.608
X132.399Y-85.447
X160.339Y-93.067
X160.339Y-62.587
X162.879Y-109.047
X157.799Y-111.587
X140.019Y-95.608
X142.559Y-114.127
X142.559Y-144.607
X160.339Y-98.147
X145.099Y-147.147
X117.159Y-134.447
X124.779Y-147.147
X137.479Y-90.527
X117.159Y-85.447
X160.339Y-134.447
X155.259Y-131.907
X134.939Y-98.147
X155.259Y-90.527
X165.419Y-86.358
X119.699Y-114.127
X132.399Y-93.067
X132.399Y-60.047
X147.639Y-103.968
X134.939Y-103.968
X129.859Y-139.528
X112.079Y-136.987
X119.699Y-136.987
X137.479Y-134.447
X142.559Y-134.447
X127.319Y-142.067
X114.619Y-126.828
X119.699Y-85.447
X145.099Y-72.748
X114.619Y-75.287
X132.399Y-54.967
X160.339Y-109.047
X155.259Y-77.828
X152.719Y-54.967
X147.639Y-82.907
X145.099Y-131.907
X114.619Y-119.207
X150.179Y-106.507
X142.559Y-95.608
X122.239Y-90.527
X137.479Y-65.127
X147.639Y-144.607
X127.319Y-147.147
X145.099Y-87.987
X142.559Y-70.207
X145.099Y-142.067
X157.799Y-129.368
X129.859Y-82.907
X132.399Y-126.828
X157.799Y-90.527
X152.719Y-147.147
X152.719Y-116.667
X127.319Y-134.447
X162.879Y-142.067
X157.799Y-57.508
X152.719Y-67.668
X160.339Y-147.147
X157.799Y-103.968
X147.639Y-90.527
X147.639Y-70.207
X160.339Y-82.907
X152.719Y-98.147
X137.479Y-124.307
X119.699Y-87.987
X147.639Y-85.447
X162.879Y-82.907
X157.799Y-77.828
X152.719Y-95.608
X114.619Y-65.127
X145.099Y-109.047
X147.639Y-136.987
X142.559Y-136.987
X162.879Y-72.748
X160.339Y-126.828
X155.259Y-124.287
X150.179Y-67.668
X160.339Y-70.207
X165.419Y-131.857
X119.699Y-121.747
X150.179Y-75.287
X147.639Y-72.748
X142.559Y-139.528
X147.639Y-147.147
X145.099Y-121.747
X134.939Y-147.147
X119.699Y-80.367
X157.799Y-147.147
X142.559Y-90.527
X132.399Y-98.147
X147.639Y-93.067
X162.879Y-90.527
X160.339Y-57.508
X145.099Y-126.828
X150.179Y-95.608
X137.479Y-60.047
X155.259Y-119.207
X147.639Y-114.127
X142.559Y-54.967
X114.619Y-70.207
X137.479Y-54.967
X162.879Y-119.207
X157.799Y-121.747
X147.639Y-95.608
X152.719Y-60.047
X137.479Y-82.907
X119.699Y-75.287
X142.559Y-124.287
X147.639Y-62.587
X150.179Y-60.047
X140.019Y-98.147
X155.259Y-85.447
X137.479Y-70.207
X152.719Y-139.528
X152.719Y-109.047
X145.099Y-136.987
X162.879Y-134.447
X134.939Y-85.447
X142.559Y-85.447
X142.559Y-75.287
X142.559Y-60.047
X160.339Y-142.067
X155.259Y-142.067
X134.939Y-82.907
X137.479Y-116.667
X119.699Y-134.447
X147.639Y-111.587
X147.639Y-75.287
X155.259Y-72.748
X152.719Y-65.127
X137.479Y-109.047
X122.239Y-142.067
X140.019Y-144.607
X112.079Y-134.447
X150.179Y-139.528
X132.399Y-134.447
X127.319Y-98.147
X137.479Y-75.307
X160.339Y-119.207
X157.799Y-65.127
X165.419Y-66.757
X142.559Y-131.907
X119.699Y-129.368
X162.879Y-60.047
X160.339Y-90.527
X147.639Y-139.528
X152.719Y-129.368
X145.099Y-134.447
X129.859Y-87.987
X157.799Y-139.528
X155.259Y-98.147
X172.359Y-82.858
X172.359Y-86.358
X172.359Y-89.858
X129.859Y-131.907
X147.639Y-65.127
X160.339Y-77.828
X155.259Y-111.587
X150.179Y-109.047
X150.179Y-116.667
X157.799Y-72.748
X129.859Y-144.607
X162.879Y-111.587
X157.799Y-114.127
X127.319Y-85.447
X129.859Y-98.147
X162.879Y-67.668
X142.559Y-116.667
X140.019Y-87.987
X152.719Y-119.207
X150.179Y-144.607
X160.339Y-136.987
X155.259Y-134.447
X165.419Y-63.258
X119.699Y-70.207
X119.699Y-111.587
X157.799Y-98.147
X129.859Y-109.047
X137.479Y-103.968
X134.939Y-142.067
X145.099Y-139.528
X129.859Y-142.067
X134.939Y-134.447
X145.099Y-124.287
X137.479Y-142.067
X114.619Y-124.287
X132.399Y-95.608
X134.939Y-77.828
X147.639Y-60.047
X160.339Y-111.587
X129.859Y-95.608
X117.159Y-87.987
X145.099Y-90.527
X155.259Y-60.047
X147.639Y-77.828
X147.639Y-131.907
X114.619Y-116.667
X152.719Y-85.447
X152.719Y-80.367
X114.619Y-85.447
X157.799Y-85.447
X145.099Y-119.207
X129.859Y-147.147
X129.859Y-136.987
X142.559Y-62.587
X157.799Y-131.907
X152.719Y-70.207
X129.859Y-77.828
X129.859Y-126.828
X155.259Y-103.968
X124.779Y-134.447
X162.879Y-144.607
X150.179Y-62.587
X155.259Y-67.668
X162.879Y-103.968
X157.799Y-106.507
X162.879Y-98.147
X160.339Y-65.127
X137.479Y-126.828
X157.799Y-60.047
X152.719Y-87.987
X147.639Y-109.047
X142.559Y-142.067
X147.639Y-142.067
X112.079Y-85.447
X137.479Y-93.067
X162.879Y-54.967
X160.339Y-129.368
X155.259Y-126.828
X150.179Y-54.967
X132.399Y-87.987
X119.699Y-119.207
X134.939Y-136.987
X162.879Y-75.287
X145.099Y-54.967
X155.259Y-93.067
X129.859Y-103.968
X132.399Y-142.067
X132.399Y-147.147
X122.239Y-134.447
X114.619Y-87.987
X160.339Y-103.968
X165.419Y-82.858
X119.699Y-65.127
X147.639Y-126.828
X140.019Y-85.447
X152.719Y-77.828
X162.879Y-62.587
X155.259Y-80.367
X129.859Y-60.047
X155.259Y-121.747
X162.879Y-121.747
X147.639Y-116.667
X137.479Y-87.987
X114.619Y-77.828
X157.799Y-124.287
X172.359Y-63.258
X172.359Y-66.757
X172.359Y-70.257
X145.099Y-82.907
X142.559Y-126.828
X134.939Y-93.067
X137.479Y-62.587
X152.719Y-142.067
X152.719Y-111.587
X129.859Y-134.447
X162.879Y-136.987
X157.799Y-93.067
X142.559Y-67.668
X142.559Y-103.968
X155.259Y-144.607
X127.319Y-82.907
X137.479Y-119.207
X160.339Y-85.447
X155.259Y-54.967
X140.019Y-109.047
X124.779Y-142.067
X134.939Y-139.528
X140.019Y-142.067
X124.779Y-139.528
X127.319Y-139.528
X145.099Y-93.067
X162.879Y-85.447
X157.799Y-80.367
X160.339Y-121.747
X137.479Y-95.608
X165.419Y-112.257
X119.699Y-126.828
X150.179Y-70.207
X160.339Y-72.748
X152.719Y-93.067
X114.619Y-67.668
X137.479Y-139.528
X145.099Y-144.607
X142.559Y-147.147
X150.179Y-87.987
X157.799Y-67.668
X157.799Y-142.067
X122.239Y-93.067
X155.259Y-62.587
X132.399Y-131.907
X124.779Y-85.447
X162.879Y-93.067
X160.339Y-60.047
X129.859Y-54.967
X155.259Y-114.127
X150.179Y-119.207
X162.879Y-114.127
X157.799Y-116.667
X160.339Y-95.608
X165.419Y-89.858
X165.419Y-135.357
X142.559Y-119.207
X145.099Y-62.587
X134.939Y-60.047
X152.719Y-121.747
X152.719Y-103.968
X150.179Y-147.147
X162.879Y-129.368
X129.859Y-85.447
X155.259Y-87.987
X114.619Y-72.748
X134.939Y-54.967
X160.339Y-139.528
X155.259Y-136.987
X124.779Y-93.067
X152.719Y-57.508
X150.179Y-82.907
X137.479Y-111.587
X150.179Y-93.067
X137.479Y-67.668
X132.399Y-109.047
X140.019Y-103.968
X132.399Y-139.528
X150.179Y-134.447
X137.479Y-136.987
X134.939Y-144.607
X147.639Y-121.747
X162.879Y-124.287
X142.559Y-93.067
X145.099Y-70.207
X155.259Y-75.287
X142.559Y-72.748
X140.019Y-60.047
X160.339Y-114.127
X132.399Y-82.907
X150.179Y-131.907
X114.619Y-114.127
X172.359Y-131.857
X172.359Y-135.357
X172.359Y-138.857
X134.939Y-87.987
X152.719Y-62.587
X152.719Y-131.907
X152.719Y-126.828
X127.319Y-144.607
X145.099Y-95.608
X137.479Y-72.748
X157.799Y-134.447
X150.179Y-57.508
X157.799Y-87.987
X127.319Y-126.828
X127.319Y-90.527
X157.799Y-54.967
X114.619Y-62.587
X155.259Y-106.507
X162.879Y-147.147
X129.859Y-90.527
X142.559Y-87.987
X147.639Y-67.668
X124.779Y-90.527
X160.339Y-80.367
X162.879Y-106.507
X157.799Y-109.047
X150.179Y-85.447
X162.879Y-80.367
X157.799Y-75.287
X142.559Y-111.587
X127.319Y-87.987
X162.879Y-70.207
X114.619Y-129.368
X140.019Y-136.987
X122.239Y-139.528
X150.179Y-65.127
X119.699Y-77.828
X160.339Y-131.907
X155.259Y-129.368
X124.779Y-87.987
X119.699Y-116.667
X132.399Y-103.968
X127.319Y-136.987
X145.099Y-116.667
X132.399Y-136.987
X112.079Y-87.987
X122.239Y-85.447
X145.099Y-85.447
X160.339Y-54.967
X140.019Y-54.967
X152.719Y-124.287
X160.339Y-106.507
X142.559Y-82.907
X119.699Y-72.748
X150.179Y-126.828
X114.619Y-121.747
X140.019Y-147.147
X147.639Y-119.207
T0
M30
