G04 #@! TF.GenerationSoftware,KiCad,Pcbnew,5.1.5+dfsg1-2build2*
G04 #@! TF.CreationDate,2021-12-11T20:18:00-05:00*
G04 #@! TF.ProjectId,RAK11300_LORA_ADAPTABLE_NODE,52414b31-3133-4303-905f-4c4f52415f41,rev?*
G04 #@! TF.SameCoordinates,Original*
G04 #@! TF.FileFunction,Soldermask,Top*
G04 #@! TF.FilePolarity,Negative*
%FSLAX46Y46*%
G04 Gerber Fmt 4.6, Leading zero omitted, Abs format (unit mm)*
G04 Created by KiCad (PCBNEW 5.1.5+dfsg1-2build2) date 2021-12-11 20:18:00*
%MOMM*%
%LPD*%
G04 APERTURE LIST*
%ADD10C,0.100000*%
G04 APERTURE END LIST*
D10*
G36*
X159642724Y-144431497D02*
G01*
X159869906Y-144476686D01*
X160119412Y-144580035D01*
X160343962Y-144730075D01*
X160534925Y-144921038D01*
X160684965Y-145145588D01*
X160788314Y-145395094D01*
X160841000Y-145659968D01*
X160841000Y-145930032D01*
X160788314Y-146194906D01*
X160684965Y-146444412D01*
X160534925Y-146668962D01*
X160343962Y-146859925D01*
X160119412Y-147009965D01*
X159869906Y-147113314D01*
X159642724Y-147158503D01*
X159605033Y-147166000D01*
X159334967Y-147166000D01*
X159297276Y-147158503D01*
X159070094Y-147113314D01*
X158820588Y-147009965D01*
X158596038Y-146859925D01*
X158405075Y-146668962D01*
X158255035Y-146444412D01*
X158151686Y-146194906D01*
X158099000Y-145930032D01*
X158099000Y-145659968D01*
X158151686Y-145395094D01*
X158255035Y-145145588D01*
X158405075Y-144921038D01*
X158596038Y-144730075D01*
X158820588Y-144580035D01*
X159070094Y-144476686D01*
X159297276Y-144431497D01*
X159334967Y-144424000D01*
X159605033Y-144424000D01*
X159642724Y-144431497D01*
G37*
G36*
X112802585Y-142978802D02*
G01*
X112952410Y-143008604D01*
X113234674Y-143125521D01*
X113488705Y-143295259D01*
X113704741Y-143511295D01*
X113874479Y-143765326D01*
X113991396Y-144047590D01*
X114051000Y-144347240D01*
X114051000Y-144652760D01*
X113991396Y-144952410D01*
X113874479Y-145234674D01*
X113704741Y-145488705D01*
X113488705Y-145704741D01*
X113234674Y-145874479D01*
X112952410Y-145991396D01*
X112802585Y-146021198D01*
X112652761Y-146051000D01*
X112347239Y-146051000D01*
X112197415Y-146021198D01*
X112047590Y-145991396D01*
X111765326Y-145874479D01*
X111511295Y-145704741D01*
X111295259Y-145488705D01*
X111125521Y-145234674D01*
X111008604Y-144952410D01*
X110949000Y-144652760D01*
X110949000Y-144347240D01*
X111008604Y-144047590D01*
X111125521Y-143765326D01*
X111295259Y-143511295D01*
X111511295Y-143295259D01*
X111765326Y-143125521D01*
X112047590Y-143008604D01*
X112197415Y-142978802D01*
X112347239Y-142949000D01*
X112652761Y-142949000D01*
X112802585Y-142978802D01*
G37*
G36*
X171161000Y-141586000D02*
G01*
X168659000Y-141586000D01*
X168659000Y-139084000D01*
X171161000Y-139084000D01*
X171161000Y-141586000D01*
G37*
G36*
X163271000Y-140851000D02*
G01*
X161169000Y-140851000D01*
X161169000Y-138749000D01*
X163271000Y-138749000D01*
X163271000Y-140851000D01*
G37*
G36*
X110536564Y-138789389D02*
G01*
X110727833Y-138868615D01*
X110727835Y-138868616D01*
X110899973Y-138983635D01*
X111046365Y-139130027D01*
X111161385Y-139302167D01*
X111240611Y-139493436D01*
X111281000Y-139696484D01*
X111281000Y-139903516D01*
X111240611Y-140106564D01*
X111161385Y-140297833D01*
X111161384Y-140297835D01*
X111046365Y-140469973D01*
X110899973Y-140616365D01*
X110727835Y-140731384D01*
X110727834Y-140731385D01*
X110727833Y-140731385D01*
X110536564Y-140810611D01*
X110333516Y-140851000D01*
X110126484Y-140851000D01*
X109923436Y-140810611D01*
X109732167Y-140731385D01*
X109732166Y-140731385D01*
X109732165Y-140731384D01*
X109560027Y-140616365D01*
X109413635Y-140469973D01*
X109298616Y-140297835D01*
X109298615Y-140297833D01*
X109219389Y-140106564D01*
X109179000Y-139903516D01*
X109179000Y-139696484D01*
X109219389Y-139493436D01*
X109298615Y-139302167D01*
X109413635Y-139130027D01*
X109560027Y-138983635D01*
X109732165Y-138868616D01*
X109732167Y-138868615D01*
X109923436Y-138789389D01*
X110126484Y-138749000D01*
X110333516Y-138749000D01*
X110536564Y-138789389D01*
G37*
G36*
X170274903Y-135632075D02*
G01*
X170502571Y-135726378D01*
X170707466Y-135863285D01*
X170881715Y-136037534D01*
X171018622Y-136242429D01*
X171112925Y-136470097D01*
X171161000Y-136711787D01*
X171161000Y-136958213D01*
X171112925Y-137199903D01*
X171018622Y-137427571D01*
X170881715Y-137632466D01*
X170707466Y-137806715D01*
X170502571Y-137943622D01*
X170502570Y-137943623D01*
X170502569Y-137943623D01*
X170274903Y-138037925D01*
X170033214Y-138086000D01*
X169786786Y-138086000D01*
X169545097Y-138037925D01*
X169317431Y-137943623D01*
X169317430Y-137943623D01*
X169317429Y-137943622D01*
X169112534Y-137806715D01*
X168938285Y-137632466D01*
X168801378Y-137427571D01*
X168707075Y-137199903D01*
X168659000Y-136958213D01*
X168659000Y-136711787D01*
X168707075Y-136470097D01*
X168801378Y-136242429D01*
X168938285Y-136037534D01*
X169112534Y-135863285D01*
X169317429Y-135726378D01*
X169545097Y-135632075D01*
X169786786Y-135584000D01*
X170033214Y-135584000D01*
X170274903Y-135632075D01*
G37*
G36*
X113162724Y-132441497D02*
G01*
X113389906Y-132486686D01*
X113639412Y-132590035D01*
X113863962Y-132740075D01*
X114054925Y-132931038D01*
X114204965Y-133155588D01*
X114308314Y-133405094D01*
X114361000Y-133669968D01*
X114361000Y-133940032D01*
X114308314Y-134204906D01*
X114204965Y-134454412D01*
X114054925Y-134678962D01*
X113863962Y-134869925D01*
X113639412Y-135019965D01*
X113389906Y-135123314D01*
X113162724Y-135168503D01*
X113125033Y-135176000D01*
X112854967Y-135176000D01*
X112817276Y-135168503D01*
X112590094Y-135123314D01*
X112340588Y-135019965D01*
X112116038Y-134869925D01*
X111925075Y-134678962D01*
X111775035Y-134454412D01*
X111671686Y-134204906D01*
X111619000Y-133940032D01*
X111619000Y-133669968D01*
X111671686Y-133405094D01*
X111775035Y-133155588D01*
X111925075Y-132931038D01*
X112116038Y-132740075D01*
X112340588Y-132590035D01*
X112590094Y-132486686D01*
X112817276Y-132441497D01*
X112854967Y-132434000D01*
X113125033Y-132434000D01*
X113162724Y-132441497D01*
G37*
G36*
X170274903Y-132132075D02*
G01*
X170502571Y-132226378D01*
X170707466Y-132363285D01*
X170881715Y-132537534D01*
X170881716Y-132537536D01*
X171018623Y-132742431D01*
X171112925Y-132970097D01*
X171149822Y-133155588D01*
X171161000Y-133211787D01*
X171161000Y-133458213D01*
X171112925Y-133699903D01*
X171018622Y-133927571D01*
X170881715Y-134132466D01*
X170707466Y-134306715D01*
X170502571Y-134443622D01*
X170502570Y-134443623D01*
X170502569Y-134443623D01*
X170274903Y-134537925D01*
X170033214Y-134586000D01*
X169786786Y-134586000D01*
X169545097Y-134537925D01*
X169317431Y-134443623D01*
X169317430Y-134443623D01*
X169317429Y-134443622D01*
X169112534Y-134306715D01*
X168938285Y-134132466D01*
X168801378Y-133927571D01*
X168707075Y-133699903D01*
X168659000Y-133458213D01*
X168659000Y-133211787D01*
X168670179Y-133155588D01*
X168707075Y-132970097D01*
X168801377Y-132742431D01*
X168938284Y-132537536D01*
X168938285Y-132537534D01*
X169112534Y-132363285D01*
X169317429Y-132226378D01*
X169545097Y-132132075D01*
X169786786Y-132084000D01*
X170033214Y-132084000D01*
X170274903Y-132132075D01*
G37*
G36*
X154988512Y-128608927D02*
G01*
X155137812Y-128638624D01*
X155301784Y-128706544D01*
X155449354Y-128805147D01*
X155574853Y-128930646D01*
X155673456Y-129078216D01*
X155741376Y-129242188D01*
X155776000Y-129416259D01*
X155776000Y-129593741D01*
X155741376Y-129767812D01*
X155673456Y-129931784D01*
X155574853Y-130079354D01*
X155449354Y-130204853D01*
X155301784Y-130303456D01*
X155137812Y-130371376D01*
X154988512Y-130401073D01*
X154963742Y-130406000D01*
X154786258Y-130406000D01*
X154761488Y-130401073D01*
X154612188Y-130371376D01*
X154448216Y-130303456D01*
X154300646Y-130204853D01*
X154175147Y-130079354D01*
X154076544Y-129931784D01*
X154008624Y-129767812D01*
X153974000Y-129593741D01*
X153974000Y-129416259D01*
X154008624Y-129242188D01*
X154076544Y-129078216D01*
X154175147Y-128930646D01*
X154300646Y-128805147D01*
X154448216Y-128706544D01*
X154612188Y-128638624D01*
X154761488Y-128608927D01*
X154786258Y-128604000D01*
X154963742Y-128604000D01*
X154988512Y-128608927D01*
G37*
G36*
X162608512Y-128608927D02*
G01*
X162757812Y-128638624D01*
X162921784Y-128706544D01*
X163069354Y-128805147D01*
X163194853Y-128930646D01*
X163293456Y-129078216D01*
X163361376Y-129242188D01*
X163396000Y-129416259D01*
X163396000Y-129593741D01*
X163361376Y-129767812D01*
X163293456Y-129931784D01*
X163194853Y-130079354D01*
X163069354Y-130204853D01*
X162921784Y-130303456D01*
X162757812Y-130371376D01*
X162608512Y-130401073D01*
X162583742Y-130406000D01*
X162406258Y-130406000D01*
X162381488Y-130401073D01*
X162232188Y-130371376D01*
X162068216Y-130303456D01*
X161920646Y-130204853D01*
X161795147Y-130079354D01*
X161696544Y-129931784D01*
X161628624Y-129767812D01*
X161594000Y-129593741D01*
X161594000Y-129416259D01*
X161628624Y-129242188D01*
X161696544Y-129078216D01*
X161795147Y-128930646D01*
X161920646Y-128805147D01*
X162068216Y-128706544D01*
X162232188Y-128638624D01*
X162381488Y-128608927D01*
X162406258Y-128604000D01*
X162583742Y-128604000D01*
X162608512Y-128608927D01*
G37*
G36*
X137208512Y-128608927D02*
G01*
X137357812Y-128638624D01*
X137521784Y-128706544D01*
X137669354Y-128805147D01*
X137794853Y-128930646D01*
X137893456Y-129078216D01*
X137961376Y-129242188D01*
X137996000Y-129416259D01*
X137996000Y-129593741D01*
X137961376Y-129767812D01*
X137893456Y-129931784D01*
X137794853Y-130079354D01*
X137669354Y-130204853D01*
X137521784Y-130303456D01*
X137357812Y-130371376D01*
X137208512Y-130401073D01*
X137183742Y-130406000D01*
X137006258Y-130406000D01*
X136981488Y-130401073D01*
X136832188Y-130371376D01*
X136668216Y-130303456D01*
X136520646Y-130204853D01*
X136395147Y-130079354D01*
X136296544Y-129931784D01*
X136228624Y-129767812D01*
X136194000Y-129593741D01*
X136194000Y-129416259D01*
X136228624Y-129242188D01*
X136296544Y-129078216D01*
X136395147Y-128930646D01*
X136520646Y-128805147D01*
X136668216Y-128706544D01*
X136832188Y-128638624D01*
X136981488Y-128608927D01*
X137006258Y-128604000D01*
X137183742Y-128604000D01*
X137208512Y-128608927D01*
G37*
G36*
X139748512Y-128608927D02*
G01*
X139897812Y-128638624D01*
X140061784Y-128706544D01*
X140209354Y-128805147D01*
X140334853Y-128930646D01*
X140433456Y-129078216D01*
X140501376Y-129242188D01*
X140536000Y-129416259D01*
X140536000Y-129593741D01*
X140501376Y-129767812D01*
X140433456Y-129931784D01*
X140334853Y-130079354D01*
X140209354Y-130204853D01*
X140061784Y-130303456D01*
X139897812Y-130371376D01*
X139748512Y-130401073D01*
X139723742Y-130406000D01*
X139546258Y-130406000D01*
X139521488Y-130401073D01*
X139372188Y-130371376D01*
X139208216Y-130303456D01*
X139060646Y-130204853D01*
X138935147Y-130079354D01*
X138836544Y-129931784D01*
X138768624Y-129767812D01*
X138734000Y-129593741D01*
X138734000Y-129416259D01*
X138768624Y-129242188D01*
X138836544Y-129078216D01*
X138935147Y-128930646D01*
X139060646Y-128805147D01*
X139208216Y-128706544D01*
X139372188Y-128638624D01*
X139521488Y-128608927D01*
X139546258Y-128604000D01*
X139723742Y-128604000D01*
X139748512Y-128608927D01*
G37*
G36*
X144828512Y-128608927D02*
G01*
X144977812Y-128638624D01*
X145141784Y-128706544D01*
X145289354Y-128805147D01*
X145414853Y-128930646D01*
X145513456Y-129078216D01*
X145581376Y-129242188D01*
X145616000Y-129416259D01*
X145616000Y-129593741D01*
X145581376Y-129767812D01*
X145513456Y-129931784D01*
X145414853Y-130079354D01*
X145289354Y-130204853D01*
X145141784Y-130303456D01*
X144977812Y-130371376D01*
X144828512Y-130401073D01*
X144803742Y-130406000D01*
X144626258Y-130406000D01*
X144601488Y-130401073D01*
X144452188Y-130371376D01*
X144288216Y-130303456D01*
X144140646Y-130204853D01*
X144015147Y-130079354D01*
X143916544Y-129931784D01*
X143848624Y-129767812D01*
X143814000Y-129593741D01*
X143814000Y-129416259D01*
X143848624Y-129242188D01*
X143916544Y-129078216D01*
X144015147Y-128930646D01*
X144140646Y-128805147D01*
X144288216Y-128706544D01*
X144452188Y-128638624D01*
X144601488Y-128608927D01*
X144626258Y-128604000D01*
X144803742Y-128604000D01*
X144828512Y-128608927D01*
G37*
G36*
X147368512Y-128608927D02*
G01*
X147517812Y-128638624D01*
X147681784Y-128706544D01*
X147829354Y-128805147D01*
X147954853Y-128930646D01*
X148053456Y-129078216D01*
X148121376Y-129242188D01*
X148156000Y-129416259D01*
X148156000Y-129593741D01*
X148121376Y-129767812D01*
X148053456Y-129931784D01*
X147954853Y-130079354D01*
X147829354Y-130204853D01*
X147681784Y-130303456D01*
X147517812Y-130371376D01*
X147368512Y-130401073D01*
X147343742Y-130406000D01*
X147166258Y-130406000D01*
X147141488Y-130401073D01*
X146992188Y-130371376D01*
X146828216Y-130303456D01*
X146680646Y-130204853D01*
X146555147Y-130079354D01*
X146456544Y-129931784D01*
X146388624Y-129767812D01*
X146354000Y-129593741D01*
X146354000Y-129416259D01*
X146388624Y-129242188D01*
X146456544Y-129078216D01*
X146555147Y-128930646D01*
X146680646Y-128805147D01*
X146828216Y-128706544D01*
X146992188Y-128638624D01*
X147141488Y-128608927D01*
X147166258Y-128604000D01*
X147343742Y-128604000D01*
X147368512Y-128608927D01*
G37*
G36*
X152448512Y-128608927D02*
G01*
X152597812Y-128638624D01*
X152761784Y-128706544D01*
X152909354Y-128805147D01*
X153034853Y-128930646D01*
X153133456Y-129078216D01*
X153201376Y-129242188D01*
X153236000Y-129416259D01*
X153236000Y-129593741D01*
X153201376Y-129767812D01*
X153133456Y-129931784D01*
X153034853Y-130079354D01*
X152909354Y-130204853D01*
X152761784Y-130303456D01*
X152597812Y-130371376D01*
X152448512Y-130401073D01*
X152423742Y-130406000D01*
X152246258Y-130406000D01*
X152221488Y-130401073D01*
X152072188Y-130371376D01*
X151908216Y-130303456D01*
X151760646Y-130204853D01*
X151635147Y-130079354D01*
X151536544Y-129931784D01*
X151468624Y-129767812D01*
X151434000Y-129593741D01*
X151434000Y-129416259D01*
X151468624Y-129242188D01*
X151536544Y-129078216D01*
X151635147Y-128930646D01*
X151760646Y-128805147D01*
X151908216Y-128706544D01*
X152072188Y-128638624D01*
X152221488Y-128608927D01*
X152246258Y-128604000D01*
X152423742Y-128604000D01*
X152448512Y-128608927D01*
G37*
G36*
X160068512Y-128608927D02*
G01*
X160217812Y-128638624D01*
X160381784Y-128706544D01*
X160529354Y-128805147D01*
X160654853Y-128930646D01*
X160753456Y-129078216D01*
X160821376Y-129242188D01*
X160856000Y-129416259D01*
X160856000Y-129593741D01*
X160821376Y-129767812D01*
X160753456Y-129931784D01*
X160654853Y-130079354D01*
X160529354Y-130204853D01*
X160381784Y-130303456D01*
X160217812Y-130371376D01*
X160068512Y-130401073D01*
X160043742Y-130406000D01*
X159866258Y-130406000D01*
X159841488Y-130401073D01*
X159692188Y-130371376D01*
X159528216Y-130303456D01*
X159380646Y-130204853D01*
X159255147Y-130079354D01*
X159156544Y-129931784D01*
X159088624Y-129767812D01*
X159054000Y-129593741D01*
X159054000Y-129416259D01*
X159088624Y-129242188D01*
X159156544Y-129078216D01*
X159255147Y-128930646D01*
X159380646Y-128805147D01*
X159528216Y-128706544D01*
X159692188Y-128638624D01*
X159841488Y-128608927D01*
X159866258Y-128604000D01*
X160043742Y-128604000D01*
X160068512Y-128608927D01*
G37*
G36*
X142288512Y-128608927D02*
G01*
X142437812Y-128638624D01*
X142601784Y-128706544D01*
X142749354Y-128805147D01*
X142874853Y-128930646D01*
X142973456Y-129078216D01*
X143041376Y-129242188D01*
X143076000Y-129416259D01*
X143076000Y-129593741D01*
X143041376Y-129767812D01*
X142973456Y-129931784D01*
X142874853Y-130079354D01*
X142749354Y-130204853D01*
X142601784Y-130303456D01*
X142437812Y-130371376D01*
X142288512Y-130401073D01*
X142263742Y-130406000D01*
X142086258Y-130406000D01*
X142061488Y-130401073D01*
X141912188Y-130371376D01*
X141748216Y-130303456D01*
X141600646Y-130204853D01*
X141475147Y-130079354D01*
X141376544Y-129931784D01*
X141308624Y-129767812D01*
X141274000Y-129593741D01*
X141274000Y-129416259D01*
X141308624Y-129242188D01*
X141376544Y-129078216D01*
X141475147Y-128930646D01*
X141600646Y-128805147D01*
X141748216Y-128706544D01*
X141912188Y-128638624D01*
X142061488Y-128608927D01*
X142086258Y-128604000D01*
X142263742Y-128604000D01*
X142288512Y-128608927D01*
G37*
G36*
X149908512Y-128608927D02*
G01*
X150057812Y-128638624D01*
X150221784Y-128706544D01*
X150369354Y-128805147D01*
X150494853Y-128930646D01*
X150593456Y-129078216D01*
X150661376Y-129242188D01*
X150696000Y-129416259D01*
X150696000Y-129593741D01*
X150661376Y-129767812D01*
X150593456Y-129931784D01*
X150494853Y-130079354D01*
X150369354Y-130204853D01*
X150221784Y-130303456D01*
X150057812Y-130371376D01*
X149908512Y-130401073D01*
X149883742Y-130406000D01*
X149706258Y-130406000D01*
X149681488Y-130401073D01*
X149532188Y-130371376D01*
X149368216Y-130303456D01*
X149220646Y-130204853D01*
X149095147Y-130079354D01*
X148996544Y-129931784D01*
X148928624Y-129767812D01*
X148894000Y-129593741D01*
X148894000Y-129416259D01*
X148928624Y-129242188D01*
X148996544Y-129078216D01*
X149095147Y-128930646D01*
X149220646Y-128805147D01*
X149368216Y-128706544D01*
X149532188Y-128638624D01*
X149681488Y-128608927D01*
X149706258Y-128604000D01*
X149883742Y-128604000D01*
X149908512Y-128608927D01*
G37*
G36*
X157528512Y-128608927D02*
G01*
X157677812Y-128638624D01*
X157841784Y-128706544D01*
X157989354Y-128805147D01*
X158114853Y-128930646D01*
X158213456Y-129078216D01*
X158281376Y-129242188D01*
X158316000Y-129416259D01*
X158316000Y-129593741D01*
X158281376Y-129767812D01*
X158213456Y-129931784D01*
X158114853Y-130079354D01*
X157989354Y-130204853D01*
X157841784Y-130303456D01*
X157677812Y-130371376D01*
X157528512Y-130401073D01*
X157503742Y-130406000D01*
X157326258Y-130406000D01*
X157301488Y-130401073D01*
X157152188Y-130371376D01*
X156988216Y-130303456D01*
X156840646Y-130204853D01*
X156715147Y-130079354D01*
X156616544Y-129931784D01*
X156548624Y-129767812D01*
X156514000Y-129593741D01*
X156514000Y-129416259D01*
X156548624Y-129242188D01*
X156616544Y-129078216D01*
X156715147Y-128930646D01*
X156840646Y-128805147D01*
X156988216Y-128706544D01*
X157152188Y-128638624D01*
X157301488Y-128608927D01*
X157326258Y-128604000D01*
X157503742Y-128604000D01*
X157528512Y-128608927D01*
G37*
G36*
X142288512Y-126068927D02*
G01*
X142437812Y-126098624D01*
X142601784Y-126166544D01*
X142749354Y-126265147D01*
X142874853Y-126390646D01*
X142973456Y-126538216D01*
X143041376Y-126702188D01*
X143076000Y-126876259D01*
X143076000Y-127053741D01*
X143041376Y-127227812D01*
X142973456Y-127391784D01*
X142874853Y-127539354D01*
X142749354Y-127664853D01*
X142601784Y-127763456D01*
X142437812Y-127831376D01*
X142288512Y-127861073D01*
X142263742Y-127866000D01*
X142086258Y-127866000D01*
X142061488Y-127861073D01*
X141912188Y-127831376D01*
X141748216Y-127763456D01*
X141600646Y-127664853D01*
X141475147Y-127539354D01*
X141376544Y-127391784D01*
X141308624Y-127227812D01*
X141274000Y-127053741D01*
X141274000Y-126876259D01*
X141308624Y-126702188D01*
X141376544Y-126538216D01*
X141475147Y-126390646D01*
X141600646Y-126265147D01*
X141748216Y-126166544D01*
X141912188Y-126098624D01*
X142061488Y-126068927D01*
X142086258Y-126064000D01*
X142263742Y-126064000D01*
X142288512Y-126068927D01*
G37*
G36*
X137208512Y-126068927D02*
G01*
X137357812Y-126098624D01*
X137521784Y-126166544D01*
X137669354Y-126265147D01*
X137794853Y-126390646D01*
X137893456Y-126538216D01*
X137961376Y-126702188D01*
X137996000Y-126876259D01*
X137996000Y-127053741D01*
X137961376Y-127227812D01*
X137893456Y-127391784D01*
X137794853Y-127539354D01*
X137669354Y-127664853D01*
X137521784Y-127763456D01*
X137357812Y-127831376D01*
X137208512Y-127861073D01*
X137183742Y-127866000D01*
X137006258Y-127866000D01*
X136981488Y-127861073D01*
X136832188Y-127831376D01*
X136668216Y-127763456D01*
X136520646Y-127664853D01*
X136395147Y-127539354D01*
X136296544Y-127391784D01*
X136228624Y-127227812D01*
X136194000Y-127053741D01*
X136194000Y-126876259D01*
X136228624Y-126702188D01*
X136296544Y-126538216D01*
X136395147Y-126390646D01*
X136520646Y-126265147D01*
X136668216Y-126166544D01*
X136832188Y-126098624D01*
X136981488Y-126068927D01*
X137006258Y-126064000D01*
X137183742Y-126064000D01*
X137208512Y-126068927D01*
G37*
G36*
X139748512Y-126068927D02*
G01*
X139897812Y-126098624D01*
X140061784Y-126166544D01*
X140209354Y-126265147D01*
X140334853Y-126390646D01*
X140433456Y-126538216D01*
X140501376Y-126702188D01*
X140536000Y-126876259D01*
X140536000Y-127053741D01*
X140501376Y-127227812D01*
X140433456Y-127391784D01*
X140334853Y-127539354D01*
X140209354Y-127664853D01*
X140061784Y-127763456D01*
X139897812Y-127831376D01*
X139748512Y-127861073D01*
X139723742Y-127866000D01*
X139546258Y-127866000D01*
X139521488Y-127861073D01*
X139372188Y-127831376D01*
X139208216Y-127763456D01*
X139060646Y-127664853D01*
X138935147Y-127539354D01*
X138836544Y-127391784D01*
X138768624Y-127227812D01*
X138734000Y-127053741D01*
X138734000Y-126876259D01*
X138768624Y-126702188D01*
X138836544Y-126538216D01*
X138935147Y-126390646D01*
X139060646Y-126265147D01*
X139208216Y-126166544D01*
X139372188Y-126098624D01*
X139521488Y-126068927D01*
X139546258Y-126064000D01*
X139723742Y-126064000D01*
X139748512Y-126068927D01*
G37*
G36*
X144828512Y-126068927D02*
G01*
X144977812Y-126098624D01*
X145141784Y-126166544D01*
X145289354Y-126265147D01*
X145414853Y-126390646D01*
X145513456Y-126538216D01*
X145581376Y-126702188D01*
X145616000Y-126876259D01*
X145616000Y-127053741D01*
X145581376Y-127227812D01*
X145513456Y-127391784D01*
X145414853Y-127539354D01*
X145289354Y-127664853D01*
X145141784Y-127763456D01*
X144977812Y-127831376D01*
X144828512Y-127861073D01*
X144803742Y-127866000D01*
X144626258Y-127866000D01*
X144601488Y-127861073D01*
X144452188Y-127831376D01*
X144288216Y-127763456D01*
X144140646Y-127664853D01*
X144015147Y-127539354D01*
X143916544Y-127391784D01*
X143848624Y-127227812D01*
X143814000Y-127053741D01*
X143814000Y-126876259D01*
X143848624Y-126702188D01*
X143916544Y-126538216D01*
X144015147Y-126390646D01*
X144140646Y-126265147D01*
X144288216Y-126166544D01*
X144452188Y-126098624D01*
X144601488Y-126068927D01*
X144626258Y-126064000D01*
X144803742Y-126064000D01*
X144828512Y-126068927D01*
G37*
G36*
X149908512Y-126068927D02*
G01*
X150057812Y-126098624D01*
X150221784Y-126166544D01*
X150369354Y-126265147D01*
X150494853Y-126390646D01*
X150593456Y-126538216D01*
X150661376Y-126702188D01*
X150696000Y-126876259D01*
X150696000Y-127053741D01*
X150661376Y-127227812D01*
X150593456Y-127391784D01*
X150494853Y-127539354D01*
X150369354Y-127664853D01*
X150221784Y-127763456D01*
X150057812Y-127831376D01*
X149908512Y-127861073D01*
X149883742Y-127866000D01*
X149706258Y-127866000D01*
X149681488Y-127861073D01*
X149532188Y-127831376D01*
X149368216Y-127763456D01*
X149220646Y-127664853D01*
X149095147Y-127539354D01*
X148996544Y-127391784D01*
X148928624Y-127227812D01*
X148894000Y-127053741D01*
X148894000Y-126876259D01*
X148928624Y-126702188D01*
X148996544Y-126538216D01*
X149095147Y-126390646D01*
X149220646Y-126265147D01*
X149368216Y-126166544D01*
X149532188Y-126098624D01*
X149681488Y-126068927D01*
X149706258Y-126064000D01*
X149883742Y-126064000D01*
X149908512Y-126068927D01*
G37*
G36*
X147368512Y-126068927D02*
G01*
X147517812Y-126098624D01*
X147681784Y-126166544D01*
X147829354Y-126265147D01*
X147954853Y-126390646D01*
X148053456Y-126538216D01*
X148121376Y-126702188D01*
X148156000Y-126876259D01*
X148156000Y-127053741D01*
X148121376Y-127227812D01*
X148053456Y-127391784D01*
X147954853Y-127539354D01*
X147829354Y-127664853D01*
X147681784Y-127763456D01*
X147517812Y-127831376D01*
X147368512Y-127861073D01*
X147343742Y-127866000D01*
X147166258Y-127866000D01*
X147141488Y-127861073D01*
X146992188Y-127831376D01*
X146828216Y-127763456D01*
X146680646Y-127664853D01*
X146555147Y-127539354D01*
X146456544Y-127391784D01*
X146388624Y-127227812D01*
X146354000Y-127053741D01*
X146354000Y-126876259D01*
X146388624Y-126702188D01*
X146456544Y-126538216D01*
X146555147Y-126390646D01*
X146680646Y-126265147D01*
X146828216Y-126166544D01*
X146992188Y-126098624D01*
X147141488Y-126068927D01*
X147166258Y-126064000D01*
X147343742Y-126064000D01*
X147368512Y-126068927D01*
G37*
G36*
X152448512Y-126068927D02*
G01*
X152597812Y-126098624D01*
X152761784Y-126166544D01*
X152909354Y-126265147D01*
X153034853Y-126390646D01*
X153133456Y-126538216D01*
X153201376Y-126702188D01*
X153236000Y-126876259D01*
X153236000Y-127053741D01*
X153201376Y-127227812D01*
X153133456Y-127391784D01*
X153034853Y-127539354D01*
X152909354Y-127664853D01*
X152761784Y-127763456D01*
X152597812Y-127831376D01*
X152448512Y-127861073D01*
X152423742Y-127866000D01*
X152246258Y-127866000D01*
X152221488Y-127861073D01*
X152072188Y-127831376D01*
X151908216Y-127763456D01*
X151760646Y-127664853D01*
X151635147Y-127539354D01*
X151536544Y-127391784D01*
X151468624Y-127227812D01*
X151434000Y-127053741D01*
X151434000Y-126876259D01*
X151468624Y-126702188D01*
X151536544Y-126538216D01*
X151635147Y-126390646D01*
X151760646Y-126265147D01*
X151908216Y-126166544D01*
X152072188Y-126098624D01*
X152221488Y-126068927D01*
X152246258Y-126064000D01*
X152423742Y-126064000D01*
X152448512Y-126068927D01*
G37*
G36*
X154988512Y-126068927D02*
G01*
X155137812Y-126098624D01*
X155301784Y-126166544D01*
X155449354Y-126265147D01*
X155574853Y-126390646D01*
X155673456Y-126538216D01*
X155741376Y-126702188D01*
X155776000Y-126876259D01*
X155776000Y-127053741D01*
X155741376Y-127227812D01*
X155673456Y-127391784D01*
X155574853Y-127539354D01*
X155449354Y-127664853D01*
X155301784Y-127763456D01*
X155137812Y-127831376D01*
X154988512Y-127861073D01*
X154963742Y-127866000D01*
X154786258Y-127866000D01*
X154761488Y-127861073D01*
X154612188Y-127831376D01*
X154448216Y-127763456D01*
X154300646Y-127664853D01*
X154175147Y-127539354D01*
X154076544Y-127391784D01*
X154008624Y-127227812D01*
X153974000Y-127053741D01*
X153974000Y-126876259D01*
X154008624Y-126702188D01*
X154076544Y-126538216D01*
X154175147Y-126390646D01*
X154300646Y-126265147D01*
X154448216Y-126166544D01*
X154612188Y-126098624D01*
X154761488Y-126068927D01*
X154786258Y-126064000D01*
X154963742Y-126064000D01*
X154988512Y-126068927D01*
G37*
G36*
X157528512Y-126068927D02*
G01*
X157677812Y-126098624D01*
X157841784Y-126166544D01*
X157989354Y-126265147D01*
X158114853Y-126390646D01*
X158213456Y-126538216D01*
X158281376Y-126702188D01*
X158316000Y-126876259D01*
X158316000Y-127053741D01*
X158281376Y-127227812D01*
X158213456Y-127391784D01*
X158114853Y-127539354D01*
X157989354Y-127664853D01*
X157841784Y-127763456D01*
X157677812Y-127831376D01*
X157528512Y-127861073D01*
X157503742Y-127866000D01*
X157326258Y-127866000D01*
X157301488Y-127861073D01*
X157152188Y-127831376D01*
X156988216Y-127763456D01*
X156840646Y-127664853D01*
X156715147Y-127539354D01*
X156616544Y-127391784D01*
X156548624Y-127227812D01*
X156514000Y-127053741D01*
X156514000Y-126876259D01*
X156548624Y-126702188D01*
X156616544Y-126538216D01*
X156715147Y-126390646D01*
X156840646Y-126265147D01*
X156988216Y-126166544D01*
X157152188Y-126098624D01*
X157301488Y-126068927D01*
X157326258Y-126064000D01*
X157503742Y-126064000D01*
X157528512Y-126068927D01*
G37*
G36*
X160068512Y-126068927D02*
G01*
X160217812Y-126098624D01*
X160381784Y-126166544D01*
X160529354Y-126265147D01*
X160654853Y-126390646D01*
X160753456Y-126538216D01*
X160821376Y-126702188D01*
X160856000Y-126876259D01*
X160856000Y-127053741D01*
X160821376Y-127227812D01*
X160753456Y-127391784D01*
X160654853Y-127539354D01*
X160529354Y-127664853D01*
X160381784Y-127763456D01*
X160217812Y-127831376D01*
X160068512Y-127861073D01*
X160043742Y-127866000D01*
X159866258Y-127866000D01*
X159841488Y-127861073D01*
X159692188Y-127831376D01*
X159528216Y-127763456D01*
X159380646Y-127664853D01*
X159255147Y-127539354D01*
X159156544Y-127391784D01*
X159088624Y-127227812D01*
X159054000Y-127053741D01*
X159054000Y-126876259D01*
X159088624Y-126702188D01*
X159156544Y-126538216D01*
X159255147Y-126390646D01*
X159380646Y-126265147D01*
X159528216Y-126166544D01*
X159692188Y-126098624D01*
X159841488Y-126068927D01*
X159866258Y-126064000D01*
X160043742Y-126064000D01*
X160068512Y-126068927D01*
G37*
G36*
X162608512Y-126068927D02*
G01*
X162757812Y-126098624D01*
X162921784Y-126166544D01*
X163069354Y-126265147D01*
X163194853Y-126390646D01*
X163293456Y-126538216D01*
X163361376Y-126702188D01*
X163396000Y-126876259D01*
X163396000Y-127053741D01*
X163361376Y-127227812D01*
X163293456Y-127391784D01*
X163194853Y-127539354D01*
X163069354Y-127664853D01*
X162921784Y-127763456D01*
X162757812Y-127831376D01*
X162608512Y-127861073D01*
X162583742Y-127866000D01*
X162406258Y-127866000D01*
X162381488Y-127861073D01*
X162232188Y-127831376D01*
X162068216Y-127763456D01*
X161920646Y-127664853D01*
X161795147Y-127539354D01*
X161696544Y-127391784D01*
X161628624Y-127227812D01*
X161594000Y-127053741D01*
X161594000Y-126876259D01*
X161628624Y-126702188D01*
X161696544Y-126538216D01*
X161795147Y-126390646D01*
X161920646Y-126265147D01*
X162068216Y-126166544D01*
X162232188Y-126098624D01*
X162381488Y-126068927D01*
X162406258Y-126064000D01*
X162583742Y-126064000D01*
X162608512Y-126068927D01*
G37*
G36*
X169802585Y-122978802D02*
G01*
X169952410Y-123008604D01*
X170234674Y-123125521D01*
X170488705Y-123295259D01*
X170704741Y-123511295D01*
X170874479Y-123765326D01*
X170991396Y-124047590D01*
X171051000Y-124347240D01*
X171051000Y-124652760D01*
X170991396Y-124952410D01*
X170874479Y-125234674D01*
X170704741Y-125488705D01*
X170488705Y-125704741D01*
X170234674Y-125874479D01*
X169952410Y-125991396D01*
X169802585Y-126021198D01*
X169652761Y-126051000D01*
X169347239Y-126051000D01*
X169197415Y-126021198D01*
X169047590Y-125991396D01*
X168765326Y-125874479D01*
X168511295Y-125704741D01*
X168295259Y-125488705D01*
X168125521Y-125234674D01*
X168008604Y-124952410D01*
X167949000Y-124652760D01*
X167949000Y-124347240D01*
X168008604Y-124047590D01*
X168125521Y-123765326D01*
X168295259Y-123511295D01*
X168511295Y-123295259D01*
X168765326Y-123125521D01*
X169047590Y-123008604D01*
X169197415Y-122978802D01*
X169347239Y-122949000D01*
X169652761Y-122949000D01*
X169802585Y-122978802D01*
G37*
G36*
X105802585Y-122978802D02*
G01*
X105952410Y-123008604D01*
X106234674Y-123125521D01*
X106488705Y-123295259D01*
X106704741Y-123511295D01*
X106874479Y-123765326D01*
X106991396Y-124047590D01*
X107051000Y-124347240D01*
X107051000Y-124652760D01*
X106991396Y-124952410D01*
X106874479Y-125234674D01*
X106704741Y-125488705D01*
X106488705Y-125704741D01*
X106234674Y-125874479D01*
X105952410Y-125991396D01*
X105802585Y-126021198D01*
X105652761Y-126051000D01*
X105347239Y-126051000D01*
X105197415Y-126021198D01*
X105047590Y-125991396D01*
X104765326Y-125874479D01*
X104511295Y-125704741D01*
X104295259Y-125488705D01*
X104125521Y-125234674D01*
X104008604Y-124952410D01*
X103949000Y-124652760D01*
X103949000Y-124347240D01*
X104008604Y-124047590D01*
X104125521Y-123765326D01*
X104295259Y-123511295D01*
X104511295Y-123295259D01*
X104765326Y-123125521D01*
X105047590Y-123008604D01*
X105197415Y-122978802D01*
X105347239Y-122949000D01*
X105652761Y-122949000D01*
X105802585Y-122978802D01*
G37*
G36*
X157528512Y-123528927D02*
G01*
X157677812Y-123558624D01*
X157841784Y-123626544D01*
X157989354Y-123725147D01*
X158114853Y-123850646D01*
X158213456Y-123998216D01*
X158281376Y-124162188D01*
X158316000Y-124336259D01*
X158316000Y-124513741D01*
X158281376Y-124687812D01*
X158213456Y-124851784D01*
X158114853Y-124999354D01*
X157989354Y-125124853D01*
X157841784Y-125223456D01*
X157677812Y-125291376D01*
X157528512Y-125321073D01*
X157503742Y-125326000D01*
X157326258Y-125326000D01*
X157301488Y-125321073D01*
X157152188Y-125291376D01*
X156988216Y-125223456D01*
X156840646Y-125124853D01*
X156715147Y-124999354D01*
X156616544Y-124851784D01*
X156548624Y-124687812D01*
X156514000Y-124513741D01*
X156514000Y-124336259D01*
X156548624Y-124162188D01*
X156616544Y-123998216D01*
X156715147Y-123850646D01*
X156840646Y-123725147D01*
X156988216Y-123626544D01*
X157152188Y-123558624D01*
X157301488Y-123528927D01*
X157326258Y-123524000D01*
X157503742Y-123524000D01*
X157528512Y-123528927D01*
G37*
G36*
X162608512Y-123528927D02*
G01*
X162757812Y-123558624D01*
X162921784Y-123626544D01*
X163069354Y-123725147D01*
X163194853Y-123850646D01*
X163293456Y-123998216D01*
X163361376Y-124162188D01*
X163396000Y-124336259D01*
X163396000Y-124513741D01*
X163361376Y-124687812D01*
X163293456Y-124851784D01*
X163194853Y-124999354D01*
X163069354Y-125124853D01*
X162921784Y-125223456D01*
X162757812Y-125291376D01*
X162608512Y-125321073D01*
X162583742Y-125326000D01*
X162406258Y-125326000D01*
X162381488Y-125321073D01*
X162232188Y-125291376D01*
X162068216Y-125223456D01*
X161920646Y-125124853D01*
X161795147Y-124999354D01*
X161696544Y-124851784D01*
X161628624Y-124687812D01*
X161594000Y-124513741D01*
X161594000Y-124336259D01*
X161628624Y-124162188D01*
X161696544Y-123998216D01*
X161795147Y-123850646D01*
X161920646Y-123725147D01*
X162068216Y-123626544D01*
X162232188Y-123558624D01*
X162381488Y-123528927D01*
X162406258Y-123524000D01*
X162583742Y-123524000D01*
X162608512Y-123528927D01*
G37*
G36*
X149908512Y-123528927D02*
G01*
X150057812Y-123558624D01*
X150221784Y-123626544D01*
X150369354Y-123725147D01*
X150494853Y-123850646D01*
X150593456Y-123998216D01*
X150661376Y-124162188D01*
X150696000Y-124336259D01*
X150696000Y-124513741D01*
X150661376Y-124687812D01*
X150593456Y-124851784D01*
X150494853Y-124999354D01*
X150369354Y-125124853D01*
X150221784Y-125223456D01*
X150057812Y-125291376D01*
X149908512Y-125321073D01*
X149883742Y-125326000D01*
X149706258Y-125326000D01*
X149681488Y-125321073D01*
X149532188Y-125291376D01*
X149368216Y-125223456D01*
X149220646Y-125124853D01*
X149095147Y-124999354D01*
X148996544Y-124851784D01*
X148928624Y-124687812D01*
X148894000Y-124513741D01*
X148894000Y-124336259D01*
X148928624Y-124162188D01*
X148996544Y-123998216D01*
X149095147Y-123850646D01*
X149220646Y-123725147D01*
X149368216Y-123626544D01*
X149532188Y-123558624D01*
X149681488Y-123528927D01*
X149706258Y-123524000D01*
X149883742Y-123524000D01*
X149908512Y-123528927D01*
G37*
G36*
X139748512Y-123528927D02*
G01*
X139897812Y-123558624D01*
X140061784Y-123626544D01*
X140209354Y-123725147D01*
X140334853Y-123850646D01*
X140433456Y-123998216D01*
X140501376Y-124162188D01*
X140536000Y-124336259D01*
X140536000Y-124513741D01*
X140501376Y-124687812D01*
X140433456Y-124851784D01*
X140334853Y-124999354D01*
X140209354Y-125124853D01*
X140061784Y-125223456D01*
X139897812Y-125291376D01*
X139748512Y-125321073D01*
X139723742Y-125326000D01*
X139546258Y-125326000D01*
X139521488Y-125321073D01*
X139372188Y-125291376D01*
X139208216Y-125223456D01*
X139060646Y-125124853D01*
X138935147Y-124999354D01*
X138836544Y-124851784D01*
X138768624Y-124687812D01*
X138734000Y-124513741D01*
X138734000Y-124336259D01*
X138768624Y-124162188D01*
X138836544Y-123998216D01*
X138935147Y-123850646D01*
X139060646Y-123725147D01*
X139208216Y-123626544D01*
X139372188Y-123558624D01*
X139521488Y-123528927D01*
X139546258Y-123524000D01*
X139723742Y-123524000D01*
X139748512Y-123528927D01*
G37*
G36*
X147368512Y-123528927D02*
G01*
X147517812Y-123558624D01*
X147681784Y-123626544D01*
X147829354Y-123725147D01*
X147954853Y-123850646D01*
X148053456Y-123998216D01*
X148121376Y-124162188D01*
X148156000Y-124336259D01*
X148156000Y-124513741D01*
X148121376Y-124687812D01*
X148053456Y-124851784D01*
X147954853Y-124999354D01*
X147829354Y-125124853D01*
X147681784Y-125223456D01*
X147517812Y-125291376D01*
X147368512Y-125321073D01*
X147343742Y-125326000D01*
X147166258Y-125326000D01*
X147141488Y-125321073D01*
X146992188Y-125291376D01*
X146828216Y-125223456D01*
X146680646Y-125124853D01*
X146555147Y-124999354D01*
X146456544Y-124851784D01*
X146388624Y-124687812D01*
X146354000Y-124513741D01*
X146354000Y-124336259D01*
X146388624Y-124162188D01*
X146456544Y-123998216D01*
X146555147Y-123850646D01*
X146680646Y-123725147D01*
X146828216Y-123626544D01*
X146992188Y-123558624D01*
X147141488Y-123528927D01*
X147166258Y-123524000D01*
X147343742Y-123524000D01*
X147368512Y-123528927D01*
G37*
G36*
X144828512Y-123528927D02*
G01*
X144977812Y-123558624D01*
X145141784Y-123626544D01*
X145289354Y-123725147D01*
X145414853Y-123850646D01*
X145513456Y-123998216D01*
X145581376Y-124162188D01*
X145616000Y-124336259D01*
X145616000Y-124513741D01*
X145581376Y-124687812D01*
X145513456Y-124851784D01*
X145414853Y-124999354D01*
X145289354Y-125124853D01*
X145141784Y-125223456D01*
X144977812Y-125291376D01*
X144828512Y-125321073D01*
X144803742Y-125326000D01*
X144626258Y-125326000D01*
X144601488Y-125321073D01*
X144452188Y-125291376D01*
X144288216Y-125223456D01*
X144140646Y-125124853D01*
X144015147Y-124999354D01*
X143916544Y-124851784D01*
X143848624Y-124687812D01*
X143814000Y-124513741D01*
X143814000Y-124336259D01*
X143848624Y-124162188D01*
X143916544Y-123998216D01*
X144015147Y-123850646D01*
X144140646Y-123725147D01*
X144288216Y-123626544D01*
X144452188Y-123558624D01*
X144601488Y-123528927D01*
X144626258Y-123524000D01*
X144803742Y-123524000D01*
X144828512Y-123528927D01*
G37*
G36*
X154988512Y-123528927D02*
G01*
X155137812Y-123558624D01*
X155301784Y-123626544D01*
X155449354Y-123725147D01*
X155574853Y-123850646D01*
X155673456Y-123998216D01*
X155741376Y-124162188D01*
X155776000Y-124336259D01*
X155776000Y-124513741D01*
X155741376Y-124687812D01*
X155673456Y-124851784D01*
X155574853Y-124999354D01*
X155449354Y-125124853D01*
X155301784Y-125223456D01*
X155137812Y-125291376D01*
X154988512Y-125321073D01*
X154963742Y-125326000D01*
X154786258Y-125326000D01*
X154761488Y-125321073D01*
X154612188Y-125291376D01*
X154448216Y-125223456D01*
X154300646Y-125124853D01*
X154175147Y-124999354D01*
X154076544Y-124851784D01*
X154008624Y-124687812D01*
X153974000Y-124513741D01*
X153974000Y-124336259D01*
X154008624Y-124162188D01*
X154076544Y-123998216D01*
X154175147Y-123850646D01*
X154300646Y-123725147D01*
X154448216Y-123626544D01*
X154612188Y-123558624D01*
X154761488Y-123528927D01*
X154786258Y-123524000D01*
X154963742Y-123524000D01*
X154988512Y-123528927D01*
G37*
G36*
X160068512Y-123528927D02*
G01*
X160217812Y-123558624D01*
X160381784Y-123626544D01*
X160529354Y-123725147D01*
X160654853Y-123850646D01*
X160753456Y-123998216D01*
X160821376Y-124162188D01*
X160856000Y-124336259D01*
X160856000Y-124513741D01*
X160821376Y-124687812D01*
X160753456Y-124851784D01*
X160654853Y-124999354D01*
X160529354Y-125124853D01*
X160381784Y-125223456D01*
X160217812Y-125291376D01*
X160068512Y-125321073D01*
X160043742Y-125326000D01*
X159866258Y-125326000D01*
X159841488Y-125321073D01*
X159692188Y-125291376D01*
X159528216Y-125223456D01*
X159380646Y-125124853D01*
X159255147Y-124999354D01*
X159156544Y-124851784D01*
X159088624Y-124687812D01*
X159054000Y-124513741D01*
X159054000Y-124336259D01*
X159088624Y-124162188D01*
X159156544Y-123998216D01*
X159255147Y-123850646D01*
X159380646Y-123725147D01*
X159528216Y-123626544D01*
X159692188Y-123558624D01*
X159841488Y-123528927D01*
X159866258Y-123524000D01*
X160043742Y-123524000D01*
X160068512Y-123528927D01*
G37*
G36*
X152448512Y-123528927D02*
G01*
X152597812Y-123558624D01*
X152761784Y-123626544D01*
X152909354Y-123725147D01*
X153034853Y-123850646D01*
X153133456Y-123998216D01*
X153201376Y-124162188D01*
X153236000Y-124336259D01*
X153236000Y-124513741D01*
X153201376Y-124687812D01*
X153133456Y-124851784D01*
X153034853Y-124999354D01*
X152909354Y-125124853D01*
X152761784Y-125223456D01*
X152597812Y-125291376D01*
X152448512Y-125321073D01*
X152423742Y-125326000D01*
X152246258Y-125326000D01*
X152221488Y-125321073D01*
X152072188Y-125291376D01*
X151908216Y-125223456D01*
X151760646Y-125124853D01*
X151635147Y-124999354D01*
X151536544Y-124851784D01*
X151468624Y-124687812D01*
X151434000Y-124513741D01*
X151434000Y-124336259D01*
X151468624Y-124162188D01*
X151536544Y-123998216D01*
X151635147Y-123850646D01*
X151760646Y-123725147D01*
X151908216Y-123626544D01*
X152072188Y-123558624D01*
X152221488Y-123528927D01*
X152246258Y-123524000D01*
X152423742Y-123524000D01*
X152448512Y-123528927D01*
G37*
G36*
X142288512Y-123528927D02*
G01*
X142437812Y-123558624D01*
X142601784Y-123626544D01*
X142749354Y-123725147D01*
X142874853Y-123850646D01*
X142973456Y-123998216D01*
X143041376Y-124162188D01*
X143076000Y-124336259D01*
X143076000Y-124513741D01*
X143041376Y-124687812D01*
X142973456Y-124851784D01*
X142874853Y-124999354D01*
X142749354Y-125124853D01*
X142601784Y-125223456D01*
X142437812Y-125291376D01*
X142288512Y-125321073D01*
X142263742Y-125326000D01*
X142086258Y-125326000D01*
X142061488Y-125321073D01*
X141912188Y-125291376D01*
X141748216Y-125223456D01*
X141600646Y-125124853D01*
X141475147Y-124999354D01*
X141376544Y-124851784D01*
X141308624Y-124687812D01*
X141274000Y-124513741D01*
X141274000Y-124336259D01*
X141308624Y-124162188D01*
X141376544Y-123998216D01*
X141475147Y-123850646D01*
X141600646Y-123725147D01*
X141748216Y-123626544D01*
X141912188Y-123558624D01*
X142061488Y-123528927D01*
X142086258Y-123524000D01*
X142263742Y-123524000D01*
X142288512Y-123528927D01*
G37*
G36*
X137208512Y-123528927D02*
G01*
X137357812Y-123558624D01*
X137521784Y-123626544D01*
X137669354Y-123725147D01*
X137794853Y-123850646D01*
X137893456Y-123998216D01*
X137961376Y-124162188D01*
X137996000Y-124336259D01*
X137996000Y-124513741D01*
X137961376Y-124687812D01*
X137893456Y-124851784D01*
X137794853Y-124999354D01*
X137669354Y-125124853D01*
X137521784Y-125223456D01*
X137357812Y-125291376D01*
X137208512Y-125321073D01*
X137183742Y-125326000D01*
X137006258Y-125326000D01*
X136981488Y-125321073D01*
X136832188Y-125291376D01*
X136668216Y-125223456D01*
X136520646Y-125124853D01*
X136395147Y-124999354D01*
X136296544Y-124851784D01*
X136228624Y-124687812D01*
X136194000Y-124513741D01*
X136194000Y-124336259D01*
X136228624Y-124162188D01*
X136296544Y-123998216D01*
X136395147Y-123850646D01*
X136520646Y-123725147D01*
X136668216Y-123626544D01*
X136832188Y-123558624D01*
X136981488Y-123528927D01*
X137006258Y-123524000D01*
X137183742Y-123524000D01*
X137208512Y-123528927D01*
G37*
G36*
X162608512Y-120988927D02*
G01*
X162757812Y-121018624D01*
X162921784Y-121086544D01*
X163069354Y-121185147D01*
X163194853Y-121310646D01*
X163293456Y-121458216D01*
X163361376Y-121622188D01*
X163396000Y-121796259D01*
X163396000Y-121973741D01*
X163361376Y-122147812D01*
X163293456Y-122311784D01*
X163194853Y-122459354D01*
X163069354Y-122584853D01*
X162921784Y-122683456D01*
X162757812Y-122751376D01*
X162608512Y-122781073D01*
X162583742Y-122786000D01*
X162406258Y-122786000D01*
X162381488Y-122781073D01*
X162232188Y-122751376D01*
X162068216Y-122683456D01*
X161920646Y-122584853D01*
X161795147Y-122459354D01*
X161696544Y-122311784D01*
X161628624Y-122147812D01*
X161594000Y-121973741D01*
X161594000Y-121796259D01*
X161628624Y-121622188D01*
X161696544Y-121458216D01*
X161795147Y-121310646D01*
X161920646Y-121185147D01*
X162068216Y-121086544D01*
X162232188Y-121018624D01*
X162381488Y-120988927D01*
X162406258Y-120984000D01*
X162583742Y-120984000D01*
X162608512Y-120988927D01*
G37*
G36*
X142288512Y-120988927D02*
G01*
X142437812Y-121018624D01*
X142601784Y-121086544D01*
X142749354Y-121185147D01*
X142874853Y-121310646D01*
X142973456Y-121458216D01*
X143041376Y-121622188D01*
X143076000Y-121796259D01*
X143076000Y-121973741D01*
X143041376Y-122147812D01*
X142973456Y-122311784D01*
X142874853Y-122459354D01*
X142749354Y-122584853D01*
X142601784Y-122683456D01*
X142437812Y-122751376D01*
X142288512Y-122781073D01*
X142263742Y-122786000D01*
X142086258Y-122786000D01*
X142061488Y-122781073D01*
X141912188Y-122751376D01*
X141748216Y-122683456D01*
X141600646Y-122584853D01*
X141475147Y-122459354D01*
X141376544Y-122311784D01*
X141308624Y-122147812D01*
X141274000Y-121973741D01*
X141274000Y-121796259D01*
X141308624Y-121622188D01*
X141376544Y-121458216D01*
X141475147Y-121310646D01*
X141600646Y-121185147D01*
X141748216Y-121086544D01*
X141912188Y-121018624D01*
X142061488Y-120988927D01*
X142086258Y-120984000D01*
X142263742Y-120984000D01*
X142288512Y-120988927D01*
G37*
G36*
X144828512Y-120988927D02*
G01*
X144977812Y-121018624D01*
X145141784Y-121086544D01*
X145289354Y-121185147D01*
X145414853Y-121310646D01*
X145513456Y-121458216D01*
X145581376Y-121622188D01*
X145616000Y-121796259D01*
X145616000Y-121973741D01*
X145581376Y-122147812D01*
X145513456Y-122311784D01*
X145414853Y-122459354D01*
X145289354Y-122584853D01*
X145141784Y-122683456D01*
X144977812Y-122751376D01*
X144828512Y-122781073D01*
X144803742Y-122786000D01*
X144626258Y-122786000D01*
X144601488Y-122781073D01*
X144452188Y-122751376D01*
X144288216Y-122683456D01*
X144140646Y-122584853D01*
X144015147Y-122459354D01*
X143916544Y-122311784D01*
X143848624Y-122147812D01*
X143814000Y-121973741D01*
X143814000Y-121796259D01*
X143848624Y-121622188D01*
X143916544Y-121458216D01*
X144015147Y-121310646D01*
X144140646Y-121185147D01*
X144288216Y-121086544D01*
X144452188Y-121018624D01*
X144601488Y-120988927D01*
X144626258Y-120984000D01*
X144803742Y-120984000D01*
X144828512Y-120988927D01*
G37*
G36*
X137208512Y-120988927D02*
G01*
X137357812Y-121018624D01*
X137521784Y-121086544D01*
X137669354Y-121185147D01*
X137794853Y-121310646D01*
X137893456Y-121458216D01*
X137961376Y-121622188D01*
X137996000Y-121796259D01*
X137996000Y-121973741D01*
X137961376Y-122147812D01*
X137893456Y-122311784D01*
X137794853Y-122459354D01*
X137669354Y-122584853D01*
X137521784Y-122683456D01*
X137357812Y-122751376D01*
X137208512Y-122781073D01*
X137183742Y-122786000D01*
X137006258Y-122786000D01*
X136981488Y-122781073D01*
X136832188Y-122751376D01*
X136668216Y-122683456D01*
X136520646Y-122584853D01*
X136395147Y-122459354D01*
X136296544Y-122311784D01*
X136228624Y-122147812D01*
X136194000Y-121973741D01*
X136194000Y-121796259D01*
X136228624Y-121622188D01*
X136296544Y-121458216D01*
X136395147Y-121310646D01*
X136520646Y-121185147D01*
X136668216Y-121086544D01*
X136832188Y-121018624D01*
X136981488Y-120988927D01*
X137006258Y-120984000D01*
X137183742Y-120984000D01*
X137208512Y-120988927D01*
G37*
G36*
X149908512Y-120988927D02*
G01*
X150057812Y-121018624D01*
X150221784Y-121086544D01*
X150369354Y-121185147D01*
X150494853Y-121310646D01*
X150593456Y-121458216D01*
X150661376Y-121622188D01*
X150696000Y-121796259D01*
X150696000Y-121973741D01*
X150661376Y-122147812D01*
X150593456Y-122311784D01*
X150494853Y-122459354D01*
X150369354Y-122584853D01*
X150221784Y-122683456D01*
X150057812Y-122751376D01*
X149908512Y-122781073D01*
X149883742Y-122786000D01*
X149706258Y-122786000D01*
X149681488Y-122781073D01*
X149532188Y-122751376D01*
X149368216Y-122683456D01*
X149220646Y-122584853D01*
X149095147Y-122459354D01*
X148996544Y-122311784D01*
X148928624Y-122147812D01*
X148894000Y-121973741D01*
X148894000Y-121796259D01*
X148928624Y-121622188D01*
X148996544Y-121458216D01*
X149095147Y-121310646D01*
X149220646Y-121185147D01*
X149368216Y-121086544D01*
X149532188Y-121018624D01*
X149681488Y-120988927D01*
X149706258Y-120984000D01*
X149883742Y-120984000D01*
X149908512Y-120988927D01*
G37*
G36*
X154988512Y-120988927D02*
G01*
X155137812Y-121018624D01*
X155301784Y-121086544D01*
X155449354Y-121185147D01*
X155574853Y-121310646D01*
X155673456Y-121458216D01*
X155741376Y-121622188D01*
X155776000Y-121796259D01*
X155776000Y-121973741D01*
X155741376Y-122147812D01*
X155673456Y-122311784D01*
X155574853Y-122459354D01*
X155449354Y-122584853D01*
X155301784Y-122683456D01*
X155137812Y-122751376D01*
X154988512Y-122781073D01*
X154963742Y-122786000D01*
X154786258Y-122786000D01*
X154761488Y-122781073D01*
X154612188Y-122751376D01*
X154448216Y-122683456D01*
X154300646Y-122584853D01*
X154175147Y-122459354D01*
X154076544Y-122311784D01*
X154008624Y-122147812D01*
X153974000Y-121973741D01*
X153974000Y-121796259D01*
X154008624Y-121622188D01*
X154076544Y-121458216D01*
X154175147Y-121310646D01*
X154300646Y-121185147D01*
X154448216Y-121086544D01*
X154612188Y-121018624D01*
X154761488Y-120988927D01*
X154786258Y-120984000D01*
X154963742Y-120984000D01*
X154988512Y-120988927D01*
G37*
G36*
X139748512Y-120988927D02*
G01*
X139897812Y-121018624D01*
X140061784Y-121086544D01*
X140209354Y-121185147D01*
X140334853Y-121310646D01*
X140433456Y-121458216D01*
X140501376Y-121622188D01*
X140536000Y-121796259D01*
X140536000Y-121973741D01*
X140501376Y-122147812D01*
X140433456Y-122311784D01*
X140334853Y-122459354D01*
X140209354Y-122584853D01*
X140061784Y-122683456D01*
X139897812Y-122751376D01*
X139748512Y-122781073D01*
X139723742Y-122786000D01*
X139546258Y-122786000D01*
X139521488Y-122781073D01*
X139372188Y-122751376D01*
X139208216Y-122683456D01*
X139060646Y-122584853D01*
X138935147Y-122459354D01*
X138836544Y-122311784D01*
X138768624Y-122147812D01*
X138734000Y-121973741D01*
X138734000Y-121796259D01*
X138768624Y-121622188D01*
X138836544Y-121458216D01*
X138935147Y-121310646D01*
X139060646Y-121185147D01*
X139208216Y-121086544D01*
X139372188Y-121018624D01*
X139521488Y-120988927D01*
X139546258Y-120984000D01*
X139723742Y-120984000D01*
X139748512Y-120988927D01*
G37*
G36*
X152448512Y-120988927D02*
G01*
X152597812Y-121018624D01*
X152761784Y-121086544D01*
X152909354Y-121185147D01*
X153034853Y-121310646D01*
X153133456Y-121458216D01*
X153201376Y-121622188D01*
X153236000Y-121796259D01*
X153236000Y-121973741D01*
X153201376Y-122147812D01*
X153133456Y-122311784D01*
X153034853Y-122459354D01*
X152909354Y-122584853D01*
X152761784Y-122683456D01*
X152597812Y-122751376D01*
X152448512Y-122781073D01*
X152423742Y-122786000D01*
X152246258Y-122786000D01*
X152221488Y-122781073D01*
X152072188Y-122751376D01*
X151908216Y-122683456D01*
X151760646Y-122584853D01*
X151635147Y-122459354D01*
X151536544Y-122311784D01*
X151468624Y-122147812D01*
X151434000Y-121973741D01*
X151434000Y-121796259D01*
X151468624Y-121622188D01*
X151536544Y-121458216D01*
X151635147Y-121310646D01*
X151760646Y-121185147D01*
X151908216Y-121086544D01*
X152072188Y-121018624D01*
X152221488Y-120988927D01*
X152246258Y-120984000D01*
X152423742Y-120984000D01*
X152448512Y-120988927D01*
G37*
G36*
X157528512Y-120988927D02*
G01*
X157677812Y-121018624D01*
X157841784Y-121086544D01*
X157989354Y-121185147D01*
X158114853Y-121310646D01*
X158213456Y-121458216D01*
X158281376Y-121622188D01*
X158316000Y-121796259D01*
X158316000Y-121973741D01*
X158281376Y-122147812D01*
X158213456Y-122311784D01*
X158114853Y-122459354D01*
X157989354Y-122584853D01*
X157841784Y-122683456D01*
X157677812Y-122751376D01*
X157528512Y-122781073D01*
X157503742Y-122786000D01*
X157326258Y-122786000D01*
X157301488Y-122781073D01*
X157152188Y-122751376D01*
X156988216Y-122683456D01*
X156840646Y-122584853D01*
X156715147Y-122459354D01*
X156616544Y-122311784D01*
X156548624Y-122147812D01*
X156514000Y-121973741D01*
X156514000Y-121796259D01*
X156548624Y-121622188D01*
X156616544Y-121458216D01*
X156715147Y-121310646D01*
X156840646Y-121185147D01*
X156988216Y-121086544D01*
X157152188Y-121018624D01*
X157301488Y-120988927D01*
X157326258Y-120984000D01*
X157503742Y-120984000D01*
X157528512Y-120988927D01*
G37*
G36*
X160068512Y-120988927D02*
G01*
X160217812Y-121018624D01*
X160381784Y-121086544D01*
X160529354Y-121185147D01*
X160654853Y-121310646D01*
X160753456Y-121458216D01*
X160821376Y-121622188D01*
X160856000Y-121796259D01*
X160856000Y-121973741D01*
X160821376Y-122147812D01*
X160753456Y-122311784D01*
X160654853Y-122459354D01*
X160529354Y-122584853D01*
X160381784Y-122683456D01*
X160217812Y-122751376D01*
X160068512Y-122781073D01*
X160043742Y-122786000D01*
X159866258Y-122786000D01*
X159841488Y-122781073D01*
X159692188Y-122751376D01*
X159528216Y-122683456D01*
X159380646Y-122584853D01*
X159255147Y-122459354D01*
X159156544Y-122311784D01*
X159088624Y-122147812D01*
X159054000Y-121973741D01*
X159054000Y-121796259D01*
X159088624Y-121622188D01*
X159156544Y-121458216D01*
X159255147Y-121310646D01*
X159380646Y-121185147D01*
X159528216Y-121086544D01*
X159692188Y-121018624D01*
X159841488Y-120988927D01*
X159866258Y-120984000D01*
X160043742Y-120984000D01*
X160068512Y-120988927D01*
G37*
G36*
X147368512Y-120988927D02*
G01*
X147517812Y-121018624D01*
X147681784Y-121086544D01*
X147829354Y-121185147D01*
X147954853Y-121310646D01*
X148053456Y-121458216D01*
X148121376Y-121622188D01*
X148156000Y-121796259D01*
X148156000Y-121973741D01*
X148121376Y-122147812D01*
X148053456Y-122311784D01*
X147954853Y-122459354D01*
X147829354Y-122584853D01*
X147681784Y-122683456D01*
X147517812Y-122751376D01*
X147368512Y-122781073D01*
X147343742Y-122786000D01*
X147166258Y-122786000D01*
X147141488Y-122781073D01*
X146992188Y-122751376D01*
X146828216Y-122683456D01*
X146680646Y-122584853D01*
X146555147Y-122459354D01*
X146456544Y-122311784D01*
X146388624Y-122147812D01*
X146354000Y-121973741D01*
X146354000Y-121796259D01*
X146388624Y-121622188D01*
X146456544Y-121458216D01*
X146555147Y-121310646D01*
X146680646Y-121185147D01*
X146828216Y-121086544D01*
X146992188Y-121018624D01*
X147141488Y-120988927D01*
X147166258Y-120984000D01*
X147343742Y-120984000D01*
X147368512Y-120988927D01*
G37*
G36*
X139748512Y-118448927D02*
G01*
X139897812Y-118478624D01*
X140061784Y-118546544D01*
X140209354Y-118645147D01*
X140334853Y-118770646D01*
X140433456Y-118918216D01*
X140501376Y-119082188D01*
X140536000Y-119256259D01*
X140536000Y-119433741D01*
X140501376Y-119607812D01*
X140433456Y-119771784D01*
X140334853Y-119919354D01*
X140209354Y-120044853D01*
X140061784Y-120143456D01*
X139897812Y-120211376D01*
X139748512Y-120241073D01*
X139723742Y-120246000D01*
X139546258Y-120246000D01*
X139521488Y-120241073D01*
X139372188Y-120211376D01*
X139208216Y-120143456D01*
X139060646Y-120044853D01*
X138935147Y-119919354D01*
X138836544Y-119771784D01*
X138768624Y-119607812D01*
X138734000Y-119433741D01*
X138734000Y-119256259D01*
X138768624Y-119082188D01*
X138836544Y-118918216D01*
X138935147Y-118770646D01*
X139060646Y-118645147D01*
X139208216Y-118546544D01*
X139372188Y-118478624D01*
X139521488Y-118448927D01*
X139546258Y-118444000D01*
X139723742Y-118444000D01*
X139748512Y-118448927D01*
G37*
G36*
X152448512Y-118448927D02*
G01*
X152597812Y-118478624D01*
X152761784Y-118546544D01*
X152909354Y-118645147D01*
X153034853Y-118770646D01*
X153133456Y-118918216D01*
X153201376Y-119082188D01*
X153236000Y-119256259D01*
X153236000Y-119433741D01*
X153201376Y-119607812D01*
X153133456Y-119771784D01*
X153034853Y-119919354D01*
X152909354Y-120044853D01*
X152761784Y-120143456D01*
X152597812Y-120211376D01*
X152448512Y-120241073D01*
X152423742Y-120246000D01*
X152246258Y-120246000D01*
X152221488Y-120241073D01*
X152072188Y-120211376D01*
X151908216Y-120143456D01*
X151760646Y-120044853D01*
X151635147Y-119919354D01*
X151536544Y-119771784D01*
X151468624Y-119607812D01*
X151434000Y-119433741D01*
X151434000Y-119256259D01*
X151468624Y-119082188D01*
X151536544Y-118918216D01*
X151635147Y-118770646D01*
X151760646Y-118645147D01*
X151908216Y-118546544D01*
X152072188Y-118478624D01*
X152221488Y-118448927D01*
X152246258Y-118444000D01*
X152423742Y-118444000D01*
X152448512Y-118448927D01*
G37*
G36*
X149908512Y-118448927D02*
G01*
X150057812Y-118478624D01*
X150221784Y-118546544D01*
X150369354Y-118645147D01*
X150494853Y-118770646D01*
X150593456Y-118918216D01*
X150661376Y-119082188D01*
X150696000Y-119256259D01*
X150696000Y-119433741D01*
X150661376Y-119607812D01*
X150593456Y-119771784D01*
X150494853Y-119919354D01*
X150369354Y-120044853D01*
X150221784Y-120143456D01*
X150057812Y-120211376D01*
X149908512Y-120241073D01*
X149883742Y-120246000D01*
X149706258Y-120246000D01*
X149681488Y-120241073D01*
X149532188Y-120211376D01*
X149368216Y-120143456D01*
X149220646Y-120044853D01*
X149095147Y-119919354D01*
X148996544Y-119771784D01*
X148928624Y-119607812D01*
X148894000Y-119433741D01*
X148894000Y-119256259D01*
X148928624Y-119082188D01*
X148996544Y-118918216D01*
X149095147Y-118770646D01*
X149220646Y-118645147D01*
X149368216Y-118546544D01*
X149532188Y-118478624D01*
X149681488Y-118448927D01*
X149706258Y-118444000D01*
X149883742Y-118444000D01*
X149908512Y-118448927D01*
G37*
G36*
X142288512Y-118448927D02*
G01*
X142437812Y-118478624D01*
X142601784Y-118546544D01*
X142749354Y-118645147D01*
X142874853Y-118770646D01*
X142973456Y-118918216D01*
X143041376Y-119082188D01*
X143076000Y-119256259D01*
X143076000Y-119433741D01*
X143041376Y-119607812D01*
X142973456Y-119771784D01*
X142874853Y-119919354D01*
X142749354Y-120044853D01*
X142601784Y-120143456D01*
X142437812Y-120211376D01*
X142288512Y-120241073D01*
X142263742Y-120246000D01*
X142086258Y-120246000D01*
X142061488Y-120241073D01*
X141912188Y-120211376D01*
X141748216Y-120143456D01*
X141600646Y-120044853D01*
X141475147Y-119919354D01*
X141376544Y-119771784D01*
X141308624Y-119607812D01*
X141274000Y-119433741D01*
X141274000Y-119256259D01*
X141308624Y-119082188D01*
X141376544Y-118918216D01*
X141475147Y-118770646D01*
X141600646Y-118645147D01*
X141748216Y-118546544D01*
X141912188Y-118478624D01*
X142061488Y-118448927D01*
X142086258Y-118444000D01*
X142263742Y-118444000D01*
X142288512Y-118448927D01*
G37*
G36*
X154988512Y-118448927D02*
G01*
X155137812Y-118478624D01*
X155301784Y-118546544D01*
X155449354Y-118645147D01*
X155574853Y-118770646D01*
X155673456Y-118918216D01*
X155741376Y-119082188D01*
X155776000Y-119256259D01*
X155776000Y-119433741D01*
X155741376Y-119607812D01*
X155673456Y-119771784D01*
X155574853Y-119919354D01*
X155449354Y-120044853D01*
X155301784Y-120143456D01*
X155137812Y-120211376D01*
X154988512Y-120241073D01*
X154963742Y-120246000D01*
X154786258Y-120246000D01*
X154761488Y-120241073D01*
X154612188Y-120211376D01*
X154448216Y-120143456D01*
X154300646Y-120044853D01*
X154175147Y-119919354D01*
X154076544Y-119771784D01*
X154008624Y-119607812D01*
X153974000Y-119433741D01*
X153974000Y-119256259D01*
X154008624Y-119082188D01*
X154076544Y-118918216D01*
X154175147Y-118770646D01*
X154300646Y-118645147D01*
X154448216Y-118546544D01*
X154612188Y-118478624D01*
X154761488Y-118448927D01*
X154786258Y-118444000D01*
X154963742Y-118444000D01*
X154988512Y-118448927D01*
G37*
G36*
X160068512Y-118448927D02*
G01*
X160217812Y-118478624D01*
X160381784Y-118546544D01*
X160529354Y-118645147D01*
X160654853Y-118770646D01*
X160753456Y-118918216D01*
X160821376Y-119082188D01*
X160856000Y-119256259D01*
X160856000Y-119433741D01*
X160821376Y-119607812D01*
X160753456Y-119771784D01*
X160654853Y-119919354D01*
X160529354Y-120044853D01*
X160381784Y-120143456D01*
X160217812Y-120211376D01*
X160068512Y-120241073D01*
X160043742Y-120246000D01*
X159866258Y-120246000D01*
X159841488Y-120241073D01*
X159692188Y-120211376D01*
X159528216Y-120143456D01*
X159380646Y-120044853D01*
X159255147Y-119919354D01*
X159156544Y-119771784D01*
X159088624Y-119607812D01*
X159054000Y-119433741D01*
X159054000Y-119256259D01*
X159088624Y-119082188D01*
X159156544Y-118918216D01*
X159255147Y-118770646D01*
X159380646Y-118645147D01*
X159528216Y-118546544D01*
X159692188Y-118478624D01*
X159841488Y-118448927D01*
X159866258Y-118444000D01*
X160043742Y-118444000D01*
X160068512Y-118448927D01*
G37*
G36*
X162608512Y-118448927D02*
G01*
X162757812Y-118478624D01*
X162921784Y-118546544D01*
X163069354Y-118645147D01*
X163194853Y-118770646D01*
X163293456Y-118918216D01*
X163361376Y-119082188D01*
X163396000Y-119256259D01*
X163396000Y-119433741D01*
X163361376Y-119607812D01*
X163293456Y-119771784D01*
X163194853Y-119919354D01*
X163069354Y-120044853D01*
X162921784Y-120143456D01*
X162757812Y-120211376D01*
X162608512Y-120241073D01*
X162583742Y-120246000D01*
X162406258Y-120246000D01*
X162381488Y-120241073D01*
X162232188Y-120211376D01*
X162068216Y-120143456D01*
X161920646Y-120044853D01*
X161795147Y-119919354D01*
X161696544Y-119771784D01*
X161628624Y-119607812D01*
X161594000Y-119433741D01*
X161594000Y-119256259D01*
X161628624Y-119082188D01*
X161696544Y-118918216D01*
X161795147Y-118770646D01*
X161920646Y-118645147D01*
X162068216Y-118546544D01*
X162232188Y-118478624D01*
X162381488Y-118448927D01*
X162406258Y-118444000D01*
X162583742Y-118444000D01*
X162608512Y-118448927D01*
G37*
G36*
X137208512Y-118448927D02*
G01*
X137357812Y-118478624D01*
X137521784Y-118546544D01*
X137669354Y-118645147D01*
X137794853Y-118770646D01*
X137893456Y-118918216D01*
X137961376Y-119082188D01*
X137996000Y-119256259D01*
X137996000Y-119433741D01*
X137961376Y-119607812D01*
X137893456Y-119771784D01*
X137794853Y-119919354D01*
X137669354Y-120044853D01*
X137521784Y-120143456D01*
X137357812Y-120211376D01*
X137208512Y-120241073D01*
X137183742Y-120246000D01*
X137006258Y-120246000D01*
X136981488Y-120241073D01*
X136832188Y-120211376D01*
X136668216Y-120143456D01*
X136520646Y-120044853D01*
X136395147Y-119919354D01*
X136296544Y-119771784D01*
X136228624Y-119607812D01*
X136194000Y-119433741D01*
X136194000Y-119256259D01*
X136228624Y-119082188D01*
X136296544Y-118918216D01*
X136395147Y-118770646D01*
X136520646Y-118645147D01*
X136668216Y-118546544D01*
X136832188Y-118478624D01*
X136981488Y-118448927D01*
X137006258Y-118444000D01*
X137183742Y-118444000D01*
X137208512Y-118448927D01*
G37*
G36*
X144828512Y-118448927D02*
G01*
X144977812Y-118478624D01*
X145141784Y-118546544D01*
X145289354Y-118645147D01*
X145414853Y-118770646D01*
X145513456Y-118918216D01*
X145581376Y-119082188D01*
X145616000Y-119256259D01*
X145616000Y-119433741D01*
X145581376Y-119607812D01*
X145513456Y-119771784D01*
X145414853Y-119919354D01*
X145289354Y-120044853D01*
X145141784Y-120143456D01*
X144977812Y-120211376D01*
X144828512Y-120241073D01*
X144803742Y-120246000D01*
X144626258Y-120246000D01*
X144601488Y-120241073D01*
X144452188Y-120211376D01*
X144288216Y-120143456D01*
X144140646Y-120044853D01*
X144015147Y-119919354D01*
X143916544Y-119771784D01*
X143848624Y-119607812D01*
X143814000Y-119433741D01*
X143814000Y-119256259D01*
X143848624Y-119082188D01*
X143916544Y-118918216D01*
X144015147Y-118770646D01*
X144140646Y-118645147D01*
X144288216Y-118546544D01*
X144452188Y-118478624D01*
X144601488Y-118448927D01*
X144626258Y-118444000D01*
X144803742Y-118444000D01*
X144828512Y-118448927D01*
G37*
G36*
X147368512Y-118448927D02*
G01*
X147517812Y-118478624D01*
X147681784Y-118546544D01*
X147829354Y-118645147D01*
X147954853Y-118770646D01*
X148053456Y-118918216D01*
X148121376Y-119082188D01*
X148156000Y-119256259D01*
X148156000Y-119433741D01*
X148121376Y-119607812D01*
X148053456Y-119771784D01*
X147954853Y-119919354D01*
X147829354Y-120044853D01*
X147681784Y-120143456D01*
X147517812Y-120211376D01*
X147368512Y-120241073D01*
X147343742Y-120246000D01*
X147166258Y-120246000D01*
X147141488Y-120241073D01*
X146992188Y-120211376D01*
X146828216Y-120143456D01*
X146680646Y-120044853D01*
X146555147Y-119919354D01*
X146456544Y-119771784D01*
X146388624Y-119607812D01*
X146354000Y-119433741D01*
X146354000Y-119256259D01*
X146388624Y-119082188D01*
X146456544Y-118918216D01*
X146555147Y-118770646D01*
X146680646Y-118645147D01*
X146828216Y-118546544D01*
X146992188Y-118478624D01*
X147141488Y-118448927D01*
X147166258Y-118444000D01*
X147343742Y-118444000D01*
X147368512Y-118448927D01*
G37*
G36*
X157528512Y-118448927D02*
G01*
X157677812Y-118478624D01*
X157841784Y-118546544D01*
X157989354Y-118645147D01*
X158114853Y-118770646D01*
X158213456Y-118918216D01*
X158281376Y-119082188D01*
X158316000Y-119256259D01*
X158316000Y-119433741D01*
X158281376Y-119607812D01*
X158213456Y-119771784D01*
X158114853Y-119919354D01*
X157989354Y-120044853D01*
X157841784Y-120143456D01*
X157677812Y-120211376D01*
X157528512Y-120241073D01*
X157503742Y-120246000D01*
X157326258Y-120246000D01*
X157301488Y-120241073D01*
X157152188Y-120211376D01*
X156988216Y-120143456D01*
X156840646Y-120044853D01*
X156715147Y-119919354D01*
X156616544Y-119771784D01*
X156548624Y-119607812D01*
X156514000Y-119433741D01*
X156514000Y-119256259D01*
X156548624Y-119082188D01*
X156616544Y-118918216D01*
X156715147Y-118770646D01*
X156840646Y-118645147D01*
X156988216Y-118546544D01*
X157152188Y-118478624D01*
X157301488Y-118448927D01*
X157326258Y-118444000D01*
X157503742Y-118444000D01*
X157528512Y-118448927D01*
G37*
G36*
X171161000Y-116651000D02*
G01*
X168659000Y-116651000D01*
X168659000Y-114149000D01*
X171161000Y-114149000D01*
X171161000Y-116651000D01*
G37*
G36*
X159622724Y-113716497D02*
G01*
X159849906Y-113761686D01*
X160099412Y-113865035D01*
X160323962Y-114015075D01*
X160514925Y-114206038D01*
X160664965Y-114430588D01*
X160768314Y-114680094D01*
X160821000Y-114944968D01*
X160821000Y-115215032D01*
X160768314Y-115479906D01*
X160664965Y-115729412D01*
X160514925Y-115953962D01*
X160323962Y-116144925D01*
X160099412Y-116294965D01*
X159849906Y-116398314D01*
X159622724Y-116443503D01*
X159585033Y-116451000D01*
X159314967Y-116451000D01*
X159277276Y-116443503D01*
X159050094Y-116398314D01*
X158800588Y-116294965D01*
X158576038Y-116144925D01*
X158385075Y-115953962D01*
X158235035Y-115729412D01*
X158131686Y-115479906D01*
X158079000Y-115215032D01*
X158079000Y-114944968D01*
X158131686Y-114680094D01*
X158235035Y-114430588D01*
X158385075Y-114206038D01*
X158576038Y-114015075D01*
X158800588Y-113865035D01*
X159050094Y-113761686D01*
X159277276Y-113716497D01*
X159314967Y-113709000D01*
X159585033Y-113709000D01*
X159622724Y-113716497D01*
G37*
G36*
X170274903Y-110697075D02*
G01*
X170502571Y-110791378D01*
X170707466Y-110928285D01*
X170881715Y-111102534D01*
X171018622Y-111307429D01*
X171112925Y-111535097D01*
X171161000Y-111776787D01*
X171161000Y-112023213D01*
X171112925Y-112264903D01*
X171018622Y-112492571D01*
X170881715Y-112697466D01*
X170707466Y-112871715D01*
X170502571Y-113008622D01*
X170502570Y-113008623D01*
X170502569Y-113008623D01*
X170274903Y-113102925D01*
X170033214Y-113151000D01*
X169786786Y-113151000D01*
X169545097Y-113102925D01*
X169317431Y-113008623D01*
X169317430Y-113008623D01*
X169317429Y-113008622D01*
X169112534Y-112871715D01*
X168938285Y-112697466D01*
X168801378Y-112492571D01*
X168707075Y-112264903D01*
X168659000Y-112023213D01*
X168659000Y-111776787D01*
X168707075Y-111535097D01*
X168801378Y-111307429D01*
X168938285Y-111102534D01*
X169112534Y-110928285D01*
X169317429Y-110791378D01*
X169545097Y-110697075D01*
X169786786Y-110649000D01*
X170033214Y-110649000D01*
X170274903Y-110697075D01*
G37*
G36*
X110526564Y-108074389D02*
G01*
X110717833Y-108153615D01*
X110717835Y-108153616D01*
X110889973Y-108268635D01*
X111036365Y-108415027D01*
X111108653Y-108523213D01*
X111151385Y-108587167D01*
X111230611Y-108778436D01*
X111271000Y-108981484D01*
X111271000Y-109188516D01*
X111230611Y-109391564D01*
X111151385Y-109582833D01*
X111151384Y-109582835D01*
X111036365Y-109754973D01*
X110889973Y-109901365D01*
X110717835Y-110016384D01*
X110717834Y-110016385D01*
X110717833Y-110016385D01*
X110526564Y-110095611D01*
X110323516Y-110136000D01*
X110116484Y-110136000D01*
X109913436Y-110095611D01*
X109722167Y-110016385D01*
X109722166Y-110016385D01*
X109722165Y-110016384D01*
X109550027Y-109901365D01*
X109403635Y-109754973D01*
X109288616Y-109582835D01*
X109288615Y-109582833D01*
X109209389Y-109391564D01*
X109169000Y-109188516D01*
X109169000Y-108981484D01*
X109209389Y-108778436D01*
X109288615Y-108587167D01*
X109331348Y-108523213D01*
X109403635Y-108415027D01*
X109550027Y-108268635D01*
X109722165Y-108153616D01*
X109722167Y-108153615D01*
X109913436Y-108074389D01*
X110116484Y-108034000D01*
X110323516Y-108034000D01*
X110526564Y-108074389D01*
G37*
G36*
X162516564Y-108074389D02*
G01*
X162707833Y-108153615D01*
X162707835Y-108153616D01*
X162879973Y-108268635D01*
X163026365Y-108415027D01*
X163098653Y-108523213D01*
X163141385Y-108587167D01*
X163220611Y-108778436D01*
X163261000Y-108981484D01*
X163261000Y-109188516D01*
X163220611Y-109391564D01*
X163141385Y-109582833D01*
X163141384Y-109582835D01*
X163026365Y-109754973D01*
X162879973Y-109901365D01*
X162707835Y-110016384D01*
X162707834Y-110016385D01*
X162707833Y-110016385D01*
X162516564Y-110095611D01*
X162313516Y-110136000D01*
X162106484Y-110136000D01*
X161903436Y-110095611D01*
X161712167Y-110016385D01*
X161712166Y-110016385D01*
X161712165Y-110016384D01*
X161540027Y-109901365D01*
X161393635Y-109754973D01*
X161278616Y-109582835D01*
X161278615Y-109582833D01*
X161199389Y-109391564D01*
X161159000Y-109188516D01*
X161159000Y-108981484D01*
X161199389Y-108778436D01*
X161278615Y-108587167D01*
X161321348Y-108523213D01*
X161393635Y-108415027D01*
X161540027Y-108268635D01*
X161712165Y-108153616D01*
X161712167Y-108153615D01*
X161903436Y-108074389D01*
X162106484Y-108034000D01*
X162313516Y-108034000D01*
X162516564Y-108074389D01*
G37*
G36*
X170274903Y-107197075D02*
G01*
X170502571Y-107291378D01*
X170707466Y-107428285D01*
X170881715Y-107602534D01*
X170881716Y-107602536D01*
X171018623Y-107807431D01*
X171112925Y-108035097D01*
X171161000Y-108276786D01*
X171161000Y-108523214D01*
X171112925Y-108764903D01*
X171023215Y-108981484D01*
X171018622Y-108992571D01*
X170881715Y-109197466D01*
X170707466Y-109371715D01*
X170502571Y-109508622D01*
X170502570Y-109508623D01*
X170502569Y-109508623D01*
X170274903Y-109602925D01*
X170033214Y-109651000D01*
X169786786Y-109651000D01*
X169545097Y-109602925D01*
X169317431Y-109508623D01*
X169317430Y-109508623D01*
X169317429Y-109508622D01*
X169112534Y-109371715D01*
X168938285Y-109197466D01*
X168801378Y-108992571D01*
X168796786Y-108981484D01*
X168707075Y-108764903D01*
X168659000Y-108523214D01*
X168659000Y-108276786D01*
X168707075Y-108035097D01*
X168801377Y-107807431D01*
X168938284Y-107602536D01*
X168938285Y-107602534D01*
X169112534Y-107428285D01*
X169317429Y-107291378D01*
X169545097Y-107197075D01*
X169786786Y-107149000D01*
X170033214Y-107149000D01*
X170274903Y-107197075D01*
G37*
G36*
X162802585Y-102978802D02*
G01*
X162952410Y-103008604D01*
X163234674Y-103125521D01*
X163488705Y-103295259D01*
X163704741Y-103511295D01*
X163874479Y-103765326D01*
X163991396Y-104047590D01*
X164051000Y-104347240D01*
X164051000Y-104652760D01*
X163991396Y-104952410D01*
X163874479Y-105234674D01*
X163704741Y-105488705D01*
X163488705Y-105704741D01*
X163234674Y-105874479D01*
X162952410Y-105991396D01*
X162802585Y-106021198D01*
X162652761Y-106051000D01*
X162347239Y-106051000D01*
X162197415Y-106021198D01*
X162047590Y-105991396D01*
X161765326Y-105874479D01*
X161511295Y-105704741D01*
X161295259Y-105488705D01*
X161125521Y-105234674D01*
X161008604Y-104952410D01*
X160949000Y-104652760D01*
X160949000Y-104347240D01*
X161008604Y-104047590D01*
X161125521Y-103765326D01*
X161295259Y-103511295D01*
X161511295Y-103295259D01*
X161765326Y-103125521D01*
X162047590Y-103008604D01*
X162197415Y-102978802D01*
X162347239Y-102949000D01*
X162652761Y-102949000D01*
X162802585Y-102978802D01*
G37*
G36*
X113142724Y-101726497D02*
G01*
X113369906Y-101771686D01*
X113619412Y-101875035D01*
X113843962Y-102025075D01*
X114034925Y-102216038D01*
X114184965Y-102440588D01*
X114288314Y-102690094D01*
X114341000Y-102954968D01*
X114341000Y-103225032D01*
X114288314Y-103489906D01*
X114184965Y-103739412D01*
X114034925Y-103963962D01*
X113843962Y-104154925D01*
X113619412Y-104304965D01*
X113369906Y-104408314D01*
X113142724Y-104453503D01*
X113105033Y-104461000D01*
X112834967Y-104461000D01*
X112797276Y-104453503D01*
X112570094Y-104408314D01*
X112320588Y-104304965D01*
X112096038Y-104154925D01*
X111905075Y-103963962D01*
X111755035Y-103739412D01*
X111651686Y-103489906D01*
X111599000Y-103225032D01*
X111599000Y-102954968D01*
X111651686Y-102690094D01*
X111755035Y-102440588D01*
X111905075Y-102216038D01*
X112096038Y-102025075D01*
X112320588Y-101875035D01*
X112570094Y-101771686D01*
X112797276Y-101726497D01*
X112834967Y-101719000D01*
X113105033Y-101719000D01*
X113142724Y-101726497D01*
G37*
M02*
