G04 #@! TF.GenerationSoftware,KiCad,Pcbnew,5.1.5+dfsg1-2build2*
G04 #@! TF.CreationDate,2021-12-07T18:35:01-05:00*
G04 #@! TF.ProjectId,ESP32CAM_SJ4000_ENCLOSURE,45535033-3243-4414-9d5f-534a34303030,rev?*
G04 #@! TF.SameCoordinates,Original*
G04 #@! TF.FileFunction,Legend,Top*
G04 #@! TF.FilePolarity,Positive*
%FSLAX46Y46*%
G04 Gerber Fmt 4.6, Leading zero omitted, Abs format (unit mm)*
G04 Created by KiCad (PCBNEW 5.1.5+dfsg1-2build2) date 2021-12-07 18:35:01*
%MOMM*%
%LPD*%
G04 APERTURE LIST*
%ADD10C,0.400000*%
%ADD11C,0.150000*%
%ADD12C,0.120000*%
%ADD13C,0.010000*%
%ADD14C,2.102000*%
%ADD15C,2.100980*%
%ADD16O,1.802000X1.802000*%
%ADD17R,1.802000X1.802000*%
G04 APERTURE END LIST*
D10*
X128028700Y-136728200D02*
X129006600Y-137693400D01*
X125437900Y-136677400D02*
X126415800Y-137642600D01*
X155181300Y-137071100D02*
X155181300Y-137363200D01*
X152641300Y-137071100D02*
X152641300Y-137363200D01*
X150101300Y-137071100D02*
X150101300Y-137363200D01*
X147561300Y-137071100D02*
X147561300Y-137363200D01*
X145021300Y-137071100D02*
X145021300Y-137363200D01*
X142481300Y-137071100D02*
X142481300Y-137363200D01*
X139941300Y-137071100D02*
X139941300Y-137363200D01*
X137401300Y-137071100D02*
X137401300Y-137363200D01*
X134861300Y-137071100D02*
X134861300Y-137363200D01*
X132321300Y-137071100D02*
X132321300Y-137363200D01*
X154051000Y-133413500D02*
X153758900Y-133413500D01*
X151511000Y-133413500D02*
X151218900Y-133413500D01*
X148971000Y-133413500D02*
X148678900Y-133413500D01*
X146431000Y-133413500D02*
X146138900Y-133413500D01*
X143891000Y-133413500D02*
X143598900Y-133413500D01*
X141351000Y-133413500D02*
X141058900Y-133413500D01*
X138811000Y-133413500D02*
X138518900Y-133413500D01*
X136271000Y-133413500D02*
X135978900Y-133413500D01*
X133731000Y-133413500D02*
X133438900Y-133413500D01*
X154051000Y-130873500D02*
X153758900Y-130873500D01*
X151511000Y-130873500D02*
X151218900Y-130873500D01*
X148971000Y-130873500D02*
X148678900Y-130873500D01*
X146431000Y-130873500D02*
X146138900Y-130873500D01*
X143891000Y-130873500D02*
X143598900Y-130873500D01*
X141351000Y-130873500D02*
X141058900Y-130873500D01*
X138811000Y-130873500D02*
X138518900Y-130873500D01*
X136271000Y-130873500D02*
X135978900Y-130873500D01*
X133731000Y-130873500D02*
X133438900Y-130873500D01*
X155194000Y-126911100D02*
X155194000Y-127203200D01*
X152654000Y-126911100D02*
X152654000Y-127203200D01*
X150114000Y-126911100D02*
X150114000Y-127203200D01*
X147574000Y-126911100D02*
X147574000Y-127203200D01*
X145034000Y-126911100D02*
X145034000Y-127203200D01*
X142494000Y-126911100D02*
X142494000Y-127203200D01*
X139954000Y-126911100D02*
X139954000Y-127203200D01*
X137414000Y-126911100D02*
X137414000Y-127203200D01*
X134874000Y-126911100D02*
X134874000Y-127203200D01*
X132334000Y-126911100D02*
X132334000Y-127203200D01*
X155194000Y-124371100D02*
X155194000Y-124663200D01*
X152654000Y-124371100D02*
X152654000Y-124663200D01*
X150114000Y-124371100D02*
X150114000Y-124663200D01*
X147574000Y-124371100D02*
X147574000Y-124663200D01*
X145034000Y-124371100D02*
X145034000Y-124663200D01*
X142494000Y-124371100D02*
X142494000Y-124663200D01*
X139954000Y-124371100D02*
X139954000Y-124663200D01*
X137414000Y-124371100D02*
X137414000Y-124663200D01*
X134874000Y-124371100D02*
X134874000Y-124663200D01*
X132334000Y-124371100D02*
X132334000Y-124663200D01*
X154051000Y-120700800D02*
X153758900Y-120700800D01*
X151511000Y-120700800D02*
X151218900Y-120700800D01*
X148971000Y-120700800D02*
X148678900Y-120700800D01*
X146431000Y-120700800D02*
X146138900Y-120700800D01*
X143891000Y-120700800D02*
X143598900Y-120700800D01*
X141351000Y-120700800D02*
X141058900Y-120700800D01*
X138811000Y-120700800D02*
X138518900Y-120700800D01*
X136271000Y-120700800D02*
X135978900Y-120700800D01*
X133731000Y-120700800D02*
X133438900Y-120700800D01*
X154051000Y-118160800D02*
X153758900Y-118160800D01*
X151511000Y-118160800D02*
X151218900Y-118160800D01*
X148971000Y-118160800D02*
X148678900Y-118160800D01*
X146431000Y-118160800D02*
X146138900Y-118160800D01*
X143891000Y-118160800D02*
X143598900Y-118160800D01*
X141351000Y-118160800D02*
X141058900Y-118160800D01*
X138811000Y-118160800D02*
X138518900Y-118160800D01*
X136271000Y-118160800D02*
X135978900Y-118160800D01*
X133731000Y-118160800D02*
X133438900Y-118160800D01*
X155181300Y-114236500D02*
X155181300Y-114528600D01*
X152641300Y-114236500D02*
X152641300Y-114528600D01*
X150101300Y-114236500D02*
X150101300Y-114528600D01*
X147561300Y-114236500D02*
X147561300Y-114528600D01*
X145021300Y-114236500D02*
X145021300Y-114528600D01*
X142481300Y-114236500D02*
X142481300Y-114528600D01*
X139941300Y-114236500D02*
X139941300Y-114528600D01*
X137401300Y-114236500D02*
X137401300Y-114528600D01*
X134861300Y-114236500D02*
X134861300Y-114528600D01*
X132321300Y-114236500D02*
X132321300Y-114528600D01*
X155181300Y-111696500D02*
X155181300Y-111988600D01*
X152641300Y-111696500D02*
X152641300Y-111988600D01*
X150101300Y-111696500D02*
X150101300Y-111988600D01*
X147561300Y-111696500D02*
X147561300Y-111988600D01*
X145021300Y-111696500D02*
X145021300Y-111988600D01*
X142481300Y-111696500D02*
X142481300Y-111988600D01*
X139941300Y-111696500D02*
X139941300Y-111988600D01*
X137401300Y-111696500D02*
X137401300Y-111988600D01*
X134861300Y-111696500D02*
X134861300Y-111988600D01*
X132321300Y-111696500D02*
X132321300Y-111988600D01*
X154051000Y-108013500D02*
X153758900Y-108013500D01*
X151511000Y-108013500D02*
X151218900Y-108013500D01*
X148971000Y-108013500D02*
X148678900Y-108013500D01*
X146431000Y-108013500D02*
X146138900Y-108013500D01*
X143891000Y-108013500D02*
X143598900Y-108013500D01*
X141351000Y-108013500D02*
X141058900Y-108013500D01*
X138811000Y-108013500D02*
X138518900Y-108013500D01*
X136271000Y-108013500D02*
X135978900Y-108013500D01*
X133731000Y-108013500D02*
X133438900Y-108013500D01*
X131191000Y-108013500D02*
X130898900Y-108013500D01*
X128651000Y-108013500D02*
X128358900Y-108013500D01*
X126111000Y-108013500D02*
X125818900Y-108013500D01*
X123571000Y-108013500D02*
X123278900Y-108013500D01*
X121031000Y-108013500D02*
X120738900Y-108013500D01*
X118491000Y-108013500D02*
X118198900Y-108013500D01*
X115951000Y-108013500D02*
X115658900Y-108013500D01*
X113411000Y-108013500D02*
X113118900Y-108013500D01*
X110871000Y-108013500D02*
X110578900Y-108013500D01*
X108331000Y-108013500D02*
X108038900Y-108013500D01*
X105791000Y-108013500D02*
X105498900Y-108013500D01*
X103251000Y-108013500D02*
X102958900Y-108013500D01*
X154051000Y-105473500D02*
X153758900Y-105473500D01*
X151511000Y-105473500D02*
X151218900Y-105473500D01*
X148971000Y-105473500D02*
X148678900Y-105473500D01*
X146431000Y-105473500D02*
X146138900Y-105473500D01*
X143891000Y-105473500D02*
X143598900Y-105473500D01*
X141351000Y-105473500D02*
X141058900Y-105473500D01*
X138811000Y-105473500D02*
X138518900Y-105473500D01*
X136271000Y-105473500D02*
X135978900Y-105473500D01*
X133731000Y-105473500D02*
X133438900Y-105473500D01*
X131191000Y-105473500D02*
X130898900Y-105473500D01*
X128651000Y-105473500D02*
X128358900Y-105473500D01*
X126111000Y-105473500D02*
X125818900Y-105473500D01*
X123571000Y-105473500D02*
X123278900Y-105473500D01*
X121031000Y-105473500D02*
X120738900Y-105473500D01*
X118491000Y-105473500D02*
X118198900Y-105473500D01*
X115951000Y-105473500D02*
X115658900Y-105473500D01*
X113411000Y-105473500D02*
X113118900Y-105473500D01*
X110871000Y-105473500D02*
X110578900Y-105473500D01*
X108331000Y-105473500D02*
X108038900Y-105473500D01*
X105791000Y-105473500D02*
X105498900Y-105473500D01*
X103251000Y-105473500D02*
X102958900Y-105473500D01*
X154051000Y-102933500D02*
X153758900Y-102933500D01*
X151511000Y-102933500D02*
X151218900Y-102933500D01*
X148971000Y-102933500D02*
X148678900Y-102933500D01*
X146431000Y-102933500D02*
X146138900Y-102933500D01*
X143891000Y-102933500D02*
X143598900Y-102933500D01*
X141351000Y-102933500D02*
X141058900Y-102933500D01*
X138811000Y-102933500D02*
X138518900Y-102933500D01*
X136271000Y-102933500D02*
X135978900Y-102933500D01*
X133731000Y-102933500D02*
X133438900Y-102933500D01*
X131191000Y-102933500D02*
X130898900Y-102933500D01*
X128651000Y-102933500D02*
X128358900Y-102933500D01*
X126111000Y-102933500D02*
X125818900Y-102933500D01*
X123571000Y-102933500D02*
X123278900Y-102933500D01*
X121031000Y-102933500D02*
X120738900Y-102933500D01*
X118491000Y-102933500D02*
X118198900Y-102933500D01*
X115951000Y-102933500D02*
X115658900Y-102933500D01*
X113411000Y-102933500D02*
X113118900Y-102933500D01*
X110871000Y-102933500D02*
X110578900Y-102933500D01*
X108331000Y-102933500D02*
X108038900Y-102933500D01*
X105791000Y-102933500D02*
X105498900Y-102933500D01*
X103251000Y-102933500D02*
X102958900Y-102933500D01*
X128574800Y-135953500D02*
X128282700Y-135953500D01*
X128574800Y-133400800D02*
X128282700Y-133400800D01*
X128574800Y-130860800D02*
X128282700Y-130860800D01*
X128574800Y-128320800D02*
X128282700Y-128320800D01*
X128574800Y-125780800D02*
X128282700Y-125780800D01*
X128574800Y-123240800D02*
X128282700Y-123240800D01*
X128574800Y-120700800D02*
X128282700Y-120700800D01*
X128574800Y-118160800D02*
X128282700Y-118160800D01*
X126187200Y-133413500D02*
X125895100Y-133413500D01*
X126187200Y-130873500D02*
X125895100Y-130873500D01*
X126187200Y-128333500D02*
X125895100Y-128333500D01*
X126187200Y-125793500D02*
X125895100Y-125793500D01*
X126187200Y-123253500D02*
X125895100Y-123253500D01*
X126187200Y-120713500D02*
X125895100Y-120713500D01*
X126187200Y-118173500D02*
X125895100Y-118173500D01*
X105714800Y-135953500D02*
X105422700Y-135953500D01*
X105714800Y-133413500D02*
X105422700Y-133413500D01*
X105714800Y-130873500D02*
X105422700Y-130873500D01*
X105714800Y-128333500D02*
X105422700Y-128333500D01*
X105714800Y-125793500D02*
X105422700Y-125793500D01*
X105714800Y-123253500D02*
X105422700Y-123253500D01*
X105714800Y-120713500D02*
X105422700Y-120713500D01*
X105714800Y-118173500D02*
X105422700Y-118173500D01*
X103327200Y-135953500D02*
X103035100Y-135953500D01*
X103327200Y-133413500D02*
X103035100Y-133413500D01*
X103327200Y-130873500D02*
X103035100Y-130873500D01*
X103327200Y-128333500D02*
X103035100Y-128333500D01*
X103327200Y-125793500D02*
X103035100Y-125793500D01*
X103327200Y-123253500D02*
X103035100Y-123253500D01*
X103327200Y-120713500D02*
X103035100Y-120713500D01*
X103327200Y-118173500D02*
X103035100Y-118173500D01*
X124701300Y-136994900D02*
X124701300Y-137287000D01*
X122161300Y-136994900D02*
X122161300Y-137287000D01*
X119621300Y-136994900D02*
X119621300Y-137287000D01*
X117081300Y-136994900D02*
X117081300Y-137287000D01*
X114541300Y-136994900D02*
X114541300Y-137287000D01*
X112001300Y-136994900D02*
X112001300Y-137287000D01*
X109461300Y-136994900D02*
X109461300Y-137287000D01*
X122161300Y-134607300D02*
X122161300Y-134899400D01*
X119621300Y-134607300D02*
X119621300Y-134899400D01*
X117081300Y-134607300D02*
X117081300Y-134899400D01*
X114541300Y-134607300D02*
X114541300Y-134899400D01*
X112001300Y-134607300D02*
X112001300Y-134899400D01*
X109461300Y-134607300D02*
X109461300Y-134899400D01*
X127241300Y-114134900D02*
X127241300Y-114427000D01*
X124701300Y-114134900D02*
X124701300Y-114427000D01*
X122161300Y-114134900D02*
X122161300Y-114427000D01*
X119621300Y-114134900D02*
X119621300Y-114427000D01*
X117081300Y-114134900D02*
X117081300Y-114427000D01*
X114541300Y-114134900D02*
X114541300Y-114427000D01*
X112001300Y-114134900D02*
X112001300Y-114427000D01*
X109461300Y-114134900D02*
X109461300Y-114427000D01*
X127241300Y-111747300D02*
X127241300Y-112039400D01*
X124701300Y-111747300D02*
X124701300Y-112039400D01*
X122161300Y-111747300D02*
X122161300Y-112039400D01*
X119621300Y-111747300D02*
X119621300Y-112039400D01*
X117081300Y-111747300D02*
X117081300Y-112039400D01*
X114541300Y-111747300D02*
X114541300Y-112039400D01*
X112001300Y-111747300D02*
X112001300Y-112039400D01*
X109461300Y-111747300D02*
X109461300Y-112039400D01*
D11*
X118966809Y-121639942D02*
X118700142Y-121639942D01*
X118585857Y-121220895D02*
X118966809Y-121220895D01*
X118966809Y-122020895D01*
X118585857Y-122020895D01*
X118281095Y-121258990D02*
X118166809Y-121220895D01*
X117976333Y-121220895D01*
X117900142Y-121258990D01*
X117862047Y-121297085D01*
X117823952Y-121373276D01*
X117823952Y-121449466D01*
X117862047Y-121525657D01*
X117900142Y-121563752D01*
X117976333Y-121601847D01*
X118128714Y-121639942D01*
X118204904Y-121678038D01*
X118243000Y-121716133D01*
X118281095Y-121792323D01*
X118281095Y-121868514D01*
X118243000Y-121944704D01*
X118204904Y-121982800D01*
X118128714Y-122020895D01*
X117938238Y-122020895D01*
X117823952Y-121982800D01*
X117481095Y-121220895D02*
X117481095Y-122020895D01*
X117176333Y-122020895D01*
X117100142Y-121982800D01*
X117062047Y-121944704D01*
X117023952Y-121868514D01*
X117023952Y-121754228D01*
X117062047Y-121678038D01*
X117100142Y-121639942D01*
X117176333Y-121601847D01*
X117481095Y-121601847D01*
X116757285Y-122020895D02*
X116262047Y-122020895D01*
X116528714Y-121716133D01*
X116414428Y-121716133D01*
X116338238Y-121678038D01*
X116300142Y-121639942D01*
X116262047Y-121563752D01*
X116262047Y-121373276D01*
X116300142Y-121297085D01*
X116338238Y-121258990D01*
X116414428Y-121220895D01*
X116643000Y-121220895D01*
X116719190Y-121258990D01*
X116757285Y-121297085D01*
X115957285Y-121944704D02*
X115919190Y-121982800D01*
X115843000Y-122020895D01*
X115652523Y-122020895D01*
X115576333Y-121982800D01*
X115538238Y-121944704D01*
X115500142Y-121868514D01*
X115500142Y-121792323D01*
X115538238Y-121678038D01*
X115995380Y-121220895D01*
X115500142Y-121220895D01*
X114090619Y-121297085D02*
X114128714Y-121258990D01*
X114243000Y-121220895D01*
X114319190Y-121220895D01*
X114433476Y-121258990D01*
X114509666Y-121335180D01*
X114547761Y-121411371D01*
X114585857Y-121563752D01*
X114585857Y-121678038D01*
X114547761Y-121830419D01*
X114509666Y-121906609D01*
X114433476Y-121982800D01*
X114319190Y-122020895D01*
X114243000Y-122020895D01*
X114128714Y-121982800D01*
X114090619Y-121944704D01*
X113785857Y-121449466D02*
X113404904Y-121449466D01*
X113862047Y-121220895D02*
X113595380Y-122020895D01*
X113328714Y-121220895D01*
X113062047Y-121220895D02*
X113062047Y-122020895D01*
X112795380Y-121449466D01*
X112528714Y-122020895D01*
X112528714Y-121220895D01*
X121423952Y-119870895D02*
X121423952Y-120670895D01*
X121119190Y-120670895D01*
X121043000Y-120632800D01*
X121004904Y-120594704D01*
X120966809Y-120518514D01*
X120966809Y-120404228D01*
X121004904Y-120328038D01*
X121043000Y-120289942D01*
X121119190Y-120251847D01*
X121423952Y-120251847D01*
X120166809Y-119870895D02*
X120433476Y-120251847D01*
X120623952Y-119870895D02*
X120623952Y-120670895D01*
X120319190Y-120670895D01*
X120243000Y-120632800D01*
X120204904Y-120594704D01*
X120166809Y-120518514D01*
X120166809Y-120404228D01*
X120204904Y-120328038D01*
X120243000Y-120289942D01*
X120319190Y-120251847D01*
X120623952Y-120251847D01*
X119671571Y-120670895D02*
X119519190Y-120670895D01*
X119443000Y-120632800D01*
X119366809Y-120556609D01*
X119328714Y-120404228D01*
X119328714Y-120137561D01*
X119366809Y-119985180D01*
X119443000Y-119908990D01*
X119519190Y-119870895D01*
X119671571Y-119870895D01*
X119747761Y-119908990D01*
X119823952Y-119985180D01*
X119862047Y-120137561D01*
X119862047Y-120404228D01*
X119823952Y-120556609D01*
X119747761Y-120632800D01*
X119671571Y-120670895D01*
X119100142Y-120670895D02*
X118643000Y-120670895D01*
X118871571Y-119870895D02*
X118871571Y-120670895D01*
X118223952Y-120670895D02*
X118071571Y-120670895D01*
X117995380Y-120632800D01*
X117919190Y-120556609D01*
X117881095Y-120404228D01*
X117881095Y-120137561D01*
X117919190Y-119985180D01*
X117995380Y-119908990D01*
X118071571Y-119870895D01*
X118223952Y-119870895D01*
X118300142Y-119908990D01*
X118376333Y-119985180D01*
X118414428Y-120137561D01*
X118414428Y-120404228D01*
X118376333Y-120556609D01*
X118300142Y-120632800D01*
X118223952Y-120670895D01*
X117652523Y-120670895D02*
X117195380Y-120670895D01*
X117423952Y-119870895D02*
X117423952Y-120670895D01*
X116776333Y-120251847D02*
X116776333Y-119870895D01*
X117043000Y-120670895D02*
X116776333Y-120251847D01*
X116509666Y-120670895D01*
X116243000Y-119870895D02*
X116243000Y-120670895D01*
X115938238Y-120670895D01*
X115862047Y-120632800D01*
X115823952Y-120594704D01*
X115785857Y-120518514D01*
X115785857Y-120404228D01*
X115823952Y-120328038D01*
X115862047Y-120289942D01*
X115938238Y-120251847D01*
X116243000Y-120251847D01*
X115443000Y-120289942D02*
X115176333Y-120289942D01*
X115062047Y-119870895D02*
X115443000Y-119870895D01*
X115443000Y-120670895D01*
X115062047Y-120670895D01*
X114147761Y-119908990D02*
X114033476Y-119870895D01*
X113843000Y-119870895D01*
X113766809Y-119908990D01*
X113728714Y-119947085D01*
X113690619Y-120023276D01*
X113690619Y-120099466D01*
X113728714Y-120175657D01*
X113766809Y-120213752D01*
X113843000Y-120251847D01*
X113995380Y-120289942D01*
X114071571Y-120328038D01*
X114109666Y-120366133D01*
X114147761Y-120442323D01*
X114147761Y-120518514D01*
X114109666Y-120594704D01*
X114071571Y-120632800D01*
X113995380Y-120670895D01*
X113804904Y-120670895D01*
X113690619Y-120632800D01*
X113119190Y-120670895D02*
X113119190Y-120099466D01*
X113157285Y-119985180D01*
X113233476Y-119908990D01*
X113347761Y-119870895D01*
X113423952Y-119870895D01*
X112395380Y-120404228D02*
X112395380Y-119870895D01*
X112585857Y-120708990D02*
X112776333Y-120137561D01*
X112281095Y-120137561D01*
X111823952Y-120670895D02*
X111747761Y-120670895D01*
X111671571Y-120632800D01*
X111633476Y-120594704D01*
X111595380Y-120518514D01*
X111557285Y-120366133D01*
X111557285Y-120175657D01*
X111595380Y-120023276D01*
X111633476Y-119947085D01*
X111671571Y-119908990D01*
X111747761Y-119870895D01*
X111823952Y-119870895D01*
X111900142Y-119908990D01*
X111938238Y-119947085D01*
X111976333Y-120023276D01*
X112014428Y-120175657D01*
X112014428Y-120366133D01*
X111976333Y-120518514D01*
X111938238Y-120594704D01*
X111900142Y-120632800D01*
X111823952Y-120670895D01*
X111062047Y-120670895D02*
X110985857Y-120670895D01*
X110909666Y-120632800D01*
X110871571Y-120594704D01*
X110833476Y-120518514D01*
X110795380Y-120366133D01*
X110795380Y-120175657D01*
X110833476Y-120023276D01*
X110871571Y-119947085D01*
X110909666Y-119908990D01*
X110985857Y-119870895D01*
X111062047Y-119870895D01*
X111138238Y-119908990D01*
X111176333Y-119947085D01*
X111214428Y-120023276D01*
X111252523Y-120175657D01*
X111252523Y-120366133D01*
X111214428Y-120518514D01*
X111176333Y-120594704D01*
X111138238Y-120632800D01*
X111062047Y-120670895D01*
X110300142Y-120670895D02*
X110223952Y-120670895D01*
X110147761Y-120632800D01*
X110109666Y-120594704D01*
X110071571Y-120518514D01*
X110033476Y-120366133D01*
X110033476Y-120175657D01*
X110071571Y-120023276D01*
X110109666Y-119947085D01*
X110147761Y-119908990D01*
X110223952Y-119870895D01*
X110300142Y-119870895D01*
X110376333Y-119908990D01*
X110414428Y-119947085D01*
X110452523Y-120023276D01*
X110490619Y-120175657D01*
X110490619Y-120366133D01*
X110452523Y-120518514D01*
X110414428Y-120594704D01*
X110376333Y-120632800D01*
X110300142Y-120670895D01*
X118738238Y-118939942D02*
X118471571Y-118939942D01*
X118357285Y-118520895D02*
X118738238Y-118520895D01*
X118738238Y-119320895D01*
X118357285Y-119320895D01*
X118014428Y-118520895D02*
X118014428Y-119320895D01*
X117557285Y-118520895D01*
X117557285Y-119320895D01*
X116719190Y-118597085D02*
X116757285Y-118558990D01*
X116871571Y-118520895D01*
X116947761Y-118520895D01*
X117062047Y-118558990D01*
X117138238Y-118635180D01*
X117176333Y-118711371D01*
X117214428Y-118863752D01*
X117214428Y-118978038D01*
X117176333Y-119130419D01*
X117138238Y-119206609D01*
X117062047Y-119282800D01*
X116947761Y-119320895D01*
X116871571Y-119320895D01*
X116757285Y-119282800D01*
X116719190Y-119244704D01*
X115995380Y-118520895D02*
X116376333Y-118520895D01*
X116376333Y-119320895D01*
X115576333Y-119320895D02*
X115423952Y-119320895D01*
X115347761Y-119282800D01*
X115271571Y-119206609D01*
X115233476Y-119054228D01*
X115233476Y-118787561D01*
X115271571Y-118635180D01*
X115347761Y-118558990D01*
X115423952Y-118520895D01*
X115576333Y-118520895D01*
X115652523Y-118558990D01*
X115728714Y-118635180D01*
X115766809Y-118787561D01*
X115766809Y-119054228D01*
X115728714Y-119206609D01*
X115652523Y-119282800D01*
X115576333Y-119320895D01*
X114928714Y-118558990D02*
X114814428Y-118520895D01*
X114623952Y-118520895D01*
X114547761Y-118558990D01*
X114509666Y-118597085D01*
X114471571Y-118673276D01*
X114471571Y-118749466D01*
X114509666Y-118825657D01*
X114547761Y-118863752D01*
X114623952Y-118901847D01*
X114776333Y-118939942D01*
X114852523Y-118978038D01*
X114890619Y-119016133D01*
X114928714Y-119092323D01*
X114928714Y-119168514D01*
X114890619Y-119244704D01*
X114852523Y-119282800D01*
X114776333Y-119320895D01*
X114585857Y-119320895D01*
X114471571Y-119282800D01*
X114128714Y-119320895D02*
X114128714Y-118673276D01*
X114090619Y-118597085D01*
X114052523Y-118558990D01*
X113976333Y-118520895D01*
X113823952Y-118520895D01*
X113747761Y-118558990D01*
X113709666Y-118597085D01*
X113671571Y-118673276D01*
X113671571Y-119320895D01*
X112833476Y-118520895D02*
X113100142Y-118901847D01*
X113290619Y-118520895D02*
X113290619Y-119320895D01*
X112985857Y-119320895D01*
X112909666Y-119282800D01*
X112871571Y-119244704D01*
X112833476Y-119168514D01*
X112833476Y-119054228D01*
X112871571Y-118978038D01*
X112909666Y-118939942D01*
X112985857Y-118901847D01*
X113290619Y-118901847D01*
X112490619Y-118939942D02*
X112223952Y-118939942D01*
X112109666Y-118520895D02*
X112490619Y-118520895D01*
X112490619Y-119320895D01*
X112109666Y-119320895D01*
D12*
X108131300Y-135950000D02*
X108131300Y-134620000D01*
X108131300Y-134620000D02*
X109461300Y-134620000D01*
X110731300Y-134620000D02*
X128571300Y-134620000D01*
X128571300Y-137280000D02*
X128571300Y-134620000D01*
X110731300Y-137280000D02*
X128571300Y-137280000D01*
X110731300Y-137280000D02*
X110731300Y-134620000D01*
X108131300Y-113090000D02*
X108131300Y-111760000D01*
X108131300Y-111760000D02*
X109461300Y-111760000D01*
X110731300Y-111760000D02*
X128571300Y-111760000D01*
X128571300Y-114420000D02*
X128571300Y-111760000D01*
X110731300Y-114420000D02*
X128571300Y-114420000D01*
X110731300Y-114420000D02*
X110731300Y-111760000D01*
X104381300Y-137280000D02*
X103051300Y-137280000D01*
X103051300Y-137280000D02*
X103051300Y-135950000D01*
X103051300Y-134680000D02*
X103051300Y-116840000D01*
X105711300Y-116840000D02*
X103051300Y-116840000D01*
X105711300Y-134680000D02*
X105711300Y-116840000D01*
X105711300Y-134680000D02*
X103051300Y-134680000D01*
X127241300Y-137280000D02*
X125911300Y-137280000D01*
X125911300Y-137280000D02*
X125911300Y-135950000D01*
X125911300Y-134680000D02*
X125911300Y-116840000D01*
X128571300Y-116840000D02*
X125911300Y-116840000D01*
X128571300Y-134680000D02*
X128571300Y-116840000D01*
X128571300Y-134680000D02*
X125911300Y-134680000D01*
D13*
G36*
X115128486Y-129797769D02*
G01*
X115044665Y-129353145D01*
X114735380Y-129225647D01*
X114426094Y-129098149D01*
X114055054Y-129350454D01*
X113951143Y-129420704D01*
X113857213Y-129483428D01*
X113777648Y-129535762D01*
X113716830Y-129574843D01*
X113679143Y-129597807D01*
X113668879Y-129602758D01*
X113650390Y-129590024D01*
X113610880Y-129554818D01*
X113554778Y-129501638D01*
X113486513Y-129434982D01*
X113410514Y-129359346D01*
X113331208Y-129279228D01*
X113253025Y-129199126D01*
X113180393Y-129123536D01*
X113117741Y-129056955D01*
X113069497Y-129003882D01*
X113040090Y-128968813D01*
X113033059Y-128957077D01*
X113043177Y-128935440D01*
X113071541Y-128888038D01*
X113115171Y-128819507D01*
X113171082Y-128734485D01*
X113236294Y-128637607D01*
X113274081Y-128582350D01*
X113342957Y-128481452D01*
X113404160Y-128390401D01*
X113454722Y-128313730D01*
X113491672Y-128255972D01*
X113512042Y-128221657D01*
X113515103Y-128214446D01*
X113508164Y-128193952D01*
X113489249Y-128146187D01*
X113461213Y-128077868D01*
X113426909Y-127995711D01*
X113389191Y-127906430D01*
X113350913Y-127816742D01*
X113314930Y-127733362D01*
X113284094Y-127663006D01*
X113261261Y-127612390D01*
X113249283Y-127588229D01*
X113248576Y-127587278D01*
X113229769Y-127582664D01*
X113179682Y-127572372D01*
X113103507Y-127557413D01*
X113006435Y-127538799D01*
X112893657Y-127517541D01*
X112827858Y-127505282D01*
X112707350Y-127482338D01*
X112598503Y-127460505D01*
X112506824Y-127440978D01*
X112437819Y-127424952D01*
X112396996Y-127413621D01*
X112388789Y-127410026D01*
X112380752Y-127385694D01*
X112374267Y-127330741D01*
X112369330Y-127251592D01*
X112365936Y-127154674D01*
X112364082Y-127046413D01*
X112363762Y-126933235D01*
X112364973Y-126821565D01*
X112367710Y-126717832D01*
X112371969Y-126628459D01*
X112377745Y-126559874D01*
X112385033Y-126518503D01*
X112389405Y-126509890D01*
X112415536Y-126499567D01*
X112470907Y-126484808D01*
X112548193Y-126467348D01*
X112640070Y-126448920D01*
X112672142Y-126442959D01*
X112826776Y-126414634D01*
X112948925Y-126391824D01*
X113042627Y-126373620D01*
X113111916Y-126359117D01*
X113160829Y-126347408D01*
X113193403Y-126337585D01*
X113213672Y-126328744D01*
X113225674Y-126319976D01*
X113227353Y-126318243D01*
X113244116Y-126290329D01*
X113269686Y-126236005D01*
X113301512Y-126161923D01*
X113337040Y-126074735D01*
X113373717Y-125981092D01*
X113408989Y-125887648D01*
X113440304Y-125801053D01*
X113465107Y-125727960D01*
X113480846Y-125675022D01*
X113484968Y-125648889D01*
X113484624Y-125647974D01*
X113470659Y-125626614D01*
X113438978Y-125579616D01*
X113392909Y-125511873D01*
X113335782Y-125428277D01*
X113270927Y-125333718D01*
X113252457Y-125306846D01*
X113186601Y-125209425D01*
X113128650Y-125120537D01*
X113081762Y-125045288D01*
X113049093Y-124988780D01*
X113033800Y-124956119D01*
X113033059Y-124952107D01*
X113045908Y-124931016D01*
X113081412Y-124889236D01*
X113135007Y-124831255D01*
X113202129Y-124761565D01*
X113278213Y-124684655D01*
X113358696Y-124605017D01*
X113439013Y-124527139D01*
X113514601Y-124455514D01*
X113580895Y-124394630D01*
X113633331Y-124348979D01*
X113667345Y-124323050D01*
X113676755Y-124318817D01*
X113698657Y-124328788D01*
X113743500Y-124355680D01*
X113803979Y-124394964D01*
X113850511Y-124426583D01*
X113934825Y-124484602D01*
X114034674Y-124552916D01*
X114134827Y-124621121D01*
X114188673Y-124657625D01*
X114370929Y-124780900D01*
X114523919Y-124698180D01*
X114593618Y-124661941D01*
X114652886Y-124633774D01*
X114692989Y-124617709D01*
X114703197Y-124615474D01*
X114715471Y-124631978D01*
X114739687Y-124678618D01*
X114774037Y-124751091D01*
X114816712Y-124845094D01*
X114865906Y-124956326D01*
X114919810Y-125080485D01*
X114976616Y-125213268D01*
X115034518Y-125350373D01*
X115091707Y-125487498D01*
X115146376Y-125620342D01*
X115196716Y-125744602D01*
X115240920Y-125855975D01*
X115277181Y-125950161D01*
X115303691Y-126022856D01*
X115318642Y-126069759D01*
X115321046Y-126085867D01*
X115301989Y-126106414D01*
X115260264Y-126139767D01*
X115204594Y-126178998D01*
X115199922Y-126182101D01*
X115056036Y-126297277D01*
X114940017Y-126431647D01*
X114852870Y-126580916D01*
X114795601Y-126740787D01*
X114769214Y-126906963D01*
X114774715Y-127075148D01*
X114813110Y-127241045D01*
X114885405Y-127400358D01*
X114906674Y-127435213D01*
X115017304Y-127575963D01*
X115147998Y-127688986D01*
X115294236Y-127773697D01*
X115451492Y-127829506D01*
X115615243Y-127855826D01*
X115780967Y-127852070D01*
X115944138Y-127817650D01*
X116100235Y-127751977D01*
X116244733Y-127654465D01*
X116289431Y-127614887D01*
X116403188Y-127490997D01*
X116486082Y-127360576D01*
X116542944Y-127214385D01*
X116574613Y-127069612D01*
X116582431Y-126906840D01*
X116556362Y-126743260D01*
X116499055Y-126584402D01*
X116413156Y-126435794D01*
X116301314Y-126302965D01*
X116166177Y-126191444D01*
X116148417Y-126179689D01*
X116092150Y-126141192D01*
X116049377Y-126107837D01*
X116028928Y-126086540D01*
X116028631Y-126085867D01*
X116033021Y-126062829D01*
X116050424Y-126010543D01*
X116079032Y-125933310D01*
X116117035Y-125835432D01*
X116162626Y-125721209D01*
X116213997Y-125594942D01*
X116269338Y-125460933D01*
X116326842Y-125323482D01*
X116384699Y-125186892D01*
X116441102Y-125055463D01*
X116494242Y-124933495D01*
X116542310Y-124825291D01*
X116583499Y-124735151D01*
X116615999Y-124667377D01*
X116638003Y-124626270D01*
X116646864Y-124615474D01*
X116673940Y-124623881D01*
X116724603Y-124646428D01*
X116790117Y-124679087D01*
X116826141Y-124698180D01*
X116979132Y-124780900D01*
X117161388Y-124657625D01*
X117254425Y-124594472D01*
X117356285Y-124524973D01*
X117451738Y-124459535D01*
X117499550Y-124426583D01*
X117566795Y-124381427D01*
X117623736Y-124345643D01*
X117662946Y-124323762D01*
X117675681Y-124319137D01*
X117694217Y-124331615D01*
X117735241Y-124366448D01*
X117794775Y-124420022D01*
X117868842Y-124488717D01*
X117953465Y-124568919D01*
X118006985Y-124620414D01*
X118100619Y-124712414D01*
X118181541Y-124794701D01*
X118246477Y-124863755D01*
X118292158Y-124916056D01*
X118315311Y-124948084D01*
X118317532Y-124954584D01*
X118307224Y-124979306D01*
X118278739Y-125029295D01*
X118235237Y-125099488D01*
X118179877Y-125184825D01*
X118115820Y-125280244D01*
X118097603Y-125306846D01*
X118031227Y-125403533D01*
X117971678Y-125490583D01*
X117922284Y-125563105D01*
X117886375Y-125616207D01*
X117867281Y-125644997D01*
X117865436Y-125647974D01*
X117868195Y-125670918D01*
X117882838Y-125721364D01*
X117906813Y-125792659D01*
X117937566Y-125878153D01*
X117972544Y-125971193D01*
X118009193Y-126065126D01*
X118044961Y-126153301D01*
X118077294Y-126229066D01*
X118103638Y-126285769D01*
X118121442Y-126316757D01*
X118122707Y-126318243D01*
X118133594Y-126327099D01*
X118151982Y-126335857D01*
X118181906Y-126345423D01*
X118227403Y-126356704D01*
X118292509Y-126370607D01*
X118381261Y-126388037D01*
X118497693Y-126409902D01*
X118645842Y-126437109D01*
X118677918Y-126442959D01*
X118772986Y-126461326D01*
X118855865Y-126479295D01*
X118919230Y-126495131D01*
X118955758Y-126507100D01*
X118960656Y-126509890D01*
X118968727Y-126534628D01*
X118975287Y-126589910D01*
X118980333Y-126669311D01*
X118983859Y-126766404D01*
X118985861Y-126874762D01*
X118986336Y-126987960D01*
X118985277Y-127099572D01*
X118982682Y-127203171D01*
X118978546Y-127292332D01*
X118972863Y-127360628D01*
X118965631Y-127401634D01*
X118961271Y-127410026D01*
X118936998Y-127418492D01*
X118881726Y-127432265D01*
X118800962Y-127450150D01*
X118700212Y-127470952D01*
X118584983Y-127493477D01*
X118522202Y-127505282D01*
X118403087Y-127527549D01*
X118296865Y-127547721D01*
X118208727Y-127564785D01*
X118143866Y-127577731D01*
X118107474Y-127585545D01*
X118101484Y-127587278D01*
X118091361Y-127606810D01*
X118069962Y-127653857D01*
X118040139Y-127721697D01*
X118004745Y-127803609D01*
X117966632Y-127892872D01*
X117928653Y-127982765D01*
X117893660Y-128066565D01*
X117864506Y-128137553D01*
X117844043Y-128189006D01*
X117835123Y-128214203D01*
X117834957Y-128215304D01*
X117845069Y-128235181D01*
X117873417Y-128280923D01*
X117917023Y-128347983D01*
X117972906Y-128431816D01*
X118038087Y-128527874D01*
X118075979Y-128583050D01*
X118145025Y-128684219D01*
X118206350Y-128776070D01*
X118256963Y-128853956D01*
X118293871Y-128913231D01*
X118314082Y-128949249D01*
X118317001Y-128957323D01*
X118304453Y-128976116D01*
X118269763Y-129016243D01*
X118217363Y-129073207D01*
X118151684Y-129142515D01*
X118077156Y-129219669D01*
X117998213Y-129300175D01*
X117919283Y-129379537D01*
X117844800Y-129453260D01*
X117779194Y-129516848D01*
X117726896Y-129565806D01*
X117692339Y-129595639D01*
X117680778Y-129602758D01*
X117661954Y-129592747D01*
X117616931Y-129564622D01*
X117550087Y-129521246D01*
X117465799Y-129465482D01*
X117368444Y-129400194D01*
X117295007Y-129350454D01*
X116923967Y-129098149D01*
X116305395Y-129353145D01*
X116221575Y-129797769D01*
X116137754Y-130242393D01*
X115212306Y-130242393D01*
X115128486Y-129797769D01*
G37*
X115128486Y-129797769D02*
X115044665Y-129353145D01*
X114735380Y-129225647D01*
X114426094Y-129098149D01*
X114055054Y-129350454D01*
X113951143Y-129420704D01*
X113857213Y-129483428D01*
X113777648Y-129535762D01*
X113716830Y-129574843D01*
X113679143Y-129597807D01*
X113668879Y-129602758D01*
X113650390Y-129590024D01*
X113610880Y-129554818D01*
X113554778Y-129501638D01*
X113486513Y-129434982D01*
X113410514Y-129359346D01*
X113331208Y-129279228D01*
X113253025Y-129199126D01*
X113180393Y-129123536D01*
X113117741Y-129056955D01*
X113069497Y-129003882D01*
X113040090Y-128968813D01*
X113033059Y-128957077D01*
X113043177Y-128935440D01*
X113071541Y-128888038D01*
X113115171Y-128819507D01*
X113171082Y-128734485D01*
X113236294Y-128637607D01*
X113274081Y-128582350D01*
X113342957Y-128481452D01*
X113404160Y-128390401D01*
X113454722Y-128313730D01*
X113491672Y-128255972D01*
X113512042Y-128221657D01*
X113515103Y-128214446D01*
X113508164Y-128193952D01*
X113489249Y-128146187D01*
X113461213Y-128077868D01*
X113426909Y-127995711D01*
X113389191Y-127906430D01*
X113350913Y-127816742D01*
X113314930Y-127733362D01*
X113284094Y-127663006D01*
X113261261Y-127612390D01*
X113249283Y-127588229D01*
X113248576Y-127587278D01*
X113229769Y-127582664D01*
X113179682Y-127572372D01*
X113103507Y-127557413D01*
X113006435Y-127538799D01*
X112893657Y-127517541D01*
X112827858Y-127505282D01*
X112707350Y-127482338D01*
X112598503Y-127460505D01*
X112506824Y-127440978D01*
X112437819Y-127424952D01*
X112396996Y-127413621D01*
X112388789Y-127410026D01*
X112380752Y-127385694D01*
X112374267Y-127330741D01*
X112369330Y-127251592D01*
X112365936Y-127154674D01*
X112364082Y-127046413D01*
X112363762Y-126933235D01*
X112364973Y-126821565D01*
X112367710Y-126717832D01*
X112371969Y-126628459D01*
X112377745Y-126559874D01*
X112385033Y-126518503D01*
X112389405Y-126509890D01*
X112415536Y-126499567D01*
X112470907Y-126484808D01*
X112548193Y-126467348D01*
X112640070Y-126448920D01*
X112672142Y-126442959D01*
X112826776Y-126414634D01*
X112948925Y-126391824D01*
X113042627Y-126373620D01*
X113111916Y-126359117D01*
X113160829Y-126347408D01*
X113193403Y-126337585D01*
X113213672Y-126328744D01*
X113225674Y-126319976D01*
X113227353Y-126318243D01*
X113244116Y-126290329D01*
X113269686Y-126236005D01*
X113301512Y-126161923D01*
X113337040Y-126074735D01*
X113373717Y-125981092D01*
X113408989Y-125887648D01*
X113440304Y-125801053D01*
X113465107Y-125727960D01*
X113480846Y-125675022D01*
X113484968Y-125648889D01*
X113484624Y-125647974D01*
X113470659Y-125626614D01*
X113438978Y-125579616D01*
X113392909Y-125511873D01*
X113335782Y-125428277D01*
X113270927Y-125333718D01*
X113252457Y-125306846D01*
X113186601Y-125209425D01*
X113128650Y-125120537D01*
X113081762Y-125045288D01*
X113049093Y-124988780D01*
X113033800Y-124956119D01*
X113033059Y-124952107D01*
X113045908Y-124931016D01*
X113081412Y-124889236D01*
X113135007Y-124831255D01*
X113202129Y-124761565D01*
X113278213Y-124684655D01*
X113358696Y-124605017D01*
X113439013Y-124527139D01*
X113514601Y-124455514D01*
X113580895Y-124394630D01*
X113633331Y-124348979D01*
X113667345Y-124323050D01*
X113676755Y-124318817D01*
X113698657Y-124328788D01*
X113743500Y-124355680D01*
X113803979Y-124394964D01*
X113850511Y-124426583D01*
X113934825Y-124484602D01*
X114034674Y-124552916D01*
X114134827Y-124621121D01*
X114188673Y-124657625D01*
X114370929Y-124780900D01*
X114523919Y-124698180D01*
X114593618Y-124661941D01*
X114652886Y-124633774D01*
X114692989Y-124617709D01*
X114703197Y-124615474D01*
X114715471Y-124631978D01*
X114739687Y-124678618D01*
X114774037Y-124751091D01*
X114816712Y-124845094D01*
X114865906Y-124956326D01*
X114919810Y-125080485D01*
X114976616Y-125213268D01*
X115034518Y-125350373D01*
X115091707Y-125487498D01*
X115146376Y-125620342D01*
X115196716Y-125744602D01*
X115240920Y-125855975D01*
X115277181Y-125950161D01*
X115303691Y-126022856D01*
X115318642Y-126069759D01*
X115321046Y-126085867D01*
X115301989Y-126106414D01*
X115260264Y-126139767D01*
X115204594Y-126178998D01*
X115199922Y-126182101D01*
X115056036Y-126297277D01*
X114940017Y-126431647D01*
X114852870Y-126580916D01*
X114795601Y-126740787D01*
X114769214Y-126906963D01*
X114774715Y-127075148D01*
X114813110Y-127241045D01*
X114885405Y-127400358D01*
X114906674Y-127435213D01*
X115017304Y-127575963D01*
X115147998Y-127688986D01*
X115294236Y-127773697D01*
X115451492Y-127829506D01*
X115615243Y-127855826D01*
X115780967Y-127852070D01*
X115944138Y-127817650D01*
X116100235Y-127751977D01*
X116244733Y-127654465D01*
X116289431Y-127614887D01*
X116403188Y-127490997D01*
X116486082Y-127360576D01*
X116542944Y-127214385D01*
X116574613Y-127069612D01*
X116582431Y-126906840D01*
X116556362Y-126743260D01*
X116499055Y-126584402D01*
X116413156Y-126435794D01*
X116301314Y-126302965D01*
X116166177Y-126191444D01*
X116148417Y-126179689D01*
X116092150Y-126141192D01*
X116049377Y-126107837D01*
X116028928Y-126086540D01*
X116028631Y-126085867D01*
X116033021Y-126062829D01*
X116050424Y-126010543D01*
X116079032Y-125933310D01*
X116117035Y-125835432D01*
X116162626Y-125721209D01*
X116213997Y-125594942D01*
X116269338Y-125460933D01*
X116326842Y-125323482D01*
X116384699Y-125186892D01*
X116441102Y-125055463D01*
X116494242Y-124933495D01*
X116542310Y-124825291D01*
X116583499Y-124735151D01*
X116615999Y-124667377D01*
X116638003Y-124626270D01*
X116646864Y-124615474D01*
X116673940Y-124623881D01*
X116724603Y-124646428D01*
X116790117Y-124679087D01*
X116826141Y-124698180D01*
X116979132Y-124780900D01*
X117161388Y-124657625D01*
X117254425Y-124594472D01*
X117356285Y-124524973D01*
X117451738Y-124459535D01*
X117499550Y-124426583D01*
X117566795Y-124381427D01*
X117623736Y-124345643D01*
X117662946Y-124323762D01*
X117675681Y-124319137D01*
X117694217Y-124331615D01*
X117735241Y-124366448D01*
X117794775Y-124420022D01*
X117868842Y-124488717D01*
X117953465Y-124568919D01*
X118006985Y-124620414D01*
X118100619Y-124712414D01*
X118181541Y-124794701D01*
X118246477Y-124863755D01*
X118292158Y-124916056D01*
X118315311Y-124948084D01*
X118317532Y-124954584D01*
X118307224Y-124979306D01*
X118278739Y-125029295D01*
X118235237Y-125099488D01*
X118179877Y-125184825D01*
X118115820Y-125280244D01*
X118097603Y-125306846D01*
X118031227Y-125403533D01*
X117971678Y-125490583D01*
X117922284Y-125563105D01*
X117886375Y-125616207D01*
X117867281Y-125644997D01*
X117865436Y-125647974D01*
X117868195Y-125670918D01*
X117882838Y-125721364D01*
X117906813Y-125792659D01*
X117937566Y-125878153D01*
X117972544Y-125971193D01*
X118009193Y-126065126D01*
X118044961Y-126153301D01*
X118077294Y-126229066D01*
X118103638Y-126285769D01*
X118121442Y-126316757D01*
X118122707Y-126318243D01*
X118133594Y-126327099D01*
X118151982Y-126335857D01*
X118181906Y-126345423D01*
X118227403Y-126356704D01*
X118292509Y-126370607D01*
X118381261Y-126388037D01*
X118497693Y-126409902D01*
X118645842Y-126437109D01*
X118677918Y-126442959D01*
X118772986Y-126461326D01*
X118855865Y-126479295D01*
X118919230Y-126495131D01*
X118955758Y-126507100D01*
X118960656Y-126509890D01*
X118968727Y-126534628D01*
X118975287Y-126589910D01*
X118980333Y-126669311D01*
X118983859Y-126766404D01*
X118985861Y-126874762D01*
X118986336Y-126987960D01*
X118985277Y-127099572D01*
X118982682Y-127203171D01*
X118978546Y-127292332D01*
X118972863Y-127360628D01*
X118965631Y-127401634D01*
X118961271Y-127410026D01*
X118936998Y-127418492D01*
X118881726Y-127432265D01*
X118800962Y-127450150D01*
X118700212Y-127470952D01*
X118584983Y-127493477D01*
X118522202Y-127505282D01*
X118403087Y-127527549D01*
X118296865Y-127547721D01*
X118208727Y-127564785D01*
X118143866Y-127577731D01*
X118107474Y-127585545D01*
X118101484Y-127587278D01*
X118091361Y-127606810D01*
X118069962Y-127653857D01*
X118040139Y-127721697D01*
X118004745Y-127803609D01*
X117966632Y-127892872D01*
X117928653Y-127982765D01*
X117893660Y-128066565D01*
X117864506Y-128137553D01*
X117844043Y-128189006D01*
X117835123Y-128214203D01*
X117834957Y-128215304D01*
X117845069Y-128235181D01*
X117873417Y-128280923D01*
X117917023Y-128347983D01*
X117972906Y-128431816D01*
X118038087Y-128527874D01*
X118075979Y-128583050D01*
X118145025Y-128684219D01*
X118206350Y-128776070D01*
X118256963Y-128853956D01*
X118293871Y-128913231D01*
X118314082Y-128949249D01*
X118317001Y-128957323D01*
X118304453Y-128976116D01*
X118269763Y-129016243D01*
X118217363Y-129073207D01*
X118151684Y-129142515D01*
X118077156Y-129219669D01*
X117998213Y-129300175D01*
X117919283Y-129379537D01*
X117844800Y-129453260D01*
X117779194Y-129516848D01*
X117726896Y-129565806D01*
X117692339Y-129595639D01*
X117680778Y-129602758D01*
X117661954Y-129592747D01*
X117616931Y-129564622D01*
X117550087Y-129521246D01*
X117465799Y-129465482D01*
X117368444Y-129400194D01*
X117295007Y-129350454D01*
X116923967Y-129098149D01*
X116305395Y-129353145D01*
X116221575Y-129797769D01*
X116137754Y-130242393D01*
X115212306Y-130242393D01*
X115128486Y-129797769D01*
D11*
X106564180Y-138750633D02*
X107278466Y-138750633D01*
X107421323Y-138798252D01*
X107516561Y-138893490D01*
X107564180Y-139036347D01*
X107564180Y-139131585D01*
X106897514Y-137845871D02*
X107564180Y-137845871D01*
X106516561Y-138083966D02*
X107230847Y-138322061D01*
X107230847Y-137703014D01*
X106143680Y-113423333D02*
X106857966Y-113423333D01*
X107000823Y-113470952D01*
X107096061Y-113566190D01*
X107143680Y-113709047D01*
X107143680Y-113804285D01*
X106143680Y-113042380D02*
X106143680Y-112423333D01*
X106524633Y-112756666D01*
X106524633Y-112613809D01*
X106572252Y-112518571D01*
X106619871Y-112470952D01*
X106715109Y-112423333D01*
X106953204Y-112423333D01*
X107048442Y-112470952D01*
X107096061Y-112518571D01*
X107143680Y-112613809D01*
X107143680Y-112899523D01*
X107096061Y-112994761D01*
X107048442Y-113042380D01*
X103833680Y-139053333D02*
X104547966Y-139053333D01*
X104690823Y-139100952D01*
X104786061Y-139196190D01*
X104833680Y-139339047D01*
X104833680Y-139434285D01*
X103833680Y-138100952D02*
X103833680Y-138577142D01*
X104309871Y-138624761D01*
X104262252Y-138577142D01*
X104214633Y-138481904D01*
X104214633Y-138243809D01*
X104262252Y-138148571D01*
X104309871Y-138100952D01*
X104405109Y-138053333D01*
X104643204Y-138053333D01*
X104738442Y-138100952D01*
X104786061Y-138148571D01*
X104833680Y-138243809D01*
X104833680Y-138481904D01*
X104786061Y-138577142D01*
X104738442Y-138624761D01*
X128979680Y-116043033D02*
X129693966Y-116043033D01*
X129836823Y-116090652D01*
X129932061Y-116185890D01*
X129979680Y-116328747D01*
X129979680Y-116423985D01*
X128979680Y-115138271D02*
X128979680Y-115328747D01*
X129027300Y-115423985D01*
X129074919Y-115471604D01*
X129217776Y-115566842D01*
X129408252Y-115614461D01*
X129789204Y-115614461D01*
X129884442Y-115566842D01*
X129932061Y-115519223D01*
X129979680Y-115423985D01*
X129979680Y-115233509D01*
X129932061Y-115138271D01*
X129884442Y-115090652D01*
X129789204Y-115043033D01*
X129551109Y-115043033D01*
X129455871Y-115090652D01*
X129408252Y-115138271D01*
X129360633Y-115233509D01*
X129360633Y-115423985D01*
X129408252Y-115519223D01*
X129455871Y-115566842D01*
X129551109Y-115614461D01*
%LPC*%
D14*
X129781300Y-138490000D03*
X155181300Y-138490000D03*
X152641300Y-138490000D03*
X150101300Y-138490000D03*
X147561300Y-138490000D03*
X145021300Y-138490000D03*
X142481300Y-138490000D03*
X139941300Y-138490000D03*
X137401300Y-138490000D03*
X134861300Y-138490000D03*
X132321300Y-138490000D03*
X155181300Y-135950000D03*
X152641300Y-135950000D03*
X150101300Y-135950000D03*
X147561300Y-135950000D03*
X145021300Y-135950000D03*
X142481300Y-135950000D03*
X139941300Y-135950000D03*
X137401300Y-135950000D03*
X134861300Y-135950000D03*
X132321300Y-135950000D03*
X155181300Y-133410000D03*
X152641300Y-133410000D03*
X150101300Y-133410000D03*
X147561300Y-133410000D03*
X145021300Y-133410000D03*
X142481300Y-133410000D03*
X139941300Y-133410000D03*
X137401300Y-133410000D03*
X134861300Y-133410000D03*
X132321300Y-133410000D03*
X155181300Y-130870000D03*
X152641300Y-130870000D03*
X150101300Y-130870000D03*
X147561300Y-130870000D03*
X145021300Y-130870000D03*
X142481300Y-130870000D03*
X139941300Y-130870000D03*
X137401300Y-130870000D03*
X134861300Y-130870000D03*
X132321300Y-130870000D03*
X155181300Y-128330000D03*
X152641300Y-128330000D03*
X150101300Y-128330000D03*
X147561300Y-128330000D03*
X145021300Y-128330000D03*
X142481300Y-128330000D03*
X139941300Y-128330000D03*
X137401300Y-128330000D03*
X134861300Y-128330000D03*
X132321300Y-128330000D03*
X155181300Y-125790000D03*
X152641300Y-125790000D03*
X150101300Y-125790000D03*
X147561300Y-125790000D03*
X145021300Y-125790000D03*
X142481300Y-125790000D03*
X139941300Y-125790000D03*
X137401300Y-125790000D03*
X134861300Y-125790000D03*
X132321300Y-125790000D03*
X155181300Y-123250000D03*
X152641300Y-123250000D03*
X150101300Y-123250000D03*
X147561300Y-123250000D03*
X145021300Y-123250000D03*
X142481300Y-123250000D03*
X139941300Y-123250000D03*
X137401300Y-123250000D03*
X134861300Y-123250000D03*
X132321300Y-123250000D03*
X155181300Y-120710000D03*
X152641300Y-120710000D03*
X150101300Y-120710000D03*
X147561300Y-120710000D03*
X145021300Y-120710000D03*
X142481300Y-120710000D03*
X139941300Y-120710000D03*
X137401300Y-120710000D03*
X134861300Y-120710000D03*
X132321300Y-120710000D03*
X155181300Y-118170000D03*
X152641300Y-118170000D03*
X150101300Y-118170000D03*
X147561300Y-118170000D03*
X145021300Y-118170000D03*
X142481300Y-118170000D03*
X139941300Y-118170000D03*
X137401300Y-118170000D03*
X134861300Y-118170000D03*
X132321300Y-118170000D03*
X155181300Y-115630000D03*
X152641300Y-115630000D03*
X150101300Y-115630000D03*
X147561300Y-115630000D03*
X145021300Y-115630000D03*
X142481300Y-115630000D03*
X139941300Y-115630000D03*
X137401300Y-115630000D03*
X134861300Y-115630000D03*
X132321300Y-115630000D03*
X155181300Y-113090000D03*
X152641300Y-113090000D03*
X150101300Y-113090000D03*
X147561300Y-113090000D03*
X145021300Y-113090000D03*
X142481300Y-113090000D03*
X139941300Y-113090000D03*
X137401300Y-113090000D03*
X134861300Y-113090000D03*
X132321300Y-113090000D03*
X155181300Y-110550000D03*
X152641300Y-110550000D03*
X150101300Y-110550000D03*
X147561300Y-110550000D03*
X145021300Y-110550000D03*
X142481300Y-110550000D03*
X139941300Y-110550000D03*
X137401300Y-110550000D03*
X134861300Y-110550000D03*
X155181300Y-102930000D03*
X152641300Y-102930000D03*
X150101300Y-102930000D03*
X147561300Y-102930000D03*
X145021300Y-102930000D03*
X142481300Y-102930000D03*
X139941300Y-102930000D03*
X137401300Y-102930000D03*
X134861300Y-102930000D03*
X132321300Y-102930000D03*
X129781300Y-102930000D03*
X127241300Y-102930000D03*
X124701300Y-102930000D03*
X122161300Y-102930000D03*
X119621300Y-102930000D03*
X117081300Y-102930000D03*
X114541300Y-102930000D03*
X112001300Y-102930000D03*
X109461300Y-102930000D03*
X106921300Y-102930000D03*
X104381300Y-102930000D03*
X155181300Y-105470000D03*
X152641300Y-105470000D03*
X150101300Y-105470000D03*
X147561300Y-105470000D03*
X145021300Y-105470000D03*
X142481300Y-105470000D03*
X139941300Y-105470000D03*
X137401300Y-105470000D03*
X134861300Y-105470000D03*
X132321300Y-105470000D03*
X129781300Y-105470000D03*
X127241300Y-105470000D03*
X124701300Y-105470000D03*
X122161300Y-105470000D03*
X119621300Y-105470000D03*
X117081300Y-105470000D03*
X114541300Y-105470000D03*
X112001300Y-105470000D03*
X109461300Y-105470000D03*
X106921300Y-105470000D03*
X104381300Y-105470000D03*
X155181300Y-108010000D03*
X152641300Y-108010000D03*
X150101300Y-108010000D03*
X147561300Y-108010000D03*
X145021300Y-108010000D03*
X142481300Y-108010000D03*
X139941300Y-108010000D03*
X137401300Y-108010000D03*
X134861300Y-108010000D03*
X132321300Y-108010000D03*
X129781300Y-108010000D03*
X127241300Y-108010000D03*
X124701300Y-108010000D03*
X122161300Y-108010000D03*
X119621300Y-108010000D03*
X117081300Y-108010000D03*
X114541300Y-108010000D03*
X112001300Y-108010000D03*
X109461300Y-108010000D03*
X106921300Y-108010000D03*
X104381300Y-108010000D03*
X124701300Y-138490000D03*
X122161300Y-138490000D03*
X119621300Y-138490000D03*
X117081300Y-138490000D03*
X114541300Y-138490000D03*
X112001300Y-138490000D03*
X122161300Y-133410000D03*
X119621300Y-133410000D03*
X117081300Y-133410000D03*
X114541300Y-133410000D03*
X112001300Y-133410000D03*
X127241300Y-115630000D03*
X124701300Y-115630000D03*
X122161300Y-115630000D03*
X119621300Y-115630000D03*
X117081300Y-115630000D03*
X114541300Y-115630000D03*
X112001300Y-115630000D03*
X127241300Y-110550000D03*
X124701300Y-110550000D03*
X122161300Y-110550000D03*
X119621300Y-110550000D03*
X117081300Y-110550000D03*
X114541300Y-110550000D03*
X112001300Y-110550000D03*
X124701300Y-118170000D03*
X124701300Y-120710000D03*
X124701300Y-123250000D03*
X124701300Y-125790000D03*
X124701300Y-128330000D03*
X124701300Y-130870000D03*
X106921300Y-118170000D03*
X106921300Y-120710000D03*
X106921300Y-123250000D03*
X106921300Y-125790000D03*
X106921300Y-128330000D03*
X106921300Y-130870000D03*
X106921300Y-133410000D03*
X129781300Y-118170000D03*
X129781300Y-120710000D03*
X129781300Y-123250000D03*
X129781300Y-125790000D03*
X129781300Y-128330000D03*
X129781300Y-130870000D03*
X129781300Y-133410000D03*
X101841300Y-118170000D03*
X101841300Y-120710000D03*
X101841300Y-123250000D03*
X101841300Y-125790000D03*
X101841300Y-128330000D03*
X101841300Y-130870000D03*
X101841300Y-133410000D03*
D15*
X101841300Y-139255500D03*
X101841300Y-113090000D03*
D14*
X101841300Y-135950000D03*
X109461300Y-115630000D03*
X101841300Y-108010000D03*
X109461300Y-110550000D03*
X106921300Y-135950000D03*
X124701300Y-133410000D03*
X109461300Y-133410000D03*
X129781300Y-135950000D03*
X127241300Y-138490000D03*
X109461300Y-138490000D03*
X132321300Y-110550000D03*
X101841300Y-102930000D03*
X101841300Y-105470000D03*
D16*
X127241300Y-135950000D03*
X124701300Y-135950000D03*
X122161300Y-135950000D03*
X119621300Y-135950000D03*
X117081300Y-135950000D03*
X114541300Y-135950000D03*
X112001300Y-135950000D03*
D17*
X109461300Y-135950000D03*
D16*
X127241300Y-113090000D03*
X124701300Y-113090000D03*
X122161300Y-113090000D03*
X119621300Y-113090000D03*
X117081300Y-113090000D03*
X114541300Y-113090000D03*
X112001300Y-113090000D03*
D17*
X109461300Y-113090000D03*
D16*
X104381300Y-118170000D03*
X104381300Y-120710000D03*
X104381300Y-123250000D03*
X104381300Y-125790000D03*
X104381300Y-128330000D03*
X104381300Y-130870000D03*
X104381300Y-133410000D03*
D17*
X104381300Y-135950000D03*
D16*
X127241300Y-118170000D03*
X127241300Y-120710000D03*
X127241300Y-123250000D03*
X127241300Y-125790000D03*
X127241300Y-128330000D03*
X127241300Y-130870000D03*
X127241300Y-133410000D03*
D17*
X127241300Y-135950000D03*
M02*
