G04 #@! TF.GenerationSoftware,KiCad,Pcbnew,5.1.5+dfsg1-2build2*
G04 #@! TF.CreationDate,2022-07-24T21:21:58-05:00*
G04 #@! TF.ProjectId,MCU_PROTO_SPORTCAM,4d43555f-5052-44f5-944f-5f53504f5254,rev?*
G04 #@! TF.SameCoordinates,Original*
G04 #@! TF.FileFunction,Legend,Top*
G04 #@! TF.FilePolarity,Positive*
%FSLAX46Y46*%
G04 Gerber Fmt 4.6, Leading zero omitted, Abs format (unit mm)*
G04 Created by KiCad (PCBNEW 5.1.5+dfsg1-2build2) date 2022-07-24 21:21:58*
%MOMM*%
%LPD*%
G04 APERTURE LIST*
%ADD10C,0.700000*%
%ADD11C,0.150000*%
%ADD12C,2.102000*%
G04 APERTURE END LIST*
D10*
X155181300Y-129749550D02*
X155181300Y-129457450D01*
X152641300Y-129749550D02*
X152641300Y-129457450D01*
X150101300Y-129749550D02*
X150101300Y-129457450D01*
X147561300Y-129749550D02*
X147561300Y-129457450D01*
X145021300Y-129749550D02*
X145021300Y-129457450D01*
X142481300Y-129749550D02*
X142481300Y-129457450D01*
X139941300Y-129749550D02*
X139941300Y-129457450D01*
X137401300Y-129749550D02*
X137401300Y-129457450D01*
X134861300Y-129749550D02*
X134861300Y-129457450D01*
X132321300Y-129749550D02*
X132321300Y-129457450D01*
X129781300Y-129749550D02*
X129781300Y-129457450D01*
X127241300Y-129749550D02*
X127241300Y-129457450D01*
X124701300Y-129749550D02*
X124701300Y-129457450D01*
X122161300Y-129749550D02*
X122161300Y-129457450D01*
X119621300Y-129749550D02*
X119621300Y-129457450D01*
X117081300Y-129749550D02*
X117081300Y-129457450D01*
X114541300Y-129749550D02*
X114541300Y-129457450D01*
X112001300Y-129749550D02*
X112001300Y-129457450D01*
X109461300Y-129749550D02*
X109461300Y-129457450D01*
X106921300Y-129749550D02*
X106921300Y-129457450D01*
X104381300Y-129749550D02*
X104381300Y-129457450D01*
X101841300Y-129749550D02*
X101841300Y-129457450D01*
X155181300Y-127209550D02*
X155181300Y-126917450D01*
X152641300Y-127209550D02*
X152641300Y-126917450D01*
X150101300Y-127209550D02*
X150101300Y-126917450D01*
X147561300Y-127209550D02*
X147561300Y-126917450D01*
X145021300Y-127209550D02*
X145021300Y-126917450D01*
X142481300Y-127209550D02*
X142481300Y-126917450D01*
X139941300Y-127209550D02*
X139941300Y-126917450D01*
X137401300Y-127209550D02*
X137401300Y-126917450D01*
X134861300Y-127209550D02*
X134861300Y-126917450D01*
X132321300Y-127209550D02*
X132321300Y-126917450D01*
X129781300Y-127209550D02*
X129781300Y-126917450D01*
X127241300Y-127209550D02*
X127241300Y-126917450D01*
X124701300Y-127209550D02*
X124701300Y-126917450D01*
X122161300Y-127209550D02*
X122161300Y-126917450D01*
X119621300Y-127209550D02*
X119621300Y-126917450D01*
X117081300Y-127209550D02*
X117081300Y-126917450D01*
X114541300Y-127209550D02*
X114541300Y-126917450D01*
X112001300Y-127209550D02*
X112001300Y-126917450D01*
X109461300Y-127209550D02*
X109461300Y-126917450D01*
X106921300Y-127209550D02*
X106921300Y-126917450D01*
X104381300Y-127209550D02*
X104381300Y-126917450D01*
X101841300Y-127209550D02*
X101841300Y-126917450D01*
X155181300Y-124669550D02*
X155181300Y-124377450D01*
X152641300Y-124669550D02*
X152641300Y-124377450D01*
X150101300Y-124669550D02*
X150101300Y-124377450D01*
X147561300Y-124669550D02*
X147561300Y-124377450D01*
X145021300Y-124669550D02*
X145021300Y-124377450D01*
X142481300Y-124669550D02*
X142481300Y-124377450D01*
X139941300Y-124669550D02*
X139941300Y-124377450D01*
X137401300Y-124669550D02*
X137401300Y-124377450D01*
X134861300Y-124669550D02*
X134861300Y-124377450D01*
X132321300Y-124669550D02*
X132321300Y-124377450D01*
X129781300Y-124669550D02*
X129781300Y-124377450D01*
X127241300Y-124669550D02*
X127241300Y-124377450D01*
X124701300Y-124669550D02*
X124701300Y-124377450D01*
X122161300Y-124669550D02*
X122161300Y-124377450D01*
X119621300Y-124669550D02*
X119621300Y-124377450D01*
X117081300Y-124669550D02*
X117081300Y-124377450D01*
X114541300Y-124669550D02*
X114541300Y-124377450D01*
X112001300Y-124669550D02*
X112001300Y-124377450D01*
X109461300Y-124669550D02*
X109461300Y-124377450D01*
X106921300Y-124669550D02*
X106921300Y-124377450D01*
X104381300Y-124669550D02*
X104381300Y-124377450D01*
X101841300Y-124669550D02*
X101841300Y-124377450D01*
X155181300Y-122129550D02*
X155181300Y-121837450D01*
X152641300Y-122129550D02*
X152641300Y-121837450D01*
X150101300Y-122129550D02*
X150101300Y-121837450D01*
X147561300Y-122129550D02*
X147561300Y-121837450D01*
X145021300Y-122129550D02*
X145021300Y-121837450D01*
X142481300Y-122129550D02*
X142481300Y-121837450D01*
X139941300Y-122129550D02*
X139941300Y-121837450D01*
X137401300Y-122129550D02*
X137401300Y-121837450D01*
X134861300Y-122129550D02*
X134861300Y-121837450D01*
X132321300Y-122129550D02*
X132321300Y-121837450D01*
X129781300Y-122129550D02*
X129781300Y-121837450D01*
X127241300Y-122129550D02*
X127241300Y-121837450D01*
X124701300Y-122129550D02*
X124701300Y-121837450D01*
X122161300Y-122129550D02*
X122161300Y-121837450D01*
X119621300Y-122129550D02*
X119621300Y-121837450D01*
X117081300Y-122129550D02*
X117081300Y-121837450D01*
X114541300Y-122129550D02*
X114541300Y-121837450D01*
X112001300Y-122129550D02*
X112001300Y-121837450D01*
X109461300Y-122129550D02*
X109461300Y-121837450D01*
X106921300Y-122129550D02*
X106921300Y-121837450D01*
X104381300Y-122129550D02*
X104381300Y-121837450D01*
X101841300Y-122129550D02*
X101841300Y-121837450D01*
X154051000Y-138490000D02*
X153758900Y-138490000D01*
X151511000Y-138490000D02*
X151218900Y-138490000D01*
X148971000Y-138490000D02*
X148678900Y-138490000D01*
X146431000Y-138490000D02*
X146138900Y-138490000D01*
X143891000Y-138490000D02*
X143598900Y-138490000D01*
X141351000Y-138490000D02*
X141058900Y-138490000D01*
X138811000Y-138490000D02*
X138518900Y-138490000D01*
X136271000Y-138490000D02*
X135978900Y-138490000D01*
X133731000Y-138490000D02*
X133438900Y-138490000D01*
X131191000Y-138490000D02*
X130898900Y-138490000D01*
X126111000Y-138490000D02*
X125818900Y-138490000D01*
X123571000Y-138490000D02*
X123278900Y-138490000D01*
X121031000Y-138490000D02*
X120738900Y-138490000D01*
X118491000Y-138490000D02*
X118198900Y-138490000D01*
X115951000Y-138490000D02*
X115658900Y-138490000D01*
X113411000Y-138490000D02*
X113118900Y-138490000D01*
X110871000Y-138490000D02*
X110578900Y-138490000D01*
X108331000Y-138490000D02*
X108038900Y-138490000D01*
X105791000Y-138490000D02*
X105498900Y-138490000D01*
X103251000Y-138490000D02*
X102958900Y-138490000D01*
X154051000Y-135950000D02*
X153758900Y-135950000D01*
X151511000Y-135950000D02*
X151218900Y-135950000D01*
X148971000Y-135950000D02*
X148678900Y-135950000D01*
X146431000Y-135950000D02*
X146138900Y-135950000D01*
X143891000Y-135950000D02*
X143598900Y-135950000D01*
X141351000Y-135950000D02*
X141058900Y-135950000D01*
X138811000Y-135950000D02*
X138518900Y-135950000D01*
X136271000Y-135950000D02*
X135978900Y-135950000D01*
X133731000Y-135950000D02*
X133438900Y-135950000D01*
X131191000Y-135950000D02*
X130898900Y-135950000D01*
X126111000Y-135950000D02*
X125818900Y-135950000D01*
X123571000Y-135950000D02*
X123278900Y-135950000D01*
X121031000Y-135950000D02*
X120738900Y-135950000D01*
X118491000Y-135950000D02*
X118198900Y-135950000D01*
X115951000Y-135950000D02*
X115658900Y-135950000D01*
X113411000Y-135950000D02*
X113118900Y-135950000D01*
X110871000Y-135950000D02*
X110578900Y-135950000D01*
X108331000Y-135950000D02*
X108038900Y-135950000D01*
X105791000Y-135950000D02*
X105498900Y-135950000D01*
X103251000Y-135950000D02*
X102958900Y-135950000D01*
X154051000Y-133410000D02*
X153758900Y-133410000D01*
X151511000Y-133410000D02*
X151218900Y-133410000D01*
X148971000Y-133410000D02*
X148678900Y-133410000D01*
X146431000Y-133410000D02*
X146138900Y-133410000D01*
X143891000Y-133410000D02*
X143598900Y-133410000D01*
X141351000Y-133410000D02*
X141058900Y-133410000D01*
X138811000Y-133410000D02*
X138518900Y-133410000D01*
X136271000Y-133410000D02*
X135978900Y-133410000D01*
X133731000Y-133410000D02*
X133438900Y-133410000D01*
X131191000Y-133410000D02*
X130898900Y-133410000D01*
X126111000Y-133410000D02*
X125818900Y-133410000D01*
X123571000Y-133410000D02*
X123278900Y-133410000D01*
X121031000Y-133410000D02*
X120738900Y-133410000D01*
X118491000Y-133410000D02*
X118198900Y-133410000D01*
X115951000Y-133410000D02*
X115658900Y-133410000D01*
X113411000Y-133410000D02*
X113118900Y-133410000D01*
X110871000Y-133410000D02*
X110578900Y-133410000D01*
X108331000Y-133410000D02*
X108038900Y-133410000D01*
X105791000Y-133410000D02*
X105498900Y-133410000D01*
X103251000Y-133410000D02*
X102958900Y-133410000D01*
X154051000Y-118170000D02*
X153758900Y-118170000D01*
X151511000Y-118170000D02*
X151218900Y-118170000D01*
X148971000Y-118170000D02*
X148678900Y-118170000D01*
X146431000Y-118170000D02*
X146138900Y-118170000D01*
X143891000Y-118170000D02*
X143598900Y-118170000D01*
X141351000Y-118170000D02*
X141058900Y-118170000D01*
X138811000Y-118170000D02*
X138518900Y-118170000D01*
X136271000Y-118170000D02*
X135978900Y-118170000D01*
X133731000Y-118170000D02*
X133438900Y-118170000D01*
X131191000Y-118170000D02*
X130898900Y-118170000D01*
X126111000Y-118170000D02*
X125818900Y-118170000D01*
X123571000Y-118170000D02*
X123278900Y-118170000D01*
X121031000Y-118170000D02*
X120738900Y-118170000D01*
X118491000Y-118170000D02*
X118198900Y-118170000D01*
X115951000Y-118170000D02*
X115658900Y-118170000D01*
X113411000Y-118170000D02*
X113118900Y-118170000D01*
X110871000Y-118170000D02*
X110578900Y-118170000D01*
X108331000Y-118170000D02*
X108038900Y-118170000D01*
X105791000Y-118170000D02*
X105498900Y-118170000D01*
X103251000Y-118170000D02*
X102958900Y-118170000D01*
X154051000Y-115630000D02*
X153758900Y-115630000D01*
X151511000Y-115630000D02*
X151218900Y-115630000D01*
X148971000Y-115630000D02*
X148678900Y-115630000D01*
X146431000Y-115630000D02*
X146138900Y-115630000D01*
X143891000Y-115630000D02*
X143598900Y-115630000D01*
X141351000Y-115630000D02*
X141058900Y-115630000D01*
X138811000Y-115630000D02*
X138518900Y-115630000D01*
X136271000Y-115630000D02*
X135978900Y-115630000D01*
X133731000Y-115630000D02*
X133438900Y-115630000D01*
X131191000Y-115630000D02*
X130898900Y-115630000D01*
X126111000Y-115630000D02*
X125818900Y-115630000D01*
X123571000Y-115630000D02*
X123278900Y-115630000D01*
X121031000Y-115630000D02*
X120738900Y-115630000D01*
X118491000Y-115630000D02*
X118198900Y-115630000D01*
X115951000Y-115630000D02*
X115658900Y-115630000D01*
X113411000Y-115630000D02*
X113118900Y-115630000D01*
X110871000Y-115630000D02*
X110578900Y-115630000D01*
X108331000Y-115630000D02*
X108038900Y-115630000D01*
X105791000Y-115630000D02*
X105498900Y-115630000D01*
X103251000Y-115630000D02*
X102958900Y-115630000D01*
X155181300Y-111969550D02*
X155181300Y-111677450D01*
X152641300Y-111969550D02*
X152641300Y-111677450D01*
X150101300Y-111969550D02*
X150101300Y-111677450D01*
X147561300Y-111969550D02*
X147561300Y-111677450D01*
X145021300Y-111969550D02*
X145021300Y-111677450D01*
X142481300Y-111969550D02*
X142481300Y-111677450D01*
X139941300Y-111969550D02*
X139941300Y-111677450D01*
X137401300Y-111969550D02*
X137401300Y-111677450D01*
X134861300Y-111969550D02*
X134861300Y-111677450D01*
X132321300Y-111969550D02*
X132321300Y-111677450D01*
X129781300Y-111969550D02*
X129781300Y-111677450D01*
X127241300Y-111969550D02*
X127241300Y-111677450D01*
X124701300Y-111969550D02*
X124701300Y-111677450D01*
X122161300Y-111969550D02*
X122161300Y-111677450D01*
X119621300Y-111969550D02*
X119621300Y-111677450D01*
X117081300Y-111969550D02*
X117081300Y-111677450D01*
X114541300Y-111969550D02*
X114541300Y-111677450D01*
X112001300Y-111969550D02*
X112001300Y-111677450D01*
X109461300Y-111969550D02*
X109461300Y-111677450D01*
X106921300Y-111969550D02*
X106921300Y-111677450D01*
X104381300Y-111969550D02*
X104381300Y-111677450D01*
X101841300Y-111969550D02*
X101841300Y-111677450D01*
X155181300Y-106889550D02*
X155181300Y-106597450D01*
X152641300Y-106889550D02*
X152641300Y-106597450D01*
X150101300Y-106889550D02*
X150101300Y-106597450D01*
X147561300Y-106889550D02*
X147561300Y-106597450D01*
X145021300Y-106889550D02*
X145021300Y-106597450D01*
X142481300Y-106889550D02*
X142481300Y-106597450D01*
X139941300Y-106889550D02*
X139941300Y-106597450D01*
X137401300Y-106889550D02*
X137401300Y-106597450D01*
X134861300Y-106889550D02*
X134861300Y-106597450D01*
X132321300Y-106889550D02*
X132321300Y-106597450D01*
X129781300Y-106889550D02*
X129781300Y-106597450D01*
X127241300Y-106889550D02*
X127241300Y-106597450D01*
X124701300Y-106889550D02*
X124701300Y-106597450D01*
X122161300Y-106889550D02*
X122161300Y-106597450D01*
X119621300Y-106889550D02*
X119621300Y-106597450D01*
X117081300Y-106889550D02*
X117081300Y-106597450D01*
X114541300Y-106889550D02*
X114541300Y-106597450D01*
X112001300Y-106889550D02*
X112001300Y-106597450D01*
X109461300Y-106889550D02*
X109461300Y-106597450D01*
X106921300Y-106889550D02*
X106921300Y-106597450D01*
X104381300Y-106889550D02*
X104381300Y-106597450D01*
X101841300Y-106889550D02*
X101841300Y-106597450D01*
X155181300Y-104349550D02*
X155181300Y-104057450D01*
X152641300Y-104349550D02*
X152641300Y-104057450D01*
X150101300Y-104349550D02*
X150101300Y-104057450D01*
X147561300Y-104349550D02*
X147561300Y-104057450D01*
X145021300Y-104349550D02*
X145021300Y-104057450D01*
X142481300Y-104349550D02*
X142481300Y-104057450D01*
X139941300Y-104349550D02*
X139941300Y-104057450D01*
X137401300Y-104349550D02*
X137401300Y-104057450D01*
X134861300Y-104349550D02*
X134861300Y-104057450D01*
X132321300Y-104349550D02*
X132321300Y-104057450D01*
X129781300Y-104349550D02*
X129781300Y-104057450D01*
X127241300Y-104349550D02*
X127241300Y-104057450D01*
X124701300Y-104349550D02*
X124701300Y-104057450D01*
X122161300Y-104349550D02*
X122161300Y-104057450D01*
X119621300Y-104349550D02*
X119621300Y-104057450D01*
X117081300Y-104349550D02*
X117081300Y-104057450D01*
X114541300Y-104349550D02*
X114541300Y-104057450D01*
X112001300Y-104349550D02*
X112001300Y-104057450D01*
X109461300Y-104349550D02*
X109461300Y-104057450D01*
X106921300Y-104349550D02*
X106921300Y-104057450D01*
X104381300Y-104349550D02*
X104381300Y-104057450D01*
X101841300Y-104349550D02*
X101841300Y-104057450D01*
D11*
X158071144Y-129470577D02*
X157271144Y-129470577D01*
X157842573Y-129203910D01*
X157271144Y-128937243D01*
X158071144Y-128937243D01*
X157994954Y-128099148D02*
X158033049Y-128137243D01*
X158071144Y-128251529D01*
X158071144Y-128327720D01*
X158033049Y-128442005D01*
X157956859Y-128518196D01*
X157880668Y-128556291D01*
X157728287Y-128594386D01*
X157614001Y-128594386D01*
X157461620Y-128556291D01*
X157385430Y-128518196D01*
X157309240Y-128442005D01*
X157271144Y-128327720D01*
X157271144Y-128251529D01*
X157309240Y-128137243D01*
X157347335Y-128099148D01*
X157271144Y-127756291D02*
X157918763Y-127756291D01*
X157994954Y-127718196D01*
X158033049Y-127680100D01*
X158071144Y-127603910D01*
X158071144Y-127451529D01*
X158033049Y-127375339D01*
X157994954Y-127337243D01*
X157918763Y-127299148D01*
X157271144Y-127299148D01*
X158071144Y-126308672D02*
X157271144Y-126308672D01*
X157271144Y-126003910D01*
X157309240Y-125927720D01*
X157347335Y-125889624D01*
X157423525Y-125851529D01*
X157537811Y-125851529D01*
X157614001Y-125889624D01*
X157652097Y-125927720D01*
X157690192Y-126003910D01*
X157690192Y-126308672D01*
X158071144Y-125051529D02*
X157690192Y-125318196D01*
X158071144Y-125508672D02*
X157271144Y-125508672D01*
X157271144Y-125203910D01*
X157309240Y-125127720D01*
X157347335Y-125089624D01*
X157423525Y-125051529D01*
X157537811Y-125051529D01*
X157614001Y-125089624D01*
X157652097Y-125127720D01*
X157690192Y-125203910D01*
X157690192Y-125508672D01*
X157271144Y-124556291D02*
X157271144Y-124403910D01*
X157309240Y-124327720D01*
X157385430Y-124251529D01*
X157537811Y-124213434D01*
X157804478Y-124213434D01*
X157956859Y-124251529D01*
X158033049Y-124327720D01*
X158071144Y-124403910D01*
X158071144Y-124556291D01*
X158033049Y-124632481D01*
X157956859Y-124708672D01*
X157804478Y-124746767D01*
X157537811Y-124746767D01*
X157385430Y-124708672D01*
X157309240Y-124632481D01*
X157271144Y-124556291D01*
X157271144Y-123984862D02*
X157271144Y-123527720D01*
X158071144Y-123756291D02*
X157271144Y-123756291D01*
X157271144Y-123108672D02*
X157271144Y-122956291D01*
X157309240Y-122880100D01*
X157385430Y-122803910D01*
X157537811Y-122765815D01*
X157804478Y-122765815D01*
X157956859Y-122803910D01*
X158033049Y-122880100D01*
X158071144Y-122956291D01*
X158071144Y-123108672D01*
X158033049Y-123184862D01*
X157956859Y-123261053D01*
X157804478Y-123299148D01*
X157537811Y-123299148D01*
X157385430Y-123261053D01*
X157309240Y-123184862D01*
X157271144Y-123108672D01*
X158033049Y-121851529D02*
X158071144Y-121737243D01*
X158071144Y-121546767D01*
X158033049Y-121470577D01*
X157994954Y-121432481D01*
X157918763Y-121394386D01*
X157842573Y-121394386D01*
X157766382Y-121432481D01*
X157728287Y-121470577D01*
X157690192Y-121546767D01*
X157652097Y-121699148D01*
X157614001Y-121775339D01*
X157575906Y-121813434D01*
X157499716Y-121851529D01*
X157423525Y-121851529D01*
X157347335Y-121813434D01*
X157309240Y-121775339D01*
X157271144Y-121699148D01*
X157271144Y-121508672D01*
X157309240Y-121394386D01*
X158071144Y-121051529D02*
X157271144Y-121051529D01*
X157271144Y-120746767D01*
X157309240Y-120670577D01*
X157347335Y-120632481D01*
X157423525Y-120594386D01*
X157537811Y-120594386D01*
X157614001Y-120632481D01*
X157652097Y-120670577D01*
X157690192Y-120746767D01*
X157690192Y-121051529D01*
X157271144Y-120099148D02*
X157271144Y-119946767D01*
X157309240Y-119870577D01*
X157385430Y-119794386D01*
X157537811Y-119756291D01*
X157804478Y-119756291D01*
X157956859Y-119794386D01*
X158033049Y-119870577D01*
X158071144Y-119946767D01*
X158071144Y-120099148D01*
X158033049Y-120175339D01*
X157956859Y-120251529D01*
X157804478Y-120289624D01*
X157537811Y-120289624D01*
X157385430Y-120251529D01*
X157309240Y-120175339D01*
X157271144Y-120099148D01*
X158071144Y-118956291D02*
X157690192Y-119222958D01*
X158071144Y-119413434D02*
X157271144Y-119413434D01*
X157271144Y-119108672D01*
X157309240Y-119032481D01*
X157347335Y-118994386D01*
X157423525Y-118956291D01*
X157537811Y-118956291D01*
X157614001Y-118994386D01*
X157652097Y-119032481D01*
X157690192Y-119108672D01*
X157690192Y-119413434D01*
X157271144Y-118727720D02*
X157271144Y-118270577D01*
X158071144Y-118499148D02*
X157271144Y-118499148D01*
X157994954Y-117546767D02*
X158033049Y-117584862D01*
X158071144Y-117699148D01*
X158071144Y-117775339D01*
X158033049Y-117889624D01*
X157956859Y-117965815D01*
X157880668Y-118003910D01*
X157728287Y-118042005D01*
X157614001Y-118042005D01*
X157461620Y-118003910D01*
X157385430Y-117965815D01*
X157309240Y-117889624D01*
X157271144Y-117775339D01*
X157271144Y-117699148D01*
X157309240Y-117584862D01*
X157347335Y-117546767D01*
X157842573Y-117242005D02*
X157842573Y-116861053D01*
X158071144Y-117318196D02*
X157271144Y-117051529D01*
X158071144Y-116784862D01*
X158071144Y-116518196D02*
X157271144Y-116518196D01*
X157842573Y-116251529D01*
X157271144Y-115984862D01*
X158071144Y-115984862D01*
%LPC*%
D12*
X127241300Y-135950000D03*
X124701300Y-135950000D03*
X122161300Y-135950000D03*
X119621300Y-135950000D03*
X117081300Y-135950000D03*
X114541300Y-135950000D03*
X112001300Y-135950000D03*
X109461300Y-135950000D03*
X106921300Y-135950000D03*
X104381300Y-135950000D03*
X101841300Y-135950000D03*
X127241300Y-133410000D03*
X124701300Y-133410000D03*
X122161300Y-133410000D03*
X119621300Y-133410000D03*
X117081300Y-133410000D03*
X114541300Y-133410000D03*
X112001300Y-133410000D03*
X109461300Y-133410000D03*
X106921300Y-133410000D03*
X104381300Y-133410000D03*
X101841300Y-133410000D03*
X127241300Y-130870000D03*
X124701300Y-130870000D03*
X122161300Y-130870000D03*
X119621300Y-130870000D03*
X117081300Y-130870000D03*
X114541300Y-130870000D03*
X112001300Y-130870000D03*
X109461300Y-130870000D03*
X106921300Y-130870000D03*
X104381300Y-130870000D03*
X101841300Y-130870000D03*
X127241300Y-128330000D03*
X124701300Y-128330000D03*
X122161300Y-128330000D03*
X119621300Y-128330000D03*
X117081300Y-128330000D03*
X114541300Y-128330000D03*
X112001300Y-128330000D03*
X109461300Y-128330000D03*
X106921300Y-128330000D03*
X104381300Y-128330000D03*
X101841300Y-128330000D03*
X127241300Y-125790000D03*
X124701300Y-125790000D03*
X122161300Y-125790000D03*
X119621300Y-125790000D03*
X117081300Y-125790000D03*
X114541300Y-125790000D03*
X112001300Y-125790000D03*
X109461300Y-125790000D03*
X106921300Y-125790000D03*
X104381300Y-125790000D03*
X101841300Y-125790000D03*
X127241300Y-123250000D03*
X124701300Y-123250000D03*
X122161300Y-123250000D03*
X119621300Y-123250000D03*
X117081300Y-123250000D03*
X114541300Y-123250000D03*
X112001300Y-123250000D03*
X109461300Y-123250000D03*
X106921300Y-123250000D03*
X104381300Y-123250000D03*
X101841300Y-123250000D03*
X127241300Y-120710000D03*
X124701300Y-120710000D03*
X122161300Y-120710000D03*
X119621300Y-120710000D03*
X117081300Y-120710000D03*
X114541300Y-120710000D03*
X112001300Y-120710000D03*
X109461300Y-120710000D03*
X106921300Y-120710000D03*
X104381300Y-120710000D03*
X101841300Y-120710000D03*
X127241300Y-118170000D03*
X124701300Y-118170000D03*
X122161300Y-118170000D03*
X119621300Y-118170000D03*
X117081300Y-118170000D03*
X114541300Y-118170000D03*
X112001300Y-118170000D03*
X109461300Y-118170000D03*
X106921300Y-118170000D03*
X104381300Y-118170000D03*
X101841300Y-118170000D03*
X106921300Y-138490000D03*
X104381300Y-138490000D03*
X101841300Y-138490000D03*
X129781300Y-115630000D03*
X127241300Y-115630000D03*
X124701300Y-115630000D03*
X122161300Y-115630000D03*
X119621300Y-115630000D03*
X117081300Y-115630000D03*
X114541300Y-115630000D03*
X112001300Y-115630000D03*
X109461300Y-115630000D03*
X106921300Y-115630000D03*
X104381300Y-115630000D03*
X101841300Y-115630000D03*
X129781300Y-113090000D03*
X127241300Y-113090000D03*
X124701300Y-113090000D03*
X122161300Y-113090000D03*
X119621300Y-113090000D03*
X117081300Y-113090000D03*
X114541300Y-113090000D03*
X112001300Y-113090000D03*
X109461300Y-113090000D03*
X106921300Y-113090000D03*
X104381300Y-113090000D03*
X101841300Y-113090000D03*
X129781300Y-110550000D03*
X127241300Y-110550000D03*
X124701300Y-110550000D03*
X122161300Y-110550000D03*
X119621300Y-110550000D03*
X117081300Y-110550000D03*
X114541300Y-110550000D03*
X112001300Y-110550000D03*
X109461300Y-110550000D03*
X106921300Y-110550000D03*
X104381300Y-110550000D03*
X101841300Y-110550000D03*
X129781300Y-138490000D03*
X155181300Y-138490000D03*
X152641300Y-138490000D03*
X150101300Y-138490000D03*
X147561300Y-138490000D03*
X145021300Y-138490000D03*
X142481300Y-138490000D03*
X139941300Y-138490000D03*
X137401300Y-138490000D03*
X134861300Y-138490000D03*
X132321300Y-138490000D03*
X155181300Y-135950000D03*
X152641300Y-135950000D03*
X150101300Y-135950000D03*
X147561300Y-135950000D03*
X145021300Y-135950000D03*
X142481300Y-135950000D03*
X139941300Y-135950000D03*
X137401300Y-135950000D03*
X134861300Y-135950000D03*
X132321300Y-135950000D03*
X155181300Y-133410000D03*
X152641300Y-133410000D03*
X150101300Y-133410000D03*
X147561300Y-133410000D03*
X145021300Y-133410000D03*
X142481300Y-133410000D03*
X139941300Y-133410000D03*
X137401300Y-133410000D03*
X134861300Y-133410000D03*
X132321300Y-133410000D03*
X155181300Y-130870000D03*
X152641300Y-130870000D03*
X150101300Y-130870000D03*
X147561300Y-130870000D03*
X145021300Y-130870000D03*
X142481300Y-130870000D03*
X139941300Y-130870000D03*
X137401300Y-130870000D03*
X134861300Y-130870000D03*
X132321300Y-130870000D03*
X155181300Y-128330000D03*
X152641300Y-128330000D03*
X150101300Y-128330000D03*
X147561300Y-128330000D03*
X145021300Y-128330000D03*
X142481300Y-128330000D03*
X139941300Y-128330000D03*
X137401300Y-128330000D03*
X134861300Y-128330000D03*
X132321300Y-128330000D03*
X155181300Y-125790000D03*
X152641300Y-125790000D03*
X150101300Y-125790000D03*
X147561300Y-125790000D03*
X145021300Y-125790000D03*
X142481300Y-125790000D03*
X139941300Y-125790000D03*
X137401300Y-125790000D03*
X134861300Y-125790000D03*
X132321300Y-125790000D03*
X155181300Y-123250000D03*
X152641300Y-123250000D03*
X150101300Y-123250000D03*
X147561300Y-123250000D03*
X145021300Y-123250000D03*
X142481300Y-123250000D03*
X139941300Y-123250000D03*
X137401300Y-123250000D03*
X134861300Y-123250000D03*
X132321300Y-123250000D03*
X155181300Y-120710000D03*
X152641300Y-120710000D03*
X150101300Y-120710000D03*
X147561300Y-120710000D03*
X145021300Y-120710000D03*
X142481300Y-120710000D03*
X139941300Y-120710000D03*
X137401300Y-120710000D03*
X134861300Y-120710000D03*
X132321300Y-120710000D03*
X155181300Y-118170000D03*
X152641300Y-118170000D03*
X150101300Y-118170000D03*
X147561300Y-118170000D03*
X145021300Y-118170000D03*
X142481300Y-118170000D03*
X139941300Y-118170000D03*
X137401300Y-118170000D03*
X134861300Y-118170000D03*
X132321300Y-118170000D03*
X155181300Y-115630000D03*
X152641300Y-115630000D03*
X150101300Y-115630000D03*
X147561300Y-115630000D03*
X145021300Y-115630000D03*
X142481300Y-115630000D03*
X139941300Y-115630000D03*
X137401300Y-115630000D03*
X134861300Y-115630000D03*
X132321300Y-115630000D03*
X155181300Y-113090000D03*
X152641300Y-113090000D03*
X150101300Y-113090000D03*
X147561300Y-113090000D03*
X145021300Y-113090000D03*
X142481300Y-113090000D03*
X139941300Y-113090000D03*
X137401300Y-113090000D03*
X134861300Y-113090000D03*
X132321300Y-113090000D03*
X155181300Y-110550000D03*
X152641300Y-110550000D03*
X150101300Y-110550000D03*
X147561300Y-110550000D03*
X145021300Y-110550000D03*
X142481300Y-110550000D03*
X139941300Y-110550000D03*
X137401300Y-110550000D03*
X134861300Y-110550000D03*
X155181300Y-102930000D03*
X152641300Y-102930000D03*
X150101300Y-102930000D03*
X147561300Y-102930000D03*
X145021300Y-102930000D03*
X142481300Y-102930000D03*
X139941300Y-102930000D03*
X137401300Y-102930000D03*
X134861300Y-102930000D03*
X132321300Y-102930000D03*
X129781300Y-102930000D03*
X127241300Y-102930000D03*
X124701300Y-102930000D03*
X122161300Y-102930000D03*
X119621300Y-102930000D03*
X117081300Y-102930000D03*
X114541300Y-102930000D03*
X112001300Y-102930000D03*
X109461300Y-102930000D03*
X106921300Y-102930000D03*
X104381300Y-102930000D03*
X155181300Y-105470000D03*
X152641300Y-105470000D03*
X150101300Y-105470000D03*
X147561300Y-105470000D03*
X145021300Y-105470000D03*
X142481300Y-105470000D03*
X139941300Y-105470000D03*
X137401300Y-105470000D03*
X134861300Y-105470000D03*
X132321300Y-105470000D03*
X129781300Y-105470000D03*
X127241300Y-105470000D03*
X124701300Y-105470000D03*
X122161300Y-105470000D03*
X119621300Y-105470000D03*
X117081300Y-105470000D03*
X114541300Y-105470000D03*
X112001300Y-105470000D03*
X109461300Y-105470000D03*
X106921300Y-105470000D03*
X104381300Y-105470000D03*
X155181300Y-108010000D03*
X152641300Y-108010000D03*
X150101300Y-108010000D03*
X147561300Y-108010000D03*
X145021300Y-108010000D03*
X142481300Y-108010000D03*
X139941300Y-108010000D03*
X137401300Y-108010000D03*
X134861300Y-108010000D03*
X132321300Y-108010000D03*
X129781300Y-108010000D03*
X127241300Y-108010000D03*
X124701300Y-108010000D03*
X122161300Y-108010000D03*
X119621300Y-108010000D03*
X117081300Y-108010000D03*
X114541300Y-108010000D03*
X112001300Y-108010000D03*
X109461300Y-108010000D03*
X106921300Y-108010000D03*
X104381300Y-108010000D03*
X124701300Y-138490000D03*
X122161300Y-138490000D03*
X119621300Y-138490000D03*
X117081300Y-138490000D03*
X114541300Y-138490000D03*
X112001300Y-138490000D03*
X129781300Y-118170000D03*
X129781300Y-120710000D03*
X129781300Y-123250000D03*
X129781300Y-125790000D03*
X129781300Y-128330000D03*
X129781300Y-130870000D03*
X129781300Y-133410000D03*
X101841300Y-108010000D03*
X129781300Y-135950000D03*
X127241300Y-138490000D03*
X109461300Y-138490000D03*
X132321300Y-110550000D03*
X101841300Y-102930000D03*
X101841300Y-105470000D03*
M02*
