M48
; DRILL file {KiCad 5.1.5+dfsg1-2build2} date jue 10 feb 2022 23:43:24
; FORMAT={-:-/ absolute / metric / decimal}
; #@! TF.CreationDate,2022-02-10T23:43:24-05:00
; #@! TF.GenerationSoftware,Kicad,Pcbnew,5.1.5+dfsg1-2build2
; #@! TF.FileFunction,Plated,1,2,PTH
FMAT,2
METRIC
T1C0.800
T2C1.000
T3C1.200
%
G90
G05
T1
X174.5Y-128.31
X174.5Y-130.85
T2
X113.0Y-123.23
X115.54Y-123.23
X118.08Y-123.23
X120.62Y-123.23
X123.16Y-123.23
X125.7Y-123.23
X128.24Y-123.23
X130.78Y-123.23
X133.32Y-123.23
X135.86Y-123.23
X138.4Y-123.23
X140.94Y-123.23
X143.48Y-123.23
X146.02Y-123.23
X148.56Y-123.23
X151.1Y-123.23
X153.64Y-123.23
X156.18Y-123.23
X158.72Y-123.23
X161.26Y-123.23
X113.0Y-110.53
X115.54Y-110.53
X118.08Y-110.53
X120.62Y-110.53
X123.16Y-110.53
X125.7Y-110.53
X128.24Y-110.53
X130.78Y-110.53
X133.32Y-110.53
X135.86Y-110.53
X138.4Y-110.53
X140.94Y-110.53
X143.48Y-110.53
X146.02Y-110.53
X148.56Y-110.53
X151.1Y-110.53
X153.64Y-110.53
X156.18Y-110.53
X158.72Y-110.53
X161.26Y-110.53
X113.0Y-128.31
X115.54Y-128.31
X118.08Y-128.31
X120.62Y-128.31
X123.16Y-128.31
X125.7Y-128.31
X128.24Y-128.31
X130.78Y-128.31
X133.32Y-128.31
X135.86Y-128.31
X138.4Y-128.31
X140.94Y-128.31
X143.48Y-128.31
X146.02Y-128.31
X148.56Y-128.31
X151.1Y-128.31
X153.64Y-128.31
X156.18Y-128.31
X158.72Y-128.31
X161.26Y-128.31
X113.0Y-125.77
X115.54Y-125.77
X118.08Y-125.77
X120.62Y-125.77
X123.16Y-125.77
X125.7Y-125.77
X128.24Y-125.77
X130.78Y-125.77
X133.32Y-125.77
X135.86Y-125.77
X138.4Y-125.77
X140.94Y-125.77
X143.48Y-125.77
X146.02Y-125.77
X148.56Y-125.77
X151.1Y-125.77
X153.64Y-125.77
X156.18Y-125.77
X158.72Y-125.77
X161.26Y-125.77
X113.0Y-105.45
X115.54Y-105.45
X118.08Y-105.45
X120.62Y-105.45
X123.16Y-105.45
X125.7Y-105.45
X128.24Y-105.45
X130.78Y-105.45
X133.32Y-105.45
X135.86Y-105.45
X138.4Y-105.45
X140.94Y-105.45
X143.48Y-105.45
X146.02Y-105.45
X148.56Y-105.45
X151.1Y-105.45
X153.64Y-105.45
X156.18Y-105.45
X158.72Y-105.45
X161.26Y-105.45
X113.0Y-133.39
X115.54Y-133.39
X118.08Y-133.39
X120.62Y-133.39
X123.16Y-133.39
X125.7Y-133.39
X128.24Y-133.39
X130.78Y-133.39
X133.32Y-133.39
X135.86Y-133.39
X138.4Y-133.39
X140.94Y-133.39
X143.48Y-133.39
X146.02Y-133.39
X148.56Y-133.39
X151.1Y-133.39
X153.64Y-133.39
X156.18Y-133.39
X158.72Y-133.39
X161.26Y-133.39
X113.0Y-130.85
X115.54Y-130.85
X118.08Y-130.85
X120.62Y-130.85
X123.16Y-130.85
X125.7Y-130.85
X128.24Y-130.85
X130.78Y-130.85
X133.32Y-130.85
X135.86Y-130.85
X138.4Y-130.85
X140.94Y-130.85
X143.48Y-130.85
X146.02Y-130.85
X148.56Y-130.85
X151.1Y-130.85
X153.64Y-130.85
X156.18Y-130.85
X158.72Y-130.85
X161.26Y-130.85
X113.0Y-107.99
X115.54Y-107.99
X118.08Y-107.99
X120.62Y-107.99
X123.16Y-107.99
X125.7Y-107.99
X128.24Y-107.99
X130.78Y-107.99
X133.32Y-107.99
X135.86Y-107.99
X138.4Y-107.99
X140.94Y-107.99
X143.48Y-107.99
X146.02Y-107.99
X148.56Y-107.99
X151.1Y-107.99
X153.64Y-107.99
X156.18Y-107.99
X158.72Y-107.99
X161.26Y-107.99
T3
X148.56Y-120.69
X125.7Y-138.47
X115.54Y-115.61
X168.88Y-133.39
X158.72Y-156.25
X161.26Y-102.91
X125.7Y-143.55
X128.24Y-135.93
X163.8Y-146.09
X153.64Y-148.63
X153.64Y-115.61
X135.86Y-141.01
X153.64Y-120.69
X148.56Y-113.07
X174.5Y-143.5
X158.72Y-141.01
X120.62Y-115.61
X166.34Y-123.23
X130.78Y-143.55
X153.64Y-138.47
X113.0Y-148.63
X148.56Y-135.93
X130.78Y-113.07
X148.56Y-148.63
X166.34Y-115.61
X130.78Y-102.91
X118.08Y-146.09
X130.78Y-118.15
X130.78Y-153.71
X174.5Y-147.0
X180.0Y-111.0
X180.0Y-114.5
X180.0Y-118.0
X180.0Y-121.5
X135.86Y-143.55
X158.72Y-138.47
X125.7Y-120.69
X146.02Y-153.71
X113.0Y-151.17
X153.64Y-135.93
X135.86Y-102.91
X166.34Y-138.47
X146.02Y-146.09
X158.72Y-118.15
X153.64Y-156.25
X130.78Y-120.69
X138.4Y-148.63
X146.02Y-151.17
X158.72Y-135.93
X130.78Y-138.47
X133.32Y-135.93
X158.72Y-115.61
X113.0Y-135.93
X161.26Y-148.63
X113.0Y-156.25
X140.94Y-141.01
X158.72Y-120.69
X153.64Y-113.07
X113.0Y-143.55
X135.86Y-138.47
X125.7Y-115.61
X168.88Y-115.61
X138.4Y-135.93
X113.0Y-113.07
X148.56Y-156.25
X135.86Y-113.07
X168.88Y-130.85
X123.16Y-146.09
X146.02Y-141.01
X135.86Y-118.15
X163.8Y-113.07
X168.88Y-113.07
X130.78Y-115.61
X151.1Y-151.17
X166.34Y-135.93
X140.94Y-143.55
X113.0Y-141.01
X113.0Y-153.71
X140.94Y-102.91
X161.26Y-146.09
X128.24Y-146.09
X140.94Y-118.15
X138.4Y-156.25
X151.1Y-153.71
X151.1Y-146.09
X113.0Y-120.69
X118.08Y-141.01
X135.86Y-120.69
X125.7Y-102.91
X113.0Y-138.47
X146.02Y-102.91
X163.8Y-118.15
X156.18Y-153.71
X174.5Y-140.0
X113.0Y-118.15
X128.24Y-151.17
X118.08Y-138.47
X115.54Y-135.93
X158.72Y-113.07
X161.26Y-151.17
X130.78Y-156.25
X118.08Y-143.55
X140.94Y-138.47
X118.08Y-113.07
X128.24Y-141.01
X140.94Y-113.07
X130.78Y-148.63
X151.1Y-141.01
X158.72Y-148.63
X146.02Y-138.47
X135.86Y-115.61
X135.86Y-151.17
X146.02Y-143.55
X123.16Y-118.15
X166.34Y-125.77
X166.34Y-141.01
X133.32Y-146.09
X146.02Y-118.15
X174.5Y-136.5
X156.18Y-146.09
X118.08Y-120.69
X140.94Y-115.61
X166.34Y-130.85
X148.56Y-151.17
X123.16Y-141.01
X140.94Y-120.69
X120.62Y-102.91
X163.8Y-133.39
X143.48Y-156.25
X153.64Y-102.91
X138.4Y-146.09
X161.26Y-156.25
X146.02Y-115.61
X156.18Y-143.55
X146.02Y-120.69
X118.08Y-118.15
X123.16Y-138.47
X120.62Y-135.93
X113.0Y-115.61
X158.72Y-102.91
X123.16Y-143.55
X174.5Y-118.0
X151.1Y-148.63
X151.1Y-115.61
X123.16Y-113.07
X161.26Y-143.55
X133.32Y-141.01
X146.02Y-113.07
X156.18Y-141.01
X118.08Y-115.61
X128.24Y-143.55
X151.1Y-138.47
X180.0Y-136.5
X180.0Y-140.0
X180.0Y-143.5
X180.0Y-147.0
X151.1Y-143.55
X146.02Y-135.93
X128.24Y-113.07
X146.02Y-148.63
X128.24Y-102.91
X166.34Y-113.07
X135.86Y-153.71
X115.54Y-146.09
X128.24Y-118.15
X151.1Y-118.15
X156.18Y-156.25
X174.5Y-121.5
X156.18Y-138.47
X123.16Y-120.69
X153.64Y-153.71
X115.54Y-148.63
X151.1Y-135.93
X115.54Y-102.91
X143.48Y-153.71
X125.7Y-135.93
X143.48Y-146.09
X156.18Y-118.15
X166.34Y-133.39
X135.86Y-148.63
X151.1Y-120.69
X168.88Y-120.69
X128.24Y-138.47
X168.88Y-125.77
X166.34Y-143.55
X148.56Y-102.91
X130.78Y-135.93
X156.18Y-115.61
X138.4Y-141.01
X156.18Y-120.69
X151.1Y-113.07
X151.1Y-156.25
X166.34Y-128.31
X161.26Y-141.01
X123.16Y-115.61
X168.88Y-141.01
X133.32Y-143.55
X135.86Y-135.93
X163.8Y-128.31
X133.32Y-113.07
X133.32Y-102.91
X120.62Y-146.09
X133.32Y-118.15
X166.34Y-120.69
X166.34Y-118.15
X158.72Y-151.17
X138.4Y-143.55
X161.26Y-138.47
X128.24Y-120.69
X148.56Y-153.71
X115.54Y-151.17
X156.18Y-135.93
X138.4Y-102.91
X148.56Y-146.09
X161.26Y-118.15
X146.02Y-156.25
X143.48Y-151.17
X163.8Y-138.47
X115.54Y-141.01
X133.32Y-120.69
X140.94Y-148.63
X161.26Y-135.93
X143.48Y-102.91
X174.5Y-111.0
X133.32Y-138.47
X163.8Y-125.77
X138.4Y-153.71
X161.26Y-115.61
X115.54Y-156.25
X143.48Y-141.01
X161.26Y-120.69
X156.18Y-113.07
X115.54Y-143.55
X138.4Y-138.47
X128.24Y-115.61
X163.8Y-120.69
X140.94Y-135.93
X115.54Y-113.07
X125.7Y-141.01
X138.4Y-113.07
X125.7Y-146.09
X148.56Y-141.01
X138.4Y-118.15
X163.8Y-143.55
X156.18Y-148.63
X163.8Y-115.61
X143.48Y-138.47
X133.32Y-115.61
X153.64Y-151.17
X135.86Y-156.25
X138.4Y-151.17
X143.48Y-143.55
X115.54Y-153.71
X120.62Y-118.15
X130.78Y-146.09
X143.48Y-118.15
X163.8Y-135.93
X140.94Y-151.17
X153.64Y-146.09
X115.54Y-120.69
X120.62Y-141.01
X138.4Y-120.69
X123.16Y-102.91
X168.88Y-146.09
X115.54Y-138.47
X151.1Y-102.91
X158.72Y-153.71
X153.64Y-143.55
X143.48Y-120.69
X115.54Y-118.15
X128.24Y-148.63
X130.78Y-151.17
X120.62Y-138.47
X118.08Y-135.93
X161.26Y-113.07
X128.24Y-153.71
X133.32Y-156.25
X120.62Y-143.55
X133.32Y-151.17
X120.62Y-113.07
X168.88Y-118.15
X158.72Y-143.55
X130.78Y-141.01
X143.48Y-113.07
X113.0Y-102.91
X166.34Y-146.09
X133.32Y-148.63
X128.24Y-156.25
X153.64Y-141.01
X148.56Y-138.47
X138.4Y-115.61
X168.88Y-135.93
X148.56Y-143.55
X143.48Y-135.93
X125.7Y-113.07
X143.48Y-148.63
X163.8Y-130.85
X133.32Y-153.71
X158.72Y-146.09
X113.0Y-146.09
X125.7Y-118.15
X135.86Y-146.09
X148.56Y-118.15
X120.62Y-120.69
X143.48Y-115.61
X168.88Y-123.23
X118.08Y-102.91
X156.18Y-151.17
X174.5Y-114.5
X163.8Y-123.23
X140.94Y-153.71
X168.88Y-143.55
X156.18Y-102.91
X123.16Y-135.93
X140.94Y-146.09
X153.64Y-118.15
X168.88Y-128.31
X140.94Y-156.25
X161.26Y-153.71
X163.8Y-141.01
X148.56Y-115.61
X168.88Y-138.47
T0
M30
