G04 #@! TF.GenerationSoftware,KiCad,Pcbnew,5.1.5+dfsg1-2build2*
G04 #@! TF.CreationDate,2022-02-10T23:43:27-05:00*
G04 #@! TF.ProjectId,MCU_PROTO_100x68mm,4d43555f-5052-44f5-944f-5f3130307836,rev?*
G04 #@! TF.SameCoordinates,Original*
G04 #@! TF.FileFunction,Copper,L1,Top*
G04 #@! TF.FilePolarity,Positive*
%FSLAX46Y46*%
G04 Gerber Fmt 4.6, Leading zero omitted, Abs format (unit mm)*
G04 Created by KiCad (PCBNEW 5.1.5+dfsg1-2build2) date 2022-02-10 23:43:27*
%MOMM*%
%LPD*%
G04 APERTURE LIST*
%ADD10O,1.700000X1.700000*%
%ADD11R,1.700000X1.700000*%
%ADD12C,2.000000*%
%ADD13C,2.400000*%
%ADD14R,2.400000X2.400000*%
%ADD15C,1.998980*%
%ADD16C,0.500000*%
%ADD17C,0.254000*%
G04 APERTURE END LIST*
D10*
X161260000Y-110530000D03*
X158720000Y-110530000D03*
X156180000Y-110530000D03*
X153640000Y-110530000D03*
X151100000Y-110530000D03*
X148560000Y-110530000D03*
X146020000Y-110530000D03*
X143480000Y-110530000D03*
X140940000Y-110530000D03*
X138400000Y-110530000D03*
X135860000Y-110530000D03*
X133320000Y-110530000D03*
X130780000Y-110530000D03*
X128240000Y-110530000D03*
X125700000Y-110530000D03*
X123160000Y-110530000D03*
X120620000Y-110530000D03*
X118080000Y-110530000D03*
X115540000Y-110530000D03*
D11*
X113000000Y-110530000D03*
D10*
X161260000Y-107990000D03*
X158720000Y-107990000D03*
X156180000Y-107990000D03*
X153640000Y-107990000D03*
X151100000Y-107990000D03*
X148560000Y-107990000D03*
X146020000Y-107990000D03*
X143480000Y-107990000D03*
X140940000Y-107990000D03*
X138400000Y-107990000D03*
X135860000Y-107990000D03*
X133320000Y-107990000D03*
X130780000Y-107990000D03*
X128240000Y-107990000D03*
X125700000Y-107990000D03*
X123160000Y-107990000D03*
X120620000Y-107990000D03*
X118080000Y-107990000D03*
X115540000Y-107990000D03*
D11*
X113000000Y-107990000D03*
D12*
X174500000Y-121500000D03*
X174500000Y-118000000D03*
X174500000Y-114500000D03*
X174500000Y-111000000D03*
X168880000Y-133390000D03*
X166340000Y-133390000D03*
X163800000Y-133390000D03*
X168880000Y-130850000D03*
X166340000Y-130850000D03*
X163800000Y-130850000D03*
X168880000Y-128310000D03*
X166340000Y-128310000D03*
X163800000Y-128310000D03*
X168880000Y-125770000D03*
X166340000Y-125770000D03*
X163800000Y-125770000D03*
X168880000Y-123230000D03*
X166340000Y-123230000D03*
X163800000Y-123230000D03*
X168880000Y-120690000D03*
X166340000Y-120690000D03*
X163800000Y-120690000D03*
X168880000Y-118150000D03*
X166340000Y-118150000D03*
X163800000Y-118150000D03*
X168880000Y-115610000D03*
X166340000Y-115610000D03*
X163800000Y-115610000D03*
X168880000Y-113070000D03*
X166340000Y-113070000D03*
X163800000Y-113070000D03*
X174500000Y-147000000D03*
X168880000Y-146090000D03*
X166340000Y-146090000D03*
X163800000Y-146090000D03*
X174500000Y-143500000D03*
X168880000Y-143550000D03*
X166340000Y-143550000D03*
X163800000Y-143550000D03*
X174500000Y-140000000D03*
X168880000Y-141010000D03*
X166340000Y-141010000D03*
X163800000Y-141010000D03*
X174500000Y-136500000D03*
X168880000Y-138470000D03*
X166340000Y-138470000D03*
X163800000Y-138470000D03*
X168880000Y-135930000D03*
X166340000Y-135930000D03*
X163800000Y-135930000D03*
X161260000Y-156250000D03*
X158720000Y-156250000D03*
X156180000Y-156250000D03*
X153640000Y-156250000D03*
X151100000Y-156250000D03*
X148560000Y-156250000D03*
X146020000Y-156250000D03*
X143480000Y-156250000D03*
X140940000Y-156250000D03*
X138400000Y-156250000D03*
X135860000Y-156250000D03*
X133320000Y-156250000D03*
X130780000Y-156250000D03*
X128240000Y-156250000D03*
X161260000Y-153710000D03*
X158720000Y-153710000D03*
X156180000Y-153710000D03*
X153640000Y-153710000D03*
X151100000Y-153710000D03*
X148560000Y-153710000D03*
X146020000Y-153710000D03*
X143480000Y-153710000D03*
X140940000Y-153710000D03*
X138400000Y-153710000D03*
X135860000Y-153710000D03*
X133320000Y-153710000D03*
X130780000Y-153710000D03*
X128240000Y-153710000D03*
X161260000Y-151170000D03*
X158720000Y-151170000D03*
X156180000Y-151170000D03*
X153640000Y-151170000D03*
X151100000Y-151170000D03*
X148560000Y-151170000D03*
X146020000Y-151170000D03*
X143480000Y-151170000D03*
X140940000Y-151170000D03*
X138400000Y-151170000D03*
X135860000Y-151170000D03*
X133320000Y-151170000D03*
X130780000Y-151170000D03*
X128240000Y-151170000D03*
X161260000Y-148630000D03*
X158720000Y-148630000D03*
X156180000Y-148630000D03*
X153640000Y-148630000D03*
X151100000Y-148630000D03*
X148560000Y-148630000D03*
X146020000Y-148630000D03*
X143480000Y-148630000D03*
X140940000Y-148630000D03*
X138400000Y-148630000D03*
X135860000Y-148630000D03*
X133320000Y-148630000D03*
X130780000Y-148630000D03*
X128240000Y-148630000D03*
X115540000Y-156250000D03*
X113000000Y-156250000D03*
X115540000Y-153710000D03*
X113000000Y-153710000D03*
X115540000Y-151170000D03*
X113000000Y-151170000D03*
X115540000Y-148630000D03*
X113000000Y-148630000D03*
D13*
X180000000Y-136500000D03*
X180000000Y-140000000D03*
X180000000Y-143500000D03*
D14*
X180000000Y-147000000D03*
D13*
X180000000Y-111000000D03*
X180000000Y-114500000D03*
X180000000Y-118000000D03*
D14*
X180000000Y-121500000D03*
D12*
X161260000Y-146090000D03*
X158720000Y-146090000D03*
X156180000Y-146090000D03*
X153640000Y-146090000D03*
X151100000Y-146090000D03*
X148560000Y-146090000D03*
X146020000Y-146090000D03*
X143480000Y-146090000D03*
X140940000Y-146090000D03*
X138400000Y-146090000D03*
X135860000Y-146090000D03*
X133320000Y-146090000D03*
X130780000Y-146090000D03*
X128240000Y-146090000D03*
X125700000Y-146090000D03*
X123160000Y-146090000D03*
X120620000Y-146090000D03*
X118080000Y-146090000D03*
X115540000Y-146090000D03*
X113000000Y-146090000D03*
X161260000Y-143550000D03*
X158720000Y-143550000D03*
X156180000Y-143550000D03*
X153640000Y-143550000D03*
X151100000Y-143550000D03*
X148560000Y-143550000D03*
X146020000Y-143550000D03*
X143480000Y-143550000D03*
X140940000Y-143550000D03*
X138400000Y-143550000D03*
X135860000Y-143550000D03*
X133320000Y-143550000D03*
X130780000Y-143550000D03*
X128240000Y-143550000D03*
X125700000Y-143550000D03*
X123160000Y-143550000D03*
X120620000Y-143550000D03*
X118080000Y-143550000D03*
X115540000Y-143550000D03*
X113000000Y-143550000D03*
X161260000Y-141010000D03*
X158720000Y-141010000D03*
X156180000Y-141010000D03*
X153640000Y-141010000D03*
X151100000Y-141010000D03*
X148560000Y-141010000D03*
X146020000Y-141010000D03*
X143480000Y-141010000D03*
X140940000Y-141010000D03*
X138400000Y-141010000D03*
X135860000Y-141010000D03*
X133320000Y-141010000D03*
X130780000Y-141010000D03*
X128240000Y-141010000D03*
X125700000Y-141010000D03*
X123160000Y-141010000D03*
X120620000Y-141010000D03*
X118080000Y-141010000D03*
X115540000Y-141010000D03*
X113000000Y-141010000D03*
X161260000Y-138470000D03*
X158720000Y-138470000D03*
X156180000Y-138470000D03*
X153640000Y-138470000D03*
X151100000Y-138470000D03*
X148560000Y-138470000D03*
X146020000Y-138470000D03*
X143480000Y-138470000D03*
X140940000Y-138470000D03*
X138400000Y-138470000D03*
X135860000Y-138470000D03*
X133320000Y-138470000D03*
X130780000Y-138470000D03*
X128240000Y-138470000D03*
X125700000Y-138470000D03*
X123160000Y-138470000D03*
X120620000Y-138470000D03*
X118080000Y-138470000D03*
X115540000Y-138470000D03*
X113000000Y-138470000D03*
X161260000Y-135930000D03*
X158720000Y-135930000D03*
X156180000Y-135930000D03*
X153640000Y-135930000D03*
X151100000Y-135930000D03*
X148560000Y-135930000D03*
X146020000Y-135930000D03*
X143480000Y-135930000D03*
X140940000Y-135930000D03*
X138400000Y-135930000D03*
X135860000Y-135930000D03*
X133320000Y-135930000D03*
X130780000Y-135930000D03*
X128240000Y-135930000D03*
X125700000Y-135930000D03*
X123160000Y-135930000D03*
X120620000Y-135930000D03*
X118080000Y-135930000D03*
X115540000Y-135930000D03*
X161260000Y-120690000D03*
X158720000Y-120690000D03*
X156180000Y-120690000D03*
X153640000Y-120690000D03*
X151100000Y-120690000D03*
X148560000Y-120690000D03*
X146020000Y-120690000D03*
X143480000Y-120690000D03*
X140940000Y-120690000D03*
X138400000Y-120690000D03*
X135860000Y-120690000D03*
X133320000Y-120690000D03*
X130780000Y-120690000D03*
X128240000Y-120690000D03*
X125700000Y-120690000D03*
X123160000Y-120690000D03*
X120620000Y-120690000D03*
X118080000Y-120690000D03*
X115540000Y-120690000D03*
X113000000Y-120690000D03*
X161260000Y-118150000D03*
X158720000Y-118150000D03*
X156180000Y-118150000D03*
X153640000Y-118150000D03*
X151100000Y-118150000D03*
X148560000Y-118150000D03*
X146020000Y-118150000D03*
X143480000Y-118150000D03*
X140940000Y-118150000D03*
X138400000Y-118150000D03*
X135860000Y-118150000D03*
X133320000Y-118150000D03*
X130780000Y-118150000D03*
X128240000Y-118150000D03*
X125700000Y-118150000D03*
X123160000Y-118150000D03*
X120620000Y-118150000D03*
X118080000Y-118150000D03*
X115540000Y-118150000D03*
X113000000Y-118150000D03*
X161260000Y-115610000D03*
X158720000Y-115610000D03*
X156180000Y-115610000D03*
X153640000Y-115610000D03*
X151100000Y-115610000D03*
X148560000Y-115610000D03*
X146020000Y-115610000D03*
X143480000Y-115610000D03*
X140940000Y-115610000D03*
X138400000Y-115610000D03*
X135860000Y-115610000D03*
X133320000Y-115610000D03*
X130780000Y-115610000D03*
X128240000Y-115610000D03*
X125700000Y-115610000D03*
X123160000Y-115610000D03*
X120620000Y-115610000D03*
X118080000Y-115610000D03*
X115540000Y-115610000D03*
X113000000Y-115610000D03*
X161260000Y-113070000D03*
X158720000Y-113070000D03*
X156180000Y-113070000D03*
X153640000Y-113070000D03*
X151100000Y-113070000D03*
X148560000Y-113070000D03*
X146020000Y-113070000D03*
X143480000Y-113070000D03*
X140940000Y-113070000D03*
X138400000Y-113070000D03*
X135860000Y-113070000D03*
X133320000Y-113070000D03*
X130780000Y-113070000D03*
X128240000Y-113070000D03*
X125700000Y-113070000D03*
X123160000Y-113070000D03*
X120620000Y-113070000D03*
X118080000Y-113070000D03*
X115540000Y-113070000D03*
X113000000Y-113070000D03*
X113000000Y-135930000D03*
X113000000Y-102910000D03*
X115540000Y-102910000D03*
X118080000Y-102910000D03*
X120620000Y-102910000D03*
X123160000Y-102910000D03*
X125700000Y-102910000D03*
D10*
X161260000Y-133390000D03*
X158720000Y-133390000D03*
X156180000Y-133390000D03*
X153640000Y-133390000D03*
X151100000Y-133390000D03*
X148560000Y-133390000D03*
X146020000Y-133390000D03*
X143480000Y-133390000D03*
X140940000Y-133390000D03*
X138400000Y-133390000D03*
X135860000Y-133390000D03*
X133320000Y-133390000D03*
X130780000Y-133390000D03*
X128240000Y-133390000D03*
X125700000Y-133390000D03*
X123160000Y-133390000D03*
X120620000Y-133390000D03*
X118080000Y-133390000D03*
X115540000Y-133390000D03*
D11*
X113000000Y-133390000D03*
D10*
X161260000Y-130850000D03*
X158720000Y-130850000D03*
X156180000Y-130850000D03*
X153640000Y-130850000D03*
X151100000Y-130850000D03*
X148560000Y-130850000D03*
X146020000Y-130850000D03*
X143480000Y-130850000D03*
X140940000Y-130850000D03*
X138400000Y-130850000D03*
X135860000Y-130850000D03*
X133320000Y-130850000D03*
X130780000Y-130850000D03*
X128240000Y-130850000D03*
X125700000Y-130850000D03*
X123160000Y-130850000D03*
X120620000Y-130850000D03*
X118080000Y-130850000D03*
X115540000Y-130850000D03*
D11*
X113000000Y-130850000D03*
D10*
X161260000Y-128310000D03*
X158720000Y-128310000D03*
X156180000Y-128310000D03*
X153640000Y-128310000D03*
X151100000Y-128310000D03*
X148560000Y-128310000D03*
X146020000Y-128310000D03*
X143480000Y-128310000D03*
X140940000Y-128310000D03*
X138400000Y-128310000D03*
X135860000Y-128310000D03*
X133320000Y-128310000D03*
X130780000Y-128310000D03*
X128240000Y-128310000D03*
X125700000Y-128310000D03*
X123160000Y-128310000D03*
X120620000Y-128310000D03*
X118080000Y-128310000D03*
X115540000Y-128310000D03*
D11*
X113000000Y-128310000D03*
D10*
X161260000Y-123230000D03*
X158720000Y-123230000D03*
X156180000Y-123230000D03*
X153640000Y-123230000D03*
X151100000Y-123230000D03*
X148560000Y-123230000D03*
X146020000Y-123230000D03*
X143480000Y-123230000D03*
X140940000Y-123230000D03*
X138400000Y-123230000D03*
X135860000Y-123230000D03*
X133320000Y-123230000D03*
X130780000Y-123230000D03*
X128240000Y-123230000D03*
X125700000Y-123230000D03*
X123160000Y-123230000D03*
X120620000Y-123230000D03*
X118080000Y-123230000D03*
X115540000Y-123230000D03*
D11*
X113000000Y-123230000D03*
D10*
X161260000Y-105450000D03*
X158720000Y-105450000D03*
X156180000Y-105450000D03*
X153640000Y-105450000D03*
X151100000Y-105450000D03*
X148560000Y-105450000D03*
X146020000Y-105450000D03*
X143480000Y-105450000D03*
X140940000Y-105450000D03*
X138400000Y-105450000D03*
X135860000Y-105450000D03*
X133320000Y-105450000D03*
X130780000Y-105450000D03*
X128240000Y-105450000D03*
X125700000Y-105450000D03*
X123160000Y-105450000D03*
X120620000Y-105450000D03*
X118080000Y-105450000D03*
X115540000Y-105450000D03*
D11*
X113000000Y-105450000D03*
D10*
X161260000Y-125770000D03*
X158720000Y-125770000D03*
X156180000Y-125770000D03*
X153640000Y-125770000D03*
X151100000Y-125770000D03*
X148560000Y-125770000D03*
X146020000Y-125770000D03*
X143480000Y-125770000D03*
X140940000Y-125770000D03*
X138400000Y-125770000D03*
X135860000Y-125770000D03*
X133320000Y-125770000D03*
X130780000Y-125770000D03*
X128240000Y-125770000D03*
X125700000Y-125770000D03*
X123160000Y-125770000D03*
X120620000Y-125770000D03*
X118080000Y-125770000D03*
X115540000Y-125770000D03*
D11*
X113000000Y-125770000D03*
D15*
X174500000Y-130850000D03*
X174500000Y-128310000D03*
D12*
X148560000Y-102910000D03*
X161260000Y-102910000D03*
X158720000Y-102910000D03*
X156180000Y-102910000D03*
X153640000Y-102910000D03*
X151100000Y-102910000D03*
X146020000Y-102910000D03*
X143480000Y-102910000D03*
X140940000Y-102910000D03*
X138400000Y-102910000D03*
X135860000Y-102910000D03*
X133320000Y-102910000D03*
X130780000Y-102910000D03*
X128240000Y-102910000D03*
D16*
X113000000Y-115610000D02*
X115540000Y-115610000D01*
X113000000Y-118150000D02*
X115540000Y-118150000D01*
X153640000Y-113070000D02*
X153640000Y-111434400D01*
X115540000Y-118150000D02*
X118080000Y-118150000D01*
X115540000Y-115610000D02*
X118080000Y-115610000D01*
X118080000Y-118150000D02*
X120620000Y-118150000D01*
X118080000Y-115610000D02*
X120620000Y-115610000D01*
X120620000Y-118150000D02*
X123160000Y-118150000D01*
X120620000Y-115610000D02*
X123160000Y-115610000D01*
X123160000Y-118150000D02*
X125700000Y-118150000D01*
X123160000Y-115610000D02*
X125700000Y-115610000D01*
X125700000Y-118150000D02*
X128240000Y-118150000D01*
X125700000Y-115610000D02*
X128240000Y-115610000D01*
X128240000Y-118150000D02*
X130780000Y-118150000D01*
X128240000Y-115610000D02*
X130780000Y-115610000D01*
X130780000Y-118150000D02*
X133320000Y-118150000D01*
X130780000Y-115610000D02*
X133320000Y-115610000D01*
X133320000Y-118150000D02*
X135860000Y-118150000D01*
X133320000Y-115610000D02*
X135860000Y-115610000D01*
X135860000Y-118150000D02*
X138400000Y-118150000D01*
X135860000Y-115610000D02*
X138400000Y-115610000D01*
X138400000Y-118150000D02*
X140940000Y-118150000D01*
X138400000Y-115610000D02*
X140940000Y-115610000D01*
X140940000Y-118150000D02*
X143480000Y-118150000D01*
X140940000Y-115610000D02*
X143480000Y-115610000D01*
X143480000Y-118150000D02*
X146020000Y-118150000D01*
X143480000Y-115610000D02*
X146020000Y-115610000D01*
X146020000Y-118150000D02*
X148560000Y-118150000D01*
X146020000Y-115610000D02*
X148560000Y-115610000D01*
X148560000Y-118150000D02*
X151100000Y-118150000D01*
X148560000Y-115610000D02*
X151100000Y-115610000D01*
X151100000Y-118150000D02*
X153640000Y-118150000D01*
X151100000Y-115610000D02*
X153640000Y-115610000D01*
X153640000Y-118150000D02*
X156180000Y-118150000D01*
X153640000Y-115610000D02*
X156180000Y-115610000D01*
X156180000Y-118150000D02*
X158720000Y-118150000D01*
X156180000Y-115610000D02*
X158720000Y-115610000D01*
X158720000Y-118150000D02*
X161260000Y-118150000D01*
X158720000Y-115610000D02*
X161260000Y-115610000D01*
X161260000Y-118150000D02*
X163800000Y-118150000D01*
X161260000Y-115610000D02*
X163800000Y-115610000D01*
X163800000Y-115610000D02*
X166340000Y-115610000D01*
X166340000Y-115610000D02*
X168880000Y-115610000D01*
X163800000Y-118150000D02*
X166340000Y-118150000D01*
X166340000Y-118150000D02*
X168880000Y-118150000D01*
X163800000Y-135930000D02*
X163800000Y-133390000D01*
X163800000Y-133390000D02*
X163800000Y-130850000D01*
X163800000Y-130850000D02*
X163800000Y-128310000D01*
X163800000Y-128310000D02*
X163800000Y-125770000D01*
X163800000Y-123230000D02*
X163800000Y-120690000D01*
X166340000Y-120690000D02*
X166340000Y-123230000D01*
X166340000Y-123230000D02*
X166340000Y-125770000D01*
X166340000Y-125770000D02*
X166340000Y-128310000D01*
X166340000Y-128310000D02*
X166340000Y-130850000D01*
X166340000Y-130850000D02*
X166340000Y-133390000D01*
X166340000Y-135930000D02*
X166340000Y-133390000D01*
X168880000Y-135930000D02*
X168880000Y-133390000D01*
X168880000Y-133390000D02*
X168880000Y-130850000D01*
X168880000Y-130850000D02*
X168880000Y-128310000D01*
X168880000Y-128310000D02*
X168880000Y-125770000D01*
X168880000Y-125770000D02*
X168880000Y-123230000D01*
X168880000Y-123230000D02*
X168880000Y-120690000D01*
X163800000Y-125770000D02*
X163800000Y-124252200D01*
X163800000Y-124252200D02*
X163800000Y-123230000D01*
X113000000Y-138470000D02*
X115540000Y-138470000D01*
X115540000Y-138470000D02*
X118080000Y-138470000D01*
X118080000Y-138470000D02*
X120620000Y-138470000D01*
X120620000Y-138470000D02*
X123160000Y-138470000D01*
X123160000Y-138470000D02*
X125700000Y-138470000D01*
X125700000Y-138470000D02*
X128240000Y-138470000D01*
X128240000Y-138470000D02*
X130780000Y-138470000D01*
X130780000Y-138470000D02*
X133320000Y-138470000D01*
X133320000Y-138470000D02*
X135860000Y-138470000D01*
X135860000Y-138470000D02*
X138400000Y-138470000D01*
X138400000Y-138470000D02*
X140940000Y-138470000D01*
X140940000Y-138470000D02*
X143480000Y-138470000D01*
X143480000Y-138470000D02*
X146020000Y-138470000D01*
X146020000Y-138470000D02*
X148560000Y-138470000D01*
X148560000Y-138470000D02*
X151100000Y-138470000D01*
X151100000Y-138470000D02*
X153640000Y-138470000D01*
X153640000Y-138470000D02*
X156180000Y-138470000D01*
X156180000Y-138470000D02*
X158720000Y-138470000D01*
X158720000Y-138470000D02*
X161260000Y-138470000D01*
X161260000Y-138470000D02*
X162688900Y-138470000D01*
X163800000Y-138470000D02*
X166340000Y-138470000D01*
X166340000Y-138470000D02*
X168880000Y-138470000D01*
X168880000Y-141010000D02*
X166340000Y-141010000D01*
X166340000Y-141010000D02*
X163800000Y-141010000D01*
X163800000Y-141010000D02*
X161260000Y-141010000D01*
X161260000Y-141010000D02*
X158720000Y-141010000D01*
X158720000Y-141010000D02*
X156180000Y-141010000D01*
X156180000Y-141010000D02*
X153640000Y-141010000D01*
X153640000Y-141010000D02*
X151100000Y-141010000D01*
X151100000Y-141010000D02*
X148560000Y-141010000D01*
X148560000Y-141010000D02*
X146020000Y-141010000D01*
X146020000Y-141010000D02*
X143480000Y-141010000D01*
X143480000Y-141010000D02*
X140940000Y-141010000D01*
X140940000Y-141010000D02*
X138400000Y-141010000D01*
X138400000Y-141010000D02*
X135860000Y-141010000D01*
X135860000Y-141010000D02*
X133320000Y-141010000D01*
X133320000Y-141010000D02*
X130780000Y-141010000D01*
X130780000Y-141010000D02*
X128240000Y-141010000D01*
X128240000Y-141010000D02*
X125700000Y-141010000D01*
X125700000Y-141010000D02*
X123160000Y-141010000D01*
X123160000Y-141010000D02*
X120620000Y-141010000D01*
X120620000Y-141010000D02*
X118080000Y-141010000D01*
X118080000Y-141010000D02*
X115540000Y-141010000D01*
X115540000Y-141010000D02*
X113000000Y-141010000D01*
X113000000Y-143550000D02*
X113000000Y-146090000D01*
X115540000Y-143550000D02*
X115540000Y-146090000D01*
X118080000Y-143550000D02*
X118080000Y-146090000D01*
X120620000Y-143550000D02*
X120620000Y-146090000D01*
X123160000Y-143550000D02*
X123160000Y-146090000D01*
X125700000Y-143550000D02*
X125700000Y-146090000D01*
X128240000Y-143550000D02*
X128240000Y-146090000D01*
X130780000Y-143550000D02*
X130780000Y-146090000D01*
X133320000Y-143550000D02*
X133320000Y-146090000D01*
X135860000Y-143550000D02*
X135860000Y-146090000D01*
X138400000Y-143550000D02*
X138400000Y-146090000D01*
X140940000Y-143550000D02*
X140940000Y-146090000D01*
X143480000Y-143550000D02*
X143480000Y-146090000D01*
X146020000Y-143550000D02*
X146020000Y-146090000D01*
X148560000Y-143550000D02*
X148560000Y-146090000D01*
X151100000Y-143550000D02*
X151100000Y-146090000D01*
X153640000Y-143550000D02*
X153640000Y-146090000D01*
X156180000Y-143550000D02*
X156180000Y-146090000D01*
X158720000Y-143550000D02*
X158720000Y-146090000D01*
X161260000Y-143550000D02*
X161260000Y-146090000D01*
X163800000Y-143550000D02*
X163800000Y-146090000D01*
X166340000Y-143550000D02*
X166340000Y-146090000D01*
X168880000Y-143550000D02*
X168880000Y-146090000D01*
X113000000Y-148630000D02*
X115540000Y-148630000D01*
X113000000Y-151170000D02*
X115540000Y-151170000D01*
X128240000Y-148630000D02*
X130780000Y-148630000D01*
X128240000Y-151170000D02*
X130780000Y-151170000D01*
X130780000Y-148630000D02*
X133320000Y-148630000D01*
X130780000Y-151170000D02*
X133320000Y-151170000D01*
X133320000Y-148630000D02*
X135860000Y-148630000D01*
X133320000Y-151170000D02*
X135860000Y-151170000D01*
X135860000Y-148630000D02*
X138400000Y-148630000D01*
X135860000Y-151170000D02*
X138400000Y-151170000D01*
X138400000Y-148630000D02*
X140940000Y-148630000D01*
X138400000Y-151170000D02*
X140940000Y-151170000D01*
X140940000Y-148630000D02*
X143480000Y-148630000D01*
X140940000Y-151170000D02*
X143480000Y-151170000D01*
X143480000Y-151170000D02*
X146020000Y-151170000D01*
X143480000Y-148630000D02*
X146020000Y-148630000D01*
X146020000Y-148630000D02*
X148560000Y-148630000D01*
X146020000Y-151170000D02*
X148560000Y-151170000D01*
X148560000Y-151170000D02*
X151100000Y-151170000D01*
X148560000Y-148630000D02*
X151100000Y-148630000D01*
X151100000Y-151170000D02*
X153640000Y-151170000D01*
X151100000Y-148630000D02*
X153640000Y-148630000D01*
X153640000Y-148630000D02*
X156180000Y-148630000D01*
X153640000Y-151170000D02*
X156180000Y-151170000D01*
X156180000Y-151170000D02*
X158720000Y-151170000D01*
X156180000Y-148630000D02*
X158720000Y-148630000D01*
X158720000Y-148630000D02*
X161260000Y-148630000D01*
X158720000Y-151170000D02*
X161260000Y-151170000D01*
X113000000Y-156250000D02*
X113000000Y-153710000D01*
X115540000Y-156250000D02*
X115540000Y-153710000D01*
X128240000Y-156250000D02*
X128240000Y-153710000D01*
X130780000Y-156250000D02*
X130780000Y-153710000D01*
X133320000Y-156250000D02*
X133320000Y-153710000D01*
X135860000Y-156250000D02*
X135860000Y-153710000D01*
X138400000Y-156250000D02*
X138400000Y-153710000D01*
X140940000Y-156250000D02*
X140940000Y-153710000D01*
X143480000Y-156250000D02*
X143480000Y-153710000D01*
X146020000Y-156250000D02*
X146020000Y-153710000D01*
X148560000Y-156250000D02*
X148560000Y-153710000D01*
X151100000Y-156250000D02*
X151100000Y-153710000D01*
X153640000Y-156250000D02*
X153640000Y-153710000D01*
X156180000Y-156250000D02*
X156180000Y-153710000D01*
X158720000Y-156250000D02*
X158720000Y-153710000D01*
X161260000Y-156250000D02*
X161260000Y-153710000D01*
X163800000Y-113070000D02*
X166340000Y-113070000D01*
X166340000Y-113070000D02*
X168880000Y-113070000D01*
X179392300Y-140000000D02*
X179616100Y-139776200D01*
X174500000Y-140000000D02*
X179392300Y-140000000D01*
X179511800Y-143500000D02*
X179946300Y-143065500D01*
X174500000Y-143500000D02*
X179511800Y-143500000D01*
X179918400Y-147000000D02*
X179946300Y-147027900D01*
X174500000Y-147000000D02*
X179918400Y-147000000D01*
X179295400Y-114500000D02*
X179463700Y-114668300D01*
X174500000Y-114500000D02*
X179295400Y-114500000D01*
X179337600Y-121500000D02*
X179616100Y-121221500D01*
X174500000Y-121500000D02*
X179337600Y-121500000D01*
X180001400Y-118000000D02*
X180136800Y-118135400D01*
X174500000Y-118000000D02*
X180001400Y-118000000D01*
X130780000Y-105465400D02*
X130721100Y-105524300D01*
X130780000Y-102910000D02*
X130780000Y-105465400D01*
X130780000Y-105450000D02*
X130780000Y-107332300D01*
X128240000Y-105265700D02*
X128346200Y-105371900D01*
X128240000Y-102910000D02*
X128240000Y-105265700D01*
X128240000Y-105450000D02*
X128240000Y-107408500D01*
X125700000Y-104897400D02*
X125818900Y-105016300D01*
X125700000Y-102910000D02*
X125700000Y-104897400D01*
X125700000Y-105450000D02*
X125700000Y-107234200D01*
X123160000Y-103242900D02*
X123291600Y-103111300D01*
X123160000Y-105450000D02*
X123160000Y-103242900D01*
X123160000Y-105450000D02*
X123160000Y-107395800D01*
X120620000Y-105164100D02*
X120827800Y-105371900D01*
X120620000Y-102910000D02*
X120620000Y-105164100D01*
X120620000Y-106011500D02*
X120789700Y-105841800D01*
X120620000Y-105450000D02*
X120620000Y-107564400D01*
X118080000Y-103065100D02*
X118224300Y-102920800D01*
X118080000Y-105450000D02*
X118080000Y-103065100D01*
X118080000Y-105450000D02*
X118080000Y-107624400D01*
X115540000Y-103284500D02*
X115443000Y-103187500D01*
X115540000Y-105450000D02*
X115540000Y-103284500D01*
X115540000Y-105450000D02*
X115540000Y-107259600D01*
X113000000Y-104922800D02*
X113017300Y-104940100D01*
X113000000Y-102910000D02*
X113000000Y-104922800D01*
X113000000Y-107990000D02*
X113000000Y-105808300D01*
X130780000Y-111561400D02*
X131013200Y-111328200D01*
X130780000Y-113070000D02*
X130780000Y-111561400D01*
X128240000Y-111158500D02*
X128168400Y-111086900D01*
X128240000Y-113070000D02*
X128240000Y-111158500D01*
X125700000Y-111158500D02*
X125628400Y-111086900D01*
X125700000Y-113070000D02*
X125700000Y-111158500D01*
X123160000Y-111095000D02*
X123126500Y-111061500D01*
X123160000Y-113070000D02*
X123160000Y-111095000D01*
X120620000Y-110850200D02*
X120650000Y-110820200D01*
X120620000Y-111933200D02*
X120624600Y-111937800D01*
X120620000Y-111409000D02*
X120620000Y-111933200D01*
X120620000Y-113070000D02*
X120620000Y-111409000D01*
X120620000Y-111409000D02*
X120620000Y-110850200D01*
X118080000Y-111256600D02*
X118211600Y-111125000D01*
X118080000Y-113070000D02*
X118080000Y-111256600D01*
X115540000Y-111155000D02*
X115544600Y-111150400D01*
X115540000Y-113070000D02*
X115540000Y-111155000D01*
X113000000Y-111256600D02*
X113068100Y-111188500D01*
X113000000Y-113070000D02*
X113000000Y-111256600D01*
X130780000Y-121543600D02*
X130898900Y-121424700D01*
X130780000Y-123230000D02*
X130780000Y-121543600D01*
X128240000Y-121886500D02*
X128498600Y-121627900D01*
X128240000Y-123230000D02*
X128240000Y-121886500D01*
X125700000Y-121597900D02*
X125641100Y-121539000D01*
X125700000Y-123230000D02*
X125700000Y-121597900D01*
X123160000Y-121581700D02*
X123164600Y-121577100D01*
X123160000Y-123230000D02*
X123160000Y-121581700D01*
X120620000Y-121759500D02*
X120713500Y-121666000D01*
X120620000Y-123230000D02*
X120620000Y-121759500D01*
X118080000Y-121683300D02*
X118186200Y-121577100D01*
X118080000Y-123230000D02*
X118080000Y-121683300D01*
X115540000Y-122855200D02*
X115684300Y-122999500D01*
X115540000Y-121619800D02*
X115582700Y-121577100D01*
X115540000Y-123230000D02*
X115540000Y-121619800D01*
X113000000Y-122966000D02*
X112915700Y-123050300D01*
X113000000Y-121759500D02*
X113220500Y-121539000D01*
X113000000Y-123230000D02*
X113000000Y-121759500D01*
X113000000Y-125770000D02*
X113000000Y-124197900D01*
X135860000Y-105160600D02*
X135851900Y-105168700D01*
X135860000Y-102910000D02*
X135860000Y-105160600D01*
X135860000Y-105450000D02*
X135860000Y-107332300D01*
X133320000Y-105189500D02*
X133337300Y-105206800D01*
X133320000Y-102910000D02*
X133320000Y-105189500D01*
X133320000Y-105450000D02*
X133320000Y-107446600D01*
X161260000Y-105363800D02*
X161048700Y-105575100D01*
X161260000Y-102910000D02*
X161260000Y-105363800D01*
X161260000Y-105450000D02*
X161260000Y-107319600D01*
X158720000Y-105008200D02*
X158432500Y-105295700D01*
X158720000Y-102910000D02*
X158720000Y-105008200D01*
X158720000Y-105450000D02*
X158720000Y-107192600D01*
X156180000Y-105655900D02*
X156146500Y-105689400D01*
X156180000Y-102910000D02*
X156180000Y-105655900D01*
X156180000Y-105450000D02*
X156180000Y-107383100D01*
X153640000Y-105224100D02*
X153568400Y-105295700D01*
X153640000Y-102910000D02*
X153640000Y-105224100D01*
X153640000Y-105450000D02*
X153640000Y-107192600D01*
X151100000Y-105126000D02*
X151345900Y-105371900D01*
X151100000Y-102910000D02*
X151100000Y-105126000D01*
X151100000Y-105450000D02*
X151100000Y-107294200D01*
X148560000Y-104868500D02*
X148526500Y-104902000D01*
X148560000Y-102910000D02*
X148560000Y-104868500D01*
X148560000Y-105450000D02*
X148560000Y-107395800D01*
X146020000Y-105503500D02*
X145948400Y-105575100D01*
X146020000Y-102910000D02*
X146020000Y-105503500D01*
X146020000Y-105450000D02*
X146020000Y-107221500D01*
X143480000Y-105147900D02*
X143294100Y-105333800D01*
X143480000Y-102910000D02*
X143480000Y-105147900D01*
X143480000Y-105450000D02*
X143480000Y-107192600D01*
X140940000Y-105274900D02*
X140843000Y-105371900D01*
X140940000Y-102910000D02*
X140940000Y-105274900D01*
X140940000Y-105450000D02*
X140940000Y-107243400D01*
X138400000Y-105380000D02*
X138430000Y-105410000D01*
X138400000Y-102910000D02*
X138400000Y-105380000D01*
X138400000Y-105450000D02*
X138400000Y-107395800D01*
X161260000Y-111294700D02*
X161353500Y-111201200D01*
X161260000Y-113070000D02*
X161260000Y-111294700D01*
X158720000Y-111282000D02*
X158800800Y-111201200D01*
X158720000Y-113070000D02*
X158720000Y-111282000D01*
X156180000Y-111091500D02*
X156248100Y-111023400D01*
X156180000Y-113070000D02*
X156180000Y-111091500D01*
X151100000Y-111396300D02*
X151269700Y-111226600D01*
X151100000Y-113070000D02*
X151100000Y-111396300D01*
X148560000Y-111332800D02*
X148640800Y-111252000D01*
X148560000Y-113070000D02*
X148560000Y-111332800D01*
X146020000Y-111332800D02*
X146265900Y-111086900D01*
X146020000Y-113070000D02*
X146020000Y-111332800D01*
X143480000Y-111247400D02*
X143459200Y-111226600D01*
X143480000Y-113070000D02*
X143480000Y-111247400D01*
X140940000Y-111104200D02*
X140982700Y-111061500D01*
X140940000Y-113070000D02*
X140940000Y-111104200D01*
X138400000Y-111269300D02*
X138645900Y-111023400D01*
X138400000Y-113070000D02*
X138400000Y-111269300D01*
X135860000Y-111294700D02*
X135902700Y-111252000D01*
X135860000Y-113070000D02*
X135860000Y-111294700D01*
X133320000Y-111323600D02*
X133223000Y-111226600D01*
X133320000Y-113070000D02*
X133320000Y-111323600D01*
X161260000Y-121734100D02*
X161328100Y-121666000D01*
X161260000Y-123230000D02*
X161260000Y-121734100D01*
X158720000Y-121708700D02*
X158762700Y-121666000D01*
X158720000Y-123230000D02*
X158720000Y-121708700D01*
X156180000Y-121848400D02*
X156362400Y-121666000D01*
X156180000Y-123230000D02*
X156180000Y-121848400D01*
X153640000Y-123230000D02*
X153640000Y-121823000D01*
X151100000Y-121594400D02*
X151193500Y-121500900D01*
X151100000Y-123230000D02*
X151100000Y-121594400D01*
X148560000Y-121585200D02*
X148475700Y-121500900D01*
X148560000Y-123230000D02*
X148560000Y-121585200D01*
X146020000Y-121467400D02*
X146062700Y-121424700D01*
X146020000Y-123230000D02*
X146020000Y-121467400D01*
X143480000Y-121648700D02*
X143459200Y-121627900D01*
X143480000Y-123230000D02*
X143480000Y-121648700D01*
X140940000Y-121315000D02*
X140995400Y-121259600D01*
X140940000Y-123230000D02*
X140940000Y-121315000D01*
X138400000Y-123230000D02*
X138400000Y-121937300D01*
X135860000Y-123230000D02*
X135860000Y-121759500D01*
X133320000Y-123230000D02*
X133320000Y-121810300D01*
X161260000Y-125770000D02*
X161260000Y-124248700D01*
X158720000Y-125770000D02*
X158720000Y-124058200D01*
X156180000Y-125770000D02*
X156180000Y-124109000D01*
X153640000Y-125770000D02*
X153640000Y-124096300D01*
X151100000Y-125770000D02*
X151100000Y-123956600D01*
X148560000Y-125770000D02*
X148560000Y-123994700D01*
X146020000Y-125770000D02*
X146020000Y-124125200D01*
X143480000Y-125770000D02*
X143480000Y-124147100D01*
X140940000Y-125770000D02*
X140940000Y-124248700D01*
X138400000Y-125770000D02*
X138400000Y-124023600D01*
X135860000Y-125770000D02*
X135860000Y-124070900D01*
X133320000Y-125770000D02*
X133320000Y-123956600D01*
X130780000Y-125770000D02*
X130780000Y-124261400D01*
X128240000Y-125770000D02*
X128240000Y-124147100D01*
X125700000Y-125770000D02*
X125700000Y-123982000D01*
X123160000Y-125770000D02*
X123160000Y-124109000D01*
X120620000Y-125770000D02*
X120620000Y-124083600D01*
X118080000Y-125770000D02*
X118080000Y-124248700D01*
X115540000Y-125770000D02*
X115540000Y-123905800D01*
X113000000Y-128310000D02*
X113000000Y-126703300D01*
X161260000Y-128310000D02*
X161260000Y-126407700D01*
X158720000Y-128310000D02*
X158720000Y-126864900D01*
X156180000Y-128310000D02*
X156180000Y-126636300D01*
X153640000Y-128310000D02*
X153640000Y-126661700D01*
X151100000Y-128310000D02*
X151100000Y-126525500D01*
X148560000Y-128310000D02*
X148560000Y-126610900D01*
X146020000Y-128310000D02*
X146020000Y-126576300D01*
X143480000Y-128310000D02*
X143480000Y-126598200D01*
X140940000Y-128310000D02*
X140940000Y-126610900D01*
X138400000Y-128310000D02*
X138400000Y-126572800D01*
X135860000Y-128310000D02*
X135860000Y-126449300D01*
X133320000Y-128310000D02*
X133320000Y-126639800D01*
X130780000Y-128310000D02*
X130780000Y-126864900D01*
X128240000Y-128310000D02*
X128240000Y-126763300D01*
X125700000Y-128310000D02*
X125700000Y-126792200D01*
X123160000Y-128310000D02*
X123160000Y-126636300D01*
X120620000Y-128310000D02*
X120620000Y-126649000D01*
X118080000Y-128310000D02*
X118080000Y-126661700D01*
X115540000Y-128310000D02*
X115540000Y-126804900D01*
X113000000Y-134192800D02*
X113093500Y-134099300D01*
X113000000Y-135930000D02*
X113000000Y-134192800D01*
X113000000Y-133390000D02*
X113000000Y-131944900D01*
X179402200Y-111000000D02*
X179654200Y-111252000D01*
X174500000Y-111000000D02*
X179402200Y-111000000D01*
X179540300Y-136500000D02*
X179946300Y-136906000D01*
X174500000Y-136500000D02*
X179540300Y-136500000D01*
X161260000Y-130850000D02*
X161260000Y-129290600D01*
X158648400Y-131394200D02*
X158686500Y-131356100D01*
X158648400Y-132511800D02*
X158648400Y-131394200D01*
X158720000Y-130850000D02*
X158720000Y-129354100D01*
X156180000Y-130850000D02*
X156180000Y-129125500D01*
X153640000Y-130850000D02*
X153640000Y-129027400D01*
X151100000Y-130850000D02*
X151100000Y-129294100D01*
X148560000Y-130850000D02*
X148560000Y-128836900D01*
X146020000Y-130850000D02*
X146020000Y-128833400D01*
X143480000Y-130850000D02*
X143480000Y-128922300D01*
X140940000Y-130850000D02*
X140940000Y-128935000D01*
X138400000Y-130850000D02*
X138400000Y-129112800D01*
X135860000Y-130850000D02*
X135860000Y-128900400D01*
X133320000Y-130850000D02*
X133320000Y-129167100D01*
X130780000Y-130850000D02*
X130780000Y-129062000D01*
X128240000Y-130850000D02*
X128240000Y-129036600D01*
X125700000Y-130850000D02*
X125700000Y-129230600D01*
X123160000Y-130850000D02*
X123160000Y-129366800D01*
X120620000Y-130850000D02*
X120620000Y-129062000D01*
X118080000Y-130850000D02*
X118080000Y-129116300D01*
X115540000Y-130850000D02*
X115540000Y-129163600D01*
X113000000Y-130850000D02*
X113000000Y-129040100D01*
X161260000Y-134053100D02*
X161290000Y-134023100D01*
X161260000Y-135930000D02*
X161260000Y-134053100D01*
X161260000Y-133390000D02*
X161260000Y-131665500D01*
X158720000Y-134209000D02*
X158572200Y-134061200D01*
X158720000Y-135930000D02*
X158720000Y-134209000D01*
X156180000Y-134310600D02*
X156006800Y-134137400D01*
X156180000Y-135930000D02*
X156180000Y-134310600D01*
X156180000Y-133390000D02*
X156180000Y-131525800D01*
X153640000Y-134091200D02*
X153670000Y-134061200D01*
X153640000Y-133390000D02*
X153640000Y-131475000D01*
X153640000Y-134891300D02*
X153640000Y-133390000D01*
X153640000Y-135930000D02*
X153640000Y-134891300D01*
X153640000Y-134891300D02*
X153640000Y-134091200D01*
X151100000Y-134247100D02*
X151066500Y-134213600D01*
X151100000Y-135930000D02*
X151100000Y-134247100D01*
X151100000Y-133390000D02*
X151100000Y-131729000D01*
X148560000Y-134307100D02*
X148653500Y-134213600D01*
X148560000Y-135930000D02*
X148560000Y-134307100D01*
X148560000Y-133390000D02*
X148560000Y-131665500D01*
X146020000Y-134167400D02*
X146088100Y-134099300D01*
X146020000Y-135930000D02*
X146020000Y-134167400D01*
X146020000Y-133390000D02*
X146020000Y-131589300D01*
X143480000Y-134027700D02*
X143484600Y-134023100D01*
X143480000Y-135930000D02*
X143480000Y-134027700D01*
X143480000Y-133390000D02*
X143480000Y-131767100D01*
X140940000Y-134167400D02*
X141084300Y-134023100D01*
X140940000Y-135930000D02*
X140940000Y-134167400D01*
X140940000Y-133390000D02*
X140940000Y-131779800D01*
X138400000Y-134103900D02*
X138480800Y-134023100D01*
X138400000Y-135930000D02*
X138400000Y-134103900D01*
X138400000Y-133390000D02*
X138400000Y-131703600D01*
X135860000Y-134383300D02*
X136067800Y-134175500D01*
X135860000Y-135930000D02*
X135860000Y-134383300D01*
X135860000Y-133390000D02*
X135860000Y-131640100D01*
X133320000Y-134319800D02*
X133578600Y-134061200D01*
X133320000Y-135930000D02*
X133320000Y-134319800D01*
X133320000Y-133390000D02*
X133320000Y-131690900D01*
X130780000Y-134256300D02*
X130975100Y-134061200D01*
X130780000Y-135930000D02*
X130780000Y-134256300D01*
X130780000Y-133390000D02*
X130780000Y-131589300D01*
X128240000Y-134345200D02*
X128524000Y-134061200D01*
X128240000Y-135930000D02*
X128240000Y-134345200D01*
X128240000Y-133390000D02*
X128240000Y-131487700D01*
X125700000Y-134002300D02*
X125958600Y-133743700D01*
X125700000Y-135930000D02*
X125700000Y-134002300D01*
X125700000Y-133390000D02*
X125700000Y-131513100D01*
X123160000Y-134205500D02*
X123393200Y-133972300D01*
X123160000Y-135930000D02*
X123160000Y-134205500D01*
X123160000Y-133390000D02*
X123160000Y-131729000D01*
X120620000Y-134065800D02*
X120789700Y-133896100D01*
X120620000Y-135930000D02*
X120620000Y-134065800D01*
X120620000Y-133390000D02*
X120620000Y-131652800D01*
X118080000Y-134167400D02*
X118110000Y-134137400D01*
X118080000Y-135930000D02*
X118080000Y-134167400D01*
X118080000Y-133390000D02*
X118080000Y-131580100D01*
X115540000Y-134018500D02*
X115455700Y-133934200D01*
X115540000Y-135930000D02*
X115540000Y-134018500D01*
X115540000Y-133390000D02*
X115540000Y-131614700D01*
D17*
G36*
X179362984Y-100679588D02*
G01*
X179364937Y-100710625D01*
X179522331Y-101956531D01*
X179522331Y-101956533D01*
X179537862Y-102037949D01*
X179850170Y-103254306D01*
X179873985Y-103327601D01*
X179875782Y-103333132D01*
X180338074Y-104500750D01*
X180338076Y-104500756D01*
X180352677Y-104531783D01*
X180373366Y-104575750D01*
X180373367Y-104575751D01*
X180978352Y-105676213D01*
X180978358Y-105676226D01*
X181003310Y-105715543D01*
X181022770Y-105746207D01*
X181022776Y-105746214D01*
X181760917Y-106762179D01*
X181813749Y-106826042D01*
X181813757Y-106826049D01*
X182673402Y-107741478D01*
X182673409Y-107741487D01*
X182733829Y-107798225D01*
X183701438Y-108598701D01*
X183701447Y-108598709D01*
X183768501Y-108647426D01*
X184828810Y-109320319D01*
X184828817Y-109320324D01*
X184901449Y-109360253D01*
X186037739Y-109894951D01*
X186114803Y-109925463D01*
X186114818Y-109925467D01*
X187309136Y-110313524D01*
X187309150Y-110313530D01*
X187369426Y-110329006D01*
X187389429Y-110334142D01*
X187389432Y-110334142D01*
X188622993Y-110569456D01*
X188622996Y-110569457D01*
X188705226Y-110579845D01*
X189340000Y-110619782D01*
X189340001Y-147361133D01*
X189320412Y-147362984D01*
X189289375Y-147364937D01*
X188043467Y-147522331D01*
X187962052Y-147537862D01*
X186745694Y-147850170D01*
X186666867Y-147875782D01*
X186666865Y-147875783D01*
X185499245Y-148338076D01*
X185424250Y-148373366D01*
X185424238Y-148373373D01*
X184323781Y-148978355D01*
X184323775Y-148978358D01*
X184300434Y-148993171D01*
X184253793Y-149022770D01*
X184253786Y-149022776D01*
X183237833Y-149760909D01*
X183237822Y-149760916D01*
X183173959Y-149813749D01*
X182258522Y-150673402D01*
X182258513Y-150673409D01*
X182201775Y-150733829D01*
X181401291Y-151701447D01*
X181352573Y-151768501D01*
X181352567Y-151768513D01*
X180679684Y-152828806D01*
X180679676Y-152828817D01*
X180639747Y-152901449D01*
X180105049Y-154037740D01*
X180074537Y-154114803D01*
X180074533Y-154114818D01*
X179686476Y-155309136D01*
X179686470Y-155309150D01*
X179665858Y-155389429D01*
X179430544Y-156622993D01*
X179430543Y-156622996D01*
X179420155Y-156705226D01*
X179380218Y-157340000D01*
X162482239Y-157340000D01*
X162529987Y-157292252D01*
X162708918Y-157024463D01*
X162832168Y-156726912D01*
X162895000Y-156411033D01*
X162895000Y-156088967D01*
X162832168Y-155773088D01*
X162708918Y-155475537D01*
X162529987Y-155207748D01*
X162302252Y-154980013D01*
X162302233Y-154980000D01*
X162302252Y-154979987D01*
X162529987Y-154752252D01*
X162708918Y-154484463D01*
X162832168Y-154186912D01*
X162895000Y-153871033D01*
X162895000Y-153548967D01*
X162832168Y-153233088D01*
X162708918Y-152935537D01*
X162529987Y-152667748D01*
X162302252Y-152440013D01*
X162302233Y-152440000D01*
X162302252Y-152439987D01*
X162529987Y-152212252D01*
X162708918Y-151944463D01*
X162773014Y-151789721D01*
X165365000Y-151789721D01*
X165365000Y-152210279D01*
X165447047Y-152622756D01*
X165607988Y-153011302D01*
X165841637Y-153360983D01*
X166139017Y-153658363D01*
X166488698Y-153892012D01*
X166877244Y-154052953D01*
X167289721Y-154135000D01*
X167710279Y-154135000D01*
X168122756Y-154052953D01*
X168511302Y-153892012D01*
X168860983Y-153658363D01*
X169158363Y-153360983D01*
X169392012Y-153011302D01*
X169552953Y-152622756D01*
X169635000Y-152210279D01*
X169635000Y-151789721D01*
X169552953Y-151377244D01*
X169392012Y-150988698D01*
X169158363Y-150639017D01*
X168860983Y-150341637D01*
X168511302Y-150107988D01*
X168122756Y-149947047D01*
X167710279Y-149865000D01*
X167289721Y-149865000D01*
X166877244Y-149947047D01*
X166488698Y-150107988D01*
X166139017Y-150341637D01*
X165841637Y-150639017D01*
X165607988Y-150988698D01*
X165447047Y-151377244D01*
X165365000Y-151789721D01*
X162773014Y-151789721D01*
X162832168Y-151646912D01*
X162895000Y-151331033D01*
X162895000Y-151008967D01*
X162832168Y-150693088D01*
X162708918Y-150395537D01*
X162529987Y-150127748D01*
X162302252Y-149900013D01*
X162302233Y-149900000D01*
X162302252Y-149899987D01*
X162529987Y-149672252D01*
X162708918Y-149404463D01*
X162832168Y-149106912D01*
X162895000Y-148791033D01*
X162895000Y-148468967D01*
X162832168Y-148153088D01*
X162708918Y-147855537D01*
X162529987Y-147587748D01*
X162302252Y-147360013D01*
X162302233Y-147360000D01*
X162302252Y-147359987D01*
X162529987Y-147132252D01*
X162530000Y-147132233D01*
X162530013Y-147132252D01*
X162757748Y-147359987D01*
X163025537Y-147538918D01*
X163323088Y-147662168D01*
X163638967Y-147725000D01*
X163961033Y-147725000D01*
X164276912Y-147662168D01*
X164574463Y-147538918D01*
X164842252Y-147359987D01*
X165069987Y-147132252D01*
X165070000Y-147132233D01*
X165070013Y-147132252D01*
X165297748Y-147359987D01*
X165565537Y-147538918D01*
X165863088Y-147662168D01*
X166178967Y-147725000D01*
X166501033Y-147725000D01*
X166816912Y-147662168D01*
X167114463Y-147538918D01*
X167382252Y-147359987D01*
X167609987Y-147132252D01*
X167610000Y-147132233D01*
X167610013Y-147132252D01*
X167837748Y-147359987D01*
X168105537Y-147538918D01*
X168403088Y-147662168D01*
X168718967Y-147725000D01*
X169041033Y-147725000D01*
X169356912Y-147662168D01*
X169654463Y-147538918D01*
X169922252Y-147359987D01*
X170149987Y-147132252D01*
X170328918Y-146864463D01*
X170452168Y-146566912D01*
X170515000Y-146251033D01*
X170515000Y-145928967D01*
X170452168Y-145613088D01*
X170328918Y-145315537D01*
X170149987Y-145047748D01*
X169922252Y-144820013D01*
X169922233Y-144820000D01*
X169922252Y-144819987D01*
X170149987Y-144592252D01*
X170328918Y-144324463D01*
X170452168Y-144026912D01*
X170515000Y-143711033D01*
X170515000Y-143388967D01*
X170452168Y-143073088D01*
X170328918Y-142775537D01*
X170149987Y-142507748D01*
X169922252Y-142280013D01*
X169922233Y-142280000D01*
X169922252Y-142279987D01*
X170149987Y-142052252D01*
X170328918Y-141784463D01*
X170452168Y-141486912D01*
X170515000Y-141171033D01*
X170515000Y-140848967D01*
X170452168Y-140533088D01*
X170328918Y-140235537D01*
X170149987Y-139967748D01*
X169922252Y-139740013D01*
X169922233Y-139740000D01*
X169922252Y-139739987D01*
X170149987Y-139512252D01*
X170328918Y-139244463D01*
X170452168Y-138946912D01*
X170515000Y-138631033D01*
X170515000Y-138308967D01*
X170452168Y-137993088D01*
X170328918Y-137695537D01*
X170149987Y-137427748D01*
X169922252Y-137200013D01*
X169922233Y-137200000D01*
X169922252Y-137199987D01*
X170149987Y-136972252D01*
X170328918Y-136704463D01*
X170452168Y-136406912D01*
X170465683Y-136338967D01*
X172865000Y-136338967D01*
X172865000Y-136661033D01*
X172927832Y-136976912D01*
X173051082Y-137274463D01*
X173230013Y-137542252D01*
X173457748Y-137769987D01*
X173725537Y-137948918D01*
X174023088Y-138072168D01*
X174338967Y-138135000D01*
X174661033Y-138135000D01*
X174976912Y-138072168D01*
X175274463Y-137948918D01*
X175542252Y-137769987D01*
X175769987Y-137542252D01*
X175875059Y-137385000D01*
X178384402Y-137385000D01*
X178574662Y-137669744D01*
X178830256Y-137925338D01*
X179130801Y-138126156D01*
X179429787Y-138250000D01*
X179130801Y-138373844D01*
X178830256Y-138574662D01*
X178574662Y-138830256D01*
X178384402Y-139115000D01*
X175875059Y-139115000D01*
X175769987Y-138957748D01*
X175542252Y-138730013D01*
X175274463Y-138551082D01*
X174976912Y-138427832D01*
X174661033Y-138365000D01*
X174338967Y-138365000D01*
X174023088Y-138427832D01*
X173725537Y-138551082D01*
X173457748Y-138730013D01*
X173230013Y-138957748D01*
X173051082Y-139225537D01*
X172927832Y-139523088D01*
X172865000Y-139838967D01*
X172865000Y-140161033D01*
X172927832Y-140476912D01*
X173051082Y-140774463D01*
X173230013Y-141042252D01*
X173457748Y-141269987D01*
X173725537Y-141448918D01*
X174023088Y-141572168D01*
X174338967Y-141635000D01*
X174661033Y-141635000D01*
X174976912Y-141572168D01*
X175274463Y-141448918D01*
X175542252Y-141269987D01*
X175769987Y-141042252D01*
X175875059Y-140885000D01*
X178384402Y-140885000D01*
X178574662Y-141169744D01*
X178830256Y-141425338D01*
X179130801Y-141626156D01*
X179429787Y-141750000D01*
X179130801Y-141873844D01*
X178830256Y-142074662D01*
X178574662Y-142330256D01*
X178384402Y-142615000D01*
X175875059Y-142615000D01*
X175769987Y-142457748D01*
X175542252Y-142230013D01*
X175274463Y-142051082D01*
X174976912Y-141927832D01*
X174661033Y-141865000D01*
X174338967Y-141865000D01*
X174023088Y-141927832D01*
X173725537Y-142051082D01*
X173457748Y-142230013D01*
X173230013Y-142457748D01*
X173051082Y-142725537D01*
X172927832Y-143023088D01*
X172865000Y-143338967D01*
X172865000Y-143661033D01*
X172927832Y-143976912D01*
X173051082Y-144274463D01*
X173230013Y-144542252D01*
X173457748Y-144769987D01*
X173725537Y-144948918D01*
X174023088Y-145072168D01*
X174338967Y-145135000D01*
X174661033Y-145135000D01*
X174976912Y-145072168D01*
X175274463Y-144948918D01*
X175542252Y-144769987D01*
X175769987Y-144542252D01*
X175875059Y-144385000D01*
X178384402Y-144385000D01*
X178574662Y-144669744D01*
X178830256Y-144925338D01*
X179130801Y-145126156D01*
X179217162Y-145161928D01*
X178800000Y-145161928D01*
X178675518Y-145174188D01*
X178555820Y-145210498D01*
X178445506Y-145269463D01*
X178348815Y-145348815D01*
X178269463Y-145445506D01*
X178210498Y-145555820D01*
X178174188Y-145675518D01*
X178161928Y-145800000D01*
X178161928Y-146115000D01*
X175875059Y-146115000D01*
X175769987Y-145957748D01*
X175542252Y-145730013D01*
X175274463Y-145551082D01*
X174976912Y-145427832D01*
X174661033Y-145365000D01*
X174338967Y-145365000D01*
X174023088Y-145427832D01*
X173725537Y-145551082D01*
X173457748Y-145730013D01*
X173230013Y-145957748D01*
X173051082Y-146225537D01*
X172927832Y-146523088D01*
X172865000Y-146838967D01*
X172865000Y-147161033D01*
X172927832Y-147476912D01*
X173051082Y-147774463D01*
X173230013Y-148042252D01*
X173457748Y-148269987D01*
X173725537Y-148448918D01*
X174023088Y-148572168D01*
X174338967Y-148635000D01*
X174661033Y-148635000D01*
X174976912Y-148572168D01*
X175274463Y-148448918D01*
X175542252Y-148269987D01*
X175769987Y-148042252D01*
X175875059Y-147885000D01*
X178161928Y-147885000D01*
X178161928Y-148200000D01*
X178174188Y-148324482D01*
X178210498Y-148444180D01*
X178269463Y-148554494D01*
X178348815Y-148651185D01*
X178445506Y-148730537D01*
X178555820Y-148789502D01*
X178675518Y-148825812D01*
X178800000Y-148838072D01*
X181200000Y-148838072D01*
X181324482Y-148825812D01*
X181444180Y-148789502D01*
X181554494Y-148730537D01*
X181651185Y-148651185D01*
X181730537Y-148554494D01*
X181789502Y-148444180D01*
X181825812Y-148324482D01*
X181838072Y-148200000D01*
X181838072Y-145800000D01*
X181825812Y-145675518D01*
X181789502Y-145555820D01*
X181730537Y-145445506D01*
X181651185Y-145348815D01*
X181554494Y-145269463D01*
X181444180Y-145210498D01*
X181324482Y-145174188D01*
X181200000Y-145161928D01*
X180782838Y-145161928D01*
X180869199Y-145126156D01*
X181169744Y-144925338D01*
X181425338Y-144669744D01*
X181626156Y-144369199D01*
X181764482Y-144035250D01*
X181835000Y-143680732D01*
X181835000Y-143319268D01*
X181764482Y-142964750D01*
X181626156Y-142630801D01*
X181425338Y-142330256D01*
X181169744Y-142074662D01*
X180869199Y-141873844D01*
X180570213Y-141750000D01*
X180869199Y-141626156D01*
X181169744Y-141425338D01*
X181425338Y-141169744D01*
X181626156Y-140869199D01*
X181764482Y-140535250D01*
X181835000Y-140180732D01*
X181835000Y-139819268D01*
X181764482Y-139464750D01*
X181626156Y-139130801D01*
X181425338Y-138830256D01*
X181169744Y-138574662D01*
X180869199Y-138373844D01*
X180570213Y-138250000D01*
X180869199Y-138126156D01*
X181169744Y-137925338D01*
X181425338Y-137669744D01*
X181626156Y-137369199D01*
X181764482Y-137035250D01*
X181835000Y-136680732D01*
X181835000Y-136319268D01*
X181764482Y-135964750D01*
X181626156Y-135630801D01*
X181425338Y-135330256D01*
X181169744Y-135074662D01*
X180869199Y-134873844D01*
X180535250Y-134735518D01*
X180180732Y-134665000D01*
X179819268Y-134665000D01*
X179464750Y-134735518D01*
X179130801Y-134873844D01*
X178830256Y-135074662D01*
X178574662Y-135330256D01*
X178384402Y-135615000D01*
X175875059Y-135615000D01*
X175769987Y-135457748D01*
X175542252Y-135230013D01*
X175274463Y-135051082D01*
X174976912Y-134927832D01*
X174661033Y-134865000D01*
X174338967Y-134865000D01*
X174023088Y-134927832D01*
X173725537Y-135051082D01*
X173457748Y-135230013D01*
X173230013Y-135457748D01*
X173051082Y-135725537D01*
X172927832Y-136023088D01*
X172865000Y-136338967D01*
X170465683Y-136338967D01*
X170515000Y-136091033D01*
X170515000Y-135768967D01*
X170452168Y-135453088D01*
X170328918Y-135155537D01*
X170149987Y-134887748D01*
X169922252Y-134660013D01*
X169922233Y-134660000D01*
X169922252Y-134659987D01*
X170149987Y-134432252D01*
X170328918Y-134164463D01*
X170452168Y-133866912D01*
X170515000Y-133551033D01*
X170515000Y-133228967D01*
X170452168Y-132913088D01*
X170328918Y-132615537D01*
X170149987Y-132347748D01*
X169922252Y-132120013D01*
X169922233Y-132120000D01*
X169922252Y-132119987D01*
X170057189Y-131985050D01*
X173544555Y-131985050D01*
X173640258Y-132249399D01*
X173929787Y-132390238D01*
X174241229Y-132471885D01*
X174562615Y-132491205D01*
X174881595Y-132447454D01*
X175185911Y-132342314D01*
X175359742Y-132249399D01*
X175455445Y-131985050D01*
X174500000Y-131029605D01*
X173544555Y-131985050D01*
X170057189Y-131985050D01*
X170149987Y-131892252D01*
X170328918Y-131624463D01*
X170452168Y-131326912D01*
X170515000Y-131011033D01*
X170515000Y-130912615D01*
X172858795Y-130912615D01*
X172902546Y-131231595D01*
X173007686Y-131535911D01*
X173100601Y-131709742D01*
X173364950Y-131805445D01*
X174320395Y-130850000D01*
X174679605Y-130850000D01*
X175635050Y-131805445D01*
X175899399Y-131709742D01*
X176040238Y-131420213D01*
X176121885Y-131108771D01*
X176141205Y-130787385D01*
X176097454Y-130468405D01*
X175992314Y-130164089D01*
X175899399Y-129990258D01*
X175635050Y-129894555D01*
X174679605Y-130850000D01*
X174320395Y-130850000D01*
X173364950Y-129894555D01*
X173100601Y-129990258D01*
X172959762Y-130279787D01*
X172878115Y-130591229D01*
X172858795Y-130912615D01*
X170515000Y-130912615D01*
X170515000Y-130688967D01*
X170452168Y-130373088D01*
X170328918Y-130075537D01*
X170149987Y-129807748D01*
X169922252Y-129580013D01*
X169922233Y-129580000D01*
X169922252Y-129579987D01*
X170057189Y-129445050D01*
X173544555Y-129445050D01*
X173593411Y-129580000D01*
X173544555Y-129714950D01*
X174500000Y-130670395D01*
X175455445Y-129714950D01*
X175406589Y-129580000D01*
X175455445Y-129445050D01*
X174500000Y-128489605D01*
X173544555Y-129445050D01*
X170057189Y-129445050D01*
X170149987Y-129352252D01*
X170328918Y-129084463D01*
X170452168Y-128786912D01*
X170515000Y-128471033D01*
X170515000Y-128372615D01*
X172858795Y-128372615D01*
X172902546Y-128691595D01*
X173007686Y-128995911D01*
X173100601Y-129169742D01*
X173364950Y-129265445D01*
X174320395Y-128310000D01*
X174679605Y-128310000D01*
X175635050Y-129265445D01*
X175899399Y-129169742D01*
X176040238Y-128880213D01*
X176063961Y-128789721D01*
X182865000Y-128789721D01*
X182865000Y-129210279D01*
X182947047Y-129622756D01*
X183107988Y-130011302D01*
X183341637Y-130360983D01*
X183639017Y-130658363D01*
X183988698Y-130892012D01*
X184377244Y-131052953D01*
X184789721Y-131135000D01*
X185210279Y-131135000D01*
X185622756Y-131052953D01*
X186011302Y-130892012D01*
X186360983Y-130658363D01*
X186658363Y-130360983D01*
X186892012Y-130011302D01*
X187052953Y-129622756D01*
X187135000Y-129210279D01*
X187135000Y-128789721D01*
X187052953Y-128377244D01*
X186892012Y-127988698D01*
X186658363Y-127639017D01*
X186360983Y-127341637D01*
X186011302Y-127107988D01*
X185622756Y-126947047D01*
X185210279Y-126865000D01*
X184789721Y-126865000D01*
X184377244Y-126947047D01*
X183988698Y-127107988D01*
X183639017Y-127341637D01*
X183341637Y-127639017D01*
X183107988Y-127988698D01*
X182947047Y-128377244D01*
X182865000Y-128789721D01*
X176063961Y-128789721D01*
X176121885Y-128568771D01*
X176141205Y-128247385D01*
X176097454Y-127928405D01*
X175992314Y-127624089D01*
X175899399Y-127450258D01*
X175635050Y-127354555D01*
X174679605Y-128310000D01*
X174320395Y-128310000D01*
X173364950Y-127354555D01*
X173100601Y-127450258D01*
X172959762Y-127739787D01*
X172878115Y-128051229D01*
X172858795Y-128372615D01*
X170515000Y-128372615D01*
X170515000Y-128148967D01*
X170452168Y-127833088D01*
X170328918Y-127535537D01*
X170149987Y-127267748D01*
X170057189Y-127174950D01*
X173544555Y-127174950D01*
X174500000Y-128130395D01*
X175455445Y-127174950D01*
X175359742Y-126910601D01*
X175070213Y-126769762D01*
X174758771Y-126688115D01*
X174437385Y-126668795D01*
X174118405Y-126712546D01*
X173814089Y-126817686D01*
X173640258Y-126910601D01*
X173544555Y-127174950D01*
X170057189Y-127174950D01*
X169922252Y-127040013D01*
X169922233Y-127040000D01*
X169922252Y-127039987D01*
X170149987Y-126812252D01*
X170328918Y-126544463D01*
X170452168Y-126246912D01*
X170515000Y-125931033D01*
X170515000Y-125608967D01*
X170452168Y-125293088D01*
X170328918Y-124995537D01*
X170149987Y-124727748D01*
X169922252Y-124500013D01*
X169922233Y-124500000D01*
X169922252Y-124499987D01*
X170149987Y-124272252D01*
X170328918Y-124004463D01*
X170452168Y-123706912D01*
X170515000Y-123391033D01*
X170515000Y-123068967D01*
X170452168Y-122753088D01*
X170328918Y-122455537D01*
X170149987Y-122187748D01*
X169922252Y-121960013D01*
X169922233Y-121960000D01*
X169922252Y-121959987D01*
X170149987Y-121732252D01*
X170328918Y-121464463D01*
X170452168Y-121166912D01*
X170515000Y-120851033D01*
X170515000Y-120528967D01*
X170452168Y-120213088D01*
X170328918Y-119915537D01*
X170149987Y-119647748D01*
X169922252Y-119420013D01*
X169922233Y-119420000D01*
X169922252Y-119419987D01*
X170149987Y-119192252D01*
X170328918Y-118924463D01*
X170452168Y-118626912D01*
X170515000Y-118311033D01*
X170515000Y-117988967D01*
X170452168Y-117673088D01*
X170328918Y-117375537D01*
X170149987Y-117107748D01*
X169922252Y-116880013D01*
X169922233Y-116880000D01*
X169922252Y-116879987D01*
X170149987Y-116652252D01*
X170328918Y-116384463D01*
X170452168Y-116086912D01*
X170515000Y-115771033D01*
X170515000Y-115448967D01*
X170452168Y-115133088D01*
X170328918Y-114835537D01*
X170149987Y-114567748D01*
X169922252Y-114340013D01*
X169922233Y-114340000D01*
X169922252Y-114339987D01*
X170149987Y-114112252D01*
X170328918Y-113844463D01*
X170452168Y-113546912D01*
X170515000Y-113231033D01*
X170515000Y-112908967D01*
X170452168Y-112593088D01*
X170328918Y-112295537D01*
X170149987Y-112027748D01*
X169922252Y-111800013D01*
X169654463Y-111621082D01*
X169356912Y-111497832D01*
X169041033Y-111435000D01*
X168718967Y-111435000D01*
X168403088Y-111497832D01*
X168105537Y-111621082D01*
X167837748Y-111800013D01*
X167610013Y-112027748D01*
X167610000Y-112027767D01*
X167609987Y-112027748D01*
X167382252Y-111800013D01*
X167114463Y-111621082D01*
X166816912Y-111497832D01*
X166501033Y-111435000D01*
X166178967Y-111435000D01*
X165863088Y-111497832D01*
X165565537Y-111621082D01*
X165297748Y-111800013D01*
X165070013Y-112027748D01*
X165070000Y-112027767D01*
X165069987Y-112027748D01*
X164842252Y-111800013D01*
X164574463Y-111621082D01*
X164276912Y-111497832D01*
X163961033Y-111435000D01*
X163638967Y-111435000D01*
X163323088Y-111497832D01*
X163025537Y-111621082D01*
X162757748Y-111800013D01*
X162530013Y-112027748D01*
X162530000Y-112027767D01*
X162529987Y-112027748D01*
X162302252Y-111800013D01*
X162167236Y-111709798D01*
X162206632Y-111683475D01*
X162413475Y-111476632D01*
X162575990Y-111233411D01*
X162687932Y-110963158D01*
X162712635Y-110838967D01*
X172865000Y-110838967D01*
X172865000Y-111161033D01*
X172927832Y-111476912D01*
X173051082Y-111774463D01*
X173230013Y-112042252D01*
X173457748Y-112269987D01*
X173725537Y-112448918D01*
X174023088Y-112572168D01*
X174338967Y-112635000D01*
X174661033Y-112635000D01*
X174976912Y-112572168D01*
X175274463Y-112448918D01*
X175542252Y-112269987D01*
X175769987Y-112042252D01*
X175875059Y-111885000D01*
X178384402Y-111885000D01*
X178574662Y-112169744D01*
X178830256Y-112425338D01*
X179130801Y-112626156D01*
X179429787Y-112750000D01*
X179130801Y-112873844D01*
X178830256Y-113074662D01*
X178574662Y-113330256D01*
X178384402Y-113615000D01*
X175875059Y-113615000D01*
X175769987Y-113457748D01*
X175542252Y-113230013D01*
X175274463Y-113051082D01*
X174976912Y-112927832D01*
X174661033Y-112865000D01*
X174338967Y-112865000D01*
X174023088Y-112927832D01*
X173725537Y-113051082D01*
X173457748Y-113230013D01*
X173230013Y-113457748D01*
X173051082Y-113725537D01*
X172927832Y-114023088D01*
X172865000Y-114338967D01*
X172865000Y-114661033D01*
X172927832Y-114976912D01*
X173051082Y-115274463D01*
X173230013Y-115542252D01*
X173457748Y-115769987D01*
X173725537Y-115948918D01*
X174023088Y-116072168D01*
X174338967Y-116135000D01*
X174661033Y-116135000D01*
X174976912Y-116072168D01*
X175274463Y-115948918D01*
X175542252Y-115769987D01*
X175769987Y-115542252D01*
X175875059Y-115385000D01*
X178384402Y-115385000D01*
X178574662Y-115669744D01*
X178830256Y-115925338D01*
X179130801Y-116126156D01*
X179429787Y-116250000D01*
X179130801Y-116373844D01*
X178830256Y-116574662D01*
X178574662Y-116830256D01*
X178384402Y-117115000D01*
X175875059Y-117115000D01*
X175769987Y-116957748D01*
X175542252Y-116730013D01*
X175274463Y-116551082D01*
X174976912Y-116427832D01*
X174661033Y-116365000D01*
X174338967Y-116365000D01*
X174023088Y-116427832D01*
X173725537Y-116551082D01*
X173457748Y-116730013D01*
X173230013Y-116957748D01*
X173051082Y-117225537D01*
X172927832Y-117523088D01*
X172865000Y-117838967D01*
X172865000Y-118161033D01*
X172927832Y-118476912D01*
X173051082Y-118774463D01*
X173230013Y-119042252D01*
X173457748Y-119269987D01*
X173725537Y-119448918D01*
X174023088Y-119572168D01*
X174338967Y-119635000D01*
X174661033Y-119635000D01*
X174976912Y-119572168D01*
X175274463Y-119448918D01*
X175542252Y-119269987D01*
X175769987Y-119042252D01*
X175875059Y-118885000D01*
X178384402Y-118885000D01*
X178574662Y-119169744D01*
X178830256Y-119425338D01*
X179130801Y-119626156D01*
X179217162Y-119661928D01*
X178800000Y-119661928D01*
X178675518Y-119674188D01*
X178555820Y-119710498D01*
X178445506Y-119769463D01*
X178348815Y-119848815D01*
X178269463Y-119945506D01*
X178210498Y-120055820D01*
X178174188Y-120175518D01*
X178161928Y-120300000D01*
X178161928Y-120615000D01*
X175875059Y-120615000D01*
X175769987Y-120457748D01*
X175542252Y-120230013D01*
X175274463Y-120051082D01*
X174976912Y-119927832D01*
X174661033Y-119865000D01*
X174338967Y-119865000D01*
X174023088Y-119927832D01*
X173725537Y-120051082D01*
X173457748Y-120230013D01*
X173230013Y-120457748D01*
X173051082Y-120725537D01*
X172927832Y-121023088D01*
X172865000Y-121338967D01*
X172865000Y-121661033D01*
X172927832Y-121976912D01*
X173051082Y-122274463D01*
X173230013Y-122542252D01*
X173457748Y-122769987D01*
X173725537Y-122948918D01*
X174023088Y-123072168D01*
X174338967Y-123135000D01*
X174661033Y-123135000D01*
X174976912Y-123072168D01*
X175274463Y-122948918D01*
X175542252Y-122769987D01*
X175769987Y-122542252D01*
X175875059Y-122385000D01*
X178161928Y-122385000D01*
X178161928Y-122700000D01*
X178174188Y-122824482D01*
X178210498Y-122944180D01*
X178269463Y-123054494D01*
X178348815Y-123151185D01*
X178445506Y-123230537D01*
X178555820Y-123289502D01*
X178675518Y-123325812D01*
X178800000Y-123338072D01*
X181200000Y-123338072D01*
X181324482Y-123325812D01*
X181444180Y-123289502D01*
X181554494Y-123230537D01*
X181651185Y-123151185D01*
X181730537Y-123054494D01*
X181789502Y-122944180D01*
X181825812Y-122824482D01*
X181838072Y-122700000D01*
X181838072Y-120300000D01*
X181825812Y-120175518D01*
X181789502Y-120055820D01*
X181730537Y-119945506D01*
X181651185Y-119848815D01*
X181554494Y-119769463D01*
X181444180Y-119710498D01*
X181324482Y-119674188D01*
X181200000Y-119661928D01*
X180782838Y-119661928D01*
X180869199Y-119626156D01*
X181169744Y-119425338D01*
X181425338Y-119169744D01*
X181626156Y-118869199D01*
X181764482Y-118535250D01*
X181835000Y-118180732D01*
X181835000Y-117819268D01*
X181764482Y-117464750D01*
X181626156Y-117130801D01*
X181425338Y-116830256D01*
X181169744Y-116574662D01*
X180869199Y-116373844D01*
X180570213Y-116250000D01*
X180869199Y-116126156D01*
X181169744Y-115925338D01*
X181425338Y-115669744D01*
X181626156Y-115369199D01*
X181764482Y-115035250D01*
X181835000Y-114680732D01*
X181835000Y-114319268D01*
X181764482Y-113964750D01*
X181626156Y-113630801D01*
X181425338Y-113330256D01*
X181169744Y-113074662D01*
X180869199Y-112873844D01*
X180570213Y-112750000D01*
X180869199Y-112626156D01*
X181169744Y-112425338D01*
X181425338Y-112169744D01*
X181626156Y-111869199D01*
X181764482Y-111535250D01*
X181835000Y-111180732D01*
X181835000Y-110819268D01*
X181764482Y-110464750D01*
X181626156Y-110130801D01*
X181425338Y-109830256D01*
X181169744Y-109574662D01*
X180869199Y-109373844D01*
X180535250Y-109235518D01*
X180180732Y-109165000D01*
X179819268Y-109165000D01*
X179464750Y-109235518D01*
X179130801Y-109373844D01*
X178830256Y-109574662D01*
X178574662Y-109830256D01*
X178384402Y-110115000D01*
X175875059Y-110115000D01*
X175769987Y-109957748D01*
X175542252Y-109730013D01*
X175274463Y-109551082D01*
X174976912Y-109427832D01*
X174661033Y-109365000D01*
X174338967Y-109365000D01*
X174023088Y-109427832D01*
X173725537Y-109551082D01*
X173457748Y-109730013D01*
X173230013Y-109957748D01*
X173051082Y-110225537D01*
X172927832Y-110523088D01*
X172865000Y-110838967D01*
X162712635Y-110838967D01*
X162745000Y-110676260D01*
X162745000Y-110383740D01*
X162687932Y-110096842D01*
X162575990Y-109826589D01*
X162413475Y-109583368D01*
X162206632Y-109376525D01*
X162032240Y-109260000D01*
X162206632Y-109143475D01*
X162413475Y-108936632D01*
X162575990Y-108693411D01*
X162687932Y-108423158D01*
X162745000Y-108136260D01*
X162745000Y-107843740D01*
X162687932Y-107556842D01*
X162575990Y-107286589D01*
X162413475Y-107043368D01*
X162206632Y-106836525D01*
X162145000Y-106795344D01*
X162145000Y-106644656D01*
X162206632Y-106603475D01*
X162413475Y-106396632D01*
X162575990Y-106153411D01*
X162687932Y-105883158D01*
X162706517Y-105789721D01*
X165365000Y-105789721D01*
X165365000Y-106210279D01*
X165447047Y-106622756D01*
X165607988Y-107011302D01*
X165841637Y-107360983D01*
X166139017Y-107658363D01*
X166488698Y-107892012D01*
X166877244Y-108052953D01*
X167289721Y-108135000D01*
X167710279Y-108135000D01*
X168122756Y-108052953D01*
X168511302Y-107892012D01*
X168860983Y-107658363D01*
X169158363Y-107360983D01*
X169392012Y-107011302D01*
X169552953Y-106622756D01*
X169635000Y-106210279D01*
X169635000Y-105789721D01*
X169552953Y-105377244D01*
X169392012Y-104988698D01*
X169158363Y-104639017D01*
X168860983Y-104341637D01*
X168511302Y-104107988D01*
X168122756Y-103947047D01*
X167710279Y-103865000D01*
X167289721Y-103865000D01*
X166877244Y-103947047D01*
X166488698Y-104107988D01*
X166139017Y-104341637D01*
X165841637Y-104639017D01*
X165607988Y-104988698D01*
X165447047Y-105377244D01*
X165365000Y-105789721D01*
X162706517Y-105789721D01*
X162745000Y-105596260D01*
X162745000Y-105303740D01*
X162687932Y-105016842D01*
X162575990Y-104746589D01*
X162413475Y-104503368D01*
X162206632Y-104296525D01*
X162167236Y-104270202D01*
X162302252Y-104179987D01*
X162529987Y-103952252D01*
X162708918Y-103684463D01*
X162832168Y-103386912D01*
X162895000Y-103071033D01*
X162895000Y-102748967D01*
X162832168Y-102433088D01*
X162708918Y-102135537D01*
X162529987Y-101867748D01*
X162302252Y-101640013D01*
X162034463Y-101461082D01*
X161736912Y-101337832D01*
X161421033Y-101275000D01*
X161098967Y-101275000D01*
X160783088Y-101337832D01*
X160485537Y-101461082D01*
X160217748Y-101640013D01*
X159990013Y-101867748D01*
X159990000Y-101867767D01*
X159989987Y-101867748D01*
X159762252Y-101640013D01*
X159494463Y-101461082D01*
X159196912Y-101337832D01*
X158881033Y-101275000D01*
X158558967Y-101275000D01*
X158243088Y-101337832D01*
X157945537Y-101461082D01*
X157677748Y-101640013D01*
X157450013Y-101867748D01*
X157450000Y-101867767D01*
X157449987Y-101867748D01*
X157222252Y-101640013D01*
X156954463Y-101461082D01*
X156656912Y-101337832D01*
X156341033Y-101275000D01*
X156018967Y-101275000D01*
X155703088Y-101337832D01*
X155405537Y-101461082D01*
X155137748Y-101640013D01*
X154910013Y-101867748D01*
X154910000Y-101867767D01*
X154909987Y-101867748D01*
X154682252Y-101640013D01*
X154414463Y-101461082D01*
X154116912Y-101337832D01*
X153801033Y-101275000D01*
X153478967Y-101275000D01*
X153163088Y-101337832D01*
X152865537Y-101461082D01*
X152597748Y-101640013D01*
X152370013Y-101867748D01*
X152370000Y-101867767D01*
X152369987Y-101867748D01*
X152142252Y-101640013D01*
X151874463Y-101461082D01*
X151576912Y-101337832D01*
X151261033Y-101275000D01*
X150938967Y-101275000D01*
X150623088Y-101337832D01*
X150325537Y-101461082D01*
X150057748Y-101640013D01*
X149830013Y-101867748D01*
X149830000Y-101867767D01*
X149829987Y-101867748D01*
X149602252Y-101640013D01*
X149334463Y-101461082D01*
X149036912Y-101337832D01*
X148721033Y-101275000D01*
X148398967Y-101275000D01*
X148083088Y-101337832D01*
X147785537Y-101461082D01*
X147517748Y-101640013D01*
X147290013Y-101867748D01*
X147290000Y-101867767D01*
X147289987Y-101867748D01*
X147062252Y-101640013D01*
X146794463Y-101461082D01*
X146496912Y-101337832D01*
X146181033Y-101275000D01*
X145858967Y-101275000D01*
X145543088Y-101337832D01*
X145245537Y-101461082D01*
X144977748Y-101640013D01*
X144750013Y-101867748D01*
X144750000Y-101867767D01*
X144749987Y-101867748D01*
X144522252Y-101640013D01*
X144254463Y-101461082D01*
X143956912Y-101337832D01*
X143641033Y-101275000D01*
X143318967Y-101275000D01*
X143003088Y-101337832D01*
X142705537Y-101461082D01*
X142437748Y-101640013D01*
X142210013Y-101867748D01*
X142210000Y-101867767D01*
X142209987Y-101867748D01*
X141982252Y-101640013D01*
X141714463Y-101461082D01*
X141416912Y-101337832D01*
X141101033Y-101275000D01*
X140778967Y-101275000D01*
X140463088Y-101337832D01*
X140165537Y-101461082D01*
X139897748Y-101640013D01*
X139670013Y-101867748D01*
X139670000Y-101867767D01*
X139669987Y-101867748D01*
X139442252Y-101640013D01*
X139174463Y-101461082D01*
X138876912Y-101337832D01*
X138561033Y-101275000D01*
X138238967Y-101275000D01*
X137923088Y-101337832D01*
X137625537Y-101461082D01*
X137357748Y-101640013D01*
X137130013Y-101867748D01*
X137130000Y-101867767D01*
X137129987Y-101867748D01*
X136902252Y-101640013D01*
X136634463Y-101461082D01*
X136336912Y-101337832D01*
X136021033Y-101275000D01*
X135698967Y-101275000D01*
X135383088Y-101337832D01*
X135085537Y-101461082D01*
X134817748Y-101640013D01*
X134590013Y-101867748D01*
X134590000Y-101867767D01*
X134589987Y-101867748D01*
X134362252Y-101640013D01*
X134094463Y-101461082D01*
X133796912Y-101337832D01*
X133481033Y-101275000D01*
X133158967Y-101275000D01*
X132843088Y-101337832D01*
X132545537Y-101461082D01*
X132277748Y-101640013D01*
X132050013Y-101867748D01*
X132050000Y-101867767D01*
X132049987Y-101867748D01*
X131822252Y-101640013D01*
X131554463Y-101461082D01*
X131256912Y-101337832D01*
X130941033Y-101275000D01*
X130618967Y-101275000D01*
X130303088Y-101337832D01*
X130005537Y-101461082D01*
X129737748Y-101640013D01*
X129510013Y-101867748D01*
X129510000Y-101867767D01*
X129509987Y-101867748D01*
X129282252Y-101640013D01*
X129014463Y-101461082D01*
X128716912Y-101337832D01*
X128401033Y-101275000D01*
X128078967Y-101275000D01*
X127763088Y-101337832D01*
X127465537Y-101461082D01*
X127197748Y-101640013D01*
X126970013Y-101867748D01*
X126970000Y-101867767D01*
X126969987Y-101867748D01*
X126742252Y-101640013D01*
X126474463Y-101461082D01*
X126176912Y-101337832D01*
X125861033Y-101275000D01*
X125538967Y-101275000D01*
X125223088Y-101337832D01*
X124925537Y-101461082D01*
X124657748Y-101640013D01*
X124430013Y-101867748D01*
X124430000Y-101867767D01*
X124429987Y-101867748D01*
X124202252Y-101640013D01*
X123934463Y-101461082D01*
X123636912Y-101337832D01*
X123321033Y-101275000D01*
X122998967Y-101275000D01*
X122683088Y-101337832D01*
X122385537Y-101461082D01*
X122117748Y-101640013D01*
X121890013Y-101867748D01*
X121890000Y-101867767D01*
X121889987Y-101867748D01*
X121662252Y-101640013D01*
X121394463Y-101461082D01*
X121096912Y-101337832D01*
X120781033Y-101275000D01*
X120458967Y-101275000D01*
X120143088Y-101337832D01*
X119845537Y-101461082D01*
X119577748Y-101640013D01*
X119350013Y-101867748D01*
X119350000Y-101867767D01*
X119349987Y-101867748D01*
X119122252Y-101640013D01*
X118854463Y-101461082D01*
X118556912Y-101337832D01*
X118241033Y-101275000D01*
X117918967Y-101275000D01*
X117603088Y-101337832D01*
X117305537Y-101461082D01*
X117037748Y-101640013D01*
X116810013Y-101867748D01*
X116810000Y-101867767D01*
X116809987Y-101867748D01*
X116582252Y-101640013D01*
X116314463Y-101461082D01*
X116016912Y-101337832D01*
X115701033Y-101275000D01*
X115378967Y-101275000D01*
X115063088Y-101337832D01*
X114765537Y-101461082D01*
X114497748Y-101640013D01*
X114270013Y-101867748D01*
X114270000Y-101867767D01*
X114269987Y-101867748D01*
X114042252Y-101640013D01*
X113774463Y-101461082D01*
X113476912Y-101337832D01*
X113161033Y-101275000D01*
X112838967Y-101275000D01*
X112523088Y-101337832D01*
X112225537Y-101461082D01*
X111957748Y-101640013D01*
X111730013Y-101867748D01*
X111551082Y-102135537D01*
X111427832Y-102433088D01*
X111365000Y-102748967D01*
X111365000Y-103071033D01*
X111427832Y-103386912D01*
X111551082Y-103684463D01*
X111730013Y-103952252D01*
X111829209Y-104051448D01*
X111795506Y-104069463D01*
X111698815Y-104148815D01*
X111619463Y-104245506D01*
X111560498Y-104355820D01*
X111524188Y-104475518D01*
X111511928Y-104600000D01*
X111511928Y-106300000D01*
X111524188Y-106424482D01*
X111560498Y-106544180D01*
X111619463Y-106654494D01*
X111673222Y-106720000D01*
X111619463Y-106785506D01*
X111560498Y-106895820D01*
X111524188Y-107015518D01*
X111511928Y-107140000D01*
X111511928Y-108840000D01*
X111524188Y-108964482D01*
X111560498Y-109084180D01*
X111619463Y-109194494D01*
X111673222Y-109260000D01*
X111619463Y-109325506D01*
X111560498Y-109435820D01*
X111524188Y-109555518D01*
X111511928Y-109680000D01*
X111511928Y-111380000D01*
X111524188Y-111504482D01*
X111560498Y-111624180D01*
X111619463Y-111734494D01*
X111698815Y-111831185D01*
X111795506Y-111910537D01*
X111829209Y-111928552D01*
X111730013Y-112027748D01*
X111551082Y-112295537D01*
X111427832Y-112593088D01*
X111365000Y-112908967D01*
X111365000Y-113231033D01*
X111427832Y-113546912D01*
X111551082Y-113844463D01*
X111730013Y-114112252D01*
X111957748Y-114339987D01*
X111957767Y-114340000D01*
X111957748Y-114340013D01*
X111730013Y-114567748D01*
X111551082Y-114835537D01*
X111427832Y-115133088D01*
X111365000Y-115448967D01*
X111365000Y-115771033D01*
X111427832Y-116086912D01*
X111551082Y-116384463D01*
X111730013Y-116652252D01*
X111957748Y-116879987D01*
X111957767Y-116880000D01*
X111957748Y-116880013D01*
X111730013Y-117107748D01*
X111551082Y-117375537D01*
X111427832Y-117673088D01*
X111365000Y-117988967D01*
X111365000Y-118311033D01*
X111427832Y-118626912D01*
X111551082Y-118924463D01*
X111730013Y-119192252D01*
X111957748Y-119419987D01*
X111957767Y-119420000D01*
X111957748Y-119420013D01*
X111730013Y-119647748D01*
X111551082Y-119915537D01*
X111427832Y-120213088D01*
X111365000Y-120528967D01*
X111365000Y-120851033D01*
X111427832Y-121166912D01*
X111551082Y-121464463D01*
X111730013Y-121732252D01*
X111829209Y-121831448D01*
X111795506Y-121849463D01*
X111698815Y-121928815D01*
X111619463Y-122025506D01*
X111560498Y-122135820D01*
X111524188Y-122255518D01*
X111511928Y-122380000D01*
X111511928Y-124080000D01*
X111524188Y-124204482D01*
X111560498Y-124324180D01*
X111619463Y-124434494D01*
X111673222Y-124500000D01*
X111619463Y-124565506D01*
X111560498Y-124675820D01*
X111524188Y-124795518D01*
X111511928Y-124920000D01*
X111511928Y-126620000D01*
X111524188Y-126744482D01*
X111560498Y-126864180D01*
X111619463Y-126974494D01*
X111673222Y-127040000D01*
X111619463Y-127105506D01*
X111560498Y-127215820D01*
X111524188Y-127335518D01*
X111511928Y-127460000D01*
X111511928Y-129160000D01*
X111524188Y-129284482D01*
X111560498Y-129404180D01*
X111619463Y-129514494D01*
X111673222Y-129580000D01*
X111619463Y-129645506D01*
X111560498Y-129755820D01*
X111524188Y-129875518D01*
X111511928Y-130000000D01*
X111511928Y-131700000D01*
X111524188Y-131824482D01*
X111560498Y-131944180D01*
X111619463Y-132054494D01*
X111673222Y-132120000D01*
X111619463Y-132185506D01*
X111560498Y-132295820D01*
X111524188Y-132415518D01*
X111511928Y-132540000D01*
X111511928Y-134240000D01*
X111524188Y-134364482D01*
X111560498Y-134484180D01*
X111619463Y-134594494D01*
X111698815Y-134691185D01*
X111795506Y-134770537D01*
X111829209Y-134788552D01*
X111730013Y-134887748D01*
X111551082Y-135155537D01*
X111427832Y-135453088D01*
X111365000Y-135768967D01*
X111365000Y-136091033D01*
X111427832Y-136406912D01*
X111551082Y-136704463D01*
X111730013Y-136972252D01*
X111957748Y-137199987D01*
X111957767Y-137200000D01*
X111957748Y-137200013D01*
X111730013Y-137427748D01*
X111551082Y-137695537D01*
X111427832Y-137993088D01*
X111365000Y-138308967D01*
X111365000Y-138631033D01*
X111427832Y-138946912D01*
X111551082Y-139244463D01*
X111730013Y-139512252D01*
X111957748Y-139739987D01*
X111957767Y-139740000D01*
X111957748Y-139740013D01*
X111730013Y-139967748D01*
X111551082Y-140235537D01*
X111427832Y-140533088D01*
X111365000Y-140848967D01*
X111365000Y-141171033D01*
X111427832Y-141486912D01*
X111551082Y-141784463D01*
X111730013Y-142052252D01*
X111957748Y-142279987D01*
X111957767Y-142280000D01*
X111957748Y-142280013D01*
X111730013Y-142507748D01*
X111551082Y-142775537D01*
X111427832Y-143073088D01*
X111365000Y-143388967D01*
X111365000Y-143711033D01*
X111427832Y-144026912D01*
X111551082Y-144324463D01*
X111730013Y-144592252D01*
X111957748Y-144819987D01*
X111957767Y-144820000D01*
X111957748Y-144820013D01*
X111730013Y-145047748D01*
X111551082Y-145315537D01*
X111427832Y-145613088D01*
X111365000Y-145928967D01*
X111365000Y-146251033D01*
X111427832Y-146566912D01*
X111551082Y-146864463D01*
X111730013Y-147132252D01*
X111957748Y-147359987D01*
X111957767Y-147360000D01*
X111957748Y-147360013D01*
X111730013Y-147587748D01*
X111551082Y-147855537D01*
X111427832Y-148153088D01*
X111365000Y-148468967D01*
X111365000Y-148791033D01*
X111427832Y-149106912D01*
X111551082Y-149404463D01*
X111730013Y-149672252D01*
X111957748Y-149899987D01*
X111957767Y-149900000D01*
X111957748Y-149900013D01*
X111730013Y-150127748D01*
X111551082Y-150395537D01*
X111427832Y-150693088D01*
X111365000Y-151008967D01*
X111365000Y-151331033D01*
X111427832Y-151646912D01*
X111551082Y-151944463D01*
X111730013Y-152212252D01*
X111957748Y-152439987D01*
X111957767Y-152440000D01*
X111957748Y-152440013D01*
X111730013Y-152667748D01*
X111551082Y-152935537D01*
X111427832Y-153233088D01*
X111365000Y-153548967D01*
X111365000Y-153871033D01*
X111427832Y-154186912D01*
X111551082Y-154484463D01*
X111730013Y-154752252D01*
X111957748Y-154979987D01*
X111957767Y-154980000D01*
X111957748Y-154980013D01*
X111730013Y-155207748D01*
X111551082Y-155475537D01*
X111427832Y-155773088D01*
X111365000Y-156088967D01*
X111365000Y-156411033D01*
X111427832Y-156726912D01*
X111551082Y-157024463D01*
X111730013Y-157292252D01*
X111777761Y-157340000D01*
X110638867Y-157340000D01*
X110637016Y-157320412D01*
X110635063Y-157289375D01*
X110477669Y-156043467D01*
X110462138Y-155962052D01*
X110462138Y-155962051D01*
X110149830Y-154745694D01*
X110124218Y-154666867D01*
X110124216Y-154666862D01*
X109661924Y-153499245D01*
X109626634Y-153424250D01*
X109626627Y-153424238D01*
X109021641Y-152323774D01*
X108977230Y-152253793D01*
X108977224Y-152253786D01*
X108239091Y-151237833D01*
X108239084Y-151237822D01*
X108186251Y-151173959D01*
X107326598Y-150258522D01*
X107326591Y-150258513D01*
X107266171Y-150201775D01*
X106298553Y-149401291D01*
X106231499Y-149352573D01*
X106231487Y-149352567D01*
X105171194Y-148679684D01*
X105171183Y-148679676D01*
X105098551Y-148639747D01*
X103962267Y-148105052D01*
X103962261Y-148105049D01*
X103940403Y-148096395D01*
X103885197Y-148074537D01*
X103885182Y-148074533D01*
X102690864Y-147686476D01*
X102690850Y-147686470D01*
X102610571Y-147665858D01*
X101377007Y-147430544D01*
X101377004Y-147430543D01*
X101294774Y-147420155D01*
X100660000Y-147380218D01*
X100660000Y-128789721D01*
X102865000Y-128789721D01*
X102865000Y-129210279D01*
X102947047Y-129622756D01*
X103107988Y-130011302D01*
X103341637Y-130360983D01*
X103639017Y-130658363D01*
X103988698Y-130892012D01*
X104377244Y-131052953D01*
X104789721Y-131135000D01*
X105210279Y-131135000D01*
X105622756Y-131052953D01*
X106011302Y-130892012D01*
X106360983Y-130658363D01*
X106658363Y-130360983D01*
X106892012Y-130011302D01*
X107052953Y-129622756D01*
X107135000Y-129210279D01*
X107135000Y-128789721D01*
X107052953Y-128377244D01*
X106892012Y-127988698D01*
X106658363Y-127639017D01*
X106360983Y-127341637D01*
X106011302Y-127107988D01*
X105622756Y-126947047D01*
X105210279Y-126865000D01*
X104789721Y-126865000D01*
X104377244Y-126947047D01*
X103988698Y-127107988D01*
X103639017Y-127341637D01*
X103341637Y-127639017D01*
X103107988Y-127988698D01*
X102947047Y-128377244D01*
X102865000Y-128789721D01*
X100660000Y-128789721D01*
X100660000Y-110638867D01*
X100679588Y-110637016D01*
X100710625Y-110635063D01*
X101956531Y-110477669D01*
X101956533Y-110477669D01*
X102037949Y-110462138D01*
X103254306Y-110149830D01*
X103333133Y-110124218D01*
X103333138Y-110124216D01*
X104500750Y-109661926D01*
X104500756Y-109661924D01*
X104536046Y-109645317D01*
X104575750Y-109626634D01*
X104575755Y-109626631D01*
X105676213Y-109021648D01*
X105676226Y-109021642D01*
X105719037Y-108994472D01*
X105746207Y-108977230D01*
X105746214Y-108977224D01*
X106762179Y-108239083D01*
X106826042Y-108186251D01*
X106826049Y-108186243D01*
X107741478Y-107326598D01*
X107741487Y-107326591D01*
X107798225Y-107266171D01*
X108598701Y-106298562D01*
X108598709Y-106298553D01*
X108647426Y-106231499D01*
X109320319Y-105171190D01*
X109320324Y-105171183D01*
X109360253Y-105098551D01*
X109894951Y-103962261D01*
X109925463Y-103885197D01*
X109925467Y-103885182D01*
X110313524Y-102690864D01*
X110313530Y-102690850D01*
X110334142Y-102610570D01*
X110569457Y-101377003D01*
X110570939Y-101365274D01*
X110579845Y-101294774D01*
X110619782Y-100660000D01*
X179361133Y-100660000D01*
X179362984Y-100679588D01*
G37*
X179362984Y-100679588D02*
X179364937Y-100710625D01*
X179522331Y-101956531D01*
X179522331Y-101956533D01*
X179537862Y-102037949D01*
X179850170Y-103254306D01*
X179873985Y-103327601D01*
X179875782Y-103333132D01*
X180338074Y-104500750D01*
X180338076Y-104500756D01*
X180352677Y-104531783D01*
X180373366Y-104575750D01*
X180373367Y-104575751D01*
X180978352Y-105676213D01*
X180978358Y-105676226D01*
X181003310Y-105715543D01*
X181022770Y-105746207D01*
X181022776Y-105746214D01*
X181760917Y-106762179D01*
X181813749Y-106826042D01*
X181813757Y-106826049D01*
X182673402Y-107741478D01*
X182673409Y-107741487D01*
X182733829Y-107798225D01*
X183701438Y-108598701D01*
X183701447Y-108598709D01*
X183768501Y-108647426D01*
X184828810Y-109320319D01*
X184828817Y-109320324D01*
X184901449Y-109360253D01*
X186037739Y-109894951D01*
X186114803Y-109925463D01*
X186114818Y-109925467D01*
X187309136Y-110313524D01*
X187309150Y-110313530D01*
X187369426Y-110329006D01*
X187389429Y-110334142D01*
X187389432Y-110334142D01*
X188622993Y-110569456D01*
X188622996Y-110569457D01*
X188705226Y-110579845D01*
X189340000Y-110619782D01*
X189340001Y-147361133D01*
X189320412Y-147362984D01*
X189289375Y-147364937D01*
X188043467Y-147522331D01*
X187962052Y-147537862D01*
X186745694Y-147850170D01*
X186666867Y-147875782D01*
X186666865Y-147875783D01*
X185499245Y-148338076D01*
X185424250Y-148373366D01*
X185424238Y-148373373D01*
X184323781Y-148978355D01*
X184323775Y-148978358D01*
X184300434Y-148993171D01*
X184253793Y-149022770D01*
X184253786Y-149022776D01*
X183237833Y-149760909D01*
X183237822Y-149760916D01*
X183173959Y-149813749D01*
X182258522Y-150673402D01*
X182258513Y-150673409D01*
X182201775Y-150733829D01*
X181401291Y-151701447D01*
X181352573Y-151768501D01*
X181352567Y-151768513D01*
X180679684Y-152828806D01*
X180679676Y-152828817D01*
X180639747Y-152901449D01*
X180105049Y-154037740D01*
X180074537Y-154114803D01*
X180074533Y-154114818D01*
X179686476Y-155309136D01*
X179686470Y-155309150D01*
X179665858Y-155389429D01*
X179430544Y-156622993D01*
X179430543Y-156622996D01*
X179420155Y-156705226D01*
X179380218Y-157340000D01*
X162482239Y-157340000D01*
X162529987Y-157292252D01*
X162708918Y-157024463D01*
X162832168Y-156726912D01*
X162895000Y-156411033D01*
X162895000Y-156088967D01*
X162832168Y-155773088D01*
X162708918Y-155475537D01*
X162529987Y-155207748D01*
X162302252Y-154980013D01*
X162302233Y-154980000D01*
X162302252Y-154979987D01*
X162529987Y-154752252D01*
X162708918Y-154484463D01*
X162832168Y-154186912D01*
X162895000Y-153871033D01*
X162895000Y-153548967D01*
X162832168Y-153233088D01*
X162708918Y-152935537D01*
X162529987Y-152667748D01*
X162302252Y-152440013D01*
X162302233Y-152440000D01*
X162302252Y-152439987D01*
X162529987Y-152212252D01*
X162708918Y-151944463D01*
X162773014Y-151789721D01*
X165365000Y-151789721D01*
X165365000Y-152210279D01*
X165447047Y-152622756D01*
X165607988Y-153011302D01*
X165841637Y-153360983D01*
X166139017Y-153658363D01*
X166488698Y-153892012D01*
X166877244Y-154052953D01*
X167289721Y-154135000D01*
X167710279Y-154135000D01*
X168122756Y-154052953D01*
X168511302Y-153892012D01*
X168860983Y-153658363D01*
X169158363Y-153360983D01*
X169392012Y-153011302D01*
X169552953Y-152622756D01*
X169635000Y-152210279D01*
X169635000Y-151789721D01*
X169552953Y-151377244D01*
X169392012Y-150988698D01*
X169158363Y-150639017D01*
X168860983Y-150341637D01*
X168511302Y-150107988D01*
X168122756Y-149947047D01*
X167710279Y-149865000D01*
X167289721Y-149865000D01*
X166877244Y-149947047D01*
X166488698Y-150107988D01*
X166139017Y-150341637D01*
X165841637Y-150639017D01*
X165607988Y-150988698D01*
X165447047Y-151377244D01*
X165365000Y-151789721D01*
X162773014Y-151789721D01*
X162832168Y-151646912D01*
X162895000Y-151331033D01*
X162895000Y-151008967D01*
X162832168Y-150693088D01*
X162708918Y-150395537D01*
X162529987Y-150127748D01*
X162302252Y-149900013D01*
X162302233Y-149900000D01*
X162302252Y-149899987D01*
X162529987Y-149672252D01*
X162708918Y-149404463D01*
X162832168Y-149106912D01*
X162895000Y-148791033D01*
X162895000Y-148468967D01*
X162832168Y-148153088D01*
X162708918Y-147855537D01*
X162529987Y-147587748D01*
X162302252Y-147360013D01*
X162302233Y-147360000D01*
X162302252Y-147359987D01*
X162529987Y-147132252D01*
X162530000Y-147132233D01*
X162530013Y-147132252D01*
X162757748Y-147359987D01*
X163025537Y-147538918D01*
X163323088Y-147662168D01*
X163638967Y-147725000D01*
X163961033Y-147725000D01*
X164276912Y-147662168D01*
X164574463Y-147538918D01*
X164842252Y-147359987D01*
X165069987Y-147132252D01*
X165070000Y-147132233D01*
X165070013Y-147132252D01*
X165297748Y-147359987D01*
X165565537Y-147538918D01*
X165863088Y-147662168D01*
X166178967Y-147725000D01*
X166501033Y-147725000D01*
X166816912Y-147662168D01*
X167114463Y-147538918D01*
X167382252Y-147359987D01*
X167609987Y-147132252D01*
X167610000Y-147132233D01*
X167610013Y-147132252D01*
X167837748Y-147359987D01*
X168105537Y-147538918D01*
X168403088Y-147662168D01*
X168718967Y-147725000D01*
X169041033Y-147725000D01*
X169356912Y-147662168D01*
X169654463Y-147538918D01*
X169922252Y-147359987D01*
X170149987Y-147132252D01*
X170328918Y-146864463D01*
X170452168Y-146566912D01*
X170515000Y-146251033D01*
X170515000Y-145928967D01*
X170452168Y-145613088D01*
X170328918Y-145315537D01*
X170149987Y-145047748D01*
X169922252Y-144820013D01*
X169922233Y-144820000D01*
X169922252Y-144819987D01*
X170149987Y-144592252D01*
X170328918Y-144324463D01*
X170452168Y-144026912D01*
X170515000Y-143711033D01*
X170515000Y-143388967D01*
X170452168Y-143073088D01*
X170328918Y-142775537D01*
X170149987Y-142507748D01*
X169922252Y-142280013D01*
X169922233Y-142280000D01*
X169922252Y-142279987D01*
X170149987Y-142052252D01*
X170328918Y-141784463D01*
X170452168Y-141486912D01*
X170515000Y-141171033D01*
X170515000Y-140848967D01*
X170452168Y-140533088D01*
X170328918Y-140235537D01*
X170149987Y-139967748D01*
X169922252Y-139740013D01*
X169922233Y-139740000D01*
X169922252Y-139739987D01*
X170149987Y-139512252D01*
X170328918Y-139244463D01*
X170452168Y-138946912D01*
X170515000Y-138631033D01*
X170515000Y-138308967D01*
X170452168Y-137993088D01*
X170328918Y-137695537D01*
X170149987Y-137427748D01*
X169922252Y-137200013D01*
X169922233Y-137200000D01*
X169922252Y-137199987D01*
X170149987Y-136972252D01*
X170328918Y-136704463D01*
X170452168Y-136406912D01*
X170465683Y-136338967D01*
X172865000Y-136338967D01*
X172865000Y-136661033D01*
X172927832Y-136976912D01*
X173051082Y-137274463D01*
X173230013Y-137542252D01*
X173457748Y-137769987D01*
X173725537Y-137948918D01*
X174023088Y-138072168D01*
X174338967Y-138135000D01*
X174661033Y-138135000D01*
X174976912Y-138072168D01*
X175274463Y-137948918D01*
X175542252Y-137769987D01*
X175769987Y-137542252D01*
X175875059Y-137385000D01*
X178384402Y-137385000D01*
X178574662Y-137669744D01*
X178830256Y-137925338D01*
X179130801Y-138126156D01*
X179429787Y-138250000D01*
X179130801Y-138373844D01*
X178830256Y-138574662D01*
X178574662Y-138830256D01*
X178384402Y-139115000D01*
X175875059Y-139115000D01*
X175769987Y-138957748D01*
X175542252Y-138730013D01*
X175274463Y-138551082D01*
X174976912Y-138427832D01*
X174661033Y-138365000D01*
X174338967Y-138365000D01*
X174023088Y-138427832D01*
X173725537Y-138551082D01*
X173457748Y-138730013D01*
X173230013Y-138957748D01*
X173051082Y-139225537D01*
X172927832Y-139523088D01*
X172865000Y-139838967D01*
X172865000Y-140161033D01*
X172927832Y-140476912D01*
X173051082Y-140774463D01*
X173230013Y-141042252D01*
X173457748Y-141269987D01*
X173725537Y-141448918D01*
X174023088Y-141572168D01*
X174338967Y-141635000D01*
X174661033Y-141635000D01*
X174976912Y-141572168D01*
X175274463Y-141448918D01*
X175542252Y-141269987D01*
X175769987Y-141042252D01*
X175875059Y-140885000D01*
X178384402Y-140885000D01*
X178574662Y-141169744D01*
X178830256Y-141425338D01*
X179130801Y-141626156D01*
X179429787Y-141750000D01*
X179130801Y-141873844D01*
X178830256Y-142074662D01*
X178574662Y-142330256D01*
X178384402Y-142615000D01*
X175875059Y-142615000D01*
X175769987Y-142457748D01*
X175542252Y-142230013D01*
X175274463Y-142051082D01*
X174976912Y-141927832D01*
X174661033Y-141865000D01*
X174338967Y-141865000D01*
X174023088Y-141927832D01*
X173725537Y-142051082D01*
X173457748Y-142230013D01*
X173230013Y-142457748D01*
X173051082Y-142725537D01*
X172927832Y-143023088D01*
X172865000Y-143338967D01*
X172865000Y-143661033D01*
X172927832Y-143976912D01*
X173051082Y-144274463D01*
X173230013Y-144542252D01*
X173457748Y-144769987D01*
X173725537Y-144948918D01*
X174023088Y-145072168D01*
X174338967Y-145135000D01*
X174661033Y-145135000D01*
X174976912Y-145072168D01*
X175274463Y-144948918D01*
X175542252Y-144769987D01*
X175769987Y-144542252D01*
X175875059Y-144385000D01*
X178384402Y-144385000D01*
X178574662Y-144669744D01*
X178830256Y-144925338D01*
X179130801Y-145126156D01*
X179217162Y-145161928D01*
X178800000Y-145161928D01*
X178675518Y-145174188D01*
X178555820Y-145210498D01*
X178445506Y-145269463D01*
X178348815Y-145348815D01*
X178269463Y-145445506D01*
X178210498Y-145555820D01*
X178174188Y-145675518D01*
X178161928Y-145800000D01*
X178161928Y-146115000D01*
X175875059Y-146115000D01*
X175769987Y-145957748D01*
X175542252Y-145730013D01*
X175274463Y-145551082D01*
X174976912Y-145427832D01*
X174661033Y-145365000D01*
X174338967Y-145365000D01*
X174023088Y-145427832D01*
X173725537Y-145551082D01*
X173457748Y-145730013D01*
X173230013Y-145957748D01*
X173051082Y-146225537D01*
X172927832Y-146523088D01*
X172865000Y-146838967D01*
X172865000Y-147161033D01*
X172927832Y-147476912D01*
X173051082Y-147774463D01*
X173230013Y-148042252D01*
X173457748Y-148269987D01*
X173725537Y-148448918D01*
X174023088Y-148572168D01*
X174338967Y-148635000D01*
X174661033Y-148635000D01*
X174976912Y-148572168D01*
X175274463Y-148448918D01*
X175542252Y-148269987D01*
X175769987Y-148042252D01*
X175875059Y-147885000D01*
X178161928Y-147885000D01*
X178161928Y-148200000D01*
X178174188Y-148324482D01*
X178210498Y-148444180D01*
X178269463Y-148554494D01*
X178348815Y-148651185D01*
X178445506Y-148730537D01*
X178555820Y-148789502D01*
X178675518Y-148825812D01*
X178800000Y-148838072D01*
X181200000Y-148838072D01*
X181324482Y-148825812D01*
X181444180Y-148789502D01*
X181554494Y-148730537D01*
X181651185Y-148651185D01*
X181730537Y-148554494D01*
X181789502Y-148444180D01*
X181825812Y-148324482D01*
X181838072Y-148200000D01*
X181838072Y-145800000D01*
X181825812Y-145675518D01*
X181789502Y-145555820D01*
X181730537Y-145445506D01*
X181651185Y-145348815D01*
X181554494Y-145269463D01*
X181444180Y-145210498D01*
X181324482Y-145174188D01*
X181200000Y-145161928D01*
X180782838Y-145161928D01*
X180869199Y-145126156D01*
X181169744Y-144925338D01*
X181425338Y-144669744D01*
X181626156Y-144369199D01*
X181764482Y-144035250D01*
X181835000Y-143680732D01*
X181835000Y-143319268D01*
X181764482Y-142964750D01*
X181626156Y-142630801D01*
X181425338Y-142330256D01*
X181169744Y-142074662D01*
X180869199Y-141873844D01*
X180570213Y-141750000D01*
X180869199Y-141626156D01*
X181169744Y-141425338D01*
X181425338Y-141169744D01*
X181626156Y-140869199D01*
X181764482Y-140535250D01*
X181835000Y-140180732D01*
X181835000Y-139819268D01*
X181764482Y-139464750D01*
X181626156Y-139130801D01*
X181425338Y-138830256D01*
X181169744Y-138574662D01*
X180869199Y-138373844D01*
X180570213Y-138250000D01*
X180869199Y-138126156D01*
X181169744Y-137925338D01*
X181425338Y-137669744D01*
X181626156Y-137369199D01*
X181764482Y-137035250D01*
X181835000Y-136680732D01*
X181835000Y-136319268D01*
X181764482Y-135964750D01*
X181626156Y-135630801D01*
X181425338Y-135330256D01*
X181169744Y-135074662D01*
X180869199Y-134873844D01*
X180535250Y-134735518D01*
X180180732Y-134665000D01*
X179819268Y-134665000D01*
X179464750Y-134735518D01*
X179130801Y-134873844D01*
X178830256Y-135074662D01*
X178574662Y-135330256D01*
X178384402Y-135615000D01*
X175875059Y-135615000D01*
X175769987Y-135457748D01*
X175542252Y-135230013D01*
X175274463Y-135051082D01*
X174976912Y-134927832D01*
X174661033Y-134865000D01*
X174338967Y-134865000D01*
X174023088Y-134927832D01*
X173725537Y-135051082D01*
X173457748Y-135230013D01*
X173230013Y-135457748D01*
X173051082Y-135725537D01*
X172927832Y-136023088D01*
X172865000Y-136338967D01*
X170465683Y-136338967D01*
X170515000Y-136091033D01*
X170515000Y-135768967D01*
X170452168Y-135453088D01*
X170328918Y-135155537D01*
X170149987Y-134887748D01*
X169922252Y-134660013D01*
X169922233Y-134660000D01*
X169922252Y-134659987D01*
X170149987Y-134432252D01*
X170328918Y-134164463D01*
X170452168Y-133866912D01*
X170515000Y-133551033D01*
X170515000Y-133228967D01*
X170452168Y-132913088D01*
X170328918Y-132615537D01*
X170149987Y-132347748D01*
X169922252Y-132120013D01*
X169922233Y-132120000D01*
X169922252Y-132119987D01*
X170057189Y-131985050D01*
X173544555Y-131985050D01*
X173640258Y-132249399D01*
X173929787Y-132390238D01*
X174241229Y-132471885D01*
X174562615Y-132491205D01*
X174881595Y-132447454D01*
X175185911Y-132342314D01*
X175359742Y-132249399D01*
X175455445Y-131985050D01*
X174500000Y-131029605D01*
X173544555Y-131985050D01*
X170057189Y-131985050D01*
X170149987Y-131892252D01*
X170328918Y-131624463D01*
X170452168Y-131326912D01*
X170515000Y-131011033D01*
X170515000Y-130912615D01*
X172858795Y-130912615D01*
X172902546Y-131231595D01*
X173007686Y-131535911D01*
X173100601Y-131709742D01*
X173364950Y-131805445D01*
X174320395Y-130850000D01*
X174679605Y-130850000D01*
X175635050Y-131805445D01*
X175899399Y-131709742D01*
X176040238Y-131420213D01*
X176121885Y-131108771D01*
X176141205Y-130787385D01*
X176097454Y-130468405D01*
X175992314Y-130164089D01*
X175899399Y-129990258D01*
X175635050Y-129894555D01*
X174679605Y-130850000D01*
X174320395Y-130850000D01*
X173364950Y-129894555D01*
X173100601Y-129990258D01*
X172959762Y-130279787D01*
X172878115Y-130591229D01*
X172858795Y-130912615D01*
X170515000Y-130912615D01*
X170515000Y-130688967D01*
X170452168Y-130373088D01*
X170328918Y-130075537D01*
X170149987Y-129807748D01*
X169922252Y-129580013D01*
X169922233Y-129580000D01*
X169922252Y-129579987D01*
X170057189Y-129445050D01*
X173544555Y-129445050D01*
X173593411Y-129580000D01*
X173544555Y-129714950D01*
X174500000Y-130670395D01*
X175455445Y-129714950D01*
X175406589Y-129580000D01*
X175455445Y-129445050D01*
X174500000Y-128489605D01*
X173544555Y-129445050D01*
X170057189Y-129445050D01*
X170149987Y-129352252D01*
X170328918Y-129084463D01*
X170452168Y-128786912D01*
X170515000Y-128471033D01*
X170515000Y-128372615D01*
X172858795Y-128372615D01*
X172902546Y-128691595D01*
X173007686Y-128995911D01*
X173100601Y-129169742D01*
X173364950Y-129265445D01*
X174320395Y-128310000D01*
X174679605Y-128310000D01*
X175635050Y-129265445D01*
X175899399Y-129169742D01*
X176040238Y-128880213D01*
X176063961Y-128789721D01*
X182865000Y-128789721D01*
X182865000Y-129210279D01*
X182947047Y-129622756D01*
X183107988Y-130011302D01*
X183341637Y-130360983D01*
X183639017Y-130658363D01*
X183988698Y-130892012D01*
X184377244Y-131052953D01*
X184789721Y-131135000D01*
X185210279Y-131135000D01*
X185622756Y-131052953D01*
X186011302Y-130892012D01*
X186360983Y-130658363D01*
X186658363Y-130360983D01*
X186892012Y-130011302D01*
X187052953Y-129622756D01*
X187135000Y-129210279D01*
X187135000Y-128789721D01*
X187052953Y-128377244D01*
X186892012Y-127988698D01*
X186658363Y-127639017D01*
X186360983Y-127341637D01*
X186011302Y-127107988D01*
X185622756Y-126947047D01*
X185210279Y-126865000D01*
X184789721Y-126865000D01*
X184377244Y-126947047D01*
X183988698Y-127107988D01*
X183639017Y-127341637D01*
X183341637Y-127639017D01*
X183107988Y-127988698D01*
X182947047Y-128377244D01*
X182865000Y-128789721D01*
X176063961Y-128789721D01*
X176121885Y-128568771D01*
X176141205Y-128247385D01*
X176097454Y-127928405D01*
X175992314Y-127624089D01*
X175899399Y-127450258D01*
X175635050Y-127354555D01*
X174679605Y-128310000D01*
X174320395Y-128310000D01*
X173364950Y-127354555D01*
X173100601Y-127450258D01*
X172959762Y-127739787D01*
X172878115Y-128051229D01*
X172858795Y-128372615D01*
X170515000Y-128372615D01*
X170515000Y-128148967D01*
X170452168Y-127833088D01*
X170328918Y-127535537D01*
X170149987Y-127267748D01*
X170057189Y-127174950D01*
X173544555Y-127174950D01*
X174500000Y-128130395D01*
X175455445Y-127174950D01*
X175359742Y-126910601D01*
X175070213Y-126769762D01*
X174758771Y-126688115D01*
X174437385Y-126668795D01*
X174118405Y-126712546D01*
X173814089Y-126817686D01*
X173640258Y-126910601D01*
X173544555Y-127174950D01*
X170057189Y-127174950D01*
X169922252Y-127040013D01*
X169922233Y-127040000D01*
X169922252Y-127039987D01*
X170149987Y-126812252D01*
X170328918Y-126544463D01*
X170452168Y-126246912D01*
X170515000Y-125931033D01*
X170515000Y-125608967D01*
X170452168Y-125293088D01*
X170328918Y-124995537D01*
X170149987Y-124727748D01*
X169922252Y-124500013D01*
X169922233Y-124500000D01*
X169922252Y-124499987D01*
X170149987Y-124272252D01*
X170328918Y-124004463D01*
X170452168Y-123706912D01*
X170515000Y-123391033D01*
X170515000Y-123068967D01*
X170452168Y-122753088D01*
X170328918Y-122455537D01*
X170149987Y-122187748D01*
X169922252Y-121960013D01*
X169922233Y-121960000D01*
X169922252Y-121959987D01*
X170149987Y-121732252D01*
X170328918Y-121464463D01*
X170452168Y-121166912D01*
X170515000Y-120851033D01*
X170515000Y-120528967D01*
X170452168Y-120213088D01*
X170328918Y-119915537D01*
X170149987Y-119647748D01*
X169922252Y-119420013D01*
X169922233Y-119420000D01*
X169922252Y-119419987D01*
X170149987Y-119192252D01*
X170328918Y-118924463D01*
X170452168Y-118626912D01*
X170515000Y-118311033D01*
X170515000Y-117988967D01*
X170452168Y-117673088D01*
X170328918Y-117375537D01*
X170149987Y-117107748D01*
X169922252Y-116880013D01*
X169922233Y-116880000D01*
X169922252Y-116879987D01*
X170149987Y-116652252D01*
X170328918Y-116384463D01*
X170452168Y-116086912D01*
X170515000Y-115771033D01*
X170515000Y-115448967D01*
X170452168Y-115133088D01*
X170328918Y-114835537D01*
X170149987Y-114567748D01*
X169922252Y-114340013D01*
X169922233Y-114340000D01*
X169922252Y-114339987D01*
X170149987Y-114112252D01*
X170328918Y-113844463D01*
X170452168Y-113546912D01*
X170515000Y-113231033D01*
X170515000Y-112908967D01*
X170452168Y-112593088D01*
X170328918Y-112295537D01*
X170149987Y-112027748D01*
X169922252Y-111800013D01*
X169654463Y-111621082D01*
X169356912Y-111497832D01*
X169041033Y-111435000D01*
X168718967Y-111435000D01*
X168403088Y-111497832D01*
X168105537Y-111621082D01*
X167837748Y-111800013D01*
X167610013Y-112027748D01*
X167610000Y-112027767D01*
X167609987Y-112027748D01*
X167382252Y-111800013D01*
X167114463Y-111621082D01*
X166816912Y-111497832D01*
X166501033Y-111435000D01*
X166178967Y-111435000D01*
X165863088Y-111497832D01*
X165565537Y-111621082D01*
X165297748Y-111800013D01*
X165070013Y-112027748D01*
X165070000Y-112027767D01*
X165069987Y-112027748D01*
X164842252Y-111800013D01*
X164574463Y-111621082D01*
X164276912Y-111497832D01*
X163961033Y-111435000D01*
X163638967Y-111435000D01*
X163323088Y-111497832D01*
X163025537Y-111621082D01*
X162757748Y-111800013D01*
X162530013Y-112027748D01*
X162530000Y-112027767D01*
X162529987Y-112027748D01*
X162302252Y-111800013D01*
X162167236Y-111709798D01*
X162206632Y-111683475D01*
X162413475Y-111476632D01*
X162575990Y-111233411D01*
X162687932Y-110963158D01*
X162712635Y-110838967D01*
X172865000Y-110838967D01*
X172865000Y-111161033D01*
X172927832Y-111476912D01*
X173051082Y-111774463D01*
X173230013Y-112042252D01*
X173457748Y-112269987D01*
X173725537Y-112448918D01*
X174023088Y-112572168D01*
X174338967Y-112635000D01*
X174661033Y-112635000D01*
X174976912Y-112572168D01*
X175274463Y-112448918D01*
X175542252Y-112269987D01*
X175769987Y-112042252D01*
X175875059Y-111885000D01*
X178384402Y-111885000D01*
X178574662Y-112169744D01*
X178830256Y-112425338D01*
X179130801Y-112626156D01*
X179429787Y-112750000D01*
X179130801Y-112873844D01*
X178830256Y-113074662D01*
X178574662Y-113330256D01*
X178384402Y-113615000D01*
X175875059Y-113615000D01*
X175769987Y-113457748D01*
X175542252Y-113230013D01*
X175274463Y-113051082D01*
X174976912Y-112927832D01*
X174661033Y-112865000D01*
X174338967Y-112865000D01*
X174023088Y-112927832D01*
X173725537Y-113051082D01*
X173457748Y-113230013D01*
X173230013Y-113457748D01*
X173051082Y-113725537D01*
X172927832Y-114023088D01*
X172865000Y-114338967D01*
X172865000Y-114661033D01*
X172927832Y-114976912D01*
X173051082Y-115274463D01*
X173230013Y-115542252D01*
X173457748Y-115769987D01*
X173725537Y-115948918D01*
X174023088Y-116072168D01*
X174338967Y-116135000D01*
X174661033Y-116135000D01*
X174976912Y-116072168D01*
X175274463Y-115948918D01*
X175542252Y-115769987D01*
X175769987Y-115542252D01*
X175875059Y-115385000D01*
X178384402Y-115385000D01*
X178574662Y-115669744D01*
X178830256Y-115925338D01*
X179130801Y-116126156D01*
X179429787Y-116250000D01*
X179130801Y-116373844D01*
X178830256Y-116574662D01*
X178574662Y-116830256D01*
X178384402Y-117115000D01*
X175875059Y-117115000D01*
X175769987Y-116957748D01*
X175542252Y-116730013D01*
X175274463Y-116551082D01*
X174976912Y-116427832D01*
X174661033Y-116365000D01*
X174338967Y-116365000D01*
X174023088Y-116427832D01*
X173725537Y-116551082D01*
X173457748Y-116730013D01*
X173230013Y-116957748D01*
X173051082Y-117225537D01*
X172927832Y-117523088D01*
X172865000Y-117838967D01*
X172865000Y-118161033D01*
X172927832Y-118476912D01*
X173051082Y-118774463D01*
X173230013Y-119042252D01*
X173457748Y-119269987D01*
X173725537Y-119448918D01*
X174023088Y-119572168D01*
X174338967Y-119635000D01*
X174661033Y-119635000D01*
X174976912Y-119572168D01*
X175274463Y-119448918D01*
X175542252Y-119269987D01*
X175769987Y-119042252D01*
X175875059Y-118885000D01*
X178384402Y-118885000D01*
X178574662Y-119169744D01*
X178830256Y-119425338D01*
X179130801Y-119626156D01*
X179217162Y-119661928D01*
X178800000Y-119661928D01*
X178675518Y-119674188D01*
X178555820Y-119710498D01*
X178445506Y-119769463D01*
X178348815Y-119848815D01*
X178269463Y-119945506D01*
X178210498Y-120055820D01*
X178174188Y-120175518D01*
X178161928Y-120300000D01*
X178161928Y-120615000D01*
X175875059Y-120615000D01*
X175769987Y-120457748D01*
X175542252Y-120230013D01*
X175274463Y-120051082D01*
X174976912Y-119927832D01*
X174661033Y-119865000D01*
X174338967Y-119865000D01*
X174023088Y-119927832D01*
X173725537Y-120051082D01*
X173457748Y-120230013D01*
X173230013Y-120457748D01*
X173051082Y-120725537D01*
X172927832Y-121023088D01*
X172865000Y-121338967D01*
X172865000Y-121661033D01*
X172927832Y-121976912D01*
X173051082Y-122274463D01*
X173230013Y-122542252D01*
X173457748Y-122769987D01*
X173725537Y-122948918D01*
X174023088Y-123072168D01*
X174338967Y-123135000D01*
X174661033Y-123135000D01*
X174976912Y-123072168D01*
X175274463Y-122948918D01*
X175542252Y-122769987D01*
X175769987Y-122542252D01*
X175875059Y-122385000D01*
X178161928Y-122385000D01*
X178161928Y-122700000D01*
X178174188Y-122824482D01*
X178210498Y-122944180D01*
X178269463Y-123054494D01*
X178348815Y-123151185D01*
X178445506Y-123230537D01*
X178555820Y-123289502D01*
X178675518Y-123325812D01*
X178800000Y-123338072D01*
X181200000Y-123338072D01*
X181324482Y-123325812D01*
X181444180Y-123289502D01*
X181554494Y-123230537D01*
X181651185Y-123151185D01*
X181730537Y-123054494D01*
X181789502Y-122944180D01*
X181825812Y-122824482D01*
X181838072Y-122700000D01*
X181838072Y-120300000D01*
X181825812Y-120175518D01*
X181789502Y-120055820D01*
X181730537Y-119945506D01*
X181651185Y-119848815D01*
X181554494Y-119769463D01*
X181444180Y-119710498D01*
X181324482Y-119674188D01*
X181200000Y-119661928D01*
X180782838Y-119661928D01*
X180869199Y-119626156D01*
X181169744Y-119425338D01*
X181425338Y-119169744D01*
X181626156Y-118869199D01*
X181764482Y-118535250D01*
X181835000Y-118180732D01*
X181835000Y-117819268D01*
X181764482Y-117464750D01*
X181626156Y-117130801D01*
X181425338Y-116830256D01*
X181169744Y-116574662D01*
X180869199Y-116373844D01*
X180570213Y-116250000D01*
X180869199Y-116126156D01*
X181169744Y-115925338D01*
X181425338Y-115669744D01*
X181626156Y-115369199D01*
X181764482Y-115035250D01*
X181835000Y-114680732D01*
X181835000Y-114319268D01*
X181764482Y-113964750D01*
X181626156Y-113630801D01*
X181425338Y-113330256D01*
X181169744Y-113074662D01*
X180869199Y-112873844D01*
X180570213Y-112750000D01*
X180869199Y-112626156D01*
X181169744Y-112425338D01*
X181425338Y-112169744D01*
X181626156Y-111869199D01*
X181764482Y-111535250D01*
X181835000Y-111180732D01*
X181835000Y-110819268D01*
X181764482Y-110464750D01*
X181626156Y-110130801D01*
X181425338Y-109830256D01*
X181169744Y-109574662D01*
X180869199Y-109373844D01*
X180535250Y-109235518D01*
X180180732Y-109165000D01*
X179819268Y-109165000D01*
X179464750Y-109235518D01*
X179130801Y-109373844D01*
X178830256Y-109574662D01*
X178574662Y-109830256D01*
X178384402Y-110115000D01*
X175875059Y-110115000D01*
X175769987Y-109957748D01*
X175542252Y-109730013D01*
X175274463Y-109551082D01*
X174976912Y-109427832D01*
X174661033Y-109365000D01*
X174338967Y-109365000D01*
X174023088Y-109427832D01*
X173725537Y-109551082D01*
X173457748Y-109730013D01*
X173230013Y-109957748D01*
X173051082Y-110225537D01*
X172927832Y-110523088D01*
X172865000Y-110838967D01*
X162712635Y-110838967D01*
X162745000Y-110676260D01*
X162745000Y-110383740D01*
X162687932Y-110096842D01*
X162575990Y-109826589D01*
X162413475Y-109583368D01*
X162206632Y-109376525D01*
X162032240Y-109260000D01*
X162206632Y-109143475D01*
X162413475Y-108936632D01*
X162575990Y-108693411D01*
X162687932Y-108423158D01*
X162745000Y-108136260D01*
X162745000Y-107843740D01*
X162687932Y-107556842D01*
X162575990Y-107286589D01*
X162413475Y-107043368D01*
X162206632Y-106836525D01*
X162145000Y-106795344D01*
X162145000Y-106644656D01*
X162206632Y-106603475D01*
X162413475Y-106396632D01*
X162575990Y-106153411D01*
X162687932Y-105883158D01*
X162706517Y-105789721D01*
X165365000Y-105789721D01*
X165365000Y-106210279D01*
X165447047Y-106622756D01*
X165607988Y-107011302D01*
X165841637Y-107360983D01*
X166139017Y-107658363D01*
X166488698Y-107892012D01*
X166877244Y-108052953D01*
X167289721Y-108135000D01*
X167710279Y-108135000D01*
X168122756Y-108052953D01*
X168511302Y-107892012D01*
X168860983Y-107658363D01*
X169158363Y-107360983D01*
X169392012Y-107011302D01*
X169552953Y-106622756D01*
X169635000Y-106210279D01*
X169635000Y-105789721D01*
X169552953Y-105377244D01*
X169392012Y-104988698D01*
X169158363Y-104639017D01*
X168860983Y-104341637D01*
X168511302Y-104107988D01*
X168122756Y-103947047D01*
X167710279Y-103865000D01*
X167289721Y-103865000D01*
X166877244Y-103947047D01*
X166488698Y-104107988D01*
X166139017Y-104341637D01*
X165841637Y-104639017D01*
X165607988Y-104988698D01*
X165447047Y-105377244D01*
X165365000Y-105789721D01*
X162706517Y-105789721D01*
X162745000Y-105596260D01*
X162745000Y-105303740D01*
X162687932Y-105016842D01*
X162575990Y-104746589D01*
X162413475Y-104503368D01*
X162206632Y-104296525D01*
X162167236Y-104270202D01*
X162302252Y-104179987D01*
X162529987Y-103952252D01*
X162708918Y-103684463D01*
X162832168Y-103386912D01*
X162895000Y-103071033D01*
X162895000Y-102748967D01*
X162832168Y-102433088D01*
X162708918Y-102135537D01*
X162529987Y-101867748D01*
X162302252Y-101640013D01*
X162034463Y-101461082D01*
X161736912Y-101337832D01*
X161421033Y-101275000D01*
X161098967Y-101275000D01*
X160783088Y-101337832D01*
X160485537Y-101461082D01*
X160217748Y-101640013D01*
X159990013Y-101867748D01*
X159990000Y-101867767D01*
X159989987Y-101867748D01*
X159762252Y-101640013D01*
X159494463Y-101461082D01*
X159196912Y-101337832D01*
X158881033Y-101275000D01*
X158558967Y-101275000D01*
X158243088Y-101337832D01*
X157945537Y-101461082D01*
X157677748Y-101640013D01*
X157450013Y-101867748D01*
X157450000Y-101867767D01*
X157449987Y-101867748D01*
X157222252Y-101640013D01*
X156954463Y-101461082D01*
X156656912Y-101337832D01*
X156341033Y-101275000D01*
X156018967Y-101275000D01*
X155703088Y-101337832D01*
X155405537Y-101461082D01*
X155137748Y-101640013D01*
X154910013Y-101867748D01*
X154910000Y-101867767D01*
X154909987Y-101867748D01*
X154682252Y-101640013D01*
X154414463Y-101461082D01*
X154116912Y-101337832D01*
X153801033Y-101275000D01*
X153478967Y-101275000D01*
X153163088Y-101337832D01*
X152865537Y-101461082D01*
X152597748Y-101640013D01*
X152370013Y-101867748D01*
X152370000Y-101867767D01*
X152369987Y-101867748D01*
X152142252Y-101640013D01*
X151874463Y-101461082D01*
X151576912Y-101337832D01*
X151261033Y-101275000D01*
X150938967Y-101275000D01*
X150623088Y-101337832D01*
X150325537Y-101461082D01*
X150057748Y-101640013D01*
X149830013Y-101867748D01*
X149830000Y-101867767D01*
X149829987Y-101867748D01*
X149602252Y-101640013D01*
X149334463Y-101461082D01*
X149036912Y-101337832D01*
X148721033Y-101275000D01*
X148398967Y-101275000D01*
X148083088Y-101337832D01*
X147785537Y-101461082D01*
X147517748Y-101640013D01*
X147290013Y-101867748D01*
X147290000Y-101867767D01*
X147289987Y-101867748D01*
X147062252Y-101640013D01*
X146794463Y-101461082D01*
X146496912Y-101337832D01*
X146181033Y-101275000D01*
X145858967Y-101275000D01*
X145543088Y-101337832D01*
X145245537Y-101461082D01*
X144977748Y-101640013D01*
X144750013Y-101867748D01*
X144750000Y-101867767D01*
X144749987Y-101867748D01*
X144522252Y-101640013D01*
X144254463Y-101461082D01*
X143956912Y-101337832D01*
X143641033Y-101275000D01*
X143318967Y-101275000D01*
X143003088Y-101337832D01*
X142705537Y-101461082D01*
X142437748Y-101640013D01*
X142210013Y-101867748D01*
X142210000Y-101867767D01*
X142209987Y-101867748D01*
X141982252Y-101640013D01*
X141714463Y-101461082D01*
X141416912Y-101337832D01*
X141101033Y-101275000D01*
X140778967Y-101275000D01*
X140463088Y-101337832D01*
X140165537Y-101461082D01*
X139897748Y-101640013D01*
X139670013Y-101867748D01*
X139670000Y-101867767D01*
X139669987Y-101867748D01*
X139442252Y-101640013D01*
X139174463Y-101461082D01*
X138876912Y-101337832D01*
X138561033Y-101275000D01*
X138238967Y-101275000D01*
X137923088Y-101337832D01*
X137625537Y-101461082D01*
X137357748Y-101640013D01*
X137130013Y-101867748D01*
X137130000Y-101867767D01*
X137129987Y-101867748D01*
X136902252Y-101640013D01*
X136634463Y-101461082D01*
X136336912Y-101337832D01*
X136021033Y-101275000D01*
X135698967Y-101275000D01*
X135383088Y-101337832D01*
X135085537Y-101461082D01*
X134817748Y-101640013D01*
X134590013Y-101867748D01*
X134590000Y-101867767D01*
X134589987Y-101867748D01*
X134362252Y-101640013D01*
X134094463Y-101461082D01*
X133796912Y-101337832D01*
X133481033Y-101275000D01*
X133158967Y-101275000D01*
X132843088Y-101337832D01*
X132545537Y-101461082D01*
X132277748Y-101640013D01*
X132050013Y-101867748D01*
X132050000Y-101867767D01*
X132049987Y-101867748D01*
X131822252Y-101640013D01*
X131554463Y-101461082D01*
X131256912Y-101337832D01*
X130941033Y-101275000D01*
X130618967Y-101275000D01*
X130303088Y-101337832D01*
X130005537Y-101461082D01*
X129737748Y-101640013D01*
X129510013Y-101867748D01*
X129510000Y-101867767D01*
X129509987Y-101867748D01*
X129282252Y-101640013D01*
X129014463Y-101461082D01*
X128716912Y-101337832D01*
X128401033Y-101275000D01*
X128078967Y-101275000D01*
X127763088Y-101337832D01*
X127465537Y-101461082D01*
X127197748Y-101640013D01*
X126970013Y-101867748D01*
X126970000Y-101867767D01*
X126969987Y-101867748D01*
X126742252Y-101640013D01*
X126474463Y-101461082D01*
X126176912Y-101337832D01*
X125861033Y-101275000D01*
X125538967Y-101275000D01*
X125223088Y-101337832D01*
X124925537Y-101461082D01*
X124657748Y-101640013D01*
X124430013Y-101867748D01*
X124430000Y-101867767D01*
X124429987Y-101867748D01*
X124202252Y-101640013D01*
X123934463Y-101461082D01*
X123636912Y-101337832D01*
X123321033Y-101275000D01*
X122998967Y-101275000D01*
X122683088Y-101337832D01*
X122385537Y-101461082D01*
X122117748Y-101640013D01*
X121890013Y-101867748D01*
X121890000Y-101867767D01*
X121889987Y-101867748D01*
X121662252Y-101640013D01*
X121394463Y-101461082D01*
X121096912Y-101337832D01*
X120781033Y-101275000D01*
X120458967Y-101275000D01*
X120143088Y-101337832D01*
X119845537Y-101461082D01*
X119577748Y-101640013D01*
X119350013Y-101867748D01*
X119350000Y-101867767D01*
X119349987Y-101867748D01*
X119122252Y-101640013D01*
X118854463Y-101461082D01*
X118556912Y-101337832D01*
X118241033Y-101275000D01*
X117918967Y-101275000D01*
X117603088Y-101337832D01*
X117305537Y-101461082D01*
X117037748Y-101640013D01*
X116810013Y-101867748D01*
X116810000Y-101867767D01*
X116809987Y-101867748D01*
X116582252Y-101640013D01*
X116314463Y-101461082D01*
X116016912Y-101337832D01*
X115701033Y-101275000D01*
X115378967Y-101275000D01*
X115063088Y-101337832D01*
X114765537Y-101461082D01*
X114497748Y-101640013D01*
X114270013Y-101867748D01*
X114270000Y-101867767D01*
X114269987Y-101867748D01*
X114042252Y-101640013D01*
X113774463Y-101461082D01*
X113476912Y-101337832D01*
X113161033Y-101275000D01*
X112838967Y-101275000D01*
X112523088Y-101337832D01*
X112225537Y-101461082D01*
X111957748Y-101640013D01*
X111730013Y-101867748D01*
X111551082Y-102135537D01*
X111427832Y-102433088D01*
X111365000Y-102748967D01*
X111365000Y-103071033D01*
X111427832Y-103386912D01*
X111551082Y-103684463D01*
X111730013Y-103952252D01*
X111829209Y-104051448D01*
X111795506Y-104069463D01*
X111698815Y-104148815D01*
X111619463Y-104245506D01*
X111560498Y-104355820D01*
X111524188Y-104475518D01*
X111511928Y-104600000D01*
X111511928Y-106300000D01*
X111524188Y-106424482D01*
X111560498Y-106544180D01*
X111619463Y-106654494D01*
X111673222Y-106720000D01*
X111619463Y-106785506D01*
X111560498Y-106895820D01*
X111524188Y-107015518D01*
X111511928Y-107140000D01*
X111511928Y-108840000D01*
X111524188Y-108964482D01*
X111560498Y-109084180D01*
X111619463Y-109194494D01*
X111673222Y-109260000D01*
X111619463Y-109325506D01*
X111560498Y-109435820D01*
X111524188Y-109555518D01*
X111511928Y-109680000D01*
X111511928Y-111380000D01*
X111524188Y-111504482D01*
X111560498Y-111624180D01*
X111619463Y-111734494D01*
X111698815Y-111831185D01*
X111795506Y-111910537D01*
X111829209Y-111928552D01*
X111730013Y-112027748D01*
X111551082Y-112295537D01*
X111427832Y-112593088D01*
X111365000Y-112908967D01*
X111365000Y-113231033D01*
X111427832Y-113546912D01*
X111551082Y-113844463D01*
X111730013Y-114112252D01*
X111957748Y-114339987D01*
X111957767Y-114340000D01*
X111957748Y-114340013D01*
X111730013Y-114567748D01*
X111551082Y-114835537D01*
X111427832Y-115133088D01*
X111365000Y-115448967D01*
X111365000Y-115771033D01*
X111427832Y-116086912D01*
X111551082Y-116384463D01*
X111730013Y-116652252D01*
X111957748Y-116879987D01*
X111957767Y-116880000D01*
X111957748Y-116880013D01*
X111730013Y-117107748D01*
X111551082Y-117375537D01*
X111427832Y-117673088D01*
X111365000Y-117988967D01*
X111365000Y-118311033D01*
X111427832Y-118626912D01*
X111551082Y-118924463D01*
X111730013Y-119192252D01*
X111957748Y-119419987D01*
X111957767Y-119420000D01*
X111957748Y-119420013D01*
X111730013Y-119647748D01*
X111551082Y-119915537D01*
X111427832Y-120213088D01*
X111365000Y-120528967D01*
X111365000Y-120851033D01*
X111427832Y-121166912D01*
X111551082Y-121464463D01*
X111730013Y-121732252D01*
X111829209Y-121831448D01*
X111795506Y-121849463D01*
X111698815Y-121928815D01*
X111619463Y-122025506D01*
X111560498Y-122135820D01*
X111524188Y-122255518D01*
X111511928Y-122380000D01*
X111511928Y-124080000D01*
X111524188Y-124204482D01*
X111560498Y-124324180D01*
X111619463Y-124434494D01*
X111673222Y-124500000D01*
X111619463Y-124565506D01*
X111560498Y-124675820D01*
X111524188Y-124795518D01*
X111511928Y-124920000D01*
X111511928Y-126620000D01*
X111524188Y-126744482D01*
X111560498Y-126864180D01*
X111619463Y-126974494D01*
X111673222Y-127040000D01*
X111619463Y-127105506D01*
X111560498Y-127215820D01*
X111524188Y-127335518D01*
X111511928Y-127460000D01*
X111511928Y-129160000D01*
X111524188Y-129284482D01*
X111560498Y-129404180D01*
X111619463Y-129514494D01*
X111673222Y-129580000D01*
X111619463Y-129645506D01*
X111560498Y-129755820D01*
X111524188Y-129875518D01*
X111511928Y-130000000D01*
X111511928Y-131700000D01*
X111524188Y-131824482D01*
X111560498Y-131944180D01*
X111619463Y-132054494D01*
X111673222Y-132120000D01*
X111619463Y-132185506D01*
X111560498Y-132295820D01*
X111524188Y-132415518D01*
X111511928Y-132540000D01*
X111511928Y-134240000D01*
X111524188Y-134364482D01*
X111560498Y-134484180D01*
X111619463Y-134594494D01*
X111698815Y-134691185D01*
X111795506Y-134770537D01*
X111829209Y-134788552D01*
X111730013Y-134887748D01*
X111551082Y-135155537D01*
X111427832Y-135453088D01*
X111365000Y-135768967D01*
X111365000Y-136091033D01*
X111427832Y-136406912D01*
X111551082Y-136704463D01*
X111730013Y-136972252D01*
X111957748Y-137199987D01*
X111957767Y-137200000D01*
X111957748Y-137200013D01*
X111730013Y-137427748D01*
X111551082Y-137695537D01*
X111427832Y-137993088D01*
X111365000Y-138308967D01*
X111365000Y-138631033D01*
X111427832Y-138946912D01*
X111551082Y-139244463D01*
X111730013Y-139512252D01*
X111957748Y-139739987D01*
X111957767Y-139740000D01*
X111957748Y-139740013D01*
X111730013Y-139967748D01*
X111551082Y-140235537D01*
X111427832Y-140533088D01*
X111365000Y-140848967D01*
X111365000Y-141171033D01*
X111427832Y-141486912D01*
X111551082Y-141784463D01*
X111730013Y-142052252D01*
X111957748Y-142279987D01*
X111957767Y-142280000D01*
X111957748Y-142280013D01*
X111730013Y-142507748D01*
X111551082Y-142775537D01*
X111427832Y-143073088D01*
X111365000Y-143388967D01*
X111365000Y-143711033D01*
X111427832Y-144026912D01*
X111551082Y-144324463D01*
X111730013Y-144592252D01*
X111957748Y-144819987D01*
X111957767Y-144820000D01*
X111957748Y-144820013D01*
X111730013Y-145047748D01*
X111551082Y-145315537D01*
X111427832Y-145613088D01*
X111365000Y-145928967D01*
X111365000Y-146251033D01*
X111427832Y-146566912D01*
X111551082Y-146864463D01*
X111730013Y-147132252D01*
X111957748Y-147359987D01*
X111957767Y-147360000D01*
X111957748Y-147360013D01*
X111730013Y-147587748D01*
X111551082Y-147855537D01*
X111427832Y-148153088D01*
X111365000Y-148468967D01*
X111365000Y-148791033D01*
X111427832Y-149106912D01*
X111551082Y-149404463D01*
X111730013Y-149672252D01*
X111957748Y-149899987D01*
X111957767Y-149900000D01*
X111957748Y-149900013D01*
X111730013Y-150127748D01*
X111551082Y-150395537D01*
X111427832Y-150693088D01*
X111365000Y-151008967D01*
X111365000Y-151331033D01*
X111427832Y-151646912D01*
X111551082Y-151944463D01*
X111730013Y-152212252D01*
X111957748Y-152439987D01*
X111957767Y-152440000D01*
X111957748Y-152440013D01*
X111730013Y-152667748D01*
X111551082Y-152935537D01*
X111427832Y-153233088D01*
X111365000Y-153548967D01*
X111365000Y-153871033D01*
X111427832Y-154186912D01*
X111551082Y-154484463D01*
X111730013Y-154752252D01*
X111957748Y-154979987D01*
X111957767Y-154980000D01*
X111957748Y-154980013D01*
X111730013Y-155207748D01*
X111551082Y-155475537D01*
X111427832Y-155773088D01*
X111365000Y-156088967D01*
X111365000Y-156411033D01*
X111427832Y-156726912D01*
X111551082Y-157024463D01*
X111730013Y-157292252D01*
X111777761Y-157340000D01*
X110638867Y-157340000D01*
X110637016Y-157320412D01*
X110635063Y-157289375D01*
X110477669Y-156043467D01*
X110462138Y-155962052D01*
X110462138Y-155962051D01*
X110149830Y-154745694D01*
X110124218Y-154666867D01*
X110124216Y-154666862D01*
X109661924Y-153499245D01*
X109626634Y-153424250D01*
X109626627Y-153424238D01*
X109021641Y-152323774D01*
X108977230Y-152253793D01*
X108977224Y-152253786D01*
X108239091Y-151237833D01*
X108239084Y-151237822D01*
X108186251Y-151173959D01*
X107326598Y-150258522D01*
X107326591Y-150258513D01*
X107266171Y-150201775D01*
X106298553Y-149401291D01*
X106231499Y-149352573D01*
X106231487Y-149352567D01*
X105171194Y-148679684D01*
X105171183Y-148679676D01*
X105098551Y-148639747D01*
X103962267Y-148105052D01*
X103962261Y-148105049D01*
X103940403Y-148096395D01*
X103885197Y-148074537D01*
X103885182Y-148074533D01*
X102690864Y-147686476D01*
X102690850Y-147686470D01*
X102610571Y-147665858D01*
X101377007Y-147430544D01*
X101377004Y-147430543D01*
X101294774Y-147420155D01*
X100660000Y-147380218D01*
X100660000Y-128789721D01*
X102865000Y-128789721D01*
X102865000Y-129210279D01*
X102947047Y-129622756D01*
X103107988Y-130011302D01*
X103341637Y-130360983D01*
X103639017Y-130658363D01*
X103988698Y-130892012D01*
X104377244Y-131052953D01*
X104789721Y-131135000D01*
X105210279Y-131135000D01*
X105622756Y-131052953D01*
X106011302Y-130892012D01*
X106360983Y-130658363D01*
X106658363Y-130360983D01*
X106892012Y-130011302D01*
X107052953Y-129622756D01*
X107135000Y-129210279D01*
X107135000Y-128789721D01*
X107052953Y-128377244D01*
X106892012Y-127988698D01*
X106658363Y-127639017D01*
X106360983Y-127341637D01*
X106011302Y-127107988D01*
X105622756Y-126947047D01*
X105210279Y-126865000D01*
X104789721Y-126865000D01*
X104377244Y-126947047D01*
X103988698Y-127107988D01*
X103639017Y-127341637D01*
X103341637Y-127639017D01*
X103107988Y-127988698D01*
X102947047Y-128377244D01*
X102865000Y-128789721D01*
X100660000Y-128789721D01*
X100660000Y-110638867D01*
X100679588Y-110637016D01*
X100710625Y-110635063D01*
X101956531Y-110477669D01*
X101956533Y-110477669D01*
X102037949Y-110462138D01*
X103254306Y-110149830D01*
X103333133Y-110124218D01*
X103333138Y-110124216D01*
X104500750Y-109661926D01*
X104500756Y-109661924D01*
X104536046Y-109645317D01*
X104575750Y-109626634D01*
X104575755Y-109626631D01*
X105676213Y-109021648D01*
X105676226Y-109021642D01*
X105719037Y-108994472D01*
X105746207Y-108977230D01*
X105746214Y-108977224D01*
X106762179Y-108239083D01*
X106826042Y-108186251D01*
X106826049Y-108186243D01*
X107741478Y-107326598D01*
X107741487Y-107326591D01*
X107798225Y-107266171D01*
X108598701Y-106298562D01*
X108598709Y-106298553D01*
X108647426Y-106231499D01*
X109320319Y-105171190D01*
X109320324Y-105171183D01*
X109360253Y-105098551D01*
X109894951Y-103962261D01*
X109925463Y-103885197D01*
X109925467Y-103885182D01*
X110313524Y-102690864D01*
X110313530Y-102690850D01*
X110334142Y-102610570D01*
X110569457Y-101377003D01*
X110570939Y-101365274D01*
X110579845Y-101294774D01*
X110619782Y-100660000D01*
X179361133Y-100660000D01*
X179362984Y-100679588D01*
M02*
