<?xml version="1.0" standalone="no"?>
 <!DOCTYPE svg PUBLIC "-//W3C//DTD SVG 1.1//EN" 
 "http://www.w3.org/Graphics/SVG/1.1/DTD/svg11.dtd"> 
<svg xmlns="http://www.w3.org/2000/svg" version="1.1" 
    width="29.7002cm" height="21.0007cm" viewBox="0 0 116930 82680 ">
<title>SVG Picture created as MCU_PROTO_100x68mm-B_SilkS.svg date 2022/02/16 21:25:30 </title>
  <desc>Picture generated by PCBNEW </desc>
<g style="fill:#000000; fill-opacity:1;stroke:#000000; stroke-opacity:1;
stroke-linecap:round; stroke-linejoin:round; "
 transform="translate(0 0) scale(1 1)">
</g>
<g style="fill:#000000; fill-opacity:0.0; 
stroke:#000000; stroke-width:-0.000393701; stroke-opacity:1; 
stroke-linecap:round; stroke-linejoin:round;">
</g>
<g style="fill:#000000; fill-opacity:0.0; 
stroke:#000000; stroke-width:59.0551; stroke-opacity:1; 
stroke-linecap:round; stroke-linejoin:round;">
<g transform="rotate(-90 41885 55445)">
<text x="41885" y="55602.5"
textLength="-5532.53" font-size="-419.947" lengthAdjust="spacingAndGlyphs"
text-anchor="middle" opacity="0">MCU PROTO 100x68mm</text>
</g>
<path d="M42027 52715
L41712 52715
L41937 52820
L41712 52925
L42027 52925
" />
<path d="M41997 53255
L42012 53240
L42027 53195
L42027 53165
L42012 53120
L41982 53090
L41952 53075
L41892 53060
L41847 53060
L41787 53075
L41757 53090
L41727 53120
L41712 53165
L41712 53195
L41727 53240
L41742 53255
" />
<path d="M41712 53390
L41967 53390
L41997 53405
L42012 53420
L42027 53450
L42027 53510
L42012 53540
L41997 53555
L41967 53570
L41712 53570
" />
<path d="M42027 53960
L41712 53960
L41712 54080
L41727 54110
L41742 54125
L41772 54140
L41817 54140
L41847 54125
L41862 54110
L41877 54080
L41877 53960
" />
<path d="M42027 54455
L41877 54350
" />
<path d="M42027 54275
L41712 54275
L41712 54395
L41727 54425
L41742 54440
L41772 54455
L41817 54455
L41847 54440
L41862 54425
L41877 54395
L41877 54275
" />
<path d="M41712 54650
L41712 54710
L41727 54740
L41757 54770
L41817 54785
L41922 54785
L41982 54770
L42012 54740
L42027 54710
L42027 54650
L42012 54620
L41982 54590
L41922 54575
L41817 54575
L41757 54590
L41727 54620
L41712 54650
" />
<path d="M41712 54875
L41712 55055
" />
<path d="M42027 54965
L41712 54965
" />
<path d="M41712 55220
L41712 55280
L41727 55310
L41757 55340
L41817 55355
L41922 55355
L41982 55340
L42012 55310
L42027 55280
L42027 55220
L42012 55190
L41982 55160
L41922 55145
L41817 55145
L41757 55160
L41727 55190
L41712 55220
" />
<path d="M42027 55894
L42027 55714
" />
<path d="M42027 55804
L41712 55804
L41757 55774
L41787 55744
L41802 55714
" />
<path d="M41712 56089
L41712 56119
L41727 56149
L41742 56164
L41772 56179
L41832 56194
L41907 56194
L41967 56179
L41997 56164
L42012 56149
L42027 56119
L42027 56089
L42012 56059
L41997 56044
L41967 56029
L41907 56014
L41832 56014
L41772 56029
L41742 56044
L41727 56059
L41712 56089
" />
<path d="M41712 56389
L41712 56419
L41727 56449
L41742 56464
L41772 56479
L41832 56494
L41907 56494
L41967 56479
L41997 56464
L42012 56449
L42027 56419
L42027 56389
L42012 56359
L41997 56344
L41967 56329
L41907 56314
L41832 56314
L41772 56329
L41742 56344
L41727 56359
L41712 56389
" />
<path d="M42027 56599
L41817 56764
" />
<path d="M41817 56599
L42027 56764
" />
<path d="M41712 57019
L41712 56959
L41727 56929
L41742 56914
L41787 56884
L41847 56869
L41967 56869
L41997 56884
L42012 56899
L42027 56929
L42027 56989
L42012 57019
L41997 57034
L41967 57049
L41892 57049
L41862 57034
L41847 57019
L41832 56989
L41832 56929
L41847 56899
L41862 56884
L41892 56869
" />
<path d="M41847 57229
L41832 57199
L41817 57184
L41787 57169
L41772 57169
L41742 57184
L41727 57199
L41712 57229
L41712 57289
L41727 57319
L41742 57334
L41772 57349
L41787 57349
L41817 57334
L41832 57319
L41847 57289
L41847 57229
L41862 57199
L41877 57184
L41907 57169
L41967 57169
L41997 57184
L42012 57199
L42027 57229
L42027 57289
L42012 57319
L41997 57334
L41967 57349
L41907 57349
L41877 57334
L41862 57319
L41847 57289
" />
<path d="M42027 57484
L41817 57484
" />
<path d="M41847 57484
L41832 57499
L41817 57529
L41817 57574
L41832 57604
L41862 57619
L42027 57619
" />
<path d="M41862 57619
L41832 57634
L41817 57664
L41817 57709
L41832 57739
L41862 57754
L42027 57754
" />
<path d="M42027 57904
L41817 57904
" />
<path d="M41847 57904
L41832 57919
L41817 57949
L41817 57994
L41832 58024
L41862 58039
L42027 58039
" />
<path d="M41862 58039
L41832 58054
L41817 58084
L41817 58129
L41832 58159
L41862 58174
L42027 58174
" />
</g>
<g style="fill:#000000; fill-opacity:0.0; 
stroke:#000000; stroke-width:19.685; stroke-opacity:1; 
stroke-linecap:round; stroke-linejoin:round;">
<path d="M74803.1 58267.7 A3937.01 3937.01 0.0 0 0 70866.1 62204.7 " />
<path d="M70866.1 39370.1 A3937.01 3937.01 0.0 0 0 74803.1 43307.1 " />
<path d="M43307.1 62204.7 A3937.01 3937.01 0.0 0 0 39370.1 58267.7 " />
<path d="M39370.1 43307.1 A3937.01 3937.01 0.0 0 0 43307.1 39370.1 " />
<path d="M74803 43307
L74803 58267
" />
<path d="M39370 43307
L39370 58267
" />
<path d="M43307 62204
L70866 62204
" />
<path d="M43307 39370
L70866 39370
" />
<g >
</g>
<g >
</g>
<g >
</g>
<g >
</g>
<g >
</g>
<g >
</g>
<g >
</g>
<g >
</g>
<g >
</g>
<g >
</g>
<g >
</g>
<g >
</g>
<g >
</g>
<g >
</g>
<g >
</g>
<g >
</g>
<g >
</g>
<g >
</g>
<g >
</g>
<g >
</g>
<g >
</g>
<g >
</g>
<g >
</g>
<g >
</g>
<g >
</g>
<g >
</g>
<g >
</g>
<g >
</g>
<g >
</g>
<g >
</g>
<g >
</g>
<g >
</g>
<g >
</g>
<g >
</g>
<g >
</g>
<g >
</g>
<g >
</g>
<g >
</g>
<g >
</g>
<g >
</g>
<g >
</g>
<g >
</g>
<g >
</g>
<g >
</g>
<g >
</g>
<g >
</g>
<g >
</g>
<g >
</g>
<g >
</g>
<g >
</g>
<g >
</g>
<g >
</g>
<g >
</g>
<g >
</g>
<g >
</g>
<g >
</g>
<g >
</g>
<g >
</g>
<g >
</g>
<g >
</g>
<g >
</g>
<g >
</g>
<g >
</g>
<g >
</g>
<g >
</g>
<g >
</g>
<g >
</g>
<g >
</g>
<g >
</g>
<g >
</g>
<g >
</g>
<g >
</g>
<g >
</g>
<g >
</g>
<g >
</g>
<g >
</g>
<g >
</g>
<g >
</g>
<g >
</g>
<g >
</g>
<g >
</g>
<g >
</g>
<g >
</g>
<g >
</g>
<g >
</g>
<g >
</g>
<g >
</g>
<g >
</g>
<g >
</g>
<g >
</g>
<g >
</g>
<g >
</g>
<g >
</g>
<g >
</g>
<g >
</g>
<g >
</g>
<g >
</g>
<g >
</g>
<g >
</g>
<g >
</g>
<g >
</g>
<g >
</g>
<g >
</g>
<g >
</g>
<g >
</g>
<g >
</g>
<g >
</g>
<g >
</g>
<g >
</g>
<g >
</g>
<g >
</g>
<g >
</g>
<g >
</g>
<g >
</g>
<g >
</g>
<g >
</g>
<g >
</g>
<g >
</g>
<g >
</g>
<g >
</g>
<g >
</g>
<g >
</g>
<g >
</g>
<g >
</g>
<g >
</g>
<g >
</g>
<g >
</g>
<g >
</g>
<g >
</g>
<g >
</g>
<g >
</g>
<g >
</g>
<g >
</g>
<g >
</g>
<g >
</g>
<g >
</g>
<g >
</g>
<g >
</g>
<g >
</g>
<g >
</g>
<g >
</g>
<g >
</g>
<g >
</g>
<g >
</g>
<g >
</g>
<g >
</g>
<g >
</g>
<g >
</g>
<g >
</g>
<g >
</g>
<g >
</g>
<g >
</g>
<g >
</g>
<g >
</g>
<g >
</g>
<g >
</g>
<g >
</g>
<g >
</g>
<g >
</g>
<g >
</g>
<g >
</g>
<g >
</g>
<g >
</g>
<g >
</g>
<g >
</g>
<g >
</g>
<g >
</g>
<g >
</g>
<g >
</g>
<g >
</g>
<g >
</g>
<g >
</g>
<g >
</g>
<g >
</g>
<g >
</g>
<g >
</g>
<g >
</g>
<g >
</g>
<g >
</g>
<g >
</g>
<g >
</g>
<g >
</g>
<g >
</g>
<g >
</g>
<g >
</g>
<g >
</g>
<g >
</g>
<g >
</g>
<g >
</g>
<g >
</g>
<g >
</g>
<g >
</g>
<g >
</g>
<g >
</g>
<g >
</g>
<g >
</g>
<g >
</g>
<g >
</g>
<g >
</g>
<g >
</g>
<g >
</g>
<g >
</g>
<g >
</g>
<g >
</g>
<g >
</g>
<g >
</g>
<g >
</g>
<g >
</g>
<g >
</g>
<g >
</g>
<g >
</g>
<g >
</g>
<g >
</g>
<g >
</g>
<g >
</g>
<g >
</g>
<g >
</g>
<g >
</g>
<g >
</g>
<g >
</g>
<g >
</g>
<g >
</g>
<g >
</g>
<g >
</g>
<g >
</g>
<g >
</g>
<g >
</g>
<g >
</g>
<g >
</g>
<g >
</g>
<g >
</g>
<g >
</g>
<g >
</g>
<g >
</g>
<g >
</g>
<g >
</g>
<g >
</g>
<g >
</g>
<g >
</g>
<g >
</g>
<g >
</g>
<g >
</g>
<g >
</g>
<g >
</g>
<g >
</g>
<g >
</g>
<g >
</g>
<g >
</g>
<g >
</g>
<g >
</g>
<g >
</g>
<g >
</g>
<g >
</g>
<g >
</g>
<g >
</g>
<g >
</g>
<g >
</g>
<g >
</g>
<g >
</g>
<g >
</g>
<g >
</g>
<g >
</g>
<g >
</g>
<g >
</g>
<g >
</g>
<g >
</g>
<g >
</g>
<g >
</g>
<g >
</g>
<g >
</g>
<g >
</g>
<g >
</g>
<g >
</g>
<g >
</g>
<g >
</g>
<g >
</g>
<g >
</g>
<g >
</g>
<g >
</g>
<g >
</g>
<g >
</g>
<g >
</g>
<g >
</g>
<g >
</g>
<g >
</g>
<g >
</g>
<g >
</g>
<g >
</g>
<g >
</g>
<g >
</g>
<g >
</g>
<g >
</g>
<g >
</g>
<g >
</g>
<g >
</g>
<g >
</g>
<g >
</g>
<g >
</g>
<g >
</g>
<g >
</g>
<g >
</g>
<g >
</g>
<g >
</g>
<g >
</g>
<g >
</g>
<g >
</g>
<g >
</g>
<g >
</g>
<g >
</g>
<g >
</g>
<g >
</g>
<g >
</g>
<g >
</g>
<g >
</g>
<g >
</g>
<g >
</g>
<g >
</g>
<g >
</g>
<g >
</g>
<g >
</g>
<g >
</g>
<g >
</g>
<g >
</g>
<g >
</g>
<g >
</g>
<g >
</g>
<g >
</g>
<g >
</g>
<g >
</g>
<g >
</g>
<g >
</g>
<g >
</g>
<g >
</g>
<g >
</g>
</g> 
</svg>
