<?xml version="1.0" standalone="no"?>
 <!DOCTYPE svg PUBLIC "-//W3C//DTD SVG 1.1//EN" 
 "http://www.w3.org/Graphics/SVG/1.1/DTD/svg11.dtd"> 
<svg xmlns="http://www.w3.org/2000/svg" version="1.1" 
    width="29.7002cm" height="21.0007cm" viewBox="0 0 116930 82680 ">
<title>SVG Picture created as MCU_PROTO_100x68mm-F_SilkS.svg date 2022/02/10 19:00:53 </title>
  <desc>Picture generated by PCBNEW </desc>
<g style="fill:#000000; fill-opacity:1;stroke:#000000; stroke-opacity:1;
stroke-linecap:round; stroke-linejoin:round; "
 transform="translate(0 0) scale(1 1)">
</g>
<g style="fill:#000000; fill-opacity:0.0; 
stroke:#000000; stroke-width:-0.000393701; stroke-opacity:1; 
stroke-linecap:round; stroke-linejoin:round;">
</g>
<g style="fill:#000000; fill-opacity:0.0; 
stroke:#000000; stroke-width:196.85; stroke-opacity:1; 
stroke-linecap:round; stroke-linejoin:round;">
<path d="M43535 40545
L43535 40630
" />
</g>
<g style="fill:#000000; fill-opacity:0.0; 
stroke:#000000; stroke-width:59.0551; stroke-opacity:1; 
stroke-linecap:round; stroke-linejoin:round;">
<g transform="rotate(-90 41269.3 55305)">
<text x="41269.3" y="55462.5"
textLength="5609.3" font-size="419.947" lengthAdjust="spacingAndGlyphs"
text-anchor="middle" opacity="0">MCU PROTO 100x68mm</text>
</g>
<path d="M41411 58034
L41096 58034
L41321 57929
L41096 57824
L41411 57824
" />
<path d="M41381 57494
L41396 57509
L41411 57554
L41411 57584
L41396 57629
L41366 57659
L41336 57674
L41276 57689
L41231 57689
L41171 57674
L41141 57659
L41111 57629
L41096 57584
L41096 57554
L41111 57509
L41126 57494
" />
<path d="M41096 57359
L41351 57359
L41381 57344
L41396 57329
L41411 57299
L41411 57239
L41396 57209
L41381 57194
L41351 57179
L41096 57179
" />
<path d="M41411 56789
L41096 56789
L41096 56669
L41111 56639
L41126 56624
L41156 56609
L41201 56609
L41231 56624
L41246 56639
L41261 56669
L41261 56789
" />
<path d="M41411 56294
L41261 56399
" />
<path d="M41411 56474
L41096 56474
L41096 56354
L41111 56324
L41126 56309
L41156 56294
L41201 56294
L41231 56309
L41246 56324
L41261 56354
L41261 56474
" />
<path d="M41096 56099
L41096 56039
L41111 56009
L41141 55979
L41201 55964
L41306 55964
L41366 55979
L41396 56009
L41411 56039
L41411 56099
L41396 56129
L41366 56159
L41306 56174
L41201 56174
L41141 56159
L41111 56129
L41096 56099
" />
<path d="M41096 55874
L41096 55694
" />
<path d="M41411 55784
L41096 55784
" />
<path d="M41096 55529
L41096 55469
L41111 55439
L41141 55409
L41201 55394
L41306 55394
L41366 55409
L41396 55439
L41411 55469
L41411 55529
L41396 55559
L41366 55589
L41306 55604
L41201 55604
L41141 55589
L41111 55559
L41096 55529
" />
<path d="M41411 54855
L41411 55035
" />
<path d="M41411 54945
L41096 54945
L41141 54975
L41171 55005
L41186 55035
" />
<path d="M41096 54660
L41096 54630
L41111 54600
L41126 54585
L41156 54570
L41216 54555
L41291 54555
L41351 54570
L41381 54585
L41396 54600
L41411 54630
L41411 54660
L41396 54690
L41381 54705
L41351 54720
L41291 54735
L41216 54735
L41156 54720
L41126 54705
L41111 54690
L41096 54660
" />
<path d="M41096 54360
L41096 54330
L41111 54300
L41126 54285
L41156 54270
L41216 54255
L41291 54255
L41351 54270
L41381 54285
L41396 54300
L41411 54330
L41411 54360
L41396 54390
L41381 54405
L41351 54420
L41291 54435
L41216 54435
L41156 54420
L41126 54405
L41111 54390
L41096 54360
" />
<path d="M41411 54150
L41201 53985
" />
<path d="M41201 54150
L41411 53985
" />
<path d="M41096 53730
L41096 53790
L41111 53820
L41126 53835
L41171 53865
L41231 53880
L41351 53880
L41381 53865
L41396 53850
L41411 53820
L41411 53760
L41396 53730
L41381 53715
L41351 53700
L41276 53700
L41246 53715
L41231 53730
L41216 53760
L41216 53820
L41231 53850
L41246 53865
L41276 53880
" />
<path d="M41231 53520
L41216 53550
L41201 53565
L41171 53580
L41156 53580
L41126 53565
L41111 53550
L41096 53520
L41096 53460
L41111 53430
L41126 53415
L41156 53400
L41171 53400
L41201 53415
L41216 53430
L41231 53460
L41231 53520
L41246 53550
L41261 53565
L41291 53580
L41351 53580
L41381 53565
L41396 53550
L41411 53520
L41411 53460
L41396 53430
L41381 53415
L41351 53400
L41291 53400
L41261 53415
L41246 53430
L41231 53460
" />
<path d="M41411 53265
L41201 53265
" />
<path d="M41231 53265
L41216 53250
L41201 53220
L41201 53175
L41216 53145
L41246 53130
L41411 53130
" />
<path d="M41246 53130
L41216 53115
L41201 53085
L41201 53040
L41216 53010
L41246 52995
L41411 52995
" />
<path d="M41411 52845
L41201 52845
" />
<path d="M41231 52845
L41216 52830
L41201 52800
L41201 52755
L41216 52725
L41246 52710
L41411 52710
" />
<path d="M41246 52710
L41216 52695
L41201 52665
L41201 52620
L41216 52590
L41246 52575
L41411 52575
" />
<g transform="rotate(-90 41800.7 55305)">
<text x="41800.7" y="55462.5"
textLength="76.7717" font-size="419.947" lengthAdjust="spacingAndGlyphs"
text-anchor="middle" opacity="0"></text>
</g>
</g>
<g style="fill:#000000; fill-opacity:0.0; 
stroke:#000000; stroke-width:19.685; stroke-opacity:1; 
stroke-linecap:round; stroke-linejoin:round;">
<path d="M74803.1 58267.7 A3937.01 3937.01 0.0 0 0 70866.1 62204.7 " />
<path d="M70866.1 39370.1 A3937.01 3937.01 0.0 0 0 74803.1 43307.1 " />
<path d="M43307.1 62204.7 A3937.01 3937.01 0.0 0 0 39370.1 58267.7 " />
<path d="M39370.1 43307.1 A3937.01 3937.01 0.0 0 0 43307.1 39370.1 " />
<path d="M74803 43307
L74803 58267
" />
<path d="M39370 43307
L39370 58267
" />
<path d="M43307 62204
L70866 62204
" />
<path d="M43307 39370
L70866 39370
" />
</g>
<g style="fill:#000000; fill-opacity:0.0; 
stroke:#000000; stroke-width:47.2441; stroke-opacity:1; 
stroke-linecap:round; stroke-linejoin:round;">
<path d="M43964 43515
L43964 42992
" />
<path d="M43964 42992
L44488 42992
" />
<path d="M44988 42992
L64011 42992
" />
<path d="M64011 44039
L64011 42992
" />
<path d="M44988 44039
L64011 44039
" />
<path d="M44988 44039
L44988 42992
" />
<path d="M43964 42515
L43964 41992
" />
<path d="M43964 41992
L44488 41992
" />
<path d="M44988 41992
L64011 41992
" />
<path d="M64011 43039
L64011 41992
" />
<path d="M44988 43039
L64011 43039
" />
<path d="M44988 43039
L44988 41992
" />
<path d="M72401 58818
L72401 58228
" />
<path d="M71716 58818
L72401 58818
" />
<path d="M69503 52889
L72307 52889
" />
<path d="M69503 58724
L72307 58724
" />
<path d="M72307 58724
L72307 52889
" />
<path d="M69503 58724
L69503 52889
" />
<path d="M71692 58724
L71692 52889
" />
<circle cx="70866.1" cy="53740.2" r="612.205" /> 
<circle cx="70866.1" cy="55118.1" r="612.205" /> 
<circle cx="70866.1" cy="56496.1" r="612.205" /> 
<path d="M71429.9 58113.4 A612.491 612.491 0.0 0 0 71478.5 57863.4 " />
<path d="M70626.8 58437.8 A612.491 612.491 0.0 0 0 71105.4 58437.8 " />
<path d="M70302.4 57634.6 A612.491 612.491 0.0 0 0 70302.3 58113.3 " />
<path d="M71105.5 57310.2 A612.491 612.491 0.0 0 0 70626.9 57310.2 " />
<path d="M71478.3 57874 A612.205 612.205 0.0 0 0 71429.7 57634.8 " />
<path d="M72401 48779
L72401 48188
" />
<path d="M71716 48779
L72401 48779
" />
<path d="M69503 42850
L72307 42850
" />
<path d="M69503 48685
L72307 48685
" />
<path d="M72307 48685
L72307 42850
" />
<path d="M69503 48685
L69503 42850
" />
<path d="M71692 48685
L71692 42850
" />
<circle cx="70866.1" cy="43700.8" r="612.205" /> 
<circle cx="70866.1" cy="45078.7" r="612.205" /> 
<circle cx="70866.1" cy="46456.7" r="612.205" /> 
<path d="M71429.9 48074 A612.491 612.491 0.0 0 0 71478.5 47824 " />
<path d="M70626.8 48398.4 A612.491 612.491 0.0 0 0 71105.4 48398.5 " />
<path d="M70302.4 47595.3 A612.491 612.491 0.0 0 0 70302.3 48073.9 " />
<path d="M71105.5 47270.9 A612.491 612.491 0.0 0 0 70626.9 47270.8 " />
<path d="M71478.3 47834.6 A612.205 612.205 0.0 0 0 71429.7 47595.4 " />
<path d="M43964 52515
L43964 51992
" />
<path d="M43964 51992
L44488 51992
" />
<path d="M44988 51992
L64011 51992
" />
<path d="M64011 53039
L64011 51992
" />
<path d="M44988 53039
L64011 53039
" />
<path d="M44988 53039
L44988 51992
" />
<path d="M43964 51515
L43964 50992
" />
<path d="M43964 50992
L44488 50992
" />
<path d="M44988 50992
L64011 50992
" />
<path d="M64011 52039
L64011 50992
" />
<path d="M44988 52039
L64011 52039
" />
<path d="M44988 52039
L44988 50992
" />
<path d="M43964 50515
L43964 49992
" />
<path d="M43964 49992
L44488 49992
" />
<path d="M44988 49992
L64011 49992
" />
<path d="M64011 51039
L64011 49992
" />
<path d="M44988 51039
L64011 51039
" />
<path d="M44988 51039
L44988 49992
" />
<path d="M43964 48515
L43964 47992
" />
<path d="M43964 47992
L44488 47992
" />
<path d="M44988 47992
L64011 47992
" />
<path d="M64011 49039
L64011 47992
" />
<path d="M44988 49039
L64011 49039
" />
<path d="M44988 49039
L44988 47992
" />
<path d="M43964 41515
L43964 40992
" />
<path d="M43964 40992
L44488 40992
" />
<path d="M44988 40992
L64011 40992
" />
<path d="M64011 42039
L64011 40992
" />
<path d="M44988 42039
L64011 42039
" />
<path d="M44988 42039
L44988 40992
" />
<path d="M43964 49515
L43964 48992
" />
<path d="M43964 48992
L44488 48992
" />
<path d="M44988 48992
L64011 48992
" />
<path d="M64011 50039
L64011 48992
" />
<path d="M44988 50039
L64011 50039
" />
<path d="M44988 50039
L44988 48992
" />
</g>
<g style="fill:#000000; fill-opacity:1.0; 
stroke:#000000; stroke-width:3.93701; stroke-opacity:1; 
stroke-linecap:round; stroke-linejoin:round;">
<path style="fill:#000000; fill-opacity:1.0; 
stroke:#000000; stroke-width:3.93701; stroke-opacity:1; 
stroke-linecap:round; stroke-linejoin:round;fill-rule:evenodd;"
d="M 40048.5,44896.2
40223.6,44863.2
40273.8,44741.4
40324,44619.6
40224.6,44473.6
40197,44432.7
40172.3,44395.7
40151.7,44364.3
40136.3,44340.4
40127.2,44325.6
40125.3,44321.5
40130.3,44314.2
40144.2,44298.7
40165.1,44276.6
40191.3,44249.7
40221.1,44219.8
40252.7,44188.6
40284.2,44157.8
40314,44129.2
40340.2,44104.5
40361.1,44085.6
40374.9,44074
40379.5,44071.2
40388,44075.2
40406.7,44086.4
40433.7,44103.5
40467.1,44125.5
40505.3,44151.2
40527,44166.1
40566.8,44193.2
40602.6,44217.3
40632.8,44237.2
40655.5,44251.8
40669,44259.8
40671.9,44261
40679.9,44258.3
40698.7,44250.8
40725.6,44239.8
40758,44226.3
40793.1,44211.4
40828.4,44196.3
40861.3,44182.2
40889,44170
40908.9,44161
40918.4,44156.3
40918.8,44156.1
40920.6,44148.6
40924.7,44128.9
40930.5,44098.9
40937.9,44060.7
40946.2,44016.3
40951.1,43990.4
40960.1,43943
40968.7,43900.1
40976.4,43864
40982.7,43836.9
40987.2,43820.8
40988.6,43817.6
40998.2,43814.4
41019.8,43811.8
41050.9,43809.9
41089.1,43808.6
41131.7,43807.8
41176.3,43807.7
41220.2,43808.2
41261.1,43809.3
41296.3,43810.9
41323.3,43813.2
41339.6,43816.1
41343,43817.8
41347,43828.1
41352.8,43849.9
41359.7,43880.3
41367,43916.5
41369.3,43929.1
41380.5,43990
41389.4,44038.1
41396.6,44075
41402.3,44102.3
41406.9,44121.5
41410.8,44134.3
41414.3,44142.3
41417.7,44147
41418.4,44147.7
41429.4,44154.3
41450.8,44164.4
41480,44176.9
41514.3,44190.9
41551.1,44205.3
41587.9,44219.2
41622,44231.5
41650.8,44241.3
41671.6,44247.5
41681.9,44249.1
41682.3,44249
41690.7,44243.5
41709.2,44231
41735.9,44212.9
41768.8,44190.4
41806,44164.9
41816.6,44157.6
41855,44131.7
41889.9,44108.8
41919.6,44090.4
41941.8,44077.5
41954.7,44071.5
41956.3,44071.2
41964.6,44076.3
41981,44090.2
42003.8,44111.3
42031.3,44137.8
42061.6,44167.7
42092.9,44199.4
42123.6,44231
42151.8,44260.8
42175.7,44286.9
42193.7,44307.5
42203.9,44320.9
42205.6,44324.6
42201.7,44333.3
42191.1,44350.9
42175.6,44374.7
42163.2,44393
42140.3,44426.2
42113.4,44465.5
42086.6,44505
42072.2,44526.2
42023.7,44597.9
42056.2,44658.2
42070.5,44685.6
42081.6,44708.9
42087.9,44724.7
42088.8,44728.7
42082.3,44733.6
42063.9,44743.1
42035.4,44756.6
41998.4,44773.4
41954.6,44792.8
41905.7,44814
41853.4,44836.4
41799.5,44859.2
41745.5,44881.7
41693.2,44903.2
41644.3,44923
41600.4,44940.4
41563.3,44954.7
41534.7,44965.2
41516.2,44971
41509.9,44972
41501.8,44964.5
41488.7,44948.1
41473.2,44926.1
41472,44924.3
41426.7,44867.7
41373.8,44822
41315,44787.7
41252.1,44765.1
41186.6,44754.7
41120.4,44756.9
41055.1,44772
40992.4,44800.5
40978.7,44808.8
40923.2,44852.4
40878.7,44903.9
40845.4,44961.4
40823.4,45023.3
40813.1,45087.8
40814.5,45153.1
40828.1,45217.3
40853.9,45278.8
40892.3,45335.6
40907.9,45353.2
40956.7,45398
41008,45430.7
41065.6,45453
41122.6,45465.5
41186.7,45468.6
41251.1,45458.3
41313.6,45435.8
41372.1,45402
41424.4,45357.9
41468.3,45304.7
41473,45297.7
41488.1,45275.6
41501.2,45258.7
41509.6,45250.7
41509.9,45250.6
41519,45252.3
41539.6,45259.1
41570,45270.4
41608.5,45285.4
41653.5,45303.3
41703.2,45323.5
41755.9,45345.3
41810,45368
41863.8,45390.7
41915.6,45413
41963.6,45433.9
42006.2,45452.8
42041.7,45469
42068.4,45481.8
42084.5,45490.5
42088.8,45494
42085.5,45504.6
42076.6,45524.6
42063.7,45550.4
42056.2,45564.5
42023.7,45624.8
42072.2,45696.5
42097.1,45733.2
42124.4,45773.3
42150.2,45810.8
42163.2,45829.7
42180.9,45856.1
42195,45878.6
42203.6,45894
42205.5,45899
42200.5,45906.3
42186.8,45922.5
42165.7,45945.9
42138.7,45975.1
42107.1,46008.4
42086.8,46029.4
42050.6,46066.3
42018.2,46098.2
41991,46123.7
41970.5,46141.7
41957.8,46150.8
41955.3,46151.7
41945.5,46147.6
41925.9,46136.4
41898.2,46119.3
41864.6,46097.5
41827.1,46072.3
41816.6,46065.1
41778.5,46039
41744.3,46015.5
41715.7,45996.1
41694.8,45982
41683.5,45974.4
41682.3,45973.7
41673.3,45974.8
41653.4,45980.6
41625.3,45990
41591.7,46002.1
41555,46015.9
41518.1,46030.3
41483.3,46044.4
41453.5,46057.1
41431.2,46067.5
41419,46074.5
41418.4,46075
41414.9,46079.3
41411.5,46086.5
41407.7,46098.3
41403.3,46116.2
41397.8,46141.9
41390.9,46176.8
41382.3,46222.6
41371.6,46281
41369.3,46293.6
41362.1,46331
41355,46363.6
41348.8,46388.6
41344.1,46403
41343,46404.9
41333.2,46408.1
41311.5,46410.7
41280.2,46412.7
41242,46414
41199.3,46414.8
41154.7,46415
41110.8,46414.6
41070,46413.6
41034.9,46411.9
41008,46409.7
40991.9,46406.9
40988.6,46405.1
40985.2,46395.6
40979.8,46373.8
40972.8,46342
40964.6,46302.4
40955.7,46257
40951.1,46232.3
40942.3,46185.4
40934.4,46143.6
40927.6,46108.9
40922.5,46083.3
40919.5,46069
40918.8,46066.6
40911.1,46062.7
40892.6,46054.2
40865.9,46042.5
40833.6,46028.6
40798.5,46013.6
40763.1,45998.6
40730.1,45984.8
40702.1,45973.3
40681.9,45965.3
40672,45961.8
40671.5,45961.7
40663.7,45965.7
40645.7,45976.9
40619.3,45994
40586.3,46016
40548.5,46041.7
40526.8,46056.6
40486.9,46083.8
40450.8,46107.9
40420.1,46127.9
40396.8,46142.4
40382.6,46150.3
40379.4,46151.5
40372,46146.6
40356.2,46132.9
40333.8,46112.3
40306.5,46086.4
40276.1,46057.1
40244.4,46026
40213.2,45994.9
40184.1,45965.6
40159.1,45939.8
40139.8,45919.2
40128.1,45905.6
40125.3,45901
40129.2,45893.6
40140.3,45875.9
40157.4,45849.6
40179.3,45816.4
40205,45778
40224.6,45749.1
40324,45603.1
40223.6,45359.5
40048.5,45326.5
39873.5,45293.5
39873.5,44929.2
Z" /> 
<g >
</g>
<g >
</g>
<g >
</g>
<g >
</g>
<g >
</g>
<g >
</g>
<g >
</g>
<g >
</g>
<g >
</g>
<g >
</g>
<g >
</g>
<g >
</g>
<g >
</g>
<g >
</g>
<g >
</g>
<g >
</g>
<g >
</g>
<g >
</g>
<g >
</g>
<g >
</g>
<g >
</g>
<g >
</g>
<g >
</g>
<g >
</g>
<g >
</g>
<g >
</g>
<g >
</g>
<g >
</g>
<g >
</g>
<g >
</g>
<g >
</g>
<g >
</g>
<g >
</g>
<g >
</g>
<g >
</g>
<g >
</g>
<g >
</g>
<g >
</g>
<g >
</g>
<g >
</g>
<g >
</g>
<g >
</g>
<g >
</g>
<g >
</g>
<g >
</g>
<g >
</g>
<g >
</g>
<g >
</g>
<g >
</g>
<g >
</g>
<g >
</g>
<g >
</g>
<g >
</g>
<g >
</g>
<g >
</g>
<g >
</g>
<g >
</g>
<g >
</g>
<g >
</g>
<g >
</g>
<g >
</g>
<g >
</g>
<g >
</g>
<g >
</g>
<g >
</g>
<g >
</g>
<g >
</g>
<g >
</g>
<g >
</g>
<g >
</g>
<g >
</g>
<g >
</g>
<g >
</g>
<g >
</g>
<g >
</g>
<g >
</g>
<g >
</g>
<g >
</g>
<g >
</g>
<g >
</g>
<g >
</g>
<g >
</g>
<g >
</g>
<g >
</g>
<g >
</g>
<g >
</g>
<g >
</g>
<g >
</g>
<g >
</g>
<g >
</g>
<g >
</g>
<g >
</g>
<g >
</g>
<g >
</g>
<g >
</g>
<g >
</g>
<g >
</g>
<g >
</g>
<g >
</g>
<g >
</g>
<g >
</g>
<g >
</g>
<g >
</g>
<g >
</g>
<g >
</g>
<g >
</g>
<g >
</g>
<g >
</g>
<g >
</g>
<g >
</g>
<g >
</g>
<g >
</g>
<g >
</g>
<g >
</g>
<g >
</g>
<g >
</g>
<g >
</g>
<g >
</g>
<g >
</g>
<g >
</g>
<g >
</g>
<g >
</g>
<g >
</g>
<g >
</g>
<g >
</g>
<g >
</g>
<g >
</g>
<g >
</g>
<g >
</g>
<g >
</g>
<g >
</g>
<g >
</g>
<g >
</g>
<g >
</g>
<g >
</g>
<g >
</g>
<g >
</g>
<g >
</g>
<g >
</g>
<g >
</g>
<g >
</g>
<g >
</g>
<g >
</g>
<g >
</g>
<g >
</g>
<g >
</g>
<g >
</g>
<g >
</g>
<g >
</g>
<g >
</g>
<g >
</g>
<g >
</g>
<g >
</g>
<g >
</g>
<g >
</g>
<g >
</g>
<g >
</g>
<g >
</g>
<g >
</g>
<g >
</g>
<g >
</g>
<g >
</g>
<g >
</g>
<g >
</g>
<g >
</g>
<g >
</g>
<g >
</g>
<g >
</g>
<g >
</g>
<g >
</g>
<g >
</g>
<g >
</g>
<g >
</g>
<g >
</g>
<g >
</g>
<g >
</g>
<g >
</g>
<g >
</g>
<g >
</g>
<g >
</g>
<g >
</g>
<g >
</g>
<g >
</g>
<g >
</g>
<g >
</g>
<g >
</g>
<g >
</g>
<g >
</g>
<g >
</g>
<g >
</g>
<g >
</g>
<g >
</g>
<g >
</g>
<g >
</g>
<g >
</g>
<g >
</g>
<g >
</g>
<g >
</g>
<g >
</g>
<g >
</g>
<g >
</g>
<g >
</g>
<g >
</g>
<g >
</g>
<g >
</g>
<g >
</g>
<g >
</g>
<g >
</g>
<g >
</g>
<g >
</g>
<g >
</g>
<g >
</g>
<g >
</g>
<g >
</g>
<g >
</g>
<g >
</g>
<g >
</g>
<g >
</g>
<g >
</g>
<g >
</g>
<g >
</g>
<g >
</g>
<g >
</g>
<g >
</g>
<g >
</g>
<g >
</g>
<g >
</g>
<g >
</g>
<g >
</g>
<g >
</g>
<g >
</g>
<g >
</g>
<g >
</g>
<g >
</g>
<g >
</g>
<g >
</g>
<g >
</g>
<g >
</g>
<g >
</g>
<g >
</g>
<g >
</g>
<g >
</g>
<g >
</g>
<g >
</g>
<g >
</g>
<g >
</g>
<g >
</g>
<g >
</g>
<g >
</g>
<g >
</g>
<g >
</g>
<g >
</g>
<g >
</g>
<g >
</g>
<g >
</g>
<g >
</g>
<g >
</g>
<g >
</g>
<g >
</g>
<g >
</g>
<g >
</g>
<g >
</g>
<g >
</g>
<g >
</g>
<g >
</g>
<g >
</g>
<g >
</g>
<g >
</g>
<g >
</g>
<g >
</g>
<g >
</g>
<g >
</g>
<g >
</g>
<g >
</g>
<g >
</g>
<g >
</g>
<g >
</g>
<g >
</g>
<g >
</g>
<g >
</g>
<g >
</g>
<g >
</g>
<g >
</g>
<g >
</g>
<g >
</g>
<g >
</g>
<g >
</g>
<g >
</g>
<g >
</g>
<g >
</g>
<g >
</g>
<g >
</g>
<g >
</g>
<g >
</g>
<g >
</g>
<g >
</g>
<g >
</g>
<g >
</g>
<g >
</g>
<g >
</g>
<g >
</g>
<g >
</g>
<g >
</g>
<g >
</g>
<g >
</g>
<g >
</g>
<g >
</g>
<g >
</g>
<g >
</g>
<g >
</g>
<g >
</g>
<g >
</g>
<g >
</g>
<g >
</g>
<g >
</g>
<g >
</g>
<g >
</g>
<g >
</g>
<g >
</g>
<g >
</g>
<g >
</g>
<g >
</g>
<g >
</g>
<g >
</g>
<g >
</g>
<g >
</g>
<g >
</g>
<g >
</g>
<g >
</g>
<g >
</g>
<g >
</g>
<g >
</g>
<g >
</g>
</g>
<g style="fill:#000000; fill-opacity:1.0; 
stroke:#000000; stroke-width:3.93701; stroke-opacity:1; 
stroke-linecap:round; stroke-linejoin:round;">
</g>
<g style="fill:#000000; fill-opacity:0.0; 
stroke:#000000; stroke-width:3.93701; stroke-opacity:1; 
stroke-linecap:round; stroke-linejoin:round;">
</g>
<g style="fill:#000000; fill-opacity:0.0; 
stroke:#000000; stroke-width:59.0551; stroke-opacity:1; 
stroke-linecap:round; stroke-linejoin:round;">
<g transform="rotate(-90 43397.6 43515.7)">
<text x="43397.6" y="43712.6"
textLength="733.971" font-size="524.934" lengthAdjust="spacingAndGlyphs"
text-anchor="middle" opacity="0">J5</text>
</g>
<path d="M43182 43646
L43463 43646
L43519 43665
L43556 43703
L43575 43759
L43575 43796
" />
<path d="M43182 43272
L43182 43459
L43369 43478
L43350 43459
L43332 43422
L43332 43328
L43350 43290
L43369 43272
L43407 43253
L43500 43253
L43538 43272
L43556 43290
L43575 43328
L43575 43422
L43556 43459
L43538 43478
" />
<g transform="rotate(-90 43397.6 42515.7)">
<text x="43397.6" y="42712.6"
textLength="751.687" font-size="524.934" lengthAdjust="spacingAndGlyphs"
text-anchor="middle" opacity="0">J4</text>
</g>
<path d="M43182 42646
L43463 42646
L43519 42665
L43556 42703
L43575 42759
L43575 42796
" />
<path d="M43313 42290
L43575 42290
" />
<path d="M43163 42384
L43444 42478
L43444 42234
" />
<g transform="rotate(-90 70905 59335)">
<text x="70905" y="59531.9"
textLength="751.687" font-size="524.934" lengthAdjust="spacingAndGlyphs"
text-anchor="middle" opacity="0">J2</text>
</g>
<path d="M70689 59466
L70970 59466
L71026 59484
L71064 59522
L71083 59578
L71083 59616
" />
<path d="M70726 59297
L70708 59278
L70689 59241
L70689 59147
L70708 59110
L70726 59091
L70764 59072
L70801 59072
L70858 59091
L71083 59316
L71083 59072
" />
<g transform="rotate(-90 70740 42235)">
<text x="70740" y="42431.9"
textLength="751.687" font-size="524.934" lengthAdjust="spacingAndGlyphs"
text-anchor="middle" opacity="0">J1</text>
</g>
<path d="M70524 42366
L70805 42366
L70861 42384
L70899 42422
L70918 42478
L70918 42516
" />
<path d="M70918 41972
L70918 42197
" />
<path d="M70918 42085
L70524 42085
L70580 42122
L70618 42160
L70636 42197
" />
<g transform="rotate(-90 43395 52680)">
<text x="43395" y="52876.9"
textLength="1126.64" font-size="524.934" lengthAdjust="spacingAndGlyphs"
text-anchor="middle" opacity="0">J10</text>
</g>
<path d="M43179 52998
L43460 52998
L43516 53017
L43554 53054
L43573 53111
L43573 53148
" />
<path d="M43573 52605
L43573 52829
" />
<path d="M43573 52717
L43179 52717
L43235 52754
L43273 52792
L43291 52829
" />
<path d="M43179 52361
L43179 52323
L43198 52286
L43216 52267
L43254 52248
L43329 52230
L43423 52230
L43498 52248
L43535 52267
L43554 52286
L43573 52323
L43573 52361
L43554 52398
L43535 52417
L43498 52436
L43423 52455
L43329 52455
L43254 52436
L43216 52417
L43198 52398
L43179 52361
" />
<g transform="rotate(-90 43395 51600)">
<text x="43395" y="51796.9"
textLength="751.687" font-size="524.934" lengthAdjust="spacingAndGlyphs"
text-anchor="middle" opacity="0">J9</text>
</g>
<path d="M43179 51731
L43460 51731
L43516 51749
L43554 51787
L43573 51843
L43573 51881
" />
<path d="M43573 51525
L43573 51450
L43554 51412
L43535 51393
L43479 51356
L43404 51337
L43254 51337
L43216 51356
L43198 51375
L43179 51412
L43179 51487
L43198 51525
L43216 51543
L43254 51562
L43348 51562
L43385 51543
L43404 51525
L43423 51487
L43423 51412
L43404 51375
L43385 51356
L43348 51337
" />
<g transform="rotate(-90 43355 50470)">
<text x="43355" y="50666.9"
textLength="751.687" font-size="524.934" lengthAdjust="spacingAndGlyphs"
text-anchor="middle" opacity="0">J8</text>
</g>
<path d="M43139 50601
L43420 50601
L43476 50619
L43514 50657
L43533 50713
L43533 50751
" />
<path d="M43308 50357
L43289 50395
L43270 50413
L43233 50432
L43214 50432
L43176 50413
L43158 50395
L43139 50357
L43139 50282
L43158 50245
L43176 50226
L43214 50207
L43233 50207
L43270 50226
L43289 50245
L43308 50282
L43308 50357
L43326 50395
L43345 50413
L43383 50432
L43458 50432
L43495 50413
L43514 50395
L43533 50357
L43533 50282
L43514 50245
L43495 50226
L43458 50207
L43383 50207
L43345 50226
L43326 50245
L43308 50282
" />
<g transform="rotate(-90 43330 48475)">
<text x="43330" y="48671.9"
textLength="751.687" font-size="524.934" lengthAdjust="spacingAndGlyphs"
text-anchor="middle" opacity="0">J6</text>
</g>
<path d="M43114 48606
L43395 48606
L43451 48624
L43489 48662
L43508 48718
L43508 48756
" />
<path d="M43114 48250
L43114 48325
L43133 48362
L43151 48381
L43208 48418
L43283 48437
L43433 48437
L43470 48418
L43489 48400
L43508 48362
L43508 48287
L43489 48250
L43470 48231
L43433 48212
L43339 48212
L43301 48231
L43283 48250
L43264 48287
L43264 48362
L43283 48400
L43301 48418
L43339 48437
" />
<g transform="rotate(-90 43445 41565)">
<text x="43445" y="41761.9"
textLength="751.687" font-size="524.934" lengthAdjust="spacingAndGlyphs"
text-anchor="middle" opacity="0">J3</text>
</g>
<path d="M43229 41696
L43510 41696
L43566 41714
L43604 41752
L43623 41808
L43623 41846
" />
<path d="M43229 41546
L43229 41302
L43379 41433
L43379 41377
L43398 41340
L43416 41321
L43454 41302
L43548 41302
L43585 41321
L43604 41340
L43623 41377
L43623 41490
L43604 41527
L43585 41546
" />
<g transform="rotate(-90 43345 49465)">
<text x="43345" y="49661.9"
textLength="751.687" font-size="524.934" lengthAdjust="spacingAndGlyphs"
text-anchor="middle" opacity="0">J7</text>
</g>
<path d="M43129 49596
L43410 49596
L43466 49614
L43504 49652
L43523 49708
L43523 49746
" />
<path d="M43129 49446
L43129 49183
L43523 49352
" />
<g >
</g>
</g> 
</svg>
