G04 #@! TF.GenerationSoftware,KiCad,Pcbnew,5.1.5+dfsg1-2build2*
G04 #@! TF.CreationDate,2021-11-15T16:56:08-05:00*
G04 #@! TF.ProjectId,ESP32CAM_BREAKOUT_FOR_WATERPROOF_ENCLOSURE,45535033-3243-4414-9d5f-425245414b4f,rev?*
G04 #@! TF.SameCoordinates,Original*
G04 #@! TF.FileFunction,Copper,L2,Bot*
G04 #@! TF.FilePolarity,Positive*
%FSLAX46Y46*%
G04 Gerber Fmt 4.6, Leading zero omitted, Abs format (unit mm)*
G04 Created by KiCad (PCBNEW 5.1.5+dfsg1-2build2) date 2021-11-15 16:56:08*
%MOMM*%
%LPD*%
G04 APERTURE LIST*
%ADD10C,0.010000*%
%ADD11C,1.998980*%
%ADD12C,2.000000*%
%ADD13C,2.400000*%
%ADD14R,2.400000X2.400000*%
%ADD15O,1.700000X1.700000*%
%ADD16R,1.700000X1.700000*%
%ADD17C,0.500000*%
%ADD18C,0.254000*%
G04 APERTURE END LIST*
D10*
G36*
X119554031Y-117459314D02*
G01*
X119998655Y-117543135D01*
X120126153Y-117852420D01*
X120253651Y-118161706D01*
X120001346Y-118532746D01*
X119931096Y-118636657D01*
X119868372Y-118730587D01*
X119816038Y-118810152D01*
X119776957Y-118870970D01*
X119753993Y-118908657D01*
X119749042Y-118918921D01*
X119761776Y-118937410D01*
X119796982Y-118976920D01*
X119850162Y-119033022D01*
X119916818Y-119101287D01*
X119992454Y-119177286D01*
X120072572Y-119256592D01*
X120152674Y-119334775D01*
X120228264Y-119407407D01*
X120294845Y-119470059D01*
X120347918Y-119518303D01*
X120382987Y-119547710D01*
X120394723Y-119554741D01*
X120416360Y-119544623D01*
X120463762Y-119516259D01*
X120532293Y-119472629D01*
X120617315Y-119416718D01*
X120714193Y-119351506D01*
X120769450Y-119313719D01*
X120870348Y-119244843D01*
X120961399Y-119183640D01*
X121038070Y-119133078D01*
X121095828Y-119096128D01*
X121130143Y-119075758D01*
X121137354Y-119072697D01*
X121157848Y-119079636D01*
X121205613Y-119098551D01*
X121273932Y-119126587D01*
X121356089Y-119160891D01*
X121445370Y-119198609D01*
X121535058Y-119236887D01*
X121618438Y-119272870D01*
X121688794Y-119303706D01*
X121739410Y-119326539D01*
X121763571Y-119338517D01*
X121764522Y-119339224D01*
X121769136Y-119358031D01*
X121779428Y-119408118D01*
X121794387Y-119484293D01*
X121813001Y-119581365D01*
X121834259Y-119694143D01*
X121846518Y-119759942D01*
X121869462Y-119880450D01*
X121891295Y-119989297D01*
X121910822Y-120080976D01*
X121926848Y-120149981D01*
X121938179Y-120190804D01*
X121941774Y-120199011D01*
X121966106Y-120207048D01*
X122021059Y-120213533D01*
X122100208Y-120218470D01*
X122197126Y-120221864D01*
X122305387Y-120223718D01*
X122418565Y-120224038D01*
X122530235Y-120222827D01*
X122633968Y-120220090D01*
X122723341Y-120215831D01*
X122791926Y-120210055D01*
X122833297Y-120202767D01*
X122841910Y-120198395D01*
X122852233Y-120172264D01*
X122866992Y-120116893D01*
X122884452Y-120039607D01*
X122902880Y-119947730D01*
X122908841Y-119915658D01*
X122937166Y-119761024D01*
X122959976Y-119638875D01*
X122978180Y-119545173D01*
X122992683Y-119475884D01*
X123004392Y-119426971D01*
X123014215Y-119394397D01*
X123023056Y-119374128D01*
X123031824Y-119362126D01*
X123033557Y-119360447D01*
X123061471Y-119343684D01*
X123115795Y-119318114D01*
X123189877Y-119286288D01*
X123277065Y-119250760D01*
X123370708Y-119214083D01*
X123464152Y-119178811D01*
X123550747Y-119147496D01*
X123623840Y-119122693D01*
X123676778Y-119106954D01*
X123702911Y-119102832D01*
X123703826Y-119103176D01*
X123725186Y-119117141D01*
X123772184Y-119148822D01*
X123839927Y-119194891D01*
X123923523Y-119252018D01*
X124018082Y-119316873D01*
X124044954Y-119335343D01*
X124142375Y-119401199D01*
X124231263Y-119459150D01*
X124306512Y-119506038D01*
X124363020Y-119538707D01*
X124395681Y-119554000D01*
X124399693Y-119554741D01*
X124420784Y-119541892D01*
X124462564Y-119506388D01*
X124520545Y-119452793D01*
X124590235Y-119385671D01*
X124667145Y-119309587D01*
X124746783Y-119229104D01*
X124824661Y-119148787D01*
X124896286Y-119073199D01*
X124957170Y-119006905D01*
X125002821Y-118954469D01*
X125028750Y-118920455D01*
X125032983Y-118911045D01*
X125023012Y-118889143D01*
X124996120Y-118844300D01*
X124956836Y-118783821D01*
X124925217Y-118737289D01*
X124867198Y-118652975D01*
X124798884Y-118553126D01*
X124730679Y-118452973D01*
X124694175Y-118399127D01*
X124570900Y-118216871D01*
X124653620Y-118063881D01*
X124689859Y-117994182D01*
X124718026Y-117934914D01*
X124734091Y-117894811D01*
X124736326Y-117884603D01*
X124719822Y-117872329D01*
X124673182Y-117848113D01*
X124600709Y-117813763D01*
X124506706Y-117771088D01*
X124395474Y-117721894D01*
X124271315Y-117667990D01*
X124138532Y-117611184D01*
X124001427Y-117553282D01*
X123864302Y-117496093D01*
X123731458Y-117441424D01*
X123607198Y-117391084D01*
X123495825Y-117346880D01*
X123401639Y-117310619D01*
X123328944Y-117284109D01*
X123282041Y-117269158D01*
X123265933Y-117266754D01*
X123245386Y-117285811D01*
X123212033Y-117327536D01*
X123172802Y-117383206D01*
X123169699Y-117387878D01*
X123054523Y-117531764D01*
X122920153Y-117647783D01*
X122770884Y-117734930D01*
X122611013Y-117792199D01*
X122444837Y-117818586D01*
X122276652Y-117813085D01*
X122110755Y-117774690D01*
X121951442Y-117702395D01*
X121916587Y-117681126D01*
X121775837Y-117570496D01*
X121662814Y-117439802D01*
X121578103Y-117293564D01*
X121522294Y-117136308D01*
X121495974Y-116972557D01*
X121499730Y-116806833D01*
X121534150Y-116643662D01*
X121599823Y-116487565D01*
X121697335Y-116343067D01*
X121736913Y-116298369D01*
X121860803Y-116184612D01*
X121991224Y-116101718D01*
X122137415Y-116044856D01*
X122282188Y-116013187D01*
X122444960Y-116005369D01*
X122608540Y-116031438D01*
X122767398Y-116088745D01*
X122916006Y-116174644D01*
X123048835Y-116286486D01*
X123160356Y-116421623D01*
X123172111Y-116439383D01*
X123210608Y-116495650D01*
X123243963Y-116538423D01*
X123265260Y-116558872D01*
X123265933Y-116559169D01*
X123288971Y-116554779D01*
X123341257Y-116537376D01*
X123418490Y-116508768D01*
X123516368Y-116470765D01*
X123630591Y-116425174D01*
X123756858Y-116373803D01*
X123890867Y-116318462D01*
X124028318Y-116260958D01*
X124164908Y-116203101D01*
X124296337Y-116146698D01*
X124418305Y-116093558D01*
X124526509Y-116045490D01*
X124616649Y-116004301D01*
X124684423Y-115971801D01*
X124725530Y-115949797D01*
X124736326Y-115940936D01*
X124727919Y-115913860D01*
X124705372Y-115863197D01*
X124672713Y-115797683D01*
X124653620Y-115761659D01*
X124570900Y-115608668D01*
X124694175Y-115426412D01*
X124757328Y-115333375D01*
X124826827Y-115231515D01*
X124892265Y-115136062D01*
X124925217Y-115088250D01*
X124970373Y-115021005D01*
X125006157Y-114964064D01*
X125028038Y-114924854D01*
X125032663Y-114912119D01*
X125020185Y-114893583D01*
X124985352Y-114852559D01*
X124931778Y-114793025D01*
X124863083Y-114718958D01*
X124782881Y-114634335D01*
X124731386Y-114580815D01*
X124639386Y-114487181D01*
X124557099Y-114406259D01*
X124488045Y-114341323D01*
X124435744Y-114295642D01*
X124403716Y-114272489D01*
X124397216Y-114270268D01*
X124372494Y-114280576D01*
X124322505Y-114309061D01*
X124252312Y-114352563D01*
X124166975Y-114407923D01*
X124071556Y-114471980D01*
X124044954Y-114490197D01*
X123948267Y-114556573D01*
X123861217Y-114616122D01*
X123788695Y-114665516D01*
X123735593Y-114701425D01*
X123706803Y-114720519D01*
X123703826Y-114722364D01*
X123680882Y-114719605D01*
X123630436Y-114704962D01*
X123559141Y-114680987D01*
X123473647Y-114650234D01*
X123380607Y-114615256D01*
X123286674Y-114578607D01*
X123198499Y-114542839D01*
X123122734Y-114510506D01*
X123066031Y-114484162D01*
X123035043Y-114466358D01*
X123033557Y-114465093D01*
X123024701Y-114454206D01*
X123015943Y-114435818D01*
X123006377Y-114405894D01*
X122995096Y-114360397D01*
X122981193Y-114295291D01*
X122963763Y-114206539D01*
X122941898Y-114090107D01*
X122914691Y-113941958D01*
X122908841Y-113909882D01*
X122890474Y-113814814D01*
X122872505Y-113731935D01*
X122856669Y-113668570D01*
X122844700Y-113632042D01*
X122841910Y-113627144D01*
X122817172Y-113619073D01*
X122761890Y-113612513D01*
X122682489Y-113607467D01*
X122585396Y-113603941D01*
X122477038Y-113601939D01*
X122363840Y-113601464D01*
X122252228Y-113602523D01*
X122148629Y-113605118D01*
X122059468Y-113609254D01*
X121991172Y-113614937D01*
X121950166Y-113622169D01*
X121941774Y-113626529D01*
X121933308Y-113650802D01*
X121919535Y-113706074D01*
X121901650Y-113786838D01*
X121880848Y-113887588D01*
X121858323Y-114002817D01*
X121846518Y-114065598D01*
X121824251Y-114184713D01*
X121804079Y-114290935D01*
X121787015Y-114379073D01*
X121774069Y-114443934D01*
X121766255Y-114480326D01*
X121764522Y-114486316D01*
X121744990Y-114496439D01*
X121697943Y-114517838D01*
X121630103Y-114547661D01*
X121548191Y-114583055D01*
X121458928Y-114621168D01*
X121369035Y-114659147D01*
X121285235Y-114694140D01*
X121214247Y-114723294D01*
X121162794Y-114743757D01*
X121137597Y-114752677D01*
X121136496Y-114752843D01*
X121116619Y-114742731D01*
X121070877Y-114714383D01*
X121003817Y-114670777D01*
X120919984Y-114614894D01*
X120823926Y-114549713D01*
X120768750Y-114511821D01*
X120667581Y-114442775D01*
X120575730Y-114381450D01*
X120497844Y-114330837D01*
X120438569Y-114293929D01*
X120402551Y-114273718D01*
X120394477Y-114270799D01*
X120375684Y-114283347D01*
X120335557Y-114318037D01*
X120278593Y-114370437D01*
X120209285Y-114436116D01*
X120132131Y-114510644D01*
X120051625Y-114589587D01*
X119972263Y-114668517D01*
X119898540Y-114743000D01*
X119834952Y-114808606D01*
X119785994Y-114860904D01*
X119756161Y-114895461D01*
X119749042Y-114907022D01*
X119759053Y-114925846D01*
X119787178Y-114970869D01*
X119830554Y-115037713D01*
X119886318Y-115122001D01*
X119951606Y-115219356D01*
X120001346Y-115292793D01*
X120253651Y-115663833D01*
X119998655Y-116282405D01*
X119554031Y-116366225D01*
X119109407Y-116450046D01*
X119109407Y-117375494D01*
X119554031Y-117459314D01*
G37*
X119554031Y-117459314D02*
X119998655Y-117543135D01*
X120126153Y-117852420D01*
X120253651Y-118161706D01*
X120001346Y-118532746D01*
X119931096Y-118636657D01*
X119868372Y-118730587D01*
X119816038Y-118810152D01*
X119776957Y-118870970D01*
X119753993Y-118908657D01*
X119749042Y-118918921D01*
X119761776Y-118937410D01*
X119796982Y-118976920D01*
X119850162Y-119033022D01*
X119916818Y-119101287D01*
X119992454Y-119177286D01*
X120072572Y-119256592D01*
X120152674Y-119334775D01*
X120228264Y-119407407D01*
X120294845Y-119470059D01*
X120347918Y-119518303D01*
X120382987Y-119547710D01*
X120394723Y-119554741D01*
X120416360Y-119544623D01*
X120463762Y-119516259D01*
X120532293Y-119472629D01*
X120617315Y-119416718D01*
X120714193Y-119351506D01*
X120769450Y-119313719D01*
X120870348Y-119244843D01*
X120961399Y-119183640D01*
X121038070Y-119133078D01*
X121095828Y-119096128D01*
X121130143Y-119075758D01*
X121137354Y-119072697D01*
X121157848Y-119079636D01*
X121205613Y-119098551D01*
X121273932Y-119126587D01*
X121356089Y-119160891D01*
X121445370Y-119198609D01*
X121535058Y-119236887D01*
X121618438Y-119272870D01*
X121688794Y-119303706D01*
X121739410Y-119326539D01*
X121763571Y-119338517D01*
X121764522Y-119339224D01*
X121769136Y-119358031D01*
X121779428Y-119408118D01*
X121794387Y-119484293D01*
X121813001Y-119581365D01*
X121834259Y-119694143D01*
X121846518Y-119759942D01*
X121869462Y-119880450D01*
X121891295Y-119989297D01*
X121910822Y-120080976D01*
X121926848Y-120149981D01*
X121938179Y-120190804D01*
X121941774Y-120199011D01*
X121966106Y-120207048D01*
X122021059Y-120213533D01*
X122100208Y-120218470D01*
X122197126Y-120221864D01*
X122305387Y-120223718D01*
X122418565Y-120224038D01*
X122530235Y-120222827D01*
X122633968Y-120220090D01*
X122723341Y-120215831D01*
X122791926Y-120210055D01*
X122833297Y-120202767D01*
X122841910Y-120198395D01*
X122852233Y-120172264D01*
X122866992Y-120116893D01*
X122884452Y-120039607D01*
X122902880Y-119947730D01*
X122908841Y-119915658D01*
X122937166Y-119761024D01*
X122959976Y-119638875D01*
X122978180Y-119545173D01*
X122992683Y-119475884D01*
X123004392Y-119426971D01*
X123014215Y-119394397D01*
X123023056Y-119374128D01*
X123031824Y-119362126D01*
X123033557Y-119360447D01*
X123061471Y-119343684D01*
X123115795Y-119318114D01*
X123189877Y-119286288D01*
X123277065Y-119250760D01*
X123370708Y-119214083D01*
X123464152Y-119178811D01*
X123550747Y-119147496D01*
X123623840Y-119122693D01*
X123676778Y-119106954D01*
X123702911Y-119102832D01*
X123703826Y-119103176D01*
X123725186Y-119117141D01*
X123772184Y-119148822D01*
X123839927Y-119194891D01*
X123923523Y-119252018D01*
X124018082Y-119316873D01*
X124044954Y-119335343D01*
X124142375Y-119401199D01*
X124231263Y-119459150D01*
X124306512Y-119506038D01*
X124363020Y-119538707D01*
X124395681Y-119554000D01*
X124399693Y-119554741D01*
X124420784Y-119541892D01*
X124462564Y-119506388D01*
X124520545Y-119452793D01*
X124590235Y-119385671D01*
X124667145Y-119309587D01*
X124746783Y-119229104D01*
X124824661Y-119148787D01*
X124896286Y-119073199D01*
X124957170Y-119006905D01*
X125002821Y-118954469D01*
X125028750Y-118920455D01*
X125032983Y-118911045D01*
X125023012Y-118889143D01*
X124996120Y-118844300D01*
X124956836Y-118783821D01*
X124925217Y-118737289D01*
X124867198Y-118652975D01*
X124798884Y-118553126D01*
X124730679Y-118452973D01*
X124694175Y-118399127D01*
X124570900Y-118216871D01*
X124653620Y-118063881D01*
X124689859Y-117994182D01*
X124718026Y-117934914D01*
X124734091Y-117894811D01*
X124736326Y-117884603D01*
X124719822Y-117872329D01*
X124673182Y-117848113D01*
X124600709Y-117813763D01*
X124506706Y-117771088D01*
X124395474Y-117721894D01*
X124271315Y-117667990D01*
X124138532Y-117611184D01*
X124001427Y-117553282D01*
X123864302Y-117496093D01*
X123731458Y-117441424D01*
X123607198Y-117391084D01*
X123495825Y-117346880D01*
X123401639Y-117310619D01*
X123328944Y-117284109D01*
X123282041Y-117269158D01*
X123265933Y-117266754D01*
X123245386Y-117285811D01*
X123212033Y-117327536D01*
X123172802Y-117383206D01*
X123169699Y-117387878D01*
X123054523Y-117531764D01*
X122920153Y-117647783D01*
X122770884Y-117734930D01*
X122611013Y-117792199D01*
X122444837Y-117818586D01*
X122276652Y-117813085D01*
X122110755Y-117774690D01*
X121951442Y-117702395D01*
X121916587Y-117681126D01*
X121775837Y-117570496D01*
X121662814Y-117439802D01*
X121578103Y-117293564D01*
X121522294Y-117136308D01*
X121495974Y-116972557D01*
X121499730Y-116806833D01*
X121534150Y-116643662D01*
X121599823Y-116487565D01*
X121697335Y-116343067D01*
X121736913Y-116298369D01*
X121860803Y-116184612D01*
X121991224Y-116101718D01*
X122137415Y-116044856D01*
X122282188Y-116013187D01*
X122444960Y-116005369D01*
X122608540Y-116031438D01*
X122767398Y-116088745D01*
X122916006Y-116174644D01*
X123048835Y-116286486D01*
X123160356Y-116421623D01*
X123172111Y-116439383D01*
X123210608Y-116495650D01*
X123243963Y-116538423D01*
X123265260Y-116558872D01*
X123265933Y-116559169D01*
X123288971Y-116554779D01*
X123341257Y-116537376D01*
X123418490Y-116508768D01*
X123516368Y-116470765D01*
X123630591Y-116425174D01*
X123756858Y-116373803D01*
X123890867Y-116318462D01*
X124028318Y-116260958D01*
X124164908Y-116203101D01*
X124296337Y-116146698D01*
X124418305Y-116093558D01*
X124526509Y-116045490D01*
X124616649Y-116004301D01*
X124684423Y-115971801D01*
X124725530Y-115949797D01*
X124736326Y-115940936D01*
X124727919Y-115913860D01*
X124705372Y-115863197D01*
X124672713Y-115797683D01*
X124653620Y-115761659D01*
X124570900Y-115608668D01*
X124694175Y-115426412D01*
X124757328Y-115333375D01*
X124826827Y-115231515D01*
X124892265Y-115136062D01*
X124925217Y-115088250D01*
X124970373Y-115021005D01*
X125006157Y-114964064D01*
X125028038Y-114924854D01*
X125032663Y-114912119D01*
X125020185Y-114893583D01*
X124985352Y-114852559D01*
X124931778Y-114793025D01*
X124863083Y-114718958D01*
X124782881Y-114634335D01*
X124731386Y-114580815D01*
X124639386Y-114487181D01*
X124557099Y-114406259D01*
X124488045Y-114341323D01*
X124435744Y-114295642D01*
X124403716Y-114272489D01*
X124397216Y-114270268D01*
X124372494Y-114280576D01*
X124322505Y-114309061D01*
X124252312Y-114352563D01*
X124166975Y-114407923D01*
X124071556Y-114471980D01*
X124044954Y-114490197D01*
X123948267Y-114556573D01*
X123861217Y-114616122D01*
X123788695Y-114665516D01*
X123735593Y-114701425D01*
X123706803Y-114720519D01*
X123703826Y-114722364D01*
X123680882Y-114719605D01*
X123630436Y-114704962D01*
X123559141Y-114680987D01*
X123473647Y-114650234D01*
X123380607Y-114615256D01*
X123286674Y-114578607D01*
X123198499Y-114542839D01*
X123122734Y-114510506D01*
X123066031Y-114484162D01*
X123035043Y-114466358D01*
X123033557Y-114465093D01*
X123024701Y-114454206D01*
X123015943Y-114435818D01*
X123006377Y-114405894D01*
X122995096Y-114360397D01*
X122981193Y-114295291D01*
X122963763Y-114206539D01*
X122941898Y-114090107D01*
X122914691Y-113941958D01*
X122908841Y-113909882D01*
X122890474Y-113814814D01*
X122872505Y-113731935D01*
X122856669Y-113668570D01*
X122844700Y-113632042D01*
X122841910Y-113627144D01*
X122817172Y-113619073D01*
X122761890Y-113612513D01*
X122682489Y-113607467D01*
X122585396Y-113603941D01*
X122477038Y-113601939D01*
X122363840Y-113601464D01*
X122252228Y-113602523D01*
X122148629Y-113605118D01*
X122059468Y-113609254D01*
X121991172Y-113614937D01*
X121950166Y-113622169D01*
X121941774Y-113626529D01*
X121933308Y-113650802D01*
X121919535Y-113706074D01*
X121901650Y-113786838D01*
X121880848Y-113887588D01*
X121858323Y-114002817D01*
X121846518Y-114065598D01*
X121824251Y-114184713D01*
X121804079Y-114290935D01*
X121787015Y-114379073D01*
X121774069Y-114443934D01*
X121766255Y-114480326D01*
X121764522Y-114486316D01*
X121744990Y-114496439D01*
X121697943Y-114517838D01*
X121630103Y-114547661D01*
X121548191Y-114583055D01*
X121458928Y-114621168D01*
X121369035Y-114659147D01*
X121285235Y-114694140D01*
X121214247Y-114723294D01*
X121162794Y-114743757D01*
X121137597Y-114752677D01*
X121136496Y-114752843D01*
X121116619Y-114742731D01*
X121070877Y-114714383D01*
X121003817Y-114670777D01*
X120919984Y-114614894D01*
X120823926Y-114549713D01*
X120768750Y-114511821D01*
X120667581Y-114442775D01*
X120575730Y-114381450D01*
X120497844Y-114330837D01*
X120438569Y-114293929D01*
X120402551Y-114273718D01*
X120394477Y-114270799D01*
X120375684Y-114283347D01*
X120335557Y-114318037D01*
X120278593Y-114370437D01*
X120209285Y-114436116D01*
X120132131Y-114510644D01*
X120051625Y-114589587D01*
X119972263Y-114668517D01*
X119898540Y-114743000D01*
X119834952Y-114808606D01*
X119785994Y-114860904D01*
X119756161Y-114895461D01*
X119749042Y-114907022D01*
X119759053Y-114925846D01*
X119787178Y-114970869D01*
X119830554Y-115037713D01*
X119886318Y-115122001D01*
X119951606Y-115219356D01*
X120001346Y-115292793D01*
X120253651Y-115663833D01*
X119998655Y-116282405D01*
X119554031Y-116366225D01*
X119109407Y-116450046D01*
X119109407Y-117375494D01*
X119554031Y-117459314D01*
D11*
X162600000Y-125770000D03*
X162600000Y-123230000D03*
D12*
X144820000Y-102910000D03*
X144820000Y-105450000D03*
X144820000Y-107990000D03*
X144820000Y-110530000D03*
X142280000Y-110530000D03*
X139740000Y-110530000D03*
X139740000Y-113070000D03*
X139740000Y-115610000D03*
X139740000Y-118150000D03*
X139740000Y-120690000D03*
X139740000Y-123230000D03*
X142280000Y-123230000D03*
X144820000Y-123230000D03*
X147360000Y-130850000D03*
X147360000Y-128310000D03*
X147360000Y-125770000D03*
X147360000Y-123230000D03*
X106720000Y-133390000D03*
X109260000Y-133390000D03*
X111800000Y-133390000D03*
X114340000Y-133390000D03*
X116880000Y-133390000D03*
X119420000Y-133390000D03*
X121960000Y-133390000D03*
X124500000Y-133390000D03*
X127040000Y-133390000D03*
X129580000Y-133390000D03*
X132120000Y-133390000D03*
X134660000Y-133390000D03*
X137200000Y-133390000D03*
X139740000Y-133390000D03*
X142280000Y-133390000D03*
X144820000Y-133390000D03*
X147360000Y-133390000D03*
X106720000Y-135930000D03*
X116880000Y-146090000D03*
X119420000Y-146090000D03*
X116880000Y-143550000D03*
X119420000Y-143550000D03*
X116880000Y-141010000D03*
X119420000Y-141010000D03*
X116880000Y-138470000D03*
X119420000Y-138470000D03*
X109260000Y-135930000D03*
X111800000Y-135930000D03*
X114340000Y-135930000D03*
X116880000Y-135930000D03*
X119420000Y-135930000D03*
X121960000Y-146090000D03*
X124500000Y-146090000D03*
X127040000Y-146090000D03*
X129580000Y-146090000D03*
X132120000Y-146090000D03*
X134660000Y-146090000D03*
X137200000Y-146090000D03*
X139740000Y-146090000D03*
X142280000Y-146090000D03*
X121960000Y-143550000D03*
X124500000Y-143550000D03*
X127040000Y-143550000D03*
X129580000Y-143550000D03*
X132120000Y-143550000D03*
X134660000Y-143550000D03*
X137200000Y-143550000D03*
X139740000Y-143550000D03*
X142280000Y-143550000D03*
X121960000Y-141010000D03*
X124500000Y-141010000D03*
X127040000Y-141010000D03*
X129580000Y-141010000D03*
X132120000Y-141010000D03*
X134660000Y-141010000D03*
X137200000Y-141010000D03*
X139740000Y-141010000D03*
X142280000Y-141010000D03*
X121960000Y-138470000D03*
X124500000Y-138470000D03*
X127040000Y-138470000D03*
X129580000Y-138470000D03*
X132120000Y-138470000D03*
X134660000Y-138470000D03*
X137200000Y-138470000D03*
X139740000Y-138470000D03*
X142280000Y-138470000D03*
X121960000Y-135930000D03*
X124500000Y-135930000D03*
X127040000Y-135930000D03*
X129580000Y-135930000D03*
X132120000Y-135930000D03*
X134660000Y-135930000D03*
X137200000Y-135930000D03*
X139740000Y-135930000D03*
X142280000Y-135930000D03*
X144820000Y-146090000D03*
X144820000Y-143550000D03*
X144820000Y-141010000D03*
X144820000Y-138470000D03*
X144820000Y-135930000D03*
X142280000Y-120690000D03*
X142280000Y-118150000D03*
X142280000Y-115610000D03*
X142280000Y-113070000D03*
X144820000Y-120690000D03*
X144820000Y-118150000D03*
X144820000Y-115610000D03*
X144820000Y-113070000D03*
X157520000Y-146090000D03*
X157520000Y-143550000D03*
X157520000Y-141010000D03*
X157520000Y-138470000D03*
X157520000Y-135930000D03*
X157520000Y-133390000D03*
X157520000Y-130850000D03*
X157520000Y-128310000D03*
X157520000Y-125770000D03*
X157520000Y-123230000D03*
X157520000Y-120690000D03*
X157520000Y-118150000D03*
X157520000Y-115610000D03*
X157520000Y-113070000D03*
X157520000Y-110530000D03*
X157520000Y-107990000D03*
X157520000Y-105450000D03*
X157520000Y-102910000D03*
X154980000Y-146090000D03*
X154980000Y-143550000D03*
X154980000Y-141010000D03*
X154980000Y-138470000D03*
X154980000Y-135930000D03*
X154980000Y-133390000D03*
X154980000Y-130850000D03*
X154980000Y-128310000D03*
X154980000Y-125770000D03*
X154980000Y-123230000D03*
X154980000Y-120690000D03*
X154980000Y-118150000D03*
X154980000Y-115610000D03*
X154980000Y-113070000D03*
X154980000Y-110530000D03*
X154980000Y-107990000D03*
X154980000Y-105450000D03*
X154980000Y-102910000D03*
X152440000Y-146090000D03*
X152440000Y-143550000D03*
X152440000Y-141010000D03*
X152440000Y-138470000D03*
X152440000Y-135930000D03*
X152440000Y-133390000D03*
X152440000Y-130850000D03*
X152440000Y-128310000D03*
X152440000Y-125770000D03*
X152440000Y-123230000D03*
X152440000Y-120690000D03*
X152440000Y-118150000D03*
X152440000Y-115610000D03*
X152440000Y-113070000D03*
X152440000Y-110530000D03*
X152440000Y-107990000D03*
X152440000Y-105450000D03*
X152440000Y-102910000D03*
X149900000Y-146090000D03*
X149900000Y-143550000D03*
X149900000Y-141010000D03*
X149900000Y-138470000D03*
X149900000Y-135930000D03*
X149900000Y-133390000D03*
X149900000Y-130850000D03*
X149900000Y-128310000D03*
X149900000Y-125770000D03*
X149900000Y-123230000D03*
X149900000Y-120690000D03*
X149900000Y-118150000D03*
X149900000Y-115610000D03*
X149900000Y-113070000D03*
X149900000Y-110530000D03*
X149900000Y-107990000D03*
X149900000Y-105450000D03*
X149900000Y-102910000D03*
X147360000Y-146090000D03*
X147360000Y-143550000D03*
X147360000Y-141010000D03*
X147360000Y-138470000D03*
X147360000Y-135930000D03*
X147360000Y-120690000D03*
X147360000Y-118150000D03*
X147360000Y-115610000D03*
X147360000Y-113070000D03*
X147360000Y-110530000D03*
X147360000Y-107990000D03*
X147360000Y-105450000D03*
X147360000Y-102910000D03*
D13*
X167000000Y-111200000D03*
X167000000Y-114700000D03*
D14*
X167000000Y-118200000D03*
D12*
X160060000Y-114700000D03*
X160060000Y-137800000D03*
X160060000Y-134300000D03*
X160060000Y-130800000D03*
X160060000Y-118200000D03*
X160060000Y-111200000D03*
X137200000Y-130850000D03*
X132120000Y-130850000D03*
X144820000Y-130850000D03*
X142280000Y-130850000D03*
X139740000Y-130850000D03*
X144820000Y-125770000D03*
X142280000Y-125770000D03*
X139740000Y-125770000D03*
X129580000Y-130850000D03*
X127040000Y-130850000D03*
X124500000Y-130850000D03*
X121960000Y-130850000D03*
X121960000Y-125770000D03*
X124500000Y-125770000D03*
X127040000Y-125770000D03*
X129580000Y-125770000D03*
X137200000Y-125770000D03*
X137200000Y-123230000D03*
X137200000Y-120690000D03*
X137200000Y-118150000D03*
X137200000Y-115610000D03*
X137200000Y-113070000D03*
X137200000Y-110530000D03*
X132120000Y-125770000D03*
X132120000Y-123249100D03*
X132120000Y-120690000D03*
X132120000Y-118150000D03*
X132120000Y-115610000D03*
X132120000Y-113070000D03*
X132120000Y-110530000D03*
X114340000Y-110530000D03*
X114340000Y-113070000D03*
X114340000Y-115610000D03*
X114340000Y-118150000D03*
X114340000Y-120690000D03*
X114340000Y-123230000D03*
X114340000Y-125770000D03*
X114340000Y-128310000D03*
X109260000Y-110530000D03*
X109260000Y-113070000D03*
X109260000Y-115610000D03*
X109260000Y-118150000D03*
X109260000Y-120690000D03*
X109260000Y-123230000D03*
X109260000Y-125770000D03*
X109260000Y-128310000D03*
X142280000Y-107990000D03*
X139740000Y-107990000D03*
X137200000Y-107990000D03*
X134660000Y-107990000D03*
X132120000Y-107990000D03*
X129580000Y-107990000D03*
X127040000Y-107990000D03*
X124500000Y-107990000D03*
X142280000Y-102910000D03*
X139740000Y-102910000D03*
X137200000Y-102910000D03*
X134660000Y-102910000D03*
X132120000Y-102910000D03*
X129580000Y-102910000D03*
X127040000Y-102910000D03*
X124500000Y-102910000D03*
D15*
X142280000Y-128310000D03*
X139740000Y-128310000D03*
X137200000Y-128310000D03*
X134660000Y-128310000D03*
X132120000Y-128310000D03*
X129580000Y-128310000D03*
X127040000Y-128310000D03*
D16*
X124500000Y-128310000D03*
D15*
X142280000Y-105450000D03*
X139740000Y-105450000D03*
X137200000Y-105450000D03*
X134660000Y-105450000D03*
X132120000Y-105450000D03*
X129580000Y-105450000D03*
X127040000Y-105450000D03*
D16*
X124500000Y-105450000D03*
D15*
X111800000Y-110530000D03*
X111800000Y-113070000D03*
X111800000Y-115610000D03*
X111800000Y-118150000D03*
X111800000Y-120690000D03*
X111800000Y-123230000D03*
X111800000Y-125770000D03*
D16*
X111800000Y-128310000D03*
D15*
X134660000Y-110530000D03*
X134660000Y-113070000D03*
X134660000Y-115610000D03*
X134660000Y-118150000D03*
X134660000Y-120690000D03*
X134660000Y-123230000D03*
X134660000Y-125770000D03*
D16*
X134660000Y-128310000D03*
D13*
X167000000Y-130800000D03*
X167000000Y-134300000D03*
D14*
X167000000Y-137800000D03*
D17*
X159340600Y-114700000D02*
X159321500Y-114719100D01*
X157520000Y-133390000D02*
X154980000Y-133390000D01*
X157520000Y-135930000D02*
X154980000Y-135930000D01*
X154980000Y-133390000D02*
X152440000Y-133390000D01*
X154980000Y-135930000D02*
X152440000Y-135930000D01*
X152440000Y-133390000D02*
X149900000Y-133390000D01*
X152440000Y-135930000D02*
X149900000Y-135930000D01*
X149900000Y-133390000D02*
X147360000Y-133390000D01*
X149900000Y-135930000D02*
X147360000Y-135930000D01*
X147360000Y-133390000D02*
X144820000Y-133390000D01*
X147360000Y-135930000D02*
X144820000Y-135930000D01*
X144820000Y-133390000D02*
X142280000Y-133390000D01*
X144820000Y-135930000D02*
X142280000Y-135930000D01*
X142280000Y-133390000D02*
X139740000Y-133390000D01*
X142280000Y-135930000D02*
X139740000Y-135930000D01*
X139740000Y-133390000D02*
X137200000Y-133390000D01*
X139740000Y-135930000D02*
X137200000Y-135930000D01*
X137200000Y-133390000D02*
X134660000Y-133390000D01*
X137200000Y-135930000D02*
X134660000Y-135930000D01*
X134660000Y-135930000D02*
X132120000Y-135930000D01*
X134660000Y-133390000D02*
X132120000Y-133390000D01*
X132120000Y-133390000D02*
X129580000Y-133390000D01*
X132120000Y-135930000D02*
X129580000Y-135930000D01*
X129580000Y-133390000D02*
X127040000Y-133390000D01*
X129580000Y-135930000D02*
X127040000Y-135930000D01*
X127040000Y-133390000D02*
X124500000Y-133390000D01*
X127040000Y-135930000D02*
X124500000Y-135930000D01*
X124500000Y-133390000D02*
X121960000Y-133390000D01*
X124500000Y-135930000D02*
X121960000Y-135930000D01*
X121960000Y-133390000D02*
X119420000Y-133390000D01*
X121960000Y-135930000D02*
X119420000Y-135930000D01*
X119420000Y-135930000D02*
X116880000Y-135930000D01*
X119420000Y-133390000D02*
X116880000Y-133390000D01*
X116880000Y-133390000D02*
X114340000Y-133390000D01*
X116880000Y-135930000D02*
X114340000Y-135930000D01*
X114340000Y-133390000D02*
X111800000Y-133390000D01*
X114340000Y-135930000D02*
X111800000Y-135930000D01*
X111800000Y-133390000D02*
X109260000Y-133390000D01*
X111800000Y-135930000D02*
X109260000Y-135930000D01*
X109260000Y-133390000D02*
X106720000Y-133390000D01*
X109260000Y-135930000D02*
X106720000Y-135930000D01*
X116880000Y-146090000D02*
X116880000Y-143550000D01*
X116880000Y-143550000D02*
X116880000Y-141010000D01*
X116880000Y-141010000D02*
X116880000Y-138470000D01*
X119420000Y-138470000D02*
X119420000Y-141010000D01*
X119420000Y-141010000D02*
X119420000Y-143550000D01*
X119420000Y-143550000D02*
X119420000Y-146090000D01*
X121960000Y-146090000D02*
X121960000Y-143550000D01*
X121960000Y-143550000D02*
X121960000Y-141010000D01*
X121960000Y-141010000D02*
X121960000Y-138470000D01*
X124500000Y-138470000D02*
X124500000Y-141010000D01*
X124500000Y-141010000D02*
X124500000Y-143550000D01*
X124500000Y-143550000D02*
X124500000Y-146090000D01*
X127040000Y-146090000D02*
X127040000Y-143550000D01*
X127040000Y-143550000D02*
X127040000Y-141010000D01*
X127040000Y-141010000D02*
X127040000Y-138470000D01*
X129580000Y-138470000D02*
X129580000Y-141010000D01*
X129580000Y-141010000D02*
X129580000Y-143550000D01*
X129580000Y-143550000D02*
X129580000Y-146090000D01*
X132120000Y-146090000D02*
X132120000Y-143550000D01*
X132120000Y-143550000D02*
X132120000Y-141010000D01*
X132120000Y-141010000D02*
X132120000Y-138470000D01*
X134660000Y-138470000D02*
X134660000Y-141010000D01*
X134660000Y-141010000D02*
X134660000Y-143550000D01*
X134660000Y-143550000D02*
X134660000Y-146090000D01*
X137200000Y-146090000D02*
X137200000Y-143550000D01*
X137200000Y-143550000D02*
X137200000Y-141010000D01*
X137200000Y-141010000D02*
X137200000Y-138470000D01*
X139740000Y-138470000D02*
X139740000Y-141010000D01*
X139740000Y-141010000D02*
X139740000Y-143550000D01*
X139740000Y-143550000D02*
X139740000Y-146090000D01*
X142280000Y-146090000D02*
X142280000Y-143550000D01*
X142280000Y-143550000D02*
X142280000Y-141010000D01*
X142280000Y-141010000D02*
X142280000Y-138470000D01*
X144820000Y-138470000D02*
X144820000Y-141010000D01*
X144820000Y-141010000D02*
X144820000Y-143550000D01*
X144820000Y-143550000D02*
X144820000Y-146090000D01*
X147360000Y-146090000D02*
X147360000Y-143550000D01*
X147360000Y-143550000D02*
X147360000Y-141010000D01*
X147360000Y-141010000D02*
X147360000Y-138470000D01*
X149900000Y-138470000D02*
X149900000Y-141010000D01*
X149900000Y-141010000D02*
X149900000Y-143550000D01*
X149900000Y-143550000D02*
X149900000Y-146090000D01*
X152440000Y-146090000D02*
X152440000Y-143550000D01*
X152440000Y-143550000D02*
X152440000Y-141010000D01*
X152440000Y-141010000D02*
X152440000Y-138470000D01*
X154980000Y-138470000D02*
X154980000Y-141010000D01*
X154980000Y-141010000D02*
X154980000Y-143550000D01*
X154980000Y-143550000D02*
X154980000Y-146090000D01*
X157520000Y-146090000D02*
X157520000Y-143550000D01*
X157520000Y-143550000D02*
X157520000Y-141010000D01*
X157520000Y-141010000D02*
X157520000Y-138470000D01*
X157520000Y-130850000D02*
X157520000Y-128310000D01*
X157520000Y-128310000D02*
X157520000Y-125770000D01*
X154980000Y-125770000D02*
X154980000Y-128310000D01*
X154980000Y-128310000D02*
X154980000Y-130850000D01*
X152440000Y-130850000D02*
X152440000Y-128310000D01*
X152440000Y-128310000D02*
X152440000Y-125770000D01*
X149900000Y-125770000D02*
X149900000Y-128310000D01*
X149900000Y-128310000D02*
X149900000Y-130850000D01*
X147360000Y-130850000D02*
X147360000Y-128310000D01*
X147360000Y-128310000D02*
X147360000Y-125770000D01*
X139740000Y-120690000D02*
X142280000Y-120690000D01*
X142280000Y-120690000D02*
X144820000Y-120690000D01*
X144820000Y-120690000D02*
X147360000Y-120690000D01*
X147360000Y-123230000D02*
X144820000Y-123230000D01*
X144820000Y-123230000D02*
X142280000Y-123230000D01*
X142280000Y-123230000D02*
X139740000Y-123230000D01*
X149900000Y-110530000D02*
X149900000Y-113070000D01*
X152440000Y-110530000D02*
X152440000Y-113070000D01*
X152440000Y-113070000D02*
X152440000Y-115610000D01*
X149900000Y-113070000D02*
X149900000Y-115610000D01*
X149900000Y-118150000D02*
X149900000Y-115610000D01*
X152440000Y-118150000D02*
X152440000Y-115610000D01*
X144820000Y-102910000D02*
X147360000Y-102910000D01*
X147360000Y-105450000D02*
X144820000Y-105450000D01*
X149900000Y-110530000D02*
X149900000Y-107990000D01*
X152440000Y-110530000D02*
X152440000Y-107990000D01*
X154980000Y-102910000D02*
X157520000Y-102910000D01*
X154980000Y-105450000D02*
X157520000Y-105450000D01*
X154980000Y-107990000D02*
X157520000Y-107990000D01*
X154980000Y-110530000D02*
X157520000Y-110530000D01*
X154980000Y-113070000D02*
X157520000Y-113070000D01*
X154980000Y-115610000D02*
X157520000Y-115610000D01*
X154980000Y-118150000D02*
X157520000Y-118150000D01*
X154980000Y-120690000D02*
X157520000Y-120690000D01*
X154980000Y-123230000D02*
X157520000Y-123230000D01*
X149900000Y-123230000D02*
X149900000Y-120690000D01*
X152440000Y-123230000D02*
X152440000Y-120690000D01*
X149900000Y-120690000D02*
X149900000Y-118150000D01*
X152440000Y-120690000D02*
X152440000Y-118150000D01*
X152440000Y-102910000D02*
X152440000Y-105450000D01*
X152440000Y-105450000D02*
X152440000Y-107990000D01*
X149900000Y-107990000D02*
X149900000Y-105450000D01*
X149900000Y-105450000D02*
X149900000Y-102910000D01*
X144820000Y-107990000D02*
X147360000Y-107990000D01*
X144820000Y-110530000D02*
X147360000Y-110530000D01*
X144820000Y-113070000D02*
X147360000Y-113070000D01*
X144820000Y-115610000D02*
X147360000Y-115610000D01*
X144820000Y-118150000D02*
X147360000Y-118150000D01*
X139740000Y-110530000D02*
X142280000Y-110530000D01*
X142280000Y-110530000D02*
X144820000Y-110530000D01*
X139740000Y-113070000D02*
X142280000Y-113070000D01*
X142280000Y-113070000D02*
X144820000Y-113070000D01*
X139740000Y-115610000D02*
X142280000Y-115610000D01*
X142280000Y-115610000D02*
X144820000Y-115610000D01*
X139740000Y-118150000D02*
X142280000Y-118150000D01*
X142280000Y-118150000D02*
X144820000Y-118150000D01*
X166989600Y-130800000D02*
X166992300Y-130797300D01*
X167045800Y-130800000D02*
X167081200Y-130835400D01*
X167058500Y-130800000D02*
X167081200Y-130822700D01*
X166151400Y-130800000D02*
X166522400Y-130429000D01*
X160060000Y-130800000D02*
X166151400Y-130800000D01*
X166905900Y-134300000D02*
X166941500Y-134264400D01*
X166931300Y-134300000D02*
X167043100Y-134188200D01*
X167286900Y-134300000D02*
X167436800Y-134150100D01*
X160060000Y-134300000D02*
X167286900Y-134300000D01*
X166923800Y-137800000D02*
X166992300Y-137731500D01*
X166971900Y-137800000D02*
X167043100Y-137871200D01*
X166657100Y-137800000D02*
X166890700Y-137566400D01*
X160060000Y-137800000D02*
X166657100Y-137800000D01*
X166815700Y-111200000D02*
X166852600Y-111163100D01*
X166841100Y-111200000D02*
X166928800Y-111112300D01*
X166914900Y-111200000D02*
X166954200Y-111239300D01*
X160060000Y-111200000D02*
X166914900Y-111200000D01*
X167156300Y-118200000D02*
X167157400Y-118198900D01*
X166927700Y-118200000D02*
X166966900Y-118160800D01*
X166419700Y-118200000D02*
X166636700Y-117983000D01*
X160060000Y-118200000D02*
X166419700Y-118200000D01*
X166389000Y-114700000D02*
X166547800Y-114858800D01*
X167100300Y-114700000D02*
X167106600Y-114693700D01*
X167011300Y-114700000D02*
X167017700Y-114706400D01*
X160060000Y-114700000D02*
X167011300Y-114700000D01*
X142280000Y-103054200D02*
X142341600Y-102992600D01*
X142280000Y-105450000D02*
X142280000Y-103054200D01*
X142280000Y-107731600D02*
X142328900Y-107780500D01*
X142280000Y-105450000D02*
X142280000Y-107731600D01*
X139740000Y-102939900D02*
X139763500Y-102916400D01*
X139740000Y-105450000D02*
X139740000Y-102939900D01*
X139740000Y-107871300D02*
X139763500Y-107894800D01*
X139740000Y-105450000D02*
X139740000Y-107871300D01*
X137200000Y-102943700D02*
X137172700Y-102916400D01*
X137200000Y-105450000D02*
X137200000Y-102943700D01*
X137200000Y-107765900D02*
X137198100Y-107767800D01*
X137200000Y-105450000D02*
X137200000Y-107765900D01*
X134660000Y-102889100D02*
X134670800Y-102878300D01*
X134660000Y-105450000D02*
X134660000Y-102889100D01*
X134660000Y-107845900D02*
X134670800Y-107856700D01*
X134660000Y-105450000D02*
X134660000Y-107845900D01*
X132120000Y-103016100D02*
X132143500Y-102992600D01*
X132120000Y-105450000D02*
X132120000Y-103016100D01*
X132120000Y-107884000D02*
X132130800Y-107894800D01*
X132120000Y-105450000D02*
X132120000Y-107884000D01*
X129580000Y-102956400D02*
X129578100Y-102954500D01*
X129580000Y-105450000D02*
X129580000Y-102956400D01*
X129580000Y-107845900D02*
X129603500Y-107869400D01*
X129580000Y-105450000D02*
X129580000Y-107845900D01*
X127040000Y-102994500D02*
X127038100Y-102992600D01*
X127040000Y-105450000D02*
X127040000Y-102994500D01*
X127040000Y-107820500D02*
X127076200Y-107856700D01*
X127040000Y-105450000D02*
X127040000Y-107820500D01*
X124500000Y-103058000D02*
X124472700Y-103030700D01*
X124500000Y-105450000D02*
X124500000Y-103058000D01*
X124500000Y-107892900D02*
X124498100Y-107894800D01*
X124500000Y-105450000D02*
X124500000Y-107892900D01*
X142280000Y-128301800D02*
X144805400Y-125776400D01*
X142280000Y-128310000D02*
X142280000Y-128301800D01*
X142280000Y-128331000D02*
X144856200Y-130907200D01*
X142280000Y-128310000D02*
X142280000Y-128331000D01*
X139744500Y-128310000D02*
X142303500Y-125751000D01*
X139740000Y-128310000D02*
X139744500Y-128310000D01*
X139740000Y-128318300D02*
X142252700Y-130831000D01*
X139740000Y-128310000D02*
X139740000Y-128318300D01*
X137204500Y-128310000D02*
X139788900Y-125725600D01*
X137200000Y-128310000D02*
X137204500Y-128310000D01*
X137200000Y-128343700D02*
X140004800Y-131148500D01*
X137200000Y-128310000D02*
X137200000Y-128343700D01*
X132120000Y-130803700D02*
X134759700Y-128164000D01*
X132120000Y-130850000D02*
X132120000Y-130803700D01*
X137191700Y-130850000D02*
X134556500Y-128214800D01*
X137200000Y-130850000D02*
X137191700Y-130850000D01*
X132099000Y-128310000D02*
X129552700Y-125763700D01*
X132120000Y-128310000D02*
X132099000Y-128310000D01*
X129597200Y-130850000D02*
X132143500Y-128303700D01*
X129580000Y-130850000D02*
X129597200Y-130850000D01*
X129546300Y-128310000D02*
X126987300Y-125751000D01*
X129580000Y-128310000D02*
X129546300Y-128310000D01*
X127044500Y-130850000D02*
X129654300Y-128240200D01*
X127040000Y-130850000D02*
X127044500Y-130850000D01*
X127006300Y-128310000D02*
X124421900Y-125725600D01*
X127040000Y-128310000D02*
X127006300Y-128310000D01*
X124500000Y-130841800D02*
X127114300Y-128227500D01*
X124500000Y-130850000D02*
X124500000Y-130841800D01*
X124479000Y-128310000D02*
X121920000Y-125751000D01*
X124500000Y-128310000D02*
X124479000Y-128310000D01*
X121960000Y-130803700D02*
X124421900Y-128341800D01*
X121960000Y-130850000D02*
X121960000Y-130803700D01*
X111855300Y-110530000D02*
X111861600Y-110523700D01*
X109260000Y-110530000D02*
X111855300Y-110530000D01*
X114382600Y-110530000D02*
X114388900Y-110523700D01*
X111800000Y-110530000D02*
X114382600Y-110530000D01*
X111867900Y-113070000D02*
X111874300Y-113076400D01*
X109260000Y-113070000D02*
X111867900Y-113070000D01*
X111906100Y-115610000D02*
X111912400Y-115603700D01*
X109260000Y-115610000D02*
X111906100Y-115610000D01*
X114306300Y-115610000D02*
X114325400Y-115629100D01*
X111800000Y-115610000D02*
X114306300Y-115610000D01*
X111855300Y-118150000D02*
X111861600Y-118143700D01*
X109260000Y-118150000D02*
X111855300Y-118150000D01*
X114331700Y-118150000D02*
X114350800Y-118169100D01*
X111800000Y-118150000D02*
X114331700Y-118150000D01*
X114344500Y-120690000D02*
X114350800Y-120683700D01*
X111800000Y-120690000D02*
X114344500Y-120690000D01*
X111753700Y-123230000D02*
X111785400Y-123198300D01*
X109260000Y-123230000D02*
X111753700Y-123230000D01*
X114395300Y-123230000D02*
X114401600Y-123223700D01*
X111800000Y-123230000D02*
X114395300Y-123230000D01*
X111652000Y-125770000D02*
X111683800Y-125801800D01*
X109260000Y-125770000D02*
X111652000Y-125770000D01*
X114293700Y-125770000D02*
X114312700Y-125751000D01*
X111800000Y-125770000D02*
X114293700Y-125770000D01*
X111766400Y-128310000D02*
X111785400Y-128291000D01*
X109260000Y-128310000D02*
X111766400Y-128310000D01*
X114344500Y-128310000D02*
X114350800Y-128303700D01*
X111800000Y-128310000D02*
X114344500Y-128310000D01*
X134651800Y-110530000D02*
X134658100Y-110523700D01*
X132120000Y-110530000D02*
X134651800Y-110530000D01*
X137255300Y-110530000D02*
X137261600Y-110523700D01*
X134660000Y-110530000D02*
X137255300Y-110530000D01*
X134715300Y-113070000D02*
X134734300Y-113051000D01*
X132120000Y-113070000D02*
X134715300Y-113070000D01*
X137255200Y-113070000D02*
X137261600Y-113076400D01*
X134660000Y-113070000D02*
X137255200Y-113070000D01*
X134613700Y-115610000D02*
X134620000Y-115603700D01*
X132120000Y-115610000D02*
X134613700Y-115610000D01*
X137268000Y-115610000D02*
X137274300Y-115603700D01*
X134660000Y-115610000D02*
X137268000Y-115610000D01*
X134689900Y-118150000D02*
X134696200Y-118143700D01*
X132120000Y-118150000D02*
X134689900Y-118150000D01*
X137141000Y-118150000D02*
X137147300Y-118143700D01*
X134660000Y-118150000D02*
X137141000Y-118150000D01*
X134512100Y-120690000D02*
X134518400Y-120683700D01*
X132120000Y-120690000D02*
X134512100Y-120690000D01*
X137153600Y-120690000D02*
X137172700Y-120709100D01*
X134660000Y-120690000D02*
X137153600Y-120690000D01*
X134531100Y-123249100D02*
X134569200Y-123287200D01*
X132120000Y-123249100D02*
X134531100Y-123249100D01*
X137115600Y-123230000D02*
X137121900Y-123223700D01*
X134660000Y-123230000D02*
X137115600Y-123230000D01*
X134791500Y-125770000D02*
X134810500Y-125751000D01*
X132120000Y-125770000D02*
X134791500Y-125770000D01*
X137191700Y-125770000D02*
X137198100Y-125776400D01*
X134660000Y-125770000D02*
X137191700Y-125770000D01*
D18*
G36*
X167922061Y-101068607D02*
G01*
X167938262Y-101170898D01*
X168176369Y-102162684D01*
X168208372Y-102261181D01*
X168598697Y-103203509D01*
X168622207Y-103249648D01*
X168645715Y-103295787D01*
X169178647Y-104165453D01*
X169189207Y-104179987D01*
X169239522Y-104249240D01*
X169901938Y-105024830D01*
X169975170Y-105098062D01*
X170750760Y-105760478D01*
X170834547Y-105821353D01*
X171704213Y-106354284D01*
X171796491Y-106401303D01*
X172738819Y-106791627D01*
X172837316Y-106823631D01*
X173829102Y-107061738D01*
X173931393Y-107077939D01*
X174340000Y-107110097D01*
X174340001Y-141889903D01*
X173931393Y-141922061D01*
X173829102Y-141938262D01*
X172837316Y-142176369D01*
X172738819Y-142208373D01*
X171796491Y-142598697D01*
X171705618Y-142645000D01*
X171704213Y-142645716D01*
X170834547Y-143178647D01*
X170750760Y-143239522D01*
X169975170Y-143901938D01*
X169901938Y-143975170D01*
X169239522Y-144750760D01*
X169209084Y-144792654D01*
X169178647Y-144834547D01*
X168645715Y-145704213D01*
X168626392Y-145742138D01*
X168598697Y-145796491D01*
X168208372Y-146738819D01*
X168178937Y-146829411D01*
X168176369Y-146837316D01*
X167938262Y-147829102D01*
X167922061Y-147931393D01*
X167889903Y-148340000D01*
X107110097Y-148340000D01*
X107077939Y-147931393D01*
X107061738Y-147829102D01*
X106823631Y-146837316D01*
X106791627Y-146738819D01*
X106401303Y-145796491D01*
X106354284Y-145704213D01*
X105821353Y-144834547D01*
X105760478Y-144750760D01*
X105366714Y-144289721D01*
X110365000Y-144289721D01*
X110365000Y-144710279D01*
X110447047Y-145122756D01*
X110607988Y-145511302D01*
X110841637Y-145860983D01*
X111139017Y-146158363D01*
X111488698Y-146392012D01*
X111877244Y-146552953D01*
X112289721Y-146635000D01*
X112710279Y-146635000D01*
X113122756Y-146552953D01*
X113511302Y-146392012D01*
X113860983Y-146158363D01*
X114158363Y-145860983D01*
X114392012Y-145511302D01*
X114552953Y-145122756D01*
X114635000Y-144710279D01*
X114635000Y-144289721D01*
X114552953Y-143877244D01*
X114392012Y-143488698D01*
X114158363Y-143139017D01*
X113860983Y-142841637D01*
X113511302Y-142607988D01*
X113122756Y-142447047D01*
X112710279Y-142365000D01*
X112289721Y-142365000D01*
X111877244Y-142447047D01*
X111488698Y-142607988D01*
X111139017Y-142841637D01*
X110841637Y-143139017D01*
X110607988Y-143488698D01*
X110447047Y-143877244D01*
X110365000Y-144289721D01*
X105366714Y-144289721D01*
X105098062Y-143975170D01*
X105024830Y-143901938D01*
X104249240Y-143239522D01*
X104180784Y-143189786D01*
X104165453Y-143178647D01*
X103295787Y-142645715D01*
X103249648Y-142622207D01*
X103203509Y-142598697D01*
X102261181Y-142208372D01*
X102162684Y-142176369D01*
X101170898Y-141938262D01*
X101068607Y-141922061D01*
X100660000Y-141889903D01*
X100660000Y-133228967D01*
X105085000Y-133228967D01*
X105085000Y-133551033D01*
X105147832Y-133866912D01*
X105271082Y-134164463D01*
X105450013Y-134432252D01*
X105677748Y-134659987D01*
X105677767Y-134660000D01*
X105677748Y-134660013D01*
X105450013Y-134887748D01*
X105271082Y-135155537D01*
X105147832Y-135453088D01*
X105085000Y-135768967D01*
X105085000Y-136091033D01*
X105147832Y-136406912D01*
X105271082Y-136704463D01*
X105450013Y-136972252D01*
X105677748Y-137199987D01*
X105945537Y-137378918D01*
X106243088Y-137502168D01*
X106558967Y-137565000D01*
X106881033Y-137565000D01*
X107196912Y-137502168D01*
X107494463Y-137378918D01*
X107762252Y-137199987D01*
X107989987Y-136972252D01*
X107990000Y-136972233D01*
X107990013Y-136972252D01*
X108217748Y-137199987D01*
X108485537Y-137378918D01*
X108783088Y-137502168D01*
X109098967Y-137565000D01*
X109421033Y-137565000D01*
X109736912Y-137502168D01*
X110034463Y-137378918D01*
X110302252Y-137199987D01*
X110529987Y-136972252D01*
X110530000Y-136972233D01*
X110530013Y-136972252D01*
X110757748Y-137199987D01*
X111025537Y-137378918D01*
X111323088Y-137502168D01*
X111638967Y-137565000D01*
X111961033Y-137565000D01*
X112276912Y-137502168D01*
X112574463Y-137378918D01*
X112842252Y-137199987D01*
X113069987Y-136972252D01*
X113070000Y-136972233D01*
X113070013Y-136972252D01*
X113297748Y-137199987D01*
X113565537Y-137378918D01*
X113863088Y-137502168D01*
X114178967Y-137565000D01*
X114501033Y-137565000D01*
X114816912Y-137502168D01*
X115114463Y-137378918D01*
X115382252Y-137199987D01*
X115609987Y-136972252D01*
X115610000Y-136972233D01*
X115610013Y-136972252D01*
X115837748Y-137199987D01*
X115837767Y-137200000D01*
X115837748Y-137200013D01*
X115610013Y-137427748D01*
X115431082Y-137695537D01*
X115307832Y-137993088D01*
X115245000Y-138308967D01*
X115245000Y-138631033D01*
X115307832Y-138946912D01*
X115431082Y-139244463D01*
X115610013Y-139512252D01*
X115837748Y-139739987D01*
X115837767Y-139740000D01*
X115837748Y-139740013D01*
X115610013Y-139967748D01*
X115431082Y-140235537D01*
X115307832Y-140533088D01*
X115245000Y-140848967D01*
X115245000Y-141171033D01*
X115307832Y-141486912D01*
X115431082Y-141784463D01*
X115610013Y-142052252D01*
X115837748Y-142279987D01*
X115837767Y-142280000D01*
X115837748Y-142280013D01*
X115610013Y-142507748D01*
X115431082Y-142775537D01*
X115307832Y-143073088D01*
X115245000Y-143388967D01*
X115245000Y-143711033D01*
X115307832Y-144026912D01*
X115431082Y-144324463D01*
X115610013Y-144592252D01*
X115837748Y-144819987D01*
X115837767Y-144820000D01*
X115837748Y-144820013D01*
X115610013Y-145047748D01*
X115431082Y-145315537D01*
X115307832Y-145613088D01*
X115245000Y-145928967D01*
X115245000Y-146251033D01*
X115307832Y-146566912D01*
X115431082Y-146864463D01*
X115610013Y-147132252D01*
X115837748Y-147359987D01*
X116105537Y-147538918D01*
X116403088Y-147662168D01*
X116718967Y-147725000D01*
X117041033Y-147725000D01*
X117356912Y-147662168D01*
X117654463Y-147538918D01*
X117922252Y-147359987D01*
X118149987Y-147132252D01*
X118150000Y-147132233D01*
X118150013Y-147132252D01*
X118377748Y-147359987D01*
X118645537Y-147538918D01*
X118943088Y-147662168D01*
X119258967Y-147725000D01*
X119581033Y-147725000D01*
X119896912Y-147662168D01*
X120194463Y-147538918D01*
X120462252Y-147359987D01*
X120689987Y-147132252D01*
X120690000Y-147132233D01*
X120690013Y-147132252D01*
X120917748Y-147359987D01*
X121185537Y-147538918D01*
X121483088Y-147662168D01*
X121798967Y-147725000D01*
X122121033Y-147725000D01*
X122436912Y-147662168D01*
X122734463Y-147538918D01*
X123002252Y-147359987D01*
X123229987Y-147132252D01*
X123230000Y-147132233D01*
X123230013Y-147132252D01*
X123457748Y-147359987D01*
X123725537Y-147538918D01*
X124023088Y-147662168D01*
X124338967Y-147725000D01*
X124661033Y-147725000D01*
X124976912Y-147662168D01*
X125274463Y-147538918D01*
X125542252Y-147359987D01*
X125769987Y-147132252D01*
X125770000Y-147132233D01*
X125770013Y-147132252D01*
X125997748Y-147359987D01*
X126265537Y-147538918D01*
X126563088Y-147662168D01*
X126878967Y-147725000D01*
X127201033Y-147725000D01*
X127516912Y-147662168D01*
X127814463Y-147538918D01*
X128082252Y-147359987D01*
X128309987Y-147132252D01*
X128310000Y-147132233D01*
X128310013Y-147132252D01*
X128537748Y-147359987D01*
X128805537Y-147538918D01*
X129103088Y-147662168D01*
X129418967Y-147725000D01*
X129741033Y-147725000D01*
X130056912Y-147662168D01*
X130354463Y-147538918D01*
X130622252Y-147359987D01*
X130849987Y-147132252D01*
X130850000Y-147132233D01*
X130850013Y-147132252D01*
X131077748Y-147359987D01*
X131345537Y-147538918D01*
X131643088Y-147662168D01*
X131958967Y-147725000D01*
X132281033Y-147725000D01*
X132596912Y-147662168D01*
X132894463Y-147538918D01*
X133162252Y-147359987D01*
X133389987Y-147132252D01*
X133390000Y-147132233D01*
X133390013Y-147132252D01*
X133617748Y-147359987D01*
X133885537Y-147538918D01*
X134183088Y-147662168D01*
X134498967Y-147725000D01*
X134821033Y-147725000D01*
X135136912Y-147662168D01*
X135434463Y-147538918D01*
X135702252Y-147359987D01*
X135929987Y-147132252D01*
X135930000Y-147132233D01*
X135930013Y-147132252D01*
X136157748Y-147359987D01*
X136425537Y-147538918D01*
X136723088Y-147662168D01*
X137038967Y-147725000D01*
X137361033Y-147725000D01*
X137676912Y-147662168D01*
X137974463Y-147538918D01*
X138242252Y-147359987D01*
X138469987Y-147132252D01*
X138470000Y-147132233D01*
X138470013Y-147132252D01*
X138697748Y-147359987D01*
X138965537Y-147538918D01*
X139263088Y-147662168D01*
X139578967Y-147725000D01*
X139901033Y-147725000D01*
X140216912Y-147662168D01*
X140514463Y-147538918D01*
X140782252Y-147359987D01*
X141009987Y-147132252D01*
X141010000Y-147132233D01*
X141010013Y-147132252D01*
X141237748Y-147359987D01*
X141505537Y-147538918D01*
X141803088Y-147662168D01*
X142118967Y-147725000D01*
X142441033Y-147725000D01*
X142756912Y-147662168D01*
X143054463Y-147538918D01*
X143322252Y-147359987D01*
X143549987Y-147132252D01*
X143550000Y-147132233D01*
X143550013Y-147132252D01*
X143777748Y-147359987D01*
X144045537Y-147538918D01*
X144343088Y-147662168D01*
X144658967Y-147725000D01*
X144981033Y-147725000D01*
X145296912Y-147662168D01*
X145594463Y-147538918D01*
X145862252Y-147359987D01*
X146089987Y-147132252D01*
X146090000Y-147132233D01*
X146090013Y-147132252D01*
X146317748Y-147359987D01*
X146585537Y-147538918D01*
X146883088Y-147662168D01*
X147198967Y-147725000D01*
X147521033Y-147725000D01*
X147836912Y-147662168D01*
X148134463Y-147538918D01*
X148402252Y-147359987D01*
X148629987Y-147132252D01*
X148630000Y-147132233D01*
X148630013Y-147132252D01*
X148857748Y-147359987D01*
X149125537Y-147538918D01*
X149423088Y-147662168D01*
X149738967Y-147725000D01*
X150061033Y-147725000D01*
X150376912Y-147662168D01*
X150674463Y-147538918D01*
X150942252Y-147359987D01*
X151169987Y-147132252D01*
X151170000Y-147132233D01*
X151170013Y-147132252D01*
X151397748Y-147359987D01*
X151665537Y-147538918D01*
X151963088Y-147662168D01*
X152278967Y-147725000D01*
X152601033Y-147725000D01*
X152916912Y-147662168D01*
X153214463Y-147538918D01*
X153482252Y-147359987D01*
X153709987Y-147132252D01*
X153710000Y-147132233D01*
X153710013Y-147132252D01*
X153937748Y-147359987D01*
X154205537Y-147538918D01*
X154503088Y-147662168D01*
X154818967Y-147725000D01*
X155141033Y-147725000D01*
X155456912Y-147662168D01*
X155754463Y-147538918D01*
X156022252Y-147359987D01*
X156249987Y-147132252D01*
X156250000Y-147132233D01*
X156250013Y-147132252D01*
X156477748Y-147359987D01*
X156745537Y-147538918D01*
X157043088Y-147662168D01*
X157358967Y-147725000D01*
X157681033Y-147725000D01*
X157996912Y-147662168D01*
X158294463Y-147538918D01*
X158562252Y-147359987D01*
X158789987Y-147132252D01*
X158968918Y-146864463D01*
X159092168Y-146566912D01*
X159155000Y-146251033D01*
X159155000Y-145928967D01*
X159092168Y-145613088D01*
X158968918Y-145315537D01*
X158789987Y-145047748D01*
X158562252Y-144820013D01*
X158562233Y-144820000D01*
X158562252Y-144819987D01*
X158789987Y-144592252D01*
X158968918Y-144324463D01*
X158983308Y-144289721D01*
X160365000Y-144289721D01*
X160365000Y-144710279D01*
X160447047Y-145122756D01*
X160607988Y-145511302D01*
X160841637Y-145860983D01*
X161139017Y-146158363D01*
X161488698Y-146392012D01*
X161877244Y-146552953D01*
X162289721Y-146635000D01*
X162710279Y-146635000D01*
X163122756Y-146552953D01*
X163511302Y-146392012D01*
X163860983Y-146158363D01*
X164158363Y-145860983D01*
X164392012Y-145511302D01*
X164552953Y-145122756D01*
X164635000Y-144710279D01*
X164635000Y-144289721D01*
X164552953Y-143877244D01*
X164392012Y-143488698D01*
X164158363Y-143139017D01*
X163860983Y-142841637D01*
X163511302Y-142607988D01*
X163122756Y-142447047D01*
X162710279Y-142365000D01*
X162289721Y-142365000D01*
X161877244Y-142447047D01*
X161488698Y-142607988D01*
X161139017Y-142841637D01*
X160841637Y-143139017D01*
X160607988Y-143488698D01*
X160447047Y-143877244D01*
X160365000Y-144289721D01*
X158983308Y-144289721D01*
X159092168Y-144026912D01*
X159155000Y-143711033D01*
X159155000Y-143388967D01*
X159092168Y-143073088D01*
X158968918Y-142775537D01*
X158789987Y-142507748D01*
X158562252Y-142280013D01*
X158562233Y-142280000D01*
X158562252Y-142279987D01*
X158789987Y-142052252D01*
X158968918Y-141784463D01*
X159092168Y-141486912D01*
X159155000Y-141171033D01*
X159155000Y-140848967D01*
X159092168Y-140533088D01*
X158968918Y-140235537D01*
X158789987Y-139967748D01*
X158562252Y-139740013D01*
X158562233Y-139740000D01*
X158562252Y-139739987D01*
X158789987Y-139512252D01*
X158968918Y-139244463D01*
X159036107Y-139082254D01*
X159285537Y-139248918D01*
X159583088Y-139372168D01*
X159898967Y-139435000D01*
X160221033Y-139435000D01*
X160536912Y-139372168D01*
X160834463Y-139248918D01*
X161102252Y-139069987D01*
X161329987Y-138842252D01*
X161435059Y-138685000D01*
X165161928Y-138685000D01*
X165161928Y-139000000D01*
X165174188Y-139124482D01*
X165210498Y-139244180D01*
X165269463Y-139354494D01*
X165348815Y-139451185D01*
X165445506Y-139530537D01*
X165555820Y-139589502D01*
X165675518Y-139625812D01*
X165800000Y-139638072D01*
X168200000Y-139638072D01*
X168324482Y-139625812D01*
X168444180Y-139589502D01*
X168554494Y-139530537D01*
X168651185Y-139451185D01*
X168730537Y-139354494D01*
X168789502Y-139244180D01*
X168825812Y-139124482D01*
X168838072Y-139000000D01*
X168838072Y-136600000D01*
X168825812Y-136475518D01*
X168789502Y-136355820D01*
X168730537Y-136245506D01*
X168651185Y-136148815D01*
X168554494Y-136069463D01*
X168444180Y-136010498D01*
X168324482Y-135974188D01*
X168200000Y-135961928D01*
X167782838Y-135961928D01*
X167869199Y-135926156D01*
X168169744Y-135725338D01*
X168425338Y-135469744D01*
X168626156Y-135169199D01*
X168764482Y-134835250D01*
X168835000Y-134480732D01*
X168835000Y-134119268D01*
X168764482Y-133764750D01*
X168626156Y-133430801D01*
X168425338Y-133130256D01*
X168169744Y-132874662D01*
X167869199Y-132673844D01*
X167570213Y-132550000D01*
X167869199Y-132426156D01*
X168169744Y-132225338D01*
X168425338Y-131969744D01*
X168626156Y-131669199D01*
X168764482Y-131335250D01*
X168835000Y-130980732D01*
X168835000Y-130619268D01*
X168764482Y-130264750D01*
X168626156Y-129930801D01*
X168425338Y-129630256D01*
X168169744Y-129374662D01*
X167869199Y-129173844D01*
X167535250Y-129035518D01*
X167180732Y-128965000D01*
X166819268Y-128965000D01*
X166464750Y-129035518D01*
X166130801Y-129173844D01*
X165830256Y-129374662D01*
X165574662Y-129630256D01*
X165384402Y-129915000D01*
X161435059Y-129915000D01*
X161329987Y-129757748D01*
X161102252Y-129530013D01*
X160834463Y-129351082D01*
X160536912Y-129227832D01*
X160221033Y-129165000D01*
X159898967Y-129165000D01*
X159583088Y-129227832D01*
X159285537Y-129351082D01*
X159017748Y-129530013D01*
X158790013Y-129757748D01*
X158769975Y-129787736D01*
X158562252Y-129580013D01*
X158562233Y-129580000D01*
X158562252Y-129579987D01*
X158789987Y-129352252D01*
X158968918Y-129084463D01*
X159092168Y-128786912D01*
X159155000Y-128471033D01*
X159155000Y-128148967D01*
X159092168Y-127833088D01*
X158968918Y-127535537D01*
X158789987Y-127267748D01*
X158562252Y-127040013D01*
X158562233Y-127040000D01*
X158562252Y-127039987D01*
X158697189Y-126905050D01*
X161644555Y-126905050D01*
X161740258Y-127169399D01*
X162029787Y-127310238D01*
X162341229Y-127391885D01*
X162662615Y-127411205D01*
X162981595Y-127367454D01*
X163285911Y-127262314D01*
X163459742Y-127169399D01*
X163555445Y-126905050D01*
X162600000Y-125949605D01*
X161644555Y-126905050D01*
X158697189Y-126905050D01*
X158789987Y-126812252D01*
X158968918Y-126544463D01*
X159092168Y-126246912D01*
X159155000Y-125931033D01*
X159155000Y-125832615D01*
X160958795Y-125832615D01*
X161002546Y-126151595D01*
X161107686Y-126455911D01*
X161200601Y-126629742D01*
X161464950Y-126725445D01*
X162420395Y-125770000D01*
X162779605Y-125770000D01*
X163735050Y-126725445D01*
X163999399Y-126629742D01*
X164140238Y-126340213D01*
X164221885Y-126028771D01*
X164241205Y-125707385D01*
X164197454Y-125388405D01*
X164092314Y-125084089D01*
X163999399Y-124910258D01*
X163735050Y-124814555D01*
X162779605Y-125770000D01*
X162420395Y-125770000D01*
X161464950Y-124814555D01*
X161200601Y-124910258D01*
X161059762Y-125199787D01*
X160978115Y-125511229D01*
X160958795Y-125832615D01*
X159155000Y-125832615D01*
X159155000Y-125608967D01*
X159092168Y-125293088D01*
X158968918Y-124995537D01*
X158789987Y-124727748D01*
X158562252Y-124500013D01*
X158562233Y-124500000D01*
X158562252Y-124499987D01*
X158697189Y-124365050D01*
X161644555Y-124365050D01*
X161693411Y-124500000D01*
X161644555Y-124634950D01*
X162600000Y-125590395D01*
X163555445Y-124634950D01*
X163506589Y-124500000D01*
X163555445Y-124365050D01*
X163480116Y-124289721D01*
X167365000Y-124289721D01*
X167365000Y-124710279D01*
X167447047Y-125122756D01*
X167607988Y-125511302D01*
X167841637Y-125860983D01*
X168139017Y-126158363D01*
X168488698Y-126392012D01*
X168877244Y-126552953D01*
X169289721Y-126635000D01*
X169710279Y-126635000D01*
X170122756Y-126552953D01*
X170511302Y-126392012D01*
X170860983Y-126158363D01*
X171158363Y-125860983D01*
X171392012Y-125511302D01*
X171552953Y-125122756D01*
X171635000Y-124710279D01*
X171635000Y-124289721D01*
X171552953Y-123877244D01*
X171392012Y-123488698D01*
X171158363Y-123139017D01*
X170860983Y-122841637D01*
X170511302Y-122607988D01*
X170122756Y-122447047D01*
X169710279Y-122365000D01*
X169289721Y-122365000D01*
X168877244Y-122447047D01*
X168488698Y-122607988D01*
X168139017Y-122841637D01*
X167841637Y-123139017D01*
X167607988Y-123488698D01*
X167447047Y-123877244D01*
X167365000Y-124289721D01*
X163480116Y-124289721D01*
X162600000Y-123409605D01*
X161644555Y-124365050D01*
X158697189Y-124365050D01*
X158789987Y-124272252D01*
X158968918Y-124004463D01*
X159092168Y-123706912D01*
X159155000Y-123391033D01*
X159155000Y-123292615D01*
X160958795Y-123292615D01*
X161002546Y-123611595D01*
X161107686Y-123915911D01*
X161200601Y-124089742D01*
X161464950Y-124185445D01*
X162420395Y-123230000D01*
X162779605Y-123230000D01*
X163735050Y-124185445D01*
X163999399Y-124089742D01*
X164140238Y-123800213D01*
X164221885Y-123488771D01*
X164241205Y-123167385D01*
X164197454Y-122848405D01*
X164092314Y-122544089D01*
X163999399Y-122370258D01*
X163735050Y-122274555D01*
X162779605Y-123230000D01*
X162420395Y-123230000D01*
X161464950Y-122274555D01*
X161200601Y-122370258D01*
X161059762Y-122659787D01*
X160978115Y-122971229D01*
X160958795Y-123292615D01*
X159155000Y-123292615D01*
X159155000Y-123068967D01*
X159092168Y-122753088D01*
X158968918Y-122455537D01*
X158789987Y-122187748D01*
X158697189Y-122094950D01*
X161644555Y-122094950D01*
X162600000Y-123050395D01*
X163555445Y-122094950D01*
X163459742Y-121830601D01*
X163170213Y-121689762D01*
X162858771Y-121608115D01*
X162537385Y-121588795D01*
X162218405Y-121632546D01*
X161914089Y-121737686D01*
X161740258Y-121830601D01*
X161644555Y-122094950D01*
X158697189Y-122094950D01*
X158562252Y-121960013D01*
X158562233Y-121960000D01*
X158562252Y-121959987D01*
X158789987Y-121732252D01*
X158968918Y-121464463D01*
X159092168Y-121166912D01*
X159155000Y-120851033D01*
X159155000Y-120528967D01*
X159092168Y-120213088D01*
X158968918Y-119915537D01*
X158789987Y-119647748D01*
X158562252Y-119420013D01*
X158562233Y-119420000D01*
X158562252Y-119419987D01*
X158769975Y-119212264D01*
X158790013Y-119242252D01*
X159017748Y-119469987D01*
X159285537Y-119648918D01*
X159583088Y-119772168D01*
X159898967Y-119835000D01*
X160221033Y-119835000D01*
X160536912Y-119772168D01*
X160834463Y-119648918D01*
X161102252Y-119469987D01*
X161329987Y-119242252D01*
X161435059Y-119085000D01*
X165161928Y-119085000D01*
X165161928Y-119400000D01*
X165174188Y-119524482D01*
X165210498Y-119644180D01*
X165269463Y-119754494D01*
X165348815Y-119851185D01*
X165445506Y-119930537D01*
X165555820Y-119989502D01*
X165675518Y-120025812D01*
X165800000Y-120038072D01*
X168200000Y-120038072D01*
X168324482Y-120025812D01*
X168444180Y-119989502D01*
X168554494Y-119930537D01*
X168651185Y-119851185D01*
X168730537Y-119754494D01*
X168789502Y-119644180D01*
X168825812Y-119524482D01*
X168838072Y-119400000D01*
X168838072Y-117000000D01*
X168825812Y-116875518D01*
X168789502Y-116755820D01*
X168730537Y-116645506D01*
X168651185Y-116548815D01*
X168554494Y-116469463D01*
X168444180Y-116410498D01*
X168324482Y-116374188D01*
X168200000Y-116361928D01*
X167782838Y-116361928D01*
X167869199Y-116326156D01*
X168169744Y-116125338D01*
X168425338Y-115869744D01*
X168626156Y-115569199D01*
X168764482Y-115235250D01*
X168835000Y-114880732D01*
X168835000Y-114519268D01*
X168764482Y-114164750D01*
X168626156Y-113830801D01*
X168425338Y-113530256D01*
X168169744Y-113274662D01*
X167869199Y-113073844D01*
X167570213Y-112950000D01*
X167869199Y-112826156D01*
X168169744Y-112625338D01*
X168425338Y-112369744D01*
X168626156Y-112069199D01*
X168764482Y-111735250D01*
X168835000Y-111380732D01*
X168835000Y-111019268D01*
X168764482Y-110664750D01*
X168626156Y-110330801D01*
X168425338Y-110030256D01*
X168169744Y-109774662D01*
X167869199Y-109573844D01*
X167535250Y-109435518D01*
X167180732Y-109365000D01*
X166819268Y-109365000D01*
X166464750Y-109435518D01*
X166130801Y-109573844D01*
X165830256Y-109774662D01*
X165574662Y-110030256D01*
X165384402Y-110315000D01*
X161435059Y-110315000D01*
X161329987Y-110157748D01*
X161102252Y-109930013D01*
X160834463Y-109751082D01*
X160536912Y-109627832D01*
X160221033Y-109565000D01*
X159898967Y-109565000D01*
X159583088Y-109627832D01*
X159285537Y-109751082D01*
X159036107Y-109917746D01*
X158968918Y-109755537D01*
X158789987Y-109487748D01*
X158562252Y-109260013D01*
X158562233Y-109260000D01*
X158562252Y-109259987D01*
X158789987Y-109032252D01*
X158968918Y-108764463D01*
X159092168Y-108466912D01*
X159155000Y-108151033D01*
X159155000Y-107828967D01*
X159092168Y-107513088D01*
X158968918Y-107215537D01*
X158789987Y-106947748D01*
X158562252Y-106720013D01*
X158562233Y-106720000D01*
X158562252Y-106719987D01*
X158789987Y-106492252D01*
X158968918Y-106224463D01*
X159092168Y-105926912D01*
X159155000Y-105611033D01*
X159155000Y-105288967D01*
X159092168Y-104973088D01*
X158968918Y-104675537D01*
X158789987Y-104407748D01*
X158671960Y-104289721D01*
X160365000Y-104289721D01*
X160365000Y-104710279D01*
X160447047Y-105122756D01*
X160607988Y-105511302D01*
X160841637Y-105860983D01*
X161139017Y-106158363D01*
X161488698Y-106392012D01*
X161877244Y-106552953D01*
X162289721Y-106635000D01*
X162710279Y-106635000D01*
X163122756Y-106552953D01*
X163511302Y-106392012D01*
X163860983Y-106158363D01*
X164158363Y-105860983D01*
X164392012Y-105511302D01*
X164552953Y-105122756D01*
X164635000Y-104710279D01*
X164635000Y-104289721D01*
X164552953Y-103877244D01*
X164392012Y-103488698D01*
X164158363Y-103139017D01*
X163860983Y-102841637D01*
X163511302Y-102607988D01*
X163122756Y-102447047D01*
X162710279Y-102365000D01*
X162289721Y-102365000D01*
X161877244Y-102447047D01*
X161488698Y-102607988D01*
X161139017Y-102841637D01*
X160841637Y-103139017D01*
X160607988Y-103488698D01*
X160447047Y-103877244D01*
X160365000Y-104289721D01*
X158671960Y-104289721D01*
X158562252Y-104180013D01*
X158562233Y-104180000D01*
X158562252Y-104179987D01*
X158789987Y-103952252D01*
X158968918Y-103684463D01*
X159092168Y-103386912D01*
X159155000Y-103071033D01*
X159155000Y-102748967D01*
X159092168Y-102433088D01*
X158968918Y-102135537D01*
X158789987Y-101867748D01*
X158562252Y-101640013D01*
X158294463Y-101461082D01*
X157996912Y-101337832D01*
X157681033Y-101275000D01*
X157358967Y-101275000D01*
X157043088Y-101337832D01*
X156745537Y-101461082D01*
X156477748Y-101640013D01*
X156250013Y-101867748D01*
X156250000Y-101867767D01*
X156249987Y-101867748D01*
X156022252Y-101640013D01*
X155754463Y-101461082D01*
X155456912Y-101337832D01*
X155141033Y-101275000D01*
X154818967Y-101275000D01*
X154503088Y-101337832D01*
X154205537Y-101461082D01*
X153937748Y-101640013D01*
X153710013Y-101867748D01*
X153710000Y-101867767D01*
X153709987Y-101867748D01*
X153482252Y-101640013D01*
X153214463Y-101461082D01*
X152916912Y-101337832D01*
X152601033Y-101275000D01*
X152278967Y-101275000D01*
X151963088Y-101337832D01*
X151665537Y-101461082D01*
X151397748Y-101640013D01*
X151170013Y-101867748D01*
X151170000Y-101867767D01*
X151169987Y-101867748D01*
X150942252Y-101640013D01*
X150674463Y-101461082D01*
X150376912Y-101337832D01*
X150061033Y-101275000D01*
X149738967Y-101275000D01*
X149423088Y-101337832D01*
X149125537Y-101461082D01*
X148857748Y-101640013D01*
X148630013Y-101867748D01*
X148630000Y-101867767D01*
X148629987Y-101867748D01*
X148402252Y-101640013D01*
X148134463Y-101461082D01*
X147836912Y-101337832D01*
X147521033Y-101275000D01*
X147198967Y-101275000D01*
X146883088Y-101337832D01*
X146585537Y-101461082D01*
X146317748Y-101640013D01*
X146090013Y-101867748D01*
X146090000Y-101867767D01*
X146089987Y-101867748D01*
X145862252Y-101640013D01*
X145594463Y-101461082D01*
X145296912Y-101337832D01*
X144981033Y-101275000D01*
X144658967Y-101275000D01*
X144343088Y-101337832D01*
X144045537Y-101461082D01*
X143777748Y-101640013D01*
X143550013Y-101867748D01*
X143550000Y-101867767D01*
X143549987Y-101867748D01*
X143322252Y-101640013D01*
X143054463Y-101461082D01*
X142756912Y-101337832D01*
X142441033Y-101275000D01*
X142118967Y-101275000D01*
X141803088Y-101337832D01*
X141505537Y-101461082D01*
X141237748Y-101640013D01*
X141010013Y-101867748D01*
X141010000Y-101867767D01*
X141009987Y-101867748D01*
X140782252Y-101640013D01*
X140514463Y-101461082D01*
X140216912Y-101337832D01*
X139901033Y-101275000D01*
X139578967Y-101275000D01*
X139263088Y-101337832D01*
X138965537Y-101461082D01*
X138697748Y-101640013D01*
X138470013Y-101867748D01*
X138470000Y-101867767D01*
X138469987Y-101867748D01*
X138242252Y-101640013D01*
X137974463Y-101461082D01*
X137676912Y-101337832D01*
X137361033Y-101275000D01*
X137038967Y-101275000D01*
X136723088Y-101337832D01*
X136425537Y-101461082D01*
X136157748Y-101640013D01*
X135930013Y-101867748D01*
X135930000Y-101867767D01*
X135929987Y-101867748D01*
X135702252Y-101640013D01*
X135434463Y-101461082D01*
X135136912Y-101337832D01*
X134821033Y-101275000D01*
X134498967Y-101275000D01*
X134183088Y-101337832D01*
X133885537Y-101461082D01*
X133617748Y-101640013D01*
X133390013Y-101867748D01*
X133390000Y-101867767D01*
X133389987Y-101867748D01*
X133162252Y-101640013D01*
X132894463Y-101461082D01*
X132596912Y-101337832D01*
X132281033Y-101275000D01*
X131958967Y-101275000D01*
X131643088Y-101337832D01*
X131345537Y-101461082D01*
X131077748Y-101640013D01*
X130850013Y-101867748D01*
X130850000Y-101867767D01*
X130849987Y-101867748D01*
X130622252Y-101640013D01*
X130354463Y-101461082D01*
X130056912Y-101337832D01*
X129741033Y-101275000D01*
X129418967Y-101275000D01*
X129103088Y-101337832D01*
X128805537Y-101461082D01*
X128537748Y-101640013D01*
X128310013Y-101867748D01*
X128310000Y-101867767D01*
X128309987Y-101867748D01*
X128082252Y-101640013D01*
X127814463Y-101461082D01*
X127516912Y-101337832D01*
X127201033Y-101275000D01*
X126878967Y-101275000D01*
X126563088Y-101337832D01*
X126265537Y-101461082D01*
X125997748Y-101640013D01*
X125770013Y-101867748D01*
X125770000Y-101867767D01*
X125769987Y-101867748D01*
X125542252Y-101640013D01*
X125274463Y-101461082D01*
X124976912Y-101337832D01*
X124661033Y-101275000D01*
X124338967Y-101275000D01*
X124023088Y-101337832D01*
X123725537Y-101461082D01*
X123457748Y-101640013D01*
X123230013Y-101867748D01*
X123051082Y-102135537D01*
X122927832Y-102433088D01*
X122865000Y-102748967D01*
X122865000Y-103071033D01*
X122927832Y-103386912D01*
X123051082Y-103684463D01*
X123230013Y-103952252D01*
X123329209Y-104051448D01*
X123295506Y-104069463D01*
X123198815Y-104148815D01*
X123119463Y-104245506D01*
X123060498Y-104355820D01*
X123024188Y-104475518D01*
X123011928Y-104600000D01*
X123011928Y-106300000D01*
X123024188Y-106424482D01*
X123060498Y-106544180D01*
X123119463Y-106654494D01*
X123198815Y-106751185D01*
X123295506Y-106830537D01*
X123329209Y-106848552D01*
X123230013Y-106947748D01*
X123051082Y-107215537D01*
X122927832Y-107513088D01*
X122865000Y-107828967D01*
X122865000Y-108151033D01*
X122927832Y-108466912D01*
X123051082Y-108764463D01*
X123230013Y-109032252D01*
X123457748Y-109259987D01*
X123725537Y-109438918D01*
X124023088Y-109562168D01*
X124338967Y-109625000D01*
X124661033Y-109625000D01*
X124976912Y-109562168D01*
X125274463Y-109438918D01*
X125542252Y-109259987D01*
X125769987Y-109032252D01*
X125770000Y-109032233D01*
X125770013Y-109032252D01*
X125997748Y-109259987D01*
X126265537Y-109438918D01*
X126563088Y-109562168D01*
X126878967Y-109625000D01*
X127201033Y-109625000D01*
X127516912Y-109562168D01*
X127814463Y-109438918D01*
X128082252Y-109259987D01*
X128309987Y-109032252D01*
X128310000Y-109032233D01*
X128310013Y-109032252D01*
X128537748Y-109259987D01*
X128805537Y-109438918D01*
X129103088Y-109562168D01*
X129418967Y-109625000D01*
X129741033Y-109625000D01*
X130056912Y-109562168D01*
X130354463Y-109438918D01*
X130622252Y-109259987D01*
X130849987Y-109032252D01*
X130850000Y-109032233D01*
X130850013Y-109032252D01*
X131077748Y-109259987D01*
X131077767Y-109260000D01*
X131077748Y-109260013D01*
X130850013Y-109487748D01*
X130671082Y-109755537D01*
X130547832Y-110053088D01*
X130485000Y-110368967D01*
X130485000Y-110691033D01*
X130547832Y-111006912D01*
X130671082Y-111304463D01*
X130850013Y-111572252D01*
X131077748Y-111799987D01*
X131077767Y-111800000D01*
X131077748Y-111800013D01*
X130850013Y-112027748D01*
X130671082Y-112295537D01*
X130547832Y-112593088D01*
X130485000Y-112908967D01*
X130485000Y-113231033D01*
X130547832Y-113546912D01*
X130671082Y-113844463D01*
X130850013Y-114112252D01*
X131077748Y-114339987D01*
X131077767Y-114340000D01*
X131077748Y-114340013D01*
X130850013Y-114567748D01*
X130671082Y-114835537D01*
X130547832Y-115133088D01*
X130485000Y-115448967D01*
X130485000Y-115771033D01*
X130547832Y-116086912D01*
X130671082Y-116384463D01*
X130850013Y-116652252D01*
X131077748Y-116879987D01*
X131077767Y-116880000D01*
X131077748Y-116880013D01*
X130850013Y-117107748D01*
X130671082Y-117375537D01*
X130547832Y-117673088D01*
X130485000Y-117988967D01*
X130485000Y-118311033D01*
X130547832Y-118626912D01*
X130671082Y-118924463D01*
X130850013Y-119192252D01*
X131077748Y-119419987D01*
X131077767Y-119420000D01*
X131077748Y-119420013D01*
X130850013Y-119647748D01*
X130671082Y-119915537D01*
X130547832Y-120213088D01*
X130485000Y-120528967D01*
X130485000Y-120851033D01*
X130547832Y-121166912D01*
X130671082Y-121464463D01*
X130850013Y-121732252D01*
X131077748Y-121959987D01*
X131092060Y-121969550D01*
X131077748Y-121979113D01*
X130850013Y-122206848D01*
X130671082Y-122474637D01*
X130547832Y-122772188D01*
X130485000Y-123088067D01*
X130485000Y-123410133D01*
X130547832Y-123726012D01*
X130671082Y-124023563D01*
X130850013Y-124291352D01*
X131068211Y-124509550D01*
X130850013Y-124727748D01*
X130850000Y-124727767D01*
X130849987Y-124727748D01*
X130622252Y-124500013D01*
X130354463Y-124321082D01*
X130056912Y-124197832D01*
X129741033Y-124135000D01*
X129418967Y-124135000D01*
X129103088Y-124197832D01*
X128805537Y-124321082D01*
X128537748Y-124500013D01*
X128310013Y-124727748D01*
X128310000Y-124727767D01*
X128309987Y-124727748D01*
X128082252Y-124500013D01*
X127814463Y-124321082D01*
X127516912Y-124197832D01*
X127201033Y-124135000D01*
X126878967Y-124135000D01*
X126563088Y-124197832D01*
X126265537Y-124321082D01*
X125997748Y-124500013D01*
X125770013Y-124727748D01*
X125770000Y-124727767D01*
X125769987Y-124727748D01*
X125542252Y-124500013D01*
X125274463Y-124321082D01*
X124976912Y-124197832D01*
X124661033Y-124135000D01*
X124338967Y-124135000D01*
X124023088Y-124197832D01*
X123725537Y-124321082D01*
X123457748Y-124500013D01*
X123230013Y-124727748D01*
X123230000Y-124727767D01*
X123229987Y-124727748D01*
X123002252Y-124500013D01*
X122734463Y-124321082D01*
X122436912Y-124197832D01*
X122121033Y-124135000D01*
X121798967Y-124135000D01*
X121483088Y-124197832D01*
X121185537Y-124321082D01*
X120917748Y-124500013D01*
X120690013Y-124727748D01*
X120511082Y-124995537D01*
X120387832Y-125293088D01*
X120325000Y-125608967D01*
X120325000Y-125931033D01*
X120387832Y-126246912D01*
X120511082Y-126544463D01*
X120690013Y-126812252D01*
X120917748Y-127039987D01*
X121185537Y-127218918D01*
X121483088Y-127342168D01*
X121798967Y-127405000D01*
X122121033Y-127405000D01*
X122289009Y-127371588D01*
X123011928Y-128094507D01*
X123011928Y-128500193D01*
X122267907Y-129244215D01*
X122121033Y-129215000D01*
X121798967Y-129215000D01*
X121483088Y-129277832D01*
X121185537Y-129401082D01*
X120917748Y-129580013D01*
X120690013Y-129807748D01*
X120511082Y-130075537D01*
X120387832Y-130373088D01*
X120325000Y-130688967D01*
X120325000Y-131011033D01*
X120387832Y-131326912D01*
X120511082Y-131624463D01*
X120690013Y-131892252D01*
X120917748Y-132119987D01*
X120917767Y-132120000D01*
X120917748Y-132120013D01*
X120690013Y-132347748D01*
X120690000Y-132347767D01*
X120689987Y-132347748D01*
X120462252Y-132120013D01*
X120194463Y-131941082D01*
X119896912Y-131817832D01*
X119581033Y-131755000D01*
X119258967Y-131755000D01*
X118943088Y-131817832D01*
X118645537Y-131941082D01*
X118377748Y-132120013D01*
X118150013Y-132347748D01*
X118150000Y-132347767D01*
X118149987Y-132347748D01*
X117922252Y-132120013D01*
X117654463Y-131941082D01*
X117356912Y-131817832D01*
X117041033Y-131755000D01*
X116718967Y-131755000D01*
X116403088Y-131817832D01*
X116105537Y-131941082D01*
X115837748Y-132120013D01*
X115610013Y-132347748D01*
X115610000Y-132347767D01*
X115609987Y-132347748D01*
X115382252Y-132120013D01*
X115114463Y-131941082D01*
X114816912Y-131817832D01*
X114501033Y-131755000D01*
X114178967Y-131755000D01*
X113863088Y-131817832D01*
X113565537Y-131941082D01*
X113297748Y-132120013D01*
X113070013Y-132347748D01*
X113070000Y-132347767D01*
X113069987Y-132347748D01*
X112842252Y-132120013D01*
X112574463Y-131941082D01*
X112276912Y-131817832D01*
X111961033Y-131755000D01*
X111638967Y-131755000D01*
X111323088Y-131817832D01*
X111025537Y-131941082D01*
X110757748Y-132120013D01*
X110530013Y-132347748D01*
X110530000Y-132347767D01*
X110529987Y-132347748D01*
X110302252Y-132120013D01*
X110034463Y-131941082D01*
X109736912Y-131817832D01*
X109421033Y-131755000D01*
X109098967Y-131755000D01*
X108783088Y-131817832D01*
X108485537Y-131941082D01*
X108217748Y-132120013D01*
X107990013Y-132347748D01*
X107990000Y-132347767D01*
X107989987Y-132347748D01*
X107762252Y-132120013D01*
X107494463Y-131941082D01*
X107196912Y-131817832D01*
X106881033Y-131755000D01*
X106558967Y-131755000D01*
X106243088Y-131817832D01*
X105945537Y-131941082D01*
X105677748Y-132120013D01*
X105450013Y-132347748D01*
X105271082Y-132615537D01*
X105147832Y-132913088D01*
X105085000Y-133228967D01*
X100660000Y-133228967D01*
X100660000Y-124289721D01*
X103365000Y-124289721D01*
X103365000Y-124710279D01*
X103447047Y-125122756D01*
X103607988Y-125511302D01*
X103841637Y-125860983D01*
X104139017Y-126158363D01*
X104488698Y-126392012D01*
X104877244Y-126552953D01*
X105289721Y-126635000D01*
X105710279Y-126635000D01*
X106122756Y-126552953D01*
X106511302Y-126392012D01*
X106860983Y-126158363D01*
X107158363Y-125860983D01*
X107392012Y-125511302D01*
X107552953Y-125122756D01*
X107635000Y-124710279D01*
X107635000Y-124289721D01*
X107552953Y-123877244D01*
X107392012Y-123488698D01*
X107158363Y-123139017D01*
X106860983Y-122841637D01*
X106511302Y-122607988D01*
X106122756Y-122447047D01*
X105710279Y-122365000D01*
X105289721Y-122365000D01*
X104877244Y-122447047D01*
X104488698Y-122607988D01*
X104139017Y-122841637D01*
X103841637Y-123139017D01*
X103607988Y-123488698D01*
X103447047Y-123877244D01*
X103365000Y-124289721D01*
X100660000Y-124289721D01*
X100660000Y-110368967D01*
X107625000Y-110368967D01*
X107625000Y-110691033D01*
X107687832Y-111006912D01*
X107811082Y-111304463D01*
X107990013Y-111572252D01*
X108217748Y-111799987D01*
X108217767Y-111800000D01*
X108217748Y-111800013D01*
X107990013Y-112027748D01*
X107811082Y-112295537D01*
X107687832Y-112593088D01*
X107625000Y-112908967D01*
X107625000Y-113231033D01*
X107687832Y-113546912D01*
X107811082Y-113844463D01*
X107990013Y-114112252D01*
X108217748Y-114339987D01*
X108217767Y-114340000D01*
X108217748Y-114340013D01*
X107990013Y-114567748D01*
X107811082Y-114835537D01*
X107687832Y-115133088D01*
X107625000Y-115448967D01*
X107625000Y-115771033D01*
X107687832Y-116086912D01*
X107811082Y-116384463D01*
X107990013Y-116652252D01*
X108217748Y-116879987D01*
X108217767Y-116880000D01*
X108217748Y-116880013D01*
X107990013Y-117107748D01*
X107811082Y-117375537D01*
X107687832Y-117673088D01*
X107625000Y-117988967D01*
X107625000Y-118311033D01*
X107687832Y-118626912D01*
X107811082Y-118924463D01*
X107990013Y-119192252D01*
X108217748Y-119419987D01*
X108217767Y-119420000D01*
X108217748Y-119420013D01*
X107990013Y-119647748D01*
X107811082Y-119915537D01*
X107687832Y-120213088D01*
X107625000Y-120528967D01*
X107625000Y-120851033D01*
X107687832Y-121166912D01*
X107811082Y-121464463D01*
X107990013Y-121732252D01*
X108217748Y-121959987D01*
X108217767Y-121960000D01*
X108217748Y-121960013D01*
X107990013Y-122187748D01*
X107811082Y-122455537D01*
X107687832Y-122753088D01*
X107625000Y-123068967D01*
X107625000Y-123391033D01*
X107687832Y-123706912D01*
X107811082Y-124004463D01*
X107990013Y-124272252D01*
X108217748Y-124499987D01*
X108217767Y-124500000D01*
X108217748Y-124500013D01*
X107990013Y-124727748D01*
X107811082Y-124995537D01*
X107687832Y-125293088D01*
X107625000Y-125608967D01*
X107625000Y-125931033D01*
X107687832Y-126246912D01*
X107811082Y-126544463D01*
X107990013Y-126812252D01*
X108217748Y-127039987D01*
X108217767Y-127040000D01*
X108217748Y-127040013D01*
X107990013Y-127267748D01*
X107811082Y-127535537D01*
X107687832Y-127833088D01*
X107625000Y-128148967D01*
X107625000Y-128471033D01*
X107687832Y-128786912D01*
X107811082Y-129084463D01*
X107990013Y-129352252D01*
X108217748Y-129579987D01*
X108485537Y-129758918D01*
X108783088Y-129882168D01*
X109098967Y-129945000D01*
X109421033Y-129945000D01*
X109736912Y-129882168D01*
X110034463Y-129758918D01*
X110302252Y-129579987D01*
X110401448Y-129480791D01*
X110419463Y-129514494D01*
X110498815Y-129611185D01*
X110595506Y-129690537D01*
X110705820Y-129749502D01*
X110825518Y-129785812D01*
X110950000Y-129798072D01*
X112650000Y-129798072D01*
X112774482Y-129785812D01*
X112894180Y-129749502D01*
X113004494Y-129690537D01*
X113101185Y-129611185D01*
X113180537Y-129514494D01*
X113198552Y-129480791D01*
X113297748Y-129579987D01*
X113565537Y-129758918D01*
X113863088Y-129882168D01*
X114178967Y-129945000D01*
X114501033Y-129945000D01*
X114816912Y-129882168D01*
X115114463Y-129758918D01*
X115382252Y-129579987D01*
X115609987Y-129352252D01*
X115788918Y-129084463D01*
X115912168Y-128786912D01*
X115975000Y-128471033D01*
X115975000Y-128148967D01*
X115912168Y-127833088D01*
X115788918Y-127535537D01*
X115609987Y-127267748D01*
X115382252Y-127040013D01*
X115382233Y-127040000D01*
X115382252Y-127039987D01*
X115609987Y-126812252D01*
X115788918Y-126544463D01*
X115912168Y-126246912D01*
X115975000Y-125931033D01*
X115975000Y-125608967D01*
X115912168Y-125293088D01*
X115788918Y-124995537D01*
X115609987Y-124727748D01*
X115382252Y-124500013D01*
X115382233Y-124500000D01*
X115382252Y-124499987D01*
X115609987Y-124272252D01*
X115788918Y-124004463D01*
X115912168Y-123706912D01*
X115975000Y-123391033D01*
X115975000Y-123068967D01*
X115912168Y-122753088D01*
X115788918Y-122455537D01*
X115609987Y-122187748D01*
X115382252Y-121960013D01*
X115382233Y-121960000D01*
X115382252Y-121959987D01*
X115609987Y-121732252D01*
X115788918Y-121464463D01*
X115912168Y-121166912D01*
X115975000Y-120851033D01*
X115975000Y-120528967D01*
X115912168Y-120213088D01*
X115788918Y-119915537D01*
X115609987Y-119647748D01*
X115382252Y-119420013D01*
X115382233Y-119420000D01*
X115382252Y-119419987D01*
X115609987Y-119192252D01*
X115788918Y-118924463D01*
X115912168Y-118626912D01*
X115975000Y-118311033D01*
X115975000Y-117988967D01*
X115912168Y-117673088D01*
X115788918Y-117375537D01*
X115609987Y-117107748D01*
X115382252Y-116880013D01*
X115382233Y-116880000D01*
X115382252Y-116879987D01*
X115609987Y-116652252D01*
X115745096Y-116450046D01*
X118469407Y-116450046D01*
X118469407Y-117375494D01*
X118469475Y-117376184D01*
X118469408Y-117376879D01*
X118475590Y-117438554D01*
X118481596Y-117499804D01*
X118481796Y-117500468D01*
X118481866Y-117501162D01*
X118499864Y-117560310D01*
X118517698Y-117619379D01*
X118518025Y-117619994D01*
X118518227Y-117620658D01*
X118547293Y-117675041D01*
X118576337Y-117729665D01*
X118576776Y-117730203D01*
X118577104Y-117730817D01*
X118616384Y-117778767D01*
X118655282Y-117826460D01*
X118655814Y-117826900D01*
X118656258Y-117827442D01*
X118704156Y-117866892D01*
X118751524Y-117906078D01*
X118752134Y-117906408D01*
X118752672Y-117906851D01*
X118807008Y-117936078D01*
X118861397Y-117965486D01*
X118862065Y-117965693D01*
X118862675Y-117966021D01*
X118921598Y-117984121D01*
X118980717Y-118002422D01*
X118981409Y-118002495D01*
X118982074Y-118002699D01*
X118990843Y-118004416D01*
X119435414Y-118088226D01*
X119435466Y-118088236D01*
X119518959Y-118103976D01*
X119472112Y-118172870D01*
X119472070Y-118172948D01*
X119471143Y-118174298D01*
X119400893Y-118278209D01*
X119400820Y-118278343D01*
X119398856Y-118281241D01*
X119336132Y-118375171D01*
X119336056Y-118375313D01*
X119333670Y-118378886D01*
X119281336Y-118458451D01*
X119281283Y-118458552D01*
X119277618Y-118464169D01*
X119238537Y-118524987D01*
X119237081Y-118527829D01*
X119235128Y-118530351D01*
X119230425Y-118537949D01*
X119207461Y-118575636D01*
X119195787Y-118599832D01*
X119181490Y-118622579D01*
X119177551Y-118630601D01*
X119172600Y-118640865D01*
X119165836Y-118659298D01*
X119156669Y-118676653D01*
X119153320Y-118687857D01*
X119153186Y-118688134D01*
X119152850Y-118689426D01*
X119144366Y-118717807D01*
X119129571Y-118758126D01*
X119126518Y-118777511D01*
X119120893Y-118796326D01*
X119116817Y-118839101D01*
X119110137Y-118881511D01*
X119110907Y-118901120D01*
X119109044Y-118920669D01*
X119113352Y-118963405D01*
X119115037Y-119006321D01*
X119119603Y-119025414D01*
X119121572Y-119044945D01*
X119134099Y-119086028D01*
X119144089Y-119127802D01*
X119152277Y-119145647D01*
X119158002Y-119164421D01*
X119178269Y-119202289D01*
X119196182Y-119241326D01*
X119207675Y-119257233D01*
X119216941Y-119274546D01*
X119221959Y-119281941D01*
X119234693Y-119300430D01*
X119257558Y-119327528D01*
X119278052Y-119356471D01*
X119283951Y-119363184D01*
X119319157Y-119402694D01*
X119323134Y-119406363D01*
X119326397Y-119410683D01*
X119332499Y-119417211D01*
X119385680Y-119473313D01*
X119385882Y-119473488D01*
X119386051Y-119473705D01*
X119392249Y-119480142D01*
X119458905Y-119548406D01*
X119459011Y-119548495D01*
X119463188Y-119552751D01*
X119538823Y-119628749D01*
X119538943Y-119628848D01*
X119542216Y-119632133D01*
X119622334Y-119711439D01*
X119622459Y-119711541D01*
X119625543Y-119714593D01*
X119705645Y-119792777D01*
X119705771Y-119792878D01*
X119709245Y-119796263D01*
X119784836Y-119868895D01*
X119784929Y-119868968D01*
X119789677Y-119873499D01*
X119856258Y-119936151D01*
X119857088Y-119936792D01*
X119857784Y-119937583D01*
X119864355Y-119943639D01*
X119917428Y-119991883D01*
X119924123Y-119996868D01*
X119929886Y-120002916D01*
X119936693Y-120008705D01*
X119971762Y-120038112D01*
X120009798Y-120064137D01*
X120046441Y-120092078D01*
X120054074Y-120096724D01*
X120065810Y-120103755D01*
X120071935Y-120106654D01*
X120074847Y-120108646D01*
X120088489Y-120114488D01*
X120118166Y-120128532D01*
X120170192Y-120154063D01*
X120174600Y-120155239D01*
X120178712Y-120157185D01*
X120234832Y-120171308D01*
X120290877Y-120186260D01*
X120295428Y-120186557D01*
X120299841Y-120187668D01*
X120357672Y-120190624D01*
X120415518Y-120194404D01*
X120420035Y-120193812D01*
X120424585Y-120194045D01*
X120481947Y-120185702D01*
X120539366Y-120178181D01*
X120543680Y-120176724D01*
X120548191Y-120176068D01*
X120602804Y-120156756D01*
X120619596Y-120151085D01*
X120623615Y-120150135D01*
X120627073Y-120148559D01*
X120657705Y-120138214D01*
X120665826Y-120134485D01*
X120687463Y-120124367D01*
X120711668Y-120110017D01*
X120737279Y-120098348D01*
X120744979Y-120093813D01*
X120792381Y-120065449D01*
X120795930Y-120062823D01*
X120799900Y-120060880D01*
X120807471Y-120056133D01*
X120876002Y-120012503D01*
X120876203Y-120012345D01*
X120876440Y-120012225D01*
X120883940Y-120007367D01*
X120968962Y-119951456D01*
X120969053Y-119951382D01*
X120974697Y-119947640D01*
X121071575Y-119882428D01*
X121071695Y-119882329D01*
X121075458Y-119879794D01*
X121130278Y-119842305D01*
X121201723Y-119793535D01*
X121205281Y-119812413D01*
X121217345Y-119877163D01*
X121217378Y-119877279D01*
X121217812Y-119879644D01*
X121240756Y-120000152D01*
X121240793Y-120000277D01*
X121241961Y-120006317D01*
X121263794Y-120115164D01*
X121263817Y-120115239D01*
X121265336Y-120122622D01*
X121284863Y-120214300D01*
X121285289Y-120215642D01*
X121285453Y-120217041D01*
X121287414Y-120225759D01*
X121303440Y-120294764D01*
X121306377Y-120303454D01*
X121307832Y-120312524D01*
X121310163Y-120321151D01*
X121321493Y-120361973D01*
X121336263Y-120400226D01*
X121348426Y-120439384D01*
X121351955Y-120447594D01*
X121355550Y-120455801D01*
X121362298Y-120467849D01*
X121367141Y-120480786D01*
X121392777Y-120522260D01*
X121416592Y-120564775D01*
X121425551Y-120575281D01*
X121432815Y-120587033D01*
X121466021Y-120622740D01*
X121497638Y-120659818D01*
X121508466Y-120668383D01*
X121517875Y-120678501D01*
X121557375Y-120707071D01*
X121595601Y-120737309D01*
X121607894Y-120743612D01*
X121619082Y-120751704D01*
X121663364Y-120772052D01*
X121706750Y-120794296D01*
X121720032Y-120798090D01*
X121732579Y-120803856D01*
X121741045Y-120806718D01*
X121765377Y-120814755D01*
X121823880Y-120827916D01*
X121882233Y-120841529D01*
X121887085Y-120842136D01*
X121887237Y-120842170D01*
X121887390Y-120842174D01*
X121891100Y-120842638D01*
X121946053Y-120849123D01*
X121959278Y-120849384D01*
X121972301Y-120851673D01*
X121981216Y-120852292D01*
X122060365Y-120857229D01*
X122064646Y-120857077D01*
X122068881Y-120857703D01*
X122077809Y-120858078D01*
X122174727Y-120861472D01*
X122175984Y-120861393D01*
X122177234Y-120861555D01*
X122186167Y-120861770D01*
X122294429Y-120863624D01*
X122294534Y-120863616D01*
X122294642Y-120863628D01*
X122303577Y-120863715D01*
X122416564Y-120864034D01*
X122416569Y-120864035D01*
X122416755Y-120864035D01*
X122416763Y-120864034D01*
X122425505Y-120864000D01*
X122537175Y-120862789D01*
X122537674Y-120862735D01*
X122538181Y-120862778D01*
X122547116Y-120862604D01*
X122650848Y-120859867D01*
X122653165Y-120859578D01*
X122655503Y-120859728D01*
X122664432Y-120859365D01*
X122753805Y-120855106D01*
X122760934Y-120854062D01*
X122768140Y-120854262D01*
X122777050Y-120853573D01*
X122845635Y-120847797D01*
X122869709Y-120843373D01*
X122894149Y-120841839D01*
X122902960Y-120840350D01*
X122944331Y-120833062D01*
X122970844Y-120825664D01*
X122997998Y-120821211D01*
X123030851Y-120808920D01*
X123064641Y-120799491D01*
X123081636Y-120790910D01*
X123090369Y-120788199D01*
X123099601Y-120783198D01*
X123114984Y-120777443D01*
X123122980Y-120773454D01*
X123131593Y-120769082D01*
X123157246Y-120752731D01*
X123176140Y-120743191D01*
X123182210Y-120738450D01*
X123200197Y-120728707D01*
X123217729Y-120714181D01*
X123236923Y-120701947D01*
X123265704Y-120674431D01*
X123296379Y-120649015D01*
X123310757Y-120631358D01*
X123327207Y-120615631D01*
X123350099Y-120583045D01*
X123375249Y-120552159D01*
X123385920Y-120532054D01*
X123399007Y-120513424D01*
X123415134Y-120477008D01*
X123433805Y-120441830D01*
X123437146Y-120433542D01*
X123447469Y-120407411D01*
X123456428Y-120376077D01*
X123468280Y-120345718D01*
X123470642Y-120337099D01*
X123485401Y-120281729D01*
X123486668Y-120274013D01*
X123489230Y-120266627D01*
X123491260Y-120257924D01*
X123508720Y-120180638D01*
X123509130Y-120177360D01*
X123510136Y-120174216D01*
X123511954Y-120165467D01*
X123530382Y-120073590D01*
X123530389Y-120073524D01*
X123530410Y-120073454D01*
X123532104Y-120064679D01*
X123538065Y-120032608D01*
X123538073Y-120032516D01*
X123538367Y-120030971D01*
X123566485Y-119877470D01*
X123577108Y-119820581D01*
X123600414Y-119811453D01*
X123605094Y-119809686D01*
X123656089Y-119844662D01*
X123682435Y-119862771D01*
X123682572Y-119862847D01*
X123686529Y-119865562D01*
X123783950Y-119931418D01*
X123784720Y-119931835D01*
X123785394Y-119932391D01*
X123792846Y-119937323D01*
X123881734Y-119995274D01*
X123883597Y-119996244D01*
X123885253Y-119997553D01*
X123892804Y-120002331D01*
X123968054Y-120049219D01*
X123973546Y-120051937D01*
X123978483Y-120055581D01*
X123986188Y-120060107D01*
X124042696Y-120092776D01*
X124063796Y-120102362D01*
X124083561Y-120114470D01*
X124091627Y-120118316D01*
X124124288Y-120133609D01*
X124138157Y-120138518D01*
X124151132Y-120145435D01*
X124196935Y-120159320D01*
X124242037Y-120175283D01*
X124256581Y-120177402D01*
X124270665Y-120181672D01*
X124279442Y-120183356D01*
X124283454Y-120184097D01*
X124324707Y-120187608D01*
X124365646Y-120193835D01*
X124386809Y-120192892D01*
X124407910Y-120194688D01*
X124449051Y-120190120D01*
X124490428Y-120188277D01*
X124511008Y-120183241D01*
X124532053Y-120180904D01*
X124571537Y-120168428D01*
X124611755Y-120158586D01*
X124630953Y-120149654D01*
X124651155Y-120143271D01*
X124687464Y-120123363D01*
X124725003Y-120105898D01*
X124732667Y-120101301D01*
X124753758Y-120088452D01*
X124790368Y-120060914D01*
X124828368Y-120035324D01*
X124835218Y-120029585D01*
X124876998Y-119994081D01*
X124883198Y-119987670D01*
X124890383Y-119982383D01*
X124896987Y-119976363D01*
X124954968Y-119922768D01*
X124956368Y-119921194D01*
X124958041Y-119919909D01*
X124964521Y-119913755D01*
X125034211Y-119846632D01*
X125034228Y-119846612D01*
X125040334Y-119840656D01*
X125117244Y-119764572D01*
X125117321Y-119764479D01*
X125122075Y-119759741D01*
X125201713Y-119679258D01*
X125201795Y-119679157D01*
X125206254Y-119674622D01*
X125284132Y-119594305D01*
X125284191Y-119594231D01*
X125289224Y-119588993D01*
X125360849Y-119513405D01*
X125361169Y-119512993D01*
X125361569Y-119512645D01*
X125367659Y-119506105D01*
X125428543Y-119439811D01*
X125430973Y-119436582D01*
X125433955Y-119433844D01*
X125439869Y-119427145D01*
X125485520Y-119374709D01*
X125495014Y-119361371D01*
X125506333Y-119349534D01*
X125511799Y-119342465D01*
X125537728Y-119308451D01*
X125540966Y-119303212D01*
X125545071Y-119298624D01*
X125565972Y-119263311D01*
X125573817Y-119253242D01*
X125582456Y-119236082D01*
X125603397Y-119202200D01*
X125605554Y-119196437D01*
X125608692Y-119191135D01*
X125612415Y-119183011D01*
X125616647Y-119173601D01*
X125622182Y-119157173D01*
X125629984Y-119141676D01*
X125641312Y-119100889D01*
X125647177Y-119085218D01*
X125647890Y-119080873D01*
X125656529Y-119055233D01*
X125658768Y-119038038D01*
X125663410Y-119021326D01*
X125666819Y-118976221D01*
X125672660Y-118931373D01*
X125671517Y-118914069D01*
X125672824Y-118896775D01*
X125667408Y-118851873D01*
X125664426Y-118806738D01*
X125659942Y-118789982D01*
X125657866Y-118772767D01*
X125643831Y-118729768D01*
X125632140Y-118686077D01*
X125624491Y-118670519D01*
X125619108Y-118654027D01*
X125615462Y-118645869D01*
X125605491Y-118623967D01*
X125589599Y-118596527D01*
X125576424Y-118567685D01*
X125571882Y-118559990D01*
X125544990Y-118515147D01*
X125540803Y-118509499D01*
X125537651Y-118503206D01*
X125532835Y-118495678D01*
X125493551Y-118435199D01*
X125492183Y-118433486D01*
X125491160Y-118431545D01*
X125486189Y-118424119D01*
X125454570Y-118377588D01*
X125454475Y-118377474D01*
X125452449Y-118374485D01*
X125394860Y-118290796D01*
X125327516Y-118192364D01*
X125312920Y-118170932D01*
X125328194Y-118132805D01*
X125341730Y-118086307D01*
X125352324Y-118055098D01*
X125355553Y-118046340D01*
X125355779Y-118044921D01*
X125357310Y-118040410D01*
X125359281Y-118031694D01*
X125361516Y-118021486D01*
X125362144Y-118016180D01*
X125363106Y-118012877D01*
X125364764Y-117994047D01*
X125367359Y-117972114D01*
X125375174Y-117922985D01*
X125374690Y-117910174D01*
X125376197Y-117897445D01*
X125372339Y-117847878D01*
X125370463Y-117798167D01*
X125367499Y-117785689D01*
X125366505Y-117772916D01*
X125353093Y-117725040D01*
X125341597Y-117676642D01*
X125336269Y-117664984D01*
X125332811Y-117652640D01*
X125310352Y-117608277D01*
X125289677Y-117563038D01*
X125282183Y-117552633D01*
X125276395Y-117541200D01*
X125245741Y-117502036D01*
X125216678Y-117461683D01*
X125207312Y-117452938D01*
X125199409Y-117442840D01*
X125161732Y-117410376D01*
X125125385Y-117376436D01*
X125118252Y-117371054D01*
X125101748Y-117358780D01*
X125061575Y-117334605D01*
X125022637Y-117308500D01*
X125014735Y-117304327D01*
X124968095Y-117280111D01*
X124961439Y-117277443D01*
X124955340Y-117273668D01*
X124947292Y-117269785D01*
X124874819Y-117235435D01*
X124874066Y-117235165D01*
X124873378Y-117234754D01*
X124865267Y-117231003D01*
X124771264Y-117188328D01*
X124771135Y-117188284D01*
X124765569Y-117185776D01*
X124654337Y-117136582D01*
X124654187Y-117136533D01*
X124650347Y-117134834D01*
X124526189Y-117080930D01*
X124526049Y-117080885D01*
X124523045Y-117079575D01*
X124390262Y-117022769D01*
X124390127Y-117022726D01*
X124387522Y-117021605D01*
X124250417Y-116963703D01*
X124250292Y-116963664D01*
X124247778Y-116962595D01*
X124128385Y-116912801D01*
X124135153Y-116910006D01*
X124135273Y-116909942D01*
X124137872Y-116908876D01*
X124275324Y-116851372D01*
X124275447Y-116851306D01*
X124277940Y-116850270D01*
X124414529Y-116792413D01*
X124414646Y-116792349D01*
X124417305Y-116791230D01*
X124548734Y-116734827D01*
X124548867Y-116734754D01*
X124551968Y-116733428D01*
X124673937Y-116680288D01*
X124674073Y-116680212D01*
X124678131Y-116678443D01*
X124786335Y-116630375D01*
X124786439Y-116630316D01*
X124792500Y-116627597D01*
X124882640Y-116586408D01*
X124883908Y-116585671D01*
X124885294Y-116585188D01*
X124893379Y-116581380D01*
X124961153Y-116548880D01*
X124969491Y-116543826D01*
X124978549Y-116540211D01*
X124986457Y-116536049D01*
X125027564Y-116514045D01*
X125075871Y-116481756D01*
X125124621Y-116450124D01*
X125131397Y-116444640D01*
X125131408Y-116444633D01*
X125131416Y-116444625D01*
X125131568Y-116444502D01*
X125142364Y-116435641D01*
X125186139Y-116391900D01*
X125229805Y-116348462D01*
X125230206Y-116347867D01*
X125230720Y-116347353D01*
X125265072Y-116296081D01*
X125299564Y-116244850D01*
X125299845Y-116244179D01*
X125300244Y-116243584D01*
X125323977Y-116186632D01*
X125347867Y-116129662D01*
X125348011Y-116128960D01*
X125348290Y-116128289D01*
X125360534Y-116067684D01*
X125372878Y-116007286D01*
X125372882Y-116006562D01*
X125373025Y-116005856D01*
X125373265Y-115943957D01*
X125373641Y-115882381D01*
X125373506Y-115881678D01*
X125373509Y-115880951D01*
X125361742Y-115820291D01*
X125350131Y-115759708D01*
X125349736Y-115758405D01*
X125349722Y-115758331D01*
X125349691Y-115758254D01*
X125347541Y-115751156D01*
X125339134Y-115724080D01*
X125326241Y-115693482D01*
X125316206Y-115661831D01*
X125313004Y-115654499D01*
X125355120Y-115592772D01*
X125419735Y-115498519D01*
X125452185Y-115451437D01*
X125452224Y-115451367D01*
X125456537Y-115445039D01*
X125501694Y-115377794D01*
X125504178Y-115373177D01*
X125507445Y-115369077D01*
X125512252Y-115361544D01*
X125548037Y-115304602D01*
X125553502Y-115293663D01*
X125560617Y-115283712D01*
X125565026Y-115275939D01*
X125586907Y-115236729D01*
X125605668Y-115193713D01*
X125617920Y-115168989D01*
X125622428Y-115160670D01*
X125623075Y-115158586D01*
X125626487Y-115151701D01*
X125629595Y-115143323D01*
X125634220Y-115130588D01*
X125635672Y-115124916D01*
X125636840Y-115122238D01*
X125639712Y-115109136D01*
X125645715Y-115085688D01*
X125659474Y-115041384D01*
X125661183Y-115025268D01*
X125665198Y-115009584D01*
X125667752Y-114963308D01*
X125672644Y-114917173D01*
X125671190Y-114901031D01*
X125672082Y-114884868D01*
X125665599Y-114838973D01*
X125661437Y-114792771D01*
X125656877Y-114777226D01*
X125654612Y-114761189D01*
X125639331Y-114717407D01*
X125626280Y-114672915D01*
X125618789Y-114658553D01*
X125613451Y-114643260D01*
X125589965Y-114603294D01*
X125585819Y-114595345D01*
X125583508Y-114589830D01*
X125580990Y-114586088D01*
X125568514Y-114562169D01*
X125563575Y-114554722D01*
X125551097Y-114536186D01*
X125531215Y-114512108D01*
X125513782Y-114486198D01*
X125508045Y-114479346D01*
X125473213Y-114438322D01*
X125469791Y-114435010D01*
X125467018Y-114431134D01*
X125461086Y-114424450D01*
X125407512Y-114364917D01*
X125407262Y-114364688D01*
X125407054Y-114364407D01*
X125401023Y-114357813D01*
X125332328Y-114283747D01*
X125332247Y-114283675D01*
X125327603Y-114278707D01*
X125247401Y-114194083D01*
X125247276Y-114193975D01*
X125244070Y-114190596D01*
X125192575Y-114137076D01*
X125192487Y-114137001D01*
X125187900Y-114132267D01*
X125095900Y-114038633D01*
X125095110Y-114037973D01*
X125094461Y-114037173D01*
X125088134Y-114030864D01*
X125005847Y-113949942D01*
X125003748Y-113948247D01*
X125001999Y-113946189D01*
X124995532Y-113940022D01*
X124926478Y-113875086D01*
X124920688Y-113870621D01*
X124915748Y-113865223D01*
X124909058Y-113859298D01*
X124856757Y-113813617D01*
X124836406Y-113799082D01*
X124817894Y-113782259D01*
X124810688Y-113776974D01*
X124778661Y-113753821D01*
X124757625Y-113741547D01*
X124756635Y-113740723D01*
X124753675Y-113739111D01*
X124732045Y-113723127D01*
X124700712Y-113708339D01*
X124670776Y-113690872D01*
X124655166Y-113685478D01*
X124646934Y-113680996D01*
X124634611Y-113677142D01*
X124619088Y-113669816D01*
X124610652Y-113666868D01*
X124604152Y-113664646D01*
X124574981Y-113657769D01*
X124552720Y-113650077D01*
X124544384Y-113648926D01*
X124527722Y-113643715D01*
X124504905Y-113641250D01*
X124482579Y-113635987D01*
X124442967Y-113634559D01*
X124431002Y-113633266D01*
X124428989Y-113632988D01*
X124428625Y-113633009D01*
X124403538Y-113630299D01*
X124380680Y-113632313D01*
X124357754Y-113631486D01*
X124318605Y-113637781D01*
X124279113Y-113641260D01*
X124257089Y-113647673D01*
X124234431Y-113651316D01*
X124197253Y-113665095D01*
X124159188Y-113676178D01*
X124150916Y-113679560D01*
X124126194Y-113689868D01*
X124095469Y-113706366D01*
X124063432Y-113720147D01*
X124055637Y-113724517D01*
X124005648Y-113753002D01*
X123999642Y-113757250D01*
X123992991Y-113760407D01*
X123985362Y-113765062D01*
X123915169Y-113808564D01*
X123913461Y-113809869D01*
X123911532Y-113810834D01*
X123904002Y-113815646D01*
X123818665Y-113871006D01*
X123818219Y-113871362D01*
X123817709Y-113871627D01*
X123810255Y-113876556D01*
X123714837Y-113940613D01*
X123714731Y-113940701D01*
X123709947Y-113943928D01*
X123683345Y-113962145D01*
X123683311Y-113962173D01*
X123682732Y-113962565D01*
X123605103Y-114015858D01*
X123577090Y-114004928D01*
X123571110Y-113973086D01*
X123544220Y-113826662D01*
X123538455Y-113795053D01*
X123538422Y-113794938D01*
X123537221Y-113788480D01*
X123518854Y-113693412D01*
X123518059Y-113690735D01*
X123517775Y-113687953D01*
X123515942Y-113679207D01*
X123497973Y-113596327D01*
X123496259Y-113591000D01*
X123495515Y-113585445D01*
X123493408Y-113576761D01*
X123477572Y-113513396D01*
X123471348Y-113495947D01*
X123467576Y-113477800D01*
X123464852Y-113469289D01*
X123452883Y-113432761D01*
X123428816Y-113378044D01*
X123427601Y-113375218D01*
X123415510Y-113343272D01*
X123410203Y-113334756D01*
X123405177Y-113323067D01*
X123402656Y-113318569D01*
X123402593Y-113318426D01*
X123402506Y-113318301D01*
X123400808Y-113315272D01*
X123398018Y-113310373D01*
X123372673Y-113274533D01*
X123349448Y-113237265D01*
X123336678Y-113223633D01*
X123325899Y-113208391D01*
X123294079Y-113178160D01*
X123264054Y-113146109D01*
X123248879Y-113135217D01*
X123235345Y-113122359D01*
X123198247Y-113098876D01*
X123162580Y-113073276D01*
X123145588Y-113065543D01*
X123129806Y-113055553D01*
X123088855Y-113039724D01*
X123048894Y-113021538D01*
X123040418Y-113018708D01*
X123015680Y-113010637D01*
X122958518Y-112997997D01*
X122901455Y-112984647D01*
X122893787Y-112983683D01*
X122893720Y-112983668D01*
X122893659Y-112983667D01*
X122892588Y-112983532D01*
X122837306Y-112976972D01*
X122824255Y-112976706D01*
X122811395Y-112974430D01*
X122802480Y-112973801D01*
X122723080Y-112968755D01*
X122718839Y-112968900D01*
X122714644Y-112968275D01*
X122705716Y-112967889D01*
X122608623Y-112964363D01*
X122607388Y-112964439D01*
X122606151Y-112964277D01*
X122597218Y-112964050D01*
X122488860Y-112962048D01*
X122488761Y-112962056D01*
X122488659Y-112962044D01*
X122479724Y-112961945D01*
X122366712Y-112961471D01*
X122366704Y-112961470D01*
X122366521Y-112961470D01*
X122357768Y-112961493D01*
X122246156Y-112962552D01*
X122245649Y-112962607D01*
X122245136Y-112962562D01*
X122236201Y-112962724D01*
X122132603Y-112965319D01*
X122130264Y-112965608D01*
X122127902Y-112965453D01*
X122118973Y-112965805D01*
X122029812Y-112969941D01*
X122022596Y-112970988D01*
X122015307Y-112970779D01*
X122006396Y-112971458D01*
X121938100Y-112977141D01*
X121913641Y-112981611D01*
X121888825Y-112983173D01*
X121880014Y-112984664D01*
X121839008Y-112991896D01*
X121809653Y-113000093D01*
X121779631Y-113005308D01*
X121749649Y-113016849D01*
X121718705Y-113025490D01*
X121691508Y-113039230D01*
X121682215Y-113042807D01*
X121669557Y-113047307D01*
X121667789Y-113048360D01*
X121663063Y-113050179D01*
X121655105Y-113054244D01*
X121646713Y-113058604D01*
X121624349Y-113073157D01*
X121607217Y-113081812D01*
X121593145Y-113092807D01*
X121562236Y-113111212D01*
X121552730Y-113119763D01*
X121542022Y-113126731D01*
X121510822Y-113157129D01*
X121508792Y-113158715D01*
X121506667Y-113161177D01*
X121506395Y-113161442D01*
X121469372Y-113194745D01*
X121461706Y-113204982D01*
X121452557Y-113213896D01*
X121424332Y-113254892D01*
X121394503Y-113294726D01*
X121388978Y-113306242D01*
X121381726Y-113316776D01*
X121362000Y-113362478D01*
X121358926Y-113368887D01*
X121358043Y-113370322D01*
X121357375Y-113372120D01*
X121340477Y-113407343D01*
X121337476Y-113415760D01*
X121329010Y-113440033D01*
X121323165Y-113464142D01*
X121314519Y-113487399D01*
X121312298Y-113496055D01*
X121298525Y-113551327D01*
X121297947Y-113555243D01*
X121296666Y-113558988D01*
X121294673Y-113567699D01*
X121276788Y-113648464D01*
X121276775Y-113648575D01*
X121276738Y-113648687D01*
X121274871Y-113657426D01*
X121254069Y-113758176D01*
X121254057Y-113758291D01*
X121252736Y-113764805D01*
X121230211Y-113880034D01*
X121230196Y-113880195D01*
X121229346Y-113884548D01*
X121217541Y-113947329D01*
X121217537Y-113947371D01*
X121217416Y-113947996D01*
X121201608Y-114032560D01*
X121184743Y-114021117D01*
X121131059Y-113984249D01*
X121130971Y-113984200D01*
X121129525Y-113983199D01*
X121028356Y-113914153D01*
X121028244Y-113914092D01*
X121022954Y-113910507D01*
X120931103Y-113849181D01*
X120931047Y-113849151D01*
X120924460Y-113844806D01*
X120846574Y-113794192D01*
X120845039Y-113793396D01*
X120843680Y-113792322D01*
X120836127Y-113787547D01*
X120776853Y-113750639D01*
X120767758Y-113746142D01*
X120759520Y-113740223D01*
X120751758Y-113735796D01*
X120715740Y-113715585D01*
X120671676Y-113696244D01*
X120668261Y-113694557D01*
X120645256Y-113681979D01*
X120638438Y-113679833D01*
X120628529Y-113674941D01*
X120620146Y-113671844D01*
X120612073Y-113668925D01*
X120605803Y-113667330D01*
X120601366Y-113665382D01*
X120576405Y-113659849D01*
X120568750Y-113657901D01*
X120526110Y-113644482D01*
X120508338Y-113642530D01*
X120491024Y-113638124D01*
X120446406Y-113635726D01*
X120401951Y-113630842D01*
X120384137Y-113632379D01*
X120366298Y-113631420D01*
X120322056Y-113637735D01*
X120277507Y-113641578D01*
X120260339Y-113646544D01*
X120242645Y-113649069D01*
X120200456Y-113663863D01*
X120157519Y-113676282D01*
X120141641Y-113684488D01*
X120124776Y-113690402D01*
X120086280Y-113713099D01*
X120070954Y-113721020D01*
X120066935Y-113722746D01*
X120064859Y-113724170D01*
X120046556Y-113733629D01*
X120039090Y-113738540D01*
X120020297Y-113751088D01*
X119993020Y-113773439D01*
X119963927Y-113793391D01*
X119957126Y-113799188D01*
X119916999Y-113833878D01*
X119913263Y-113837807D01*
X119908890Y-113841009D01*
X119902271Y-113847013D01*
X119845308Y-113899413D01*
X119845126Y-113899616D01*
X119844899Y-113899788D01*
X119838370Y-113905890D01*
X119769062Y-113971569D01*
X119768971Y-113971674D01*
X119764638Y-113975802D01*
X119687484Y-114050330D01*
X119687385Y-114050447D01*
X119684040Y-114053681D01*
X119603534Y-114132625D01*
X119603432Y-114132746D01*
X119600314Y-114135805D01*
X119520951Y-114214735D01*
X119520849Y-114214859D01*
X119517400Y-114218295D01*
X119443677Y-114292778D01*
X119443599Y-114292873D01*
X119438979Y-114297575D01*
X119375391Y-114363181D01*
X119374713Y-114364034D01*
X119373883Y-114364742D01*
X119367730Y-114371223D01*
X119318772Y-114423521D01*
X119313631Y-114430219D01*
X119307433Y-114435957D01*
X119301546Y-114442681D01*
X119271713Y-114477238D01*
X119244746Y-114515460D01*
X119215933Y-114552307D01*
X119211195Y-114559884D01*
X119204076Y-114571444D01*
X119201441Y-114576840D01*
X119199706Y-114579300D01*
X119196381Y-114586768D01*
X119188179Y-114598748D01*
X119169768Y-114641714D01*
X119149275Y-114683687D01*
X119145226Y-114698987D01*
X119138982Y-114713558D01*
X119129264Y-114759297D01*
X119117318Y-114804436D01*
X119116317Y-114820237D01*
X119113024Y-114835737D01*
X119112376Y-114882462D01*
X119109422Y-114929092D01*
X119111511Y-114944795D01*
X119111291Y-114960631D01*
X119119729Y-115006580D01*
X119125891Y-115052908D01*
X119130991Y-115067909D01*
X119133851Y-115083484D01*
X119151052Y-115126919D01*
X119166095Y-115171167D01*
X119174009Y-115184888D01*
X119179841Y-115199614D01*
X119183982Y-115207533D01*
X119193992Y-115226357D01*
X119203867Y-115241217D01*
X119211574Y-115257309D01*
X119216256Y-115264921D01*
X119244381Y-115309944D01*
X119245025Y-115310780D01*
X119245496Y-115311722D01*
X119250308Y-115319252D01*
X119293684Y-115386095D01*
X119293771Y-115386204D01*
X119296794Y-115390843D01*
X119352558Y-115475131D01*
X119352658Y-115475254D01*
X119354777Y-115478462D01*
X119420065Y-115575817D01*
X119420152Y-115575923D01*
X119421712Y-115578261D01*
X119471452Y-115651698D01*
X119471501Y-115651757D01*
X119472112Y-115652669D01*
X119518959Y-115721563D01*
X119435492Y-115737298D01*
X119435466Y-115737303D01*
X118990842Y-115821124D01*
X118990174Y-115821319D01*
X118989483Y-115821382D01*
X118930126Y-115838852D01*
X118870942Y-115856132D01*
X118870329Y-115856451D01*
X118869659Y-115856648D01*
X118814783Y-115885337D01*
X118760125Y-115913761D01*
X118759583Y-115914195D01*
X118758967Y-115914517D01*
X118710918Y-115953149D01*
X118662611Y-115991816D01*
X118662162Y-115992349D01*
X118661622Y-115992783D01*
X118622070Y-116039920D01*
X118582117Y-116087327D01*
X118581782Y-116087933D01*
X118581334Y-116088467D01*
X118551412Y-116142895D01*
X118521707Y-116196653D01*
X118521497Y-116197310D01*
X118521160Y-116197923D01*
X118502430Y-116256970D01*
X118483682Y-116315630D01*
X118483603Y-116316321D01*
X118483393Y-116316983D01*
X118476505Y-116378385D01*
X118469490Y-116439727D01*
X118469547Y-116440419D01*
X118469469Y-116441110D01*
X118469407Y-116450046D01*
X115745096Y-116450046D01*
X115788918Y-116384463D01*
X115912168Y-116086912D01*
X115975000Y-115771033D01*
X115975000Y-115448967D01*
X115912168Y-115133088D01*
X115788918Y-114835537D01*
X115609987Y-114567748D01*
X115382252Y-114340013D01*
X115382233Y-114340000D01*
X115382252Y-114339987D01*
X115609987Y-114112252D01*
X115788918Y-113844463D01*
X115912168Y-113546912D01*
X115975000Y-113231033D01*
X115975000Y-112908967D01*
X115912168Y-112593088D01*
X115788918Y-112295537D01*
X115609987Y-112027748D01*
X115382252Y-111800013D01*
X115382233Y-111800000D01*
X115382252Y-111799987D01*
X115609987Y-111572252D01*
X115788918Y-111304463D01*
X115912168Y-111006912D01*
X115975000Y-110691033D01*
X115975000Y-110368967D01*
X115912168Y-110053088D01*
X115788918Y-109755537D01*
X115609987Y-109487748D01*
X115382252Y-109260013D01*
X115114463Y-109081082D01*
X114816912Y-108957832D01*
X114501033Y-108895000D01*
X114178967Y-108895000D01*
X113863088Y-108957832D01*
X113565537Y-109081082D01*
X113297748Y-109260013D01*
X113070013Y-109487748D01*
X112979798Y-109622764D01*
X112953475Y-109583368D01*
X112746632Y-109376525D01*
X112503411Y-109214010D01*
X112233158Y-109102068D01*
X111946260Y-109045000D01*
X111653740Y-109045000D01*
X111366842Y-109102068D01*
X111096589Y-109214010D01*
X110853368Y-109376525D01*
X110646525Y-109583368D01*
X110620202Y-109622764D01*
X110529987Y-109487748D01*
X110302252Y-109260013D01*
X110034463Y-109081082D01*
X109736912Y-108957832D01*
X109421033Y-108895000D01*
X109098967Y-108895000D01*
X108783088Y-108957832D01*
X108485537Y-109081082D01*
X108217748Y-109260013D01*
X107990013Y-109487748D01*
X107811082Y-109755537D01*
X107687832Y-110053088D01*
X107625000Y-110368967D01*
X100660000Y-110368967D01*
X100660000Y-107110097D01*
X101068607Y-107077939D01*
X101170898Y-107061738D01*
X102162684Y-106823631D01*
X102261181Y-106791628D01*
X103203509Y-106401303D01*
X103295787Y-106354285D01*
X104165453Y-105821353D01*
X104208177Y-105790312D01*
X104249240Y-105760478D01*
X105024830Y-105098062D01*
X105098063Y-105024829D01*
X105725903Y-104289721D01*
X110365000Y-104289721D01*
X110365000Y-104710279D01*
X110447047Y-105122756D01*
X110607988Y-105511302D01*
X110841637Y-105860983D01*
X111139017Y-106158363D01*
X111488698Y-106392012D01*
X111877244Y-106552953D01*
X112289721Y-106635000D01*
X112710279Y-106635000D01*
X113122756Y-106552953D01*
X113511302Y-106392012D01*
X113860983Y-106158363D01*
X114158363Y-105860983D01*
X114392012Y-105511302D01*
X114552953Y-105122756D01*
X114635000Y-104710279D01*
X114635000Y-104289721D01*
X114552953Y-103877244D01*
X114392012Y-103488698D01*
X114158363Y-103139017D01*
X113860983Y-102841637D01*
X113511302Y-102607988D01*
X113122756Y-102447047D01*
X112710279Y-102365000D01*
X112289721Y-102365000D01*
X111877244Y-102447047D01*
X111488698Y-102607988D01*
X111139017Y-102841637D01*
X110841637Y-103139017D01*
X110607988Y-103488698D01*
X110447047Y-103877244D01*
X110365000Y-104289721D01*
X105725903Y-104289721D01*
X105760478Y-104249240D01*
X105821353Y-104165453D01*
X105821354Y-104165452D01*
X106354284Y-103295787D01*
X106360283Y-103284013D01*
X106401303Y-103203509D01*
X106791627Y-102261181D01*
X106823631Y-102162684D01*
X107061738Y-101170898D01*
X107077939Y-101068607D01*
X107110097Y-100660000D01*
X167889903Y-100660000D01*
X167922061Y-101068607D01*
G37*
X167922061Y-101068607D02*
X167938262Y-101170898D01*
X168176369Y-102162684D01*
X168208372Y-102261181D01*
X168598697Y-103203509D01*
X168622207Y-103249648D01*
X168645715Y-103295787D01*
X169178647Y-104165453D01*
X169189207Y-104179987D01*
X169239522Y-104249240D01*
X169901938Y-105024830D01*
X169975170Y-105098062D01*
X170750760Y-105760478D01*
X170834547Y-105821353D01*
X171704213Y-106354284D01*
X171796491Y-106401303D01*
X172738819Y-106791627D01*
X172837316Y-106823631D01*
X173829102Y-107061738D01*
X173931393Y-107077939D01*
X174340000Y-107110097D01*
X174340001Y-141889903D01*
X173931393Y-141922061D01*
X173829102Y-141938262D01*
X172837316Y-142176369D01*
X172738819Y-142208373D01*
X171796491Y-142598697D01*
X171705618Y-142645000D01*
X171704213Y-142645716D01*
X170834547Y-143178647D01*
X170750760Y-143239522D01*
X169975170Y-143901938D01*
X169901938Y-143975170D01*
X169239522Y-144750760D01*
X169209084Y-144792654D01*
X169178647Y-144834547D01*
X168645715Y-145704213D01*
X168626392Y-145742138D01*
X168598697Y-145796491D01*
X168208372Y-146738819D01*
X168178937Y-146829411D01*
X168176369Y-146837316D01*
X167938262Y-147829102D01*
X167922061Y-147931393D01*
X167889903Y-148340000D01*
X107110097Y-148340000D01*
X107077939Y-147931393D01*
X107061738Y-147829102D01*
X106823631Y-146837316D01*
X106791627Y-146738819D01*
X106401303Y-145796491D01*
X106354284Y-145704213D01*
X105821353Y-144834547D01*
X105760478Y-144750760D01*
X105366714Y-144289721D01*
X110365000Y-144289721D01*
X110365000Y-144710279D01*
X110447047Y-145122756D01*
X110607988Y-145511302D01*
X110841637Y-145860983D01*
X111139017Y-146158363D01*
X111488698Y-146392012D01*
X111877244Y-146552953D01*
X112289721Y-146635000D01*
X112710279Y-146635000D01*
X113122756Y-146552953D01*
X113511302Y-146392012D01*
X113860983Y-146158363D01*
X114158363Y-145860983D01*
X114392012Y-145511302D01*
X114552953Y-145122756D01*
X114635000Y-144710279D01*
X114635000Y-144289721D01*
X114552953Y-143877244D01*
X114392012Y-143488698D01*
X114158363Y-143139017D01*
X113860983Y-142841637D01*
X113511302Y-142607988D01*
X113122756Y-142447047D01*
X112710279Y-142365000D01*
X112289721Y-142365000D01*
X111877244Y-142447047D01*
X111488698Y-142607988D01*
X111139017Y-142841637D01*
X110841637Y-143139017D01*
X110607988Y-143488698D01*
X110447047Y-143877244D01*
X110365000Y-144289721D01*
X105366714Y-144289721D01*
X105098062Y-143975170D01*
X105024830Y-143901938D01*
X104249240Y-143239522D01*
X104180784Y-143189786D01*
X104165453Y-143178647D01*
X103295787Y-142645715D01*
X103249648Y-142622207D01*
X103203509Y-142598697D01*
X102261181Y-142208372D01*
X102162684Y-142176369D01*
X101170898Y-141938262D01*
X101068607Y-141922061D01*
X100660000Y-141889903D01*
X100660000Y-133228967D01*
X105085000Y-133228967D01*
X105085000Y-133551033D01*
X105147832Y-133866912D01*
X105271082Y-134164463D01*
X105450013Y-134432252D01*
X105677748Y-134659987D01*
X105677767Y-134660000D01*
X105677748Y-134660013D01*
X105450013Y-134887748D01*
X105271082Y-135155537D01*
X105147832Y-135453088D01*
X105085000Y-135768967D01*
X105085000Y-136091033D01*
X105147832Y-136406912D01*
X105271082Y-136704463D01*
X105450013Y-136972252D01*
X105677748Y-137199987D01*
X105945537Y-137378918D01*
X106243088Y-137502168D01*
X106558967Y-137565000D01*
X106881033Y-137565000D01*
X107196912Y-137502168D01*
X107494463Y-137378918D01*
X107762252Y-137199987D01*
X107989987Y-136972252D01*
X107990000Y-136972233D01*
X107990013Y-136972252D01*
X108217748Y-137199987D01*
X108485537Y-137378918D01*
X108783088Y-137502168D01*
X109098967Y-137565000D01*
X109421033Y-137565000D01*
X109736912Y-137502168D01*
X110034463Y-137378918D01*
X110302252Y-137199987D01*
X110529987Y-136972252D01*
X110530000Y-136972233D01*
X110530013Y-136972252D01*
X110757748Y-137199987D01*
X111025537Y-137378918D01*
X111323088Y-137502168D01*
X111638967Y-137565000D01*
X111961033Y-137565000D01*
X112276912Y-137502168D01*
X112574463Y-137378918D01*
X112842252Y-137199987D01*
X113069987Y-136972252D01*
X113070000Y-136972233D01*
X113070013Y-136972252D01*
X113297748Y-137199987D01*
X113565537Y-137378918D01*
X113863088Y-137502168D01*
X114178967Y-137565000D01*
X114501033Y-137565000D01*
X114816912Y-137502168D01*
X115114463Y-137378918D01*
X115382252Y-137199987D01*
X115609987Y-136972252D01*
X115610000Y-136972233D01*
X115610013Y-136972252D01*
X115837748Y-137199987D01*
X115837767Y-137200000D01*
X115837748Y-137200013D01*
X115610013Y-137427748D01*
X115431082Y-137695537D01*
X115307832Y-137993088D01*
X115245000Y-138308967D01*
X115245000Y-138631033D01*
X115307832Y-138946912D01*
X115431082Y-139244463D01*
X115610013Y-139512252D01*
X115837748Y-139739987D01*
X115837767Y-139740000D01*
X115837748Y-139740013D01*
X115610013Y-139967748D01*
X115431082Y-140235537D01*
X115307832Y-140533088D01*
X115245000Y-140848967D01*
X115245000Y-141171033D01*
X115307832Y-141486912D01*
X115431082Y-141784463D01*
X115610013Y-142052252D01*
X115837748Y-142279987D01*
X115837767Y-142280000D01*
X115837748Y-142280013D01*
X115610013Y-142507748D01*
X115431082Y-142775537D01*
X115307832Y-143073088D01*
X115245000Y-143388967D01*
X115245000Y-143711033D01*
X115307832Y-144026912D01*
X115431082Y-144324463D01*
X115610013Y-144592252D01*
X115837748Y-144819987D01*
X115837767Y-144820000D01*
X115837748Y-144820013D01*
X115610013Y-145047748D01*
X115431082Y-145315537D01*
X115307832Y-145613088D01*
X115245000Y-145928967D01*
X115245000Y-146251033D01*
X115307832Y-146566912D01*
X115431082Y-146864463D01*
X115610013Y-147132252D01*
X115837748Y-147359987D01*
X116105537Y-147538918D01*
X116403088Y-147662168D01*
X116718967Y-147725000D01*
X117041033Y-147725000D01*
X117356912Y-147662168D01*
X117654463Y-147538918D01*
X117922252Y-147359987D01*
X118149987Y-147132252D01*
X118150000Y-147132233D01*
X118150013Y-147132252D01*
X118377748Y-147359987D01*
X118645537Y-147538918D01*
X118943088Y-147662168D01*
X119258967Y-147725000D01*
X119581033Y-147725000D01*
X119896912Y-147662168D01*
X120194463Y-147538918D01*
X120462252Y-147359987D01*
X120689987Y-147132252D01*
X120690000Y-147132233D01*
X120690013Y-147132252D01*
X120917748Y-147359987D01*
X121185537Y-147538918D01*
X121483088Y-147662168D01*
X121798967Y-147725000D01*
X122121033Y-147725000D01*
X122436912Y-147662168D01*
X122734463Y-147538918D01*
X123002252Y-147359987D01*
X123229987Y-147132252D01*
X123230000Y-147132233D01*
X123230013Y-147132252D01*
X123457748Y-147359987D01*
X123725537Y-147538918D01*
X124023088Y-147662168D01*
X124338967Y-147725000D01*
X124661033Y-147725000D01*
X124976912Y-147662168D01*
X125274463Y-147538918D01*
X125542252Y-147359987D01*
X125769987Y-147132252D01*
X125770000Y-147132233D01*
X125770013Y-147132252D01*
X125997748Y-147359987D01*
X126265537Y-147538918D01*
X126563088Y-147662168D01*
X126878967Y-147725000D01*
X127201033Y-147725000D01*
X127516912Y-147662168D01*
X127814463Y-147538918D01*
X128082252Y-147359987D01*
X128309987Y-147132252D01*
X128310000Y-147132233D01*
X128310013Y-147132252D01*
X128537748Y-147359987D01*
X128805537Y-147538918D01*
X129103088Y-147662168D01*
X129418967Y-147725000D01*
X129741033Y-147725000D01*
X130056912Y-147662168D01*
X130354463Y-147538918D01*
X130622252Y-147359987D01*
X130849987Y-147132252D01*
X130850000Y-147132233D01*
X130850013Y-147132252D01*
X131077748Y-147359987D01*
X131345537Y-147538918D01*
X131643088Y-147662168D01*
X131958967Y-147725000D01*
X132281033Y-147725000D01*
X132596912Y-147662168D01*
X132894463Y-147538918D01*
X133162252Y-147359987D01*
X133389987Y-147132252D01*
X133390000Y-147132233D01*
X133390013Y-147132252D01*
X133617748Y-147359987D01*
X133885537Y-147538918D01*
X134183088Y-147662168D01*
X134498967Y-147725000D01*
X134821033Y-147725000D01*
X135136912Y-147662168D01*
X135434463Y-147538918D01*
X135702252Y-147359987D01*
X135929987Y-147132252D01*
X135930000Y-147132233D01*
X135930013Y-147132252D01*
X136157748Y-147359987D01*
X136425537Y-147538918D01*
X136723088Y-147662168D01*
X137038967Y-147725000D01*
X137361033Y-147725000D01*
X137676912Y-147662168D01*
X137974463Y-147538918D01*
X138242252Y-147359987D01*
X138469987Y-147132252D01*
X138470000Y-147132233D01*
X138470013Y-147132252D01*
X138697748Y-147359987D01*
X138965537Y-147538918D01*
X139263088Y-147662168D01*
X139578967Y-147725000D01*
X139901033Y-147725000D01*
X140216912Y-147662168D01*
X140514463Y-147538918D01*
X140782252Y-147359987D01*
X141009987Y-147132252D01*
X141010000Y-147132233D01*
X141010013Y-147132252D01*
X141237748Y-147359987D01*
X141505537Y-147538918D01*
X141803088Y-147662168D01*
X142118967Y-147725000D01*
X142441033Y-147725000D01*
X142756912Y-147662168D01*
X143054463Y-147538918D01*
X143322252Y-147359987D01*
X143549987Y-147132252D01*
X143550000Y-147132233D01*
X143550013Y-147132252D01*
X143777748Y-147359987D01*
X144045537Y-147538918D01*
X144343088Y-147662168D01*
X144658967Y-147725000D01*
X144981033Y-147725000D01*
X145296912Y-147662168D01*
X145594463Y-147538918D01*
X145862252Y-147359987D01*
X146089987Y-147132252D01*
X146090000Y-147132233D01*
X146090013Y-147132252D01*
X146317748Y-147359987D01*
X146585537Y-147538918D01*
X146883088Y-147662168D01*
X147198967Y-147725000D01*
X147521033Y-147725000D01*
X147836912Y-147662168D01*
X148134463Y-147538918D01*
X148402252Y-147359987D01*
X148629987Y-147132252D01*
X148630000Y-147132233D01*
X148630013Y-147132252D01*
X148857748Y-147359987D01*
X149125537Y-147538918D01*
X149423088Y-147662168D01*
X149738967Y-147725000D01*
X150061033Y-147725000D01*
X150376912Y-147662168D01*
X150674463Y-147538918D01*
X150942252Y-147359987D01*
X151169987Y-147132252D01*
X151170000Y-147132233D01*
X151170013Y-147132252D01*
X151397748Y-147359987D01*
X151665537Y-147538918D01*
X151963088Y-147662168D01*
X152278967Y-147725000D01*
X152601033Y-147725000D01*
X152916912Y-147662168D01*
X153214463Y-147538918D01*
X153482252Y-147359987D01*
X153709987Y-147132252D01*
X153710000Y-147132233D01*
X153710013Y-147132252D01*
X153937748Y-147359987D01*
X154205537Y-147538918D01*
X154503088Y-147662168D01*
X154818967Y-147725000D01*
X155141033Y-147725000D01*
X155456912Y-147662168D01*
X155754463Y-147538918D01*
X156022252Y-147359987D01*
X156249987Y-147132252D01*
X156250000Y-147132233D01*
X156250013Y-147132252D01*
X156477748Y-147359987D01*
X156745537Y-147538918D01*
X157043088Y-147662168D01*
X157358967Y-147725000D01*
X157681033Y-147725000D01*
X157996912Y-147662168D01*
X158294463Y-147538918D01*
X158562252Y-147359987D01*
X158789987Y-147132252D01*
X158968918Y-146864463D01*
X159092168Y-146566912D01*
X159155000Y-146251033D01*
X159155000Y-145928967D01*
X159092168Y-145613088D01*
X158968918Y-145315537D01*
X158789987Y-145047748D01*
X158562252Y-144820013D01*
X158562233Y-144820000D01*
X158562252Y-144819987D01*
X158789987Y-144592252D01*
X158968918Y-144324463D01*
X158983308Y-144289721D01*
X160365000Y-144289721D01*
X160365000Y-144710279D01*
X160447047Y-145122756D01*
X160607988Y-145511302D01*
X160841637Y-145860983D01*
X161139017Y-146158363D01*
X161488698Y-146392012D01*
X161877244Y-146552953D01*
X162289721Y-146635000D01*
X162710279Y-146635000D01*
X163122756Y-146552953D01*
X163511302Y-146392012D01*
X163860983Y-146158363D01*
X164158363Y-145860983D01*
X164392012Y-145511302D01*
X164552953Y-145122756D01*
X164635000Y-144710279D01*
X164635000Y-144289721D01*
X164552953Y-143877244D01*
X164392012Y-143488698D01*
X164158363Y-143139017D01*
X163860983Y-142841637D01*
X163511302Y-142607988D01*
X163122756Y-142447047D01*
X162710279Y-142365000D01*
X162289721Y-142365000D01*
X161877244Y-142447047D01*
X161488698Y-142607988D01*
X161139017Y-142841637D01*
X160841637Y-143139017D01*
X160607988Y-143488698D01*
X160447047Y-143877244D01*
X160365000Y-144289721D01*
X158983308Y-144289721D01*
X159092168Y-144026912D01*
X159155000Y-143711033D01*
X159155000Y-143388967D01*
X159092168Y-143073088D01*
X158968918Y-142775537D01*
X158789987Y-142507748D01*
X158562252Y-142280013D01*
X158562233Y-142280000D01*
X158562252Y-142279987D01*
X158789987Y-142052252D01*
X158968918Y-141784463D01*
X159092168Y-141486912D01*
X159155000Y-141171033D01*
X159155000Y-140848967D01*
X159092168Y-140533088D01*
X158968918Y-140235537D01*
X158789987Y-139967748D01*
X158562252Y-139740013D01*
X158562233Y-139740000D01*
X158562252Y-139739987D01*
X158789987Y-139512252D01*
X158968918Y-139244463D01*
X159036107Y-139082254D01*
X159285537Y-139248918D01*
X159583088Y-139372168D01*
X159898967Y-139435000D01*
X160221033Y-139435000D01*
X160536912Y-139372168D01*
X160834463Y-139248918D01*
X161102252Y-139069987D01*
X161329987Y-138842252D01*
X161435059Y-138685000D01*
X165161928Y-138685000D01*
X165161928Y-139000000D01*
X165174188Y-139124482D01*
X165210498Y-139244180D01*
X165269463Y-139354494D01*
X165348815Y-139451185D01*
X165445506Y-139530537D01*
X165555820Y-139589502D01*
X165675518Y-139625812D01*
X165800000Y-139638072D01*
X168200000Y-139638072D01*
X168324482Y-139625812D01*
X168444180Y-139589502D01*
X168554494Y-139530537D01*
X168651185Y-139451185D01*
X168730537Y-139354494D01*
X168789502Y-139244180D01*
X168825812Y-139124482D01*
X168838072Y-139000000D01*
X168838072Y-136600000D01*
X168825812Y-136475518D01*
X168789502Y-136355820D01*
X168730537Y-136245506D01*
X168651185Y-136148815D01*
X168554494Y-136069463D01*
X168444180Y-136010498D01*
X168324482Y-135974188D01*
X168200000Y-135961928D01*
X167782838Y-135961928D01*
X167869199Y-135926156D01*
X168169744Y-135725338D01*
X168425338Y-135469744D01*
X168626156Y-135169199D01*
X168764482Y-134835250D01*
X168835000Y-134480732D01*
X168835000Y-134119268D01*
X168764482Y-133764750D01*
X168626156Y-133430801D01*
X168425338Y-133130256D01*
X168169744Y-132874662D01*
X167869199Y-132673844D01*
X167570213Y-132550000D01*
X167869199Y-132426156D01*
X168169744Y-132225338D01*
X168425338Y-131969744D01*
X168626156Y-131669199D01*
X168764482Y-131335250D01*
X168835000Y-130980732D01*
X168835000Y-130619268D01*
X168764482Y-130264750D01*
X168626156Y-129930801D01*
X168425338Y-129630256D01*
X168169744Y-129374662D01*
X167869199Y-129173844D01*
X167535250Y-129035518D01*
X167180732Y-128965000D01*
X166819268Y-128965000D01*
X166464750Y-129035518D01*
X166130801Y-129173844D01*
X165830256Y-129374662D01*
X165574662Y-129630256D01*
X165384402Y-129915000D01*
X161435059Y-129915000D01*
X161329987Y-129757748D01*
X161102252Y-129530013D01*
X160834463Y-129351082D01*
X160536912Y-129227832D01*
X160221033Y-129165000D01*
X159898967Y-129165000D01*
X159583088Y-129227832D01*
X159285537Y-129351082D01*
X159017748Y-129530013D01*
X158790013Y-129757748D01*
X158769975Y-129787736D01*
X158562252Y-129580013D01*
X158562233Y-129580000D01*
X158562252Y-129579987D01*
X158789987Y-129352252D01*
X158968918Y-129084463D01*
X159092168Y-128786912D01*
X159155000Y-128471033D01*
X159155000Y-128148967D01*
X159092168Y-127833088D01*
X158968918Y-127535537D01*
X158789987Y-127267748D01*
X158562252Y-127040013D01*
X158562233Y-127040000D01*
X158562252Y-127039987D01*
X158697189Y-126905050D01*
X161644555Y-126905050D01*
X161740258Y-127169399D01*
X162029787Y-127310238D01*
X162341229Y-127391885D01*
X162662615Y-127411205D01*
X162981595Y-127367454D01*
X163285911Y-127262314D01*
X163459742Y-127169399D01*
X163555445Y-126905050D01*
X162600000Y-125949605D01*
X161644555Y-126905050D01*
X158697189Y-126905050D01*
X158789987Y-126812252D01*
X158968918Y-126544463D01*
X159092168Y-126246912D01*
X159155000Y-125931033D01*
X159155000Y-125832615D01*
X160958795Y-125832615D01*
X161002546Y-126151595D01*
X161107686Y-126455911D01*
X161200601Y-126629742D01*
X161464950Y-126725445D01*
X162420395Y-125770000D01*
X162779605Y-125770000D01*
X163735050Y-126725445D01*
X163999399Y-126629742D01*
X164140238Y-126340213D01*
X164221885Y-126028771D01*
X164241205Y-125707385D01*
X164197454Y-125388405D01*
X164092314Y-125084089D01*
X163999399Y-124910258D01*
X163735050Y-124814555D01*
X162779605Y-125770000D01*
X162420395Y-125770000D01*
X161464950Y-124814555D01*
X161200601Y-124910258D01*
X161059762Y-125199787D01*
X160978115Y-125511229D01*
X160958795Y-125832615D01*
X159155000Y-125832615D01*
X159155000Y-125608967D01*
X159092168Y-125293088D01*
X158968918Y-124995537D01*
X158789987Y-124727748D01*
X158562252Y-124500013D01*
X158562233Y-124500000D01*
X158562252Y-124499987D01*
X158697189Y-124365050D01*
X161644555Y-124365050D01*
X161693411Y-124500000D01*
X161644555Y-124634950D01*
X162600000Y-125590395D01*
X163555445Y-124634950D01*
X163506589Y-124500000D01*
X163555445Y-124365050D01*
X163480116Y-124289721D01*
X167365000Y-124289721D01*
X167365000Y-124710279D01*
X167447047Y-125122756D01*
X167607988Y-125511302D01*
X167841637Y-125860983D01*
X168139017Y-126158363D01*
X168488698Y-126392012D01*
X168877244Y-126552953D01*
X169289721Y-126635000D01*
X169710279Y-126635000D01*
X170122756Y-126552953D01*
X170511302Y-126392012D01*
X170860983Y-126158363D01*
X171158363Y-125860983D01*
X171392012Y-125511302D01*
X171552953Y-125122756D01*
X171635000Y-124710279D01*
X171635000Y-124289721D01*
X171552953Y-123877244D01*
X171392012Y-123488698D01*
X171158363Y-123139017D01*
X170860983Y-122841637D01*
X170511302Y-122607988D01*
X170122756Y-122447047D01*
X169710279Y-122365000D01*
X169289721Y-122365000D01*
X168877244Y-122447047D01*
X168488698Y-122607988D01*
X168139017Y-122841637D01*
X167841637Y-123139017D01*
X167607988Y-123488698D01*
X167447047Y-123877244D01*
X167365000Y-124289721D01*
X163480116Y-124289721D01*
X162600000Y-123409605D01*
X161644555Y-124365050D01*
X158697189Y-124365050D01*
X158789987Y-124272252D01*
X158968918Y-124004463D01*
X159092168Y-123706912D01*
X159155000Y-123391033D01*
X159155000Y-123292615D01*
X160958795Y-123292615D01*
X161002546Y-123611595D01*
X161107686Y-123915911D01*
X161200601Y-124089742D01*
X161464950Y-124185445D01*
X162420395Y-123230000D01*
X162779605Y-123230000D01*
X163735050Y-124185445D01*
X163999399Y-124089742D01*
X164140238Y-123800213D01*
X164221885Y-123488771D01*
X164241205Y-123167385D01*
X164197454Y-122848405D01*
X164092314Y-122544089D01*
X163999399Y-122370258D01*
X163735050Y-122274555D01*
X162779605Y-123230000D01*
X162420395Y-123230000D01*
X161464950Y-122274555D01*
X161200601Y-122370258D01*
X161059762Y-122659787D01*
X160978115Y-122971229D01*
X160958795Y-123292615D01*
X159155000Y-123292615D01*
X159155000Y-123068967D01*
X159092168Y-122753088D01*
X158968918Y-122455537D01*
X158789987Y-122187748D01*
X158697189Y-122094950D01*
X161644555Y-122094950D01*
X162600000Y-123050395D01*
X163555445Y-122094950D01*
X163459742Y-121830601D01*
X163170213Y-121689762D01*
X162858771Y-121608115D01*
X162537385Y-121588795D01*
X162218405Y-121632546D01*
X161914089Y-121737686D01*
X161740258Y-121830601D01*
X161644555Y-122094950D01*
X158697189Y-122094950D01*
X158562252Y-121960013D01*
X158562233Y-121960000D01*
X158562252Y-121959987D01*
X158789987Y-121732252D01*
X158968918Y-121464463D01*
X159092168Y-121166912D01*
X159155000Y-120851033D01*
X159155000Y-120528967D01*
X159092168Y-120213088D01*
X158968918Y-119915537D01*
X158789987Y-119647748D01*
X158562252Y-119420013D01*
X158562233Y-119420000D01*
X158562252Y-119419987D01*
X158769975Y-119212264D01*
X158790013Y-119242252D01*
X159017748Y-119469987D01*
X159285537Y-119648918D01*
X159583088Y-119772168D01*
X159898967Y-119835000D01*
X160221033Y-119835000D01*
X160536912Y-119772168D01*
X160834463Y-119648918D01*
X161102252Y-119469987D01*
X161329987Y-119242252D01*
X161435059Y-119085000D01*
X165161928Y-119085000D01*
X165161928Y-119400000D01*
X165174188Y-119524482D01*
X165210498Y-119644180D01*
X165269463Y-119754494D01*
X165348815Y-119851185D01*
X165445506Y-119930537D01*
X165555820Y-119989502D01*
X165675518Y-120025812D01*
X165800000Y-120038072D01*
X168200000Y-120038072D01*
X168324482Y-120025812D01*
X168444180Y-119989502D01*
X168554494Y-119930537D01*
X168651185Y-119851185D01*
X168730537Y-119754494D01*
X168789502Y-119644180D01*
X168825812Y-119524482D01*
X168838072Y-119400000D01*
X168838072Y-117000000D01*
X168825812Y-116875518D01*
X168789502Y-116755820D01*
X168730537Y-116645506D01*
X168651185Y-116548815D01*
X168554494Y-116469463D01*
X168444180Y-116410498D01*
X168324482Y-116374188D01*
X168200000Y-116361928D01*
X167782838Y-116361928D01*
X167869199Y-116326156D01*
X168169744Y-116125338D01*
X168425338Y-115869744D01*
X168626156Y-115569199D01*
X168764482Y-115235250D01*
X168835000Y-114880732D01*
X168835000Y-114519268D01*
X168764482Y-114164750D01*
X168626156Y-113830801D01*
X168425338Y-113530256D01*
X168169744Y-113274662D01*
X167869199Y-113073844D01*
X167570213Y-112950000D01*
X167869199Y-112826156D01*
X168169744Y-112625338D01*
X168425338Y-112369744D01*
X168626156Y-112069199D01*
X168764482Y-111735250D01*
X168835000Y-111380732D01*
X168835000Y-111019268D01*
X168764482Y-110664750D01*
X168626156Y-110330801D01*
X168425338Y-110030256D01*
X168169744Y-109774662D01*
X167869199Y-109573844D01*
X167535250Y-109435518D01*
X167180732Y-109365000D01*
X166819268Y-109365000D01*
X166464750Y-109435518D01*
X166130801Y-109573844D01*
X165830256Y-109774662D01*
X165574662Y-110030256D01*
X165384402Y-110315000D01*
X161435059Y-110315000D01*
X161329987Y-110157748D01*
X161102252Y-109930013D01*
X160834463Y-109751082D01*
X160536912Y-109627832D01*
X160221033Y-109565000D01*
X159898967Y-109565000D01*
X159583088Y-109627832D01*
X159285537Y-109751082D01*
X159036107Y-109917746D01*
X158968918Y-109755537D01*
X158789987Y-109487748D01*
X158562252Y-109260013D01*
X158562233Y-109260000D01*
X158562252Y-109259987D01*
X158789987Y-109032252D01*
X158968918Y-108764463D01*
X159092168Y-108466912D01*
X159155000Y-108151033D01*
X159155000Y-107828967D01*
X159092168Y-107513088D01*
X158968918Y-107215537D01*
X158789987Y-106947748D01*
X158562252Y-106720013D01*
X158562233Y-106720000D01*
X158562252Y-106719987D01*
X158789987Y-106492252D01*
X158968918Y-106224463D01*
X159092168Y-105926912D01*
X159155000Y-105611033D01*
X159155000Y-105288967D01*
X159092168Y-104973088D01*
X158968918Y-104675537D01*
X158789987Y-104407748D01*
X158671960Y-104289721D01*
X160365000Y-104289721D01*
X160365000Y-104710279D01*
X160447047Y-105122756D01*
X160607988Y-105511302D01*
X160841637Y-105860983D01*
X161139017Y-106158363D01*
X161488698Y-106392012D01*
X161877244Y-106552953D01*
X162289721Y-106635000D01*
X162710279Y-106635000D01*
X163122756Y-106552953D01*
X163511302Y-106392012D01*
X163860983Y-106158363D01*
X164158363Y-105860983D01*
X164392012Y-105511302D01*
X164552953Y-105122756D01*
X164635000Y-104710279D01*
X164635000Y-104289721D01*
X164552953Y-103877244D01*
X164392012Y-103488698D01*
X164158363Y-103139017D01*
X163860983Y-102841637D01*
X163511302Y-102607988D01*
X163122756Y-102447047D01*
X162710279Y-102365000D01*
X162289721Y-102365000D01*
X161877244Y-102447047D01*
X161488698Y-102607988D01*
X161139017Y-102841637D01*
X160841637Y-103139017D01*
X160607988Y-103488698D01*
X160447047Y-103877244D01*
X160365000Y-104289721D01*
X158671960Y-104289721D01*
X158562252Y-104180013D01*
X158562233Y-104180000D01*
X158562252Y-104179987D01*
X158789987Y-103952252D01*
X158968918Y-103684463D01*
X159092168Y-103386912D01*
X159155000Y-103071033D01*
X159155000Y-102748967D01*
X159092168Y-102433088D01*
X158968918Y-102135537D01*
X158789987Y-101867748D01*
X158562252Y-101640013D01*
X158294463Y-101461082D01*
X157996912Y-101337832D01*
X157681033Y-101275000D01*
X157358967Y-101275000D01*
X157043088Y-101337832D01*
X156745537Y-101461082D01*
X156477748Y-101640013D01*
X156250013Y-101867748D01*
X156250000Y-101867767D01*
X156249987Y-101867748D01*
X156022252Y-101640013D01*
X155754463Y-101461082D01*
X155456912Y-101337832D01*
X155141033Y-101275000D01*
X154818967Y-101275000D01*
X154503088Y-101337832D01*
X154205537Y-101461082D01*
X153937748Y-101640013D01*
X153710013Y-101867748D01*
X153710000Y-101867767D01*
X153709987Y-101867748D01*
X153482252Y-101640013D01*
X153214463Y-101461082D01*
X152916912Y-101337832D01*
X152601033Y-101275000D01*
X152278967Y-101275000D01*
X151963088Y-101337832D01*
X151665537Y-101461082D01*
X151397748Y-101640013D01*
X151170013Y-101867748D01*
X151170000Y-101867767D01*
X151169987Y-101867748D01*
X150942252Y-101640013D01*
X150674463Y-101461082D01*
X150376912Y-101337832D01*
X150061033Y-101275000D01*
X149738967Y-101275000D01*
X149423088Y-101337832D01*
X149125537Y-101461082D01*
X148857748Y-101640013D01*
X148630013Y-101867748D01*
X148630000Y-101867767D01*
X148629987Y-101867748D01*
X148402252Y-101640013D01*
X148134463Y-101461082D01*
X147836912Y-101337832D01*
X147521033Y-101275000D01*
X147198967Y-101275000D01*
X146883088Y-101337832D01*
X146585537Y-101461082D01*
X146317748Y-101640013D01*
X146090013Y-101867748D01*
X146090000Y-101867767D01*
X146089987Y-101867748D01*
X145862252Y-101640013D01*
X145594463Y-101461082D01*
X145296912Y-101337832D01*
X144981033Y-101275000D01*
X144658967Y-101275000D01*
X144343088Y-101337832D01*
X144045537Y-101461082D01*
X143777748Y-101640013D01*
X143550013Y-101867748D01*
X143550000Y-101867767D01*
X143549987Y-101867748D01*
X143322252Y-101640013D01*
X143054463Y-101461082D01*
X142756912Y-101337832D01*
X142441033Y-101275000D01*
X142118967Y-101275000D01*
X141803088Y-101337832D01*
X141505537Y-101461082D01*
X141237748Y-101640013D01*
X141010013Y-101867748D01*
X141010000Y-101867767D01*
X141009987Y-101867748D01*
X140782252Y-101640013D01*
X140514463Y-101461082D01*
X140216912Y-101337832D01*
X139901033Y-101275000D01*
X139578967Y-101275000D01*
X139263088Y-101337832D01*
X138965537Y-101461082D01*
X138697748Y-101640013D01*
X138470013Y-101867748D01*
X138470000Y-101867767D01*
X138469987Y-101867748D01*
X138242252Y-101640013D01*
X137974463Y-101461082D01*
X137676912Y-101337832D01*
X137361033Y-101275000D01*
X137038967Y-101275000D01*
X136723088Y-101337832D01*
X136425537Y-101461082D01*
X136157748Y-101640013D01*
X135930013Y-101867748D01*
X135930000Y-101867767D01*
X135929987Y-101867748D01*
X135702252Y-101640013D01*
X135434463Y-101461082D01*
X135136912Y-101337832D01*
X134821033Y-101275000D01*
X134498967Y-101275000D01*
X134183088Y-101337832D01*
X133885537Y-101461082D01*
X133617748Y-101640013D01*
X133390013Y-101867748D01*
X133390000Y-101867767D01*
X133389987Y-101867748D01*
X133162252Y-101640013D01*
X132894463Y-101461082D01*
X132596912Y-101337832D01*
X132281033Y-101275000D01*
X131958967Y-101275000D01*
X131643088Y-101337832D01*
X131345537Y-101461082D01*
X131077748Y-101640013D01*
X130850013Y-101867748D01*
X130850000Y-101867767D01*
X130849987Y-101867748D01*
X130622252Y-101640013D01*
X130354463Y-101461082D01*
X130056912Y-101337832D01*
X129741033Y-101275000D01*
X129418967Y-101275000D01*
X129103088Y-101337832D01*
X128805537Y-101461082D01*
X128537748Y-101640013D01*
X128310013Y-101867748D01*
X128310000Y-101867767D01*
X128309987Y-101867748D01*
X128082252Y-101640013D01*
X127814463Y-101461082D01*
X127516912Y-101337832D01*
X127201033Y-101275000D01*
X126878967Y-101275000D01*
X126563088Y-101337832D01*
X126265537Y-101461082D01*
X125997748Y-101640013D01*
X125770013Y-101867748D01*
X125770000Y-101867767D01*
X125769987Y-101867748D01*
X125542252Y-101640013D01*
X125274463Y-101461082D01*
X124976912Y-101337832D01*
X124661033Y-101275000D01*
X124338967Y-101275000D01*
X124023088Y-101337832D01*
X123725537Y-101461082D01*
X123457748Y-101640013D01*
X123230013Y-101867748D01*
X123051082Y-102135537D01*
X122927832Y-102433088D01*
X122865000Y-102748967D01*
X122865000Y-103071033D01*
X122927832Y-103386912D01*
X123051082Y-103684463D01*
X123230013Y-103952252D01*
X123329209Y-104051448D01*
X123295506Y-104069463D01*
X123198815Y-104148815D01*
X123119463Y-104245506D01*
X123060498Y-104355820D01*
X123024188Y-104475518D01*
X123011928Y-104600000D01*
X123011928Y-106300000D01*
X123024188Y-106424482D01*
X123060498Y-106544180D01*
X123119463Y-106654494D01*
X123198815Y-106751185D01*
X123295506Y-106830537D01*
X123329209Y-106848552D01*
X123230013Y-106947748D01*
X123051082Y-107215537D01*
X122927832Y-107513088D01*
X122865000Y-107828967D01*
X122865000Y-108151033D01*
X122927832Y-108466912D01*
X123051082Y-108764463D01*
X123230013Y-109032252D01*
X123457748Y-109259987D01*
X123725537Y-109438918D01*
X124023088Y-109562168D01*
X124338967Y-109625000D01*
X124661033Y-109625000D01*
X124976912Y-109562168D01*
X125274463Y-109438918D01*
X125542252Y-109259987D01*
X125769987Y-109032252D01*
X125770000Y-109032233D01*
X125770013Y-109032252D01*
X125997748Y-109259987D01*
X126265537Y-109438918D01*
X126563088Y-109562168D01*
X126878967Y-109625000D01*
X127201033Y-109625000D01*
X127516912Y-109562168D01*
X127814463Y-109438918D01*
X128082252Y-109259987D01*
X128309987Y-109032252D01*
X128310000Y-109032233D01*
X128310013Y-109032252D01*
X128537748Y-109259987D01*
X128805537Y-109438918D01*
X129103088Y-109562168D01*
X129418967Y-109625000D01*
X129741033Y-109625000D01*
X130056912Y-109562168D01*
X130354463Y-109438918D01*
X130622252Y-109259987D01*
X130849987Y-109032252D01*
X130850000Y-109032233D01*
X130850013Y-109032252D01*
X131077748Y-109259987D01*
X131077767Y-109260000D01*
X131077748Y-109260013D01*
X130850013Y-109487748D01*
X130671082Y-109755537D01*
X130547832Y-110053088D01*
X130485000Y-110368967D01*
X130485000Y-110691033D01*
X130547832Y-111006912D01*
X130671082Y-111304463D01*
X130850013Y-111572252D01*
X131077748Y-111799987D01*
X131077767Y-111800000D01*
X131077748Y-111800013D01*
X130850013Y-112027748D01*
X130671082Y-112295537D01*
X130547832Y-112593088D01*
X130485000Y-112908967D01*
X130485000Y-113231033D01*
X130547832Y-113546912D01*
X130671082Y-113844463D01*
X130850013Y-114112252D01*
X131077748Y-114339987D01*
X131077767Y-114340000D01*
X131077748Y-114340013D01*
X130850013Y-114567748D01*
X130671082Y-114835537D01*
X130547832Y-115133088D01*
X130485000Y-115448967D01*
X130485000Y-115771033D01*
X130547832Y-116086912D01*
X130671082Y-116384463D01*
X130850013Y-116652252D01*
X131077748Y-116879987D01*
X131077767Y-116880000D01*
X131077748Y-116880013D01*
X130850013Y-117107748D01*
X130671082Y-117375537D01*
X130547832Y-117673088D01*
X130485000Y-117988967D01*
X130485000Y-118311033D01*
X130547832Y-118626912D01*
X130671082Y-118924463D01*
X130850013Y-119192252D01*
X131077748Y-119419987D01*
X131077767Y-119420000D01*
X131077748Y-119420013D01*
X130850013Y-119647748D01*
X130671082Y-119915537D01*
X130547832Y-120213088D01*
X130485000Y-120528967D01*
X130485000Y-120851033D01*
X130547832Y-121166912D01*
X130671082Y-121464463D01*
X130850013Y-121732252D01*
X131077748Y-121959987D01*
X131092060Y-121969550D01*
X131077748Y-121979113D01*
X130850013Y-122206848D01*
X130671082Y-122474637D01*
X130547832Y-122772188D01*
X130485000Y-123088067D01*
X130485000Y-123410133D01*
X130547832Y-123726012D01*
X130671082Y-124023563D01*
X130850013Y-124291352D01*
X131068211Y-124509550D01*
X130850013Y-124727748D01*
X130850000Y-124727767D01*
X130849987Y-124727748D01*
X130622252Y-124500013D01*
X130354463Y-124321082D01*
X130056912Y-124197832D01*
X129741033Y-124135000D01*
X129418967Y-124135000D01*
X129103088Y-124197832D01*
X128805537Y-124321082D01*
X128537748Y-124500013D01*
X128310013Y-124727748D01*
X128310000Y-124727767D01*
X128309987Y-124727748D01*
X128082252Y-124500013D01*
X127814463Y-124321082D01*
X127516912Y-124197832D01*
X127201033Y-124135000D01*
X126878967Y-124135000D01*
X126563088Y-124197832D01*
X126265537Y-124321082D01*
X125997748Y-124500013D01*
X125770013Y-124727748D01*
X125770000Y-124727767D01*
X125769987Y-124727748D01*
X125542252Y-124500013D01*
X125274463Y-124321082D01*
X124976912Y-124197832D01*
X124661033Y-124135000D01*
X124338967Y-124135000D01*
X124023088Y-124197832D01*
X123725537Y-124321082D01*
X123457748Y-124500013D01*
X123230013Y-124727748D01*
X123230000Y-124727767D01*
X123229987Y-124727748D01*
X123002252Y-124500013D01*
X122734463Y-124321082D01*
X122436912Y-124197832D01*
X122121033Y-124135000D01*
X121798967Y-124135000D01*
X121483088Y-124197832D01*
X121185537Y-124321082D01*
X120917748Y-124500013D01*
X120690013Y-124727748D01*
X120511082Y-124995537D01*
X120387832Y-125293088D01*
X120325000Y-125608967D01*
X120325000Y-125931033D01*
X120387832Y-126246912D01*
X120511082Y-126544463D01*
X120690013Y-126812252D01*
X120917748Y-127039987D01*
X121185537Y-127218918D01*
X121483088Y-127342168D01*
X121798967Y-127405000D01*
X122121033Y-127405000D01*
X122289009Y-127371588D01*
X123011928Y-128094507D01*
X123011928Y-128500193D01*
X122267907Y-129244215D01*
X122121033Y-129215000D01*
X121798967Y-129215000D01*
X121483088Y-129277832D01*
X121185537Y-129401082D01*
X120917748Y-129580013D01*
X120690013Y-129807748D01*
X120511082Y-130075537D01*
X120387832Y-130373088D01*
X120325000Y-130688967D01*
X120325000Y-131011033D01*
X120387832Y-131326912D01*
X120511082Y-131624463D01*
X120690013Y-131892252D01*
X120917748Y-132119987D01*
X120917767Y-132120000D01*
X120917748Y-132120013D01*
X120690013Y-132347748D01*
X120690000Y-132347767D01*
X120689987Y-132347748D01*
X120462252Y-132120013D01*
X120194463Y-131941082D01*
X119896912Y-131817832D01*
X119581033Y-131755000D01*
X119258967Y-131755000D01*
X118943088Y-131817832D01*
X118645537Y-131941082D01*
X118377748Y-132120013D01*
X118150013Y-132347748D01*
X118150000Y-132347767D01*
X118149987Y-132347748D01*
X117922252Y-132120013D01*
X117654463Y-131941082D01*
X117356912Y-131817832D01*
X117041033Y-131755000D01*
X116718967Y-131755000D01*
X116403088Y-131817832D01*
X116105537Y-131941082D01*
X115837748Y-132120013D01*
X115610013Y-132347748D01*
X115610000Y-132347767D01*
X115609987Y-132347748D01*
X115382252Y-132120013D01*
X115114463Y-131941082D01*
X114816912Y-131817832D01*
X114501033Y-131755000D01*
X114178967Y-131755000D01*
X113863088Y-131817832D01*
X113565537Y-131941082D01*
X113297748Y-132120013D01*
X113070013Y-132347748D01*
X113070000Y-132347767D01*
X113069987Y-132347748D01*
X112842252Y-132120013D01*
X112574463Y-131941082D01*
X112276912Y-131817832D01*
X111961033Y-131755000D01*
X111638967Y-131755000D01*
X111323088Y-131817832D01*
X111025537Y-131941082D01*
X110757748Y-132120013D01*
X110530013Y-132347748D01*
X110530000Y-132347767D01*
X110529987Y-132347748D01*
X110302252Y-132120013D01*
X110034463Y-131941082D01*
X109736912Y-131817832D01*
X109421033Y-131755000D01*
X109098967Y-131755000D01*
X108783088Y-131817832D01*
X108485537Y-131941082D01*
X108217748Y-132120013D01*
X107990013Y-132347748D01*
X107990000Y-132347767D01*
X107989987Y-132347748D01*
X107762252Y-132120013D01*
X107494463Y-131941082D01*
X107196912Y-131817832D01*
X106881033Y-131755000D01*
X106558967Y-131755000D01*
X106243088Y-131817832D01*
X105945537Y-131941082D01*
X105677748Y-132120013D01*
X105450013Y-132347748D01*
X105271082Y-132615537D01*
X105147832Y-132913088D01*
X105085000Y-133228967D01*
X100660000Y-133228967D01*
X100660000Y-124289721D01*
X103365000Y-124289721D01*
X103365000Y-124710279D01*
X103447047Y-125122756D01*
X103607988Y-125511302D01*
X103841637Y-125860983D01*
X104139017Y-126158363D01*
X104488698Y-126392012D01*
X104877244Y-126552953D01*
X105289721Y-126635000D01*
X105710279Y-126635000D01*
X106122756Y-126552953D01*
X106511302Y-126392012D01*
X106860983Y-126158363D01*
X107158363Y-125860983D01*
X107392012Y-125511302D01*
X107552953Y-125122756D01*
X107635000Y-124710279D01*
X107635000Y-124289721D01*
X107552953Y-123877244D01*
X107392012Y-123488698D01*
X107158363Y-123139017D01*
X106860983Y-122841637D01*
X106511302Y-122607988D01*
X106122756Y-122447047D01*
X105710279Y-122365000D01*
X105289721Y-122365000D01*
X104877244Y-122447047D01*
X104488698Y-122607988D01*
X104139017Y-122841637D01*
X103841637Y-123139017D01*
X103607988Y-123488698D01*
X103447047Y-123877244D01*
X103365000Y-124289721D01*
X100660000Y-124289721D01*
X100660000Y-110368967D01*
X107625000Y-110368967D01*
X107625000Y-110691033D01*
X107687832Y-111006912D01*
X107811082Y-111304463D01*
X107990013Y-111572252D01*
X108217748Y-111799987D01*
X108217767Y-111800000D01*
X108217748Y-111800013D01*
X107990013Y-112027748D01*
X107811082Y-112295537D01*
X107687832Y-112593088D01*
X107625000Y-112908967D01*
X107625000Y-113231033D01*
X107687832Y-113546912D01*
X107811082Y-113844463D01*
X107990013Y-114112252D01*
X108217748Y-114339987D01*
X108217767Y-114340000D01*
X108217748Y-114340013D01*
X107990013Y-114567748D01*
X107811082Y-114835537D01*
X107687832Y-115133088D01*
X107625000Y-115448967D01*
X107625000Y-115771033D01*
X107687832Y-116086912D01*
X107811082Y-116384463D01*
X107990013Y-116652252D01*
X108217748Y-116879987D01*
X108217767Y-116880000D01*
X108217748Y-116880013D01*
X107990013Y-117107748D01*
X107811082Y-117375537D01*
X107687832Y-117673088D01*
X107625000Y-117988967D01*
X107625000Y-118311033D01*
X107687832Y-118626912D01*
X107811082Y-118924463D01*
X107990013Y-119192252D01*
X108217748Y-119419987D01*
X108217767Y-119420000D01*
X108217748Y-119420013D01*
X107990013Y-119647748D01*
X107811082Y-119915537D01*
X107687832Y-120213088D01*
X107625000Y-120528967D01*
X107625000Y-120851033D01*
X107687832Y-121166912D01*
X107811082Y-121464463D01*
X107990013Y-121732252D01*
X108217748Y-121959987D01*
X108217767Y-121960000D01*
X108217748Y-121960013D01*
X107990013Y-122187748D01*
X107811082Y-122455537D01*
X107687832Y-122753088D01*
X107625000Y-123068967D01*
X107625000Y-123391033D01*
X107687832Y-123706912D01*
X107811082Y-124004463D01*
X107990013Y-124272252D01*
X108217748Y-124499987D01*
X108217767Y-124500000D01*
X108217748Y-124500013D01*
X107990013Y-124727748D01*
X107811082Y-124995537D01*
X107687832Y-125293088D01*
X107625000Y-125608967D01*
X107625000Y-125931033D01*
X107687832Y-126246912D01*
X107811082Y-126544463D01*
X107990013Y-126812252D01*
X108217748Y-127039987D01*
X108217767Y-127040000D01*
X108217748Y-127040013D01*
X107990013Y-127267748D01*
X107811082Y-127535537D01*
X107687832Y-127833088D01*
X107625000Y-128148967D01*
X107625000Y-128471033D01*
X107687832Y-128786912D01*
X107811082Y-129084463D01*
X107990013Y-129352252D01*
X108217748Y-129579987D01*
X108485537Y-129758918D01*
X108783088Y-129882168D01*
X109098967Y-129945000D01*
X109421033Y-129945000D01*
X109736912Y-129882168D01*
X110034463Y-129758918D01*
X110302252Y-129579987D01*
X110401448Y-129480791D01*
X110419463Y-129514494D01*
X110498815Y-129611185D01*
X110595506Y-129690537D01*
X110705820Y-129749502D01*
X110825518Y-129785812D01*
X110950000Y-129798072D01*
X112650000Y-129798072D01*
X112774482Y-129785812D01*
X112894180Y-129749502D01*
X113004494Y-129690537D01*
X113101185Y-129611185D01*
X113180537Y-129514494D01*
X113198552Y-129480791D01*
X113297748Y-129579987D01*
X113565537Y-129758918D01*
X113863088Y-129882168D01*
X114178967Y-129945000D01*
X114501033Y-129945000D01*
X114816912Y-129882168D01*
X115114463Y-129758918D01*
X115382252Y-129579987D01*
X115609987Y-129352252D01*
X115788918Y-129084463D01*
X115912168Y-128786912D01*
X115975000Y-128471033D01*
X115975000Y-128148967D01*
X115912168Y-127833088D01*
X115788918Y-127535537D01*
X115609987Y-127267748D01*
X115382252Y-127040013D01*
X115382233Y-127040000D01*
X115382252Y-127039987D01*
X115609987Y-126812252D01*
X115788918Y-126544463D01*
X115912168Y-126246912D01*
X115975000Y-125931033D01*
X115975000Y-125608967D01*
X115912168Y-125293088D01*
X115788918Y-124995537D01*
X115609987Y-124727748D01*
X115382252Y-124500013D01*
X115382233Y-124500000D01*
X115382252Y-124499987D01*
X115609987Y-124272252D01*
X115788918Y-124004463D01*
X115912168Y-123706912D01*
X115975000Y-123391033D01*
X115975000Y-123068967D01*
X115912168Y-122753088D01*
X115788918Y-122455537D01*
X115609987Y-122187748D01*
X115382252Y-121960013D01*
X115382233Y-121960000D01*
X115382252Y-121959987D01*
X115609987Y-121732252D01*
X115788918Y-121464463D01*
X115912168Y-121166912D01*
X115975000Y-120851033D01*
X115975000Y-120528967D01*
X115912168Y-120213088D01*
X115788918Y-119915537D01*
X115609987Y-119647748D01*
X115382252Y-119420013D01*
X115382233Y-119420000D01*
X115382252Y-119419987D01*
X115609987Y-119192252D01*
X115788918Y-118924463D01*
X115912168Y-118626912D01*
X115975000Y-118311033D01*
X115975000Y-117988967D01*
X115912168Y-117673088D01*
X115788918Y-117375537D01*
X115609987Y-117107748D01*
X115382252Y-116880013D01*
X115382233Y-116880000D01*
X115382252Y-116879987D01*
X115609987Y-116652252D01*
X115745096Y-116450046D01*
X118469407Y-116450046D01*
X118469407Y-117375494D01*
X118469475Y-117376184D01*
X118469408Y-117376879D01*
X118475590Y-117438554D01*
X118481596Y-117499804D01*
X118481796Y-117500468D01*
X118481866Y-117501162D01*
X118499864Y-117560310D01*
X118517698Y-117619379D01*
X118518025Y-117619994D01*
X118518227Y-117620658D01*
X118547293Y-117675041D01*
X118576337Y-117729665D01*
X118576776Y-117730203D01*
X118577104Y-117730817D01*
X118616384Y-117778767D01*
X118655282Y-117826460D01*
X118655814Y-117826900D01*
X118656258Y-117827442D01*
X118704156Y-117866892D01*
X118751524Y-117906078D01*
X118752134Y-117906408D01*
X118752672Y-117906851D01*
X118807008Y-117936078D01*
X118861397Y-117965486D01*
X118862065Y-117965693D01*
X118862675Y-117966021D01*
X118921598Y-117984121D01*
X118980717Y-118002422D01*
X118981409Y-118002495D01*
X118982074Y-118002699D01*
X118990843Y-118004416D01*
X119435414Y-118088226D01*
X119435466Y-118088236D01*
X119518959Y-118103976D01*
X119472112Y-118172870D01*
X119472070Y-118172948D01*
X119471143Y-118174298D01*
X119400893Y-118278209D01*
X119400820Y-118278343D01*
X119398856Y-118281241D01*
X119336132Y-118375171D01*
X119336056Y-118375313D01*
X119333670Y-118378886D01*
X119281336Y-118458451D01*
X119281283Y-118458552D01*
X119277618Y-118464169D01*
X119238537Y-118524987D01*
X119237081Y-118527829D01*
X119235128Y-118530351D01*
X119230425Y-118537949D01*
X119207461Y-118575636D01*
X119195787Y-118599832D01*
X119181490Y-118622579D01*
X119177551Y-118630601D01*
X119172600Y-118640865D01*
X119165836Y-118659298D01*
X119156669Y-118676653D01*
X119153320Y-118687857D01*
X119153186Y-118688134D01*
X119152850Y-118689426D01*
X119144366Y-118717807D01*
X119129571Y-118758126D01*
X119126518Y-118777511D01*
X119120893Y-118796326D01*
X119116817Y-118839101D01*
X119110137Y-118881511D01*
X119110907Y-118901120D01*
X119109044Y-118920669D01*
X119113352Y-118963405D01*
X119115037Y-119006321D01*
X119119603Y-119025414D01*
X119121572Y-119044945D01*
X119134099Y-119086028D01*
X119144089Y-119127802D01*
X119152277Y-119145647D01*
X119158002Y-119164421D01*
X119178269Y-119202289D01*
X119196182Y-119241326D01*
X119207675Y-119257233D01*
X119216941Y-119274546D01*
X119221959Y-119281941D01*
X119234693Y-119300430D01*
X119257558Y-119327528D01*
X119278052Y-119356471D01*
X119283951Y-119363184D01*
X119319157Y-119402694D01*
X119323134Y-119406363D01*
X119326397Y-119410683D01*
X119332499Y-119417211D01*
X119385680Y-119473313D01*
X119385882Y-119473488D01*
X119386051Y-119473705D01*
X119392249Y-119480142D01*
X119458905Y-119548406D01*
X119459011Y-119548495D01*
X119463188Y-119552751D01*
X119538823Y-119628749D01*
X119538943Y-119628848D01*
X119542216Y-119632133D01*
X119622334Y-119711439D01*
X119622459Y-119711541D01*
X119625543Y-119714593D01*
X119705645Y-119792777D01*
X119705771Y-119792878D01*
X119709245Y-119796263D01*
X119784836Y-119868895D01*
X119784929Y-119868968D01*
X119789677Y-119873499D01*
X119856258Y-119936151D01*
X119857088Y-119936792D01*
X119857784Y-119937583D01*
X119864355Y-119943639D01*
X119917428Y-119991883D01*
X119924123Y-119996868D01*
X119929886Y-120002916D01*
X119936693Y-120008705D01*
X119971762Y-120038112D01*
X120009798Y-120064137D01*
X120046441Y-120092078D01*
X120054074Y-120096724D01*
X120065810Y-120103755D01*
X120071935Y-120106654D01*
X120074847Y-120108646D01*
X120088489Y-120114488D01*
X120118166Y-120128532D01*
X120170192Y-120154063D01*
X120174600Y-120155239D01*
X120178712Y-120157185D01*
X120234832Y-120171308D01*
X120290877Y-120186260D01*
X120295428Y-120186557D01*
X120299841Y-120187668D01*
X120357672Y-120190624D01*
X120415518Y-120194404D01*
X120420035Y-120193812D01*
X120424585Y-120194045D01*
X120481947Y-120185702D01*
X120539366Y-120178181D01*
X120543680Y-120176724D01*
X120548191Y-120176068D01*
X120602804Y-120156756D01*
X120619596Y-120151085D01*
X120623615Y-120150135D01*
X120627073Y-120148559D01*
X120657705Y-120138214D01*
X120665826Y-120134485D01*
X120687463Y-120124367D01*
X120711668Y-120110017D01*
X120737279Y-120098348D01*
X120744979Y-120093813D01*
X120792381Y-120065449D01*
X120795930Y-120062823D01*
X120799900Y-120060880D01*
X120807471Y-120056133D01*
X120876002Y-120012503D01*
X120876203Y-120012345D01*
X120876440Y-120012225D01*
X120883940Y-120007367D01*
X120968962Y-119951456D01*
X120969053Y-119951382D01*
X120974697Y-119947640D01*
X121071575Y-119882428D01*
X121071695Y-119882329D01*
X121075458Y-119879794D01*
X121130278Y-119842305D01*
X121201723Y-119793535D01*
X121205281Y-119812413D01*
X121217345Y-119877163D01*
X121217378Y-119877279D01*
X121217812Y-119879644D01*
X121240756Y-120000152D01*
X121240793Y-120000277D01*
X121241961Y-120006317D01*
X121263794Y-120115164D01*
X121263817Y-120115239D01*
X121265336Y-120122622D01*
X121284863Y-120214300D01*
X121285289Y-120215642D01*
X121285453Y-120217041D01*
X121287414Y-120225759D01*
X121303440Y-120294764D01*
X121306377Y-120303454D01*
X121307832Y-120312524D01*
X121310163Y-120321151D01*
X121321493Y-120361973D01*
X121336263Y-120400226D01*
X121348426Y-120439384D01*
X121351955Y-120447594D01*
X121355550Y-120455801D01*
X121362298Y-120467849D01*
X121367141Y-120480786D01*
X121392777Y-120522260D01*
X121416592Y-120564775D01*
X121425551Y-120575281D01*
X121432815Y-120587033D01*
X121466021Y-120622740D01*
X121497638Y-120659818D01*
X121508466Y-120668383D01*
X121517875Y-120678501D01*
X121557375Y-120707071D01*
X121595601Y-120737309D01*
X121607894Y-120743612D01*
X121619082Y-120751704D01*
X121663364Y-120772052D01*
X121706750Y-120794296D01*
X121720032Y-120798090D01*
X121732579Y-120803856D01*
X121741045Y-120806718D01*
X121765377Y-120814755D01*
X121823880Y-120827916D01*
X121882233Y-120841529D01*
X121887085Y-120842136D01*
X121887237Y-120842170D01*
X121887390Y-120842174D01*
X121891100Y-120842638D01*
X121946053Y-120849123D01*
X121959278Y-120849384D01*
X121972301Y-120851673D01*
X121981216Y-120852292D01*
X122060365Y-120857229D01*
X122064646Y-120857077D01*
X122068881Y-120857703D01*
X122077809Y-120858078D01*
X122174727Y-120861472D01*
X122175984Y-120861393D01*
X122177234Y-120861555D01*
X122186167Y-120861770D01*
X122294429Y-120863624D01*
X122294534Y-120863616D01*
X122294642Y-120863628D01*
X122303577Y-120863715D01*
X122416564Y-120864034D01*
X122416569Y-120864035D01*
X122416755Y-120864035D01*
X122416763Y-120864034D01*
X122425505Y-120864000D01*
X122537175Y-120862789D01*
X122537674Y-120862735D01*
X122538181Y-120862778D01*
X122547116Y-120862604D01*
X122650848Y-120859867D01*
X122653165Y-120859578D01*
X122655503Y-120859728D01*
X122664432Y-120859365D01*
X122753805Y-120855106D01*
X122760934Y-120854062D01*
X122768140Y-120854262D01*
X122777050Y-120853573D01*
X122845635Y-120847797D01*
X122869709Y-120843373D01*
X122894149Y-120841839D01*
X122902960Y-120840350D01*
X122944331Y-120833062D01*
X122970844Y-120825664D01*
X122997998Y-120821211D01*
X123030851Y-120808920D01*
X123064641Y-120799491D01*
X123081636Y-120790910D01*
X123090369Y-120788199D01*
X123099601Y-120783198D01*
X123114984Y-120777443D01*
X123122980Y-120773454D01*
X123131593Y-120769082D01*
X123157246Y-120752731D01*
X123176140Y-120743191D01*
X123182210Y-120738450D01*
X123200197Y-120728707D01*
X123217729Y-120714181D01*
X123236923Y-120701947D01*
X123265704Y-120674431D01*
X123296379Y-120649015D01*
X123310757Y-120631358D01*
X123327207Y-120615631D01*
X123350099Y-120583045D01*
X123375249Y-120552159D01*
X123385920Y-120532054D01*
X123399007Y-120513424D01*
X123415134Y-120477008D01*
X123433805Y-120441830D01*
X123437146Y-120433542D01*
X123447469Y-120407411D01*
X123456428Y-120376077D01*
X123468280Y-120345718D01*
X123470642Y-120337099D01*
X123485401Y-120281729D01*
X123486668Y-120274013D01*
X123489230Y-120266627D01*
X123491260Y-120257924D01*
X123508720Y-120180638D01*
X123509130Y-120177360D01*
X123510136Y-120174216D01*
X123511954Y-120165467D01*
X123530382Y-120073590D01*
X123530389Y-120073524D01*
X123530410Y-120073454D01*
X123532104Y-120064679D01*
X123538065Y-120032608D01*
X123538073Y-120032516D01*
X123538367Y-120030971D01*
X123566485Y-119877470D01*
X123577108Y-119820581D01*
X123600414Y-119811453D01*
X123605094Y-119809686D01*
X123656089Y-119844662D01*
X123682435Y-119862771D01*
X123682572Y-119862847D01*
X123686529Y-119865562D01*
X123783950Y-119931418D01*
X123784720Y-119931835D01*
X123785394Y-119932391D01*
X123792846Y-119937323D01*
X123881734Y-119995274D01*
X123883597Y-119996244D01*
X123885253Y-119997553D01*
X123892804Y-120002331D01*
X123968054Y-120049219D01*
X123973546Y-120051937D01*
X123978483Y-120055581D01*
X123986188Y-120060107D01*
X124042696Y-120092776D01*
X124063796Y-120102362D01*
X124083561Y-120114470D01*
X124091627Y-120118316D01*
X124124288Y-120133609D01*
X124138157Y-120138518D01*
X124151132Y-120145435D01*
X124196935Y-120159320D01*
X124242037Y-120175283D01*
X124256581Y-120177402D01*
X124270665Y-120181672D01*
X124279442Y-120183356D01*
X124283454Y-120184097D01*
X124324707Y-120187608D01*
X124365646Y-120193835D01*
X124386809Y-120192892D01*
X124407910Y-120194688D01*
X124449051Y-120190120D01*
X124490428Y-120188277D01*
X124511008Y-120183241D01*
X124532053Y-120180904D01*
X124571537Y-120168428D01*
X124611755Y-120158586D01*
X124630953Y-120149654D01*
X124651155Y-120143271D01*
X124687464Y-120123363D01*
X124725003Y-120105898D01*
X124732667Y-120101301D01*
X124753758Y-120088452D01*
X124790368Y-120060914D01*
X124828368Y-120035324D01*
X124835218Y-120029585D01*
X124876998Y-119994081D01*
X124883198Y-119987670D01*
X124890383Y-119982383D01*
X124896987Y-119976363D01*
X124954968Y-119922768D01*
X124956368Y-119921194D01*
X124958041Y-119919909D01*
X124964521Y-119913755D01*
X125034211Y-119846632D01*
X125034228Y-119846612D01*
X125040334Y-119840656D01*
X125117244Y-119764572D01*
X125117321Y-119764479D01*
X125122075Y-119759741D01*
X125201713Y-119679258D01*
X125201795Y-119679157D01*
X125206254Y-119674622D01*
X125284132Y-119594305D01*
X125284191Y-119594231D01*
X125289224Y-119588993D01*
X125360849Y-119513405D01*
X125361169Y-119512993D01*
X125361569Y-119512645D01*
X125367659Y-119506105D01*
X125428543Y-119439811D01*
X125430973Y-119436582D01*
X125433955Y-119433844D01*
X125439869Y-119427145D01*
X125485520Y-119374709D01*
X125495014Y-119361371D01*
X125506333Y-119349534D01*
X125511799Y-119342465D01*
X125537728Y-119308451D01*
X125540966Y-119303212D01*
X125545071Y-119298624D01*
X125565972Y-119263311D01*
X125573817Y-119253242D01*
X125582456Y-119236082D01*
X125603397Y-119202200D01*
X125605554Y-119196437D01*
X125608692Y-119191135D01*
X125612415Y-119183011D01*
X125616647Y-119173601D01*
X125622182Y-119157173D01*
X125629984Y-119141676D01*
X125641312Y-119100889D01*
X125647177Y-119085218D01*
X125647890Y-119080873D01*
X125656529Y-119055233D01*
X125658768Y-119038038D01*
X125663410Y-119021326D01*
X125666819Y-118976221D01*
X125672660Y-118931373D01*
X125671517Y-118914069D01*
X125672824Y-118896775D01*
X125667408Y-118851873D01*
X125664426Y-118806738D01*
X125659942Y-118789982D01*
X125657866Y-118772767D01*
X125643831Y-118729768D01*
X125632140Y-118686077D01*
X125624491Y-118670519D01*
X125619108Y-118654027D01*
X125615462Y-118645869D01*
X125605491Y-118623967D01*
X125589599Y-118596527D01*
X125576424Y-118567685D01*
X125571882Y-118559990D01*
X125544990Y-118515147D01*
X125540803Y-118509499D01*
X125537651Y-118503206D01*
X125532835Y-118495678D01*
X125493551Y-118435199D01*
X125492183Y-118433486D01*
X125491160Y-118431545D01*
X125486189Y-118424119D01*
X125454570Y-118377588D01*
X125454475Y-118377474D01*
X125452449Y-118374485D01*
X125394860Y-118290796D01*
X125327516Y-118192364D01*
X125312920Y-118170932D01*
X125328194Y-118132805D01*
X125341730Y-118086307D01*
X125352324Y-118055098D01*
X125355553Y-118046340D01*
X125355779Y-118044921D01*
X125357310Y-118040410D01*
X125359281Y-118031694D01*
X125361516Y-118021486D01*
X125362144Y-118016180D01*
X125363106Y-118012877D01*
X125364764Y-117994047D01*
X125367359Y-117972114D01*
X125375174Y-117922985D01*
X125374690Y-117910174D01*
X125376197Y-117897445D01*
X125372339Y-117847878D01*
X125370463Y-117798167D01*
X125367499Y-117785689D01*
X125366505Y-117772916D01*
X125353093Y-117725040D01*
X125341597Y-117676642D01*
X125336269Y-117664984D01*
X125332811Y-117652640D01*
X125310352Y-117608277D01*
X125289677Y-117563038D01*
X125282183Y-117552633D01*
X125276395Y-117541200D01*
X125245741Y-117502036D01*
X125216678Y-117461683D01*
X125207312Y-117452938D01*
X125199409Y-117442840D01*
X125161732Y-117410376D01*
X125125385Y-117376436D01*
X125118252Y-117371054D01*
X125101748Y-117358780D01*
X125061575Y-117334605D01*
X125022637Y-117308500D01*
X125014735Y-117304327D01*
X124968095Y-117280111D01*
X124961439Y-117277443D01*
X124955340Y-117273668D01*
X124947292Y-117269785D01*
X124874819Y-117235435D01*
X124874066Y-117235165D01*
X124873378Y-117234754D01*
X124865267Y-117231003D01*
X124771264Y-117188328D01*
X124771135Y-117188284D01*
X124765569Y-117185776D01*
X124654337Y-117136582D01*
X124654187Y-117136533D01*
X124650347Y-117134834D01*
X124526189Y-117080930D01*
X124526049Y-117080885D01*
X124523045Y-117079575D01*
X124390262Y-117022769D01*
X124390127Y-117022726D01*
X124387522Y-117021605D01*
X124250417Y-116963703D01*
X124250292Y-116963664D01*
X124247778Y-116962595D01*
X124128385Y-116912801D01*
X124135153Y-116910006D01*
X124135273Y-116909942D01*
X124137872Y-116908876D01*
X124275324Y-116851372D01*
X124275447Y-116851306D01*
X124277940Y-116850270D01*
X124414529Y-116792413D01*
X124414646Y-116792349D01*
X124417305Y-116791230D01*
X124548734Y-116734827D01*
X124548867Y-116734754D01*
X124551968Y-116733428D01*
X124673937Y-116680288D01*
X124674073Y-116680212D01*
X124678131Y-116678443D01*
X124786335Y-116630375D01*
X124786439Y-116630316D01*
X124792500Y-116627597D01*
X124882640Y-116586408D01*
X124883908Y-116585671D01*
X124885294Y-116585188D01*
X124893379Y-116581380D01*
X124961153Y-116548880D01*
X124969491Y-116543826D01*
X124978549Y-116540211D01*
X124986457Y-116536049D01*
X125027564Y-116514045D01*
X125075871Y-116481756D01*
X125124621Y-116450124D01*
X125131397Y-116444640D01*
X125131408Y-116444633D01*
X125131416Y-116444625D01*
X125131568Y-116444502D01*
X125142364Y-116435641D01*
X125186139Y-116391900D01*
X125229805Y-116348462D01*
X125230206Y-116347867D01*
X125230720Y-116347353D01*
X125265072Y-116296081D01*
X125299564Y-116244850D01*
X125299845Y-116244179D01*
X125300244Y-116243584D01*
X125323977Y-116186632D01*
X125347867Y-116129662D01*
X125348011Y-116128960D01*
X125348290Y-116128289D01*
X125360534Y-116067684D01*
X125372878Y-116007286D01*
X125372882Y-116006562D01*
X125373025Y-116005856D01*
X125373265Y-115943957D01*
X125373641Y-115882381D01*
X125373506Y-115881678D01*
X125373509Y-115880951D01*
X125361742Y-115820291D01*
X125350131Y-115759708D01*
X125349736Y-115758405D01*
X125349722Y-115758331D01*
X125349691Y-115758254D01*
X125347541Y-115751156D01*
X125339134Y-115724080D01*
X125326241Y-115693482D01*
X125316206Y-115661831D01*
X125313004Y-115654499D01*
X125355120Y-115592772D01*
X125419735Y-115498519D01*
X125452185Y-115451437D01*
X125452224Y-115451367D01*
X125456537Y-115445039D01*
X125501694Y-115377794D01*
X125504178Y-115373177D01*
X125507445Y-115369077D01*
X125512252Y-115361544D01*
X125548037Y-115304602D01*
X125553502Y-115293663D01*
X125560617Y-115283712D01*
X125565026Y-115275939D01*
X125586907Y-115236729D01*
X125605668Y-115193713D01*
X125617920Y-115168989D01*
X125622428Y-115160670D01*
X125623075Y-115158586D01*
X125626487Y-115151701D01*
X125629595Y-115143323D01*
X125634220Y-115130588D01*
X125635672Y-115124916D01*
X125636840Y-115122238D01*
X125639712Y-115109136D01*
X125645715Y-115085688D01*
X125659474Y-115041384D01*
X125661183Y-115025268D01*
X125665198Y-115009584D01*
X125667752Y-114963308D01*
X125672644Y-114917173D01*
X125671190Y-114901031D01*
X125672082Y-114884868D01*
X125665599Y-114838973D01*
X125661437Y-114792771D01*
X125656877Y-114777226D01*
X125654612Y-114761189D01*
X125639331Y-114717407D01*
X125626280Y-114672915D01*
X125618789Y-114658553D01*
X125613451Y-114643260D01*
X125589965Y-114603294D01*
X125585819Y-114595345D01*
X125583508Y-114589830D01*
X125580990Y-114586088D01*
X125568514Y-114562169D01*
X125563575Y-114554722D01*
X125551097Y-114536186D01*
X125531215Y-114512108D01*
X125513782Y-114486198D01*
X125508045Y-114479346D01*
X125473213Y-114438322D01*
X125469791Y-114435010D01*
X125467018Y-114431134D01*
X125461086Y-114424450D01*
X125407512Y-114364917D01*
X125407262Y-114364688D01*
X125407054Y-114364407D01*
X125401023Y-114357813D01*
X125332328Y-114283747D01*
X125332247Y-114283675D01*
X125327603Y-114278707D01*
X125247401Y-114194083D01*
X125247276Y-114193975D01*
X125244070Y-114190596D01*
X125192575Y-114137076D01*
X125192487Y-114137001D01*
X125187900Y-114132267D01*
X125095900Y-114038633D01*
X125095110Y-114037973D01*
X125094461Y-114037173D01*
X125088134Y-114030864D01*
X125005847Y-113949942D01*
X125003748Y-113948247D01*
X125001999Y-113946189D01*
X124995532Y-113940022D01*
X124926478Y-113875086D01*
X124920688Y-113870621D01*
X124915748Y-113865223D01*
X124909058Y-113859298D01*
X124856757Y-113813617D01*
X124836406Y-113799082D01*
X124817894Y-113782259D01*
X124810688Y-113776974D01*
X124778661Y-113753821D01*
X124757625Y-113741547D01*
X124756635Y-113740723D01*
X124753675Y-113739111D01*
X124732045Y-113723127D01*
X124700712Y-113708339D01*
X124670776Y-113690872D01*
X124655166Y-113685478D01*
X124646934Y-113680996D01*
X124634611Y-113677142D01*
X124619088Y-113669816D01*
X124610652Y-113666868D01*
X124604152Y-113664646D01*
X124574981Y-113657769D01*
X124552720Y-113650077D01*
X124544384Y-113648926D01*
X124527722Y-113643715D01*
X124504905Y-113641250D01*
X124482579Y-113635987D01*
X124442967Y-113634559D01*
X124431002Y-113633266D01*
X124428989Y-113632988D01*
X124428625Y-113633009D01*
X124403538Y-113630299D01*
X124380680Y-113632313D01*
X124357754Y-113631486D01*
X124318605Y-113637781D01*
X124279113Y-113641260D01*
X124257089Y-113647673D01*
X124234431Y-113651316D01*
X124197253Y-113665095D01*
X124159188Y-113676178D01*
X124150916Y-113679560D01*
X124126194Y-113689868D01*
X124095469Y-113706366D01*
X124063432Y-113720147D01*
X124055637Y-113724517D01*
X124005648Y-113753002D01*
X123999642Y-113757250D01*
X123992991Y-113760407D01*
X123985362Y-113765062D01*
X123915169Y-113808564D01*
X123913461Y-113809869D01*
X123911532Y-113810834D01*
X123904002Y-113815646D01*
X123818665Y-113871006D01*
X123818219Y-113871362D01*
X123817709Y-113871627D01*
X123810255Y-113876556D01*
X123714837Y-113940613D01*
X123714731Y-113940701D01*
X123709947Y-113943928D01*
X123683345Y-113962145D01*
X123683311Y-113962173D01*
X123682732Y-113962565D01*
X123605103Y-114015858D01*
X123577090Y-114004928D01*
X123571110Y-113973086D01*
X123544220Y-113826662D01*
X123538455Y-113795053D01*
X123538422Y-113794938D01*
X123537221Y-113788480D01*
X123518854Y-113693412D01*
X123518059Y-113690735D01*
X123517775Y-113687953D01*
X123515942Y-113679207D01*
X123497973Y-113596327D01*
X123496259Y-113591000D01*
X123495515Y-113585445D01*
X123493408Y-113576761D01*
X123477572Y-113513396D01*
X123471348Y-113495947D01*
X123467576Y-113477800D01*
X123464852Y-113469289D01*
X123452883Y-113432761D01*
X123428816Y-113378044D01*
X123427601Y-113375218D01*
X123415510Y-113343272D01*
X123410203Y-113334756D01*
X123405177Y-113323067D01*
X123402656Y-113318569D01*
X123402593Y-113318426D01*
X123402506Y-113318301D01*
X123400808Y-113315272D01*
X123398018Y-113310373D01*
X123372673Y-113274533D01*
X123349448Y-113237265D01*
X123336678Y-113223633D01*
X123325899Y-113208391D01*
X123294079Y-113178160D01*
X123264054Y-113146109D01*
X123248879Y-113135217D01*
X123235345Y-113122359D01*
X123198247Y-113098876D01*
X123162580Y-113073276D01*
X123145588Y-113065543D01*
X123129806Y-113055553D01*
X123088855Y-113039724D01*
X123048894Y-113021538D01*
X123040418Y-113018708D01*
X123015680Y-113010637D01*
X122958518Y-112997997D01*
X122901455Y-112984647D01*
X122893787Y-112983683D01*
X122893720Y-112983668D01*
X122893659Y-112983667D01*
X122892588Y-112983532D01*
X122837306Y-112976972D01*
X122824255Y-112976706D01*
X122811395Y-112974430D01*
X122802480Y-112973801D01*
X122723080Y-112968755D01*
X122718839Y-112968900D01*
X122714644Y-112968275D01*
X122705716Y-112967889D01*
X122608623Y-112964363D01*
X122607388Y-112964439D01*
X122606151Y-112964277D01*
X122597218Y-112964050D01*
X122488860Y-112962048D01*
X122488761Y-112962056D01*
X122488659Y-112962044D01*
X122479724Y-112961945D01*
X122366712Y-112961471D01*
X122366704Y-112961470D01*
X122366521Y-112961470D01*
X122357768Y-112961493D01*
X122246156Y-112962552D01*
X122245649Y-112962607D01*
X122245136Y-112962562D01*
X122236201Y-112962724D01*
X122132603Y-112965319D01*
X122130264Y-112965608D01*
X122127902Y-112965453D01*
X122118973Y-112965805D01*
X122029812Y-112969941D01*
X122022596Y-112970988D01*
X122015307Y-112970779D01*
X122006396Y-112971458D01*
X121938100Y-112977141D01*
X121913641Y-112981611D01*
X121888825Y-112983173D01*
X121880014Y-112984664D01*
X121839008Y-112991896D01*
X121809653Y-113000093D01*
X121779631Y-113005308D01*
X121749649Y-113016849D01*
X121718705Y-113025490D01*
X121691508Y-113039230D01*
X121682215Y-113042807D01*
X121669557Y-113047307D01*
X121667789Y-113048360D01*
X121663063Y-113050179D01*
X121655105Y-113054244D01*
X121646713Y-113058604D01*
X121624349Y-113073157D01*
X121607217Y-113081812D01*
X121593145Y-113092807D01*
X121562236Y-113111212D01*
X121552730Y-113119763D01*
X121542022Y-113126731D01*
X121510822Y-113157129D01*
X121508792Y-113158715D01*
X121506667Y-113161177D01*
X121506395Y-113161442D01*
X121469372Y-113194745D01*
X121461706Y-113204982D01*
X121452557Y-113213896D01*
X121424332Y-113254892D01*
X121394503Y-113294726D01*
X121388978Y-113306242D01*
X121381726Y-113316776D01*
X121362000Y-113362478D01*
X121358926Y-113368887D01*
X121358043Y-113370322D01*
X121357375Y-113372120D01*
X121340477Y-113407343D01*
X121337476Y-113415760D01*
X121329010Y-113440033D01*
X121323165Y-113464142D01*
X121314519Y-113487399D01*
X121312298Y-113496055D01*
X121298525Y-113551327D01*
X121297947Y-113555243D01*
X121296666Y-113558988D01*
X121294673Y-113567699D01*
X121276788Y-113648464D01*
X121276775Y-113648575D01*
X121276738Y-113648687D01*
X121274871Y-113657426D01*
X121254069Y-113758176D01*
X121254057Y-113758291D01*
X121252736Y-113764805D01*
X121230211Y-113880034D01*
X121230196Y-113880195D01*
X121229346Y-113884548D01*
X121217541Y-113947329D01*
X121217537Y-113947371D01*
X121217416Y-113947996D01*
X121201608Y-114032560D01*
X121184743Y-114021117D01*
X121131059Y-113984249D01*
X121130971Y-113984200D01*
X121129525Y-113983199D01*
X121028356Y-113914153D01*
X121028244Y-113914092D01*
X121022954Y-113910507D01*
X120931103Y-113849181D01*
X120931047Y-113849151D01*
X120924460Y-113844806D01*
X120846574Y-113794192D01*
X120845039Y-113793396D01*
X120843680Y-113792322D01*
X120836127Y-113787547D01*
X120776853Y-113750639D01*
X120767758Y-113746142D01*
X120759520Y-113740223D01*
X120751758Y-113735796D01*
X120715740Y-113715585D01*
X120671676Y-113696244D01*
X120668261Y-113694557D01*
X120645256Y-113681979D01*
X120638438Y-113679833D01*
X120628529Y-113674941D01*
X120620146Y-113671844D01*
X120612073Y-113668925D01*
X120605803Y-113667330D01*
X120601366Y-113665382D01*
X120576405Y-113659849D01*
X120568750Y-113657901D01*
X120526110Y-113644482D01*
X120508338Y-113642530D01*
X120491024Y-113638124D01*
X120446406Y-113635726D01*
X120401951Y-113630842D01*
X120384137Y-113632379D01*
X120366298Y-113631420D01*
X120322056Y-113637735D01*
X120277507Y-113641578D01*
X120260339Y-113646544D01*
X120242645Y-113649069D01*
X120200456Y-113663863D01*
X120157519Y-113676282D01*
X120141641Y-113684488D01*
X120124776Y-113690402D01*
X120086280Y-113713099D01*
X120070954Y-113721020D01*
X120066935Y-113722746D01*
X120064859Y-113724170D01*
X120046556Y-113733629D01*
X120039090Y-113738540D01*
X120020297Y-113751088D01*
X119993020Y-113773439D01*
X119963927Y-113793391D01*
X119957126Y-113799188D01*
X119916999Y-113833878D01*
X119913263Y-113837807D01*
X119908890Y-113841009D01*
X119902271Y-113847013D01*
X119845308Y-113899413D01*
X119845126Y-113899616D01*
X119844899Y-113899788D01*
X119838370Y-113905890D01*
X119769062Y-113971569D01*
X119768971Y-113971674D01*
X119764638Y-113975802D01*
X119687484Y-114050330D01*
X119687385Y-114050447D01*
X119684040Y-114053681D01*
X119603534Y-114132625D01*
X119603432Y-114132746D01*
X119600314Y-114135805D01*
X119520951Y-114214735D01*
X119520849Y-114214859D01*
X119517400Y-114218295D01*
X119443677Y-114292778D01*
X119443599Y-114292873D01*
X119438979Y-114297575D01*
X119375391Y-114363181D01*
X119374713Y-114364034D01*
X119373883Y-114364742D01*
X119367730Y-114371223D01*
X119318772Y-114423521D01*
X119313631Y-114430219D01*
X119307433Y-114435957D01*
X119301546Y-114442681D01*
X119271713Y-114477238D01*
X119244746Y-114515460D01*
X119215933Y-114552307D01*
X119211195Y-114559884D01*
X119204076Y-114571444D01*
X119201441Y-114576840D01*
X119199706Y-114579300D01*
X119196381Y-114586768D01*
X119188179Y-114598748D01*
X119169768Y-114641714D01*
X119149275Y-114683687D01*
X119145226Y-114698987D01*
X119138982Y-114713558D01*
X119129264Y-114759297D01*
X119117318Y-114804436D01*
X119116317Y-114820237D01*
X119113024Y-114835737D01*
X119112376Y-114882462D01*
X119109422Y-114929092D01*
X119111511Y-114944795D01*
X119111291Y-114960631D01*
X119119729Y-115006580D01*
X119125891Y-115052908D01*
X119130991Y-115067909D01*
X119133851Y-115083484D01*
X119151052Y-115126919D01*
X119166095Y-115171167D01*
X119174009Y-115184888D01*
X119179841Y-115199614D01*
X119183982Y-115207533D01*
X119193992Y-115226357D01*
X119203867Y-115241217D01*
X119211574Y-115257309D01*
X119216256Y-115264921D01*
X119244381Y-115309944D01*
X119245025Y-115310780D01*
X119245496Y-115311722D01*
X119250308Y-115319252D01*
X119293684Y-115386095D01*
X119293771Y-115386204D01*
X119296794Y-115390843D01*
X119352558Y-115475131D01*
X119352658Y-115475254D01*
X119354777Y-115478462D01*
X119420065Y-115575817D01*
X119420152Y-115575923D01*
X119421712Y-115578261D01*
X119471452Y-115651698D01*
X119471501Y-115651757D01*
X119472112Y-115652669D01*
X119518959Y-115721563D01*
X119435492Y-115737298D01*
X119435466Y-115737303D01*
X118990842Y-115821124D01*
X118990174Y-115821319D01*
X118989483Y-115821382D01*
X118930126Y-115838852D01*
X118870942Y-115856132D01*
X118870329Y-115856451D01*
X118869659Y-115856648D01*
X118814783Y-115885337D01*
X118760125Y-115913761D01*
X118759583Y-115914195D01*
X118758967Y-115914517D01*
X118710918Y-115953149D01*
X118662611Y-115991816D01*
X118662162Y-115992349D01*
X118661622Y-115992783D01*
X118622070Y-116039920D01*
X118582117Y-116087327D01*
X118581782Y-116087933D01*
X118581334Y-116088467D01*
X118551412Y-116142895D01*
X118521707Y-116196653D01*
X118521497Y-116197310D01*
X118521160Y-116197923D01*
X118502430Y-116256970D01*
X118483682Y-116315630D01*
X118483603Y-116316321D01*
X118483393Y-116316983D01*
X118476505Y-116378385D01*
X118469490Y-116439727D01*
X118469547Y-116440419D01*
X118469469Y-116441110D01*
X118469407Y-116450046D01*
X115745096Y-116450046D01*
X115788918Y-116384463D01*
X115912168Y-116086912D01*
X115975000Y-115771033D01*
X115975000Y-115448967D01*
X115912168Y-115133088D01*
X115788918Y-114835537D01*
X115609987Y-114567748D01*
X115382252Y-114340013D01*
X115382233Y-114340000D01*
X115382252Y-114339987D01*
X115609987Y-114112252D01*
X115788918Y-113844463D01*
X115912168Y-113546912D01*
X115975000Y-113231033D01*
X115975000Y-112908967D01*
X115912168Y-112593088D01*
X115788918Y-112295537D01*
X115609987Y-112027748D01*
X115382252Y-111800013D01*
X115382233Y-111800000D01*
X115382252Y-111799987D01*
X115609987Y-111572252D01*
X115788918Y-111304463D01*
X115912168Y-111006912D01*
X115975000Y-110691033D01*
X115975000Y-110368967D01*
X115912168Y-110053088D01*
X115788918Y-109755537D01*
X115609987Y-109487748D01*
X115382252Y-109260013D01*
X115114463Y-109081082D01*
X114816912Y-108957832D01*
X114501033Y-108895000D01*
X114178967Y-108895000D01*
X113863088Y-108957832D01*
X113565537Y-109081082D01*
X113297748Y-109260013D01*
X113070013Y-109487748D01*
X112979798Y-109622764D01*
X112953475Y-109583368D01*
X112746632Y-109376525D01*
X112503411Y-109214010D01*
X112233158Y-109102068D01*
X111946260Y-109045000D01*
X111653740Y-109045000D01*
X111366842Y-109102068D01*
X111096589Y-109214010D01*
X110853368Y-109376525D01*
X110646525Y-109583368D01*
X110620202Y-109622764D01*
X110529987Y-109487748D01*
X110302252Y-109260013D01*
X110034463Y-109081082D01*
X109736912Y-108957832D01*
X109421033Y-108895000D01*
X109098967Y-108895000D01*
X108783088Y-108957832D01*
X108485537Y-109081082D01*
X108217748Y-109260013D01*
X107990013Y-109487748D01*
X107811082Y-109755537D01*
X107687832Y-110053088D01*
X107625000Y-110368967D01*
X100660000Y-110368967D01*
X100660000Y-107110097D01*
X101068607Y-107077939D01*
X101170898Y-107061738D01*
X102162684Y-106823631D01*
X102261181Y-106791628D01*
X103203509Y-106401303D01*
X103295787Y-106354285D01*
X104165453Y-105821353D01*
X104208177Y-105790312D01*
X104249240Y-105760478D01*
X105024830Y-105098062D01*
X105098063Y-105024829D01*
X105725903Y-104289721D01*
X110365000Y-104289721D01*
X110365000Y-104710279D01*
X110447047Y-105122756D01*
X110607988Y-105511302D01*
X110841637Y-105860983D01*
X111139017Y-106158363D01*
X111488698Y-106392012D01*
X111877244Y-106552953D01*
X112289721Y-106635000D01*
X112710279Y-106635000D01*
X113122756Y-106552953D01*
X113511302Y-106392012D01*
X113860983Y-106158363D01*
X114158363Y-105860983D01*
X114392012Y-105511302D01*
X114552953Y-105122756D01*
X114635000Y-104710279D01*
X114635000Y-104289721D01*
X114552953Y-103877244D01*
X114392012Y-103488698D01*
X114158363Y-103139017D01*
X113860983Y-102841637D01*
X113511302Y-102607988D01*
X113122756Y-102447047D01*
X112710279Y-102365000D01*
X112289721Y-102365000D01*
X111877244Y-102447047D01*
X111488698Y-102607988D01*
X111139017Y-102841637D01*
X110841637Y-103139017D01*
X110607988Y-103488698D01*
X110447047Y-103877244D01*
X110365000Y-104289721D01*
X105725903Y-104289721D01*
X105760478Y-104249240D01*
X105821353Y-104165453D01*
X105821354Y-104165452D01*
X106354284Y-103295787D01*
X106360283Y-103284013D01*
X106401303Y-103203509D01*
X106791627Y-102261181D01*
X106823631Y-102162684D01*
X107061738Y-101170898D01*
X107077939Y-101068607D01*
X107110097Y-100660000D01*
X167889903Y-100660000D01*
X167922061Y-101068607D01*
M02*
