G04 #@! TF.GenerationSoftware,KiCad,Pcbnew,5.1.5+dfsg1-2build2*
G04 #@! TF.CreationDate,2022-02-15T22:38:24-05:00*
G04 #@! TF.ProjectId,,58585858-5858-4585-9858-585858585858,rev?*
G04 #@! TF.SameCoordinates,Original*
G04 #@! TF.FileFunction,Copper,L1,Top*
G04 #@! TF.FilePolarity,Positive*
%FSLAX46Y46*%
G04 Gerber Fmt 4.6, Leading zero omitted, Abs format (unit mm)*
G04 Created by KiCad (PCBNEW 5.1.5+dfsg1-2build2) date 2022-02-15 22:38:24*
%MOMM*%
%LPD*%
G04 APERTURE LIST*
%ADD10C,2.000000*%
%ADD11R,1.700000X1.700000*%
%ADD12O,1.700000X1.700000*%
%ADD13R,2.400000X2.400000*%
%ADD14C,2.400000*%
%ADD15C,1.998980*%
%ADD16C,0.500000*%
%ADD17C,0.254000*%
G04 APERTURE END LIST*
D10*
X131143500Y-104323100D03*
D11*
X120983500Y-99243100D03*
D12*
X123523500Y-99243100D03*
X126063500Y-99243100D03*
X128603500Y-99243100D03*
X131143500Y-99243100D03*
X133683500Y-99243100D03*
X136223500Y-99243100D03*
X138763500Y-99243100D03*
X141303500Y-99243100D03*
X143843500Y-99243100D03*
X146383500Y-99243100D03*
X148923500Y-99243100D03*
X151463500Y-99243100D03*
X154003500Y-99243100D03*
X156543500Y-99243100D03*
X159083500Y-99243100D03*
X161623500Y-99243100D03*
X164163500Y-99243100D03*
X166703500Y-99243100D03*
X169243500Y-99243100D03*
D11*
X120983500Y-86543100D03*
D12*
X123523500Y-86543100D03*
X126063500Y-86543100D03*
X128603500Y-86543100D03*
X131143500Y-86543100D03*
X133683500Y-86543100D03*
X136223500Y-86543100D03*
X138763500Y-86543100D03*
X141303500Y-86543100D03*
X143843500Y-86543100D03*
X146383500Y-86543100D03*
X148923500Y-86543100D03*
X151463500Y-86543100D03*
X154003500Y-86543100D03*
X156543500Y-86543100D03*
X159083500Y-86543100D03*
X161623500Y-86543100D03*
X164163500Y-86543100D03*
X166703500Y-86543100D03*
X169243500Y-86543100D03*
D10*
X169243500Y-117023100D03*
X136223500Y-114483100D03*
X133683500Y-114483100D03*
X131143500Y-119563100D03*
X131143500Y-114483100D03*
X128603500Y-114483100D03*
X126063500Y-114483100D03*
X123523500Y-114483100D03*
X141303500Y-114483100D03*
X136223500Y-96703100D03*
X120983500Y-114483100D03*
X146383500Y-114483100D03*
X143843500Y-114483100D03*
X166703500Y-117023100D03*
X138763500Y-114483100D03*
X141303500Y-96703100D03*
X143843500Y-96703100D03*
X156543500Y-114483100D03*
X151463500Y-117023100D03*
X151463500Y-104323100D03*
X133683500Y-117023100D03*
X171783500Y-112853100D03*
X171783500Y-116353100D03*
X171783500Y-93253100D03*
D13*
X178723500Y-96753100D03*
D14*
X178723500Y-93253100D03*
X178723500Y-89753100D03*
D10*
X159083500Y-81463100D03*
X161623500Y-81463100D03*
X138763500Y-104323100D03*
X159083500Y-117023100D03*
X169243500Y-122103100D03*
X166703500Y-122103100D03*
X164163500Y-122103100D03*
X136223500Y-104323100D03*
X136223500Y-81463100D03*
X138763500Y-81463100D03*
X141303500Y-81463100D03*
X143843500Y-81463100D03*
X146383500Y-81463100D03*
X148923500Y-81463100D03*
X151463500Y-81463100D03*
X154003500Y-81463100D03*
X171783500Y-89753100D03*
X171783500Y-96753100D03*
X171783500Y-109353100D03*
X164163500Y-114483100D03*
X164163500Y-117023100D03*
X156543500Y-104323100D03*
X161623500Y-119563100D03*
X123523500Y-104323100D03*
X128603500Y-104323100D03*
X141303500Y-104323100D03*
X143843500Y-104323100D03*
X146383500Y-104323100D03*
X146383500Y-122103100D03*
X161623500Y-117023100D03*
X151463500Y-119563100D03*
X136223500Y-117023100D03*
X143843500Y-117023100D03*
X159083500Y-114483100D03*
X148923500Y-119563100D03*
X148923500Y-117023100D03*
X164163500Y-104323100D03*
X148923500Y-122103100D03*
X154003500Y-122103100D03*
X166703500Y-119563100D03*
X156543500Y-119563100D03*
X133683500Y-122103100D03*
X159083500Y-119563100D03*
X138763500Y-117023100D03*
X154003500Y-117023100D03*
X151463500Y-114483100D03*
X154003500Y-104323100D03*
X141303500Y-117023100D03*
X138763500Y-96703100D03*
X133683500Y-104323100D03*
X156543500Y-117023100D03*
X131143500Y-122103100D03*
X161623500Y-104323100D03*
X146383500Y-117023100D03*
X164163500Y-119563100D03*
X126063500Y-104323100D03*
X154003500Y-114483100D03*
X136223500Y-122103100D03*
X159083500Y-122103100D03*
X120983500Y-104323100D03*
X161623500Y-122103100D03*
X161623500Y-114483100D03*
X169243500Y-119563100D03*
X156543500Y-122103100D03*
X151463500Y-122103100D03*
X154003500Y-119563100D03*
X159083500Y-104323100D03*
D11*
X120983500Y-89083100D03*
D12*
X123523500Y-89083100D03*
X126063500Y-89083100D03*
X128603500Y-89083100D03*
X131143500Y-89083100D03*
X133683500Y-89083100D03*
X136223500Y-89083100D03*
X138763500Y-89083100D03*
X141303500Y-89083100D03*
X143843500Y-89083100D03*
X146383500Y-89083100D03*
X148923500Y-89083100D03*
X151463500Y-89083100D03*
X154003500Y-89083100D03*
X156543500Y-89083100D03*
X159083500Y-89083100D03*
X161623500Y-89083100D03*
X164163500Y-89083100D03*
X166703500Y-89083100D03*
X169243500Y-89083100D03*
D10*
X143843500Y-94163100D03*
X146383500Y-94163100D03*
X159083500Y-96703100D03*
X133683500Y-119563100D03*
X136223500Y-119563100D03*
X138763500Y-119563100D03*
X138763500Y-122103100D03*
X141303500Y-119563100D03*
X141303500Y-122103100D03*
X148923500Y-114483100D03*
X169243500Y-114483100D03*
X143843500Y-119563100D03*
X120983500Y-117023100D03*
X123523500Y-117023100D03*
X126063500Y-117023100D03*
X128603500Y-117023100D03*
X169243500Y-96703100D03*
X131143500Y-117023100D03*
X166703500Y-114483100D03*
X161623500Y-96703100D03*
X164163500Y-96703100D03*
X166703500Y-96703100D03*
X151463500Y-96703100D03*
X154003500Y-96703100D03*
X156543500Y-96703100D03*
X131143500Y-96703100D03*
X133683500Y-96703100D03*
X169243500Y-94163100D03*
X120983500Y-96703100D03*
X146383500Y-96703100D03*
X123523500Y-96703100D03*
X126063500Y-96703100D03*
X148923500Y-94163100D03*
X151463500Y-94163100D03*
X128603500Y-96703100D03*
X133683500Y-94163100D03*
X136223500Y-94163100D03*
X154003500Y-94163100D03*
X156543500Y-94163100D03*
X159083500Y-94163100D03*
X161623500Y-94163100D03*
X164163500Y-94163100D03*
X166703500Y-94163100D03*
X146383500Y-91623100D03*
X148923500Y-91623100D03*
X151463500Y-91623100D03*
X154003500Y-91623100D03*
X156543500Y-91623100D03*
X159083500Y-91623100D03*
X138763500Y-94163100D03*
X141303500Y-94163100D03*
X126063500Y-81463100D03*
X123523500Y-81463100D03*
X120983500Y-81463100D03*
X131143500Y-91623100D03*
X133683500Y-91623100D03*
X136223500Y-91623100D03*
X138763500Y-91623100D03*
X141303500Y-91623100D03*
X143843500Y-91623100D03*
X123523500Y-91623100D03*
X126063500Y-91623100D03*
X128603500Y-91623100D03*
X166703500Y-124643100D03*
X169243500Y-124643100D03*
X131143500Y-124643100D03*
X133683500Y-124643100D03*
X133683500Y-81463100D03*
X131143500Y-81463100D03*
X128603500Y-81463100D03*
X120983500Y-94163100D03*
X123523500Y-94163100D03*
X126063500Y-94163100D03*
X154003500Y-124643100D03*
X136223500Y-124643100D03*
X138763500Y-124643100D03*
X141303500Y-124643100D03*
X143843500Y-124643100D03*
X148923500Y-96703100D03*
X146383500Y-124643100D03*
X151463500Y-124643100D03*
X156543500Y-124643100D03*
X148923500Y-124643100D03*
D11*
X120983500Y-109403100D03*
D12*
X123523500Y-109403100D03*
X126063500Y-109403100D03*
X128603500Y-109403100D03*
X131143500Y-109403100D03*
X133683500Y-109403100D03*
X136223500Y-109403100D03*
X138763500Y-109403100D03*
X141303500Y-109403100D03*
X143843500Y-109403100D03*
X146383500Y-109403100D03*
X148923500Y-109403100D03*
X151463500Y-109403100D03*
X154003500Y-109403100D03*
X156543500Y-109403100D03*
X159083500Y-109403100D03*
X161623500Y-109403100D03*
X164163500Y-109403100D03*
X166703500Y-109403100D03*
X169243500Y-109403100D03*
D10*
X128603500Y-94163100D03*
X131143500Y-94163100D03*
X164163500Y-81463100D03*
X166703500Y-81463100D03*
X169243500Y-81463100D03*
X156543500Y-81463100D03*
D15*
X173323500Y-101783100D03*
X173323500Y-104323100D03*
D11*
X120983500Y-101783100D03*
D12*
X123523500Y-101783100D03*
X126063500Y-101783100D03*
X128603500Y-101783100D03*
X131143500Y-101783100D03*
X133683500Y-101783100D03*
X136223500Y-101783100D03*
X138763500Y-101783100D03*
X141303500Y-101783100D03*
X143843500Y-101783100D03*
X146383500Y-101783100D03*
X148923500Y-101783100D03*
X151463500Y-101783100D03*
X154003500Y-101783100D03*
X156543500Y-101783100D03*
X159083500Y-101783100D03*
X161623500Y-101783100D03*
X164163500Y-101783100D03*
X166703500Y-101783100D03*
X169243500Y-101783100D03*
D10*
X161623500Y-91623100D03*
X164163500Y-91623100D03*
X143843500Y-122103100D03*
X166703500Y-91623100D03*
X169243500Y-91623100D03*
D11*
X120983500Y-111943100D03*
D12*
X123523500Y-111943100D03*
X126063500Y-111943100D03*
X128603500Y-111943100D03*
X131143500Y-111943100D03*
X133683500Y-111943100D03*
X136223500Y-111943100D03*
X138763500Y-111943100D03*
X141303500Y-111943100D03*
X143843500Y-111943100D03*
X146383500Y-111943100D03*
X148923500Y-111943100D03*
X151463500Y-111943100D03*
X154003500Y-111943100D03*
X156543500Y-111943100D03*
X159083500Y-111943100D03*
X161623500Y-111943100D03*
X164163500Y-111943100D03*
X166703500Y-111943100D03*
X169243500Y-111943100D03*
D10*
X161623500Y-124643100D03*
X164163500Y-124643100D03*
X159083500Y-124643100D03*
D11*
X120983500Y-106863100D03*
D12*
X123523500Y-106863100D03*
X126063500Y-106863100D03*
X128603500Y-106863100D03*
X131143500Y-106863100D03*
X133683500Y-106863100D03*
X136223500Y-106863100D03*
X138763500Y-106863100D03*
X141303500Y-106863100D03*
X143843500Y-106863100D03*
X146383500Y-106863100D03*
X148923500Y-106863100D03*
X151463500Y-106863100D03*
X154003500Y-106863100D03*
X156543500Y-106863100D03*
X159083500Y-106863100D03*
X161623500Y-106863100D03*
X164163500Y-106863100D03*
X166703500Y-106863100D03*
X169243500Y-106863100D03*
D11*
X120983500Y-84003100D03*
D12*
X123523500Y-84003100D03*
X126063500Y-84003100D03*
X128603500Y-84003100D03*
X131143500Y-84003100D03*
X133683500Y-84003100D03*
X136223500Y-84003100D03*
X138763500Y-84003100D03*
X141303500Y-84003100D03*
X143843500Y-84003100D03*
X146383500Y-84003100D03*
X148923500Y-84003100D03*
X151463500Y-84003100D03*
X154003500Y-84003100D03*
X156543500Y-84003100D03*
X159083500Y-84003100D03*
X161623500Y-84003100D03*
X164163500Y-84003100D03*
X166703500Y-84003100D03*
X169243500Y-84003100D03*
D10*
X148923500Y-104323100D03*
X146383500Y-119563100D03*
X120983500Y-91623100D03*
D13*
X178723500Y-116353100D03*
D14*
X178723500Y-112853100D03*
X178723500Y-109353100D03*
D10*
X169243500Y-104323100D03*
X166703500Y-104323100D03*
D12*
X169243500Y-50243100D03*
X166703500Y-50243100D03*
X164163500Y-50243100D03*
X161623500Y-50243100D03*
X159083500Y-50243100D03*
X156543500Y-50243100D03*
X154003500Y-50243100D03*
X151463500Y-50243100D03*
X148923500Y-50243100D03*
X146383500Y-50243100D03*
X143843500Y-50243100D03*
X141303500Y-50243100D03*
X138763500Y-50243100D03*
X136223500Y-50243100D03*
X133683500Y-50243100D03*
X131143500Y-50243100D03*
X128603500Y-50243100D03*
X126063500Y-50243100D03*
X123523500Y-50243100D03*
D11*
X120983500Y-50243100D03*
D12*
X169243500Y-37543100D03*
X166703500Y-37543100D03*
X164163500Y-37543100D03*
X161623500Y-37543100D03*
X159083500Y-37543100D03*
X156543500Y-37543100D03*
X154003500Y-37543100D03*
X151463500Y-37543100D03*
X148923500Y-37543100D03*
X146383500Y-37543100D03*
X143843500Y-37543100D03*
X141303500Y-37543100D03*
X138763500Y-37543100D03*
X136223500Y-37543100D03*
X133683500Y-37543100D03*
X131143500Y-37543100D03*
X128603500Y-37543100D03*
X126063500Y-37543100D03*
X123523500Y-37543100D03*
D11*
X120983500Y-37543100D03*
D12*
X169243500Y-40083100D03*
X166703500Y-40083100D03*
X164163500Y-40083100D03*
X161623500Y-40083100D03*
X159083500Y-40083100D03*
X156543500Y-40083100D03*
X154003500Y-40083100D03*
X151463500Y-40083100D03*
X148923500Y-40083100D03*
X146383500Y-40083100D03*
X143843500Y-40083100D03*
X141303500Y-40083100D03*
X138763500Y-40083100D03*
X136223500Y-40083100D03*
X133683500Y-40083100D03*
X131143500Y-40083100D03*
X128603500Y-40083100D03*
X126063500Y-40083100D03*
X123523500Y-40083100D03*
D11*
X120983500Y-40083100D03*
D10*
X120983500Y-42623100D03*
D14*
X178723500Y-60353100D03*
X178723500Y-63853100D03*
D13*
X178723500Y-67353100D03*
D10*
X169243500Y-55323100D03*
X166703500Y-55323100D03*
X164163500Y-55323100D03*
X161623500Y-55323100D03*
X159083500Y-55323100D03*
X156543500Y-55323100D03*
X154003500Y-55323100D03*
X151463500Y-55323100D03*
X148923500Y-55323100D03*
X146383500Y-55323100D03*
X143843500Y-55323100D03*
X141303500Y-55323100D03*
X138763500Y-55323100D03*
X136223500Y-55323100D03*
X133683500Y-55323100D03*
X131143500Y-55323100D03*
X128603500Y-55323100D03*
X126063500Y-55323100D03*
X123523500Y-55323100D03*
X120983500Y-55323100D03*
X169243500Y-73103100D03*
X166703500Y-73103100D03*
X164163500Y-73103100D03*
X161623500Y-73103100D03*
X159083500Y-73103100D03*
X156543500Y-73103100D03*
X154003500Y-73103100D03*
X151463500Y-73103100D03*
X148923500Y-73103100D03*
X146383500Y-73103100D03*
X143843500Y-73103100D03*
X141303500Y-73103100D03*
X138763500Y-73103100D03*
X136223500Y-73103100D03*
X133683500Y-73103100D03*
X131143500Y-73103100D03*
X169243500Y-70563100D03*
X166703500Y-70563100D03*
X164163500Y-70563100D03*
X161623500Y-70563100D03*
X159083500Y-70563100D03*
X156543500Y-70563100D03*
X154003500Y-70563100D03*
X151463500Y-70563100D03*
X148923500Y-70563100D03*
X146383500Y-70563100D03*
X143843500Y-70563100D03*
X141303500Y-70563100D03*
X138763500Y-70563100D03*
X136223500Y-70563100D03*
X133683500Y-70563100D03*
X131143500Y-70563100D03*
X169243500Y-68023100D03*
X166703500Y-68023100D03*
X164163500Y-68023100D03*
X161623500Y-68023100D03*
X159083500Y-68023100D03*
X156543500Y-68023100D03*
X154003500Y-68023100D03*
X151463500Y-68023100D03*
X148923500Y-68023100D03*
X146383500Y-68023100D03*
X143843500Y-68023100D03*
X141303500Y-68023100D03*
X138763500Y-68023100D03*
X136223500Y-68023100D03*
X133683500Y-68023100D03*
X131143500Y-68023100D03*
X128603500Y-68023100D03*
X126063500Y-68023100D03*
X123523500Y-68023100D03*
X120983500Y-68023100D03*
X169243500Y-65483100D03*
X166703500Y-65483100D03*
X164163500Y-65483100D03*
X161623500Y-65483100D03*
X159083500Y-65483100D03*
X156543500Y-65483100D03*
X154003500Y-65483100D03*
X151463500Y-65483100D03*
X148923500Y-65483100D03*
X146383500Y-65483100D03*
X143843500Y-65483100D03*
X141303500Y-65483100D03*
X138763500Y-65483100D03*
X136223500Y-65483100D03*
X133683500Y-65483100D03*
X131143500Y-65483100D03*
X128603500Y-65483100D03*
X126063500Y-65483100D03*
X123523500Y-65483100D03*
X120983500Y-65483100D03*
X169243500Y-47703100D03*
X166703500Y-47703100D03*
X164163500Y-47703100D03*
X161623500Y-47703100D03*
X159083500Y-47703100D03*
X156543500Y-47703100D03*
X154003500Y-47703100D03*
X151463500Y-47703100D03*
X148923500Y-47703100D03*
X146383500Y-47703100D03*
X143843500Y-47703100D03*
X141303500Y-47703100D03*
X138763500Y-47703100D03*
X136223500Y-47703100D03*
X133683500Y-47703100D03*
X131143500Y-47703100D03*
X128603500Y-47703100D03*
X126063500Y-47703100D03*
X123523500Y-47703100D03*
X120983500Y-47703100D03*
X169243500Y-45163100D03*
X166703500Y-45163100D03*
X164163500Y-45163100D03*
X161623500Y-45163100D03*
X159083500Y-45163100D03*
X156543500Y-45163100D03*
X154003500Y-45163100D03*
X151463500Y-45163100D03*
X148923500Y-45163100D03*
X146383500Y-45163100D03*
X143843500Y-45163100D03*
X141303500Y-45163100D03*
X138763500Y-45163100D03*
X136223500Y-45163100D03*
X133683500Y-45163100D03*
X131143500Y-45163100D03*
X128603500Y-45163100D03*
X126063500Y-45163100D03*
X123523500Y-45163100D03*
X120983500Y-45163100D03*
X169243500Y-42623100D03*
X166703500Y-42623100D03*
X164163500Y-42623100D03*
X161623500Y-42623100D03*
X159083500Y-42623100D03*
X156543500Y-42623100D03*
X154003500Y-42623100D03*
X151463500Y-42623100D03*
X148923500Y-42623100D03*
X146383500Y-42623100D03*
X143843500Y-42623100D03*
X141303500Y-42623100D03*
X138763500Y-42623100D03*
X136223500Y-42623100D03*
X133683500Y-42623100D03*
X131143500Y-42623100D03*
X128603500Y-42623100D03*
X126063500Y-42623100D03*
X123523500Y-42623100D03*
X120983500Y-32463100D03*
X123523500Y-32463100D03*
X126063500Y-32463100D03*
X128603500Y-32463100D03*
X131143500Y-32463100D03*
X133683500Y-32463100D03*
X133683500Y-75643100D03*
X131143500Y-75643100D03*
X169243500Y-75643100D03*
X166703500Y-75643100D03*
X148923500Y-75643100D03*
X156543500Y-75643100D03*
X151463500Y-75643100D03*
X146383500Y-75643100D03*
X143843500Y-75643100D03*
X141303500Y-75643100D03*
X138763500Y-75643100D03*
X136223500Y-75643100D03*
X154003500Y-75643100D03*
X159083500Y-75643100D03*
X164163500Y-75643100D03*
X161623500Y-75643100D03*
D12*
X169243500Y-62943100D03*
X166703500Y-62943100D03*
X164163500Y-62943100D03*
X161623500Y-62943100D03*
X159083500Y-62943100D03*
X156543500Y-62943100D03*
X154003500Y-62943100D03*
X151463500Y-62943100D03*
X148923500Y-62943100D03*
X146383500Y-62943100D03*
X143843500Y-62943100D03*
X141303500Y-62943100D03*
X138763500Y-62943100D03*
X136223500Y-62943100D03*
X133683500Y-62943100D03*
X131143500Y-62943100D03*
X128603500Y-62943100D03*
X126063500Y-62943100D03*
X123523500Y-62943100D03*
D11*
X120983500Y-62943100D03*
D12*
X169243500Y-60403100D03*
X166703500Y-60403100D03*
X164163500Y-60403100D03*
X161623500Y-60403100D03*
X159083500Y-60403100D03*
X156543500Y-60403100D03*
X154003500Y-60403100D03*
X151463500Y-60403100D03*
X148923500Y-60403100D03*
X146383500Y-60403100D03*
X143843500Y-60403100D03*
X141303500Y-60403100D03*
X138763500Y-60403100D03*
X136223500Y-60403100D03*
X133683500Y-60403100D03*
X131143500Y-60403100D03*
X128603500Y-60403100D03*
X126063500Y-60403100D03*
X123523500Y-60403100D03*
D11*
X120983500Y-60403100D03*
D12*
X169243500Y-57863100D03*
X166703500Y-57863100D03*
X164163500Y-57863100D03*
X161623500Y-57863100D03*
X159083500Y-57863100D03*
X156543500Y-57863100D03*
X154003500Y-57863100D03*
X151463500Y-57863100D03*
X148923500Y-57863100D03*
X146383500Y-57863100D03*
X143843500Y-57863100D03*
X141303500Y-57863100D03*
X138763500Y-57863100D03*
X136223500Y-57863100D03*
X133683500Y-57863100D03*
X131143500Y-57863100D03*
X128603500Y-57863100D03*
X126063500Y-57863100D03*
X123523500Y-57863100D03*
D11*
X120983500Y-57863100D03*
D12*
X169243500Y-35003100D03*
X166703500Y-35003100D03*
X164163500Y-35003100D03*
X161623500Y-35003100D03*
X159083500Y-35003100D03*
X156543500Y-35003100D03*
X154003500Y-35003100D03*
X151463500Y-35003100D03*
X148923500Y-35003100D03*
X146383500Y-35003100D03*
X143843500Y-35003100D03*
X141303500Y-35003100D03*
X138763500Y-35003100D03*
X136223500Y-35003100D03*
X133683500Y-35003100D03*
X131143500Y-35003100D03*
X128603500Y-35003100D03*
X126063500Y-35003100D03*
X123523500Y-35003100D03*
D11*
X120983500Y-35003100D03*
D12*
X169243500Y-52783100D03*
X166703500Y-52783100D03*
X164163500Y-52783100D03*
X161623500Y-52783100D03*
X159083500Y-52783100D03*
X156543500Y-52783100D03*
X154003500Y-52783100D03*
X151463500Y-52783100D03*
X148923500Y-52783100D03*
X146383500Y-52783100D03*
X143843500Y-52783100D03*
X141303500Y-52783100D03*
X138763500Y-52783100D03*
X136223500Y-52783100D03*
X133683500Y-52783100D03*
X131143500Y-52783100D03*
X128603500Y-52783100D03*
X126063500Y-52783100D03*
X123523500Y-52783100D03*
D11*
X120983500Y-52783100D03*
D15*
X173323500Y-55323100D03*
X173323500Y-52783100D03*
D10*
X156543500Y-32463100D03*
X169243500Y-32463100D03*
X166703500Y-32463100D03*
X164163500Y-32463100D03*
X161623500Y-32463100D03*
X159083500Y-32463100D03*
D14*
X178723500Y-40753100D03*
X178723500Y-44253100D03*
D13*
X178723500Y-47753100D03*
D10*
X171783500Y-44253100D03*
X171783500Y-67353100D03*
X171783500Y-63853100D03*
X171783500Y-60353100D03*
X171783500Y-47753100D03*
X171783500Y-40753100D03*
X154003500Y-32463100D03*
X151463500Y-32463100D03*
X148923500Y-32463100D03*
X146383500Y-32463100D03*
X143843500Y-32463100D03*
X141303500Y-32463100D03*
X138763500Y-32463100D03*
X136223500Y-32463100D03*
D16*
X169243500Y-32560900D02*
X169546400Y-32258000D01*
X166703500Y-33081600D02*
X166815900Y-32969200D01*
X164163500Y-33094300D02*
X164606100Y-32651700D01*
X138763500Y-32983800D02*
X138507600Y-32727900D01*
X136223500Y-32933000D02*
X136107300Y-32816800D01*
X156543500Y-32463100D02*
X156543500Y-33932500D01*
X156543500Y-33932500D02*
X156543500Y-37543100D01*
X164163500Y-37543100D02*
X164163500Y-35977200D01*
X166703500Y-32463100D02*
X166703500Y-34046800D01*
X166703500Y-34046800D02*
X166703500Y-37543100D01*
X151463500Y-65483100D02*
X151463500Y-63857500D01*
X120983500Y-68023100D02*
X123523500Y-68023100D01*
X123523500Y-68023100D02*
X126063500Y-68023100D01*
X126063500Y-68023100D02*
X128603500Y-68023100D01*
X128603500Y-68023100D02*
X131143500Y-68023100D01*
X131143500Y-68023100D02*
X133683500Y-68023100D01*
X133683500Y-68023100D02*
X136223500Y-68023100D01*
X136223500Y-68023100D02*
X138763500Y-68023100D01*
X131143500Y-70563100D02*
X133683500Y-70563100D01*
X133683500Y-70563100D02*
X136223500Y-70563100D01*
X136223500Y-70563100D02*
X138763500Y-70563100D01*
X138763500Y-68023100D02*
X141303500Y-68023100D01*
X138763500Y-70563100D02*
X141303500Y-70563100D01*
X141303500Y-70563100D02*
X143843500Y-70563100D01*
X141303500Y-68023100D02*
X142827500Y-68023100D01*
X143843500Y-68023100D02*
X146383500Y-68023100D01*
X143843500Y-70563100D02*
X146383500Y-70563100D01*
X146383500Y-68023100D02*
X148923500Y-68023100D01*
X146383500Y-70563100D02*
X148923500Y-70563100D01*
X148923500Y-70563100D02*
X151463500Y-70563100D01*
X148923500Y-68023100D02*
X151463500Y-68023100D01*
X151463500Y-68023100D02*
X154003500Y-68023100D01*
X151463500Y-70563100D02*
X154003500Y-70563100D01*
X154003500Y-68023100D02*
X156543500Y-68023100D01*
X154003500Y-70563100D02*
X156543500Y-70563100D01*
X156543500Y-68023100D02*
X159083500Y-68023100D01*
X156543500Y-70563100D02*
X159083500Y-70563100D01*
X159083500Y-68023100D02*
X161623500Y-68023100D01*
X159083500Y-70563100D02*
X161623500Y-70563100D01*
X161623500Y-70563100D02*
X164163500Y-70563100D01*
X161623500Y-68023100D02*
X164163500Y-68023100D01*
X164163500Y-68023100D02*
X166703500Y-68023100D01*
X166703500Y-68023100D02*
X169243500Y-68023100D01*
X164163500Y-70563100D02*
X166703500Y-70563100D01*
X166703500Y-70563100D02*
X169243500Y-70563100D01*
X169243500Y-73103100D02*
X169243500Y-75643100D01*
X166703500Y-73103100D02*
X166703500Y-75643100D01*
X164163500Y-73103100D02*
X164163500Y-75643100D01*
X161623500Y-73103100D02*
X161623500Y-75643100D01*
X159083500Y-73103100D02*
X159083500Y-75643100D01*
X156543500Y-73103100D02*
X156543500Y-75643100D01*
X154003500Y-73103100D02*
X154003500Y-75643100D01*
X151463500Y-73103100D02*
X151463500Y-75643100D01*
X148923500Y-73103100D02*
X148923500Y-75643100D01*
X146383500Y-73103100D02*
X146383500Y-75643100D01*
X143843500Y-73103100D02*
X143843500Y-75643100D01*
X141303500Y-73103100D02*
X141303500Y-75643100D01*
X138763500Y-73103100D02*
X138763500Y-75643100D01*
X136223500Y-73103100D02*
X136223500Y-75643100D01*
X133683500Y-73103100D02*
X133683500Y-75643100D01*
X131143500Y-73103100D02*
X131143500Y-75643100D01*
X169243500Y-47703100D02*
X166703500Y-47703100D01*
X166703500Y-47703100D02*
X164163500Y-47703100D01*
X164163500Y-47703100D02*
X161623500Y-47703100D01*
X161623500Y-47703100D02*
X159083500Y-47703100D01*
X159083500Y-47703100D02*
X156543500Y-47703100D01*
X156543500Y-47703100D02*
X154003500Y-47703100D01*
X154003500Y-47703100D02*
X151463500Y-47703100D01*
X151463500Y-47703100D02*
X148923500Y-47703100D01*
X148923500Y-47703100D02*
X146383500Y-47703100D01*
X146383500Y-47703100D02*
X143843500Y-47703100D01*
X143843500Y-47703100D02*
X141303500Y-47703100D01*
X138763500Y-47703100D02*
X141303500Y-47703100D01*
X138763500Y-47703100D02*
X136223500Y-47703100D01*
X136223500Y-47703100D02*
X133683500Y-47703100D01*
X133683500Y-47703100D02*
X131143500Y-47703100D01*
X131143500Y-47703100D02*
X128603500Y-47703100D01*
X128603500Y-47703100D02*
X126063500Y-47703100D01*
X126063500Y-47703100D02*
X123523500Y-47703100D01*
X123523500Y-47703100D02*
X120983500Y-47703100D01*
X120983500Y-45163100D02*
X123523500Y-45163100D01*
X123523500Y-45163100D02*
X126063500Y-45163100D01*
X126063500Y-45163100D02*
X128603500Y-45163100D01*
X128603500Y-45163100D02*
X131143500Y-45163100D01*
X131143500Y-45163100D02*
X133683500Y-45163100D01*
X133683500Y-45163100D02*
X136223500Y-45163100D01*
X136223500Y-45163100D02*
X138763500Y-45163100D01*
X138763500Y-45163100D02*
X141303500Y-45163100D01*
X141303500Y-45163100D02*
X143843500Y-45163100D01*
X143843500Y-45163100D02*
X146383500Y-45163100D01*
X146383500Y-45163100D02*
X148923500Y-45163100D01*
X148923500Y-45163100D02*
X151463500Y-45163100D01*
X151463500Y-45163100D02*
X154003500Y-45163100D01*
X154003500Y-45163100D02*
X156543500Y-45163100D01*
X156543500Y-45163100D02*
X159083500Y-45163100D01*
X159083500Y-45163100D02*
X161623500Y-45163100D01*
X161623500Y-45163100D02*
X164163500Y-45163100D01*
X164163500Y-45163100D02*
X166703500Y-45163100D01*
X166703500Y-45163100D02*
X169243500Y-45163100D01*
X146383500Y-96703100D02*
X143843500Y-96703100D01*
X143843500Y-96703100D02*
X141303500Y-96703100D01*
X138763500Y-96703100D02*
X141303500Y-96703100D01*
X138763500Y-96703100D02*
X136223500Y-96703100D01*
X136223500Y-96703100D02*
X133683500Y-96703100D01*
X133683500Y-96703100D02*
X131143500Y-96703100D01*
X164163500Y-94163100D02*
X166703500Y-94163100D01*
X166703500Y-94163100D02*
X169243500Y-94163100D01*
X148923500Y-96703100D02*
X146383500Y-96703100D01*
X164163500Y-86543100D02*
X164163500Y-84977200D01*
X156543500Y-82932500D02*
X156543500Y-86543100D01*
X166703500Y-82081600D02*
X166815900Y-81969200D01*
X166703500Y-83046800D02*
X166703500Y-86543100D01*
X166703500Y-81463100D02*
X166703500Y-83046800D01*
X138763500Y-81983800D02*
X138507600Y-81727900D01*
X156543500Y-81463100D02*
X156543500Y-82932500D01*
X169243500Y-81560900D02*
X169546400Y-81258000D01*
X164163500Y-82094300D02*
X164606100Y-81651700D01*
X161623500Y-94163100D02*
X164163500Y-94163100D01*
X136223500Y-81933000D02*
X136107300Y-81816800D01*
X151463500Y-114483100D02*
X151463500Y-112857500D01*
X120983500Y-117023100D02*
X123523500Y-117023100D01*
X123523500Y-117023100D02*
X126063500Y-117023100D01*
X126063500Y-117023100D02*
X128603500Y-117023100D01*
X128603500Y-117023100D02*
X131143500Y-117023100D01*
X131143500Y-117023100D02*
X133683500Y-117023100D01*
X133683500Y-117023100D02*
X136223500Y-117023100D01*
X136223500Y-117023100D02*
X138763500Y-117023100D01*
X131143500Y-119563100D02*
X133683500Y-119563100D01*
X133683500Y-119563100D02*
X136223500Y-119563100D01*
X136223500Y-119563100D02*
X138763500Y-119563100D01*
X138763500Y-117023100D02*
X141303500Y-117023100D01*
X138763500Y-119563100D02*
X141303500Y-119563100D01*
X141303500Y-119563100D02*
X143843500Y-119563100D01*
X141303500Y-117023100D02*
X142827500Y-117023100D01*
X143843500Y-117023100D02*
X146383500Y-117023100D01*
X143843500Y-119563100D02*
X146383500Y-119563100D01*
X146383500Y-117023100D02*
X148923500Y-117023100D01*
X146383500Y-119563100D02*
X148923500Y-119563100D01*
X148923500Y-119563100D02*
X151463500Y-119563100D01*
X148923500Y-117023100D02*
X151463500Y-117023100D01*
X151463500Y-117023100D02*
X154003500Y-117023100D01*
X151463500Y-119563100D02*
X154003500Y-119563100D01*
X154003500Y-117023100D02*
X156543500Y-117023100D01*
X154003500Y-119563100D02*
X156543500Y-119563100D01*
X156543500Y-117023100D02*
X159083500Y-117023100D01*
X156543500Y-119563100D02*
X159083500Y-119563100D01*
X159083500Y-117023100D02*
X161623500Y-117023100D01*
X159083500Y-119563100D02*
X161623500Y-119563100D01*
X161623500Y-119563100D02*
X164163500Y-119563100D01*
X161623500Y-117023100D02*
X164163500Y-117023100D01*
X164163500Y-117023100D02*
X166703500Y-117023100D01*
X166703500Y-117023100D02*
X169243500Y-117023100D01*
X164163500Y-119563100D02*
X166703500Y-119563100D01*
X166703500Y-119563100D02*
X169243500Y-119563100D01*
X169243500Y-122103100D02*
X169243500Y-124643100D01*
X166703500Y-122103100D02*
X166703500Y-124643100D01*
X164163500Y-122103100D02*
X164163500Y-124643100D01*
X161623500Y-122103100D02*
X161623500Y-124643100D01*
X159083500Y-122103100D02*
X159083500Y-124643100D01*
X156543500Y-122103100D02*
X156543500Y-124643100D01*
X154003500Y-122103100D02*
X154003500Y-124643100D01*
X151463500Y-122103100D02*
X151463500Y-124643100D01*
X148923500Y-122103100D02*
X148923500Y-124643100D01*
X146383500Y-122103100D02*
X146383500Y-124643100D01*
X143843500Y-122103100D02*
X143843500Y-124643100D01*
X141303500Y-122103100D02*
X141303500Y-124643100D01*
X138763500Y-122103100D02*
X138763500Y-124643100D01*
X136223500Y-122103100D02*
X136223500Y-124643100D01*
X133683500Y-122103100D02*
X133683500Y-124643100D01*
X131143500Y-122103100D02*
X131143500Y-124643100D01*
X169243500Y-96703100D02*
X166703500Y-96703100D01*
X166703500Y-96703100D02*
X164163500Y-96703100D01*
X164163500Y-96703100D02*
X161623500Y-96703100D01*
X161623500Y-96703100D02*
X159083500Y-96703100D01*
X159083500Y-96703100D02*
X156543500Y-96703100D01*
X156543500Y-96703100D02*
X154003500Y-96703100D01*
X154003500Y-96703100D02*
X151463500Y-96703100D01*
X151463500Y-96703100D02*
X148923500Y-96703100D01*
X131143500Y-96703100D02*
X128603500Y-96703100D01*
X128603500Y-96703100D02*
X126063500Y-96703100D01*
X126063500Y-96703100D02*
X123523500Y-96703100D01*
X123523500Y-96703100D02*
X120983500Y-96703100D01*
X120983500Y-94163100D02*
X123523500Y-94163100D01*
X123523500Y-94163100D02*
X126063500Y-94163100D01*
X126063500Y-94163100D02*
X128603500Y-94163100D01*
X128603500Y-94163100D02*
X131143500Y-94163100D01*
X131143500Y-94163100D02*
X133683500Y-94163100D01*
X133683500Y-94163100D02*
X136223500Y-94163100D01*
X136223500Y-94163100D02*
X138763500Y-94163100D01*
X138763500Y-94163100D02*
X141303500Y-94163100D01*
X141303500Y-94163100D02*
X143843500Y-94163100D01*
X143843500Y-94163100D02*
X146383500Y-94163100D01*
X146383500Y-94163100D02*
X148923500Y-94163100D01*
X148923500Y-94163100D02*
X151463500Y-94163100D01*
X151463500Y-94163100D02*
X154003500Y-94163100D01*
X154003500Y-94163100D02*
X156543500Y-94163100D01*
X156543500Y-94163100D02*
X159083500Y-94163100D01*
X159083500Y-94163100D02*
X161623500Y-94163100D01*
X177827400Y-60353100D02*
X177893600Y-60286900D01*
X178061400Y-60353100D02*
X178198400Y-60490100D01*
X171783500Y-60353100D02*
X178061400Y-60353100D01*
X177827400Y-109353100D02*
X177893600Y-109286900D01*
X178061400Y-109353100D02*
X178198400Y-109490100D01*
X171783500Y-109353100D02*
X178061400Y-109353100D01*
X177548200Y-63853100D02*
X177614200Y-63919100D01*
X177515100Y-63853100D02*
X177626900Y-63741300D01*
X177853000Y-63853100D02*
X177995200Y-63995300D01*
X171783500Y-63853100D02*
X177853000Y-63853100D01*
X177548200Y-112853100D02*
X177614200Y-112919100D01*
X177515100Y-112853100D02*
X177626900Y-112741300D01*
X177853000Y-112853100D02*
X177995200Y-112995300D01*
X171783500Y-112853100D02*
X177853000Y-112853100D01*
X177736200Y-67353100D02*
X177792000Y-67297300D01*
X171783500Y-67353100D02*
X177736200Y-67353100D01*
X177736200Y-116353100D02*
X177792000Y-116297300D01*
X171783500Y-116353100D02*
X177736200Y-116353100D01*
X177473300Y-40753100D02*
X177652300Y-40932100D01*
X177651100Y-40753100D02*
X177690400Y-40792400D01*
X177742400Y-40753100D02*
X177880900Y-40614600D01*
X178146400Y-40753100D02*
X178198400Y-40805100D01*
X171783500Y-40753100D02*
X178146400Y-40753100D01*
X177473300Y-89753100D02*
X177652300Y-89932100D01*
X177651100Y-89753100D02*
X177690400Y-89792400D01*
X177742400Y-89753100D02*
X177880900Y-89614600D01*
X178146400Y-89753100D02*
X178198400Y-89805100D01*
X171783500Y-89753100D02*
X178146400Y-89753100D01*
X177917900Y-47753100D02*
X177969800Y-47701200D01*
X177689300Y-47753100D02*
X177919000Y-47523400D01*
X171783500Y-47753100D02*
X177689300Y-47753100D01*
X177917900Y-96753100D02*
X177969800Y-96701200D01*
X177689300Y-96753100D02*
X177919000Y-96523400D01*
X171783500Y-96753100D02*
X177689300Y-96753100D01*
X177760300Y-44253100D02*
X177855500Y-44157900D01*
X177861800Y-44253100D02*
X177880900Y-44272200D01*
X171783500Y-44253100D02*
X177861800Y-44253100D01*
X177760300Y-93253100D02*
X177855500Y-93157900D01*
X177861800Y-93253100D02*
X177880900Y-93272200D01*
X171783500Y-93253100D02*
X177861800Y-93253100D01*
X138763500Y-34326200D02*
X138609200Y-34480500D01*
X138763500Y-32463100D02*
X138763500Y-34326200D01*
X138763500Y-35003100D02*
X138763500Y-36501700D01*
X138763500Y-83326200D02*
X138609200Y-83480500D01*
X138763500Y-81463100D02*
X138763500Y-83326200D01*
X138763500Y-84003100D02*
X138763500Y-85501700D01*
X136223500Y-34622100D02*
X136437500Y-34836100D01*
X136223500Y-32463100D02*
X136223500Y-34622100D01*
X136223500Y-36802700D02*
X136196200Y-36830000D01*
X136223500Y-35003100D02*
X136223500Y-36802700D01*
X136223500Y-83622100D02*
X136437500Y-83836100D01*
X136223500Y-81463100D02*
X136223500Y-83622100D01*
X136223500Y-85802700D02*
X136196200Y-85830000D01*
X136223500Y-84003100D02*
X136223500Y-85802700D01*
X133683500Y-34317300D02*
X133961000Y-34594800D01*
X133683500Y-32463100D02*
X133683500Y-34317300D01*
X133683500Y-36679500D02*
X134024500Y-37020500D01*
X133683500Y-35003100D02*
X133683500Y-36679500D01*
X133683500Y-83317300D02*
X133961000Y-83594800D01*
X133683500Y-81463100D02*
X133683500Y-83317300D01*
X133683500Y-85679500D02*
X134024500Y-86020500D01*
X133683500Y-84003100D02*
X133683500Y-85679500D01*
X131143500Y-35431100D02*
X131128900Y-35445700D01*
X131143500Y-32463100D02*
X131143500Y-35431100D01*
X131143500Y-35003100D02*
X131143500Y-36679500D01*
X131143500Y-84431100D02*
X131128900Y-84445700D01*
X131143500Y-81463100D02*
X131143500Y-84431100D01*
X131143500Y-84003100D02*
X131143500Y-85679500D01*
X128603500Y-34999300D02*
X128525400Y-35077400D01*
X128603500Y-32463100D02*
X128603500Y-34999300D01*
X128603500Y-36878900D02*
X128411100Y-37071300D01*
X128603500Y-35003100D02*
X128603500Y-36878900D01*
X128603500Y-83999300D02*
X128525400Y-84077400D01*
X128603500Y-81463100D02*
X128603500Y-83999300D01*
X128603500Y-85878900D02*
X128411100Y-86071300D01*
X128603500Y-84003100D02*
X128603500Y-85878900D01*
X126063500Y-34850700D02*
X126353700Y-35140900D01*
X126063500Y-32463100D02*
X126063500Y-34850700D01*
X126063500Y-37339900D02*
X126226700Y-37503100D01*
X126063500Y-35003100D02*
X126063500Y-37339900D01*
X126063500Y-83850700D02*
X126353700Y-84140900D01*
X126063500Y-81463100D02*
X126063500Y-83850700D01*
X126063500Y-86339900D02*
X126226700Y-86503100D01*
X126063500Y-84003100D02*
X126063500Y-86339900D01*
X123523500Y-34834200D02*
X123521600Y-34836100D01*
X123523500Y-32463100D02*
X123523500Y-34834200D01*
X123523500Y-37022400D02*
X123699400Y-37198300D01*
X123523500Y-35003100D02*
X123523500Y-37022400D01*
X123523500Y-83834200D02*
X123521600Y-83836100D01*
X123523500Y-81463100D02*
X123523500Y-83834200D01*
X123523500Y-86022400D02*
X123699400Y-86198300D01*
X123523500Y-84003100D02*
X123523500Y-86022400D01*
X120983500Y-34723700D02*
X121095900Y-34836100D01*
X120983500Y-32463100D02*
X120983500Y-34723700D01*
X120983500Y-37009700D02*
X121286400Y-37312600D01*
X120983500Y-35003100D02*
X120983500Y-37009700D01*
X120983500Y-83723700D02*
X121095900Y-83836100D01*
X120983500Y-81463100D02*
X120983500Y-83723700D01*
X120983500Y-86009700D02*
X121286400Y-86312600D01*
X120983500Y-84003100D02*
X120983500Y-86009700D01*
X138763500Y-52703100D02*
X138774300Y-52692300D01*
X138763500Y-55323100D02*
X138763500Y-52703100D01*
X138763500Y-52783100D02*
X138763500Y-50255800D01*
X138763500Y-41895900D02*
X138790300Y-41922700D01*
X138763500Y-40083100D02*
X138763500Y-41895900D01*
X138763500Y-101703100D02*
X138774300Y-101692300D01*
X138763500Y-104323100D02*
X138763500Y-101703100D01*
X138763500Y-101783100D02*
X138763500Y-99255800D01*
X138763500Y-90895900D02*
X138790300Y-90922700D01*
X138763500Y-89083100D02*
X138763500Y-90895900D01*
X136223500Y-52872000D02*
X136183500Y-52832000D01*
X136223500Y-55323100D02*
X136223500Y-52872000D01*
X136223500Y-52783100D02*
X136223500Y-50408200D01*
X136223500Y-42051100D02*
X136199500Y-42075100D01*
X136223500Y-40083100D02*
X136223500Y-42051100D01*
X136223500Y-101872000D02*
X136183500Y-101832000D01*
X136223500Y-104323100D02*
X136223500Y-101872000D01*
X136223500Y-101783100D02*
X136223500Y-99408200D01*
X136223500Y-91051100D02*
X136199500Y-91075100D01*
X136223500Y-89083100D02*
X136223500Y-91051100D01*
X133683500Y-52833900D02*
X133630800Y-52781200D01*
X133683500Y-55323100D02*
X133683500Y-52833900D01*
X133683500Y-52783100D02*
X133683500Y-50192300D01*
X133683500Y-42353100D02*
X133799200Y-42468800D01*
X133683500Y-40083100D02*
X133683500Y-42353100D01*
X133683500Y-101833900D02*
X133630800Y-101781200D01*
X133683500Y-104323100D02*
X133683500Y-101833900D01*
X133683500Y-101783100D02*
X133683500Y-99192300D01*
X133683500Y-91353100D02*
X133799200Y-91468800D01*
X133683500Y-89083100D02*
X133683500Y-91353100D01*
X131143500Y-52703100D02*
X131268600Y-52578000D01*
X131143500Y-55323100D02*
X131143500Y-52703100D01*
X131143500Y-52783100D02*
X131143500Y-50925100D01*
X131143500Y-42124500D02*
X131183000Y-42164000D01*
X131143500Y-40083100D02*
X131143500Y-42124500D01*
X131143500Y-101703100D02*
X131268600Y-101578000D01*
X131143500Y-104323100D02*
X131143500Y-101703100D01*
X131143500Y-101783100D02*
X131143500Y-99925100D01*
X131143500Y-91124500D02*
X131183000Y-91164000D01*
X131143500Y-89083100D02*
X131143500Y-91124500D01*
X128603500Y-53160300D02*
X128766700Y-52997100D01*
X128603500Y-55323100D02*
X128603500Y-53160300D01*
X128603500Y-52783100D02*
X128603500Y-50912400D01*
X128603500Y-42241600D02*
X128503300Y-42341800D01*
X128603500Y-40083100D02*
X128603500Y-42241600D01*
X128603500Y-102160300D02*
X128766700Y-101997100D01*
X128603500Y-104323100D02*
X128603500Y-102160300D01*
X128603500Y-101783100D02*
X128603500Y-99912400D01*
X128603500Y-91241600D02*
X128503300Y-91341800D01*
X128603500Y-89083100D02*
X128603500Y-91241600D01*
X126063500Y-53109500D02*
X126290200Y-52882800D01*
X126063500Y-55323100D02*
X126063500Y-53109500D01*
X126063500Y-52783100D02*
X126063500Y-50471700D01*
X126063500Y-42190800D02*
X125988700Y-42265600D01*
X126063500Y-40083100D02*
X126063500Y-42190800D01*
X126063500Y-102109500D02*
X126290200Y-101882800D01*
X126063500Y-104323100D02*
X126063500Y-102109500D01*
X126063500Y-101783100D02*
X126063500Y-99471700D01*
X126063500Y-91190800D02*
X125988700Y-91265600D01*
X126063500Y-89083100D02*
X126063500Y-91190800D01*
X123523500Y-53062500D02*
X123508900Y-53047900D01*
X123523500Y-55323100D02*
X123523500Y-53062500D01*
X123523500Y-52783100D02*
X123523500Y-50518700D01*
X123523500Y-42279700D02*
X123359800Y-42443400D01*
X123523500Y-40083100D02*
X123523500Y-42279700D01*
X123523500Y-102062500D02*
X123508900Y-102047900D01*
X123523500Y-104323100D02*
X123523500Y-102062500D01*
X123523500Y-101783100D02*
X123523500Y-99518700D01*
X123523500Y-91279700D02*
X123359800Y-91443400D01*
X123523500Y-89083100D02*
X123523500Y-91279700D01*
X120983500Y-53173000D02*
X121388000Y-52768500D01*
X120983500Y-55323100D02*
X120983500Y-53173000D01*
X120983500Y-42149900D02*
X121073800Y-42240200D01*
X120983500Y-40083100D02*
X120983500Y-42149900D01*
X120983500Y-102173000D02*
X121388000Y-101768500D01*
X120983500Y-104323100D02*
X120983500Y-102173000D01*
X120983500Y-91149900D02*
X121073800Y-91240200D01*
X120983500Y-89083100D02*
X120983500Y-91149900D01*
X131143500Y-55713000D02*
X131179700Y-55676800D01*
X131143500Y-57863100D02*
X131143500Y-55713000D01*
X131143500Y-104713000D02*
X131179700Y-104676800D01*
X131143500Y-106863100D02*
X131143500Y-104713000D01*
X126063500Y-56068600D02*
X126379100Y-55753000D01*
X126063500Y-57863100D02*
X126063500Y-56068600D01*
X126063500Y-105068600D02*
X126379100Y-104753000D01*
X126063500Y-106863100D02*
X126063500Y-105068600D01*
X123523500Y-55640600D02*
X123483500Y-55600600D01*
X123523500Y-57863100D02*
X123523500Y-55640600D01*
X123523500Y-104640600D02*
X123483500Y-104600600D01*
X123523500Y-106863100D02*
X123523500Y-104640600D01*
X120983500Y-52783100D02*
X120983500Y-50534700D01*
X120983500Y-101783100D02*
X120983500Y-99534700D01*
X143843500Y-34199200D02*
X143803500Y-34239200D01*
X143843500Y-32463100D02*
X143843500Y-34199200D01*
X143843500Y-36870000D02*
X144044800Y-37071300D01*
X143843500Y-35003100D02*
X143843500Y-36870000D01*
X143843500Y-83199200D02*
X143803500Y-83239200D01*
X143843500Y-81463100D02*
X143843500Y-83199200D01*
X143843500Y-85870000D02*
X144044800Y-86071300D01*
X143843500Y-84003100D02*
X143843500Y-85870000D01*
X141303500Y-34199200D02*
X141263500Y-34239200D01*
X141303500Y-32463100D02*
X141303500Y-34199200D01*
X141303500Y-35003100D02*
X141303500Y-36514400D01*
X141303500Y-83199200D02*
X141263500Y-83239200D01*
X141303500Y-81463100D02*
X141303500Y-83199200D01*
X141303500Y-84003100D02*
X141303500Y-85514400D01*
X169292400Y-33578800D02*
X169292400Y-34594800D01*
X169243500Y-35735900D02*
X169292400Y-35687000D01*
X169243500Y-37543100D02*
X169243500Y-35735900D01*
X169292400Y-82578800D02*
X169292400Y-83594800D01*
X169243500Y-84735900D02*
X169292400Y-84687000D01*
X169243500Y-86543100D02*
X169243500Y-84735900D01*
X164163500Y-34338900D02*
X164148900Y-34353500D01*
X164163500Y-32463100D02*
X164163500Y-34338900D01*
X164163500Y-83338900D02*
X164148900Y-83353500D01*
X164163500Y-81463100D02*
X164163500Y-83338900D01*
X161623500Y-34529400D02*
X161494600Y-34658300D01*
X161623500Y-32463100D02*
X161623500Y-34529400D01*
X161623500Y-35735900D02*
X161672400Y-35687000D01*
X161623500Y-37543100D02*
X161623500Y-35735900D01*
X161623500Y-83529400D02*
X161494600Y-83658300D01*
X161623500Y-81463100D02*
X161623500Y-83529400D01*
X161623500Y-84735900D02*
X161672400Y-84687000D01*
X161623500Y-86543100D02*
X161623500Y-84735900D01*
X159083500Y-34533200D02*
X159208600Y-34658300D01*
X159083500Y-32463100D02*
X159083500Y-34533200D01*
X159083500Y-35875600D02*
X159208600Y-35750500D01*
X159083500Y-37543100D02*
X159083500Y-35875600D01*
X159083500Y-83533200D02*
X159208600Y-83658300D01*
X159083500Y-81463100D02*
X159083500Y-83533200D01*
X159083500Y-84875600D02*
X159208600Y-84750500D01*
X159083500Y-86543100D02*
X159083500Y-84875600D01*
X154003500Y-34177600D02*
X154065100Y-34239200D01*
X154003500Y-32463100D02*
X154003500Y-34177600D01*
X154003500Y-35003100D02*
X154003500Y-36527100D01*
X154003500Y-83177600D02*
X154065100Y-83239200D01*
X154003500Y-81463100D02*
X154003500Y-83177600D01*
X154003500Y-84003100D02*
X154003500Y-85527100D01*
X151463500Y-34114100D02*
X151652100Y-34302700D01*
X151463500Y-32463100D02*
X151463500Y-34114100D01*
X151463500Y-35003100D02*
X151463500Y-37235000D01*
X151463500Y-83114100D02*
X151652100Y-83302700D01*
X151463500Y-81463100D02*
X151463500Y-83114100D01*
X151463500Y-84003100D02*
X151463500Y-86235000D01*
X148923500Y-34164900D02*
X149061300Y-34302700D01*
X148923500Y-32463100D02*
X148923500Y-34164900D01*
X148923500Y-35003100D02*
X148923500Y-37085400D01*
X148923500Y-83164900D02*
X149061300Y-83302700D01*
X148923500Y-81463100D02*
X148923500Y-83164900D01*
X148923500Y-84003100D02*
X148923500Y-86085400D01*
X146383500Y-34761800D02*
X146407000Y-34785300D01*
X146383500Y-32463100D02*
X146383500Y-34761800D01*
X146383500Y-35003100D02*
X146383500Y-36981000D01*
X146383500Y-83761800D02*
X146407000Y-83785300D01*
X146383500Y-81463100D02*
X146383500Y-83761800D01*
X146383500Y-84003100D02*
X146383500Y-85981000D01*
X169243500Y-52872000D02*
X169241600Y-52870100D01*
X169243500Y-55323100D02*
X169243500Y-52872000D01*
X169243500Y-52783100D02*
X169243500Y-50268500D01*
X169243500Y-42188000D02*
X169244900Y-42189400D01*
X169243500Y-40083100D02*
X169243500Y-42188000D01*
X169243500Y-101872000D02*
X169241600Y-101870100D01*
X169243500Y-104323100D02*
X169243500Y-101872000D01*
X169243500Y-101783100D02*
X169243500Y-99268500D01*
X169243500Y-91188000D02*
X169244900Y-91189400D01*
X169243500Y-89083100D02*
X169243500Y-91188000D01*
X166703500Y-52745000D02*
X166688900Y-52730400D01*
X166703500Y-55323100D02*
X166703500Y-52745000D01*
X166703500Y-52783100D02*
X166703500Y-50192300D01*
X166703500Y-42114600D02*
X166425500Y-42392600D01*
X166703500Y-40083100D02*
X166703500Y-42114600D01*
X166703500Y-101745000D02*
X166688900Y-101730400D01*
X166703500Y-104323100D02*
X166703500Y-101745000D01*
X166703500Y-101783100D02*
X166703500Y-99192300D01*
X166703500Y-91114600D02*
X166425500Y-91392600D01*
X166703500Y-89083100D02*
X166703500Y-91114600D01*
X164163500Y-52982500D02*
X164225100Y-52920900D01*
X164163500Y-55323100D02*
X164163500Y-52982500D01*
X164163500Y-52783100D02*
X164163500Y-50252000D01*
X164163500Y-41949500D02*
X164063300Y-42049700D01*
X164163500Y-40083100D02*
X164163500Y-41949500D01*
X164163500Y-101982500D02*
X164225100Y-101920900D01*
X164163500Y-104323100D02*
X164163500Y-101982500D01*
X164163500Y-101783100D02*
X164163500Y-99252000D01*
X164163500Y-90949500D02*
X164063300Y-91049700D01*
X164163500Y-89083100D02*
X164163500Y-90949500D01*
X161623500Y-52830100D02*
X161672400Y-52781200D01*
X161623500Y-55323100D02*
X161623500Y-52830100D01*
X161623500Y-52783100D02*
X161623500Y-50188500D01*
X161623500Y-42051100D02*
X161485200Y-42189400D01*
X161623500Y-40083100D02*
X161623500Y-42051100D01*
X161623500Y-101830100D02*
X161672400Y-101781200D01*
X161623500Y-104323100D02*
X161623500Y-101830100D01*
X161623500Y-101783100D02*
X161623500Y-99188500D01*
X161623500Y-91051100D02*
X161485200Y-91189400D01*
X161623500Y-89083100D02*
X161623500Y-91051100D01*
X159083500Y-52766600D02*
X159119700Y-52730400D01*
X159083500Y-55323100D02*
X159083500Y-52766600D01*
X159083500Y-52783100D02*
X159083500Y-50315500D01*
X159083500Y-42076500D02*
X158894400Y-42265600D01*
X159083500Y-40083100D02*
X159083500Y-42076500D01*
X159083500Y-101766600D02*
X159119700Y-101730400D01*
X159083500Y-104323100D02*
X159083500Y-101766600D01*
X159083500Y-101783100D02*
X159083500Y-99315500D01*
X159083500Y-91076500D02*
X158894400Y-91265600D01*
X159083500Y-89083100D02*
X159083500Y-91076500D01*
X156543500Y-52935500D02*
X156389200Y-52781200D01*
X156543500Y-55323100D02*
X156543500Y-52935500D01*
X156543500Y-52783100D02*
X156543500Y-50252000D01*
X156543500Y-42365800D02*
X156621100Y-42443400D01*
X156543500Y-40083100D02*
X156543500Y-42365800D01*
X156543500Y-101935500D02*
X156389200Y-101781200D01*
X156543500Y-104323100D02*
X156543500Y-101935500D01*
X156543500Y-101783100D02*
X156543500Y-99252000D01*
X156543500Y-91365800D02*
X156621100Y-91443400D01*
X156543500Y-89083100D02*
X156543500Y-91365800D01*
X154003500Y-52859300D02*
X153976200Y-52832000D01*
X154003500Y-55323100D02*
X154003500Y-52859300D01*
X154003500Y-52783100D02*
X154003500Y-50255800D01*
X154003500Y-42178100D02*
X153966800Y-42214800D01*
X154003500Y-40083100D02*
X154003500Y-42178100D01*
X154003500Y-101859300D02*
X153976200Y-101832000D01*
X154003500Y-104323100D02*
X154003500Y-101859300D01*
X154003500Y-101783100D02*
X154003500Y-99255800D01*
X154003500Y-91178100D02*
X153966800Y-91214800D01*
X154003500Y-89083100D02*
X154003500Y-91178100D01*
X151463500Y-52922800D02*
X151372700Y-52832000D01*
X151463500Y-55323100D02*
X151463500Y-52922800D01*
X151463500Y-52783100D02*
X151463500Y-50268500D01*
X151463500Y-42101900D02*
X151325200Y-42240200D01*
X151463500Y-40083100D02*
X151463500Y-42101900D01*
X151463500Y-101922800D02*
X151372700Y-101832000D01*
X151463500Y-104323100D02*
X151463500Y-101922800D01*
X151463500Y-101783100D02*
X151463500Y-99268500D01*
X151463500Y-91101900D02*
X151325200Y-91240200D01*
X151463500Y-89083100D02*
X151463500Y-91101900D01*
X148923500Y-52706900D02*
X148908900Y-52692300D01*
X148923500Y-55323100D02*
X148923500Y-52706900D01*
X148923500Y-52783100D02*
X148923500Y-50293900D01*
X148923500Y-42025700D02*
X148874100Y-42075100D01*
X148923500Y-40083100D02*
X148923500Y-42025700D01*
X148923500Y-101706900D02*
X148908900Y-101692300D01*
X148923500Y-104323100D02*
X148923500Y-101706900D01*
X148923500Y-101783100D02*
X148923500Y-99293900D01*
X148923500Y-91025700D02*
X148874100Y-91075100D01*
X148923500Y-89083100D02*
X148923500Y-91025700D01*
X146383500Y-52753900D02*
X146445100Y-52692300D01*
X146383500Y-55323100D02*
X146383500Y-52753900D01*
X146383500Y-52783100D02*
X146383500Y-50201200D01*
X146383500Y-41934000D02*
X146423000Y-41973500D01*
X146383500Y-40083100D02*
X146383500Y-41934000D01*
X146383500Y-101753900D02*
X146445100Y-101692300D01*
X146383500Y-104323100D02*
X146383500Y-101753900D01*
X146383500Y-101783100D02*
X146383500Y-99201200D01*
X146383500Y-90934000D02*
X146423000Y-90973500D01*
X146383500Y-89083100D02*
X146383500Y-90934000D01*
X143843500Y-52694200D02*
X143841600Y-52692300D01*
X143843500Y-55323100D02*
X143843500Y-52694200D01*
X143843500Y-52783100D02*
X143843500Y-50306600D01*
X143843500Y-41962200D02*
X143692500Y-42113200D01*
X143843500Y-40083100D02*
X143843500Y-41962200D01*
X143843500Y-101694200D02*
X143841600Y-101692300D01*
X143843500Y-104323100D02*
X143843500Y-101694200D01*
X143843500Y-101783100D02*
X143843500Y-99306600D01*
X143843500Y-90962200D02*
X143692500Y-91113200D01*
X143843500Y-89083100D02*
X143843500Y-90962200D01*
X141303500Y-52846600D02*
X141288900Y-52832000D01*
X141303500Y-55323100D02*
X141303500Y-52846600D01*
X141303500Y-52783100D02*
X141303500Y-50243100D01*
X141303500Y-42175300D02*
X141419200Y-42291000D01*
X141303500Y-40083100D02*
X141303500Y-42175300D01*
X141303500Y-101846600D02*
X141288900Y-101832000D01*
X141303500Y-104323100D02*
X141303500Y-101846600D01*
X141303500Y-101783100D02*
X141303500Y-99243100D01*
X141303500Y-91175300D02*
X141419200Y-91291000D01*
X141303500Y-89083100D02*
X141303500Y-91175300D01*
X169243500Y-55285000D02*
X169241600Y-55283100D01*
X169243500Y-57863100D02*
X169243500Y-55285000D01*
X169243500Y-104285000D02*
X169241600Y-104283100D01*
X169243500Y-106863100D02*
X169243500Y-104285000D01*
X166703500Y-55475500D02*
X166650800Y-55422800D01*
X166703500Y-57863100D02*
X166703500Y-55475500D01*
X166703500Y-104475500D02*
X166650800Y-104422800D01*
X166703500Y-106863100D02*
X166703500Y-104475500D01*
X164163500Y-55446300D02*
X164225100Y-55384700D01*
X164163500Y-57863100D02*
X164163500Y-55446300D01*
X164163500Y-104446300D02*
X164225100Y-104384700D01*
X164163500Y-106863100D02*
X164163500Y-104446300D01*
X161623500Y-55323100D02*
X161583500Y-55283100D01*
X161623500Y-57863100D02*
X161623500Y-55323100D01*
X161623500Y-104323100D02*
X161583500Y-104283100D01*
X161623500Y-106863100D02*
X161623500Y-104323100D01*
X159083500Y-55281200D02*
X159119700Y-55245000D01*
X159083500Y-57863100D02*
X159083500Y-55281200D01*
X159083500Y-104281200D02*
X159119700Y-104245000D01*
X159083500Y-106863100D02*
X159083500Y-104281200D01*
X156543500Y-55357400D02*
X156617800Y-55283100D01*
X156543500Y-57863100D02*
X156543500Y-55357400D01*
X156543500Y-104357400D02*
X156617800Y-104283100D01*
X156543500Y-106863100D02*
X156543500Y-104357400D01*
X169243500Y-60403100D02*
X169243500Y-57897400D01*
X169243500Y-109403100D02*
X169243500Y-106897400D01*
X166703500Y-60403100D02*
X166703500Y-57745000D01*
X166703500Y-109403100D02*
X166703500Y-106745000D01*
X164163500Y-60403100D02*
X164163500Y-57910100D01*
X164163500Y-109403100D02*
X164163500Y-106910100D01*
X161623500Y-60403100D02*
X161623500Y-57859300D01*
X161623500Y-109403100D02*
X161623500Y-106859300D01*
X159083500Y-60403100D02*
X159083500Y-57783100D01*
X159083500Y-109403100D02*
X159083500Y-106783100D01*
X156543500Y-60403100D02*
X156543500Y-57821200D01*
X156543500Y-109403100D02*
X156543500Y-106821200D01*
X154003500Y-60403100D02*
X154003500Y-57948200D01*
X154103200Y-57848500D02*
X154103200Y-55283100D01*
X154003500Y-57948200D02*
X154103200Y-57848500D01*
X154003500Y-109403100D02*
X154003500Y-106948200D01*
X154103200Y-106848500D02*
X154103200Y-104283100D01*
X154003500Y-106948200D02*
X154103200Y-106848500D01*
X131143500Y-60403100D02*
X131143500Y-58244100D01*
X131143500Y-109403100D02*
X131143500Y-107244100D01*
X128603500Y-60403100D02*
X128603500Y-58341900D01*
X128601600Y-58340000D02*
X128601600Y-55283100D01*
X128603500Y-58341900D02*
X128601600Y-58340000D01*
X128603500Y-109403100D02*
X128603500Y-107341900D01*
X128601600Y-107340000D02*
X128601600Y-104283100D01*
X128603500Y-107341900D02*
X128601600Y-107340000D01*
X126063500Y-60403100D02*
X126063500Y-58214900D01*
X126063500Y-109403100D02*
X126063500Y-107214900D01*
X120983500Y-63692400D02*
X120968900Y-63677800D01*
X120983500Y-65483100D02*
X120983500Y-63692400D01*
X120983500Y-62943100D02*
X120983500Y-60657100D01*
X120983500Y-60657100D02*
X121134000Y-60506600D01*
X121134000Y-55448200D02*
X121324500Y-55257700D01*
X121134000Y-60506600D02*
X121134000Y-55448200D01*
X120983500Y-109657100D02*
X121134000Y-109506600D01*
X121134000Y-104448200D02*
X121324500Y-104257700D01*
X121134000Y-109506600D02*
X121134000Y-104448200D01*
X120983500Y-112692400D02*
X120968900Y-112677800D01*
X120983500Y-114483100D02*
X120983500Y-112692400D01*
X120983500Y-111943100D02*
X120983500Y-109657100D01*
X169243500Y-63705100D02*
X169089200Y-63550800D01*
X169243500Y-65483100D02*
X169243500Y-63705100D01*
X169243500Y-62943100D02*
X169243500Y-60403100D01*
X169243500Y-112705100D02*
X169089200Y-112550800D01*
X169243500Y-114483100D02*
X169243500Y-112705100D01*
X169243500Y-111943100D02*
X169243500Y-109403100D01*
X166703500Y-62943100D02*
X166703500Y-60352300D01*
X166703500Y-63540000D02*
X166676200Y-63512700D01*
X166703500Y-65483100D02*
X166703500Y-63540000D01*
X166703500Y-111943100D02*
X166703500Y-109352300D01*
X166703500Y-112540000D02*
X166676200Y-112512700D01*
X166703500Y-114483100D02*
X166703500Y-112540000D01*
X164163500Y-63641600D02*
X164136200Y-63614300D01*
X164163500Y-65483100D02*
X164163500Y-63641600D01*
X164163500Y-62943100D02*
X164163500Y-60373900D01*
X164163500Y-112641600D02*
X164136200Y-112614300D01*
X164163500Y-114483100D02*
X164163500Y-112641600D01*
X164163500Y-111943100D02*
X164163500Y-109373900D01*
X161623500Y-62943100D02*
X161623500Y-64387100D01*
X161623500Y-62943100D02*
X161623500Y-60450100D01*
X161623500Y-111943100D02*
X161623500Y-113387100D01*
X161623500Y-111943100D02*
X161623500Y-109450100D01*
X159083500Y-62943100D02*
X159083500Y-60403100D01*
X159083500Y-63599700D02*
X159107000Y-63576200D01*
X159083500Y-65483100D02*
X159083500Y-63599700D01*
X159083500Y-111943100D02*
X159083500Y-109403100D01*
X159083500Y-112599700D02*
X159107000Y-112576200D01*
X159083500Y-114483100D02*
X159083500Y-112599700D01*
X156543500Y-62943100D02*
X156543500Y-60517400D01*
X156543500Y-63451100D02*
X156516200Y-63423800D01*
X156543500Y-65483100D02*
X156543500Y-63451100D01*
X156543500Y-111943100D02*
X156543500Y-109517400D01*
X156543500Y-112451100D02*
X156516200Y-112423800D01*
X156543500Y-114483100D02*
X156543500Y-112451100D01*
X154003500Y-62943100D02*
X154003500Y-60500900D01*
X154003500Y-63802900D02*
X154166700Y-63639700D01*
X154003500Y-65483100D02*
X154003500Y-63802900D01*
X154003500Y-111943100D02*
X154003500Y-109500900D01*
X154003500Y-112802900D02*
X154166700Y-112639700D01*
X154003500Y-114483100D02*
X154003500Y-112802900D01*
X151463500Y-62943100D02*
X151463500Y-60263400D01*
X151463500Y-60263400D02*
X151423500Y-60223400D01*
X151423500Y-55473600D02*
X151372700Y-55422800D01*
X151423500Y-60223400D02*
X151423500Y-55473600D01*
X151463500Y-111943100D02*
X151463500Y-109263400D01*
X151463500Y-109263400D02*
X151423500Y-109223400D01*
X151423500Y-104473600D02*
X151372700Y-104422800D01*
X151423500Y-109223400D02*
X151423500Y-104473600D01*
X148923500Y-62943100D02*
X148923500Y-60437400D01*
X148923500Y-60437400D02*
X148997800Y-60363100D01*
X148997800Y-55321200D02*
X148959700Y-55283100D01*
X148997800Y-60363100D02*
X148997800Y-55321200D01*
X148923500Y-63628900D02*
X148908900Y-63614300D01*
X148923500Y-65483100D02*
X148923500Y-63628900D01*
X148923500Y-111943100D02*
X148923500Y-109437400D01*
X148923500Y-109437400D02*
X148997800Y-109363100D01*
X148997800Y-104321200D02*
X148959700Y-104283100D01*
X148997800Y-109363100D02*
X148997800Y-104321200D01*
X148923500Y-112628900D02*
X148908900Y-112614300D01*
X148923500Y-114483100D02*
X148923500Y-112628900D01*
X146383500Y-63688600D02*
X146394300Y-63677800D01*
X146383500Y-65483100D02*
X146383500Y-63688600D01*
X146383500Y-62943100D02*
X146383500Y-60373900D01*
X146383500Y-60373900D02*
X146407000Y-60350400D01*
X146407000Y-55460900D02*
X146445100Y-55422800D01*
X146407000Y-60350400D02*
X146407000Y-55460900D01*
X146383500Y-112688600D02*
X146394300Y-112677800D01*
X146383500Y-114483100D02*
X146383500Y-112688600D01*
X146383500Y-111943100D02*
X146383500Y-109373900D01*
X146383500Y-109373900D02*
X146407000Y-109350400D01*
X146407000Y-104460900D02*
X146445100Y-104422800D01*
X146407000Y-109350400D02*
X146407000Y-104460900D01*
X143843500Y-62943100D02*
X143843500Y-64454400D01*
X143843500Y-62943100D02*
X143843500Y-60492000D01*
X143843500Y-60492000D02*
X143803500Y-60452000D01*
X143803500Y-60452000D02*
X143803500Y-55511700D01*
X143843500Y-111943100D02*
X143843500Y-113454400D01*
X143843500Y-111943100D02*
X143843500Y-109492000D01*
X143843500Y-109492000D02*
X143803500Y-109452000D01*
X143803500Y-109452000D02*
X143803500Y-104511700D01*
X141303500Y-63273300D02*
X141238100Y-63207900D01*
X141303500Y-65483100D02*
X141303500Y-63273300D01*
X141303500Y-62943100D02*
X141303500Y-60365000D01*
X141303500Y-60365000D02*
X141238100Y-60299600D01*
X141238100Y-55372000D02*
X141200000Y-55333900D01*
X141238100Y-60299600D02*
X141238100Y-55372000D01*
X141303500Y-112273300D02*
X141238100Y-112207900D01*
X141303500Y-114483100D02*
X141303500Y-112273300D01*
X141303500Y-111943100D02*
X141303500Y-109365000D01*
X141303500Y-109365000D02*
X141238100Y-109299600D01*
X141238100Y-104372000D02*
X141200000Y-104333900D01*
X141238100Y-109299600D02*
X141238100Y-104372000D01*
X138763500Y-63688600D02*
X138774300Y-63677800D01*
X138763500Y-65483100D02*
X138763500Y-63688600D01*
X138763500Y-62943100D02*
X138763500Y-60539000D01*
X138763500Y-60539000D02*
X138736200Y-60511700D01*
X138736200Y-55372000D02*
X138774300Y-55333900D01*
X138736200Y-60511700D02*
X138736200Y-55372000D01*
X138763500Y-112688600D02*
X138774300Y-112677800D01*
X138763500Y-114483100D02*
X138763500Y-112688600D01*
X138763500Y-111943100D02*
X138763500Y-109539000D01*
X138763500Y-109539000D02*
X138736200Y-109511700D01*
X138736200Y-104372000D02*
X138774300Y-104333900D01*
X138736200Y-109511700D02*
X138736200Y-104372000D01*
X136223500Y-62943100D02*
X136223500Y-60386600D01*
X136223500Y-60386600D02*
X136221600Y-60384700D01*
X136221600Y-55435500D02*
X136272400Y-55384700D01*
X136221600Y-60384700D02*
X136221600Y-55435500D01*
X136223500Y-63752100D02*
X136272400Y-63703200D01*
X136223500Y-65483100D02*
X136223500Y-63752100D01*
X136223500Y-111943100D02*
X136223500Y-109386600D01*
X136223500Y-109386600D02*
X136221600Y-109384700D01*
X136221600Y-104435500D02*
X136272400Y-104384700D01*
X136221600Y-109384700D02*
X136221600Y-104435500D01*
X136223500Y-112752100D02*
X136272400Y-112703200D01*
X136223500Y-114483100D02*
X136223500Y-112752100D01*
X133683500Y-63828300D02*
X133834000Y-63677800D01*
X133683500Y-65483100D02*
X133683500Y-63828300D01*
X133683500Y-62943100D02*
X133683500Y-60555500D01*
X133683500Y-60555500D02*
X133719700Y-60519300D01*
X133719700Y-55295800D02*
X133668900Y-55245000D01*
X133719700Y-60519300D02*
X133719700Y-55295800D01*
X133683500Y-112828300D02*
X133834000Y-112677800D01*
X133683500Y-114483100D02*
X133683500Y-112828300D01*
X133683500Y-111943100D02*
X133683500Y-109555500D01*
X133683500Y-109555500D02*
X133719700Y-109519300D01*
X133719700Y-104295800D02*
X133668900Y-104245000D01*
X133719700Y-109519300D02*
X133719700Y-104295800D01*
X131143500Y-64429000D02*
X131230500Y-64516000D01*
X131143500Y-62943100D02*
X131143500Y-64429000D01*
X131143500Y-62943100D02*
X131143500Y-61368300D01*
X131143500Y-61368300D02*
X131143500Y-60831100D01*
X131143500Y-113429000D02*
X131230500Y-113516000D01*
X131143500Y-111943100D02*
X131143500Y-113429000D01*
X131143500Y-111943100D02*
X131143500Y-110368300D01*
X131143500Y-110368300D02*
X131143500Y-109831100D01*
X128603500Y-62943100D02*
X128603500Y-60551700D01*
X128603500Y-63628900D02*
X128550800Y-63576200D01*
X128603500Y-65483100D02*
X128603500Y-63628900D01*
X128603500Y-111943100D02*
X128603500Y-109551700D01*
X128603500Y-112628900D02*
X128550800Y-112576200D01*
X128603500Y-114483100D02*
X128603500Y-112628900D01*
X126063500Y-63768600D02*
X126036200Y-63741300D01*
X126063500Y-65483100D02*
X126063500Y-63768600D01*
X126063500Y-62943100D02*
X126063500Y-60831100D01*
X126063500Y-112768600D02*
X126036200Y-112741300D01*
X126063500Y-114483100D02*
X126063500Y-112768600D01*
X126063500Y-111943100D02*
X126063500Y-109831100D01*
X123523500Y-62943100D02*
X123523500Y-60771400D01*
X123523500Y-60771400D02*
X123610500Y-60684400D01*
X123610500Y-60684400D02*
X123610500Y-58242200D01*
X123523500Y-63628900D02*
X123470800Y-63576200D01*
X123523500Y-65483100D02*
X123523500Y-63628900D01*
X123523500Y-111943100D02*
X123523500Y-109771400D01*
X123523500Y-109771400D02*
X123610500Y-109684400D01*
X123610500Y-109684400D02*
X123610500Y-107242200D01*
X123523500Y-112628900D02*
X123470800Y-112576200D01*
X123523500Y-114483100D02*
X123523500Y-112628900D01*
D17*
G36*
X178115150Y-79235300D02*
G01*
X117331850Y-79235300D01*
X117333597Y-79213100D01*
X178113403Y-79213100D01*
X178115150Y-79235300D01*
G37*
X178115150Y-79235300D02*
X117331850Y-79235300D01*
X117333597Y-79213100D01*
X178113403Y-79213100D01*
X178115150Y-79235300D01*
G36*
X178145561Y-30621707D02*
G01*
X178161762Y-30723998D01*
X178399869Y-31715784D01*
X178431872Y-31814281D01*
X178822197Y-32756609D01*
X178845707Y-32802748D01*
X178869215Y-32848887D01*
X179402147Y-33718553D01*
X179428329Y-33754589D01*
X179463022Y-33802340D01*
X180125438Y-34577930D01*
X180198670Y-34651162D01*
X180974260Y-35313578D01*
X181058047Y-35374453D01*
X181927713Y-35907384D01*
X182019991Y-35954403D01*
X182962319Y-36344727D01*
X183060816Y-36376731D01*
X184052602Y-36614838D01*
X184154893Y-36631039D01*
X184563500Y-36663197D01*
X184563501Y-71443003D01*
X184154893Y-71475161D01*
X184052602Y-71491362D01*
X183060816Y-71729469D01*
X182962319Y-71761473D01*
X182019991Y-72151797D01*
X181929118Y-72198100D01*
X181927713Y-72198816D01*
X181058047Y-72731747D01*
X180974260Y-72792622D01*
X180198670Y-73455038D01*
X180125438Y-73528270D01*
X179463022Y-74303860D01*
X179432585Y-74345754D01*
X179402147Y-74387647D01*
X178869215Y-75257313D01*
X178849892Y-75295238D01*
X178822197Y-75349591D01*
X178431872Y-76291919D01*
X178402437Y-76382511D01*
X178399869Y-76390416D01*
X178161762Y-77382202D01*
X178145561Y-77484493D01*
X178113403Y-77893100D01*
X117333597Y-77893100D01*
X117301439Y-77484493D01*
X117285238Y-77382202D01*
X117047131Y-76390416D01*
X117015127Y-76291919D01*
X116624803Y-75349591D01*
X116577784Y-75257313D01*
X116044853Y-74387647D01*
X115983978Y-74303860D01*
X115590214Y-73842821D01*
X120588500Y-73842821D01*
X120588500Y-74263379D01*
X120670547Y-74675856D01*
X120831488Y-75064402D01*
X121065137Y-75414083D01*
X121362517Y-75711463D01*
X121712198Y-75945112D01*
X122100744Y-76106053D01*
X122513221Y-76188100D01*
X122933779Y-76188100D01*
X123346256Y-76106053D01*
X123734802Y-75945112D01*
X124084483Y-75711463D01*
X124381863Y-75414083D01*
X124615512Y-75064402D01*
X124776453Y-74675856D01*
X124858500Y-74263379D01*
X124858500Y-73842821D01*
X124776453Y-73430344D01*
X124615512Y-73041798D01*
X124381863Y-72692117D01*
X124084483Y-72394737D01*
X123734802Y-72161088D01*
X123346256Y-72000147D01*
X122933779Y-71918100D01*
X122513221Y-71918100D01*
X122100744Y-72000147D01*
X121712198Y-72161088D01*
X121362517Y-72394737D01*
X121065137Y-72692117D01*
X120831488Y-73041798D01*
X120670547Y-73430344D01*
X120588500Y-73842821D01*
X115590214Y-73842821D01*
X115321562Y-73528270D01*
X115248330Y-73455038D01*
X114472740Y-72792622D01*
X114404284Y-72742886D01*
X114388953Y-72731747D01*
X113519287Y-72198815D01*
X113473148Y-72175307D01*
X113427009Y-72151797D01*
X112484681Y-71761472D01*
X112386184Y-71729469D01*
X111394398Y-71491362D01*
X111292107Y-71475161D01*
X110883500Y-71443003D01*
X110883500Y-53842821D01*
X113588500Y-53842821D01*
X113588500Y-54263379D01*
X113670547Y-54675856D01*
X113831488Y-55064402D01*
X114065137Y-55414083D01*
X114362517Y-55711463D01*
X114712198Y-55945112D01*
X115100744Y-56106053D01*
X115513221Y-56188100D01*
X115933779Y-56188100D01*
X116346256Y-56106053D01*
X116734802Y-55945112D01*
X117084483Y-55711463D01*
X117381863Y-55414083D01*
X117615512Y-55064402D01*
X117776453Y-54675856D01*
X117858500Y-54263379D01*
X117858500Y-53842821D01*
X117776453Y-53430344D01*
X117615512Y-53041798D01*
X117381863Y-52692117D01*
X117084483Y-52394737D01*
X116734802Y-52161088D01*
X116346256Y-52000147D01*
X115933779Y-51918100D01*
X115513221Y-51918100D01*
X115100744Y-52000147D01*
X114712198Y-52161088D01*
X114362517Y-52394737D01*
X114065137Y-52692117D01*
X113831488Y-53041798D01*
X113670547Y-53430344D01*
X113588500Y-53842821D01*
X110883500Y-53842821D01*
X110883500Y-36663197D01*
X111292107Y-36631039D01*
X111394398Y-36614838D01*
X112386184Y-36376731D01*
X112388615Y-36375941D01*
X112484681Y-36344728D01*
X113427009Y-35954403D01*
X113473148Y-35930893D01*
X113519287Y-35907385D01*
X114388953Y-35374453D01*
X114430846Y-35344015D01*
X114472740Y-35313578D01*
X115248330Y-34651162D01*
X115321563Y-34577929D01*
X115983978Y-33802340D01*
X116044853Y-33718553D01*
X116044854Y-33718552D01*
X116577784Y-32848887D01*
X116624803Y-32756609D01*
X116813079Y-32302067D01*
X119348500Y-32302067D01*
X119348500Y-32624133D01*
X119411332Y-32940012D01*
X119534582Y-33237563D01*
X119713513Y-33505352D01*
X119812709Y-33604548D01*
X119779006Y-33622563D01*
X119682315Y-33701915D01*
X119602963Y-33798606D01*
X119543998Y-33908920D01*
X119507688Y-34028618D01*
X119495428Y-34153100D01*
X119495428Y-35853100D01*
X119507688Y-35977582D01*
X119543998Y-36097280D01*
X119602963Y-36207594D01*
X119656722Y-36273100D01*
X119602963Y-36338606D01*
X119543998Y-36448920D01*
X119507688Y-36568618D01*
X119495428Y-36693100D01*
X119495428Y-38393100D01*
X119507688Y-38517582D01*
X119543998Y-38637280D01*
X119602963Y-38747594D01*
X119656722Y-38813100D01*
X119602963Y-38878606D01*
X119543998Y-38988920D01*
X119507688Y-39108618D01*
X119495428Y-39233100D01*
X119495428Y-40933100D01*
X119507688Y-41057582D01*
X119543998Y-41177280D01*
X119602963Y-41287594D01*
X119682315Y-41384285D01*
X119779006Y-41463637D01*
X119812709Y-41481652D01*
X119713513Y-41580848D01*
X119534582Y-41848637D01*
X119411332Y-42146188D01*
X119348500Y-42462067D01*
X119348500Y-42784133D01*
X119411332Y-43100012D01*
X119534582Y-43397563D01*
X119713513Y-43665352D01*
X119941248Y-43893087D01*
X119941267Y-43893100D01*
X119941248Y-43893113D01*
X119713513Y-44120848D01*
X119534582Y-44388637D01*
X119411332Y-44686188D01*
X119348500Y-45002067D01*
X119348500Y-45324133D01*
X119411332Y-45640012D01*
X119534582Y-45937563D01*
X119713513Y-46205352D01*
X119941248Y-46433087D01*
X119941267Y-46433100D01*
X119941248Y-46433113D01*
X119713513Y-46660848D01*
X119534582Y-46928637D01*
X119411332Y-47226188D01*
X119348500Y-47542067D01*
X119348500Y-47864133D01*
X119411332Y-48180012D01*
X119534582Y-48477563D01*
X119713513Y-48745352D01*
X119812709Y-48844548D01*
X119779006Y-48862563D01*
X119682315Y-48941915D01*
X119602963Y-49038606D01*
X119543998Y-49148920D01*
X119507688Y-49268618D01*
X119495428Y-49393100D01*
X119495428Y-51093100D01*
X119507688Y-51217582D01*
X119543998Y-51337280D01*
X119602963Y-51447594D01*
X119656722Y-51513100D01*
X119602963Y-51578606D01*
X119543998Y-51688920D01*
X119507688Y-51808618D01*
X119495428Y-51933100D01*
X119495428Y-53633100D01*
X119507688Y-53757582D01*
X119543998Y-53877280D01*
X119602963Y-53987594D01*
X119682315Y-54084285D01*
X119779006Y-54163637D01*
X119812709Y-54181652D01*
X119713513Y-54280848D01*
X119534582Y-54548637D01*
X119411332Y-54846188D01*
X119348500Y-55162067D01*
X119348500Y-55484133D01*
X119411332Y-55800012D01*
X119534582Y-56097563D01*
X119713513Y-56365352D01*
X119812709Y-56464548D01*
X119779006Y-56482563D01*
X119682315Y-56561915D01*
X119602963Y-56658606D01*
X119543998Y-56768920D01*
X119507688Y-56888618D01*
X119495428Y-57013100D01*
X119495428Y-58713100D01*
X119507688Y-58837582D01*
X119543998Y-58957280D01*
X119602963Y-59067594D01*
X119656722Y-59133100D01*
X119602963Y-59198606D01*
X119543998Y-59308920D01*
X119507688Y-59428618D01*
X119495428Y-59553100D01*
X119495428Y-61253100D01*
X119507688Y-61377582D01*
X119543998Y-61497280D01*
X119602963Y-61607594D01*
X119656722Y-61673100D01*
X119602963Y-61738606D01*
X119543998Y-61848920D01*
X119507688Y-61968618D01*
X119495428Y-62093100D01*
X119495428Y-63793100D01*
X119507688Y-63917582D01*
X119543998Y-64037280D01*
X119602963Y-64147594D01*
X119682315Y-64244285D01*
X119779006Y-64323637D01*
X119812709Y-64341652D01*
X119713513Y-64440848D01*
X119534582Y-64708637D01*
X119411332Y-65006188D01*
X119348500Y-65322067D01*
X119348500Y-65644133D01*
X119411332Y-65960012D01*
X119534582Y-66257563D01*
X119713513Y-66525352D01*
X119941248Y-66753087D01*
X119941267Y-66753100D01*
X119941248Y-66753113D01*
X119713513Y-66980848D01*
X119534582Y-67248637D01*
X119411332Y-67546188D01*
X119348500Y-67862067D01*
X119348500Y-68184133D01*
X119411332Y-68500012D01*
X119534582Y-68797563D01*
X119713513Y-69065352D01*
X119941248Y-69293087D01*
X120209037Y-69472018D01*
X120506588Y-69595268D01*
X120822467Y-69658100D01*
X121144533Y-69658100D01*
X121460412Y-69595268D01*
X121757963Y-69472018D01*
X122025752Y-69293087D01*
X122253487Y-69065352D01*
X122253500Y-69065333D01*
X122253513Y-69065352D01*
X122481248Y-69293087D01*
X122749037Y-69472018D01*
X123046588Y-69595268D01*
X123362467Y-69658100D01*
X123684533Y-69658100D01*
X124000412Y-69595268D01*
X124297963Y-69472018D01*
X124565752Y-69293087D01*
X124793487Y-69065352D01*
X124793500Y-69065333D01*
X124793513Y-69065352D01*
X125021248Y-69293087D01*
X125289037Y-69472018D01*
X125586588Y-69595268D01*
X125902467Y-69658100D01*
X126224533Y-69658100D01*
X126540412Y-69595268D01*
X126837963Y-69472018D01*
X127105752Y-69293087D01*
X127333487Y-69065352D01*
X127333500Y-69065333D01*
X127333513Y-69065352D01*
X127561248Y-69293087D01*
X127829037Y-69472018D01*
X128126588Y-69595268D01*
X128442467Y-69658100D01*
X128764533Y-69658100D01*
X129080412Y-69595268D01*
X129377963Y-69472018D01*
X129645752Y-69293087D01*
X129873487Y-69065352D01*
X129873500Y-69065333D01*
X129873513Y-69065352D01*
X130101248Y-69293087D01*
X130101267Y-69293100D01*
X130101248Y-69293113D01*
X129873513Y-69520848D01*
X129694582Y-69788637D01*
X129571332Y-70086188D01*
X129508500Y-70402067D01*
X129508500Y-70724133D01*
X129571332Y-71040012D01*
X129694582Y-71337563D01*
X129873513Y-71605352D01*
X130101248Y-71833087D01*
X130101267Y-71833100D01*
X130101248Y-71833113D01*
X129873513Y-72060848D01*
X129694582Y-72328637D01*
X129571332Y-72626188D01*
X129508500Y-72942067D01*
X129508500Y-73264133D01*
X129571332Y-73580012D01*
X129694582Y-73877563D01*
X129873513Y-74145352D01*
X130101248Y-74373087D01*
X130101267Y-74373100D01*
X130101248Y-74373113D01*
X129873513Y-74600848D01*
X129694582Y-74868637D01*
X129571332Y-75166188D01*
X129508500Y-75482067D01*
X129508500Y-75804133D01*
X129571332Y-76120012D01*
X129694582Y-76417563D01*
X129873513Y-76685352D01*
X130101248Y-76913087D01*
X130369037Y-77092018D01*
X130666588Y-77215268D01*
X130982467Y-77278100D01*
X131304533Y-77278100D01*
X131620412Y-77215268D01*
X131917963Y-77092018D01*
X132185752Y-76913087D01*
X132413487Y-76685352D01*
X132413500Y-76685333D01*
X132413513Y-76685352D01*
X132641248Y-76913087D01*
X132909037Y-77092018D01*
X133206588Y-77215268D01*
X133522467Y-77278100D01*
X133844533Y-77278100D01*
X134160412Y-77215268D01*
X134457963Y-77092018D01*
X134725752Y-76913087D01*
X134953487Y-76685352D01*
X134953500Y-76685333D01*
X134953513Y-76685352D01*
X135181248Y-76913087D01*
X135449037Y-77092018D01*
X135746588Y-77215268D01*
X136062467Y-77278100D01*
X136384533Y-77278100D01*
X136700412Y-77215268D01*
X136997963Y-77092018D01*
X137265752Y-76913087D01*
X137493487Y-76685352D01*
X137493500Y-76685333D01*
X137493513Y-76685352D01*
X137721248Y-76913087D01*
X137989037Y-77092018D01*
X138286588Y-77215268D01*
X138602467Y-77278100D01*
X138924533Y-77278100D01*
X139240412Y-77215268D01*
X139537963Y-77092018D01*
X139805752Y-76913087D01*
X140033487Y-76685352D01*
X140033500Y-76685333D01*
X140033513Y-76685352D01*
X140261248Y-76913087D01*
X140529037Y-77092018D01*
X140826588Y-77215268D01*
X141142467Y-77278100D01*
X141464533Y-77278100D01*
X141780412Y-77215268D01*
X142077963Y-77092018D01*
X142345752Y-76913087D01*
X142573487Y-76685352D01*
X142573500Y-76685333D01*
X142573513Y-76685352D01*
X142801248Y-76913087D01*
X143069037Y-77092018D01*
X143366588Y-77215268D01*
X143682467Y-77278100D01*
X144004533Y-77278100D01*
X144320412Y-77215268D01*
X144617963Y-77092018D01*
X144885752Y-76913087D01*
X145113487Y-76685352D01*
X145113500Y-76685333D01*
X145113513Y-76685352D01*
X145341248Y-76913087D01*
X145609037Y-77092018D01*
X145906588Y-77215268D01*
X146222467Y-77278100D01*
X146544533Y-77278100D01*
X146860412Y-77215268D01*
X147157963Y-77092018D01*
X147425752Y-76913087D01*
X147653487Y-76685352D01*
X147653500Y-76685333D01*
X147653513Y-76685352D01*
X147881248Y-76913087D01*
X148149037Y-77092018D01*
X148446588Y-77215268D01*
X148762467Y-77278100D01*
X149084533Y-77278100D01*
X149400412Y-77215268D01*
X149697963Y-77092018D01*
X149965752Y-76913087D01*
X150193487Y-76685352D01*
X150193500Y-76685333D01*
X150193513Y-76685352D01*
X150421248Y-76913087D01*
X150689037Y-77092018D01*
X150986588Y-77215268D01*
X151302467Y-77278100D01*
X151624533Y-77278100D01*
X151940412Y-77215268D01*
X152237963Y-77092018D01*
X152505752Y-76913087D01*
X152733487Y-76685352D01*
X152733500Y-76685333D01*
X152733513Y-76685352D01*
X152961248Y-76913087D01*
X153229037Y-77092018D01*
X153526588Y-77215268D01*
X153842467Y-77278100D01*
X154164533Y-77278100D01*
X154480412Y-77215268D01*
X154777963Y-77092018D01*
X155045752Y-76913087D01*
X155273487Y-76685352D01*
X155273500Y-76685333D01*
X155273513Y-76685352D01*
X155501248Y-76913087D01*
X155769037Y-77092018D01*
X156066588Y-77215268D01*
X156382467Y-77278100D01*
X156704533Y-77278100D01*
X157020412Y-77215268D01*
X157317963Y-77092018D01*
X157585752Y-76913087D01*
X157813487Y-76685352D01*
X157813500Y-76685333D01*
X157813513Y-76685352D01*
X158041248Y-76913087D01*
X158309037Y-77092018D01*
X158606588Y-77215268D01*
X158922467Y-77278100D01*
X159244533Y-77278100D01*
X159560412Y-77215268D01*
X159857963Y-77092018D01*
X160125752Y-76913087D01*
X160353487Y-76685352D01*
X160353500Y-76685333D01*
X160353513Y-76685352D01*
X160581248Y-76913087D01*
X160849037Y-77092018D01*
X161146588Y-77215268D01*
X161462467Y-77278100D01*
X161784533Y-77278100D01*
X162100412Y-77215268D01*
X162397963Y-77092018D01*
X162665752Y-76913087D01*
X162893487Y-76685352D01*
X162893500Y-76685333D01*
X162893513Y-76685352D01*
X163121248Y-76913087D01*
X163389037Y-77092018D01*
X163686588Y-77215268D01*
X164002467Y-77278100D01*
X164324533Y-77278100D01*
X164640412Y-77215268D01*
X164937963Y-77092018D01*
X165205752Y-76913087D01*
X165433487Y-76685352D01*
X165433500Y-76685333D01*
X165433513Y-76685352D01*
X165661248Y-76913087D01*
X165929037Y-77092018D01*
X166226588Y-77215268D01*
X166542467Y-77278100D01*
X166864533Y-77278100D01*
X167180412Y-77215268D01*
X167477963Y-77092018D01*
X167745752Y-76913087D01*
X167973487Y-76685352D01*
X167973500Y-76685333D01*
X167973513Y-76685352D01*
X168201248Y-76913087D01*
X168469037Y-77092018D01*
X168766588Y-77215268D01*
X169082467Y-77278100D01*
X169404533Y-77278100D01*
X169720412Y-77215268D01*
X170017963Y-77092018D01*
X170285752Y-76913087D01*
X170513487Y-76685352D01*
X170692418Y-76417563D01*
X170815668Y-76120012D01*
X170878500Y-75804133D01*
X170878500Y-75482067D01*
X170815668Y-75166188D01*
X170692418Y-74868637D01*
X170513487Y-74600848D01*
X170285752Y-74373113D01*
X170285733Y-74373100D01*
X170285752Y-74373087D01*
X170513487Y-74145352D01*
X170588500Y-74033087D01*
X170588500Y-74263379D01*
X170670547Y-74675856D01*
X170831488Y-75064402D01*
X171065137Y-75414083D01*
X171362517Y-75711463D01*
X171712198Y-75945112D01*
X172100744Y-76106053D01*
X172513221Y-76188100D01*
X172933779Y-76188100D01*
X173346256Y-76106053D01*
X173734802Y-75945112D01*
X174084483Y-75711463D01*
X174381863Y-75414083D01*
X174615512Y-75064402D01*
X174776453Y-74675856D01*
X174858500Y-74263379D01*
X174858500Y-73842821D01*
X174776453Y-73430344D01*
X174615512Y-73041798D01*
X174381863Y-72692117D01*
X174084483Y-72394737D01*
X173734802Y-72161088D01*
X173346256Y-72000147D01*
X172933779Y-71918100D01*
X172513221Y-71918100D01*
X172100744Y-72000147D01*
X171712198Y-72161088D01*
X171362517Y-72394737D01*
X171065137Y-72692117D01*
X170878500Y-72971439D01*
X170878500Y-72942067D01*
X170815668Y-72626188D01*
X170692418Y-72328637D01*
X170513487Y-72060848D01*
X170285752Y-71833113D01*
X170285733Y-71833100D01*
X170285752Y-71833087D01*
X170513487Y-71605352D01*
X170692418Y-71337563D01*
X170815668Y-71040012D01*
X170878500Y-70724133D01*
X170878500Y-70402067D01*
X170815668Y-70086188D01*
X170692418Y-69788637D01*
X170513487Y-69520848D01*
X170285752Y-69293113D01*
X170285733Y-69293100D01*
X170285752Y-69293087D01*
X170513487Y-69065352D01*
X170692418Y-68797563D01*
X170759607Y-68635354D01*
X171009037Y-68802018D01*
X171306588Y-68925268D01*
X171622467Y-68988100D01*
X171944533Y-68988100D01*
X172260412Y-68925268D01*
X172557963Y-68802018D01*
X172825752Y-68623087D01*
X173053487Y-68395352D01*
X173158559Y-68238100D01*
X176885428Y-68238100D01*
X176885428Y-68553100D01*
X176897688Y-68677582D01*
X176933998Y-68797280D01*
X176992963Y-68907594D01*
X177072315Y-69004285D01*
X177169006Y-69083637D01*
X177279320Y-69142602D01*
X177399018Y-69178912D01*
X177523500Y-69191172D01*
X179923500Y-69191172D01*
X180047982Y-69178912D01*
X180167680Y-69142602D01*
X180277994Y-69083637D01*
X180374685Y-69004285D01*
X180454037Y-68907594D01*
X180513002Y-68797280D01*
X180549312Y-68677582D01*
X180561572Y-68553100D01*
X180561572Y-66153100D01*
X180549312Y-66028618D01*
X180513002Y-65908920D01*
X180454037Y-65798606D01*
X180374685Y-65701915D01*
X180277994Y-65622563D01*
X180167680Y-65563598D01*
X180047982Y-65527288D01*
X179923500Y-65515028D01*
X179506338Y-65515028D01*
X179592699Y-65479256D01*
X179893244Y-65278438D01*
X180148838Y-65022844D01*
X180349656Y-64722299D01*
X180487982Y-64388350D01*
X180558500Y-64033832D01*
X180558500Y-63672368D01*
X180487982Y-63317850D01*
X180349656Y-62983901D01*
X180148838Y-62683356D01*
X179893244Y-62427762D01*
X179592699Y-62226944D01*
X179293713Y-62103100D01*
X179592699Y-61979256D01*
X179893244Y-61778438D01*
X180148838Y-61522844D01*
X180349656Y-61222299D01*
X180487982Y-60888350D01*
X180558500Y-60533832D01*
X180558500Y-60172368D01*
X180487982Y-59817850D01*
X180349656Y-59483901D01*
X180148838Y-59183356D01*
X179893244Y-58927762D01*
X179592699Y-58726944D01*
X179258750Y-58588618D01*
X178904232Y-58518100D01*
X178542768Y-58518100D01*
X178188250Y-58588618D01*
X177854301Y-58726944D01*
X177553756Y-58927762D01*
X177298162Y-59183356D01*
X177107902Y-59468100D01*
X173158559Y-59468100D01*
X173053487Y-59310848D01*
X172825752Y-59083113D01*
X172557963Y-58904182D01*
X172260412Y-58780932D01*
X171944533Y-58718100D01*
X171622467Y-58718100D01*
X171306588Y-58780932D01*
X171009037Y-58904182D01*
X170741248Y-59083113D01*
X170513513Y-59310848D01*
X170406594Y-59470864D01*
X170396975Y-59456468D01*
X170190132Y-59249625D01*
X170128500Y-59208444D01*
X170128500Y-59057756D01*
X170190132Y-59016575D01*
X170396975Y-58809732D01*
X170559490Y-58566511D01*
X170671432Y-58296258D01*
X170728500Y-58009360D01*
X170728500Y-57716840D01*
X170671432Y-57429942D01*
X170559490Y-57159689D01*
X170396975Y-56916468D01*
X170190132Y-56709625D01*
X170150736Y-56683302D01*
X170285752Y-56593087D01*
X170420689Y-56458150D01*
X172368055Y-56458150D01*
X172463758Y-56722499D01*
X172753287Y-56863338D01*
X173064729Y-56944985D01*
X173386115Y-56964305D01*
X173705095Y-56920554D01*
X174009411Y-56815414D01*
X174183242Y-56722499D01*
X174278945Y-56458150D01*
X173323500Y-55502705D01*
X172368055Y-56458150D01*
X170420689Y-56458150D01*
X170513487Y-56365352D01*
X170692418Y-56097563D01*
X170815668Y-55800012D01*
X170878500Y-55484133D01*
X170878500Y-55385715D01*
X171682295Y-55385715D01*
X171726046Y-55704695D01*
X171831186Y-56009011D01*
X171924101Y-56182842D01*
X172188450Y-56278545D01*
X173143895Y-55323100D01*
X173503105Y-55323100D01*
X174458550Y-56278545D01*
X174722899Y-56182842D01*
X174863738Y-55893313D01*
X174945385Y-55581871D01*
X174964705Y-55260485D01*
X174920954Y-54941505D01*
X174815814Y-54637189D01*
X174722899Y-54463358D01*
X174458550Y-54367655D01*
X173503105Y-55323100D01*
X173143895Y-55323100D01*
X172188450Y-54367655D01*
X171924101Y-54463358D01*
X171783262Y-54752887D01*
X171701615Y-55064329D01*
X171682295Y-55385715D01*
X170878500Y-55385715D01*
X170878500Y-55162067D01*
X170815668Y-54846188D01*
X170692418Y-54548637D01*
X170513487Y-54280848D01*
X170285752Y-54053113D01*
X170150736Y-53962898D01*
X170190132Y-53936575D01*
X170208557Y-53918150D01*
X172368055Y-53918150D01*
X172416911Y-54053100D01*
X172368055Y-54188050D01*
X173323500Y-55143495D01*
X174278945Y-54188050D01*
X174230089Y-54053100D01*
X174278945Y-53918150D01*
X174203616Y-53842821D01*
X177588500Y-53842821D01*
X177588500Y-54263379D01*
X177670547Y-54675856D01*
X177831488Y-55064402D01*
X178065137Y-55414083D01*
X178362517Y-55711463D01*
X178712198Y-55945112D01*
X179100744Y-56106053D01*
X179513221Y-56188100D01*
X179933779Y-56188100D01*
X180346256Y-56106053D01*
X180734802Y-55945112D01*
X181084483Y-55711463D01*
X181381863Y-55414083D01*
X181615512Y-55064402D01*
X181776453Y-54675856D01*
X181858500Y-54263379D01*
X181858500Y-53842821D01*
X181776453Y-53430344D01*
X181615512Y-53041798D01*
X181381863Y-52692117D01*
X181084483Y-52394737D01*
X180734802Y-52161088D01*
X180346256Y-52000147D01*
X179933779Y-51918100D01*
X179513221Y-51918100D01*
X179100744Y-52000147D01*
X178712198Y-52161088D01*
X178362517Y-52394737D01*
X178065137Y-52692117D01*
X177831488Y-53041798D01*
X177670547Y-53430344D01*
X177588500Y-53842821D01*
X174203616Y-53842821D01*
X173323500Y-52962705D01*
X172368055Y-53918150D01*
X170208557Y-53918150D01*
X170396975Y-53729732D01*
X170559490Y-53486511D01*
X170671432Y-53216258D01*
X170728500Y-52929360D01*
X170728500Y-52845715D01*
X171682295Y-52845715D01*
X171726046Y-53164695D01*
X171831186Y-53469011D01*
X171924101Y-53642842D01*
X172188450Y-53738545D01*
X173143895Y-52783100D01*
X173503105Y-52783100D01*
X174458550Y-53738545D01*
X174722899Y-53642842D01*
X174863738Y-53353313D01*
X174945385Y-53041871D01*
X174964705Y-52720485D01*
X174920954Y-52401505D01*
X174815814Y-52097189D01*
X174722899Y-51923358D01*
X174458550Y-51827655D01*
X173503105Y-52783100D01*
X173143895Y-52783100D01*
X172188450Y-51827655D01*
X171924101Y-51923358D01*
X171783262Y-52212887D01*
X171701615Y-52524329D01*
X171682295Y-52845715D01*
X170728500Y-52845715D01*
X170728500Y-52636840D01*
X170671432Y-52349942D01*
X170559490Y-52079689D01*
X170396975Y-51836468D01*
X170208557Y-51648050D01*
X172368055Y-51648050D01*
X173323500Y-52603495D01*
X174278945Y-51648050D01*
X174183242Y-51383701D01*
X173893713Y-51242862D01*
X173582271Y-51161215D01*
X173260885Y-51141895D01*
X172941905Y-51185646D01*
X172637589Y-51290786D01*
X172463758Y-51383701D01*
X172368055Y-51648050D01*
X170208557Y-51648050D01*
X170190132Y-51629625D01*
X170128500Y-51588444D01*
X170128500Y-51437756D01*
X170190132Y-51396575D01*
X170396975Y-51189732D01*
X170559490Y-50946511D01*
X170671432Y-50676258D01*
X170728500Y-50389360D01*
X170728500Y-50096840D01*
X170671432Y-49809942D01*
X170559490Y-49539689D01*
X170396975Y-49296468D01*
X170190132Y-49089625D01*
X170150736Y-49063302D01*
X170285752Y-48973087D01*
X170493475Y-48765364D01*
X170513513Y-48795352D01*
X170741248Y-49023087D01*
X171009037Y-49202018D01*
X171306588Y-49325268D01*
X171622467Y-49388100D01*
X171944533Y-49388100D01*
X172260412Y-49325268D01*
X172557963Y-49202018D01*
X172825752Y-49023087D01*
X173053487Y-48795352D01*
X173158559Y-48638100D01*
X176885428Y-48638100D01*
X176885428Y-48953100D01*
X176897688Y-49077582D01*
X176933998Y-49197280D01*
X176992963Y-49307594D01*
X177072315Y-49404285D01*
X177169006Y-49483637D01*
X177279320Y-49542602D01*
X177399018Y-49578912D01*
X177523500Y-49591172D01*
X179923500Y-49591172D01*
X180047982Y-49578912D01*
X180167680Y-49542602D01*
X180277994Y-49483637D01*
X180374685Y-49404285D01*
X180454037Y-49307594D01*
X180513002Y-49197280D01*
X180549312Y-49077582D01*
X180561572Y-48953100D01*
X180561572Y-46553100D01*
X180549312Y-46428618D01*
X180513002Y-46308920D01*
X180454037Y-46198606D01*
X180374685Y-46101915D01*
X180277994Y-46022563D01*
X180167680Y-45963598D01*
X180047982Y-45927288D01*
X179923500Y-45915028D01*
X179506338Y-45915028D01*
X179592699Y-45879256D01*
X179893244Y-45678438D01*
X180148838Y-45422844D01*
X180349656Y-45122299D01*
X180487982Y-44788350D01*
X180558500Y-44433832D01*
X180558500Y-44072368D01*
X180487982Y-43717850D01*
X180349656Y-43383901D01*
X180148838Y-43083356D01*
X179893244Y-42827762D01*
X179592699Y-42626944D01*
X179293713Y-42503100D01*
X179592699Y-42379256D01*
X179893244Y-42178438D01*
X180148838Y-41922844D01*
X180349656Y-41622299D01*
X180487982Y-41288350D01*
X180558500Y-40933832D01*
X180558500Y-40572368D01*
X180487982Y-40217850D01*
X180349656Y-39883901D01*
X180148838Y-39583356D01*
X179893244Y-39327762D01*
X179592699Y-39126944D01*
X179258750Y-38988618D01*
X178904232Y-38918100D01*
X178542768Y-38918100D01*
X178188250Y-38988618D01*
X177854301Y-39126944D01*
X177553756Y-39327762D01*
X177298162Y-39583356D01*
X177107902Y-39868100D01*
X173158559Y-39868100D01*
X173053487Y-39710848D01*
X172825752Y-39483113D01*
X172557963Y-39304182D01*
X172260412Y-39180932D01*
X171944533Y-39118100D01*
X171622467Y-39118100D01*
X171306588Y-39180932D01*
X171009037Y-39304182D01*
X170741248Y-39483113D01*
X170643018Y-39581343D01*
X170559490Y-39379689D01*
X170396975Y-39136468D01*
X170190132Y-38929625D01*
X170015740Y-38813100D01*
X170190132Y-38696575D01*
X170396975Y-38489732D01*
X170559490Y-38246511D01*
X170671432Y-37976258D01*
X170728500Y-37689360D01*
X170728500Y-37396840D01*
X170671432Y-37109942D01*
X170559490Y-36839689D01*
X170396975Y-36596468D01*
X170190132Y-36389625D01*
X170128500Y-36348444D01*
X170128500Y-36197756D01*
X170190132Y-36156575D01*
X170396975Y-35949732D01*
X170559490Y-35706511D01*
X170671432Y-35436258D01*
X170728500Y-35149360D01*
X170728500Y-34856840D01*
X170712782Y-34777820D01*
X170831488Y-35064402D01*
X171065137Y-35414083D01*
X171362517Y-35711463D01*
X171712198Y-35945112D01*
X172100744Y-36106053D01*
X172513221Y-36188100D01*
X172933779Y-36188100D01*
X173346256Y-36106053D01*
X173734802Y-35945112D01*
X174084483Y-35711463D01*
X174381863Y-35414083D01*
X174615512Y-35064402D01*
X174776453Y-34675856D01*
X174858500Y-34263379D01*
X174858500Y-33842821D01*
X174776453Y-33430344D01*
X174615512Y-33041798D01*
X174381863Y-32692117D01*
X174084483Y-32394737D01*
X173734802Y-32161088D01*
X173346256Y-32000147D01*
X172933779Y-31918100D01*
X172513221Y-31918100D01*
X172100744Y-32000147D01*
X171712198Y-32161088D01*
X171362517Y-32394737D01*
X171065137Y-32692117D01*
X170831488Y-33041798D01*
X170670547Y-33430344D01*
X170588500Y-33842821D01*
X170588500Y-34263379D01*
X170629197Y-34467978D01*
X170559490Y-34299689D01*
X170396975Y-34056468D01*
X170190132Y-33849625D01*
X170177400Y-33841118D01*
X170177400Y-33805486D01*
X170285752Y-33733087D01*
X170513487Y-33505352D01*
X170692418Y-33237563D01*
X170815668Y-32940012D01*
X170878500Y-32624133D01*
X170878500Y-32302067D01*
X170815668Y-31986188D01*
X170692418Y-31688637D01*
X170513487Y-31420848D01*
X170285752Y-31193113D01*
X170017963Y-31014182D01*
X169720412Y-30890932D01*
X169404533Y-30828100D01*
X169082467Y-30828100D01*
X168766588Y-30890932D01*
X168469037Y-31014182D01*
X168201248Y-31193113D01*
X167973513Y-31420848D01*
X167973500Y-31420867D01*
X167973487Y-31420848D01*
X167745752Y-31193113D01*
X167477963Y-31014182D01*
X167180412Y-30890932D01*
X166864533Y-30828100D01*
X166542467Y-30828100D01*
X166226588Y-30890932D01*
X165929037Y-31014182D01*
X165661248Y-31193113D01*
X165433513Y-31420848D01*
X165433500Y-31420867D01*
X165433487Y-31420848D01*
X165205752Y-31193113D01*
X164937963Y-31014182D01*
X164640412Y-30890932D01*
X164324533Y-30828100D01*
X164002467Y-30828100D01*
X163686588Y-30890932D01*
X163389037Y-31014182D01*
X163121248Y-31193113D01*
X162893513Y-31420848D01*
X162893500Y-31420867D01*
X162893487Y-31420848D01*
X162665752Y-31193113D01*
X162397963Y-31014182D01*
X162100412Y-30890932D01*
X161784533Y-30828100D01*
X161462467Y-30828100D01*
X161146588Y-30890932D01*
X160849037Y-31014182D01*
X160581248Y-31193113D01*
X160353513Y-31420848D01*
X160353500Y-31420867D01*
X160353487Y-31420848D01*
X160125752Y-31193113D01*
X159857963Y-31014182D01*
X159560412Y-30890932D01*
X159244533Y-30828100D01*
X158922467Y-30828100D01*
X158606588Y-30890932D01*
X158309037Y-31014182D01*
X158041248Y-31193113D01*
X157813513Y-31420848D01*
X157813500Y-31420867D01*
X157813487Y-31420848D01*
X157585752Y-31193113D01*
X157317963Y-31014182D01*
X157020412Y-30890932D01*
X156704533Y-30828100D01*
X156382467Y-30828100D01*
X156066588Y-30890932D01*
X155769037Y-31014182D01*
X155501248Y-31193113D01*
X155273513Y-31420848D01*
X155273500Y-31420867D01*
X155273487Y-31420848D01*
X155045752Y-31193113D01*
X154777963Y-31014182D01*
X154480412Y-30890932D01*
X154164533Y-30828100D01*
X153842467Y-30828100D01*
X153526588Y-30890932D01*
X153229037Y-31014182D01*
X152961248Y-31193113D01*
X152733513Y-31420848D01*
X152733500Y-31420867D01*
X152733487Y-31420848D01*
X152505752Y-31193113D01*
X152237963Y-31014182D01*
X151940412Y-30890932D01*
X151624533Y-30828100D01*
X151302467Y-30828100D01*
X150986588Y-30890932D01*
X150689037Y-31014182D01*
X150421248Y-31193113D01*
X150193513Y-31420848D01*
X150193500Y-31420867D01*
X150193487Y-31420848D01*
X149965752Y-31193113D01*
X149697963Y-31014182D01*
X149400412Y-30890932D01*
X149084533Y-30828100D01*
X148762467Y-30828100D01*
X148446588Y-30890932D01*
X148149037Y-31014182D01*
X147881248Y-31193113D01*
X147653513Y-31420848D01*
X147653500Y-31420867D01*
X147653487Y-31420848D01*
X147425752Y-31193113D01*
X147157963Y-31014182D01*
X146860412Y-30890932D01*
X146544533Y-30828100D01*
X146222467Y-30828100D01*
X145906588Y-30890932D01*
X145609037Y-31014182D01*
X145341248Y-31193113D01*
X145113513Y-31420848D01*
X145113500Y-31420867D01*
X145113487Y-31420848D01*
X144885752Y-31193113D01*
X144617963Y-31014182D01*
X144320412Y-30890932D01*
X144004533Y-30828100D01*
X143682467Y-30828100D01*
X143366588Y-30890932D01*
X143069037Y-31014182D01*
X142801248Y-31193113D01*
X142573513Y-31420848D01*
X142573500Y-31420867D01*
X142573487Y-31420848D01*
X142345752Y-31193113D01*
X142077963Y-31014182D01*
X141780412Y-30890932D01*
X141464533Y-30828100D01*
X141142467Y-30828100D01*
X140826588Y-30890932D01*
X140529037Y-31014182D01*
X140261248Y-31193113D01*
X140033513Y-31420848D01*
X140033500Y-31420867D01*
X140033487Y-31420848D01*
X139805752Y-31193113D01*
X139537963Y-31014182D01*
X139240412Y-30890932D01*
X138924533Y-30828100D01*
X138602467Y-30828100D01*
X138286588Y-30890932D01*
X137989037Y-31014182D01*
X137721248Y-31193113D01*
X137493513Y-31420848D01*
X137493500Y-31420867D01*
X137493487Y-31420848D01*
X137265752Y-31193113D01*
X136997963Y-31014182D01*
X136700412Y-30890932D01*
X136384533Y-30828100D01*
X136062467Y-30828100D01*
X135746588Y-30890932D01*
X135449037Y-31014182D01*
X135181248Y-31193113D01*
X134953513Y-31420848D01*
X134953500Y-31420867D01*
X134953487Y-31420848D01*
X134725752Y-31193113D01*
X134457963Y-31014182D01*
X134160412Y-30890932D01*
X133844533Y-30828100D01*
X133522467Y-30828100D01*
X133206588Y-30890932D01*
X132909037Y-31014182D01*
X132641248Y-31193113D01*
X132413513Y-31420848D01*
X132413500Y-31420867D01*
X132413487Y-31420848D01*
X132185752Y-31193113D01*
X131917963Y-31014182D01*
X131620412Y-30890932D01*
X131304533Y-30828100D01*
X130982467Y-30828100D01*
X130666588Y-30890932D01*
X130369037Y-31014182D01*
X130101248Y-31193113D01*
X129873513Y-31420848D01*
X129873500Y-31420867D01*
X129873487Y-31420848D01*
X129645752Y-31193113D01*
X129377963Y-31014182D01*
X129080412Y-30890932D01*
X128764533Y-30828100D01*
X128442467Y-30828100D01*
X128126588Y-30890932D01*
X127829037Y-31014182D01*
X127561248Y-31193113D01*
X127333513Y-31420848D01*
X127333500Y-31420867D01*
X127333487Y-31420848D01*
X127105752Y-31193113D01*
X126837963Y-31014182D01*
X126540412Y-30890932D01*
X126224533Y-30828100D01*
X125902467Y-30828100D01*
X125586588Y-30890932D01*
X125289037Y-31014182D01*
X125021248Y-31193113D01*
X124793513Y-31420848D01*
X124793500Y-31420867D01*
X124793487Y-31420848D01*
X124565752Y-31193113D01*
X124297963Y-31014182D01*
X124000412Y-30890932D01*
X123684533Y-30828100D01*
X123362467Y-30828100D01*
X123046588Y-30890932D01*
X122749037Y-31014182D01*
X122481248Y-31193113D01*
X122253513Y-31420848D01*
X122253500Y-31420867D01*
X122253487Y-31420848D01*
X122025752Y-31193113D01*
X121757963Y-31014182D01*
X121460412Y-30890932D01*
X121144533Y-30828100D01*
X120822467Y-30828100D01*
X120506588Y-30890932D01*
X120209037Y-31014182D01*
X119941248Y-31193113D01*
X119713513Y-31420848D01*
X119534582Y-31688637D01*
X119411332Y-31986188D01*
X119348500Y-32302067D01*
X116813079Y-32302067D01*
X117015127Y-31814281D01*
X117047131Y-31715784D01*
X117285238Y-30723998D01*
X117301439Y-30621707D01*
X117333597Y-30213100D01*
X178113403Y-30213100D01*
X178145561Y-30621707D01*
G37*
X178145561Y-30621707D02*
X178161762Y-30723998D01*
X178399869Y-31715784D01*
X178431872Y-31814281D01*
X178822197Y-32756609D01*
X178845707Y-32802748D01*
X178869215Y-32848887D01*
X179402147Y-33718553D01*
X179428329Y-33754589D01*
X179463022Y-33802340D01*
X180125438Y-34577930D01*
X180198670Y-34651162D01*
X180974260Y-35313578D01*
X181058047Y-35374453D01*
X181927713Y-35907384D01*
X182019991Y-35954403D01*
X182962319Y-36344727D01*
X183060816Y-36376731D01*
X184052602Y-36614838D01*
X184154893Y-36631039D01*
X184563500Y-36663197D01*
X184563501Y-71443003D01*
X184154893Y-71475161D01*
X184052602Y-71491362D01*
X183060816Y-71729469D01*
X182962319Y-71761473D01*
X182019991Y-72151797D01*
X181929118Y-72198100D01*
X181927713Y-72198816D01*
X181058047Y-72731747D01*
X180974260Y-72792622D01*
X180198670Y-73455038D01*
X180125438Y-73528270D01*
X179463022Y-74303860D01*
X179432585Y-74345754D01*
X179402147Y-74387647D01*
X178869215Y-75257313D01*
X178849892Y-75295238D01*
X178822197Y-75349591D01*
X178431872Y-76291919D01*
X178402437Y-76382511D01*
X178399869Y-76390416D01*
X178161762Y-77382202D01*
X178145561Y-77484493D01*
X178113403Y-77893100D01*
X117333597Y-77893100D01*
X117301439Y-77484493D01*
X117285238Y-77382202D01*
X117047131Y-76390416D01*
X117015127Y-76291919D01*
X116624803Y-75349591D01*
X116577784Y-75257313D01*
X116044853Y-74387647D01*
X115983978Y-74303860D01*
X115590214Y-73842821D01*
X120588500Y-73842821D01*
X120588500Y-74263379D01*
X120670547Y-74675856D01*
X120831488Y-75064402D01*
X121065137Y-75414083D01*
X121362517Y-75711463D01*
X121712198Y-75945112D01*
X122100744Y-76106053D01*
X122513221Y-76188100D01*
X122933779Y-76188100D01*
X123346256Y-76106053D01*
X123734802Y-75945112D01*
X124084483Y-75711463D01*
X124381863Y-75414083D01*
X124615512Y-75064402D01*
X124776453Y-74675856D01*
X124858500Y-74263379D01*
X124858500Y-73842821D01*
X124776453Y-73430344D01*
X124615512Y-73041798D01*
X124381863Y-72692117D01*
X124084483Y-72394737D01*
X123734802Y-72161088D01*
X123346256Y-72000147D01*
X122933779Y-71918100D01*
X122513221Y-71918100D01*
X122100744Y-72000147D01*
X121712198Y-72161088D01*
X121362517Y-72394737D01*
X121065137Y-72692117D01*
X120831488Y-73041798D01*
X120670547Y-73430344D01*
X120588500Y-73842821D01*
X115590214Y-73842821D01*
X115321562Y-73528270D01*
X115248330Y-73455038D01*
X114472740Y-72792622D01*
X114404284Y-72742886D01*
X114388953Y-72731747D01*
X113519287Y-72198815D01*
X113473148Y-72175307D01*
X113427009Y-72151797D01*
X112484681Y-71761472D01*
X112386184Y-71729469D01*
X111394398Y-71491362D01*
X111292107Y-71475161D01*
X110883500Y-71443003D01*
X110883500Y-53842821D01*
X113588500Y-53842821D01*
X113588500Y-54263379D01*
X113670547Y-54675856D01*
X113831488Y-55064402D01*
X114065137Y-55414083D01*
X114362517Y-55711463D01*
X114712198Y-55945112D01*
X115100744Y-56106053D01*
X115513221Y-56188100D01*
X115933779Y-56188100D01*
X116346256Y-56106053D01*
X116734802Y-55945112D01*
X117084483Y-55711463D01*
X117381863Y-55414083D01*
X117615512Y-55064402D01*
X117776453Y-54675856D01*
X117858500Y-54263379D01*
X117858500Y-53842821D01*
X117776453Y-53430344D01*
X117615512Y-53041798D01*
X117381863Y-52692117D01*
X117084483Y-52394737D01*
X116734802Y-52161088D01*
X116346256Y-52000147D01*
X115933779Y-51918100D01*
X115513221Y-51918100D01*
X115100744Y-52000147D01*
X114712198Y-52161088D01*
X114362517Y-52394737D01*
X114065137Y-52692117D01*
X113831488Y-53041798D01*
X113670547Y-53430344D01*
X113588500Y-53842821D01*
X110883500Y-53842821D01*
X110883500Y-36663197D01*
X111292107Y-36631039D01*
X111394398Y-36614838D01*
X112386184Y-36376731D01*
X112388615Y-36375941D01*
X112484681Y-36344728D01*
X113427009Y-35954403D01*
X113473148Y-35930893D01*
X113519287Y-35907385D01*
X114388953Y-35374453D01*
X114430846Y-35344015D01*
X114472740Y-35313578D01*
X115248330Y-34651162D01*
X115321563Y-34577929D01*
X115983978Y-33802340D01*
X116044853Y-33718553D01*
X116044854Y-33718552D01*
X116577784Y-32848887D01*
X116624803Y-32756609D01*
X116813079Y-32302067D01*
X119348500Y-32302067D01*
X119348500Y-32624133D01*
X119411332Y-32940012D01*
X119534582Y-33237563D01*
X119713513Y-33505352D01*
X119812709Y-33604548D01*
X119779006Y-33622563D01*
X119682315Y-33701915D01*
X119602963Y-33798606D01*
X119543998Y-33908920D01*
X119507688Y-34028618D01*
X119495428Y-34153100D01*
X119495428Y-35853100D01*
X119507688Y-35977582D01*
X119543998Y-36097280D01*
X119602963Y-36207594D01*
X119656722Y-36273100D01*
X119602963Y-36338606D01*
X119543998Y-36448920D01*
X119507688Y-36568618D01*
X119495428Y-36693100D01*
X119495428Y-38393100D01*
X119507688Y-38517582D01*
X119543998Y-38637280D01*
X119602963Y-38747594D01*
X119656722Y-38813100D01*
X119602963Y-38878606D01*
X119543998Y-38988920D01*
X119507688Y-39108618D01*
X119495428Y-39233100D01*
X119495428Y-40933100D01*
X119507688Y-41057582D01*
X119543998Y-41177280D01*
X119602963Y-41287594D01*
X119682315Y-41384285D01*
X119779006Y-41463637D01*
X119812709Y-41481652D01*
X119713513Y-41580848D01*
X119534582Y-41848637D01*
X119411332Y-42146188D01*
X119348500Y-42462067D01*
X119348500Y-42784133D01*
X119411332Y-43100012D01*
X119534582Y-43397563D01*
X119713513Y-43665352D01*
X119941248Y-43893087D01*
X119941267Y-43893100D01*
X119941248Y-43893113D01*
X119713513Y-44120848D01*
X119534582Y-44388637D01*
X119411332Y-44686188D01*
X119348500Y-45002067D01*
X119348500Y-45324133D01*
X119411332Y-45640012D01*
X119534582Y-45937563D01*
X119713513Y-46205352D01*
X119941248Y-46433087D01*
X119941267Y-46433100D01*
X119941248Y-46433113D01*
X119713513Y-46660848D01*
X119534582Y-46928637D01*
X119411332Y-47226188D01*
X119348500Y-47542067D01*
X119348500Y-47864133D01*
X119411332Y-48180012D01*
X119534582Y-48477563D01*
X119713513Y-48745352D01*
X119812709Y-48844548D01*
X119779006Y-48862563D01*
X119682315Y-48941915D01*
X119602963Y-49038606D01*
X119543998Y-49148920D01*
X119507688Y-49268618D01*
X119495428Y-49393100D01*
X119495428Y-51093100D01*
X119507688Y-51217582D01*
X119543998Y-51337280D01*
X119602963Y-51447594D01*
X119656722Y-51513100D01*
X119602963Y-51578606D01*
X119543998Y-51688920D01*
X119507688Y-51808618D01*
X119495428Y-51933100D01*
X119495428Y-53633100D01*
X119507688Y-53757582D01*
X119543998Y-53877280D01*
X119602963Y-53987594D01*
X119682315Y-54084285D01*
X119779006Y-54163637D01*
X119812709Y-54181652D01*
X119713513Y-54280848D01*
X119534582Y-54548637D01*
X119411332Y-54846188D01*
X119348500Y-55162067D01*
X119348500Y-55484133D01*
X119411332Y-55800012D01*
X119534582Y-56097563D01*
X119713513Y-56365352D01*
X119812709Y-56464548D01*
X119779006Y-56482563D01*
X119682315Y-56561915D01*
X119602963Y-56658606D01*
X119543998Y-56768920D01*
X119507688Y-56888618D01*
X119495428Y-57013100D01*
X119495428Y-58713100D01*
X119507688Y-58837582D01*
X119543998Y-58957280D01*
X119602963Y-59067594D01*
X119656722Y-59133100D01*
X119602963Y-59198606D01*
X119543998Y-59308920D01*
X119507688Y-59428618D01*
X119495428Y-59553100D01*
X119495428Y-61253100D01*
X119507688Y-61377582D01*
X119543998Y-61497280D01*
X119602963Y-61607594D01*
X119656722Y-61673100D01*
X119602963Y-61738606D01*
X119543998Y-61848920D01*
X119507688Y-61968618D01*
X119495428Y-62093100D01*
X119495428Y-63793100D01*
X119507688Y-63917582D01*
X119543998Y-64037280D01*
X119602963Y-64147594D01*
X119682315Y-64244285D01*
X119779006Y-64323637D01*
X119812709Y-64341652D01*
X119713513Y-64440848D01*
X119534582Y-64708637D01*
X119411332Y-65006188D01*
X119348500Y-65322067D01*
X119348500Y-65644133D01*
X119411332Y-65960012D01*
X119534582Y-66257563D01*
X119713513Y-66525352D01*
X119941248Y-66753087D01*
X119941267Y-66753100D01*
X119941248Y-66753113D01*
X119713513Y-66980848D01*
X119534582Y-67248637D01*
X119411332Y-67546188D01*
X119348500Y-67862067D01*
X119348500Y-68184133D01*
X119411332Y-68500012D01*
X119534582Y-68797563D01*
X119713513Y-69065352D01*
X119941248Y-69293087D01*
X120209037Y-69472018D01*
X120506588Y-69595268D01*
X120822467Y-69658100D01*
X121144533Y-69658100D01*
X121460412Y-69595268D01*
X121757963Y-69472018D01*
X122025752Y-69293087D01*
X122253487Y-69065352D01*
X122253500Y-69065333D01*
X122253513Y-69065352D01*
X122481248Y-69293087D01*
X122749037Y-69472018D01*
X123046588Y-69595268D01*
X123362467Y-69658100D01*
X123684533Y-69658100D01*
X124000412Y-69595268D01*
X124297963Y-69472018D01*
X124565752Y-69293087D01*
X124793487Y-69065352D01*
X124793500Y-69065333D01*
X124793513Y-69065352D01*
X125021248Y-69293087D01*
X125289037Y-69472018D01*
X125586588Y-69595268D01*
X125902467Y-69658100D01*
X126224533Y-69658100D01*
X126540412Y-69595268D01*
X126837963Y-69472018D01*
X127105752Y-69293087D01*
X127333487Y-69065352D01*
X127333500Y-69065333D01*
X127333513Y-69065352D01*
X127561248Y-69293087D01*
X127829037Y-69472018D01*
X128126588Y-69595268D01*
X128442467Y-69658100D01*
X128764533Y-69658100D01*
X129080412Y-69595268D01*
X129377963Y-69472018D01*
X129645752Y-69293087D01*
X129873487Y-69065352D01*
X129873500Y-69065333D01*
X129873513Y-69065352D01*
X130101248Y-69293087D01*
X130101267Y-69293100D01*
X130101248Y-69293113D01*
X129873513Y-69520848D01*
X129694582Y-69788637D01*
X129571332Y-70086188D01*
X129508500Y-70402067D01*
X129508500Y-70724133D01*
X129571332Y-71040012D01*
X129694582Y-71337563D01*
X129873513Y-71605352D01*
X130101248Y-71833087D01*
X130101267Y-71833100D01*
X130101248Y-71833113D01*
X129873513Y-72060848D01*
X129694582Y-72328637D01*
X129571332Y-72626188D01*
X129508500Y-72942067D01*
X129508500Y-73264133D01*
X129571332Y-73580012D01*
X129694582Y-73877563D01*
X129873513Y-74145352D01*
X130101248Y-74373087D01*
X130101267Y-74373100D01*
X130101248Y-74373113D01*
X129873513Y-74600848D01*
X129694582Y-74868637D01*
X129571332Y-75166188D01*
X129508500Y-75482067D01*
X129508500Y-75804133D01*
X129571332Y-76120012D01*
X129694582Y-76417563D01*
X129873513Y-76685352D01*
X130101248Y-76913087D01*
X130369037Y-77092018D01*
X130666588Y-77215268D01*
X130982467Y-77278100D01*
X131304533Y-77278100D01*
X131620412Y-77215268D01*
X131917963Y-77092018D01*
X132185752Y-76913087D01*
X132413487Y-76685352D01*
X132413500Y-76685333D01*
X132413513Y-76685352D01*
X132641248Y-76913087D01*
X132909037Y-77092018D01*
X133206588Y-77215268D01*
X133522467Y-77278100D01*
X133844533Y-77278100D01*
X134160412Y-77215268D01*
X134457963Y-77092018D01*
X134725752Y-76913087D01*
X134953487Y-76685352D01*
X134953500Y-76685333D01*
X134953513Y-76685352D01*
X135181248Y-76913087D01*
X135449037Y-77092018D01*
X135746588Y-77215268D01*
X136062467Y-77278100D01*
X136384533Y-77278100D01*
X136700412Y-77215268D01*
X136997963Y-77092018D01*
X137265752Y-76913087D01*
X137493487Y-76685352D01*
X137493500Y-76685333D01*
X137493513Y-76685352D01*
X137721248Y-76913087D01*
X137989037Y-77092018D01*
X138286588Y-77215268D01*
X138602467Y-77278100D01*
X138924533Y-77278100D01*
X139240412Y-77215268D01*
X139537963Y-77092018D01*
X139805752Y-76913087D01*
X140033487Y-76685352D01*
X140033500Y-76685333D01*
X140033513Y-76685352D01*
X140261248Y-76913087D01*
X140529037Y-77092018D01*
X140826588Y-77215268D01*
X141142467Y-77278100D01*
X141464533Y-77278100D01*
X141780412Y-77215268D01*
X142077963Y-77092018D01*
X142345752Y-76913087D01*
X142573487Y-76685352D01*
X142573500Y-76685333D01*
X142573513Y-76685352D01*
X142801248Y-76913087D01*
X143069037Y-77092018D01*
X143366588Y-77215268D01*
X143682467Y-77278100D01*
X144004533Y-77278100D01*
X144320412Y-77215268D01*
X144617963Y-77092018D01*
X144885752Y-76913087D01*
X145113487Y-76685352D01*
X145113500Y-76685333D01*
X145113513Y-76685352D01*
X145341248Y-76913087D01*
X145609037Y-77092018D01*
X145906588Y-77215268D01*
X146222467Y-77278100D01*
X146544533Y-77278100D01*
X146860412Y-77215268D01*
X147157963Y-77092018D01*
X147425752Y-76913087D01*
X147653487Y-76685352D01*
X147653500Y-76685333D01*
X147653513Y-76685352D01*
X147881248Y-76913087D01*
X148149037Y-77092018D01*
X148446588Y-77215268D01*
X148762467Y-77278100D01*
X149084533Y-77278100D01*
X149400412Y-77215268D01*
X149697963Y-77092018D01*
X149965752Y-76913087D01*
X150193487Y-76685352D01*
X150193500Y-76685333D01*
X150193513Y-76685352D01*
X150421248Y-76913087D01*
X150689037Y-77092018D01*
X150986588Y-77215268D01*
X151302467Y-77278100D01*
X151624533Y-77278100D01*
X151940412Y-77215268D01*
X152237963Y-77092018D01*
X152505752Y-76913087D01*
X152733487Y-76685352D01*
X152733500Y-76685333D01*
X152733513Y-76685352D01*
X152961248Y-76913087D01*
X153229037Y-77092018D01*
X153526588Y-77215268D01*
X153842467Y-77278100D01*
X154164533Y-77278100D01*
X154480412Y-77215268D01*
X154777963Y-77092018D01*
X155045752Y-76913087D01*
X155273487Y-76685352D01*
X155273500Y-76685333D01*
X155273513Y-76685352D01*
X155501248Y-76913087D01*
X155769037Y-77092018D01*
X156066588Y-77215268D01*
X156382467Y-77278100D01*
X156704533Y-77278100D01*
X157020412Y-77215268D01*
X157317963Y-77092018D01*
X157585752Y-76913087D01*
X157813487Y-76685352D01*
X157813500Y-76685333D01*
X157813513Y-76685352D01*
X158041248Y-76913087D01*
X158309037Y-77092018D01*
X158606588Y-77215268D01*
X158922467Y-77278100D01*
X159244533Y-77278100D01*
X159560412Y-77215268D01*
X159857963Y-77092018D01*
X160125752Y-76913087D01*
X160353487Y-76685352D01*
X160353500Y-76685333D01*
X160353513Y-76685352D01*
X160581248Y-76913087D01*
X160849037Y-77092018D01*
X161146588Y-77215268D01*
X161462467Y-77278100D01*
X161784533Y-77278100D01*
X162100412Y-77215268D01*
X162397963Y-77092018D01*
X162665752Y-76913087D01*
X162893487Y-76685352D01*
X162893500Y-76685333D01*
X162893513Y-76685352D01*
X163121248Y-76913087D01*
X163389037Y-77092018D01*
X163686588Y-77215268D01*
X164002467Y-77278100D01*
X164324533Y-77278100D01*
X164640412Y-77215268D01*
X164937963Y-77092018D01*
X165205752Y-76913087D01*
X165433487Y-76685352D01*
X165433500Y-76685333D01*
X165433513Y-76685352D01*
X165661248Y-76913087D01*
X165929037Y-77092018D01*
X166226588Y-77215268D01*
X166542467Y-77278100D01*
X166864533Y-77278100D01*
X167180412Y-77215268D01*
X167477963Y-77092018D01*
X167745752Y-76913087D01*
X167973487Y-76685352D01*
X167973500Y-76685333D01*
X167973513Y-76685352D01*
X168201248Y-76913087D01*
X168469037Y-77092018D01*
X168766588Y-77215268D01*
X169082467Y-77278100D01*
X169404533Y-77278100D01*
X169720412Y-77215268D01*
X170017963Y-77092018D01*
X170285752Y-76913087D01*
X170513487Y-76685352D01*
X170692418Y-76417563D01*
X170815668Y-76120012D01*
X170878500Y-75804133D01*
X170878500Y-75482067D01*
X170815668Y-75166188D01*
X170692418Y-74868637D01*
X170513487Y-74600848D01*
X170285752Y-74373113D01*
X170285733Y-74373100D01*
X170285752Y-74373087D01*
X170513487Y-74145352D01*
X170588500Y-74033087D01*
X170588500Y-74263379D01*
X170670547Y-74675856D01*
X170831488Y-75064402D01*
X171065137Y-75414083D01*
X171362517Y-75711463D01*
X171712198Y-75945112D01*
X172100744Y-76106053D01*
X172513221Y-76188100D01*
X172933779Y-76188100D01*
X173346256Y-76106053D01*
X173734802Y-75945112D01*
X174084483Y-75711463D01*
X174381863Y-75414083D01*
X174615512Y-75064402D01*
X174776453Y-74675856D01*
X174858500Y-74263379D01*
X174858500Y-73842821D01*
X174776453Y-73430344D01*
X174615512Y-73041798D01*
X174381863Y-72692117D01*
X174084483Y-72394737D01*
X173734802Y-72161088D01*
X173346256Y-72000147D01*
X172933779Y-71918100D01*
X172513221Y-71918100D01*
X172100744Y-72000147D01*
X171712198Y-72161088D01*
X171362517Y-72394737D01*
X171065137Y-72692117D01*
X170878500Y-72971439D01*
X170878500Y-72942067D01*
X170815668Y-72626188D01*
X170692418Y-72328637D01*
X170513487Y-72060848D01*
X170285752Y-71833113D01*
X170285733Y-71833100D01*
X170285752Y-71833087D01*
X170513487Y-71605352D01*
X170692418Y-71337563D01*
X170815668Y-71040012D01*
X170878500Y-70724133D01*
X170878500Y-70402067D01*
X170815668Y-70086188D01*
X170692418Y-69788637D01*
X170513487Y-69520848D01*
X170285752Y-69293113D01*
X170285733Y-69293100D01*
X170285752Y-69293087D01*
X170513487Y-69065352D01*
X170692418Y-68797563D01*
X170759607Y-68635354D01*
X171009037Y-68802018D01*
X171306588Y-68925268D01*
X171622467Y-68988100D01*
X171944533Y-68988100D01*
X172260412Y-68925268D01*
X172557963Y-68802018D01*
X172825752Y-68623087D01*
X173053487Y-68395352D01*
X173158559Y-68238100D01*
X176885428Y-68238100D01*
X176885428Y-68553100D01*
X176897688Y-68677582D01*
X176933998Y-68797280D01*
X176992963Y-68907594D01*
X177072315Y-69004285D01*
X177169006Y-69083637D01*
X177279320Y-69142602D01*
X177399018Y-69178912D01*
X177523500Y-69191172D01*
X179923500Y-69191172D01*
X180047982Y-69178912D01*
X180167680Y-69142602D01*
X180277994Y-69083637D01*
X180374685Y-69004285D01*
X180454037Y-68907594D01*
X180513002Y-68797280D01*
X180549312Y-68677582D01*
X180561572Y-68553100D01*
X180561572Y-66153100D01*
X180549312Y-66028618D01*
X180513002Y-65908920D01*
X180454037Y-65798606D01*
X180374685Y-65701915D01*
X180277994Y-65622563D01*
X180167680Y-65563598D01*
X180047982Y-65527288D01*
X179923500Y-65515028D01*
X179506338Y-65515028D01*
X179592699Y-65479256D01*
X179893244Y-65278438D01*
X180148838Y-65022844D01*
X180349656Y-64722299D01*
X180487982Y-64388350D01*
X180558500Y-64033832D01*
X180558500Y-63672368D01*
X180487982Y-63317850D01*
X180349656Y-62983901D01*
X180148838Y-62683356D01*
X179893244Y-62427762D01*
X179592699Y-62226944D01*
X179293713Y-62103100D01*
X179592699Y-61979256D01*
X179893244Y-61778438D01*
X180148838Y-61522844D01*
X180349656Y-61222299D01*
X180487982Y-60888350D01*
X180558500Y-60533832D01*
X180558500Y-60172368D01*
X180487982Y-59817850D01*
X180349656Y-59483901D01*
X180148838Y-59183356D01*
X179893244Y-58927762D01*
X179592699Y-58726944D01*
X179258750Y-58588618D01*
X178904232Y-58518100D01*
X178542768Y-58518100D01*
X178188250Y-58588618D01*
X177854301Y-58726944D01*
X177553756Y-58927762D01*
X177298162Y-59183356D01*
X177107902Y-59468100D01*
X173158559Y-59468100D01*
X173053487Y-59310848D01*
X172825752Y-59083113D01*
X172557963Y-58904182D01*
X172260412Y-58780932D01*
X171944533Y-58718100D01*
X171622467Y-58718100D01*
X171306588Y-58780932D01*
X171009037Y-58904182D01*
X170741248Y-59083113D01*
X170513513Y-59310848D01*
X170406594Y-59470864D01*
X170396975Y-59456468D01*
X170190132Y-59249625D01*
X170128500Y-59208444D01*
X170128500Y-59057756D01*
X170190132Y-59016575D01*
X170396975Y-58809732D01*
X170559490Y-58566511D01*
X170671432Y-58296258D01*
X170728500Y-58009360D01*
X170728500Y-57716840D01*
X170671432Y-57429942D01*
X170559490Y-57159689D01*
X170396975Y-56916468D01*
X170190132Y-56709625D01*
X170150736Y-56683302D01*
X170285752Y-56593087D01*
X170420689Y-56458150D01*
X172368055Y-56458150D01*
X172463758Y-56722499D01*
X172753287Y-56863338D01*
X173064729Y-56944985D01*
X173386115Y-56964305D01*
X173705095Y-56920554D01*
X174009411Y-56815414D01*
X174183242Y-56722499D01*
X174278945Y-56458150D01*
X173323500Y-55502705D01*
X172368055Y-56458150D01*
X170420689Y-56458150D01*
X170513487Y-56365352D01*
X170692418Y-56097563D01*
X170815668Y-55800012D01*
X170878500Y-55484133D01*
X170878500Y-55385715D01*
X171682295Y-55385715D01*
X171726046Y-55704695D01*
X171831186Y-56009011D01*
X171924101Y-56182842D01*
X172188450Y-56278545D01*
X173143895Y-55323100D01*
X173503105Y-55323100D01*
X174458550Y-56278545D01*
X174722899Y-56182842D01*
X174863738Y-55893313D01*
X174945385Y-55581871D01*
X174964705Y-55260485D01*
X174920954Y-54941505D01*
X174815814Y-54637189D01*
X174722899Y-54463358D01*
X174458550Y-54367655D01*
X173503105Y-55323100D01*
X173143895Y-55323100D01*
X172188450Y-54367655D01*
X171924101Y-54463358D01*
X171783262Y-54752887D01*
X171701615Y-55064329D01*
X171682295Y-55385715D01*
X170878500Y-55385715D01*
X170878500Y-55162067D01*
X170815668Y-54846188D01*
X170692418Y-54548637D01*
X170513487Y-54280848D01*
X170285752Y-54053113D01*
X170150736Y-53962898D01*
X170190132Y-53936575D01*
X170208557Y-53918150D01*
X172368055Y-53918150D01*
X172416911Y-54053100D01*
X172368055Y-54188050D01*
X173323500Y-55143495D01*
X174278945Y-54188050D01*
X174230089Y-54053100D01*
X174278945Y-53918150D01*
X174203616Y-53842821D01*
X177588500Y-53842821D01*
X177588500Y-54263379D01*
X177670547Y-54675856D01*
X177831488Y-55064402D01*
X178065137Y-55414083D01*
X178362517Y-55711463D01*
X178712198Y-55945112D01*
X179100744Y-56106053D01*
X179513221Y-56188100D01*
X179933779Y-56188100D01*
X180346256Y-56106053D01*
X180734802Y-55945112D01*
X181084483Y-55711463D01*
X181381863Y-55414083D01*
X181615512Y-55064402D01*
X181776453Y-54675856D01*
X181858500Y-54263379D01*
X181858500Y-53842821D01*
X181776453Y-53430344D01*
X181615512Y-53041798D01*
X181381863Y-52692117D01*
X181084483Y-52394737D01*
X180734802Y-52161088D01*
X180346256Y-52000147D01*
X179933779Y-51918100D01*
X179513221Y-51918100D01*
X179100744Y-52000147D01*
X178712198Y-52161088D01*
X178362517Y-52394737D01*
X178065137Y-52692117D01*
X177831488Y-53041798D01*
X177670547Y-53430344D01*
X177588500Y-53842821D01*
X174203616Y-53842821D01*
X173323500Y-52962705D01*
X172368055Y-53918150D01*
X170208557Y-53918150D01*
X170396975Y-53729732D01*
X170559490Y-53486511D01*
X170671432Y-53216258D01*
X170728500Y-52929360D01*
X170728500Y-52845715D01*
X171682295Y-52845715D01*
X171726046Y-53164695D01*
X171831186Y-53469011D01*
X171924101Y-53642842D01*
X172188450Y-53738545D01*
X173143895Y-52783100D01*
X173503105Y-52783100D01*
X174458550Y-53738545D01*
X174722899Y-53642842D01*
X174863738Y-53353313D01*
X174945385Y-53041871D01*
X174964705Y-52720485D01*
X174920954Y-52401505D01*
X174815814Y-52097189D01*
X174722899Y-51923358D01*
X174458550Y-51827655D01*
X173503105Y-52783100D01*
X173143895Y-52783100D01*
X172188450Y-51827655D01*
X171924101Y-51923358D01*
X171783262Y-52212887D01*
X171701615Y-52524329D01*
X171682295Y-52845715D01*
X170728500Y-52845715D01*
X170728500Y-52636840D01*
X170671432Y-52349942D01*
X170559490Y-52079689D01*
X170396975Y-51836468D01*
X170208557Y-51648050D01*
X172368055Y-51648050D01*
X173323500Y-52603495D01*
X174278945Y-51648050D01*
X174183242Y-51383701D01*
X173893713Y-51242862D01*
X173582271Y-51161215D01*
X173260885Y-51141895D01*
X172941905Y-51185646D01*
X172637589Y-51290786D01*
X172463758Y-51383701D01*
X172368055Y-51648050D01*
X170208557Y-51648050D01*
X170190132Y-51629625D01*
X170128500Y-51588444D01*
X170128500Y-51437756D01*
X170190132Y-51396575D01*
X170396975Y-51189732D01*
X170559490Y-50946511D01*
X170671432Y-50676258D01*
X170728500Y-50389360D01*
X170728500Y-50096840D01*
X170671432Y-49809942D01*
X170559490Y-49539689D01*
X170396975Y-49296468D01*
X170190132Y-49089625D01*
X170150736Y-49063302D01*
X170285752Y-48973087D01*
X170493475Y-48765364D01*
X170513513Y-48795352D01*
X170741248Y-49023087D01*
X171009037Y-49202018D01*
X171306588Y-49325268D01*
X171622467Y-49388100D01*
X171944533Y-49388100D01*
X172260412Y-49325268D01*
X172557963Y-49202018D01*
X172825752Y-49023087D01*
X173053487Y-48795352D01*
X173158559Y-48638100D01*
X176885428Y-48638100D01*
X176885428Y-48953100D01*
X176897688Y-49077582D01*
X176933998Y-49197280D01*
X176992963Y-49307594D01*
X177072315Y-49404285D01*
X177169006Y-49483637D01*
X177279320Y-49542602D01*
X177399018Y-49578912D01*
X177523500Y-49591172D01*
X179923500Y-49591172D01*
X180047982Y-49578912D01*
X180167680Y-49542602D01*
X180277994Y-49483637D01*
X180374685Y-49404285D01*
X180454037Y-49307594D01*
X180513002Y-49197280D01*
X180549312Y-49077582D01*
X180561572Y-48953100D01*
X180561572Y-46553100D01*
X180549312Y-46428618D01*
X180513002Y-46308920D01*
X180454037Y-46198606D01*
X180374685Y-46101915D01*
X180277994Y-46022563D01*
X180167680Y-45963598D01*
X180047982Y-45927288D01*
X179923500Y-45915028D01*
X179506338Y-45915028D01*
X179592699Y-45879256D01*
X179893244Y-45678438D01*
X180148838Y-45422844D01*
X180349656Y-45122299D01*
X180487982Y-44788350D01*
X180558500Y-44433832D01*
X180558500Y-44072368D01*
X180487982Y-43717850D01*
X180349656Y-43383901D01*
X180148838Y-43083356D01*
X179893244Y-42827762D01*
X179592699Y-42626944D01*
X179293713Y-42503100D01*
X179592699Y-42379256D01*
X179893244Y-42178438D01*
X180148838Y-41922844D01*
X180349656Y-41622299D01*
X180487982Y-41288350D01*
X180558500Y-40933832D01*
X180558500Y-40572368D01*
X180487982Y-40217850D01*
X180349656Y-39883901D01*
X180148838Y-39583356D01*
X179893244Y-39327762D01*
X179592699Y-39126944D01*
X179258750Y-38988618D01*
X178904232Y-38918100D01*
X178542768Y-38918100D01*
X178188250Y-38988618D01*
X177854301Y-39126944D01*
X177553756Y-39327762D01*
X177298162Y-39583356D01*
X177107902Y-39868100D01*
X173158559Y-39868100D01*
X173053487Y-39710848D01*
X172825752Y-39483113D01*
X172557963Y-39304182D01*
X172260412Y-39180932D01*
X171944533Y-39118100D01*
X171622467Y-39118100D01*
X171306588Y-39180932D01*
X171009037Y-39304182D01*
X170741248Y-39483113D01*
X170643018Y-39581343D01*
X170559490Y-39379689D01*
X170396975Y-39136468D01*
X170190132Y-38929625D01*
X170015740Y-38813100D01*
X170190132Y-38696575D01*
X170396975Y-38489732D01*
X170559490Y-38246511D01*
X170671432Y-37976258D01*
X170728500Y-37689360D01*
X170728500Y-37396840D01*
X170671432Y-37109942D01*
X170559490Y-36839689D01*
X170396975Y-36596468D01*
X170190132Y-36389625D01*
X170128500Y-36348444D01*
X170128500Y-36197756D01*
X170190132Y-36156575D01*
X170396975Y-35949732D01*
X170559490Y-35706511D01*
X170671432Y-35436258D01*
X170728500Y-35149360D01*
X170728500Y-34856840D01*
X170712782Y-34777820D01*
X170831488Y-35064402D01*
X171065137Y-35414083D01*
X171362517Y-35711463D01*
X171712198Y-35945112D01*
X172100744Y-36106053D01*
X172513221Y-36188100D01*
X172933779Y-36188100D01*
X173346256Y-36106053D01*
X173734802Y-35945112D01*
X174084483Y-35711463D01*
X174381863Y-35414083D01*
X174615512Y-35064402D01*
X174776453Y-34675856D01*
X174858500Y-34263379D01*
X174858500Y-33842821D01*
X174776453Y-33430344D01*
X174615512Y-33041798D01*
X174381863Y-32692117D01*
X174084483Y-32394737D01*
X173734802Y-32161088D01*
X173346256Y-32000147D01*
X172933779Y-31918100D01*
X172513221Y-31918100D01*
X172100744Y-32000147D01*
X171712198Y-32161088D01*
X171362517Y-32394737D01*
X171065137Y-32692117D01*
X170831488Y-33041798D01*
X170670547Y-33430344D01*
X170588500Y-33842821D01*
X170588500Y-34263379D01*
X170629197Y-34467978D01*
X170559490Y-34299689D01*
X170396975Y-34056468D01*
X170190132Y-33849625D01*
X170177400Y-33841118D01*
X170177400Y-33805486D01*
X170285752Y-33733087D01*
X170513487Y-33505352D01*
X170692418Y-33237563D01*
X170815668Y-32940012D01*
X170878500Y-32624133D01*
X170878500Y-32302067D01*
X170815668Y-31986188D01*
X170692418Y-31688637D01*
X170513487Y-31420848D01*
X170285752Y-31193113D01*
X170017963Y-31014182D01*
X169720412Y-30890932D01*
X169404533Y-30828100D01*
X169082467Y-30828100D01*
X168766588Y-30890932D01*
X168469037Y-31014182D01*
X168201248Y-31193113D01*
X167973513Y-31420848D01*
X167973500Y-31420867D01*
X167973487Y-31420848D01*
X167745752Y-31193113D01*
X167477963Y-31014182D01*
X167180412Y-30890932D01*
X166864533Y-30828100D01*
X166542467Y-30828100D01*
X166226588Y-30890932D01*
X165929037Y-31014182D01*
X165661248Y-31193113D01*
X165433513Y-31420848D01*
X165433500Y-31420867D01*
X165433487Y-31420848D01*
X165205752Y-31193113D01*
X164937963Y-31014182D01*
X164640412Y-30890932D01*
X164324533Y-30828100D01*
X164002467Y-30828100D01*
X163686588Y-30890932D01*
X163389037Y-31014182D01*
X163121248Y-31193113D01*
X162893513Y-31420848D01*
X162893500Y-31420867D01*
X162893487Y-31420848D01*
X162665752Y-31193113D01*
X162397963Y-31014182D01*
X162100412Y-30890932D01*
X161784533Y-30828100D01*
X161462467Y-30828100D01*
X161146588Y-30890932D01*
X160849037Y-31014182D01*
X160581248Y-31193113D01*
X160353513Y-31420848D01*
X160353500Y-31420867D01*
X160353487Y-31420848D01*
X160125752Y-31193113D01*
X159857963Y-31014182D01*
X159560412Y-30890932D01*
X159244533Y-30828100D01*
X158922467Y-30828100D01*
X158606588Y-30890932D01*
X158309037Y-31014182D01*
X158041248Y-31193113D01*
X157813513Y-31420848D01*
X157813500Y-31420867D01*
X157813487Y-31420848D01*
X157585752Y-31193113D01*
X157317963Y-31014182D01*
X157020412Y-30890932D01*
X156704533Y-30828100D01*
X156382467Y-30828100D01*
X156066588Y-30890932D01*
X155769037Y-31014182D01*
X155501248Y-31193113D01*
X155273513Y-31420848D01*
X155273500Y-31420867D01*
X155273487Y-31420848D01*
X155045752Y-31193113D01*
X154777963Y-31014182D01*
X154480412Y-30890932D01*
X154164533Y-30828100D01*
X153842467Y-30828100D01*
X153526588Y-30890932D01*
X153229037Y-31014182D01*
X152961248Y-31193113D01*
X152733513Y-31420848D01*
X152733500Y-31420867D01*
X152733487Y-31420848D01*
X152505752Y-31193113D01*
X152237963Y-31014182D01*
X151940412Y-30890932D01*
X151624533Y-30828100D01*
X151302467Y-30828100D01*
X150986588Y-30890932D01*
X150689037Y-31014182D01*
X150421248Y-31193113D01*
X150193513Y-31420848D01*
X150193500Y-31420867D01*
X150193487Y-31420848D01*
X149965752Y-31193113D01*
X149697963Y-31014182D01*
X149400412Y-30890932D01*
X149084533Y-30828100D01*
X148762467Y-30828100D01*
X148446588Y-30890932D01*
X148149037Y-31014182D01*
X147881248Y-31193113D01*
X147653513Y-31420848D01*
X147653500Y-31420867D01*
X147653487Y-31420848D01*
X147425752Y-31193113D01*
X147157963Y-31014182D01*
X146860412Y-30890932D01*
X146544533Y-30828100D01*
X146222467Y-30828100D01*
X145906588Y-30890932D01*
X145609037Y-31014182D01*
X145341248Y-31193113D01*
X145113513Y-31420848D01*
X145113500Y-31420867D01*
X145113487Y-31420848D01*
X144885752Y-31193113D01*
X144617963Y-31014182D01*
X144320412Y-30890932D01*
X144004533Y-30828100D01*
X143682467Y-30828100D01*
X143366588Y-30890932D01*
X143069037Y-31014182D01*
X142801248Y-31193113D01*
X142573513Y-31420848D01*
X142573500Y-31420867D01*
X142573487Y-31420848D01*
X142345752Y-31193113D01*
X142077963Y-31014182D01*
X141780412Y-30890932D01*
X141464533Y-30828100D01*
X141142467Y-30828100D01*
X140826588Y-30890932D01*
X140529037Y-31014182D01*
X140261248Y-31193113D01*
X140033513Y-31420848D01*
X140033500Y-31420867D01*
X140033487Y-31420848D01*
X139805752Y-31193113D01*
X139537963Y-31014182D01*
X139240412Y-30890932D01*
X138924533Y-30828100D01*
X138602467Y-30828100D01*
X138286588Y-30890932D01*
X137989037Y-31014182D01*
X137721248Y-31193113D01*
X137493513Y-31420848D01*
X137493500Y-31420867D01*
X137493487Y-31420848D01*
X137265752Y-31193113D01*
X136997963Y-31014182D01*
X136700412Y-30890932D01*
X136384533Y-30828100D01*
X136062467Y-30828100D01*
X135746588Y-30890932D01*
X135449037Y-31014182D01*
X135181248Y-31193113D01*
X134953513Y-31420848D01*
X134953500Y-31420867D01*
X134953487Y-31420848D01*
X134725752Y-31193113D01*
X134457963Y-31014182D01*
X134160412Y-30890932D01*
X133844533Y-30828100D01*
X133522467Y-30828100D01*
X133206588Y-30890932D01*
X132909037Y-31014182D01*
X132641248Y-31193113D01*
X132413513Y-31420848D01*
X132413500Y-31420867D01*
X132413487Y-31420848D01*
X132185752Y-31193113D01*
X131917963Y-31014182D01*
X131620412Y-30890932D01*
X131304533Y-30828100D01*
X130982467Y-30828100D01*
X130666588Y-30890932D01*
X130369037Y-31014182D01*
X130101248Y-31193113D01*
X129873513Y-31420848D01*
X129873500Y-31420867D01*
X129873487Y-31420848D01*
X129645752Y-31193113D01*
X129377963Y-31014182D01*
X129080412Y-30890932D01*
X128764533Y-30828100D01*
X128442467Y-30828100D01*
X128126588Y-30890932D01*
X127829037Y-31014182D01*
X127561248Y-31193113D01*
X127333513Y-31420848D01*
X127333500Y-31420867D01*
X127333487Y-31420848D01*
X127105752Y-31193113D01*
X126837963Y-31014182D01*
X126540412Y-30890932D01*
X126224533Y-30828100D01*
X125902467Y-30828100D01*
X125586588Y-30890932D01*
X125289037Y-31014182D01*
X125021248Y-31193113D01*
X124793513Y-31420848D01*
X124793500Y-31420867D01*
X124793487Y-31420848D01*
X124565752Y-31193113D01*
X124297963Y-31014182D01*
X124000412Y-30890932D01*
X123684533Y-30828100D01*
X123362467Y-30828100D01*
X123046588Y-30890932D01*
X122749037Y-31014182D01*
X122481248Y-31193113D01*
X122253513Y-31420848D01*
X122253500Y-31420867D01*
X122253487Y-31420848D01*
X122025752Y-31193113D01*
X121757963Y-31014182D01*
X121460412Y-30890932D01*
X121144533Y-30828100D01*
X120822467Y-30828100D01*
X120506588Y-30890932D01*
X120209037Y-31014182D01*
X119941248Y-31193113D01*
X119713513Y-31420848D01*
X119534582Y-31688637D01*
X119411332Y-31986188D01*
X119348500Y-32302067D01*
X116813079Y-32302067D01*
X117015127Y-31814281D01*
X117047131Y-31715784D01*
X117285238Y-30723998D01*
X117301439Y-30621707D01*
X117333597Y-30213100D01*
X178113403Y-30213100D01*
X178145561Y-30621707D01*
G36*
X178145561Y-79621707D02*
G01*
X178161762Y-79723998D01*
X178399869Y-80715784D01*
X178431872Y-80814281D01*
X178822197Y-81756609D01*
X178869215Y-81848887D01*
X179402147Y-82718553D01*
X179428329Y-82754589D01*
X179463022Y-82802340D01*
X180125438Y-83577930D01*
X180198670Y-83651162D01*
X180974260Y-84313578D01*
X181058047Y-84374453D01*
X181927713Y-84907384D01*
X182019991Y-84954403D01*
X182962319Y-85344727D01*
X183060816Y-85376731D01*
X184052602Y-85614838D01*
X184154893Y-85631039D01*
X184563500Y-85663197D01*
X184563501Y-120443003D01*
X184154893Y-120475161D01*
X184052602Y-120491362D01*
X183060816Y-120729469D01*
X182962319Y-120761473D01*
X182019991Y-121151797D01*
X181929118Y-121198100D01*
X181927713Y-121198816D01*
X181058047Y-121731747D01*
X180974260Y-121792622D01*
X180198670Y-122455038D01*
X180125438Y-122528270D01*
X179463022Y-123303860D01*
X179432584Y-123345754D01*
X179402147Y-123387647D01*
X178869215Y-124257313D01*
X178849892Y-124295238D01*
X178822197Y-124349591D01*
X178431872Y-125291919D01*
X178402437Y-125382511D01*
X178399869Y-125390416D01*
X178161762Y-126382202D01*
X178145561Y-126484493D01*
X178113403Y-126893100D01*
X117333597Y-126893100D01*
X117301439Y-126484493D01*
X117285238Y-126382202D01*
X117047131Y-125390416D01*
X117015127Y-125291919D01*
X116624803Y-124349591D01*
X116577784Y-124257313D01*
X116044853Y-123387647D01*
X115983978Y-123303860D01*
X115590214Y-122842821D01*
X120588500Y-122842821D01*
X120588500Y-123263379D01*
X120670547Y-123675856D01*
X120831488Y-124064402D01*
X121065137Y-124414083D01*
X121362517Y-124711463D01*
X121712198Y-124945112D01*
X122100744Y-125106053D01*
X122513221Y-125188100D01*
X122933779Y-125188100D01*
X123346256Y-125106053D01*
X123734802Y-124945112D01*
X124084483Y-124711463D01*
X124381863Y-124414083D01*
X124615512Y-124064402D01*
X124776453Y-123675856D01*
X124858500Y-123263379D01*
X124858500Y-122842821D01*
X124776453Y-122430344D01*
X124615512Y-122041798D01*
X124381863Y-121692117D01*
X124084483Y-121394737D01*
X123734802Y-121161088D01*
X123346256Y-121000147D01*
X122933779Y-120918100D01*
X122513221Y-120918100D01*
X122100744Y-121000147D01*
X121712198Y-121161088D01*
X121362517Y-121394737D01*
X121065137Y-121692117D01*
X120831488Y-122041798D01*
X120670547Y-122430344D01*
X120588500Y-122842821D01*
X115590214Y-122842821D01*
X115321562Y-122528270D01*
X115248330Y-122455038D01*
X114472740Y-121792622D01*
X114404284Y-121742886D01*
X114388953Y-121731747D01*
X113519287Y-121198815D01*
X113427009Y-121151797D01*
X112484681Y-120761472D01*
X112386184Y-120729469D01*
X111394398Y-120491362D01*
X111292107Y-120475161D01*
X110883500Y-120443003D01*
X110883500Y-102842821D01*
X113588500Y-102842821D01*
X113588500Y-103263379D01*
X113670547Y-103675856D01*
X113831488Y-104064402D01*
X114065137Y-104414083D01*
X114362517Y-104711463D01*
X114712198Y-104945112D01*
X115100744Y-105106053D01*
X115513221Y-105188100D01*
X115933779Y-105188100D01*
X116346256Y-105106053D01*
X116734802Y-104945112D01*
X117084483Y-104711463D01*
X117381863Y-104414083D01*
X117615512Y-104064402D01*
X117776453Y-103675856D01*
X117858500Y-103263379D01*
X117858500Y-102842821D01*
X117776453Y-102430344D01*
X117615512Y-102041798D01*
X117381863Y-101692117D01*
X117084483Y-101394737D01*
X116734802Y-101161088D01*
X116346256Y-101000147D01*
X115933779Y-100918100D01*
X115513221Y-100918100D01*
X115100744Y-101000147D01*
X114712198Y-101161088D01*
X114362517Y-101394737D01*
X114065137Y-101692117D01*
X113831488Y-102041798D01*
X113670547Y-102430344D01*
X113588500Y-102842821D01*
X110883500Y-102842821D01*
X110883500Y-85663197D01*
X111292107Y-85631039D01*
X111394398Y-85614838D01*
X112386184Y-85376731D01*
X112388615Y-85375941D01*
X112484681Y-85344728D01*
X113427009Y-84954403D01*
X113473148Y-84930893D01*
X113519287Y-84907385D01*
X114388953Y-84374453D01*
X114430846Y-84344016D01*
X114472740Y-84313578D01*
X115248330Y-83651162D01*
X115321563Y-83577929D01*
X115983978Y-82802340D01*
X116044853Y-82718553D01*
X116044854Y-82718552D01*
X116577784Y-81848887D01*
X116624803Y-81756609D01*
X116813079Y-81302067D01*
X119348500Y-81302067D01*
X119348500Y-81624133D01*
X119411332Y-81940012D01*
X119534582Y-82237563D01*
X119713513Y-82505352D01*
X119812709Y-82604548D01*
X119779006Y-82622563D01*
X119682315Y-82701915D01*
X119602963Y-82798606D01*
X119543998Y-82908920D01*
X119507688Y-83028618D01*
X119495428Y-83153100D01*
X119495428Y-84853100D01*
X119507688Y-84977582D01*
X119543998Y-85097280D01*
X119602963Y-85207594D01*
X119656722Y-85273100D01*
X119602963Y-85338606D01*
X119543998Y-85448920D01*
X119507688Y-85568618D01*
X119495428Y-85693100D01*
X119495428Y-87393100D01*
X119507688Y-87517582D01*
X119543998Y-87637280D01*
X119602963Y-87747594D01*
X119656722Y-87813100D01*
X119602963Y-87878606D01*
X119543998Y-87988920D01*
X119507688Y-88108618D01*
X119495428Y-88233100D01*
X119495428Y-89933100D01*
X119507688Y-90057582D01*
X119543998Y-90177280D01*
X119602963Y-90287594D01*
X119682315Y-90384285D01*
X119779006Y-90463637D01*
X119812709Y-90481652D01*
X119713513Y-90580848D01*
X119534582Y-90848637D01*
X119411332Y-91146188D01*
X119348500Y-91462067D01*
X119348500Y-91784133D01*
X119411332Y-92100012D01*
X119534582Y-92397563D01*
X119713513Y-92665352D01*
X119941248Y-92893087D01*
X119941267Y-92893100D01*
X119941248Y-92893113D01*
X119713513Y-93120848D01*
X119534582Y-93388637D01*
X119411332Y-93686188D01*
X119348500Y-94002067D01*
X119348500Y-94324133D01*
X119411332Y-94640012D01*
X119534582Y-94937563D01*
X119713513Y-95205352D01*
X119941248Y-95433087D01*
X119941267Y-95433100D01*
X119941248Y-95433113D01*
X119713513Y-95660848D01*
X119534582Y-95928637D01*
X119411332Y-96226188D01*
X119348500Y-96542067D01*
X119348500Y-96864133D01*
X119411332Y-97180012D01*
X119534582Y-97477563D01*
X119713513Y-97745352D01*
X119812709Y-97844548D01*
X119779006Y-97862563D01*
X119682315Y-97941915D01*
X119602963Y-98038606D01*
X119543998Y-98148920D01*
X119507688Y-98268618D01*
X119495428Y-98393100D01*
X119495428Y-100093100D01*
X119507688Y-100217582D01*
X119543998Y-100337280D01*
X119602963Y-100447594D01*
X119656722Y-100513100D01*
X119602963Y-100578606D01*
X119543998Y-100688920D01*
X119507688Y-100808618D01*
X119495428Y-100933100D01*
X119495428Y-102633100D01*
X119507688Y-102757582D01*
X119543998Y-102877280D01*
X119602963Y-102987594D01*
X119682315Y-103084285D01*
X119779006Y-103163637D01*
X119812709Y-103181652D01*
X119713513Y-103280848D01*
X119534582Y-103548637D01*
X119411332Y-103846188D01*
X119348500Y-104162067D01*
X119348500Y-104484133D01*
X119411332Y-104800012D01*
X119534582Y-105097563D01*
X119713513Y-105365352D01*
X119812709Y-105464548D01*
X119779006Y-105482563D01*
X119682315Y-105561915D01*
X119602963Y-105658606D01*
X119543998Y-105768920D01*
X119507688Y-105888618D01*
X119495428Y-106013100D01*
X119495428Y-107713100D01*
X119507688Y-107837582D01*
X119543998Y-107957280D01*
X119602963Y-108067594D01*
X119656722Y-108133100D01*
X119602963Y-108198606D01*
X119543998Y-108308920D01*
X119507688Y-108428618D01*
X119495428Y-108553100D01*
X119495428Y-110253100D01*
X119507688Y-110377582D01*
X119543998Y-110497280D01*
X119602963Y-110607594D01*
X119656722Y-110673100D01*
X119602963Y-110738606D01*
X119543998Y-110848920D01*
X119507688Y-110968618D01*
X119495428Y-111093100D01*
X119495428Y-112793100D01*
X119507688Y-112917582D01*
X119543998Y-113037280D01*
X119602963Y-113147594D01*
X119682315Y-113244285D01*
X119779006Y-113323637D01*
X119812709Y-113341652D01*
X119713513Y-113440848D01*
X119534582Y-113708637D01*
X119411332Y-114006188D01*
X119348500Y-114322067D01*
X119348500Y-114644133D01*
X119411332Y-114960012D01*
X119534582Y-115257563D01*
X119713513Y-115525352D01*
X119941248Y-115753087D01*
X119941267Y-115753100D01*
X119941248Y-115753113D01*
X119713513Y-115980848D01*
X119534582Y-116248637D01*
X119411332Y-116546188D01*
X119348500Y-116862067D01*
X119348500Y-117184133D01*
X119411332Y-117500012D01*
X119534582Y-117797563D01*
X119713513Y-118065352D01*
X119941248Y-118293087D01*
X120209037Y-118472018D01*
X120506588Y-118595268D01*
X120822467Y-118658100D01*
X121144533Y-118658100D01*
X121460412Y-118595268D01*
X121757963Y-118472018D01*
X122025752Y-118293087D01*
X122253487Y-118065352D01*
X122253500Y-118065333D01*
X122253513Y-118065352D01*
X122481248Y-118293087D01*
X122749037Y-118472018D01*
X123046588Y-118595268D01*
X123362467Y-118658100D01*
X123684533Y-118658100D01*
X124000412Y-118595268D01*
X124297963Y-118472018D01*
X124565752Y-118293087D01*
X124793487Y-118065352D01*
X124793500Y-118065333D01*
X124793513Y-118065352D01*
X125021248Y-118293087D01*
X125289037Y-118472018D01*
X125586588Y-118595268D01*
X125902467Y-118658100D01*
X126224533Y-118658100D01*
X126540412Y-118595268D01*
X126837963Y-118472018D01*
X127105752Y-118293087D01*
X127333487Y-118065352D01*
X127333500Y-118065333D01*
X127333513Y-118065352D01*
X127561248Y-118293087D01*
X127829037Y-118472018D01*
X128126588Y-118595268D01*
X128442467Y-118658100D01*
X128764533Y-118658100D01*
X129080412Y-118595268D01*
X129377963Y-118472018D01*
X129645752Y-118293087D01*
X129873487Y-118065352D01*
X129873500Y-118065333D01*
X129873513Y-118065352D01*
X130101248Y-118293087D01*
X130101267Y-118293100D01*
X130101248Y-118293113D01*
X129873513Y-118520848D01*
X129694582Y-118788637D01*
X129571332Y-119086188D01*
X129508500Y-119402067D01*
X129508500Y-119724133D01*
X129571332Y-120040012D01*
X129694582Y-120337563D01*
X129873513Y-120605352D01*
X130101248Y-120833087D01*
X130101267Y-120833100D01*
X130101248Y-120833113D01*
X129873513Y-121060848D01*
X129694582Y-121328637D01*
X129571332Y-121626188D01*
X129508500Y-121942067D01*
X129508500Y-122264133D01*
X129571332Y-122580012D01*
X129694582Y-122877563D01*
X129873513Y-123145352D01*
X130101248Y-123373087D01*
X130101267Y-123373100D01*
X130101248Y-123373113D01*
X129873513Y-123600848D01*
X129694582Y-123868637D01*
X129571332Y-124166188D01*
X129508500Y-124482067D01*
X129508500Y-124804133D01*
X129571332Y-125120012D01*
X129694582Y-125417563D01*
X129873513Y-125685352D01*
X130101248Y-125913087D01*
X130369037Y-126092018D01*
X130666588Y-126215268D01*
X130982467Y-126278100D01*
X131304533Y-126278100D01*
X131620412Y-126215268D01*
X131917963Y-126092018D01*
X132185752Y-125913087D01*
X132413487Y-125685352D01*
X132413500Y-125685333D01*
X132413513Y-125685352D01*
X132641248Y-125913087D01*
X132909037Y-126092018D01*
X133206588Y-126215268D01*
X133522467Y-126278100D01*
X133844533Y-126278100D01*
X134160412Y-126215268D01*
X134457963Y-126092018D01*
X134725752Y-125913087D01*
X134953487Y-125685352D01*
X134953500Y-125685333D01*
X134953513Y-125685352D01*
X135181248Y-125913087D01*
X135449037Y-126092018D01*
X135746588Y-126215268D01*
X136062467Y-126278100D01*
X136384533Y-126278100D01*
X136700412Y-126215268D01*
X136997963Y-126092018D01*
X137265752Y-125913087D01*
X137493487Y-125685352D01*
X137493500Y-125685333D01*
X137493513Y-125685352D01*
X137721248Y-125913087D01*
X137989037Y-126092018D01*
X138286588Y-126215268D01*
X138602467Y-126278100D01*
X138924533Y-126278100D01*
X139240412Y-126215268D01*
X139537963Y-126092018D01*
X139805752Y-125913087D01*
X140033487Y-125685352D01*
X140033500Y-125685333D01*
X140033513Y-125685352D01*
X140261248Y-125913087D01*
X140529037Y-126092018D01*
X140826588Y-126215268D01*
X141142467Y-126278100D01*
X141464533Y-126278100D01*
X141780412Y-126215268D01*
X142077963Y-126092018D01*
X142345752Y-125913087D01*
X142573487Y-125685352D01*
X142573500Y-125685333D01*
X142573513Y-125685352D01*
X142801248Y-125913087D01*
X143069037Y-126092018D01*
X143366588Y-126215268D01*
X143682467Y-126278100D01*
X144004533Y-126278100D01*
X144320412Y-126215268D01*
X144617963Y-126092018D01*
X144885752Y-125913087D01*
X145113487Y-125685352D01*
X145113500Y-125685333D01*
X145113513Y-125685352D01*
X145341248Y-125913087D01*
X145609037Y-126092018D01*
X145906588Y-126215268D01*
X146222467Y-126278100D01*
X146544533Y-126278100D01*
X146860412Y-126215268D01*
X147157963Y-126092018D01*
X147425752Y-125913087D01*
X147653487Y-125685352D01*
X147653500Y-125685333D01*
X147653513Y-125685352D01*
X147881248Y-125913087D01*
X148149037Y-126092018D01*
X148446588Y-126215268D01*
X148762467Y-126278100D01*
X149084533Y-126278100D01*
X149400412Y-126215268D01*
X149697963Y-126092018D01*
X149965752Y-125913087D01*
X150193487Y-125685352D01*
X150193500Y-125685333D01*
X150193513Y-125685352D01*
X150421248Y-125913087D01*
X150689037Y-126092018D01*
X150986588Y-126215268D01*
X151302467Y-126278100D01*
X151624533Y-126278100D01*
X151940412Y-126215268D01*
X152237963Y-126092018D01*
X152505752Y-125913087D01*
X152733487Y-125685352D01*
X152733500Y-125685333D01*
X152733513Y-125685352D01*
X152961248Y-125913087D01*
X153229037Y-126092018D01*
X153526588Y-126215268D01*
X153842467Y-126278100D01*
X154164533Y-126278100D01*
X154480412Y-126215268D01*
X154777963Y-126092018D01*
X155045752Y-125913087D01*
X155273487Y-125685352D01*
X155273500Y-125685333D01*
X155273513Y-125685352D01*
X155501248Y-125913087D01*
X155769037Y-126092018D01*
X156066588Y-126215268D01*
X156382467Y-126278100D01*
X156704533Y-126278100D01*
X157020412Y-126215268D01*
X157317963Y-126092018D01*
X157585752Y-125913087D01*
X157813487Y-125685352D01*
X157813500Y-125685333D01*
X157813513Y-125685352D01*
X158041248Y-125913087D01*
X158309037Y-126092018D01*
X158606588Y-126215268D01*
X158922467Y-126278100D01*
X159244533Y-126278100D01*
X159560412Y-126215268D01*
X159857963Y-126092018D01*
X160125752Y-125913087D01*
X160353487Y-125685352D01*
X160353500Y-125685333D01*
X160353513Y-125685352D01*
X160581248Y-125913087D01*
X160849037Y-126092018D01*
X161146588Y-126215268D01*
X161462467Y-126278100D01*
X161784533Y-126278100D01*
X162100412Y-126215268D01*
X162397963Y-126092018D01*
X162665752Y-125913087D01*
X162893487Y-125685352D01*
X162893500Y-125685333D01*
X162893513Y-125685352D01*
X163121248Y-125913087D01*
X163389037Y-126092018D01*
X163686588Y-126215268D01*
X164002467Y-126278100D01*
X164324533Y-126278100D01*
X164640412Y-126215268D01*
X164937963Y-126092018D01*
X165205752Y-125913087D01*
X165433487Y-125685352D01*
X165433500Y-125685333D01*
X165433513Y-125685352D01*
X165661248Y-125913087D01*
X165929037Y-126092018D01*
X166226588Y-126215268D01*
X166542467Y-126278100D01*
X166864533Y-126278100D01*
X167180412Y-126215268D01*
X167477963Y-126092018D01*
X167745752Y-125913087D01*
X167973487Y-125685352D01*
X167973500Y-125685333D01*
X167973513Y-125685352D01*
X168201248Y-125913087D01*
X168469037Y-126092018D01*
X168766588Y-126215268D01*
X169082467Y-126278100D01*
X169404533Y-126278100D01*
X169720412Y-126215268D01*
X170017963Y-126092018D01*
X170285752Y-125913087D01*
X170513487Y-125685352D01*
X170692418Y-125417563D01*
X170815668Y-125120012D01*
X170878500Y-124804133D01*
X170878500Y-124482067D01*
X170815668Y-124166188D01*
X170692418Y-123868637D01*
X170513487Y-123600848D01*
X170285752Y-123373113D01*
X170285733Y-123373100D01*
X170285752Y-123373087D01*
X170513487Y-123145352D01*
X170588500Y-123033087D01*
X170588500Y-123263379D01*
X170670547Y-123675856D01*
X170831488Y-124064402D01*
X171065137Y-124414083D01*
X171362517Y-124711463D01*
X171712198Y-124945112D01*
X172100744Y-125106053D01*
X172513221Y-125188100D01*
X172933779Y-125188100D01*
X173346256Y-125106053D01*
X173734802Y-124945112D01*
X174084483Y-124711463D01*
X174381863Y-124414083D01*
X174615512Y-124064402D01*
X174776453Y-123675856D01*
X174858500Y-123263379D01*
X174858500Y-122842821D01*
X174776453Y-122430344D01*
X174615512Y-122041798D01*
X174381863Y-121692117D01*
X174084483Y-121394737D01*
X173734802Y-121161088D01*
X173346256Y-121000147D01*
X172933779Y-120918100D01*
X172513221Y-120918100D01*
X172100744Y-121000147D01*
X171712198Y-121161088D01*
X171362517Y-121394737D01*
X171065137Y-121692117D01*
X170878500Y-121971439D01*
X170878500Y-121942067D01*
X170815668Y-121626188D01*
X170692418Y-121328637D01*
X170513487Y-121060848D01*
X170285752Y-120833113D01*
X170285733Y-120833100D01*
X170285752Y-120833087D01*
X170513487Y-120605352D01*
X170692418Y-120337563D01*
X170815668Y-120040012D01*
X170878500Y-119724133D01*
X170878500Y-119402067D01*
X170815668Y-119086188D01*
X170692418Y-118788637D01*
X170513487Y-118520848D01*
X170285752Y-118293113D01*
X170285733Y-118293100D01*
X170285752Y-118293087D01*
X170513487Y-118065352D01*
X170692418Y-117797563D01*
X170759607Y-117635354D01*
X171009037Y-117802018D01*
X171306588Y-117925268D01*
X171622467Y-117988100D01*
X171944533Y-117988100D01*
X172260412Y-117925268D01*
X172557963Y-117802018D01*
X172825752Y-117623087D01*
X173053487Y-117395352D01*
X173158559Y-117238100D01*
X176885428Y-117238100D01*
X176885428Y-117553100D01*
X176897688Y-117677582D01*
X176933998Y-117797280D01*
X176992963Y-117907594D01*
X177072315Y-118004285D01*
X177169006Y-118083637D01*
X177279320Y-118142602D01*
X177399018Y-118178912D01*
X177523500Y-118191172D01*
X179923500Y-118191172D01*
X180047982Y-118178912D01*
X180167680Y-118142602D01*
X180277994Y-118083637D01*
X180374685Y-118004285D01*
X180454037Y-117907594D01*
X180513002Y-117797280D01*
X180549312Y-117677582D01*
X180561572Y-117553100D01*
X180561572Y-115153100D01*
X180549312Y-115028618D01*
X180513002Y-114908920D01*
X180454037Y-114798606D01*
X180374685Y-114701915D01*
X180277994Y-114622563D01*
X180167680Y-114563598D01*
X180047982Y-114527288D01*
X179923500Y-114515028D01*
X179506338Y-114515028D01*
X179592699Y-114479256D01*
X179893244Y-114278438D01*
X180148838Y-114022844D01*
X180349656Y-113722299D01*
X180487982Y-113388350D01*
X180558500Y-113033832D01*
X180558500Y-112672368D01*
X180487982Y-112317850D01*
X180349656Y-111983901D01*
X180148838Y-111683356D01*
X179893244Y-111427762D01*
X179592699Y-111226944D01*
X179293713Y-111103100D01*
X179592699Y-110979256D01*
X179893244Y-110778438D01*
X180148838Y-110522844D01*
X180349656Y-110222299D01*
X180487982Y-109888350D01*
X180558500Y-109533832D01*
X180558500Y-109172368D01*
X180487982Y-108817850D01*
X180349656Y-108483901D01*
X180148838Y-108183356D01*
X179893244Y-107927762D01*
X179592699Y-107726944D01*
X179258750Y-107588618D01*
X178904232Y-107518100D01*
X178542768Y-107518100D01*
X178188250Y-107588618D01*
X177854301Y-107726944D01*
X177553756Y-107927762D01*
X177298162Y-108183356D01*
X177107902Y-108468100D01*
X173158559Y-108468100D01*
X173053487Y-108310848D01*
X172825752Y-108083113D01*
X172557963Y-107904182D01*
X172260412Y-107780932D01*
X171944533Y-107718100D01*
X171622467Y-107718100D01*
X171306588Y-107780932D01*
X171009037Y-107904182D01*
X170741248Y-108083113D01*
X170513513Y-108310848D01*
X170406594Y-108470864D01*
X170396975Y-108456468D01*
X170190132Y-108249625D01*
X170128500Y-108208444D01*
X170128500Y-108057756D01*
X170190132Y-108016575D01*
X170396975Y-107809732D01*
X170559490Y-107566511D01*
X170671432Y-107296258D01*
X170728500Y-107009360D01*
X170728500Y-106716840D01*
X170671432Y-106429942D01*
X170559490Y-106159689D01*
X170396975Y-105916468D01*
X170190132Y-105709625D01*
X170150736Y-105683302D01*
X170285752Y-105593087D01*
X170420689Y-105458150D01*
X172368055Y-105458150D01*
X172463758Y-105722499D01*
X172753287Y-105863338D01*
X173064729Y-105944985D01*
X173386115Y-105964305D01*
X173705095Y-105920554D01*
X174009411Y-105815414D01*
X174183242Y-105722499D01*
X174278945Y-105458150D01*
X173323500Y-104502705D01*
X172368055Y-105458150D01*
X170420689Y-105458150D01*
X170513487Y-105365352D01*
X170692418Y-105097563D01*
X170815668Y-104800012D01*
X170878500Y-104484133D01*
X170878500Y-104385715D01*
X171682295Y-104385715D01*
X171726046Y-104704695D01*
X171831186Y-105009011D01*
X171924101Y-105182842D01*
X172188450Y-105278545D01*
X173143895Y-104323100D01*
X173503105Y-104323100D01*
X174458550Y-105278545D01*
X174722899Y-105182842D01*
X174863738Y-104893313D01*
X174945385Y-104581871D01*
X174964705Y-104260485D01*
X174920954Y-103941505D01*
X174815814Y-103637189D01*
X174722899Y-103463358D01*
X174458550Y-103367655D01*
X173503105Y-104323100D01*
X173143895Y-104323100D01*
X172188450Y-103367655D01*
X171924101Y-103463358D01*
X171783262Y-103752887D01*
X171701615Y-104064329D01*
X171682295Y-104385715D01*
X170878500Y-104385715D01*
X170878500Y-104162067D01*
X170815668Y-103846188D01*
X170692418Y-103548637D01*
X170513487Y-103280848D01*
X170285752Y-103053113D01*
X170150736Y-102962898D01*
X170190132Y-102936575D01*
X170208557Y-102918150D01*
X172368055Y-102918150D01*
X172416911Y-103053100D01*
X172368055Y-103188050D01*
X173323500Y-104143495D01*
X174278945Y-103188050D01*
X174230089Y-103053100D01*
X174278945Y-102918150D01*
X174203616Y-102842821D01*
X177588500Y-102842821D01*
X177588500Y-103263379D01*
X177670547Y-103675856D01*
X177831488Y-104064402D01*
X178065137Y-104414083D01*
X178362517Y-104711463D01*
X178712198Y-104945112D01*
X179100744Y-105106053D01*
X179513221Y-105188100D01*
X179933779Y-105188100D01*
X180346256Y-105106053D01*
X180734802Y-104945112D01*
X181084483Y-104711463D01*
X181381863Y-104414083D01*
X181615512Y-104064402D01*
X181776453Y-103675856D01*
X181858500Y-103263379D01*
X181858500Y-102842821D01*
X181776453Y-102430344D01*
X181615512Y-102041798D01*
X181381863Y-101692117D01*
X181084483Y-101394737D01*
X180734802Y-101161088D01*
X180346256Y-101000147D01*
X179933779Y-100918100D01*
X179513221Y-100918100D01*
X179100744Y-101000147D01*
X178712198Y-101161088D01*
X178362517Y-101394737D01*
X178065137Y-101692117D01*
X177831488Y-102041798D01*
X177670547Y-102430344D01*
X177588500Y-102842821D01*
X174203616Y-102842821D01*
X173323500Y-101962705D01*
X172368055Y-102918150D01*
X170208557Y-102918150D01*
X170396975Y-102729732D01*
X170559490Y-102486511D01*
X170671432Y-102216258D01*
X170728500Y-101929360D01*
X170728500Y-101845715D01*
X171682295Y-101845715D01*
X171726046Y-102164695D01*
X171831186Y-102469011D01*
X171924101Y-102642842D01*
X172188450Y-102738545D01*
X173143895Y-101783100D01*
X173503105Y-101783100D01*
X174458550Y-102738545D01*
X174722899Y-102642842D01*
X174863738Y-102353313D01*
X174945385Y-102041871D01*
X174964705Y-101720485D01*
X174920954Y-101401505D01*
X174815814Y-101097189D01*
X174722899Y-100923358D01*
X174458550Y-100827655D01*
X173503105Y-101783100D01*
X173143895Y-101783100D01*
X172188450Y-100827655D01*
X171924101Y-100923358D01*
X171783262Y-101212887D01*
X171701615Y-101524329D01*
X171682295Y-101845715D01*
X170728500Y-101845715D01*
X170728500Y-101636840D01*
X170671432Y-101349942D01*
X170559490Y-101079689D01*
X170396975Y-100836468D01*
X170208557Y-100648050D01*
X172368055Y-100648050D01*
X173323500Y-101603495D01*
X174278945Y-100648050D01*
X174183242Y-100383701D01*
X173893713Y-100242862D01*
X173582271Y-100161215D01*
X173260885Y-100141895D01*
X172941905Y-100185646D01*
X172637589Y-100290786D01*
X172463758Y-100383701D01*
X172368055Y-100648050D01*
X170208557Y-100648050D01*
X170190132Y-100629625D01*
X170128500Y-100588444D01*
X170128500Y-100437756D01*
X170190132Y-100396575D01*
X170396975Y-100189732D01*
X170559490Y-99946511D01*
X170671432Y-99676258D01*
X170728500Y-99389360D01*
X170728500Y-99096840D01*
X170671432Y-98809942D01*
X170559490Y-98539689D01*
X170396975Y-98296468D01*
X170190132Y-98089625D01*
X170150736Y-98063302D01*
X170285752Y-97973087D01*
X170493475Y-97765364D01*
X170513513Y-97795352D01*
X170741248Y-98023087D01*
X171009037Y-98202018D01*
X171306588Y-98325268D01*
X171622467Y-98388100D01*
X171944533Y-98388100D01*
X172260412Y-98325268D01*
X172557963Y-98202018D01*
X172825752Y-98023087D01*
X173053487Y-97795352D01*
X173158559Y-97638100D01*
X176885428Y-97638100D01*
X176885428Y-97953100D01*
X176897688Y-98077582D01*
X176933998Y-98197280D01*
X176992963Y-98307594D01*
X177072315Y-98404285D01*
X177169006Y-98483637D01*
X177279320Y-98542602D01*
X177399018Y-98578912D01*
X177523500Y-98591172D01*
X179923500Y-98591172D01*
X180047982Y-98578912D01*
X180167680Y-98542602D01*
X180277994Y-98483637D01*
X180374685Y-98404285D01*
X180454037Y-98307594D01*
X180513002Y-98197280D01*
X180549312Y-98077582D01*
X180561572Y-97953100D01*
X180561572Y-95553100D01*
X180549312Y-95428618D01*
X180513002Y-95308920D01*
X180454037Y-95198606D01*
X180374685Y-95101915D01*
X180277994Y-95022563D01*
X180167680Y-94963598D01*
X180047982Y-94927288D01*
X179923500Y-94915028D01*
X179506338Y-94915028D01*
X179592699Y-94879256D01*
X179893244Y-94678438D01*
X180148838Y-94422844D01*
X180349656Y-94122299D01*
X180487982Y-93788350D01*
X180558500Y-93433832D01*
X180558500Y-93072368D01*
X180487982Y-92717850D01*
X180349656Y-92383901D01*
X180148838Y-92083356D01*
X179893244Y-91827762D01*
X179592699Y-91626944D01*
X179293713Y-91503100D01*
X179592699Y-91379256D01*
X179893244Y-91178438D01*
X180148838Y-90922844D01*
X180349656Y-90622299D01*
X180487982Y-90288350D01*
X180558500Y-89933832D01*
X180558500Y-89572368D01*
X180487982Y-89217850D01*
X180349656Y-88883901D01*
X180148838Y-88583356D01*
X179893244Y-88327762D01*
X179592699Y-88126944D01*
X179258750Y-87988618D01*
X178904232Y-87918100D01*
X178542768Y-87918100D01*
X178188250Y-87988618D01*
X177854301Y-88126944D01*
X177553756Y-88327762D01*
X177298162Y-88583356D01*
X177107902Y-88868100D01*
X173158559Y-88868100D01*
X173053487Y-88710848D01*
X172825752Y-88483113D01*
X172557963Y-88304182D01*
X172260412Y-88180932D01*
X171944533Y-88118100D01*
X171622467Y-88118100D01*
X171306588Y-88180932D01*
X171009037Y-88304182D01*
X170741248Y-88483113D01*
X170643018Y-88581343D01*
X170559490Y-88379689D01*
X170396975Y-88136468D01*
X170190132Y-87929625D01*
X170015740Y-87813100D01*
X170190132Y-87696575D01*
X170396975Y-87489732D01*
X170559490Y-87246511D01*
X170671432Y-86976258D01*
X170728500Y-86689360D01*
X170728500Y-86396840D01*
X170671432Y-86109942D01*
X170559490Y-85839689D01*
X170396975Y-85596468D01*
X170190132Y-85389625D01*
X170128500Y-85348444D01*
X170128500Y-85197756D01*
X170190132Y-85156575D01*
X170396975Y-84949732D01*
X170559490Y-84706511D01*
X170671432Y-84436258D01*
X170728500Y-84149360D01*
X170728500Y-83856840D01*
X170712782Y-83777820D01*
X170831488Y-84064402D01*
X171065137Y-84414083D01*
X171362517Y-84711463D01*
X171712198Y-84945112D01*
X172100744Y-85106053D01*
X172513221Y-85188100D01*
X172933779Y-85188100D01*
X173346256Y-85106053D01*
X173734802Y-84945112D01*
X174084483Y-84711463D01*
X174381863Y-84414083D01*
X174615512Y-84064402D01*
X174776453Y-83675856D01*
X174858500Y-83263379D01*
X174858500Y-82842821D01*
X174776453Y-82430344D01*
X174615512Y-82041798D01*
X174381863Y-81692117D01*
X174084483Y-81394737D01*
X173734802Y-81161088D01*
X173346256Y-81000147D01*
X172933779Y-80918100D01*
X172513221Y-80918100D01*
X172100744Y-81000147D01*
X171712198Y-81161088D01*
X171362517Y-81394737D01*
X171065137Y-81692117D01*
X170831488Y-82041798D01*
X170670547Y-82430344D01*
X170588500Y-82842821D01*
X170588500Y-83263379D01*
X170629197Y-83467978D01*
X170559490Y-83299689D01*
X170396975Y-83056468D01*
X170190132Y-82849625D01*
X170177400Y-82841118D01*
X170177400Y-82805486D01*
X170285752Y-82733087D01*
X170513487Y-82505352D01*
X170692418Y-82237563D01*
X170815668Y-81940012D01*
X170878500Y-81624133D01*
X170878500Y-81302067D01*
X170815668Y-80986188D01*
X170692418Y-80688637D01*
X170513487Y-80420848D01*
X170285752Y-80193113D01*
X170017963Y-80014182D01*
X169720412Y-79890932D01*
X169404533Y-79828100D01*
X169082467Y-79828100D01*
X168766588Y-79890932D01*
X168469037Y-80014182D01*
X168201248Y-80193113D01*
X167973513Y-80420848D01*
X167973500Y-80420867D01*
X167973487Y-80420848D01*
X167745752Y-80193113D01*
X167477963Y-80014182D01*
X167180412Y-79890932D01*
X166864533Y-79828100D01*
X166542467Y-79828100D01*
X166226588Y-79890932D01*
X165929037Y-80014182D01*
X165661248Y-80193113D01*
X165433513Y-80420848D01*
X165433500Y-80420867D01*
X165433487Y-80420848D01*
X165205752Y-80193113D01*
X164937963Y-80014182D01*
X164640412Y-79890932D01*
X164324533Y-79828100D01*
X164002467Y-79828100D01*
X163686588Y-79890932D01*
X163389037Y-80014182D01*
X163121248Y-80193113D01*
X162893513Y-80420848D01*
X162893500Y-80420867D01*
X162893487Y-80420848D01*
X162665752Y-80193113D01*
X162397963Y-80014182D01*
X162100412Y-79890932D01*
X161784533Y-79828100D01*
X161462467Y-79828100D01*
X161146588Y-79890932D01*
X160849037Y-80014182D01*
X160581248Y-80193113D01*
X160353513Y-80420848D01*
X160353500Y-80420867D01*
X160353487Y-80420848D01*
X160125752Y-80193113D01*
X159857963Y-80014182D01*
X159560412Y-79890932D01*
X159244533Y-79828100D01*
X158922467Y-79828100D01*
X158606588Y-79890932D01*
X158309037Y-80014182D01*
X158041248Y-80193113D01*
X157813513Y-80420848D01*
X157813500Y-80420867D01*
X157813487Y-80420848D01*
X157585752Y-80193113D01*
X157317963Y-80014182D01*
X157020412Y-79890932D01*
X156704533Y-79828100D01*
X156382467Y-79828100D01*
X156066588Y-79890932D01*
X155769037Y-80014182D01*
X155501248Y-80193113D01*
X155273513Y-80420848D01*
X155273500Y-80420867D01*
X155273487Y-80420848D01*
X155045752Y-80193113D01*
X154777963Y-80014182D01*
X154480412Y-79890932D01*
X154164533Y-79828100D01*
X153842467Y-79828100D01*
X153526588Y-79890932D01*
X153229037Y-80014182D01*
X152961248Y-80193113D01*
X152733513Y-80420848D01*
X152733500Y-80420867D01*
X152733487Y-80420848D01*
X152505752Y-80193113D01*
X152237963Y-80014182D01*
X151940412Y-79890932D01*
X151624533Y-79828100D01*
X151302467Y-79828100D01*
X150986588Y-79890932D01*
X150689037Y-80014182D01*
X150421248Y-80193113D01*
X150193513Y-80420848D01*
X150193500Y-80420867D01*
X150193487Y-80420848D01*
X149965752Y-80193113D01*
X149697963Y-80014182D01*
X149400412Y-79890932D01*
X149084533Y-79828100D01*
X148762467Y-79828100D01*
X148446588Y-79890932D01*
X148149037Y-80014182D01*
X147881248Y-80193113D01*
X147653513Y-80420848D01*
X147653500Y-80420867D01*
X147653487Y-80420848D01*
X147425752Y-80193113D01*
X147157963Y-80014182D01*
X146860412Y-79890932D01*
X146544533Y-79828100D01*
X146222467Y-79828100D01*
X145906588Y-79890932D01*
X145609037Y-80014182D01*
X145341248Y-80193113D01*
X145113513Y-80420848D01*
X145113500Y-80420867D01*
X145113487Y-80420848D01*
X144885752Y-80193113D01*
X144617963Y-80014182D01*
X144320412Y-79890932D01*
X144004533Y-79828100D01*
X143682467Y-79828100D01*
X143366588Y-79890932D01*
X143069037Y-80014182D01*
X142801248Y-80193113D01*
X142573513Y-80420848D01*
X142573500Y-80420867D01*
X142573487Y-80420848D01*
X142345752Y-80193113D01*
X142077963Y-80014182D01*
X141780412Y-79890932D01*
X141464533Y-79828100D01*
X141142467Y-79828100D01*
X140826588Y-79890932D01*
X140529037Y-80014182D01*
X140261248Y-80193113D01*
X140033513Y-80420848D01*
X140033500Y-80420867D01*
X140033487Y-80420848D01*
X139805752Y-80193113D01*
X139537963Y-80014182D01*
X139240412Y-79890932D01*
X138924533Y-79828100D01*
X138602467Y-79828100D01*
X138286588Y-79890932D01*
X137989037Y-80014182D01*
X137721248Y-80193113D01*
X137493513Y-80420848D01*
X137493500Y-80420867D01*
X137493487Y-80420848D01*
X137265752Y-80193113D01*
X136997963Y-80014182D01*
X136700412Y-79890932D01*
X136384533Y-79828100D01*
X136062467Y-79828100D01*
X135746588Y-79890932D01*
X135449037Y-80014182D01*
X135181248Y-80193113D01*
X134953513Y-80420848D01*
X134953500Y-80420867D01*
X134953487Y-80420848D01*
X134725752Y-80193113D01*
X134457963Y-80014182D01*
X134160412Y-79890932D01*
X133844533Y-79828100D01*
X133522467Y-79828100D01*
X133206588Y-79890932D01*
X132909037Y-80014182D01*
X132641248Y-80193113D01*
X132413513Y-80420848D01*
X132413500Y-80420867D01*
X132413487Y-80420848D01*
X132185752Y-80193113D01*
X131917963Y-80014182D01*
X131620412Y-79890932D01*
X131304533Y-79828100D01*
X130982467Y-79828100D01*
X130666588Y-79890932D01*
X130369037Y-80014182D01*
X130101248Y-80193113D01*
X129873513Y-80420848D01*
X129873500Y-80420867D01*
X129873487Y-80420848D01*
X129645752Y-80193113D01*
X129377963Y-80014182D01*
X129080412Y-79890932D01*
X128764533Y-79828100D01*
X128442467Y-79828100D01*
X128126588Y-79890932D01*
X127829037Y-80014182D01*
X127561248Y-80193113D01*
X127333513Y-80420848D01*
X127333500Y-80420867D01*
X127333487Y-80420848D01*
X127105752Y-80193113D01*
X126837963Y-80014182D01*
X126540412Y-79890932D01*
X126224533Y-79828100D01*
X125902467Y-79828100D01*
X125586588Y-79890932D01*
X125289037Y-80014182D01*
X125021248Y-80193113D01*
X124793513Y-80420848D01*
X124793500Y-80420867D01*
X124793487Y-80420848D01*
X124565752Y-80193113D01*
X124297963Y-80014182D01*
X124000412Y-79890932D01*
X123684533Y-79828100D01*
X123362467Y-79828100D01*
X123046588Y-79890932D01*
X122749037Y-80014182D01*
X122481248Y-80193113D01*
X122253513Y-80420848D01*
X122253500Y-80420867D01*
X122253487Y-80420848D01*
X122025752Y-80193113D01*
X121757963Y-80014182D01*
X121460412Y-79890932D01*
X121144533Y-79828100D01*
X120822467Y-79828100D01*
X120506588Y-79890932D01*
X120209037Y-80014182D01*
X119941248Y-80193113D01*
X119713513Y-80420848D01*
X119534582Y-80688637D01*
X119411332Y-80986188D01*
X119348500Y-81302067D01*
X116813079Y-81302067D01*
X117015127Y-80814281D01*
X117047131Y-80715784D01*
X117285238Y-79723998D01*
X117301439Y-79621707D01*
X117333597Y-79213100D01*
X178113403Y-79213100D01*
X178145561Y-79621707D01*
G37*
X178145561Y-79621707D02*
X178161762Y-79723998D01*
X178399869Y-80715784D01*
X178431872Y-80814281D01*
X178822197Y-81756609D01*
X178869215Y-81848887D01*
X179402147Y-82718553D01*
X179428329Y-82754589D01*
X179463022Y-82802340D01*
X180125438Y-83577930D01*
X180198670Y-83651162D01*
X180974260Y-84313578D01*
X181058047Y-84374453D01*
X181927713Y-84907384D01*
X182019991Y-84954403D01*
X182962319Y-85344727D01*
X183060816Y-85376731D01*
X184052602Y-85614838D01*
X184154893Y-85631039D01*
X184563500Y-85663197D01*
X184563501Y-120443003D01*
X184154893Y-120475161D01*
X184052602Y-120491362D01*
X183060816Y-120729469D01*
X182962319Y-120761473D01*
X182019991Y-121151797D01*
X181929118Y-121198100D01*
X181927713Y-121198816D01*
X181058047Y-121731747D01*
X180974260Y-121792622D01*
X180198670Y-122455038D01*
X180125438Y-122528270D01*
X179463022Y-123303860D01*
X179432584Y-123345754D01*
X179402147Y-123387647D01*
X178869215Y-124257313D01*
X178849892Y-124295238D01*
X178822197Y-124349591D01*
X178431872Y-125291919D01*
X178402437Y-125382511D01*
X178399869Y-125390416D01*
X178161762Y-126382202D01*
X178145561Y-126484493D01*
X178113403Y-126893100D01*
X117333597Y-126893100D01*
X117301439Y-126484493D01*
X117285238Y-126382202D01*
X117047131Y-125390416D01*
X117015127Y-125291919D01*
X116624803Y-124349591D01*
X116577784Y-124257313D01*
X116044853Y-123387647D01*
X115983978Y-123303860D01*
X115590214Y-122842821D01*
X120588500Y-122842821D01*
X120588500Y-123263379D01*
X120670547Y-123675856D01*
X120831488Y-124064402D01*
X121065137Y-124414083D01*
X121362517Y-124711463D01*
X121712198Y-124945112D01*
X122100744Y-125106053D01*
X122513221Y-125188100D01*
X122933779Y-125188100D01*
X123346256Y-125106053D01*
X123734802Y-124945112D01*
X124084483Y-124711463D01*
X124381863Y-124414083D01*
X124615512Y-124064402D01*
X124776453Y-123675856D01*
X124858500Y-123263379D01*
X124858500Y-122842821D01*
X124776453Y-122430344D01*
X124615512Y-122041798D01*
X124381863Y-121692117D01*
X124084483Y-121394737D01*
X123734802Y-121161088D01*
X123346256Y-121000147D01*
X122933779Y-120918100D01*
X122513221Y-120918100D01*
X122100744Y-121000147D01*
X121712198Y-121161088D01*
X121362517Y-121394737D01*
X121065137Y-121692117D01*
X120831488Y-122041798D01*
X120670547Y-122430344D01*
X120588500Y-122842821D01*
X115590214Y-122842821D01*
X115321562Y-122528270D01*
X115248330Y-122455038D01*
X114472740Y-121792622D01*
X114404284Y-121742886D01*
X114388953Y-121731747D01*
X113519287Y-121198815D01*
X113427009Y-121151797D01*
X112484681Y-120761472D01*
X112386184Y-120729469D01*
X111394398Y-120491362D01*
X111292107Y-120475161D01*
X110883500Y-120443003D01*
X110883500Y-102842821D01*
X113588500Y-102842821D01*
X113588500Y-103263379D01*
X113670547Y-103675856D01*
X113831488Y-104064402D01*
X114065137Y-104414083D01*
X114362517Y-104711463D01*
X114712198Y-104945112D01*
X115100744Y-105106053D01*
X115513221Y-105188100D01*
X115933779Y-105188100D01*
X116346256Y-105106053D01*
X116734802Y-104945112D01*
X117084483Y-104711463D01*
X117381863Y-104414083D01*
X117615512Y-104064402D01*
X117776453Y-103675856D01*
X117858500Y-103263379D01*
X117858500Y-102842821D01*
X117776453Y-102430344D01*
X117615512Y-102041798D01*
X117381863Y-101692117D01*
X117084483Y-101394737D01*
X116734802Y-101161088D01*
X116346256Y-101000147D01*
X115933779Y-100918100D01*
X115513221Y-100918100D01*
X115100744Y-101000147D01*
X114712198Y-101161088D01*
X114362517Y-101394737D01*
X114065137Y-101692117D01*
X113831488Y-102041798D01*
X113670547Y-102430344D01*
X113588500Y-102842821D01*
X110883500Y-102842821D01*
X110883500Y-85663197D01*
X111292107Y-85631039D01*
X111394398Y-85614838D01*
X112386184Y-85376731D01*
X112388615Y-85375941D01*
X112484681Y-85344728D01*
X113427009Y-84954403D01*
X113473148Y-84930893D01*
X113519287Y-84907385D01*
X114388953Y-84374453D01*
X114430846Y-84344016D01*
X114472740Y-84313578D01*
X115248330Y-83651162D01*
X115321563Y-83577929D01*
X115983978Y-82802340D01*
X116044853Y-82718553D01*
X116044854Y-82718552D01*
X116577784Y-81848887D01*
X116624803Y-81756609D01*
X116813079Y-81302067D01*
X119348500Y-81302067D01*
X119348500Y-81624133D01*
X119411332Y-81940012D01*
X119534582Y-82237563D01*
X119713513Y-82505352D01*
X119812709Y-82604548D01*
X119779006Y-82622563D01*
X119682315Y-82701915D01*
X119602963Y-82798606D01*
X119543998Y-82908920D01*
X119507688Y-83028618D01*
X119495428Y-83153100D01*
X119495428Y-84853100D01*
X119507688Y-84977582D01*
X119543998Y-85097280D01*
X119602963Y-85207594D01*
X119656722Y-85273100D01*
X119602963Y-85338606D01*
X119543998Y-85448920D01*
X119507688Y-85568618D01*
X119495428Y-85693100D01*
X119495428Y-87393100D01*
X119507688Y-87517582D01*
X119543998Y-87637280D01*
X119602963Y-87747594D01*
X119656722Y-87813100D01*
X119602963Y-87878606D01*
X119543998Y-87988920D01*
X119507688Y-88108618D01*
X119495428Y-88233100D01*
X119495428Y-89933100D01*
X119507688Y-90057582D01*
X119543998Y-90177280D01*
X119602963Y-90287594D01*
X119682315Y-90384285D01*
X119779006Y-90463637D01*
X119812709Y-90481652D01*
X119713513Y-90580848D01*
X119534582Y-90848637D01*
X119411332Y-91146188D01*
X119348500Y-91462067D01*
X119348500Y-91784133D01*
X119411332Y-92100012D01*
X119534582Y-92397563D01*
X119713513Y-92665352D01*
X119941248Y-92893087D01*
X119941267Y-92893100D01*
X119941248Y-92893113D01*
X119713513Y-93120848D01*
X119534582Y-93388637D01*
X119411332Y-93686188D01*
X119348500Y-94002067D01*
X119348500Y-94324133D01*
X119411332Y-94640012D01*
X119534582Y-94937563D01*
X119713513Y-95205352D01*
X119941248Y-95433087D01*
X119941267Y-95433100D01*
X119941248Y-95433113D01*
X119713513Y-95660848D01*
X119534582Y-95928637D01*
X119411332Y-96226188D01*
X119348500Y-96542067D01*
X119348500Y-96864133D01*
X119411332Y-97180012D01*
X119534582Y-97477563D01*
X119713513Y-97745352D01*
X119812709Y-97844548D01*
X119779006Y-97862563D01*
X119682315Y-97941915D01*
X119602963Y-98038606D01*
X119543998Y-98148920D01*
X119507688Y-98268618D01*
X119495428Y-98393100D01*
X119495428Y-100093100D01*
X119507688Y-100217582D01*
X119543998Y-100337280D01*
X119602963Y-100447594D01*
X119656722Y-100513100D01*
X119602963Y-100578606D01*
X119543998Y-100688920D01*
X119507688Y-100808618D01*
X119495428Y-100933100D01*
X119495428Y-102633100D01*
X119507688Y-102757582D01*
X119543998Y-102877280D01*
X119602963Y-102987594D01*
X119682315Y-103084285D01*
X119779006Y-103163637D01*
X119812709Y-103181652D01*
X119713513Y-103280848D01*
X119534582Y-103548637D01*
X119411332Y-103846188D01*
X119348500Y-104162067D01*
X119348500Y-104484133D01*
X119411332Y-104800012D01*
X119534582Y-105097563D01*
X119713513Y-105365352D01*
X119812709Y-105464548D01*
X119779006Y-105482563D01*
X119682315Y-105561915D01*
X119602963Y-105658606D01*
X119543998Y-105768920D01*
X119507688Y-105888618D01*
X119495428Y-106013100D01*
X119495428Y-107713100D01*
X119507688Y-107837582D01*
X119543998Y-107957280D01*
X119602963Y-108067594D01*
X119656722Y-108133100D01*
X119602963Y-108198606D01*
X119543998Y-108308920D01*
X119507688Y-108428618D01*
X119495428Y-108553100D01*
X119495428Y-110253100D01*
X119507688Y-110377582D01*
X119543998Y-110497280D01*
X119602963Y-110607594D01*
X119656722Y-110673100D01*
X119602963Y-110738606D01*
X119543998Y-110848920D01*
X119507688Y-110968618D01*
X119495428Y-111093100D01*
X119495428Y-112793100D01*
X119507688Y-112917582D01*
X119543998Y-113037280D01*
X119602963Y-113147594D01*
X119682315Y-113244285D01*
X119779006Y-113323637D01*
X119812709Y-113341652D01*
X119713513Y-113440848D01*
X119534582Y-113708637D01*
X119411332Y-114006188D01*
X119348500Y-114322067D01*
X119348500Y-114644133D01*
X119411332Y-114960012D01*
X119534582Y-115257563D01*
X119713513Y-115525352D01*
X119941248Y-115753087D01*
X119941267Y-115753100D01*
X119941248Y-115753113D01*
X119713513Y-115980848D01*
X119534582Y-116248637D01*
X119411332Y-116546188D01*
X119348500Y-116862067D01*
X119348500Y-117184133D01*
X119411332Y-117500012D01*
X119534582Y-117797563D01*
X119713513Y-118065352D01*
X119941248Y-118293087D01*
X120209037Y-118472018D01*
X120506588Y-118595268D01*
X120822467Y-118658100D01*
X121144533Y-118658100D01*
X121460412Y-118595268D01*
X121757963Y-118472018D01*
X122025752Y-118293087D01*
X122253487Y-118065352D01*
X122253500Y-118065333D01*
X122253513Y-118065352D01*
X122481248Y-118293087D01*
X122749037Y-118472018D01*
X123046588Y-118595268D01*
X123362467Y-118658100D01*
X123684533Y-118658100D01*
X124000412Y-118595268D01*
X124297963Y-118472018D01*
X124565752Y-118293087D01*
X124793487Y-118065352D01*
X124793500Y-118065333D01*
X124793513Y-118065352D01*
X125021248Y-118293087D01*
X125289037Y-118472018D01*
X125586588Y-118595268D01*
X125902467Y-118658100D01*
X126224533Y-118658100D01*
X126540412Y-118595268D01*
X126837963Y-118472018D01*
X127105752Y-118293087D01*
X127333487Y-118065352D01*
X127333500Y-118065333D01*
X127333513Y-118065352D01*
X127561248Y-118293087D01*
X127829037Y-118472018D01*
X128126588Y-118595268D01*
X128442467Y-118658100D01*
X128764533Y-118658100D01*
X129080412Y-118595268D01*
X129377963Y-118472018D01*
X129645752Y-118293087D01*
X129873487Y-118065352D01*
X129873500Y-118065333D01*
X129873513Y-118065352D01*
X130101248Y-118293087D01*
X130101267Y-118293100D01*
X130101248Y-118293113D01*
X129873513Y-118520848D01*
X129694582Y-118788637D01*
X129571332Y-119086188D01*
X129508500Y-119402067D01*
X129508500Y-119724133D01*
X129571332Y-120040012D01*
X129694582Y-120337563D01*
X129873513Y-120605352D01*
X130101248Y-120833087D01*
X130101267Y-120833100D01*
X130101248Y-120833113D01*
X129873513Y-121060848D01*
X129694582Y-121328637D01*
X129571332Y-121626188D01*
X129508500Y-121942067D01*
X129508500Y-122264133D01*
X129571332Y-122580012D01*
X129694582Y-122877563D01*
X129873513Y-123145352D01*
X130101248Y-123373087D01*
X130101267Y-123373100D01*
X130101248Y-123373113D01*
X129873513Y-123600848D01*
X129694582Y-123868637D01*
X129571332Y-124166188D01*
X129508500Y-124482067D01*
X129508500Y-124804133D01*
X129571332Y-125120012D01*
X129694582Y-125417563D01*
X129873513Y-125685352D01*
X130101248Y-125913087D01*
X130369037Y-126092018D01*
X130666588Y-126215268D01*
X130982467Y-126278100D01*
X131304533Y-126278100D01*
X131620412Y-126215268D01*
X131917963Y-126092018D01*
X132185752Y-125913087D01*
X132413487Y-125685352D01*
X132413500Y-125685333D01*
X132413513Y-125685352D01*
X132641248Y-125913087D01*
X132909037Y-126092018D01*
X133206588Y-126215268D01*
X133522467Y-126278100D01*
X133844533Y-126278100D01*
X134160412Y-126215268D01*
X134457963Y-126092018D01*
X134725752Y-125913087D01*
X134953487Y-125685352D01*
X134953500Y-125685333D01*
X134953513Y-125685352D01*
X135181248Y-125913087D01*
X135449037Y-126092018D01*
X135746588Y-126215268D01*
X136062467Y-126278100D01*
X136384533Y-126278100D01*
X136700412Y-126215268D01*
X136997963Y-126092018D01*
X137265752Y-125913087D01*
X137493487Y-125685352D01*
X137493500Y-125685333D01*
X137493513Y-125685352D01*
X137721248Y-125913087D01*
X137989037Y-126092018D01*
X138286588Y-126215268D01*
X138602467Y-126278100D01*
X138924533Y-126278100D01*
X139240412Y-126215268D01*
X139537963Y-126092018D01*
X139805752Y-125913087D01*
X140033487Y-125685352D01*
X140033500Y-125685333D01*
X140033513Y-125685352D01*
X140261248Y-125913087D01*
X140529037Y-126092018D01*
X140826588Y-126215268D01*
X141142467Y-126278100D01*
X141464533Y-126278100D01*
X141780412Y-126215268D01*
X142077963Y-126092018D01*
X142345752Y-125913087D01*
X142573487Y-125685352D01*
X142573500Y-125685333D01*
X142573513Y-125685352D01*
X142801248Y-125913087D01*
X143069037Y-126092018D01*
X143366588Y-126215268D01*
X143682467Y-126278100D01*
X144004533Y-126278100D01*
X144320412Y-126215268D01*
X144617963Y-126092018D01*
X144885752Y-125913087D01*
X145113487Y-125685352D01*
X145113500Y-125685333D01*
X145113513Y-125685352D01*
X145341248Y-125913087D01*
X145609037Y-126092018D01*
X145906588Y-126215268D01*
X146222467Y-126278100D01*
X146544533Y-126278100D01*
X146860412Y-126215268D01*
X147157963Y-126092018D01*
X147425752Y-125913087D01*
X147653487Y-125685352D01*
X147653500Y-125685333D01*
X147653513Y-125685352D01*
X147881248Y-125913087D01*
X148149037Y-126092018D01*
X148446588Y-126215268D01*
X148762467Y-126278100D01*
X149084533Y-126278100D01*
X149400412Y-126215268D01*
X149697963Y-126092018D01*
X149965752Y-125913087D01*
X150193487Y-125685352D01*
X150193500Y-125685333D01*
X150193513Y-125685352D01*
X150421248Y-125913087D01*
X150689037Y-126092018D01*
X150986588Y-126215268D01*
X151302467Y-126278100D01*
X151624533Y-126278100D01*
X151940412Y-126215268D01*
X152237963Y-126092018D01*
X152505752Y-125913087D01*
X152733487Y-125685352D01*
X152733500Y-125685333D01*
X152733513Y-125685352D01*
X152961248Y-125913087D01*
X153229037Y-126092018D01*
X153526588Y-126215268D01*
X153842467Y-126278100D01*
X154164533Y-126278100D01*
X154480412Y-126215268D01*
X154777963Y-126092018D01*
X155045752Y-125913087D01*
X155273487Y-125685352D01*
X155273500Y-125685333D01*
X155273513Y-125685352D01*
X155501248Y-125913087D01*
X155769037Y-126092018D01*
X156066588Y-126215268D01*
X156382467Y-126278100D01*
X156704533Y-126278100D01*
X157020412Y-126215268D01*
X157317963Y-126092018D01*
X157585752Y-125913087D01*
X157813487Y-125685352D01*
X157813500Y-125685333D01*
X157813513Y-125685352D01*
X158041248Y-125913087D01*
X158309037Y-126092018D01*
X158606588Y-126215268D01*
X158922467Y-126278100D01*
X159244533Y-126278100D01*
X159560412Y-126215268D01*
X159857963Y-126092018D01*
X160125752Y-125913087D01*
X160353487Y-125685352D01*
X160353500Y-125685333D01*
X160353513Y-125685352D01*
X160581248Y-125913087D01*
X160849037Y-126092018D01*
X161146588Y-126215268D01*
X161462467Y-126278100D01*
X161784533Y-126278100D01*
X162100412Y-126215268D01*
X162397963Y-126092018D01*
X162665752Y-125913087D01*
X162893487Y-125685352D01*
X162893500Y-125685333D01*
X162893513Y-125685352D01*
X163121248Y-125913087D01*
X163389037Y-126092018D01*
X163686588Y-126215268D01*
X164002467Y-126278100D01*
X164324533Y-126278100D01*
X164640412Y-126215268D01*
X164937963Y-126092018D01*
X165205752Y-125913087D01*
X165433487Y-125685352D01*
X165433500Y-125685333D01*
X165433513Y-125685352D01*
X165661248Y-125913087D01*
X165929037Y-126092018D01*
X166226588Y-126215268D01*
X166542467Y-126278100D01*
X166864533Y-126278100D01*
X167180412Y-126215268D01*
X167477963Y-126092018D01*
X167745752Y-125913087D01*
X167973487Y-125685352D01*
X167973500Y-125685333D01*
X167973513Y-125685352D01*
X168201248Y-125913087D01*
X168469037Y-126092018D01*
X168766588Y-126215268D01*
X169082467Y-126278100D01*
X169404533Y-126278100D01*
X169720412Y-126215268D01*
X170017963Y-126092018D01*
X170285752Y-125913087D01*
X170513487Y-125685352D01*
X170692418Y-125417563D01*
X170815668Y-125120012D01*
X170878500Y-124804133D01*
X170878500Y-124482067D01*
X170815668Y-124166188D01*
X170692418Y-123868637D01*
X170513487Y-123600848D01*
X170285752Y-123373113D01*
X170285733Y-123373100D01*
X170285752Y-123373087D01*
X170513487Y-123145352D01*
X170588500Y-123033087D01*
X170588500Y-123263379D01*
X170670547Y-123675856D01*
X170831488Y-124064402D01*
X171065137Y-124414083D01*
X171362517Y-124711463D01*
X171712198Y-124945112D01*
X172100744Y-125106053D01*
X172513221Y-125188100D01*
X172933779Y-125188100D01*
X173346256Y-125106053D01*
X173734802Y-124945112D01*
X174084483Y-124711463D01*
X174381863Y-124414083D01*
X174615512Y-124064402D01*
X174776453Y-123675856D01*
X174858500Y-123263379D01*
X174858500Y-122842821D01*
X174776453Y-122430344D01*
X174615512Y-122041798D01*
X174381863Y-121692117D01*
X174084483Y-121394737D01*
X173734802Y-121161088D01*
X173346256Y-121000147D01*
X172933779Y-120918100D01*
X172513221Y-120918100D01*
X172100744Y-121000147D01*
X171712198Y-121161088D01*
X171362517Y-121394737D01*
X171065137Y-121692117D01*
X170878500Y-121971439D01*
X170878500Y-121942067D01*
X170815668Y-121626188D01*
X170692418Y-121328637D01*
X170513487Y-121060848D01*
X170285752Y-120833113D01*
X170285733Y-120833100D01*
X170285752Y-120833087D01*
X170513487Y-120605352D01*
X170692418Y-120337563D01*
X170815668Y-120040012D01*
X170878500Y-119724133D01*
X170878500Y-119402067D01*
X170815668Y-119086188D01*
X170692418Y-118788637D01*
X170513487Y-118520848D01*
X170285752Y-118293113D01*
X170285733Y-118293100D01*
X170285752Y-118293087D01*
X170513487Y-118065352D01*
X170692418Y-117797563D01*
X170759607Y-117635354D01*
X171009037Y-117802018D01*
X171306588Y-117925268D01*
X171622467Y-117988100D01*
X171944533Y-117988100D01*
X172260412Y-117925268D01*
X172557963Y-117802018D01*
X172825752Y-117623087D01*
X173053487Y-117395352D01*
X173158559Y-117238100D01*
X176885428Y-117238100D01*
X176885428Y-117553100D01*
X176897688Y-117677582D01*
X176933998Y-117797280D01*
X176992963Y-117907594D01*
X177072315Y-118004285D01*
X177169006Y-118083637D01*
X177279320Y-118142602D01*
X177399018Y-118178912D01*
X177523500Y-118191172D01*
X179923500Y-118191172D01*
X180047982Y-118178912D01*
X180167680Y-118142602D01*
X180277994Y-118083637D01*
X180374685Y-118004285D01*
X180454037Y-117907594D01*
X180513002Y-117797280D01*
X180549312Y-117677582D01*
X180561572Y-117553100D01*
X180561572Y-115153100D01*
X180549312Y-115028618D01*
X180513002Y-114908920D01*
X180454037Y-114798606D01*
X180374685Y-114701915D01*
X180277994Y-114622563D01*
X180167680Y-114563598D01*
X180047982Y-114527288D01*
X179923500Y-114515028D01*
X179506338Y-114515028D01*
X179592699Y-114479256D01*
X179893244Y-114278438D01*
X180148838Y-114022844D01*
X180349656Y-113722299D01*
X180487982Y-113388350D01*
X180558500Y-113033832D01*
X180558500Y-112672368D01*
X180487982Y-112317850D01*
X180349656Y-111983901D01*
X180148838Y-111683356D01*
X179893244Y-111427762D01*
X179592699Y-111226944D01*
X179293713Y-111103100D01*
X179592699Y-110979256D01*
X179893244Y-110778438D01*
X180148838Y-110522844D01*
X180349656Y-110222299D01*
X180487982Y-109888350D01*
X180558500Y-109533832D01*
X180558500Y-109172368D01*
X180487982Y-108817850D01*
X180349656Y-108483901D01*
X180148838Y-108183356D01*
X179893244Y-107927762D01*
X179592699Y-107726944D01*
X179258750Y-107588618D01*
X178904232Y-107518100D01*
X178542768Y-107518100D01*
X178188250Y-107588618D01*
X177854301Y-107726944D01*
X177553756Y-107927762D01*
X177298162Y-108183356D01*
X177107902Y-108468100D01*
X173158559Y-108468100D01*
X173053487Y-108310848D01*
X172825752Y-108083113D01*
X172557963Y-107904182D01*
X172260412Y-107780932D01*
X171944533Y-107718100D01*
X171622467Y-107718100D01*
X171306588Y-107780932D01*
X171009037Y-107904182D01*
X170741248Y-108083113D01*
X170513513Y-108310848D01*
X170406594Y-108470864D01*
X170396975Y-108456468D01*
X170190132Y-108249625D01*
X170128500Y-108208444D01*
X170128500Y-108057756D01*
X170190132Y-108016575D01*
X170396975Y-107809732D01*
X170559490Y-107566511D01*
X170671432Y-107296258D01*
X170728500Y-107009360D01*
X170728500Y-106716840D01*
X170671432Y-106429942D01*
X170559490Y-106159689D01*
X170396975Y-105916468D01*
X170190132Y-105709625D01*
X170150736Y-105683302D01*
X170285752Y-105593087D01*
X170420689Y-105458150D01*
X172368055Y-105458150D01*
X172463758Y-105722499D01*
X172753287Y-105863338D01*
X173064729Y-105944985D01*
X173386115Y-105964305D01*
X173705095Y-105920554D01*
X174009411Y-105815414D01*
X174183242Y-105722499D01*
X174278945Y-105458150D01*
X173323500Y-104502705D01*
X172368055Y-105458150D01*
X170420689Y-105458150D01*
X170513487Y-105365352D01*
X170692418Y-105097563D01*
X170815668Y-104800012D01*
X170878500Y-104484133D01*
X170878500Y-104385715D01*
X171682295Y-104385715D01*
X171726046Y-104704695D01*
X171831186Y-105009011D01*
X171924101Y-105182842D01*
X172188450Y-105278545D01*
X173143895Y-104323100D01*
X173503105Y-104323100D01*
X174458550Y-105278545D01*
X174722899Y-105182842D01*
X174863738Y-104893313D01*
X174945385Y-104581871D01*
X174964705Y-104260485D01*
X174920954Y-103941505D01*
X174815814Y-103637189D01*
X174722899Y-103463358D01*
X174458550Y-103367655D01*
X173503105Y-104323100D01*
X173143895Y-104323100D01*
X172188450Y-103367655D01*
X171924101Y-103463358D01*
X171783262Y-103752887D01*
X171701615Y-104064329D01*
X171682295Y-104385715D01*
X170878500Y-104385715D01*
X170878500Y-104162067D01*
X170815668Y-103846188D01*
X170692418Y-103548637D01*
X170513487Y-103280848D01*
X170285752Y-103053113D01*
X170150736Y-102962898D01*
X170190132Y-102936575D01*
X170208557Y-102918150D01*
X172368055Y-102918150D01*
X172416911Y-103053100D01*
X172368055Y-103188050D01*
X173323500Y-104143495D01*
X174278945Y-103188050D01*
X174230089Y-103053100D01*
X174278945Y-102918150D01*
X174203616Y-102842821D01*
X177588500Y-102842821D01*
X177588500Y-103263379D01*
X177670547Y-103675856D01*
X177831488Y-104064402D01*
X178065137Y-104414083D01*
X178362517Y-104711463D01*
X178712198Y-104945112D01*
X179100744Y-105106053D01*
X179513221Y-105188100D01*
X179933779Y-105188100D01*
X180346256Y-105106053D01*
X180734802Y-104945112D01*
X181084483Y-104711463D01*
X181381863Y-104414083D01*
X181615512Y-104064402D01*
X181776453Y-103675856D01*
X181858500Y-103263379D01*
X181858500Y-102842821D01*
X181776453Y-102430344D01*
X181615512Y-102041798D01*
X181381863Y-101692117D01*
X181084483Y-101394737D01*
X180734802Y-101161088D01*
X180346256Y-101000147D01*
X179933779Y-100918100D01*
X179513221Y-100918100D01*
X179100744Y-101000147D01*
X178712198Y-101161088D01*
X178362517Y-101394737D01*
X178065137Y-101692117D01*
X177831488Y-102041798D01*
X177670547Y-102430344D01*
X177588500Y-102842821D01*
X174203616Y-102842821D01*
X173323500Y-101962705D01*
X172368055Y-102918150D01*
X170208557Y-102918150D01*
X170396975Y-102729732D01*
X170559490Y-102486511D01*
X170671432Y-102216258D01*
X170728500Y-101929360D01*
X170728500Y-101845715D01*
X171682295Y-101845715D01*
X171726046Y-102164695D01*
X171831186Y-102469011D01*
X171924101Y-102642842D01*
X172188450Y-102738545D01*
X173143895Y-101783100D01*
X173503105Y-101783100D01*
X174458550Y-102738545D01*
X174722899Y-102642842D01*
X174863738Y-102353313D01*
X174945385Y-102041871D01*
X174964705Y-101720485D01*
X174920954Y-101401505D01*
X174815814Y-101097189D01*
X174722899Y-100923358D01*
X174458550Y-100827655D01*
X173503105Y-101783100D01*
X173143895Y-101783100D01*
X172188450Y-100827655D01*
X171924101Y-100923358D01*
X171783262Y-101212887D01*
X171701615Y-101524329D01*
X171682295Y-101845715D01*
X170728500Y-101845715D01*
X170728500Y-101636840D01*
X170671432Y-101349942D01*
X170559490Y-101079689D01*
X170396975Y-100836468D01*
X170208557Y-100648050D01*
X172368055Y-100648050D01*
X173323500Y-101603495D01*
X174278945Y-100648050D01*
X174183242Y-100383701D01*
X173893713Y-100242862D01*
X173582271Y-100161215D01*
X173260885Y-100141895D01*
X172941905Y-100185646D01*
X172637589Y-100290786D01*
X172463758Y-100383701D01*
X172368055Y-100648050D01*
X170208557Y-100648050D01*
X170190132Y-100629625D01*
X170128500Y-100588444D01*
X170128500Y-100437756D01*
X170190132Y-100396575D01*
X170396975Y-100189732D01*
X170559490Y-99946511D01*
X170671432Y-99676258D01*
X170728500Y-99389360D01*
X170728500Y-99096840D01*
X170671432Y-98809942D01*
X170559490Y-98539689D01*
X170396975Y-98296468D01*
X170190132Y-98089625D01*
X170150736Y-98063302D01*
X170285752Y-97973087D01*
X170493475Y-97765364D01*
X170513513Y-97795352D01*
X170741248Y-98023087D01*
X171009037Y-98202018D01*
X171306588Y-98325268D01*
X171622467Y-98388100D01*
X171944533Y-98388100D01*
X172260412Y-98325268D01*
X172557963Y-98202018D01*
X172825752Y-98023087D01*
X173053487Y-97795352D01*
X173158559Y-97638100D01*
X176885428Y-97638100D01*
X176885428Y-97953100D01*
X176897688Y-98077582D01*
X176933998Y-98197280D01*
X176992963Y-98307594D01*
X177072315Y-98404285D01*
X177169006Y-98483637D01*
X177279320Y-98542602D01*
X177399018Y-98578912D01*
X177523500Y-98591172D01*
X179923500Y-98591172D01*
X180047982Y-98578912D01*
X180167680Y-98542602D01*
X180277994Y-98483637D01*
X180374685Y-98404285D01*
X180454037Y-98307594D01*
X180513002Y-98197280D01*
X180549312Y-98077582D01*
X180561572Y-97953100D01*
X180561572Y-95553100D01*
X180549312Y-95428618D01*
X180513002Y-95308920D01*
X180454037Y-95198606D01*
X180374685Y-95101915D01*
X180277994Y-95022563D01*
X180167680Y-94963598D01*
X180047982Y-94927288D01*
X179923500Y-94915028D01*
X179506338Y-94915028D01*
X179592699Y-94879256D01*
X179893244Y-94678438D01*
X180148838Y-94422844D01*
X180349656Y-94122299D01*
X180487982Y-93788350D01*
X180558500Y-93433832D01*
X180558500Y-93072368D01*
X180487982Y-92717850D01*
X180349656Y-92383901D01*
X180148838Y-92083356D01*
X179893244Y-91827762D01*
X179592699Y-91626944D01*
X179293713Y-91503100D01*
X179592699Y-91379256D01*
X179893244Y-91178438D01*
X180148838Y-90922844D01*
X180349656Y-90622299D01*
X180487982Y-90288350D01*
X180558500Y-89933832D01*
X180558500Y-89572368D01*
X180487982Y-89217850D01*
X180349656Y-88883901D01*
X180148838Y-88583356D01*
X179893244Y-88327762D01*
X179592699Y-88126944D01*
X179258750Y-87988618D01*
X178904232Y-87918100D01*
X178542768Y-87918100D01*
X178188250Y-87988618D01*
X177854301Y-88126944D01*
X177553756Y-88327762D01*
X177298162Y-88583356D01*
X177107902Y-88868100D01*
X173158559Y-88868100D01*
X173053487Y-88710848D01*
X172825752Y-88483113D01*
X172557963Y-88304182D01*
X172260412Y-88180932D01*
X171944533Y-88118100D01*
X171622467Y-88118100D01*
X171306588Y-88180932D01*
X171009037Y-88304182D01*
X170741248Y-88483113D01*
X170643018Y-88581343D01*
X170559490Y-88379689D01*
X170396975Y-88136468D01*
X170190132Y-87929625D01*
X170015740Y-87813100D01*
X170190132Y-87696575D01*
X170396975Y-87489732D01*
X170559490Y-87246511D01*
X170671432Y-86976258D01*
X170728500Y-86689360D01*
X170728500Y-86396840D01*
X170671432Y-86109942D01*
X170559490Y-85839689D01*
X170396975Y-85596468D01*
X170190132Y-85389625D01*
X170128500Y-85348444D01*
X170128500Y-85197756D01*
X170190132Y-85156575D01*
X170396975Y-84949732D01*
X170559490Y-84706511D01*
X170671432Y-84436258D01*
X170728500Y-84149360D01*
X170728500Y-83856840D01*
X170712782Y-83777820D01*
X170831488Y-84064402D01*
X171065137Y-84414083D01*
X171362517Y-84711463D01*
X171712198Y-84945112D01*
X172100744Y-85106053D01*
X172513221Y-85188100D01*
X172933779Y-85188100D01*
X173346256Y-85106053D01*
X173734802Y-84945112D01*
X174084483Y-84711463D01*
X174381863Y-84414083D01*
X174615512Y-84064402D01*
X174776453Y-83675856D01*
X174858500Y-83263379D01*
X174858500Y-82842821D01*
X174776453Y-82430344D01*
X174615512Y-82041798D01*
X174381863Y-81692117D01*
X174084483Y-81394737D01*
X173734802Y-81161088D01*
X173346256Y-81000147D01*
X172933779Y-80918100D01*
X172513221Y-80918100D01*
X172100744Y-81000147D01*
X171712198Y-81161088D01*
X171362517Y-81394737D01*
X171065137Y-81692117D01*
X170831488Y-82041798D01*
X170670547Y-82430344D01*
X170588500Y-82842821D01*
X170588500Y-83263379D01*
X170629197Y-83467978D01*
X170559490Y-83299689D01*
X170396975Y-83056468D01*
X170190132Y-82849625D01*
X170177400Y-82841118D01*
X170177400Y-82805486D01*
X170285752Y-82733087D01*
X170513487Y-82505352D01*
X170692418Y-82237563D01*
X170815668Y-81940012D01*
X170878500Y-81624133D01*
X170878500Y-81302067D01*
X170815668Y-80986188D01*
X170692418Y-80688637D01*
X170513487Y-80420848D01*
X170285752Y-80193113D01*
X170017963Y-80014182D01*
X169720412Y-79890932D01*
X169404533Y-79828100D01*
X169082467Y-79828100D01*
X168766588Y-79890932D01*
X168469037Y-80014182D01*
X168201248Y-80193113D01*
X167973513Y-80420848D01*
X167973500Y-80420867D01*
X167973487Y-80420848D01*
X167745752Y-80193113D01*
X167477963Y-80014182D01*
X167180412Y-79890932D01*
X166864533Y-79828100D01*
X166542467Y-79828100D01*
X166226588Y-79890932D01*
X165929037Y-80014182D01*
X165661248Y-80193113D01*
X165433513Y-80420848D01*
X165433500Y-80420867D01*
X165433487Y-80420848D01*
X165205752Y-80193113D01*
X164937963Y-80014182D01*
X164640412Y-79890932D01*
X164324533Y-79828100D01*
X164002467Y-79828100D01*
X163686588Y-79890932D01*
X163389037Y-80014182D01*
X163121248Y-80193113D01*
X162893513Y-80420848D01*
X162893500Y-80420867D01*
X162893487Y-80420848D01*
X162665752Y-80193113D01*
X162397963Y-80014182D01*
X162100412Y-79890932D01*
X161784533Y-79828100D01*
X161462467Y-79828100D01*
X161146588Y-79890932D01*
X160849037Y-80014182D01*
X160581248Y-80193113D01*
X160353513Y-80420848D01*
X160353500Y-80420867D01*
X160353487Y-80420848D01*
X160125752Y-80193113D01*
X159857963Y-80014182D01*
X159560412Y-79890932D01*
X159244533Y-79828100D01*
X158922467Y-79828100D01*
X158606588Y-79890932D01*
X158309037Y-80014182D01*
X158041248Y-80193113D01*
X157813513Y-80420848D01*
X157813500Y-80420867D01*
X157813487Y-80420848D01*
X157585752Y-80193113D01*
X157317963Y-80014182D01*
X157020412Y-79890932D01*
X156704533Y-79828100D01*
X156382467Y-79828100D01*
X156066588Y-79890932D01*
X155769037Y-80014182D01*
X155501248Y-80193113D01*
X155273513Y-80420848D01*
X155273500Y-80420867D01*
X155273487Y-80420848D01*
X155045752Y-80193113D01*
X154777963Y-80014182D01*
X154480412Y-79890932D01*
X154164533Y-79828100D01*
X153842467Y-79828100D01*
X153526588Y-79890932D01*
X153229037Y-80014182D01*
X152961248Y-80193113D01*
X152733513Y-80420848D01*
X152733500Y-80420867D01*
X152733487Y-80420848D01*
X152505752Y-80193113D01*
X152237963Y-80014182D01*
X151940412Y-79890932D01*
X151624533Y-79828100D01*
X151302467Y-79828100D01*
X150986588Y-79890932D01*
X150689037Y-80014182D01*
X150421248Y-80193113D01*
X150193513Y-80420848D01*
X150193500Y-80420867D01*
X150193487Y-80420848D01*
X149965752Y-80193113D01*
X149697963Y-80014182D01*
X149400412Y-79890932D01*
X149084533Y-79828100D01*
X148762467Y-79828100D01*
X148446588Y-79890932D01*
X148149037Y-80014182D01*
X147881248Y-80193113D01*
X147653513Y-80420848D01*
X147653500Y-80420867D01*
X147653487Y-80420848D01*
X147425752Y-80193113D01*
X147157963Y-80014182D01*
X146860412Y-79890932D01*
X146544533Y-79828100D01*
X146222467Y-79828100D01*
X145906588Y-79890932D01*
X145609037Y-80014182D01*
X145341248Y-80193113D01*
X145113513Y-80420848D01*
X145113500Y-80420867D01*
X145113487Y-80420848D01*
X144885752Y-80193113D01*
X144617963Y-80014182D01*
X144320412Y-79890932D01*
X144004533Y-79828100D01*
X143682467Y-79828100D01*
X143366588Y-79890932D01*
X143069037Y-80014182D01*
X142801248Y-80193113D01*
X142573513Y-80420848D01*
X142573500Y-80420867D01*
X142573487Y-80420848D01*
X142345752Y-80193113D01*
X142077963Y-80014182D01*
X141780412Y-79890932D01*
X141464533Y-79828100D01*
X141142467Y-79828100D01*
X140826588Y-79890932D01*
X140529037Y-80014182D01*
X140261248Y-80193113D01*
X140033513Y-80420848D01*
X140033500Y-80420867D01*
X140033487Y-80420848D01*
X139805752Y-80193113D01*
X139537963Y-80014182D01*
X139240412Y-79890932D01*
X138924533Y-79828100D01*
X138602467Y-79828100D01*
X138286588Y-79890932D01*
X137989037Y-80014182D01*
X137721248Y-80193113D01*
X137493513Y-80420848D01*
X137493500Y-80420867D01*
X137493487Y-80420848D01*
X137265752Y-80193113D01*
X136997963Y-80014182D01*
X136700412Y-79890932D01*
X136384533Y-79828100D01*
X136062467Y-79828100D01*
X135746588Y-79890932D01*
X135449037Y-80014182D01*
X135181248Y-80193113D01*
X134953513Y-80420848D01*
X134953500Y-80420867D01*
X134953487Y-80420848D01*
X134725752Y-80193113D01*
X134457963Y-80014182D01*
X134160412Y-79890932D01*
X133844533Y-79828100D01*
X133522467Y-79828100D01*
X133206588Y-79890932D01*
X132909037Y-80014182D01*
X132641248Y-80193113D01*
X132413513Y-80420848D01*
X132413500Y-80420867D01*
X132413487Y-80420848D01*
X132185752Y-80193113D01*
X131917963Y-80014182D01*
X131620412Y-79890932D01*
X131304533Y-79828100D01*
X130982467Y-79828100D01*
X130666588Y-79890932D01*
X130369037Y-80014182D01*
X130101248Y-80193113D01*
X129873513Y-80420848D01*
X129873500Y-80420867D01*
X129873487Y-80420848D01*
X129645752Y-80193113D01*
X129377963Y-80014182D01*
X129080412Y-79890932D01*
X128764533Y-79828100D01*
X128442467Y-79828100D01*
X128126588Y-79890932D01*
X127829037Y-80014182D01*
X127561248Y-80193113D01*
X127333513Y-80420848D01*
X127333500Y-80420867D01*
X127333487Y-80420848D01*
X127105752Y-80193113D01*
X126837963Y-80014182D01*
X126540412Y-79890932D01*
X126224533Y-79828100D01*
X125902467Y-79828100D01*
X125586588Y-79890932D01*
X125289037Y-80014182D01*
X125021248Y-80193113D01*
X124793513Y-80420848D01*
X124793500Y-80420867D01*
X124793487Y-80420848D01*
X124565752Y-80193113D01*
X124297963Y-80014182D01*
X124000412Y-79890932D01*
X123684533Y-79828100D01*
X123362467Y-79828100D01*
X123046588Y-79890932D01*
X122749037Y-80014182D01*
X122481248Y-80193113D01*
X122253513Y-80420848D01*
X122253500Y-80420867D01*
X122253487Y-80420848D01*
X122025752Y-80193113D01*
X121757963Y-80014182D01*
X121460412Y-79890932D01*
X121144533Y-79828100D01*
X120822467Y-79828100D01*
X120506588Y-79890932D01*
X120209037Y-80014182D01*
X119941248Y-80193113D01*
X119713513Y-80420848D01*
X119534582Y-80688637D01*
X119411332Y-80986188D01*
X119348500Y-81302067D01*
X116813079Y-81302067D01*
X117015127Y-80814281D01*
X117047131Y-80715784D01*
X117285238Y-79723998D01*
X117301439Y-79621707D01*
X117333597Y-79213100D01*
X178113403Y-79213100D01*
X178145561Y-79621707D01*
M02*
