G04 #@! TF.GenerationSoftware,KiCad,Pcbnew,5.1.5+dfsg1-2build2*
G04 #@! TF.CreationDate,2022-02-14T22:59:54-05:00*
G04 #@! TF.ProjectId,,58585858-5858-4585-9858-585858585858,rev?*
G04 #@! TF.SameCoordinates,Original*
G04 #@! TF.FileFunction,Copper,L1,Top*
G04 #@! TF.FilePolarity,Positive*
%FSLAX46Y46*%
G04 Gerber Fmt 4.6, Leading zero omitted, Abs format (unit mm)*
G04 Created by KiCad (PCBNEW 5.1.5+dfsg1-2build2) date 2022-02-14 22:59:54*
%MOMM*%
%LPD*%
G04 APERTURE LIST*
%ADD10C,2.000000*%
%ADD11R,2.400000X2.400000*%
%ADD12C,2.400000*%
%ADD13C,1.998980*%
%ADD14R,1.700000X1.700000*%
%ADD15O,1.700000X1.700000*%
%ADD16C,0.500000*%
%ADD17C,0.254000*%
G04 APERTURE END LIST*
D10*
X163857300Y-137686000D03*
X161317300Y-137686000D03*
X158777300Y-109746000D03*
X156237300Y-109746000D03*
X153697300Y-109746000D03*
X128297300Y-114826000D03*
X151157300Y-109746000D03*
X148617300Y-109746000D03*
X125757300Y-114826000D03*
X146077300Y-109746000D03*
X143537300Y-109746000D03*
X163857300Y-109746000D03*
X140997300Y-109746000D03*
X138457300Y-109746000D03*
X118137300Y-112286000D03*
X130837300Y-114826000D03*
X135917300Y-109746000D03*
X115597300Y-112286000D03*
X161317300Y-109746000D03*
D11*
X173337300Y-131936000D03*
D12*
X173337300Y-128436000D03*
X173337300Y-124936000D03*
D10*
X130837300Y-97046000D03*
X133377300Y-97046000D03*
X135917300Y-97046000D03*
X138457300Y-97046000D03*
X140997300Y-97046000D03*
X143537300Y-97046000D03*
X146077300Y-97046000D03*
X148617300Y-97046000D03*
X166397300Y-105336000D03*
X166397300Y-112336000D03*
X166397300Y-124936000D03*
X166397300Y-128436000D03*
X166397300Y-131936000D03*
X166397300Y-108836000D03*
D11*
X173337300Y-112336000D03*
D12*
X173337300Y-108836000D03*
X173337300Y-105336000D03*
D10*
X153697300Y-97046000D03*
X156237300Y-97046000D03*
X161317300Y-135146000D03*
X163857300Y-135146000D03*
X158777300Y-97046000D03*
X161317300Y-97046000D03*
X163857300Y-97046000D03*
X151157300Y-97046000D03*
D13*
X168937300Y-117366000D03*
X168937300Y-119906000D03*
D14*
X115597300Y-119906000D03*
D15*
X118137300Y-119906000D03*
X120677300Y-119906000D03*
X123217300Y-119906000D03*
X125757300Y-119906000D03*
X128297300Y-119906000D03*
X130837300Y-119906000D03*
X133377300Y-119906000D03*
X135917300Y-119906000D03*
X138457300Y-119906000D03*
X140997300Y-119906000D03*
X143537300Y-119906000D03*
X146077300Y-119906000D03*
X148617300Y-119906000D03*
X151157300Y-119906000D03*
X153697300Y-119906000D03*
X156237300Y-119906000D03*
X158777300Y-119906000D03*
X161317300Y-119906000D03*
X163857300Y-119906000D03*
D10*
X133377300Y-137686000D03*
X120677300Y-130066000D03*
X156237300Y-130066000D03*
X120677300Y-109746000D03*
X123217300Y-109746000D03*
X151157300Y-112286000D03*
X120677300Y-132606000D03*
X161317300Y-114826000D03*
X153697300Y-114826000D03*
X146077300Y-135146000D03*
X118137300Y-132606000D03*
X148617300Y-137686000D03*
X156237300Y-114826000D03*
X143537300Y-135146000D03*
X135917300Y-132606000D03*
X133377300Y-132606000D03*
X130837300Y-132606000D03*
X138457300Y-132606000D03*
X140997300Y-132606000D03*
X143537300Y-132606000D03*
X146077300Y-132606000D03*
X148617300Y-132606000D03*
X151157300Y-132606000D03*
X153697300Y-132606000D03*
X156237300Y-132606000D03*
X161317300Y-132606000D03*
X163857300Y-132606000D03*
X125757300Y-135146000D03*
X158777300Y-132606000D03*
X133377300Y-109746000D03*
X156237300Y-112286000D03*
X123217300Y-114826000D03*
X148617300Y-130066000D03*
X115597300Y-132606000D03*
X158777300Y-112286000D03*
X146077300Y-112286000D03*
X163857300Y-112286000D03*
X161317300Y-130066000D03*
X158777300Y-114826000D03*
X135917300Y-130066000D03*
X138457300Y-130066000D03*
X140997300Y-112286000D03*
X158777300Y-130066000D03*
X146077300Y-137686000D03*
X125757300Y-137686000D03*
X156237300Y-135146000D03*
X135917300Y-137686000D03*
X138457300Y-137686000D03*
X143537300Y-137686000D03*
X143537300Y-130066000D03*
X151157300Y-114826000D03*
X128297300Y-137686000D03*
X118137300Y-130066000D03*
X123217300Y-132606000D03*
X125757300Y-132606000D03*
X125757300Y-112286000D03*
X115597300Y-114826000D03*
X151157300Y-130066000D03*
X153697300Y-135146000D03*
X128297300Y-109746000D03*
X118137300Y-114826000D03*
X120677300Y-114826000D03*
X143537300Y-112286000D03*
X115597300Y-130066000D03*
X163857300Y-114826000D03*
X140997300Y-135146000D03*
X148617300Y-135146000D03*
X158777300Y-135146000D03*
X151157300Y-135146000D03*
X153697300Y-130066000D03*
X125757300Y-109746000D03*
X140997300Y-130066000D03*
X146077300Y-130066000D03*
X123217300Y-130066000D03*
X130837300Y-137686000D03*
X148617300Y-114826000D03*
X146077300Y-107206000D03*
X128297300Y-132606000D03*
X140997300Y-137686000D03*
X148617300Y-112286000D03*
X161317300Y-112286000D03*
X158777300Y-137686000D03*
X156237300Y-137686000D03*
X151157300Y-104666000D03*
X153697300Y-104666000D03*
X156237300Y-104666000D03*
X135917300Y-112286000D03*
X133377300Y-114826000D03*
X135917300Y-114826000D03*
X138457300Y-114826000D03*
X125757300Y-130066000D03*
X140997300Y-114826000D03*
X120677300Y-112286000D03*
X128297300Y-130066000D03*
X133377300Y-130066000D03*
X143537300Y-114826000D03*
X138457300Y-112286000D03*
X123217300Y-112286000D03*
X133377300Y-112286000D03*
X130837300Y-112286000D03*
X130837300Y-109746000D03*
X153697300Y-107206000D03*
X128297300Y-112286000D03*
X156237300Y-107206000D03*
X158777300Y-107206000D03*
X161317300Y-107206000D03*
X163857300Y-107206000D03*
X115597300Y-109746000D03*
X118137300Y-109746000D03*
X138457300Y-107206000D03*
X140997300Y-107206000D03*
X125757300Y-107206000D03*
X128297300Y-107206000D03*
X148617300Y-107206000D03*
X151157300Y-107206000D03*
X130837300Y-107206000D03*
X133377300Y-107206000D03*
X158777300Y-104666000D03*
X161317300Y-104666000D03*
X135917300Y-107206000D03*
X140997300Y-104666000D03*
X143537300Y-104666000D03*
X163857300Y-104666000D03*
X115597300Y-107206000D03*
X118137300Y-107206000D03*
X120677300Y-107206000D03*
X161317300Y-102126000D03*
X163857300Y-102126000D03*
X115597300Y-104666000D03*
X118137300Y-104666000D03*
X120677300Y-104666000D03*
X146077300Y-104666000D03*
X148617300Y-104666000D03*
X128297300Y-102126000D03*
X130837300Y-102126000D03*
X133377300Y-102126000D03*
X135917300Y-102126000D03*
X146077300Y-102126000D03*
X148617300Y-102126000D03*
X151157300Y-102126000D03*
X153697300Y-102126000D03*
X156237300Y-102126000D03*
X158777300Y-102126000D03*
X138457300Y-102126000D03*
X140997300Y-102126000D03*
X143537300Y-102126000D03*
X118137300Y-97046000D03*
X115597300Y-97046000D03*
X115597300Y-102126000D03*
X118137300Y-102126000D03*
X120677300Y-102126000D03*
X123217300Y-102126000D03*
X125757300Y-102126000D03*
X128297300Y-97046000D03*
X125757300Y-97046000D03*
X123217300Y-97046000D03*
X120677300Y-97046000D03*
X161317300Y-140226000D03*
X163857300Y-140226000D03*
X125757300Y-140226000D03*
X128297300Y-140226000D03*
X153697300Y-112286000D03*
X123217300Y-107206000D03*
X143537300Y-107206000D03*
X153697300Y-140226000D03*
X148617300Y-140226000D03*
X130837300Y-140226000D03*
X133377300Y-140226000D03*
X135917300Y-140226000D03*
X135917300Y-104666000D03*
X138457300Y-104666000D03*
D14*
X115597300Y-99586000D03*
D15*
X118137300Y-99586000D03*
X120677300Y-99586000D03*
X123217300Y-99586000D03*
X125757300Y-99586000D03*
X128297300Y-99586000D03*
X130837300Y-99586000D03*
X133377300Y-99586000D03*
X135917300Y-99586000D03*
X138457300Y-99586000D03*
X140997300Y-99586000D03*
X143537300Y-99586000D03*
X146077300Y-99586000D03*
X148617300Y-99586000D03*
X151157300Y-99586000D03*
X153697300Y-99586000D03*
X156237300Y-99586000D03*
X158777300Y-99586000D03*
X161317300Y-99586000D03*
X163857300Y-99586000D03*
D14*
X115597300Y-117366000D03*
D15*
X118137300Y-117366000D03*
X120677300Y-117366000D03*
X123217300Y-117366000D03*
X125757300Y-117366000D03*
X128297300Y-117366000D03*
X130837300Y-117366000D03*
X133377300Y-117366000D03*
X135917300Y-117366000D03*
X138457300Y-117366000D03*
X140997300Y-117366000D03*
X143537300Y-117366000D03*
X146077300Y-117366000D03*
X148617300Y-117366000D03*
X151157300Y-117366000D03*
X153697300Y-117366000D03*
X156237300Y-117366000D03*
X158777300Y-117366000D03*
X161317300Y-117366000D03*
X163857300Y-117366000D03*
D10*
X123217300Y-104666000D03*
X125757300Y-104666000D03*
X128297300Y-104666000D03*
X130837300Y-130066000D03*
X133377300Y-135146000D03*
X135917300Y-135146000D03*
X130837300Y-104666000D03*
X133377300Y-104666000D03*
X138457300Y-140226000D03*
X140997300Y-140226000D03*
X146077300Y-140226000D03*
X151157300Y-140226000D03*
X143537300Y-140226000D03*
D14*
X115597300Y-127526000D03*
D15*
X118137300Y-127526000D03*
X120677300Y-127526000D03*
X123217300Y-127526000D03*
X125757300Y-127526000D03*
X128297300Y-127526000D03*
X130837300Y-127526000D03*
X133377300Y-127526000D03*
X135917300Y-127526000D03*
X138457300Y-127526000D03*
X140997300Y-127526000D03*
X143537300Y-127526000D03*
X146077300Y-127526000D03*
X148617300Y-127526000D03*
X151157300Y-127526000D03*
X153697300Y-127526000D03*
X156237300Y-127526000D03*
X158777300Y-127526000D03*
X161317300Y-127526000D03*
X163857300Y-127526000D03*
D10*
X156237300Y-140226000D03*
X158777300Y-140226000D03*
D14*
X115597300Y-124986000D03*
D15*
X118137300Y-124986000D03*
X120677300Y-124986000D03*
X123217300Y-124986000D03*
X125757300Y-124986000D03*
X128297300Y-124986000D03*
X130837300Y-124986000D03*
X133377300Y-124986000D03*
X135917300Y-124986000D03*
X138457300Y-124986000D03*
X140997300Y-124986000D03*
X143537300Y-124986000D03*
X146077300Y-124986000D03*
X148617300Y-124986000D03*
X151157300Y-124986000D03*
X153697300Y-124986000D03*
X156237300Y-124986000D03*
X158777300Y-124986000D03*
X161317300Y-124986000D03*
X163857300Y-124986000D03*
D14*
X115597300Y-122446000D03*
D15*
X118137300Y-122446000D03*
X120677300Y-122446000D03*
X123217300Y-122446000D03*
X125757300Y-122446000D03*
X128297300Y-122446000D03*
X130837300Y-122446000D03*
X133377300Y-122446000D03*
X135917300Y-122446000D03*
X138457300Y-122446000D03*
X140997300Y-122446000D03*
X143537300Y-122446000D03*
X146077300Y-122446000D03*
X148617300Y-122446000D03*
X151157300Y-122446000D03*
X153697300Y-122446000D03*
X156237300Y-122446000D03*
X158777300Y-122446000D03*
X161317300Y-122446000D03*
X163857300Y-122446000D03*
D10*
X130837300Y-135146000D03*
X128297300Y-135146000D03*
X146077300Y-114826000D03*
X138457300Y-135146000D03*
X151157300Y-137686000D03*
X153697300Y-137686000D03*
X163857300Y-130066000D03*
X163857300Y-88686000D03*
X161317300Y-88686000D03*
X158777300Y-88686000D03*
X156237300Y-88686000D03*
X153697300Y-88686000D03*
X151157300Y-88686000D03*
X148617300Y-88686000D03*
X146077300Y-88686000D03*
X143537300Y-88686000D03*
X140997300Y-88686000D03*
X138457300Y-88686000D03*
X135917300Y-88686000D03*
X133377300Y-88686000D03*
X130837300Y-88686000D03*
X128297300Y-88686000D03*
X125757300Y-88686000D03*
X163857300Y-86146000D03*
X161317300Y-86146000D03*
X158777300Y-86146000D03*
X156237300Y-86146000D03*
X153697300Y-86146000D03*
X151157300Y-86146000D03*
X148617300Y-86146000D03*
X146077300Y-86146000D03*
X143537300Y-86146000D03*
X140997300Y-86146000D03*
X138457300Y-86146000D03*
X135917300Y-86146000D03*
X133377300Y-86146000D03*
X130837300Y-86146000D03*
X128297300Y-86146000D03*
X125757300Y-86146000D03*
X163857300Y-83606000D03*
X161317300Y-83606000D03*
X158777300Y-83606000D03*
X156237300Y-83606000D03*
X153697300Y-83606000D03*
X151157300Y-83606000D03*
X148617300Y-83606000D03*
X146077300Y-83606000D03*
X143537300Y-83606000D03*
X140997300Y-83606000D03*
X138457300Y-83606000D03*
X135917300Y-83606000D03*
X133377300Y-83606000D03*
X130837300Y-83606000D03*
X128297300Y-83606000D03*
X125757300Y-83606000D03*
X123217300Y-83606000D03*
X120677300Y-83606000D03*
X118137300Y-83606000D03*
X115597300Y-83606000D03*
X163857300Y-81066000D03*
X161317300Y-81066000D03*
X158777300Y-81066000D03*
X156237300Y-81066000D03*
X153697300Y-81066000D03*
X151157300Y-81066000D03*
X148617300Y-81066000D03*
X146077300Y-81066000D03*
X143537300Y-81066000D03*
X140997300Y-81066000D03*
X138457300Y-81066000D03*
X135917300Y-81066000D03*
X133377300Y-81066000D03*
X130837300Y-81066000D03*
X128297300Y-81066000D03*
X125757300Y-81066000D03*
X123217300Y-81066000D03*
X120677300Y-81066000D03*
X118137300Y-81066000D03*
X115597300Y-81066000D03*
X163857300Y-65826000D03*
X161317300Y-65826000D03*
X158777300Y-65826000D03*
X156237300Y-65826000D03*
X153697300Y-65826000D03*
X151157300Y-65826000D03*
X148617300Y-65826000D03*
X146077300Y-65826000D03*
X143537300Y-65826000D03*
X140997300Y-65826000D03*
X138457300Y-65826000D03*
X135917300Y-65826000D03*
X133377300Y-65826000D03*
X130837300Y-65826000D03*
X128297300Y-65826000D03*
X125757300Y-65826000D03*
X123217300Y-65826000D03*
X120677300Y-65826000D03*
X118137300Y-65826000D03*
X115597300Y-65826000D03*
X163857300Y-63286000D03*
X161317300Y-63286000D03*
X158777300Y-63286000D03*
X156237300Y-63286000D03*
X153697300Y-63286000D03*
X151157300Y-63286000D03*
X148617300Y-63286000D03*
X146077300Y-63286000D03*
X143537300Y-63286000D03*
X140997300Y-63286000D03*
X138457300Y-63286000D03*
X135917300Y-63286000D03*
X133377300Y-63286000D03*
X130837300Y-63286000D03*
X128297300Y-63286000D03*
X125757300Y-63286000D03*
X123217300Y-63286000D03*
X120677300Y-63286000D03*
X118137300Y-63286000D03*
X115597300Y-63286000D03*
X163857300Y-60746000D03*
X161317300Y-60746000D03*
X158777300Y-60746000D03*
X156237300Y-60746000D03*
X153697300Y-60746000D03*
X151157300Y-60746000D03*
X148617300Y-60746000D03*
X146077300Y-60746000D03*
X143537300Y-60746000D03*
X140997300Y-60746000D03*
X138457300Y-60746000D03*
X135917300Y-60746000D03*
X133377300Y-60746000D03*
X130837300Y-60746000D03*
X128297300Y-60746000D03*
X125757300Y-60746000D03*
X123217300Y-60746000D03*
X120677300Y-60746000D03*
X118137300Y-60746000D03*
X115597300Y-60746000D03*
X163857300Y-58206000D03*
X161317300Y-58206000D03*
X158777300Y-58206000D03*
X156237300Y-58206000D03*
X153697300Y-58206000D03*
X151157300Y-58206000D03*
X148617300Y-58206000D03*
X146077300Y-58206000D03*
X143537300Y-58206000D03*
X140997300Y-58206000D03*
X138457300Y-58206000D03*
X135917300Y-58206000D03*
X133377300Y-58206000D03*
X130837300Y-58206000D03*
X128297300Y-58206000D03*
X125757300Y-58206000D03*
X123217300Y-58206000D03*
X120677300Y-58206000D03*
X118137300Y-58206000D03*
X115597300Y-58206000D03*
X163857300Y-55666000D03*
X161317300Y-55666000D03*
X158777300Y-55666000D03*
X156237300Y-55666000D03*
X153697300Y-55666000D03*
X151157300Y-55666000D03*
X148617300Y-55666000D03*
X146077300Y-55666000D03*
X143537300Y-55666000D03*
X140997300Y-55666000D03*
X138457300Y-55666000D03*
X135917300Y-55666000D03*
X133377300Y-55666000D03*
X130837300Y-55666000D03*
X128297300Y-55666000D03*
X125757300Y-55666000D03*
X123217300Y-55666000D03*
X120677300Y-55666000D03*
X118137300Y-55666000D03*
X115597300Y-55666000D03*
X163857300Y-53126000D03*
X161317300Y-53126000D03*
X158777300Y-53126000D03*
X156237300Y-53126000D03*
X153697300Y-53126000D03*
X151157300Y-53126000D03*
X148617300Y-53126000D03*
X146077300Y-53126000D03*
X143537300Y-53126000D03*
X140997300Y-53126000D03*
X138457300Y-53126000D03*
X135917300Y-53126000D03*
X133377300Y-53126000D03*
X130837300Y-53126000D03*
X128297300Y-53126000D03*
X125757300Y-53126000D03*
X123217300Y-53126000D03*
X120677300Y-53126000D03*
X118137300Y-53126000D03*
X115597300Y-53126000D03*
X115597300Y-48046000D03*
X118137300Y-48046000D03*
X120677300Y-48046000D03*
X123217300Y-48046000D03*
X125757300Y-48046000D03*
X128297300Y-48046000D03*
X128297300Y-91226000D03*
X125757300Y-91226000D03*
X163857300Y-91226000D03*
X161317300Y-91226000D03*
X143537300Y-91226000D03*
X151157300Y-91226000D03*
X146077300Y-91226000D03*
X140997300Y-91226000D03*
X138457300Y-91226000D03*
X135917300Y-91226000D03*
X133377300Y-91226000D03*
X130837300Y-91226000D03*
X148617300Y-91226000D03*
X153697300Y-91226000D03*
X158777300Y-91226000D03*
X156237300Y-91226000D03*
D15*
X163857300Y-78526000D03*
X161317300Y-78526000D03*
X158777300Y-78526000D03*
X156237300Y-78526000D03*
X153697300Y-78526000D03*
X151157300Y-78526000D03*
X148617300Y-78526000D03*
X146077300Y-78526000D03*
X143537300Y-78526000D03*
X140997300Y-78526000D03*
X138457300Y-78526000D03*
X135917300Y-78526000D03*
X133377300Y-78526000D03*
X130837300Y-78526000D03*
X128297300Y-78526000D03*
X125757300Y-78526000D03*
X123217300Y-78526000D03*
X120677300Y-78526000D03*
X118137300Y-78526000D03*
D14*
X115597300Y-78526000D03*
D15*
X163857300Y-75986000D03*
X161317300Y-75986000D03*
X158777300Y-75986000D03*
X156237300Y-75986000D03*
X153697300Y-75986000D03*
X151157300Y-75986000D03*
X148617300Y-75986000D03*
X146077300Y-75986000D03*
X143537300Y-75986000D03*
X140997300Y-75986000D03*
X138457300Y-75986000D03*
X135917300Y-75986000D03*
X133377300Y-75986000D03*
X130837300Y-75986000D03*
X128297300Y-75986000D03*
X125757300Y-75986000D03*
X123217300Y-75986000D03*
X120677300Y-75986000D03*
X118137300Y-75986000D03*
D14*
X115597300Y-75986000D03*
D15*
X163857300Y-73446000D03*
X161317300Y-73446000D03*
X158777300Y-73446000D03*
X156237300Y-73446000D03*
X153697300Y-73446000D03*
X151157300Y-73446000D03*
X148617300Y-73446000D03*
X146077300Y-73446000D03*
X143537300Y-73446000D03*
X140997300Y-73446000D03*
X138457300Y-73446000D03*
X135917300Y-73446000D03*
X133377300Y-73446000D03*
X130837300Y-73446000D03*
X128297300Y-73446000D03*
X125757300Y-73446000D03*
X123217300Y-73446000D03*
X120677300Y-73446000D03*
X118137300Y-73446000D03*
D14*
X115597300Y-73446000D03*
D15*
X163857300Y-68366000D03*
X161317300Y-68366000D03*
X158777300Y-68366000D03*
X156237300Y-68366000D03*
X153697300Y-68366000D03*
X151157300Y-68366000D03*
X148617300Y-68366000D03*
X146077300Y-68366000D03*
X143537300Y-68366000D03*
X140997300Y-68366000D03*
X138457300Y-68366000D03*
X135917300Y-68366000D03*
X133377300Y-68366000D03*
X130837300Y-68366000D03*
X128297300Y-68366000D03*
X125757300Y-68366000D03*
X123217300Y-68366000D03*
X120677300Y-68366000D03*
X118137300Y-68366000D03*
D14*
X115597300Y-68366000D03*
D15*
X163857300Y-50586000D03*
X161317300Y-50586000D03*
X158777300Y-50586000D03*
X156237300Y-50586000D03*
X153697300Y-50586000D03*
X151157300Y-50586000D03*
X148617300Y-50586000D03*
X146077300Y-50586000D03*
X143537300Y-50586000D03*
X140997300Y-50586000D03*
X138457300Y-50586000D03*
X135917300Y-50586000D03*
X133377300Y-50586000D03*
X130837300Y-50586000D03*
X128297300Y-50586000D03*
X125757300Y-50586000D03*
X123217300Y-50586000D03*
X120677300Y-50586000D03*
X118137300Y-50586000D03*
D14*
X115597300Y-50586000D03*
D15*
X163857300Y-70906000D03*
X161317300Y-70906000D03*
X158777300Y-70906000D03*
X156237300Y-70906000D03*
X153697300Y-70906000D03*
X151157300Y-70906000D03*
X148617300Y-70906000D03*
X146077300Y-70906000D03*
X143537300Y-70906000D03*
X140997300Y-70906000D03*
X138457300Y-70906000D03*
X135917300Y-70906000D03*
X133377300Y-70906000D03*
X130837300Y-70906000D03*
X128297300Y-70906000D03*
X125757300Y-70906000D03*
X123217300Y-70906000D03*
X120677300Y-70906000D03*
X118137300Y-70906000D03*
D14*
X115597300Y-70906000D03*
D13*
X168937300Y-70906000D03*
X168937300Y-68366000D03*
D10*
X151157300Y-48046000D03*
X163857300Y-48046000D03*
X161317300Y-48046000D03*
X158777300Y-48046000D03*
X156237300Y-48046000D03*
X153697300Y-48046000D03*
D12*
X173337300Y-56336000D03*
X173337300Y-59836000D03*
D11*
X173337300Y-63336000D03*
D10*
X166397300Y-59836000D03*
X166397300Y-82936000D03*
X166397300Y-79436000D03*
X166397300Y-75936000D03*
X166397300Y-63336000D03*
X166397300Y-56336000D03*
X148617300Y-48046000D03*
X146077300Y-48046000D03*
X143537300Y-48046000D03*
X140997300Y-48046000D03*
X138457300Y-48046000D03*
X135917300Y-48046000D03*
X133377300Y-48046000D03*
X130837300Y-48046000D03*
D12*
X173337300Y-75936000D03*
X173337300Y-79436000D03*
D11*
X173337300Y-82936000D03*
D16*
X163857300Y-48143800D02*
X164160200Y-47840900D01*
X161317300Y-48664500D02*
X161429700Y-48552100D01*
X158777300Y-48677200D02*
X159219900Y-48234600D01*
X133377300Y-48566700D02*
X133121400Y-48310800D01*
X130837300Y-48515900D02*
X130721100Y-48399700D01*
X151157300Y-48046000D02*
X151157300Y-49515400D01*
X151157300Y-49515400D02*
X151157300Y-53126000D01*
X158777300Y-53126000D02*
X158777300Y-51560100D01*
X161317300Y-48046000D02*
X161317300Y-49629700D01*
X161317300Y-49629700D02*
X161317300Y-53126000D01*
X146077300Y-81066000D02*
X146077300Y-79440400D01*
X115597300Y-83606000D02*
X118137300Y-83606000D01*
X118137300Y-83606000D02*
X120677300Y-83606000D01*
X120677300Y-83606000D02*
X123217300Y-83606000D01*
X123217300Y-83606000D02*
X125757300Y-83606000D01*
X125757300Y-83606000D02*
X128297300Y-83606000D01*
X128297300Y-83606000D02*
X130837300Y-83606000D01*
X130837300Y-83606000D02*
X133377300Y-83606000D01*
X125757300Y-86146000D02*
X128297300Y-86146000D01*
X128297300Y-86146000D02*
X130837300Y-86146000D01*
X130837300Y-86146000D02*
X133377300Y-86146000D01*
X133377300Y-83606000D02*
X135917300Y-83606000D01*
X133377300Y-86146000D02*
X135917300Y-86146000D01*
X135917300Y-86146000D02*
X138457300Y-86146000D01*
X135917300Y-83606000D02*
X137441300Y-83606000D01*
X138457300Y-83606000D02*
X140997300Y-83606000D01*
X138457300Y-86146000D02*
X140997300Y-86146000D01*
X140997300Y-83606000D02*
X143537300Y-83606000D01*
X140997300Y-86146000D02*
X143537300Y-86146000D01*
X143537300Y-86146000D02*
X146077300Y-86146000D01*
X143537300Y-83606000D02*
X146077300Y-83606000D01*
X146077300Y-83606000D02*
X148617300Y-83606000D01*
X146077300Y-86146000D02*
X148617300Y-86146000D01*
X148617300Y-83606000D02*
X151157300Y-83606000D01*
X148617300Y-86146000D02*
X151157300Y-86146000D01*
X151157300Y-83606000D02*
X153697300Y-83606000D01*
X151157300Y-86146000D02*
X153697300Y-86146000D01*
X153697300Y-83606000D02*
X156237300Y-83606000D01*
X153697300Y-86146000D02*
X156237300Y-86146000D01*
X156237300Y-86146000D02*
X158777300Y-86146000D01*
X156237300Y-83606000D02*
X158777300Y-83606000D01*
X158777300Y-83606000D02*
X161317300Y-83606000D01*
X161317300Y-83606000D02*
X163857300Y-83606000D01*
X158777300Y-86146000D02*
X161317300Y-86146000D01*
X161317300Y-86146000D02*
X163857300Y-86146000D01*
X163857300Y-88686000D02*
X163857300Y-91226000D01*
X161317300Y-88686000D02*
X161317300Y-91226000D01*
X158777300Y-88686000D02*
X158777300Y-91226000D01*
X156237300Y-88686000D02*
X156237300Y-91226000D01*
X153697300Y-88686000D02*
X153697300Y-91226000D01*
X151157300Y-88686000D02*
X151157300Y-91226000D01*
X148617300Y-88686000D02*
X148617300Y-91226000D01*
X146077300Y-88686000D02*
X146077300Y-91226000D01*
X143537300Y-88686000D02*
X143537300Y-91226000D01*
X140997300Y-88686000D02*
X140997300Y-91226000D01*
X138457300Y-88686000D02*
X138457300Y-91226000D01*
X135917300Y-88686000D02*
X135917300Y-91226000D01*
X133377300Y-88686000D02*
X133377300Y-91226000D01*
X130837300Y-88686000D02*
X130837300Y-91226000D01*
X128297300Y-88686000D02*
X128297300Y-91226000D01*
X125757300Y-88686000D02*
X125757300Y-91226000D01*
X163857300Y-55666000D02*
X161317300Y-55666000D01*
X161317300Y-55666000D02*
X158777300Y-55666000D01*
X158777300Y-55666000D02*
X156237300Y-55666000D01*
X156237300Y-55666000D02*
X153697300Y-55666000D01*
X151157300Y-55666000D02*
X153697300Y-55666000D01*
X148617300Y-55666000D02*
X151157300Y-55666000D01*
X146077300Y-55666000D02*
X148617300Y-55666000D01*
X143537300Y-55666000D02*
X146077300Y-55666000D01*
X140997300Y-55666000D02*
X143537300Y-55666000D01*
X138457300Y-55666000D02*
X140997300Y-55666000D01*
X135917300Y-55666000D02*
X138457300Y-55666000D01*
X133377300Y-55666000D02*
X135917300Y-55666000D01*
X130837300Y-55666000D02*
X133377300Y-55666000D01*
X128297300Y-55666000D02*
X130837300Y-55666000D01*
X125757300Y-55666000D02*
X128297300Y-55666000D01*
X123217300Y-55666000D02*
X125757300Y-55666000D01*
X120677300Y-55666000D02*
X123217300Y-55666000D01*
X118137300Y-55666000D02*
X120677300Y-55666000D01*
X115597300Y-55666000D02*
X118137300Y-55666000D01*
X163857300Y-63286000D02*
X161317300Y-63286000D01*
X161317300Y-63286000D02*
X158777300Y-63286000D01*
X158777300Y-63286000D02*
X156237300Y-63286000D01*
X156237300Y-63286000D02*
X153697300Y-63286000D01*
X153697300Y-63286000D02*
X151157300Y-63286000D01*
X151157300Y-63286000D02*
X148617300Y-63286000D01*
X148617300Y-63286000D02*
X146077300Y-63286000D01*
X146077300Y-63286000D02*
X143537300Y-63286000D01*
X143537300Y-63286000D02*
X140997300Y-63286000D01*
X140997300Y-63286000D02*
X138457300Y-63286000D01*
X138457300Y-63286000D02*
X135917300Y-63286000D01*
X133377300Y-63286000D02*
X135917300Y-63286000D01*
X133377300Y-63286000D02*
X130837300Y-63286000D01*
X130837300Y-63286000D02*
X128297300Y-63286000D01*
X128297300Y-63286000D02*
X125757300Y-63286000D01*
X125757300Y-63286000D02*
X123217300Y-63286000D01*
X123217300Y-63286000D02*
X120677300Y-63286000D01*
X120677300Y-63286000D02*
X118137300Y-63286000D01*
X118137300Y-63286000D02*
X115597300Y-63286000D01*
X163857300Y-60746000D02*
X163857300Y-58206000D01*
X161317300Y-60746000D02*
X161317300Y-58206000D01*
X158777300Y-60746000D02*
X158777300Y-58206000D01*
X156237300Y-60746000D02*
X156237300Y-58206000D01*
X153697300Y-60746000D02*
X153697300Y-58206000D01*
X151157300Y-60746000D02*
X151157300Y-58206000D01*
X148617300Y-60746000D02*
X148617300Y-58206000D01*
X146077300Y-60746000D02*
X146077300Y-58206000D01*
X143537300Y-60746000D02*
X143537300Y-58206000D01*
X140997300Y-60746000D02*
X140997300Y-58206000D01*
X138457300Y-60746000D02*
X138457300Y-58206000D01*
X135917300Y-60746000D02*
X135917300Y-58206000D01*
X133377300Y-60746000D02*
X133377300Y-58206000D01*
X130837300Y-60746000D02*
X130837300Y-58206000D01*
X128297300Y-60746000D02*
X128297300Y-58206000D01*
X125757300Y-60746000D02*
X125757300Y-58206000D01*
X123217300Y-60746000D02*
X123217300Y-58206000D01*
X120677300Y-60746000D02*
X120677300Y-58206000D01*
X118137300Y-60746000D02*
X118137300Y-58206000D01*
X115597300Y-60746000D02*
X115597300Y-58206000D01*
X161317300Y-104666000D02*
X158777300Y-104666000D01*
X158777300Y-104666000D02*
X156237300Y-104666000D01*
X156237300Y-104666000D02*
X153697300Y-104666000D01*
X151157300Y-104666000D02*
X153697300Y-104666000D01*
X148617300Y-104666000D02*
X151157300Y-104666000D01*
X146077300Y-104666000D02*
X148617300Y-104666000D01*
X143537300Y-104666000D02*
X146077300Y-104666000D01*
X151157300Y-97046000D02*
X151157300Y-98515400D01*
X161317300Y-98629700D02*
X161317300Y-102126000D01*
X130837300Y-97515900D02*
X130721100Y-97399700D01*
X161317300Y-97046000D02*
X161317300Y-98629700D01*
X151157300Y-98515400D02*
X151157300Y-102126000D01*
X158777300Y-97677200D02*
X159219900Y-97234600D01*
X163857300Y-97143800D02*
X164160200Y-96840900D01*
X133377300Y-97566700D02*
X133121400Y-97310800D01*
X146077300Y-130066000D02*
X146077300Y-128440400D01*
X115597300Y-132606000D02*
X118137300Y-132606000D01*
X118137300Y-132606000D02*
X120677300Y-132606000D01*
X120677300Y-132606000D02*
X123217300Y-132606000D01*
X123217300Y-132606000D02*
X125757300Y-132606000D01*
X125757300Y-132606000D02*
X128297300Y-132606000D01*
X128297300Y-132606000D02*
X130837300Y-132606000D01*
X130837300Y-132606000D02*
X133377300Y-132606000D01*
X125757300Y-135146000D02*
X128297300Y-135146000D01*
X128297300Y-135146000D02*
X130837300Y-135146000D01*
X130837300Y-135146000D02*
X133377300Y-135146000D01*
X133377300Y-132606000D02*
X135917300Y-132606000D01*
X133377300Y-135146000D02*
X135917300Y-135146000D01*
X135917300Y-135146000D02*
X138457300Y-135146000D01*
X135917300Y-132606000D02*
X137441300Y-132606000D01*
X138457300Y-132606000D02*
X140997300Y-132606000D01*
X138457300Y-135146000D02*
X140997300Y-135146000D01*
X140997300Y-132606000D02*
X143537300Y-132606000D01*
X140997300Y-135146000D02*
X143537300Y-135146000D01*
X143537300Y-135146000D02*
X146077300Y-135146000D01*
X143537300Y-132606000D02*
X146077300Y-132606000D01*
X146077300Y-132606000D02*
X148617300Y-132606000D01*
X146077300Y-135146000D02*
X148617300Y-135146000D01*
X148617300Y-132606000D02*
X151157300Y-132606000D01*
X148617300Y-135146000D02*
X151157300Y-135146000D01*
X151157300Y-132606000D02*
X153697300Y-132606000D01*
X151157300Y-135146000D02*
X153697300Y-135146000D01*
X153697300Y-132606000D02*
X156237300Y-132606000D01*
X153697300Y-135146000D02*
X156237300Y-135146000D01*
X156237300Y-135146000D02*
X158777300Y-135146000D01*
X156237300Y-132606000D02*
X158777300Y-132606000D01*
X158777300Y-132606000D02*
X161317300Y-132606000D01*
X161317300Y-132606000D02*
X163857300Y-132606000D01*
X158777300Y-135146000D02*
X161317300Y-135146000D01*
X161317300Y-135146000D02*
X163857300Y-135146000D01*
X163857300Y-137686000D02*
X163857300Y-140226000D01*
X161317300Y-137686000D02*
X161317300Y-140226000D01*
X158777300Y-137686000D02*
X158777300Y-140226000D01*
X156237300Y-137686000D02*
X156237300Y-140226000D01*
X153697300Y-137686000D02*
X153697300Y-140226000D01*
X151157300Y-137686000D02*
X151157300Y-140226000D01*
X148617300Y-137686000D02*
X148617300Y-140226000D01*
X146077300Y-137686000D02*
X146077300Y-140226000D01*
X143537300Y-137686000D02*
X143537300Y-140226000D01*
X140997300Y-137686000D02*
X140997300Y-140226000D01*
X138457300Y-137686000D02*
X138457300Y-140226000D01*
X135917300Y-137686000D02*
X135917300Y-140226000D01*
X133377300Y-137686000D02*
X133377300Y-140226000D01*
X130837300Y-137686000D02*
X130837300Y-140226000D01*
X128297300Y-137686000D02*
X128297300Y-140226000D01*
X125757300Y-137686000D02*
X125757300Y-140226000D01*
X163857300Y-104666000D02*
X161317300Y-104666000D01*
X140997300Y-104666000D02*
X143537300Y-104666000D01*
X138457300Y-104666000D02*
X140997300Y-104666000D01*
X135917300Y-104666000D02*
X138457300Y-104666000D01*
X133377300Y-104666000D02*
X135917300Y-104666000D01*
X130837300Y-104666000D02*
X133377300Y-104666000D01*
X128297300Y-104666000D02*
X130837300Y-104666000D01*
X125757300Y-104666000D02*
X128297300Y-104666000D01*
X123217300Y-104666000D02*
X125757300Y-104666000D01*
X120677300Y-104666000D02*
X123217300Y-104666000D01*
X118137300Y-104666000D02*
X120677300Y-104666000D01*
X115597300Y-104666000D02*
X118137300Y-104666000D01*
X163857300Y-112286000D02*
X161317300Y-112286000D01*
X161317300Y-112286000D02*
X158777300Y-112286000D01*
X158777300Y-112286000D02*
X156237300Y-112286000D01*
X156237300Y-112286000D02*
X153697300Y-112286000D01*
X153697300Y-112286000D02*
X151157300Y-112286000D01*
X151157300Y-112286000D02*
X148617300Y-112286000D01*
X148617300Y-112286000D02*
X146077300Y-112286000D01*
X146077300Y-112286000D02*
X143537300Y-112286000D01*
X143537300Y-112286000D02*
X140997300Y-112286000D01*
X140997300Y-112286000D02*
X138457300Y-112286000D01*
X138457300Y-112286000D02*
X135917300Y-112286000D01*
X133377300Y-112286000D02*
X135917300Y-112286000D01*
X133377300Y-112286000D02*
X130837300Y-112286000D01*
X130837300Y-112286000D02*
X128297300Y-112286000D01*
X128297300Y-112286000D02*
X125757300Y-112286000D01*
X125757300Y-112286000D02*
X123217300Y-112286000D01*
X123217300Y-112286000D02*
X120677300Y-112286000D01*
X120677300Y-112286000D02*
X118137300Y-112286000D01*
X118137300Y-112286000D02*
X115597300Y-112286000D01*
X163857300Y-109746000D02*
X163857300Y-107206000D01*
X161317300Y-109746000D02*
X161317300Y-107206000D01*
X158777300Y-109746000D02*
X158777300Y-107206000D01*
X156237300Y-109746000D02*
X156237300Y-107206000D01*
X153697300Y-109746000D02*
X153697300Y-107206000D01*
X151157300Y-109746000D02*
X151157300Y-107206000D01*
X148617300Y-109746000D02*
X148617300Y-107206000D01*
X146077300Y-109746000D02*
X146077300Y-107206000D01*
X143537300Y-109746000D02*
X143537300Y-107206000D01*
X140997300Y-109746000D02*
X140997300Y-107206000D01*
X138457300Y-109746000D02*
X138457300Y-107206000D01*
X135917300Y-109746000D02*
X135917300Y-107206000D01*
X133377300Y-109746000D02*
X133377300Y-107206000D01*
X130837300Y-109746000D02*
X130837300Y-107206000D01*
X128297300Y-109746000D02*
X128297300Y-107206000D01*
X125757300Y-109746000D02*
X125757300Y-107206000D01*
X123217300Y-109746000D02*
X123217300Y-107206000D01*
X120677300Y-109746000D02*
X120677300Y-107206000D01*
X118137300Y-109746000D02*
X118137300Y-107206000D01*
X115597300Y-109746000D02*
X115597300Y-107206000D01*
X158777300Y-102126000D02*
X158777300Y-100560100D01*
X161317300Y-97664500D02*
X161429700Y-97552100D01*
X173263400Y-75936000D02*
X173380400Y-75819000D01*
X172882400Y-75936000D02*
X172974000Y-75844400D01*
X173441200Y-75936000D02*
X173507400Y-75869800D01*
X172996700Y-75936000D02*
X173126400Y-75806300D01*
X166397300Y-75936000D02*
X172996700Y-75936000D01*
X173263400Y-124936000D02*
X173380400Y-124819000D01*
X172882400Y-124936000D02*
X172974000Y-124844400D01*
X173441200Y-124936000D02*
X173507400Y-124869800D01*
X172996700Y-124936000D02*
X173126400Y-124806300D01*
X166397300Y-124936000D02*
X172996700Y-124936000D01*
X173162000Y-79436000D02*
X173228000Y-79502000D01*
X173128900Y-79436000D02*
X173240700Y-79324200D01*
X172951100Y-79436000D02*
X173316900Y-79070200D01*
X166397300Y-79436000D02*
X172951100Y-79436000D01*
X173162000Y-128436000D02*
X173228000Y-128502000D01*
X173128900Y-128436000D02*
X173240700Y-128324200D01*
X172951100Y-128436000D02*
X173316900Y-128070200D01*
X166397300Y-128436000D02*
X172951100Y-128436000D01*
X173007100Y-82936000D02*
X173075600Y-82867500D01*
X173273800Y-82936000D02*
X173380400Y-82829400D01*
X172994400Y-82936000D02*
X173228000Y-82702400D01*
X166397300Y-82936000D02*
X172994400Y-82936000D01*
X173007100Y-131936000D02*
X173075600Y-131867500D01*
X173273800Y-131936000D02*
X173380400Y-131829400D01*
X172994400Y-131936000D02*
X173228000Y-131702400D01*
X166397300Y-131936000D02*
X172994400Y-131936000D01*
X173087100Y-56336000D02*
X173266100Y-56515000D01*
X173264900Y-56336000D02*
X173304200Y-56375300D01*
X173356200Y-56336000D02*
X173494700Y-56197500D01*
X166397300Y-56336000D02*
X173356200Y-56336000D01*
X173087100Y-105336000D02*
X173266100Y-105515000D01*
X173264900Y-105336000D02*
X173304200Y-105375300D01*
X173356200Y-105336000D02*
X173494700Y-105197500D01*
X166397300Y-105336000D02*
X173356200Y-105336000D01*
X173279900Y-63336000D02*
X173418500Y-63474600D01*
X172987800Y-63336000D02*
X173126400Y-63474600D01*
X173531700Y-63336000D02*
X173583600Y-63284100D01*
X166397300Y-63336000D02*
X173531700Y-63336000D01*
X173279900Y-112336000D02*
X173418500Y-112474600D01*
X172987800Y-112336000D02*
X173126400Y-112474600D01*
X173531700Y-112336000D02*
X173583600Y-112284100D01*
X166397300Y-112336000D02*
X173531700Y-112336000D01*
X173209000Y-59836000D02*
X173266100Y-59778900D01*
X173374100Y-59836000D02*
X173469300Y-59740800D01*
X173145400Y-59836000D02*
X173228000Y-59918600D01*
X166397300Y-59836000D02*
X173145400Y-59836000D01*
X173209000Y-108836000D02*
X173266100Y-108778900D01*
X173374100Y-108836000D02*
X173469300Y-108740800D01*
X173145400Y-108836000D02*
X173228000Y-108918600D01*
X166397300Y-108836000D02*
X173145400Y-108836000D01*
X133377300Y-49909100D02*
X133223000Y-50063400D01*
X133377300Y-48046000D02*
X133377300Y-49909100D01*
X133377300Y-52084600D02*
X133705600Y-52412900D01*
X133377300Y-50586000D02*
X133377300Y-52084600D01*
X133377300Y-98909100D02*
X133223000Y-99063400D01*
X133377300Y-97046000D02*
X133377300Y-98909100D01*
X133377300Y-101084600D02*
X133705600Y-101412900D01*
X133377300Y-99586000D02*
X133377300Y-101084600D01*
X130837300Y-50205000D02*
X131051300Y-50419000D01*
X130837300Y-48046000D02*
X130837300Y-50205000D01*
X130837300Y-52385600D02*
X130810000Y-52412900D01*
X130837300Y-50586000D02*
X130837300Y-52385600D01*
X130837300Y-99205000D02*
X131051300Y-99419000D01*
X130837300Y-97046000D02*
X130837300Y-99205000D01*
X130837300Y-101385600D02*
X130810000Y-101412900D01*
X130837300Y-99586000D02*
X130837300Y-101385600D01*
X128297300Y-49900200D02*
X128574800Y-50177700D01*
X128297300Y-48046000D02*
X128297300Y-49900200D01*
X128297300Y-52262400D02*
X128638300Y-52603400D01*
X128297300Y-50586000D02*
X128297300Y-52262400D01*
X128297300Y-98900200D02*
X128574800Y-99177700D01*
X128297300Y-97046000D02*
X128297300Y-98900200D01*
X128297300Y-101262400D02*
X128638300Y-101603400D01*
X128297300Y-99586000D02*
X128297300Y-101262400D01*
X125757300Y-51014000D02*
X125742700Y-51028600D01*
X125757300Y-48046000D02*
X125757300Y-51014000D01*
X125757300Y-52262400D02*
X126034800Y-52539900D01*
X125757300Y-50586000D02*
X125757300Y-52262400D01*
X125757300Y-100014000D02*
X125742700Y-100028600D01*
X125757300Y-97046000D02*
X125757300Y-100014000D01*
X125757300Y-101262400D02*
X126034800Y-101539900D01*
X125757300Y-99586000D02*
X125757300Y-101262400D01*
X123217300Y-50582200D02*
X123139200Y-50660300D01*
X123217300Y-48046000D02*
X123217300Y-50582200D01*
X123217300Y-52461800D02*
X123024900Y-52654200D01*
X123217300Y-50586000D02*
X123217300Y-52461800D01*
X123217300Y-99582200D02*
X123139200Y-99660300D01*
X123217300Y-97046000D02*
X123217300Y-99582200D01*
X123217300Y-101461800D02*
X123024900Y-101654200D01*
X123217300Y-99586000D02*
X123217300Y-101461800D01*
X120677300Y-50433600D02*
X120967500Y-50723800D01*
X120677300Y-48046000D02*
X120677300Y-50433600D01*
X120677300Y-52922800D02*
X120840500Y-53086000D01*
X120677300Y-50586000D02*
X120677300Y-52922800D01*
X120677300Y-99433600D02*
X120967500Y-99723800D01*
X120677300Y-97046000D02*
X120677300Y-99433600D01*
X120677300Y-101922800D02*
X120840500Y-102086000D01*
X120677300Y-99586000D02*
X120677300Y-101922800D01*
X118137300Y-50417100D02*
X118135400Y-50419000D01*
X118137300Y-48046000D02*
X118137300Y-50417100D01*
X118137300Y-52605300D02*
X118313200Y-52781200D01*
X118137300Y-50586000D02*
X118137300Y-52605300D01*
X118137300Y-99417100D02*
X118135400Y-99419000D01*
X118137300Y-97046000D02*
X118137300Y-99417100D01*
X118137300Y-101605300D02*
X118313200Y-101781200D01*
X118137300Y-99586000D02*
X118137300Y-101605300D01*
X115597300Y-50306600D02*
X115709700Y-50419000D01*
X115597300Y-48046000D02*
X115597300Y-50306600D01*
X115597300Y-52592600D02*
X115900200Y-52895500D01*
X115597300Y-50586000D02*
X115597300Y-52592600D01*
X115597300Y-99306600D02*
X115709700Y-99419000D01*
X115597300Y-97046000D02*
X115597300Y-99306600D01*
X115597300Y-101592600D02*
X115900200Y-101895500D01*
X115597300Y-99586000D02*
X115597300Y-101592600D01*
X133377300Y-68061200D02*
X133502400Y-68186300D01*
X133377300Y-65826000D02*
X133377300Y-68061200D01*
X133377300Y-117061200D02*
X133502400Y-117186300D01*
X133377300Y-114826000D02*
X133377300Y-117061200D01*
X130837300Y-68035800D02*
X130911600Y-68110100D01*
X130837300Y-65826000D02*
X130837300Y-68035800D01*
X130837300Y-68366000D02*
X130837300Y-69890000D01*
X130837300Y-117035800D02*
X130911600Y-117110100D01*
X130837300Y-114826000D02*
X130837300Y-117035800D01*
X130837300Y-117366000D02*
X130837300Y-118890000D01*
X128297300Y-67972300D02*
X128689100Y-68364100D01*
X128297300Y-65826000D02*
X128297300Y-67972300D01*
X128297300Y-116972300D02*
X128689100Y-117364100D01*
X128297300Y-114826000D02*
X128297300Y-116972300D01*
X125757300Y-67731000D02*
X126212600Y-68186300D01*
X125757300Y-65826000D02*
X125757300Y-67731000D01*
X125757300Y-68366000D02*
X125757300Y-69928100D01*
X125757300Y-116731000D02*
X126212600Y-117186300D01*
X125757300Y-114826000D02*
X125757300Y-116731000D01*
X125757300Y-117366000D02*
X125757300Y-118928100D01*
X123217300Y-67981200D02*
X123050300Y-68148200D01*
X123217300Y-65826000D02*
X123217300Y-67981200D01*
X123217300Y-116981200D02*
X123050300Y-117148200D01*
X123217300Y-114826000D02*
X123217300Y-116981200D01*
X120677300Y-67629400D02*
X121031000Y-67983100D01*
X120677300Y-65826000D02*
X120677300Y-67629400D01*
X120677300Y-116629400D02*
X121031000Y-116983100D01*
X120677300Y-114826000D02*
X120677300Y-116629400D01*
X118137300Y-67731000D02*
X118262400Y-67856100D01*
X118137300Y-65826000D02*
X118137300Y-67731000D01*
X118137300Y-68366000D02*
X118137300Y-70042400D01*
X118137300Y-116731000D02*
X118262400Y-116856100D01*
X118137300Y-114826000D02*
X118137300Y-116731000D01*
X118137300Y-117366000D02*
X118137300Y-119042400D01*
X115597300Y-67705600D02*
X116039900Y-68148200D01*
X115597300Y-65826000D02*
X115597300Y-67705600D01*
X115597300Y-116705600D02*
X116039900Y-117148200D01*
X115597300Y-114826000D02*
X115597300Y-116705600D01*
X133377300Y-70906000D02*
X133377300Y-69429000D01*
X133377300Y-119906000D02*
X133377300Y-118429000D01*
X130837300Y-70906000D02*
X130837300Y-72417300D01*
X130837300Y-119906000D02*
X130837300Y-121417300D01*
X128297300Y-70906000D02*
X128297300Y-69556000D01*
X128297300Y-119906000D02*
X128297300Y-118556000D01*
X125757300Y-70906000D02*
X125757300Y-72705600D01*
X125757300Y-119906000D02*
X125757300Y-121705600D01*
X123217300Y-70906000D02*
X123217300Y-69149600D01*
X123217300Y-119906000D02*
X123217300Y-118149600D01*
X120677300Y-70906000D02*
X120677300Y-69213100D01*
X120677300Y-119906000D02*
X120677300Y-118213100D01*
X118137300Y-70906000D02*
X118137300Y-72760200D01*
X118137300Y-119906000D02*
X118137300Y-121760200D01*
X115597300Y-70906000D02*
X115597300Y-69213100D01*
X115597300Y-119906000D02*
X115597300Y-118213100D01*
X133377300Y-73446000D02*
X133377300Y-71778500D01*
X133377300Y-122446000D02*
X133377300Y-120778500D01*
X130837300Y-73446000D02*
X130837300Y-75169400D01*
X130837300Y-122446000D02*
X130837300Y-124169400D01*
X128297300Y-73446000D02*
X128297300Y-71803900D01*
X128297300Y-122446000D02*
X128297300Y-120803900D01*
X125757300Y-73446000D02*
X125757300Y-75122400D01*
X125757300Y-122446000D02*
X125757300Y-124122400D01*
X123217300Y-73446000D02*
X123217300Y-71689600D01*
X123217300Y-122446000D02*
X123217300Y-120689600D01*
X120677300Y-73446000D02*
X120677300Y-71803900D01*
X120677300Y-122446000D02*
X120677300Y-120803900D01*
X118137300Y-73446000D02*
X118137300Y-75309100D01*
X118137300Y-122446000D02*
X118137300Y-124309100D01*
X115597300Y-73446000D02*
X115597300Y-71858500D01*
X115597300Y-122446000D02*
X115597300Y-120858500D01*
X115597300Y-75986000D02*
X115597300Y-74195300D01*
X115597300Y-124986000D02*
X115597300Y-123195300D01*
X138457300Y-49782100D02*
X138417300Y-49822100D01*
X138457300Y-48046000D02*
X138457300Y-49782100D01*
X138457300Y-52452900D02*
X138658600Y-52654200D01*
X138457300Y-50586000D02*
X138457300Y-52452900D01*
X138457300Y-98782100D02*
X138417300Y-98822100D01*
X138457300Y-97046000D02*
X138457300Y-98782100D01*
X138457300Y-101452900D02*
X138658600Y-101654200D01*
X138457300Y-99586000D02*
X138457300Y-101452900D01*
X135917300Y-49782100D02*
X135877300Y-49822100D01*
X135917300Y-48046000D02*
X135917300Y-49782100D01*
X135917300Y-52097300D02*
X136182100Y-52362100D01*
X135917300Y-50586000D02*
X135917300Y-52097300D01*
X135917300Y-98782100D02*
X135877300Y-98822100D01*
X135917300Y-97046000D02*
X135917300Y-98782100D01*
X135917300Y-101097300D02*
X136182100Y-101362100D01*
X135917300Y-99586000D02*
X135917300Y-101097300D01*
X163906200Y-49161700D02*
X163906200Y-50177700D01*
X163857300Y-51318800D02*
X163906200Y-51269900D01*
X163857300Y-53126000D02*
X163857300Y-51318800D01*
X163906200Y-98161700D02*
X163906200Y-99177700D01*
X163857300Y-100318800D02*
X163906200Y-100269900D01*
X163857300Y-102126000D02*
X163857300Y-100318800D01*
X158777300Y-49921800D02*
X158762700Y-49936400D01*
X158777300Y-48046000D02*
X158777300Y-49921800D01*
X158777300Y-98921800D02*
X158762700Y-98936400D01*
X158777300Y-97046000D02*
X158777300Y-98921800D01*
X156237300Y-50112300D02*
X156108400Y-50241200D01*
X156237300Y-48046000D02*
X156237300Y-50112300D01*
X156237300Y-51318800D02*
X156286200Y-51269900D01*
X156237300Y-53126000D02*
X156237300Y-51318800D01*
X156237300Y-99112300D02*
X156108400Y-99241200D01*
X156237300Y-97046000D02*
X156237300Y-99112300D01*
X156237300Y-100318800D02*
X156286200Y-100269900D01*
X156237300Y-102126000D02*
X156237300Y-100318800D01*
X153697300Y-50116100D02*
X153822400Y-50241200D01*
X153697300Y-48046000D02*
X153697300Y-50116100D01*
X153697300Y-51458500D02*
X153822400Y-51333400D01*
X153697300Y-53126000D02*
X153697300Y-51458500D01*
X153697300Y-99116100D02*
X153822400Y-99241200D01*
X153697300Y-97046000D02*
X153697300Y-99116100D01*
X153697300Y-100458500D02*
X153822400Y-100333400D01*
X153697300Y-102126000D02*
X153697300Y-100458500D01*
X148617300Y-49760500D02*
X148678900Y-49822100D01*
X148617300Y-48046000D02*
X148617300Y-49760500D01*
X148617300Y-50586000D02*
X148617300Y-52110000D01*
X148617300Y-98760500D02*
X148678900Y-98822100D01*
X148617300Y-97046000D02*
X148617300Y-98760500D01*
X148617300Y-99586000D02*
X148617300Y-101110000D01*
X146077300Y-49697000D02*
X146265900Y-49885600D01*
X146077300Y-48046000D02*
X146077300Y-49697000D01*
X146077300Y-50586000D02*
X146077300Y-51919500D01*
X146077300Y-98697000D02*
X146265900Y-98885600D01*
X146077300Y-97046000D02*
X146077300Y-98697000D01*
X146077300Y-99586000D02*
X146077300Y-100919500D01*
X143537300Y-49747800D02*
X143675100Y-49885600D01*
X143537300Y-48046000D02*
X143537300Y-49747800D01*
X143537300Y-50586000D02*
X143537300Y-51856000D01*
X143537300Y-98747800D02*
X143675100Y-98885600D01*
X143537300Y-97046000D02*
X143537300Y-98747800D01*
X143537300Y-99586000D02*
X143537300Y-100856000D01*
X140997300Y-50344700D02*
X141020800Y-50368200D01*
X140997300Y-48046000D02*
X140997300Y-50344700D01*
X140997300Y-52033800D02*
X141198600Y-52235100D01*
X140997300Y-50586000D02*
X140997300Y-52033800D01*
X140997300Y-99344700D02*
X141020800Y-99368200D01*
X140997300Y-97046000D02*
X140997300Y-99344700D01*
X140997300Y-101033800D02*
X141198600Y-101235100D01*
X140997300Y-99586000D02*
X140997300Y-101033800D01*
X163857300Y-67718300D02*
X164033200Y-67894200D01*
X163857300Y-65826000D02*
X163857300Y-67718300D01*
X163857300Y-116718300D02*
X164033200Y-116894200D01*
X163857300Y-114826000D02*
X163857300Y-116718300D01*
X161317300Y-67832600D02*
X161340800Y-67856100D01*
X161317300Y-65826000D02*
X161317300Y-67832600D01*
X161317300Y-68366000D02*
X161317300Y-70292600D01*
X161317300Y-116832600D02*
X161340800Y-116856100D01*
X161317300Y-114826000D02*
X161317300Y-116832600D01*
X161317300Y-117366000D02*
X161317300Y-119292600D01*
X158777300Y-68099300D02*
X158826200Y-68148200D01*
X158777300Y-65826000D02*
X158777300Y-68099300D01*
X158777300Y-117099300D02*
X158826200Y-117148200D01*
X158777300Y-114826000D02*
X158777300Y-117099300D01*
X156237300Y-67870700D02*
X156438600Y-68072000D01*
X156237300Y-65826000D02*
X156237300Y-67870700D01*
X156237300Y-68366000D02*
X156237300Y-69801100D01*
X156237300Y-116870700D02*
X156438600Y-117072000D01*
X156237300Y-114826000D02*
X156237300Y-116870700D01*
X156237300Y-117366000D02*
X156237300Y-118801100D01*
X153697300Y-67883400D02*
X153797000Y-67983100D01*
X153697300Y-65826000D02*
X153697300Y-67883400D01*
X153697300Y-68366000D02*
X153697300Y-70156700D01*
X153697300Y-116883400D02*
X153797000Y-116983100D01*
X153697300Y-114826000D02*
X153697300Y-116883400D01*
X153697300Y-117366000D02*
X153697300Y-119156700D01*
X151157300Y-67985000D02*
X151536400Y-68364100D01*
X151157300Y-65826000D02*
X151157300Y-67985000D01*
X151157300Y-116985000D02*
X151536400Y-117364100D01*
X151157300Y-114826000D02*
X151157300Y-116985000D01*
X148617300Y-67968500D02*
X148602700Y-67983100D01*
X148617300Y-65826000D02*
X148617300Y-67968500D01*
X148617300Y-68366000D02*
X148617300Y-70076700D01*
X148617300Y-116968500D02*
X148602700Y-116983100D01*
X148617300Y-114826000D02*
X148617300Y-116968500D01*
X148617300Y-117366000D02*
X148617300Y-119076700D01*
X146077300Y-67731000D02*
X146329400Y-67983100D01*
X146077300Y-65826000D02*
X146077300Y-67731000D01*
X146077300Y-116731000D02*
X146329400Y-116983100D01*
X146077300Y-114826000D02*
X146077300Y-116731000D01*
X143537300Y-68184400D02*
X143357600Y-68364100D01*
X143537300Y-65826000D02*
X143537300Y-68184400D01*
X143537300Y-68366000D02*
X143537300Y-70318000D01*
X143537300Y-117184400D02*
X143357600Y-117364100D01*
X143537300Y-114826000D02*
X143537300Y-117184400D01*
X143537300Y-117366000D02*
X143537300Y-119318000D01*
X140997300Y-67934200D02*
X141135100Y-68072000D01*
X140997300Y-65826000D02*
X140997300Y-67934200D01*
X140997300Y-116934200D02*
X141135100Y-117072000D01*
X140997300Y-114826000D02*
X140997300Y-116934200D01*
X138457300Y-68073900D02*
X138531600Y-68148200D01*
X138457300Y-65826000D02*
X138457300Y-68073900D01*
X138457300Y-68366000D02*
X138457300Y-69890000D01*
X138457300Y-117073900D02*
X138531600Y-117148200D01*
X138457300Y-114826000D02*
X138457300Y-117073900D01*
X138457300Y-117366000D02*
X138457300Y-118890000D01*
X135917300Y-67464300D02*
X136347200Y-67894200D01*
X135917300Y-65826000D02*
X135917300Y-67464300D01*
X135917300Y-116464300D02*
X136347200Y-116894200D01*
X135917300Y-114826000D02*
X135917300Y-116464300D01*
X163857300Y-70906000D02*
X163857300Y-69263900D01*
X163857300Y-119906000D02*
X163857300Y-118263900D01*
X161317300Y-70906000D02*
X161317300Y-72350000D01*
X161317300Y-119906000D02*
X161317300Y-121350000D01*
X158777300Y-70906000D02*
X158777300Y-69149600D01*
X158777300Y-119906000D02*
X158777300Y-118149600D01*
X156237300Y-70906000D02*
X156237300Y-72391900D01*
X156237300Y-119906000D02*
X156237300Y-121391900D01*
X153697300Y-70906000D02*
X153697300Y-72633200D01*
X153697300Y-119906000D02*
X153697300Y-121633200D01*
X151157300Y-70906000D02*
X151157300Y-69098800D01*
X151157300Y-119906000D02*
X151157300Y-118098800D01*
X148617300Y-70906000D02*
X148617300Y-72620500D01*
X148617300Y-119906000D02*
X148617300Y-121620500D01*
X146077300Y-70906000D02*
X146077300Y-69420100D01*
X146077300Y-119906000D02*
X146077300Y-118420100D01*
X143537300Y-70906000D02*
X143537300Y-72734800D01*
X143537300Y-119906000D02*
X143537300Y-121734800D01*
X140997300Y-70906000D02*
X140997300Y-69302000D01*
X140997300Y-119906000D02*
X140997300Y-118302000D01*
X138457300Y-70906000D02*
X138457300Y-72607800D01*
X138457300Y-119906000D02*
X138457300Y-121607800D01*
X135917300Y-70906000D02*
X135917300Y-68692400D01*
X135917300Y-119906000D02*
X135917300Y-117692400D01*
X163857300Y-73446000D02*
X163857300Y-72045200D01*
X163857300Y-122446000D02*
X163857300Y-121045200D01*
X161317300Y-73446000D02*
X161317300Y-75067800D01*
X161317300Y-122446000D02*
X161317300Y-124067800D01*
X158777300Y-73446000D02*
X158777300Y-71562600D01*
X158777300Y-122446000D02*
X158777300Y-120562600D01*
X156237300Y-73446000D02*
X156237300Y-75258300D01*
X156237300Y-122446000D02*
X156237300Y-124258300D01*
X153697300Y-73446000D02*
X153697300Y-75109700D01*
X153697300Y-122446000D02*
X153697300Y-124109700D01*
X151157300Y-73446000D02*
X151157300Y-71845800D01*
X151157300Y-122446000D02*
X151157300Y-120845800D01*
X148617300Y-73446000D02*
X148617300Y-75046200D01*
X148617300Y-122446000D02*
X148617300Y-124046200D01*
X146077300Y-73446000D02*
X146077300Y-71718800D01*
X146077300Y-122446000D02*
X146077300Y-120718800D01*
X143537300Y-73446000D02*
X143537300Y-75097000D01*
X143537300Y-122446000D02*
X143537300Y-124097000D01*
X140997300Y-73446000D02*
X140997300Y-71727700D01*
X140997300Y-122446000D02*
X140997300Y-120727700D01*
X138457300Y-73446000D02*
X138457300Y-74970000D01*
X138457300Y-122446000D02*
X138457300Y-123970000D01*
X135917300Y-73446000D02*
X135917300Y-71134600D01*
X135917300Y-122446000D02*
X135917300Y-120134600D01*
X163857300Y-75986000D02*
X163857300Y-73861300D01*
X163857300Y-124986000D02*
X163857300Y-122861300D01*
X161317300Y-75986000D02*
X161317300Y-77734800D01*
X161317300Y-124986000D02*
X161317300Y-126734800D01*
X158777300Y-75986000D02*
X158777300Y-74144500D01*
X158777300Y-124986000D02*
X158777300Y-123144500D01*
X156237300Y-75986000D02*
X156237300Y-77557000D01*
X156237300Y-124986000D02*
X156237300Y-126557000D01*
X153697300Y-75986000D02*
X153697300Y-77764000D01*
X153697300Y-124986000D02*
X153697300Y-126764000D01*
X151157300Y-75986000D02*
X151157300Y-74436600D01*
X151157300Y-124986000D02*
X151157300Y-123436600D01*
X148617300Y-75986000D02*
X148617300Y-77459200D01*
X148617300Y-124986000D02*
X148617300Y-126459200D01*
X146077300Y-75986000D02*
X146077300Y-74293100D01*
X146077300Y-124986000D02*
X146077300Y-123293100D01*
X143537300Y-75986000D02*
X143537300Y-77383000D01*
X143537300Y-124986000D02*
X143537300Y-126383000D01*
X140997300Y-75986000D02*
X140997300Y-74496300D01*
X140997300Y-124986000D02*
X140997300Y-123496300D01*
X138457300Y-75986000D02*
X138457300Y-77802100D01*
X138457300Y-124986000D02*
X138457300Y-126802100D01*
X135917300Y-75986000D02*
X135917300Y-73611100D01*
X135917300Y-73611100D02*
X135712200Y-73406000D01*
X135712200Y-71450200D02*
X135851900Y-71310500D01*
X135917300Y-124986000D02*
X135917300Y-122611100D01*
X135917300Y-122611100D02*
X135712200Y-122406000D01*
X135712200Y-120450200D02*
X135851900Y-120310500D01*
X133377300Y-75986000D02*
X133377300Y-74347700D01*
X133377300Y-124986000D02*
X133377300Y-123347700D01*
X130837300Y-75986000D02*
X130837300Y-77595100D01*
X130837300Y-124986000D02*
X130837300Y-126595100D01*
X128297300Y-75986000D02*
X128297300Y-74347700D01*
X128297300Y-124986000D02*
X128297300Y-123347700D01*
X125757300Y-75986000D02*
X125757300Y-77595100D01*
X125757300Y-124986000D02*
X125757300Y-126595100D01*
X123217300Y-75986000D02*
X123217300Y-74280400D01*
X123217300Y-124986000D02*
X123217300Y-123280400D01*
X120677300Y-75986000D02*
X120677300Y-74166100D01*
X120677300Y-124986000D02*
X120677300Y-123166100D01*
X118137300Y-75986000D02*
X118137300Y-77535400D01*
X118137300Y-124986000D02*
X118137300Y-126535400D01*
X115597300Y-79275300D02*
X115582700Y-79260700D01*
X115597300Y-81066000D02*
X115597300Y-79275300D01*
X115597300Y-78526000D02*
X115597300Y-76798800D01*
X115597300Y-128275300D02*
X115582700Y-128260700D01*
X115597300Y-130066000D02*
X115597300Y-128275300D01*
X115597300Y-127526000D02*
X115597300Y-125798800D01*
X163857300Y-79288000D02*
X163703000Y-79133700D01*
X163857300Y-81066000D02*
X163857300Y-79288000D01*
X163857300Y-78526000D02*
X163857300Y-76998200D01*
X163857300Y-130066000D02*
X163857300Y-128288000D01*
X163857300Y-127526000D02*
X163857300Y-125998200D01*
X163857300Y-128288000D02*
X163703000Y-128133700D01*
X161317300Y-78526000D02*
X161317300Y-79830300D01*
X161317300Y-127526000D02*
X161317300Y-128830300D01*
X158777300Y-79224500D02*
X158750000Y-79197200D01*
X158777300Y-81066000D02*
X158777300Y-79224500D01*
X158777300Y-78526000D02*
X158777300Y-76820400D01*
X158777300Y-128224500D02*
X158750000Y-128197200D01*
X158777300Y-130066000D02*
X158777300Y-128224500D01*
X158777300Y-127526000D02*
X158777300Y-125820400D01*
X156237300Y-78526000D02*
X156237300Y-79970000D01*
X156237300Y-127526000D02*
X156237300Y-128970000D01*
X153697300Y-78526000D02*
X153697300Y-79843000D01*
X153697300Y-127526000D02*
X153697300Y-128843000D01*
X151157300Y-79389600D02*
X151091900Y-79324200D01*
X151157300Y-81066000D02*
X151157300Y-79389600D01*
X151157300Y-78526000D02*
X151157300Y-77010900D01*
X151157300Y-128389600D02*
X151091900Y-128324200D01*
X151157300Y-130066000D02*
X151157300Y-128389600D01*
X151157300Y-127526000D02*
X151157300Y-126010900D01*
X148617300Y-78526000D02*
X148617300Y-79872200D01*
X148617300Y-127526000D02*
X148617300Y-128872200D01*
X146077300Y-78526000D02*
X146077300Y-76849600D01*
X146077300Y-127526000D02*
X146077300Y-125849600D01*
X143537300Y-78526000D02*
X143537300Y-79923000D01*
X143537300Y-127526000D02*
X143537300Y-128923000D01*
X140997300Y-79271500D02*
X141008100Y-79260700D01*
X140997300Y-81066000D02*
X140997300Y-79271500D01*
X140997300Y-78526000D02*
X140997300Y-76659100D01*
X140997300Y-128271500D02*
X141008100Y-128260700D01*
X140997300Y-130066000D02*
X140997300Y-128271500D01*
X140997300Y-127526000D02*
X140997300Y-125659100D01*
X138457300Y-78526000D02*
X138457300Y-80037300D01*
X138457300Y-127526000D02*
X138457300Y-129037300D01*
X135917300Y-78856200D02*
X135851900Y-78790800D01*
X135917300Y-81066000D02*
X135917300Y-78856200D01*
X135917300Y-78526000D02*
X135917300Y-76414000D01*
X135917300Y-127856200D02*
X135851900Y-127790800D01*
X135917300Y-130066000D02*
X135917300Y-127856200D01*
X135917300Y-127526000D02*
X135917300Y-125414000D01*
X133377300Y-79271500D02*
X133388100Y-79260700D01*
X133377300Y-81066000D02*
X133377300Y-79271500D01*
X133377300Y-78526000D02*
X133377300Y-76795000D01*
X133377300Y-128271500D02*
X133388100Y-128260700D01*
X133377300Y-130066000D02*
X133377300Y-128271500D01*
X133377300Y-127526000D02*
X133377300Y-125795000D01*
X130837300Y-78526000D02*
X130837300Y-79719800D01*
X130837300Y-127526000D02*
X130837300Y-128719800D01*
X128297300Y-79411200D02*
X128447800Y-79260700D01*
X128297300Y-81066000D02*
X128297300Y-79411200D01*
X128297300Y-78526000D02*
X128297300Y-76807700D01*
X128297300Y-128411200D02*
X128447800Y-128260700D01*
X128297300Y-130066000D02*
X128297300Y-128411200D01*
X128297300Y-127526000D02*
X128297300Y-125807700D01*
X125757300Y-80011900D02*
X125844300Y-80098900D01*
X125757300Y-78526000D02*
X125757300Y-80011900D01*
X125757300Y-129011900D02*
X125844300Y-129098900D01*
X125757300Y-127526000D02*
X125757300Y-129011900D01*
X123217300Y-79474700D02*
X123367800Y-79324200D01*
X123217300Y-81066000D02*
X123217300Y-79474700D01*
X123217300Y-78526000D02*
X123217300Y-76684500D01*
X123217300Y-128474700D02*
X123367800Y-128324200D01*
X123217300Y-130066000D02*
X123217300Y-128474700D01*
X123217300Y-127526000D02*
X123217300Y-125684500D01*
X120677300Y-79351500D02*
X120650000Y-79324200D01*
X120677300Y-81066000D02*
X120677300Y-79351500D01*
X120677300Y-78526000D02*
X120677300Y-76756900D01*
X120677300Y-128351500D02*
X120650000Y-128324200D01*
X120677300Y-130066000D02*
X120677300Y-128351500D01*
X120677300Y-127526000D02*
X120677300Y-125756900D01*
X118137300Y-78526000D02*
X118137300Y-79707100D01*
X118137300Y-127526000D02*
X118137300Y-128707100D01*
D17*
G36*
X174228950Y-94818200D02*
G01*
X113445650Y-94818200D01*
X113447397Y-94796000D01*
X174227203Y-94796000D01*
X174228950Y-94818200D01*
G37*
X174228950Y-94818200D02*
X113445650Y-94818200D01*
X113447397Y-94796000D01*
X174227203Y-94796000D01*
X174228950Y-94818200D01*
G36*
X174259361Y-46204607D02*
G01*
X174275562Y-46306898D01*
X174513669Y-47298684D01*
X174545672Y-47397181D01*
X174935997Y-48339509D01*
X174983015Y-48431787D01*
X175515947Y-49301453D01*
X175542129Y-49337489D01*
X175576822Y-49385240D01*
X176239238Y-50160830D01*
X176312470Y-50234062D01*
X177088060Y-50896478D01*
X177171847Y-50957353D01*
X178041513Y-51490284D01*
X178133791Y-51537303D01*
X179076119Y-51927627D01*
X179174616Y-51959631D01*
X180166402Y-52197738D01*
X180268693Y-52213939D01*
X180677300Y-52246097D01*
X180677301Y-87025903D01*
X180268693Y-87058061D01*
X180166402Y-87074262D01*
X179174616Y-87312369D01*
X179076119Y-87344373D01*
X178133791Y-87734697D01*
X178042918Y-87781000D01*
X178041513Y-87781716D01*
X177171847Y-88314647D01*
X177088060Y-88375522D01*
X176312470Y-89037938D01*
X176239238Y-89111170D01*
X175576822Y-89886760D01*
X175546385Y-89928654D01*
X175515947Y-89970547D01*
X174983015Y-90840213D01*
X174963692Y-90878138D01*
X174935997Y-90932491D01*
X174545672Y-91874819D01*
X174516237Y-91965411D01*
X174513669Y-91973316D01*
X174275562Y-92965102D01*
X174259361Y-93067393D01*
X174227203Y-93476000D01*
X113447397Y-93476000D01*
X113415239Y-93067393D01*
X113399038Y-92965102D01*
X113160931Y-91973316D01*
X113128927Y-91874819D01*
X112738603Y-90932491D01*
X112691584Y-90840213D01*
X112158653Y-89970547D01*
X112097778Y-89886760D01*
X111704014Y-89425721D01*
X116702300Y-89425721D01*
X116702300Y-89846279D01*
X116784347Y-90258756D01*
X116945288Y-90647302D01*
X117178937Y-90996983D01*
X117476317Y-91294363D01*
X117825998Y-91528012D01*
X118214544Y-91688953D01*
X118627021Y-91771000D01*
X119047579Y-91771000D01*
X119460056Y-91688953D01*
X119848602Y-91528012D01*
X120198283Y-91294363D01*
X120495663Y-90996983D01*
X120729312Y-90647302D01*
X120890253Y-90258756D01*
X120972300Y-89846279D01*
X120972300Y-89425721D01*
X120890253Y-89013244D01*
X120729312Y-88624698D01*
X120495663Y-88275017D01*
X120198283Y-87977637D01*
X119848602Y-87743988D01*
X119460056Y-87583047D01*
X119047579Y-87501000D01*
X118627021Y-87501000D01*
X118214544Y-87583047D01*
X117825998Y-87743988D01*
X117476317Y-87977637D01*
X117178937Y-88275017D01*
X116945288Y-88624698D01*
X116784347Y-89013244D01*
X116702300Y-89425721D01*
X111704014Y-89425721D01*
X111435362Y-89111170D01*
X111362130Y-89037938D01*
X110586540Y-88375522D01*
X110518084Y-88325786D01*
X110502753Y-88314647D01*
X109633087Y-87781715D01*
X109586948Y-87758207D01*
X109540809Y-87734697D01*
X108598481Y-87344372D01*
X108499984Y-87312369D01*
X107508198Y-87074262D01*
X107405907Y-87058061D01*
X106997300Y-87025903D01*
X106997300Y-69425721D01*
X109702300Y-69425721D01*
X109702300Y-69846279D01*
X109784347Y-70258756D01*
X109945288Y-70647302D01*
X110178937Y-70996983D01*
X110476317Y-71294363D01*
X110825998Y-71528012D01*
X111214544Y-71688953D01*
X111627021Y-71771000D01*
X112047579Y-71771000D01*
X112460056Y-71688953D01*
X112848602Y-71528012D01*
X113198283Y-71294363D01*
X113495663Y-70996983D01*
X113729312Y-70647302D01*
X113890253Y-70258756D01*
X113972300Y-69846279D01*
X113972300Y-69425721D01*
X113890253Y-69013244D01*
X113729312Y-68624698D01*
X113495663Y-68275017D01*
X113198283Y-67977637D01*
X112848602Y-67743988D01*
X112460056Y-67583047D01*
X112047579Y-67501000D01*
X111627021Y-67501000D01*
X111214544Y-67583047D01*
X110825998Y-67743988D01*
X110476317Y-67977637D01*
X110178937Y-68275017D01*
X109945288Y-68624698D01*
X109784347Y-69013244D01*
X109702300Y-69425721D01*
X106997300Y-69425721D01*
X106997300Y-52246097D01*
X107405907Y-52213939D01*
X107508198Y-52197738D01*
X108499984Y-51959631D01*
X108502415Y-51958841D01*
X108598481Y-51927628D01*
X109540809Y-51537303D01*
X109633087Y-51490285D01*
X110502753Y-50957353D01*
X110544646Y-50926916D01*
X110586540Y-50896478D01*
X111362130Y-50234062D01*
X111435363Y-50160829D01*
X112097778Y-49385240D01*
X112158653Y-49301453D01*
X112158654Y-49301452D01*
X112691584Y-48431787D01*
X112738603Y-48339509D01*
X112926879Y-47884967D01*
X113962300Y-47884967D01*
X113962300Y-48207033D01*
X114025132Y-48522912D01*
X114148382Y-48820463D01*
X114327313Y-49088252D01*
X114426509Y-49187448D01*
X114392806Y-49205463D01*
X114296115Y-49284815D01*
X114216763Y-49381506D01*
X114157798Y-49491820D01*
X114121488Y-49611518D01*
X114109228Y-49736000D01*
X114109228Y-51436000D01*
X114121488Y-51560482D01*
X114157798Y-51680180D01*
X114216763Y-51790494D01*
X114296115Y-51887185D01*
X114392806Y-51966537D01*
X114426509Y-51984552D01*
X114327313Y-52083748D01*
X114148382Y-52351537D01*
X114025132Y-52649088D01*
X113962300Y-52964967D01*
X113962300Y-53287033D01*
X114025132Y-53602912D01*
X114148382Y-53900463D01*
X114327313Y-54168252D01*
X114555048Y-54395987D01*
X114555067Y-54396000D01*
X114555048Y-54396013D01*
X114327313Y-54623748D01*
X114148382Y-54891537D01*
X114025132Y-55189088D01*
X113962300Y-55504967D01*
X113962300Y-55827033D01*
X114025132Y-56142912D01*
X114148382Y-56440463D01*
X114327313Y-56708252D01*
X114555048Y-56935987D01*
X114555067Y-56936000D01*
X114555048Y-56936013D01*
X114327313Y-57163748D01*
X114148382Y-57431537D01*
X114025132Y-57729088D01*
X113962300Y-58044967D01*
X113962300Y-58367033D01*
X114025132Y-58682912D01*
X114148382Y-58980463D01*
X114327313Y-59248252D01*
X114555048Y-59475987D01*
X114555067Y-59476000D01*
X114555048Y-59476013D01*
X114327313Y-59703748D01*
X114148382Y-59971537D01*
X114025132Y-60269088D01*
X113962300Y-60584967D01*
X113962300Y-60907033D01*
X114025132Y-61222912D01*
X114148382Y-61520463D01*
X114327313Y-61788252D01*
X114555048Y-62015987D01*
X114555067Y-62016000D01*
X114555048Y-62016013D01*
X114327313Y-62243748D01*
X114148382Y-62511537D01*
X114025132Y-62809088D01*
X113962300Y-63124967D01*
X113962300Y-63447033D01*
X114025132Y-63762912D01*
X114148382Y-64060463D01*
X114327313Y-64328252D01*
X114555048Y-64555987D01*
X114555067Y-64556000D01*
X114555048Y-64556013D01*
X114327313Y-64783748D01*
X114148382Y-65051537D01*
X114025132Y-65349088D01*
X113962300Y-65664967D01*
X113962300Y-65987033D01*
X114025132Y-66302912D01*
X114148382Y-66600463D01*
X114327313Y-66868252D01*
X114426509Y-66967448D01*
X114392806Y-66985463D01*
X114296115Y-67064815D01*
X114216763Y-67161506D01*
X114157798Y-67271820D01*
X114121488Y-67391518D01*
X114109228Y-67516000D01*
X114109228Y-69216000D01*
X114121488Y-69340482D01*
X114157798Y-69460180D01*
X114216763Y-69570494D01*
X114270522Y-69636000D01*
X114216763Y-69701506D01*
X114157798Y-69811820D01*
X114121488Y-69931518D01*
X114109228Y-70056000D01*
X114109228Y-71756000D01*
X114121488Y-71880482D01*
X114157798Y-72000180D01*
X114216763Y-72110494D01*
X114270522Y-72176000D01*
X114216763Y-72241506D01*
X114157798Y-72351820D01*
X114121488Y-72471518D01*
X114109228Y-72596000D01*
X114109228Y-74296000D01*
X114121488Y-74420482D01*
X114157798Y-74540180D01*
X114216763Y-74650494D01*
X114270522Y-74716000D01*
X114216763Y-74781506D01*
X114157798Y-74891820D01*
X114121488Y-75011518D01*
X114109228Y-75136000D01*
X114109228Y-76836000D01*
X114121488Y-76960482D01*
X114157798Y-77080180D01*
X114216763Y-77190494D01*
X114270522Y-77256000D01*
X114216763Y-77321506D01*
X114157798Y-77431820D01*
X114121488Y-77551518D01*
X114109228Y-77676000D01*
X114109228Y-79376000D01*
X114121488Y-79500482D01*
X114157798Y-79620180D01*
X114216763Y-79730494D01*
X114296115Y-79827185D01*
X114392806Y-79906537D01*
X114426509Y-79924552D01*
X114327313Y-80023748D01*
X114148382Y-80291537D01*
X114025132Y-80589088D01*
X113962300Y-80904967D01*
X113962300Y-81227033D01*
X114025132Y-81542912D01*
X114148382Y-81840463D01*
X114327313Y-82108252D01*
X114555048Y-82335987D01*
X114555067Y-82336000D01*
X114555048Y-82336013D01*
X114327313Y-82563748D01*
X114148382Y-82831537D01*
X114025132Y-83129088D01*
X113962300Y-83444967D01*
X113962300Y-83767033D01*
X114025132Y-84082912D01*
X114148382Y-84380463D01*
X114327313Y-84648252D01*
X114555048Y-84875987D01*
X114822837Y-85054918D01*
X115120388Y-85178168D01*
X115436267Y-85241000D01*
X115758333Y-85241000D01*
X116074212Y-85178168D01*
X116371763Y-85054918D01*
X116639552Y-84875987D01*
X116867287Y-84648252D01*
X116867300Y-84648233D01*
X116867313Y-84648252D01*
X117095048Y-84875987D01*
X117362837Y-85054918D01*
X117660388Y-85178168D01*
X117976267Y-85241000D01*
X118298333Y-85241000D01*
X118614212Y-85178168D01*
X118911763Y-85054918D01*
X119179552Y-84875987D01*
X119407287Y-84648252D01*
X119407300Y-84648233D01*
X119407313Y-84648252D01*
X119635048Y-84875987D01*
X119902837Y-85054918D01*
X120200388Y-85178168D01*
X120516267Y-85241000D01*
X120838333Y-85241000D01*
X121154212Y-85178168D01*
X121451763Y-85054918D01*
X121719552Y-84875987D01*
X121947287Y-84648252D01*
X121947300Y-84648233D01*
X121947313Y-84648252D01*
X122175048Y-84875987D01*
X122442837Y-85054918D01*
X122740388Y-85178168D01*
X123056267Y-85241000D01*
X123378333Y-85241000D01*
X123694212Y-85178168D01*
X123991763Y-85054918D01*
X124259552Y-84875987D01*
X124487287Y-84648252D01*
X124487300Y-84648233D01*
X124487313Y-84648252D01*
X124715048Y-84875987D01*
X124715067Y-84876000D01*
X124715048Y-84876013D01*
X124487313Y-85103748D01*
X124308382Y-85371537D01*
X124185132Y-85669088D01*
X124122300Y-85984967D01*
X124122300Y-86307033D01*
X124185132Y-86622912D01*
X124308382Y-86920463D01*
X124487313Y-87188252D01*
X124715048Y-87415987D01*
X124715067Y-87416000D01*
X124715048Y-87416013D01*
X124487313Y-87643748D01*
X124308382Y-87911537D01*
X124185132Y-88209088D01*
X124122300Y-88524967D01*
X124122300Y-88847033D01*
X124185132Y-89162912D01*
X124308382Y-89460463D01*
X124487313Y-89728252D01*
X124715048Y-89955987D01*
X124715067Y-89956000D01*
X124715048Y-89956013D01*
X124487313Y-90183748D01*
X124308382Y-90451537D01*
X124185132Y-90749088D01*
X124122300Y-91064967D01*
X124122300Y-91387033D01*
X124185132Y-91702912D01*
X124308382Y-92000463D01*
X124487313Y-92268252D01*
X124715048Y-92495987D01*
X124982837Y-92674918D01*
X125280388Y-92798168D01*
X125596267Y-92861000D01*
X125918333Y-92861000D01*
X126234212Y-92798168D01*
X126531763Y-92674918D01*
X126799552Y-92495987D01*
X127027287Y-92268252D01*
X127027300Y-92268233D01*
X127027313Y-92268252D01*
X127255048Y-92495987D01*
X127522837Y-92674918D01*
X127820388Y-92798168D01*
X128136267Y-92861000D01*
X128458333Y-92861000D01*
X128774212Y-92798168D01*
X129071763Y-92674918D01*
X129339552Y-92495987D01*
X129567287Y-92268252D01*
X129567300Y-92268233D01*
X129567313Y-92268252D01*
X129795048Y-92495987D01*
X130062837Y-92674918D01*
X130360388Y-92798168D01*
X130676267Y-92861000D01*
X130998333Y-92861000D01*
X131314212Y-92798168D01*
X131611763Y-92674918D01*
X131879552Y-92495987D01*
X132107287Y-92268252D01*
X132107300Y-92268233D01*
X132107313Y-92268252D01*
X132335048Y-92495987D01*
X132602837Y-92674918D01*
X132900388Y-92798168D01*
X133216267Y-92861000D01*
X133538333Y-92861000D01*
X133854212Y-92798168D01*
X134151763Y-92674918D01*
X134419552Y-92495987D01*
X134647287Y-92268252D01*
X134647300Y-92268233D01*
X134647313Y-92268252D01*
X134875048Y-92495987D01*
X135142837Y-92674918D01*
X135440388Y-92798168D01*
X135756267Y-92861000D01*
X136078333Y-92861000D01*
X136394212Y-92798168D01*
X136691763Y-92674918D01*
X136959552Y-92495987D01*
X137187287Y-92268252D01*
X137187300Y-92268233D01*
X137187313Y-92268252D01*
X137415048Y-92495987D01*
X137682837Y-92674918D01*
X137980388Y-92798168D01*
X138296267Y-92861000D01*
X138618333Y-92861000D01*
X138934212Y-92798168D01*
X139231763Y-92674918D01*
X139499552Y-92495987D01*
X139727287Y-92268252D01*
X139727300Y-92268233D01*
X139727313Y-92268252D01*
X139955048Y-92495987D01*
X140222837Y-92674918D01*
X140520388Y-92798168D01*
X140836267Y-92861000D01*
X141158333Y-92861000D01*
X141474212Y-92798168D01*
X141771763Y-92674918D01*
X142039552Y-92495987D01*
X142267287Y-92268252D01*
X142267300Y-92268233D01*
X142267313Y-92268252D01*
X142495048Y-92495987D01*
X142762837Y-92674918D01*
X143060388Y-92798168D01*
X143376267Y-92861000D01*
X143698333Y-92861000D01*
X144014212Y-92798168D01*
X144311763Y-92674918D01*
X144579552Y-92495987D01*
X144807287Y-92268252D01*
X144807300Y-92268233D01*
X144807313Y-92268252D01*
X145035048Y-92495987D01*
X145302837Y-92674918D01*
X145600388Y-92798168D01*
X145916267Y-92861000D01*
X146238333Y-92861000D01*
X146554212Y-92798168D01*
X146851763Y-92674918D01*
X147119552Y-92495987D01*
X147347287Y-92268252D01*
X147347300Y-92268233D01*
X147347313Y-92268252D01*
X147575048Y-92495987D01*
X147842837Y-92674918D01*
X148140388Y-92798168D01*
X148456267Y-92861000D01*
X148778333Y-92861000D01*
X149094212Y-92798168D01*
X149391763Y-92674918D01*
X149659552Y-92495987D01*
X149887287Y-92268252D01*
X149887300Y-92268233D01*
X149887313Y-92268252D01*
X150115048Y-92495987D01*
X150382837Y-92674918D01*
X150680388Y-92798168D01*
X150996267Y-92861000D01*
X151318333Y-92861000D01*
X151634212Y-92798168D01*
X151931763Y-92674918D01*
X152199552Y-92495987D01*
X152427287Y-92268252D01*
X152427300Y-92268233D01*
X152427313Y-92268252D01*
X152655048Y-92495987D01*
X152922837Y-92674918D01*
X153220388Y-92798168D01*
X153536267Y-92861000D01*
X153858333Y-92861000D01*
X154174212Y-92798168D01*
X154471763Y-92674918D01*
X154739552Y-92495987D01*
X154967287Y-92268252D01*
X154967300Y-92268233D01*
X154967313Y-92268252D01*
X155195048Y-92495987D01*
X155462837Y-92674918D01*
X155760388Y-92798168D01*
X156076267Y-92861000D01*
X156398333Y-92861000D01*
X156714212Y-92798168D01*
X157011763Y-92674918D01*
X157279552Y-92495987D01*
X157507287Y-92268252D01*
X157507300Y-92268233D01*
X157507313Y-92268252D01*
X157735048Y-92495987D01*
X158002837Y-92674918D01*
X158300388Y-92798168D01*
X158616267Y-92861000D01*
X158938333Y-92861000D01*
X159254212Y-92798168D01*
X159551763Y-92674918D01*
X159819552Y-92495987D01*
X160047287Y-92268252D01*
X160047300Y-92268233D01*
X160047313Y-92268252D01*
X160275048Y-92495987D01*
X160542837Y-92674918D01*
X160840388Y-92798168D01*
X161156267Y-92861000D01*
X161478333Y-92861000D01*
X161794212Y-92798168D01*
X162091763Y-92674918D01*
X162359552Y-92495987D01*
X162587287Y-92268252D01*
X162587300Y-92268233D01*
X162587313Y-92268252D01*
X162815048Y-92495987D01*
X163082837Y-92674918D01*
X163380388Y-92798168D01*
X163696267Y-92861000D01*
X164018333Y-92861000D01*
X164334212Y-92798168D01*
X164631763Y-92674918D01*
X164899552Y-92495987D01*
X165127287Y-92268252D01*
X165306218Y-92000463D01*
X165429468Y-91702912D01*
X165492300Y-91387033D01*
X165492300Y-91064967D01*
X165429468Y-90749088D01*
X165306218Y-90451537D01*
X165127287Y-90183748D01*
X164899552Y-89956013D01*
X164899533Y-89956000D01*
X164899552Y-89955987D01*
X165127287Y-89728252D01*
X165306218Y-89460463D01*
X165320608Y-89425721D01*
X166702300Y-89425721D01*
X166702300Y-89846279D01*
X166784347Y-90258756D01*
X166945288Y-90647302D01*
X167178937Y-90996983D01*
X167476317Y-91294363D01*
X167825998Y-91528012D01*
X168214544Y-91688953D01*
X168627021Y-91771000D01*
X169047579Y-91771000D01*
X169460056Y-91688953D01*
X169848602Y-91528012D01*
X170198283Y-91294363D01*
X170495663Y-90996983D01*
X170729312Y-90647302D01*
X170890253Y-90258756D01*
X170972300Y-89846279D01*
X170972300Y-89425721D01*
X170890253Y-89013244D01*
X170729312Y-88624698D01*
X170495663Y-88275017D01*
X170198283Y-87977637D01*
X169848602Y-87743988D01*
X169460056Y-87583047D01*
X169047579Y-87501000D01*
X168627021Y-87501000D01*
X168214544Y-87583047D01*
X167825998Y-87743988D01*
X167476317Y-87977637D01*
X167178937Y-88275017D01*
X166945288Y-88624698D01*
X166784347Y-89013244D01*
X166702300Y-89425721D01*
X165320608Y-89425721D01*
X165429468Y-89162912D01*
X165492300Y-88847033D01*
X165492300Y-88524967D01*
X165429468Y-88209088D01*
X165306218Y-87911537D01*
X165127287Y-87643748D01*
X164899552Y-87416013D01*
X164899533Y-87416000D01*
X164899552Y-87415987D01*
X165127287Y-87188252D01*
X165306218Y-86920463D01*
X165429468Y-86622912D01*
X165492300Y-86307033D01*
X165492300Y-85984967D01*
X165429468Y-85669088D01*
X165306218Y-85371537D01*
X165127287Y-85103748D01*
X164899552Y-84876013D01*
X164899533Y-84876000D01*
X164899552Y-84875987D01*
X165127287Y-84648252D01*
X165306218Y-84380463D01*
X165373407Y-84218254D01*
X165622837Y-84384918D01*
X165920388Y-84508168D01*
X166236267Y-84571000D01*
X166558333Y-84571000D01*
X166874212Y-84508168D01*
X167171763Y-84384918D01*
X167439552Y-84205987D01*
X167667287Y-83978252D01*
X167772359Y-83821000D01*
X171499228Y-83821000D01*
X171499228Y-84136000D01*
X171511488Y-84260482D01*
X171547798Y-84380180D01*
X171606763Y-84490494D01*
X171686115Y-84587185D01*
X171782806Y-84666537D01*
X171893120Y-84725502D01*
X172012818Y-84761812D01*
X172137300Y-84774072D01*
X174537300Y-84774072D01*
X174661782Y-84761812D01*
X174781480Y-84725502D01*
X174891794Y-84666537D01*
X174988485Y-84587185D01*
X175067837Y-84490494D01*
X175126802Y-84380180D01*
X175163112Y-84260482D01*
X175175372Y-84136000D01*
X175175372Y-81736000D01*
X175163112Y-81611518D01*
X175126802Y-81491820D01*
X175067837Y-81381506D01*
X174988485Y-81284815D01*
X174891794Y-81205463D01*
X174781480Y-81146498D01*
X174661782Y-81110188D01*
X174537300Y-81097928D01*
X174120138Y-81097928D01*
X174206499Y-81062156D01*
X174507044Y-80861338D01*
X174762638Y-80605744D01*
X174963456Y-80305199D01*
X175101782Y-79971250D01*
X175172300Y-79616732D01*
X175172300Y-79255268D01*
X175101782Y-78900750D01*
X174963456Y-78566801D01*
X174762638Y-78266256D01*
X174507044Y-78010662D01*
X174206499Y-77809844D01*
X173907513Y-77686000D01*
X174206499Y-77562156D01*
X174507044Y-77361338D01*
X174762638Y-77105744D01*
X174963456Y-76805199D01*
X175101782Y-76471250D01*
X175172300Y-76116732D01*
X175172300Y-75755268D01*
X175101782Y-75400750D01*
X174963456Y-75066801D01*
X174762638Y-74766256D01*
X174507044Y-74510662D01*
X174206499Y-74309844D01*
X173872550Y-74171518D01*
X173518032Y-74101000D01*
X173156568Y-74101000D01*
X172802050Y-74171518D01*
X172468101Y-74309844D01*
X172167556Y-74510662D01*
X171911962Y-74766256D01*
X171721702Y-75051000D01*
X167772359Y-75051000D01*
X167667287Y-74893748D01*
X167439552Y-74666013D01*
X167171763Y-74487082D01*
X166874212Y-74363832D01*
X166558333Y-74301000D01*
X166236267Y-74301000D01*
X165920388Y-74363832D01*
X165622837Y-74487082D01*
X165355048Y-74666013D01*
X165127313Y-74893748D01*
X165020394Y-75053764D01*
X165010775Y-75039368D01*
X164803932Y-74832525D01*
X164742300Y-74791344D01*
X164742300Y-74640656D01*
X164803932Y-74599475D01*
X165010775Y-74392632D01*
X165173290Y-74149411D01*
X165285232Y-73879158D01*
X165342300Y-73592260D01*
X165342300Y-73299740D01*
X165285232Y-73012842D01*
X165173290Y-72742589D01*
X165010775Y-72499368D01*
X164803932Y-72292525D01*
X164742300Y-72251344D01*
X164742300Y-72100656D01*
X164803932Y-72059475D01*
X164822357Y-72041050D01*
X167981855Y-72041050D01*
X168077558Y-72305399D01*
X168367087Y-72446238D01*
X168678529Y-72527885D01*
X168999915Y-72547205D01*
X169318895Y-72503454D01*
X169623211Y-72398314D01*
X169797042Y-72305399D01*
X169892745Y-72041050D01*
X168937300Y-71085605D01*
X167981855Y-72041050D01*
X164822357Y-72041050D01*
X165010775Y-71852632D01*
X165173290Y-71609411D01*
X165285232Y-71339158D01*
X165342300Y-71052260D01*
X165342300Y-70968615D01*
X167296095Y-70968615D01*
X167339846Y-71287595D01*
X167444986Y-71591911D01*
X167537901Y-71765742D01*
X167802250Y-71861445D01*
X168757695Y-70906000D01*
X169116905Y-70906000D01*
X170072350Y-71861445D01*
X170336699Y-71765742D01*
X170477538Y-71476213D01*
X170559185Y-71164771D01*
X170578505Y-70843385D01*
X170534754Y-70524405D01*
X170429614Y-70220089D01*
X170336699Y-70046258D01*
X170072350Y-69950555D01*
X169116905Y-70906000D01*
X168757695Y-70906000D01*
X167802250Y-69950555D01*
X167537901Y-70046258D01*
X167397062Y-70335787D01*
X167315415Y-70647229D01*
X167296095Y-70968615D01*
X165342300Y-70968615D01*
X165342300Y-70759740D01*
X165285232Y-70472842D01*
X165173290Y-70202589D01*
X165010775Y-69959368D01*
X164803932Y-69752525D01*
X164742300Y-69711344D01*
X164742300Y-69560656D01*
X164803932Y-69519475D01*
X164822357Y-69501050D01*
X167981855Y-69501050D01*
X168030711Y-69636000D01*
X167981855Y-69770950D01*
X168937300Y-70726395D01*
X169892745Y-69770950D01*
X169843889Y-69636000D01*
X169892745Y-69501050D01*
X169817416Y-69425721D01*
X173702300Y-69425721D01*
X173702300Y-69846279D01*
X173784347Y-70258756D01*
X173945288Y-70647302D01*
X174178937Y-70996983D01*
X174476317Y-71294363D01*
X174825998Y-71528012D01*
X175214544Y-71688953D01*
X175627021Y-71771000D01*
X176047579Y-71771000D01*
X176460056Y-71688953D01*
X176848602Y-71528012D01*
X177198283Y-71294363D01*
X177495663Y-70996983D01*
X177729312Y-70647302D01*
X177890253Y-70258756D01*
X177972300Y-69846279D01*
X177972300Y-69425721D01*
X177890253Y-69013244D01*
X177729312Y-68624698D01*
X177495663Y-68275017D01*
X177198283Y-67977637D01*
X176848602Y-67743988D01*
X176460056Y-67583047D01*
X176047579Y-67501000D01*
X175627021Y-67501000D01*
X175214544Y-67583047D01*
X174825998Y-67743988D01*
X174476317Y-67977637D01*
X174178937Y-68275017D01*
X173945288Y-68624698D01*
X173784347Y-69013244D01*
X173702300Y-69425721D01*
X169817416Y-69425721D01*
X168937300Y-68545605D01*
X167981855Y-69501050D01*
X164822357Y-69501050D01*
X165010775Y-69312632D01*
X165173290Y-69069411D01*
X165285232Y-68799158D01*
X165342300Y-68512260D01*
X165342300Y-68428615D01*
X167296095Y-68428615D01*
X167339846Y-68747595D01*
X167444986Y-69051911D01*
X167537901Y-69225742D01*
X167802250Y-69321445D01*
X168757695Y-68366000D01*
X169116905Y-68366000D01*
X170072350Y-69321445D01*
X170336699Y-69225742D01*
X170477538Y-68936213D01*
X170559185Y-68624771D01*
X170578505Y-68303385D01*
X170534754Y-67984405D01*
X170429614Y-67680089D01*
X170336699Y-67506258D01*
X170072350Y-67410555D01*
X169116905Y-68366000D01*
X168757695Y-68366000D01*
X167802250Y-67410555D01*
X167537901Y-67506258D01*
X167397062Y-67795787D01*
X167315415Y-68107229D01*
X167296095Y-68428615D01*
X165342300Y-68428615D01*
X165342300Y-68219740D01*
X165285232Y-67932842D01*
X165173290Y-67662589D01*
X165010775Y-67419368D01*
X164822357Y-67230950D01*
X167981855Y-67230950D01*
X168937300Y-68186395D01*
X169892745Y-67230950D01*
X169797042Y-66966601D01*
X169507513Y-66825762D01*
X169196071Y-66744115D01*
X168874685Y-66724795D01*
X168555705Y-66768546D01*
X168251389Y-66873686D01*
X168077558Y-66966601D01*
X167981855Y-67230950D01*
X164822357Y-67230950D01*
X164803932Y-67212525D01*
X164764536Y-67186202D01*
X164899552Y-67095987D01*
X165127287Y-66868252D01*
X165306218Y-66600463D01*
X165429468Y-66302912D01*
X165492300Y-65987033D01*
X165492300Y-65664967D01*
X165429468Y-65349088D01*
X165306218Y-65051537D01*
X165127287Y-64783748D01*
X164899552Y-64556013D01*
X164899533Y-64556000D01*
X164899552Y-64555987D01*
X165107275Y-64348264D01*
X165127313Y-64378252D01*
X165355048Y-64605987D01*
X165622837Y-64784918D01*
X165920388Y-64908168D01*
X166236267Y-64971000D01*
X166558333Y-64971000D01*
X166874212Y-64908168D01*
X167171763Y-64784918D01*
X167439552Y-64605987D01*
X167667287Y-64378252D01*
X167772359Y-64221000D01*
X171499228Y-64221000D01*
X171499228Y-64536000D01*
X171511488Y-64660482D01*
X171547798Y-64780180D01*
X171606763Y-64890494D01*
X171686115Y-64987185D01*
X171782806Y-65066537D01*
X171893120Y-65125502D01*
X172012818Y-65161812D01*
X172137300Y-65174072D01*
X174537300Y-65174072D01*
X174661782Y-65161812D01*
X174781480Y-65125502D01*
X174891794Y-65066537D01*
X174988485Y-64987185D01*
X175067837Y-64890494D01*
X175126802Y-64780180D01*
X175163112Y-64660482D01*
X175175372Y-64536000D01*
X175175372Y-62136000D01*
X175163112Y-62011518D01*
X175126802Y-61891820D01*
X175067837Y-61781506D01*
X174988485Y-61684815D01*
X174891794Y-61605463D01*
X174781480Y-61546498D01*
X174661782Y-61510188D01*
X174537300Y-61497928D01*
X174120138Y-61497928D01*
X174206499Y-61462156D01*
X174507044Y-61261338D01*
X174762638Y-61005744D01*
X174963456Y-60705199D01*
X175101782Y-60371250D01*
X175172300Y-60016732D01*
X175172300Y-59655268D01*
X175101782Y-59300750D01*
X174963456Y-58966801D01*
X174762638Y-58666256D01*
X174507044Y-58410662D01*
X174206499Y-58209844D01*
X173907513Y-58086000D01*
X174206499Y-57962156D01*
X174507044Y-57761338D01*
X174762638Y-57505744D01*
X174963456Y-57205199D01*
X175101782Y-56871250D01*
X175172300Y-56516732D01*
X175172300Y-56155268D01*
X175101782Y-55800750D01*
X174963456Y-55466801D01*
X174762638Y-55166256D01*
X174507044Y-54910662D01*
X174206499Y-54709844D01*
X173872550Y-54571518D01*
X173518032Y-54501000D01*
X173156568Y-54501000D01*
X172802050Y-54571518D01*
X172468101Y-54709844D01*
X172167556Y-54910662D01*
X171911962Y-55166256D01*
X171721702Y-55451000D01*
X167772359Y-55451000D01*
X167667287Y-55293748D01*
X167439552Y-55066013D01*
X167171763Y-54887082D01*
X166874212Y-54763832D01*
X166558333Y-54701000D01*
X166236267Y-54701000D01*
X165920388Y-54763832D01*
X165622837Y-54887082D01*
X165373407Y-55053746D01*
X165306218Y-54891537D01*
X165127287Y-54623748D01*
X164899552Y-54396013D01*
X164899533Y-54396000D01*
X164899552Y-54395987D01*
X165127287Y-54168252D01*
X165306218Y-53900463D01*
X165429468Y-53602912D01*
X165492300Y-53287033D01*
X165492300Y-52964967D01*
X165429468Y-52649088D01*
X165306218Y-52351537D01*
X165127287Y-52083748D01*
X164899552Y-51856013D01*
X164764536Y-51765798D01*
X164803932Y-51739475D01*
X165010775Y-51532632D01*
X165173290Y-51289411D01*
X165285232Y-51019158D01*
X165342300Y-50732260D01*
X165342300Y-50439740D01*
X165285232Y-50152842D01*
X165173290Y-49882589D01*
X165010775Y-49639368D01*
X164803932Y-49432525D01*
X164793749Y-49425721D01*
X166702300Y-49425721D01*
X166702300Y-49846279D01*
X166784347Y-50258756D01*
X166945288Y-50647302D01*
X167178937Y-50996983D01*
X167476317Y-51294363D01*
X167825998Y-51528012D01*
X168214544Y-51688953D01*
X168627021Y-51771000D01*
X169047579Y-51771000D01*
X169460056Y-51688953D01*
X169848602Y-51528012D01*
X170198283Y-51294363D01*
X170495663Y-50996983D01*
X170729312Y-50647302D01*
X170890253Y-50258756D01*
X170972300Y-49846279D01*
X170972300Y-49425721D01*
X170890253Y-49013244D01*
X170729312Y-48624698D01*
X170495663Y-48275017D01*
X170198283Y-47977637D01*
X169848602Y-47743988D01*
X169460056Y-47583047D01*
X169047579Y-47501000D01*
X168627021Y-47501000D01*
X168214544Y-47583047D01*
X167825998Y-47743988D01*
X167476317Y-47977637D01*
X167178937Y-48275017D01*
X166945288Y-48624698D01*
X166784347Y-49013244D01*
X166702300Y-49425721D01*
X164793749Y-49425721D01*
X164791200Y-49424018D01*
X164791200Y-49388386D01*
X164899552Y-49315987D01*
X165127287Y-49088252D01*
X165306218Y-48820463D01*
X165429468Y-48522912D01*
X165492300Y-48207033D01*
X165492300Y-47884967D01*
X165429468Y-47569088D01*
X165306218Y-47271537D01*
X165127287Y-47003748D01*
X164899552Y-46776013D01*
X164631763Y-46597082D01*
X164334212Y-46473832D01*
X164018333Y-46411000D01*
X163696267Y-46411000D01*
X163380388Y-46473832D01*
X163082837Y-46597082D01*
X162815048Y-46776013D01*
X162587313Y-47003748D01*
X162587300Y-47003767D01*
X162587287Y-47003748D01*
X162359552Y-46776013D01*
X162091763Y-46597082D01*
X161794212Y-46473832D01*
X161478333Y-46411000D01*
X161156267Y-46411000D01*
X160840388Y-46473832D01*
X160542837Y-46597082D01*
X160275048Y-46776013D01*
X160047313Y-47003748D01*
X160047300Y-47003767D01*
X160047287Y-47003748D01*
X159819552Y-46776013D01*
X159551763Y-46597082D01*
X159254212Y-46473832D01*
X158938333Y-46411000D01*
X158616267Y-46411000D01*
X158300388Y-46473832D01*
X158002837Y-46597082D01*
X157735048Y-46776013D01*
X157507313Y-47003748D01*
X157507300Y-47003767D01*
X157507287Y-47003748D01*
X157279552Y-46776013D01*
X157011763Y-46597082D01*
X156714212Y-46473832D01*
X156398333Y-46411000D01*
X156076267Y-46411000D01*
X155760388Y-46473832D01*
X155462837Y-46597082D01*
X155195048Y-46776013D01*
X154967313Y-47003748D01*
X154967300Y-47003767D01*
X154967287Y-47003748D01*
X154739552Y-46776013D01*
X154471763Y-46597082D01*
X154174212Y-46473832D01*
X153858333Y-46411000D01*
X153536267Y-46411000D01*
X153220388Y-46473832D01*
X152922837Y-46597082D01*
X152655048Y-46776013D01*
X152427313Y-47003748D01*
X152427300Y-47003767D01*
X152427287Y-47003748D01*
X152199552Y-46776013D01*
X151931763Y-46597082D01*
X151634212Y-46473832D01*
X151318333Y-46411000D01*
X150996267Y-46411000D01*
X150680388Y-46473832D01*
X150382837Y-46597082D01*
X150115048Y-46776013D01*
X149887313Y-47003748D01*
X149887300Y-47003767D01*
X149887287Y-47003748D01*
X149659552Y-46776013D01*
X149391763Y-46597082D01*
X149094212Y-46473832D01*
X148778333Y-46411000D01*
X148456267Y-46411000D01*
X148140388Y-46473832D01*
X147842837Y-46597082D01*
X147575048Y-46776013D01*
X147347313Y-47003748D01*
X147347300Y-47003767D01*
X147347287Y-47003748D01*
X147119552Y-46776013D01*
X146851763Y-46597082D01*
X146554212Y-46473832D01*
X146238333Y-46411000D01*
X145916267Y-46411000D01*
X145600388Y-46473832D01*
X145302837Y-46597082D01*
X145035048Y-46776013D01*
X144807313Y-47003748D01*
X144807300Y-47003767D01*
X144807287Y-47003748D01*
X144579552Y-46776013D01*
X144311763Y-46597082D01*
X144014212Y-46473832D01*
X143698333Y-46411000D01*
X143376267Y-46411000D01*
X143060388Y-46473832D01*
X142762837Y-46597082D01*
X142495048Y-46776013D01*
X142267313Y-47003748D01*
X142267300Y-47003767D01*
X142267287Y-47003748D01*
X142039552Y-46776013D01*
X141771763Y-46597082D01*
X141474212Y-46473832D01*
X141158333Y-46411000D01*
X140836267Y-46411000D01*
X140520388Y-46473832D01*
X140222837Y-46597082D01*
X139955048Y-46776013D01*
X139727313Y-47003748D01*
X139727300Y-47003767D01*
X139727287Y-47003748D01*
X139499552Y-46776013D01*
X139231763Y-46597082D01*
X138934212Y-46473832D01*
X138618333Y-46411000D01*
X138296267Y-46411000D01*
X137980388Y-46473832D01*
X137682837Y-46597082D01*
X137415048Y-46776013D01*
X137187313Y-47003748D01*
X137187300Y-47003767D01*
X137187287Y-47003748D01*
X136959552Y-46776013D01*
X136691763Y-46597082D01*
X136394212Y-46473832D01*
X136078333Y-46411000D01*
X135756267Y-46411000D01*
X135440388Y-46473832D01*
X135142837Y-46597082D01*
X134875048Y-46776013D01*
X134647313Y-47003748D01*
X134647300Y-47003767D01*
X134647287Y-47003748D01*
X134419552Y-46776013D01*
X134151763Y-46597082D01*
X133854212Y-46473832D01*
X133538333Y-46411000D01*
X133216267Y-46411000D01*
X132900388Y-46473832D01*
X132602837Y-46597082D01*
X132335048Y-46776013D01*
X132107313Y-47003748D01*
X132107300Y-47003767D01*
X132107287Y-47003748D01*
X131879552Y-46776013D01*
X131611763Y-46597082D01*
X131314212Y-46473832D01*
X130998333Y-46411000D01*
X130676267Y-46411000D01*
X130360388Y-46473832D01*
X130062837Y-46597082D01*
X129795048Y-46776013D01*
X129567313Y-47003748D01*
X129567300Y-47003767D01*
X129567287Y-47003748D01*
X129339552Y-46776013D01*
X129071763Y-46597082D01*
X128774212Y-46473832D01*
X128458333Y-46411000D01*
X128136267Y-46411000D01*
X127820388Y-46473832D01*
X127522837Y-46597082D01*
X127255048Y-46776013D01*
X127027313Y-47003748D01*
X127027300Y-47003767D01*
X127027287Y-47003748D01*
X126799552Y-46776013D01*
X126531763Y-46597082D01*
X126234212Y-46473832D01*
X125918333Y-46411000D01*
X125596267Y-46411000D01*
X125280388Y-46473832D01*
X124982837Y-46597082D01*
X124715048Y-46776013D01*
X124487313Y-47003748D01*
X124487300Y-47003767D01*
X124487287Y-47003748D01*
X124259552Y-46776013D01*
X123991763Y-46597082D01*
X123694212Y-46473832D01*
X123378333Y-46411000D01*
X123056267Y-46411000D01*
X122740388Y-46473832D01*
X122442837Y-46597082D01*
X122175048Y-46776013D01*
X121947313Y-47003748D01*
X121947300Y-47003767D01*
X121947287Y-47003748D01*
X121719552Y-46776013D01*
X121451763Y-46597082D01*
X121154212Y-46473832D01*
X120838333Y-46411000D01*
X120516267Y-46411000D01*
X120200388Y-46473832D01*
X119902837Y-46597082D01*
X119635048Y-46776013D01*
X119407313Y-47003748D01*
X119407300Y-47003767D01*
X119407287Y-47003748D01*
X119179552Y-46776013D01*
X118911763Y-46597082D01*
X118614212Y-46473832D01*
X118298333Y-46411000D01*
X117976267Y-46411000D01*
X117660388Y-46473832D01*
X117362837Y-46597082D01*
X117095048Y-46776013D01*
X116867313Y-47003748D01*
X116867300Y-47003767D01*
X116867287Y-47003748D01*
X116639552Y-46776013D01*
X116371763Y-46597082D01*
X116074212Y-46473832D01*
X115758333Y-46411000D01*
X115436267Y-46411000D01*
X115120388Y-46473832D01*
X114822837Y-46597082D01*
X114555048Y-46776013D01*
X114327313Y-47003748D01*
X114148382Y-47271537D01*
X114025132Y-47569088D01*
X113962300Y-47884967D01*
X112926879Y-47884967D01*
X113128927Y-47397181D01*
X113160931Y-47298684D01*
X113399038Y-46306898D01*
X113415239Y-46204607D01*
X113447397Y-45796000D01*
X174227203Y-45796000D01*
X174259361Y-46204607D01*
G37*
X174259361Y-46204607D02*
X174275562Y-46306898D01*
X174513669Y-47298684D01*
X174545672Y-47397181D01*
X174935997Y-48339509D01*
X174983015Y-48431787D01*
X175515947Y-49301453D01*
X175542129Y-49337489D01*
X175576822Y-49385240D01*
X176239238Y-50160830D01*
X176312470Y-50234062D01*
X177088060Y-50896478D01*
X177171847Y-50957353D01*
X178041513Y-51490284D01*
X178133791Y-51537303D01*
X179076119Y-51927627D01*
X179174616Y-51959631D01*
X180166402Y-52197738D01*
X180268693Y-52213939D01*
X180677300Y-52246097D01*
X180677301Y-87025903D01*
X180268693Y-87058061D01*
X180166402Y-87074262D01*
X179174616Y-87312369D01*
X179076119Y-87344373D01*
X178133791Y-87734697D01*
X178042918Y-87781000D01*
X178041513Y-87781716D01*
X177171847Y-88314647D01*
X177088060Y-88375522D01*
X176312470Y-89037938D01*
X176239238Y-89111170D01*
X175576822Y-89886760D01*
X175546385Y-89928654D01*
X175515947Y-89970547D01*
X174983015Y-90840213D01*
X174963692Y-90878138D01*
X174935997Y-90932491D01*
X174545672Y-91874819D01*
X174516237Y-91965411D01*
X174513669Y-91973316D01*
X174275562Y-92965102D01*
X174259361Y-93067393D01*
X174227203Y-93476000D01*
X113447397Y-93476000D01*
X113415239Y-93067393D01*
X113399038Y-92965102D01*
X113160931Y-91973316D01*
X113128927Y-91874819D01*
X112738603Y-90932491D01*
X112691584Y-90840213D01*
X112158653Y-89970547D01*
X112097778Y-89886760D01*
X111704014Y-89425721D01*
X116702300Y-89425721D01*
X116702300Y-89846279D01*
X116784347Y-90258756D01*
X116945288Y-90647302D01*
X117178937Y-90996983D01*
X117476317Y-91294363D01*
X117825998Y-91528012D01*
X118214544Y-91688953D01*
X118627021Y-91771000D01*
X119047579Y-91771000D01*
X119460056Y-91688953D01*
X119848602Y-91528012D01*
X120198283Y-91294363D01*
X120495663Y-90996983D01*
X120729312Y-90647302D01*
X120890253Y-90258756D01*
X120972300Y-89846279D01*
X120972300Y-89425721D01*
X120890253Y-89013244D01*
X120729312Y-88624698D01*
X120495663Y-88275017D01*
X120198283Y-87977637D01*
X119848602Y-87743988D01*
X119460056Y-87583047D01*
X119047579Y-87501000D01*
X118627021Y-87501000D01*
X118214544Y-87583047D01*
X117825998Y-87743988D01*
X117476317Y-87977637D01*
X117178937Y-88275017D01*
X116945288Y-88624698D01*
X116784347Y-89013244D01*
X116702300Y-89425721D01*
X111704014Y-89425721D01*
X111435362Y-89111170D01*
X111362130Y-89037938D01*
X110586540Y-88375522D01*
X110518084Y-88325786D01*
X110502753Y-88314647D01*
X109633087Y-87781715D01*
X109586948Y-87758207D01*
X109540809Y-87734697D01*
X108598481Y-87344372D01*
X108499984Y-87312369D01*
X107508198Y-87074262D01*
X107405907Y-87058061D01*
X106997300Y-87025903D01*
X106997300Y-69425721D01*
X109702300Y-69425721D01*
X109702300Y-69846279D01*
X109784347Y-70258756D01*
X109945288Y-70647302D01*
X110178937Y-70996983D01*
X110476317Y-71294363D01*
X110825998Y-71528012D01*
X111214544Y-71688953D01*
X111627021Y-71771000D01*
X112047579Y-71771000D01*
X112460056Y-71688953D01*
X112848602Y-71528012D01*
X113198283Y-71294363D01*
X113495663Y-70996983D01*
X113729312Y-70647302D01*
X113890253Y-70258756D01*
X113972300Y-69846279D01*
X113972300Y-69425721D01*
X113890253Y-69013244D01*
X113729312Y-68624698D01*
X113495663Y-68275017D01*
X113198283Y-67977637D01*
X112848602Y-67743988D01*
X112460056Y-67583047D01*
X112047579Y-67501000D01*
X111627021Y-67501000D01*
X111214544Y-67583047D01*
X110825998Y-67743988D01*
X110476317Y-67977637D01*
X110178937Y-68275017D01*
X109945288Y-68624698D01*
X109784347Y-69013244D01*
X109702300Y-69425721D01*
X106997300Y-69425721D01*
X106997300Y-52246097D01*
X107405907Y-52213939D01*
X107508198Y-52197738D01*
X108499984Y-51959631D01*
X108502415Y-51958841D01*
X108598481Y-51927628D01*
X109540809Y-51537303D01*
X109633087Y-51490285D01*
X110502753Y-50957353D01*
X110544646Y-50926916D01*
X110586540Y-50896478D01*
X111362130Y-50234062D01*
X111435363Y-50160829D01*
X112097778Y-49385240D01*
X112158653Y-49301453D01*
X112158654Y-49301452D01*
X112691584Y-48431787D01*
X112738603Y-48339509D01*
X112926879Y-47884967D01*
X113962300Y-47884967D01*
X113962300Y-48207033D01*
X114025132Y-48522912D01*
X114148382Y-48820463D01*
X114327313Y-49088252D01*
X114426509Y-49187448D01*
X114392806Y-49205463D01*
X114296115Y-49284815D01*
X114216763Y-49381506D01*
X114157798Y-49491820D01*
X114121488Y-49611518D01*
X114109228Y-49736000D01*
X114109228Y-51436000D01*
X114121488Y-51560482D01*
X114157798Y-51680180D01*
X114216763Y-51790494D01*
X114296115Y-51887185D01*
X114392806Y-51966537D01*
X114426509Y-51984552D01*
X114327313Y-52083748D01*
X114148382Y-52351537D01*
X114025132Y-52649088D01*
X113962300Y-52964967D01*
X113962300Y-53287033D01*
X114025132Y-53602912D01*
X114148382Y-53900463D01*
X114327313Y-54168252D01*
X114555048Y-54395987D01*
X114555067Y-54396000D01*
X114555048Y-54396013D01*
X114327313Y-54623748D01*
X114148382Y-54891537D01*
X114025132Y-55189088D01*
X113962300Y-55504967D01*
X113962300Y-55827033D01*
X114025132Y-56142912D01*
X114148382Y-56440463D01*
X114327313Y-56708252D01*
X114555048Y-56935987D01*
X114555067Y-56936000D01*
X114555048Y-56936013D01*
X114327313Y-57163748D01*
X114148382Y-57431537D01*
X114025132Y-57729088D01*
X113962300Y-58044967D01*
X113962300Y-58367033D01*
X114025132Y-58682912D01*
X114148382Y-58980463D01*
X114327313Y-59248252D01*
X114555048Y-59475987D01*
X114555067Y-59476000D01*
X114555048Y-59476013D01*
X114327313Y-59703748D01*
X114148382Y-59971537D01*
X114025132Y-60269088D01*
X113962300Y-60584967D01*
X113962300Y-60907033D01*
X114025132Y-61222912D01*
X114148382Y-61520463D01*
X114327313Y-61788252D01*
X114555048Y-62015987D01*
X114555067Y-62016000D01*
X114555048Y-62016013D01*
X114327313Y-62243748D01*
X114148382Y-62511537D01*
X114025132Y-62809088D01*
X113962300Y-63124967D01*
X113962300Y-63447033D01*
X114025132Y-63762912D01*
X114148382Y-64060463D01*
X114327313Y-64328252D01*
X114555048Y-64555987D01*
X114555067Y-64556000D01*
X114555048Y-64556013D01*
X114327313Y-64783748D01*
X114148382Y-65051537D01*
X114025132Y-65349088D01*
X113962300Y-65664967D01*
X113962300Y-65987033D01*
X114025132Y-66302912D01*
X114148382Y-66600463D01*
X114327313Y-66868252D01*
X114426509Y-66967448D01*
X114392806Y-66985463D01*
X114296115Y-67064815D01*
X114216763Y-67161506D01*
X114157798Y-67271820D01*
X114121488Y-67391518D01*
X114109228Y-67516000D01*
X114109228Y-69216000D01*
X114121488Y-69340482D01*
X114157798Y-69460180D01*
X114216763Y-69570494D01*
X114270522Y-69636000D01*
X114216763Y-69701506D01*
X114157798Y-69811820D01*
X114121488Y-69931518D01*
X114109228Y-70056000D01*
X114109228Y-71756000D01*
X114121488Y-71880482D01*
X114157798Y-72000180D01*
X114216763Y-72110494D01*
X114270522Y-72176000D01*
X114216763Y-72241506D01*
X114157798Y-72351820D01*
X114121488Y-72471518D01*
X114109228Y-72596000D01*
X114109228Y-74296000D01*
X114121488Y-74420482D01*
X114157798Y-74540180D01*
X114216763Y-74650494D01*
X114270522Y-74716000D01*
X114216763Y-74781506D01*
X114157798Y-74891820D01*
X114121488Y-75011518D01*
X114109228Y-75136000D01*
X114109228Y-76836000D01*
X114121488Y-76960482D01*
X114157798Y-77080180D01*
X114216763Y-77190494D01*
X114270522Y-77256000D01*
X114216763Y-77321506D01*
X114157798Y-77431820D01*
X114121488Y-77551518D01*
X114109228Y-77676000D01*
X114109228Y-79376000D01*
X114121488Y-79500482D01*
X114157798Y-79620180D01*
X114216763Y-79730494D01*
X114296115Y-79827185D01*
X114392806Y-79906537D01*
X114426509Y-79924552D01*
X114327313Y-80023748D01*
X114148382Y-80291537D01*
X114025132Y-80589088D01*
X113962300Y-80904967D01*
X113962300Y-81227033D01*
X114025132Y-81542912D01*
X114148382Y-81840463D01*
X114327313Y-82108252D01*
X114555048Y-82335987D01*
X114555067Y-82336000D01*
X114555048Y-82336013D01*
X114327313Y-82563748D01*
X114148382Y-82831537D01*
X114025132Y-83129088D01*
X113962300Y-83444967D01*
X113962300Y-83767033D01*
X114025132Y-84082912D01*
X114148382Y-84380463D01*
X114327313Y-84648252D01*
X114555048Y-84875987D01*
X114822837Y-85054918D01*
X115120388Y-85178168D01*
X115436267Y-85241000D01*
X115758333Y-85241000D01*
X116074212Y-85178168D01*
X116371763Y-85054918D01*
X116639552Y-84875987D01*
X116867287Y-84648252D01*
X116867300Y-84648233D01*
X116867313Y-84648252D01*
X117095048Y-84875987D01*
X117362837Y-85054918D01*
X117660388Y-85178168D01*
X117976267Y-85241000D01*
X118298333Y-85241000D01*
X118614212Y-85178168D01*
X118911763Y-85054918D01*
X119179552Y-84875987D01*
X119407287Y-84648252D01*
X119407300Y-84648233D01*
X119407313Y-84648252D01*
X119635048Y-84875987D01*
X119902837Y-85054918D01*
X120200388Y-85178168D01*
X120516267Y-85241000D01*
X120838333Y-85241000D01*
X121154212Y-85178168D01*
X121451763Y-85054918D01*
X121719552Y-84875987D01*
X121947287Y-84648252D01*
X121947300Y-84648233D01*
X121947313Y-84648252D01*
X122175048Y-84875987D01*
X122442837Y-85054918D01*
X122740388Y-85178168D01*
X123056267Y-85241000D01*
X123378333Y-85241000D01*
X123694212Y-85178168D01*
X123991763Y-85054918D01*
X124259552Y-84875987D01*
X124487287Y-84648252D01*
X124487300Y-84648233D01*
X124487313Y-84648252D01*
X124715048Y-84875987D01*
X124715067Y-84876000D01*
X124715048Y-84876013D01*
X124487313Y-85103748D01*
X124308382Y-85371537D01*
X124185132Y-85669088D01*
X124122300Y-85984967D01*
X124122300Y-86307033D01*
X124185132Y-86622912D01*
X124308382Y-86920463D01*
X124487313Y-87188252D01*
X124715048Y-87415987D01*
X124715067Y-87416000D01*
X124715048Y-87416013D01*
X124487313Y-87643748D01*
X124308382Y-87911537D01*
X124185132Y-88209088D01*
X124122300Y-88524967D01*
X124122300Y-88847033D01*
X124185132Y-89162912D01*
X124308382Y-89460463D01*
X124487313Y-89728252D01*
X124715048Y-89955987D01*
X124715067Y-89956000D01*
X124715048Y-89956013D01*
X124487313Y-90183748D01*
X124308382Y-90451537D01*
X124185132Y-90749088D01*
X124122300Y-91064967D01*
X124122300Y-91387033D01*
X124185132Y-91702912D01*
X124308382Y-92000463D01*
X124487313Y-92268252D01*
X124715048Y-92495987D01*
X124982837Y-92674918D01*
X125280388Y-92798168D01*
X125596267Y-92861000D01*
X125918333Y-92861000D01*
X126234212Y-92798168D01*
X126531763Y-92674918D01*
X126799552Y-92495987D01*
X127027287Y-92268252D01*
X127027300Y-92268233D01*
X127027313Y-92268252D01*
X127255048Y-92495987D01*
X127522837Y-92674918D01*
X127820388Y-92798168D01*
X128136267Y-92861000D01*
X128458333Y-92861000D01*
X128774212Y-92798168D01*
X129071763Y-92674918D01*
X129339552Y-92495987D01*
X129567287Y-92268252D01*
X129567300Y-92268233D01*
X129567313Y-92268252D01*
X129795048Y-92495987D01*
X130062837Y-92674918D01*
X130360388Y-92798168D01*
X130676267Y-92861000D01*
X130998333Y-92861000D01*
X131314212Y-92798168D01*
X131611763Y-92674918D01*
X131879552Y-92495987D01*
X132107287Y-92268252D01*
X132107300Y-92268233D01*
X132107313Y-92268252D01*
X132335048Y-92495987D01*
X132602837Y-92674918D01*
X132900388Y-92798168D01*
X133216267Y-92861000D01*
X133538333Y-92861000D01*
X133854212Y-92798168D01*
X134151763Y-92674918D01*
X134419552Y-92495987D01*
X134647287Y-92268252D01*
X134647300Y-92268233D01*
X134647313Y-92268252D01*
X134875048Y-92495987D01*
X135142837Y-92674918D01*
X135440388Y-92798168D01*
X135756267Y-92861000D01*
X136078333Y-92861000D01*
X136394212Y-92798168D01*
X136691763Y-92674918D01*
X136959552Y-92495987D01*
X137187287Y-92268252D01*
X137187300Y-92268233D01*
X137187313Y-92268252D01*
X137415048Y-92495987D01*
X137682837Y-92674918D01*
X137980388Y-92798168D01*
X138296267Y-92861000D01*
X138618333Y-92861000D01*
X138934212Y-92798168D01*
X139231763Y-92674918D01*
X139499552Y-92495987D01*
X139727287Y-92268252D01*
X139727300Y-92268233D01*
X139727313Y-92268252D01*
X139955048Y-92495987D01*
X140222837Y-92674918D01*
X140520388Y-92798168D01*
X140836267Y-92861000D01*
X141158333Y-92861000D01*
X141474212Y-92798168D01*
X141771763Y-92674918D01*
X142039552Y-92495987D01*
X142267287Y-92268252D01*
X142267300Y-92268233D01*
X142267313Y-92268252D01*
X142495048Y-92495987D01*
X142762837Y-92674918D01*
X143060388Y-92798168D01*
X143376267Y-92861000D01*
X143698333Y-92861000D01*
X144014212Y-92798168D01*
X144311763Y-92674918D01*
X144579552Y-92495987D01*
X144807287Y-92268252D01*
X144807300Y-92268233D01*
X144807313Y-92268252D01*
X145035048Y-92495987D01*
X145302837Y-92674918D01*
X145600388Y-92798168D01*
X145916267Y-92861000D01*
X146238333Y-92861000D01*
X146554212Y-92798168D01*
X146851763Y-92674918D01*
X147119552Y-92495987D01*
X147347287Y-92268252D01*
X147347300Y-92268233D01*
X147347313Y-92268252D01*
X147575048Y-92495987D01*
X147842837Y-92674918D01*
X148140388Y-92798168D01*
X148456267Y-92861000D01*
X148778333Y-92861000D01*
X149094212Y-92798168D01*
X149391763Y-92674918D01*
X149659552Y-92495987D01*
X149887287Y-92268252D01*
X149887300Y-92268233D01*
X149887313Y-92268252D01*
X150115048Y-92495987D01*
X150382837Y-92674918D01*
X150680388Y-92798168D01*
X150996267Y-92861000D01*
X151318333Y-92861000D01*
X151634212Y-92798168D01*
X151931763Y-92674918D01*
X152199552Y-92495987D01*
X152427287Y-92268252D01*
X152427300Y-92268233D01*
X152427313Y-92268252D01*
X152655048Y-92495987D01*
X152922837Y-92674918D01*
X153220388Y-92798168D01*
X153536267Y-92861000D01*
X153858333Y-92861000D01*
X154174212Y-92798168D01*
X154471763Y-92674918D01*
X154739552Y-92495987D01*
X154967287Y-92268252D01*
X154967300Y-92268233D01*
X154967313Y-92268252D01*
X155195048Y-92495987D01*
X155462837Y-92674918D01*
X155760388Y-92798168D01*
X156076267Y-92861000D01*
X156398333Y-92861000D01*
X156714212Y-92798168D01*
X157011763Y-92674918D01*
X157279552Y-92495987D01*
X157507287Y-92268252D01*
X157507300Y-92268233D01*
X157507313Y-92268252D01*
X157735048Y-92495987D01*
X158002837Y-92674918D01*
X158300388Y-92798168D01*
X158616267Y-92861000D01*
X158938333Y-92861000D01*
X159254212Y-92798168D01*
X159551763Y-92674918D01*
X159819552Y-92495987D01*
X160047287Y-92268252D01*
X160047300Y-92268233D01*
X160047313Y-92268252D01*
X160275048Y-92495987D01*
X160542837Y-92674918D01*
X160840388Y-92798168D01*
X161156267Y-92861000D01*
X161478333Y-92861000D01*
X161794212Y-92798168D01*
X162091763Y-92674918D01*
X162359552Y-92495987D01*
X162587287Y-92268252D01*
X162587300Y-92268233D01*
X162587313Y-92268252D01*
X162815048Y-92495987D01*
X163082837Y-92674918D01*
X163380388Y-92798168D01*
X163696267Y-92861000D01*
X164018333Y-92861000D01*
X164334212Y-92798168D01*
X164631763Y-92674918D01*
X164899552Y-92495987D01*
X165127287Y-92268252D01*
X165306218Y-92000463D01*
X165429468Y-91702912D01*
X165492300Y-91387033D01*
X165492300Y-91064967D01*
X165429468Y-90749088D01*
X165306218Y-90451537D01*
X165127287Y-90183748D01*
X164899552Y-89956013D01*
X164899533Y-89956000D01*
X164899552Y-89955987D01*
X165127287Y-89728252D01*
X165306218Y-89460463D01*
X165320608Y-89425721D01*
X166702300Y-89425721D01*
X166702300Y-89846279D01*
X166784347Y-90258756D01*
X166945288Y-90647302D01*
X167178937Y-90996983D01*
X167476317Y-91294363D01*
X167825998Y-91528012D01*
X168214544Y-91688953D01*
X168627021Y-91771000D01*
X169047579Y-91771000D01*
X169460056Y-91688953D01*
X169848602Y-91528012D01*
X170198283Y-91294363D01*
X170495663Y-90996983D01*
X170729312Y-90647302D01*
X170890253Y-90258756D01*
X170972300Y-89846279D01*
X170972300Y-89425721D01*
X170890253Y-89013244D01*
X170729312Y-88624698D01*
X170495663Y-88275017D01*
X170198283Y-87977637D01*
X169848602Y-87743988D01*
X169460056Y-87583047D01*
X169047579Y-87501000D01*
X168627021Y-87501000D01*
X168214544Y-87583047D01*
X167825998Y-87743988D01*
X167476317Y-87977637D01*
X167178937Y-88275017D01*
X166945288Y-88624698D01*
X166784347Y-89013244D01*
X166702300Y-89425721D01*
X165320608Y-89425721D01*
X165429468Y-89162912D01*
X165492300Y-88847033D01*
X165492300Y-88524967D01*
X165429468Y-88209088D01*
X165306218Y-87911537D01*
X165127287Y-87643748D01*
X164899552Y-87416013D01*
X164899533Y-87416000D01*
X164899552Y-87415987D01*
X165127287Y-87188252D01*
X165306218Y-86920463D01*
X165429468Y-86622912D01*
X165492300Y-86307033D01*
X165492300Y-85984967D01*
X165429468Y-85669088D01*
X165306218Y-85371537D01*
X165127287Y-85103748D01*
X164899552Y-84876013D01*
X164899533Y-84876000D01*
X164899552Y-84875987D01*
X165127287Y-84648252D01*
X165306218Y-84380463D01*
X165373407Y-84218254D01*
X165622837Y-84384918D01*
X165920388Y-84508168D01*
X166236267Y-84571000D01*
X166558333Y-84571000D01*
X166874212Y-84508168D01*
X167171763Y-84384918D01*
X167439552Y-84205987D01*
X167667287Y-83978252D01*
X167772359Y-83821000D01*
X171499228Y-83821000D01*
X171499228Y-84136000D01*
X171511488Y-84260482D01*
X171547798Y-84380180D01*
X171606763Y-84490494D01*
X171686115Y-84587185D01*
X171782806Y-84666537D01*
X171893120Y-84725502D01*
X172012818Y-84761812D01*
X172137300Y-84774072D01*
X174537300Y-84774072D01*
X174661782Y-84761812D01*
X174781480Y-84725502D01*
X174891794Y-84666537D01*
X174988485Y-84587185D01*
X175067837Y-84490494D01*
X175126802Y-84380180D01*
X175163112Y-84260482D01*
X175175372Y-84136000D01*
X175175372Y-81736000D01*
X175163112Y-81611518D01*
X175126802Y-81491820D01*
X175067837Y-81381506D01*
X174988485Y-81284815D01*
X174891794Y-81205463D01*
X174781480Y-81146498D01*
X174661782Y-81110188D01*
X174537300Y-81097928D01*
X174120138Y-81097928D01*
X174206499Y-81062156D01*
X174507044Y-80861338D01*
X174762638Y-80605744D01*
X174963456Y-80305199D01*
X175101782Y-79971250D01*
X175172300Y-79616732D01*
X175172300Y-79255268D01*
X175101782Y-78900750D01*
X174963456Y-78566801D01*
X174762638Y-78266256D01*
X174507044Y-78010662D01*
X174206499Y-77809844D01*
X173907513Y-77686000D01*
X174206499Y-77562156D01*
X174507044Y-77361338D01*
X174762638Y-77105744D01*
X174963456Y-76805199D01*
X175101782Y-76471250D01*
X175172300Y-76116732D01*
X175172300Y-75755268D01*
X175101782Y-75400750D01*
X174963456Y-75066801D01*
X174762638Y-74766256D01*
X174507044Y-74510662D01*
X174206499Y-74309844D01*
X173872550Y-74171518D01*
X173518032Y-74101000D01*
X173156568Y-74101000D01*
X172802050Y-74171518D01*
X172468101Y-74309844D01*
X172167556Y-74510662D01*
X171911962Y-74766256D01*
X171721702Y-75051000D01*
X167772359Y-75051000D01*
X167667287Y-74893748D01*
X167439552Y-74666013D01*
X167171763Y-74487082D01*
X166874212Y-74363832D01*
X166558333Y-74301000D01*
X166236267Y-74301000D01*
X165920388Y-74363832D01*
X165622837Y-74487082D01*
X165355048Y-74666013D01*
X165127313Y-74893748D01*
X165020394Y-75053764D01*
X165010775Y-75039368D01*
X164803932Y-74832525D01*
X164742300Y-74791344D01*
X164742300Y-74640656D01*
X164803932Y-74599475D01*
X165010775Y-74392632D01*
X165173290Y-74149411D01*
X165285232Y-73879158D01*
X165342300Y-73592260D01*
X165342300Y-73299740D01*
X165285232Y-73012842D01*
X165173290Y-72742589D01*
X165010775Y-72499368D01*
X164803932Y-72292525D01*
X164742300Y-72251344D01*
X164742300Y-72100656D01*
X164803932Y-72059475D01*
X164822357Y-72041050D01*
X167981855Y-72041050D01*
X168077558Y-72305399D01*
X168367087Y-72446238D01*
X168678529Y-72527885D01*
X168999915Y-72547205D01*
X169318895Y-72503454D01*
X169623211Y-72398314D01*
X169797042Y-72305399D01*
X169892745Y-72041050D01*
X168937300Y-71085605D01*
X167981855Y-72041050D01*
X164822357Y-72041050D01*
X165010775Y-71852632D01*
X165173290Y-71609411D01*
X165285232Y-71339158D01*
X165342300Y-71052260D01*
X165342300Y-70968615D01*
X167296095Y-70968615D01*
X167339846Y-71287595D01*
X167444986Y-71591911D01*
X167537901Y-71765742D01*
X167802250Y-71861445D01*
X168757695Y-70906000D01*
X169116905Y-70906000D01*
X170072350Y-71861445D01*
X170336699Y-71765742D01*
X170477538Y-71476213D01*
X170559185Y-71164771D01*
X170578505Y-70843385D01*
X170534754Y-70524405D01*
X170429614Y-70220089D01*
X170336699Y-70046258D01*
X170072350Y-69950555D01*
X169116905Y-70906000D01*
X168757695Y-70906000D01*
X167802250Y-69950555D01*
X167537901Y-70046258D01*
X167397062Y-70335787D01*
X167315415Y-70647229D01*
X167296095Y-70968615D01*
X165342300Y-70968615D01*
X165342300Y-70759740D01*
X165285232Y-70472842D01*
X165173290Y-70202589D01*
X165010775Y-69959368D01*
X164803932Y-69752525D01*
X164742300Y-69711344D01*
X164742300Y-69560656D01*
X164803932Y-69519475D01*
X164822357Y-69501050D01*
X167981855Y-69501050D01*
X168030711Y-69636000D01*
X167981855Y-69770950D01*
X168937300Y-70726395D01*
X169892745Y-69770950D01*
X169843889Y-69636000D01*
X169892745Y-69501050D01*
X169817416Y-69425721D01*
X173702300Y-69425721D01*
X173702300Y-69846279D01*
X173784347Y-70258756D01*
X173945288Y-70647302D01*
X174178937Y-70996983D01*
X174476317Y-71294363D01*
X174825998Y-71528012D01*
X175214544Y-71688953D01*
X175627021Y-71771000D01*
X176047579Y-71771000D01*
X176460056Y-71688953D01*
X176848602Y-71528012D01*
X177198283Y-71294363D01*
X177495663Y-70996983D01*
X177729312Y-70647302D01*
X177890253Y-70258756D01*
X177972300Y-69846279D01*
X177972300Y-69425721D01*
X177890253Y-69013244D01*
X177729312Y-68624698D01*
X177495663Y-68275017D01*
X177198283Y-67977637D01*
X176848602Y-67743988D01*
X176460056Y-67583047D01*
X176047579Y-67501000D01*
X175627021Y-67501000D01*
X175214544Y-67583047D01*
X174825998Y-67743988D01*
X174476317Y-67977637D01*
X174178937Y-68275017D01*
X173945288Y-68624698D01*
X173784347Y-69013244D01*
X173702300Y-69425721D01*
X169817416Y-69425721D01*
X168937300Y-68545605D01*
X167981855Y-69501050D01*
X164822357Y-69501050D01*
X165010775Y-69312632D01*
X165173290Y-69069411D01*
X165285232Y-68799158D01*
X165342300Y-68512260D01*
X165342300Y-68428615D01*
X167296095Y-68428615D01*
X167339846Y-68747595D01*
X167444986Y-69051911D01*
X167537901Y-69225742D01*
X167802250Y-69321445D01*
X168757695Y-68366000D01*
X169116905Y-68366000D01*
X170072350Y-69321445D01*
X170336699Y-69225742D01*
X170477538Y-68936213D01*
X170559185Y-68624771D01*
X170578505Y-68303385D01*
X170534754Y-67984405D01*
X170429614Y-67680089D01*
X170336699Y-67506258D01*
X170072350Y-67410555D01*
X169116905Y-68366000D01*
X168757695Y-68366000D01*
X167802250Y-67410555D01*
X167537901Y-67506258D01*
X167397062Y-67795787D01*
X167315415Y-68107229D01*
X167296095Y-68428615D01*
X165342300Y-68428615D01*
X165342300Y-68219740D01*
X165285232Y-67932842D01*
X165173290Y-67662589D01*
X165010775Y-67419368D01*
X164822357Y-67230950D01*
X167981855Y-67230950D01*
X168937300Y-68186395D01*
X169892745Y-67230950D01*
X169797042Y-66966601D01*
X169507513Y-66825762D01*
X169196071Y-66744115D01*
X168874685Y-66724795D01*
X168555705Y-66768546D01*
X168251389Y-66873686D01*
X168077558Y-66966601D01*
X167981855Y-67230950D01*
X164822357Y-67230950D01*
X164803932Y-67212525D01*
X164764536Y-67186202D01*
X164899552Y-67095987D01*
X165127287Y-66868252D01*
X165306218Y-66600463D01*
X165429468Y-66302912D01*
X165492300Y-65987033D01*
X165492300Y-65664967D01*
X165429468Y-65349088D01*
X165306218Y-65051537D01*
X165127287Y-64783748D01*
X164899552Y-64556013D01*
X164899533Y-64556000D01*
X164899552Y-64555987D01*
X165107275Y-64348264D01*
X165127313Y-64378252D01*
X165355048Y-64605987D01*
X165622837Y-64784918D01*
X165920388Y-64908168D01*
X166236267Y-64971000D01*
X166558333Y-64971000D01*
X166874212Y-64908168D01*
X167171763Y-64784918D01*
X167439552Y-64605987D01*
X167667287Y-64378252D01*
X167772359Y-64221000D01*
X171499228Y-64221000D01*
X171499228Y-64536000D01*
X171511488Y-64660482D01*
X171547798Y-64780180D01*
X171606763Y-64890494D01*
X171686115Y-64987185D01*
X171782806Y-65066537D01*
X171893120Y-65125502D01*
X172012818Y-65161812D01*
X172137300Y-65174072D01*
X174537300Y-65174072D01*
X174661782Y-65161812D01*
X174781480Y-65125502D01*
X174891794Y-65066537D01*
X174988485Y-64987185D01*
X175067837Y-64890494D01*
X175126802Y-64780180D01*
X175163112Y-64660482D01*
X175175372Y-64536000D01*
X175175372Y-62136000D01*
X175163112Y-62011518D01*
X175126802Y-61891820D01*
X175067837Y-61781506D01*
X174988485Y-61684815D01*
X174891794Y-61605463D01*
X174781480Y-61546498D01*
X174661782Y-61510188D01*
X174537300Y-61497928D01*
X174120138Y-61497928D01*
X174206499Y-61462156D01*
X174507044Y-61261338D01*
X174762638Y-61005744D01*
X174963456Y-60705199D01*
X175101782Y-60371250D01*
X175172300Y-60016732D01*
X175172300Y-59655268D01*
X175101782Y-59300750D01*
X174963456Y-58966801D01*
X174762638Y-58666256D01*
X174507044Y-58410662D01*
X174206499Y-58209844D01*
X173907513Y-58086000D01*
X174206499Y-57962156D01*
X174507044Y-57761338D01*
X174762638Y-57505744D01*
X174963456Y-57205199D01*
X175101782Y-56871250D01*
X175172300Y-56516732D01*
X175172300Y-56155268D01*
X175101782Y-55800750D01*
X174963456Y-55466801D01*
X174762638Y-55166256D01*
X174507044Y-54910662D01*
X174206499Y-54709844D01*
X173872550Y-54571518D01*
X173518032Y-54501000D01*
X173156568Y-54501000D01*
X172802050Y-54571518D01*
X172468101Y-54709844D01*
X172167556Y-54910662D01*
X171911962Y-55166256D01*
X171721702Y-55451000D01*
X167772359Y-55451000D01*
X167667287Y-55293748D01*
X167439552Y-55066013D01*
X167171763Y-54887082D01*
X166874212Y-54763832D01*
X166558333Y-54701000D01*
X166236267Y-54701000D01*
X165920388Y-54763832D01*
X165622837Y-54887082D01*
X165373407Y-55053746D01*
X165306218Y-54891537D01*
X165127287Y-54623748D01*
X164899552Y-54396013D01*
X164899533Y-54396000D01*
X164899552Y-54395987D01*
X165127287Y-54168252D01*
X165306218Y-53900463D01*
X165429468Y-53602912D01*
X165492300Y-53287033D01*
X165492300Y-52964967D01*
X165429468Y-52649088D01*
X165306218Y-52351537D01*
X165127287Y-52083748D01*
X164899552Y-51856013D01*
X164764536Y-51765798D01*
X164803932Y-51739475D01*
X165010775Y-51532632D01*
X165173290Y-51289411D01*
X165285232Y-51019158D01*
X165342300Y-50732260D01*
X165342300Y-50439740D01*
X165285232Y-50152842D01*
X165173290Y-49882589D01*
X165010775Y-49639368D01*
X164803932Y-49432525D01*
X164793749Y-49425721D01*
X166702300Y-49425721D01*
X166702300Y-49846279D01*
X166784347Y-50258756D01*
X166945288Y-50647302D01*
X167178937Y-50996983D01*
X167476317Y-51294363D01*
X167825998Y-51528012D01*
X168214544Y-51688953D01*
X168627021Y-51771000D01*
X169047579Y-51771000D01*
X169460056Y-51688953D01*
X169848602Y-51528012D01*
X170198283Y-51294363D01*
X170495663Y-50996983D01*
X170729312Y-50647302D01*
X170890253Y-50258756D01*
X170972300Y-49846279D01*
X170972300Y-49425721D01*
X170890253Y-49013244D01*
X170729312Y-48624698D01*
X170495663Y-48275017D01*
X170198283Y-47977637D01*
X169848602Y-47743988D01*
X169460056Y-47583047D01*
X169047579Y-47501000D01*
X168627021Y-47501000D01*
X168214544Y-47583047D01*
X167825998Y-47743988D01*
X167476317Y-47977637D01*
X167178937Y-48275017D01*
X166945288Y-48624698D01*
X166784347Y-49013244D01*
X166702300Y-49425721D01*
X164793749Y-49425721D01*
X164791200Y-49424018D01*
X164791200Y-49388386D01*
X164899552Y-49315987D01*
X165127287Y-49088252D01*
X165306218Y-48820463D01*
X165429468Y-48522912D01*
X165492300Y-48207033D01*
X165492300Y-47884967D01*
X165429468Y-47569088D01*
X165306218Y-47271537D01*
X165127287Y-47003748D01*
X164899552Y-46776013D01*
X164631763Y-46597082D01*
X164334212Y-46473832D01*
X164018333Y-46411000D01*
X163696267Y-46411000D01*
X163380388Y-46473832D01*
X163082837Y-46597082D01*
X162815048Y-46776013D01*
X162587313Y-47003748D01*
X162587300Y-47003767D01*
X162587287Y-47003748D01*
X162359552Y-46776013D01*
X162091763Y-46597082D01*
X161794212Y-46473832D01*
X161478333Y-46411000D01*
X161156267Y-46411000D01*
X160840388Y-46473832D01*
X160542837Y-46597082D01*
X160275048Y-46776013D01*
X160047313Y-47003748D01*
X160047300Y-47003767D01*
X160047287Y-47003748D01*
X159819552Y-46776013D01*
X159551763Y-46597082D01*
X159254212Y-46473832D01*
X158938333Y-46411000D01*
X158616267Y-46411000D01*
X158300388Y-46473832D01*
X158002837Y-46597082D01*
X157735048Y-46776013D01*
X157507313Y-47003748D01*
X157507300Y-47003767D01*
X157507287Y-47003748D01*
X157279552Y-46776013D01*
X157011763Y-46597082D01*
X156714212Y-46473832D01*
X156398333Y-46411000D01*
X156076267Y-46411000D01*
X155760388Y-46473832D01*
X155462837Y-46597082D01*
X155195048Y-46776013D01*
X154967313Y-47003748D01*
X154967300Y-47003767D01*
X154967287Y-47003748D01*
X154739552Y-46776013D01*
X154471763Y-46597082D01*
X154174212Y-46473832D01*
X153858333Y-46411000D01*
X153536267Y-46411000D01*
X153220388Y-46473832D01*
X152922837Y-46597082D01*
X152655048Y-46776013D01*
X152427313Y-47003748D01*
X152427300Y-47003767D01*
X152427287Y-47003748D01*
X152199552Y-46776013D01*
X151931763Y-46597082D01*
X151634212Y-46473832D01*
X151318333Y-46411000D01*
X150996267Y-46411000D01*
X150680388Y-46473832D01*
X150382837Y-46597082D01*
X150115048Y-46776013D01*
X149887313Y-47003748D01*
X149887300Y-47003767D01*
X149887287Y-47003748D01*
X149659552Y-46776013D01*
X149391763Y-46597082D01*
X149094212Y-46473832D01*
X148778333Y-46411000D01*
X148456267Y-46411000D01*
X148140388Y-46473832D01*
X147842837Y-46597082D01*
X147575048Y-46776013D01*
X147347313Y-47003748D01*
X147347300Y-47003767D01*
X147347287Y-47003748D01*
X147119552Y-46776013D01*
X146851763Y-46597082D01*
X146554212Y-46473832D01*
X146238333Y-46411000D01*
X145916267Y-46411000D01*
X145600388Y-46473832D01*
X145302837Y-46597082D01*
X145035048Y-46776013D01*
X144807313Y-47003748D01*
X144807300Y-47003767D01*
X144807287Y-47003748D01*
X144579552Y-46776013D01*
X144311763Y-46597082D01*
X144014212Y-46473832D01*
X143698333Y-46411000D01*
X143376267Y-46411000D01*
X143060388Y-46473832D01*
X142762837Y-46597082D01*
X142495048Y-46776013D01*
X142267313Y-47003748D01*
X142267300Y-47003767D01*
X142267287Y-47003748D01*
X142039552Y-46776013D01*
X141771763Y-46597082D01*
X141474212Y-46473832D01*
X141158333Y-46411000D01*
X140836267Y-46411000D01*
X140520388Y-46473832D01*
X140222837Y-46597082D01*
X139955048Y-46776013D01*
X139727313Y-47003748D01*
X139727300Y-47003767D01*
X139727287Y-47003748D01*
X139499552Y-46776013D01*
X139231763Y-46597082D01*
X138934212Y-46473832D01*
X138618333Y-46411000D01*
X138296267Y-46411000D01*
X137980388Y-46473832D01*
X137682837Y-46597082D01*
X137415048Y-46776013D01*
X137187313Y-47003748D01*
X137187300Y-47003767D01*
X137187287Y-47003748D01*
X136959552Y-46776013D01*
X136691763Y-46597082D01*
X136394212Y-46473832D01*
X136078333Y-46411000D01*
X135756267Y-46411000D01*
X135440388Y-46473832D01*
X135142837Y-46597082D01*
X134875048Y-46776013D01*
X134647313Y-47003748D01*
X134647300Y-47003767D01*
X134647287Y-47003748D01*
X134419552Y-46776013D01*
X134151763Y-46597082D01*
X133854212Y-46473832D01*
X133538333Y-46411000D01*
X133216267Y-46411000D01*
X132900388Y-46473832D01*
X132602837Y-46597082D01*
X132335048Y-46776013D01*
X132107313Y-47003748D01*
X132107300Y-47003767D01*
X132107287Y-47003748D01*
X131879552Y-46776013D01*
X131611763Y-46597082D01*
X131314212Y-46473832D01*
X130998333Y-46411000D01*
X130676267Y-46411000D01*
X130360388Y-46473832D01*
X130062837Y-46597082D01*
X129795048Y-46776013D01*
X129567313Y-47003748D01*
X129567300Y-47003767D01*
X129567287Y-47003748D01*
X129339552Y-46776013D01*
X129071763Y-46597082D01*
X128774212Y-46473832D01*
X128458333Y-46411000D01*
X128136267Y-46411000D01*
X127820388Y-46473832D01*
X127522837Y-46597082D01*
X127255048Y-46776013D01*
X127027313Y-47003748D01*
X127027300Y-47003767D01*
X127027287Y-47003748D01*
X126799552Y-46776013D01*
X126531763Y-46597082D01*
X126234212Y-46473832D01*
X125918333Y-46411000D01*
X125596267Y-46411000D01*
X125280388Y-46473832D01*
X124982837Y-46597082D01*
X124715048Y-46776013D01*
X124487313Y-47003748D01*
X124487300Y-47003767D01*
X124487287Y-47003748D01*
X124259552Y-46776013D01*
X123991763Y-46597082D01*
X123694212Y-46473832D01*
X123378333Y-46411000D01*
X123056267Y-46411000D01*
X122740388Y-46473832D01*
X122442837Y-46597082D01*
X122175048Y-46776013D01*
X121947313Y-47003748D01*
X121947300Y-47003767D01*
X121947287Y-47003748D01*
X121719552Y-46776013D01*
X121451763Y-46597082D01*
X121154212Y-46473832D01*
X120838333Y-46411000D01*
X120516267Y-46411000D01*
X120200388Y-46473832D01*
X119902837Y-46597082D01*
X119635048Y-46776013D01*
X119407313Y-47003748D01*
X119407300Y-47003767D01*
X119407287Y-47003748D01*
X119179552Y-46776013D01*
X118911763Y-46597082D01*
X118614212Y-46473832D01*
X118298333Y-46411000D01*
X117976267Y-46411000D01*
X117660388Y-46473832D01*
X117362837Y-46597082D01*
X117095048Y-46776013D01*
X116867313Y-47003748D01*
X116867300Y-47003767D01*
X116867287Y-47003748D01*
X116639552Y-46776013D01*
X116371763Y-46597082D01*
X116074212Y-46473832D01*
X115758333Y-46411000D01*
X115436267Y-46411000D01*
X115120388Y-46473832D01*
X114822837Y-46597082D01*
X114555048Y-46776013D01*
X114327313Y-47003748D01*
X114148382Y-47271537D01*
X114025132Y-47569088D01*
X113962300Y-47884967D01*
X112926879Y-47884967D01*
X113128927Y-47397181D01*
X113160931Y-47298684D01*
X113399038Y-46306898D01*
X113415239Y-46204607D01*
X113447397Y-45796000D01*
X174227203Y-45796000D01*
X174259361Y-46204607D01*
G36*
X174259361Y-95204607D02*
G01*
X174275562Y-95306898D01*
X174513669Y-96298684D01*
X174545672Y-96397181D01*
X174935997Y-97339509D01*
X174959507Y-97385648D01*
X174983015Y-97431787D01*
X175515947Y-98301453D01*
X175542129Y-98337489D01*
X175576822Y-98385240D01*
X176239238Y-99160830D01*
X176312470Y-99234062D01*
X177088060Y-99896478D01*
X177171847Y-99957353D01*
X178041513Y-100490284D01*
X178133791Y-100537303D01*
X179076119Y-100927627D01*
X179174616Y-100959631D01*
X180166402Y-101197738D01*
X180268693Y-101213939D01*
X180677300Y-101246097D01*
X180677301Y-136025903D01*
X180268693Y-136058061D01*
X180166402Y-136074262D01*
X179174616Y-136312369D01*
X179076119Y-136344373D01*
X178133791Y-136734697D01*
X178042918Y-136781000D01*
X178041513Y-136781716D01*
X177171847Y-137314647D01*
X177088060Y-137375522D01*
X176312470Y-138037938D01*
X176239238Y-138111170D01*
X175576822Y-138886760D01*
X175546384Y-138928654D01*
X175515947Y-138970547D01*
X174983015Y-139840213D01*
X174963692Y-139878138D01*
X174935997Y-139932491D01*
X174545672Y-140874819D01*
X174516237Y-140965411D01*
X174513669Y-140973316D01*
X174275562Y-141965102D01*
X174259361Y-142067393D01*
X174227203Y-142476000D01*
X113447397Y-142476000D01*
X113415239Y-142067393D01*
X113399038Y-141965102D01*
X113160931Y-140973316D01*
X113128927Y-140874819D01*
X112738603Y-139932491D01*
X112691584Y-139840213D01*
X112158653Y-138970547D01*
X112097778Y-138886760D01*
X111704014Y-138425721D01*
X116702300Y-138425721D01*
X116702300Y-138846279D01*
X116784347Y-139258756D01*
X116945288Y-139647302D01*
X117178937Y-139996983D01*
X117476317Y-140294363D01*
X117825998Y-140528012D01*
X118214544Y-140688953D01*
X118627021Y-140771000D01*
X119047579Y-140771000D01*
X119460056Y-140688953D01*
X119848602Y-140528012D01*
X120198283Y-140294363D01*
X120495663Y-139996983D01*
X120729312Y-139647302D01*
X120890253Y-139258756D01*
X120972300Y-138846279D01*
X120972300Y-138425721D01*
X120890253Y-138013244D01*
X120729312Y-137624698D01*
X120495663Y-137275017D01*
X120198283Y-136977637D01*
X119848602Y-136743988D01*
X119460056Y-136583047D01*
X119047579Y-136501000D01*
X118627021Y-136501000D01*
X118214544Y-136583047D01*
X117825998Y-136743988D01*
X117476317Y-136977637D01*
X117178937Y-137275017D01*
X116945288Y-137624698D01*
X116784347Y-138013244D01*
X116702300Y-138425721D01*
X111704014Y-138425721D01*
X111435362Y-138111170D01*
X111362130Y-138037938D01*
X110586540Y-137375522D01*
X110518084Y-137325786D01*
X110502753Y-137314647D01*
X109633087Y-136781715D01*
X109540809Y-136734697D01*
X108598481Y-136344372D01*
X108499984Y-136312369D01*
X107508198Y-136074262D01*
X107405907Y-136058061D01*
X106997300Y-136025903D01*
X106997300Y-118425721D01*
X109702300Y-118425721D01*
X109702300Y-118846279D01*
X109784347Y-119258756D01*
X109945288Y-119647302D01*
X110178937Y-119996983D01*
X110476317Y-120294363D01*
X110825998Y-120528012D01*
X111214544Y-120688953D01*
X111627021Y-120771000D01*
X112047579Y-120771000D01*
X112460056Y-120688953D01*
X112848602Y-120528012D01*
X113198283Y-120294363D01*
X113495663Y-119996983D01*
X113729312Y-119647302D01*
X113890253Y-119258756D01*
X113972300Y-118846279D01*
X113972300Y-118425721D01*
X113890253Y-118013244D01*
X113729312Y-117624698D01*
X113495663Y-117275017D01*
X113198283Y-116977637D01*
X112848602Y-116743988D01*
X112460056Y-116583047D01*
X112047579Y-116501000D01*
X111627021Y-116501000D01*
X111214544Y-116583047D01*
X110825998Y-116743988D01*
X110476317Y-116977637D01*
X110178937Y-117275017D01*
X109945288Y-117624698D01*
X109784347Y-118013244D01*
X109702300Y-118425721D01*
X106997300Y-118425721D01*
X106997300Y-101246097D01*
X107405907Y-101213939D01*
X107508198Y-101197738D01*
X108499984Y-100959631D01*
X108502415Y-100958841D01*
X108598481Y-100927628D01*
X109540809Y-100537303D01*
X109633087Y-100490285D01*
X110502753Y-99957353D01*
X110544646Y-99926915D01*
X110586540Y-99896478D01*
X111362130Y-99234062D01*
X111435363Y-99160829D01*
X112097778Y-98385240D01*
X112158653Y-98301453D01*
X112158654Y-98301452D01*
X112691584Y-97431787D01*
X112738603Y-97339509D01*
X112926879Y-96884967D01*
X113962300Y-96884967D01*
X113962300Y-97207033D01*
X114025132Y-97522912D01*
X114148382Y-97820463D01*
X114327313Y-98088252D01*
X114426509Y-98187448D01*
X114392806Y-98205463D01*
X114296115Y-98284815D01*
X114216763Y-98381506D01*
X114157798Y-98491820D01*
X114121488Y-98611518D01*
X114109228Y-98736000D01*
X114109228Y-100436000D01*
X114121488Y-100560482D01*
X114157798Y-100680180D01*
X114216763Y-100790494D01*
X114296115Y-100887185D01*
X114392806Y-100966537D01*
X114426509Y-100984552D01*
X114327313Y-101083748D01*
X114148382Y-101351537D01*
X114025132Y-101649088D01*
X113962300Y-101964967D01*
X113962300Y-102287033D01*
X114025132Y-102602912D01*
X114148382Y-102900463D01*
X114327313Y-103168252D01*
X114555048Y-103395987D01*
X114555067Y-103396000D01*
X114555048Y-103396013D01*
X114327313Y-103623748D01*
X114148382Y-103891537D01*
X114025132Y-104189088D01*
X113962300Y-104504967D01*
X113962300Y-104827033D01*
X114025132Y-105142912D01*
X114148382Y-105440463D01*
X114327313Y-105708252D01*
X114555048Y-105935987D01*
X114555067Y-105936000D01*
X114555048Y-105936013D01*
X114327313Y-106163748D01*
X114148382Y-106431537D01*
X114025132Y-106729088D01*
X113962300Y-107044967D01*
X113962300Y-107367033D01*
X114025132Y-107682912D01*
X114148382Y-107980463D01*
X114327313Y-108248252D01*
X114555048Y-108475987D01*
X114555067Y-108476000D01*
X114555048Y-108476013D01*
X114327313Y-108703748D01*
X114148382Y-108971537D01*
X114025132Y-109269088D01*
X113962300Y-109584967D01*
X113962300Y-109907033D01*
X114025132Y-110222912D01*
X114148382Y-110520463D01*
X114327313Y-110788252D01*
X114555048Y-111015987D01*
X114555067Y-111016000D01*
X114555048Y-111016013D01*
X114327313Y-111243748D01*
X114148382Y-111511537D01*
X114025132Y-111809088D01*
X113962300Y-112124967D01*
X113962300Y-112447033D01*
X114025132Y-112762912D01*
X114148382Y-113060463D01*
X114327313Y-113328252D01*
X114555048Y-113555987D01*
X114555067Y-113556000D01*
X114555048Y-113556013D01*
X114327313Y-113783748D01*
X114148382Y-114051537D01*
X114025132Y-114349088D01*
X113962300Y-114664967D01*
X113962300Y-114987033D01*
X114025132Y-115302912D01*
X114148382Y-115600463D01*
X114327313Y-115868252D01*
X114426509Y-115967448D01*
X114392806Y-115985463D01*
X114296115Y-116064815D01*
X114216763Y-116161506D01*
X114157798Y-116271820D01*
X114121488Y-116391518D01*
X114109228Y-116516000D01*
X114109228Y-118216000D01*
X114121488Y-118340482D01*
X114157798Y-118460180D01*
X114216763Y-118570494D01*
X114270522Y-118636000D01*
X114216763Y-118701506D01*
X114157798Y-118811820D01*
X114121488Y-118931518D01*
X114109228Y-119056000D01*
X114109228Y-120756000D01*
X114121488Y-120880482D01*
X114157798Y-121000180D01*
X114216763Y-121110494D01*
X114270522Y-121176000D01*
X114216763Y-121241506D01*
X114157798Y-121351820D01*
X114121488Y-121471518D01*
X114109228Y-121596000D01*
X114109228Y-123296000D01*
X114121488Y-123420482D01*
X114157798Y-123540180D01*
X114216763Y-123650494D01*
X114270522Y-123716000D01*
X114216763Y-123781506D01*
X114157798Y-123891820D01*
X114121488Y-124011518D01*
X114109228Y-124136000D01*
X114109228Y-125836000D01*
X114121488Y-125960482D01*
X114157798Y-126080180D01*
X114216763Y-126190494D01*
X114270522Y-126256000D01*
X114216763Y-126321506D01*
X114157798Y-126431820D01*
X114121488Y-126551518D01*
X114109228Y-126676000D01*
X114109228Y-128376000D01*
X114121488Y-128500482D01*
X114157798Y-128620180D01*
X114216763Y-128730494D01*
X114296115Y-128827185D01*
X114392806Y-128906537D01*
X114426509Y-128924552D01*
X114327313Y-129023748D01*
X114148382Y-129291537D01*
X114025132Y-129589088D01*
X113962300Y-129904967D01*
X113962300Y-130227033D01*
X114025132Y-130542912D01*
X114148382Y-130840463D01*
X114327313Y-131108252D01*
X114555048Y-131335987D01*
X114555067Y-131336000D01*
X114555048Y-131336013D01*
X114327313Y-131563748D01*
X114148382Y-131831537D01*
X114025132Y-132129088D01*
X113962300Y-132444967D01*
X113962300Y-132767033D01*
X114025132Y-133082912D01*
X114148382Y-133380463D01*
X114327313Y-133648252D01*
X114555048Y-133875987D01*
X114822837Y-134054918D01*
X115120388Y-134178168D01*
X115436267Y-134241000D01*
X115758333Y-134241000D01*
X116074212Y-134178168D01*
X116371763Y-134054918D01*
X116639552Y-133875987D01*
X116867287Y-133648252D01*
X116867300Y-133648233D01*
X116867313Y-133648252D01*
X117095048Y-133875987D01*
X117362837Y-134054918D01*
X117660388Y-134178168D01*
X117976267Y-134241000D01*
X118298333Y-134241000D01*
X118614212Y-134178168D01*
X118911763Y-134054918D01*
X119179552Y-133875987D01*
X119407287Y-133648252D01*
X119407300Y-133648233D01*
X119407313Y-133648252D01*
X119635048Y-133875987D01*
X119902837Y-134054918D01*
X120200388Y-134178168D01*
X120516267Y-134241000D01*
X120838333Y-134241000D01*
X121154212Y-134178168D01*
X121451763Y-134054918D01*
X121719552Y-133875987D01*
X121947287Y-133648252D01*
X121947300Y-133648233D01*
X121947313Y-133648252D01*
X122175048Y-133875987D01*
X122442837Y-134054918D01*
X122740388Y-134178168D01*
X123056267Y-134241000D01*
X123378333Y-134241000D01*
X123694212Y-134178168D01*
X123991763Y-134054918D01*
X124259552Y-133875987D01*
X124487287Y-133648252D01*
X124487300Y-133648233D01*
X124487313Y-133648252D01*
X124715048Y-133875987D01*
X124715067Y-133876000D01*
X124715048Y-133876013D01*
X124487313Y-134103748D01*
X124308382Y-134371537D01*
X124185132Y-134669088D01*
X124122300Y-134984967D01*
X124122300Y-135307033D01*
X124185132Y-135622912D01*
X124308382Y-135920463D01*
X124487313Y-136188252D01*
X124715048Y-136415987D01*
X124715067Y-136416000D01*
X124715048Y-136416013D01*
X124487313Y-136643748D01*
X124308382Y-136911537D01*
X124185132Y-137209088D01*
X124122300Y-137524967D01*
X124122300Y-137847033D01*
X124185132Y-138162912D01*
X124308382Y-138460463D01*
X124487313Y-138728252D01*
X124715048Y-138955987D01*
X124715067Y-138956000D01*
X124715048Y-138956013D01*
X124487313Y-139183748D01*
X124308382Y-139451537D01*
X124185132Y-139749088D01*
X124122300Y-140064967D01*
X124122300Y-140387033D01*
X124185132Y-140702912D01*
X124308382Y-141000463D01*
X124487313Y-141268252D01*
X124715048Y-141495987D01*
X124982837Y-141674918D01*
X125280388Y-141798168D01*
X125596267Y-141861000D01*
X125918333Y-141861000D01*
X126234212Y-141798168D01*
X126531763Y-141674918D01*
X126799552Y-141495987D01*
X127027287Y-141268252D01*
X127027300Y-141268233D01*
X127027313Y-141268252D01*
X127255048Y-141495987D01*
X127522837Y-141674918D01*
X127820388Y-141798168D01*
X128136267Y-141861000D01*
X128458333Y-141861000D01*
X128774212Y-141798168D01*
X129071763Y-141674918D01*
X129339552Y-141495987D01*
X129567287Y-141268252D01*
X129567300Y-141268233D01*
X129567313Y-141268252D01*
X129795048Y-141495987D01*
X130062837Y-141674918D01*
X130360388Y-141798168D01*
X130676267Y-141861000D01*
X130998333Y-141861000D01*
X131314212Y-141798168D01*
X131611763Y-141674918D01*
X131879552Y-141495987D01*
X132107287Y-141268252D01*
X132107300Y-141268233D01*
X132107313Y-141268252D01*
X132335048Y-141495987D01*
X132602837Y-141674918D01*
X132900388Y-141798168D01*
X133216267Y-141861000D01*
X133538333Y-141861000D01*
X133854212Y-141798168D01*
X134151763Y-141674918D01*
X134419552Y-141495987D01*
X134647287Y-141268252D01*
X134647300Y-141268233D01*
X134647313Y-141268252D01*
X134875048Y-141495987D01*
X135142837Y-141674918D01*
X135440388Y-141798168D01*
X135756267Y-141861000D01*
X136078333Y-141861000D01*
X136394212Y-141798168D01*
X136691763Y-141674918D01*
X136959552Y-141495987D01*
X137187287Y-141268252D01*
X137187300Y-141268233D01*
X137187313Y-141268252D01*
X137415048Y-141495987D01*
X137682837Y-141674918D01*
X137980388Y-141798168D01*
X138296267Y-141861000D01*
X138618333Y-141861000D01*
X138934212Y-141798168D01*
X139231763Y-141674918D01*
X139499552Y-141495987D01*
X139727287Y-141268252D01*
X139727300Y-141268233D01*
X139727313Y-141268252D01*
X139955048Y-141495987D01*
X140222837Y-141674918D01*
X140520388Y-141798168D01*
X140836267Y-141861000D01*
X141158333Y-141861000D01*
X141474212Y-141798168D01*
X141771763Y-141674918D01*
X142039552Y-141495987D01*
X142267287Y-141268252D01*
X142267300Y-141268233D01*
X142267313Y-141268252D01*
X142495048Y-141495987D01*
X142762837Y-141674918D01*
X143060388Y-141798168D01*
X143376267Y-141861000D01*
X143698333Y-141861000D01*
X144014212Y-141798168D01*
X144311763Y-141674918D01*
X144579552Y-141495987D01*
X144807287Y-141268252D01*
X144807300Y-141268233D01*
X144807313Y-141268252D01*
X145035048Y-141495987D01*
X145302837Y-141674918D01*
X145600388Y-141798168D01*
X145916267Y-141861000D01*
X146238333Y-141861000D01*
X146554212Y-141798168D01*
X146851763Y-141674918D01*
X147119552Y-141495987D01*
X147347287Y-141268252D01*
X147347300Y-141268233D01*
X147347313Y-141268252D01*
X147575048Y-141495987D01*
X147842837Y-141674918D01*
X148140388Y-141798168D01*
X148456267Y-141861000D01*
X148778333Y-141861000D01*
X149094212Y-141798168D01*
X149391763Y-141674918D01*
X149659552Y-141495987D01*
X149887287Y-141268252D01*
X149887300Y-141268233D01*
X149887313Y-141268252D01*
X150115048Y-141495987D01*
X150382837Y-141674918D01*
X150680388Y-141798168D01*
X150996267Y-141861000D01*
X151318333Y-141861000D01*
X151634212Y-141798168D01*
X151931763Y-141674918D01*
X152199552Y-141495987D01*
X152427287Y-141268252D01*
X152427300Y-141268233D01*
X152427313Y-141268252D01*
X152655048Y-141495987D01*
X152922837Y-141674918D01*
X153220388Y-141798168D01*
X153536267Y-141861000D01*
X153858333Y-141861000D01*
X154174212Y-141798168D01*
X154471763Y-141674918D01*
X154739552Y-141495987D01*
X154967287Y-141268252D01*
X154967300Y-141268233D01*
X154967313Y-141268252D01*
X155195048Y-141495987D01*
X155462837Y-141674918D01*
X155760388Y-141798168D01*
X156076267Y-141861000D01*
X156398333Y-141861000D01*
X156714212Y-141798168D01*
X157011763Y-141674918D01*
X157279552Y-141495987D01*
X157507287Y-141268252D01*
X157507300Y-141268233D01*
X157507313Y-141268252D01*
X157735048Y-141495987D01*
X158002837Y-141674918D01*
X158300388Y-141798168D01*
X158616267Y-141861000D01*
X158938333Y-141861000D01*
X159254212Y-141798168D01*
X159551763Y-141674918D01*
X159819552Y-141495987D01*
X160047287Y-141268252D01*
X160047300Y-141268233D01*
X160047313Y-141268252D01*
X160275048Y-141495987D01*
X160542837Y-141674918D01*
X160840388Y-141798168D01*
X161156267Y-141861000D01*
X161478333Y-141861000D01*
X161794212Y-141798168D01*
X162091763Y-141674918D01*
X162359552Y-141495987D01*
X162587287Y-141268252D01*
X162587300Y-141268233D01*
X162587313Y-141268252D01*
X162815048Y-141495987D01*
X163082837Y-141674918D01*
X163380388Y-141798168D01*
X163696267Y-141861000D01*
X164018333Y-141861000D01*
X164334212Y-141798168D01*
X164631763Y-141674918D01*
X164899552Y-141495987D01*
X165127287Y-141268252D01*
X165306218Y-141000463D01*
X165429468Y-140702912D01*
X165492300Y-140387033D01*
X165492300Y-140064967D01*
X165429468Y-139749088D01*
X165306218Y-139451537D01*
X165127287Y-139183748D01*
X164899552Y-138956013D01*
X164899533Y-138956000D01*
X164899552Y-138955987D01*
X165127287Y-138728252D01*
X165306218Y-138460463D01*
X165320608Y-138425721D01*
X166702300Y-138425721D01*
X166702300Y-138846279D01*
X166784347Y-139258756D01*
X166945288Y-139647302D01*
X167178937Y-139996983D01*
X167476317Y-140294363D01*
X167825998Y-140528012D01*
X168214544Y-140688953D01*
X168627021Y-140771000D01*
X169047579Y-140771000D01*
X169460056Y-140688953D01*
X169848602Y-140528012D01*
X170198283Y-140294363D01*
X170495663Y-139996983D01*
X170729312Y-139647302D01*
X170890253Y-139258756D01*
X170972300Y-138846279D01*
X170972300Y-138425721D01*
X170890253Y-138013244D01*
X170729312Y-137624698D01*
X170495663Y-137275017D01*
X170198283Y-136977637D01*
X169848602Y-136743988D01*
X169460056Y-136583047D01*
X169047579Y-136501000D01*
X168627021Y-136501000D01*
X168214544Y-136583047D01*
X167825998Y-136743988D01*
X167476317Y-136977637D01*
X167178937Y-137275017D01*
X166945288Y-137624698D01*
X166784347Y-138013244D01*
X166702300Y-138425721D01*
X165320608Y-138425721D01*
X165429468Y-138162912D01*
X165492300Y-137847033D01*
X165492300Y-137524967D01*
X165429468Y-137209088D01*
X165306218Y-136911537D01*
X165127287Y-136643748D01*
X164899552Y-136416013D01*
X164899533Y-136416000D01*
X164899552Y-136415987D01*
X165127287Y-136188252D01*
X165306218Y-135920463D01*
X165429468Y-135622912D01*
X165492300Y-135307033D01*
X165492300Y-134984967D01*
X165429468Y-134669088D01*
X165306218Y-134371537D01*
X165127287Y-134103748D01*
X164899552Y-133876013D01*
X164899533Y-133876000D01*
X164899552Y-133875987D01*
X165127287Y-133648252D01*
X165306218Y-133380463D01*
X165373407Y-133218254D01*
X165622837Y-133384918D01*
X165920388Y-133508168D01*
X166236267Y-133571000D01*
X166558333Y-133571000D01*
X166874212Y-133508168D01*
X167171763Y-133384918D01*
X167439552Y-133205987D01*
X167667287Y-132978252D01*
X167772359Y-132821000D01*
X171499228Y-132821000D01*
X171499228Y-133136000D01*
X171511488Y-133260482D01*
X171547798Y-133380180D01*
X171606763Y-133490494D01*
X171686115Y-133587185D01*
X171782806Y-133666537D01*
X171893120Y-133725502D01*
X172012818Y-133761812D01*
X172137300Y-133774072D01*
X174537300Y-133774072D01*
X174661782Y-133761812D01*
X174781480Y-133725502D01*
X174891794Y-133666537D01*
X174988485Y-133587185D01*
X175067837Y-133490494D01*
X175126802Y-133380180D01*
X175163112Y-133260482D01*
X175175372Y-133136000D01*
X175175372Y-130736000D01*
X175163112Y-130611518D01*
X175126802Y-130491820D01*
X175067837Y-130381506D01*
X174988485Y-130284815D01*
X174891794Y-130205463D01*
X174781480Y-130146498D01*
X174661782Y-130110188D01*
X174537300Y-130097928D01*
X174120138Y-130097928D01*
X174206499Y-130062156D01*
X174507044Y-129861338D01*
X174762638Y-129605744D01*
X174963456Y-129305199D01*
X175101782Y-128971250D01*
X175172300Y-128616732D01*
X175172300Y-128255268D01*
X175101782Y-127900750D01*
X174963456Y-127566801D01*
X174762638Y-127266256D01*
X174507044Y-127010662D01*
X174206499Y-126809844D01*
X173907513Y-126686000D01*
X174206499Y-126562156D01*
X174507044Y-126361338D01*
X174762638Y-126105744D01*
X174963456Y-125805199D01*
X175101782Y-125471250D01*
X175172300Y-125116732D01*
X175172300Y-124755268D01*
X175101782Y-124400750D01*
X174963456Y-124066801D01*
X174762638Y-123766256D01*
X174507044Y-123510662D01*
X174206499Y-123309844D01*
X173872550Y-123171518D01*
X173518032Y-123101000D01*
X173156568Y-123101000D01*
X172802050Y-123171518D01*
X172468101Y-123309844D01*
X172167556Y-123510662D01*
X171911962Y-123766256D01*
X171721702Y-124051000D01*
X167772359Y-124051000D01*
X167667287Y-123893748D01*
X167439552Y-123666013D01*
X167171763Y-123487082D01*
X166874212Y-123363832D01*
X166558333Y-123301000D01*
X166236267Y-123301000D01*
X165920388Y-123363832D01*
X165622837Y-123487082D01*
X165355048Y-123666013D01*
X165127313Y-123893748D01*
X165020394Y-124053764D01*
X165010775Y-124039368D01*
X164803932Y-123832525D01*
X164742300Y-123791344D01*
X164742300Y-123640656D01*
X164803932Y-123599475D01*
X165010775Y-123392632D01*
X165173290Y-123149411D01*
X165285232Y-122879158D01*
X165342300Y-122592260D01*
X165342300Y-122299740D01*
X165285232Y-122012842D01*
X165173290Y-121742589D01*
X165010775Y-121499368D01*
X164803932Y-121292525D01*
X164742300Y-121251344D01*
X164742300Y-121100656D01*
X164803932Y-121059475D01*
X164822357Y-121041050D01*
X167981855Y-121041050D01*
X168077558Y-121305399D01*
X168367087Y-121446238D01*
X168678529Y-121527885D01*
X168999915Y-121547205D01*
X169318895Y-121503454D01*
X169623211Y-121398314D01*
X169797042Y-121305399D01*
X169892745Y-121041050D01*
X168937300Y-120085605D01*
X167981855Y-121041050D01*
X164822357Y-121041050D01*
X165010775Y-120852632D01*
X165173290Y-120609411D01*
X165285232Y-120339158D01*
X165342300Y-120052260D01*
X165342300Y-119968615D01*
X167296095Y-119968615D01*
X167339846Y-120287595D01*
X167444986Y-120591911D01*
X167537901Y-120765742D01*
X167802250Y-120861445D01*
X168757695Y-119906000D01*
X169116905Y-119906000D01*
X170072350Y-120861445D01*
X170336699Y-120765742D01*
X170477538Y-120476213D01*
X170559185Y-120164771D01*
X170578505Y-119843385D01*
X170534754Y-119524405D01*
X170429614Y-119220089D01*
X170336699Y-119046258D01*
X170072350Y-118950555D01*
X169116905Y-119906000D01*
X168757695Y-119906000D01*
X167802250Y-118950555D01*
X167537901Y-119046258D01*
X167397062Y-119335787D01*
X167315415Y-119647229D01*
X167296095Y-119968615D01*
X165342300Y-119968615D01*
X165342300Y-119759740D01*
X165285232Y-119472842D01*
X165173290Y-119202589D01*
X165010775Y-118959368D01*
X164803932Y-118752525D01*
X164742300Y-118711344D01*
X164742300Y-118560656D01*
X164803932Y-118519475D01*
X164822357Y-118501050D01*
X167981855Y-118501050D01*
X168030711Y-118636000D01*
X167981855Y-118770950D01*
X168937300Y-119726395D01*
X169892745Y-118770950D01*
X169843889Y-118636000D01*
X169892745Y-118501050D01*
X169817416Y-118425721D01*
X173702300Y-118425721D01*
X173702300Y-118846279D01*
X173784347Y-119258756D01*
X173945288Y-119647302D01*
X174178937Y-119996983D01*
X174476317Y-120294363D01*
X174825998Y-120528012D01*
X175214544Y-120688953D01*
X175627021Y-120771000D01*
X176047579Y-120771000D01*
X176460056Y-120688953D01*
X176848602Y-120528012D01*
X177198283Y-120294363D01*
X177495663Y-119996983D01*
X177729312Y-119647302D01*
X177890253Y-119258756D01*
X177972300Y-118846279D01*
X177972300Y-118425721D01*
X177890253Y-118013244D01*
X177729312Y-117624698D01*
X177495663Y-117275017D01*
X177198283Y-116977637D01*
X176848602Y-116743988D01*
X176460056Y-116583047D01*
X176047579Y-116501000D01*
X175627021Y-116501000D01*
X175214544Y-116583047D01*
X174825998Y-116743988D01*
X174476317Y-116977637D01*
X174178937Y-117275017D01*
X173945288Y-117624698D01*
X173784347Y-118013244D01*
X173702300Y-118425721D01*
X169817416Y-118425721D01*
X168937300Y-117545605D01*
X167981855Y-118501050D01*
X164822357Y-118501050D01*
X165010775Y-118312632D01*
X165173290Y-118069411D01*
X165285232Y-117799158D01*
X165342300Y-117512260D01*
X165342300Y-117428615D01*
X167296095Y-117428615D01*
X167339846Y-117747595D01*
X167444986Y-118051911D01*
X167537901Y-118225742D01*
X167802250Y-118321445D01*
X168757695Y-117366000D01*
X169116905Y-117366000D01*
X170072350Y-118321445D01*
X170336699Y-118225742D01*
X170477538Y-117936213D01*
X170559185Y-117624771D01*
X170578505Y-117303385D01*
X170534754Y-116984405D01*
X170429614Y-116680089D01*
X170336699Y-116506258D01*
X170072350Y-116410555D01*
X169116905Y-117366000D01*
X168757695Y-117366000D01*
X167802250Y-116410555D01*
X167537901Y-116506258D01*
X167397062Y-116795787D01*
X167315415Y-117107229D01*
X167296095Y-117428615D01*
X165342300Y-117428615D01*
X165342300Y-117219740D01*
X165285232Y-116932842D01*
X165173290Y-116662589D01*
X165010775Y-116419368D01*
X164822357Y-116230950D01*
X167981855Y-116230950D01*
X168937300Y-117186395D01*
X169892745Y-116230950D01*
X169797042Y-115966601D01*
X169507513Y-115825762D01*
X169196071Y-115744115D01*
X168874685Y-115724795D01*
X168555705Y-115768546D01*
X168251389Y-115873686D01*
X168077558Y-115966601D01*
X167981855Y-116230950D01*
X164822357Y-116230950D01*
X164803932Y-116212525D01*
X164764536Y-116186202D01*
X164899552Y-116095987D01*
X165127287Y-115868252D01*
X165306218Y-115600463D01*
X165429468Y-115302912D01*
X165492300Y-114987033D01*
X165492300Y-114664967D01*
X165429468Y-114349088D01*
X165306218Y-114051537D01*
X165127287Y-113783748D01*
X164899552Y-113556013D01*
X164899533Y-113556000D01*
X164899552Y-113555987D01*
X165107275Y-113348264D01*
X165127313Y-113378252D01*
X165355048Y-113605987D01*
X165622837Y-113784918D01*
X165920388Y-113908168D01*
X166236267Y-113971000D01*
X166558333Y-113971000D01*
X166874212Y-113908168D01*
X167171763Y-113784918D01*
X167439552Y-113605987D01*
X167667287Y-113378252D01*
X167772359Y-113221000D01*
X171499228Y-113221000D01*
X171499228Y-113536000D01*
X171511488Y-113660482D01*
X171547798Y-113780180D01*
X171606763Y-113890494D01*
X171686115Y-113987185D01*
X171782806Y-114066537D01*
X171893120Y-114125502D01*
X172012818Y-114161812D01*
X172137300Y-114174072D01*
X174537300Y-114174072D01*
X174661782Y-114161812D01*
X174781480Y-114125502D01*
X174891794Y-114066537D01*
X174988485Y-113987185D01*
X175067837Y-113890494D01*
X175126802Y-113780180D01*
X175163112Y-113660482D01*
X175175372Y-113536000D01*
X175175372Y-111136000D01*
X175163112Y-111011518D01*
X175126802Y-110891820D01*
X175067837Y-110781506D01*
X174988485Y-110684815D01*
X174891794Y-110605463D01*
X174781480Y-110546498D01*
X174661782Y-110510188D01*
X174537300Y-110497928D01*
X174120138Y-110497928D01*
X174206499Y-110462156D01*
X174507044Y-110261338D01*
X174762638Y-110005744D01*
X174963456Y-109705199D01*
X175101782Y-109371250D01*
X175172300Y-109016732D01*
X175172300Y-108655268D01*
X175101782Y-108300750D01*
X174963456Y-107966801D01*
X174762638Y-107666256D01*
X174507044Y-107410662D01*
X174206499Y-107209844D01*
X173907513Y-107086000D01*
X174206499Y-106962156D01*
X174507044Y-106761338D01*
X174762638Y-106505744D01*
X174963456Y-106205199D01*
X175101782Y-105871250D01*
X175172300Y-105516732D01*
X175172300Y-105155268D01*
X175101782Y-104800750D01*
X174963456Y-104466801D01*
X174762638Y-104166256D01*
X174507044Y-103910662D01*
X174206499Y-103709844D01*
X173872550Y-103571518D01*
X173518032Y-103501000D01*
X173156568Y-103501000D01*
X172802050Y-103571518D01*
X172468101Y-103709844D01*
X172167556Y-103910662D01*
X171911962Y-104166256D01*
X171721702Y-104451000D01*
X167772359Y-104451000D01*
X167667287Y-104293748D01*
X167439552Y-104066013D01*
X167171763Y-103887082D01*
X166874212Y-103763832D01*
X166558333Y-103701000D01*
X166236267Y-103701000D01*
X165920388Y-103763832D01*
X165622837Y-103887082D01*
X165373407Y-104053746D01*
X165306218Y-103891537D01*
X165127287Y-103623748D01*
X164899552Y-103396013D01*
X164899533Y-103396000D01*
X164899552Y-103395987D01*
X165127287Y-103168252D01*
X165306218Y-102900463D01*
X165429468Y-102602912D01*
X165492300Y-102287033D01*
X165492300Y-101964967D01*
X165429468Y-101649088D01*
X165306218Y-101351537D01*
X165127287Y-101083748D01*
X164899552Y-100856013D01*
X164764536Y-100765798D01*
X164803932Y-100739475D01*
X165010775Y-100532632D01*
X165173290Y-100289411D01*
X165285232Y-100019158D01*
X165342300Y-99732260D01*
X165342300Y-99439740D01*
X165285232Y-99152842D01*
X165173290Y-98882589D01*
X165010775Y-98639368D01*
X164803932Y-98432525D01*
X164793749Y-98425721D01*
X166702300Y-98425721D01*
X166702300Y-98846279D01*
X166784347Y-99258756D01*
X166945288Y-99647302D01*
X167178937Y-99996983D01*
X167476317Y-100294363D01*
X167825998Y-100528012D01*
X168214544Y-100688953D01*
X168627021Y-100771000D01*
X169047579Y-100771000D01*
X169460056Y-100688953D01*
X169848602Y-100528012D01*
X170198283Y-100294363D01*
X170495663Y-99996983D01*
X170729312Y-99647302D01*
X170890253Y-99258756D01*
X170972300Y-98846279D01*
X170972300Y-98425721D01*
X170890253Y-98013244D01*
X170729312Y-97624698D01*
X170495663Y-97275017D01*
X170198283Y-96977637D01*
X169848602Y-96743988D01*
X169460056Y-96583047D01*
X169047579Y-96501000D01*
X168627021Y-96501000D01*
X168214544Y-96583047D01*
X167825998Y-96743988D01*
X167476317Y-96977637D01*
X167178937Y-97275017D01*
X166945288Y-97624698D01*
X166784347Y-98013244D01*
X166702300Y-98425721D01*
X164793749Y-98425721D01*
X164791200Y-98424018D01*
X164791200Y-98388386D01*
X164899552Y-98315987D01*
X165127287Y-98088252D01*
X165306218Y-97820463D01*
X165429468Y-97522912D01*
X165492300Y-97207033D01*
X165492300Y-96884967D01*
X165429468Y-96569088D01*
X165306218Y-96271537D01*
X165127287Y-96003748D01*
X164899552Y-95776013D01*
X164631763Y-95597082D01*
X164334212Y-95473832D01*
X164018333Y-95411000D01*
X163696267Y-95411000D01*
X163380388Y-95473832D01*
X163082837Y-95597082D01*
X162815048Y-95776013D01*
X162587313Y-96003748D01*
X162587300Y-96003767D01*
X162587287Y-96003748D01*
X162359552Y-95776013D01*
X162091763Y-95597082D01*
X161794212Y-95473832D01*
X161478333Y-95411000D01*
X161156267Y-95411000D01*
X160840388Y-95473832D01*
X160542837Y-95597082D01*
X160275048Y-95776013D01*
X160047313Y-96003748D01*
X160047300Y-96003767D01*
X160047287Y-96003748D01*
X159819552Y-95776013D01*
X159551763Y-95597082D01*
X159254212Y-95473832D01*
X158938333Y-95411000D01*
X158616267Y-95411000D01*
X158300388Y-95473832D01*
X158002837Y-95597082D01*
X157735048Y-95776013D01*
X157507313Y-96003748D01*
X157507300Y-96003767D01*
X157507287Y-96003748D01*
X157279552Y-95776013D01*
X157011763Y-95597082D01*
X156714212Y-95473832D01*
X156398333Y-95411000D01*
X156076267Y-95411000D01*
X155760388Y-95473832D01*
X155462837Y-95597082D01*
X155195048Y-95776013D01*
X154967313Y-96003748D01*
X154967300Y-96003767D01*
X154967287Y-96003748D01*
X154739552Y-95776013D01*
X154471763Y-95597082D01*
X154174212Y-95473832D01*
X153858333Y-95411000D01*
X153536267Y-95411000D01*
X153220388Y-95473832D01*
X152922837Y-95597082D01*
X152655048Y-95776013D01*
X152427313Y-96003748D01*
X152427300Y-96003767D01*
X152427287Y-96003748D01*
X152199552Y-95776013D01*
X151931763Y-95597082D01*
X151634212Y-95473832D01*
X151318333Y-95411000D01*
X150996267Y-95411000D01*
X150680388Y-95473832D01*
X150382837Y-95597082D01*
X150115048Y-95776013D01*
X149887313Y-96003748D01*
X149887300Y-96003767D01*
X149887287Y-96003748D01*
X149659552Y-95776013D01*
X149391763Y-95597082D01*
X149094212Y-95473832D01*
X148778333Y-95411000D01*
X148456267Y-95411000D01*
X148140388Y-95473832D01*
X147842837Y-95597082D01*
X147575048Y-95776013D01*
X147347313Y-96003748D01*
X147347300Y-96003767D01*
X147347287Y-96003748D01*
X147119552Y-95776013D01*
X146851763Y-95597082D01*
X146554212Y-95473832D01*
X146238333Y-95411000D01*
X145916267Y-95411000D01*
X145600388Y-95473832D01*
X145302837Y-95597082D01*
X145035048Y-95776013D01*
X144807313Y-96003748D01*
X144807300Y-96003767D01*
X144807287Y-96003748D01*
X144579552Y-95776013D01*
X144311763Y-95597082D01*
X144014212Y-95473832D01*
X143698333Y-95411000D01*
X143376267Y-95411000D01*
X143060388Y-95473832D01*
X142762837Y-95597082D01*
X142495048Y-95776013D01*
X142267313Y-96003748D01*
X142267300Y-96003767D01*
X142267287Y-96003748D01*
X142039552Y-95776013D01*
X141771763Y-95597082D01*
X141474212Y-95473832D01*
X141158333Y-95411000D01*
X140836267Y-95411000D01*
X140520388Y-95473832D01*
X140222837Y-95597082D01*
X139955048Y-95776013D01*
X139727313Y-96003748D01*
X139727300Y-96003767D01*
X139727287Y-96003748D01*
X139499552Y-95776013D01*
X139231763Y-95597082D01*
X138934212Y-95473832D01*
X138618333Y-95411000D01*
X138296267Y-95411000D01*
X137980388Y-95473832D01*
X137682837Y-95597082D01*
X137415048Y-95776013D01*
X137187313Y-96003748D01*
X137187300Y-96003767D01*
X137187287Y-96003748D01*
X136959552Y-95776013D01*
X136691763Y-95597082D01*
X136394212Y-95473832D01*
X136078333Y-95411000D01*
X135756267Y-95411000D01*
X135440388Y-95473832D01*
X135142837Y-95597082D01*
X134875048Y-95776013D01*
X134647313Y-96003748D01*
X134647300Y-96003767D01*
X134647287Y-96003748D01*
X134419552Y-95776013D01*
X134151763Y-95597082D01*
X133854212Y-95473832D01*
X133538333Y-95411000D01*
X133216267Y-95411000D01*
X132900388Y-95473832D01*
X132602837Y-95597082D01*
X132335048Y-95776013D01*
X132107313Y-96003748D01*
X132107300Y-96003767D01*
X132107287Y-96003748D01*
X131879552Y-95776013D01*
X131611763Y-95597082D01*
X131314212Y-95473832D01*
X130998333Y-95411000D01*
X130676267Y-95411000D01*
X130360388Y-95473832D01*
X130062837Y-95597082D01*
X129795048Y-95776013D01*
X129567313Y-96003748D01*
X129567300Y-96003767D01*
X129567287Y-96003748D01*
X129339552Y-95776013D01*
X129071763Y-95597082D01*
X128774212Y-95473832D01*
X128458333Y-95411000D01*
X128136267Y-95411000D01*
X127820388Y-95473832D01*
X127522837Y-95597082D01*
X127255048Y-95776013D01*
X127027313Y-96003748D01*
X127027300Y-96003767D01*
X127027287Y-96003748D01*
X126799552Y-95776013D01*
X126531763Y-95597082D01*
X126234212Y-95473832D01*
X125918333Y-95411000D01*
X125596267Y-95411000D01*
X125280388Y-95473832D01*
X124982837Y-95597082D01*
X124715048Y-95776013D01*
X124487313Y-96003748D01*
X124487300Y-96003767D01*
X124487287Y-96003748D01*
X124259552Y-95776013D01*
X123991763Y-95597082D01*
X123694212Y-95473832D01*
X123378333Y-95411000D01*
X123056267Y-95411000D01*
X122740388Y-95473832D01*
X122442837Y-95597082D01*
X122175048Y-95776013D01*
X121947313Y-96003748D01*
X121947300Y-96003767D01*
X121947287Y-96003748D01*
X121719552Y-95776013D01*
X121451763Y-95597082D01*
X121154212Y-95473832D01*
X120838333Y-95411000D01*
X120516267Y-95411000D01*
X120200388Y-95473832D01*
X119902837Y-95597082D01*
X119635048Y-95776013D01*
X119407313Y-96003748D01*
X119407300Y-96003767D01*
X119407287Y-96003748D01*
X119179552Y-95776013D01*
X118911763Y-95597082D01*
X118614212Y-95473832D01*
X118298333Y-95411000D01*
X117976267Y-95411000D01*
X117660388Y-95473832D01*
X117362837Y-95597082D01*
X117095048Y-95776013D01*
X116867313Y-96003748D01*
X116867300Y-96003767D01*
X116867287Y-96003748D01*
X116639552Y-95776013D01*
X116371763Y-95597082D01*
X116074212Y-95473832D01*
X115758333Y-95411000D01*
X115436267Y-95411000D01*
X115120388Y-95473832D01*
X114822837Y-95597082D01*
X114555048Y-95776013D01*
X114327313Y-96003748D01*
X114148382Y-96271537D01*
X114025132Y-96569088D01*
X113962300Y-96884967D01*
X112926879Y-96884967D01*
X113128927Y-96397181D01*
X113160931Y-96298684D01*
X113399038Y-95306898D01*
X113415239Y-95204607D01*
X113447397Y-94796000D01*
X174227203Y-94796000D01*
X174259361Y-95204607D01*
G37*
X174259361Y-95204607D02*
X174275562Y-95306898D01*
X174513669Y-96298684D01*
X174545672Y-96397181D01*
X174935997Y-97339509D01*
X174959507Y-97385648D01*
X174983015Y-97431787D01*
X175515947Y-98301453D01*
X175542129Y-98337489D01*
X175576822Y-98385240D01*
X176239238Y-99160830D01*
X176312470Y-99234062D01*
X177088060Y-99896478D01*
X177171847Y-99957353D01*
X178041513Y-100490284D01*
X178133791Y-100537303D01*
X179076119Y-100927627D01*
X179174616Y-100959631D01*
X180166402Y-101197738D01*
X180268693Y-101213939D01*
X180677300Y-101246097D01*
X180677301Y-136025903D01*
X180268693Y-136058061D01*
X180166402Y-136074262D01*
X179174616Y-136312369D01*
X179076119Y-136344373D01*
X178133791Y-136734697D01*
X178042918Y-136781000D01*
X178041513Y-136781716D01*
X177171847Y-137314647D01*
X177088060Y-137375522D01*
X176312470Y-138037938D01*
X176239238Y-138111170D01*
X175576822Y-138886760D01*
X175546384Y-138928654D01*
X175515947Y-138970547D01*
X174983015Y-139840213D01*
X174963692Y-139878138D01*
X174935997Y-139932491D01*
X174545672Y-140874819D01*
X174516237Y-140965411D01*
X174513669Y-140973316D01*
X174275562Y-141965102D01*
X174259361Y-142067393D01*
X174227203Y-142476000D01*
X113447397Y-142476000D01*
X113415239Y-142067393D01*
X113399038Y-141965102D01*
X113160931Y-140973316D01*
X113128927Y-140874819D01*
X112738603Y-139932491D01*
X112691584Y-139840213D01*
X112158653Y-138970547D01*
X112097778Y-138886760D01*
X111704014Y-138425721D01*
X116702300Y-138425721D01*
X116702300Y-138846279D01*
X116784347Y-139258756D01*
X116945288Y-139647302D01*
X117178937Y-139996983D01*
X117476317Y-140294363D01*
X117825998Y-140528012D01*
X118214544Y-140688953D01*
X118627021Y-140771000D01*
X119047579Y-140771000D01*
X119460056Y-140688953D01*
X119848602Y-140528012D01*
X120198283Y-140294363D01*
X120495663Y-139996983D01*
X120729312Y-139647302D01*
X120890253Y-139258756D01*
X120972300Y-138846279D01*
X120972300Y-138425721D01*
X120890253Y-138013244D01*
X120729312Y-137624698D01*
X120495663Y-137275017D01*
X120198283Y-136977637D01*
X119848602Y-136743988D01*
X119460056Y-136583047D01*
X119047579Y-136501000D01*
X118627021Y-136501000D01*
X118214544Y-136583047D01*
X117825998Y-136743988D01*
X117476317Y-136977637D01*
X117178937Y-137275017D01*
X116945288Y-137624698D01*
X116784347Y-138013244D01*
X116702300Y-138425721D01*
X111704014Y-138425721D01*
X111435362Y-138111170D01*
X111362130Y-138037938D01*
X110586540Y-137375522D01*
X110518084Y-137325786D01*
X110502753Y-137314647D01*
X109633087Y-136781715D01*
X109540809Y-136734697D01*
X108598481Y-136344372D01*
X108499984Y-136312369D01*
X107508198Y-136074262D01*
X107405907Y-136058061D01*
X106997300Y-136025903D01*
X106997300Y-118425721D01*
X109702300Y-118425721D01*
X109702300Y-118846279D01*
X109784347Y-119258756D01*
X109945288Y-119647302D01*
X110178937Y-119996983D01*
X110476317Y-120294363D01*
X110825998Y-120528012D01*
X111214544Y-120688953D01*
X111627021Y-120771000D01*
X112047579Y-120771000D01*
X112460056Y-120688953D01*
X112848602Y-120528012D01*
X113198283Y-120294363D01*
X113495663Y-119996983D01*
X113729312Y-119647302D01*
X113890253Y-119258756D01*
X113972300Y-118846279D01*
X113972300Y-118425721D01*
X113890253Y-118013244D01*
X113729312Y-117624698D01*
X113495663Y-117275017D01*
X113198283Y-116977637D01*
X112848602Y-116743988D01*
X112460056Y-116583047D01*
X112047579Y-116501000D01*
X111627021Y-116501000D01*
X111214544Y-116583047D01*
X110825998Y-116743988D01*
X110476317Y-116977637D01*
X110178937Y-117275017D01*
X109945288Y-117624698D01*
X109784347Y-118013244D01*
X109702300Y-118425721D01*
X106997300Y-118425721D01*
X106997300Y-101246097D01*
X107405907Y-101213939D01*
X107508198Y-101197738D01*
X108499984Y-100959631D01*
X108502415Y-100958841D01*
X108598481Y-100927628D01*
X109540809Y-100537303D01*
X109633087Y-100490285D01*
X110502753Y-99957353D01*
X110544646Y-99926915D01*
X110586540Y-99896478D01*
X111362130Y-99234062D01*
X111435363Y-99160829D01*
X112097778Y-98385240D01*
X112158653Y-98301453D01*
X112158654Y-98301452D01*
X112691584Y-97431787D01*
X112738603Y-97339509D01*
X112926879Y-96884967D01*
X113962300Y-96884967D01*
X113962300Y-97207033D01*
X114025132Y-97522912D01*
X114148382Y-97820463D01*
X114327313Y-98088252D01*
X114426509Y-98187448D01*
X114392806Y-98205463D01*
X114296115Y-98284815D01*
X114216763Y-98381506D01*
X114157798Y-98491820D01*
X114121488Y-98611518D01*
X114109228Y-98736000D01*
X114109228Y-100436000D01*
X114121488Y-100560482D01*
X114157798Y-100680180D01*
X114216763Y-100790494D01*
X114296115Y-100887185D01*
X114392806Y-100966537D01*
X114426509Y-100984552D01*
X114327313Y-101083748D01*
X114148382Y-101351537D01*
X114025132Y-101649088D01*
X113962300Y-101964967D01*
X113962300Y-102287033D01*
X114025132Y-102602912D01*
X114148382Y-102900463D01*
X114327313Y-103168252D01*
X114555048Y-103395987D01*
X114555067Y-103396000D01*
X114555048Y-103396013D01*
X114327313Y-103623748D01*
X114148382Y-103891537D01*
X114025132Y-104189088D01*
X113962300Y-104504967D01*
X113962300Y-104827033D01*
X114025132Y-105142912D01*
X114148382Y-105440463D01*
X114327313Y-105708252D01*
X114555048Y-105935987D01*
X114555067Y-105936000D01*
X114555048Y-105936013D01*
X114327313Y-106163748D01*
X114148382Y-106431537D01*
X114025132Y-106729088D01*
X113962300Y-107044967D01*
X113962300Y-107367033D01*
X114025132Y-107682912D01*
X114148382Y-107980463D01*
X114327313Y-108248252D01*
X114555048Y-108475987D01*
X114555067Y-108476000D01*
X114555048Y-108476013D01*
X114327313Y-108703748D01*
X114148382Y-108971537D01*
X114025132Y-109269088D01*
X113962300Y-109584967D01*
X113962300Y-109907033D01*
X114025132Y-110222912D01*
X114148382Y-110520463D01*
X114327313Y-110788252D01*
X114555048Y-111015987D01*
X114555067Y-111016000D01*
X114555048Y-111016013D01*
X114327313Y-111243748D01*
X114148382Y-111511537D01*
X114025132Y-111809088D01*
X113962300Y-112124967D01*
X113962300Y-112447033D01*
X114025132Y-112762912D01*
X114148382Y-113060463D01*
X114327313Y-113328252D01*
X114555048Y-113555987D01*
X114555067Y-113556000D01*
X114555048Y-113556013D01*
X114327313Y-113783748D01*
X114148382Y-114051537D01*
X114025132Y-114349088D01*
X113962300Y-114664967D01*
X113962300Y-114987033D01*
X114025132Y-115302912D01*
X114148382Y-115600463D01*
X114327313Y-115868252D01*
X114426509Y-115967448D01*
X114392806Y-115985463D01*
X114296115Y-116064815D01*
X114216763Y-116161506D01*
X114157798Y-116271820D01*
X114121488Y-116391518D01*
X114109228Y-116516000D01*
X114109228Y-118216000D01*
X114121488Y-118340482D01*
X114157798Y-118460180D01*
X114216763Y-118570494D01*
X114270522Y-118636000D01*
X114216763Y-118701506D01*
X114157798Y-118811820D01*
X114121488Y-118931518D01*
X114109228Y-119056000D01*
X114109228Y-120756000D01*
X114121488Y-120880482D01*
X114157798Y-121000180D01*
X114216763Y-121110494D01*
X114270522Y-121176000D01*
X114216763Y-121241506D01*
X114157798Y-121351820D01*
X114121488Y-121471518D01*
X114109228Y-121596000D01*
X114109228Y-123296000D01*
X114121488Y-123420482D01*
X114157798Y-123540180D01*
X114216763Y-123650494D01*
X114270522Y-123716000D01*
X114216763Y-123781506D01*
X114157798Y-123891820D01*
X114121488Y-124011518D01*
X114109228Y-124136000D01*
X114109228Y-125836000D01*
X114121488Y-125960482D01*
X114157798Y-126080180D01*
X114216763Y-126190494D01*
X114270522Y-126256000D01*
X114216763Y-126321506D01*
X114157798Y-126431820D01*
X114121488Y-126551518D01*
X114109228Y-126676000D01*
X114109228Y-128376000D01*
X114121488Y-128500482D01*
X114157798Y-128620180D01*
X114216763Y-128730494D01*
X114296115Y-128827185D01*
X114392806Y-128906537D01*
X114426509Y-128924552D01*
X114327313Y-129023748D01*
X114148382Y-129291537D01*
X114025132Y-129589088D01*
X113962300Y-129904967D01*
X113962300Y-130227033D01*
X114025132Y-130542912D01*
X114148382Y-130840463D01*
X114327313Y-131108252D01*
X114555048Y-131335987D01*
X114555067Y-131336000D01*
X114555048Y-131336013D01*
X114327313Y-131563748D01*
X114148382Y-131831537D01*
X114025132Y-132129088D01*
X113962300Y-132444967D01*
X113962300Y-132767033D01*
X114025132Y-133082912D01*
X114148382Y-133380463D01*
X114327313Y-133648252D01*
X114555048Y-133875987D01*
X114822837Y-134054918D01*
X115120388Y-134178168D01*
X115436267Y-134241000D01*
X115758333Y-134241000D01*
X116074212Y-134178168D01*
X116371763Y-134054918D01*
X116639552Y-133875987D01*
X116867287Y-133648252D01*
X116867300Y-133648233D01*
X116867313Y-133648252D01*
X117095048Y-133875987D01*
X117362837Y-134054918D01*
X117660388Y-134178168D01*
X117976267Y-134241000D01*
X118298333Y-134241000D01*
X118614212Y-134178168D01*
X118911763Y-134054918D01*
X119179552Y-133875987D01*
X119407287Y-133648252D01*
X119407300Y-133648233D01*
X119407313Y-133648252D01*
X119635048Y-133875987D01*
X119902837Y-134054918D01*
X120200388Y-134178168D01*
X120516267Y-134241000D01*
X120838333Y-134241000D01*
X121154212Y-134178168D01*
X121451763Y-134054918D01*
X121719552Y-133875987D01*
X121947287Y-133648252D01*
X121947300Y-133648233D01*
X121947313Y-133648252D01*
X122175048Y-133875987D01*
X122442837Y-134054918D01*
X122740388Y-134178168D01*
X123056267Y-134241000D01*
X123378333Y-134241000D01*
X123694212Y-134178168D01*
X123991763Y-134054918D01*
X124259552Y-133875987D01*
X124487287Y-133648252D01*
X124487300Y-133648233D01*
X124487313Y-133648252D01*
X124715048Y-133875987D01*
X124715067Y-133876000D01*
X124715048Y-133876013D01*
X124487313Y-134103748D01*
X124308382Y-134371537D01*
X124185132Y-134669088D01*
X124122300Y-134984967D01*
X124122300Y-135307033D01*
X124185132Y-135622912D01*
X124308382Y-135920463D01*
X124487313Y-136188252D01*
X124715048Y-136415987D01*
X124715067Y-136416000D01*
X124715048Y-136416013D01*
X124487313Y-136643748D01*
X124308382Y-136911537D01*
X124185132Y-137209088D01*
X124122300Y-137524967D01*
X124122300Y-137847033D01*
X124185132Y-138162912D01*
X124308382Y-138460463D01*
X124487313Y-138728252D01*
X124715048Y-138955987D01*
X124715067Y-138956000D01*
X124715048Y-138956013D01*
X124487313Y-139183748D01*
X124308382Y-139451537D01*
X124185132Y-139749088D01*
X124122300Y-140064967D01*
X124122300Y-140387033D01*
X124185132Y-140702912D01*
X124308382Y-141000463D01*
X124487313Y-141268252D01*
X124715048Y-141495987D01*
X124982837Y-141674918D01*
X125280388Y-141798168D01*
X125596267Y-141861000D01*
X125918333Y-141861000D01*
X126234212Y-141798168D01*
X126531763Y-141674918D01*
X126799552Y-141495987D01*
X127027287Y-141268252D01*
X127027300Y-141268233D01*
X127027313Y-141268252D01*
X127255048Y-141495987D01*
X127522837Y-141674918D01*
X127820388Y-141798168D01*
X128136267Y-141861000D01*
X128458333Y-141861000D01*
X128774212Y-141798168D01*
X129071763Y-141674918D01*
X129339552Y-141495987D01*
X129567287Y-141268252D01*
X129567300Y-141268233D01*
X129567313Y-141268252D01*
X129795048Y-141495987D01*
X130062837Y-141674918D01*
X130360388Y-141798168D01*
X130676267Y-141861000D01*
X130998333Y-141861000D01*
X131314212Y-141798168D01*
X131611763Y-141674918D01*
X131879552Y-141495987D01*
X132107287Y-141268252D01*
X132107300Y-141268233D01*
X132107313Y-141268252D01*
X132335048Y-141495987D01*
X132602837Y-141674918D01*
X132900388Y-141798168D01*
X133216267Y-141861000D01*
X133538333Y-141861000D01*
X133854212Y-141798168D01*
X134151763Y-141674918D01*
X134419552Y-141495987D01*
X134647287Y-141268252D01*
X134647300Y-141268233D01*
X134647313Y-141268252D01*
X134875048Y-141495987D01*
X135142837Y-141674918D01*
X135440388Y-141798168D01*
X135756267Y-141861000D01*
X136078333Y-141861000D01*
X136394212Y-141798168D01*
X136691763Y-141674918D01*
X136959552Y-141495987D01*
X137187287Y-141268252D01*
X137187300Y-141268233D01*
X137187313Y-141268252D01*
X137415048Y-141495987D01*
X137682837Y-141674918D01*
X137980388Y-141798168D01*
X138296267Y-141861000D01*
X138618333Y-141861000D01*
X138934212Y-141798168D01*
X139231763Y-141674918D01*
X139499552Y-141495987D01*
X139727287Y-141268252D01*
X139727300Y-141268233D01*
X139727313Y-141268252D01*
X139955048Y-141495987D01*
X140222837Y-141674918D01*
X140520388Y-141798168D01*
X140836267Y-141861000D01*
X141158333Y-141861000D01*
X141474212Y-141798168D01*
X141771763Y-141674918D01*
X142039552Y-141495987D01*
X142267287Y-141268252D01*
X142267300Y-141268233D01*
X142267313Y-141268252D01*
X142495048Y-141495987D01*
X142762837Y-141674918D01*
X143060388Y-141798168D01*
X143376267Y-141861000D01*
X143698333Y-141861000D01*
X144014212Y-141798168D01*
X144311763Y-141674918D01*
X144579552Y-141495987D01*
X144807287Y-141268252D01*
X144807300Y-141268233D01*
X144807313Y-141268252D01*
X145035048Y-141495987D01*
X145302837Y-141674918D01*
X145600388Y-141798168D01*
X145916267Y-141861000D01*
X146238333Y-141861000D01*
X146554212Y-141798168D01*
X146851763Y-141674918D01*
X147119552Y-141495987D01*
X147347287Y-141268252D01*
X147347300Y-141268233D01*
X147347313Y-141268252D01*
X147575048Y-141495987D01*
X147842837Y-141674918D01*
X148140388Y-141798168D01*
X148456267Y-141861000D01*
X148778333Y-141861000D01*
X149094212Y-141798168D01*
X149391763Y-141674918D01*
X149659552Y-141495987D01*
X149887287Y-141268252D01*
X149887300Y-141268233D01*
X149887313Y-141268252D01*
X150115048Y-141495987D01*
X150382837Y-141674918D01*
X150680388Y-141798168D01*
X150996267Y-141861000D01*
X151318333Y-141861000D01*
X151634212Y-141798168D01*
X151931763Y-141674918D01*
X152199552Y-141495987D01*
X152427287Y-141268252D01*
X152427300Y-141268233D01*
X152427313Y-141268252D01*
X152655048Y-141495987D01*
X152922837Y-141674918D01*
X153220388Y-141798168D01*
X153536267Y-141861000D01*
X153858333Y-141861000D01*
X154174212Y-141798168D01*
X154471763Y-141674918D01*
X154739552Y-141495987D01*
X154967287Y-141268252D01*
X154967300Y-141268233D01*
X154967313Y-141268252D01*
X155195048Y-141495987D01*
X155462837Y-141674918D01*
X155760388Y-141798168D01*
X156076267Y-141861000D01*
X156398333Y-141861000D01*
X156714212Y-141798168D01*
X157011763Y-141674918D01*
X157279552Y-141495987D01*
X157507287Y-141268252D01*
X157507300Y-141268233D01*
X157507313Y-141268252D01*
X157735048Y-141495987D01*
X158002837Y-141674918D01*
X158300388Y-141798168D01*
X158616267Y-141861000D01*
X158938333Y-141861000D01*
X159254212Y-141798168D01*
X159551763Y-141674918D01*
X159819552Y-141495987D01*
X160047287Y-141268252D01*
X160047300Y-141268233D01*
X160047313Y-141268252D01*
X160275048Y-141495987D01*
X160542837Y-141674918D01*
X160840388Y-141798168D01*
X161156267Y-141861000D01*
X161478333Y-141861000D01*
X161794212Y-141798168D01*
X162091763Y-141674918D01*
X162359552Y-141495987D01*
X162587287Y-141268252D01*
X162587300Y-141268233D01*
X162587313Y-141268252D01*
X162815048Y-141495987D01*
X163082837Y-141674918D01*
X163380388Y-141798168D01*
X163696267Y-141861000D01*
X164018333Y-141861000D01*
X164334212Y-141798168D01*
X164631763Y-141674918D01*
X164899552Y-141495987D01*
X165127287Y-141268252D01*
X165306218Y-141000463D01*
X165429468Y-140702912D01*
X165492300Y-140387033D01*
X165492300Y-140064967D01*
X165429468Y-139749088D01*
X165306218Y-139451537D01*
X165127287Y-139183748D01*
X164899552Y-138956013D01*
X164899533Y-138956000D01*
X164899552Y-138955987D01*
X165127287Y-138728252D01*
X165306218Y-138460463D01*
X165320608Y-138425721D01*
X166702300Y-138425721D01*
X166702300Y-138846279D01*
X166784347Y-139258756D01*
X166945288Y-139647302D01*
X167178937Y-139996983D01*
X167476317Y-140294363D01*
X167825998Y-140528012D01*
X168214544Y-140688953D01*
X168627021Y-140771000D01*
X169047579Y-140771000D01*
X169460056Y-140688953D01*
X169848602Y-140528012D01*
X170198283Y-140294363D01*
X170495663Y-139996983D01*
X170729312Y-139647302D01*
X170890253Y-139258756D01*
X170972300Y-138846279D01*
X170972300Y-138425721D01*
X170890253Y-138013244D01*
X170729312Y-137624698D01*
X170495663Y-137275017D01*
X170198283Y-136977637D01*
X169848602Y-136743988D01*
X169460056Y-136583047D01*
X169047579Y-136501000D01*
X168627021Y-136501000D01*
X168214544Y-136583047D01*
X167825998Y-136743988D01*
X167476317Y-136977637D01*
X167178937Y-137275017D01*
X166945288Y-137624698D01*
X166784347Y-138013244D01*
X166702300Y-138425721D01*
X165320608Y-138425721D01*
X165429468Y-138162912D01*
X165492300Y-137847033D01*
X165492300Y-137524967D01*
X165429468Y-137209088D01*
X165306218Y-136911537D01*
X165127287Y-136643748D01*
X164899552Y-136416013D01*
X164899533Y-136416000D01*
X164899552Y-136415987D01*
X165127287Y-136188252D01*
X165306218Y-135920463D01*
X165429468Y-135622912D01*
X165492300Y-135307033D01*
X165492300Y-134984967D01*
X165429468Y-134669088D01*
X165306218Y-134371537D01*
X165127287Y-134103748D01*
X164899552Y-133876013D01*
X164899533Y-133876000D01*
X164899552Y-133875987D01*
X165127287Y-133648252D01*
X165306218Y-133380463D01*
X165373407Y-133218254D01*
X165622837Y-133384918D01*
X165920388Y-133508168D01*
X166236267Y-133571000D01*
X166558333Y-133571000D01*
X166874212Y-133508168D01*
X167171763Y-133384918D01*
X167439552Y-133205987D01*
X167667287Y-132978252D01*
X167772359Y-132821000D01*
X171499228Y-132821000D01*
X171499228Y-133136000D01*
X171511488Y-133260482D01*
X171547798Y-133380180D01*
X171606763Y-133490494D01*
X171686115Y-133587185D01*
X171782806Y-133666537D01*
X171893120Y-133725502D01*
X172012818Y-133761812D01*
X172137300Y-133774072D01*
X174537300Y-133774072D01*
X174661782Y-133761812D01*
X174781480Y-133725502D01*
X174891794Y-133666537D01*
X174988485Y-133587185D01*
X175067837Y-133490494D01*
X175126802Y-133380180D01*
X175163112Y-133260482D01*
X175175372Y-133136000D01*
X175175372Y-130736000D01*
X175163112Y-130611518D01*
X175126802Y-130491820D01*
X175067837Y-130381506D01*
X174988485Y-130284815D01*
X174891794Y-130205463D01*
X174781480Y-130146498D01*
X174661782Y-130110188D01*
X174537300Y-130097928D01*
X174120138Y-130097928D01*
X174206499Y-130062156D01*
X174507044Y-129861338D01*
X174762638Y-129605744D01*
X174963456Y-129305199D01*
X175101782Y-128971250D01*
X175172300Y-128616732D01*
X175172300Y-128255268D01*
X175101782Y-127900750D01*
X174963456Y-127566801D01*
X174762638Y-127266256D01*
X174507044Y-127010662D01*
X174206499Y-126809844D01*
X173907513Y-126686000D01*
X174206499Y-126562156D01*
X174507044Y-126361338D01*
X174762638Y-126105744D01*
X174963456Y-125805199D01*
X175101782Y-125471250D01*
X175172300Y-125116732D01*
X175172300Y-124755268D01*
X175101782Y-124400750D01*
X174963456Y-124066801D01*
X174762638Y-123766256D01*
X174507044Y-123510662D01*
X174206499Y-123309844D01*
X173872550Y-123171518D01*
X173518032Y-123101000D01*
X173156568Y-123101000D01*
X172802050Y-123171518D01*
X172468101Y-123309844D01*
X172167556Y-123510662D01*
X171911962Y-123766256D01*
X171721702Y-124051000D01*
X167772359Y-124051000D01*
X167667287Y-123893748D01*
X167439552Y-123666013D01*
X167171763Y-123487082D01*
X166874212Y-123363832D01*
X166558333Y-123301000D01*
X166236267Y-123301000D01*
X165920388Y-123363832D01*
X165622837Y-123487082D01*
X165355048Y-123666013D01*
X165127313Y-123893748D01*
X165020394Y-124053764D01*
X165010775Y-124039368D01*
X164803932Y-123832525D01*
X164742300Y-123791344D01*
X164742300Y-123640656D01*
X164803932Y-123599475D01*
X165010775Y-123392632D01*
X165173290Y-123149411D01*
X165285232Y-122879158D01*
X165342300Y-122592260D01*
X165342300Y-122299740D01*
X165285232Y-122012842D01*
X165173290Y-121742589D01*
X165010775Y-121499368D01*
X164803932Y-121292525D01*
X164742300Y-121251344D01*
X164742300Y-121100656D01*
X164803932Y-121059475D01*
X164822357Y-121041050D01*
X167981855Y-121041050D01*
X168077558Y-121305399D01*
X168367087Y-121446238D01*
X168678529Y-121527885D01*
X168999915Y-121547205D01*
X169318895Y-121503454D01*
X169623211Y-121398314D01*
X169797042Y-121305399D01*
X169892745Y-121041050D01*
X168937300Y-120085605D01*
X167981855Y-121041050D01*
X164822357Y-121041050D01*
X165010775Y-120852632D01*
X165173290Y-120609411D01*
X165285232Y-120339158D01*
X165342300Y-120052260D01*
X165342300Y-119968615D01*
X167296095Y-119968615D01*
X167339846Y-120287595D01*
X167444986Y-120591911D01*
X167537901Y-120765742D01*
X167802250Y-120861445D01*
X168757695Y-119906000D01*
X169116905Y-119906000D01*
X170072350Y-120861445D01*
X170336699Y-120765742D01*
X170477538Y-120476213D01*
X170559185Y-120164771D01*
X170578505Y-119843385D01*
X170534754Y-119524405D01*
X170429614Y-119220089D01*
X170336699Y-119046258D01*
X170072350Y-118950555D01*
X169116905Y-119906000D01*
X168757695Y-119906000D01*
X167802250Y-118950555D01*
X167537901Y-119046258D01*
X167397062Y-119335787D01*
X167315415Y-119647229D01*
X167296095Y-119968615D01*
X165342300Y-119968615D01*
X165342300Y-119759740D01*
X165285232Y-119472842D01*
X165173290Y-119202589D01*
X165010775Y-118959368D01*
X164803932Y-118752525D01*
X164742300Y-118711344D01*
X164742300Y-118560656D01*
X164803932Y-118519475D01*
X164822357Y-118501050D01*
X167981855Y-118501050D01*
X168030711Y-118636000D01*
X167981855Y-118770950D01*
X168937300Y-119726395D01*
X169892745Y-118770950D01*
X169843889Y-118636000D01*
X169892745Y-118501050D01*
X169817416Y-118425721D01*
X173702300Y-118425721D01*
X173702300Y-118846279D01*
X173784347Y-119258756D01*
X173945288Y-119647302D01*
X174178937Y-119996983D01*
X174476317Y-120294363D01*
X174825998Y-120528012D01*
X175214544Y-120688953D01*
X175627021Y-120771000D01*
X176047579Y-120771000D01*
X176460056Y-120688953D01*
X176848602Y-120528012D01*
X177198283Y-120294363D01*
X177495663Y-119996983D01*
X177729312Y-119647302D01*
X177890253Y-119258756D01*
X177972300Y-118846279D01*
X177972300Y-118425721D01*
X177890253Y-118013244D01*
X177729312Y-117624698D01*
X177495663Y-117275017D01*
X177198283Y-116977637D01*
X176848602Y-116743988D01*
X176460056Y-116583047D01*
X176047579Y-116501000D01*
X175627021Y-116501000D01*
X175214544Y-116583047D01*
X174825998Y-116743988D01*
X174476317Y-116977637D01*
X174178937Y-117275017D01*
X173945288Y-117624698D01*
X173784347Y-118013244D01*
X173702300Y-118425721D01*
X169817416Y-118425721D01*
X168937300Y-117545605D01*
X167981855Y-118501050D01*
X164822357Y-118501050D01*
X165010775Y-118312632D01*
X165173290Y-118069411D01*
X165285232Y-117799158D01*
X165342300Y-117512260D01*
X165342300Y-117428615D01*
X167296095Y-117428615D01*
X167339846Y-117747595D01*
X167444986Y-118051911D01*
X167537901Y-118225742D01*
X167802250Y-118321445D01*
X168757695Y-117366000D01*
X169116905Y-117366000D01*
X170072350Y-118321445D01*
X170336699Y-118225742D01*
X170477538Y-117936213D01*
X170559185Y-117624771D01*
X170578505Y-117303385D01*
X170534754Y-116984405D01*
X170429614Y-116680089D01*
X170336699Y-116506258D01*
X170072350Y-116410555D01*
X169116905Y-117366000D01*
X168757695Y-117366000D01*
X167802250Y-116410555D01*
X167537901Y-116506258D01*
X167397062Y-116795787D01*
X167315415Y-117107229D01*
X167296095Y-117428615D01*
X165342300Y-117428615D01*
X165342300Y-117219740D01*
X165285232Y-116932842D01*
X165173290Y-116662589D01*
X165010775Y-116419368D01*
X164822357Y-116230950D01*
X167981855Y-116230950D01*
X168937300Y-117186395D01*
X169892745Y-116230950D01*
X169797042Y-115966601D01*
X169507513Y-115825762D01*
X169196071Y-115744115D01*
X168874685Y-115724795D01*
X168555705Y-115768546D01*
X168251389Y-115873686D01*
X168077558Y-115966601D01*
X167981855Y-116230950D01*
X164822357Y-116230950D01*
X164803932Y-116212525D01*
X164764536Y-116186202D01*
X164899552Y-116095987D01*
X165127287Y-115868252D01*
X165306218Y-115600463D01*
X165429468Y-115302912D01*
X165492300Y-114987033D01*
X165492300Y-114664967D01*
X165429468Y-114349088D01*
X165306218Y-114051537D01*
X165127287Y-113783748D01*
X164899552Y-113556013D01*
X164899533Y-113556000D01*
X164899552Y-113555987D01*
X165107275Y-113348264D01*
X165127313Y-113378252D01*
X165355048Y-113605987D01*
X165622837Y-113784918D01*
X165920388Y-113908168D01*
X166236267Y-113971000D01*
X166558333Y-113971000D01*
X166874212Y-113908168D01*
X167171763Y-113784918D01*
X167439552Y-113605987D01*
X167667287Y-113378252D01*
X167772359Y-113221000D01*
X171499228Y-113221000D01*
X171499228Y-113536000D01*
X171511488Y-113660482D01*
X171547798Y-113780180D01*
X171606763Y-113890494D01*
X171686115Y-113987185D01*
X171782806Y-114066537D01*
X171893120Y-114125502D01*
X172012818Y-114161812D01*
X172137300Y-114174072D01*
X174537300Y-114174072D01*
X174661782Y-114161812D01*
X174781480Y-114125502D01*
X174891794Y-114066537D01*
X174988485Y-113987185D01*
X175067837Y-113890494D01*
X175126802Y-113780180D01*
X175163112Y-113660482D01*
X175175372Y-113536000D01*
X175175372Y-111136000D01*
X175163112Y-111011518D01*
X175126802Y-110891820D01*
X175067837Y-110781506D01*
X174988485Y-110684815D01*
X174891794Y-110605463D01*
X174781480Y-110546498D01*
X174661782Y-110510188D01*
X174537300Y-110497928D01*
X174120138Y-110497928D01*
X174206499Y-110462156D01*
X174507044Y-110261338D01*
X174762638Y-110005744D01*
X174963456Y-109705199D01*
X175101782Y-109371250D01*
X175172300Y-109016732D01*
X175172300Y-108655268D01*
X175101782Y-108300750D01*
X174963456Y-107966801D01*
X174762638Y-107666256D01*
X174507044Y-107410662D01*
X174206499Y-107209844D01*
X173907513Y-107086000D01*
X174206499Y-106962156D01*
X174507044Y-106761338D01*
X174762638Y-106505744D01*
X174963456Y-106205199D01*
X175101782Y-105871250D01*
X175172300Y-105516732D01*
X175172300Y-105155268D01*
X175101782Y-104800750D01*
X174963456Y-104466801D01*
X174762638Y-104166256D01*
X174507044Y-103910662D01*
X174206499Y-103709844D01*
X173872550Y-103571518D01*
X173518032Y-103501000D01*
X173156568Y-103501000D01*
X172802050Y-103571518D01*
X172468101Y-103709844D01*
X172167556Y-103910662D01*
X171911962Y-104166256D01*
X171721702Y-104451000D01*
X167772359Y-104451000D01*
X167667287Y-104293748D01*
X167439552Y-104066013D01*
X167171763Y-103887082D01*
X166874212Y-103763832D01*
X166558333Y-103701000D01*
X166236267Y-103701000D01*
X165920388Y-103763832D01*
X165622837Y-103887082D01*
X165373407Y-104053746D01*
X165306218Y-103891537D01*
X165127287Y-103623748D01*
X164899552Y-103396013D01*
X164899533Y-103396000D01*
X164899552Y-103395987D01*
X165127287Y-103168252D01*
X165306218Y-102900463D01*
X165429468Y-102602912D01*
X165492300Y-102287033D01*
X165492300Y-101964967D01*
X165429468Y-101649088D01*
X165306218Y-101351537D01*
X165127287Y-101083748D01*
X164899552Y-100856013D01*
X164764536Y-100765798D01*
X164803932Y-100739475D01*
X165010775Y-100532632D01*
X165173290Y-100289411D01*
X165285232Y-100019158D01*
X165342300Y-99732260D01*
X165342300Y-99439740D01*
X165285232Y-99152842D01*
X165173290Y-98882589D01*
X165010775Y-98639368D01*
X164803932Y-98432525D01*
X164793749Y-98425721D01*
X166702300Y-98425721D01*
X166702300Y-98846279D01*
X166784347Y-99258756D01*
X166945288Y-99647302D01*
X167178937Y-99996983D01*
X167476317Y-100294363D01*
X167825998Y-100528012D01*
X168214544Y-100688953D01*
X168627021Y-100771000D01*
X169047579Y-100771000D01*
X169460056Y-100688953D01*
X169848602Y-100528012D01*
X170198283Y-100294363D01*
X170495663Y-99996983D01*
X170729312Y-99647302D01*
X170890253Y-99258756D01*
X170972300Y-98846279D01*
X170972300Y-98425721D01*
X170890253Y-98013244D01*
X170729312Y-97624698D01*
X170495663Y-97275017D01*
X170198283Y-96977637D01*
X169848602Y-96743988D01*
X169460056Y-96583047D01*
X169047579Y-96501000D01*
X168627021Y-96501000D01*
X168214544Y-96583047D01*
X167825998Y-96743988D01*
X167476317Y-96977637D01*
X167178937Y-97275017D01*
X166945288Y-97624698D01*
X166784347Y-98013244D01*
X166702300Y-98425721D01*
X164793749Y-98425721D01*
X164791200Y-98424018D01*
X164791200Y-98388386D01*
X164899552Y-98315987D01*
X165127287Y-98088252D01*
X165306218Y-97820463D01*
X165429468Y-97522912D01*
X165492300Y-97207033D01*
X165492300Y-96884967D01*
X165429468Y-96569088D01*
X165306218Y-96271537D01*
X165127287Y-96003748D01*
X164899552Y-95776013D01*
X164631763Y-95597082D01*
X164334212Y-95473832D01*
X164018333Y-95411000D01*
X163696267Y-95411000D01*
X163380388Y-95473832D01*
X163082837Y-95597082D01*
X162815048Y-95776013D01*
X162587313Y-96003748D01*
X162587300Y-96003767D01*
X162587287Y-96003748D01*
X162359552Y-95776013D01*
X162091763Y-95597082D01*
X161794212Y-95473832D01*
X161478333Y-95411000D01*
X161156267Y-95411000D01*
X160840388Y-95473832D01*
X160542837Y-95597082D01*
X160275048Y-95776013D01*
X160047313Y-96003748D01*
X160047300Y-96003767D01*
X160047287Y-96003748D01*
X159819552Y-95776013D01*
X159551763Y-95597082D01*
X159254212Y-95473832D01*
X158938333Y-95411000D01*
X158616267Y-95411000D01*
X158300388Y-95473832D01*
X158002837Y-95597082D01*
X157735048Y-95776013D01*
X157507313Y-96003748D01*
X157507300Y-96003767D01*
X157507287Y-96003748D01*
X157279552Y-95776013D01*
X157011763Y-95597082D01*
X156714212Y-95473832D01*
X156398333Y-95411000D01*
X156076267Y-95411000D01*
X155760388Y-95473832D01*
X155462837Y-95597082D01*
X155195048Y-95776013D01*
X154967313Y-96003748D01*
X154967300Y-96003767D01*
X154967287Y-96003748D01*
X154739552Y-95776013D01*
X154471763Y-95597082D01*
X154174212Y-95473832D01*
X153858333Y-95411000D01*
X153536267Y-95411000D01*
X153220388Y-95473832D01*
X152922837Y-95597082D01*
X152655048Y-95776013D01*
X152427313Y-96003748D01*
X152427300Y-96003767D01*
X152427287Y-96003748D01*
X152199552Y-95776013D01*
X151931763Y-95597082D01*
X151634212Y-95473832D01*
X151318333Y-95411000D01*
X150996267Y-95411000D01*
X150680388Y-95473832D01*
X150382837Y-95597082D01*
X150115048Y-95776013D01*
X149887313Y-96003748D01*
X149887300Y-96003767D01*
X149887287Y-96003748D01*
X149659552Y-95776013D01*
X149391763Y-95597082D01*
X149094212Y-95473832D01*
X148778333Y-95411000D01*
X148456267Y-95411000D01*
X148140388Y-95473832D01*
X147842837Y-95597082D01*
X147575048Y-95776013D01*
X147347313Y-96003748D01*
X147347300Y-96003767D01*
X147347287Y-96003748D01*
X147119552Y-95776013D01*
X146851763Y-95597082D01*
X146554212Y-95473832D01*
X146238333Y-95411000D01*
X145916267Y-95411000D01*
X145600388Y-95473832D01*
X145302837Y-95597082D01*
X145035048Y-95776013D01*
X144807313Y-96003748D01*
X144807300Y-96003767D01*
X144807287Y-96003748D01*
X144579552Y-95776013D01*
X144311763Y-95597082D01*
X144014212Y-95473832D01*
X143698333Y-95411000D01*
X143376267Y-95411000D01*
X143060388Y-95473832D01*
X142762837Y-95597082D01*
X142495048Y-95776013D01*
X142267313Y-96003748D01*
X142267300Y-96003767D01*
X142267287Y-96003748D01*
X142039552Y-95776013D01*
X141771763Y-95597082D01*
X141474212Y-95473832D01*
X141158333Y-95411000D01*
X140836267Y-95411000D01*
X140520388Y-95473832D01*
X140222837Y-95597082D01*
X139955048Y-95776013D01*
X139727313Y-96003748D01*
X139727300Y-96003767D01*
X139727287Y-96003748D01*
X139499552Y-95776013D01*
X139231763Y-95597082D01*
X138934212Y-95473832D01*
X138618333Y-95411000D01*
X138296267Y-95411000D01*
X137980388Y-95473832D01*
X137682837Y-95597082D01*
X137415048Y-95776013D01*
X137187313Y-96003748D01*
X137187300Y-96003767D01*
X137187287Y-96003748D01*
X136959552Y-95776013D01*
X136691763Y-95597082D01*
X136394212Y-95473832D01*
X136078333Y-95411000D01*
X135756267Y-95411000D01*
X135440388Y-95473832D01*
X135142837Y-95597082D01*
X134875048Y-95776013D01*
X134647313Y-96003748D01*
X134647300Y-96003767D01*
X134647287Y-96003748D01*
X134419552Y-95776013D01*
X134151763Y-95597082D01*
X133854212Y-95473832D01*
X133538333Y-95411000D01*
X133216267Y-95411000D01*
X132900388Y-95473832D01*
X132602837Y-95597082D01*
X132335048Y-95776013D01*
X132107313Y-96003748D01*
X132107300Y-96003767D01*
X132107287Y-96003748D01*
X131879552Y-95776013D01*
X131611763Y-95597082D01*
X131314212Y-95473832D01*
X130998333Y-95411000D01*
X130676267Y-95411000D01*
X130360388Y-95473832D01*
X130062837Y-95597082D01*
X129795048Y-95776013D01*
X129567313Y-96003748D01*
X129567300Y-96003767D01*
X129567287Y-96003748D01*
X129339552Y-95776013D01*
X129071763Y-95597082D01*
X128774212Y-95473832D01*
X128458333Y-95411000D01*
X128136267Y-95411000D01*
X127820388Y-95473832D01*
X127522837Y-95597082D01*
X127255048Y-95776013D01*
X127027313Y-96003748D01*
X127027300Y-96003767D01*
X127027287Y-96003748D01*
X126799552Y-95776013D01*
X126531763Y-95597082D01*
X126234212Y-95473832D01*
X125918333Y-95411000D01*
X125596267Y-95411000D01*
X125280388Y-95473832D01*
X124982837Y-95597082D01*
X124715048Y-95776013D01*
X124487313Y-96003748D01*
X124487300Y-96003767D01*
X124487287Y-96003748D01*
X124259552Y-95776013D01*
X123991763Y-95597082D01*
X123694212Y-95473832D01*
X123378333Y-95411000D01*
X123056267Y-95411000D01*
X122740388Y-95473832D01*
X122442837Y-95597082D01*
X122175048Y-95776013D01*
X121947313Y-96003748D01*
X121947300Y-96003767D01*
X121947287Y-96003748D01*
X121719552Y-95776013D01*
X121451763Y-95597082D01*
X121154212Y-95473832D01*
X120838333Y-95411000D01*
X120516267Y-95411000D01*
X120200388Y-95473832D01*
X119902837Y-95597082D01*
X119635048Y-95776013D01*
X119407313Y-96003748D01*
X119407300Y-96003767D01*
X119407287Y-96003748D01*
X119179552Y-95776013D01*
X118911763Y-95597082D01*
X118614212Y-95473832D01*
X118298333Y-95411000D01*
X117976267Y-95411000D01*
X117660388Y-95473832D01*
X117362837Y-95597082D01*
X117095048Y-95776013D01*
X116867313Y-96003748D01*
X116867300Y-96003767D01*
X116867287Y-96003748D01*
X116639552Y-95776013D01*
X116371763Y-95597082D01*
X116074212Y-95473832D01*
X115758333Y-95411000D01*
X115436267Y-95411000D01*
X115120388Y-95473832D01*
X114822837Y-95597082D01*
X114555048Y-95776013D01*
X114327313Y-96003748D01*
X114148382Y-96271537D01*
X114025132Y-96569088D01*
X113962300Y-96884967D01*
X112926879Y-96884967D01*
X113128927Y-96397181D01*
X113160931Y-96298684D01*
X113399038Y-95306898D01*
X113415239Y-95204607D01*
X113447397Y-94796000D01*
X174227203Y-94796000D01*
X174259361Y-95204607D01*
M02*
