G04 #@! TF.GenerationSoftware,KiCad,Pcbnew,5.1.5+dfsg1-2build2*
G04 #@! TF.CreationDate,2021-11-16T14:52:41-05:00*
G04 #@! TF.ProjectId,,58585858-5858-4585-9858-585858585858,rev?*
G04 #@! TF.SameCoordinates,Original*
G04 #@! TF.FileFunction,Legend,Bot*
G04 #@! TF.FilePolarity,Positive*
%FSLAX46Y46*%
G04 Gerber Fmt 4.6, Leading zero omitted, Abs format (unit mm)*
G04 Created by KiCad (PCBNEW 5.1.5+dfsg1-2build2) date 2021-11-16 14:52:41*
%MOMM*%
%LPD*%
G04 APERTURE LIST*
%ADD10C,0.150000*%
%ADD11C,3.102000*%
%ADD12C,2.102000*%
%ADD13R,2.502000X2.502000*%
%ADD14C,2.502000*%
%ADD15R,1.802000X1.802000*%
%ADD16O,1.802000X1.802000*%
%ADD17C,2.100980*%
G04 APERTURE END LIST*
D10*
X115191561Y-127397600D02*
X115153466Y-127321409D01*
X115115371Y-127283314D01*
X115039180Y-127245219D01*
X115001085Y-127245219D01*
X114924895Y-127283314D01*
X114886800Y-127321409D01*
X114848704Y-127397600D01*
X114848704Y-127549980D01*
X114886800Y-127626171D01*
X114924895Y-127664266D01*
X115001085Y-127702361D01*
X115039180Y-127702361D01*
X115115371Y-127664266D01*
X115153466Y-127626171D01*
X115191561Y-127549980D01*
X115191561Y-127397600D01*
X115229657Y-127321409D01*
X115267752Y-127283314D01*
X115343942Y-127245219D01*
X115496323Y-127245219D01*
X115572514Y-127283314D01*
X115610609Y-127321409D01*
X115648704Y-127397600D01*
X115648704Y-127549980D01*
X115610609Y-127626171D01*
X115572514Y-127664266D01*
X115496323Y-127702361D01*
X115343942Y-127702361D01*
X115267752Y-127664266D01*
X115229657Y-127626171D01*
X115191561Y-127549980D01*
X114848704Y-127969028D02*
X114848704Y-128464266D01*
X115153466Y-128197600D01*
X115153466Y-128311885D01*
X115191561Y-128388076D01*
X115229657Y-128426171D01*
X115305847Y-128464266D01*
X115496323Y-128464266D01*
X115572514Y-128426171D01*
X115610609Y-128388076D01*
X115648704Y-128311885D01*
X115648704Y-128083314D01*
X115610609Y-128007123D01*
X115572514Y-127969028D01*
X115648704Y-128730933D02*
X115115371Y-129149980D01*
X115115371Y-128730933D02*
X115648704Y-129149980D01*
X114848704Y-129835695D02*
X114848704Y-129454742D01*
X115229657Y-129416647D01*
X115191561Y-129454742D01*
X115153466Y-129530933D01*
X115153466Y-129721409D01*
X115191561Y-129797600D01*
X115229657Y-129835695D01*
X115305847Y-129873790D01*
X115496323Y-129873790D01*
X115572514Y-129835695D01*
X115610609Y-129797600D01*
X115648704Y-129721409D01*
X115648704Y-129530933D01*
X115610609Y-129454742D01*
X115572514Y-129416647D01*
X115191561Y-130330933D02*
X115153466Y-130254742D01*
X115115371Y-130216647D01*
X115039180Y-130178552D01*
X115001085Y-130178552D01*
X114924895Y-130216647D01*
X114886800Y-130254742D01*
X114848704Y-130330933D01*
X114848704Y-130483314D01*
X114886800Y-130559504D01*
X114924895Y-130597600D01*
X115001085Y-130635695D01*
X115039180Y-130635695D01*
X115115371Y-130597600D01*
X115153466Y-130559504D01*
X115191561Y-130483314D01*
X115191561Y-130330933D01*
X115229657Y-130254742D01*
X115267752Y-130216647D01*
X115343942Y-130178552D01*
X115496323Y-130178552D01*
X115572514Y-130216647D01*
X115610609Y-130254742D01*
X115648704Y-130330933D01*
X115648704Y-130483314D01*
X115610609Y-130559504D01*
X115572514Y-130597600D01*
X115496323Y-130635695D01*
X115343942Y-130635695D01*
X115267752Y-130597600D01*
X115229657Y-130559504D01*
X115191561Y-130483314D01*
X115648704Y-130902361D02*
X115115371Y-131321409D01*
X115115371Y-130902361D02*
X115648704Y-131321409D01*
X114848704Y-131549980D02*
X114848704Y-132045219D01*
X115153466Y-131778552D01*
X115153466Y-131892838D01*
X115191561Y-131969028D01*
X115229657Y-132007123D01*
X115305847Y-132045219D01*
X115496323Y-132045219D01*
X115572514Y-132007123D01*
X115610609Y-131969028D01*
X115648704Y-131892838D01*
X115648704Y-131664266D01*
X115610609Y-131588076D01*
X115572514Y-131549980D01*
X114848704Y-132311885D02*
X114848704Y-132807123D01*
X115153466Y-132540457D01*
X115153466Y-132654742D01*
X115191561Y-132730933D01*
X115229657Y-132769028D01*
X115305847Y-132807123D01*
X115496323Y-132807123D01*
X115572514Y-132769028D01*
X115610609Y-132730933D01*
X115648704Y-132654742D01*
X115648704Y-132426171D01*
X115610609Y-132349980D01*
X115572514Y-132311885D01*
X115648704Y-133149980D02*
X115115371Y-133149980D01*
X115191561Y-133149980D02*
X115153466Y-133188076D01*
X115115371Y-133264266D01*
X115115371Y-133378552D01*
X115153466Y-133454742D01*
X115229657Y-133492838D01*
X115648704Y-133492838D01*
X115229657Y-133492838D02*
X115153466Y-133530933D01*
X115115371Y-133607123D01*
X115115371Y-133721409D01*
X115153466Y-133797600D01*
X115229657Y-133835695D01*
X115648704Y-133835695D01*
X115648704Y-134216647D02*
X115115371Y-134216647D01*
X115191561Y-134216647D02*
X115153466Y-134254742D01*
X115115371Y-134330933D01*
X115115371Y-134445219D01*
X115153466Y-134521409D01*
X115229657Y-134559504D01*
X115648704Y-134559504D01*
X115229657Y-134559504D02*
X115153466Y-134597600D01*
X115115371Y-134673790D01*
X115115371Y-134788076D01*
X115153466Y-134864266D01*
X115229657Y-134902361D01*
X115648704Y-134902361D01*
X116579657Y-128102361D02*
X116579657Y-128369028D01*
X116998704Y-128483314D02*
X116998704Y-128102361D01*
X116198704Y-128102361D01*
X116198704Y-128483314D01*
X116998704Y-128826171D02*
X116198704Y-128826171D01*
X116998704Y-129283314D01*
X116198704Y-129283314D01*
X116922514Y-130121409D02*
X116960609Y-130083314D01*
X116998704Y-129969028D01*
X116998704Y-129892838D01*
X116960609Y-129778552D01*
X116884419Y-129702361D01*
X116808228Y-129664266D01*
X116655847Y-129626171D01*
X116541561Y-129626171D01*
X116389180Y-129664266D01*
X116312990Y-129702361D01*
X116236800Y-129778552D01*
X116198704Y-129892838D01*
X116198704Y-129969028D01*
X116236800Y-130083314D01*
X116274895Y-130121409D01*
X116998704Y-130845219D02*
X116998704Y-130464266D01*
X116198704Y-130464266D01*
X116198704Y-131264266D02*
X116198704Y-131416647D01*
X116236800Y-131492838D01*
X116312990Y-131569028D01*
X116465371Y-131607123D01*
X116732038Y-131607123D01*
X116884419Y-131569028D01*
X116960609Y-131492838D01*
X116998704Y-131416647D01*
X116998704Y-131264266D01*
X116960609Y-131188076D01*
X116884419Y-131111885D01*
X116732038Y-131073790D01*
X116465371Y-131073790D01*
X116312990Y-131111885D01*
X116236800Y-131188076D01*
X116198704Y-131264266D01*
X116960609Y-131911885D02*
X116998704Y-132026171D01*
X116998704Y-132216647D01*
X116960609Y-132292838D01*
X116922514Y-132330933D01*
X116846323Y-132369028D01*
X116770133Y-132369028D01*
X116693942Y-132330933D01*
X116655847Y-132292838D01*
X116617752Y-132216647D01*
X116579657Y-132064266D01*
X116541561Y-131988076D01*
X116503466Y-131949980D01*
X116427276Y-131911885D01*
X116351085Y-131911885D01*
X116274895Y-131949980D01*
X116236800Y-131988076D01*
X116198704Y-132064266D01*
X116198704Y-132254742D01*
X116236800Y-132369028D01*
X116198704Y-132711885D02*
X116846323Y-132711885D01*
X116922514Y-132749980D01*
X116960609Y-132788076D01*
X116998704Y-132864266D01*
X116998704Y-133016647D01*
X116960609Y-133092838D01*
X116922514Y-133130933D01*
X116846323Y-133169028D01*
X116198704Y-133169028D01*
X116998704Y-134007123D02*
X116617752Y-133740457D01*
X116998704Y-133549980D02*
X116198704Y-133549980D01*
X116198704Y-133854742D01*
X116236800Y-133930933D01*
X116274895Y-133969028D01*
X116351085Y-134007123D01*
X116465371Y-134007123D01*
X116541561Y-133969028D01*
X116579657Y-133930933D01*
X116617752Y-133854742D01*
X116617752Y-133549980D01*
X116579657Y-134349980D02*
X116579657Y-134616647D01*
X116998704Y-134730933D02*
X116998704Y-134349980D01*
X116198704Y-134349980D01*
X116198704Y-134730933D01*
X115191561Y-78397600D02*
X115153466Y-78321409D01*
X115115371Y-78283314D01*
X115039180Y-78245219D01*
X115001085Y-78245219D01*
X114924895Y-78283314D01*
X114886800Y-78321409D01*
X114848704Y-78397600D01*
X114848704Y-78549980D01*
X114886800Y-78626171D01*
X114924895Y-78664266D01*
X115001085Y-78702361D01*
X115039180Y-78702361D01*
X115115371Y-78664266D01*
X115153466Y-78626171D01*
X115191561Y-78549980D01*
X115191561Y-78397600D01*
X115229657Y-78321409D01*
X115267752Y-78283314D01*
X115343942Y-78245219D01*
X115496323Y-78245219D01*
X115572514Y-78283314D01*
X115610609Y-78321409D01*
X115648704Y-78397600D01*
X115648704Y-78549980D01*
X115610609Y-78626171D01*
X115572514Y-78664266D01*
X115496323Y-78702361D01*
X115343942Y-78702361D01*
X115267752Y-78664266D01*
X115229657Y-78626171D01*
X115191561Y-78549980D01*
X114848704Y-78969028D02*
X114848704Y-79464266D01*
X115153466Y-79197600D01*
X115153466Y-79311885D01*
X115191561Y-79388076D01*
X115229657Y-79426171D01*
X115305847Y-79464266D01*
X115496323Y-79464266D01*
X115572514Y-79426171D01*
X115610609Y-79388076D01*
X115648704Y-79311885D01*
X115648704Y-79083314D01*
X115610609Y-79007123D01*
X115572514Y-78969028D01*
X115648704Y-79730933D02*
X115115371Y-80149980D01*
X115115371Y-79730933D02*
X115648704Y-80149980D01*
X114848704Y-80835695D02*
X114848704Y-80454742D01*
X115229657Y-80416647D01*
X115191561Y-80454742D01*
X115153466Y-80530933D01*
X115153466Y-80721409D01*
X115191561Y-80797600D01*
X115229657Y-80835695D01*
X115305847Y-80873790D01*
X115496323Y-80873790D01*
X115572514Y-80835695D01*
X115610609Y-80797600D01*
X115648704Y-80721409D01*
X115648704Y-80530933D01*
X115610609Y-80454742D01*
X115572514Y-80416647D01*
X115191561Y-81330933D02*
X115153466Y-81254742D01*
X115115371Y-81216647D01*
X115039180Y-81178552D01*
X115001085Y-81178552D01*
X114924895Y-81216647D01*
X114886800Y-81254742D01*
X114848704Y-81330933D01*
X114848704Y-81483314D01*
X114886800Y-81559504D01*
X114924895Y-81597600D01*
X115001085Y-81635695D01*
X115039180Y-81635695D01*
X115115371Y-81597600D01*
X115153466Y-81559504D01*
X115191561Y-81483314D01*
X115191561Y-81330933D01*
X115229657Y-81254742D01*
X115267752Y-81216647D01*
X115343942Y-81178552D01*
X115496323Y-81178552D01*
X115572514Y-81216647D01*
X115610609Y-81254742D01*
X115648704Y-81330933D01*
X115648704Y-81483314D01*
X115610609Y-81559504D01*
X115572514Y-81597600D01*
X115496323Y-81635695D01*
X115343942Y-81635695D01*
X115267752Y-81597600D01*
X115229657Y-81559504D01*
X115191561Y-81483314D01*
X115648704Y-81902361D02*
X115115371Y-82321409D01*
X115115371Y-81902361D02*
X115648704Y-82321409D01*
X114848704Y-82549980D02*
X114848704Y-83045219D01*
X115153466Y-82778552D01*
X115153466Y-82892838D01*
X115191561Y-82969028D01*
X115229657Y-83007123D01*
X115305847Y-83045219D01*
X115496323Y-83045219D01*
X115572514Y-83007123D01*
X115610609Y-82969028D01*
X115648704Y-82892838D01*
X115648704Y-82664266D01*
X115610609Y-82588076D01*
X115572514Y-82549980D01*
X114848704Y-83311885D02*
X114848704Y-83807123D01*
X115153466Y-83540457D01*
X115153466Y-83654742D01*
X115191561Y-83730933D01*
X115229657Y-83769028D01*
X115305847Y-83807123D01*
X115496323Y-83807123D01*
X115572514Y-83769028D01*
X115610609Y-83730933D01*
X115648704Y-83654742D01*
X115648704Y-83426171D01*
X115610609Y-83349980D01*
X115572514Y-83311885D01*
X115648704Y-84149980D02*
X115115371Y-84149980D01*
X115191561Y-84149980D02*
X115153466Y-84188076D01*
X115115371Y-84264266D01*
X115115371Y-84378552D01*
X115153466Y-84454742D01*
X115229657Y-84492838D01*
X115648704Y-84492838D01*
X115229657Y-84492838D02*
X115153466Y-84530933D01*
X115115371Y-84607123D01*
X115115371Y-84721409D01*
X115153466Y-84797600D01*
X115229657Y-84835695D01*
X115648704Y-84835695D01*
X115648704Y-85216647D02*
X115115371Y-85216647D01*
X115191561Y-85216647D02*
X115153466Y-85254742D01*
X115115371Y-85330933D01*
X115115371Y-85445219D01*
X115153466Y-85521409D01*
X115229657Y-85559504D01*
X115648704Y-85559504D01*
X115229657Y-85559504D02*
X115153466Y-85597600D01*
X115115371Y-85673790D01*
X115115371Y-85788076D01*
X115153466Y-85864266D01*
X115229657Y-85902361D01*
X115648704Y-85902361D01*
X116579657Y-79102361D02*
X116579657Y-79369028D01*
X116998704Y-79483314D02*
X116998704Y-79102361D01*
X116198704Y-79102361D01*
X116198704Y-79483314D01*
X116998704Y-79826171D02*
X116198704Y-79826171D01*
X116998704Y-80283314D01*
X116198704Y-80283314D01*
X116922514Y-81121409D02*
X116960609Y-81083314D01*
X116998704Y-80969028D01*
X116998704Y-80892838D01*
X116960609Y-80778552D01*
X116884419Y-80702361D01*
X116808228Y-80664266D01*
X116655847Y-80626171D01*
X116541561Y-80626171D01*
X116389180Y-80664266D01*
X116312990Y-80702361D01*
X116236800Y-80778552D01*
X116198704Y-80892838D01*
X116198704Y-80969028D01*
X116236800Y-81083314D01*
X116274895Y-81121409D01*
X116998704Y-81845219D02*
X116998704Y-81464266D01*
X116198704Y-81464266D01*
X116198704Y-82264266D02*
X116198704Y-82416647D01*
X116236800Y-82492838D01*
X116312990Y-82569028D01*
X116465371Y-82607123D01*
X116732038Y-82607123D01*
X116884419Y-82569028D01*
X116960609Y-82492838D01*
X116998704Y-82416647D01*
X116998704Y-82264266D01*
X116960609Y-82188076D01*
X116884419Y-82111885D01*
X116732038Y-82073790D01*
X116465371Y-82073790D01*
X116312990Y-82111885D01*
X116236800Y-82188076D01*
X116198704Y-82264266D01*
X116960609Y-82911885D02*
X116998704Y-83026171D01*
X116998704Y-83216647D01*
X116960609Y-83292838D01*
X116922514Y-83330933D01*
X116846323Y-83369028D01*
X116770133Y-83369028D01*
X116693942Y-83330933D01*
X116655847Y-83292838D01*
X116617752Y-83216647D01*
X116579657Y-83064266D01*
X116541561Y-82988076D01*
X116503466Y-82949980D01*
X116427276Y-82911885D01*
X116351085Y-82911885D01*
X116274895Y-82949980D01*
X116236800Y-82988076D01*
X116198704Y-83064266D01*
X116198704Y-83254742D01*
X116236800Y-83369028D01*
X116198704Y-83711885D02*
X116846323Y-83711885D01*
X116922514Y-83749980D01*
X116960609Y-83788076D01*
X116998704Y-83864266D01*
X116998704Y-84016647D01*
X116960609Y-84092838D01*
X116922514Y-84130933D01*
X116846323Y-84169028D01*
X116198704Y-84169028D01*
X116998704Y-85007123D02*
X116617752Y-84740457D01*
X116998704Y-84549980D02*
X116198704Y-84549980D01*
X116198704Y-84854742D01*
X116236800Y-84930933D01*
X116274895Y-84969028D01*
X116351085Y-85007123D01*
X116465371Y-85007123D01*
X116541561Y-84969028D01*
X116579657Y-84930933D01*
X116617752Y-84854742D01*
X116617752Y-84549980D01*
X116579657Y-85349980D02*
X116579657Y-85616647D01*
X116998704Y-85730933D02*
X116998704Y-85349980D01*
X116198704Y-85349980D01*
X116198704Y-85730933D01*
%LPC*%
D11*
X125161900Y-141264900D03*
D12*
X170181900Y-140314900D03*
D11*
X118161900Y-121264900D03*
X182161900Y-121264900D03*
X175161900Y-141264900D03*
D13*
X179661900Y-134564900D03*
D14*
X179661900Y-131064900D03*
X179661900Y-127564900D03*
D12*
X137161900Y-99674900D03*
X139701900Y-99674900D03*
X142241900Y-99674900D03*
X144781900Y-99674900D03*
X147321900Y-99674900D03*
X149861900Y-99674900D03*
X152401900Y-99674900D03*
X154941900Y-99674900D03*
X172721900Y-107964900D03*
X172721900Y-114964900D03*
X172721900Y-127564900D03*
X172721900Y-131064900D03*
X172721900Y-134564900D03*
X172721900Y-111464900D03*
X144781900Y-114914900D03*
X154941900Y-114914900D03*
X124461900Y-132694900D03*
X160021900Y-114914900D03*
D15*
X121921900Y-122534900D03*
D16*
X124461900Y-122534900D03*
X127001900Y-122534900D03*
X129541900Y-122534900D03*
X132081900Y-122534900D03*
X134621900Y-122534900D03*
X137161900Y-122534900D03*
X139701900Y-122534900D03*
X142241900Y-122534900D03*
X144781900Y-122534900D03*
X147321900Y-122534900D03*
X149861900Y-122534900D03*
X152401900Y-122534900D03*
X154941900Y-122534900D03*
X157481900Y-122534900D03*
X160021900Y-122534900D03*
X162561900Y-122534900D03*
X165101900Y-122534900D03*
X167641900Y-122534900D03*
X170181900Y-122534900D03*
D12*
X160021900Y-117454900D03*
X154941900Y-140314900D03*
X152401900Y-140314900D03*
X160021900Y-132694900D03*
X149861900Y-140314900D03*
X167641900Y-137774900D03*
X170181900Y-137774900D03*
X154941900Y-137774900D03*
X137161900Y-137774900D03*
D13*
X179661900Y-114964900D03*
D14*
X179661900Y-111464900D03*
X179661900Y-107964900D03*
D12*
X160021900Y-99674900D03*
X162561900Y-99674900D03*
X165101900Y-99674900D03*
X167641900Y-99674900D03*
X170181900Y-99674900D03*
X157481900Y-99674900D03*
D17*
X175261900Y-119994900D03*
X175261900Y-122534900D03*
D12*
X162561900Y-117454900D03*
X167641900Y-114914900D03*
X154941900Y-132694900D03*
X149861900Y-132694900D03*
X147321900Y-132694900D03*
X144781900Y-132694900D03*
X134621900Y-137774900D03*
X170181900Y-114914900D03*
X142241900Y-140314900D03*
X139701900Y-140314900D03*
X147321900Y-114914900D03*
X144781900Y-140314900D03*
X134621900Y-140314900D03*
X127001900Y-135234900D03*
X157481900Y-132694900D03*
X142241900Y-137774900D03*
X127001900Y-132694900D03*
X157481900Y-109834900D03*
X160021900Y-109834900D03*
X152401900Y-114914900D03*
X162561900Y-137774900D03*
X152401900Y-137774900D03*
X142241900Y-132694900D03*
X121921900Y-132694900D03*
X165101900Y-137774900D03*
X165101900Y-117454900D03*
X127001900Y-117454900D03*
D11*
X175161900Y-101264900D03*
D12*
X132081900Y-135234900D03*
X132081900Y-117454900D03*
X152401900Y-132694900D03*
X139701900Y-112374900D03*
X149861900Y-137774900D03*
X129541900Y-135234900D03*
X124461900Y-117454900D03*
X129541900Y-117454900D03*
X160021900Y-137774900D03*
X149861900Y-114914900D03*
X132081900Y-137774900D03*
X142241900Y-112374900D03*
X165101900Y-114914900D03*
X144781900Y-137774900D03*
X147321900Y-140314900D03*
X137161900Y-117454900D03*
X162561900Y-112374900D03*
X160021900Y-112374900D03*
X157481900Y-112374900D03*
X154941900Y-112374900D03*
X139701900Y-117454900D03*
X152401900Y-112374900D03*
X149861900Y-112374900D03*
X147321900Y-112374900D03*
X167641900Y-112374900D03*
X154941900Y-109834900D03*
X121921900Y-114914900D03*
X144781900Y-112374900D03*
X170181900Y-112374900D03*
X165101900Y-112374900D03*
X147321900Y-135234900D03*
X160021900Y-135234900D03*
X157481900Y-135234900D03*
X154941900Y-135234900D03*
X152401900Y-135234900D03*
X149861900Y-135234900D03*
X144781900Y-135234900D03*
X142241900Y-135234900D03*
X162561900Y-135234900D03*
X165101900Y-135234900D03*
X167641900Y-135234900D03*
X170181900Y-135234900D03*
X139701900Y-135234900D03*
X137161900Y-135234900D03*
X134621900Y-135234900D03*
X142241900Y-114914900D03*
X170181900Y-132694900D03*
X147321900Y-137774900D03*
X132081900Y-140314900D03*
X139701900Y-137774900D03*
X162561900Y-114914900D03*
X121921900Y-135234900D03*
X170181900Y-117454900D03*
X167641900Y-117454900D03*
X157481900Y-137774900D03*
X121921900Y-117454900D03*
X137161900Y-140314900D03*
X162561900Y-132694900D03*
X167641900Y-132694900D03*
X165101900Y-132694900D03*
X167641900Y-140314900D03*
X162561900Y-107294900D03*
X165101900Y-107294900D03*
X132081900Y-112374900D03*
X149861900Y-117454900D03*
X134621900Y-132694900D03*
X152401900Y-117454900D03*
X154941900Y-117454900D03*
X137161900Y-132694900D03*
X127001900Y-114914900D03*
X157481900Y-117454900D03*
X157481900Y-114914900D03*
X144781900Y-117454900D03*
X129541900Y-114914900D03*
X137161900Y-114914900D03*
X139701900Y-114914900D03*
X137161900Y-112374900D03*
X132081900Y-114914900D03*
X134621900Y-114914900D03*
X167641900Y-109834900D03*
X170181900Y-109834900D03*
X121921900Y-112374900D03*
X124461900Y-112374900D03*
X127001900Y-112374900D03*
X129541900Y-112374900D03*
X132081900Y-132694900D03*
X147321900Y-117454900D03*
X149861900Y-109834900D03*
X152401900Y-109834900D03*
X137161900Y-109834900D03*
X139701900Y-109834900D03*
X162561900Y-109834900D03*
X142241900Y-109834900D03*
X144781900Y-109834900D03*
X167641900Y-107294900D03*
X170181900Y-107294900D03*
X147321900Y-109834900D03*
X152401900Y-107294900D03*
X154941900Y-107294900D03*
X121921900Y-109834900D03*
X124461900Y-109834900D03*
X124461900Y-114914900D03*
X132081900Y-109834900D03*
X134621900Y-109834900D03*
X170181900Y-104754900D03*
X121921900Y-107294900D03*
X124461900Y-107294900D03*
X127001900Y-107294900D03*
X129541900Y-107294900D03*
X132081900Y-107294900D03*
X157481900Y-107294900D03*
X160021900Y-107294900D03*
X139701900Y-104754900D03*
X142241900Y-104754900D03*
X144781900Y-104754900D03*
X154941900Y-104754900D03*
X157481900Y-104754900D03*
X160021900Y-104754900D03*
X162561900Y-104754900D03*
X165101900Y-104754900D03*
X167641900Y-104754900D03*
X147321900Y-104754900D03*
X149861900Y-104754900D03*
X152401900Y-104754900D03*
X121921900Y-104754900D03*
X124461900Y-104754900D03*
X127001900Y-104754900D03*
X129541900Y-104754900D03*
X132081900Y-104754900D03*
X134621900Y-104754900D03*
X137161900Y-104754900D03*
X165101900Y-109834900D03*
X134621900Y-112374900D03*
X132081900Y-142854900D03*
X134621900Y-142854900D03*
X134621900Y-99674900D03*
X132081900Y-99674900D03*
X127001900Y-109834900D03*
X129541900Y-109834900D03*
X134621900Y-117454900D03*
X129541900Y-99674900D03*
X127001900Y-99674900D03*
X124461900Y-99674900D03*
X121921900Y-99674900D03*
X137161900Y-142854900D03*
X139701900Y-142854900D03*
X142241900Y-142854900D03*
X144781900Y-142854900D03*
X147321900Y-142854900D03*
X147321900Y-107294900D03*
X149861900Y-107294900D03*
D15*
X121921900Y-102214900D03*
D16*
X124461900Y-102214900D03*
X127001900Y-102214900D03*
X129541900Y-102214900D03*
X132081900Y-102214900D03*
X134621900Y-102214900D03*
X137161900Y-102214900D03*
X139701900Y-102214900D03*
X142241900Y-102214900D03*
X144781900Y-102214900D03*
X147321900Y-102214900D03*
X149861900Y-102214900D03*
X152401900Y-102214900D03*
X154941900Y-102214900D03*
X157481900Y-102214900D03*
X160021900Y-102214900D03*
X162561900Y-102214900D03*
X165101900Y-102214900D03*
X167641900Y-102214900D03*
X170181900Y-102214900D03*
D15*
X121921900Y-119994900D03*
D16*
X124461900Y-119994900D03*
X127001900Y-119994900D03*
X129541900Y-119994900D03*
X132081900Y-119994900D03*
X134621900Y-119994900D03*
X137161900Y-119994900D03*
X139701900Y-119994900D03*
X142241900Y-119994900D03*
X144781900Y-119994900D03*
X147321900Y-119994900D03*
X149861900Y-119994900D03*
X152401900Y-119994900D03*
X154941900Y-119994900D03*
X157481900Y-119994900D03*
X160021900Y-119994900D03*
X162561900Y-119994900D03*
X165101900Y-119994900D03*
X167641900Y-119994900D03*
X170181900Y-119994900D03*
D12*
X134621900Y-107294900D03*
X137161900Y-107294900D03*
X129541900Y-132694900D03*
X139701900Y-107294900D03*
X142241900Y-107294900D03*
X144781900Y-107294900D03*
X152401900Y-142854900D03*
X157481900Y-142854900D03*
X149861900Y-142854900D03*
X167641900Y-142854900D03*
X170181900Y-142854900D03*
D15*
X121921900Y-130154900D03*
D16*
X124461900Y-130154900D03*
X127001900Y-130154900D03*
X129541900Y-130154900D03*
X132081900Y-130154900D03*
X134621900Y-130154900D03*
X137161900Y-130154900D03*
X139701900Y-130154900D03*
X142241900Y-130154900D03*
X144781900Y-130154900D03*
X147321900Y-130154900D03*
X149861900Y-130154900D03*
X152401900Y-130154900D03*
X154941900Y-130154900D03*
X157481900Y-130154900D03*
X160021900Y-130154900D03*
X162561900Y-130154900D03*
X165101900Y-130154900D03*
X167641900Y-130154900D03*
X170181900Y-130154900D03*
D12*
X162561900Y-142854900D03*
X165101900Y-142854900D03*
X160021900Y-142854900D03*
X154941900Y-142854900D03*
D15*
X121921900Y-127614900D03*
D16*
X124461900Y-127614900D03*
X127001900Y-127614900D03*
X129541900Y-127614900D03*
X132081900Y-127614900D03*
X134621900Y-127614900D03*
X137161900Y-127614900D03*
X139701900Y-127614900D03*
X142241900Y-127614900D03*
X144781900Y-127614900D03*
X147321900Y-127614900D03*
X149861900Y-127614900D03*
X152401900Y-127614900D03*
X154941900Y-127614900D03*
X157481900Y-127614900D03*
X160021900Y-127614900D03*
X162561900Y-127614900D03*
X165101900Y-127614900D03*
X167641900Y-127614900D03*
X170181900Y-127614900D03*
D15*
X121921900Y-125074900D03*
D16*
X124461900Y-125074900D03*
X127001900Y-125074900D03*
X129541900Y-125074900D03*
X132081900Y-125074900D03*
X134621900Y-125074900D03*
X137161900Y-125074900D03*
X139701900Y-125074900D03*
X142241900Y-125074900D03*
X144781900Y-125074900D03*
X147321900Y-125074900D03*
X149861900Y-125074900D03*
X152401900Y-125074900D03*
X154941900Y-125074900D03*
X157481900Y-125074900D03*
X160021900Y-125074900D03*
X162561900Y-125074900D03*
X165101900Y-125074900D03*
X167641900Y-125074900D03*
X170181900Y-125074900D03*
D12*
X124461900Y-135234900D03*
X142241900Y-117454900D03*
X162561900Y-140314900D03*
X165101900Y-140314900D03*
X139701900Y-132694900D03*
X160021900Y-140314900D03*
X157481900Y-140314900D03*
D11*
X125161900Y-92264900D03*
D12*
X170181900Y-91314900D03*
X167641900Y-91314900D03*
X165101900Y-91314900D03*
X162561900Y-91314900D03*
X160021900Y-91314900D03*
X157481900Y-91314900D03*
X154941900Y-91314900D03*
X152401900Y-91314900D03*
X149861900Y-91314900D03*
X147321900Y-91314900D03*
X144781900Y-91314900D03*
X142241900Y-91314900D03*
X139701900Y-91314900D03*
X137161900Y-91314900D03*
X134621900Y-91314900D03*
X132081900Y-91314900D03*
X170181900Y-88774900D03*
X167641900Y-88774900D03*
X165101900Y-88774900D03*
X162561900Y-88774900D03*
X160021900Y-88774900D03*
X157481900Y-88774900D03*
X154941900Y-88774900D03*
X152401900Y-88774900D03*
X149861900Y-88774900D03*
X147321900Y-88774900D03*
X144781900Y-88774900D03*
X142241900Y-88774900D03*
X139701900Y-88774900D03*
X137161900Y-88774900D03*
X134621900Y-88774900D03*
X132081900Y-88774900D03*
X170181900Y-86234900D03*
X167641900Y-86234900D03*
X165101900Y-86234900D03*
X162561900Y-86234900D03*
X160021900Y-86234900D03*
X157481900Y-86234900D03*
X154941900Y-86234900D03*
X152401900Y-86234900D03*
X149861900Y-86234900D03*
X147321900Y-86234900D03*
X144781900Y-86234900D03*
X142241900Y-86234900D03*
X139701900Y-86234900D03*
X137161900Y-86234900D03*
X134621900Y-86234900D03*
X132081900Y-86234900D03*
X129541900Y-86234900D03*
X127001900Y-86234900D03*
X124461900Y-86234900D03*
X121921900Y-86234900D03*
X170181900Y-83694900D03*
X167641900Y-83694900D03*
X165101900Y-83694900D03*
X162561900Y-83694900D03*
X160021900Y-83694900D03*
X157481900Y-83694900D03*
X154941900Y-83694900D03*
X152401900Y-83694900D03*
X149861900Y-83694900D03*
X147321900Y-83694900D03*
X144781900Y-83694900D03*
X142241900Y-83694900D03*
X139701900Y-83694900D03*
X137161900Y-83694900D03*
X134621900Y-83694900D03*
X132081900Y-83694900D03*
X129541900Y-83694900D03*
X127001900Y-83694900D03*
X124461900Y-83694900D03*
X121921900Y-83694900D03*
D11*
X175161900Y-52264900D03*
D12*
X170181900Y-68454900D03*
X167641900Y-68454900D03*
X165101900Y-68454900D03*
X162561900Y-68454900D03*
X160021900Y-68454900D03*
X157481900Y-68454900D03*
X154941900Y-68454900D03*
X152401900Y-68454900D03*
X149861900Y-68454900D03*
X147321900Y-68454900D03*
X144781900Y-68454900D03*
X142241900Y-68454900D03*
X139701900Y-68454900D03*
X137161900Y-68454900D03*
X134621900Y-68454900D03*
X132081900Y-68454900D03*
X129541900Y-68454900D03*
X127001900Y-68454900D03*
X124461900Y-68454900D03*
X121921900Y-68454900D03*
X170181900Y-65914900D03*
X167641900Y-65914900D03*
X165101900Y-65914900D03*
X162561900Y-65914900D03*
X160021900Y-65914900D03*
X157481900Y-65914900D03*
X154941900Y-65914900D03*
X152401900Y-65914900D03*
X149861900Y-65914900D03*
X147321900Y-65914900D03*
X144781900Y-65914900D03*
X142241900Y-65914900D03*
X139701900Y-65914900D03*
X137161900Y-65914900D03*
X134621900Y-65914900D03*
X132081900Y-65914900D03*
X129541900Y-65914900D03*
X127001900Y-65914900D03*
X124461900Y-65914900D03*
X121921900Y-65914900D03*
X170181900Y-63374900D03*
X167641900Y-63374900D03*
X165101900Y-63374900D03*
X162561900Y-63374900D03*
X160021900Y-63374900D03*
X157481900Y-63374900D03*
X154941900Y-63374900D03*
X152401900Y-63374900D03*
X149861900Y-63374900D03*
X147321900Y-63374900D03*
X144781900Y-63374900D03*
X142241900Y-63374900D03*
X139701900Y-63374900D03*
X137161900Y-63374900D03*
X134621900Y-63374900D03*
X132081900Y-63374900D03*
X129541900Y-63374900D03*
X127001900Y-63374900D03*
X124461900Y-63374900D03*
X121921900Y-63374900D03*
X170181900Y-60834900D03*
X167641900Y-60834900D03*
X165101900Y-60834900D03*
X162561900Y-60834900D03*
X160021900Y-60834900D03*
X157481900Y-60834900D03*
X154941900Y-60834900D03*
X152401900Y-60834900D03*
X149861900Y-60834900D03*
X147321900Y-60834900D03*
X144781900Y-60834900D03*
X142241900Y-60834900D03*
X139701900Y-60834900D03*
X137161900Y-60834900D03*
X134621900Y-60834900D03*
X132081900Y-60834900D03*
X129541900Y-60834900D03*
X127001900Y-60834900D03*
X124461900Y-60834900D03*
X121921900Y-60834900D03*
X170181900Y-58294900D03*
X167641900Y-58294900D03*
X165101900Y-58294900D03*
X162561900Y-58294900D03*
X160021900Y-58294900D03*
X157481900Y-58294900D03*
X154941900Y-58294900D03*
X152401900Y-58294900D03*
X149861900Y-58294900D03*
X147321900Y-58294900D03*
X144781900Y-58294900D03*
X142241900Y-58294900D03*
X139701900Y-58294900D03*
X137161900Y-58294900D03*
X134621900Y-58294900D03*
X132081900Y-58294900D03*
X129541900Y-58294900D03*
X127001900Y-58294900D03*
X124461900Y-58294900D03*
X121921900Y-58294900D03*
X170181900Y-55754900D03*
X167641900Y-55754900D03*
X165101900Y-55754900D03*
X162561900Y-55754900D03*
X160021900Y-55754900D03*
X157481900Y-55754900D03*
X154941900Y-55754900D03*
X152401900Y-55754900D03*
X149861900Y-55754900D03*
X147321900Y-55754900D03*
X144781900Y-55754900D03*
X142241900Y-55754900D03*
X139701900Y-55754900D03*
X137161900Y-55754900D03*
X134621900Y-55754900D03*
X132081900Y-55754900D03*
X129541900Y-55754900D03*
X127001900Y-55754900D03*
X124461900Y-55754900D03*
X121921900Y-55754900D03*
X121921900Y-50674900D03*
X124461900Y-50674900D03*
X127001900Y-50674900D03*
X129541900Y-50674900D03*
X132081900Y-50674900D03*
X134621900Y-50674900D03*
X134621900Y-93854900D03*
X132081900Y-93854900D03*
X170181900Y-93854900D03*
X167641900Y-93854900D03*
X149861900Y-93854900D03*
X157481900Y-93854900D03*
X152401900Y-93854900D03*
X147321900Y-93854900D03*
X144781900Y-93854900D03*
X142241900Y-93854900D03*
X139701900Y-93854900D03*
X137161900Y-93854900D03*
X154941900Y-93854900D03*
X160021900Y-93854900D03*
X165101900Y-93854900D03*
X162561900Y-93854900D03*
D16*
X170181900Y-81154900D03*
X167641900Y-81154900D03*
X165101900Y-81154900D03*
X162561900Y-81154900D03*
X160021900Y-81154900D03*
X157481900Y-81154900D03*
X154941900Y-81154900D03*
X152401900Y-81154900D03*
X149861900Y-81154900D03*
X147321900Y-81154900D03*
X144781900Y-81154900D03*
X142241900Y-81154900D03*
X139701900Y-81154900D03*
X137161900Y-81154900D03*
X134621900Y-81154900D03*
X132081900Y-81154900D03*
X129541900Y-81154900D03*
X127001900Y-81154900D03*
X124461900Y-81154900D03*
D15*
X121921900Y-81154900D03*
D16*
X170181900Y-78614900D03*
X167641900Y-78614900D03*
X165101900Y-78614900D03*
X162561900Y-78614900D03*
X160021900Y-78614900D03*
X157481900Y-78614900D03*
X154941900Y-78614900D03*
X152401900Y-78614900D03*
X149861900Y-78614900D03*
X147321900Y-78614900D03*
X144781900Y-78614900D03*
X142241900Y-78614900D03*
X139701900Y-78614900D03*
X137161900Y-78614900D03*
X134621900Y-78614900D03*
X132081900Y-78614900D03*
X129541900Y-78614900D03*
X127001900Y-78614900D03*
X124461900Y-78614900D03*
D15*
X121921900Y-78614900D03*
D16*
X170181900Y-76074900D03*
X167641900Y-76074900D03*
X165101900Y-76074900D03*
X162561900Y-76074900D03*
X160021900Y-76074900D03*
X157481900Y-76074900D03*
X154941900Y-76074900D03*
X152401900Y-76074900D03*
X149861900Y-76074900D03*
X147321900Y-76074900D03*
X144781900Y-76074900D03*
X142241900Y-76074900D03*
X139701900Y-76074900D03*
X137161900Y-76074900D03*
X134621900Y-76074900D03*
X132081900Y-76074900D03*
X129541900Y-76074900D03*
X127001900Y-76074900D03*
X124461900Y-76074900D03*
D15*
X121921900Y-76074900D03*
D16*
X170181900Y-70994900D03*
X167641900Y-70994900D03*
X165101900Y-70994900D03*
X162561900Y-70994900D03*
X160021900Y-70994900D03*
X157481900Y-70994900D03*
X154941900Y-70994900D03*
X152401900Y-70994900D03*
X149861900Y-70994900D03*
X147321900Y-70994900D03*
X144781900Y-70994900D03*
X142241900Y-70994900D03*
X139701900Y-70994900D03*
X137161900Y-70994900D03*
X134621900Y-70994900D03*
X132081900Y-70994900D03*
X129541900Y-70994900D03*
X127001900Y-70994900D03*
X124461900Y-70994900D03*
D15*
X121921900Y-70994900D03*
D16*
X170181900Y-53214900D03*
X167641900Y-53214900D03*
X165101900Y-53214900D03*
X162561900Y-53214900D03*
X160021900Y-53214900D03*
X157481900Y-53214900D03*
X154941900Y-53214900D03*
X152401900Y-53214900D03*
X149861900Y-53214900D03*
X147321900Y-53214900D03*
X144781900Y-53214900D03*
X142241900Y-53214900D03*
X139701900Y-53214900D03*
X137161900Y-53214900D03*
X134621900Y-53214900D03*
X132081900Y-53214900D03*
X129541900Y-53214900D03*
X127001900Y-53214900D03*
X124461900Y-53214900D03*
D15*
X121921900Y-53214900D03*
D16*
X170181900Y-73534900D03*
X167641900Y-73534900D03*
X165101900Y-73534900D03*
X162561900Y-73534900D03*
X160021900Y-73534900D03*
X157481900Y-73534900D03*
X154941900Y-73534900D03*
X152401900Y-73534900D03*
X149861900Y-73534900D03*
X147321900Y-73534900D03*
X144781900Y-73534900D03*
X142241900Y-73534900D03*
X139701900Y-73534900D03*
X137161900Y-73534900D03*
X134621900Y-73534900D03*
X132081900Y-73534900D03*
X129541900Y-73534900D03*
X127001900Y-73534900D03*
X124461900Y-73534900D03*
D15*
X121921900Y-73534900D03*
D17*
X175261900Y-73534900D03*
X175261900Y-70994900D03*
D12*
X157481900Y-50674900D03*
X170181900Y-50674900D03*
X167641900Y-50674900D03*
X165101900Y-50674900D03*
X162561900Y-50674900D03*
X160021900Y-50674900D03*
D14*
X179661900Y-58964900D03*
X179661900Y-62464900D03*
D13*
X179661900Y-65964900D03*
D12*
X172721900Y-62464900D03*
X172721900Y-85564900D03*
X172721900Y-82064900D03*
X172721900Y-78564900D03*
X172721900Y-65964900D03*
X172721900Y-58964900D03*
X154941900Y-50674900D03*
X152401900Y-50674900D03*
X149861900Y-50674900D03*
X147321900Y-50674900D03*
X144781900Y-50674900D03*
X142241900Y-50674900D03*
X139701900Y-50674900D03*
X137161900Y-50674900D03*
D14*
X179661900Y-78564900D03*
X179661900Y-82064900D03*
D13*
X179661900Y-85564900D03*
D11*
X175161900Y-92264900D03*
X118161900Y-72264900D03*
X182161900Y-72264900D03*
M02*
