G04 #@! TF.GenerationSoftware,KiCad,Pcbnew,5.1.5+dfsg1-2build2*
G04 #@! TF.CreationDate,2022-02-14T22:59:54-05:00*
G04 #@! TF.ProjectId,,58585858-5858-4585-9858-585858585858,rev?*
G04 #@! TF.SameCoordinates,Original*
G04 #@! TF.FileFunction,Legend,Top*
G04 #@! TF.FilePolarity,Positive*
%FSLAX46Y46*%
G04 Gerber Fmt 4.6, Leading zero omitted, Abs format (unit mm)*
G04 Created by KiCad (PCBNEW 5.1.5+dfsg1-2build2) date 2022-02-14 22:59:54*
%MOMM*%
%LPD*%
G04 APERTURE LIST*
%ADD10C,0.500000*%
%ADD11C,0.150000*%
%ADD12C,0.010000*%
%ADD13C,0.120000*%
%ADD14C,3.102000*%
%ADD15C,2.102000*%
%ADD16R,2.502000X2.502000*%
%ADD17C,2.502000*%
%ADD18C,2.100980*%
%ADD19R,1.802000X1.802000*%
%ADD20O,1.802000X1.802000*%
G04 APERTURE END LIST*
D10*
X171475400Y-105337200D02*
X167855900Y-105337200D01*
X171488100Y-108829700D02*
X167868600Y-108829700D01*
X171488100Y-112334900D02*
X167868600Y-112334900D01*
X171488100Y-124946000D02*
X167868600Y-124946000D01*
X171462700Y-128425800D02*
X167843200Y-128425800D01*
X171488100Y-131918300D02*
X167868600Y-131918300D01*
D11*
X108678304Y-134152680D02*
X107878304Y-134152680D01*
X108449733Y-133886014D01*
X107878304Y-133619347D01*
X108678304Y-133619347D01*
X108602114Y-132781252D02*
X108640209Y-132819347D01*
X108678304Y-132933633D01*
X108678304Y-133009823D01*
X108640209Y-133124109D01*
X108564019Y-133200300D01*
X108487828Y-133238395D01*
X108335447Y-133276490D01*
X108221161Y-133276490D01*
X108068780Y-133238395D01*
X107992590Y-133200300D01*
X107916400Y-133124109D01*
X107878304Y-133009823D01*
X107878304Y-132933633D01*
X107916400Y-132819347D01*
X107954495Y-132781252D01*
X107878304Y-132438395D02*
X108525923Y-132438395D01*
X108602114Y-132400300D01*
X108640209Y-132362204D01*
X108678304Y-132286014D01*
X108678304Y-132133633D01*
X108640209Y-132057442D01*
X108602114Y-132019347D01*
X108525923Y-131981252D01*
X107878304Y-131981252D01*
X108678304Y-130990776D02*
X107878304Y-130990776D01*
X107878304Y-130686014D01*
X107916400Y-130609823D01*
X107954495Y-130571728D01*
X108030685Y-130533633D01*
X108144971Y-130533633D01*
X108221161Y-130571728D01*
X108259257Y-130609823D01*
X108297352Y-130686014D01*
X108297352Y-130990776D01*
X108678304Y-129733633D02*
X108297352Y-130000300D01*
X108678304Y-130190776D02*
X107878304Y-130190776D01*
X107878304Y-129886014D01*
X107916400Y-129809823D01*
X107954495Y-129771728D01*
X108030685Y-129733633D01*
X108144971Y-129733633D01*
X108221161Y-129771728D01*
X108259257Y-129809823D01*
X108297352Y-129886014D01*
X108297352Y-130190776D01*
X107878304Y-129238395D02*
X107878304Y-129086014D01*
X107916400Y-129009823D01*
X107992590Y-128933633D01*
X108144971Y-128895538D01*
X108411638Y-128895538D01*
X108564019Y-128933633D01*
X108640209Y-129009823D01*
X108678304Y-129086014D01*
X108678304Y-129238395D01*
X108640209Y-129314585D01*
X108564019Y-129390776D01*
X108411638Y-129428871D01*
X108144971Y-129428871D01*
X107992590Y-129390776D01*
X107916400Y-129314585D01*
X107878304Y-129238395D01*
X107878304Y-128666966D02*
X107878304Y-128209823D01*
X108678304Y-128438395D02*
X107878304Y-128438395D01*
X107878304Y-127790776D02*
X107878304Y-127638395D01*
X107916400Y-127562204D01*
X107992590Y-127486014D01*
X108144971Y-127447919D01*
X108411638Y-127447919D01*
X108564019Y-127486014D01*
X108640209Y-127562204D01*
X108678304Y-127638395D01*
X108678304Y-127790776D01*
X108640209Y-127866966D01*
X108564019Y-127943157D01*
X108411638Y-127981252D01*
X108144971Y-127981252D01*
X107992590Y-127943157D01*
X107916400Y-127866966D01*
X107878304Y-127790776D01*
X108221161Y-126381252D02*
X108183066Y-126457442D01*
X108144971Y-126495538D01*
X108068780Y-126533633D01*
X108030685Y-126533633D01*
X107954495Y-126495538D01*
X107916400Y-126457442D01*
X107878304Y-126381252D01*
X107878304Y-126228871D01*
X107916400Y-126152680D01*
X107954495Y-126114585D01*
X108030685Y-126076490D01*
X108068780Y-126076490D01*
X108144971Y-126114585D01*
X108183066Y-126152680D01*
X108221161Y-126228871D01*
X108221161Y-126381252D01*
X108259257Y-126457442D01*
X108297352Y-126495538D01*
X108373542Y-126533633D01*
X108525923Y-126533633D01*
X108602114Y-126495538D01*
X108640209Y-126457442D01*
X108678304Y-126381252D01*
X108678304Y-126228871D01*
X108640209Y-126152680D01*
X108602114Y-126114585D01*
X108525923Y-126076490D01*
X108373542Y-126076490D01*
X108297352Y-126114585D01*
X108259257Y-126152680D01*
X108221161Y-126228871D01*
X107878304Y-125809823D02*
X107878304Y-125314585D01*
X108183066Y-125581252D01*
X108183066Y-125466966D01*
X108221161Y-125390776D01*
X108259257Y-125352680D01*
X108335447Y-125314585D01*
X108525923Y-125314585D01*
X108602114Y-125352680D01*
X108640209Y-125390776D01*
X108678304Y-125466966D01*
X108678304Y-125695538D01*
X108640209Y-125771728D01*
X108602114Y-125809823D01*
X108678304Y-125047919D02*
X108144971Y-124628871D01*
X108144971Y-125047919D02*
X108678304Y-124628871D01*
X107878304Y-123943157D02*
X107878304Y-124324109D01*
X108259257Y-124362204D01*
X108221161Y-124324109D01*
X108183066Y-124247919D01*
X108183066Y-124057442D01*
X108221161Y-123981252D01*
X108259257Y-123943157D01*
X108335447Y-123905061D01*
X108525923Y-123905061D01*
X108602114Y-123943157D01*
X108640209Y-123981252D01*
X108678304Y-124057442D01*
X108678304Y-124247919D01*
X108640209Y-124324109D01*
X108602114Y-124362204D01*
X108221161Y-123447919D02*
X108183066Y-123524109D01*
X108144971Y-123562204D01*
X108068780Y-123600300D01*
X108030685Y-123600300D01*
X107954495Y-123562204D01*
X107916400Y-123524109D01*
X107878304Y-123447919D01*
X107878304Y-123295538D01*
X107916400Y-123219347D01*
X107954495Y-123181252D01*
X108030685Y-123143157D01*
X108068780Y-123143157D01*
X108144971Y-123181252D01*
X108183066Y-123219347D01*
X108221161Y-123295538D01*
X108221161Y-123447919D01*
X108259257Y-123524109D01*
X108297352Y-123562204D01*
X108373542Y-123600300D01*
X108525923Y-123600300D01*
X108602114Y-123562204D01*
X108640209Y-123524109D01*
X108678304Y-123447919D01*
X108678304Y-123295538D01*
X108640209Y-123219347D01*
X108602114Y-123181252D01*
X108525923Y-123143157D01*
X108373542Y-123143157D01*
X108297352Y-123181252D01*
X108259257Y-123219347D01*
X108221161Y-123295538D01*
X108678304Y-122800300D02*
X108144971Y-122800300D01*
X108221161Y-122800300D02*
X108183066Y-122762204D01*
X108144971Y-122686014D01*
X108144971Y-122571728D01*
X108183066Y-122495538D01*
X108259257Y-122457442D01*
X108678304Y-122457442D01*
X108259257Y-122457442D02*
X108183066Y-122419347D01*
X108144971Y-122343157D01*
X108144971Y-122228871D01*
X108183066Y-122152680D01*
X108259257Y-122114585D01*
X108678304Y-122114585D01*
X108678304Y-121733633D02*
X108144971Y-121733633D01*
X108221161Y-121733633D02*
X108183066Y-121695538D01*
X108144971Y-121619347D01*
X108144971Y-121505061D01*
X108183066Y-121428871D01*
X108259257Y-121390776D01*
X108678304Y-121390776D01*
X108259257Y-121390776D02*
X108183066Y-121352680D01*
X108144971Y-121276490D01*
X108144971Y-121162204D01*
X108183066Y-121086014D01*
X108259257Y-121047919D01*
X108678304Y-121047919D01*
D10*
X115582700Y-98288700D02*
X115582700Y-98504600D01*
X118122700Y-98288700D02*
X118122700Y-98504600D01*
X120662700Y-98288700D02*
X120662700Y-98504600D01*
X123202700Y-98288700D02*
X123202700Y-98504600D01*
X125742700Y-98288700D02*
X125742700Y-98504600D01*
X128282700Y-98288700D02*
X128282700Y-98504600D01*
X130822700Y-98288700D02*
X130822700Y-98504600D01*
X133362700Y-98288700D02*
X133362700Y-98504600D01*
X135902700Y-98288700D02*
X135902700Y-98504600D01*
X138442700Y-98288700D02*
X138442700Y-98504600D01*
X140982700Y-98288700D02*
X140982700Y-98504600D01*
X143522700Y-98288700D02*
X143522700Y-98504600D01*
X146062700Y-98288700D02*
X146062700Y-98504600D01*
X148602700Y-98288700D02*
X148602700Y-98504600D01*
X151142700Y-98288700D02*
X151142700Y-98504600D01*
X153682700Y-98288700D02*
X153682700Y-98504600D01*
X156222700Y-98288700D02*
X156222700Y-98504600D01*
X158762700Y-98288700D02*
X158762700Y-98504600D01*
X161302700Y-98288700D02*
X161302700Y-98504600D01*
X163842700Y-98288700D02*
X163842700Y-98504600D01*
X115582700Y-100828700D02*
X115582700Y-101044600D01*
X118122700Y-100828700D02*
X118122700Y-101044600D01*
X120662700Y-100828700D02*
X120662700Y-101044600D01*
X123202700Y-100828700D02*
X123202700Y-101044600D01*
X125742700Y-100828700D02*
X125742700Y-101044600D01*
X128282700Y-100828700D02*
X128282700Y-101044600D01*
X130822700Y-100828700D02*
X130822700Y-101044600D01*
X133362700Y-100828700D02*
X133362700Y-101044600D01*
X135902700Y-100828700D02*
X135902700Y-101044600D01*
X138442700Y-100828700D02*
X138442700Y-101044600D01*
X140982700Y-100828700D02*
X140982700Y-101044600D01*
X143522700Y-100828700D02*
X143522700Y-101044600D01*
X146062700Y-100828700D02*
X146062700Y-101044600D01*
X148602700Y-100828700D02*
X148602700Y-101044600D01*
X151142700Y-100828700D02*
X151142700Y-101044600D01*
X153682700Y-100828700D02*
X153682700Y-101044600D01*
X156222700Y-100828700D02*
X156222700Y-101044600D01*
X158762700Y-100828700D02*
X158762700Y-101044600D01*
X161302700Y-100828700D02*
X161302700Y-101044600D01*
X163842700Y-100828700D02*
X163842700Y-101044600D01*
X115595400Y-108372500D02*
X115595400Y-108588400D01*
X118135400Y-108372500D02*
X118135400Y-108588400D01*
X120675400Y-108372500D02*
X120675400Y-108588400D01*
X123215400Y-108372500D02*
X123215400Y-108588400D01*
X125755400Y-108372500D02*
X125755400Y-108588400D01*
X128295400Y-108372500D02*
X128295400Y-108588400D01*
X130835400Y-108372500D02*
X130835400Y-108588400D01*
X133375400Y-108372500D02*
X133375400Y-108588400D01*
X135915400Y-108372500D02*
X135915400Y-108588400D01*
X138455400Y-108372500D02*
X138455400Y-108588400D01*
X140995400Y-108372500D02*
X140995400Y-108588400D01*
X143535400Y-108372500D02*
X143535400Y-108588400D01*
X146075400Y-108372500D02*
X146075400Y-108588400D01*
X148615400Y-108372500D02*
X148615400Y-108588400D01*
X151155400Y-108372500D02*
X151155400Y-108588400D01*
X153695400Y-108372500D02*
X153695400Y-108588400D01*
X156235400Y-108372500D02*
X156235400Y-108588400D01*
X158775400Y-108372500D02*
X158775400Y-108588400D01*
X161315400Y-108372500D02*
X161315400Y-108588400D01*
X163855400Y-108372500D02*
X163855400Y-108588400D01*
X115582700Y-116056000D02*
X115582700Y-116271900D01*
X118122700Y-116056000D02*
X118122700Y-116271900D01*
X120662700Y-116056000D02*
X120662700Y-116271900D01*
X123202700Y-116056000D02*
X123202700Y-116271900D01*
X125742700Y-116056000D02*
X125742700Y-116271900D01*
X128282700Y-116056000D02*
X128282700Y-116271900D01*
X130822700Y-116056000D02*
X130822700Y-116271900D01*
X133362700Y-116056000D02*
X133362700Y-116271900D01*
X135902700Y-116056000D02*
X135902700Y-116271900D01*
X138442700Y-116056000D02*
X138442700Y-116271900D01*
X140982700Y-116056000D02*
X140982700Y-116271900D01*
X143522700Y-116056000D02*
X143522700Y-116271900D01*
X146062700Y-116056000D02*
X146062700Y-116271900D01*
X148602700Y-116056000D02*
X148602700Y-116271900D01*
X151142700Y-116056000D02*
X151142700Y-116271900D01*
X153682700Y-116056000D02*
X153682700Y-116271900D01*
X156222700Y-116056000D02*
X156222700Y-116271900D01*
X158762700Y-116056000D02*
X158762700Y-116271900D01*
X161302700Y-116056000D02*
X161302700Y-116271900D01*
X163842700Y-116056000D02*
X163842700Y-116271900D01*
X115582700Y-118596000D02*
X115582700Y-118811900D01*
X118122700Y-118596000D02*
X118122700Y-118811900D01*
X120662700Y-118596000D02*
X120662700Y-118811900D01*
X123202700Y-118596000D02*
X123202700Y-118811900D01*
X125742700Y-118596000D02*
X125742700Y-118811900D01*
X128282700Y-118596000D02*
X128282700Y-118811900D01*
X130822700Y-118596000D02*
X130822700Y-118811900D01*
X133362700Y-118596000D02*
X133362700Y-118811900D01*
X135902700Y-118596000D02*
X135902700Y-118811900D01*
X138442700Y-118596000D02*
X138442700Y-118811900D01*
X140982700Y-118596000D02*
X140982700Y-118811900D01*
X143522700Y-118596000D02*
X143522700Y-118811900D01*
X146062700Y-118596000D02*
X146062700Y-118811900D01*
X148602700Y-118596000D02*
X148602700Y-118811900D01*
X151142700Y-118596000D02*
X151142700Y-118811900D01*
X153682700Y-118596000D02*
X153682700Y-118811900D01*
X156222700Y-118596000D02*
X156222700Y-118811900D01*
X158762700Y-118596000D02*
X158762700Y-118811900D01*
X161302700Y-118596000D02*
X161302700Y-118811900D01*
X163842700Y-118596000D02*
X163842700Y-118811900D01*
X115582700Y-121136000D02*
X115582700Y-121351900D01*
X118122700Y-121136000D02*
X118122700Y-121351900D01*
X120662700Y-121136000D02*
X120662700Y-121351900D01*
X123202700Y-121136000D02*
X123202700Y-121351900D01*
X125742700Y-121136000D02*
X125742700Y-121351900D01*
X128282700Y-121136000D02*
X128282700Y-121351900D01*
X130822700Y-121136000D02*
X130822700Y-121351900D01*
X133362700Y-121136000D02*
X133362700Y-121351900D01*
X135902700Y-121136000D02*
X135902700Y-121351900D01*
X138442700Y-121136000D02*
X138442700Y-121351900D01*
X140982700Y-121136000D02*
X140982700Y-121351900D01*
X143522700Y-121136000D02*
X143522700Y-121351900D01*
X146062700Y-121136000D02*
X146062700Y-121351900D01*
X148602700Y-121136000D02*
X148602700Y-121351900D01*
X151142700Y-121136000D02*
X151142700Y-121351900D01*
X153682700Y-121136000D02*
X153682700Y-121351900D01*
X156222700Y-121136000D02*
X156222700Y-121351900D01*
X158762700Y-121136000D02*
X158762700Y-121351900D01*
X161302700Y-121136000D02*
X161302700Y-121351900D01*
X163842700Y-121136000D02*
X163842700Y-121351900D01*
X115582700Y-123676000D02*
X115582700Y-123891900D01*
X118122700Y-123676000D02*
X118122700Y-123891900D01*
X120662700Y-123676000D02*
X120662700Y-123891900D01*
X123202700Y-123676000D02*
X123202700Y-123891900D01*
X125742700Y-123676000D02*
X125742700Y-123891900D01*
X128282700Y-123676000D02*
X128282700Y-123891900D01*
X130822700Y-123676000D02*
X130822700Y-123891900D01*
X133362700Y-123676000D02*
X133362700Y-123891900D01*
X135902700Y-123676000D02*
X135902700Y-123891900D01*
X138442700Y-123676000D02*
X138442700Y-123891900D01*
X140982700Y-123676000D02*
X140982700Y-123891900D01*
X143522700Y-123676000D02*
X143522700Y-123891900D01*
X146062700Y-123676000D02*
X146062700Y-123891900D01*
X148602700Y-123676000D02*
X148602700Y-123891900D01*
X151142700Y-123676000D02*
X151142700Y-123891900D01*
X153682700Y-123676000D02*
X153682700Y-123891900D01*
X156222700Y-123676000D02*
X156222700Y-123891900D01*
X158762700Y-123676000D02*
X158762700Y-123891900D01*
X161302700Y-123676000D02*
X161302700Y-123891900D01*
X163842700Y-123676000D02*
X163842700Y-123891900D01*
X115582700Y-126216000D02*
X115582700Y-126431900D01*
X118122700Y-126216000D02*
X118122700Y-126431900D01*
X120662700Y-126216000D02*
X120662700Y-126431900D01*
X123202700Y-126216000D02*
X123202700Y-126431900D01*
X125742700Y-126216000D02*
X125742700Y-126431900D01*
X128282700Y-126216000D02*
X128282700Y-126431900D01*
X130822700Y-126216000D02*
X130822700Y-126431900D01*
X133362700Y-126216000D02*
X133362700Y-126431900D01*
X135902700Y-126216000D02*
X135902700Y-126431900D01*
X138442700Y-126216000D02*
X138442700Y-126431900D01*
X140982700Y-126216000D02*
X140982700Y-126431900D01*
X143522700Y-126216000D02*
X143522700Y-126431900D01*
X146062700Y-126216000D02*
X146062700Y-126431900D01*
X148602700Y-126216000D02*
X148602700Y-126431900D01*
X151142700Y-126216000D02*
X151142700Y-126431900D01*
X153682700Y-126216000D02*
X153682700Y-126431900D01*
X156222700Y-126216000D02*
X156222700Y-126431900D01*
X158762700Y-126216000D02*
X158762700Y-126431900D01*
X161302700Y-126216000D02*
X161302700Y-126431900D01*
X163842700Y-126216000D02*
X163842700Y-126431900D01*
X115582700Y-128756000D02*
X115582700Y-128971900D01*
X118122700Y-128756000D02*
X118122700Y-128971900D01*
X120662700Y-128756000D02*
X120662700Y-128971900D01*
X123202700Y-128756000D02*
X123202700Y-128971900D01*
X125742700Y-128756000D02*
X125742700Y-128971900D01*
X128282700Y-128756000D02*
X128282700Y-128971900D01*
X130822700Y-128756000D02*
X130822700Y-128971900D01*
X133362700Y-128756000D02*
X133362700Y-128971900D01*
X135902700Y-128756000D02*
X135902700Y-128971900D01*
X138442700Y-128756000D02*
X138442700Y-128971900D01*
X140982700Y-128756000D02*
X140982700Y-128971900D01*
X143522700Y-128756000D02*
X143522700Y-128971900D01*
X146062700Y-128756000D02*
X146062700Y-128971900D01*
X148602700Y-128756000D02*
X148602700Y-128971900D01*
X151142700Y-128756000D02*
X151142700Y-128971900D01*
X153682700Y-128756000D02*
X153682700Y-128971900D01*
X156222700Y-128756000D02*
X156222700Y-128971900D01*
X158762700Y-128756000D02*
X158762700Y-128971900D01*
X161302700Y-128756000D02*
X161302700Y-128971900D01*
X163842700Y-128756000D02*
X163842700Y-128971900D01*
X125755400Y-138852500D02*
X125755400Y-139068400D01*
X128295400Y-138852500D02*
X128295400Y-139068400D01*
X130835400Y-138852500D02*
X130835400Y-139068400D01*
X133375400Y-138852500D02*
X133375400Y-139068400D01*
X135915400Y-138852500D02*
X135915400Y-139068400D01*
X138455400Y-138852500D02*
X138455400Y-139068400D01*
X140995400Y-138852500D02*
X140995400Y-139068400D01*
X143535400Y-138852500D02*
X143535400Y-139068400D01*
X146075400Y-138852500D02*
X146075400Y-139068400D01*
X148615400Y-138852500D02*
X148615400Y-139068400D01*
X151155400Y-138852500D02*
X151155400Y-139068400D01*
X153695400Y-138852500D02*
X153695400Y-139068400D01*
X156235400Y-138852500D02*
X156235400Y-139068400D01*
X158775400Y-138852500D02*
X158775400Y-139068400D01*
X161315400Y-138852500D02*
X161315400Y-139068400D01*
X163855400Y-138852500D02*
X163855400Y-139068400D01*
X127127000Y-135144100D02*
X126911100Y-135144100D01*
X129667000Y-135144100D02*
X129451100Y-135144100D01*
X132207000Y-135144100D02*
X131991100Y-135144100D01*
X134747000Y-135144100D02*
X134531100Y-135144100D01*
X137287000Y-135144100D02*
X137071100Y-135144100D01*
X139827000Y-135144100D02*
X139611100Y-135144100D01*
X142367000Y-135144100D02*
X142151100Y-135144100D01*
X144907000Y-135144100D02*
X144691100Y-135144100D01*
X147447000Y-135144100D02*
X147231100Y-135144100D01*
X149987000Y-135144100D02*
X149771100Y-135144100D01*
X152527000Y-135144100D02*
X152311100Y-135144100D01*
X155067000Y-135144100D02*
X154851100Y-135144100D01*
X157607000Y-135144100D02*
X157391100Y-135144100D01*
X160147000Y-135144100D02*
X159931100Y-135144100D01*
X162687000Y-135144100D02*
X162471100Y-135144100D01*
X116967000Y-132616800D02*
X116751100Y-132616800D01*
X119507000Y-132616800D02*
X119291100Y-132616800D01*
X122047000Y-132616800D02*
X121831100Y-132616800D01*
X124587000Y-132616800D02*
X124371100Y-132616800D01*
X127127000Y-132616800D02*
X126911100Y-132616800D01*
X129667000Y-132616800D02*
X129451100Y-132616800D01*
X132207000Y-132616800D02*
X131991100Y-132616800D01*
X134747000Y-132616800D02*
X134531100Y-132616800D01*
X137287000Y-132616800D02*
X137071100Y-132616800D01*
X139827000Y-132616800D02*
X139611100Y-132616800D01*
X142367000Y-132616800D02*
X142151100Y-132616800D01*
X144907000Y-132616800D02*
X144691100Y-132616800D01*
X147447000Y-132616800D02*
X147231100Y-132616800D01*
X149987000Y-132616800D02*
X149771100Y-132616800D01*
X152527000Y-132616800D02*
X152311100Y-132616800D01*
X155067000Y-132616800D02*
X154851100Y-132616800D01*
X157607000Y-132616800D02*
X157391100Y-132616800D01*
X160147000Y-132616800D02*
X159931100Y-132616800D01*
X162687000Y-132616800D02*
X162471100Y-132616800D01*
X116967000Y-112284100D02*
X116751100Y-112284100D01*
X119507000Y-112284100D02*
X119291100Y-112284100D01*
X122047000Y-112284100D02*
X121831100Y-112284100D01*
X124587000Y-112284100D02*
X124371100Y-112284100D01*
X127127000Y-112284100D02*
X126911100Y-112284100D01*
X129667000Y-112284100D02*
X129451100Y-112284100D01*
X132207000Y-112284100D02*
X131991100Y-112284100D01*
X134747000Y-112284100D02*
X134531100Y-112284100D01*
X137287000Y-112284100D02*
X137071100Y-112284100D01*
X139827000Y-112284100D02*
X139611100Y-112284100D01*
X142367000Y-112284100D02*
X142151100Y-112284100D01*
X144907000Y-112284100D02*
X144691100Y-112284100D01*
X147447000Y-112284100D02*
X147231100Y-112284100D01*
X149987000Y-112284100D02*
X149771100Y-112284100D01*
X152527000Y-112284100D02*
X152311100Y-112284100D01*
X155067000Y-112284100D02*
X154851100Y-112284100D01*
X157607000Y-112284100D02*
X157391100Y-112284100D01*
X160147000Y-112284100D02*
X159931100Y-112284100D01*
X162687000Y-112284100D02*
X162471100Y-112284100D01*
X116967000Y-104664100D02*
X116751100Y-104664100D01*
X119507000Y-104664100D02*
X119291100Y-104664100D01*
X122047000Y-104664100D02*
X121831100Y-104664100D01*
X124587000Y-104664100D02*
X124371100Y-104664100D01*
X127127000Y-104664100D02*
X126911100Y-104664100D01*
X129667000Y-104664100D02*
X129451100Y-104664100D01*
X132207000Y-104664100D02*
X131991100Y-104664100D01*
X134747000Y-104664100D02*
X134531100Y-104664100D01*
X137287000Y-104664100D02*
X137071100Y-104664100D01*
X139827000Y-104664100D02*
X139611100Y-104664100D01*
X142367000Y-104664100D02*
X142151100Y-104664100D01*
X144907000Y-104664100D02*
X144691100Y-104664100D01*
X147447000Y-104664100D02*
X147231100Y-104664100D01*
X149987000Y-104664100D02*
X149771100Y-104664100D01*
X152527000Y-104664100D02*
X152311100Y-104664100D01*
X155067000Y-104664100D02*
X154851100Y-104664100D01*
X157607000Y-104664100D02*
X157391100Y-104664100D01*
X160147000Y-104664100D02*
X159931100Y-104664100D01*
X162687000Y-104664100D02*
X162471100Y-104664100D01*
X162687000Y-55664100D02*
X162471100Y-55664100D01*
X160147000Y-55664100D02*
X159931100Y-55664100D01*
X157607000Y-55664100D02*
X157391100Y-55664100D01*
X155067000Y-55664100D02*
X154851100Y-55664100D01*
X152527000Y-55664100D02*
X152311100Y-55664100D01*
X149987000Y-55664100D02*
X149771100Y-55664100D01*
X147447000Y-55664100D02*
X147231100Y-55664100D01*
X144907000Y-55664100D02*
X144691100Y-55664100D01*
X142367000Y-55664100D02*
X142151100Y-55664100D01*
X139827000Y-55664100D02*
X139611100Y-55664100D01*
X137287000Y-55664100D02*
X137071100Y-55664100D01*
X134747000Y-55664100D02*
X134531100Y-55664100D01*
X132207000Y-55664100D02*
X131991100Y-55664100D01*
X129667000Y-55664100D02*
X129451100Y-55664100D01*
X127127000Y-55664100D02*
X126911100Y-55664100D01*
X124587000Y-55664100D02*
X124371100Y-55664100D01*
X122047000Y-55664100D02*
X121831100Y-55664100D01*
X119507000Y-55664100D02*
X119291100Y-55664100D01*
X116967000Y-55664100D02*
X116751100Y-55664100D01*
X162687000Y-63284100D02*
X162471100Y-63284100D01*
X160147000Y-63284100D02*
X159931100Y-63284100D01*
X157607000Y-63284100D02*
X157391100Y-63284100D01*
X155067000Y-63284100D02*
X154851100Y-63284100D01*
X152527000Y-63284100D02*
X152311100Y-63284100D01*
X149987000Y-63284100D02*
X149771100Y-63284100D01*
X147447000Y-63284100D02*
X147231100Y-63284100D01*
X144907000Y-63284100D02*
X144691100Y-63284100D01*
X142367000Y-63284100D02*
X142151100Y-63284100D01*
X139827000Y-63284100D02*
X139611100Y-63284100D01*
X137287000Y-63284100D02*
X137071100Y-63284100D01*
X134747000Y-63284100D02*
X134531100Y-63284100D01*
X132207000Y-63284100D02*
X131991100Y-63284100D01*
X129667000Y-63284100D02*
X129451100Y-63284100D01*
X127127000Y-63284100D02*
X126911100Y-63284100D01*
X124587000Y-63284100D02*
X124371100Y-63284100D01*
X122047000Y-63284100D02*
X121831100Y-63284100D01*
X119507000Y-63284100D02*
X119291100Y-63284100D01*
X116967000Y-63284100D02*
X116751100Y-63284100D01*
X162687000Y-83616800D02*
X162471100Y-83616800D01*
X160147000Y-83616800D02*
X159931100Y-83616800D01*
X157607000Y-83616800D02*
X157391100Y-83616800D01*
X155067000Y-83616800D02*
X154851100Y-83616800D01*
X152527000Y-83616800D02*
X152311100Y-83616800D01*
X149987000Y-83616800D02*
X149771100Y-83616800D01*
X147447000Y-83616800D02*
X147231100Y-83616800D01*
X144907000Y-83616800D02*
X144691100Y-83616800D01*
X142367000Y-83616800D02*
X142151100Y-83616800D01*
X139827000Y-83616800D02*
X139611100Y-83616800D01*
X137287000Y-83616800D02*
X137071100Y-83616800D01*
X134747000Y-83616800D02*
X134531100Y-83616800D01*
X132207000Y-83616800D02*
X131991100Y-83616800D01*
X129667000Y-83616800D02*
X129451100Y-83616800D01*
X127127000Y-83616800D02*
X126911100Y-83616800D01*
X124587000Y-83616800D02*
X124371100Y-83616800D01*
X122047000Y-83616800D02*
X121831100Y-83616800D01*
X119507000Y-83616800D02*
X119291100Y-83616800D01*
X116967000Y-83616800D02*
X116751100Y-83616800D01*
X162687000Y-86144100D02*
X162471100Y-86144100D01*
X160147000Y-86144100D02*
X159931100Y-86144100D01*
X157607000Y-86144100D02*
X157391100Y-86144100D01*
X155067000Y-86144100D02*
X154851100Y-86144100D01*
X152527000Y-86144100D02*
X152311100Y-86144100D01*
X149987000Y-86144100D02*
X149771100Y-86144100D01*
X147447000Y-86144100D02*
X147231100Y-86144100D01*
X144907000Y-86144100D02*
X144691100Y-86144100D01*
X142367000Y-86144100D02*
X142151100Y-86144100D01*
X139827000Y-86144100D02*
X139611100Y-86144100D01*
X137287000Y-86144100D02*
X137071100Y-86144100D01*
X134747000Y-86144100D02*
X134531100Y-86144100D01*
X132207000Y-86144100D02*
X131991100Y-86144100D01*
X129667000Y-86144100D02*
X129451100Y-86144100D01*
X127127000Y-86144100D02*
X126911100Y-86144100D01*
X163855400Y-89852500D02*
X163855400Y-90068400D01*
X161315400Y-89852500D02*
X161315400Y-90068400D01*
X158775400Y-89852500D02*
X158775400Y-90068400D01*
X156235400Y-89852500D02*
X156235400Y-90068400D01*
X153695400Y-89852500D02*
X153695400Y-90068400D01*
X151155400Y-89852500D02*
X151155400Y-90068400D01*
X148615400Y-89852500D02*
X148615400Y-90068400D01*
X146075400Y-89852500D02*
X146075400Y-90068400D01*
X143535400Y-89852500D02*
X143535400Y-90068400D01*
X140995400Y-89852500D02*
X140995400Y-90068400D01*
X138455400Y-89852500D02*
X138455400Y-90068400D01*
X135915400Y-89852500D02*
X135915400Y-90068400D01*
X133375400Y-89852500D02*
X133375400Y-90068400D01*
X130835400Y-89852500D02*
X130835400Y-90068400D01*
X128295400Y-89852500D02*
X128295400Y-90068400D01*
X125755400Y-89852500D02*
X125755400Y-90068400D01*
X163842700Y-79756000D02*
X163842700Y-79971900D01*
X161302700Y-79756000D02*
X161302700Y-79971900D01*
X158762700Y-79756000D02*
X158762700Y-79971900D01*
X156222700Y-79756000D02*
X156222700Y-79971900D01*
X153682700Y-79756000D02*
X153682700Y-79971900D01*
X151142700Y-79756000D02*
X151142700Y-79971900D01*
X148602700Y-79756000D02*
X148602700Y-79971900D01*
X146062700Y-79756000D02*
X146062700Y-79971900D01*
X143522700Y-79756000D02*
X143522700Y-79971900D01*
X140982700Y-79756000D02*
X140982700Y-79971900D01*
X138442700Y-79756000D02*
X138442700Y-79971900D01*
X135902700Y-79756000D02*
X135902700Y-79971900D01*
X133362700Y-79756000D02*
X133362700Y-79971900D01*
X130822700Y-79756000D02*
X130822700Y-79971900D01*
X128282700Y-79756000D02*
X128282700Y-79971900D01*
X125742700Y-79756000D02*
X125742700Y-79971900D01*
X123202700Y-79756000D02*
X123202700Y-79971900D01*
X120662700Y-79756000D02*
X120662700Y-79971900D01*
X118122700Y-79756000D02*
X118122700Y-79971900D01*
X115582700Y-79756000D02*
X115582700Y-79971900D01*
X163842700Y-77216000D02*
X163842700Y-77431900D01*
X161302700Y-77216000D02*
X161302700Y-77431900D01*
X158762700Y-77216000D02*
X158762700Y-77431900D01*
X156222700Y-77216000D02*
X156222700Y-77431900D01*
X153682700Y-77216000D02*
X153682700Y-77431900D01*
X151142700Y-77216000D02*
X151142700Y-77431900D01*
X148602700Y-77216000D02*
X148602700Y-77431900D01*
X146062700Y-77216000D02*
X146062700Y-77431900D01*
X143522700Y-77216000D02*
X143522700Y-77431900D01*
X140982700Y-77216000D02*
X140982700Y-77431900D01*
X138442700Y-77216000D02*
X138442700Y-77431900D01*
X135902700Y-77216000D02*
X135902700Y-77431900D01*
X133362700Y-77216000D02*
X133362700Y-77431900D01*
X130822700Y-77216000D02*
X130822700Y-77431900D01*
X128282700Y-77216000D02*
X128282700Y-77431900D01*
X125742700Y-77216000D02*
X125742700Y-77431900D01*
X123202700Y-77216000D02*
X123202700Y-77431900D01*
X120662700Y-77216000D02*
X120662700Y-77431900D01*
X118122700Y-77216000D02*
X118122700Y-77431900D01*
X115582700Y-77216000D02*
X115582700Y-77431900D01*
X163842700Y-74676000D02*
X163842700Y-74891900D01*
X161302700Y-74676000D02*
X161302700Y-74891900D01*
X158762700Y-74676000D02*
X158762700Y-74891900D01*
X156222700Y-74676000D02*
X156222700Y-74891900D01*
X153682700Y-74676000D02*
X153682700Y-74891900D01*
X151142700Y-74676000D02*
X151142700Y-74891900D01*
X148602700Y-74676000D02*
X148602700Y-74891900D01*
X146062700Y-74676000D02*
X146062700Y-74891900D01*
X143522700Y-74676000D02*
X143522700Y-74891900D01*
X140982700Y-74676000D02*
X140982700Y-74891900D01*
X138442700Y-74676000D02*
X138442700Y-74891900D01*
X135902700Y-74676000D02*
X135902700Y-74891900D01*
X133362700Y-74676000D02*
X133362700Y-74891900D01*
X130822700Y-74676000D02*
X130822700Y-74891900D01*
X128282700Y-74676000D02*
X128282700Y-74891900D01*
X125742700Y-74676000D02*
X125742700Y-74891900D01*
X123202700Y-74676000D02*
X123202700Y-74891900D01*
X120662700Y-74676000D02*
X120662700Y-74891900D01*
X118122700Y-74676000D02*
X118122700Y-74891900D01*
X115582700Y-74676000D02*
X115582700Y-74891900D01*
X163842700Y-72136000D02*
X163842700Y-72351900D01*
X161302700Y-72136000D02*
X161302700Y-72351900D01*
X158762700Y-72136000D02*
X158762700Y-72351900D01*
X156222700Y-72136000D02*
X156222700Y-72351900D01*
X153682700Y-72136000D02*
X153682700Y-72351900D01*
X151142700Y-72136000D02*
X151142700Y-72351900D01*
X148602700Y-72136000D02*
X148602700Y-72351900D01*
X146062700Y-72136000D02*
X146062700Y-72351900D01*
X143522700Y-72136000D02*
X143522700Y-72351900D01*
X140982700Y-72136000D02*
X140982700Y-72351900D01*
X138442700Y-72136000D02*
X138442700Y-72351900D01*
X135902700Y-72136000D02*
X135902700Y-72351900D01*
X133362700Y-72136000D02*
X133362700Y-72351900D01*
X130822700Y-72136000D02*
X130822700Y-72351900D01*
X128282700Y-72136000D02*
X128282700Y-72351900D01*
X125742700Y-72136000D02*
X125742700Y-72351900D01*
X123202700Y-72136000D02*
X123202700Y-72351900D01*
X120662700Y-72136000D02*
X120662700Y-72351900D01*
X118122700Y-72136000D02*
X118122700Y-72351900D01*
X115582700Y-72136000D02*
X115582700Y-72351900D01*
X163842700Y-69596000D02*
X163842700Y-69811900D01*
X161302700Y-69596000D02*
X161302700Y-69811900D01*
X158762700Y-69596000D02*
X158762700Y-69811900D01*
X156222700Y-69596000D02*
X156222700Y-69811900D01*
X153682700Y-69596000D02*
X153682700Y-69811900D01*
X151142700Y-69596000D02*
X151142700Y-69811900D01*
X148602700Y-69596000D02*
X148602700Y-69811900D01*
X146062700Y-69596000D02*
X146062700Y-69811900D01*
X143522700Y-69596000D02*
X143522700Y-69811900D01*
X140982700Y-69596000D02*
X140982700Y-69811900D01*
X138442700Y-69596000D02*
X138442700Y-69811900D01*
X135902700Y-69596000D02*
X135902700Y-69811900D01*
X133362700Y-69596000D02*
X133362700Y-69811900D01*
X130822700Y-69596000D02*
X130822700Y-69811900D01*
X128282700Y-69596000D02*
X128282700Y-69811900D01*
X125742700Y-69596000D02*
X125742700Y-69811900D01*
X123202700Y-69596000D02*
X123202700Y-69811900D01*
X120662700Y-69596000D02*
X120662700Y-69811900D01*
X118122700Y-69596000D02*
X118122700Y-69811900D01*
X115582700Y-69596000D02*
X115582700Y-69811900D01*
X163842700Y-67056000D02*
X163842700Y-67271900D01*
X161302700Y-67056000D02*
X161302700Y-67271900D01*
X158762700Y-67056000D02*
X158762700Y-67271900D01*
X156222700Y-67056000D02*
X156222700Y-67271900D01*
X153682700Y-67056000D02*
X153682700Y-67271900D01*
X151142700Y-67056000D02*
X151142700Y-67271900D01*
X148602700Y-67056000D02*
X148602700Y-67271900D01*
X146062700Y-67056000D02*
X146062700Y-67271900D01*
X143522700Y-67056000D02*
X143522700Y-67271900D01*
X140982700Y-67056000D02*
X140982700Y-67271900D01*
X138442700Y-67056000D02*
X138442700Y-67271900D01*
X135902700Y-67056000D02*
X135902700Y-67271900D01*
X133362700Y-67056000D02*
X133362700Y-67271900D01*
X130822700Y-67056000D02*
X130822700Y-67271900D01*
X128282700Y-67056000D02*
X128282700Y-67271900D01*
X125742700Y-67056000D02*
X125742700Y-67271900D01*
X123202700Y-67056000D02*
X123202700Y-67271900D01*
X120662700Y-67056000D02*
X120662700Y-67271900D01*
X118122700Y-67056000D02*
X118122700Y-67271900D01*
X115582700Y-67056000D02*
X115582700Y-67271900D01*
X163855400Y-59372500D02*
X163855400Y-59588400D01*
X161315400Y-59372500D02*
X161315400Y-59588400D01*
X158775400Y-59372500D02*
X158775400Y-59588400D01*
X156235400Y-59372500D02*
X156235400Y-59588400D01*
X153695400Y-59372500D02*
X153695400Y-59588400D01*
X151155400Y-59372500D02*
X151155400Y-59588400D01*
X148615400Y-59372500D02*
X148615400Y-59588400D01*
X146075400Y-59372500D02*
X146075400Y-59588400D01*
X143535400Y-59372500D02*
X143535400Y-59588400D01*
X140995400Y-59372500D02*
X140995400Y-59588400D01*
X138455400Y-59372500D02*
X138455400Y-59588400D01*
X135915400Y-59372500D02*
X135915400Y-59588400D01*
X133375400Y-59372500D02*
X133375400Y-59588400D01*
X130835400Y-59372500D02*
X130835400Y-59588400D01*
X128295400Y-59372500D02*
X128295400Y-59588400D01*
X125755400Y-59372500D02*
X125755400Y-59588400D01*
X123215400Y-59372500D02*
X123215400Y-59588400D01*
X120675400Y-59372500D02*
X120675400Y-59588400D01*
X118135400Y-59372500D02*
X118135400Y-59588400D01*
X115595400Y-59372500D02*
X115595400Y-59588400D01*
X163842700Y-51828700D02*
X163842700Y-52044600D01*
X161302700Y-51828700D02*
X161302700Y-52044600D01*
X158762700Y-51828700D02*
X158762700Y-52044600D01*
X156222700Y-51828700D02*
X156222700Y-52044600D01*
X153682700Y-51828700D02*
X153682700Y-52044600D01*
X151142700Y-51828700D02*
X151142700Y-52044600D01*
X148602700Y-51828700D02*
X148602700Y-52044600D01*
X146062700Y-51828700D02*
X146062700Y-52044600D01*
X143522700Y-51828700D02*
X143522700Y-52044600D01*
X140982700Y-51828700D02*
X140982700Y-52044600D01*
X138442700Y-51828700D02*
X138442700Y-52044600D01*
X135902700Y-51828700D02*
X135902700Y-52044600D01*
X133362700Y-51828700D02*
X133362700Y-52044600D01*
X130822700Y-51828700D02*
X130822700Y-52044600D01*
X128282700Y-51828700D02*
X128282700Y-52044600D01*
X125742700Y-51828700D02*
X125742700Y-52044600D01*
X123202700Y-51828700D02*
X123202700Y-52044600D01*
X120662700Y-51828700D02*
X120662700Y-52044600D01*
X118122700Y-51828700D02*
X118122700Y-52044600D01*
X115582700Y-51828700D02*
X115582700Y-52044600D01*
X163842700Y-49288700D02*
X163842700Y-49504600D01*
X161302700Y-49288700D02*
X161302700Y-49504600D01*
X158762700Y-49288700D02*
X158762700Y-49504600D01*
X156222700Y-49288700D02*
X156222700Y-49504600D01*
X153682700Y-49288700D02*
X153682700Y-49504600D01*
X151142700Y-49288700D02*
X151142700Y-49504600D01*
X148602700Y-49288700D02*
X148602700Y-49504600D01*
X146062700Y-49288700D02*
X146062700Y-49504600D01*
X143522700Y-49288700D02*
X143522700Y-49504600D01*
X140982700Y-49288700D02*
X140982700Y-49504600D01*
X138442700Y-49288700D02*
X138442700Y-49504600D01*
X135902700Y-49288700D02*
X135902700Y-49504600D01*
X133362700Y-49288700D02*
X133362700Y-49504600D01*
X130822700Y-49288700D02*
X130822700Y-49504600D01*
X128282700Y-49288700D02*
X128282700Y-49504600D01*
X125742700Y-49288700D02*
X125742700Y-49504600D01*
X123202700Y-49288700D02*
X123202700Y-49504600D01*
X120662700Y-49288700D02*
X120662700Y-49504600D01*
X118122700Y-49288700D02*
X118122700Y-49504600D01*
X115582700Y-49288700D02*
X115582700Y-49504600D01*
D11*
X108678304Y-85152680D02*
X107878304Y-85152680D01*
X108449733Y-84886014D01*
X107878304Y-84619347D01*
X108678304Y-84619347D01*
X108602114Y-83781252D02*
X108640209Y-83819347D01*
X108678304Y-83933633D01*
X108678304Y-84009823D01*
X108640209Y-84124109D01*
X108564019Y-84200300D01*
X108487828Y-84238395D01*
X108335447Y-84276490D01*
X108221161Y-84276490D01*
X108068780Y-84238395D01*
X107992590Y-84200300D01*
X107916400Y-84124109D01*
X107878304Y-84009823D01*
X107878304Y-83933633D01*
X107916400Y-83819347D01*
X107954495Y-83781252D01*
X107878304Y-83438395D02*
X108525923Y-83438395D01*
X108602114Y-83400300D01*
X108640209Y-83362204D01*
X108678304Y-83286014D01*
X108678304Y-83133633D01*
X108640209Y-83057442D01*
X108602114Y-83019347D01*
X108525923Y-82981252D01*
X107878304Y-82981252D01*
X108678304Y-81990776D02*
X107878304Y-81990776D01*
X107878304Y-81686014D01*
X107916400Y-81609823D01*
X107954495Y-81571728D01*
X108030685Y-81533633D01*
X108144971Y-81533633D01*
X108221161Y-81571728D01*
X108259257Y-81609823D01*
X108297352Y-81686014D01*
X108297352Y-81990776D01*
X108678304Y-80733633D02*
X108297352Y-81000300D01*
X108678304Y-81190776D02*
X107878304Y-81190776D01*
X107878304Y-80886014D01*
X107916400Y-80809823D01*
X107954495Y-80771728D01*
X108030685Y-80733633D01*
X108144971Y-80733633D01*
X108221161Y-80771728D01*
X108259257Y-80809823D01*
X108297352Y-80886014D01*
X108297352Y-81190776D01*
X107878304Y-80238395D02*
X107878304Y-80086014D01*
X107916400Y-80009823D01*
X107992590Y-79933633D01*
X108144971Y-79895538D01*
X108411638Y-79895538D01*
X108564019Y-79933633D01*
X108640209Y-80009823D01*
X108678304Y-80086014D01*
X108678304Y-80238395D01*
X108640209Y-80314585D01*
X108564019Y-80390776D01*
X108411638Y-80428871D01*
X108144971Y-80428871D01*
X107992590Y-80390776D01*
X107916400Y-80314585D01*
X107878304Y-80238395D01*
X107878304Y-79666966D02*
X107878304Y-79209823D01*
X108678304Y-79438395D02*
X107878304Y-79438395D01*
X107878304Y-78790776D02*
X107878304Y-78638395D01*
X107916400Y-78562204D01*
X107992590Y-78486014D01*
X108144971Y-78447919D01*
X108411638Y-78447919D01*
X108564019Y-78486014D01*
X108640209Y-78562204D01*
X108678304Y-78638395D01*
X108678304Y-78790776D01*
X108640209Y-78866966D01*
X108564019Y-78943157D01*
X108411638Y-78981252D01*
X108144971Y-78981252D01*
X107992590Y-78943157D01*
X107916400Y-78866966D01*
X107878304Y-78790776D01*
X108221161Y-77381252D02*
X108183066Y-77457442D01*
X108144971Y-77495538D01*
X108068780Y-77533633D01*
X108030685Y-77533633D01*
X107954495Y-77495538D01*
X107916400Y-77457442D01*
X107878304Y-77381252D01*
X107878304Y-77228871D01*
X107916400Y-77152680D01*
X107954495Y-77114585D01*
X108030685Y-77076490D01*
X108068780Y-77076490D01*
X108144971Y-77114585D01*
X108183066Y-77152680D01*
X108221161Y-77228871D01*
X108221161Y-77381252D01*
X108259257Y-77457442D01*
X108297352Y-77495538D01*
X108373542Y-77533633D01*
X108525923Y-77533633D01*
X108602114Y-77495538D01*
X108640209Y-77457442D01*
X108678304Y-77381252D01*
X108678304Y-77228871D01*
X108640209Y-77152680D01*
X108602114Y-77114585D01*
X108525923Y-77076490D01*
X108373542Y-77076490D01*
X108297352Y-77114585D01*
X108259257Y-77152680D01*
X108221161Y-77228871D01*
X107878304Y-76809823D02*
X107878304Y-76314585D01*
X108183066Y-76581252D01*
X108183066Y-76466966D01*
X108221161Y-76390776D01*
X108259257Y-76352680D01*
X108335447Y-76314585D01*
X108525923Y-76314585D01*
X108602114Y-76352680D01*
X108640209Y-76390776D01*
X108678304Y-76466966D01*
X108678304Y-76695538D01*
X108640209Y-76771728D01*
X108602114Y-76809823D01*
X108678304Y-76047919D02*
X108144971Y-75628871D01*
X108144971Y-76047919D02*
X108678304Y-75628871D01*
X107878304Y-74943157D02*
X107878304Y-75324109D01*
X108259257Y-75362204D01*
X108221161Y-75324109D01*
X108183066Y-75247919D01*
X108183066Y-75057442D01*
X108221161Y-74981252D01*
X108259257Y-74943157D01*
X108335447Y-74905061D01*
X108525923Y-74905061D01*
X108602114Y-74943157D01*
X108640209Y-74981252D01*
X108678304Y-75057442D01*
X108678304Y-75247919D01*
X108640209Y-75324109D01*
X108602114Y-75362204D01*
X108221161Y-74447919D02*
X108183066Y-74524109D01*
X108144971Y-74562204D01*
X108068780Y-74600300D01*
X108030685Y-74600300D01*
X107954495Y-74562204D01*
X107916400Y-74524109D01*
X107878304Y-74447919D01*
X107878304Y-74295538D01*
X107916400Y-74219347D01*
X107954495Y-74181252D01*
X108030685Y-74143157D01*
X108068780Y-74143157D01*
X108144971Y-74181252D01*
X108183066Y-74219347D01*
X108221161Y-74295538D01*
X108221161Y-74447919D01*
X108259257Y-74524109D01*
X108297352Y-74562204D01*
X108373542Y-74600300D01*
X108525923Y-74600300D01*
X108602114Y-74562204D01*
X108640209Y-74524109D01*
X108678304Y-74447919D01*
X108678304Y-74295538D01*
X108640209Y-74219347D01*
X108602114Y-74181252D01*
X108525923Y-74143157D01*
X108373542Y-74143157D01*
X108297352Y-74181252D01*
X108259257Y-74219347D01*
X108221161Y-74295538D01*
X108678304Y-73800300D02*
X108144971Y-73800300D01*
X108221161Y-73800300D02*
X108183066Y-73762204D01*
X108144971Y-73686014D01*
X108144971Y-73571728D01*
X108183066Y-73495538D01*
X108259257Y-73457442D01*
X108678304Y-73457442D01*
X108259257Y-73457442D02*
X108183066Y-73419347D01*
X108144971Y-73343157D01*
X108144971Y-73228871D01*
X108183066Y-73152680D01*
X108259257Y-73114585D01*
X108678304Y-73114585D01*
X108678304Y-72733633D02*
X108144971Y-72733633D01*
X108221161Y-72733633D02*
X108183066Y-72695538D01*
X108144971Y-72619347D01*
X108144971Y-72505061D01*
X108183066Y-72428871D01*
X108259257Y-72390776D01*
X108678304Y-72390776D01*
X108259257Y-72390776D02*
X108183066Y-72352680D01*
X108144971Y-72276490D01*
X108144971Y-72162204D01*
X108183066Y-72086014D01*
X108259257Y-72047919D01*
X108678304Y-72047919D01*
D10*
X171488100Y-82918300D02*
X167868600Y-82918300D01*
X171462700Y-79425800D02*
X167843200Y-79425800D01*
X171488100Y-75946000D02*
X167868600Y-75946000D01*
X171488100Y-63334900D02*
X167868600Y-63334900D01*
X171488100Y-59829700D02*
X167868600Y-59829700D01*
X171475400Y-56337200D02*
X167855900Y-56337200D01*
D12*
G36*
X107514431Y-103447886D02*
G01*
X107959055Y-103364065D01*
X108086553Y-103054780D01*
X108214051Y-102745494D01*
X107961746Y-102374454D01*
X107891496Y-102270543D01*
X107828772Y-102176613D01*
X107776438Y-102097048D01*
X107737357Y-102036230D01*
X107714393Y-101998543D01*
X107709442Y-101988279D01*
X107722176Y-101969790D01*
X107757382Y-101930280D01*
X107810562Y-101874178D01*
X107877218Y-101805913D01*
X107952854Y-101729914D01*
X108032972Y-101650608D01*
X108113074Y-101572425D01*
X108188664Y-101499793D01*
X108255245Y-101437141D01*
X108308318Y-101388897D01*
X108343387Y-101359490D01*
X108355123Y-101352459D01*
X108376760Y-101362577D01*
X108424162Y-101390941D01*
X108492693Y-101434571D01*
X108577715Y-101490482D01*
X108674593Y-101555694D01*
X108729850Y-101593481D01*
X108830748Y-101662357D01*
X108921799Y-101723560D01*
X108998470Y-101774122D01*
X109056228Y-101811072D01*
X109090543Y-101831442D01*
X109097754Y-101834503D01*
X109118248Y-101827564D01*
X109166013Y-101808649D01*
X109234332Y-101780613D01*
X109316489Y-101746309D01*
X109405770Y-101708591D01*
X109495458Y-101670313D01*
X109578838Y-101634330D01*
X109649194Y-101603494D01*
X109699810Y-101580661D01*
X109723971Y-101568683D01*
X109724922Y-101567976D01*
X109729536Y-101549169D01*
X109739828Y-101499082D01*
X109754787Y-101422907D01*
X109773401Y-101325835D01*
X109794659Y-101213057D01*
X109806918Y-101147258D01*
X109829862Y-101026750D01*
X109851695Y-100917903D01*
X109871222Y-100826224D01*
X109887248Y-100757219D01*
X109898579Y-100716396D01*
X109902174Y-100708189D01*
X109926506Y-100700152D01*
X109981459Y-100693667D01*
X110060608Y-100688730D01*
X110157526Y-100685336D01*
X110265787Y-100683482D01*
X110378965Y-100683162D01*
X110490635Y-100684373D01*
X110594368Y-100687110D01*
X110683741Y-100691369D01*
X110752326Y-100697145D01*
X110793697Y-100704433D01*
X110802310Y-100708805D01*
X110812633Y-100734936D01*
X110827392Y-100790307D01*
X110844852Y-100867593D01*
X110863280Y-100959470D01*
X110869241Y-100991542D01*
X110897566Y-101146176D01*
X110920376Y-101268325D01*
X110938580Y-101362027D01*
X110953083Y-101431316D01*
X110964792Y-101480229D01*
X110974615Y-101512803D01*
X110983456Y-101533072D01*
X110992224Y-101545074D01*
X110993957Y-101546753D01*
X111021871Y-101563516D01*
X111076195Y-101589086D01*
X111150277Y-101620912D01*
X111237465Y-101656440D01*
X111331108Y-101693117D01*
X111424552Y-101728389D01*
X111511147Y-101759704D01*
X111584240Y-101784507D01*
X111637178Y-101800246D01*
X111663311Y-101804368D01*
X111664226Y-101804024D01*
X111685586Y-101790059D01*
X111732584Y-101758378D01*
X111800327Y-101712309D01*
X111883923Y-101655182D01*
X111978482Y-101590327D01*
X112005354Y-101571857D01*
X112102775Y-101506001D01*
X112191663Y-101448050D01*
X112266912Y-101401162D01*
X112323420Y-101368493D01*
X112356081Y-101353200D01*
X112360093Y-101352459D01*
X112381184Y-101365308D01*
X112422964Y-101400812D01*
X112480945Y-101454407D01*
X112550635Y-101521529D01*
X112627545Y-101597613D01*
X112707183Y-101678096D01*
X112785061Y-101758413D01*
X112856686Y-101834001D01*
X112917570Y-101900295D01*
X112963221Y-101952731D01*
X112989150Y-101986745D01*
X112993383Y-101996155D01*
X112983412Y-102018057D01*
X112956520Y-102062900D01*
X112917236Y-102123379D01*
X112885617Y-102169911D01*
X112827598Y-102254225D01*
X112759284Y-102354074D01*
X112691079Y-102454227D01*
X112654575Y-102508073D01*
X112531300Y-102690329D01*
X112614020Y-102843319D01*
X112650259Y-102913018D01*
X112678426Y-102972286D01*
X112694491Y-103012389D01*
X112696726Y-103022597D01*
X112680222Y-103034871D01*
X112633582Y-103059087D01*
X112561109Y-103093437D01*
X112467106Y-103136112D01*
X112355874Y-103185306D01*
X112231715Y-103239210D01*
X112098932Y-103296016D01*
X111961827Y-103353918D01*
X111824702Y-103411107D01*
X111691858Y-103465776D01*
X111567598Y-103516116D01*
X111456225Y-103560320D01*
X111362039Y-103596581D01*
X111289344Y-103623091D01*
X111242441Y-103638042D01*
X111226333Y-103640446D01*
X111205786Y-103621389D01*
X111172433Y-103579664D01*
X111133202Y-103523994D01*
X111130099Y-103519322D01*
X111014923Y-103375436D01*
X110880553Y-103259417D01*
X110731284Y-103172270D01*
X110571413Y-103115001D01*
X110405237Y-103088614D01*
X110237052Y-103094115D01*
X110071155Y-103132510D01*
X109911842Y-103204805D01*
X109876987Y-103226074D01*
X109736237Y-103336704D01*
X109623214Y-103467398D01*
X109538503Y-103613636D01*
X109482694Y-103770892D01*
X109456374Y-103934643D01*
X109460130Y-104100367D01*
X109494550Y-104263538D01*
X109560223Y-104419635D01*
X109657735Y-104564133D01*
X109697313Y-104608831D01*
X109821203Y-104722588D01*
X109951624Y-104805482D01*
X110097815Y-104862344D01*
X110242588Y-104894013D01*
X110405360Y-104901831D01*
X110568940Y-104875762D01*
X110727798Y-104818455D01*
X110876406Y-104732556D01*
X111009235Y-104620714D01*
X111120756Y-104485577D01*
X111132511Y-104467817D01*
X111171008Y-104411550D01*
X111204363Y-104368777D01*
X111225660Y-104348328D01*
X111226333Y-104348031D01*
X111249371Y-104352421D01*
X111301657Y-104369824D01*
X111378890Y-104398432D01*
X111476768Y-104436435D01*
X111590991Y-104482026D01*
X111717258Y-104533397D01*
X111851267Y-104588738D01*
X111988718Y-104646242D01*
X112125308Y-104704099D01*
X112256737Y-104760502D01*
X112378705Y-104813642D01*
X112486909Y-104861710D01*
X112577049Y-104902899D01*
X112644823Y-104935399D01*
X112685930Y-104957403D01*
X112696726Y-104966264D01*
X112688319Y-104993340D01*
X112665772Y-105044003D01*
X112633113Y-105109517D01*
X112614020Y-105145541D01*
X112531300Y-105298532D01*
X112654575Y-105480788D01*
X112717728Y-105573825D01*
X112787227Y-105675685D01*
X112852665Y-105771138D01*
X112885617Y-105818950D01*
X112930773Y-105886195D01*
X112966557Y-105943136D01*
X112988438Y-105982346D01*
X112993063Y-105995081D01*
X112980585Y-106013617D01*
X112945752Y-106054641D01*
X112892178Y-106114175D01*
X112823483Y-106188242D01*
X112743281Y-106272865D01*
X112691786Y-106326385D01*
X112599786Y-106420019D01*
X112517499Y-106500941D01*
X112448445Y-106565877D01*
X112396144Y-106611558D01*
X112364116Y-106634711D01*
X112357616Y-106636932D01*
X112332894Y-106626624D01*
X112282905Y-106598139D01*
X112212712Y-106554637D01*
X112127375Y-106499277D01*
X112031956Y-106435220D01*
X112005354Y-106417003D01*
X111908667Y-106350627D01*
X111821617Y-106291078D01*
X111749095Y-106241684D01*
X111695993Y-106205775D01*
X111667203Y-106186681D01*
X111664226Y-106184836D01*
X111641282Y-106187595D01*
X111590836Y-106202238D01*
X111519541Y-106226213D01*
X111434047Y-106256966D01*
X111341007Y-106291944D01*
X111247074Y-106328593D01*
X111158899Y-106364361D01*
X111083134Y-106396694D01*
X111026431Y-106423038D01*
X110995443Y-106440842D01*
X110993957Y-106442107D01*
X110985101Y-106452994D01*
X110976343Y-106471382D01*
X110966777Y-106501306D01*
X110955496Y-106546803D01*
X110941593Y-106611909D01*
X110924163Y-106700661D01*
X110902298Y-106817093D01*
X110875091Y-106965242D01*
X110869241Y-106997318D01*
X110850874Y-107092386D01*
X110832905Y-107175265D01*
X110817069Y-107238630D01*
X110805100Y-107275158D01*
X110802310Y-107280056D01*
X110777572Y-107288127D01*
X110722290Y-107294687D01*
X110642889Y-107299733D01*
X110545796Y-107303259D01*
X110437438Y-107305261D01*
X110324240Y-107305736D01*
X110212628Y-107304677D01*
X110109029Y-107302082D01*
X110019868Y-107297946D01*
X109951572Y-107292263D01*
X109910566Y-107285031D01*
X109902174Y-107280671D01*
X109893708Y-107256398D01*
X109879935Y-107201126D01*
X109862050Y-107120362D01*
X109841248Y-107019612D01*
X109818723Y-106904383D01*
X109806918Y-106841602D01*
X109784651Y-106722487D01*
X109764479Y-106616265D01*
X109747415Y-106528127D01*
X109734469Y-106463266D01*
X109726655Y-106426874D01*
X109724922Y-106420884D01*
X109705390Y-106410761D01*
X109658343Y-106389362D01*
X109590503Y-106359539D01*
X109508591Y-106324145D01*
X109419328Y-106286032D01*
X109329435Y-106248053D01*
X109245635Y-106213060D01*
X109174647Y-106183906D01*
X109123194Y-106163443D01*
X109097997Y-106154523D01*
X109096896Y-106154357D01*
X109077019Y-106164469D01*
X109031277Y-106192817D01*
X108964217Y-106236423D01*
X108880384Y-106292306D01*
X108784326Y-106357487D01*
X108729150Y-106395379D01*
X108627981Y-106464425D01*
X108536130Y-106525750D01*
X108458244Y-106576363D01*
X108398969Y-106613271D01*
X108362951Y-106633482D01*
X108354877Y-106636401D01*
X108336084Y-106623853D01*
X108295957Y-106589163D01*
X108238993Y-106536763D01*
X108169685Y-106471084D01*
X108092531Y-106396556D01*
X108012025Y-106317613D01*
X107932663Y-106238683D01*
X107858940Y-106164200D01*
X107795352Y-106098594D01*
X107746394Y-106046296D01*
X107716561Y-106011739D01*
X107709442Y-106000178D01*
X107719453Y-105981354D01*
X107747578Y-105936331D01*
X107790954Y-105869487D01*
X107846718Y-105785199D01*
X107912006Y-105687844D01*
X107961746Y-105614407D01*
X108214051Y-105243367D01*
X107959055Y-104624795D01*
X107514431Y-104540975D01*
X107069807Y-104457154D01*
X107069807Y-103531706D01*
X107514431Y-103447886D01*
G37*
X107514431Y-103447886D02*
X107959055Y-103364065D01*
X108086553Y-103054780D01*
X108214051Y-102745494D01*
X107961746Y-102374454D01*
X107891496Y-102270543D01*
X107828772Y-102176613D01*
X107776438Y-102097048D01*
X107737357Y-102036230D01*
X107714393Y-101998543D01*
X107709442Y-101988279D01*
X107722176Y-101969790D01*
X107757382Y-101930280D01*
X107810562Y-101874178D01*
X107877218Y-101805913D01*
X107952854Y-101729914D01*
X108032972Y-101650608D01*
X108113074Y-101572425D01*
X108188664Y-101499793D01*
X108255245Y-101437141D01*
X108308318Y-101388897D01*
X108343387Y-101359490D01*
X108355123Y-101352459D01*
X108376760Y-101362577D01*
X108424162Y-101390941D01*
X108492693Y-101434571D01*
X108577715Y-101490482D01*
X108674593Y-101555694D01*
X108729850Y-101593481D01*
X108830748Y-101662357D01*
X108921799Y-101723560D01*
X108998470Y-101774122D01*
X109056228Y-101811072D01*
X109090543Y-101831442D01*
X109097754Y-101834503D01*
X109118248Y-101827564D01*
X109166013Y-101808649D01*
X109234332Y-101780613D01*
X109316489Y-101746309D01*
X109405770Y-101708591D01*
X109495458Y-101670313D01*
X109578838Y-101634330D01*
X109649194Y-101603494D01*
X109699810Y-101580661D01*
X109723971Y-101568683D01*
X109724922Y-101567976D01*
X109729536Y-101549169D01*
X109739828Y-101499082D01*
X109754787Y-101422907D01*
X109773401Y-101325835D01*
X109794659Y-101213057D01*
X109806918Y-101147258D01*
X109829862Y-101026750D01*
X109851695Y-100917903D01*
X109871222Y-100826224D01*
X109887248Y-100757219D01*
X109898579Y-100716396D01*
X109902174Y-100708189D01*
X109926506Y-100700152D01*
X109981459Y-100693667D01*
X110060608Y-100688730D01*
X110157526Y-100685336D01*
X110265787Y-100683482D01*
X110378965Y-100683162D01*
X110490635Y-100684373D01*
X110594368Y-100687110D01*
X110683741Y-100691369D01*
X110752326Y-100697145D01*
X110793697Y-100704433D01*
X110802310Y-100708805D01*
X110812633Y-100734936D01*
X110827392Y-100790307D01*
X110844852Y-100867593D01*
X110863280Y-100959470D01*
X110869241Y-100991542D01*
X110897566Y-101146176D01*
X110920376Y-101268325D01*
X110938580Y-101362027D01*
X110953083Y-101431316D01*
X110964792Y-101480229D01*
X110974615Y-101512803D01*
X110983456Y-101533072D01*
X110992224Y-101545074D01*
X110993957Y-101546753D01*
X111021871Y-101563516D01*
X111076195Y-101589086D01*
X111150277Y-101620912D01*
X111237465Y-101656440D01*
X111331108Y-101693117D01*
X111424552Y-101728389D01*
X111511147Y-101759704D01*
X111584240Y-101784507D01*
X111637178Y-101800246D01*
X111663311Y-101804368D01*
X111664226Y-101804024D01*
X111685586Y-101790059D01*
X111732584Y-101758378D01*
X111800327Y-101712309D01*
X111883923Y-101655182D01*
X111978482Y-101590327D01*
X112005354Y-101571857D01*
X112102775Y-101506001D01*
X112191663Y-101448050D01*
X112266912Y-101401162D01*
X112323420Y-101368493D01*
X112356081Y-101353200D01*
X112360093Y-101352459D01*
X112381184Y-101365308D01*
X112422964Y-101400812D01*
X112480945Y-101454407D01*
X112550635Y-101521529D01*
X112627545Y-101597613D01*
X112707183Y-101678096D01*
X112785061Y-101758413D01*
X112856686Y-101834001D01*
X112917570Y-101900295D01*
X112963221Y-101952731D01*
X112989150Y-101986745D01*
X112993383Y-101996155D01*
X112983412Y-102018057D01*
X112956520Y-102062900D01*
X112917236Y-102123379D01*
X112885617Y-102169911D01*
X112827598Y-102254225D01*
X112759284Y-102354074D01*
X112691079Y-102454227D01*
X112654575Y-102508073D01*
X112531300Y-102690329D01*
X112614020Y-102843319D01*
X112650259Y-102913018D01*
X112678426Y-102972286D01*
X112694491Y-103012389D01*
X112696726Y-103022597D01*
X112680222Y-103034871D01*
X112633582Y-103059087D01*
X112561109Y-103093437D01*
X112467106Y-103136112D01*
X112355874Y-103185306D01*
X112231715Y-103239210D01*
X112098932Y-103296016D01*
X111961827Y-103353918D01*
X111824702Y-103411107D01*
X111691858Y-103465776D01*
X111567598Y-103516116D01*
X111456225Y-103560320D01*
X111362039Y-103596581D01*
X111289344Y-103623091D01*
X111242441Y-103638042D01*
X111226333Y-103640446D01*
X111205786Y-103621389D01*
X111172433Y-103579664D01*
X111133202Y-103523994D01*
X111130099Y-103519322D01*
X111014923Y-103375436D01*
X110880553Y-103259417D01*
X110731284Y-103172270D01*
X110571413Y-103115001D01*
X110405237Y-103088614D01*
X110237052Y-103094115D01*
X110071155Y-103132510D01*
X109911842Y-103204805D01*
X109876987Y-103226074D01*
X109736237Y-103336704D01*
X109623214Y-103467398D01*
X109538503Y-103613636D01*
X109482694Y-103770892D01*
X109456374Y-103934643D01*
X109460130Y-104100367D01*
X109494550Y-104263538D01*
X109560223Y-104419635D01*
X109657735Y-104564133D01*
X109697313Y-104608831D01*
X109821203Y-104722588D01*
X109951624Y-104805482D01*
X110097815Y-104862344D01*
X110242588Y-104894013D01*
X110405360Y-104901831D01*
X110568940Y-104875762D01*
X110727798Y-104818455D01*
X110876406Y-104732556D01*
X111009235Y-104620714D01*
X111120756Y-104485577D01*
X111132511Y-104467817D01*
X111171008Y-104411550D01*
X111204363Y-104368777D01*
X111225660Y-104348328D01*
X111226333Y-104348031D01*
X111249371Y-104352421D01*
X111301657Y-104369824D01*
X111378890Y-104398432D01*
X111476768Y-104436435D01*
X111590991Y-104482026D01*
X111717258Y-104533397D01*
X111851267Y-104588738D01*
X111988718Y-104646242D01*
X112125308Y-104704099D01*
X112256737Y-104760502D01*
X112378705Y-104813642D01*
X112486909Y-104861710D01*
X112577049Y-104902899D01*
X112644823Y-104935399D01*
X112685930Y-104957403D01*
X112696726Y-104966264D01*
X112688319Y-104993340D01*
X112665772Y-105044003D01*
X112633113Y-105109517D01*
X112614020Y-105145541D01*
X112531300Y-105298532D01*
X112654575Y-105480788D01*
X112717728Y-105573825D01*
X112787227Y-105675685D01*
X112852665Y-105771138D01*
X112885617Y-105818950D01*
X112930773Y-105886195D01*
X112966557Y-105943136D01*
X112988438Y-105982346D01*
X112993063Y-105995081D01*
X112980585Y-106013617D01*
X112945752Y-106054641D01*
X112892178Y-106114175D01*
X112823483Y-106188242D01*
X112743281Y-106272865D01*
X112691786Y-106326385D01*
X112599786Y-106420019D01*
X112517499Y-106500941D01*
X112448445Y-106565877D01*
X112396144Y-106611558D01*
X112364116Y-106634711D01*
X112357616Y-106636932D01*
X112332894Y-106626624D01*
X112282905Y-106598139D01*
X112212712Y-106554637D01*
X112127375Y-106499277D01*
X112031956Y-106435220D01*
X112005354Y-106417003D01*
X111908667Y-106350627D01*
X111821617Y-106291078D01*
X111749095Y-106241684D01*
X111695993Y-106205775D01*
X111667203Y-106186681D01*
X111664226Y-106184836D01*
X111641282Y-106187595D01*
X111590836Y-106202238D01*
X111519541Y-106226213D01*
X111434047Y-106256966D01*
X111341007Y-106291944D01*
X111247074Y-106328593D01*
X111158899Y-106364361D01*
X111083134Y-106396694D01*
X111026431Y-106423038D01*
X110995443Y-106440842D01*
X110993957Y-106442107D01*
X110985101Y-106452994D01*
X110976343Y-106471382D01*
X110966777Y-106501306D01*
X110955496Y-106546803D01*
X110941593Y-106611909D01*
X110924163Y-106700661D01*
X110902298Y-106817093D01*
X110875091Y-106965242D01*
X110869241Y-106997318D01*
X110850874Y-107092386D01*
X110832905Y-107175265D01*
X110817069Y-107238630D01*
X110805100Y-107275158D01*
X110802310Y-107280056D01*
X110777572Y-107288127D01*
X110722290Y-107294687D01*
X110642889Y-107299733D01*
X110545796Y-107303259D01*
X110437438Y-107305261D01*
X110324240Y-107305736D01*
X110212628Y-107304677D01*
X110109029Y-107302082D01*
X110019868Y-107297946D01*
X109951572Y-107292263D01*
X109910566Y-107285031D01*
X109902174Y-107280671D01*
X109893708Y-107256398D01*
X109879935Y-107201126D01*
X109862050Y-107120362D01*
X109841248Y-107019612D01*
X109818723Y-106904383D01*
X109806918Y-106841602D01*
X109784651Y-106722487D01*
X109764479Y-106616265D01*
X109747415Y-106528127D01*
X109734469Y-106463266D01*
X109726655Y-106426874D01*
X109724922Y-106420884D01*
X109705390Y-106410761D01*
X109658343Y-106389362D01*
X109590503Y-106359539D01*
X109508591Y-106324145D01*
X109419328Y-106286032D01*
X109329435Y-106248053D01*
X109245635Y-106213060D01*
X109174647Y-106183906D01*
X109123194Y-106163443D01*
X109097997Y-106154523D01*
X109096896Y-106154357D01*
X109077019Y-106164469D01*
X109031277Y-106192817D01*
X108964217Y-106236423D01*
X108880384Y-106292306D01*
X108784326Y-106357487D01*
X108729150Y-106395379D01*
X108627981Y-106464425D01*
X108536130Y-106525750D01*
X108458244Y-106576363D01*
X108398969Y-106613271D01*
X108362951Y-106633482D01*
X108354877Y-106636401D01*
X108336084Y-106623853D01*
X108295957Y-106589163D01*
X108238993Y-106536763D01*
X108169685Y-106471084D01*
X108092531Y-106396556D01*
X108012025Y-106317613D01*
X107932663Y-106238683D01*
X107858940Y-106164200D01*
X107795352Y-106098594D01*
X107746394Y-106046296D01*
X107716561Y-106011739D01*
X107709442Y-106000178D01*
X107719453Y-105981354D01*
X107747578Y-105936331D01*
X107790954Y-105869487D01*
X107846718Y-105785199D01*
X107912006Y-105687844D01*
X107961746Y-105614407D01*
X108214051Y-105243367D01*
X107959055Y-104624795D01*
X107514431Y-104540975D01*
X107069807Y-104457154D01*
X107069807Y-103531706D01*
X107514431Y-103447886D01*
D13*
X174768685Y-131328413D02*
G75*
G02X174892300Y-131936000I-1431385J-607587D01*
G01*
X172729558Y-130503891D02*
G75*
G02X173945300Y-130504000I607742J-1432109D01*
G01*
X171905191Y-132543742D02*
G75*
G02X171905300Y-131328000I1432109J607742D01*
G01*
X173945042Y-133368109D02*
G75*
G02X172729300Y-133368000I-607742J1432109D01*
G01*
X174892792Y-131908989D02*
G75*
G02X174769300Y-132544000I-1555492J-27011D01*
G01*
X174892300Y-128436000D02*
G75*
G03X174892300Y-128436000I-1555000J0D01*
G01*
X174892300Y-124936000D02*
G75*
G03X174892300Y-124936000I-1555000J0D01*
G01*
X175437300Y-134096000D02*
X175437300Y-122776000D01*
X169877300Y-134096000D02*
X169877300Y-122776000D01*
X176997300Y-134096000D02*
X176997300Y-122776000D01*
X169877300Y-134096000D02*
X176997300Y-134096000D01*
X169877300Y-122776000D02*
X176997300Y-122776000D01*
X175497300Y-134336000D02*
X177237300Y-134336000D01*
X177237300Y-134336000D02*
X177237300Y-132836000D01*
X174768685Y-111728413D02*
G75*
G02X174892300Y-112336000I-1431385J-607587D01*
G01*
X172729558Y-110903891D02*
G75*
G02X173945300Y-110904000I607742J-1432109D01*
G01*
X171905191Y-112943742D02*
G75*
G02X171905300Y-111728000I1432109J607742D01*
G01*
X173945042Y-113768109D02*
G75*
G02X172729300Y-113768000I-607742J1432109D01*
G01*
X174892792Y-112308989D02*
G75*
G02X174769300Y-112944000I-1555492J-27011D01*
G01*
X174892300Y-108836000D02*
G75*
G03X174892300Y-108836000I-1555000J0D01*
G01*
X174892300Y-105336000D02*
G75*
G03X174892300Y-105336000I-1555000J0D01*
G01*
X175437300Y-114496000D02*
X175437300Y-103176000D01*
X169877300Y-114496000D02*
X169877300Y-103176000D01*
X176997300Y-114496000D02*
X176997300Y-103176000D01*
X169877300Y-114496000D02*
X176997300Y-114496000D01*
X169877300Y-103176000D02*
X176997300Y-103176000D01*
X175497300Y-114736000D02*
X177237300Y-114736000D01*
X177237300Y-114736000D02*
X177237300Y-113236000D01*
X116867300Y-121236000D02*
X116867300Y-118576000D01*
X116867300Y-121236000D02*
X165187300Y-121236000D01*
X165187300Y-121236000D02*
X165187300Y-118576000D01*
X116867300Y-118576000D02*
X165187300Y-118576000D01*
X114267300Y-118576000D02*
X115597300Y-118576000D01*
X114267300Y-119906000D02*
X114267300Y-118576000D01*
X116867300Y-100916000D02*
X116867300Y-98256000D01*
X116867300Y-100916000D02*
X165187300Y-100916000D01*
X165187300Y-100916000D02*
X165187300Y-98256000D01*
X116867300Y-98256000D02*
X165187300Y-98256000D01*
X114267300Y-98256000D02*
X115597300Y-98256000D01*
X114267300Y-99586000D02*
X114267300Y-98256000D01*
X116867300Y-118696000D02*
X116867300Y-116036000D01*
X116867300Y-118696000D02*
X165187300Y-118696000D01*
X165187300Y-118696000D02*
X165187300Y-116036000D01*
X116867300Y-116036000D02*
X165187300Y-116036000D01*
X114267300Y-116036000D02*
X115597300Y-116036000D01*
X114267300Y-117366000D02*
X114267300Y-116036000D01*
X116867300Y-128856000D02*
X116867300Y-126196000D01*
X116867300Y-128856000D02*
X165187300Y-128856000D01*
X165187300Y-128856000D02*
X165187300Y-126196000D01*
X116867300Y-126196000D02*
X165187300Y-126196000D01*
X114267300Y-126196000D02*
X115597300Y-126196000D01*
X114267300Y-127526000D02*
X114267300Y-126196000D01*
X116867300Y-126316000D02*
X116867300Y-123656000D01*
X116867300Y-126316000D02*
X165187300Y-126316000D01*
X165187300Y-126316000D02*
X165187300Y-123656000D01*
X116867300Y-123656000D02*
X165187300Y-123656000D01*
X114267300Y-123656000D02*
X115597300Y-123656000D01*
X114267300Y-124986000D02*
X114267300Y-123656000D01*
X116867300Y-123776000D02*
X116867300Y-121116000D01*
X116867300Y-123776000D02*
X165187300Y-123776000D01*
X165187300Y-123776000D02*
X165187300Y-121116000D01*
X116867300Y-121116000D02*
X165187300Y-121116000D01*
X114267300Y-121116000D02*
X115597300Y-121116000D01*
X114267300Y-122446000D02*
X114267300Y-121116000D01*
X114267300Y-78526000D02*
X114267300Y-77196000D01*
X114267300Y-77196000D02*
X115597300Y-77196000D01*
X116867300Y-77196000D02*
X165187300Y-77196000D01*
X165187300Y-79856000D02*
X165187300Y-77196000D01*
X116867300Y-79856000D02*
X165187300Y-79856000D01*
X116867300Y-79856000D02*
X116867300Y-77196000D01*
X114267300Y-75986000D02*
X114267300Y-74656000D01*
X114267300Y-74656000D02*
X115597300Y-74656000D01*
X116867300Y-74656000D02*
X165187300Y-74656000D01*
X165187300Y-77316000D02*
X165187300Y-74656000D01*
X116867300Y-77316000D02*
X165187300Y-77316000D01*
X116867300Y-77316000D02*
X116867300Y-74656000D01*
X114267300Y-73446000D02*
X114267300Y-72116000D01*
X114267300Y-72116000D02*
X115597300Y-72116000D01*
X116867300Y-72116000D02*
X165187300Y-72116000D01*
X165187300Y-74776000D02*
X165187300Y-72116000D01*
X116867300Y-74776000D02*
X165187300Y-74776000D01*
X116867300Y-74776000D02*
X116867300Y-72116000D01*
X114267300Y-68366000D02*
X114267300Y-67036000D01*
X114267300Y-67036000D02*
X115597300Y-67036000D01*
X116867300Y-67036000D02*
X165187300Y-67036000D01*
X165187300Y-69696000D02*
X165187300Y-67036000D01*
X116867300Y-69696000D02*
X165187300Y-69696000D01*
X116867300Y-69696000D02*
X116867300Y-67036000D01*
X114267300Y-50586000D02*
X114267300Y-49256000D01*
X114267300Y-49256000D02*
X115597300Y-49256000D01*
X116867300Y-49256000D02*
X165187300Y-49256000D01*
X165187300Y-51916000D02*
X165187300Y-49256000D01*
X116867300Y-51916000D02*
X165187300Y-51916000D01*
X116867300Y-51916000D02*
X116867300Y-49256000D01*
X114267300Y-70906000D02*
X114267300Y-69576000D01*
X114267300Y-69576000D02*
X115597300Y-69576000D01*
X116867300Y-69576000D02*
X165187300Y-69576000D01*
X165187300Y-72236000D02*
X165187300Y-69576000D01*
X116867300Y-72236000D02*
X165187300Y-72236000D01*
X116867300Y-72236000D02*
X116867300Y-69576000D01*
X177237300Y-65736000D02*
X177237300Y-64236000D01*
X175497300Y-65736000D02*
X177237300Y-65736000D01*
X169877300Y-54176000D02*
X176997300Y-54176000D01*
X169877300Y-65496000D02*
X176997300Y-65496000D01*
X176997300Y-65496000D02*
X176997300Y-54176000D01*
X169877300Y-65496000D02*
X169877300Y-54176000D01*
X175437300Y-65496000D02*
X175437300Y-54176000D01*
X174892300Y-56336000D02*
G75*
G03X174892300Y-56336000I-1555000J0D01*
G01*
X174892300Y-59836000D02*
G75*
G03X174892300Y-59836000I-1555000J0D01*
G01*
X174892792Y-63308989D02*
G75*
G02X174769300Y-63944000I-1555492J-27011D01*
G01*
X173945042Y-64768109D02*
G75*
G02X172729300Y-64768000I-607742J1432109D01*
G01*
X171905191Y-63943742D02*
G75*
G02X171905300Y-62728000I1432109J607742D01*
G01*
X172729558Y-61903891D02*
G75*
G02X173945300Y-61904000I607742J-1432109D01*
G01*
X174768685Y-62728413D02*
G75*
G02X174892300Y-63336000I-1431385J-607587D01*
G01*
X177237300Y-85336000D02*
X177237300Y-83836000D01*
X175497300Y-85336000D02*
X177237300Y-85336000D01*
X169877300Y-73776000D02*
X176997300Y-73776000D01*
X169877300Y-85096000D02*
X176997300Y-85096000D01*
X176997300Y-85096000D02*
X176997300Y-73776000D01*
X169877300Y-85096000D02*
X169877300Y-73776000D01*
X175437300Y-85096000D02*
X175437300Y-73776000D01*
X174892300Y-75936000D02*
G75*
G03X174892300Y-75936000I-1555000J0D01*
G01*
X174892300Y-79436000D02*
G75*
G03X174892300Y-79436000I-1555000J0D01*
G01*
X174892792Y-82908989D02*
G75*
G02X174769300Y-83544000I-1555492J-27011D01*
G01*
X173945042Y-84368109D02*
G75*
G02X172729300Y-84368000I-607742J1432109D01*
G01*
X171905191Y-83543742D02*
G75*
G02X171905300Y-82328000I1432109J607742D01*
G01*
X172729558Y-81503891D02*
G75*
G02X173945300Y-81504000I607742J-1432109D01*
G01*
X174768685Y-82328413D02*
G75*
G02X174892300Y-82936000I-1431385J-607587D01*
G01*
D12*
G36*
X107514431Y-54447886D02*
G01*
X107959055Y-54364065D01*
X108086553Y-54054780D01*
X108214051Y-53745494D01*
X107961746Y-53374454D01*
X107891496Y-53270543D01*
X107828772Y-53176613D01*
X107776438Y-53097048D01*
X107737357Y-53036230D01*
X107714393Y-52998543D01*
X107709442Y-52988279D01*
X107722176Y-52969790D01*
X107757382Y-52930280D01*
X107810562Y-52874178D01*
X107877218Y-52805913D01*
X107952854Y-52729914D01*
X108032972Y-52650608D01*
X108113074Y-52572425D01*
X108188664Y-52499793D01*
X108255245Y-52437141D01*
X108308318Y-52388897D01*
X108343387Y-52359490D01*
X108355123Y-52352459D01*
X108376760Y-52362577D01*
X108424162Y-52390941D01*
X108492693Y-52434571D01*
X108577715Y-52490482D01*
X108674593Y-52555694D01*
X108729850Y-52593481D01*
X108830748Y-52662357D01*
X108921799Y-52723560D01*
X108998470Y-52774122D01*
X109056228Y-52811072D01*
X109090543Y-52831442D01*
X109097754Y-52834503D01*
X109118248Y-52827564D01*
X109166013Y-52808649D01*
X109234332Y-52780613D01*
X109316489Y-52746309D01*
X109405770Y-52708591D01*
X109495458Y-52670313D01*
X109578838Y-52634330D01*
X109649194Y-52603494D01*
X109699810Y-52580661D01*
X109723971Y-52568683D01*
X109724922Y-52567976D01*
X109729536Y-52549169D01*
X109739828Y-52499082D01*
X109754787Y-52422907D01*
X109773401Y-52325835D01*
X109794659Y-52213057D01*
X109806918Y-52147258D01*
X109829862Y-52026750D01*
X109851695Y-51917903D01*
X109871222Y-51826224D01*
X109887248Y-51757219D01*
X109898579Y-51716396D01*
X109902174Y-51708189D01*
X109926506Y-51700152D01*
X109981459Y-51693667D01*
X110060608Y-51688730D01*
X110157526Y-51685336D01*
X110265787Y-51683482D01*
X110378965Y-51683162D01*
X110490635Y-51684373D01*
X110594368Y-51687110D01*
X110683741Y-51691369D01*
X110752326Y-51697145D01*
X110793697Y-51704433D01*
X110802310Y-51708805D01*
X110812633Y-51734936D01*
X110827392Y-51790307D01*
X110844852Y-51867593D01*
X110863280Y-51959470D01*
X110869241Y-51991542D01*
X110897566Y-52146176D01*
X110920376Y-52268325D01*
X110938580Y-52362027D01*
X110953083Y-52431316D01*
X110964792Y-52480229D01*
X110974615Y-52512803D01*
X110983456Y-52533072D01*
X110992224Y-52545074D01*
X110993957Y-52546753D01*
X111021871Y-52563516D01*
X111076195Y-52589086D01*
X111150277Y-52620912D01*
X111237465Y-52656440D01*
X111331108Y-52693117D01*
X111424552Y-52728389D01*
X111511147Y-52759704D01*
X111584240Y-52784507D01*
X111637178Y-52800246D01*
X111663311Y-52804368D01*
X111664226Y-52804024D01*
X111685586Y-52790059D01*
X111732584Y-52758378D01*
X111800327Y-52712309D01*
X111883923Y-52655182D01*
X111978482Y-52590327D01*
X112005354Y-52571857D01*
X112102775Y-52506001D01*
X112191663Y-52448050D01*
X112266912Y-52401162D01*
X112323420Y-52368493D01*
X112356081Y-52353200D01*
X112360093Y-52352459D01*
X112381184Y-52365308D01*
X112422964Y-52400812D01*
X112480945Y-52454407D01*
X112550635Y-52521529D01*
X112627545Y-52597613D01*
X112707183Y-52678096D01*
X112785061Y-52758413D01*
X112856686Y-52834001D01*
X112917570Y-52900295D01*
X112963221Y-52952731D01*
X112989150Y-52986745D01*
X112993383Y-52996155D01*
X112983412Y-53018057D01*
X112956520Y-53062900D01*
X112917236Y-53123379D01*
X112885617Y-53169911D01*
X112827598Y-53254225D01*
X112759284Y-53354074D01*
X112691079Y-53454227D01*
X112654575Y-53508073D01*
X112531300Y-53690329D01*
X112614020Y-53843319D01*
X112650259Y-53913018D01*
X112678426Y-53972286D01*
X112694491Y-54012389D01*
X112696726Y-54022597D01*
X112680222Y-54034871D01*
X112633582Y-54059087D01*
X112561109Y-54093437D01*
X112467106Y-54136112D01*
X112355874Y-54185306D01*
X112231715Y-54239210D01*
X112098932Y-54296016D01*
X111961827Y-54353918D01*
X111824702Y-54411107D01*
X111691858Y-54465776D01*
X111567598Y-54516116D01*
X111456225Y-54560320D01*
X111362039Y-54596581D01*
X111289344Y-54623091D01*
X111242441Y-54638042D01*
X111226333Y-54640446D01*
X111205786Y-54621389D01*
X111172433Y-54579664D01*
X111133202Y-54523994D01*
X111130099Y-54519322D01*
X111014923Y-54375436D01*
X110880553Y-54259417D01*
X110731284Y-54172270D01*
X110571413Y-54115001D01*
X110405237Y-54088614D01*
X110237052Y-54094115D01*
X110071155Y-54132510D01*
X109911842Y-54204805D01*
X109876987Y-54226074D01*
X109736237Y-54336704D01*
X109623214Y-54467398D01*
X109538503Y-54613636D01*
X109482694Y-54770892D01*
X109456374Y-54934643D01*
X109460130Y-55100367D01*
X109494550Y-55263538D01*
X109560223Y-55419635D01*
X109657735Y-55564133D01*
X109697313Y-55608831D01*
X109821203Y-55722588D01*
X109951624Y-55805482D01*
X110097815Y-55862344D01*
X110242588Y-55894013D01*
X110405360Y-55901831D01*
X110568940Y-55875762D01*
X110727798Y-55818455D01*
X110876406Y-55732556D01*
X111009235Y-55620714D01*
X111120756Y-55485577D01*
X111132511Y-55467817D01*
X111171008Y-55411550D01*
X111204363Y-55368777D01*
X111225660Y-55348328D01*
X111226333Y-55348031D01*
X111249371Y-55352421D01*
X111301657Y-55369824D01*
X111378890Y-55398432D01*
X111476768Y-55436435D01*
X111590991Y-55482026D01*
X111717258Y-55533397D01*
X111851267Y-55588738D01*
X111988718Y-55646242D01*
X112125308Y-55704099D01*
X112256737Y-55760502D01*
X112378705Y-55813642D01*
X112486909Y-55861710D01*
X112577049Y-55902899D01*
X112644823Y-55935399D01*
X112685930Y-55957403D01*
X112696726Y-55966264D01*
X112688319Y-55993340D01*
X112665772Y-56044003D01*
X112633113Y-56109517D01*
X112614020Y-56145541D01*
X112531300Y-56298532D01*
X112654575Y-56480788D01*
X112717728Y-56573825D01*
X112787227Y-56675685D01*
X112852665Y-56771138D01*
X112885617Y-56818950D01*
X112930773Y-56886195D01*
X112966557Y-56943136D01*
X112988438Y-56982346D01*
X112993063Y-56995081D01*
X112980585Y-57013617D01*
X112945752Y-57054641D01*
X112892178Y-57114175D01*
X112823483Y-57188242D01*
X112743281Y-57272865D01*
X112691786Y-57326385D01*
X112599786Y-57420019D01*
X112517499Y-57500941D01*
X112448445Y-57565877D01*
X112396144Y-57611558D01*
X112364116Y-57634711D01*
X112357616Y-57636932D01*
X112332894Y-57626624D01*
X112282905Y-57598139D01*
X112212712Y-57554637D01*
X112127375Y-57499277D01*
X112031956Y-57435220D01*
X112005354Y-57417003D01*
X111908667Y-57350627D01*
X111821617Y-57291078D01*
X111749095Y-57241684D01*
X111695993Y-57205775D01*
X111667203Y-57186681D01*
X111664226Y-57184836D01*
X111641282Y-57187595D01*
X111590836Y-57202238D01*
X111519541Y-57226213D01*
X111434047Y-57256966D01*
X111341007Y-57291944D01*
X111247074Y-57328593D01*
X111158899Y-57364361D01*
X111083134Y-57396694D01*
X111026431Y-57423038D01*
X110995443Y-57440842D01*
X110993957Y-57442107D01*
X110985101Y-57452994D01*
X110976343Y-57471382D01*
X110966777Y-57501306D01*
X110955496Y-57546803D01*
X110941593Y-57611909D01*
X110924163Y-57700661D01*
X110902298Y-57817093D01*
X110875091Y-57965242D01*
X110869241Y-57997318D01*
X110850874Y-58092386D01*
X110832905Y-58175265D01*
X110817069Y-58238630D01*
X110805100Y-58275158D01*
X110802310Y-58280056D01*
X110777572Y-58288127D01*
X110722290Y-58294687D01*
X110642889Y-58299733D01*
X110545796Y-58303259D01*
X110437438Y-58305261D01*
X110324240Y-58305736D01*
X110212628Y-58304677D01*
X110109029Y-58302082D01*
X110019868Y-58297946D01*
X109951572Y-58292263D01*
X109910566Y-58285031D01*
X109902174Y-58280671D01*
X109893708Y-58256398D01*
X109879935Y-58201126D01*
X109862050Y-58120362D01*
X109841248Y-58019612D01*
X109818723Y-57904383D01*
X109806918Y-57841602D01*
X109784651Y-57722487D01*
X109764479Y-57616265D01*
X109747415Y-57528127D01*
X109734469Y-57463266D01*
X109726655Y-57426874D01*
X109724922Y-57420884D01*
X109705390Y-57410761D01*
X109658343Y-57389362D01*
X109590503Y-57359539D01*
X109508591Y-57324145D01*
X109419328Y-57286032D01*
X109329435Y-57248053D01*
X109245635Y-57213060D01*
X109174647Y-57183906D01*
X109123194Y-57163443D01*
X109097997Y-57154523D01*
X109096896Y-57154357D01*
X109077019Y-57164469D01*
X109031277Y-57192817D01*
X108964217Y-57236423D01*
X108880384Y-57292306D01*
X108784326Y-57357487D01*
X108729150Y-57395379D01*
X108627981Y-57464425D01*
X108536130Y-57525750D01*
X108458244Y-57576363D01*
X108398969Y-57613271D01*
X108362951Y-57633482D01*
X108354877Y-57636401D01*
X108336084Y-57623853D01*
X108295957Y-57589163D01*
X108238993Y-57536763D01*
X108169685Y-57471084D01*
X108092531Y-57396556D01*
X108012025Y-57317613D01*
X107932663Y-57238683D01*
X107858940Y-57164200D01*
X107795352Y-57098594D01*
X107746394Y-57046296D01*
X107716561Y-57011739D01*
X107709442Y-57000178D01*
X107719453Y-56981354D01*
X107747578Y-56936331D01*
X107790954Y-56869487D01*
X107846718Y-56785199D01*
X107912006Y-56687844D01*
X107961746Y-56614407D01*
X108214051Y-56243367D01*
X107959055Y-55624795D01*
X107514431Y-55540975D01*
X107069807Y-55457154D01*
X107069807Y-54531706D01*
X107514431Y-54447886D01*
G37*
X107514431Y-54447886D02*
X107959055Y-54364065D01*
X108086553Y-54054780D01*
X108214051Y-53745494D01*
X107961746Y-53374454D01*
X107891496Y-53270543D01*
X107828772Y-53176613D01*
X107776438Y-53097048D01*
X107737357Y-53036230D01*
X107714393Y-52998543D01*
X107709442Y-52988279D01*
X107722176Y-52969790D01*
X107757382Y-52930280D01*
X107810562Y-52874178D01*
X107877218Y-52805913D01*
X107952854Y-52729914D01*
X108032972Y-52650608D01*
X108113074Y-52572425D01*
X108188664Y-52499793D01*
X108255245Y-52437141D01*
X108308318Y-52388897D01*
X108343387Y-52359490D01*
X108355123Y-52352459D01*
X108376760Y-52362577D01*
X108424162Y-52390941D01*
X108492693Y-52434571D01*
X108577715Y-52490482D01*
X108674593Y-52555694D01*
X108729850Y-52593481D01*
X108830748Y-52662357D01*
X108921799Y-52723560D01*
X108998470Y-52774122D01*
X109056228Y-52811072D01*
X109090543Y-52831442D01*
X109097754Y-52834503D01*
X109118248Y-52827564D01*
X109166013Y-52808649D01*
X109234332Y-52780613D01*
X109316489Y-52746309D01*
X109405770Y-52708591D01*
X109495458Y-52670313D01*
X109578838Y-52634330D01*
X109649194Y-52603494D01*
X109699810Y-52580661D01*
X109723971Y-52568683D01*
X109724922Y-52567976D01*
X109729536Y-52549169D01*
X109739828Y-52499082D01*
X109754787Y-52422907D01*
X109773401Y-52325835D01*
X109794659Y-52213057D01*
X109806918Y-52147258D01*
X109829862Y-52026750D01*
X109851695Y-51917903D01*
X109871222Y-51826224D01*
X109887248Y-51757219D01*
X109898579Y-51716396D01*
X109902174Y-51708189D01*
X109926506Y-51700152D01*
X109981459Y-51693667D01*
X110060608Y-51688730D01*
X110157526Y-51685336D01*
X110265787Y-51683482D01*
X110378965Y-51683162D01*
X110490635Y-51684373D01*
X110594368Y-51687110D01*
X110683741Y-51691369D01*
X110752326Y-51697145D01*
X110793697Y-51704433D01*
X110802310Y-51708805D01*
X110812633Y-51734936D01*
X110827392Y-51790307D01*
X110844852Y-51867593D01*
X110863280Y-51959470D01*
X110869241Y-51991542D01*
X110897566Y-52146176D01*
X110920376Y-52268325D01*
X110938580Y-52362027D01*
X110953083Y-52431316D01*
X110964792Y-52480229D01*
X110974615Y-52512803D01*
X110983456Y-52533072D01*
X110992224Y-52545074D01*
X110993957Y-52546753D01*
X111021871Y-52563516D01*
X111076195Y-52589086D01*
X111150277Y-52620912D01*
X111237465Y-52656440D01*
X111331108Y-52693117D01*
X111424552Y-52728389D01*
X111511147Y-52759704D01*
X111584240Y-52784507D01*
X111637178Y-52800246D01*
X111663311Y-52804368D01*
X111664226Y-52804024D01*
X111685586Y-52790059D01*
X111732584Y-52758378D01*
X111800327Y-52712309D01*
X111883923Y-52655182D01*
X111978482Y-52590327D01*
X112005354Y-52571857D01*
X112102775Y-52506001D01*
X112191663Y-52448050D01*
X112266912Y-52401162D01*
X112323420Y-52368493D01*
X112356081Y-52353200D01*
X112360093Y-52352459D01*
X112381184Y-52365308D01*
X112422964Y-52400812D01*
X112480945Y-52454407D01*
X112550635Y-52521529D01*
X112627545Y-52597613D01*
X112707183Y-52678096D01*
X112785061Y-52758413D01*
X112856686Y-52834001D01*
X112917570Y-52900295D01*
X112963221Y-52952731D01*
X112989150Y-52986745D01*
X112993383Y-52996155D01*
X112983412Y-53018057D01*
X112956520Y-53062900D01*
X112917236Y-53123379D01*
X112885617Y-53169911D01*
X112827598Y-53254225D01*
X112759284Y-53354074D01*
X112691079Y-53454227D01*
X112654575Y-53508073D01*
X112531300Y-53690329D01*
X112614020Y-53843319D01*
X112650259Y-53913018D01*
X112678426Y-53972286D01*
X112694491Y-54012389D01*
X112696726Y-54022597D01*
X112680222Y-54034871D01*
X112633582Y-54059087D01*
X112561109Y-54093437D01*
X112467106Y-54136112D01*
X112355874Y-54185306D01*
X112231715Y-54239210D01*
X112098932Y-54296016D01*
X111961827Y-54353918D01*
X111824702Y-54411107D01*
X111691858Y-54465776D01*
X111567598Y-54516116D01*
X111456225Y-54560320D01*
X111362039Y-54596581D01*
X111289344Y-54623091D01*
X111242441Y-54638042D01*
X111226333Y-54640446D01*
X111205786Y-54621389D01*
X111172433Y-54579664D01*
X111133202Y-54523994D01*
X111130099Y-54519322D01*
X111014923Y-54375436D01*
X110880553Y-54259417D01*
X110731284Y-54172270D01*
X110571413Y-54115001D01*
X110405237Y-54088614D01*
X110237052Y-54094115D01*
X110071155Y-54132510D01*
X109911842Y-54204805D01*
X109876987Y-54226074D01*
X109736237Y-54336704D01*
X109623214Y-54467398D01*
X109538503Y-54613636D01*
X109482694Y-54770892D01*
X109456374Y-54934643D01*
X109460130Y-55100367D01*
X109494550Y-55263538D01*
X109560223Y-55419635D01*
X109657735Y-55564133D01*
X109697313Y-55608831D01*
X109821203Y-55722588D01*
X109951624Y-55805482D01*
X110097815Y-55862344D01*
X110242588Y-55894013D01*
X110405360Y-55901831D01*
X110568940Y-55875762D01*
X110727798Y-55818455D01*
X110876406Y-55732556D01*
X111009235Y-55620714D01*
X111120756Y-55485577D01*
X111132511Y-55467817D01*
X111171008Y-55411550D01*
X111204363Y-55368777D01*
X111225660Y-55348328D01*
X111226333Y-55348031D01*
X111249371Y-55352421D01*
X111301657Y-55369824D01*
X111378890Y-55398432D01*
X111476768Y-55436435D01*
X111590991Y-55482026D01*
X111717258Y-55533397D01*
X111851267Y-55588738D01*
X111988718Y-55646242D01*
X112125308Y-55704099D01*
X112256737Y-55760502D01*
X112378705Y-55813642D01*
X112486909Y-55861710D01*
X112577049Y-55902899D01*
X112644823Y-55935399D01*
X112685930Y-55957403D01*
X112696726Y-55966264D01*
X112688319Y-55993340D01*
X112665772Y-56044003D01*
X112633113Y-56109517D01*
X112614020Y-56145541D01*
X112531300Y-56298532D01*
X112654575Y-56480788D01*
X112717728Y-56573825D01*
X112787227Y-56675685D01*
X112852665Y-56771138D01*
X112885617Y-56818950D01*
X112930773Y-56886195D01*
X112966557Y-56943136D01*
X112988438Y-56982346D01*
X112993063Y-56995081D01*
X112980585Y-57013617D01*
X112945752Y-57054641D01*
X112892178Y-57114175D01*
X112823483Y-57188242D01*
X112743281Y-57272865D01*
X112691786Y-57326385D01*
X112599786Y-57420019D01*
X112517499Y-57500941D01*
X112448445Y-57565877D01*
X112396144Y-57611558D01*
X112364116Y-57634711D01*
X112357616Y-57636932D01*
X112332894Y-57626624D01*
X112282905Y-57598139D01*
X112212712Y-57554637D01*
X112127375Y-57499277D01*
X112031956Y-57435220D01*
X112005354Y-57417003D01*
X111908667Y-57350627D01*
X111821617Y-57291078D01*
X111749095Y-57241684D01*
X111695993Y-57205775D01*
X111667203Y-57186681D01*
X111664226Y-57184836D01*
X111641282Y-57187595D01*
X111590836Y-57202238D01*
X111519541Y-57226213D01*
X111434047Y-57256966D01*
X111341007Y-57291944D01*
X111247074Y-57328593D01*
X111158899Y-57364361D01*
X111083134Y-57396694D01*
X111026431Y-57423038D01*
X110995443Y-57440842D01*
X110993957Y-57442107D01*
X110985101Y-57452994D01*
X110976343Y-57471382D01*
X110966777Y-57501306D01*
X110955496Y-57546803D01*
X110941593Y-57611909D01*
X110924163Y-57700661D01*
X110902298Y-57817093D01*
X110875091Y-57965242D01*
X110869241Y-57997318D01*
X110850874Y-58092386D01*
X110832905Y-58175265D01*
X110817069Y-58238630D01*
X110805100Y-58275158D01*
X110802310Y-58280056D01*
X110777572Y-58288127D01*
X110722290Y-58294687D01*
X110642889Y-58299733D01*
X110545796Y-58303259D01*
X110437438Y-58305261D01*
X110324240Y-58305736D01*
X110212628Y-58304677D01*
X110109029Y-58302082D01*
X110019868Y-58297946D01*
X109951572Y-58292263D01*
X109910566Y-58285031D01*
X109902174Y-58280671D01*
X109893708Y-58256398D01*
X109879935Y-58201126D01*
X109862050Y-58120362D01*
X109841248Y-58019612D01*
X109818723Y-57904383D01*
X109806918Y-57841602D01*
X109784651Y-57722487D01*
X109764479Y-57616265D01*
X109747415Y-57528127D01*
X109734469Y-57463266D01*
X109726655Y-57426874D01*
X109724922Y-57420884D01*
X109705390Y-57410761D01*
X109658343Y-57389362D01*
X109590503Y-57359539D01*
X109508591Y-57324145D01*
X109419328Y-57286032D01*
X109329435Y-57248053D01*
X109245635Y-57213060D01*
X109174647Y-57183906D01*
X109123194Y-57163443D01*
X109097997Y-57154523D01*
X109096896Y-57154357D01*
X109077019Y-57164469D01*
X109031277Y-57192817D01*
X108964217Y-57236423D01*
X108880384Y-57292306D01*
X108784326Y-57357487D01*
X108729150Y-57395379D01*
X108627981Y-57464425D01*
X108536130Y-57525750D01*
X108458244Y-57576363D01*
X108398969Y-57613271D01*
X108362951Y-57633482D01*
X108354877Y-57636401D01*
X108336084Y-57623853D01*
X108295957Y-57589163D01*
X108238993Y-57536763D01*
X108169685Y-57471084D01*
X108092531Y-57396556D01*
X108012025Y-57317613D01*
X107932663Y-57238683D01*
X107858940Y-57164200D01*
X107795352Y-57098594D01*
X107746394Y-57046296D01*
X107716561Y-57011739D01*
X107709442Y-57000178D01*
X107719453Y-56981354D01*
X107747578Y-56936331D01*
X107790954Y-56869487D01*
X107846718Y-56785199D01*
X107912006Y-56687844D01*
X107961746Y-56614407D01*
X108214051Y-56243367D01*
X107959055Y-55624795D01*
X107514431Y-55540975D01*
X107069807Y-55457154D01*
X107069807Y-54531706D01*
X107514431Y-54447886D01*
D11*
X172807380Y-135672933D02*
X173521666Y-135672933D01*
X173664523Y-135720552D01*
X173759761Y-135815790D01*
X173807380Y-135958647D01*
X173807380Y-136053885D01*
X172902619Y-135244361D02*
X172855000Y-135196742D01*
X172807380Y-135101504D01*
X172807380Y-134863409D01*
X172855000Y-134768171D01*
X172902619Y-134720552D01*
X172997857Y-134672933D01*
X173093095Y-134672933D01*
X173235952Y-134720552D01*
X173807380Y-135291980D01*
X173807380Y-134672933D01*
X173048680Y-102203433D02*
X173762966Y-102203433D01*
X173905823Y-102251052D01*
X174001061Y-102346290D01*
X174048680Y-102489147D01*
X174048680Y-102584385D01*
X174048680Y-101203433D02*
X174048680Y-101774861D01*
X174048680Y-101489147D02*
X173048680Y-101489147D01*
X173191538Y-101584385D01*
X173286776Y-101679623D01*
X173334395Y-101774861D01*
X112088680Y-121685233D02*
X112802966Y-121685233D01*
X112945823Y-121732852D01*
X113041061Y-121828090D01*
X113088680Y-121970947D01*
X113088680Y-122066185D01*
X112088680Y-120732852D02*
X112088680Y-121209042D01*
X112564871Y-121256661D01*
X112517252Y-121209042D01*
X112469633Y-121113804D01*
X112469633Y-120875709D01*
X112517252Y-120780471D01*
X112564871Y-120732852D01*
X112660109Y-120685233D01*
X112898204Y-120685233D01*
X112993442Y-120732852D01*
X113041061Y-120780471D01*
X113088680Y-120875709D01*
X113088680Y-121113804D01*
X113041061Y-121209042D01*
X112993442Y-121256661D01*
X112545880Y-99841233D02*
X113260166Y-99841233D01*
X113403023Y-99888852D01*
X113498261Y-99984090D01*
X113545880Y-100126947D01*
X113545880Y-100222185D01*
X112545880Y-99460280D02*
X112545880Y-98841233D01*
X112926833Y-99174566D01*
X112926833Y-99031709D01*
X112974452Y-98936471D01*
X113022071Y-98888852D01*
X113117309Y-98841233D01*
X113355404Y-98841233D01*
X113450642Y-98888852D01*
X113498261Y-98936471D01*
X113545880Y-99031709D01*
X113545880Y-99317423D01*
X113498261Y-99412661D01*
X113450642Y-99460280D01*
X112012480Y-116427433D02*
X112726766Y-116427433D01*
X112869623Y-116475052D01*
X112964861Y-116570290D01*
X113012480Y-116713147D01*
X113012480Y-116808385D01*
X112345814Y-115522671D02*
X113012480Y-115522671D01*
X111964861Y-115760766D02*
X112679147Y-115998861D01*
X112679147Y-115379814D01*
X112355380Y-129787833D02*
X113069666Y-129787833D01*
X113212523Y-129835452D01*
X113307761Y-129930690D01*
X113355380Y-130073547D01*
X113355380Y-130168785D01*
X112783952Y-129168785D02*
X112736333Y-129264023D01*
X112688714Y-129311642D01*
X112593476Y-129359261D01*
X112545857Y-129359261D01*
X112450619Y-129311642D01*
X112403000Y-129264023D01*
X112355380Y-129168785D01*
X112355380Y-128978309D01*
X112403000Y-128883071D01*
X112450619Y-128835452D01*
X112545857Y-128787833D01*
X112593476Y-128787833D01*
X112688714Y-128835452D01*
X112736333Y-128883071D01*
X112783952Y-128978309D01*
X112783952Y-129168785D01*
X112831571Y-129264023D01*
X112879190Y-129311642D01*
X112974428Y-129359261D01*
X113164904Y-129359261D01*
X113260142Y-129311642D01*
X113307761Y-129264023D01*
X113355380Y-129168785D01*
X113355380Y-128978309D01*
X113307761Y-128883071D01*
X113260142Y-128835452D01*
X113164904Y-128787833D01*
X112974428Y-128787833D01*
X112879190Y-128835452D01*
X112831571Y-128883071D01*
X112783952Y-128978309D01*
X112355380Y-127311333D02*
X113069666Y-127311333D01*
X113212523Y-127358952D01*
X113307761Y-127454190D01*
X113355380Y-127597047D01*
X113355380Y-127692285D01*
X112355380Y-126930380D02*
X112355380Y-126263714D01*
X113355380Y-126692285D01*
X112164880Y-124631633D02*
X112879166Y-124631633D01*
X113022023Y-124679252D01*
X113117261Y-124774490D01*
X113164880Y-124917347D01*
X113164880Y-125012585D01*
X112164880Y-123726871D02*
X112164880Y-123917347D01*
X112212500Y-124012585D01*
X112260119Y-124060204D01*
X112402976Y-124155442D01*
X112593452Y-124203061D01*
X112974404Y-124203061D01*
X113069642Y-124155442D01*
X113117261Y-124107823D01*
X113164880Y-124012585D01*
X113164880Y-123822109D01*
X113117261Y-123726871D01*
X113069642Y-123679252D01*
X112974404Y-123631633D01*
X112736309Y-123631633D01*
X112641071Y-123679252D01*
X112593452Y-123726871D01*
X112545833Y-123822109D01*
X112545833Y-124012585D01*
X112593452Y-124107823D01*
X112641071Y-124155442D01*
X112736309Y-124203061D01*
X112355380Y-80787833D02*
X113069666Y-80787833D01*
X113212523Y-80835452D01*
X113307761Y-80930690D01*
X113355380Y-81073547D01*
X113355380Y-81168785D01*
X112783952Y-80168785D02*
X112736333Y-80264023D01*
X112688714Y-80311642D01*
X112593476Y-80359261D01*
X112545857Y-80359261D01*
X112450619Y-80311642D01*
X112403000Y-80264023D01*
X112355380Y-80168785D01*
X112355380Y-79978309D01*
X112403000Y-79883071D01*
X112450619Y-79835452D01*
X112545857Y-79787833D01*
X112593476Y-79787833D01*
X112688714Y-79835452D01*
X112736333Y-79883071D01*
X112783952Y-79978309D01*
X112783952Y-80168785D01*
X112831571Y-80264023D01*
X112879190Y-80311642D01*
X112974428Y-80359261D01*
X113164904Y-80359261D01*
X113260142Y-80311642D01*
X113307761Y-80264023D01*
X113355380Y-80168785D01*
X113355380Y-79978309D01*
X113307761Y-79883071D01*
X113260142Y-79835452D01*
X113164904Y-79787833D01*
X112974428Y-79787833D01*
X112879190Y-79835452D01*
X112831571Y-79883071D01*
X112783952Y-79978309D01*
X112355380Y-78311333D02*
X113069666Y-78311333D01*
X113212523Y-78358952D01*
X113307761Y-78454190D01*
X113355380Y-78597047D01*
X113355380Y-78692285D01*
X112355380Y-77930380D02*
X112355380Y-77263714D01*
X113355380Y-77692285D01*
X112164880Y-75631633D02*
X112879166Y-75631633D01*
X113022023Y-75679252D01*
X113117261Y-75774490D01*
X113164880Y-75917347D01*
X113164880Y-76012585D01*
X112164880Y-74726871D02*
X112164880Y-74917347D01*
X112212500Y-75012585D01*
X112260119Y-75060204D01*
X112402976Y-75155442D01*
X112593452Y-75203061D01*
X112974404Y-75203061D01*
X113069642Y-75155442D01*
X113117261Y-75107823D01*
X113164880Y-75012585D01*
X113164880Y-74822109D01*
X113117261Y-74726871D01*
X113069642Y-74679252D01*
X112974404Y-74631633D01*
X112736309Y-74631633D01*
X112641071Y-74679252D01*
X112593452Y-74726871D01*
X112545833Y-74822109D01*
X112545833Y-75012585D01*
X112593452Y-75107823D01*
X112641071Y-75155442D01*
X112736309Y-75203061D01*
X112012480Y-67427433D02*
X112726766Y-67427433D01*
X112869623Y-67475052D01*
X112964861Y-67570290D01*
X113012480Y-67713147D01*
X113012480Y-67808385D01*
X112345814Y-66522671D02*
X113012480Y-66522671D01*
X111964861Y-66760766D02*
X112679147Y-66998861D01*
X112679147Y-66379814D01*
X112545880Y-50841233D02*
X113260166Y-50841233D01*
X113403023Y-50888852D01*
X113498261Y-50984090D01*
X113545880Y-51126947D01*
X113545880Y-51222185D01*
X112545880Y-50460280D02*
X112545880Y-49841233D01*
X112926833Y-50174566D01*
X112926833Y-50031709D01*
X112974452Y-49936471D01*
X113022071Y-49888852D01*
X113117309Y-49841233D01*
X113355404Y-49841233D01*
X113450642Y-49888852D01*
X113498261Y-49936471D01*
X113545880Y-50031709D01*
X113545880Y-50317423D01*
X113498261Y-50412661D01*
X113450642Y-50460280D01*
X112088680Y-72685233D02*
X112802966Y-72685233D01*
X112945823Y-72732852D01*
X113041061Y-72828090D01*
X113088680Y-72970947D01*
X113088680Y-73066185D01*
X112088680Y-71732852D02*
X112088680Y-72209042D01*
X112564871Y-72256661D01*
X112517252Y-72209042D01*
X112469633Y-72113804D01*
X112469633Y-71875709D01*
X112517252Y-71780471D01*
X112564871Y-71732852D01*
X112660109Y-71685233D01*
X112898204Y-71685233D01*
X112993442Y-71732852D01*
X113041061Y-71780471D01*
X113088680Y-71875709D01*
X113088680Y-72113804D01*
X113041061Y-72209042D01*
X112993442Y-72256661D01*
X173048680Y-53203433D02*
X173762966Y-53203433D01*
X173905823Y-53251052D01*
X174001061Y-53346290D01*
X174048680Y-53489147D01*
X174048680Y-53584385D01*
X174048680Y-52203433D02*
X174048680Y-52774861D01*
X174048680Y-52489147D02*
X173048680Y-52489147D01*
X173191538Y-52584385D01*
X173286776Y-52679623D01*
X173334395Y-52774861D01*
X172807380Y-86672933D02*
X173521666Y-86672933D01*
X173664523Y-86720552D01*
X173759761Y-86815790D01*
X173807380Y-86958647D01*
X173807380Y-87053885D01*
X172902619Y-86244361D02*
X172855000Y-86196742D01*
X172807380Y-86101504D01*
X172807380Y-85863409D01*
X172855000Y-85768171D01*
X172902619Y-85720552D01*
X172997857Y-85672933D01*
X173093095Y-85672933D01*
X173235952Y-85720552D01*
X173807380Y-86291980D01*
X173807380Y-85672933D01*
%LPC*%
D14*
X118837300Y-138636000D03*
D15*
X163857300Y-137686000D03*
X161317300Y-137686000D03*
X158777300Y-109746000D03*
X156237300Y-109746000D03*
X153697300Y-109746000D03*
X128297300Y-114826000D03*
X151157300Y-109746000D03*
X148617300Y-109746000D03*
X125757300Y-114826000D03*
X146077300Y-109746000D03*
X143537300Y-109746000D03*
X163857300Y-109746000D03*
X140997300Y-109746000D03*
X138457300Y-109746000D03*
X118137300Y-112286000D03*
X130837300Y-114826000D03*
X135917300Y-109746000D03*
X115597300Y-112286000D03*
X161317300Y-109746000D03*
D14*
X111837300Y-118636000D03*
X175837300Y-118636000D03*
X168837300Y-138636000D03*
D16*
X173337300Y-131936000D03*
D17*
X173337300Y-128436000D03*
X173337300Y-124936000D03*
D15*
X130837300Y-97046000D03*
X133377300Y-97046000D03*
X135917300Y-97046000D03*
X138457300Y-97046000D03*
X140997300Y-97046000D03*
X143537300Y-97046000D03*
X146077300Y-97046000D03*
X148617300Y-97046000D03*
X166397300Y-105336000D03*
X166397300Y-112336000D03*
X166397300Y-124936000D03*
X166397300Y-128436000D03*
X166397300Y-131936000D03*
X166397300Y-108836000D03*
D16*
X173337300Y-112336000D03*
D17*
X173337300Y-108836000D03*
X173337300Y-105336000D03*
D15*
X153697300Y-97046000D03*
X156237300Y-97046000D03*
X161317300Y-135146000D03*
D14*
X168837300Y-98636000D03*
D15*
X163857300Y-135146000D03*
X158777300Y-97046000D03*
X161317300Y-97046000D03*
X163857300Y-97046000D03*
X151157300Y-97046000D03*
D18*
X168937300Y-117366000D03*
X168937300Y-119906000D03*
D19*
X115597300Y-119906000D03*
D20*
X118137300Y-119906000D03*
X120677300Y-119906000D03*
X123217300Y-119906000D03*
X125757300Y-119906000D03*
X128297300Y-119906000D03*
X130837300Y-119906000D03*
X133377300Y-119906000D03*
X135917300Y-119906000D03*
X138457300Y-119906000D03*
X140997300Y-119906000D03*
X143537300Y-119906000D03*
X146077300Y-119906000D03*
X148617300Y-119906000D03*
X151157300Y-119906000D03*
X153697300Y-119906000D03*
X156237300Y-119906000D03*
X158777300Y-119906000D03*
X161317300Y-119906000D03*
X163857300Y-119906000D03*
D15*
X133377300Y-137686000D03*
X120677300Y-130066000D03*
X156237300Y-130066000D03*
X120677300Y-109746000D03*
X123217300Y-109746000D03*
X151157300Y-112286000D03*
X120677300Y-132606000D03*
X161317300Y-114826000D03*
X153697300Y-114826000D03*
X146077300Y-135146000D03*
X118137300Y-132606000D03*
X148617300Y-137686000D03*
X156237300Y-114826000D03*
X143537300Y-135146000D03*
X135917300Y-132606000D03*
X133377300Y-132606000D03*
X130837300Y-132606000D03*
X138457300Y-132606000D03*
X140997300Y-132606000D03*
X143537300Y-132606000D03*
X146077300Y-132606000D03*
X148617300Y-132606000D03*
X151157300Y-132606000D03*
X153697300Y-132606000D03*
X156237300Y-132606000D03*
X161317300Y-132606000D03*
X163857300Y-132606000D03*
X125757300Y-135146000D03*
X158777300Y-132606000D03*
X133377300Y-109746000D03*
X156237300Y-112286000D03*
X123217300Y-114826000D03*
X148617300Y-130066000D03*
X115597300Y-132606000D03*
X158777300Y-112286000D03*
X146077300Y-112286000D03*
X163857300Y-112286000D03*
X161317300Y-130066000D03*
X158777300Y-114826000D03*
X135917300Y-130066000D03*
X138457300Y-130066000D03*
X140997300Y-112286000D03*
X158777300Y-130066000D03*
X146077300Y-137686000D03*
X125757300Y-137686000D03*
X156237300Y-135146000D03*
X135917300Y-137686000D03*
X138457300Y-137686000D03*
X143537300Y-137686000D03*
X143537300Y-130066000D03*
X151157300Y-114826000D03*
X128297300Y-137686000D03*
X118137300Y-130066000D03*
X123217300Y-132606000D03*
X125757300Y-132606000D03*
X125757300Y-112286000D03*
X115597300Y-114826000D03*
X151157300Y-130066000D03*
X153697300Y-135146000D03*
X128297300Y-109746000D03*
X118137300Y-114826000D03*
X120677300Y-114826000D03*
X143537300Y-112286000D03*
X115597300Y-130066000D03*
X163857300Y-114826000D03*
X140997300Y-135146000D03*
X148617300Y-135146000D03*
X158777300Y-135146000D03*
X151157300Y-135146000D03*
X153697300Y-130066000D03*
X125757300Y-109746000D03*
X140997300Y-130066000D03*
X146077300Y-130066000D03*
X123217300Y-130066000D03*
X130837300Y-137686000D03*
X148617300Y-114826000D03*
X146077300Y-107206000D03*
X128297300Y-132606000D03*
X140997300Y-137686000D03*
X148617300Y-112286000D03*
X161317300Y-112286000D03*
X158777300Y-137686000D03*
X156237300Y-137686000D03*
X151157300Y-104666000D03*
X153697300Y-104666000D03*
X156237300Y-104666000D03*
X135917300Y-112286000D03*
X133377300Y-114826000D03*
X135917300Y-114826000D03*
X138457300Y-114826000D03*
X125757300Y-130066000D03*
X140997300Y-114826000D03*
X120677300Y-112286000D03*
X128297300Y-130066000D03*
X133377300Y-130066000D03*
X143537300Y-114826000D03*
X138457300Y-112286000D03*
X123217300Y-112286000D03*
X133377300Y-112286000D03*
X130837300Y-112286000D03*
X130837300Y-109746000D03*
X153697300Y-107206000D03*
X128297300Y-112286000D03*
X156237300Y-107206000D03*
X158777300Y-107206000D03*
X161317300Y-107206000D03*
X163857300Y-107206000D03*
X115597300Y-109746000D03*
X118137300Y-109746000D03*
X138457300Y-107206000D03*
X140997300Y-107206000D03*
X125757300Y-107206000D03*
X128297300Y-107206000D03*
X148617300Y-107206000D03*
X151157300Y-107206000D03*
X130837300Y-107206000D03*
X133377300Y-107206000D03*
X158777300Y-104666000D03*
X161317300Y-104666000D03*
X135917300Y-107206000D03*
X140997300Y-104666000D03*
X143537300Y-104666000D03*
X163857300Y-104666000D03*
X115597300Y-107206000D03*
X118137300Y-107206000D03*
X120677300Y-107206000D03*
X161317300Y-102126000D03*
X163857300Y-102126000D03*
X115597300Y-104666000D03*
X118137300Y-104666000D03*
X120677300Y-104666000D03*
X146077300Y-104666000D03*
X148617300Y-104666000D03*
X128297300Y-102126000D03*
X130837300Y-102126000D03*
X133377300Y-102126000D03*
X135917300Y-102126000D03*
X146077300Y-102126000D03*
X148617300Y-102126000D03*
X151157300Y-102126000D03*
X153697300Y-102126000D03*
X156237300Y-102126000D03*
X158777300Y-102126000D03*
X138457300Y-102126000D03*
X140997300Y-102126000D03*
X143537300Y-102126000D03*
X118137300Y-97046000D03*
X115597300Y-97046000D03*
X115597300Y-102126000D03*
X118137300Y-102126000D03*
X120677300Y-102126000D03*
X123217300Y-102126000D03*
X125757300Y-102126000D03*
X128297300Y-97046000D03*
X125757300Y-97046000D03*
X123217300Y-97046000D03*
X120677300Y-97046000D03*
X161317300Y-140226000D03*
X163857300Y-140226000D03*
X125757300Y-140226000D03*
X128297300Y-140226000D03*
X153697300Y-112286000D03*
X123217300Y-107206000D03*
X143537300Y-107206000D03*
X153697300Y-140226000D03*
X148617300Y-140226000D03*
X130837300Y-140226000D03*
X133377300Y-140226000D03*
X135917300Y-140226000D03*
X135917300Y-104666000D03*
X138457300Y-104666000D03*
D19*
X115597300Y-99586000D03*
D20*
X118137300Y-99586000D03*
X120677300Y-99586000D03*
X123217300Y-99586000D03*
X125757300Y-99586000D03*
X128297300Y-99586000D03*
X130837300Y-99586000D03*
X133377300Y-99586000D03*
X135917300Y-99586000D03*
X138457300Y-99586000D03*
X140997300Y-99586000D03*
X143537300Y-99586000D03*
X146077300Y-99586000D03*
X148617300Y-99586000D03*
X151157300Y-99586000D03*
X153697300Y-99586000D03*
X156237300Y-99586000D03*
X158777300Y-99586000D03*
X161317300Y-99586000D03*
X163857300Y-99586000D03*
D19*
X115597300Y-117366000D03*
D20*
X118137300Y-117366000D03*
X120677300Y-117366000D03*
X123217300Y-117366000D03*
X125757300Y-117366000D03*
X128297300Y-117366000D03*
X130837300Y-117366000D03*
X133377300Y-117366000D03*
X135917300Y-117366000D03*
X138457300Y-117366000D03*
X140997300Y-117366000D03*
X143537300Y-117366000D03*
X146077300Y-117366000D03*
X148617300Y-117366000D03*
X151157300Y-117366000D03*
X153697300Y-117366000D03*
X156237300Y-117366000D03*
X158777300Y-117366000D03*
X161317300Y-117366000D03*
X163857300Y-117366000D03*
D15*
X123217300Y-104666000D03*
X125757300Y-104666000D03*
X128297300Y-104666000D03*
X130837300Y-130066000D03*
X133377300Y-135146000D03*
X135917300Y-135146000D03*
X130837300Y-104666000D03*
X133377300Y-104666000D03*
X138457300Y-140226000D03*
X140997300Y-140226000D03*
X146077300Y-140226000D03*
X151157300Y-140226000D03*
X143537300Y-140226000D03*
D19*
X115597300Y-127526000D03*
D20*
X118137300Y-127526000D03*
X120677300Y-127526000D03*
X123217300Y-127526000D03*
X125757300Y-127526000D03*
X128297300Y-127526000D03*
X130837300Y-127526000D03*
X133377300Y-127526000D03*
X135917300Y-127526000D03*
X138457300Y-127526000D03*
X140997300Y-127526000D03*
X143537300Y-127526000D03*
X146077300Y-127526000D03*
X148617300Y-127526000D03*
X151157300Y-127526000D03*
X153697300Y-127526000D03*
X156237300Y-127526000D03*
X158777300Y-127526000D03*
X161317300Y-127526000D03*
X163857300Y-127526000D03*
D15*
X156237300Y-140226000D03*
X158777300Y-140226000D03*
D19*
X115597300Y-124986000D03*
D20*
X118137300Y-124986000D03*
X120677300Y-124986000D03*
X123217300Y-124986000D03*
X125757300Y-124986000D03*
X128297300Y-124986000D03*
X130837300Y-124986000D03*
X133377300Y-124986000D03*
X135917300Y-124986000D03*
X138457300Y-124986000D03*
X140997300Y-124986000D03*
X143537300Y-124986000D03*
X146077300Y-124986000D03*
X148617300Y-124986000D03*
X151157300Y-124986000D03*
X153697300Y-124986000D03*
X156237300Y-124986000D03*
X158777300Y-124986000D03*
X161317300Y-124986000D03*
X163857300Y-124986000D03*
D19*
X115597300Y-122446000D03*
D20*
X118137300Y-122446000D03*
X120677300Y-122446000D03*
X123217300Y-122446000D03*
X125757300Y-122446000D03*
X128297300Y-122446000D03*
X130837300Y-122446000D03*
X133377300Y-122446000D03*
X135917300Y-122446000D03*
X138457300Y-122446000D03*
X140997300Y-122446000D03*
X143537300Y-122446000D03*
X146077300Y-122446000D03*
X148617300Y-122446000D03*
X151157300Y-122446000D03*
X153697300Y-122446000D03*
X156237300Y-122446000D03*
X158777300Y-122446000D03*
X161317300Y-122446000D03*
X163857300Y-122446000D03*
D15*
X130837300Y-135146000D03*
X128297300Y-135146000D03*
X146077300Y-114826000D03*
X138457300Y-135146000D03*
X151157300Y-137686000D03*
X153697300Y-137686000D03*
X163857300Y-130066000D03*
D14*
X118837300Y-89636000D03*
D15*
X163857300Y-88686000D03*
X161317300Y-88686000D03*
X158777300Y-88686000D03*
X156237300Y-88686000D03*
X153697300Y-88686000D03*
X151157300Y-88686000D03*
X148617300Y-88686000D03*
X146077300Y-88686000D03*
X143537300Y-88686000D03*
X140997300Y-88686000D03*
X138457300Y-88686000D03*
X135917300Y-88686000D03*
X133377300Y-88686000D03*
X130837300Y-88686000D03*
X128297300Y-88686000D03*
X125757300Y-88686000D03*
X163857300Y-86146000D03*
X161317300Y-86146000D03*
X158777300Y-86146000D03*
X156237300Y-86146000D03*
X153697300Y-86146000D03*
X151157300Y-86146000D03*
X148617300Y-86146000D03*
X146077300Y-86146000D03*
X143537300Y-86146000D03*
X140997300Y-86146000D03*
X138457300Y-86146000D03*
X135917300Y-86146000D03*
X133377300Y-86146000D03*
X130837300Y-86146000D03*
X128297300Y-86146000D03*
X125757300Y-86146000D03*
X163857300Y-83606000D03*
X161317300Y-83606000D03*
X158777300Y-83606000D03*
X156237300Y-83606000D03*
X153697300Y-83606000D03*
X151157300Y-83606000D03*
X148617300Y-83606000D03*
X146077300Y-83606000D03*
X143537300Y-83606000D03*
X140997300Y-83606000D03*
X138457300Y-83606000D03*
X135917300Y-83606000D03*
X133377300Y-83606000D03*
X130837300Y-83606000D03*
X128297300Y-83606000D03*
X125757300Y-83606000D03*
X123217300Y-83606000D03*
X120677300Y-83606000D03*
X118137300Y-83606000D03*
X115597300Y-83606000D03*
X163857300Y-81066000D03*
X161317300Y-81066000D03*
X158777300Y-81066000D03*
X156237300Y-81066000D03*
X153697300Y-81066000D03*
X151157300Y-81066000D03*
X148617300Y-81066000D03*
X146077300Y-81066000D03*
X143537300Y-81066000D03*
X140997300Y-81066000D03*
X138457300Y-81066000D03*
X135917300Y-81066000D03*
X133377300Y-81066000D03*
X130837300Y-81066000D03*
X128297300Y-81066000D03*
X125757300Y-81066000D03*
X123217300Y-81066000D03*
X120677300Y-81066000D03*
X118137300Y-81066000D03*
X115597300Y-81066000D03*
D14*
X168837300Y-49636000D03*
D15*
X163857300Y-65826000D03*
X161317300Y-65826000D03*
X158777300Y-65826000D03*
X156237300Y-65826000D03*
X153697300Y-65826000D03*
X151157300Y-65826000D03*
X148617300Y-65826000D03*
X146077300Y-65826000D03*
X143537300Y-65826000D03*
X140997300Y-65826000D03*
X138457300Y-65826000D03*
X135917300Y-65826000D03*
X133377300Y-65826000D03*
X130837300Y-65826000D03*
X128297300Y-65826000D03*
X125757300Y-65826000D03*
X123217300Y-65826000D03*
X120677300Y-65826000D03*
X118137300Y-65826000D03*
X115597300Y-65826000D03*
X163857300Y-63286000D03*
X161317300Y-63286000D03*
X158777300Y-63286000D03*
X156237300Y-63286000D03*
X153697300Y-63286000D03*
X151157300Y-63286000D03*
X148617300Y-63286000D03*
X146077300Y-63286000D03*
X143537300Y-63286000D03*
X140997300Y-63286000D03*
X138457300Y-63286000D03*
X135917300Y-63286000D03*
X133377300Y-63286000D03*
X130837300Y-63286000D03*
X128297300Y-63286000D03*
X125757300Y-63286000D03*
X123217300Y-63286000D03*
X120677300Y-63286000D03*
X118137300Y-63286000D03*
X115597300Y-63286000D03*
X163857300Y-60746000D03*
X161317300Y-60746000D03*
X158777300Y-60746000D03*
X156237300Y-60746000D03*
X153697300Y-60746000D03*
X151157300Y-60746000D03*
X148617300Y-60746000D03*
X146077300Y-60746000D03*
X143537300Y-60746000D03*
X140997300Y-60746000D03*
X138457300Y-60746000D03*
X135917300Y-60746000D03*
X133377300Y-60746000D03*
X130837300Y-60746000D03*
X128297300Y-60746000D03*
X125757300Y-60746000D03*
X123217300Y-60746000D03*
X120677300Y-60746000D03*
X118137300Y-60746000D03*
X115597300Y-60746000D03*
X163857300Y-58206000D03*
X161317300Y-58206000D03*
X158777300Y-58206000D03*
X156237300Y-58206000D03*
X153697300Y-58206000D03*
X151157300Y-58206000D03*
X148617300Y-58206000D03*
X146077300Y-58206000D03*
X143537300Y-58206000D03*
X140997300Y-58206000D03*
X138457300Y-58206000D03*
X135917300Y-58206000D03*
X133377300Y-58206000D03*
X130837300Y-58206000D03*
X128297300Y-58206000D03*
X125757300Y-58206000D03*
X123217300Y-58206000D03*
X120677300Y-58206000D03*
X118137300Y-58206000D03*
X115597300Y-58206000D03*
X163857300Y-55666000D03*
X161317300Y-55666000D03*
X158777300Y-55666000D03*
X156237300Y-55666000D03*
X153697300Y-55666000D03*
X151157300Y-55666000D03*
X148617300Y-55666000D03*
X146077300Y-55666000D03*
X143537300Y-55666000D03*
X140997300Y-55666000D03*
X138457300Y-55666000D03*
X135917300Y-55666000D03*
X133377300Y-55666000D03*
X130837300Y-55666000D03*
X128297300Y-55666000D03*
X125757300Y-55666000D03*
X123217300Y-55666000D03*
X120677300Y-55666000D03*
X118137300Y-55666000D03*
X115597300Y-55666000D03*
X163857300Y-53126000D03*
X161317300Y-53126000D03*
X158777300Y-53126000D03*
X156237300Y-53126000D03*
X153697300Y-53126000D03*
X151157300Y-53126000D03*
X148617300Y-53126000D03*
X146077300Y-53126000D03*
X143537300Y-53126000D03*
X140997300Y-53126000D03*
X138457300Y-53126000D03*
X135917300Y-53126000D03*
X133377300Y-53126000D03*
X130837300Y-53126000D03*
X128297300Y-53126000D03*
X125757300Y-53126000D03*
X123217300Y-53126000D03*
X120677300Y-53126000D03*
X118137300Y-53126000D03*
X115597300Y-53126000D03*
X115597300Y-48046000D03*
X118137300Y-48046000D03*
X120677300Y-48046000D03*
X123217300Y-48046000D03*
X125757300Y-48046000D03*
X128297300Y-48046000D03*
X128297300Y-91226000D03*
X125757300Y-91226000D03*
X163857300Y-91226000D03*
X161317300Y-91226000D03*
X143537300Y-91226000D03*
X151157300Y-91226000D03*
X146077300Y-91226000D03*
X140997300Y-91226000D03*
X138457300Y-91226000D03*
X135917300Y-91226000D03*
X133377300Y-91226000D03*
X130837300Y-91226000D03*
X148617300Y-91226000D03*
X153697300Y-91226000D03*
X158777300Y-91226000D03*
X156237300Y-91226000D03*
D20*
X163857300Y-78526000D03*
X161317300Y-78526000D03*
X158777300Y-78526000D03*
X156237300Y-78526000D03*
X153697300Y-78526000D03*
X151157300Y-78526000D03*
X148617300Y-78526000D03*
X146077300Y-78526000D03*
X143537300Y-78526000D03*
X140997300Y-78526000D03*
X138457300Y-78526000D03*
X135917300Y-78526000D03*
X133377300Y-78526000D03*
X130837300Y-78526000D03*
X128297300Y-78526000D03*
X125757300Y-78526000D03*
X123217300Y-78526000D03*
X120677300Y-78526000D03*
X118137300Y-78526000D03*
D19*
X115597300Y-78526000D03*
D20*
X163857300Y-75986000D03*
X161317300Y-75986000D03*
X158777300Y-75986000D03*
X156237300Y-75986000D03*
X153697300Y-75986000D03*
X151157300Y-75986000D03*
X148617300Y-75986000D03*
X146077300Y-75986000D03*
X143537300Y-75986000D03*
X140997300Y-75986000D03*
X138457300Y-75986000D03*
X135917300Y-75986000D03*
X133377300Y-75986000D03*
X130837300Y-75986000D03*
X128297300Y-75986000D03*
X125757300Y-75986000D03*
X123217300Y-75986000D03*
X120677300Y-75986000D03*
X118137300Y-75986000D03*
D19*
X115597300Y-75986000D03*
D20*
X163857300Y-73446000D03*
X161317300Y-73446000D03*
X158777300Y-73446000D03*
X156237300Y-73446000D03*
X153697300Y-73446000D03*
X151157300Y-73446000D03*
X148617300Y-73446000D03*
X146077300Y-73446000D03*
X143537300Y-73446000D03*
X140997300Y-73446000D03*
X138457300Y-73446000D03*
X135917300Y-73446000D03*
X133377300Y-73446000D03*
X130837300Y-73446000D03*
X128297300Y-73446000D03*
X125757300Y-73446000D03*
X123217300Y-73446000D03*
X120677300Y-73446000D03*
X118137300Y-73446000D03*
D19*
X115597300Y-73446000D03*
D20*
X163857300Y-68366000D03*
X161317300Y-68366000D03*
X158777300Y-68366000D03*
X156237300Y-68366000D03*
X153697300Y-68366000D03*
X151157300Y-68366000D03*
X148617300Y-68366000D03*
X146077300Y-68366000D03*
X143537300Y-68366000D03*
X140997300Y-68366000D03*
X138457300Y-68366000D03*
X135917300Y-68366000D03*
X133377300Y-68366000D03*
X130837300Y-68366000D03*
X128297300Y-68366000D03*
X125757300Y-68366000D03*
X123217300Y-68366000D03*
X120677300Y-68366000D03*
X118137300Y-68366000D03*
D19*
X115597300Y-68366000D03*
D20*
X163857300Y-50586000D03*
X161317300Y-50586000D03*
X158777300Y-50586000D03*
X156237300Y-50586000D03*
X153697300Y-50586000D03*
X151157300Y-50586000D03*
X148617300Y-50586000D03*
X146077300Y-50586000D03*
X143537300Y-50586000D03*
X140997300Y-50586000D03*
X138457300Y-50586000D03*
X135917300Y-50586000D03*
X133377300Y-50586000D03*
X130837300Y-50586000D03*
X128297300Y-50586000D03*
X125757300Y-50586000D03*
X123217300Y-50586000D03*
X120677300Y-50586000D03*
X118137300Y-50586000D03*
D19*
X115597300Y-50586000D03*
D20*
X163857300Y-70906000D03*
X161317300Y-70906000D03*
X158777300Y-70906000D03*
X156237300Y-70906000D03*
X153697300Y-70906000D03*
X151157300Y-70906000D03*
X148617300Y-70906000D03*
X146077300Y-70906000D03*
X143537300Y-70906000D03*
X140997300Y-70906000D03*
X138457300Y-70906000D03*
X135917300Y-70906000D03*
X133377300Y-70906000D03*
X130837300Y-70906000D03*
X128297300Y-70906000D03*
X125757300Y-70906000D03*
X123217300Y-70906000D03*
X120677300Y-70906000D03*
X118137300Y-70906000D03*
D19*
X115597300Y-70906000D03*
D18*
X168937300Y-70906000D03*
X168937300Y-68366000D03*
D15*
X151157300Y-48046000D03*
X163857300Y-48046000D03*
X161317300Y-48046000D03*
X158777300Y-48046000D03*
X156237300Y-48046000D03*
X153697300Y-48046000D03*
D17*
X173337300Y-56336000D03*
X173337300Y-59836000D03*
D16*
X173337300Y-63336000D03*
D15*
X166397300Y-59836000D03*
X166397300Y-82936000D03*
X166397300Y-79436000D03*
X166397300Y-75936000D03*
X166397300Y-63336000D03*
X166397300Y-56336000D03*
X148617300Y-48046000D03*
X146077300Y-48046000D03*
X143537300Y-48046000D03*
X140997300Y-48046000D03*
X138457300Y-48046000D03*
X135917300Y-48046000D03*
X133377300Y-48046000D03*
X130837300Y-48046000D03*
D17*
X173337300Y-75936000D03*
X173337300Y-79436000D03*
D16*
X173337300Y-82936000D03*
D14*
X168837300Y-89636000D03*
X111837300Y-69636000D03*
X175837300Y-69636000D03*
M02*
