G04 #@! TF.GenerationSoftware,KiCad,Pcbnew,5.1.5+dfsg1-2build2*
G04 #@! TF.CreationDate,2022-02-15T21:28:09-05:00*
G04 #@! TF.ProjectId,,58585858-5858-4585-9858-585858585858,rev?*
G04 #@! TF.SameCoordinates,Original*
G04 #@! TF.FileFunction,Copper,L1,Top*
G04 #@! TF.FilePolarity,Positive*
%FSLAX46Y46*%
G04 Gerber Fmt 4.6, Leading zero omitted, Abs format (unit mm)*
G04 Created by KiCad (PCBNEW 5.1.5+dfsg1-2build2) date 2022-02-15 21:28:09*
%MOMM*%
%LPD*%
G04 APERTURE LIST*
%ADD10R,1.700000X1.700000*%
%ADD11O,1.700000X1.700000*%
%ADD12C,2.000000*%
%ADD13R,2.400000X2.400000*%
%ADD14C,2.400000*%
%ADD15C,1.998980*%
%ADD16C,0.500000*%
%ADD17C,0.254000*%
G04 APERTURE END LIST*
D10*
X110755300Y-106901200D03*
D11*
X113295300Y-106901200D03*
X115835300Y-106901200D03*
X118375300Y-106901200D03*
X120915300Y-106901200D03*
X123455300Y-106901200D03*
X125995300Y-106901200D03*
X128535300Y-106901200D03*
X131075300Y-106901200D03*
X133615300Y-106901200D03*
X136155300Y-106901200D03*
X138695300Y-106901200D03*
X141235300Y-106901200D03*
X143775300Y-106901200D03*
X146315300Y-106901200D03*
X148855300Y-106901200D03*
X151395300Y-106901200D03*
X153935300Y-106901200D03*
X156475300Y-106901200D03*
X159015300Y-106901200D03*
D12*
X120915300Y-127221200D03*
X146315300Y-122141200D03*
X143775300Y-122141200D03*
X141235300Y-122141200D03*
X123455300Y-127221200D03*
X138695300Y-122141200D03*
X136155300Y-122141200D03*
X133615300Y-122141200D03*
X131075300Y-122141200D03*
X151395300Y-122141200D03*
X128535300Y-122141200D03*
X125995300Y-122141200D03*
X156475300Y-122141200D03*
X123455300Y-122141200D03*
X153935300Y-122141200D03*
X148855300Y-122141200D03*
X125995300Y-89121200D03*
X128535300Y-89121200D03*
X131075300Y-89121200D03*
X133615300Y-89121200D03*
X128535300Y-124681200D03*
X151395300Y-124681200D03*
X138695300Y-129761200D03*
X131075300Y-101821200D03*
X133615300Y-101821200D03*
X125995300Y-129761200D03*
D13*
X168495300Y-104411200D03*
D14*
X168495300Y-100911200D03*
X168495300Y-97411200D03*
D12*
X148855300Y-89121200D03*
X151395300Y-89121200D03*
X153935300Y-89121200D03*
X156475300Y-89121200D03*
X159015300Y-89121200D03*
X146315300Y-89121200D03*
D15*
X163095300Y-109441200D03*
D12*
X136155300Y-111981200D03*
X136155300Y-89121200D03*
X138695300Y-89121200D03*
X141235300Y-89121200D03*
X143775300Y-89121200D03*
X161555300Y-97411200D03*
X161555300Y-104411200D03*
X161555300Y-117011200D03*
X161555300Y-120511200D03*
X161555300Y-124011200D03*
X161555300Y-100911200D03*
X136155300Y-124681200D03*
X148855300Y-124681200D03*
X153935300Y-111981200D03*
X143775300Y-124681200D03*
X118375300Y-124681200D03*
X133615300Y-129761200D03*
X151395300Y-129761200D03*
X123455300Y-129761200D03*
X113295300Y-111981200D03*
X115835300Y-111981200D03*
X118375300Y-111981200D03*
X120915300Y-111981200D03*
X136155300Y-129761200D03*
X115835300Y-124681200D03*
X138695300Y-127221200D03*
X141235300Y-129761200D03*
X148855300Y-129761200D03*
X141235300Y-127221200D03*
X146315300Y-124681200D03*
X128535300Y-111981200D03*
X156475300Y-124681200D03*
X133615300Y-111981200D03*
X133615300Y-127221200D03*
X156475300Y-129761200D03*
X159015300Y-129761200D03*
X153935300Y-124681200D03*
X113295300Y-124681200D03*
X131075300Y-124681200D03*
D10*
X110755300Y-117061200D03*
D11*
X113295300Y-117061200D03*
X115835300Y-117061200D03*
X118375300Y-117061200D03*
X120915300Y-117061200D03*
X123455300Y-117061200D03*
X125995300Y-117061200D03*
X128535300Y-117061200D03*
X131075300Y-117061200D03*
X133615300Y-117061200D03*
X136155300Y-117061200D03*
X138695300Y-117061200D03*
X141235300Y-117061200D03*
X143775300Y-117061200D03*
X146315300Y-117061200D03*
X148855300Y-117061200D03*
X151395300Y-117061200D03*
X153935300Y-117061200D03*
X156475300Y-117061200D03*
X159015300Y-117061200D03*
D12*
X120915300Y-122141200D03*
X146315300Y-111981200D03*
X148855300Y-111981200D03*
X128535300Y-129761200D03*
X143775300Y-111981200D03*
X143775300Y-127221200D03*
X156475300Y-127221200D03*
X131075300Y-129761200D03*
X141235300Y-111981200D03*
X138695300Y-111981200D03*
X138695300Y-124681200D03*
X120915300Y-129761200D03*
X125995300Y-111981200D03*
X133615300Y-124681200D03*
X146315300Y-129761200D03*
X151395300Y-111981200D03*
X136155300Y-127221200D03*
X141235300Y-124681200D03*
X131075300Y-111981200D03*
X143775300Y-129761200D03*
D10*
X110755300Y-94201200D03*
D11*
X113295300Y-94201200D03*
X115835300Y-94201200D03*
X118375300Y-94201200D03*
X120915300Y-94201200D03*
X123455300Y-94201200D03*
X125995300Y-94201200D03*
X128535300Y-94201200D03*
X131075300Y-94201200D03*
X133615300Y-94201200D03*
X136155300Y-94201200D03*
X138695300Y-94201200D03*
X141235300Y-94201200D03*
X143775300Y-94201200D03*
X146315300Y-94201200D03*
X148855300Y-94201200D03*
X151395300Y-94201200D03*
X153935300Y-94201200D03*
X156475300Y-94201200D03*
X159015300Y-94201200D03*
D12*
X151395300Y-101821200D03*
X153935300Y-101821200D03*
X159015300Y-124681200D03*
X151395300Y-127221200D03*
X131075300Y-127221200D03*
X159015300Y-127221200D03*
X148855300Y-127221200D03*
X110755300Y-124681200D03*
X123455300Y-124681200D03*
X125995300Y-127221200D03*
X125995300Y-124681200D03*
X159015300Y-122141200D03*
X128535300Y-127221200D03*
X118375300Y-122141200D03*
X153935300Y-127221200D03*
X151395300Y-104361200D03*
X120915300Y-124681200D03*
X153935300Y-104361200D03*
X156475300Y-104361200D03*
X159015300Y-104361200D03*
X110755300Y-122141200D03*
X113295300Y-122141200D03*
X115835300Y-122141200D03*
X110755300Y-111981200D03*
X136155300Y-104361200D03*
X125995300Y-104361200D03*
X128535300Y-104361200D03*
X148855300Y-104361200D03*
X131075300Y-104361200D03*
X133615300Y-104361200D03*
X156475300Y-101821200D03*
X159015300Y-101821200D03*
X143775300Y-104361200D03*
X146315300Y-104361200D03*
X136155300Y-101821200D03*
X138695300Y-101821200D03*
X110755300Y-104361200D03*
X113295300Y-104361200D03*
X115835300Y-104361200D03*
X118375300Y-104361200D03*
X120915300Y-104361200D03*
X123455300Y-104361200D03*
X148855300Y-99281200D03*
X151395300Y-99281200D03*
X153935300Y-99281200D03*
X156475300Y-99281200D03*
X159015300Y-99281200D03*
X146315300Y-101821200D03*
X148855300Y-101821200D03*
X115835300Y-99281200D03*
X118375300Y-99281200D03*
X120915300Y-99281200D03*
X133615300Y-99281200D03*
X136155300Y-99281200D03*
X138695300Y-99281200D03*
X141235300Y-99281200D03*
X143775300Y-99281200D03*
X146315300Y-99281200D03*
X123455300Y-99281200D03*
X125995300Y-99281200D03*
X128535300Y-99281200D03*
X131075300Y-99281200D03*
X123455300Y-89121200D03*
X120915300Y-89121200D03*
X118375300Y-89121200D03*
X115835300Y-89121200D03*
X113295300Y-89121200D03*
X110755300Y-89121200D03*
X113295300Y-99281200D03*
X138695300Y-104361200D03*
X141235300Y-104361200D03*
X136155300Y-132301200D03*
X141235300Y-132301200D03*
X146315300Y-132301200D03*
X138695300Y-132301200D03*
X141235300Y-101821200D03*
X143775300Y-101821200D03*
X156475300Y-132301200D03*
X159015300Y-132301200D03*
X120915300Y-132301200D03*
X123455300Y-132301200D03*
D10*
X110755300Y-119601200D03*
D11*
X113295300Y-119601200D03*
X115835300Y-119601200D03*
X118375300Y-119601200D03*
X120915300Y-119601200D03*
X123455300Y-119601200D03*
X125995300Y-119601200D03*
X128535300Y-119601200D03*
X131075300Y-119601200D03*
X133615300Y-119601200D03*
X136155300Y-119601200D03*
X138695300Y-119601200D03*
X141235300Y-119601200D03*
X143775300Y-119601200D03*
X146315300Y-119601200D03*
X148855300Y-119601200D03*
X151395300Y-119601200D03*
X153935300Y-119601200D03*
X156475300Y-119601200D03*
X159015300Y-119601200D03*
D12*
X151395300Y-132301200D03*
X153935300Y-132301200D03*
X148855300Y-132301200D03*
X123455300Y-101821200D03*
X125995300Y-101821200D03*
X128535300Y-101821200D03*
D15*
X163095300Y-111981200D03*
D10*
X110755300Y-109441200D03*
D11*
X113295300Y-109441200D03*
X115835300Y-109441200D03*
X118375300Y-109441200D03*
X120915300Y-109441200D03*
X123455300Y-109441200D03*
X125995300Y-109441200D03*
X128535300Y-109441200D03*
X131075300Y-109441200D03*
X133615300Y-109441200D03*
X136155300Y-109441200D03*
X138695300Y-109441200D03*
X141235300Y-109441200D03*
X143775300Y-109441200D03*
X146315300Y-109441200D03*
X148855300Y-109441200D03*
X151395300Y-109441200D03*
X153935300Y-109441200D03*
X156475300Y-109441200D03*
X159015300Y-109441200D03*
D10*
X110755300Y-91661200D03*
D11*
X113295300Y-91661200D03*
X115835300Y-91661200D03*
X118375300Y-91661200D03*
X120915300Y-91661200D03*
X123455300Y-91661200D03*
X125995300Y-91661200D03*
X128535300Y-91661200D03*
X131075300Y-91661200D03*
X133615300Y-91661200D03*
X136155300Y-91661200D03*
X138695300Y-91661200D03*
X141235300Y-91661200D03*
X143775300Y-91661200D03*
X146315300Y-91661200D03*
X148855300Y-91661200D03*
X151395300Y-91661200D03*
X153935300Y-91661200D03*
X156475300Y-91661200D03*
X159015300Y-91661200D03*
D12*
X110755300Y-101821200D03*
X113295300Y-101821200D03*
X115835300Y-101821200D03*
X146315300Y-127221200D03*
X123455300Y-111981200D03*
X153935300Y-129761200D03*
X118375300Y-101821200D03*
X120915300Y-101821200D03*
X143775300Y-132301200D03*
X125995300Y-132301200D03*
X128535300Y-132301200D03*
X131075300Y-132301200D03*
X133615300Y-132301200D03*
D10*
X110755300Y-114521200D03*
D11*
X113295300Y-114521200D03*
X115835300Y-114521200D03*
X118375300Y-114521200D03*
X120915300Y-114521200D03*
X123455300Y-114521200D03*
X125995300Y-114521200D03*
X128535300Y-114521200D03*
X131075300Y-114521200D03*
X133615300Y-114521200D03*
X136155300Y-114521200D03*
X138695300Y-114521200D03*
X141235300Y-114521200D03*
X143775300Y-114521200D03*
X146315300Y-114521200D03*
X148855300Y-114521200D03*
X151395300Y-114521200D03*
X153935300Y-114521200D03*
X156475300Y-114521200D03*
X159015300Y-114521200D03*
D12*
X110755300Y-99281200D03*
D10*
X110755300Y-96741200D03*
D11*
X113295300Y-96741200D03*
X115835300Y-96741200D03*
X118375300Y-96741200D03*
X120915300Y-96741200D03*
X123455300Y-96741200D03*
X125995300Y-96741200D03*
X128535300Y-96741200D03*
X131075300Y-96741200D03*
X133615300Y-96741200D03*
X136155300Y-96741200D03*
X138695300Y-96741200D03*
X141235300Y-96741200D03*
X143775300Y-96741200D03*
X146315300Y-96741200D03*
X148855300Y-96741200D03*
X151395300Y-96741200D03*
X153935300Y-96741200D03*
X156475300Y-96741200D03*
X159015300Y-96741200D03*
D13*
X168495300Y-124011200D03*
D14*
X168495300Y-120511200D03*
X168495300Y-117011200D03*
D12*
X159015300Y-111981200D03*
X156475300Y-111981200D03*
D11*
X159015300Y-57901200D03*
X156475300Y-57901200D03*
X153935300Y-57901200D03*
X151395300Y-57901200D03*
X148855300Y-57901200D03*
X146315300Y-57901200D03*
X143775300Y-57901200D03*
X141235300Y-57901200D03*
X138695300Y-57901200D03*
X136155300Y-57901200D03*
X133615300Y-57901200D03*
X131075300Y-57901200D03*
X128535300Y-57901200D03*
X125995300Y-57901200D03*
X123455300Y-57901200D03*
X120915300Y-57901200D03*
X118375300Y-57901200D03*
X115835300Y-57901200D03*
X113295300Y-57901200D03*
D10*
X110755300Y-57901200D03*
D11*
X159015300Y-45201200D03*
X156475300Y-45201200D03*
X153935300Y-45201200D03*
X151395300Y-45201200D03*
X148855300Y-45201200D03*
X146315300Y-45201200D03*
X143775300Y-45201200D03*
X141235300Y-45201200D03*
X138695300Y-45201200D03*
X136155300Y-45201200D03*
X133615300Y-45201200D03*
X131075300Y-45201200D03*
X128535300Y-45201200D03*
X125995300Y-45201200D03*
X123455300Y-45201200D03*
X120915300Y-45201200D03*
X118375300Y-45201200D03*
X115835300Y-45201200D03*
X113295300Y-45201200D03*
D10*
X110755300Y-45201200D03*
D11*
X159015300Y-47741200D03*
X156475300Y-47741200D03*
X153935300Y-47741200D03*
X151395300Y-47741200D03*
X148855300Y-47741200D03*
X146315300Y-47741200D03*
X143775300Y-47741200D03*
X141235300Y-47741200D03*
X138695300Y-47741200D03*
X136155300Y-47741200D03*
X133615300Y-47741200D03*
X131075300Y-47741200D03*
X128535300Y-47741200D03*
X125995300Y-47741200D03*
X123455300Y-47741200D03*
X120915300Y-47741200D03*
X118375300Y-47741200D03*
X115835300Y-47741200D03*
X113295300Y-47741200D03*
D10*
X110755300Y-47741200D03*
D12*
X110755300Y-50281200D03*
D14*
X168495300Y-68011200D03*
X168495300Y-71511200D03*
D13*
X168495300Y-75011200D03*
D12*
X159015300Y-62981200D03*
X156475300Y-62981200D03*
X153935300Y-62981200D03*
X151395300Y-62981200D03*
X148855300Y-62981200D03*
X146315300Y-62981200D03*
X143775300Y-62981200D03*
X141235300Y-62981200D03*
X138695300Y-62981200D03*
X136155300Y-62981200D03*
X133615300Y-62981200D03*
X131075300Y-62981200D03*
X128535300Y-62981200D03*
X125995300Y-62981200D03*
X123455300Y-62981200D03*
X120915300Y-62981200D03*
X118375300Y-62981200D03*
X115835300Y-62981200D03*
X113295300Y-62981200D03*
X110755300Y-62981200D03*
X159015300Y-80761200D03*
X156475300Y-80761200D03*
X153935300Y-80761200D03*
X151395300Y-80761200D03*
X148855300Y-80761200D03*
X146315300Y-80761200D03*
X143775300Y-80761200D03*
X141235300Y-80761200D03*
X138695300Y-80761200D03*
X136155300Y-80761200D03*
X133615300Y-80761200D03*
X131075300Y-80761200D03*
X128535300Y-80761200D03*
X125995300Y-80761200D03*
X123455300Y-80761200D03*
X120915300Y-80761200D03*
X159015300Y-78221200D03*
X156475300Y-78221200D03*
X153935300Y-78221200D03*
X151395300Y-78221200D03*
X148855300Y-78221200D03*
X146315300Y-78221200D03*
X143775300Y-78221200D03*
X141235300Y-78221200D03*
X138695300Y-78221200D03*
X136155300Y-78221200D03*
X133615300Y-78221200D03*
X131075300Y-78221200D03*
X128535300Y-78221200D03*
X125995300Y-78221200D03*
X123455300Y-78221200D03*
X120915300Y-78221200D03*
X159015300Y-75681200D03*
X156475300Y-75681200D03*
X153935300Y-75681200D03*
X151395300Y-75681200D03*
X148855300Y-75681200D03*
X146315300Y-75681200D03*
X143775300Y-75681200D03*
X141235300Y-75681200D03*
X138695300Y-75681200D03*
X136155300Y-75681200D03*
X133615300Y-75681200D03*
X131075300Y-75681200D03*
X128535300Y-75681200D03*
X125995300Y-75681200D03*
X123455300Y-75681200D03*
X120915300Y-75681200D03*
X118375300Y-75681200D03*
X115835300Y-75681200D03*
X113295300Y-75681200D03*
X110755300Y-75681200D03*
X159015300Y-73141200D03*
X156475300Y-73141200D03*
X153935300Y-73141200D03*
X151395300Y-73141200D03*
X148855300Y-73141200D03*
X146315300Y-73141200D03*
X143775300Y-73141200D03*
X141235300Y-73141200D03*
X138695300Y-73141200D03*
X136155300Y-73141200D03*
X133615300Y-73141200D03*
X131075300Y-73141200D03*
X128535300Y-73141200D03*
X125995300Y-73141200D03*
X123455300Y-73141200D03*
X120915300Y-73141200D03*
X118375300Y-73141200D03*
X115835300Y-73141200D03*
X113295300Y-73141200D03*
X110755300Y-73141200D03*
X159015300Y-55361200D03*
X156475300Y-55361200D03*
X153935300Y-55361200D03*
X151395300Y-55361200D03*
X148855300Y-55361200D03*
X146315300Y-55361200D03*
X143775300Y-55361200D03*
X141235300Y-55361200D03*
X138695300Y-55361200D03*
X136155300Y-55361200D03*
X133615300Y-55361200D03*
X131075300Y-55361200D03*
X128535300Y-55361200D03*
X125995300Y-55361200D03*
X123455300Y-55361200D03*
X120915300Y-55361200D03*
X118375300Y-55361200D03*
X115835300Y-55361200D03*
X113295300Y-55361200D03*
X110755300Y-55361200D03*
X159015300Y-52821200D03*
X156475300Y-52821200D03*
X153935300Y-52821200D03*
X151395300Y-52821200D03*
X148855300Y-52821200D03*
X146315300Y-52821200D03*
X143775300Y-52821200D03*
X141235300Y-52821200D03*
X138695300Y-52821200D03*
X136155300Y-52821200D03*
X133615300Y-52821200D03*
X131075300Y-52821200D03*
X128535300Y-52821200D03*
X125995300Y-52821200D03*
X123455300Y-52821200D03*
X120915300Y-52821200D03*
X118375300Y-52821200D03*
X115835300Y-52821200D03*
X113295300Y-52821200D03*
X110755300Y-52821200D03*
X159015300Y-50281200D03*
X156475300Y-50281200D03*
X153935300Y-50281200D03*
X151395300Y-50281200D03*
X148855300Y-50281200D03*
X146315300Y-50281200D03*
X143775300Y-50281200D03*
X141235300Y-50281200D03*
X138695300Y-50281200D03*
X136155300Y-50281200D03*
X133615300Y-50281200D03*
X131075300Y-50281200D03*
X128535300Y-50281200D03*
X125995300Y-50281200D03*
X123455300Y-50281200D03*
X120915300Y-50281200D03*
X118375300Y-50281200D03*
X115835300Y-50281200D03*
X113295300Y-50281200D03*
X110755300Y-40121200D03*
X113295300Y-40121200D03*
X115835300Y-40121200D03*
X118375300Y-40121200D03*
X120915300Y-40121200D03*
X123455300Y-40121200D03*
X123455300Y-83301200D03*
X120915300Y-83301200D03*
X159015300Y-83301200D03*
X156475300Y-83301200D03*
X138695300Y-83301200D03*
X146315300Y-83301200D03*
X141235300Y-83301200D03*
X136155300Y-83301200D03*
X133615300Y-83301200D03*
X131075300Y-83301200D03*
X128535300Y-83301200D03*
X125995300Y-83301200D03*
X143775300Y-83301200D03*
X148855300Y-83301200D03*
X153935300Y-83301200D03*
X151395300Y-83301200D03*
D11*
X159015300Y-70601200D03*
X156475300Y-70601200D03*
X153935300Y-70601200D03*
X151395300Y-70601200D03*
X148855300Y-70601200D03*
X146315300Y-70601200D03*
X143775300Y-70601200D03*
X141235300Y-70601200D03*
X138695300Y-70601200D03*
X136155300Y-70601200D03*
X133615300Y-70601200D03*
X131075300Y-70601200D03*
X128535300Y-70601200D03*
X125995300Y-70601200D03*
X123455300Y-70601200D03*
X120915300Y-70601200D03*
X118375300Y-70601200D03*
X115835300Y-70601200D03*
X113295300Y-70601200D03*
D10*
X110755300Y-70601200D03*
D11*
X159015300Y-68061200D03*
X156475300Y-68061200D03*
X153935300Y-68061200D03*
X151395300Y-68061200D03*
X148855300Y-68061200D03*
X146315300Y-68061200D03*
X143775300Y-68061200D03*
X141235300Y-68061200D03*
X138695300Y-68061200D03*
X136155300Y-68061200D03*
X133615300Y-68061200D03*
X131075300Y-68061200D03*
X128535300Y-68061200D03*
X125995300Y-68061200D03*
X123455300Y-68061200D03*
X120915300Y-68061200D03*
X118375300Y-68061200D03*
X115835300Y-68061200D03*
X113295300Y-68061200D03*
D10*
X110755300Y-68061200D03*
D11*
X159015300Y-65521200D03*
X156475300Y-65521200D03*
X153935300Y-65521200D03*
X151395300Y-65521200D03*
X148855300Y-65521200D03*
X146315300Y-65521200D03*
X143775300Y-65521200D03*
X141235300Y-65521200D03*
X138695300Y-65521200D03*
X136155300Y-65521200D03*
X133615300Y-65521200D03*
X131075300Y-65521200D03*
X128535300Y-65521200D03*
X125995300Y-65521200D03*
X123455300Y-65521200D03*
X120915300Y-65521200D03*
X118375300Y-65521200D03*
X115835300Y-65521200D03*
X113295300Y-65521200D03*
D10*
X110755300Y-65521200D03*
D11*
X159015300Y-42661200D03*
X156475300Y-42661200D03*
X153935300Y-42661200D03*
X151395300Y-42661200D03*
X148855300Y-42661200D03*
X146315300Y-42661200D03*
X143775300Y-42661200D03*
X141235300Y-42661200D03*
X138695300Y-42661200D03*
X136155300Y-42661200D03*
X133615300Y-42661200D03*
X131075300Y-42661200D03*
X128535300Y-42661200D03*
X125995300Y-42661200D03*
X123455300Y-42661200D03*
X120915300Y-42661200D03*
X118375300Y-42661200D03*
X115835300Y-42661200D03*
X113295300Y-42661200D03*
D10*
X110755300Y-42661200D03*
D11*
X159015300Y-60441200D03*
X156475300Y-60441200D03*
X153935300Y-60441200D03*
X151395300Y-60441200D03*
X148855300Y-60441200D03*
X146315300Y-60441200D03*
X143775300Y-60441200D03*
X141235300Y-60441200D03*
X138695300Y-60441200D03*
X136155300Y-60441200D03*
X133615300Y-60441200D03*
X131075300Y-60441200D03*
X128535300Y-60441200D03*
X125995300Y-60441200D03*
X123455300Y-60441200D03*
X120915300Y-60441200D03*
X118375300Y-60441200D03*
X115835300Y-60441200D03*
X113295300Y-60441200D03*
D10*
X110755300Y-60441200D03*
D15*
X163095300Y-62981200D03*
X163095300Y-60441200D03*
D12*
X146315300Y-40121200D03*
X159015300Y-40121200D03*
X156475300Y-40121200D03*
X153935300Y-40121200D03*
X151395300Y-40121200D03*
X148855300Y-40121200D03*
D14*
X168495300Y-48411200D03*
X168495300Y-51911200D03*
D13*
X168495300Y-55411200D03*
D12*
X161555300Y-51911200D03*
X161555300Y-75011200D03*
X161555300Y-71511200D03*
X161555300Y-68011200D03*
X161555300Y-55411200D03*
X161555300Y-48411200D03*
X143775300Y-40121200D03*
X141235300Y-40121200D03*
X138695300Y-40121200D03*
X136155300Y-40121200D03*
X133615300Y-40121200D03*
X131075300Y-40121200D03*
X128535300Y-40121200D03*
X125995300Y-40121200D03*
D16*
X159015300Y-40219000D02*
X159318200Y-39916100D01*
X156475300Y-40739700D02*
X156587700Y-40627300D01*
X153935300Y-40752400D02*
X154377900Y-40309800D01*
X128535300Y-40641900D02*
X128279400Y-40386000D01*
X125995300Y-40591100D02*
X125879100Y-40474900D01*
X146315300Y-40121200D02*
X146315300Y-41590600D01*
X146315300Y-41590600D02*
X146315300Y-45201200D01*
X153935300Y-45201200D02*
X153935300Y-43635300D01*
X156475300Y-40121200D02*
X156475300Y-41704900D01*
X156475300Y-41704900D02*
X156475300Y-45201200D01*
X141235300Y-73141200D02*
X141235300Y-71515600D01*
X110755300Y-75681200D02*
X113295300Y-75681200D01*
X113295300Y-75681200D02*
X115835300Y-75681200D01*
X115835300Y-75681200D02*
X118375300Y-75681200D01*
X118375300Y-75681200D02*
X120915300Y-75681200D01*
X120915300Y-75681200D02*
X123455300Y-75681200D01*
X123455300Y-75681200D02*
X125995300Y-75681200D01*
X125995300Y-75681200D02*
X128535300Y-75681200D01*
X120915300Y-78221200D02*
X123455300Y-78221200D01*
X123455300Y-78221200D02*
X125995300Y-78221200D01*
X125995300Y-78221200D02*
X128535300Y-78221200D01*
X128535300Y-75681200D02*
X131075300Y-75681200D01*
X128535300Y-78221200D02*
X131075300Y-78221200D01*
X131075300Y-78221200D02*
X133615300Y-78221200D01*
X131075300Y-75681200D02*
X132599300Y-75681200D01*
X133615300Y-75681200D02*
X136155300Y-75681200D01*
X133615300Y-78221200D02*
X136155300Y-78221200D01*
X136155300Y-75681200D02*
X138695300Y-75681200D01*
X136155300Y-78221200D02*
X138695300Y-78221200D01*
X138695300Y-78221200D02*
X141235300Y-78221200D01*
X138695300Y-75681200D02*
X141235300Y-75681200D01*
X141235300Y-75681200D02*
X143775300Y-75681200D01*
X141235300Y-78221200D02*
X143775300Y-78221200D01*
X143775300Y-75681200D02*
X146315300Y-75681200D01*
X143775300Y-78221200D02*
X146315300Y-78221200D01*
X146315300Y-75681200D02*
X148855300Y-75681200D01*
X146315300Y-78221200D02*
X148855300Y-78221200D01*
X148855300Y-75681200D02*
X151395300Y-75681200D01*
X148855300Y-78221200D02*
X151395300Y-78221200D01*
X151395300Y-78221200D02*
X153935300Y-78221200D01*
X151395300Y-75681200D02*
X153935300Y-75681200D01*
X153935300Y-75681200D02*
X156475300Y-75681200D01*
X156475300Y-75681200D02*
X159015300Y-75681200D01*
X153935300Y-78221200D02*
X156475300Y-78221200D01*
X156475300Y-78221200D02*
X159015300Y-78221200D01*
X159015300Y-80761200D02*
X159015300Y-83301200D01*
X156475300Y-80761200D02*
X156475300Y-83301200D01*
X153935300Y-80761200D02*
X153935300Y-83301200D01*
X151395300Y-80761200D02*
X151395300Y-83301200D01*
X148855300Y-80761200D02*
X148855300Y-83301200D01*
X146315300Y-80761200D02*
X146315300Y-83301200D01*
X143775300Y-80761200D02*
X143775300Y-83301200D01*
X141235300Y-80761200D02*
X141235300Y-83301200D01*
X138695300Y-80761200D02*
X138695300Y-83301200D01*
X136155300Y-80761200D02*
X136155300Y-83301200D01*
X133615300Y-80761200D02*
X133615300Y-83301200D01*
X131075300Y-80761200D02*
X131075300Y-83301200D01*
X128535300Y-80761200D02*
X128535300Y-83301200D01*
X125995300Y-80761200D02*
X125995300Y-83301200D01*
X123455300Y-80761200D02*
X123455300Y-83301200D01*
X120915300Y-80761200D02*
X120915300Y-83301200D01*
X159015300Y-55361200D02*
X156475300Y-55361200D01*
X156475300Y-55361200D02*
X153935300Y-55361200D01*
X153935300Y-55361200D02*
X151395300Y-55361200D01*
X151395300Y-55361200D02*
X148855300Y-55361200D01*
X148855300Y-55361200D02*
X146315300Y-55361200D01*
X146315300Y-55361200D02*
X143775300Y-55361200D01*
X143775300Y-55361200D02*
X141235300Y-55361200D01*
X141235300Y-55361200D02*
X138695300Y-55361200D01*
X138695300Y-55361200D02*
X136155300Y-55361200D01*
X136155300Y-55361200D02*
X133615300Y-55361200D01*
X133615300Y-55361200D02*
X131075300Y-55361200D01*
X128535300Y-55361200D02*
X131075300Y-55361200D01*
X128535300Y-55361200D02*
X125995300Y-55361200D01*
X125995300Y-55361200D02*
X123455300Y-55361200D01*
X123455300Y-55361200D02*
X120915300Y-55361200D01*
X120915300Y-55361200D02*
X118375300Y-55361200D01*
X118375300Y-55361200D02*
X115835300Y-55361200D01*
X115835300Y-55361200D02*
X113295300Y-55361200D01*
X113295300Y-55361200D02*
X110755300Y-55361200D01*
X110755300Y-52821200D02*
X113295300Y-52821200D01*
X113295300Y-52821200D02*
X115835300Y-52821200D01*
X115835300Y-52821200D02*
X118375300Y-52821200D01*
X118375300Y-52821200D02*
X120915300Y-52821200D01*
X120915300Y-52821200D02*
X123455300Y-52821200D01*
X123455300Y-52821200D02*
X125995300Y-52821200D01*
X125995300Y-52821200D02*
X128535300Y-52821200D01*
X128535300Y-52821200D02*
X131075300Y-52821200D01*
X131075300Y-52821200D02*
X133615300Y-52821200D01*
X133615300Y-52821200D02*
X136155300Y-52821200D01*
X136155300Y-52821200D02*
X138695300Y-52821200D01*
X138695300Y-52821200D02*
X141235300Y-52821200D01*
X141235300Y-52821200D02*
X143775300Y-52821200D01*
X143775300Y-52821200D02*
X146315300Y-52821200D01*
X146315300Y-52821200D02*
X148855300Y-52821200D01*
X148855300Y-52821200D02*
X151395300Y-52821200D01*
X151395300Y-52821200D02*
X153935300Y-52821200D01*
X153935300Y-52821200D02*
X156475300Y-52821200D01*
X156475300Y-52821200D02*
X159015300Y-52821200D01*
X146315300Y-90590600D02*
X146315300Y-94201200D01*
X153935300Y-101821200D02*
X156475300Y-101821200D01*
X156475300Y-101821200D02*
X159015300Y-101821200D01*
X133615300Y-104361200D02*
X131075300Y-104361200D01*
X128535300Y-104361200D02*
X131075300Y-104361200D01*
X128535300Y-104361200D02*
X125995300Y-104361200D01*
X125995300Y-104361200D02*
X123455300Y-104361200D01*
X123455300Y-104361200D02*
X120915300Y-104361200D01*
X120915300Y-104361200D02*
X118375300Y-104361200D01*
X128535300Y-89641900D02*
X128279400Y-89386000D01*
X156475300Y-89739700D02*
X156587700Y-89627300D01*
X138695300Y-104361200D02*
X136155300Y-104361200D01*
X136155300Y-104361200D02*
X133615300Y-104361200D01*
X151395300Y-101821200D02*
X153935300Y-101821200D01*
X153935300Y-89752400D02*
X154377900Y-89309800D01*
X159015300Y-89219000D02*
X159318200Y-88916100D01*
X125995300Y-89591100D02*
X125879100Y-89474900D01*
X146315300Y-89121200D02*
X146315300Y-90590600D01*
X153935300Y-94201200D02*
X153935300Y-92635300D01*
X156475300Y-89121200D02*
X156475300Y-90704900D01*
X156475300Y-90704900D02*
X156475300Y-94201200D01*
X141235300Y-122141200D02*
X141235300Y-120515600D01*
X110755300Y-124681200D02*
X113295300Y-124681200D01*
X113295300Y-124681200D02*
X115835300Y-124681200D01*
X115835300Y-124681200D02*
X118375300Y-124681200D01*
X118375300Y-124681200D02*
X120915300Y-124681200D01*
X120915300Y-124681200D02*
X123455300Y-124681200D01*
X123455300Y-124681200D02*
X125995300Y-124681200D01*
X125995300Y-124681200D02*
X128535300Y-124681200D01*
X120915300Y-127221200D02*
X123455300Y-127221200D01*
X123455300Y-127221200D02*
X125995300Y-127221200D01*
X125995300Y-127221200D02*
X128535300Y-127221200D01*
X128535300Y-124681200D02*
X131075300Y-124681200D01*
X128535300Y-127221200D02*
X131075300Y-127221200D01*
X131075300Y-127221200D02*
X133615300Y-127221200D01*
X131075300Y-124681200D02*
X132599300Y-124681200D01*
X133615300Y-124681200D02*
X136155300Y-124681200D01*
X133615300Y-127221200D02*
X136155300Y-127221200D01*
X136155300Y-124681200D02*
X138695300Y-124681200D01*
X136155300Y-127221200D02*
X138695300Y-127221200D01*
X138695300Y-127221200D02*
X141235300Y-127221200D01*
X138695300Y-124681200D02*
X141235300Y-124681200D01*
X141235300Y-124681200D02*
X143775300Y-124681200D01*
X141235300Y-127221200D02*
X143775300Y-127221200D01*
X143775300Y-124681200D02*
X146315300Y-124681200D01*
X143775300Y-127221200D02*
X146315300Y-127221200D01*
X146315300Y-124681200D02*
X148855300Y-124681200D01*
X146315300Y-127221200D02*
X148855300Y-127221200D01*
X148855300Y-124681200D02*
X151395300Y-124681200D01*
X148855300Y-127221200D02*
X151395300Y-127221200D01*
X151395300Y-127221200D02*
X153935300Y-127221200D01*
X151395300Y-124681200D02*
X153935300Y-124681200D01*
X153935300Y-124681200D02*
X156475300Y-124681200D01*
X156475300Y-124681200D02*
X159015300Y-124681200D01*
X153935300Y-127221200D02*
X156475300Y-127221200D01*
X156475300Y-127221200D02*
X159015300Y-127221200D01*
X159015300Y-129761200D02*
X159015300Y-132301200D01*
X156475300Y-129761200D02*
X156475300Y-132301200D01*
X153935300Y-129761200D02*
X153935300Y-132301200D01*
X151395300Y-129761200D02*
X151395300Y-132301200D01*
X148855300Y-129761200D02*
X148855300Y-132301200D01*
X146315300Y-129761200D02*
X146315300Y-132301200D01*
X143775300Y-129761200D02*
X143775300Y-132301200D01*
X141235300Y-129761200D02*
X141235300Y-132301200D01*
X138695300Y-129761200D02*
X138695300Y-132301200D01*
X136155300Y-129761200D02*
X136155300Y-132301200D01*
X133615300Y-129761200D02*
X133615300Y-132301200D01*
X131075300Y-129761200D02*
X131075300Y-132301200D01*
X128535300Y-129761200D02*
X128535300Y-132301200D01*
X125995300Y-129761200D02*
X125995300Y-132301200D01*
X123455300Y-129761200D02*
X123455300Y-132301200D01*
X120915300Y-129761200D02*
X120915300Y-132301200D01*
X159015300Y-104361200D02*
X156475300Y-104361200D01*
X156475300Y-104361200D02*
X153935300Y-104361200D01*
X153935300Y-104361200D02*
X151395300Y-104361200D01*
X151395300Y-104361200D02*
X148855300Y-104361200D01*
X148855300Y-104361200D02*
X146315300Y-104361200D01*
X146315300Y-104361200D02*
X143775300Y-104361200D01*
X143775300Y-104361200D02*
X141235300Y-104361200D01*
X141235300Y-104361200D02*
X138695300Y-104361200D01*
X118375300Y-104361200D02*
X115835300Y-104361200D01*
X115835300Y-104361200D02*
X113295300Y-104361200D01*
X113295300Y-104361200D02*
X110755300Y-104361200D01*
X110755300Y-101821200D02*
X113295300Y-101821200D01*
X113295300Y-101821200D02*
X115835300Y-101821200D01*
X115835300Y-101821200D02*
X118375300Y-101821200D01*
X118375300Y-101821200D02*
X120915300Y-101821200D01*
X120915300Y-101821200D02*
X123455300Y-101821200D01*
X123455300Y-101821200D02*
X125995300Y-101821200D01*
X125995300Y-101821200D02*
X128535300Y-101821200D01*
X128535300Y-101821200D02*
X131075300Y-101821200D01*
X131075300Y-101821200D02*
X133615300Y-101821200D01*
X133615300Y-101821200D02*
X136155300Y-101821200D01*
X136155300Y-101821200D02*
X138695300Y-101821200D01*
X138695300Y-101821200D02*
X141235300Y-101821200D01*
X141235300Y-101821200D02*
X143775300Y-101821200D01*
X143775300Y-101821200D02*
X146315300Y-101821200D01*
X146315300Y-101821200D02*
X148855300Y-101821200D01*
X148855300Y-101821200D02*
X151395300Y-101821200D01*
X167599200Y-68011200D02*
X167665400Y-67945000D01*
X167833200Y-68011200D02*
X167970200Y-68148200D01*
X161555300Y-68011200D02*
X167833200Y-68011200D01*
X167599200Y-117011200D02*
X167665400Y-116945000D01*
X167833200Y-117011200D02*
X167970200Y-117148200D01*
X161555300Y-117011200D02*
X167833200Y-117011200D01*
X167320000Y-71511200D02*
X167386000Y-71577200D01*
X167286900Y-71511200D02*
X167398700Y-71399400D01*
X167624800Y-71511200D02*
X167767000Y-71653400D01*
X161555300Y-71511200D02*
X167624800Y-71511200D01*
X167320000Y-120511200D02*
X167386000Y-120577200D01*
X167286900Y-120511200D02*
X167398700Y-120399400D01*
X167624800Y-120511200D02*
X167767000Y-120653400D01*
X161555300Y-120511200D02*
X167624800Y-120511200D01*
X167508000Y-75011200D02*
X167563800Y-74955400D01*
X161555300Y-75011200D02*
X167508000Y-75011200D01*
X167508000Y-124011200D02*
X167563800Y-123955400D01*
X161555300Y-124011200D02*
X167508000Y-124011200D01*
X167245100Y-48411200D02*
X167424100Y-48590200D01*
X167422900Y-48411200D02*
X167462200Y-48450500D01*
X167514200Y-48411200D02*
X167652700Y-48272700D01*
X167918200Y-48411200D02*
X167970200Y-48463200D01*
X161555300Y-48411200D02*
X167918200Y-48411200D01*
X167245100Y-97411200D02*
X167424100Y-97590200D01*
X167422900Y-97411200D02*
X167462200Y-97450500D01*
X167514200Y-97411200D02*
X167652700Y-97272700D01*
X167918200Y-97411200D02*
X167970200Y-97463200D01*
X161555300Y-97411200D02*
X167918200Y-97411200D01*
X167689700Y-55411200D02*
X167741600Y-55359300D01*
X167461100Y-55411200D02*
X167690800Y-55181500D01*
X161555300Y-55411200D02*
X167461100Y-55411200D01*
X167689700Y-104411200D02*
X167741600Y-104359300D01*
X167461100Y-104411200D02*
X167690800Y-104181500D01*
X161555300Y-104411200D02*
X167461100Y-104411200D01*
X167532100Y-51911200D02*
X167627300Y-51816000D01*
X167633600Y-51911200D02*
X167652700Y-51930300D01*
X161555300Y-51911200D02*
X167633600Y-51911200D01*
X167532100Y-100911200D02*
X167627300Y-100816000D01*
X167633600Y-100911200D02*
X167652700Y-100930300D01*
X161555300Y-100911200D02*
X167633600Y-100911200D01*
X128535300Y-41984300D02*
X128381000Y-42138600D01*
X128535300Y-40121200D02*
X128535300Y-41984300D01*
X128535300Y-42661200D02*
X128535300Y-44159800D01*
X128535300Y-90984300D02*
X128381000Y-91138600D01*
X128535300Y-89121200D02*
X128535300Y-90984300D01*
X128535300Y-91661200D02*
X128535300Y-93159800D01*
X125995300Y-42280200D02*
X126209300Y-42494200D01*
X125995300Y-40121200D02*
X125995300Y-42280200D01*
X125995300Y-44460800D02*
X125968000Y-44488100D01*
X125995300Y-42661200D02*
X125995300Y-44460800D01*
X125995300Y-91280200D02*
X126209300Y-91494200D01*
X125995300Y-89121200D02*
X125995300Y-91280200D01*
X125995300Y-93460800D02*
X125968000Y-93488100D01*
X125995300Y-91661200D02*
X125995300Y-93460800D01*
X123455300Y-41975400D02*
X123732800Y-42252900D01*
X123455300Y-40121200D02*
X123455300Y-41975400D01*
X123455300Y-44337600D02*
X123796300Y-44678600D01*
X123455300Y-42661200D02*
X123455300Y-44337600D01*
X123455300Y-90975400D02*
X123732800Y-91252900D01*
X123455300Y-89121200D02*
X123455300Y-90975400D01*
X123455300Y-93337600D02*
X123796300Y-93678600D01*
X123455300Y-91661200D02*
X123455300Y-93337600D01*
X120915300Y-43089200D02*
X120900700Y-43103800D01*
X120915300Y-40121200D02*
X120915300Y-43089200D01*
X120915300Y-42661200D02*
X120915300Y-44337600D01*
X120915300Y-92089200D02*
X120900700Y-92103800D01*
X120915300Y-89121200D02*
X120915300Y-92089200D01*
X120915300Y-91661200D02*
X120915300Y-93337600D01*
X118375300Y-42657400D02*
X118297200Y-42735500D01*
X118375300Y-40121200D02*
X118375300Y-42657400D01*
X118375300Y-44537000D02*
X118182900Y-44729400D01*
X118375300Y-42661200D02*
X118375300Y-44537000D01*
X118375300Y-91657400D02*
X118297200Y-91735500D01*
X118375300Y-89121200D02*
X118375300Y-91657400D01*
X118375300Y-93537000D02*
X118182900Y-93729400D01*
X118375300Y-91661200D02*
X118375300Y-93537000D01*
X115835300Y-42508800D02*
X116125500Y-42799000D01*
X115835300Y-40121200D02*
X115835300Y-42508800D01*
X115835300Y-44998000D02*
X115998500Y-45161200D01*
X115835300Y-42661200D02*
X115835300Y-44998000D01*
X115835300Y-91508800D02*
X116125500Y-91799000D01*
X115835300Y-89121200D02*
X115835300Y-91508800D01*
X115835300Y-93998000D02*
X115998500Y-94161200D01*
X115835300Y-91661200D02*
X115835300Y-93998000D01*
X113295300Y-42492300D02*
X113293400Y-42494200D01*
X113295300Y-40121200D02*
X113295300Y-42492300D01*
X113295300Y-44680500D02*
X113471200Y-44856400D01*
X113295300Y-42661200D02*
X113295300Y-44680500D01*
X113295300Y-91492300D02*
X113293400Y-91494200D01*
X113295300Y-89121200D02*
X113295300Y-91492300D01*
X113295300Y-93680500D02*
X113471200Y-93856400D01*
X113295300Y-91661200D02*
X113295300Y-93680500D01*
X110755300Y-42381800D02*
X110867700Y-42494200D01*
X110755300Y-40121200D02*
X110755300Y-42381800D01*
X110755300Y-44667800D02*
X111058200Y-44970700D01*
X110755300Y-42661200D02*
X110755300Y-44667800D01*
X110755300Y-91381800D02*
X110867700Y-91494200D01*
X110755300Y-89121200D02*
X110755300Y-91381800D01*
X110755300Y-93667800D02*
X111058200Y-93970700D01*
X110755300Y-91661200D02*
X110755300Y-93667800D01*
X128535300Y-60361200D02*
X128546100Y-60350400D01*
X128535300Y-62981200D02*
X128535300Y-60361200D01*
X128535300Y-60441200D02*
X128535300Y-57913900D01*
X128535300Y-49554000D02*
X128562100Y-49580800D01*
X128535300Y-47741200D02*
X128535300Y-49554000D01*
X128535300Y-109361200D02*
X128546100Y-109350400D01*
X128535300Y-111981200D02*
X128535300Y-109361200D01*
X128535300Y-109441200D02*
X128535300Y-106913900D01*
X128535300Y-98554000D02*
X128562100Y-98580800D01*
X128535300Y-96741200D02*
X128535300Y-98554000D01*
X125995300Y-60530100D02*
X125955300Y-60490100D01*
X125995300Y-62981200D02*
X125995300Y-60530100D01*
X125995300Y-60441200D02*
X125995300Y-58066300D01*
X125995300Y-49709200D02*
X125971300Y-49733200D01*
X125995300Y-47741200D02*
X125995300Y-49709200D01*
X125995300Y-109530100D02*
X125955300Y-109490100D01*
X125995300Y-111981200D02*
X125995300Y-109530100D01*
X125995300Y-109441200D02*
X125995300Y-107066300D01*
X125995300Y-98709200D02*
X125971300Y-98733200D01*
X125995300Y-96741200D02*
X125995300Y-98709200D01*
X123455300Y-60492000D02*
X123402600Y-60439300D01*
X123455300Y-62981200D02*
X123455300Y-60492000D01*
X123455300Y-60441200D02*
X123455300Y-57850400D01*
X123455300Y-50011200D02*
X123571000Y-50126900D01*
X123455300Y-47741200D02*
X123455300Y-50011200D01*
X123455300Y-109492000D02*
X123402600Y-109439300D01*
X123455300Y-111981200D02*
X123455300Y-109492000D01*
X123455300Y-109441200D02*
X123455300Y-106850400D01*
X123455300Y-99011200D02*
X123571000Y-99126900D01*
X123455300Y-96741200D02*
X123455300Y-99011200D01*
X120915300Y-60361200D02*
X121040400Y-60236100D01*
X120915300Y-62981200D02*
X120915300Y-60361200D01*
X120915300Y-60441200D02*
X120915300Y-58583200D01*
X120915300Y-49782600D02*
X120954800Y-49822100D01*
X120915300Y-47741200D02*
X120915300Y-49782600D01*
X120915300Y-109361200D02*
X121040400Y-109236100D01*
X120915300Y-111981200D02*
X120915300Y-109361200D01*
X120915300Y-109441200D02*
X120915300Y-107583200D01*
X120915300Y-98782600D02*
X120954800Y-98822100D01*
X120915300Y-96741200D02*
X120915300Y-98782600D01*
X118375300Y-60818400D02*
X118538500Y-60655200D01*
X118375300Y-62981200D02*
X118375300Y-60818400D01*
X118375300Y-60441200D02*
X118375300Y-58570500D01*
X118375300Y-49899700D02*
X118275100Y-49999900D01*
X118375300Y-47741200D02*
X118375300Y-49899700D01*
X118375300Y-109818400D02*
X118538500Y-109655200D01*
X118375300Y-111981200D02*
X118375300Y-109818400D01*
X118375300Y-109441200D02*
X118375300Y-107570500D01*
X118375300Y-98899700D02*
X118275100Y-98999900D01*
X118375300Y-96741200D02*
X118375300Y-98899700D01*
X115835300Y-60767600D02*
X116062000Y-60540900D01*
X115835300Y-62981200D02*
X115835300Y-60767600D01*
X115835300Y-60441200D02*
X115835300Y-58129800D01*
X115835300Y-49848900D02*
X115760500Y-49923700D01*
X115835300Y-47741200D02*
X115835300Y-49848900D01*
X115835300Y-109767600D02*
X116062000Y-109540900D01*
X115835300Y-111981200D02*
X115835300Y-109767600D01*
X115835300Y-109441200D02*
X115835300Y-107129800D01*
X115835300Y-98848900D02*
X115760500Y-98923700D01*
X115835300Y-96741200D02*
X115835300Y-98848900D01*
X113295300Y-60720600D02*
X113280700Y-60706000D01*
X113295300Y-62981200D02*
X113295300Y-60720600D01*
X113295300Y-60441200D02*
X113295300Y-58176800D01*
X113295300Y-49937800D02*
X113131600Y-50101500D01*
X113295300Y-47741200D02*
X113295300Y-49937800D01*
X113295300Y-109720600D02*
X113280700Y-109706000D01*
X113295300Y-111981200D02*
X113295300Y-109720600D01*
X113295300Y-109441200D02*
X113295300Y-107176800D01*
X113295300Y-98937800D02*
X113131600Y-99101500D01*
X113295300Y-96741200D02*
X113295300Y-98937800D01*
X110755300Y-60831100D02*
X111159800Y-60426600D01*
X110755300Y-62981200D02*
X110755300Y-60831100D01*
X110755300Y-49808000D02*
X110845600Y-49898300D01*
X110755300Y-47741200D02*
X110755300Y-49808000D01*
X110755300Y-109831100D02*
X111159800Y-109426600D01*
X110755300Y-111981200D02*
X110755300Y-109831100D01*
X110755300Y-98808000D02*
X110845600Y-98898300D01*
X110755300Y-96741200D02*
X110755300Y-98808000D01*
X120915300Y-63371100D02*
X120951500Y-63334900D01*
X120915300Y-65521200D02*
X120915300Y-63371100D01*
X120915300Y-112371100D02*
X120951500Y-112334900D01*
X120915300Y-114521200D02*
X120915300Y-112371100D01*
X115835300Y-63726700D02*
X116150900Y-63411100D01*
X115835300Y-65521200D02*
X115835300Y-63726700D01*
X115835300Y-112726700D02*
X116150900Y-112411100D01*
X115835300Y-114521200D02*
X115835300Y-112726700D01*
X113295300Y-63298700D02*
X113255300Y-63258700D01*
X113295300Y-65521200D02*
X113295300Y-63298700D01*
X113295300Y-112298700D02*
X113255300Y-112258700D01*
X113295300Y-114521200D02*
X113295300Y-112298700D01*
X110755300Y-60441200D02*
X110755300Y-58192800D01*
X110755300Y-109441200D02*
X110755300Y-107192800D01*
X133615300Y-41857300D02*
X133575300Y-41897300D01*
X133615300Y-40121200D02*
X133615300Y-41857300D01*
X133615300Y-44528100D02*
X133816600Y-44729400D01*
X133615300Y-42661200D02*
X133615300Y-44528100D01*
X133615300Y-90857300D02*
X133575300Y-90897300D01*
X133615300Y-89121200D02*
X133615300Y-90857300D01*
X133615300Y-93528100D02*
X133816600Y-93729400D01*
X133615300Y-91661200D02*
X133615300Y-93528100D01*
X131075300Y-41857300D02*
X131035300Y-41897300D01*
X131075300Y-40121200D02*
X131075300Y-41857300D01*
X131075300Y-42661200D02*
X131075300Y-44172500D01*
X131075300Y-90857300D02*
X131035300Y-90897300D01*
X131075300Y-89121200D02*
X131075300Y-90857300D01*
X131075300Y-91661200D02*
X131075300Y-93172500D01*
X159064200Y-41236900D02*
X159064200Y-42252900D01*
X159015300Y-43394000D02*
X159064200Y-43345100D01*
X159015300Y-45201200D02*
X159015300Y-43394000D01*
X159064200Y-90236900D02*
X159064200Y-91252900D01*
X159015300Y-92394000D02*
X159064200Y-92345100D01*
X159015300Y-94201200D02*
X159015300Y-92394000D01*
X153935300Y-41997000D02*
X153920700Y-42011600D01*
X153935300Y-40121200D02*
X153935300Y-41997000D01*
X153935300Y-90997000D02*
X153920700Y-91011600D01*
X153935300Y-89121200D02*
X153935300Y-90997000D01*
X151395300Y-42187500D02*
X151266400Y-42316400D01*
X151395300Y-40121200D02*
X151395300Y-42187500D01*
X151395300Y-43394000D02*
X151444200Y-43345100D01*
X151395300Y-45201200D02*
X151395300Y-43394000D01*
X151395300Y-91187500D02*
X151266400Y-91316400D01*
X151395300Y-89121200D02*
X151395300Y-91187500D01*
X151395300Y-92394000D02*
X151444200Y-92345100D01*
X151395300Y-94201200D02*
X151395300Y-92394000D01*
X148855300Y-42191300D02*
X148980400Y-42316400D01*
X148855300Y-40121200D02*
X148855300Y-42191300D01*
X148855300Y-43533700D02*
X148980400Y-43408600D01*
X148855300Y-45201200D02*
X148855300Y-43533700D01*
X148855300Y-91191300D02*
X148980400Y-91316400D01*
X148855300Y-89121200D02*
X148855300Y-91191300D01*
X148855300Y-92533700D02*
X148980400Y-92408600D01*
X148855300Y-94201200D02*
X148855300Y-92533700D01*
X143775300Y-41835700D02*
X143836900Y-41897300D01*
X143775300Y-40121200D02*
X143775300Y-41835700D01*
X143775300Y-42661200D02*
X143775300Y-44185200D01*
X143775300Y-90835700D02*
X143836900Y-90897300D01*
X143775300Y-89121200D02*
X143775300Y-90835700D01*
X143775300Y-91661200D02*
X143775300Y-93185200D01*
X141235300Y-41772200D02*
X141423900Y-41960800D01*
X141235300Y-40121200D02*
X141235300Y-41772200D01*
X141235300Y-42661200D02*
X141235300Y-44893100D01*
X141235300Y-90772200D02*
X141423900Y-90960800D01*
X141235300Y-89121200D02*
X141235300Y-90772200D01*
X141235300Y-91661200D02*
X141235300Y-93893100D01*
X138695300Y-41823000D02*
X138833100Y-41960800D01*
X138695300Y-40121200D02*
X138695300Y-41823000D01*
X138695300Y-42661200D02*
X138695300Y-44743500D01*
X138695300Y-90823000D02*
X138833100Y-90960800D01*
X138695300Y-89121200D02*
X138695300Y-90823000D01*
X138695300Y-91661200D02*
X138695300Y-93743500D01*
X136155300Y-42419900D02*
X136178800Y-42443400D01*
X136155300Y-40121200D02*
X136155300Y-42419900D01*
X136155300Y-42661200D02*
X136155300Y-44639100D01*
X136155300Y-91419900D02*
X136178800Y-91443400D01*
X136155300Y-89121200D02*
X136155300Y-91419900D01*
X136155300Y-91661200D02*
X136155300Y-93639100D01*
X159015300Y-60530100D02*
X159013400Y-60528200D01*
X159015300Y-62981200D02*
X159015300Y-60530100D01*
X159015300Y-60441200D02*
X159015300Y-57926600D01*
X159015300Y-49846100D02*
X159016700Y-49847500D01*
X159015300Y-47741200D02*
X159015300Y-49846100D01*
X159015300Y-109530100D02*
X159013400Y-109528200D01*
X159015300Y-111981200D02*
X159015300Y-109530100D01*
X159015300Y-109441200D02*
X159015300Y-106926600D01*
X159015300Y-98846100D02*
X159016700Y-98847500D01*
X159015300Y-96741200D02*
X159015300Y-98846100D01*
X156475300Y-60403100D02*
X156460700Y-60388500D01*
X156475300Y-62981200D02*
X156475300Y-60403100D01*
X156475300Y-60441200D02*
X156475300Y-57850400D01*
X156475300Y-49772700D02*
X156197300Y-50050700D01*
X156475300Y-47741200D02*
X156475300Y-49772700D01*
X156475300Y-109403100D02*
X156460700Y-109388500D01*
X156475300Y-111981200D02*
X156475300Y-109403100D01*
X156475300Y-109441200D02*
X156475300Y-106850400D01*
X156475300Y-98772700D02*
X156197300Y-99050700D01*
X156475300Y-96741200D02*
X156475300Y-98772700D01*
X153935300Y-60640600D02*
X153996900Y-60579000D01*
X153935300Y-62981200D02*
X153935300Y-60640600D01*
X153935300Y-60441200D02*
X153935300Y-57910100D01*
X153935300Y-49607600D02*
X153835100Y-49707800D01*
X153935300Y-47741200D02*
X153935300Y-49607600D01*
X153935300Y-109640600D02*
X153996900Y-109579000D01*
X153935300Y-111981200D02*
X153935300Y-109640600D01*
X153935300Y-109441200D02*
X153935300Y-106910100D01*
X153935300Y-98607600D02*
X153835100Y-98707800D01*
X153935300Y-96741200D02*
X153935300Y-98607600D01*
X151395300Y-60488200D02*
X151444200Y-60439300D01*
X151395300Y-62981200D02*
X151395300Y-60488200D01*
X151395300Y-60441200D02*
X151395300Y-57846600D01*
X151395300Y-49709200D02*
X151257000Y-49847500D01*
X151395300Y-47741200D02*
X151395300Y-49709200D01*
X151395300Y-109488200D02*
X151444200Y-109439300D01*
X151395300Y-111981200D02*
X151395300Y-109488200D01*
X151395300Y-109441200D02*
X151395300Y-106846600D01*
X151395300Y-98709200D02*
X151257000Y-98847500D01*
X151395300Y-96741200D02*
X151395300Y-98709200D01*
X148855300Y-60424700D02*
X148891500Y-60388500D01*
X148855300Y-62981200D02*
X148855300Y-60424700D01*
X148855300Y-60441200D02*
X148855300Y-57973600D01*
X148855300Y-49734600D02*
X148666200Y-49923700D01*
X148855300Y-47741200D02*
X148855300Y-49734600D01*
X148855300Y-109424700D02*
X148891500Y-109388500D01*
X148855300Y-111981200D02*
X148855300Y-109424700D01*
X148855300Y-109441200D02*
X148855300Y-106973600D01*
X148855300Y-98734600D02*
X148666200Y-98923700D01*
X148855300Y-96741200D02*
X148855300Y-98734600D01*
X146315300Y-60593600D02*
X146161000Y-60439300D01*
X146315300Y-62981200D02*
X146315300Y-60593600D01*
X146315300Y-60441200D02*
X146315300Y-57910100D01*
X146315300Y-50023900D02*
X146392900Y-50101500D01*
X146315300Y-47741200D02*
X146315300Y-50023900D01*
X146315300Y-109593600D02*
X146161000Y-109439300D01*
X146315300Y-111981200D02*
X146315300Y-109593600D01*
X146315300Y-109441200D02*
X146315300Y-106910100D01*
X146315300Y-99023900D02*
X146392900Y-99101500D01*
X146315300Y-96741200D02*
X146315300Y-99023900D01*
X143775300Y-60517400D02*
X143748000Y-60490100D01*
X143775300Y-62981200D02*
X143775300Y-60517400D01*
X143775300Y-60441200D02*
X143775300Y-57913900D01*
X143775300Y-49836200D02*
X143738600Y-49872900D01*
X143775300Y-47741200D02*
X143775300Y-49836200D01*
X143775300Y-109517400D02*
X143748000Y-109490100D01*
X143775300Y-111981200D02*
X143775300Y-109517400D01*
X143775300Y-109441200D02*
X143775300Y-106913900D01*
X143775300Y-98836200D02*
X143738600Y-98872900D01*
X143775300Y-96741200D02*
X143775300Y-98836200D01*
X141235300Y-60580900D02*
X141144500Y-60490100D01*
X141235300Y-62981200D02*
X141235300Y-60580900D01*
X141235300Y-60441200D02*
X141235300Y-57926600D01*
X141235300Y-49760000D02*
X141097000Y-49898300D01*
X141235300Y-47741200D02*
X141235300Y-49760000D01*
X141235300Y-109580900D02*
X141144500Y-109490100D01*
X141235300Y-111981200D02*
X141235300Y-109580900D01*
X141235300Y-109441200D02*
X141235300Y-106926600D01*
X141235300Y-98760000D02*
X141097000Y-98898300D01*
X141235300Y-96741200D02*
X141235300Y-98760000D01*
X138695300Y-60365000D02*
X138680700Y-60350400D01*
X138695300Y-62981200D02*
X138695300Y-60365000D01*
X138695300Y-60441200D02*
X138695300Y-57952000D01*
X138695300Y-49683800D02*
X138645900Y-49733200D01*
X138695300Y-47741200D02*
X138695300Y-49683800D01*
X138695300Y-109365000D02*
X138680700Y-109350400D01*
X138695300Y-111981200D02*
X138695300Y-109365000D01*
X138695300Y-109441200D02*
X138695300Y-106952000D01*
X138695300Y-98683800D02*
X138645900Y-98733200D01*
X138695300Y-96741200D02*
X138695300Y-98683800D01*
X136155300Y-60412000D02*
X136216900Y-60350400D01*
X136155300Y-62981200D02*
X136155300Y-60412000D01*
X136155300Y-60441200D02*
X136155300Y-57859300D01*
X136155300Y-49592100D02*
X136194800Y-49631600D01*
X136155300Y-47741200D02*
X136155300Y-49592100D01*
X136155300Y-109412000D02*
X136216900Y-109350400D01*
X136155300Y-111981200D02*
X136155300Y-109412000D01*
X136155300Y-109441200D02*
X136155300Y-106859300D01*
X136155300Y-98592100D02*
X136194800Y-98631600D01*
X136155300Y-96741200D02*
X136155300Y-98592100D01*
X133615300Y-60352300D02*
X133613400Y-60350400D01*
X133615300Y-62981200D02*
X133615300Y-60352300D01*
X133615300Y-60441200D02*
X133615300Y-57964700D01*
X133615300Y-49620300D02*
X133464300Y-49771300D01*
X133615300Y-47741200D02*
X133615300Y-49620300D01*
X133615300Y-109352300D02*
X133613400Y-109350400D01*
X133615300Y-111981200D02*
X133615300Y-109352300D01*
X133615300Y-109441200D02*
X133615300Y-106964700D01*
X133615300Y-98620300D02*
X133464300Y-98771300D01*
X133615300Y-96741200D02*
X133615300Y-98620300D01*
X131075300Y-60504700D02*
X131060700Y-60490100D01*
X131075300Y-62981200D02*
X131075300Y-60504700D01*
X131075300Y-60441200D02*
X131075300Y-57901200D01*
X131075300Y-49833400D02*
X131191000Y-49949100D01*
X131075300Y-47741200D02*
X131075300Y-49833400D01*
X131075300Y-109504700D02*
X131060700Y-109490100D01*
X131075300Y-111981200D02*
X131075300Y-109504700D01*
X131075300Y-109441200D02*
X131075300Y-106901200D01*
X131075300Y-98833400D02*
X131191000Y-98949100D01*
X131075300Y-96741200D02*
X131075300Y-98833400D01*
X159015300Y-62943100D02*
X159013400Y-62941200D01*
X159015300Y-65521200D02*
X159015300Y-62943100D01*
X159015300Y-111943100D02*
X159013400Y-111941200D01*
X159015300Y-114521200D02*
X159015300Y-111943100D01*
X156475300Y-63133600D02*
X156422600Y-63080900D01*
X156475300Y-65521200D02*
X156475300Y-63133600D01*
X156475300Y-112133600D02*
X156422600Y-112080900D01*
X156475300Y-114521200D02*
X156475300Y-112133600D01*
X153935300Y-63104400D02*
X153996900Y-63042800D01*
X153935300Y-65521200D02*
X153935300Y-63104400D01*
X153935300Y-112104400D02*
X153996900Y-112042800D01*
X153935300Y-114521200D02*
X153935300Y-112104400D01*
X151395300Y-62981200D02*
X151355300Y-62941200D01*
X151395300Y-65521200D02*
X151395300Y-62981200D01*
X151395300Y-111981200D02*
X151355300Y-111941200D01*
X151395300Y-114521200D02*
X151395300Y-111981200D01*
X148855300Y-62939300D02*
X148891500Y-62903100D01*
X148855300Y-65521200D02*
X148855300Y-62939300D01*
X148855300Y-111939300D02*
X148891500Y-111903100D01*
X148855300Y-114521200D02*
X148855300Y-111939300D01*
X146315300Y-63015500D02*
X146389600Y-62941200D01*
X146315300Y-65521200D02*
X146315300Y-63015500D01*
X146315300Y-112015500D02*
X146389600Y-111941200D01*
X146315300Y-114521200D02*
X146315300Y-112015500D01*
X159015300Y-68061200D02*
X159015300Y-65555500D01*
X159015300Y-117061200D02*
X159015300Y-114555500D01*
X156475300Y-68061200D02*
X156475300Y-65403100D01*
X156475300Y-117061200D02*
X156475300Y-114403100D01*
X153935300Y-68061200D02*
X153935300Y-65568200D01*
X153935300Y-117061200D02*
X153935300Y-114568200D01*
X151395300Y-68061200D02*
X151395300Y-65517400D01*
X151395300Y-117061200D02*
X151395300Y-114517400D01*
X148855300Y-68061200D02*
X148855300Y-65441200D01*
X148855300Y-117061200D02*
X148855300Y-114441200D01*
X146315300Y-68061200D02*
X146315300Y-65479300D01*
X146315300Y-117061200D02*
X146315300Y-114479300D01*
X143775300Y-68061200D02*
X143775300Y-65606300D01*
X143875000Y-65506600D02*
X143875000Y-62941200D01*
X143775300Y-65606300D02*
X143875000Y-65506600D01*
X143775300Y-117061200D02*
X143775300Y-114606300D01*
X143875000Y-114506600D02*
X143875000Y-111941200D01*
X143775300Y-114606300D02*
X143875000Y-114506600D01*
X120915300Y-68061200D02*
X120915300Y-65902200D01*
X120915300Y-117061200D02*
X120915300Y-114902200D01*
X118375300Y-68061200D02*
X118375300Y-66000000D01*
X118373400Y-65998100D02*
X118373400Y-62941200D01*
X118375300Y-66000000D02*
X118373400Y-65998100D01*
X118375300Y-117061200D02*
X118375300Y-115000000D01*
X118373400Y-114998100D02*
X118373400Y-111941200D01*
X118375300Y-115000000D02*
X118373400Y-114998100D01*
X115835300Y-68061200D02*
X115835300Y-65873000D01*
X115835300Y-117061200D02*
X115835300Y-114873000D01*
X110755300Y-71350500D02*
X110740700Y-71335900D01*
X110755300Y-73141200D02*
X110755300Y-71350500D01*
X110755300Y-70601200D02*
X110755300Y-68315200D01*
X110755300Y-68315200D02*
X110905800Y-68164700D01*
X110905800Y-63106300D02*
X111096300Y-62915800D01*
X110905800Y-68164700D02*
X110905800Y-63106300D01*
X110755300Y-117315200D02*
X110905800Y-117164700D01*
X110905800Y-112106300D02*
X111096300Y-111915800D01*
X110905800Y-117164700D02*
X110905800Y-112106300D01*
X110755300Y-120350500D02*
X110740700Y-120335900D01*
X110755300Y-122141200D02*
X110755300Y-120350500D01*
X110755300Y-119601200D02*
X110755300Y-117315200D01*
X159015300Y-71363200D02*
X158861000Y-71208900D01*
X159015300Y-73141200D02*
X159015300Y-71363200D01*
X159015300Y-70601200D02*
X159015300Y-68061200D01*
X159015300Y-120363200D02*
X158861000Y-120208900D01*
X159015300Y-122141200D02*
X159015300Y-120363200D01*
X159015300Y-119601200D02*
X159015300Y-117061200D01*
X156475300Y-70601200D02*
X156475300Y-68010400D01*
X156475300Y-71198100D02*
X156448000Y-71170800D01*
X156475300Y-73141200D02*
X156475300Y-71198100D01*
X156475300Y-119601200D02*
X156475300Y-117010400D01*
X156475300Y-120198100D02*
X156448000Y-120170800D01*
X156475300Y-122141200D02*
X156475300Y-120198100D01*
X153935300Y-71299700D02*
X153908000Y-71272400D01*
X153935300Y-73141200D02*
X153935300Y-71299700D01*
X153935300Y-70601200D02*
X153935300Y-68032000D01*
X153935300Y-120299700D02*
X153908000Y-120272400D01*
X153935300Y-122141200D02*
X153935300Y-120299700D01*
X153935300Y-119601200D02*
X153935300Y-117032000D01*
X151395300Y-70601200D02*
X151395300Y-72045200D01*
X151395300Y-70601200D02*
X151395300Y-68108200D01*
X151395300Y-119601200D02*
X151395300Y-121045200D01*
X151395300Y-119601200D02*
X151395300Y-117108200D01*
X148855300Y-70601200D02*
X148855300Y-68061200D01*
X148855300Y-71257800D02*
X148878800Y-71234300D01*
X148855300Y-73141200D02*
X148855300Y-71257800D01*
X148855300Y-119601200D02*
X148855300Y-117061200D01*
X148855300Y-120257800D02*
X148878800Y-120234300D01*
X148855300Y-122141200D02*
X148855300Y-120257800D01*
X146315300Y-70601200D02*
X146315300Y-68175500D01*
X146315300Y-71109200D02*
X146288000Y-71081900D01*
X146315300Y-73141200D02*
X146315300Y-71109200D01*
X146315300Y-119601200D02*
X146315300Y-117175500D01*
X146315300Y-120109200D02*
X146288000Y-120081900D01*
X146315300Y-122141200D02*
X146315300Y-120109200D01*
X143775300Y-70601200D02*
X143775300Y-68159000D01*
X143775300Y-71461000D02*
X143938500Y-71297800D01*
X143775300Y-73141200D02*
X143775300Y-71461000D01*
X143775300Y-119601200D02*
X143775300Y-117159000D01*
X143775300Y-120461000D02*
X143938500Y-120297800D01*
X143775300Y-122141200D02*
X143775300Y-120461000D01*
X141235300Y-70601200D02*
X141235300Y-67921500D01*
X141235300Y-67921500D02*
X141195300Y-67881500D01*
X141195300Y-63131700D02*
X141144500Y-63080900D01*
X141195300Y-67881500D02*
X141195300Y-63131700D01*
X141235300Y-119601200D02*
X141235300Y-116921500D01*
X141235300Y-116921500D02*
X141195300Y-116881500D01*
X141195300Y-112131700D02*
X141144500Y-112080900D01*
X141195300Y-116881500D02*
X141195300Y-112131700D01*
X138695300Y-70601200D02*
X138695300Y-68095500D01*
X138695300Y-68095500D02*
X138769600Y-68021200D01*
X138769600Y-62979300D02*
X138731500Y-62941200D01*
X138769600Y-68021200D02*
X138769600Y-62979300D01*
X138695300Y-71287000D02*
X138680700Y-71272400D01*
X138695300Y-73141200D02*
X138695300Y-71287000D01*
X138695300Y-119601200D02*
X138695300Y-117095500D01*
X138695300Y-117095500D02*
X138769600Y-117021200D01*
X138769600Y-111979300D02*
X138731500Y-111941200D01*
X138769600Y-117021200D02*
X138769600Y-111979300D01*
X138695300Y-120287000D02*
X138680700Y-120272400D01*
X138695300Y-122141200D02*
X138695300Y-120287000D01*
X136155300Y-71346700D02*
X136166100Y-71335900D01*
X136155300Y-73141200D02*
X136155300Y-71346700D01*
X136155300Y-70601200D02*
X136155300Y-68032000D01*
X136155300Y-68032000D02*
X136178800Y-68008500D01*
X136178800Y-63119000D02*
X136216900Y-63080900D01*
X136178800Y-68008500D02*
X136178800Y-63119000D01*
X136155300Y-120346700D02*
X136166100Y-120335900D01*
X136155300Y-122141200D02*
X136155300Y-120346700D01*
X136155300Y-119601200D02*
X136155300Y-117032000D01*
X136155300Y-117032000D02*
X136178800Y-117008500D01*
X136178800Y-112119000D02*
X136216900Y-112080900D01*
X136178800Y-117008500D02*
X136178800Y-112119000D01*
X133615300Y-70601200D02*
X133615300Y-72112500D01*
X133615300Y-70601200D02*
X133615300Y-68150100D01*
X133615300Y-68150100D02*
X133575300Y-68110100D01*
X133575300Y-68110100D02*
X133575300Y-63169800D01*
X133615300Y-119601200D02*
X133615300Y-121112500D01*
X133615300Y-119601200D02*
X133615300Y-117150100D01*
X133615300Y-117150100D02*
X133575300Y-117110100D01*
X133575300Y-117110100D02*
X133575300Y-112169800D01*
X131075300Y-70931400D02*
X131009900Y-70866000D01*
X131075300Y-73141200D02*
X131075300Y-70931400D01*
X131075300Y-70601200D02*
X131075300Y-68023100D01*
X131075300Y-68023100D02*
X131009900Y-67957700D01*
X131009900Y-63030100D02*
X130971800Y-62992000D01*
X131009900Y-67957700D02*
X131009900Y-63030100D01*
X131075300Y-119931400D02*
X131009900Y-119866000D01*
X131075300Y-122141200D02*
X131075300Y-119931400D01*
X131075300Y-119601200D02*
X131075300Y-117023100D01*
X131075300Y-117023100D02*
X131009900Y-116957700D01*
X131009900Y-112030100D02*
X130971800Y-111992000D01*
X131009900Y-116957700D02*
X131009900Y-112030100D01*
X128535300Y-71346700D02*
X128546100Y-71335900D01*
X128535300Y-73141200D02*
X128535300Y-71346700D01*
X128535300Y-70601200D02*
X128535300Y-68197100D01*
X128535300Y-68197100D02*
X128508000Y-68169800D01*
X128508000Y-63030100D02*
X128546100Y-62992000D01*
X128508000Y-68169800D02*
X128508000Y-63030100D01*
X128535300Y-120346700D02*
X128546100Y-120335900D01*
X128535300Y-122141200D02*
X128535300Y-120346700D01*
X128535300Y-119601200D02*
X128535300Y-117197100D01*
X128535300Y-117197100D02*
X128508000Y-117169800D01*
X128508000Y-112030100D02*
X128546100Y-111992000D01*
X128508000Y-117169800D02*
X128508000Y-112030100D01*
X125995300Y-70601200D02*
X125995300Y-68044700D01*
X125995300Y-68044700D02*
X125993400Y-68042800D01*
X125993400Y-63093600D02*
X126044200Y-63042800D01*
X125993400Y-68042800D02*
X125993400Y-63093600D01*
X125995300Y-71410200D02*
X126044200Y-71361300D01*
X125995300Y-73141200D02*
X125995300Y-71410200D01*
X125995300Y-119601200D02*
X125995300Y-117044700D01*
X125995300Y-117044700D02*
X125993400Y-117042800D01*
X125993400Y-112093600D02*
X126044200Y-112042800D01*
X125993400Y-117042800D02*
X125993400Y-112093600D01*
X125995300Y-120410200D02*
X126044200Y-120361300D01*
X125995300Y-122141200D02*
X125995300Y-120410200D01*
X123455300Y-71486400D02*
X123605800Y-71335900D01*
X123455300Y-73141200D02*
X123455300Y-71486400D01*
X123455300Y-70601200D02*
X123455300Y-68213600D01*
X123455300Y-68213600D02*
X123491500Y-68177400D01*
X123491500Y-62953900D02*
X123440700Y-62903100D01*
X123491500Y-68177400D02*
X123491500Y-62953900D01*
X123455300Y-120486400D02*
X123605800Y-120335900D01*
X123455300Y-122141200D02*
X123455300Y-120486400D01*
X123455300Y-119601200D02*
X123455300Y-117213600D01*
X123455300Y-117213600D02*
X123491500Y-117177400D01*
X123491500Y-111953900D02*
X123440700Y-111903100D01*
X123491500Y-117177400D02*
X123491500Y-111953900D01*
X120915300Y-72087100D02*
X121002300Y-72174100D01*
X120915300Y-70601200D02*
X120915300Y-72087100D01*
X120915300Y-70601200D02*
X120915300Y-69026400D01*
X120915300Y-69026400D02*
X120915300Y-68489200D01*
X120915300Y-121087100D02*
X121002300Y-121174100D01*
X120915300Y-119601200D02*
X120915300Y-121087100D01*
X120915300Y-119601200D02*
X120915300Y-118026400D01*
X120915300Y-118026400D02*
X120915300Y-117489200D01*
X118375300Y-70601200D02*
X118375300Y-68209800D01*
X118375300Y-71287000D02*
X118322600Y-71234300D01*
X118375300Y-73141200D02*
X118375300Y-71287000D01*
X118375300Y-119601200D02*
X118375300Y-117209800D01*
X118375300Y-120287000D02*
X118322600Y-120234300D01*
X118375300Y-122141200D02*
X118375300Y-120287000D01*
X115835300Y-71426700D02*
X115808000Y-71399400D01*
X115835300Y-73141200D02*
X115835300Y-71426700D01*
X115835300Y-70601200D02*
X115835300Y-68489200D01*
X115835300Y-120426700D02*
X115808000Y-120399400D01*
X115835300Y-122141200D02*
X115835300Y-120426700D01*
X115835300Y-119601200D02*
X115835300Y-117489200D01*
X113295300Y-70601200D02*
X113295300Y-68429500D01*
X113295300Y-68429500D02*
X113382300Y-68342500D01*
X113382300Y-68342500D02*
X113382300Y-65900300D01*
X113295300Y-71287000D02*
X113242600Y-71234300D01*
X113295300Y-73141200D02*
X113295300Y-71287000D01*
X113295300Y-119601200D02*
X113295300Y-117429500D01*
X113295300Y-117429500D02*
X113382300Y-117342500D01*
X113382300Y-117342500D02*
X113382300Y-114900300D01*
X113295300Y-120287000D02*
X113242600Y-120234300D01*
X113295300Y-122141200D02*
X113295300Y-120287000D01*
D17*
G36*
X168386950Y-86893400D02*
G01*
X107603650Y-86893400D01*
X107605397Y-86871200D01*
X168385203Y-86871200D01*
X168386950Y-86893400D01*
G37*
X168386950Y-86893400D02*
X107603650Y-86893400D01*
X107605397Y-86871200D01*
X168385203Y-86871200D01*
X168386950Y-86893400D01*
G36*
X168417361Y-38279807D02*
G01*
X168433562Y-38382098D01*
X168671669Y-39373884D01*
X168703672Y-39472381D01*
X169093997Y-40414709D01*
X169117507Y-40460848D01*
X169141015Y-40506987D01*
X169673947Y-41376653D01*
X169700129Y-41412689D01*
X169734822Y-41460440D01*
X170397238Y-42236030D01*
X170470470Y-42309262D01*
X171246060Y-42971678D01*
X171329847Y-43032553D01*
X172199513Y-43565484D01*
X172291791Y-43612503D01*
X173234119Y-44002827D01*
X173332616Y-44034831D01*
X174324402Y-44272938D01*
X174426693Y-44289139D01*
X174835300Y-44321297D01*
X174835301Y-79101103D01*
X174426693Y-79133261D01*
X174324402Y-79149462D01*
X173332616Y-79387569D01*
X173234119Y-79419573D01*
X172291791Y-79809897D01*
X172200918Y-79856200D01*
X172199513Y-79856916D01*
X171329847Y-80389847D01*
X171246060Y-80450722D01*
X170470470Y-81113138D01*
X170397238Y-81186370D01*
X169734822Y-81961960D01*
X169704385Y-82003854D01*
X169673947Y-82045747D01*
X169141015Y-82915413D01*
X169121692Y-82953338D01*
X169093997Y-83007691D01*
X168703672Y-83950019D01*
X168674237Y-84040611D01*
X168671669Y-84048516D01*
X168433562Y-85040302D01*
X168417361Y-85142593D01*
X168385203Y-85551200D01*
X107605397Y-85551200D01*
X107573239Y-85142593D01*
X107557038Y-85040302D01*
X107318931Y-84048516D01*
X107286927Y-83950019D01*
X106896603Y-83007691D01*
X106849584Y-82915413D01*
X106316653Y-82045747D01*
X106255778Y-81961960D01*
X105862014Y-81500921D01*
X110860300Y-81500921D01*
X110860300Y-81921479D01*
X110942347Y-82333956D01*
X111103288Y-82722502D01*
X111336937Y-83072183D01*
X111634317Y-83369563D01*
X111983998Y-83603212D01*
X112372544Y-83764153D01*
X112785021Y-83846200D01*
X113205579Y-83846200D01*
X113618056Y-83764153D01*
X114006602Y-83603212D01*
X114356283Y-83369563D01*
X114653663Y-83072183D01*
X114887312Y-82722502D01*
X115048253Y-82333956D01*
X115130300Y-81921479D01*
X115130300Y-81500921D01*
X115048253Y-81088444D01*
X114887312Y-80699898D01*
X114653663Y-80350217D01*
X114356283Y-80052837D01*
X114006602Y-79819188D01*
X113618056Y-79658247D01*
X113205579Y-79576200D01*
X112785021Y-79576200D01*
X112372544Y-79658247D01*
X111983998Y-79819188D01*
X111634317Y-80052837D01*
X111336937Y-80350217D01*
X111103288Y-80699898D01*
X110942347Y-81088444D01*
X110860300Y-81500921D01*
X105862014Y-81500921D01*
X105593362Y-81186370D01*
X105520130Y-81113138D01*
X104744540Y-80450722D01*
X104676084Y-80400986D01*
X104660753Y-80389847D01*
X103791087Y-79856915D01*
X103744948Y-79833407D01*
X103698809Y-79809897D01*
X102756481Y-79419572D01*
X102657984Y-79387569D01*
X101666198Y-79149462D01*
X101563907Y-79133261D01*
X101155300Y-79101103D01*
X101155300Y-61500921D01*
X103860300Y-61500921D01*
X103860300Y-61921479D01*
X103942347Y-62333956D01*
X104103288Y-62722502D01*
X104336937Y-63072183D01*
X104634317Y-63369563D01*
X104983998Y-63603212D01*
X105372544Y-63764153D01*
X105785021Y-63846200D01*
X106205579Y-63846200D01*
X106618056Y-63764153D01*
X107006602Y-63603212D01*
X107356283Y-63369563D01*
X107653663Y-63072183D01*
X107887312Y-62722502D01*
X108048253Y-62333956D01*
X108130300Y-61921479D01*
X108130300Y-61500921D01*
X108048253Y-61088444D01*
X107887312Y-60699898D01*
X107653663Y-60350217D01*
X107356283Y-60052837D01*
X107006602Y-59819188D01*
X106618056Y-59658247D01*
X106205579Y-59576200D01*
X105785021Y-59576200D01*
X105372544Y-59658247D01*
X104983998Y-59819188D01*
X104634317Y-60052837D01*
X104336937Y-60350217D01*
X104103288Y-60699898D01*
X103942347Y-61088444D01*
X103860300Y-61500921D01*
X101155300Y-61500921D01*
X101155300Y-44321297D01*
X101563907Y-44289139D01*
X101666198Y-44272938D01*
X102657984Y-44034831D01*
X102660415Y-44034041D01*
X102756481Y-44002828D01*
X103698809Y-43612503D01*
X103744948Y-43588993D01*
X103791087Y-43565485D01*
X104660753Y-43032553D01*
X104702646Y-43002116D01*
X104744540Y-42971678D01*
X105520130Y-42309262D01*
X105593363Y-42236029D01*
X106255778Y-41460440D01*
X106316653Y-41376653D01*
X106316654Y-41376652D01*
X106849584Y-40506987D01*
X106896603Y-40414709D01*
X107084879Y-39960167D01*
X109120300Y-39960167D01*
X109120300Y-40282233D01*
X109183132Y-40598112D01*
X109306382Y-40895663D01*
X109485313Y-41163452D01*
X109584509Y-41262648D01*
X109550806Y-41280663D01*
X109454115Y-41360015D01*
X109374763Y-41456706D01*
X109315798Y-41567020D01*
X109279488Y-41686718D01*
X109267228Y-41811200D01*
X109267228Y-43511200D01*
X109279488Y-43635682D01*
X109315798Y-43755380D01*
X109374763Y-43865694D01*
X109428522Y-43931200D01*
X109374763Y-43996706D01*
X109315798Y-44107020D01*
X109279488Y-44226718D01*
X109267228Y-44351200D01*
X109267228Y-46051200D01*
X109279488Y-46175682D01*
X109315798Y-46295380D01*
X109374763Y-46405694D01*
X109428522Y-46471200D01*
X109374763Y-46536706D01*
X109315798Y-46647020D01*
X109279488Y-46766718D01*
X109267228Y-46891200D01*
X109267228Y-48591200D01*
X109279488Y-48715682D01*
X109315798Y-48835380D01*
X109374763Y-48945694D01*
X109454115Y-49042385D01*
X109550806Y-49121737D01*
X109584509Y-49139752D01*
X109485313Y-49238948D01*
X109306382Y-49506737D01*
X109183132Y-49804288D01*
X109120300Y-50120167D01*
X109120300Y-50442233D01*
X109183132Y-50758112D01*
X109306382Y-51055663D01*
X109485313Y-51323452D01*
X109713048Y-51551187D01*
X109713067Y-51551200D01*
X109713048Y-51551213D01*
X109485313Y-51778948D01*
X109306382Y-52046737D01*
X109183132Y-52344288D01*
X109120300Y-52660167D01*
X109120300Y-52982233D01*
X109183132Y-53298112D01*
X109306382Y-53595663D01*
X109485313Y-53863452D01*
X109713048Y-54091187D01*
X109713067Y-54091200D01*
X109713048Y-54091213D01*
X109485313Y-54318948D01*
X109306382Y-54586737D01*
X109183132Y-54884288D01*
X109120300Y-55200167D01*
X109120300Y-55522233D01*
X109183132Y-55838112D01*
X109306382Y-56135663D01*
X109485313Y-56403452D01*
X109584509Y-56502648D01*
X109550806Y-56520663D01*
X109454115Y-56600015D01*
X109374763Y-56696706D01*
X109315798Y-56807020D01*
X109279488Y-56926718D01*
X109267228Y-57051200D01*
X109267228Y-58751200D01*
X109279488Y-58875682D01*
X109315798Y-58995380D01*
X109374763Y-59105694D01*
X109428522Y-59171200D01*
X109374763Y-59236706D01*
X109315798Y-59347020D01*
X109279488Y-59466718D01*
X109267228Y-59591200D01*
X109267228Y-61291200D01*
X109279488Y-61415682D01*
X109315798Y-61535380D01*
X109374763Y-61645694D01*
X109454115Y-61742385D01*
X109550806Y-61821737D01*
X109584509Y-61839752D01*
X109485313Y-61938948D01*
X109306382Y-62206737D01*
X109183132Y-62504288D01*
X109120300Y-62820167D01*
X109120300Y-63142233D01*
X109183132Y-63458112D01*
X109306382Y-63755663D01*
X109485313Y-64023452D01*
X109584509Y-64122648D01*
X109550806Y-64140663D01*
X109454115Y-64220015D01*
X109374763Y-64316706D01*
X109315798Y-64427020D01*
X109279488Y-64546718D01*
X109267228Y-64671200D01*
X109267228Y-66371200D01*
X109279488Y-66495682D01*
X109315798Y-66615380D01*
X109374763Y-66725694D01*
X109428522Y-66791200D01*
X109374763Y-66856706D01*
X109315798Y-66967020D01*
X109279488Y-67086718D01*
X109267228Y-67211200D01*
X109267228Y-68911200D01*
X109279488Y-69035682D01*
X109315798Y-69155380D01*
X109374763Y-69265694D01*
X109428522Y-69331200D01*
X109374763Y-69396706D01*
X109315798Y-69507020D01*
X109279488Y-69626718D01*
X109267228Y-69751200D01*
X109267228Y-71451200D01*
X109279488Y-71575682D01*
X109315798Y-71695380D01*
X109374763Y-71805694D01*
X109454115Y-71902385D01*
X109550806Y-71981737D01*
X109584509Y-71999752D01*
X109485313Y-72098948D01*
X109306382Y-72366737D01*
X109183132Y-72664288D01*
X109120300Y-72980167D01*
X109120300Y-73302233D01*
X109183132Y-73618112D01*
X109306382Y-73915663D01*
X109485313Y-74183452D01*
X109713048Y-74411187D01*
X109713067Y-74411200D01*
X109713048Y-74411213D01*
X109485313Y-74638948D01*
X109306382Y-74906737D01*
X109183132Y-75204288D01*
X109120300Y-75520167D01*
X109120300Y-75842233D01*
X109183132Y-76158112D01*
X109306382Y-76455663D01*
X109485313Y-76723452D01*
X109713048Y-76951187D01*
X109980837Y-77130118D01*
X110278388Y-77253368D01*
X110594267Y-77316200D01*
X110916333Y-77316200D01*
X111232212Y-77253368D01*
X111529763Y-77130118D01*
X111797552Y-76951187D01*
X112025287Y-76723452D01*
X112025300Y-76723433D01*
X112025313Y-76723452D01*
X112253048Y-76951187D01*
X112520837Y-77130118D01*
X112818388Y-77253368D01*
X113134267Y-77316200D01*
X113456333Y-77316200D01*
X113772212Y-77253368D01*
X114069763Y-77130118D01*
X114337552Y-76951187D01*
X114565287Y-76723452D01*
X114565300Y-76723433D01*
X114565313Y-76723452D01*
X114793048Y-76951187D01*
X115060837Y-77130118D01*
X115358388Y-77253368D01*
X115674267Y-77316200D01*
X115996333Y-77316200D01*
X116312212Y-77253368D01*
X116609763Y-77130118D01*
X116877552Y-76951187D01*
X117105287Y-76723452D01*
X117105300Y-76723433D01*
X117105313Y-76723452D01*
X117333048Y-76951187D01*
X117600837Y-77130118D01*
X117898388Y-77253368D01*
X118214267Y-77316200D01*
X118536333Y-77316200D01*
X118852212Y-77253368D01*
X119149763Y-77130118D01*
X119417552Y-76951187D01*
X119645287Y-76723452D01*
X119645300Y-76723433D01*
X119645313Y-76723452D01*
X119873048Y-76951187D01*
X119873067Y-76951200D01*
X119873048Y-76951213D01*
X119645313Y-77178948D01*
X119466382Y-77446737D01*
X119343132Y-77744288D01*
X119280300Y-78060167D01*
X119280300Y-78382233D01*
X119343132Y-78698112D01*
X119466382Y-78995663D01*
X119645313Y-79263452D01*
X119873048Y-79491187D01*
X119873067Y-79491200D01*
X119873048Y-79491213D01*
X119645313Y-79718948D01*
X119466382Y-79986737D01*
X119343132Y-80284288D01*
X119280300Y-80600167D01*
X119280300Y-80922233D01*
X119343132Y-81238112D01*
X119466382Y-81535663D01*
X119645313Y-81803452D01*
X119873048Y-82031187D01*
X119873067Y-82031200D01*
X119873048Y-82031213D01*
X119645313Y-82258948D01*
X119466382Y-82526737D01*
X119343132Y-82824288D01*
X119280300Y-83140167D01*
X119280300Y-83462233D01*
X119343132Y-83778112D01*
X119466382Y-84075663D01*
X119645313Y-84343452D01*
X119873048Y-84571187D01*
X120140837Y-84750118D01*
X120438388Y-84873368D01*
X120754267Y-84936200D01*
X121076333Y-84936200D01*
X121392212Y-84873368D01*
X121689763Y-84750118D01*
X121957552Y-84571187D01*
X122185287Y-84343452D01*
X122185300Y-84343433D01*
X122185313Y-84343452D01*
X122413048Y-84571187D01*
X122680837Y-84750118D01*
X122978388Y-84873368D01*
X123294267Y-84936200D01*
X123616333Y-84936200D01*
X123932212Y-84873368D01*
X124229763Y-84750118D01*
X124497552Y-84571187D01*
X124725287Y-84343452D01*
X124725300Y-84343433D01*
X124725313Y-84343452D01*
X124953048Y-84571187D01*
X125220837Y-84750118D01*
X125518388Y-84873368D01*
X125834267Y-84936200D01*
X126156333Y-84936200D01*
X126472212Y-84873368D01*
X126769763Y-84750118D01*
X127037552Y-84571187D01*
X127265287Y-84343452D01*
X127265300Y-84343433D01*
X127265313Y-84343452D01*
X127493048Y-84571187D01*
X127760837Y-84750118D01*
X128058388Y-84873368D01*
X128374267Y-84936200D01*
X128696333Y-84936200D01*
X129012212Y-84873368D01*
X129309763Y-84750118D01*
X129577552Y-84571187D01*
X129805287Y-84343452D01*
X129805300Y-84343433D01*
X129805313Y-84343452D01*
X130033048Y-84571187D01*
X130300837Y-84750118D01*
X130598388Y-84873368D01*
X130914267Y-84936200D01*
X131236333Y-84936200D01*
X131552212Y-84873368D01*
X131849763Y-84750118D01*
X132117552Y-84571187D01*
X132345287Y-84343452D01*
X132345300Y-84343433D01*
X132345313Y-84343452D01*
X132573048Y-84571187D01*
X132840837Y-84750118D01*
X133138388Y-84873368D01*
X133454267Y-84936200D01*
X133776333Y-84936200D01*
X134092212Y-84873368D01*
X134389763Y-84750118D01*
X134657552Y-84571187D01*
X134885287Y-84343452D01*
X134885300Y-84343433D01*
X134885313Y-84343452D01*
X135113048Y-84571187D01*
X135380837Y-84750118D01*
X135678388Y-84873368D01*
X135994267Y-84936200D01*
X136316333Y-84936200D01*
X136632212Y-84873368D01*
X136929763Y-84750118D01*
X137197552Y-84571187D01*
X137425287Y-84343452D01*
X137425300Y-84343433D01*
X137425313Y-84343452D01*
X137653048Y-84571187D01*
X137920837Y-84750118D01*
X138218388Y-84873368D01*
X138534267Y-84936200D01*
X138856333Y-84936200D01*
X139172212Y-84873368D01*
X139469763Y-84750118D01*
X139737552Y-84571187D01*
X139965287Y-84343452D01*
X139965300Y-84343433D01*
X139965313Y-84343452D01*
X140193048Y-84571187D01*
X140460837Y-84750118D01*
X140758388Y-84873368D01*
X141074267Y-84936200D01*
X141396333Y-84936200D01*
X141712212Y-84873368D01*
X142009763Y-84750118D01*
X142277552Y-84571187D01*
X142505287Y-84343452D01*
X142505300Y-84343433D01*
X142505313Y-84343452D01*
X142733048Y-84571187D01*
X143000837Y-84750118D01*
X143298388Y-84873368D01*
X143614267Y-84936200D01*
X143936333Y-84936200D01*
X144252212Y-84873368D01*
X144549763Y-84750118D01*
X144817552Y-84571187D01*
X145045287Y-84343452D01*
X145045300Y-84343433D01*
X145045313Y-84343452D01*
X145273048Y-84571187D01*
X145540837Y-84750118D01*
X145838388Y-84873368D01*
X146154267Y-84936200D01*
X146476333Y-84936200D01*
X146792212Y-84873368D01*
X147089763Y-84750118D01*
X147357552Y-84571187D01*
X147585287Y-84343452D01*
X147585300Y-84343433D01*
X147585313Y-84343452D01*
X147813048Y-84571187D01*
X148080837Y-84750118D01*
X148378388Y-84873368D01*
X148694267Y-84936200D01*
X149016333Y-84936200D01*
X149332212Y-84873368D01*
X149629763Y-84750118D01*
X149897552Y-84571187D01*
X150125287Y-84343452D01*
X150125300Y-84343433D01*
X150125313Y-84343452D01*
X150353048Y-84571187D01*
X150620837Y-84750118D01*
X150918388Y-84873368D01*
X151234267Y-84936200D01*
X151556333Y-84936200D01*
X151872212Y-84873368D01*
X152169763Y-84750118D01*
X152437552Y-84571187D01*
X152665287Y-84343452D01*
X152665300Y-84343433D01*
X152665313Y-84343452D01*
X152893048Y-84571187D01*
X153160837Y-84750118D01*
X153458388Y-84873368D01*
X153774267Y-84936200D01*
X154096333Y-84936200D01*
X154412212Y-84873368D01*
X154709763Y-84750118D01*
X154977552Y-84571187D01*
X155205287Y-84343452D01*
X155205300Y-84343433D01*
X155205313Y-84343452D01*
X155433048Y-84571187D01*
X155700837Y-84750118D01*
X155998388Y-84873368D01*
X156314267Y-84936200D01*
X156636333Y-84936200D01*
X156952212Y-84873368D01*
X157249763Y-84750118D01*
X157517552Y-84571187D01*
X157745287Y-84343452D01*
X157745300Y-84343433D01*
X157745313Y-84343452D01*
X157973048Y-84571187D01*
X158240837Y-84750118D01*
X158538388Y-84873368D01*
X158854267Y-84936200D01*
X159176333Y-84936200D01*
X159492212Y-84873368D01*
X159789763Y-84750118D01*
X160057552Y-84571187D01*
X160285287Y-84343452D01*
X160464218Y-84075663D01*
X160587468Y-83778112D01*
X160650300Y-83462233D01*
X160650300Y-83140167D01*
X160587468Y-82824288D01*
X160464218Y-82526737D01*
X160285287Y-82258948D01*
X160057552Y-82031213D01*
X160057533Y-82031200D01*
X160057552Y-82031187D01*
X160285287Y-81803452D01*
X160464218Y-81535663D01*
X160478608Y-81500921D01*
X160860300Y-81500921D01*
X160860300Y-81921479D01*
X160942347Y-82333956D01*
X161103288Y-82722502D01*
X161336937Y-83072183D01*
X161634317Y-83369563D01*
X161983998Y-83603212D01*
X162372544Y-83764153D01*
X162785021Y-83846200D01*
X163205579Y-83846200D01*
X163618056Y-83764153D01*
X164006602Y-83603212D01*
X164356283Y-83369563D01*
X164653663Y-83072183D01*
X164887312Y-82722502D01*
X165048253Y-82333956D01*
X165130300Y-81921479D01*
X165130300Y-81500921D01*
X165048253Y-81088444D01*
X164887312Y-80699898D01*
X164653663Y-80350217D01*
X164356283Y-80052837D01*
X164006602Y-79819188D01*
X163618056Y-79658247D01*
X163205579Y-79576200D01*
X162785021Y-79576200D01*
X162372544Y-79658247D01*
X161983998Y-79819188D01*
X161634317Y-80052837D01*
X161336937Y-80350217D01*
X161103288Y-80699898D01*
X160942347Y-81088444D01*
X160860300Y-81500921D01*
X160478608Y-81500921D01*
X160587468Y-81238112D01*
X160650300Y-80922233D01*
X160650300Y-80600167D01*
X160587468Y-80284288D01*
X160464218Y-79986737D01*
X160285287Y-79718948D01*
X160057552Y-79491213D01*
X160057533Y-79491200D01*
X160057552Y-79491187D01*
X160285287Y-79263452D01*
X160464218Y-78995663D01*
X160587468Y-78698112D01*
X160650300Y-78382233D01*
X160650300Y-78060167D01*
X160587468Y-77744288D01*
X160464218Y-77446737D01*
X160285287Y-77178948D01*
X160057552Y-76951213D01*
X160057533Y-76951200D01*
X160057552Y-76951187D01*
X160285287Y-76723452D01*
X160464218Y-76455663D01*
X160531407Y-76293454D01*
X160780837Y-76460118D01*
X161078388Y-76583368D01*
X161394267Y-76646200D01*
X161716333Y-76646200D01*
X162032212Y-76583368D01*
X162329763Y-76460118D01*
X162597552Y-76281187D01*
X162825287Y-76053452D01*
X162930359Y-75896200D01*
X166657228Y-75896200D01*
X166657228Y-76211200D01*
X166669488Y-76335682D01*
X166705798Y-76455380D01*
X166764763Y-76565694D01*
X166844115Y-76662385D01*
X166940806Y-76741737D01*
X167051120Y-76800702D01*
X167170818Y-76837012D01*
X167295300Y-76849272D01*
X169695300Y-76849272D01*
X169819782Y-76837012D01*
X169939480Y-76800702D01*
X170049794Y-76741737D01*
X170146485Y-76662385D01*
X170225837Y-76565694D01*
X170284802Y-76455380D01*
X170321112Y-76335682D01*
X170333372Y-76211200D01*
X170333372Y-73811200D01*
X170321112Y-73686718D01*
X170284802Y-73567020D01*
X170225837Y-73456706D01*
X170146485Y-73360015D01*
X170049794Y-73280663D01*
X169939480Y-73221698D01*
X169819782Y-73185388D01*
X169695300Y-73173128D01*
X169278138Y-73173128D01*
X169364499Y-73137356D01*
X169665044Y-72936538D01*
X169920638Y-72680944D01*
X170121456Y-72380399D01*
X170259782Y-72046450D01*
X170330300Y-71691932D01*
X170330300Y-71330468D01*
X170259782Y-70975950D01*
X170121456Y-70642001D01*
X169920638Y-70341456D01*
X169665044Y-70085862D01*
X169364499Y-69885044D01*
X169065513Y-69761200D01*
X169364499Y-69637356D01*
X169665044Y-69436538D01*
X169920638Y-69180944D01*
X170121456Y-68880399D01*
X170259782Y-68546450D01*
X170330300Y-68191932D01*
X170330300Y-67830468D01*
X170259782Y-67475950D01*
X170121456Y-67142001D01*
X169920638Y-66841456D01*
X169665044Y-66585862D01*
X169364499Y-66385044D01*
X169030550Y-66246718D01*
X168676032Y-66176200D01*
X168314568Y-66176200D01*
X167960050Y-66246718D01*
X167626101Y-66385044D01*
X167325556Y-66585862D01*
X167069962Y-66841456D01*
X166879702Y-67126200D01*
X162930359Y-67126200D01*
X162825287Y-66968948D01*
X162597552Y-66741213D01*
X162329763Y-66562282D01*
X162032212Y-66439032D01*
X161716333Y-66376200D01*
X161394267Y-66376200D01*
X161078388Y-66439032D01*
X160780837Y-66562282D01*
X160513048Y-66741213D01*
X160285313Y-66968948D01*
X160178394Y-67128964D01*
X160168775Y-67114568D01*
X159961932Y-66907725D01*
X159900300Y-66866544D01*
X159900300Y-66715856D01*
X159961932Y-66674675D01*
X160168775Y-66467832D01*
X160331290Y-66224611D01*
X160443232Y-65954358D01*
X160500300Y-65667460D01*
X160500300Y-65374940D01*
X160443232Y-65088042D01*
X160331290Y-64817789D01*
X160168775Y-64574568D01*
X159961932Y-64367725D01*
X159922536Y-64341402D01*
X160057552Y-64251187D01*
X160192489Y-64116250D01*
X162139855Y-64116250D01*
X162235558Y-64380599D01*
X162525087Y-64521438D01*
X162836529Y-64603085D01*
X163157915Y-64622405D01*
X163476895Y-64578654D01*
X163781211Y-64473514D01*
X163955042Y-64380599D01*
X164050745Y-64116250D01*
X163095300Y-63160805D01*
X162139855Y-64116250D01*
X160192489Y-64116250D01*
X160285287Y-64023452D01*
X160464218Y-63755663D01*
X160587468Y-63458112D01*
X160650300Y-63142233D01*
X160650300Y-63043815D01*
X161454095Y-63043815D01*
X161497846Y-63362795D01*
X161602986Y-63667111D01*
X161695901Y-63840942D01*
X161960250Y-63936645D01*
X162915695Y-62981200D01*
X163274905Y-62981200D01*
X164230350Y-63936645D01*
X164494699Y-63840942D01*
X164635538Y-63551413D01*
X164717185Y-63239971D01*
X164736505Y-62918585D01*
X164692754Y-62599605D01*
X164587614Y-62295289D01*
X164494699Y-62121458D01*
X164230350Y-62025755D01*
X163274905Y-62981200D01*
X162915695Y-62981200D01*
X161960250Y-62025755D01*
X161695901Y-62121458D01*
X161555062Y-62410987D01*
X161473415Y-62722429D01*
X161454095Y-63043815D01*
X160650300Y-63043815D01*
X160650300Y-62820167D01*
X160587468Y-62504288D01*
X160464218Y-62206737D01*
X160285287Y-61938948D01*
X160057552Y-61711213D01*
X159922536Y-61620998D01*
X159961932Y-61594675D01*
X159980357Y-61576250D01*
X162139855Y-61576250D01*
X162188711Y-61711200D01*
X162139855Y-61846150D01*
X163095300Y-62801595D01*
X164050745Y-61846150D01*
X164001889Y-61711200D01*
X164050745Y-61576250D01*
X163975416Y-61500921D01*
X167860300Y-61500921D01*
X167860300Y-61921479D01*
X167942347Y-62333956D01*
X168103288Y-62722502D01*
X168336937Y-63072183D01*
X168634317Y-63369563D01*
X168983998Y-63603212D01*
X169372544Y-63764153D01*
X169785021Y-63846200D01*
X170205579Y-63846200D01*
X170618056Y-63764153D01*
X171006602Y-63603212D01*
X171356283Y-63369563D01*
X171653663Y-63072183D01*
X171887312Y-62722502D01*
X172048253Y-62333956D01*
X172130300Y-61921479D01*
X172130300Y-61500921D01*
X172048253Y-61088444D01*
X171887312Y-60699898D01*
X171653663Y-60350217D01*
X171356283Y-60052837D01*
X171006602Y-59819188D01*
X170618056Y-59658247D01*
X170205579Y-59576200D01*
X169785021Y-59576200D01*
X169372544Y-59658247D01*
X168983998Y-59819188D01*
X168634317Y-60052837D01*
X168336937Y-60350217D01*
X168103288Y-60699898D01*
X167942347Y-61088444D01*
X167860300Y-61500921D01*
X163975416Y-61500921D01*
X163095300Y-60620805D01*
X162139855Y-61576250D01*
X159980357Y-61576250D01*
X160168775Y-61387832D01*
X160331290Y-61144611D01*
X160443232Y-60874358D01*
X160500300Y-60587460D01*
X160500300Y-60503815D01*
X161454095Y-60503815D01*
X161497846Y-60822795D01*
X161602986Y-61127111D01*
X161695901Y-61300942D01*
X161960250Y-61396645D01*
X162915695Y-60441200D01*
X163274905Y-60441200D01*
X164230350Y-61396645D01*
X164494699Y-61300942D01*
X164635538Y-61011413D01*
X164717185Y-60699971D01*
X164736505Y-60378585D01*
X164692754Y-60059605D01*
X164587614Y-59755289D01*
X164494699Y-59581458D01*
X164230350Y-59485755D01*
X163274905Y-60441200D01*
X162915695Y-60441200D01*
X161960250Y-59485755D01*
X161695901Y-59581458D01*
X161555062Y-59870987D01*
X161473415Y-60182429D01*
X161454095Y-60503815D01*
X160500300Y-60503815D01*
X160500300Y-60294940D01*
X160443232Y-60008042D01*
X160331290Y-59737789D01*
X160168775Y-59494568D01*
X159980357Y-59306150D01*
X162139855Y-59306150D01*
X163095300Y-60261595D01*
X164050745Y-59306150D01*
X163955042Y-59041801D01*
X163665513Y-58900962D01*
X163354071Y-58819315D01*
X163032685Y-58799995D01*
X162713705Y-58843746D01*
X162409389Y-58948886D01*
X162235558Y-59041801D01*
X162139855Y-59306150D01*
X159980357Y-59306150D01*
X159961932Y-59287725D01*
X159900300Y-59246544D01*
X159900300Y-59095856D01*
X159961932Y-59054675D01*
X160168775Y-58847832D01*
X160331290Y-58604611D01*
X160443232Y-58334358D01*
X160500300Y-58047460D01*
X160500300Y-57754940D01*
X160443232Y-57468042D01*
X160331290Y-57197789D01*
X160168775Y-56954568D01*
X159961932Y-56747725D01*
X159922536Y-56721402D01*
X160057552Y-56631187D01*
X160265275Y-56423464D01*
X160285313Y-56453452D01*
X160513048Y-56681187D01*
X160780837Y-56860118D01*
X161078388Y-56983368D01*
X161394267Y-57046200D01*
X161716333Y-57046200D01*
X162032212Y-56983368D01*
X162329763Y-56860118D01*
X162597552Y-56681187D01*
X162825287Y-56453452D01*
X162930359Y-56296200D01*
X166657228Y-56296200D01*
X166657228Y-56611200D01*
X166669488Y-56735682D01*
X166705798Y-56855380D01*
X166764763Y-56965694D01*
X166844115Y-57062385D01*
X166940806Y-57141737D01*
X167051120Y-57200702D01*
X167170818Y-57237012D01*
X167295300Y-57249272D01*
X169695300Y-57249272D01*
X169819782Y-57237012D01*
X169939480Y-57200702D01*
X170049794Y-57141737D01*
X170146485Y-57062385D01*
X170225837Y-56965694D01*
X170284802Y-56855380D01*
X170321112Y-56735682D01*
X170333372Y-56611200D01*
X170333372Y-54211200D01*
X170321112Y-54086718D01*
X170284802Y-53967020D01*
X170225837Y-53856706D01*
X170146485Y-53760015D01*
X170049794Y-53680663D01*
X169939480Y-53621698D01*
X169819782Y-53585388D01*
X169695300Y-53573128D01*
X169278138Y-53573128D01*
X169364499Y-53537356D01*
X169665044Y-53336538D01*
X169920638Y-53080944D01*
X170121456Y-52780399D01*
X170259782Y-52446450D01*
X170330300Y-52091932D01*
X170330300Y-51730468D01*
X170259782Y-51375950D01*
X170121456Y-51042001D01*
X169920638Y-50741456D01*
X169665044Y-50485862D01*
X169364499Y-50285044D01*
X169065513Y-50161200D01*
X169364499Y-50037356D01*
X169665044Y-49836538D01*
X169920638Y-49580944D01*
X170121456Y-49280399D01*
X170259782Y-48946450D01*
X170330300Y-48591932D01*
X170330300Y-48230468D01*
X170259782Y-47875950D01*
X170121456Y-47542001D01*
X169920638Y-47241456D01*
X169665044Y-46985862D01*
X169364499Y-46785044D01*
X169030550Y-46646718D01*
X168676032Y-46576200D01*
X168314568Y-46576200D01*
X167960050Y-46646718D01*
X167626101Y-46785044D01*
X167325556Y-46985862D01*
X167069962Y-47241456D01*
X166879702Y-47526200D01*
X162930359Y-47526200D01*
X162825287Y-47368948D01*
X162597552Y-47141213D01*
X162329763Y-46962282D01*
X162032212Y-46839032D01*
X161716333Y-46776200D01*
X161394267Y-46776200D01*
X161078388Y-46839032D01*
X160780837Y-46962282D01*
X160513048Y-47141213D01*
X160414818Y-47239443D01*
X160331290Y-47037789D01*
X160168775Y-46794568D01*
X159961932Y-46587725D01*
X159787540Y-46471200D01*
X159961932Y-46354675D01*
X160168775Y-46147832D01*
X160331290Y-45904611D01*
X160443232Y-45634358D01*
X160500300Y-45347460D01*
X160500300Y-45054940D01*
X160443232Y-44768042D01*
X160331290Y-44497789D01*
X160168775Y-44254568D01*
X159961932Y-44047725D01*
X159900300Y-44006544D01*
X159900300Y-43855856D01*
X159961932Y-43814675D01*
X160168775Y-43607832D01*
X160331290Y-43364611D01*
X160443232Y-43094358D01*
X160500300Y-42807460D01*
X160500300Y-42514940D01*
X160443232Y-42228042D01*
X160331290Y-41957789D01*
X160168775Y-41714568D01*
X159961932Y-41507725D01*
X159951749Y-41500921D01*
X160860300Y-41500921D01*
X160860300Y-41921479D01*
X160942347Y-42333956D01*
X161103288Y-42722502D01*
X161336937Y-43072183D01*
X161634317Y-43369563D01*
X161983998Y-43603212D01*
X162372544Y-43764153D01*
X162785021Y-43846200D01*
X163205579Y-43846200D01*
X163618056Y-43764153D01*
X164006602Y-43603212D01*
X164356283Y-43369563D01*
X164653663Y-43072183D01*
X164887312Y-42722502D01*
X165048253Y-42333956D01*
X165130300Y-41921479D01*
X165130300Y-41500921D01*
X165048253Y-41088444D01*
X164887312Y-40699898D01*
X164653663Y-40350217D01*
X164356283Y-40052837D01*
X164006602Y-39819188D01*
X163618056Y-39658247D01*
X163205579Y-39576200D01*
X162785021Y-39576200D01*
X162372544Y-39658247D01*
X161983998Y-39819188D01*
X161634317Y-40052837D01*
X161336937Y-40350217D01*
X161103288Y-40699898D01*
X160942347Y-41088444D01*
X160860300Y-41500921D01*
X159951749Y-41500921D01*
X159949200Y-41499218D01*
X159949200Y-41463586D01*
X160057552Y-41391187D01*
X160285287Y-41163452D01*
X160464218Y-40895663D01*
X160587468Y-40598112D01*
X160650300Y-40282233D01*
X160650300Y-39960167D01*
X160587468Y-39644288D01*
X160464218Y-39346737D01*
X160285287Y-39078948D01*
X160057552Y-38851213D01*
X159789763Y-38672282D01*
X159492212Y-38549032D01*
X159176333Y-38486200D01*
X158854267Y-38486200D01*
X158538388Y-38549032D01*
X158240837Y-38672282D01*
X157973048Y-38851213D01*
X157745313Y-39078948D01*
X157745300Y-39078967D01*
X157745287Y-39078948D01*
X157517552Y-38851213D01*
X157249763Y-38672282D01*
X156952212Y-38549032D01*
X156636333Y-38486200D01*
X156314267Y-38486200D01*
X155998388Y-38549032D01*
X155700837Y-38672282D01*
X155433048Y-38851213D01*
X155205313Y-39078948D01*
X155205300Y-39078967D01*
X155205287Y-39078948D01*
X154977552Y-38851213D01*
X154709763Y-38672282D01*
X154412212Y-38549032D01*
X154096333Y-38486200D01*
X153774267Y-38486200D01*
X153458388Y-38549032D01*
X153160837Y-38672282D01*
X152893048Y-38851213D01*
X152665313Y-39078948D01*
X152665300Y-39078967D01*
X152665287Y-39078948D01*
X152437552Y-38851213D01*
X152169763Y-38672282D01*
X151872212Y-38549032D01*
X151556333Y-38486200D01*
X151234267Y-38486200D01*
X150918388Y-38549032D01*
X150620837Y-38672282D01*
X150353048Y-38851213D01*
X150125313Y-39078948D01*
X150125300Y-39078967D01*
X150125287Y-39078948D01*
X149897552Y-38851213D01*
X149629763Y-38672282D01*
X149332212Y-38549032D01*
X149016333Y-38486200D01*
X148694267Y-38486200D01*
X148378388Y-38549032D01*
X148080837Y-38672282D01*
X147813048Y-38851213D01*
X147585313Y-39078948D01*
X147585300Y-39078967D01*
X147585287Y-39078948D01*
X147357552Y-38851213D01*
X147089763Y-38672282D01*
X146792212Y-38549032D01*
X146476333Y-38486200D01*
X146154267Y-38486200D01*
X145838388Y-38549032D01*
X145540837Y-38672282D01*
X145273048Y-38851213D01*
X145045313Y-39078948D01*
X145045300Y-39078967D01*
X145045287Y-39078948D01*
X144817552Y-38851213D01*
X144549763Y-38672282D01*
X144252212Y-38549032D01*
X143936333Y-38486200D01*
X143614267Y-38486200D01*
X143298388Y-38549032D01*
X143000837Y-38672282D01*
X142733048Y-38851213D01*
X142505313Y-39078948D01*
X142505300Y-39078967D01*
X142505287Y-39078948D01*
X142277552Y-38851213D01*
X142009763Y-38672282D01*
X141712212Y-38549032D01*
X141396333Y-38486200D01*
X141074267Y-38486200D01*
X140758388Y-38549032D01*
X140460837Y-38672282D01*
X140193048Y-38851213D01*
X139965313Y-39078948D01*
X139965300Y-39078967D01*
X139965287Y-39078948D01*
X139737552Y-38851213D01*
X139469763Y-38672282D01*
X139172212Y-38549032D01*
X138856333Y-38486200D01*
X138534267Y-38486200D01*
X138218388Y-38549032D01*
X137920837Y-38672282D01*
X137653048Y-38851213D01*
X137425313Y-39078948D01*
X137425300Y-39078967D01*
X137425287Y-39078948D01*
X137197552Y-38851213D01*
X136929763Y-38672282D01*
X136632212Y-38549032D01*
X136316333Y-38486200D01*
X135994267Y-38486200D01*
X135678388Y-38549032D01*
X135380837Y-38672282D01*
X135113048Y-38851213D01*
X134885313Y-39078948D01*
X134885300Y-39078967D01*
X134885287Y-39078948D01*
X134657552Y-38851213D01*
X134389763Y-38672282D01*
X134092212Y-38549032D01*
X133776333Y-38486200D01*
X133454267Y-38486200D01*
X133138388Y-38549032D01*
X132840837Y-38672282D01*
X132573048Y-38851213D01*
X132345313Y-39078948D01*
X132345300Y-39078967D01*
X132345287Y-39078948D01*
X132117552Y-38851213D01*
X131849763Y-38672282D01*
X131552212Y-38549032D01*
X131236333Y-38486200D01*
X130914267Y-38486200D01*
X130598388Y-38549032D01*
X130300837Y-38672282D01*
X130033048Y-38851213D01*
X129805313Y-39078948D01*
X129805300Y-39078967D01*
X129805287Y-39078948D01*
X129577552Y-38851213D01*
X129309763Y-38672282D01*
X129012212Y-38549032D01*
X128696333Y-38486200D01*
X128374267Y-38486200D01*
X128058388Y-38549032D01*
X127760837Y-38672282D01*
X127493048Y-38851213D01*
X127265313Y-39078948D01*
X127265300Y-39078967D01*
X127265287Y-39078948D01*
X127037552Y-38851213D01*
X126769763Y-38672282D01*
X126472212Y-38549032D01*
X126156333Y-38486200D01*
X125834267Y-38486200D01*
X125518388Y-38549032D01*
X125220837Y-38672282D01*
X124953048Y-38851213D01*
X124725313Y-39078948D01*
X124725300Y-39078967D01*
X124725287Y-39078948D01*
X124497552Y-38851213D01*
X124229763Y-38672282D01*
X123932212Y-38549032D01*
X123616333Y-38486200D01*
X123294267Y-38486200D01*
X122978388Y-38549032D01*
X122680837Y-38672282D01*
X122413048Y-38851213D01*
X122185313Y-39078948D01*
X122185300Y-39078967D01*
X122185287Y-39078948D01*
X121957552Y-38851213D01*
X121689763Y-38672282D01*
X121392212Y-38549032D01*
X121076333Y-38486200D01*
X120754267Y-38486200D01*
X120438388Y-38549032D01*
X120140837Y-38672282D01*
X119873048Y-38851213D01*
X119645313Y-39078948D01*
X119645300Y-39078967D01*
X119645287Y-39078948D01*
X119417552Y-38851213D01*
X119149763Y-38672282D01*
X118852212Y-38549032D01*
X118536333Y-38486200D01*
X118214267Y-38486200D01*
X117898388Y-38549032D01*
X117600837Y-38672282D01*
X117333048Y-38851213D01*
X117105313Y-39078948D01*
X117105300Y-39078967D01*
X117105287Y-39078948D01*
X116877552Y-38851213D01*
X116609763Y-38672282D01*
X116312212Y-38549032D01*
X115996333Y-38486200D01*
X115674267Y-38486200D01*
X115358388Y-38549032D01*
X115060837Y-38672282D01*
X114793048Y-38851213D01*
X114565313Y-39078948D01*
X114565300Y-39078967D01*
X114565287Y-39078948D01*
X114337552Y-38851213D01*
X114069763Y-38672282D01*
X113772212Y-38549032D01*
X113456333Y-38486200D01*
X113134267Y-38486200D01*
X112818388Y-38549032D01*
X112520837Y-38672282D01*
X112253048Y-38851213D01*
X112025313Y-39078948D01*
X112025300Y-39078967D01*
X112025287Y-39078948D01*
X111797552Y-38851213D01*
X111529763Y-38672282D01*
X111232212Y-38549032D01*
X110916333Y-38486200D01*
X110594267Y-38486200D01*
X110278388Y-38549032D01*
X109980837Y-38672282D01*
X109713048Y-38851213D01*
X109485313Y-39078948D01*
X109306382Y-39346737D01*
X109183132Y-39644288D01*
X109120300Y-39960167D01*
X107084879Y-39960167D01*
X107286927Y-39472381D01*
X107318931Y-39373884D01*
X107557038Y-38382098D01*
X107573239Y-38279807D01*
X107605397Y-37871200D01*
X168385203Y-37871200D01*
X168417361Y-38279807D01*
G37*
X168417361Y-38279807D02*
X168433562Y-38382098D01*
X168671669Y-39373884D01*
X168703672Y-39472381D01*
X169093997Y-40414709D01*
X169117507Y-40460848D01*
X169141015Y-40506987D01*
X169673947Y-41376653D01*
X169700129Y-41412689D01*
X169734822Y-41460440D01*
X170397238Y-42236030D01*
X170470470Y-42309262D01*
X171246060Y-42971678D01*
X171329847Y-43032553D01*
X172199513Y-43565484D01*
X172291791Y-43612503D01*
X173234119Y-44002827D01*
X173332616Y-44034831D01*
X174324402Y-44272938D01*
X174426693Y-44289139D01*
X174835300Y-44321297D01*
X174835301Y-79101103D01*
X174426693Y-79133261D01*
X174324402Y-79149462D01*
X173332616Y-79387569D01*
X173234119Y-79419573D01*
X172291791Y-79809897D01*
X172200918Y-79856200D01*
X172199513Y-79856916D01*
X171329847Y-80389847D01*
X171246060Y-80450722D01*
X170470470Y-81113138D01*
X170397238Y-81186370D01*
X169734822Y-81961960D01*
X169704385Y-82003854D01*
X169673947Y-82045747D01*
X169141015Y-82915413D01*
X169121692Y-82953338D01*
X169093997Y-83007691D01*
X168703672Y-83950019D01*
X168674237Y-84040611D01*
X168671669Y-84048516D01*
X168433562Y-85040302D01*
X168417361Y-85142593D01*
X168385203Y-85551200D01*
X107605397Y-85551200D01*
X107573239Y-85142593D01*
X107557038Y-85040302D01*
X107318931Y-84048516D01*
X107286927Y-83950019D01*
X106896603Y-83007691D01*
X106849584Y-82915413D01*
X106316653Y-82045747D01*
X106255778Y-81961960D01*
X105862014Y-81500921D01*
X110860300Y-81500921D01*
X110860300Y-81921479D01*
X110942347Y-82333956D01*
X111103288Y-82722502D01*
X111336937Y-83072183D01*
X111634317Y-83369563D01*
X111983998Y-83603212D01*
X112372544Y-83764153D01*
X112785021Y-83846200D01*
X113205579Y-83846200D01*
X113618056Y-83764153D01*
X114006602Y-83603212D01*
X114356283Y-83369563D01*
X114653663Y-83072183D01*
X114887312Y-82722502D01*
X115048253Y-82333956D01*
X115130300Y-81921479D01*
X115130300Y-81500921D01*
X115048253Y-81088444D01*
X114887312Y-80699898D01*
X114653663Y-80350217D01*
X114356283Y-80052837D01*
X114006602Y-79819188D01*
X113618056Y-79658247D01*
X113205579Y-79576200D01*
X112785021Y-79576200D01*
X112372544Y-79658247D01*
X111983998Y-79819188D01*
X111634317Y-80052837D01*
X111336937Y-80350217D01*
X111103288Y-80699898D01*
X110942347Y-81088444D01*
X110860300Y-81500921D01*
X105862014Y-81500921D01*
X105593362Y-81186370D01*
X105520130Y-81113138D01*
X104744540Y-80450722D01*
X104676084Y-80400986D01*
X104660753Y-80389847D01*
X103791087Y-79856915D01*
X103744948Y-79833407D01*
X103698809Y-79809897D01*
X102756481Y-79419572D01*
X102657984Y-79387569D01*
X101666198Y-79149462D01*
X101563907Y-79133261D01*
X101155300Y-79101103D01*
X101155300Y-61500921D01*
X103860300Y-61500921D01*
X103860300Y-61921479D01*
X103942347Y-62333956D01*
X104103288Y-62722502D01*
X104336937Y-63072183D01*
X104634317Y-63369563D01*
X104983998Y-63603212D01*
X105372544Y-63764153D01*
X105785021Y-63846200D01*
X106205579Y-63846200D01*
X106618056Y-63764153D01*
X107006602Y-63603212D01*
X107356283Y-63369563D01*
X107653663Y-63072183D01*
X107887312Y-62722502D01*
X108048253Y-62333956D01*
X108130300Y-61921479D01*
X108130300Y-61500921D01*
X108048253Y-61088444D01*
X107887312Y-60699898D01*
X107653663Y-60350217D01*
X107356283Y-60052837D01*
X107006602Y-59819188D01*
X106618056Y-59658247D01*
X106205579Y-59576200D01*
X105785021Y-59576200D01*
X105372544Y-59658247D01*
X104983998Y-59819188D01*
X104634317Y-60052837D01*
X104336937Y-60350217D01*
X104103288Y-60699898D01*
X103942347Y-61088444D01*
X103860300Y-61500921D01*
X101155300Y-61500921D01*
X101155300Y-44321297D01*
X101563907Y-44289139D01*
X101666198Y-44272938D01*
X102657984Y-44034831D01*
X102660415Y-44034041D01*
X102756481Y-44002828D01*
X103698809Y-43612503D01*
X103744948Y-43588993D01*
X103791087Y-43565485D01*
X104660753Y-43032553D01*
X104702646Y-43002116D01*
X104744540Y-42971678D01*
X105520130Y-42309262D01*
X105593363Y-42236029D01*
X106255778Y-41460440D01*
X106316653Y-41376653D01*
X106316654Y-41376652D01*
X106849584Y-40506987D01*
X106896603Y-40414709D01*
X107084879Y-39960167D01*
X109120300Y-39960167D01*
X109120300Y-40282233D01*
X109183132Y-40598112D01*
X109306382Y-40895663D01*
X109485313Y-41163452D01*
X109584509Y-41262648D01*
X109550806Y-41280663D01*
X109454115Y-41360015D01*
X109374763Y-41456706D01*
X109315798Y-41567020D01*
X109279488Y-41686718D01*
X109267228Y-41811200D01*
X109267228Y-43511200D01*
X109279488Y-43635682D01*
X109315798Y-43755380D01*
X109374763Y-43865694D01*
X109428522Y-43931200D01*
X109374763Y-43996706D01*
X109315798Y-44107020D01*
X109279488Y-44226718D01*
X109267228Y-44351200D01*
X109267228Y-46051200D01*
X109279488Y-46175682D01*
X109315798Y-46295380D01*
X109374763Y-46405694D01*
X109428522Y-46471200D01*
X109374763Y-46536706D01*
X109315798Y-46647020D01*
X109279488Y-46766718D01*
X109267228Y-46891200D01*
X109267228Y-48591200D01*
X109279488Y-48715682D01*
X109315798Y-48835380D01*
X109374763Y-48945694D01*
X109454115Y-49042385D01*
X109550806Y-49121737D01*
X109584509Y-49139752D01*
X109485313Y-49238948D01*
X109306382Y-49506737D01*
X109183132Y-49804288D01*
X109120300Y-50120167D01*
X109120300Y-50442233D01*
X109183132Y-50758112D01*
X109306382Y-51055663D01*
X109485313Y-51323452D01*
X109713048Y-51551187D01*
X109713067Y-51551200D01*
X109713048Y-51551213D01*
X109485313Y-51778948D01*
X109306382Y-52046737D01*
X109183132Y-52344288D01*
X109120300Y-52660167D01*
X109120300Y-52982233D01*
X109183132Y-53298112D01*
X109306382Y-53595663D01*
X109485313Y-53863452D01*
X109713048Y-54091187D01*
X109713067Y-54091200D01*
X109713048Y-54091213D01*
X109485313Y-54318948D01*
X109306382Y-54586737D01*
X109183132Y-54884288D01*
X109120300Y-55200167D01*
X109120300Y-55522233D01*
X109183132Y-55838112D01*
X109306382Y-56135663D01*
X109485313Y-56403452D01*
X109584509Y-56502648D01*
X109550806Y-56520663D01*
X109454115Y-56600015D01*
X109374763Y-56696706D01*
X109315798Y-56807020D01*
X109279488Y-56926718D01*
X109267228Y-57051200D01*
X109267228Y-58751200D01*
X109279488Y-58875682D01*
X109315798Y-58995380D01*
X109374763Y-59105694D01*
X109428522Y-59171200D01*
X109374763Y-59236706D01*
X109315798Y-59347020D01*
X109279488Y-59466718D01*
X109267228Y-59591200D01*
X109267228Y-61291200D01*
X109279488Y-61415682D01*
X109315798Y-61535380D01*
X109374763Y-61645694D01*
X109454115Y-61742385D01*
X109550806Y-61821737D01*
X109584509Y-61839752D01*
X109485313Y-61938948D01*
X109306382Y-62206737D01*
X109183132Y-62504288D01*
X109120300Y-62820167D01*
X109120300Y-63142233D01*
X109183132Y-63458112D01*
X109306382Y-63755663D01*
X109485313Y-64023452D01*
X109584509Y-64122648D01*
X109550806Y-64140663D01*
X109454115Y-64220015D01*
X109374763Y-64316706D01*
X109315798Y-64427020D01*
X109279488Y-64546718D01*
X109267228Y-64671200D01*
X109267228Y-66371200D01*
X109279488Y-66495682D01*
X109315798Y-66615380D01*
X109374763Y-66725694D01*
X109428522Y-66791200D01*
X109374763Y-66856706D01*
X109315798Y-66967020D01*
X109279488Y-67086718D01*
X109267228Y-67211200D01*
X109267228Y-68911200D01*
X109279488Y-69035682D01*
X109315798Y-69155380D01*
X109374763Y-69265694D01*
X109428522Y-69331200D01*
X109374763Y-69396706D01*
X109315798Y-69507020D01*
X109279488Y-69626718D01*
X109267228Y-69751200D01*
X109267228Y-71451200D01*
X109279488Y-71575682D01*
X109315798Y-71695380D01*
X109374763Y-71805694D01*
X109454115Y-71902385D01*
X109550806Y-71981737D01*
X109584509Y-71999752D01*
X109485313Y-72098948D01*
X109306382Y-72366737D01*
X109183132Y-72664288D01*
X109120300Y-72980167D01*
X109120300Y-73302233D01*
X109183132Y-73618112D01*
X109306382Y-73915663D01*
X109485313Y-74183452D01*
X109713048Y-74411187D01*
X109713067Y-74411200D01*
X109713048Y-74411213D01*
X109485313Y-74638948D01*
X109306382Y-74906737D01*
X109183132Y-75204288D01*
X109120300Y-75520167D01*
X109120300Y-75842233D01*
X109183132Y-76158112D01*
X109306382Y-76455663D01*
X109485313Y-76723452D01*
X109713048Y-76951187D01*
X109980837Y-77130118D01*
X110278388Y-77253368D01*
X110594267Y-77316200D01*
X110916333Y-77316200D01*
X111232212Y-77253368D01*
X111529763Y-77130118D01*
X111797552Y-76951187D01*
X112025287Y-76723452D01*
X112025300Y-76723433D01*
X112025313Y-76723452D01*
X112253048Y-76951187D01*
X112520837Y-77130118D01*
X112818388Y-77253368D01*
X113134267Y-77316200D01*
X113456333Y-77316200D01*
X113772212Y-77253368D01*
X114069763Y-77130118D01*
X114337552Y-76951187D01*
X114565287Y-76723452D01*
X114565300Y-76723433D01*
X114565313Y-76723452D01*
X114793048Y-76951187D01*
X115060837Y-77130118D01*
X115358388Y-77253368D01*
X115674267Y-77316200D01*
X115996333Y-77316200D01*
X116312212Y-77253368D01*
X116609763Y-77130118D01*
X116877552Y-76951187D01*
X117105287Y-76723452D01*
X117105300Y-76723433D01*
X117105313Y-76723452D01*
X117333048Y-76951187D01*
X117600837Y-77130118D01*
X117898388Y-77253368D01*
X118214267Y-77316200D01*
X118536333Y-77316200D01*
X118852212Y-77253368D01*
X119149763Y-77130118D01*
X119417552Y-76951187D01*
X119645287Y-76723452D01*
X119645300Y-76723433D01*
X119645313Y-76723452D01*
X119873048Y-76951187D01*
X119873067Y-76951200D01*
X119873048Y-76951213D01*
X119645313Y-77178948D01*
X119466382Y-77446737D01*
X119343132Y-77744288D01*
X119280300Y-78060167D01*
X119280300Y-78382233D01*
X119343132Y-78698112D01*
X119466382Y-78995663D01*
X119645313Y-79263452D01*
X119873048Y-79491187D01*
X119873067Y-79491200D01*
X119873048Y-79491213D01*
X119645313Y-79718948D01*
X119466382Y-79986737D01*
X119343132Y-80284288D01*
X119280300Y-80600167D01*
X119280300Y-80922233D01*
X119343132Y-81238112D01*
X119466382Y-81535663D01*
X119645313Y-81803452D01*
X119873048Y-82031187D01*
X119873067Y-82031200D01*
X119873048Y-82031213D01*
X119645313Y-82258948D01*
X119466382Y-82526737D01*
X119343132Y-82824288D01*
X119280300Y-83140167D01*
X119280300Y-83462233D01*
X119343132Y-83778112D01*
X119466382Y-84075663D01*
X119645313Y-84343452D01*
X119873048Y-84571187D01*
X120140837Y-84750118D01*
X120438388Y-84873368D01*
X120754267Y-84936200D01*
X121076333Y-84936200D01*
X121392212Y-84873368D01*
X121689763Y-84750118D01*
X121957552Y-84571187D01*
X122185287Y-84343452D01*
X122185300Y-84343433D01*
X122185313Y-84343452D01*
X122413048Y-84571187D01*
X122680837Y-84750118D01*
X122978388Y-84873368D01*
X123294267Y-84936200D01*
X123616333Y-84936200D01*
X123932212Y-84873368D01*
X124229763Y-84750118D01*
X124497552Y-84571187D01*
X124725287Y-84343452D01*
X124725300Y-84343433D01*
X124725313Y-84343452D01*
X124953048Y-84571187D01*
X125220837Y-84750118D01*
X125518388Y-84873368D01*
X125834267Y-84936200D01*
X126156333Y-84936200D01*
X126472212Y-84873368D01*
X126769763Y-84750118D01*
X127037552Y-84571187D01*
X127265287Y-84343452D01*
X127265300Y-84343433D01*
X127265313Y-84343452D01*
X127493048Y-84571187D01*
X127760837Y-84750118D01*
X128058388Y-84873368D01*
X128374267Y-84936200D01*
X128696333Y-84936200D01*
X129012212Y-84873368D01*
X129309763Y-84750118D01*
X129577552Y-84571187D01*
X129805287Y-84343452D01*
X129805300Y-84343433D01*
X129805313Y-84343452D01*
X130033048Y-84571187D01*
X130300837Y-84750118D01*
X130598388Y-84873368D01*
X130914267Y-84936200D01*
X131236333Y-84936200D01*
X131552212Y-84873368D01*
X131849763Y-84750118D01*
X132117552Y-84571187D01*
X132345287Y-84343452D01*
X132345300Y-84343433D01*
X132345313Y-84343452D01*
X132573048Y-84571187D01*
X132840837Y-84750118D01*
X133138388Y-84873368D01*
X133454267Y-84936200D01*
X133776333Y-84936200D01*
X134092212Y-84873368D01*
X134389763Y-84750118D01*
X134657552Y-84571187D01*
X134885287Y-84343452D01*
X134885300Y-84343433D01*
X134885313Y-84343452D01*
X135113048Y-84571187D01*
X135380837Y-84750118D01*
X135678388Y-84873368D01*
X135994267Y-84936200D01*
X136316333Y-84936200D01*
X136632212Y-84873368D01*
X136929763Y-84750118D01*
X137197552Y-84571187D01*
X137425287Y-84343452D01*
X137425300Y-84343433D01*
X137425313Y-84343452D01*
X137653048Y-84571187D01*
X137920837Y-84750118D01*
X138218388Y-84873368D01*
X138534267Y-84936200D01*
X138856333Y-84936200D01*
X139172212Y-84873368D01*
X139469763Y-84750118D01*
X139737552Y-84571187D01*
X139965287Y-84343452D01*
X139965300Y-84343433D01*
X139965313Y-84343452D01*
X140193048Y-84571187D01*
X140460837Y-84750118D01*
X140758388Y-84873368D01*
X141074267Y-84936200D01*
X141396333Y-84936200D01*
X141712212Y-84873368D01*
X142009763Y-84750118D01*
X142277552Y-84571187D01*
X142505287Y-84343452D01*
X142505300Y-84343433D01*
X142505313Y-84343452D01*
X142733048Y-84571187D01*
X143000837Y-84750118D01*
X143298388Y-84873368D01*
X143614267Y-84936200D01*
X143936333Y-84936200D01*
X144252212Y-84873368D01*
X144549763Y-84750118D01*
X144817552Y-84571187D01*
X145045287Y-84343452D01*
X145045300Y-84343433D01*
X145045313Y-84343452D01*
X145273048Y-84571187D01*
X145540837Y-84750118D01*
X145838388Y-84873368D01*
X146154267Y-84936200D01*
X146476333Y-84936200D01*
X146792212Y-84873368D01*
X147089763Y-84750118D01*
X147357552Y-84571187D01*
X147585287Y-84343452D01*
X147585300Y-84343433D01*
X147585313Y-84343452D01*
X147813048Y-84571187D01*
X148080837Y-84750118D01*
X148378388Y-84873368D01*
X148694267Y-84936200D01*
X149016333Y-84936200D01*
X149332212Y-84873368D01*
X149629763Y-84750118D01*
X149897552Y-84571187D01*
X150125287Y-84343452D01*
X150125300Y-84343433D01*
X150125313Y-84343452D01*
X150353048Y-84571187D01*
X150620837Y-84750118D01*
X150918388Y-84873368D01*
X151234267Y-84936200D01*
X151556333Y-84936200D01*
X151872212Y-84873368D01*
X152169763Y-84750118D01*
X152437552Y-84571187D01*
X152665287Y-84343452D01*
X152665300Y-84343433D01*
X152665313Y-84343452D01*
X152893048Y-84571187D01*
X153160837Y-84750118D01*
X153458388Y-84873368D01*
X153774267Y-84936200D01*
X154096333Y-84936200D01*
X154412212Y-84873368D01*
X154709763Y-84750118D01*
X154977552Y-84571187D01*
X155205287Y-84343452D01*
X155205300Y-84343433D01*
X155205313Y-84343452D01*
X155433048Y-84571187D01*
X155700837Y-84750118D01*
X155998388Y-84873368D01*
X156314267Y-84936200D01*
X156636333Y-84936200D01*
X156952212Y-84873368D01*
X157249763Y-84750118D01*
X157517552Y-84571187D01*
X157745287Y-84343452D01*
X157745300Y-84343433D01*
X157745313Y-84343452D01*
X157973048Y-84571187D01*
X158240837Y-84750118D01*
X158538388Y-84873368D01*
X158854267Y-84936200D01*
X159176333Y-84936200D01*
X159492212Y-84873368D01*
X159789763Y-84750118D01*
X160057552Y-84571187D01*
X160285287Y-84343452D01*
X160464218Y-84075663D01*
X160587468Y-83778112D01*
X160650300Y-83462233D01*
X160650300Y-83140167D01*
X160587468Y-82824288D01*
X160464218Y-82526737D01*
X160285287Y-82258948D01*
X160057552Y-82031213D01*
X160057533Y-82031200D01*
X160057552Y-82031187D01*
X160285287Y-81803452D01*
X160464218Y-81535663D01*
X160478608Y-81500921D01*
X160860300Y-81500921D01*
X160860300Y-81921479D01*
X160942347Y-82333956D01*
X161103288Y-82722502D01*
X161336937Y-83072183D01*
X161634317Y-83369563D01*
X161983998Y-83603212D01*
X162372544Y-83764153D01*
X162785021Y-83846200D01*
X163205579Y-83846200D01*
X163618056Y-83764153D01*
X164006602Y-83603212D01*
X164356283Y-83369563D01*
X164653663Y-83072183D01*
X164887312Y-82722502D01*
X165048253Y-82333956D01*
X165130300Y-81921479D01*
X165130300Y-81500921D01*
X165048253Y-81088444D01*
X164887312Y-80699898D01*
X164653663Y-80350217D01*
X164356283Y-80052837D01*
X164006602Y-79819188D01*
X163618056Y-79658247D01*
X163205579Y-79576200D01*
X162785021Y-79576200D01*
X162372544Y-79658247D01*
X161983998Y-79819188D01*
X161634317Y-80052837D01*
X161336937Y-80350217D01*
X161103288Y-80699898D01*
X160942347Y-81088444D01*
X160860300Y-81500921D01*
X160478608Y-81500921D01*
X160587468Y-81238112D01*
X160650300Y-80922233D01*
X160650300Y-80600167D01*
X160587468Y-80284288D01*
X160464218Y-79986737D01*
X160285287Y-79718948D01*
X160057552Y-79491213D01*
X160057533Y-79491200D01*
X160057552Y-79491187D01*
X160285287Y-79263452D01*
X160464218Y-78995663D01*
X160587468Y-78698112D01*
X160650300Y-78382233D01*
X160650300Y-78060167D01*
X160587468Y-77744288D01*
X160464218Y-77446737D01*
X160285287Y-77178948D01*
X160057552Y-76951213D01*
X160057533Y-76951200D01*
X160057552Y-76951187D01*
X160285287Y-76723452D01*
X160464218Y-76455663D01*
X160531407Y-76293454D01*
X160780837Y-76460118D01*
X161078388Y-76583368D01*
X161394267Y-76646200D01*
X161716333Y-76646200D01*
X162032212Y-76583368D01*
X162329763Y-76460118D01*
X162597552Y-76281187D01*
X162825287Y-76053452D01*
X162930359Y-75896200D01*
X166657228Y-75896200D01*
X166657228Y-76211200D01*
X166669488Y-76335682D01*
X166705798Y-76455380D01*
X166764763Y-76565694D01*
X166844115Y-76662385D01*
X166940806Y-76741737D01*
X167051120Y-76800702D01*
X167170818Y-76837012D01*
X167295300Y-76849272D01*
X169695300Y-76849272D01*
X169819782Y-76837012D01*
X169939480Y-76800702D01*
X170049794Y-76741737D01*
X170146485Y-76662385D01*
X170225837Y-76565694D01*
X170284802Y-76455380D01*
X170321112Y-76335682D01*
X170333372Y-76211200D01*
X170333372Y-73811200D01*
X170321112Y-73686718D01*
X170284802Y-73567020D01*
X170225837Y-73456706D01*
X170146485Y-73360015D01*
X170049794Y-73280663D01*
X169939480Y-73221698D01*
X169819782Y-73185388D01*
X169695300Y-73173128D01*
X169278138Y-73173128D01*
X169364499Y-73137356D01*
X169665044Y-72936538D01*
X169920638Y-72680944D01*
X170121456Y-72380399D01*
X170259782Y-72046450D01*
X170330300Y-71691932D01*
X170330300Y-71330468D01*
X170259782Y-70975950D01*
X170121456Y-70642001D01*
X169920638Y-70341456D01*
X169665044Y-70085862D01*
X169364499Y-69885044D01*
X169065513Y-69761200D01*
X169364499Y-69637356D01*
X169665044Y-69436538D01*
X169920638Y-69180944D01*
X170121456Y-68880399D01*
X170259782Y-68546450D01*
X170330300Y-68191932D01*
X170330300Y-67830468D01*
X170259782Y-67475950D01*
X170121456Y-67142001D01*
X169920638Y-66841456D01*
X169665044Y-66585862D01*
X169364499Y-66385044D01*
X169030550Y-66246718D01*
X168676032Y-66176200D01*
X168314568Y-66176200D01*
X167960050Y-66246718D01*
X167626101Y-66385044D01*
X167325556Y-66585862D01*
X167069962Y-66841456D01*
X166879702Y-67126200D01*
X162930359Y-67126200D01*
X162825287Y-66968948D01*
X162597552Y-66741213D01*
X162329763Y-66562282D01*
X162032212Y-66439032D01*
X161716333Y-66376200D01*
X161394267Y-66376200D01*
X161078388Y-66439032D01*
X160780837Y-66562282D01*
X160513048Y-66741213D01*
X160285313Y-66968948D01*
X160178394Y-67128964D01*
X160168775Y-67114568D01*
X159961932Y-66907725D01*
X159900300Y-66866544D01*
X159900300Y-66715856D01*
X159961932Y-66674675D01*
X160168775Y-66467832D01*
X160331290Y-66224611D01*
X160443232Y-65954358D01*
X160500300Y-65667460D01*
X160500300Y-65374940D01*
X160443232Y-65088042D01*
X160331290Y-64817789D01*
X160168775Y-64574568D01*
X159961932Y-64367725D01*
X159922536Y-64341402D01*
X160057552Y-64251187D01*
X160192489Y-64116250D01*
X162139855Y-64116250D01*
X162235558Y-64380599D01*
X162525087Y-64521438D01*
X162836529Y-64603085D01*
X163157915Y-64622405D01*
X163476895Y-64578654D01*
X163781211Y-64473514D01*
X163955042Y-64380599D01*
X164050745Y-64116250D01*
X163095300Y-63160805D01*
X162139855Y-64116250D01*
X160192489Y-64116250D01*
X160285287Y-64023452D01*
X160464218Y-63755663D01*
X160587468Y-63458112D01*
X160650300Y-63142233D01*
X160650300Y-63043815D01*
X161454095Y-63043815D01*
X161497846Y-63362795D01*
X161602986Y-63667111D01*
X161695901Y-63840942D01*
X161960250Y-63936645D01*
X162915695Y-62981200D01*
X163274905Y-62981200D01*
X164230350Y-63936645D01*
X164494699Y-63840942D01*
X164635538Y-63551413D01*
X164717185Y-63239971D01*
X164736505Y-62918585D01*
X164692754Y-62599605D01*
X164587614Y-62295289D01*
X164494699Y-62121458D01*
X164230350Y-62025755D01*
X163274905Y-62981200D01*
X162915695Y-62981200D01*
X161960250Y-62025755D01*
X161695901Y-62121458D01*
X161555062Y-62410987D01*
X161473415Y-62722429D01*
X161454095Y-63043815D01*
X160650300Y-63043815D01*
X160650300Y-62820167D01*
X160587468Y-62504288D01*
X160464218Y-62206737D01*
X160285287Y-61938948D01*
X160057552Y-61711213D01*
X159922536Y-61620998D01*
X159961932Y-61594675D01*
X159980357Y-61576250D01*
X162139855Y-61576250D01*
X162188711Y-61711200D01*
X162139855Y-61846150D01*
X163095300Y-62801595D01*
X164050745Y-61846150D01*
X164001889Y-61711200D01*
X164050745Y-61576250D01*
X163975416Y-61500921D01*
X167860300Y-61500921D01*
X167860300Y-61921479D01*
X167942347Y-62333956D01*
X168103288Y-62722502D01*
X168336937Y-63072183D01*
X168634317Y-63369563D01*
X168983998Y-63603212D01*
X169372544Y-63764153D01*
X169785021Y-63846200D01*
X170205579Y-63846200D01*
X170618056Y-63764153D01*
X171006602Y-63603212D01*
X171356283Y-63369563D01*
X171653663Y-63072183D01*
X171887312Y-62722502D01*
X172048253Y-62333956D01*
X172130300Y-61921479D01*
X172130300Y-61500921D01*
X172048253Y-61088444D01*
X171887312Y-60699898D01*
X171653663Y-60350217D01*
X171356283Y-60052837D01*
X171006602Y-59819188D01*
X170618056Y-59658247D01*
X170205579Y-59576200D01*
X169785021Y-59576200D01*
X169372544Y-59658247D01*
X168983998Y-59819188D01*
X168634317Y-60052837D01*
X168336937Y-60350217D01*
X168103288Y-60699898D01*
X167942347Y-61088444D01*
X167860300Y-61500921D01*
X163975416Y-61500921D01*
X163095300Y-60620805D01*
X162139855Y-61576250D01*
X159980357Y-61576250D01*
X160168775Y-61387832D01*
X160331290Y-61144611D01*
X160443232Y-60874358D01*
X160500300Y-60587460D01*
X160500300Y-60503815D01*
X161454095Y-60503815D01*
X161497846Y-60822795D01*
X161602986Y-61127111D01*
X161695901Y-61300942D01*
X161960250Y-61396645D01*
X162915695Y-60441200D01*
X163274905Y-60441200D01*
X164230350Y-61396645D01*
X164494699Y-61300942D01*
X164635538Y-61011413D01*
X164717185Y-60699971D01*
X164736505Y-60378585D01*
X164692754Y-60059605D01*
X164587614Y-59755289D01*
X164494699Y-59581458D01*
X164230350Y-59485755D01*
X163274905Y-60441200D01*
X162915695Y-60441200D01*
X161960250Y-59485755D01*
X161695901Y-59581458D01*
X161555062Y-59870987D01*
X161473415Y-60182429D01*
X161454095Y-60503815D01*
X160500300Y-60503815D01*
X160500300Y-60294940D01*
X160443232Y-60008042D01*
X160331290Y-59737789D01*
X160168775Y-59494568D01*
X159980357Y-59306150D01*
X162139855Y-59306150D01*
X163095300Y-60261595D01*
X164050745Y-59306150D01*
X163955042Y-59041801D01*
X163665513Y-58900962D01*
X163354071Y-58819315D01*
X163032685Y-58799995D01*
X162713705Y-58843746D01*
X162409389Y-58948886D01*
X162235558Y-59041801D01*
X162139855Y-59306150D01*
X159980357Y-59306150D01*
X159961932Y-59287725D01*
X159900300Y-59246544D01*
X159900300Y-59095856D01*
X159961932Y-59054675D01*
X160168775Y-58847832D01*
X160331290Y-58604611D01*
X160443232Y-58334358D01*
X160500300Y-58047460D01*
X160500300Y-57754940D01*
X160443232Y-57468042D01*
X160331290Y-57197789D01*
X160168775Y-56954568D01*
X159961932Y-56747725D01*
X159922536Y-56721402D01*
X160057552Y-56631187D01*
X160265275Y-56423464D01*
X160285313Y-56453452D01*
X160513048Y-56681187D01*
X160780837Y-56860118D01*
X161078388Y-56983368D01*
X161394267Y-57046200D01*
X161716333Y-57046200D01*
X162032212Y-56983368D01*
X162329763Y-56860118D01*
X162597552Y-56681187D01*
X162825287Y-56453452D01*
X162930359Y-56296200D01*
X166657228Y-56296200D01*
X166657228Y-56611200D01*
X166669488Y-56735682D01*
X166705798Y-56855380D01*
X166764763Y-56965694D01*
X166844115Y-57062385D01*
X166940806Y-57141737D01*
X167051120Y-57200702D01*
X167170818Y-57237012D01*
X167295300Y-57249272D01*
X169695300Y-57249272D01*
X169819782Y-57237012D01*
X169939480Y-57200702D01*
X170049794Y-57141737D01*
X170146485Y-57062385D01*
X170225837Y-56965694D01*
X170284802Y-56855380D01*
X170321112Y-56735682D01*
X170333372Y-56611200D01*
X170333372Y-54211200D01*
X170321112Y-54086718D01*
X170284802Y-53967020D01*
X170225837Y-53856706D01*
X170146485Y-53760015D01*
X170049794Y-53680663D01*
X169939480Y-53621698D01*
X169819782Y-53585388D01*
X169695300Y-53573128D01*
X169278138Y-53573128D01*
X169364499Y-53537356D01*
X169665044Y-53336538D01*
X169920638Y-53080944D01*
X170121456Y-52780399D01*
X170259782Y-52446450D01*
X170330300Y-52091932D01*
X170330300Y-51730468D01*
X170259782Y-51375950D01*
X170121456Y-51042001D01*
X169920638Y-50741456D01*
X169665044Y-50485862D01*
X169364499Y-50285044D01*
X169065513Y-50161200D01*
X169364499Y-50037356D01*
X169665044Y-49836538D01*
X169920638Y-49580944D01*
X170121456Y-49280399D01*
X170259782Y-48946450D01*
X170330300Y-48591932D01*
X170330300Y-48230468D01*
X170259782Y-47875950D01*
X170121456Y-47542001D01*
X169920638Y-47241456D01*
X169665044Y-46985862D01*
X169364499Y-46785044D01*
X169030550Y-46646718D01*
X168676032Y-46576200D01*
X168314568Y-46576200D01*
X167960050Y-46646718D01*
X167626101Y-46785044D01*
X167325556Y-46985862D01*
X167069962Y-47241456D01*
X166879702Y-47526200D01*
X162930359Y-47526200D01*
X162825287Y-47368948D01*
X162597552Y-47141213D01*
X162329763Y-46962282D01*
X162032212Y-46839032D01*
X161716333Y-46776200D01*
X161394267Y-46776200D01*
X161078388Y-46839032D01*
X160780837Y-46962282D01*
X160513048Y-47141213D01*
X160414818Y-47239443D01*
X160331290Y-47037789D01*
X160168775Y-46794568D01*
X159961932Y-46587725D01*
X159787540Y-46471200D01*
X159961932Y-46354675D01*
X160168775Y-46147832D01*
X160331290Y-45904611D01*
X160443232Y-45634358D01*
X160500300Y-45347460D01*
X160500300Y-45054940D01*
X160443232Y-44768042D01*
X160331290Y-44497789D01*
X160168775Y-44254568D01*
X159961932Y-44047725D01*
X159900300Y-44006544D01*
X159900300Y-43855856D01*
X159961932Y-43814675D01*
X160168775Y-43607832D01*
X160331290Y-43364611D01*
X160443232Y-43094358D01*
X160500300Y-42807460D01*
X160500300Y-42514940D01*
X160443232Y-42228042D01*
X160331290Y-41957789D01*
X160168775Y-41714568D01*
X159961932Y-41507725D01*
X159951749Y-41500921D01*
X160860300Y-41500921D01*
X160860300Y-41921479D01*
X160942347Y-42333956D01*
X161103288Y-42722502D01*
X161336937Y-43072183D01*
X161634317Y-43369563D01*
X161983998Y-43603212D01*
X162372544Y-43764153D01*
X162785021Y-43846200D01*
X163205579Y-43846200D01*
X163618056Y-43764153D01*
X164006602Y-43603212D01*
X164356283Y-43369563D01*
X164653663Y-43072183D01*
X164887312Y-42722502D01*
X165048253Y-42333956D01*
X165130300Y-41921479D01*
X165130300Y-41500921D01*
X165048253Y-41088444D01*
X164887312Y-40699898D01*
X164653663Y-40350217D01*
X164356283Y-40052837D01*
X164006602Y-39819188D01*
X163618056Y-39658247D01*
X163205579Y-39576200D01*
X162785021Y-39576200D01*
X162372544Y-39658247D01*
X161983998Y-39819188D01*
X161634317Y-40052837D01*
X161336937Y-40350217D01*
X161103288Y-40699898D01*
X160942347Y-41088444D01*
X160860300Y-41500921D01*
X159951749Y-41500921D01*
X159949200Y-41499218D01*
X159949200Y-41463586D01*
X160057552Y-41391187D01*
X160285287Y-41163452D01*
X160464218Y-40895663D01*
X160587468Y-40598112D01*
X160650300Y-40282233D01*
X160650300Y-39960167D01*
X160587468Y-39644288D01*
X160464218Y-39346737D01*
X160285287Y-39078948D01*
X160057552Y-38851213D01*
X159789763Y-38672282D01*
X159492212Y-38549032D01*
X159176333Y-38486200D01*
X158854267Y-38486200D01*
X158538388Y-38549032D01*
X158240837Y-38672282D01*
X157973048Y-38851213D01*
X157745313Y-39078948D01*
X157745300Y-39078967D01*
X157745287Y-39078948D01*
X157517552Y-38851213D01*
X157249763Y-38672282D01*
X156952212Y-38549032D01*
X156636333Y-38486200D01*
X156314267Y-38486200D01*
X155998388Y-38549032D01*
X155700837Y-38672282D01*
X155433048Y-38851213D01*
X155205313Y-39078948D01*
X155205300Y-39078967D01*
X155205287Y-39078948D01*
X154977552Y-38851213D01*
X154709763Y-38672282D01*
X154412212Y-38549032D01*
X154096333Y-38486200D01*
X153774267Y-38486200D01*
X153458388Y-38549032D01*
X153160837Y-38672282D01*
X152893048Y-38851213D01*
X152665313Y-39078948D01*
X152665300Y-39078967D01*
X152665287Y-39078948D01*
X152437552Y-38851213D01*
X152169763Y-38672282D01*
X151872212Y-38549032D01*
X151556333Y-38486200D01*
X151234267Y-38486200D01*
X150918388Y-38549032D01*
X150620837Y-38672282D01*
X150353048Y-38851213D01*
X150125313Y-39078948D01*
X150125300Y-39078967D01*
X150125287Y-39078948D01*
X149897552Y-38851213D01*
X149629763Y-38672282D01*
X149332212Y-38549032D01*
X149016333Y-38486200D01*
X148694267Y-38486200D01*
X148378388Y-38549032D01*
X148080837Y-38672282D01*
X147813048Y-38851213D01*
X147585313Y-39078948D01*
X147585300Y-39078967D01*
X147585287Y-39078948D01*
X147357552Y-38851213D01*
X147089763Y-38672282D01*
X146792212Y-38549032D01*
X146476333Y-38486200D01*
X146154267Y-38486200D01*
X145838388Y-38549032D01*
X145540837Y-38672282D01*
X145273048Y-38851213D01*
X145045313Y-39078948D01*
X145045300Y-39078967D01*
X145045287Y-39078948D01*
X144817552Y-38851213D01*
X144549763Y-38672282D01*
X144252212Y-38549032D01*
X143936333Y-38486200D01*
X143614267Y-38486200D01*
X143298388Y-38549032D01*
X143000837Y-38672282D01*
X142733048Y-38851213D01*
X142505313Y-39078948D01*
X142505300Y-39078967D01*
X142505287Y-39078948D01*
X142277552Y-38851213D01*
X142009763Y-38672282D01*
X141712212Y-38549032D01*
X141396333Y-38486200D01*
X141074267Y-38486200D01*
X140758388Y-38549032D01*
X140460837Y-38672282D01*
X140193048Y-38851213D01*
X139965313Y-39078948D01*
X139965300Y-39078967D01*
X139965287Y-39078948D01*
X139737552Y-38851213D01*
X139469763Y-38672282D01*
X139172212Y-38549032D01*
X138856333Y-38486200D01*
X138534267Y-38486200D01*
X138218388Y-38549032D01*
X137920837Y-38672282D01*
X137653048Y-38851213D01*
X137425313Y-39078948D01*
X137425300Y-39078967D01*
X137425287Y-39078948D01*
X137197552Y-38851213D01*
X136929763Y-38672282D01*
X136632212Y-38549032D01*
X136316333Y-38486200D01*
X135994267Y-38486200D01*
X135678388Y-38549032D01*
X135380837Y-38672282D01*
X135113048Y-38851213D01*
X134885313Y-39078948D01*
X134885300Y-39078967D01*
X134885287Y-39078948D01*
X134657552Y-38851213D01*
X134389763Y-38672282D01*
X134092212Y-38549032D01*
X133776333Y-38486200D01*
X133454267Y-38486200D01*
X133138388Y-38549032D01*
X132840837Y-38672282D01*
X132573048Y-38851213D01*
X132345313Y-39078948D01*
X132345300Y-39078967D01*
X132345287Y-39078948D01*
X132117552Y-38851213D01*
X131849763Y-38672282D01*
X131552212Y-38549032D01*
X131236333Y-38486200D01*
X130914267Y-38486200D01*
X130598388Y-38549032D01*
X130300837Y-38672282D01*
X130033048Y-38851213D01*
X129805313Y-39078948D01*
X129805300Y-39078967D01*
X129805287Y-39078948D01*
X129577552Y-38851213D01*
X129309763Y-38672282D01*
X129012212Y-38549032D01*
X128696333Y-38486200D01*
X128374267Y-38486200D01*
X128058388Y-38549032D01*
X127760837Y-38672282D01*
X127493048Y-38851213D01*
X127265313Y-39078948D01*
X127265300Y-39078967D01*
X127265287Y-39078948D01*
X127037552Y-38851213D01*
X126769763Y-38672282D01*
X126472212Y-38549032D01*
X126156333Y-38486200D01*
X125834267Y-38486200D01*
X125518388Y-38549032D01*
X125220837Y-38672282D01*
X124953048Y-38851213D01*
X124725313Y-39078948D01*
X124725300Y-39078967D01*
X124725287Y-39078948D01*
X124497552Y-38851213D01*
X124229763Y-38672282D01*
X123932212Y-38549032D01*
X123616333Y-38486200D01*
X123294267Y-38486200D01*
X122978388Y-38549032D01*
X122680837Y-38672282D01*
X122413048Y-38851213D01*
X122185313Y-39078948D01*
X122185300Y-39078967D01*
X122185287Y-39078948D01*
X121957552Y-38851213D01*
X121689763Y-38672282D01*
X121392212Y-38549032D01*
X121076333Y-38486200D01*
X120754267Y-38486200D01*
X120438388Y-38549032D01*
X120140837Y-38672282D01*
X119873048Y-38851213D01*
X119645313Y-39078948D01*
X119645300Y-39078967D01*
X119645287Y-39078948D01*
X119417552Y-38851213D01*
X119149763Y-38672282D01*
X118852212Y-38549032D01*
X118536333Y-38486200D01*
X118214267Y-38486200D01*
X117898388Y-38549032D01*
X117600837Y-38672282D01*
X117333048Y-38851213D01*
X117105313Y-39078948D01*
X117105300Y-39078967D01*
X117105287Y-39078948D01*
X116877552Y-38851213D01*
X116609763Y-38672282D01*
X116312212Y-38549032D01*
X115996333Y-38486200D01*
X115674267Y-38486200D01*
X115358388Y-38549032D01*
X115060837Y-38672282D01*
X114793048Y-38851213D01*
X114565313Y-39078948D01*
X114565300Y-39078967D01*
X114565287Y-39078948D01*
X114337552Y-38851213D01*
X114069763Y-38672282D01*
X113772212Y-38549032D01*
X113456333Y-38486200D01*
X113134267Y-38486200D01*
X112818388Y-38549032D01*
X112520837Y-38672282D01*
X112253048Y-38851213D01*
X112025313Y-39078948D01*
X112025300Y-39078967D01*
X112025287Y-39078948D01*
X111797552Y-38851213D01*
X111529763Y-38672282D01*
X111232212Y-38549032D01*
X110916333Y-38486200D01*
X110594267Y-38486200D01*
X110278388Y-38549032D01*
X109980837Y-38672282D01*
X109713048Y-38851213D01*
X109485313Y-39078948D01*
X109306382Y-39346737D01*
X109183132Y-39644288D01*
X109120300Y-39960167D01*
X107084879Y-39960167D01*
X107286927Y-39472381D01*
X107318931Y-39373884D01*
X107557038Y-38382098D01*
X107573239Y-38279807D01*
X107605397Y-37871200D01*
X168385203Y-37871200D01*
X168417361Y-38279807D01*
G36*
X168417361Y-87279807D02*
G01*
X168433562Y-87382098D01*
X168671669Y-88373884D01*
X168703672Y-88472381D01*
X169093997Y-89414709D01*
X169141015Y-89506987D01*
X169673947Y-90376653D01*
X169700129Y-90412689D01*
X169734822Y-90460440D01*
X170397238Y-91236030D01*
X170470470Y-91309262D01*
X171246060Y-91971678D01*
X171329847Y-92032553D01*
X172199513Y-92565484D01*
X172291791Y-92612503D01*
X173234119Y-93002827D01*
X173332616Y-93034831D01*
X174324402Y-93272938D01*
X174426693Y-93289139D01*
X174835300Y-93321297D01*
X174835301Y-128101103D01*
X174426693Y-128133261D01*
X174324402Y-128149462D01*
X173332616Y-128387569D01*
X173234119Y-128419573D01*
X172291791Y-128809897D01*
X172200918Y-128856200D01*
X172199513Y-128856916D01*
X171329847Y-129389847D01*
X171246060Y-129450722D01*
X170470470Y-130113138D01*
X170397238Y-130186370D01*
X169734822Y-130961960D01*
X169704385Y-131003854D01*
X169673947Y-131045747D01*
X169141015Y-131915413D01*
X169121692Y-131953338D01*
X169093997Y-132007691D01*
X168703672Y-132950019D01*
X168674237Y-133040611D01*
X168671669Y-133048516D01*
X168433562Y-134040302D01*
X168417361Y-134142593D01*
X168385203Y-134551200D01*
X107605397Y-134551200D01*
X107573239Y-134142593D01*
X107557038Y-134040302D01*
X107318931Y-133048516D01*
X107286927Y-132950019D01*
X106896603Y-132007691D01*
X106849584Y-131915413D01*
X106316653Y-131045747D01*
X106255778Y-130961960D01*
X105862014Y-130500921D01*
X110860300Y-130500921D01*
X110860300Y-130921479D01*
X110942347Y-131333956D01*
X111103288Y-131722502D01*
X111336937Y-132072183D01*
X111634317Y-132369563D01*
X111983998Y-132603212D01*
X112372544Y-132764153D01*
X112785021Y-132846200D01*
X113205579Y-132846200D01*
X113618056Y-132764153D01*
X114006602Y-132603212D01*
X114356283Y-132369563D01*
X114653663Y-132072183D01*
X114887312Y-131722502D01*
X115048253Y-131333956D01*
X115130300Y-130921479D01*
X115130300Y-130500921D01*
X115048253Y-130088444D01*
X114887312Y-129699898D01*
X114653663Y-129350217D01*
X114356283Y-129052837D01*
X114006602Y-128819188D01*
X113618056Y-128658247D01*
X113205579Y-128576200D01*
X112785021Y-128576200D01*
X112372544Y-128658247D01*
X111983998Y-128819188D01*
X111634317Y-129052837D01*
X111336937Y-129350217D01*
X111103288Y-129699898D01*
X110942347Y-130088444D01*
X110860300Y-130500921D01*
X105862014Y-130500921D01*
X105593362Y-130186370D01*
X105520130Y-130113138D01*
X104744540Y-129450722D01*
X104676084Y-129400986D01*
X104660753Y-129389847D01*
X103791087Y-128856915D01*
X103698809Y-128809897D01*
X102756481Y-128419572D01*
X102657984Y-128387569D01*
X101666198Y-128149462D01*
X101563907Y-128133261D01*
X101155300Y-128101103D01*
X101155300Y-110500921D01*
X103860300Y-110500921D01*
X103860300Y-110921479D01*
X103942347Y-111333956D01*
X104103288Y-111722502D01*
X104336937Y-112072183D01*
X104634317Y-112369563D01*
X104983998Y-112603212D01*
X105372544Y-112764153D01*
X105785021Y-112846200D01*
X106205579Y-112846200D01*
X106618056Y-112764153D01*
X107006602Y-112603212D01*
X107356283Y-112369563D01*
X107653663Y-112072183D01*
X107887312Y-111722502D01*
X108048253Y-111333956D01*
X108130300Y-110921479D01*
X108130300Y-110500921D01*
X108048253Y-110088444D01*
X107887312Y-109699898D01*
X107653663Y-109350217D01*
X107356283Y-109052837D01*
X107006602Y-108819188D01*
X106618056Y-108658247D01*
X106205579Y-108576200D01*
X105785021Y-108576200D01*
X105372544Y-108658247D01*
X104983998Y-108819188D01*
X104634317Y-109052837D01*
X104336937Y-109350217D01*
X104103288Y-109699898D01*
X103942347Y-110088444D01*
X103860300Y-110500921D01*
X101155300Y-110500921D01*
X101155300Y-93321297D01*
X101563907Y-93289139D01*
X101666198Y-93272938D01*
X102657984Y-93034831D01*
X102660415Y-93034041D01*
X102756481Y-93002828D01*
X103698809Y-92612503D01*
X103744948Y-92588993D01*
X103791087Y-92565485D01*
X104660753Y-92032553D01*
X104702646Y-92002115D01*
X104744540Y-91971678D01*
X105520130Y-91309262D01*
X105593363Y-91236029D01*
X106255778Y-90460440D01*
X106316653Y-90376653D01*
X106316654Y-90376652D01*
X106849584Y-89506987D01*
X106896603Y-89414709D01*
X107084879Y-88960167D01*
X109120300Y-88960167D01*
X109120300Y-89282233D01*
X109183132Y-89598112D01*
X109306382Y-89895663D01*
X109485313Y-90163452D01*
X109584509Y-90262648D01*
X109550806Y-90280663D01*
X109454115Y-90360015D01*
X109374763Y-90456706D01*
X109315798Y-90567020D01*
X109279488Y-90686718D01*
X109267228Y-90811200D01*
X109267228Y-92511200D01*
X109279488Y-92635682D01*
X109315798Y-92755380D01*
X109374763Y-92865694D01*
X109428522Y-92931200D01*
X109374763Y-92996706D01*
X109315798Y-93107020D01*
X109279488Y-93226718D01*
X109267228Y-93351200D01*
X109267228Y-95051200D01*
X109279488Y-95175682D01*
X109315798Y-95295380D01*
X109374763Y-95405694D01*
X109428522Y-95471200D01*
X109374763Y-95536706D01*
X109315798Y-95647020D01*
X109279488Y-95766718D01*
X109267228Y-95891200D01*
X109267228Y-97591200D01*
X109279488Y-97715682D01*
X109315798Y-97835380D01*
X109374763Y-97945694D01*
X109454115Y-98042385D01*
X109550806Y-98121737D01*
X109584509Y-98139752D01*
X109485313Y-98238948D01*
X109306382Y-98506737D01*
X109183132Y-98804288D01*
X109120300Y-99120167D01*
X109120300Y-99442233D01*
X109183132Y-99758112D01*
X109306382Y-100055663D01*
X109485313Y-100323452D01*
X109713048Y-100551187D01*
X109713067Y-100551200D01*
X109713048Y-100551213D01*
X109485313Y-100778948D01*
X109306382Y-101046737D01*
X109183132Y-101344288D01*
X109120300Y-101660167D01*
X109120300Y-101982233D01*
X109183132Y-102298112D01*
X109306382Y-102595663D01*
X109485313Y-102863452D01*
X109713048Y-103091187D01*
X109713067Y-103091200D01*
X109713048Y-103091213D01*
X109485313Y-103318948D01*
X109306382Y-103586737D01*
X109183132Y-103884288D01*
X109120300Y-104200167D01*
X109120300Y-104522233D01*
X109183132Y-104838112D01*
X109306382Y-105135663D01*
X109485313Y-105403452D01*
X109584509Y-105502648D01*
X109550806Y-105520663D01*
X109454115Y-105600015D01*
X109374763Y-105696706D01*
X109315798Y-105807020D01*
X109279488Y-105926718D01*
X109267228Y-106051200D01*
X109267228Y-107751200D01*
X109279488Y-107875682D01*
X109315798Y-107995380D01*
X109374763Y-108105694D01*
X109428522Y-108171200D01*
X109374763Y-108236706D01*
X109315798Y-108347020D01*
X109279488Y-108466718D01*
X109267228Y-108591200D01*
X109267228Y-110291200D01*
X109279488Y-110415682D01*
X109315798Y-110535380D01*
X109374763Y-110645694D01*
X109454115Y-110742385D01*
X109550806Y-110821737D01*
X109584509Y-110839752D01*
X109485313Y-110938948D01*
X109306382Y-111206737D01*
X109183132Y-111504288D01*
X109120300Y-111820167D01*
X109120300Y-112142233D01*
X109183132Y-112458112D01*
X109306382Y-112755663D01*
X109485313Y-113023452D01*
X109584509Y-113122648D01*
X109550806Y-113140663D01*
X109454115Y-113220015D01*
X109374763Y-113316706D01*
X109315798Y-113427020D01*
X109279488Y-113546718D01*
X109267228Y-113671200D01*
X109267228Y-115371200D01*
X109279488Y-115495682D01*
X109315798Y-115615380D01*
X109374763Y-115725694D01*
X109428522Y-115791200D01*
X109374763Y-115856706D01*
X109315798Y-115967020D01*
X109279488Y-116086718D01*
X109267228Y-116211200D01*
X109267228Y-117911200D01*
X109279488Y-118035682D01*
X109315798Y-118155380D01*
X109374763Y-118265694D01*
X109428522Y-118331200D01*
X109374763Y-118396706D01*
X109315798Y-118507020D01*
X109279488Y-118626718D01*
X109267228Y-118751200D01*
X109267228Y-120451200D01*
X109279488Y-120575682D01*
X109315798Y-120695380D01*
X109374763Y-120805694D01*
X109454115Y-120902385D01*
X109550806Y-120981737D01*
X109584509Y-120999752D01*
X109485313Y-121098948D01*
X109306382Y-121366737D01*
X109183132Y-121664288D01*
X109120300Y-121980167D01*
X109120300Y-122302233D01*
X109183132Y-122618112D01*
X109306382Y-122915663D01*
X109485313Y-123183452D01*
X109713048Y-123411187D01*
X109713067Y-123411200D01*
X109713048Y-123411213D01*
X109485313Y-123638948D01*
X109306382Y-123906737D01*
X109183132Y-124204288D01*
X109120300Y-124520167D01*
X109120300Y-124842233D01*
X109183132Y-125158112D01*
X109306382Y-125455663D01*
X109485313Y-125723452D01*
X109713048Y-125951187D01*
X109980837Y-126130118D01*
X110278388Y-126253368D01*
X110594267Y-126316200D01*
X110916333Y-126316200D01*
X111232212Y-126253368D01*
X111529763Y-126130118D01*
X111797552Y-125951187D01*
X112025287Y-125723452D01*
X112025300Y-125723433D01*
X112025313Y-125723452D01*
X112253048Y-125951187D01*
X112520837Y-126130118D01*
X112818388Y-126253368D01*
X113134267Y-126316200D01*
X113456333Y-126316200D01*
X113772212Y-126253368D01*
X114069763Y-126130118D01*
X114337552Y-125951187D01*
X114565287Y-125723452D01*
X114565300Y-125723433D01*
X114565313Y-125723452D01*
X114793048Y-125951187D01*
X115060837Y-126130118D01*
X115358388Y-126253368D01*
X115674267Y-126316200D01*
X115996333Y-126316200D01*
X116312212Y-126253368D01*
X116609763Y-126130118D01*
X116877552Y-125951187D01*
X117105287Y-125723452D01*
X117105300Y-125723433D01*
X117105313Y-125723452D01*
X117333048Y-125951187D01*
X117600837Y-126130118D01*
X117898388Y-126253368D01*
X118214267Y-126316200D01*
X118536333Y-126316200D01*
X118852212Y-126253368D01*
X119149763Y-126130118D01*
X119417552Y-125951187D01*
X119645287Y-125723452D01*
X119645300Y-125723433D01*
X119645313Y-125723452D01*
X119873048Y-125951187D01*
X119873067Y-125951200D01*
X119873048Y-125951213D01*
X119645313Y-126178948D01*
X119466382Y-126446737D01*
X119343132Y-126744288D01*
X119280300Y-127060167D01*
X119280300Y-127382233D01*
X119343132Y-127698112D01*
X119466382Y-127995663D01*
X119645313Y-128263452D01*
X119873048Y-128491187D01*
X119873067Y-128491200D01*
X119873048Y-128491213D01*
X119645313Y-128718948D01*
X119466382Y-128986737D01*
X119343132Y-129284288D01*
X119280300Y-129600167D01*
X119280300Y-129922233D01*
X119343132Y-130238112D01*
X119466382Y-130535663D01*
X119645313Y-130803452D01*
X119873048Y-131031187D01*
X119873067Y-131031200D01*
X119873048Y-131031213D01*
X119645313Y-131258948D01*
X119466382Y-131526737D01*
X119343132Y-131824288D01*
X119280300Y-132140167D01*
X119280300Y-132462233D01*
X119343132Y-132778112D01*
X119466382Y-133075663D01*
X119645313Y-133343452D01*
X119873048Y-133571187D01*
X120140837Y-133750118D01*
X120438388Y-133873368D01*
X120754267Y-133936200D01*
X121076333Y-133936200D01*
X121392212Y-133873368D01*
X121689763Y-133750118D01*
X121957552Y-133571187D01*
X122185287Y-133343452D01*
X122185300Y-133343433D01*
X122185313Y-133343452D01*
X122413048Y-133571187D01*
X122680837Y-133750118D01*
X122978388Y-133873368D01*
X123294267Y-133936200D01*
X123616333Y-133936200D01*
X123932212Y-133873368D01*
X124229763Y-133750118D01*
X124497552Y-133571187D01*
X124725287Y-133343452D01*
X124725300Y-133343433D01*
X124725313Y-133343452D01*
X124953048Y-133571187D01*
X125220837Y-133750118D01*
X125518388Y-133873368D01*
X125834267Y-133936200D01*
X126156333Y-133936200D01*
X126472212Y-133873368D01*
X126769763Y-133750118D01*
X127037552Y-133571187D01*
X127265287Y-133343452D01*
X127265300Y-133343433D01*
X127265313Y-133343452D01*
X127493048Y-133571187D01*
X127760837Y-133750118D01*
X128058388Y-133873368D01*
X128374267Y-133936200D01*
X128696333Y-133936200D01*
X129012212Y-133873368D01*
X129309763Y-133750118D01*
X129577552Y-133571187D01*
X129805287Y-133343452D01*
X129805300Y-133343433D01*
X129805313Y-133343452D01*
X130033048Y-133571187D01*
X130300837Y-133750118D01*
X130598388Y-133873368D01*
X130914267Y-133936200D01*
X131236333Y-133936200D01*
X131552212Y-133873368D01*
X131849763Y-133750118D01*
X132117552Y-133571187D01*
X132345287Y-133343452D01*
X132345300Y-133343433D01*
X132345313Y-133343452D01*
X132573048Y-133571187D01*
X132840837Y-133750118D01*
X133138388Y-133873368D01*
X133454267Y-133936200D01*
X133776333Y-133936200D01*
X134092212Y-133873368D01*
X134389763Y-133750118D01*
X134657552Y-133571187D01*
X134885287Y-133343452D01*
X134885300Y-133343433D01*
X134885313Y-133343452D01*
X135113048Y-133571187D01*
X135380837Y-133750118D01*
X135678388Y-133873368D01*
X135994267Y-133936200D01*
X136316333Y-133936200D01*
X136632212Y-133873368D01*
X136929763Y-133750118D01*
X137197552Y-133571187D01*
X137425287Y-133343452D01*
X137425300Y-133343433D01*
X137425313Y-133343452D01*
X137653048Y-133571187D01*
X137920837Y-133750118D01*
X138218388Y-133873368D01*
X138534267Y-133936200D01*
X138856333Y-133936200D01*
X139172212Y-133873368D01*
X139469763Y-133750118D01*
X139737552Y-133571187D01*
X139965287Y-133343452D01*
X139965300Y-133343433D01*
X139965313Y-133343452D01*
X140193048Y-133571187D01*
X140460837Y-133750118D01*
X140758388Y-133873368D01*
X141074267Y-133936200D01*
X141396333Y-133936200D01*
X141712212Y-133873368D01*
X142009763Y-133750118D01*
X142277552Y-133571187D01*
X142505287Y-133343452D01*
X142505300Y-133343433D01*
X142505313Y-133343452D01*
X142733048Y-133571187D01*
X143000837Y-133750118D01*
X143298388Y-133873368D01*
X143614267Y-133936200D01*
X143936333Y-133936200D01*
X144252212Y-133873368D01*
X144549763Y-133750118D01*
X144817552Y-133571187D01*
X145045287Y-133343452D01*
X145045300Y-133343433D01*
X145045313Y-133343452D01*
X145273048Y-133571187D01*
X145540837Y-133750118D01*
X145838388Y-133873368D01*
X146154267Y-133936200D01*
X146476333Y-133936200D01*
X146792212Y-133873368D01*
X147089763Y-133750118D01*
X147357552Y-133571187D01*
X147585287Y-133343452D01*
X147585300Y-133343433D01*
X147585313Y-133343452D01*
X147813048Y-133571187D01*
X148080837Y-133750118D01*
X148378388Y-133873368D01*
X148694267Y-133936200D01*
X149016333Y-133936200D01*
X149332212Y-133873368D01*
X149629763Y-133750118D01*
X149897552Y-133571187D01*
X150125287Y-133343452D01*
X150125300Y-133343433D01*
X150125313Y-133343452D01*
X150353048Y-133571187D01*
X150620837Y-133750118D01*
X150918388Y-133873368D01*
X151234267Y-133936200D01*
X151556333Y-133936200D01*
X151872212Y-133873368D01*
X152169763Y-133750118D01*
X152437552Y-133571187D01*
X152665287Y-133343452D01*
X152665300Y-133343433D01*
X152665313Y-133343452D01*
X152893048Y-133571187D01*
X153160837Y-133750118D01*
X153458388Y-133873368D01*
X153774267Y-133936200D01*
X154096333Y-133936200D01*
X154412212Y-133873368D01*
X154709763Y-133750118D01*
X154977552Y-133571187D01*
X155205287Y-133343452D01*
X155205300Y-133343433D01*
X155205313Y-133343452D01*
X155433048Y-133571187D01*
X155700837Y-133750118D01*
X155998388Y-133873368D01*
X156314267Y-133936200D01*
X156636333Y-133936200D01*
X156952212Y-133873368D01*
X157249763Y-133750118D01*
X157517552Y-133571187D01*
X157745287Y-133343452D01*
X157745300Y-133343433D01*
X157745313Y-133343452D01*
X157973048Y-133571187D01*
X158240837Y-133750118D01*
X158538388Y-133873368D01*
X158854267Y-133936200D01*
X159176333Y-133936200D01*
X159492212Y-133873368D01*
X159789763Y-133750118D01*
X160057552Y-133571187D01*
X160285287Y-133343452D01*
X160464218Y-133075663D01*
X160587468Y-132778112D01*
X160650300Y-132462233D01*
X160650300Y-132140167D01*
X160587468Y-131824288D01*
X160464218Y-131526737D01*
X160285287Y-131258948D01*
X160057552Y-131031213D01*
X160057533Y-131031200D01*
X160057552Y-131031187D01*
X160285287Y-130803452D01*
X160464218Y-130535663D01*
X160478608Y-130500921D01*
X160860300Y-130500921D01*
X160860300Y-130921479D01*
X160942347Y-131333956D01*
X161103288Y-131722502D01*
X161336937Y-132072183D01*
X161634317Y-132369563D01*
X161983998Y-132603212D01*
X162372544Y-132764153D01*
X162785021Y-132846200D01*
X163205579Y-132846200D01*
X163618056Y-132764153D01*
X164006602Y-132603212D01*
X164356283Y-132369563D01*
X164653663Y-132072183D01*
X164887312Y-131722502D01*
X165048253Y-131333956D01*
X165130300Y-130921479D01*
X165130300Y-130500921D01*
X165048253Y-130088444D01*
X164887312Y-129699898D01*
X164653663Y-129350217D01*
X164356283Y-129052837D01*
X164006602Y-128819188D01*
X163618056Y-128658247D01*
X163205579Y-128576200D01*
X162785021Y-128576200D01*
X162372544Y-128658247D01*
X161983998Y-128819188D01*
X161634317Y-129052837D01*
X161336937Y-129350217D01*
X161103288Y-129699898D01*
X160942347Y-130088444D01*
X160860300Y-130500921D01*
X160478608Y-130500921D01*
X160587468Y-130238112D01*
X160650300Y-129922233D01*
X160650300Y-129600167D01*
X160587468Y-129284288D01*
X160464218Y-128986737D01*
X160285287Y-128718948D01*
X160057552Y-128491213D01*
X160057533Y-128491200D01*
X160057552Y-128491187D01*
X160285287Y-128263452D01*
X160464218Y-127995663D01*
X160587468Y-127698112D01*
X160650300Y-127382233D01*
X160650300Y-127060167D01*
X160587468Y-126744288D01*
X160464218Y-126446737D01*
X160285287Y-126178948D01*
X160057552Y-125951213D01*
X160057533Y-125951200D01*
X160057552Y-125951187D01*
X160285287Y-125723452D01*
X160464218Y-125455663D01*
X160531407Y-125293454D01*
X160780837Y-125460118D01*
X161078388Y-125583368D01*
X161394267Y-125646200D01*
X161716333Y-125646200D01*
X162032212Y-125583368D01*
X162329763Y-125460118D01*
X162597552Y-125281187D01*
X162825287Y-125053452D01*
X162930359Y-124896200D01*
X166657228Y-124896200D01*
X166657228Y-125211200D01*
X166669488Y-125335682D01*
X166705798Y-125455380D01*
X166764763Y-125565694D01*
X166844115Y-125662385D01*
X166940806Y-125741737D01*
X167051120Y-125800702D01*
X167170818Y-125837012D01*
X167295300Y-125849272D01*
X169695300Y-125849272D01*
X169819782Y-125837012D01*
X169939480Y-125800702D01*
X170049794Y-125741737D01*
X170146485Y-125662385D01*
X170225837Y-125565694D01*
X170284802Y-125455380D01*
X170321112Y-125335682D01*
X170333372Y-125211200D01*
X170333372Y-122811200D01*
X170321112Y-122686718D01*
X170284802Y-122567020D01*
X170225837Y-122456706D01*
X170146485Y-122360015D01*
X170049794Y-122280663D01*
X169939480Y-122221698D01*
X169819782Y-122185388D01*
X169695300Y-122173128D01*
X169278138Y-122173128D01*
X169364499Y-122137356D01*
X169665044Y-121936538D01*
X169920638Y-121680944D01*
X170121456Y-121380399D01*
X170259782Y-121046450D01*
X170330300Y-120691932D01*
X170330300Y-120330468D01*
X170259782Y-119975950D01*
X170121456Y-119642001D01*
X169920638Y-119341456D01*
X169665044Y-119085862D01*
X169364499Y-118885044D01*
X169065513Y-118761200D01*
X169364499Y-118637356D01*
X169665044Y-118436538D01*
X169920638Y-118180944D01*
X170121456Y-117880399D01*
X170259782Y-117546450D01*
X170330300Y-117191932D01*
X170330300Y-116830468D01*
X170259782Y-116475950D01*
X170121456Y-116142001D01*
X169920638Y-115841456D01*
X169665044Y-115585862D01*
X169364499Y-115385044D01*
X169030550Y-115246718D01*
X168676032Y-115176200D01*
X168314568Y-115176200D01*
X167960050Y-115246718D01*
X167626101Y-115385044D01*
X167325556Y-115585862D01*
X167069962Y-115841456D01*
X166879702Y-116126200D01*
X162930359Y-116126200D01*
X162825287Y-115968948D01*
X162597552Y-115741213D01*
X162329763Y-115562282D01*
X162032212Y-115439032D01*
X161716333Y-115376200D01*
X161394267Y-115376200D01*
X161078388Y-115439032D01*
X160780837Y-115562282D01*
X160513048Y-115741213D01*
X160285313Y-115968948D01*
X160178394Y-116128964D01*
X160168775Y-116114568D01*
X159961932Y-115907725D01*
X159900300Y-115866544D01*
X159900300Y-115715856D01*
X159961932Y-115674675D01*
X160168775Y-115467832D01*
X160331290Y-115224611D01*
X160443232Y-114954358D01*
X160500300Y-114667460D01*
X160500300Y-114374940D01*
X160443232Y-114088042D01*
X160331290Y-113817789D01*
X160168775Y-113574568D01*
X159961932Y-113367725D01*
X159922536Y-113341402D01*
X160057552Y-113251187D01*
X160192489Y-113116250D01*
X162139855Y-113116250D01*
X162235558Y-113380599D01*
X162525087Y-113521438D01*
X162836529Y-113603085D01*
X163157915Y-113622405D01*
X163476895Y-113578654D01*
X163781211Y-113473514D01*
X163955042Y-113380599D01*
X164050745Y-113116250D01*
X163095300Y-112160805D01*
X162139855Y-113116250D01*
X160192489Y-113116250D01*
X160285287Y-113023452D01*
X160464218Y-112755663D01*
X160587468Y-112458112D01*
X160650300Y-112142233D01*
X160650300Y-112043815D01*
X161454095Y-112043815D01*
X161497846Y-112362795D01*
X161602986Y-112667111D01*
X161695901Y-112840942D01*
X161960250Y-112936645D01*
X162915695Y-111981200D01*
X163274905Y-111981200D01*
X164230350Y-112936645D01*
X164494699Y-112840942D01*
X164635538Y-112551413D01*
X164717185Y-112239971D01*
X164736505Y-111918585D01*
X164692754Y-111599605D01*
X164587614Y-111295289D01*
X164494699Y-111121458D01*
X164230350Y-111025755D01*
X163274905Y-111981200D01*
X162915695Y-111981200D01*
X161960250Y-111025755D01*
X161695901Y-111121458D01*
X161555062Y-111410987D01*
X161473415Y-111722429D01*
X161454095Y-112043815D01*
X160650300Y-112043815D01*
X160650300Y-111820167D01*
X160587468Y-111504288D01*
X160464218Y-111206737D01*
X160285287Y-110938948D01*
X160057552Y-110711213D01*
X159922536Y-110620998D01*
X159961932Y-110594675D01*
X159980357Y-110576250D01*
X162139855Y-110576250D01*
X162188711Y-110711200D01*
X162139855Y-110846150D01*
X163095300Y-111801595D01*
X164050745Y-110846150D01*
X164001889Y-110711200D01*
X164050745Y-110576250D01*
X163975416Y-110500921D01*
X167860300Y-110500921D01*
X167860300Y-110921479D01*
X167942347Y-111333956D01*
X168103288Y-111722502D01*
X168336937Y-112072183D01*
X168634317Y-112369563D01*
X168983998Y-112603212D01*
X169372544Y-112764153D01*
X169785021Y-112846200D01*
X170205579Y-112846200D01*
X170618056Y-112764153D01*
X171006602Y-112603212D01*
X171356283Y-112369563D01*
X171653663Y-112072183D01*
X171887312Y-111722502D01*
X172048253Y-111333956D01*
X172130300Y-110921479D01*
X172130300Y-110500921D01*
X172048253Y-110088444D01*
X171887312Y-109699898D01*
X171653663Y-109350217D01*
X171356283Y-109052837D01*
X171006602Y-108819188D01*
X170618056Y-108658247D01*
X170205579Y-108576200D01*
X169785021Y-108576200D01*
X169372544Y-108658247D01*
X168983998Y-108819188D01*
X168634317Y-109052837D01*
X168336937Y-109350217D01*
X168103288Y-109699898D01*
X167942347Y-110088444D01*
X167860300Y-110500921D01*
X163975416Y-110500921D01*
X163095300Y-109620805D01*
X162139855Y-110576250D01*
X159980357Y-110576250D01*
X160168775Y-110387832D01*
X160331290Y-110144611D01*
X160443232Y-109874358D01*
X160500300Y-109587460D01*
X160500300Y-109503815D01*
X161454095Y-109503815D01*
X161497846Y-109822795D01*
X161602986Y-110127111D01*
X161695901Y-110300942D01*
X161960250Y-110396645D01*
X162915695Y-109441200D01*
X163274905Y-109441200D01*
X164230350Y-110396645D01*
X164494699Y-110300942D01*
X164635538Y-110011413D01*
X164717185Y-109699971D01*
X164736505Y-109378585D01*
X164692754Y-109059605D01*
X164587614Y-108755289D01*
X164494699Y-108581458D01*
X164230350Y-108485755D01*
X163274905Y-109441200D01*
X162915695Y-109441200D01*
X161960250Y-108485755D01*
X161695901Y-108581458D01*
X161555062Y-108870987D01*
X161473415Y-109182429D01*
X161454095Y-109503815D01*
X160500300Y-109503815D01*
X160500300Y-109294940D01*
X160443232Y-109008042D01*
X160331290Y-108737789D01*
X160168775Y-108494568D01*
X159980357Y-108306150D01*
X162139855Y-108306150D01*
X163095300Y-109261595D01*
X164050745Y-108306150D01*
X163955042Y-108041801D01*
X163665513Y-107900962D01*
X163354071Y-107819315D01*
X163032685Y-107799995D01*
X162713705Y-107843746D01*
X162409389Y-107948886D01*
X162235558Y-108041801D01*
X162139855Y-108306150D01*
X159980357Y-108306150D01*
X159961932Y-108287725D01*
X159900300Y-108246544D01*
X159900300Y-108095856D01*
X159961932Y-108054675D01*
X160168775Y-107847832D01*
X160331290Y-107604611D01*
X160443232Y-107334358D01*
X160500300Y-107047460D01*
X160500300Y-106754940D01*
X160443232Y-106468042D01*
X160331290Y-106197789D01*
X160168775Y-105954568D01*
X159961932Y-105747725D01*
X159922536Y-105721402D01*
X160057552Y-105631187D01*
X160265275Y-105423464D01*
X160285313Y-105453452D01*
X160513048Y-105681187D01*
X160780837Y-105860118D01*
X161078388Y-105983368D01*
X161394267Y-106046200D01*
X161716333Y-106046200D01*
X162032212Y-105983368D01*
X162329763Y-105860118D01*
X162597552Y-105681187D01*
X162825287Y-105453452D01*
X162930359Y-105296200D01*
X166657228Y-105296200D01*
X166657228Y-105611200D01*
X166669488Y-105735682D01*
X166705798Y-105855380D01*
X166764763Y-105965694D01*
X166844115Y-106062385D01*
X166940806Y-106141737D01*
X167051120Y-106200702D01*
X167170818Y-106237012D01*
X167295300Y-106249272D01*
X169695300Y-106249272D01*
X169819782Y-106237012D01*
X169939480Y-106200702D01*
X170049794Y-106141737D01*
X170146485Y-106062385D01*
X170225837Y-105965694D01*
X170284802Y-105855380D01*
X170321112Y-105735682D01*
X170333372Y-105611200D01*
X170333372Y-103211200D01*
X170321112Y-103086718D01*
X170284802Y-102967020D01*
X170225837Y-102856706D01*
X170146485Y-102760015D01*
X170049794Y-102680663D01*
X169939480Y-102621698D01*
X169819782Y-102585388D01*
X169695300Y-102573128D01*
X169278138Y-102573128D01*
X169364499Y-102537356D01*
X169665044Y-102336538D01*
X169920638Y-102080944D01*
X170121456Y-101780399D01*
X170259782Y-101446450D01*
X170330300Y-101091932D01*
X170330300Y-100730468D01*
X170259782Y-100375950D01*
X170121456Y-100042001D01*
X169920638Y-99741456D01*
X169665044Y-99485862D01*
X169364499Y-99285044D01*
X169065513Y-99161200D01*
X169364499Y-99037356D01*
X169665044Y-98836538D01*
X169920638Y-98580944D01*
X170121456Y-98280399D01*
X170259782Y-97946450D01*
X170330300Y-97591932D01*
X170330300Y-97230468D01*
X170259782Y-96875950D01*
X170121456Y-96542001D01*
X169920638Y-96241456D01*
X169665044Y-95985862D01*
X169364499Y-95785044D01*
X169030550Y-95646718D01*
X168676032Y-95576200D01*
X168314568Y-95576200D01*
X167960050Y-95646718D01*
X167626101Y-95785044D01*
X167325556Y-95985862D01*
X167069962Y-96241456D01*
X166879702Y-96526200D01*
X162930359Y-96526200D01*
X162825287Y-96368948D01*
X162597552Y-96141213D01*
X162329763Y-95962282D01*
X162032212Y-95839032D01*
X161716333Y-95776200D01*
X161394267Y-95776200D01*
X161078388Y-95839032D01*
X160780837Y-95962282D01*
X160513048Y-96141213D01*
X160414818Y-96239443D01*
X160331290Y-96037789D01*
X160168775Y-95794568D01*
X159961932Y-95587725D01*
X159787540Y-95471200D01*
X159961932Y-95354675D01*
X160168775Y-95147832D01*
X160331290Y-94904611D01*
X160443232Y-94634358D01*
X160500300Y-94347460D01*
X160500300Y-94054940D01*
X160443232Y-93768042D01*
X160331290Y-93497789D01*
X160168775Y-93254568D01*
X159961932Y-93047725D01*
X159900300Y-93006544D01*
X159900300Y-92855856D01*
X159961932Y-92814675D01*
X160168775Y-92607832D01*
X160331290Y-92364611D01*
X160443232Y-92094358D01*
X160500300Y-91807460D01*
X160500300Y-91514940D01*
X160443232Y-91228042D01*
X160331290Y-90957789D01*
X160168775Y-90714568D01*
X159961932Y-90507725D01*
X159951749Y-90500921D01*
X160860300Y-90500921D01*
X160860300Y-90921479D01*
X160942347Y-91333956D01*
X161103288Y-91722502D01*
X161336937Y-92072183D01*
X161634317Y-92369563D01*
X161983998Y-92603212D01*
X162372544Y-92764153D01*
X162785021Y-92846200D01*
X163205579Y-92846200D01*
X163618056Y-92764153D01*
X164006602Y-92603212D01*
X164356283Y-92369563D01*
X164653663Y-92072183D01*
X164887312Y-91722502D01*
X165048253Y-91333956D01*
X165130300Y-90921479D01*
X165130300Y-90500921D01*
X165048253Y-90088444D01*
X164887312Y-89699898D01*
X164653663Y-89350217D01*
X164356283Y-89052837D01*
X164006602Y-88819188D01*
X163618056Y-88658247D01*
X163205579Y-88576200D01*
X162785021Y-88576200D01*
X162372544Y-88658247D01*
X161983998Y-88819188D01*
X161634317Y-89052837D01*
X161336937Y-89350217D01*
X161103288Y-89699898D01*
X160942347Y-90088444D01*
X160860300Y-90500921D01*
X159951749Y-90500921D01*
X159949200Y-90499218D01*
X159949200Y-90463586D01*
X160057552Y-90391187D01*
X160285287Y-90163452D01*
X160464218Y-89895663D01*
X160587468Y-89598112D01*
X160650300Y-89282233D01*
X160650300Y-88960167D01*
X160587468Y-88644288D01*
X160464218Y-88346737D01*
X160285287Y-88078948D01*
X160057552Y-87851213D01*
X159789763Y-87672282D01*
X159492212Y-87549032D01*
X159176333Y-87486200D01*
X158854267Y-87486200D01*
X158538388Y-87549032D01*
X158240837Y-87672282D01*
X157973048Y-87851213D01*
X157745313Y-88078948D01*
X157745300Y-88078967D01*
X157745287Y-88078948D01*
X157517552Y-87851213D01*
X157249763Y-87672282D01*
X156952212Y-87549032D01*
X156636333Y-87486200D01*
X156314267Y-87486200D01*
X155998388Y-87549032D01*
X155700837Y-87672282D01*
X155433048Y-87851213D01*
X155205313Y-88078948D01*
X155205300Y-88078967D01*
X155205287Y-88078948D01*
X154977552Y-87851213D01*
X154709763Y-87672282D01*
X154412212Y-87549032D01*
X154096333Y-87486200D01*
X153774267Y-87486200D01*
X153458388Y-87549032D01*
X153160837Y-87672282D01*
X152893048Y-87851213D01*
X152665313Y-88078948D01*
X152665300Y-88078967D01*
X152665287Y-88078948D01*
X152437552Y-87851213D01*
X152169763Y-87672282D01*
X151872212Y-87549032D01*
X151556333Y-87486200D01*
X151234267Y-87486200D01*
X150918388Y-87549032D01*
X150620837Y-87672282D01*
X150353048Y-87851213D01*
X150125313Y-88078948D01*
X150125300Y-88078967D01*
X150125287Y-88078948D01*
X149897552Y-87851213D01*
X149629763Y-87672282D01*
X149332212Y-87549032D01*
X149016333Y-87486200D01*
X148694267Y-87486200D01*
X148378388Y-87549032D01*
X148080837Y-87672282D01*
X147813048Y-87851213D01*
X147585313Y-88078948D01*
X147585300Y-88078967D01*
X147585287Y-88078948D01*
X147357552Y-87851213D01*
X147089763Y-87672282D01*
X146792212Y-87549032D01*
X146476333Y-87486200D01*
X146154267Y-87486200D01*
X145838388Y-87549032D01*
X145540837Y-87672282D01*
X145273048Y-87851213D01*
X145045313Y-88078948D01*
X145045300Y-88078967D01*
X145045287Y-88078948D01*
X144817552Y-87851213D01*
X144549763Y-87672282D01*
X144252212Y-87549032D01*
X143936333Y-87486200D01*
X143614267Y-87486200D01*
X143298388Y-87549032D01*
X143000837Y-87672282D01*
X142733048Y-87851213D01*
X142505313Y-88078948D01*
X142505300Y-88078967D01*
X142505287Y-88078948D01*
X142277552Y-87851213D01*
X142009763Y-87672282D01*
X141712212Y-87549032D01*
X141396333Y-87486200D01*
X141074267Y-87486200D01*
X140758388Y-87549032D01*
X140460837Y-87672282D01*
X140193048Y-87851213D01*
X139965313Y-88078948D01*
X139965300Y-88078967D01*
X139965287Y-88078948D01*
X139737552Y-87851213D01*
X139469763Y-87672282D01*
X139172212Y-87549032D01*
X138856333Y-87486200D01*
X138534267Y-87486200D01*
X138218388Y-87549032D01*
X137920837Y-87672282D01*
X137653048Y-87851213D01*
X137425313Y-88078948D01*
X137425300Y-88078967D01*
X137425287Y-88078948D01*
X137197552Y-87851213D01*
X136929763Y-87672282D01*
X136632212Y-87549032D01*
X136316333Y-87486200D01*
X135994267Y-87486200D01*
X135678388Y-87549032D01*
X135380837Y-87672282D01*
X135113048Y-87851213D01*
X134885313Y-88078948D01*
X134885300Y-88078967D01*
X134885287Y-88078948D01*
X134657552Y-87851213D01*
X134389763Y-87672282D01*
X134092212Y-87549032D01*
X133776333Y-87486200D01*
X133454267Y-87486200D01*
X133138388Y-87549032D01*
X132840837Y-87672282D01*
X132573048Y-87851213D01*
X132345313Y-88078948D01*
X132345300Y-88078967D01*
X132345287Y-88078948D01*
X132117552Y-87851213D01*
X131849763Y-87672282D01*
X131552212Y-87549032D01*
X131236333Y-87486200D01*
X130914267Y-87486200D01*
X130598388Y-87549032D01*
X130300837Y-87672282D01*
X130033048Y-87851213D01*
X129805313Y-88078948D01*
X129805300Y-88078967D01*
X129805287Y-88078948D01*
X129577552Y-87851213D01*
X129309763Y-87672282D01*
X129012212Y-87549032D01*
X128696333Y-87486200D01*
X128374267Y-87486200D01*
X128058388Y-87549032D01*
X127760837Y-87672282D01*
X127493048Y-87851213D01*
X127265313Y-88078948D01*
X127265300Y-88078967D01*
X127265287Y-88078948D01*
X127037552Y-87851213D01*
X126769763Y-87672282D01*
X126472212Y-87549032D01*
X126156333Y-87486200D01*
X125834267Y-87486200D01*
X125518388Y-87549032D01*
X125220837Y-87672282D01*
X124953048Y-87851213D01*
X124725313Y-88078948D01*
X124725300Y-88078967D01*
X124725287Y-88078948D01*
X124497552Y-87851213D01*
X124229763Y-87672282D01*
X123932212Y-87549032D01*
X123616333Y-87486200D01*
X123294267Y-87486200D01*
X122978388Y-87549032D01*
X122680837Y-87672282D01*
X122413048Y-87851213D01*
X122185313Y-88078948D01*
X122185300Y-88078967D01*
X122185287Y-88078948D01*
X121957552Y-87851213D01*
X121689763Y-87672282D01*
X121392212Y-87549032D01*
X121076333Y-87486200D01*
X120754267Y-87486200D01*
X120438388Y-87549032D01*
X120140837Y-87672282D01*
X119873048Y-87851213D01*
X119645313Y-88078948D01*
X119645300Y-88078967D01*
X119645287Y-88078948D01*
X119417552Y-87851213D01*
X119149763Y-87672282D01*
X118852212Y-87549032D01*
X118536333Y-87486200D01*
X118214267Y-87486200D01*
X117898388Y-87549032D01*
X117600837Y-87672282D01*
X117333048Y-87851213D01*
X117105313Y-88078948D01*
X117105300Y-88078967D01*
X117105287Y-88078948D01*
X116877552Y-87851213D01*
X116609763Y-87672282D01*
X116312212Y-87549032D01*
X115996333Y-87486200D01*
X115674267Y-87486200D01*
X115358388Y-87549032D01*
X115060837Y-87672282D01*
X114793048Y-87851213D01*
X114565313Y-88078948D01*
X114565300Y-88078967D01*
X114565287Y-88078948D01*
X114337552Y-87851213D01*
X114069763Y-87672282D01*
X113772212Y-87549032D01*
X113456333Y-87486200D01*
X113134267Y-87486200D01*
X112818388Y-87549032D01*
X112520837Y-87672282D01*
X112253048Y-87851213D01*
X112025313Y-88078948D01*
X112025300Y-88078967D01*
X112025287Y-88078948D01*
X111797552Y-87851213D01*
X111529763Y-87672282D01*
X111232212Y-87549032D01*
X110916333Y-87486200D01*
X110594267Y-87486200D01*
X110278388Y-87549032D01*
X109980837Y-87672282D01*
X109713048Y-87851213D01*
X109485313Y-88078948D01*
X109306382Y-88346737D01*
X109183132Y-88644288D01*
X109120300Y-88960167D01*
X107084879Y-88960167D01*
X107286927Y-88472381D01*
X107318931Y-88373884D01*
X107557038Y-87382098D01*
X107573239Y-87279807D01*
X107605397Y-86871200D01*
X168385203Y-86871200D01*
X168417361Y-87279807D01*
G37*
X168417361Y-87279807D02*
X168433562Y-87382098D01*
X168671669Y-88373884D01*
X168703672Y-88472381D01*
X169093997Y-89414709D01*
X169141015Y-89506987D01*
X169673947Y-90376653D01*
X169700129Y-90412689D01*
X169734822Y-90460440D01*
X170397238Y-91236030D01*
X170470470Y-91309262D01*
X171246060Y-91971678D01*
X171329847Y-92032553D01*
X172199513Y-92565484D01*
X172291791Y-92612503D01*
X173234119Y-93002827D01*
X173332616Y-93034831D01*
X174324402Y-93272938D01*
X174426693Y-93289139D01*
X174835300Y-93321297D01*
X174835301Y-128101103D01*
X174426693Y-128133261D01*
X174324402Y-128149462D01*
X173332616Y-128387569D01*
X173234119Y-128419573D01*
X172291791Y-128809897D01*
X172200918Y-128856200D01*
X172199513Y-128856916D01*
X171329847Y-129389847D01*
X171246060Y-129450722D01*
X170470470Y-130113138D01*
X170397238Y-130186370D01*
X169734822Y-130961960D01*
X169704385Y-131003854D01*
X169673947Y-131045747D01*
X169141015Y-131915413D01*
X169121692Y-131953338D01*
X169093997Y-132007691D01*
X168703672Y-132950019D01*
X168674237Y-133040611D01*
X168671669Y-133048516D01*
X168433562Y-134040302D01*
X168417361Y-134142593D01*
X168385203Y-134551200D01*
X107605397Y-134551200D01*
X107573239Y-134142593D01*
X107557038Y-134040302D01*
X107318931Y-133048516D01*
X107286927Y-132950019D01*
X106896603Y-132007691D01*
X106849584Y-131915413D01*
X106316653Y-131045747D01*
X106255778Y-130961960D01*
X105862014Y-130500921D01*
X110860300Y-130500921D01*
X110860300Y-130921479D01*
X110942347Y-131333956D01*
X111103288Y-131722502D01*
X111336937Y-132072183D01*
X111634317Y-132369563D01*
X111983998Y-132603212D01*
X112372544Y-132764153D01*
X112785021Y-132846200D01*
X113205579Y-132846200D01*
X113618056Y-132764153D01*
X114006602Y-132603212D01*
X114356283Y-132369563D01*
X114653663Y-132072183D01*
X114887312Y-131722502D01*
X115048253Y-131333956D01*
X115130300Y-130921479D01*
X115130300Y-130500921D01*
X115048253Y-130088444D01*
X114887312Y-129699898D01*
X114653663Y-129350217D01*
X114356283Y-129052837D01*
X114006602Y-128819188D01*
X113618056Y-128658247D01*
X113205579Y-128576200D01*
X112785021Y-128576200D01*
X112372544Y-128658247D01*
X111983998Y-128819188D01*
X111634317Y-129052837D01*
X111336937Y-129350217D01*
X111103288Y-129699898D01*
X110942347Y-130088444D01*
X110860300Y-130500921D01*
X105862014Y-130500921D01*
X105593362Y-130186370D01*
X105520130Y-130113138D01*
X104744540Y-129450722D01*
X104676084Y-129400986D01*
X104660753Y-129389847D01*
X103791087Y-128856915D01*
X103698809Y-128809897D01*
X102756481Y-128419572D01*
X102657984Y-128387569D01*
X101666198Y-128149462D01*
X101563907Y-128133261D01*
X101155300Y-128101103D01*
X101155300Y-110500921D01*
X103860300Y-110500921D01*
X103860300Y-110921479D01*
X103942347Y-111333956D01*
X104103288Y-111722502D01*
X104336937Y-112072183D01*
X104634317Y-112369563D01*
X104983998Y-112603212D01*
X105372544Y-112764153D01*
X105785021Y-112846200D01*
X106205579Y-112846200D01*
X106618056Y-112764153D01*
X107006602Y-112603212D01*
X107356283Y-112369563D01*
X107653663Y-112072183D01*
X107887312Y-111722502D01*
X108048253Y-111333956D01*
X108130300Y-110921479D01*
X108130300Y-110500921D01*
X108048253Y-110088444D01*
X107887312Y-109699898D01*
X107653663Y-109350217D01*
X107356283Y-109052837D01*
X107006602Y-108819188D01*
X106618056Y-108658247D01*
X106205579Y-108576200D01*
X105785021Y-108576200D01*
X105372544Y-108658247D01*
X104983998Y-108819188D01*
X104634317Y-109052837D01*
X104336937Y-109350217D01*
X104103288Y-109699898D01*
X103942347Y-110088444D01*
X103860300Y-110500921D01*
X101155300Y-110500921D01*
X101155300Y-93321297D01*
X101563907Y-93289139D01*
X101666198Y-93272938D01*
X102657984Y-93034831D01*
X102660415Y-93034041D01*
X102756481Y-93002828D01*
X103698809Y-92612503D01*
X103744948Y-92588993D01*
X103791087Y-92565485D01*
X104660753Y-92032553D01*
X104702646Y-92002115D01*
X104744540Y-91971678D01*
X105520130Y-91309262D01*
X105593363Y-91236029D01*
X106255778Y-90460440D01*
X106316653Y-90376653D01*
X106316654Y-90376652D01*
X106849584Y-89506987D01*
X106896603Y-89414709D01*
X107084879Y-88960167D01*
X109120300Y-88960167D01*
X109120300Y-89282233D01*
X109183132Y-89598112D01*
X109306382Y-89895663D01*
X109485313Y-90163452D01*
X109584509Y-90262648D01*
X109550806Y-90280663D01*
X109454115Y-90360015D01*
X109374763Y-90456706D01*
X109315798Y-90567020D01*
X109279488Y-90686718D01*
X109267228Y-90811200D01*
X109267228Y-92511200D01*
X109279488Y-92635682D01*
X109315798Y-92755380D01*
X109374763Y-92865694D01*
X109428522Y-92931200D01*
X109374763Y-92996706D01*
X109315798Y-93107020D01*
X109279488Y-93226718D01*
X109267228Y-93351200D01*
X109267228Y-95051200D01*
X109279488Y-95175682D01*
X109315798Y-95295380D01*
X109374763Y-95405694D01*
X109428522Y-95471200D01*
X109374763Y-95536706D01*
X109315798Y-95647020D01*
X109279488Y-95766718D01*
X109267228Y-95891200D01*
X109267228Y-97591200D01*
X109279488Y-97715682D01*
X109315798Y-97835380D01*
X109374763Y-97945694D01*
X109454115Y-98042385D01*
X109550806Y-98121737D01*
X109584509Y-98139752D01*
X109485313Y-98238948D01*
X109306382Y-98506737D01*
X109183132Y-98804288D01*
X109120300Y-99120167D01*
X109120300Y-99442233D01*
X109183132Y-99758112D01*
X109306382Y-100055663D01*
X109485313Y-100323452D01*
X109713048Y-100551187D01*
X109713067Y-100551200D01*
X109713048Y-100551213D01*
X109485313Y-100778948D01*
X109306382Y-101046737D01*
X109183132Y-101344288D01*
X109120300Y-101660167D01*
X109120300Y-101982233D01*
X109183132Y-102298112D01*
X109306382Y-102595663D01*
X109485313Y-102863452D01*
X109713048Y-103091187D01*
X109713067Y-103091200D01*
X109713048Y-103091213D01*
X109485313Y-103318948D01*
X109306382Y-103586737D01*
X109183132Y-103884288D01*
X109120300Y-104200167D01*
X109120300Y-104522233D01*
X109183132Y-104838112D01*
X109306382Y-105135663D01*
X109485313Y-105403452D01*
X109584509Y-105502648D01*
X109550806Y-105520663D01*
X109454115Y-105600015D01*
X109374763Y-105696706D01*
X109315798Y-105807020D01*
X109279488Y-105926718D01*
X109267228Y-106051200D01*
X109267228Y-107751200D01*
X109279488Y-107875682D01*
X109315798Y-107995380D01*
X109374763Y-108105694D01*
X109428522Y-108171200D01*
X109374763Y-108236706D01*
X109315798Y-108347020D01*
X109279488Y-108466718D01*
X109267228Y-108591200D01*
X109267228Y-110291200D01*
X109279488Y-110415682D01*
X109315798Y-110535380D01*
X109374763Y-110645694D01*
X109454115Y-110742385D01*
X109550806Y-110821737D01*
X109584509Y-110839752D01*
X109485313Y-110938948D01*
X109306382Y-111206737D01*
X109183132Y-111504288D01*
X109120300Y-111820167D01*
X109120300Y-112142233D01*
X109183132Y-112458112D01*
X109306382Y-112755663D01*
X109485313Y-113023452D01*
X109584509Y-113122648D01*
X109550806Y-113140663D01*
X109454115Y-113220015D01*
X109374763Y-113316706D01*
X109315798Y-113427020D01*
X109279488Y-113546718D01*
X109267228Y-113671200D01*
X109267228Y-115371200D01*
X109279488Y-115495682D01*
X109315798Y-115615380D01*
X109374763Y-115725694D01*
X109428522Y-115791200D01*
X109374763Y-115856706D01*
X109315798Y-115967020D01*
X109279488Y-116086718D01*
X109267228Y-116211200D01*
X109267228Y-117911200D01*
X109279488Y-118035682D01*
X109315798Y-118155380D01*
X109374763Y-118265694D01*
X109428522Y-118331200D01*
X109374763Y-118396706D01*
X109315798Y-118507020D01*
X109279488Y-118626718D01*
X109267228Y-118751200D01*
X109267228Y-120451200D01*
X109279488Y-120575682D01*
X109315798Y-120695380D01*
X109374763Y-120805694D01*
X109454115Y-120902385D01*
X109550806Y-120981737D01*
X109584509Y-120999752D01*
X109485313Y-121098948D01*
X109306382Y-121366737D01*
X109183132Y-121664288D01*
X109120300Y-121980167D01*
X109120300Y-122302233D01*
X109183132Y-122618112D01*
X109306382Y-122915663D01*
X109485313Y-123183452D01*
X109713048Y-123411187D01*
X109713067Y-123411200D01*
X109713048Y-123411213D01*
X109485313Y-123638948D01*
X109306382Y-123906737D01*
X109183132Y-124204288D01*
X109120300Y-124520167D01*
X109120300Y-124842233D01*
X109183132Y-125158112D01*
X109306382Y-125455663D01*
X109485313Y-125723452D01*
X109713048Y-125951187D01*
X109980837Y-126130118D01*
X110278388Y-126253368D01*
X110594267Y-126316200D01*
X110916333Y-126316200D01*
X111232212Y-126253368D01*
X111529763Y-126130118D01*
X111797552Y-125951187D01*
X112025287Y-125723452D01*
X112025300Y-125723433D01*
X112025313Y-125723452D01*
X112253048Y-125951187D01*
X112520837Y-126130118D01*
X112818388Y-126253368D01*
X113134267Y-126316200D01*
X113456333Y-126316200D01*
X113772212Y-126253368D01*
X114069763Y-126130118D01*
X114337552Y-125951187D01*
X114565287Y-125723452D01*
X114565300Y-125723433D01*
X114565313Y-125723452D01*
X114793048Y-125951187D01*
X115060837Y-126130118D01*
X115358388Y-126253368D01*
X115674267Y-126316200D01*
X115996333Y-126316200D01*
X116312212Y-126253368D01*
X116609763Y-126130118D01*
X116877552Y-125951187D01*
X117105287Y-125723452D01*
X117105300Y-125723433D01*
X117105313Y-125723452D01*
X117333048Y-125951187D01*
X117600837Y-126130118D01*
X117898388Y-126253368D01*
X118214267Y-126316200D01*
X118536333Y-126316200D01*
X118852212Y-126253368D01*
X119149763Y-126130118D01*
X119417552Y-125951187D01*
X119645287Y-125723452D01*
X119645300Y-125723433D01*
X119645313Y-125723452D01*
X119873048Y-125951187D01*
X119873067Y-125951200D01*
X119873048Y-125951213D01*
X119645313Y-126178948D01*
X119466382Y-126446737D01*
X119343132Y-126744288D01*
X119280300Y-127060167D01*
X119280300Y-127382233D01*
X119343132Y-127698112D01*
X119466382Y-127995663D01*
X119645313Y-128263452D01*
X119873048Y-128491187D01*
X119873067Y-128491200D01*
X119873048Y-128491213D01*
X119645313Y-128718948D01*
X119466382Y-128986737D01*
X119343132Y-129284288D01*
X119280300Y-129600167D01*
X119280300Y-129922233D01*
X119343132Y-130238112D01*
X119466382Y-130535663D01*
X119645313Y-130803452D01*
X119873048Y-131031187D01*
X119873067Y-131031200D01*
X119873048Y-131031213D01*
X119645313Y-131258948D01*
X119466382Y-131526737D01*
X119343132Y-131824288D01*
X119280300Y-132140167D01*
X119280300Y-132462233D01*
X119343132Y-132778112D01*
X119466382Y-133075663D01*
X119645313Y-133343452D01*
X119873048Y-133571187D01*
X120140837Y-133750118D01*
X120438388Y-133873368D01*
X120754267Y-133936200D01*
X121076333Y-133936200D01*
X121392212Y-133873368D01*
X121689763Y-133750118D01*
X121957552Y-133571187D01*
X122185287Y-133343452D01*
X122185300Y-133343433D01*
X122185313Y-133343452D01*
X122413048Y-133571187D01*
X122680837Y-133750118D01*
X122978388Y-133873368D01*
X123294267Y-133936200D01*
X123616333Y-133936200D01*
X123932212Y-133873368D01*
X124229763Y-133750118D01*
X124497552Y-133571187D01*
X124725287Y-133343452D01*
X124725300Y-133343433D01*
X124725313Y-133343452D01*
X124953048Y-133571187D01*
X125220837Y-133750118D01*
X125518388Y-133873368D01*
X125834267Y-133936200D01*
X126156333Y-133936200D01*
X126472212Y-133873368D01*
X126769763Y-133750118D01*
X127037552Y-133571187D01*
X127265287Y-133343452D01*
X127265300Y-133343433D01*
X127265313Y-133343452D01*
X127493048Y-133571187D01*
X127760837Y-133750118D01*
X128058388Y-133873368D01*
X128374267Y-133936200D01*
X128696333Y-133936200D01*
X129012212Y-133873368D01*
X129309763Y-133750118D01*
X129577552Y-133571187D01*
X129805287Y-133343452D01*
X129805300Y-133343433D01*
X129805313Y-133343452D01*
X130033048Y-133571187D01*
X130300837Y-133750118D01*
X130598388Y-133873368D01*
X130914267Y-133936200D01*
X131236333Y-133936200D01*
X131552212Y-133873368D01*
X131849763Y-133750118D01*
X132117552Y-133571187D01*
X132345287Y-133343452D01*
X132345300Y-133343433D01*
X132345313Y-133343452D01*
X132573048Y-133571187D01*
X132840837Y-133750118D01*
X133138388Y-133873368D01*
X133454267Y-133936200D01*
X133776333Y-133936200D01*
X134092212Y-133873368D01*
X134389763Y-133750118D01*
X134657552Y-133571187D01*
X134885287Y-133343452D01*
X134885300Y-133343433D01*
X134885313Y-133343452D01*
X135113048Y-133571187D01*
X135380837Y-133750118D01*
X135678388Y-133873368D01*
X135994267Y-133936200D01*
X136316333Y-133936200D01*
X136632212Y-133873368D01*
X136929763Y-133750118D01*
X137197552Y-133571187D01*
X137425287Y-133343452D01*
X137425300Y-133343433D01*
X137425313Y-133343452D01*
X137653048Y-133571187D01*
X137920837Y-133750118D01*
X138218388Y-133873368D01*
X138534267Y-133936200D01*
X138856333Y-133936200D01*
X139172212Y-133873368D01*
X139469763Y-133750118D01*
X139737552Y-133571187D01*
X139965287Y-133343452D01*
X139965300Y-133343433D01*
X139965313Y-133343452D01*
X140193048Y-133571187D01*
X140460837Y-133750118D01*
X140758388Y-133873368D01*
X141074267Y-133936200D01*
X141396333Y-133936200D01*
X141712212Y-133873368D01*
X142009763Y-133750118D01*
X142277552Y-133571187D01*
X142505287Y-133343452D01*
X142505300Y-133343433D01*
X142505313Y-133343452D01*
X142733048Y-133571187D01*
X143000837Y-133750118D01*
X143298388Y-133873368D01*
X143614267Y-133936200D01*
X143936333Y-133936200D01*
X144252212Y-133873368D01*
X144549763Y-133750118D01*
X144817552Y-133571187D01*
X145045287Y-133343452D01*
X145045300Y-133343433D01*
X145045313Y-133343452D01*
X145273048Y-133571187D01*
X145540837Y-133750118D01*
X145838388Y-133873368D01*
X146154267Y-133936200D01*
X146476333Y-133936200D01*
X146792212Y-133873368D01*
X147089763Y-133750118D01*
X147357552Y-133571187D01*
X147585287Y-133343452D01*
X147585300Y-133343433D01*
X147585313Y-133343452D01*
X147813048Y-133571187D01*
X148080837Y-133750118D01*
X148378388Y-133873368D01*
X148694267Y-133936200D01*
X149016333Y-133936200D01*
X149332212Y-133873368D01*
X149629763Y-133750118D01*
X149897552Y-133571187D01*
X150125287Y-133343452D01*
X150125300Y-133343433D01*
X150125313Y-133343452D01*
X150353048Y-133571187D01*
X150620837Y-133750118D01*
X150918388Y-133873368D01*
X151234267Y-133936200D01*
X151556333Y-133936200D01*
X151872212Y-133873368D01*
X152169763Y-133750118D01*
X152437552Y-133571187D01*
X152665287Y-133343452D01*
X152665300Y-133343433D01*
X152665313Y-133343452D01*
X152893048Y-133571187D01*
X153160837Y-133750118D01*
X153458388Y-133873368D01*
X153774267Y-133936200D01*
X154096333Y-133936200D01*
X154412212Y-133873368D01*
X154709763Y-133750118D01*
X154977552Y-133571187D01*
X155205287Y-133343452D01*
X155205300Y-133343433D01*
X155205313Y-133343452D01*
X155433048Y-133571187D01*
X155700837Y-133750118D01*
X155998388Y-133873368D01*
X156314267Y-133936200D01*
X156636333Y-133936200D01*
X156952212Y-133873368D01*
X157249763Y-133750118D01*
X157517552Y-133571187D01*
X157745287Y-133343452D01*
X157745300Y-133343433D01*
X157745313Y-133343452D01*
X157973048Y-133571187D01*
X158240837Y-133750118D01*
X158538388Y-133873368D01*
X158854267Y-133936200D01*
X159176333Y-133936200D01*
X159492212Y-133873368D01*
X159789763Y-133750118D01*
X160057552Y-133571187D01*
X160285287Y-133343452D01*
X160464218Y-133075663D01*
X160587468Y-132778112D01*
X160650300Y-132462233D01*
X160650300Y-132140167D01*
X160587468Y-131824288D01*
X160464218Y-131526737D01*
X160285287Y-131258948D01*
X160057552Y-131031213D01*
X160057533Y-131031200D01*
X160057552Y-131031187D01*
X160285287Y-130803452D01*
X160464218Y-130535663D01*
X160478608Y-130500921D01*
X160860300Y-130500921D01*
X160860300Y-130921479D01*
X160942347Y-131333956D01*
X161103288Y-131722502D01*
X161336937Y-132072183D01*
X161634317Y-132369563D01*
X161983998Y-132603212D01*
X162372544Y-132764153D01*
X162785021Y-132846200D01*
X163205579Y-132846200D01*
X163618056Y-132764153D01*
X164006602Y-132603212D01*
X164356283Y-132369563D01*
X164653663Y-132072183D01*
X164887312Y-131722502D01*
X165048253Y-131333956D01*
X165130300Y-130921479D01*
X165130300Y-130500921D01*
X165048253Y-130088444D01*
X164887312Y-129699898D01*
X164653663Y-129350217D01*
X164356283Y-129052837D01*
X164006602Y-128819188D01*
X163618056Y-128658247D01*
X163205579Y-128576200D01*
X162785021Y-128576200D01*
X162372544Y-128658247D01*
X161983998Y-128819188D01*
X161634317Y-129052837D01*
X161336937Y-129350217D01*
X161103288Y-129699898D01*
X160942347Y-130088444D01*
X160860300Y-130500921D01*
X160478608Y-130500921D01*
X160587468Y-130238112D01*
X160650300Y-129922233D01*
X160650300Y-129600167D01*
X160587468Y-129284288D01*
X160464218Y-128986737D01*
X160285287Y-128718948D01*
X160057552Y-128491213D01*
X160057533Y-128491200D01*
X160057552Y-128491187D01*
X160285287Y-128263452D01*
X160464218Y-127995663D01*
X160587468Y-127698112D01*
X160650300Y-127382233D01*
X160650300Y-127060167D01*
X160587468Y-126744288D01*
X160464218Y-126446737D01*
X160285287Y-126178948D01*
X160057552Y-125951213D01*
X160057533Y-125951200D01*
X160057552Y-125951187D01*
X160285287Y-125723452D01*
X160464218Y-125455663D01*
X160531407Y-125293454D01*
X160780837Y-125460118D01*
X161078388Y-125583368D01*
X161394267Y-125646200D01*
X161716333Y-125646200D01*
X162032212Y-125583368D01*
X162329763Y-125460118D01*
X162597552Y-125281187D01*
X162825287Y-125053452D01*
X162930359Y-124896200D01*
X166657228Y-124896200D01*
X166657228Y-125211200D01*
X166669488Y-125335682D01*
X166705798Y-125455380D01*
X166764763Y-125565694D01*
X166844115Y-125662385D01*
X166940806Y-125741737D01*
X167051120Y-125800702D01*
X167170818Y-125837012D01*
X167295300Y-125849272D01*
X169695300Y-125849272D01*
X169819782Y-125837012D01*
X169939480Y-125800702D01*
X170049794Y-125741737D01*
X170146485Y-125662385D01*
X170225837Y-125565694D01*
X170284802Y-125455380D01*
X170321112Y-125335682D01*
X170333372Y-125211200D01*
X170333372Y-122811200D01*
X170321112Y-122686718D01*
X170284802Y-122567020D01*
X170225837Y-122456706D01*
X170146485Y-122360015D01*
X170049794Y-122280663D01*
X169939480Y-122221698D01*
X169819782Y-122185388D01*
X169695300Y-122173128D01*
X169278138Y-122173128D01*
X169364499Y-122137356D01*
X169665044Y-121936538D01*
X169920638Y-121680944D01*
X170121456Y-121380399D01*
X170259782Y-121046450D01*
X170330300Y-120691932D01*
X170330300Y-120330468D01*
X170259782Y-119975950D01*
X170121456Y-119642001D01*
X169920638Y-119341456D01*
X169665044Y-119085862D01*
X169364499Y-118885044D01*
X169065513Y-118761200D01*
X169364499Y-118637356D01*
X169665044Y-118436538D01*
X169920638Y-118180944D01*
X170121456Y-117880399D01*
X170259782Y-117546450D01*
X170330300Y-117191932D01*
X170330300Y-116830468D01*
X170259782Y-116475950D01*
X170121456Y-116142001D01*
X169920638Y-115841456D01*
X169665044Y-115585862D01*
X169364499Y-115385044D01*
X169030550Y-115246718D01*
X168676032Y-115176200D01*
X168314568Y-115176200D01*
X167960050Y-115246718D01*
X167626101Y-115385044D01*
X167325556Y-115585862D01*
X167069962Y-115841456D01*
X166879702Y-116126200D01*
X162930359Y-116126200D01*
X162825287Y-115968948D01*
X162597552Y-115741213D01*
X162329763Y-115562282D01*
X162032212Y-115439032D01*
X161716333Y-115376200D01*
X161394267Y-115376200D01*
X161078388Y-115439032D01*
X160780837Y-115562282D01*
X160513048Y-115741213D01*
X160285313Y-115968948D01*
X160178394Y-116128964D01*
X160168775Y-116114568D01*
X159961932Y-115907725D01*
X159900300Y-115866544D01*
X159900300Y-115715856D01*
X159961932Y-115674675D01*
X160168775Y-115467832D01*
X160331290Y-115224611D01*
X160443232Y-114954358D01*
X160500300Y-114667460D01*
X160500300Y-114374940D01*
X160443232Y-114088042D01*
X160331290Y-113817789D01*
X160168775Y-113574568D01*
X159961932Y-113367725D01*
X159922536Y-113341402D01*
X160057552Y-113251187D01*
X160192489Y-113116250D01*
X162139855Y-113116250D01*
X162235558Y-113380599D01*
X162525087Y-113521438D01*
X162836529Y-113603085D01*
X163157915Y-113622405D01*
X163476895Y-113578654D01*
X163781211Y-113473514D01*
X163955042Y-113380599D01*
X164050745Y-113116250D01*
X163095300Y-112160805D01*
X162139855Y-113116250D01*
X160192489Y-113116250D01*
X160285287Y-113023452D01*
X160464218Y-112755663D01*
X160587468Y-112458112D01*
X160650300Y-112142233D01*
X160650300Y-112043815D01*
X161454095Y-112043815D01*
X161497846Y-112362795D01*
X161602986Y-112667111D01*
X161695901Y-112840942D01*
X161960250Y-112936645D01*
X162915695Y-111981200D01*
X163274905Y-111981200D01*
X164230350Y-112936645D01*
X164494699Y-112840942D01*
X164635538Y-112551413D01*
X164717185Y-112239971D01*
X164736505Y-111918585D01*
X164692754Y-111599605D01*
X164587614Y-111295289D01*
X164494699Y-111121458D01*
X164230350Y-111025755D01*
X163274905Y-111981200D01*
X162915695Y-111981200D01*
X161960250Y-111025755D01*
X161695901Y-111121458D01*
X161555062Y-111410987D01*
X161473415Y-111722429D01*
X161454095Y-112043815D01*
X160650300Y-112043815D01*
X160650300Y-111820167D01*
X160587468Y-111504288D01*
X160464218Y-111206737D01*
X160285287Y-110938948D01*
X160057552Y-110711213D01*
X159922536Y-110620998D01*
X159961932Y-110594675D01*
X159980357Y-110576250D01*
X162139855Y-110576250D01*
X162188711Y-110711200D01*
X162139855Y-110846150D01*
X163095300Y-111801595D01*
X164050745Y-110846150D01*
X164001889Y-110711200D01*
X164050745Y-110576250D01*
X163975416Y-110500921D01*
X167860300Y-110500921D01*
X167860300Y-110921479D01*
X167942347Y-111333956D01*
X168103288Y-111722502D01*
X168336937Y-112072183D01*
X168634317Y-112369563D01*
X168983998Y-112603212D01*
X169372544Y-112764153D01*
X169785021Y-112846200D01*
X170205579Y-112846200D01*
X170618056Y-112764153D01*
X171006602Y-112603212D01*
X171356283Y-112369563D01*
X171653663Y-112072183D01*
X171887312Y-111722502D01*
X172048253Y-111333956D01*
X172130300Y-110921479D01*
X172130300Y-110500921D01*
X172048253Y-110088444D01*
X171887312Y-109699898D01*
X171653663Y-109350217D01*
X171356283Y-109052837D01*
X171006602Y-108819188D01*
X170618056Y-108658247D01*
X170205579Y-108576200D01*
X169785021Y-108576200D01*
X169372544Y-108658247D01*
X168983998Y-108819188D01*
X168634317Y-109052837D01*
X168336937Y-109350217D01*
X168103288Y-109699898D01*
X167942347Y-110088444D01*
X167860300Y-110500921D01*
X163975416Y-110500921D01*
X163095300Y-109620805D01*
X162139855Y-110576250D01*
X159980357Y-110576250D01*
X160168775Y-110387832D01*
X160331290Y-110144611D01*
X160443232Y-109874358D01*
X160500300Y-109587460D01*
X160500300Y-109503815D01*
X161454095Y-109503815D01*
X161497846Y-109822795D01*
X161602986Y-110127111D01*
X161695901Y-110300942D01*
X161960250Y-110396645D01*
X162915695Y-109441200D01*
X163274905Y-109441200D01*
X164230350Y-110396645D01*
X164494699Y-110300942D01*
X164635538Y-110011413D01*
X164717185Y-109699971D01*
X164736505Y-109378585D01*
X164692754Y-109059605D01*
X164587614Y-108755289D01*
X164494699Y-108581458D01*
X164230350Y-108485755D01*
X163274905Y-109441200D01*
X162915695Y-109441200D01*
X161960250Y-108485755D01*
X161695901Y-108581458D01*
X161555062Y-108870987D01*
X161473415Y-109182429D01*
X161454095Y-109503815D01*
X160500300Y-109503815D01*
X160500300Y-109294940D01*
X160443232Y-109008042D01*
X160331290Y-108737789D01*
X160168775Y-108494568D01*
X159980357Y-108306150D01*
X162139855Y-108306150D01*
X163095300Y-109261595D01*
X164050745Y-108306150D01*
X163955042Y-108041801D01*
X163665513Y-107900962D01*
X163354071Y-107819315D01*
X163032685Y-107799995D01*
X162713705Y-107843746D01*
X162409389Y-107948886D01*
X162235558Y-108041801D01*
X162139855Y-108306150D01*
X159980357Y-108306150D01*
X159961932Y-108287725D01*
X159900300Y-108246544D01*
X159900300Y-108095856D01*
X159961932Y-108054675D01*
X160168775Y-107847832D01*
X160331290Y-107604611D01*
X160443232Y-107334358D01*
X160500300Y-107047460D01*
X160500300Y-106754940D01*
X160443232Y-106468042D01*
X160331290Y-106197789D01*
X160168775Y-105954568D01*
X159961932Y-105747725D01*
X159922536Y-105721402D01*
X160057552Y-105631187D01*
X160265275Y-105423464D01*
X160285313Y-105453452D01*
X160513048Y-105681187D01*
X160780837Y-105860118D01*
X161078388Y-105983368D01*
X161394267Y-106046200D01*
X161716333Y-106046200D01*
X162032212Y-105983368D01*
X162329763Y-105860118D01*
X162597552Y-105681187D01*
X162825287Y-105453452D01*
X162930359Y-105296200D01*
X166657228Y-105296200D01*
X166657228Y-105611200D01*
X166669488Y-105735682D01*
X166705798Y-105855380D01*
X166764763Y-105965694D01*
X166844115Y-106062385D01*
X166940806Y-106141737D01*
X167051120Y-106200702D01*
X167170818Y-106237012D01*
X167295300Y-106249272D01*
X169695300Y-106249272D01*
X169819782Y-106237012D01*
X169939480Y-106200702D01*
X170049794Y-106141737D01*
X170146485Y-106062385D01*
X170225837Y-105965694D01*
X170284802Y-105855380D01*
X170321112Y-105735682D01*
X170333372Y-105611200D01*
X170333372Y-103211200D01*
X170321112Y-103086718D01*
X170284802Y-102967020D01*
X170225837Y-102856706D01*
X170146485Y-102760015D01*
X170049794Y-102680663D01*
X169939480Y-102621698D01*
X169819782Y-102585388D01*
X169695300Y-102573128D01*
X169278138Y-102573128D01*
X169364499Y-102537356D01*
X169665044Y-102336538D01*
X169920638Y-102080944D01*
X170121456Y-101780399D01*
X170259782Y-101446450D01*
X170330300Y-101091932D01*
X170330300Y-100730468D01*
X170259782Y-100375950D01*
X170121456Y-100042001D01*
X169920638Y-99741456D01*
X169665044Y-99485862D01*
X169364499Y-99285044D01*
X169065513Y-99161200D01*
X169364499Y-99037356D01*
X169665044Y-98836538D01*
X169920638Y-98580944D01*
X170121456Y-98280399D01*
X170259782Y-97946450D01*
X170330300Y-97591932D01*
X170330300Y-97230468D01*
X170259782Y-96875950D01*
X170121456Y-96542001D01*
X169920638Y-96241456D01*
X169665044Y-95985862D01*
X169364499Y-95785044D01*
X169030550Y-95646718D01*
X168676032Y-95576200D01*
X168314568Y-95576200D01*
X167960050Y-95646718D01*
X167626101Y-95785044D01*
X167325556Y-95985862D01*
X167069962Y-96241456D01*
X166879702Y-96526200D01*
X162930359Y-96526200D01*
X162825287Y-96368948D01*
X162597552Y-96141213D01*
X162329763Y-95962282D01*
X162032212Y-95839032D01*
X161716333Y-95776200D01*
X161394267Y-95776200D01*
X161078388Y-95839032D01*
X160780837Y-95962282D01*
X160513048Y-96141213D01*
X160414818Y-96239443D01*
X160331290Y-96037789D01*
X160168775Y-95794568D01*
X159961932Y-95587725D01*
X159787540Y-95471200D01*
X159961932Y-95354675D01*
X160168775Y-95147832D01*
X160331290Y-94904611D01*
X160443232Y-94634358D01*
X160500300Y-94347460D01*
X160500300Y-94054940D01*
X160443232Y-93768042D01*
X160331290Y-93497789D01*
X160168775Y-93254568D01*
X159961932Y-93047725D01*
X159900300Y-93006544D01*
X159900300Y-92855856D01*
X159961932Y-92814675D01*
X160168775Y-92607832D01*
X160331290Y-92364611D01*
X160443232Y-92094358D01*
X160500300Y-91807460D01*
X160500300Y-91514940D01*
X160443232Y-91228042D01*
X160331290Y-90957789D01*
X160168775Y-90714568D01*
X159961932Y-90507725D01*
X159951749Y-90500921D01*
X160860300Y-90500921D01*
X160860300Y-90921479D01*
X160942347Y-91333956D01*
X161103288Y-91722502D01*
X161336937Y-92072183D01*
X161634317Y-92369563D01*
X161983998Y-92603212D01*
X162372544Y-92764153D01*
X162785021Y-92846200D01*
X163205579Y-92846200D01*
X163618056Y-92764153D01*
X164006602Y-92603212D01*
X164356283Y-92369563D01*
X164653663Y-92072183D01*
X164887312Y-91722502D01*
X165048253Y-91333956D01*
X165130300Y-90921479D01*
X165130300Y-90500921D01*
X165048253Y-90088444D01*
X164887312Y-89699898D01*
X164653663Y-89350217D01*
X164356283Y-89052837D01*
X164006602Y-88819188D01*
X163618056Y-88658247D01*
X163205579Y-88576200D01*
X162785021Y-88576200D01*
X162372544Y-88658247D01*
X161983998Y-88819188D01*
X161634317Y-89052837D01*
X161336937Y-89350217D01*
X161103288Y-89699898D01*
X160942347Y-90088444D01*
X160860300Y-90500921D01*
X159951749Y-90500921D01*
X159949200Y-90499218D01*
X159949200Y-90463586D01*
X160057552Y-90391187D01*
X160285287Y-90163452D01*
X160464218Y-89895663D01*
X160587468Y-89598112D01*
X160650300Y-89282233D01*
X160650300Y-88960167D01*
X160587468Y-88644288D01*
X160464218Y-88346737D01*
X160285287Y-88078948D01*
X160057552Y-87851213D01*
X159789763Y-87672282D01*
X159492212Y-87549032D01*
X159176333Y-87486200D01*
X158854267Y-87486200D01*
X158538388Y-87549032D01*
X158240837Y-87672282D01*
X157973048Y-87851213D01*
X157745313Y-88078948D01*
X157745300Y-88078967D01*
X157745287Y-88078948D01*
X157517552Y-87851213D01*
X157249763Y-87672282D01*
X156952212Y-87549032D01*
X156636333Y-87486200D01*
X156314267Y-87486200D01*
X155998388Y-87549032D01*
X155700837Y-87672282D01*
X155433048Y-87851213D01*
X155205313Y-88078948D01*
X155205300Y-88078967D01*
X155205287Y-88078948D01*
X154977552Y-87851213D01*
X154709763Y-87672282D01*
X154412212Y-87549032D01*
X154096333Y-87486200D01*
X153774267Y-87486200D01*
X153458388Y-87549032D01*
X153160837Y-87672282D01*
X152893048Y-87851213D01*
X152665313Y-88078948D01*
X152665300Y-88078967D01*
X152665287Y-88078948D01*
X152437552Y-87851213D01*
X152169763Y-87672282D01*
X151872212Y-87549032D01*
X151556333Y-87486200D01*
X151234267Y-87486200D01*
X150918388Y-87549032D01*
X150620837Y-87672282D01*
X150353048Y-87851213D01*
X150125313Y-88078948D01*
X150125300Y-88078967D01*
X150125287Y-88078948D01*
X149897552Y-87851213D01*
X149629763Y-87672282D01*
X149332212Y-87549032D01*
X149016333Y-87486200D01*
X148694267Y-87486200D01*
X148378388Y-87549032D01*
X148080837Y-87672282D01*
X147813048Y-87851213D01*
X147585313Y-88078948D01*
X147585300Y-88078967D01*
X147585287Y-88078948D01*
X147357552Y-87851213D01*
X147089763Y-87672282D01*
X146792212Y-87549032D01*
X146476333Y-87486200D01*
X146154267Y-87486200D01*
X145838388Y-87549032D01*
X145540837Y-87672282D01*
X145273048Y-87851213D01*
X145045313Y-88078948D01*
X145045300Y-88078967D01*
X145045287Y-88078948D01*
X144817552Y-87851213D01*
X144549763Y-87672282D01*
X144252212Y-87549032D01*
X143936333Y-87486200D01*
X143614267Y-87486200D01*
X143298388Y-87549032D01*
X143000837Y-87672282D01*
X142733048Y-87851213D01*
X142505313Y-88078948D01*
X142505300Y-88078967D01*
X142505287Y-88078948D01*
X142277552Y-87851213D01*
X142009763Y-87672282D01*
X141712212Y-87549032D01*
X141396333Y-87486200D01*
X141074267Y-87486200D01*
X140758388Y-87549032D01*
X140460837Y-87672282D01*
X140193048Y-87851213D01*
X139965313Y-88078948D01*
X139965300Y-88078967D01*
X139965287Y-88078948D01*
X139737552Y-87851213D01*
X139469763Y-87672282D01*
X139172212Y-87549032D01*
X138856333Y-87486200D01*
X138534267Y-87486200D01*
X138218388Y-87549032D01*
X137920837Y-87672282D01*
X137653048Y-87851213D01*
X137425313Y-88078948D01*
X137425300Y-88078967D01*
X137425287Y-88078948D01*
X137197552Y-87851213D01*
X136929763Y-87672282D01*
X136632212Y-87549032D01*
X136316333Y-87486200D01*
X135994267Y-87486200D01*
X135678388Y-87549032D01*
X135380837Y-87672282D01*
X135113048Y-87851213D01*
X134885313Y-88078948D01*
X134885300Y-88078967D01*
X134885287Y-88078948D01*
X134657552Y-87851213D01*
X134389763Y-87672282D01*
X134092212Y-87549032D01*
X133776333Y-87486200D01*
X133454267Y-87486200D01*
X133138388Y-87549032D01*
X132840837Y-87672282D01*
X132573048Y-87851213D01*
X132345313Y-88078948D01*
X132345300Y-88078967D01*
X132345287Y-88078948D01*
X132117552Y-87851213D01*
X131849763Y-87672282D01*
X131552212Y-87549032D01*
X131236333Y-87486200D01*
X130914267Y-87486200D01*
X130598388Y-87549032D01*
X130300837Y-87672282D01*
X130033048Y-87851213D01*
X129805313Y-88078948D01*
X129805300Y-88078967D01*
X129805287Y-88078948D01*
X129577552Y-87851213D01*
X129309763Y-87672282D01*
X129012212Y-87549032D01*
X128696333Y-87486200D01*
X128374267Y-87486200D01*
X128058388Y-87549032D01*
X127760837Y-87672282D01*
X127493048Y-87851213D01*
X127265313Y-88078948D01*
X127265300Y-88078967D01*
X127265287Y-88078948D01*
X127037552Y-87851213D01*
X126769763Y-87672282D01*
X126472212Y-87549032D01*
X126156333Y-87486200D01*
X125834267Y-87486200D01*
X125518388Y-87549032D01*
X125220837Y-87672282D01*
X124953048Y-87851213D01*
X124725313Y-88078948D01*
X124725300Y-88078967D01*
X124725287Y-88078948D01*
X124497552Y-87851213D01*
X124229763Y-87672282D01*
X123932212Y-87549032D01*
X123616333Y-87486200D01*
X123294267Y-87486200D01*
X122978388Y-87549032D01*
X122680837Y-87672282D01*
X122413048Y-87851213D01*
X122185313Y-88078948D01*
X122185300Y-88078967D01*
X122185287Y-88078948D01*
X121957552Y-87851213D01*
X121689763Y-87672282D01*
X121392212Y-87549032D01*
X121076333Y-87486200D01*
X120754267Y-87486200D01*
X120438388Y-87549032D01*
X120140837Y-87672282D01*
X119873048Y-87851213D01*
X119645313Y-88078948D01*
X119645300Y-88078967D01*
X119645287Y-88078948D01*
X119417552Y-87851213D01*
X119149763Y-87672282D01*
X118852212Y-87549032D01*
X118536333Y-87486200D01*
X118214267Y-87486200D01*
X117898388Y-87549032D01*
X117600837Y-87672282D01*
X117333048Y-87851213D01*
X117105313Y-88078948D01*
X117105300Y-88078967D01*
X117105287Y-88078948D01*
X116877552Y-87851213D01*
X116609763Y-87672282D01*
X116312212Y-87549032D01*
X115996333Y-87486200D01*
X115674267Y-87486200D01*
X115358388Y-87549032D01*
X115060837Y-87672282D01*
X114793048Y-87851213D01*
X114565313Y-88078948D01*
X114565300Y-88078967D01*
X114565287Y-88078948D01*
X114337552Y-87851213D01*
X114069763Y-87672282D01*
X113772212Y-87549032D01*
X113456333Y-87486200D01*
X113134267Y-87486200D01*
X112818388Y-87549032D01*
X112520837Y-87672282D01*
X112253048Y-87851213D01*
X112025313Y-88078948D01*
X112025300Y-88078967D01*
X112025287Y-88078948D01*
X111797552Y-87851213D01*
X111529763Y-87672282D01*
X111232212Y-87549032D01*
X110916333Y-87486200D01*
X110594267Y-87486200D01*
X110278388Y-87549032D01*
X109980837Y-87672282D01*
X109713048Y-87851213D01*
X109485313Y-88078948D01*
X109306382Y-88346737D01*
X109183132Y-88644288D01*
X109120300Y-88960167D01*
X107084879Y-88960167D01*
X107286927Y-88472381D01*
X107318931Y-88373884D01*
X107557038Y-87382098D01*
X107573239Y-87279807D01*
X107605397Y-86871200D01*
X168385203Y-86871200D01*
X168417361Y-87279807D01*
M02*
