M48
; DRILL file {KiCad 5.1.5+dfsg1-2build2} date mar 16 nov 2021 14:52:33
; FORMAT={-:-/ absolute / metric / decimal}
; #@! TF.CreationDate,2021-11-16T14:52:33-05:00
; #@! TF.GenerationSoftware,Kicad,Pcbnew,5.1.5+dfsg1-2build2
; #@! TF.FileFunction,Plated,1,2,PTH
FMAT,2
METRIC
T1C0.800
T2C1.000
T3C1.200
%
G90
G05
T1
X175.262Y-70.995
X175.262Y-73.535
X175.262Y-119.995
X175.262Y-122.535
T2
X121.922Y-122.535
X124.462Y-122.535
X127.002Y-122.535
X129.542Y-122.535
X132.082Y-122.535
X134.622Y-122.535
X137.162Y-122.535
X139.702Y-122.535
X142.242Y-122.535
X144.782Y-122.535
X147.322Y-122.535
X149.862Y-122.535
X152.402Y-122.535
X154.942Y-122.535
X157.482Y-122.535
X160.022Y-122.535
X162.562Y-122.535
X165.102Y-122.535
X167.642Y-122.535
X170.182Y-122.535
X121.922Y-76.075
X124.462Y-76.075
X127.002Y-76.075
X129.542Y-76.075
X132.082Y-76.075
X134.622Y-76.075
X137.162Y-76.075
X139.702Y-76.075
X142.242Y-76.075
X144.782Y-76.075
X147.322Y-76.075
X149.862Y-76.075
X152.402Y-76.075
X154.942Y-76.075
X157.482Y-76.075
X160.022Y-76.075
X162.562Y-76.075
X165.102Y-76.075
X167.642Y-76.075
X170.182Y-76.075
X121.922Y-81.155
X124.462Y-81.155
X127.002Y-81.155
X129.542Y-81.155
X132.082Y-81.155
X134.622Y-81.155
X137.162Y-81.155
X139.702Y-81.155
X142.242Y-81.155
X144.782Y-81.155
X147.322Y-81.155
X149.862Y-81.155
X152.402Y-81.155
X154.942Y-81.155
X157.482Y-81.155
X160.022Y-81.155
X162.562Y-81.155
X165.102Y-81.155
X167.642Y-81.155
X170.182Y-81.155
X121.922Y-53.215
X124.462Y-53.215
X127.002Y-53.215
X129.542Y-53.215
X132.082Y-53.215
X134.622Y-53.215
X137.162Y-53.215
X139.702Y-53.215
X142.242Y-53.215
X144.782Y-53.215
X147.322Y-53.215
X149.862Y-53.215
X152.402Y-53.215
X154.942Y-53.215
X157.482Y-53.215
X160.022Y-53.215
X162.562Y-53.215
X165.102Y-53.215
X167.642Y-53.215
X170.182Y-53.215
X121.922Y-73.535
X124.462Y-73.535
X127.002Y-73.535
X129.542Y-73.535
X132.082Y-73.535
X134.622Y-73.535
X137.162Y-73.535
X139.702Y-73.535
X142.242Y-73.535
X144.782Y-73.535
X147.322Y-73.535
X149.862Y-73.535
X152.402Y-73.535
X154.942Y-73.535
X157.482Y-73.535
X160.022Y-73.535
X162.562Y-73.535
X165.102Y-73.535
X167.642Y-73.535
X170.182Y-73.535
X121.922Y-125.075
X124.462Y-125.075
X127.002Y-125.075
X129.542Y-125.075
X132.082Y-125.075
X134.622Y-125.075
X137.162Y-125.075
X139.702Y-125.075
X142.242Y-125.075
X144.782Y-125.075
X147.322Y-125.075
X149.862Y-125.075
X152.402Y-125.075
X154.942Y-125.075
X157.482Y-125.075
X160.022Y-125.075
X162.562Y-125.075
X165.102Y-125.075
X167.642Y-125.075
X170.182Y-125.075
X121.922Y-78.615
X124.462Y-78.615
X127.002Y-78.615
X129.542Y-78.615
X132.082Y-78.615
X134.622Y-78.615
X137.162Y-78.615
X139.702Y-78.615
X142.242Y-78.615
X144.782Y-78.615
X147.322Y-78.615
X149.862Y-78.615
X152.402Y-78.615
X154.942Y-78.615
X157.482Y-78.615
X160.022Y-78.615
X162.562Y-78.615
X165.102Y-78.615
X167.642Y-78.615
X170.182Y-78.615
X121.922Y-102.215
X124.462Y-102.215
X127.002Y-102.215
X129.542Y-102.215
X132.082Y-102.215
X134.622Y-102.215
X137.162Y-102.215
X139.702Y-102.215
X142.242Y-102.215
X144.782Y-102.215
X147.322Y-102.215
X149.862Y-102.215
X152.402Y-102.215
X154.942Y-102.215
X157.482Y-102.215
X160.022Y-102.215
X162.562Y-102.215
X165.102Y-102.215
X167.642Y-102.215
X170.182Y-102.215
X121.922Y-127.615
X124.462Y-127.615
X127.002Y-127.615
X129.542Y-127.615
X132.082Y-127.615
X134.622Y-127.615
X137.162Y-127.615
X139.702Y-127.615
X142.242Y-127.615
X144.782Y-127.615
X147.322Y-127.615
X149.862Y-127.615
X152.402Y-127.615
X154.942Y-127.615
X157.482Y-127.615
X160.022Y-127.615
X162.562Y-127.615
X165.102Y-127.615
X167.642Y-127.615
X170.182Y-127.615
X121.922Y-130.155
X124.462Y-130.155
X127.002Y-130.155
X129.542Y-130.155
X132.082Y-130.155
X134.622Y-130.155
X137.162Y-130.155
X139.702Y-130.155
X142.242Y-130.155
X144.782Y-130.155
X147.322Y-130.155
X149.862Y-130.155
X152.402Y-130.155
X154.942Y-130.155
X157.482Y-130.155
X160.022Y-130.155
X162.562Y-130.155
X165.102Y-130.155
X167.642Y-130.155
X170.182Y-130.155
X121.922Y-70.995
X124.462Y-70.995
X127.002Y-70.995
X129.542Y-70.995
X132.082Y-70.995
X134.622Y-70.995
X137.162Y-70.995
X139.702Y-70.995
X142.242Y-70.995
X144.782Y-70.995
X147.322Y-70.995
X149.862Y-70.995
X152.402Y-70.995
X154.942Y-70.995
X157.482Y-70.995
X160.022Y-70.995
X162.562Y-70.995
X165.102Y-70.995
X167.642Y-70.995
X170.182Y-70.995
X121.922Y-119.995
X124.462Y-119.995
X127.002Y-119.995
X129.542Y-119.995
X132.082Y-119.995
X134.622Y-119.995
X137.162Y-119.995
X139.702Y-119.995
X142.242Y-119.995
X144.782Y-119.995
X147.322Y-119.995
X149.862Y-119.995
X152.402Y-119.995
X154.942Y-119.995
X157.482Y-119.995
X160.022Y-119.995
X162.562Y-119.995
X165.102Y-119.995
X167.642Y-119.995
X170.182Y-119.995
T3
X132.082Y-60.835
X162.562Y-58.295
X132.082Y-137.775
X170.182Y-99.675
X170.182Y-137.775
X137.162Y-88.775
X139.702Y-83.695
X157.482Y-68.455
X147.322Y-114.915
X144.782Y-142.855
X144.782Y-93.855
X165.102Y-83.695
X165.102Y-50.675
X127.002Y-112.375
X121.922Y-135.235
X134.622Y-135.235
X124.462Y-60.835
X162.562Y-117.455
X179.662Y-107.965
X179.662Y-111.465
X179.662Y-114.965
X162.562Y-68.455
X149.862Y-91.315
X127.002Y-109.835
X137.162Y-60.835
X170.182Y-63.375
X167.642Y-109.835
X121.922Y-83.695
X134.622Y-107.295
X157.482Y-107.295
X134.622Y-55.755
X144.782Y-63.375
X154.942Y-63.375
X152.402Y-135.235
X152.402Y-99.675
X170.182Y-50.675
X160.022Y-142.855
X124.462Y-50.675
X121.922Y-68.455
X142.242Y-117.455
X129.542Y-132.695
X129.542Y-104.755
X137.162Y-65.915
X121.922Y-86.235
X154.942Y-99.675
X157.482Y-83.695
X124.462Y-109.835
X167.642Y-112.375
X160.022Y-112.375
X134.622Y-88.775
X170.182Y-68.455
X157.482Y-109.835
X154.942Y-93.855
X167.642Y-58.295
X170.182Y-60.835
X167.642Y-83.695
X172.722Y-114.965
X139.702Y-50.675
X124.462Y-104.755
X139.702Y-109.835
X167.642Y-132.695
X129.542Y-117.455
X132.082Y-135.235
X162.562Y-99.675
X157.482Y-60.835
X172.722Y-78.565
X170.182Y-142.855
X139.702Y-58.295
X170.182Y-114.915
X132.082Y-88.775
X137.162Y-142.855
X142.242Y-68.455
X132.082Y-50.675
X132.082Y-83.695
X127.002Y-83.695
X121.922Y-104.755
X160.022Y-104.755
X165.102Y-93.855
X165.102Y-60.835
X132.082Y-140.315
X170.182Y-135.235
X144.782Y-50.675
X152.402Y-140.315
X149.862Y-107.295
X134.622Y-142.855
X137.162Y-112.375
X127.002Y-114.915
X127.002Y-107.295
X160.022Y-135.235
X144.782Y-99.675
X165.102Y-137.775
X170.182Y-93.855
X127.002Y-60.835
X121.922Y-58.295
X124.462Y-65.915
X170.182Y-140.315
X152.402Y-107.295
X139.702Y-93.855
X147.322Y-140.315
X144.782Y-83.695
X127.002Y-55.755
X167.642Y-86.235
X157.482Y-132.695
X152.402Y-65.915
X139.702Y-107.295
X149.862Y-109.835
X165.102Y-107.295
X121.922Y-117.455
X149.862Y-137.775
X154.942Y-137.775
X132.082Y-63.375
X147.322Y-132.695
X127.002Y-99.675
X167.642Y-63.375
X162.562Y-142.855
X147.322Y-104.755
X144.782Y-104.755
X162.562Y-135.235
X129.542Y-86.235
X154.942Y-88.775
X154.942Y-65.915
X172.722Y-85.565
X154.942Y-83.695
X165.102Y-109.835
X129.542Y-83.695
X129.542Y-114.915
X152.402Y-117.455
X170.182Y-104.755
X170.182Y-112.375
X152.402Y-112.375
X137.162Y-99.675
X149.862Y-50.675
X137.162Y-83.695
X134.622Y-86.235
X152.402Y-137.775
X147.322Y-83.695
X154.942Y-142.855
X162.562Y-91.315
X172.722Y-111.465
X167.642Y-107.295
X134.622Y-93.855
X157.482Y-58.295
X127.002Y-65.915
X162.562Y-83.695
X142.242Y-112.375
X157.482Y-99.675
X152.402Y-88.775
X144.782Y-140.315
X137.162Y-137.775
X179.662Y-58.965
X179.662Y-62.465
X179.662Y-65.965
X129.542Y-112.375
X132.082Y-65.915
X147.322Y-88.775
X170.182Y-117.455
X142.242Y-114.915
X129.542Y-68.455
X167.642Y-65.915
X129.542Y-50.675
X152.402Y-58.295
X167.642Y-114.915
X144.782Y-88.775
X139.702Y-91.315
X129.542Y-109.835
X160.022Y-55.755
X170.182Y-109.835
X137.162Y-107.295
X162.562Y-104.755
X160.022Y-107.295
X149.862Y-93.855
X144.782Y-55.755
X157.482Y-65.915
X142.242Y-86.235
X149.862Y-135.235
X160.022Y-140.315
X142.242Y-107.295
X127.002Y-63.375
X137.162Y-91.315
X170.182Y-91.315
X132.082Y-104.755
X165.102Y-91.315
X121.922Y-55.755
X165.102Y-55.755
X144.782Y-60.835
X172.722Y-107.965
X165.102Y-88.775
X124.462Y-114.915
X149.862Y-55.755
X162.562Y-86.235
X154.942Y-109.835
X157.482Y-112.375
X132.082Y-58.295
X157.482Y-63.375
X160.022Y-109.835
X165.102Y-58.295
X137.162Y-86.235
X172.722Y-127.565
X162.562Y-109.835
X147.322Y-58.295
X165.102Y-132.695
X160.022Y-137.775
X132.082Y-117.455
X165.102Y-99.675
X154.942Y-50.675
X124.462Y-135.235
X147.322Y-93.855
X170.182Y-86.235
X142.242Y-140.315
X144.782Y-65.915
X139.702Y-142.855
X121.922Y-112.375
X139.702Y-137.775
X139.702Y-135.235
X154.942Y-114.915
X154.942Y-58.295
X160.022Y-132.695
X134.622Y-99.675
X157.482Y-91.315
X132.082Y-114.915
X157.482Y-117.455
X162.562Y-50.675
X129.542Y-107.295
X139.702Y-60.835
X157.482Y-135.235
X127.002Y-117.455
X147.322Y-99.675
X142.242Y-63.375
X137.162Y-55.755
X147.322Y-60.835
X165.102Y-117.455
X132.082Y-112.375
X121.922Y-50.675
X149.862Y-142.855
X154.942Y-107.295
X134.622Y-58.295
X137.162Y-117.455
X167.642Y-50.675
X142.242Y-137.775
X179.662Y-127.565
X179.662Y-131.065
X179.662Y-134.565
X144.782Y-107.295
X139.702Y-86.235
X132.082Y-68.455
X149.862Y-83.695
X152.402Y-109.835
X134.622Y-63.375
X154.942Y-55.755
X170.182Y-58.295
X121.922Y-63.375
X137.162Y-140.315
X129.542Y-135.235
X144.782Y-91.315
X152.402Y-93.855
X139.702Y-55.755
X149.862Y-60.835
X167.642Y-60.835
X152.402Y-86.235
X144.782Y-132.695
X165.102Y-65.915
X160.022Y-60.835
X124.462Y-99.675
X142.242Y-58.295
X170.182Y-65.915
X137.162Y-50.675
X149.862Y-104.755
X154.942Y-104.755
X170.182Y-132.695
X165.102Y-135.235
X142.242Y-91.315
X172.722Y-65.965
X160.022Y-117.455
X134.622Y-112.375
X170.182Y-83.695
X137.162Y-114.915
X154.942Y-117.455
X124.462Y-132.695
X121.922Y-107.295
X124.462Y-86.235
X165.102Y-112.375
X149.862Y-112.375
X139.702Y-99.675
X134.622Y-91.315
X142.242Y-50.675
X134.622Y-65.915
X142.242Y-132.695
X144.782Y-114.915
X170.182Y-107.295
X129.542Y-60.835
X152.402Y-55.755
X124.462Y-58.295
X139.702Y-65.915
X149.862Y-63.375
X165.102Y-114.915
X170.182Y-88.775
X142.242Y-93.855
X139.702Y-88.775
X134.622Y-140.315
X152.402Y-83.695
X129.542Y-55.755
X139.702Y-63.375
X132.082Y-132.695
X121.922Y-60.835
X167.642Y-117.455
X157.482Y-50.675
X152.402Y-60.835
X154.942Y-132.695
X134.622Y-117.455
X154.942Y-91.315
X152.402Y-142.855
X165.102Y-104.755
X139.702Y-104.755
X160.022Y-91.315
X127.002Y-50.675
X132.082Y-91.315
X144.782Y-135.235
X147.322Y-91.315
X127.002Y-58.295
X134.622Y-104.755
X162.562Y-93.855
X157.482Y-86.235
X157.482Y-114.915
X149.862Y-117.455
X132.082Y-109.835
X121.922Y-114.915
X154.942Y-112.375
X172.722Y-82.065
X165.102Y-140.315
X134.622Y-83.695
X152.402Y-114.915
X172.722Y-131.065
X132.082Y-86.235
X142.242Y-83.695
X142.242Y-109.835
X160.022Y-93.855
X147.322Y-68.455
X167.642Y-140.315
X149.862Y-114.915
X152.402Y-132.695
X167.642Y-99.675
X147.322Y-65.915
X160.022Y-65.915
X147.322Y-50.675
X134.622Y-50.675
X160.022Y-58.295
X139.702Y-140.315
X160.022Y-68.455
X162.562Y-140.315
X142.242Y-142.855
X160.022Y-114.915
X167.642Y-88.775
X124.462Y-112.375
X121.922Y-65.915
X162.562Y-114.915
X137.162Y-135.235
X132.082Y-55.755
X129.542Y-63.375
X149.862Y-86.235
X137.162Y-68.455
X149.862Y-140.315
X160.022Y-88.775
X160.022Y-83.695
X132.082Y-99.675
X137.162Y-63.375
X134.622Y-114.915
X142.242Y-88.775
X132.082Y-107.295
X167.642Y-91.315
X154.942Y-135.235
X149.862Y-99.675
X167.642Y-93.855
X152.402Y-63.375
X127.002Y-104.755
X137.162Y-93.855
X121.922Y-109.835
X124.462Y-55.755
X167.642Y-55.755
X162.562Y-63.375
X147.322Y-112.375
X162.562Y-112.375
X127.002Y-68.455
X157.482Y-142.855
X127.002Y-132.695
X152.402Y-91.315
X137.162Y-58.295
X149.862Y-58.295
X134.622Y-68.455
X147.322Y-86.235
X149.862Y-65.915
X149.862Y-88.775
X137.162Y-109.835
X162.562Y-132.695
X124.462Y-117.455
X160.022Y-99.675
X162.562Y-88.775
X160.022Y-63.375
X134.622Y-137.775
X121.922Y-99.675
X124.462Y-83.695
X152.402Y-104.755
X157.482Y-104.755
X162.562Y-60.835
X147.322Y-137.775
X167.642Y-135.235
X152.402Y-50.675
X157.482Y-140.315
X144.782Y-58.295
X154.942Y-140.315
X132.082Y-142.855
X144.782Y-68.455
X149.862Y-68.455
X139.702Y-68.455
X139.702Y-114.915
X137.162Y-132.695
X172.722Y-62.465
X147.322Y-142.855
X124.462Y-107.295
X170.182Y-55.755
X154.942Y-68.455
X167.642Y-68.455
X144.782Y-86.235
X147.322Y-63.375
X147.322Y-135.235
X142.242Y-99.675
X121.922Y-132.695
X165.102Y-86.235
X124.462Y-68.455
X160.022Y-50.675
X147.322Y-109.835
X129.542Y-65.915
X144.782Y-137.775
X127.002Y-135.235
X134.622Y-60.835
X152.402Y-68.455
X147.322Y-117.455
X154.942Y-86.235
X162.562Y-107.295
X157.482Y-137.775
X139.702Y-112.375
X127.002Y-86.235
X139.702Y-132.695
X157.482Y-55.755
X160.022Y-86.235
X154.942Y-60.835
X149.862Y-132.695
X165.102Y-142.855
X129.542Y-99.675
X157.482Y-93.855
X142.242Y-55.755
X165.102Y-63.375
X167.642Y-104.755
X142.242Y-104.755
X162.562Y-65.915
X142.242Y-135.235
X167.642Y-142.855
X147.322Y-107.295
X162.562Y-55.755
X142.242Y-60.835
X167.642Y-137.775
X165.102Y-68.455
X137.162Y-104.755
X147.322Y-55.755
X124.462Y-63.375
X142.242Y-65.915
X144.782Y-117.455
X134.622Y-132.695
X179.662Y-78.565
X179.662Y-82.065
X179.662Y-85.565
X134.622Y-109.835
X129.542Y-58.295
X144.782Y-112.375
X139.702Y-117.455
X172.722Y-58.965
X132.082Y-93.855
X157.482Y-88.775
X162.562Y-137.775
X172.722Y-134.565
X144.782Y-109.835
T0
M30
