G04 #@! TF.GenerationSoftware,KiCad,Pcbnew,5.1.5+dfsg1-2build2*
G04 #@! TF.CreationDate,2022-02-15T22:38:24-05:00*
G04 #@! TF.ProjectId,,58585858-5858-4585-9858-585858585858,rev?*
G04 #@! TF.SameCoordinates,Original*
G04 #@! TF.FileFunction,Legend,Top*
G04 #@! TF.FilePolarity,Positive*
%FSLAX46Y46*%
G04 Gerber Fmt 4.6, Leading zero omitted, Abs format (unit mm)*
G04 Created by KiCad (PCBNEW 5.1.5+dfsg1-2build2) date 2022-02-15 22:38:24*
%MOMM*%
%LPD*%
G04 APERTURE LIST*
%ADD10C,0.500000*%
%ADD11C,0.150000*%
%ADD12C,0.120000*%
%ADD13C,0.010000*%
%ADD14C,2.102000*%
%ADD15R,1.802000X1.802000*%
%ADD16O,1.802000X1.802000*%
%ADD17C,3.102000*%
%ADD18R,2.502000X2.502000*%
%ADD19C,2.502000*%
%ADD20C,2.100980*%
G04 APERTURE END LIST*
D10*
X176861600Y-89754300D02*
X173242100Y-89754300D01*
X176861600Y-93246800D02*
X173242100Y-93246800D01*
X176861600Y-96752000D02*
X173242100Y-96752000D01*
X176861600Y-109363100D02*
X173242100Y-109363100D01*
X176861600Y-112842900D02*
X173242100Y-112842900D01*
X176861600Y-116335400D02*
X173242100Y-116335400D01*
D11*
X112564504Y-118569780D02*
X111764504Y-118569780D01*
X112335933Y-118303114D01*
X111764504Y-118036447D01*
X112564504Y-118036447D01*
X112488314Y-117198352D02*
X112526409Y-117236447D01*
X112564504Y-117350733D01*
X112564504Y-117426923D01*
X112526409Y-117541209D01*
X112450219Y-117617400D01*
X112374028Y-117655495D01*
X112221647Y-117693590D01*
X112107361Y-117693590D01*
X111954980Y-117655495D01*
X111878790Y-117617400D01*
X111802600Y-117541209D01*
X111764504Y-117426923D01*
X111764504Y-117350733D01*
X111802600Y-117236447D01*
X111840695Y-117198352D01*
X111764504Y-116855495D02*
X112412123Y-116855495D01*
X112488314Y-116817400D01*
X112526409Y-116779304D01*
X112564504Y-116703114D01*
X112564504Y-116550733D01*
X112526409Y-116474542D01*
X112488314Y-116436447D01*
X112412123Y-116398352D01*
X111764504Y-116398352D01*
X112564504Y-115407876D02*
X111764504Y-115407876D01*
X111764504Y-115103114D01*
X111802600Y-115026923D01*
X111840695Y-114988828D01*
X111916885Y-114950733D01*
X112031171Y-114950733D01*
X112107361Y-114988828D01*
X112145457Y-115026923D01*
X112183552Y-115103114D01*
X112183552Y-115407876D01*
X112564504Y-114150733D02*
X112183552Y-114417400D01*
X112564504Y-114607876D02*
X111764504Y-114607876D01*
X111764504Y-114303114D01*
X111802600Y-114226923D01*
X111840695Y-114188828D01*
X111916885Y-114150733D01*
X112031171Y-114150733D01*
X112107361Y-114188828D01*
X112145457Y-114226923D01*
X112183552Y-114303114D01*
X112183552Y-114607876D01*
X111764504Y-113655495D02*
X111764504Y-113503114D01*
X111802600Y-113426923D01*
X111878790Y-113350733D01*
X112031171Y-113312638D01*
X112297838Y-113312638D01*
X112450219Y-113350733D01*
X112526409Y-113426923D01*
X112564504Y-113503114D01*
X112564504Y-113655495D01*
X112526409Y-113731685D01*
X112450219Y-113807876D01*
X112297838Y-113845971D01*
X112031171Y-113845971D01*
X111878790Y-113807876D01*
X111802600Y-113731685D01*
X111764504Y-113655495D01*
X111764504Y-113084066D02*
X111764504Y-112626923D01*
X112564504Y-112855495D02*
X111764504Y-112855495D01*
X111764504Y-112207876D02*
X111764504Y-112055495D01*
X111802600Y-111979304D01*
X111878790Y-111903114D01*
X112031171Y-111865019D01*
X112297838Y-111865019D01*
X112450219Y-111903114D01*
X112526409Y-111979304D01*
X112564504Y-112055495D01*
X112564504Y-112207876D01*
X112526409Y-112284066D01*
X112450219Y-112360257D01*
X112297838Y-112398352D01*
X112031171Y-112398352D01*
X111878790Y-112360257D01*
X111802600Y-112284066D01*
X111764504Y-112207876D01*
X112107361Y-110798352D02*
X112069266Y-110874542D01*
X112031171Y-110912638D01*
X111954980Y-110950733D01*
X111916885Y-110950733D01*
X111840695Y-110912638D01*
X111802600Y-110874542D01*
X111764504Y-110798352D01*
X111764504Y-110645971D01*
X111802600Y-110569780D01*
X111840695Y-110531685D01*
X111916885Y-110493590D01*
X111954980Y-110493590D01*
X112031171Y-110531685D01*
X112069266Y-110569780D01*
X112107361Y-110645971D01*
X112107361Y-110798352D01*
X112145457Y-110874542D01*
X112183552Y-110912638D01*
X112259742Y-110950733D01*
X112412123Y-110950733D01*
X112488314Y-110912638D01*
X112526409Y-110874542D01*
X112564504Y-110798352D01*
X112564504Y-110645971D01*
X112526409Y-110569780D01*
X112488314Y-110531685D01*
X112412123Y-110493590D01*
X112259742Y-110493590D01*
X112183552Y-110531685D01*
X112145457Y-110569780D01*
X112107361Y-110645971D01*
X111764504Y-110226923D02*
X111764504Y-109731685D01*
X112069266Y-109998352D01*
X112069266Y-109884066D01*
X112107361Y-109807876D01*
X112145457Y-109769780D01*
X112221647Y-109731685D01*
X112412123Y-109731685D01*
X112488314Y-109769780D01*
X112526409Y-109807876D01*
X112564504Y-109884066D01*
X112564504Y-110112638D01*
X112526409Y-110188828D01*
X112488314Y-110226923D01*
X112564504Y-109465019D02*
X112031171Y-109045971D01*
X112031171Y-109465019D02*
X112564504Y-109045971D01*
X111764504Y-108360257D02*
X111764504Y-108741209D01*
X112145457Y-108779304D01*
X112107361Y-108741209D01*
X112069266Y-108665019D01*
X112069266Y-108474542D01*
X112107361Y-108398352D01*
X112145457Y-108360257D01*
X112221647Y-108322161D01*
X112412123Y-108322161D01*
X112488314Y-108360257D01*
X112526409Y-108398352D01*
X112564504Y-108474542D01*
X112564504Y-108665019D01*
X112526409Y-108741209D01*
X112488314Y-108779304D01*
X112107361Y-107865019D02*
X112069266Y-107941209D01*
X112031171Y-107979304D01*
X111954980Y-108017400D01*
X111916885Y-108017400D01*
X111840695Y-107979304D01*
X111802600Y-107941209D01*
X111764504Y-107865019D01*
X111764504Y-107712638D01*
X111802600Y-107636447D01*
X111840695Y-107598352D01*
X111916885Y-107560257D01*
X111954980Y-107560257D01*
X112031171Y-107598352D01*
X112069266Y-107636447D01*
X112107361Y-107712638D01*
X112107361Y-107865019D01*
X112145457Y-107941209D01*
X112183552Y-107979304D01*
X112259742Y-108017400D01*
X112412123Y-108017400D01*
X112488314Y-107979304D01*
X112526409Y-107941209D01*
X112564504Y-107865019D01*
X112564504Y-107712638D01*
X112526409Y-107636447D01*
X112488314Y-107598352D01*
X112412123Y-107560257D01*
X112259742Y-107560257D01*
X112183552Y-107598352D01*
X112145457Y-107636447D01*
X112107361Y-107712638D01*
X112564504Y-107217400D02*
X112031171Y-107217400D01*
X112107361Y-107217400D02*
X112069266Y-107179304D01*
X112031171Y-107103114D01*
X112031171Y-106988828D01*
X112069266Y-106912638D01*
X112145457Y-106874542D01*
X112564504Y-106874542D01*
X112145457Y-106874542D02*
X112069266Y-106836447D01*
X112031171Y-106760257D01*
X112031171Y-106645971D01*
X112069266Y-106569780D01*
X112145457Y-106531685D01*
X112564504Y-106531685D01*
X112564504Y-106150733D02*
X112031171Y-106150733D01*
X112107361Y-106150733D02*
X112069266Y-106112638D01*
X112031171Y-106036447D01*
X112031171Y-105922161D01*
X112069266Y-105845971D01*
X112145457Y-105807876D01*
X112564504Y-105807876D01*
X112145457Y-105807876D02*
X112069266Y-105769780D01*
X112031171Y-105693590D01*
X112031171Y-105579304D01*
X112069266Y-105503114D01*
X112145457Y-105465019D01*
X112564504Y-105465019D01*
D10*
X120968900Y-82705800D02*
X120968900Y-82921700D01*
X123508900Y-82705800D02*
X123508900Y-82921700D01*
X126048900Y-82705800D02*
X126048900Y-82921700D01*
X128588900Y-82705800D02*
X128588900Y-82921700D01*
X131128900Y-82705800D02*
X131128900Y-82921700D01*
X133668900Y-82705800D02*
X133668900Y-82921700D01*
X136208900Y-82705800D02*
X136208900Y-82921700D01*
X138748900Y-82705800D02*
X138748900Y-82921700D01*
X141288900Y-82705800D02*
X141288900Y-82921700D01*
X143828900Y-82705800D02*
X143828900Y-82921700D01*
X146368900Y-82705800D02*
X146368900Y-82921700D01*
X148908900Y-82705800D02*
X148908900Y-82921700D01*
X151448900Y-82705800D02*
X151448900Y-82921700D01*
X153988900Y-82705800D02*
X153988900Y-82921700D01*
X156528900Y-82705800D02*
X156528900Y-82921700D01*
X159068900Y-82705800D02*
X159068900Y-82921700D01*
X161608900Y-82705800D02*
X161608900Y-82921700D01*
X164148900Y-82705800D02*
X164148900Y-82921700D01*
X166688900Y-82705800D02*
X166688900Y-82921700D01*
X169228900Y-82705800D02*
X169228900Y-82921700D01*
X120968900Y-85245800D02*
X120968900Y-85461700D01*
X123508900Y-85245800D02*
X123508900Y-85461700D01*
X126048900Y-85245800D02*
X126048900Y-85461700D01*
X128588900Y-85245800D02*
X128588900Y-85461700D01*
X131128900Y-85245800D02*
X131128900Y-85461700D01*
X133668900Y-85245800D02*
X133668900Y-85461700D01*
X136208900Y-85245800D02*
X136208900Y-85461700D01*
X138748900Y-85245800D02*
X138748900Y-85461700D01*
X141288900Y-85245800D02*
X141288900Y-85461700D01*
X143828900Y-85245800D02*
X143828900Y-85461700D01*
X146368900Y-85245800D02*
X146368900Y-85461700D01*
X148908900Y-85245800D02*
X148908900Y-85461700D01*
X151448900Y-85245800D02*
X151448900Y-85461700D01*
X153988900Y-85245800D02*
X153988900Y-85461700D01*
X156528900Y-85245800D02*
X156528900Y-85461700D01*
X159068900Y-85245800D02*
X159068900Y-85461700D01*
X161608900Y-85245800D02*
X161608900Y-85461700D01*
X164148900Y-85245800D02*
X164148900Y-85461700D01*
X166688900Y-85245800D02*
X166688900Y-85461700D01*
X169228900Y-85245800D02*
X169228900Y-85461700D01*
X120968900Y-113173100D02*
X120968900Y-113389000D01*
X123508900Y-113173100D02*
X123508900Y-113389000D01*
X126048900Y-113173100D02*
X126048900Y-113389000D01*
X128588900Y-113173100D02*
X128588900Y-113389000D01*
X131128900Y-113173100D02*
X131128900Y-113389000D01*
X133668900Y-113173100D02*
X133668900Y-113389000D01*
X136208900Y-113173100D02*
X136208900Y-113389000D01*
X138748900Y-113173100D02*
X138748900Y-113389000D01*
X141288900Y-113173100D02*
X141288900Y-113389000D01*
X143828900Y-113173100D02*
X143828900Y-113389000D01*
X146368900Y-113173100D02*
X146368900Y-113389000D01*
X148908900Y-113173100D02*
X148908900Y-113389000D01*
X151448900Y-113173100D02*
X151448900Y-113389000D01*
X153988900Y-113173100D02*
X153988900Y-113389000D01*
X156528900Y-113173100D02*
X156528900Y-113389000D01*
X159068900Y-113173100D02*
X159068900Y-113389000D01*
X161608900Y-113173100D02*
X161608900Y-113389000D01*
X164148900Y-113173100D02*
X164148900Y-113389000D01*
X166688900Y-113173100D02*
X166688900Y-113389000D01*
X169228900Y-113173100D02*
X169228900Y-113389000D01*
X131141600Y-123269600D02*
X131141600Y-123485500D01*
X133681600Y-123269600D02*
X133681600Y-123485500D01*
X136221600Y-123269600D02*
X136221600Y-123485500D01*
X138761600Y-123269600D02*
X138761600Y-123485500D01*
X141301600Y-123269600D02*
X141301600Y-123485500D01*
X143841600Y-123269600D02*
X143841600Y-123485500D01*
X146381600Y-123269600D02*
X146381600Y-123485500D01*
X148921600Y-123269600D02*
X148921600Y-123485500D01*
X151461600Y-123269600D02*
X151461600Y-123485500D01*
X154001600Y-123269600D02*
X154001600Y-123485500D01*
X156541600Y-123269600D02*
X156541600Y-123485500D01*
X159081600Y-123269600D02*
X159081600Y-123485500D01*
X161621600Y-123269600D02*
X161621600Y-123485500D01*
X164161600Y-123269600D02*
X164161600Y-123485500D01*
X166701600Y-123269600D02*
X166701600Y-123485500D01*
X169241600Y-123269600D02*
X169241600Y-123485500D01*
X132513200Y-119561200D02*
X132297300Y-119561200D01*
X135053200Y-119561200D02*
X134837300Y-119561200D01*
X137593200Y-119561200D02*
X137377300Y-119561200D01*
X140133200Y-119561200D02*
X139917300Y-119561200D01*
X142673200Y-119561200D02*
X142457300Y-119561200D01*
X145213200Y-119561200D02*
X144997300Y-119561200D01*
X147753200Y-119561200D02*
X147537300Y-119561200D01*
X150293200Y-119561200D02*
X150077300Y-119561200D01*
X152833200Y-119561200D02*
X152617300Y-119561200D01*
X155373200Y-119561200D02*
X155157300Y-119561200D01*
X157913200Y-119561200D02*
X157697300Y-119561200D01*
X160453200Y-119561200D02*
X160237300Y-119561200D01*
X162993200Y-119561200D02*
X162777300Y-119561200D01*
X165533200Y-119561200D02*
X165317300Y-119561200D01*
X168073200Y-119561200D02*
X167857300Y-119561200D01*
X122353200Y-117033900D02*
X122137300Y-117033900D01*
X124893200Y-117033900D02*
X124677300Y-117033900D01*
X127433200Y-117033900D02*
X127217300Y-117033900D01*
X129973200Y-117033900D02*
X129757300Y-117033900D01*
X132513200Y-117033900D02*
X132297300Y-117033900D01*
X135053200Y-117033900D02*
X134837300Y-117033900D01*
X137593200Y-117033900D02*
X137377300Y-117033900D01*
X140133200Y-117033900D02*
X139917300Y-117033900D01*
X142673200Y-117033900D02*
X142457300Y-117033900D01*
X145213200Y-117033900D02*
X144997300Y-117033900D01*
X147753200Y-117033900D02*
X147537300Y-117033900D01*
X150293200Y-117033900D02*
X150077300Y-117033900D01*
X152833200Y-117033900D02*
X152617300Y-117033900D01*
X155373200Y-117033900D02*
X155157300Y-117033900D01*
X157913200Y-117033900D02*
X157697300Y-117033900D01*
X160453200Y-117033900D02*
X160237300Y-117033900D01*
X162993200Y-117033900D02*
X162777300Y-117033900D01*
X165533200Y-117033900D02*
X165317300Y-117033900D01*
X168073200Y-117033900D02*
X167857300Y-117033900D01*
X122353200Y-96701200D02*
X122137300Y-96701200D01*
X124893200Y-96701200D02*
X124677300Y-96701200D01*
X127433200Y-96701200D02*
X127217300Y-96701200D01*
X129973200Y-96701200D02*
X129757300Y-96701200D01*
X132513200Y-96701200D02*
X132297300Y-96701200D01*
X135053200Y-96701200D02*
X134837300Y-96701200D01*
X137593200Y-96701200D02*
X137377300Y-96701200D01*
X140133200Y-96701200D02*
X139917300Y-96701200D01*
X142673200Y-96701200D02*
X142457300Y-96701200D01*
X145213200Y-96701200D02*
X144997300Y-96701200D01*
X147753200Y-96701200D02*
X147537300Y-96701200D01*
X150293200Y-96701200D02*
X150077300Y-96701200D01*
X152833200Y-96701200D02*
X152617300Y-96701200D01*
X155373200Y-96701200D02*
X155157300Y-96701200D01*
X157913200Y-96701200D02*
X157697300Y-96701200D01*
X160453200Y-96701200D02*
X160237300Y-96701200D01*
X162993200Y-96701200D02*
X162777300Y-96701200D01*
X165533200Y-96701200D02*
X165317300Y-96701200D01*
X168073200Y-96701200D02*
X167857300Y-96701200D01*
X120968900Y-100390500D02*
X120968900Y-100606400D01*
X123508900Y-100390500D02*
X123508900Y-100606400D01*
X126048900Y-100390500D02*
X126048900Y-100606400D01*
X128588900Y-100390500D02*
X128588900Y-100606400D01*
X131128900Y-100390500D02*
X131128900Y-100606400D01*
X133668900Y-100390500D02*
X133668900Y-100606400D01*
X136208900Y-100390500D02*
X136208900Y-100606400D01*
X138748900Y-100390500D02*
X138748900Y-100606400D01*
X141288900Y-100390500D02*
X141288900Y-100606400D01*
X143828900Y-100390500D02*
X143828900Y-100606400D01*
X146368900Y-100390500D02*
X146368900Y-100606400D01*
X148908900Y-100390500D02*
X148908900Y-100606400D01*
X151448900Y-100390500D02*
X151448900Y-100606400D01*
X153988900Y-100390500D02*
X153988900Y-100606400D01*
X156528900Y-100390500D02*
X156528900Y-100606400D01*
X159068900Y-100390500D02*
X159068900Y-100606400D01*
X161608900Y-100390500D02*
X161608900Y-100606400D01*
X164148900Y-100390500D02*
X164148900Y-100606400D01*
X166688900Y-100390500D02*
X166688900Y-100606400D01*
X169228900Y-100390500D02*
X169228900Y-100606400D01*
X120968900Y-102930500D02*
X120968900Y-103146400D01*
X123508900Y-102930500D02*
X123508900Y-103146400D01*
X126048900Y-102930500D02*
X126048900Y-103146400D01*
X128588900Y-102930500D02*
X128588900Y-103146400D01*
X131128900Y-102930500D02*
X131128900Y-103146400D01*
X133668900Y-102930500D02*
X133668900Y-103146400D01*
X136208900Y-102930500D02*
X136208900Y-103146400D01*
X138748900Y-102930500D02*
X138748900Y-103146400D01*
X141288900Y-102930500D02*
X141288900Y-103146400D01*
X143828900Y-102930500D02*
X143828900Y-103146400D01*
X146368900Y-102930500D02*
X146368900Y-103146400D01*
X148908900Y-102930500D02*
X148908900Y-103146400D01*
X151448900Y-102930500D02*
X151448900Y-103146400D01*
X153988900Y-102930500D02*
X153988900Y-103146400D01*
X156528900Y-102930500D02*
X156528900Y-103146400D01*
X159068900Y-102930500D02*
X159068900Y-103146400D01*
X161608900Y-102930500D02*
X161608900Y-103146400D01*
X164148900Y-102930500D02*
X164148900Y-103146400D01*
X166688900Y-102930500D02*
X166688900Y-103146400D01*
X169228900Y-102930500D02*
X169228900Y-103146400D01*
X120968900Y-105470500D02*
X120968900Y-105686400D01*
X123508900Y-105470500D02*
X123508900Y-105686400D01*
X126048900Y-105470500D02*
X126048900Y-105686400D01*
X128588900Y-105470500D02*
X128588900Y-105686400D01*
X131128900Y-105470500D02*
X131128900Y-105686400D01*
X133668900Y-105470500D02*
X133668900Y-105686400D01*
X136208900Y-105470500D02*
X136208900Y-105686400D01*
X138748900Y-105470500D02*
X138748900Y-105686400D01*
X141288900Y-105470500D02*
X141288900Y-105686400D01*
X143828900Y-105470500D02*
X143828900Y-105686400D01*
X146368900Y-105470500D02*
X146368900Y-105686400D01*
X148908900Y-105470500D02*
X148908900Y-105686400D01*
X151448900Y-105470500D02*
X151448900Y-105686400D01*
X153988900Y-105470500D02*
X153988900Y-105686400D01*
X156528900Y-105470500D02*
X156528900Y-105686400D01*
X159068900Y-105470500D02*
X159068900Y-105686400D01*
X161608900Y-105470500D02*
X161608900Y-105686400D01*
X164148900Y-105470500D02*
X164148900Y-105686400D01*
X166688900Y-105470500D02*
X166688900Y-105686400D01*
X169228900Y-105470500D02*
X169228900Y-105686400D01*
X120968900Y-108010500D02*
X120968900Y-108226400D01*
X123508900Y-108010500D02*
X123508900Y-108226400D01*
X126048900Y-108010500D02*
X126048900Y-108226400D01*
X128588900Y-108010500D02*
X128588900Y-108226400D01*
X131128900Y-108010500D02*
X131128900Y-108226400D01*
X133668900Y-108010500D02*
X133668900Y-108226400D01*
X136208900Y-108010500D02*
X136208900Y-108226400D01*
X138748900Y-108010500D02*
X138748900Y-108226400D01*
X141288900Y-108010500D02*
X141288900Y-108226400D01*
X143828900Y-108010500D02*
X143828900Y-108226400D01*
X146368900Y-108010500D02*
X146368900Y-108226400D01*
X148908900Y-108010500D02*
X148908900Y-108226400D01*
X151448900Y-108010500D02*
X151448900Y-108226400D01*
X153988900Y-108010500D02*
X153988900Y-108226400D01*
X156528900Y-108010500D02*
X156528900Y-108226400D01*
X159068900Y-108010500D02*
X159068900Y-108226400D01*
X161608900Y-108010500D02*
X161608900Y-108226400D01*
X164148900Y-108010500D02*
X164148900Y-108226400D01*
X166688900Y-108010500D02*
X166688900Y-108226400D01*
X169228900Y-108010500D02*
X169228900Y-108226400D01*
X120968900Y-110550500D02*
X120968900Y-110766400D01*
X123508900Y-110550500D02*
X123508900Y-110766400D01*
X126048900Y-110550500D02*
X126048900Y-110766400D01*
X128588900Y-110550500D02*
X128588900Y-110766400D01*
X131128900Y-110550500D02*
X131128900Y-110766400D01*
X133668900Y-110550500D02*
X133668900Y-110766400D01*
X136208900Y-110550500D02*
X136208900Y-110766400D01*
X138748900Y-110550500D02*
X138748900Y-110766400D01*
X141288900Y-110550500D02*
X141288900Y-110766400D01*
X143828900Y-110550500D02*
X143828900Y-110766400D01*
X146368900Y-110550500D02*
X146368900Y-110766400D01*
X148908900Y-110550500D02*
X148908900Y-110766400D01*
X151448900Y-110550500D02*
X151448900Y-110766400D01*
X153988900Y-110550500D02*
X153988900Y-110766400D01*
X156528900Y-110550500D02*
X156528900Y-110766400D01*
X159068900Y-110550500D02*
X159068900Y-110766400D01*
X161608900Y-110550500D02*
X161608900Y-110766400D01*
X164148900Y-110550500D02*
X164148900Y-110766400D01*
X166688900Y-110550500D02*
X166688900Y-110766400D01*
X169228900Y-110550500D02*
X169228900Y-110766400D01*
X120968900Y-90173400D02*
X120968900Y-90389300D01*
X123508900Y-90173400D02*
X123508900Y-90389300D01*
X126048900Y-90173400D02*
X126048900Y-90389300D01*
X128588900Y-90173400D02*
X128588900Y-90389300D01*
X131128900Y-90173400D02*
X131128900Y-90389300D01*
X133668900Y-90173400D02*
X133668900Y-90389300D01*
X136208900Y-90173400D02*
X136208900Y-90389300D01*
X138748900Y-90173400D02*
X138748900Y-90389300D01*
X141288900Y-90173400D02*
X141288900Y-90389300D01*
X143828900Y-90173400D02*
X143828900Y-90389300D01*
X146368900Y-90173400D02*
X146368900Y-90389300D01*
X148908900Y-90173400D02*
X148908900Y-90389300D01*
X151448900Y-90173400D02*
X151448900Y-90389300D01*
X153988900Y-90173400D02*
X153988900Y-90389300D01*
X156528900Y-90173400D02*
X156528900Y-90389300D01*
X159068900Y-90173400D02*
X159068900Y-90389300D01*
X161608900Y-90173400D02*
X161608900Y-90389300D01*
X164148900Y-90173400D02*
X164148900Y-90389300D01*
X166688900Y-90173400D02*
X166688900Y-90389300D01*
X169228900Y-90173400D02*
X169228900Y-90389300D01*
X122356500Y-94163100D02*
X122140600Y-94163100D01*
X124896500Y-94163100D02*
X124680600Y-94163100D01*
X127436500Y-94163100D02*
X127220600Y-94163100D01*
X129976500Y-94163100D02*
X129760600Y-94163100D01*
X132516500Y-94163100D02*
X132300600Y-94163100D01*
X135056500Y-94163100D02*
X134840600Y-94163100D01*
X137596500Y-94163100D02*
X137380600Y-94163100D01*
X140136500Y-94163100D02*
X139920600Y-94163100D01*
X142676500Y-94163100D02*
X142460600Y-94163100D01*
X145216500Y-94163100D02*
X145000600Y-94163100D01*
X147756500Y-94163100D02*
X147540600Y-94163100D01*
X150296500Y-94163100D02*
X150080600Y-94163100D01*
X152836500Y-94163100D02*
X152620600Y-94163100D01*
X155376500Y-94163100D02*
X155160600Y-94163100D01*
X157916500Y-94163100D02*
X157700600Y-94163100D01*
X160456500Y-94163100D02*
X160240600Y-94163100D01*
X162996500Y-94163100D02*
X162780600Y-94163100D01*
X165536500Y-94163100D02*
X165320600Y-94163100D01*
X168076500Y-94163100D02*
X167860600Y-94163100D01*
X168076500Y-45163100D02*
X167860600Y-45163100D01*
X165536500Y-45163100D02*
X165320600Y-45163100D01*
X162996500Y-45163100D02*
X162780600Y-45163100D01*
X160456500Y-45163100D02*
X160240600Y-45163100D01*
X157916500Y-45163100D02*
X157700600Y-45163100D01*
X155376500Y-45163100D02*
X155160600Y-45163100D01*
X152836500Y-45163100D02*
X152620600Y-45163100D01*
X150296500Y-45163100D02*
X150080600Y-45163100D01*
X147756500Y-45163100D02*
X147540600Y-45163100D01*
X145216500Y-45163100D02*
X145000600Y-45163100D01*
X142676500Y-45163100D02*
X142460600Y-45163100D01*
X140136500Y-45163100D02*
X139920600Y-45163100D01*
X137596500Y-45163100D02*
X137380600Y-45163100D01*
X135056500Y-45163100D02*
X134840600Y-45163100D01*
X132516500Y-45163100D02*
X132300600Y-45163100D01*
X129976500Y-45163100D02*
X129760600Y-45163100D01*
X127436500Y-45163100D02*
X127220600Y-45163100D01*
X124896500Y-45163100D02*
X124680600Y-45163100D01*
X122356500Y-45163100D02*
X122140600Y-45163100D01*
X169228900Y-41173400D02*
X169228900Y-41389300D01*
X166688900Y-41173400D02*
X166688900Y-41389300D01*
X164148900Y-41173400D02*
X164148900Y-41389300D01*
X161608900Y-41173400D02*
X161608900Y-41389300D01*
X159068900Y-41173400D02*
X159068900Y-41389300D01*
X156528900Y-41173400D02*
X156528900Y-41389300D01*
X153988900Y-41173400D02*
X153988900Y-41389300D01*
X151448900Y-41173400D02*
X151448900Y-41389300D01*
X148908900Y-41173400D02*
X148908900Y-41389300D01*
X146368900Y-41173400D02*
X146368900Y-41389300D01*
X143828900Y-41173400D02*
X143828900Y-41389300D01*
X141288900Y-41173400D02*
X141288900Y-41389300D01*
X138748900Y-41173400D02*
X138748900Y-41389300D01*
X136208900Y-41173400D02*
X136208900Y-41389300D01*
X133668900Y-41173400D02*
X133668900Y-41389300D01*
X131128900Y-41173400D02*
X131128900Y-41389300D01*
X128588900Y-41173400D02*
X128588900Y-41389300D01*
X126048900Y-41173400D02*
X126048900Y-41389300D01*
X123508900Y-41173400D02*
X123508900Y-41389300D01*
X120968900Y-41173400D02*
X120968900Y-41389300D01*
X169228900Y-61550500D02*
X169228900Y-61766400D01*
X166688900Y-61550500D02*
X166688900Y-61766400D01*
X164148900Y-61550500D02*
X164148900Y-61766400D01*
X161608900Y-61550500D02*
X161608900Y-61766400D01*
X159068900Y-61550500D02*
X159068900Y-61766400D01*
X156528900Y-61550500D02*
X156528900Y-61766400D01*
X153988900Y-61550500D02*
X153988900Y-61766400D01*
X151448900Y-61550500D02*
X151448900Y-61766400D01*
X148908900Y-61550500D02*
X148908900Y-61766400D01*
X146368900Y-61550500D02*
X146368900Y-61766400D01*
X143828900Y-61550500D02*
X143828900Y-61766400D01*
X141288900Y-61550500D02*
X141288900Y-61766400D01*
X138748900Y-61550500D02*
X138748900Y-61766400D01*
X136208900Y-61550500D02*
X136208900Y-61766400D01*
X133668900Y-61550500D02*
X133668900Y-61766400D01*
X131128900Y-61550500D02*
X131128900Y-61766400D01*
X128588900Y-61550500D02*
X128588900Y-61766400D01*
X126048900Y-61550500D02*
X126048900Y-61766400D01*
X123508900Y-61550500D02*
X123508900Y-61766400D01*
X120968900Y-61550500D02*
X120968900Y-61766400D01*
X169228900Y-59010500D02*
X169228900Y-59226400D01*
X166688900Y-59010500D02*
X166688900Y-59226400D01*
X164148900Y-59010500D02*
X164148900Y-59226400D01*
X161608900Y-59010500D02*
X161608900Y-59226400D01*
X159068900Y-59010500D02*
X159068900Y-59226400D01*
X156528900Y-59010500D02*
X156528900Y-59226400D01*
X153988900Y-59010500D02*
X153988900Y-59226400D01*
X151448900Y-59010500D02*
X151448900Y-59226400D01*
X148908900Y-59010500D02*
X148908900Y-59226400D01*
X146368900Y-59010500D02*
X146368900Y-59226400D01*
X143828900Y-59010500D02*
X143828900Y-59226400D01*
X141288900Y-59010500D02*
X141288900Y-59226400D01*
X138748900Y-59010500D02*
X138748900Y-59226400D01*
X136208900Y-59010500D02*
X136208900Y-59226400D01*
X133668900Y-59010500D02*
X133668900Y-59226400D01*
X131128900Y-59010500D02*
X131128900Y-59226400D01*
X128588900Y-59010500D02*
X128588900Y-59226400D01*
X126048900Y-59010500D02*
X126048900Y-59226400D01*
X123508900Y-59010500D02*
X123508900Y-59226400D01*
X120968900Y-59010500D02*
X120968900Y-59226400D01*
X169228900Y-56470500D02*
X169228900Y-56686400D01*
X166688900Y-56470500D02*
X166688900Y-56686400D01*
X164148900Y-56470500D02*
X164148900Y-56686400D01*
X161608900Y-56470500D02*
X161608900Y-56686400D01*
X159068900Y-56470500D02*
X159068900Y-56686400D01*
X156528900Y-56470500D02*
X156528900Y-56686400D01*
X153988900Y-56470500D02*
X153988900Y-56686400D01*
X151448900Y-56470500D02*
X151448900Y-56686400D01*
X148908900Y-56470500D02*
X148908900Y-56686400D01*
X146368900Y-56470500D02*
X146368900Y-56686400D01*
X143828900Y-56470500D02*
X143828900Y-56686400D01*
X141288900Y-56470500D02*
X141288900Y-56686400D01*
X138748900Y-56470500D02*
X138748900Y-56686400D01*
X136208900Y-56470500D02*
X136208900Y-56686400D01*
X133668900Y-56470500D02*
X133668900Y-56686400D01*
X131128900Y-56470500D02*
X131128900Y-56686400D01*
X128588900Y-56470500D02*
X128588900Y-56686400D01*
X126048900Y-56470500D02*
X126048900Y-56686400D01*
X123508900Y-56470500D02*
X123508900Y-56686400D01*
X120968900Y-56470500D02*
X120968900Y-56686400D01*
X169228900Y-53930500D02*
X169228900Y-54146400D01*
X166688900Y-53930500D02*
X166688900Y-54146400D01*
X164148900Y-53930500D02*
X164148900Y-54146400D01*
X161608900Y-53930500D02*
X161608900Y-54146400D01*
X159068900Y-53930500D02*
X159068900Y-54146400D01*
X156528900Y-53930500D02*
X156528900Y-54146400D01*
X153988900Y-53930500D02*
X153988900Y-54146400D01*
X151448900Y-53930500D02*
X151448900Y-54146400D01*
X148908900Y-53930500D02*
X148908900Y-54146400D01*
X146368900Y-53930500D02*
X146368900Y-54146400D01*
X143828900Y-53930500D02*
X143828900Y-54146400D01*
X141288900Y-53930500D02*
X141288900Y-54146400D01*
X138748900Y-53930500D02*
X138748900Y-54146400D01*
X136208900Y-53930500D02*
X136208900Y-54146400D01*
X133668900Y-53930500D02*
X133668900Y-54146400D01*
X131128900Y-53930500D02*
X131128900Y-54146400D01*
X128588900Y-53930500D02*
X128588900Y-54146400D01*
X126048900Y-53930500D02*
X126048900Y-54146400D01*
X123508900Y-53930500D02*
X123508900Y-54146400D01*
X120968900Y-53930500D02*
X120968900Y-54146400D01*
X169228900Y-51390500D02*
X169228900Y-51606400D01*
X166688900Y-51390500D02*
X166688900Y-51606400D01*
X164148900Y-51390500D02*
X164148900Y-51606400D01*
X161608900Y-51390500D02*
X161608900Y-51606400D01*
X159068900Y-51390500D02*
X159068900Y-51606400D01*
X156528900Y-51390500D02*
X156528900Y-51606400D01*
X153988900Y-51390500D02*
X153988900Y-51606400D01*
X151448900Y-51390500D02*
X151448900Y-51606400D01*
X148908900Y-51390500D02*
X148908900Y-51606400D01*
X146368900Y-51390500D02*
X146368900Y-51606400D01*
X143828900Y-51390500D02*
X143828900Y-51606400D01*
X141288900Y-51390500D02*
X141288900Y-51606400D01*
X138748900Y-51390500D02*
X138748900Y-51606400D01*
X136208900Y-51390500D02*
X136208900Y-51606400D01*
X133668900Y-51390500D02*
X133668900Y-51606400D01*
X131128900Y-51390500D02*
X131128900Y-51606400D01*
X128588900Y-51390500D02*
X128588900Y-51606400D01*
X126048900Y-51390500D02*
X126048900Y-51606400D01*
X123508900Y-51390500D02*
X123508900Y-51606400D01*
X120968900Y-51390500D02*
X120968900Y-51606400D01*
X168073200Y-47701200D02*
X167857300Y-47701200D01*
X165533200Y-47701200D02*
X165317300Y-47701200D01*
X162993200Y-47701200D02*
X162777300Y-47701200D01*
X160453200Y-47701200D02*
X160237300Y-47701200D01*
X157913200Y-47701200D02*
X157697300Y-47701200D01*
X155373200Y-47701200D02*
X155157300Y-47701200D01*
X152833200Y-47701200D02*
X152617300Y-47701200D01*
X150293200Y-47701200D02*
X150077300Y-47701200D01*
X147753200Y-47701200D02*
X147537300Y-47701200D01*
X145213200Y-47701200D02*
X144997300Y-47701200D01*
X142673200Y-47701200D02*
X142457300Y-47701200D01*
X140133200Y-47701200D02*
X139917300Y-47701200D01*
X137593200Y-47701200D02*
X137377300Y-47701200D01*
X135053200Y-47701200D02*
X134837300Y-47701200D01*
X132513200Y-47701200D02*
X132297300Y-47701200D01*
X129973200Y-47701200D02*
X129757300Y-47701200D01*
X127433200Y-47701200D02*
X127217300Y-47701200D01*
X124893200Y-47701200D02*
X124677300Y-47701200D01*
X122353200Y-47701200D02*
X122137300Y-47701200D01*
X168073200Y-68033900D02*
X167857300Y-68033900D01*
X165533200Y-68033900D02*
X165317300Y-68033900D01*
X162993200Y-68033900D02*
X162777300Y-68033900D01*
X160453200Y-68033900D02*
X160237300Y-68033900D01*
X157913200Y-68033900D02*
X157697300Y-68033900D01*
X155373200Y-68033900D02*
X155157300Y-68033900D01*
X152833200Y-68033900D02*
X152617300Y-68033900D01*
X150293200Y-68033900D02*
X150077300Y-68033900D01*
X147753200Y-68033900D02*
X147537300Y-68033900D01*
X145213200Y-68033900D02*
X144997300Y-68033900D01*
X142673200Y-68033900D02*
X142457300Y-68033900D01*
X140133200Y-68033900D02*
X139917300Y-68033900D01*
X137593200Y-68033900D02*
X137377300Y-68033900D01*
X135053200Y-68033900D02*
X134837300Y-68033900D01*
X132513200Y-68033900D02*
X132297300Y-68033900D01*
X129973200Y-68033900D02*
X129757300Y-68033900D01*
X127433200Y-68033900D02*
X127217300Y-68033900D01*
X124893200Y-68033900D02*
X124677300Y-68033900D01*
X122353200Y-68033900D02*
X122137300Y-68033900D01*
X168073200Y-70561200D02*
X167857300Y-70561200D01*
X165533200Y-70561200D02*
X165317300Y-70561200D01*
X162993200Y-70561200D02*
X162777300Y-70561200D01*
X160453200Y-70561200D02*
X160237300Y-70561200D01*
X157913200Y-70561200D02*
X157697300Y-70561200D01*
X155373200Y-70561200D02*
X155157300Y-70561200D01*
X152833200Y-70561200D02*
X152617300Y-70561200D01*
X150293200Y-70561200D02*
X150077300Y-70561200D01*
X147753200Y-70561200D02*
X147537300Y-70561200D01*
X145213200Y-70561200D02*
X144997300Y-70561200D01*
X142673200Y-70561200D02*
X142457300Y-70561200D01*
X140133200Y-70561200D02*
X139917300Y-70561200D01*
X137593200Y-70561200D02*
X137377300Y-70561200D01*
X135053200Y-70561200D02*
X134837300Y-70561200D01*
X132513200Y-70561200D02*
X132297300Y-70561200D01*
X169241600Y-74269600D02*
X169241600Y-74485500D01*
X166701600Y-74269600D02*
X166701600Y-74485500D01*
X164161600Y-74269600D02*
X164161600Y-74485500D01*
X161621600Y-74269600D02*
X161621600Y-74485500D01*
X159081600Y-74269600D02*
X159081600Y-74485500D01*
X156541600Y-74269600D02*
X156541600Y-74485500D01*
X154001600Y-74269600D02*
X154001600Y-74485500D01*
X151461600Y-74269600D02*
X151461600Y-74485500D01*
X148921600Y-74269600D02*
X148921600Y-74485500D01*
X146381600Y-74269600D02*
X146381600Y-74485500D01*
X143841600Y-74269600D02*
X143841600Y-74485500D01*
X141301600Y-74269600D02*
X141301600Y-74485500D01*
X138761600Y-74269600D02*
X138761600Y-74485500D01*
X136221600Y-74269600D02*
X136221600Y-74485500D01*
X133681600Y-74269600D02*
X133681600Y-74485500D01*
X131141600Y-74269600D02*
X131141600Y-74485500D01*
X169228900Y-64173100D02*
X169228900Y-64389000D01*
X166688900Y-64173100D02*
X166688900Y-64389000D01*
X164148900Y-64173100D02*
X164148900Y-64389000D01*
X161608900Y-64173100D02*
X161608900Y-64389000D01*
X159068900Y-64173100D02*
X159068900Y-64389000D01*
X156528900Y-64173100D02*
X156528900Y-64389000D01*
X153988900Y-64173100D02*
X153988900Y-64389000D01*
X151448900Y-64173100D02*
X151448900Y-64389000D01*
X148908900Y-64173100D02*
X148908900Y-64389000D01*
X146368900Y-64173100D02*
X146368900Y-64389000D01*
X143828900Y-64173100D02*
X143828900Y-64389000D01*
X141288900Y-64173100D02*
X141288900Y-64389000D01*
X138748900Y-64173100D02*
X138748900Y-64389000D01*
X136208900Y-64173100D02*
X136208900Y-64389000D01*
X133668900Y-64173100D02*
X133668900Y-64389000D01*
X131128900Y-64173100D02*
X131128900Y-64389000D01*
X128588900Y-64173100D02*
X128588900Y-64389000D01*
X126048900Y-64173100D02*
X126048900Y-64389000D01*
X123508900Y-64173100D02*
X123508900Y-64389000D01*
X120968900Y-64173100D02*
X120968900Y-64389000D01*
X169228900Y-36245800D02*
X169228900Y-36461700D01*
X166688900Y-36245800D02*
X166688900Y-36461700D01*
X164148900Y-36245800D02*
X164148900Y-36461700D01*
X161608900Y-36245800D02*
X161608900Y-36461700D01*
X159068900Y-36245800D02*
X159068900Y-36461700D01*
X156528900Y-36245800D02*
X156528900Y-36461700D01*
X153988900Y-36245800D02*
X153988900Y-36461700D01*
X151448900Y-36245800D02*
X151448900Y-36461700D01*
X148908900Y-36245800D02*
X148908900Y-36461700D01*
X146368900Y-36245800D02*
X146368900Y-36461700D01*
X143828900Y-36245800D02*
X143828900Y-36461700D01*
X141288900Y-36245800D02*
X141288900Y-36461700D01*
X138748900Y-36245800D02*
X138748900Y-36461700D01*
X136208900Y-36245800D02*
X136208900Y-36461700D01*
X133668900Y-36245800D02*
X133668900Y-36461700D01*
X131128900Y-36245800D02*
X131128900Y-36461700D01*
X128588900Y-36245800D02*
X128588900Y-36461700D01*
X126048900Y-36245800D02*
X126048900Y-36461700D01*
X123508900Y-36245800D02*
X123508900Y-36461700D01*
X120968900Y-36245800D02*
X120968900Y-36461700D01*
X169228900Y-33705800D02*
X169228900Y-33921700D01*
X166688900Y-33705800D02*
X166688900Y-33921700D01*
X164148900Y-33705800D02*
X164148900Y-33921700D01*
X161608900Y-33705800D02*
X161608900Y-33921700D01*
X159068900Y-33705800D02*
X159068900Y-33921700D01*
X156528900Y-33705800D02*
X156528900Y-33921700D01*
X153988900Y-33705800D02*
X153988900Y-33921700D01*
X151448900Y-33705800D02*
X151448900Y-33921700D01*
X148908900Y-33705800D02*
X148908900Y-33921700D01*
X146368900Y-33705800D02*
X146368900Y-33921700D01*
X143828900Y-33705800D02*
X143828900Y-33921700D01*
X141288900Y-33705800D02*
X141288900Y-33921700D01*
X138748900Y-33705800D02*
X138748900Y-33921700D01*
X136208900Y-33705800D02*
X136208900Y-33921700D01*
X133668900Y-33705800D02*
X133668900Y-33921700D01*
X131128900Y-33705800D02*
X131128900Y-33921700D01*
X128588900Y-33705800D02*
X128588900Y-33921700D01*
X126048900Y-33705800D02*
X126048900Y-33921700D01*
X123508900Y-33705800D02*
X123508900Y-33921700D01*
X120968900Y-33705800D02*
X120968900Y-33921700D01*
D11*
X112564504Y-69569780D02*
X111764504Y-69569780D01*
X112335933Y-69303114D01*
X111764504Y-69036447D01*
X112564504Y-69036447D01*
X112488314Y-68198352D02*
X112526409Y-68236447D01*
X112564504Y-68350733D01*
X112564504Y-68426923D01*
X112526409Y-68541209D01*
X112450219Y-68617400D01*
X112374028Y-68655495D01*
X112221647Y-68693590D01*
X112107361Y-68693590D01*
X111954980Y-68655495D01*
X111878790Y-68617400D01*
X111802600Y-68541209D01*
X111764504Y-68426923D01*
X111764504Y-68350733D01*
X111802600Y-68236447D01*
X111840695Y-68198352D01*
X111764504Y-67855495D02*
X112412123Y-67855495D01*
X112488314Y-67817400D01*
X112526409Y-67779304D01*
X112564504Y-67703114D01*
X112564504Y-67550733D01*
X112526409Y-67474542D01*
X112488314Y-67436447D01*
X112412123Y-67398352D01*
X111764504Y-67398352D01*
X112564504Y-66407876D02*
X111764504Y-66407876D01*
X111764504Y-66103114D01*
X111802600Y-66026923D01*
X111840695Y-65988828D01*
X111916885Y-65950733D01*
X112031171Y-65950733D01*
X112107361Y-65988828D01*
X112145457Y-66026923D01*
X112183552Y-66103114D01*
X112183552Y-66407876D01*
X112564504Y-65150733D02*
X112183552Y-65417400D01*
X112564504Y-65607876D02*
X111764504Y-65607876D01*
X111764504Y-65303114D01*
X111802600Y-65226923D01*
X111840695Y-65188828D01*
X111916885Y-65150733D01*
X112031171Y-65150733D01*
X112107361Y-65188828D01*
X112145457Y-65226923D01*
X112183552Y-65303114D01*
X112183552Y-65607876D01*
X111764504Y-64655495D02*
X111764504Y-64503114D01*
X111802600Y-64426923D01*
X111878790Y-64350733D01*
X112031171Y-64312638D01*
X112297838Y-64312638D01*
X112450219Y-64350733D01*
X112526409Y-64426923D01*
X112564504Y-64503114D01*
X112564504Y-64655495D01*
X112526409Y-64731685D01*
X112450219Y-64807876D01*
X112297838Y-64845971D01*
X112031171Y-64845971D01*
X111878790Y-64807876D01*
X111802600Y-64731685D01*
X111764504Y-64655495D01*
X111764504Y-64084066D02*
X111764504Y-63626923D01*
X112564504Y-63855495D02*
X111764504Y-63855495D01*
X111764504Y-63207876D02*
X111764504Y-63055495D01*
X111802600Y-62979304D01*
X111878790Y-62903114D01*
X112031171Y-62865019D01*
X112297838Y-62865019D01*
X112450219Y-62903114D01*
X112526409Y-62979304D01*
X112564504Y-63055495D01*
X112564504Y-63207876D01*
X112526409Y-63284066D01*
X112450219Y-63360257D01*
X112297838Y-63398352D01*
X112031171Y-63398352D01*
X111878790Y-63360257D01*
X111802600Y-63284066D01*
X111764504Y-63207876D01*
X112107361Y-61798352D02*
X112069266Y-61874542D01*
X112031171Y-61912638D01*
X111954980Y-61950733D01*
X111916885Y-61950733D01*
X111840695Y-61912638D01*
X111802600Y-61874542D01*
X111764504Y-61798352D01*
X111764504Y-61645971D01*
X111802600Y-61569780D01*
X111840695Y-61531685D01*
X111916885Y-61493590D01*
X111954980Y-61493590D01*
X112031171Y-61531685D01*
X112069266Y-61569780D01*
X112107361Y-61645971D01*
X112107361Y-61798352D01*
X112145457Y-61874542D01*
X112183552Y-61912638D01*
X112259742Y-61950733D01*
X112412123Y-61950733D01*
X112488314Y-61912638D01*
X112526409Y-61874542D01*
X112564504Y-61798352D01*
X112564504Y-61645971D01*
X112526409Y-61569780D01*
X112488314Y-61531685D01*
X112412123Y-61493590D01*
X112259742Y-61493590D01*
X112183552Y-61531685D01*
X112145457Y-61569780D01*
X112107361Y-61645971D01*
X111764504Y-61226923D02*
X111764504Y-60731685D01*
X112069266Y-60998352D01*
X112069266Y-60884066D01*
X112107361Y-60807876D01*
X112145457Y-60769780D01*
X112221647Y-60731685D01*
X112412123Y-60731685D01*
X112488314Y-60769780D01*
X112526409Y-60807876D01*
X112564504Y-60884066D01*
X112564504Y-61112638D01*
X112526409Y-61188828D01*
X112488314Y-61226923D01*
X112564504Y-60465019D02*
X112031171Y-60045971D01*
X112031171Y-60465019D02*
X112564504Y-60045971D01*
X111764504Y-59360257D02*
X111764504Y-59741209D01*
X112145457Y-59779304D01*
X112107361Y-59741209D01*
X112069266Y-59665019D01*
X112069266Y-59474542D01*
X112107361Y-59398352D01*
X112145457Y-59360257D01*
X112221647Y-59322161D01*
X112412123Y-59322161D01*
X112488314Y-59360257D01*
X112526409Y-59398352D01*
X112564504Y-59474542D01*
X112564504Y-59665019D01*
X112526409Y-59741209D01*
X112488314Y-59779304D01*
X112107361Y-58865019D02*
X112069266Y-58941209D01*
X112031171Y-58979304D01*
X111954980Y-59017400D01*
X111916885Y-59017400D01*
X111840695Y-58979304D01*
X111802600Y-58941209D01*
X111764504Y-58865019D01*
X111764504Y-58712638D01*
X111802600Y-58636447D01*
X111840695Y-58598352D01*
X111916885Y-58560257D01*
X111954980Y-58560257D01*
X112031171Y-58598352D01*
X112069266Y-58636447D01*
X112107361Y-58712638D01*
X112107361Y-58865019D01*
X112145457Y-58941209D01*
X112183552Y-58979304D01*
X112259742Y-59017400D01*
X112412123Y-59017400D01*
X112488314Y-58979304D01*
X112526409Y-58941209D01*
X112564504Y-58865019D01*
X112564504Y-58712638D01*
X112526409Y-58636447D01*
X112488314Y-58598352D01*
X112412123Y-58560257D01*
X112259742Y-58560257D01*
X112183552Y-58598352D01*
X112145457Y-58636447D01*
X112107361Y-58712638D01*
X112564504Y-58217400D02*
X112031171Y-58217400D01*
X112107361Y-58217400D02*
X112069266Y-58179304D01*
X112031171Y-58103114D01*
X112031171Y-57988828D01*
X112069266Y-57912638D01*
X112145457Y-57874542D01*
X112564504Y-57874542D01*
X112145457Y-57874542D02*
X112069266Y-57836447D01*
X112031171Y-57760257D01*
X112031171Y-57645971D01*
X112069266Y-57569780D01*
X112145457Y-57531685D01*
X112564504Y-57531685D01*
X112564504Y-57150733D02*
X112031171Y-57150733D01*
X112107361Y-57150733D02*
X112069266Y-57112638D01*
X112031171Y-57036447D01*
X112031171Y-56922161D01*
X112069266Y-56845971D01*
X112145457Y-56807876D01*
X112564504Y-56807876D01*
X112145457Y-56807876D02*
X112069266Y-56769780D01*
X112031171Y-56693590D01*
X112031171Y-56579304D01*
X112069266Y-56503114D01*
X112145457Y-56465019D01*
X112564504Y-56465019D01*
D10*
X176861600Y-67335400D02*
X173242100Y-67335400D01*
X176861600Y-63842900D02*
X173242100Y-63842900D01*
X176861600Y-60363100D02*
X173242100Y-60363100D01*
X176861600Y-47752000D02*
X173242100Y-47752000D01*
X176861600Y-44246800D02*
X173242100Y-44246800D01*
X176861600Y-40754300D02*
X173242100Y-40754300D01*
D12*
X122253500Y-100573100D02*
X122253500Y-97913100D01*
X122253500Y-100573100D02*
X170573500Y-100573100D01*
X170573500Y-100573100D02*
X170573500Y-97913100D01*
X122253500Y-97913100D02*
X170573500Y-97913100D01*
X119653500Y-97913100D02*
X120983500Y-97913100D01*
X119653500Y-99243100D02*
X119653500Y-97913100D01*
X122253500Y-87873100D02*
X122253500Y-85213100D01*
X122253500Y-87873100D02*
X170573500Y-87873100D01*
X170573500Y-87873100D02*
X170573500Y-85213100D01*
X122253500Y-85213100D02*
X170573500Y-85213100D01*
X119653500Y-85213100D02*
X120983500Y-85213100D01*
X119653500Y-86543100D02*
X119653500Y-85213100D01*
X180154885Y-96145513D02*
G75*
G02X180278500Y-96753100I-1431385J-607587D01*
G01*
X178115758Y-95320991D02*
G75*
G02X179331500Y-95321100I607742J-1432109D01*
G01*
X177291391Y-97360842D02*
G75*
G02X177291500Y-96145100I1432109J607742D01*
G01*
X179331242Y-98185209D02*
G75*
G02X178115500Y-98185100I-607742J1432109D01*
G01*
X180278992Y-96726089D02*
G75*
G02X180155500Y-97361100I-1555492J-27011D01*
G01*
X180278500Y-93253100D02*
G75*
G03X180278500Y-93253100I-1555000J0D01*
G01*
X180278500Y-89753100D02*
G75*
G03X180278500Y-89753100I-1555000J0D01*
G01*
X180823500Y-98913100D02*
X180823500Y-87593100D01*
X175263500Y-98913100D02*
X175263500Y-87593100D01*
X182383500Y-98913100D02*
X182383500Y-87593100D01*
X175263500Y-98913100D02*
X182383500Y-98913100D01*
X175263500Y-87593100D02*
X182383500Y-87593100D01*
X180883500Y-99153100D02*
X182623500Y-99153100D01*
X182623500Y-99153100D02*
X182623500Y-97653100D01*
D13*
G36*
X111476831Y-92983086D02*
G01*
X111921455Y-92899265D01*
X112048953Y-92589980D01*
X112176451Y-92280694D01*
X111924146Y-91909654D01*
X111853896Y-91805743D01*
X111791172Y-91711813D01*
X111738838Y-91632248D01*
X111699757Y-91571430D01*
X111676793Y-91533743D01*
X111671842Y-91523479D01*
X111684576Y-91504990D01*
X111719782Y-91465480D01*
X111772962Y-91409378D01*
X111839618Y-91341113D01*
X111915254Y-91265114D01*
X111995372Y-91185808D01*
X112075474Y-91107625D01*
X112151064Y-91034993D01*
X112217645Y-90972341D01*
X112270718Y-90924097D01*
X112305787Y-90894690D01*
X112317523Y-90887659D01*
X112339160Y-90897777D01*
X112386562Y-90926141D01*
X112455093Y-90969771D01*
X112540115Y-91025682D01*
X112636993Y-91090894D01*
X112692250Y-91128681D01*
X112793148Y-91197557D01*
X112884199Y-91258760D01*
X112960870Y-91309322D01*
X113018628Y-91346272D01*
X113052943Y-91366642D01*
X113060154Y-91369703D01*
X113080648Y-91362764D01*
X113128413Y-91343849D01*
X113196732Y-91315813D01*
X113278889Y-91281509D01*
X113368170Y-91243791D01*
X113457858Y-91205513D01*
X113541238Y-91169530D01*
X113611594Y-91138694D01*
X113662210Y-91115861D01*
X113686371Y-91103883D01*
X113687322Y-91103176D01*
X113691936Y-91084369D01*
X113702228Y-91034282D01*
X113717187Y-90958107D01*
X113735801Y-90861035D01*
X113757059Y-90748257D01*
X113769318Y-90682458D01*
X113792262Y-90561950D01*
X113814095Y-90453103D01*
X113833622Y-90361424D01*
X113849648Y-90292419D01*
X113860979Y-90251596D01*
X113864574Y-90243389D01*
X113888906Y-90235352D01*
X113943859Y-90228867D01*
X114023008Y-90223930D01*
X114119926Y-90220536D01*
X114228187Y-90218682D01*
X114341365Y-90218362D01*
X114453035Y-90219573D01*
X114556768Y-90222310D01*
X114646141Y-90226569D01*
X114714726Y-90232345D01*
X114756097Y-90239633D01*
X114764710Y-90244005D01*
X114775033Y-90270136D01*
X114789792Y-90325507D01*
X114807252Y-90402793D01*
X114825680Y-90494670D01*
X114831641Y-90526742D01*
X114859966Y-90681376D01*
X114882776Y-90803525D01*
X114900980Y-90897227D01*
X114915483Y-90966516D01*
X114927192Y-91015429D01*
X114937015Y-91048003D01*
X114945856Y-91068272D01*
X114954624Y-91080274D01*
X114956357Y-91081953D01*
X114984271Y-91098716D01*
X115038595Y-91124286D01*
X115112677Y-91156112D01*
X115199865Y-91191640D01*
X115293508Y-91228317D01*
X115386952Y-91263589D01*
X115473547Y-91294904D01*
X115546640Y-91319707D01*
X115599578Y-91335446D01*
X115625711Y-91339568D01*
X115626626Y-91339224D01*
X115647986Y-91325259D01*
X115694984Y-91293578D01*
X115762727Y-91247509D01*
X115846323Y-91190382D01*
X115940882Y-91125527D01*
X115967754Y-91107057D01*
X116065175Y-91041201D01*
X116154063Y-90983250D01*
X116229312Y-90936362D01*
X116285820Y-90903693D01*
X116318481Y-90888400D01*
X116322493Y-90887659D01*
X116343584Y-90900508D01*
X116385364Y-90936012D01*
X116443345Y-90989607D01*
X116513035Y-91056729D01*
X116589945Y-91132813D01*
X116669583Y-91213296D01*
X116747461Y-91293613D01*
X116819086Y-91369201D01*
X116879970Y-91435495D01*
X116925621Y-91487931D01*
X116951550Y-91521945D01*
X116955783Y-91531355D01*
X116945812Y-91553257D01*
X116918920Y-91598100D01*
X116879636Y-91658579D01*
X116848017Y-91705111D01*
X116789998Y-91789425D01*
X116721684Y-91889274D01*
X116653479Y-91989427D01*
X116616975Y-92043273D01*
X116493700Y-92225529D01*
X116576420Y-92378519D01*
X116612659Y-92448218D01*
X116640826Y-92507486D01*
X116656891Y-92547589D01*
X116659126Y-92557797D01*
X116642622Y-92570071D01*
X116595982Y-92594287D01*
X116523509Y-92628637D01*
X116429506Y-92671312D01*
X116318274Y-92720506D01*
X116194115Y-92774410D01*
X116061332Y-92831216D01*
X115924227Y-92889118D01*
X115787102Y-92946307D01*
X115654258Y-93000976D01*
X115529998Y-93051316D01*
X115418625Y-93095520D01*
X115324439Y-93131781D01*
X115251744Y-93158291D01*
X115204841Y-93173242D01*
X115188733Y-93175646D01*
X115168186Y-93156589D01*
X115134833Y-93114864D01*
X115095602Y-93059194D01*
X115092499Y-93054522D01*
X114977323Y-92910636D01*
X114842953Y-92794617D01*
X114693684Y-92707470D01*
X114533813Y-92650201D01*
X114367637Y-92623814D01*
X114199452Y-92629315D01*
X114033555Y-92667710D01*
X113874242Y-92740005D01*
X113839387Y-92761274D01*
X113698637Y-92871904D01*
X113585614Y-93002598D01*
X113500903Y-93148836D01*
X113445094Y-93306092D01*
X113418774Y-93469843D01*
X113422530Y-93635567D01*
X113456950Y-93798738D01*
X113522623Y-93954835D01*
X113620135Y-94099333D01*
X113659713Y-94144031D01*
X113783603Y-94257788D01*
X113914024Y-94340682D01*
X114060215Y-94397544D01*
X114204988Y-94429213D01*
X114367760Y-94437031D01*
X114531340Y-94410962D01*
X114690198Y-94353655D01*
X114838806Y-94267756D01*
X114971635Y-94155914D01*
X115083156Y-94020777D01*
X115094911Y-94003017D01*
X115133408Y-93946750D01*
X115166763Y-93903977D01*
X115188060Y-93883528D01*
X115188733Y-93883231D01*
X115211771Y-93887621D01*
X115264057Y-93905024D01*
X115341290Y-93933632D01*
X115439168Y-93971635D01*
X115553391Y-94017226D01*
X115679658Y-94068597D01*
X115813667Y-94123938D01*
X115951118Y-94181442D01*
X116087708Y-94239299D01*
X116219137Y-94295702D01*
X116341105Y-94348842D01*
X116449309Y-94396910D01*
X116539449Y-94438099D01*
X116607223Y-94470599D01*
X116648330Y-94492603D01*
X116659126Y-94501464D01*
X116650719Y-94528540D01*
X116628172Y-94579203D01*
X116595513Y-94644717D01*
X116576420Y-94680741D01*
X116493700Y-94833732D01*
X116616975Y-95015988D01*
X116680128Y-95109025D01*
X116749627Y-95210885D01*
X116815065Y-95306338D01*
X116848017Y-95354150D01*
X116893173Y-95421395D01*
X116928957Y-95478336D01*
X116950838Y-95517546D01*
X116955463Y-95530281D01*
X116942985Y-95548817D01*
X116908152Y-95589841D01*
X116854578Y-95649375D01*
X116785883Y-95723442D01*
X116705681Y-95808065D01*
X116654186Y-95861585D01*
X116562186Y-95955219D01*
X116479899Y-96036141D01*
X116410845Y-96101077D01*
X116358544Y-96146758D01*
X116326516Y-96169911D01*
X116320016Y-96172132D01*
X116295294Y-96161824D01*
X116245305Y-96133339D01*
X116175112Y-96089837D01*
X116089775Y-96034477D01*
X115994356Y-95970420D01*
X115967754Y-95952203D01*
X115871067Y-95885827D01*
X115784017Y-95826278D01*
X115711495Y-95776884D01*
X115658393Y-95740975D01*
X115629603Y-95721881D01*
X115626626Y-95720036D01*
X115603682Y-95722795D01*
X115553236Y-95737438D01*
X115481941Y-95761413D01*
X115396447Y-95792166D01*
X115303407Y-95827144D01*
X115209474Y-95863793D01*
X115121299Y-95899561D01*
X115045534Y-95931894D01*
X114988831Y-95958238D01*
X114957843Y-95976042D01*
X114956357Y-95977307D01*
X114947501Y-95988194D01*
X114938743Y-96006582D01*
X114929177Y-96036506D01*
X114917896Y-96082003D01*
X114903993Y-96147109D01*
X114886563Y-96235861D01*
X114864698Y-96352293D01*
X114837491Y-96500442D01*
X114831641Y-96532518D01*
X114813274Y-96627586D01*
X114795305Y-96710465D01*
X114779469Y-96773830D01*
X114767500Y-96810358D01*
X114764710Y-96815256D01*
X114739972Y-96823327D01*
X114684690Y-96829887D01*
X114605289Y-96834933D01*
X114508196Y-96838459D01*
X114399838Y-96840461D01*
X114286640Y-96840936D01*
X114175028Y-96839877D01*
X114071429Y-96837282D01*
X113982268Y-96833146D01*
X113913972Y-96827463D01*
X113872966Y-96820231D01*
X113864574Y-96815871D01*
X113856108Y-96791598D01*
X113842335Y-96736326D01*
X113824450Y-96655562D01*
X113803648Y-96554812D01*
X113781123Y-96439583D01*
X113769318Y-96376802D01*
X113747051Y-96257687D01*
X113726879Y-96151465D01*
X113709815Y-96063327D01*
X113696869Y-95998466D01*
X113689055Y-95962074D01*
X113687322Y-95956084D01*
X113667790Y-95945961D01*
X113620743Y-95924562D01*
X113552903Y-95894739D01*
X113470991Y-95859345D01*
X113381728Y-95821232D01*
X113291835Y-95783253D01*
X113208035Y-95748260D01*
X113137047Y-95719106D01*
X113085594Y-95698643D01*
X113060397Y-95689723D01*
X113059296Y-95689557D01*
X113039419Y-95699669D01*
X112993677Y-95728017D01*
X112926617Y-95771623D01*
X112842784Y-95827506D01*
X112746726Y-95892687D01*
X112691550Y-95930579D01*
X112590381Y-95999625D01*
X112498530Y-96060950D01*
X112420644Y-96111563D01*
X112361369Y-96148471D01*
X112325351Y-96168682D01*
X112317277Y-96171601D01*
X112298484Y-96159053D01*
X112258357Y-96124363D01*
X112201393Y-96071963D01*
X112132085Y-96006284D01*
X112054931Y-95931756D01*
X111974425Y-95852813D01*
X111895063Y-95773883D01*
X111821340Y-95699400D01*
X111757752Y-95633794D01*
X111708794Y-95581496D01*
X111678961Y-95546939D01*
X111671842Y-95535378D01*
X111681853Y-95516554D01*
X111709978Y-95471531D01*
X111753354Y-95404687D01*
X111809118Y-95320399D01*
X111874406Y-95223044D01*
X111924146Y-95149607D01*
X112176451Y-94778567D01*
X111921455Y-94159995D01*
X111476831Y-94076175D01*
X111032207Y-93992354D01*
X111032207Y-93066906D01*
X111476831Y-92983086D01*
G37*
X111476831Y-92983086D02*
X111921455Y-92899265D01*
X112048953Y-92589980D01*
X112176451Y-92280694D01*
X111924146Y-91909654D01*
X111853896Y-91805743D01*
X111791172Y-91711813D01*
X111738838Y-91632248D01*
X111699757Y-91571430D01*
X111676793Y-91533743D01*
X111671842Y-91523479D01*
X111684576Y-91504990D01*
X111719782Y-91465480D01*
X111772962Y-91409378D01*
X111839618Y-91341113D01*
X111915254Y-91265114D01*
X111995372Y-91185808D01*
X112075474Y-91107625D01*
X112151064Y-91034993D01*
X112217645Y-90972341D01*
X112270718Y-90924097D01*
X112305787Y-90894690D01*
X112317523Y-90887659D01*
X112339160Y-90897777D01*
X112386562Y-90926141D01*
X112455093Y-90969771D01*
X112540115Y-91025682D01*
X112636993Y-91090894D01*
X112692250Y-91128681D01*
X112793148Y-91197557D01*
X112884199Y-91258760D01*
X112960870Y-91309322D01*
X113018628Y-91346272D01*
X113052943Y-91366642D01*
X113060154Y-91369703D01*
X113080648Y-91362764D01*
X113128413Y-91343849D01*
X113196732Y-91315813D01*
X113278889Y-91281509D01*
X113368170Y-91243791D01*
X113457858Y-91205513D01*
X113541238Y-91169530D01*
X113611594Y-91138694D01*
X113662210Y-91115861D01*
X113686371Y-91103883D01*
X113687322Y-91103176D01*
X113691936Y-91084369D01*
X113702228Y-91034282D01*
X113717187Y-90958107D01*
X113735801Y-90861035D01*
X113757059Y-90748257D01*
X113769318Y-90682458D01*
X113792262Y-90561950D01*
X113814095Y-90453103D01*
X113833622Y-90361424D01*
X113849648Y-90292419D01*
X113860979Y-90251596D01*
X113864574Y-90243389D01*
X113888906Y-90235352D01*
X113943859Y-90228867D01*
X114023008Y-90223930D01*
X114119926Y-90220536D01*
X114228187Y-90218682D01*
X114341365Y-90218362D01*
X114453035Y-90219573D01*
X114556768Y-90222310D01*
X114646141Y-90226569D01*
X114714726Y-90232345D01*
X114756097Y-90239633D01*
X114764710Y-90244005D01*
X114775033Y-90270136D01*
X114789792Y-90325507D01*
X114807252Y-90402793D01*
X114825680Y-90494670D01*
X114831641Y-90526742D01*
X114859966Y-90681376D01*
X114882776Y-90803525D01*
X114900980Y-90897227D01*
X114915483Y-90966516D01*
X114927192Y-91015429D01*
X114937015Y-91048003D01*
X114945856Y-91068272D01*
X114954624Y-91080274D01*
X114956357Y-91081953D01*
X114984271Y-91098716D01*
X115038595Y-91124286D01*
X115112677Y-91156112D01*
X115199865Y-91191640D01*
X115293508Y-91228317D01*
X115386952Y-91263589D01*
X115473547Y-91294904D01*
X115546640Y-91319707D01*
X115599578Y-91335446D01*
X115625711Y-91339568D01*
X115626626Y-91339224D01*
X115647986Y-91325259D01*
X115694984Y-91293578D01*
X115762727Y-91247509D01*
X115846323Y-91190382D01*
X115940882Y-91125527D01*
X115967754Y-91107057D01*
X116065175Y-91041201D01*
X116154063Y-90983250D01*
X116229312Y-90936362D01*
X116285820Y-90903693D01*
X116318481Y-90888400D01*
X116322493Y-90887659D01*
X116343584Y-90900508D01*
X116385364Y-90936012D01*
X116443345Y-90989607D01*
X116513035Y-91056729D01*
X116589945Y-91132813D01*
X116669583Y-91213296D01*
X116747461Y-91293613D01*
X116819086Y-91369201D01*
X116879970Y-91435495D01*
X116925621Y-91487931D01*
X116951550Y-91521945D01*
X116955783Y-91531355D01*
X116945812Y-91553257D01*
X116918920Y-91598100D01*
X116879636Y-91658579D01*
X116848017Y-91705111D01*
X116789998Y-91789425D01*
X116721684Y-91889274D01*
X116653479Y-91989427D01*
X116616975Y-92043273D01*
X116493700Y-92225529D01*
X116576420Y-92378519D01*
X116612659Y-92448218D01*
X116640826Y-92507486D01*
X116656891Y-92547589D01*
X116659126Y-92557797D01*
X116642622Y-92570071D01*
X116595982Y-92594287D01*
X116523509Y-92628637D01*
X116429506Y-92671312D01*
X116318274Y-92720506D01*
X116194115Y-92774410D01*
X116061332Y-92831216D01*
X115924227Y-92889118D01*
X115787102Y-92946307D01*
X115654258Y-93000976D01*
X115529998Y-93051316D01*
X115418625Y-93095520D01*
X115324439Y-93131781D01*
X115251744Y-93158291D01*
X115204841Y-93173242D01*
X115188733Y-93175646D01*
X115168186Y-93156589D01*
X115134833Y-93114864D01*
X115095602Y-93059194D01*
X115092499Y-93054522D01*
X114977323Y-92910636D01*
X114842953Y-92794617D01*
X114693684Y-92707470D01*
X114533813Y-92650201D01*
X114367637Y-92623814D01*
X114199452Y-92629315D01*
X114033555Y-92667710D01*
X113874242Y-92740005D01*
X113839387Y-92761274D01*
X113698637Y-92871904D01*
X113585614Y-93002598D01*
X113500903Y-93148836D01*
X113445094Y-93306092D01*
X113418774Y-93469843D01*
X113422530Y-93635567D01*
X113456950Y-93798738D01*
X113522623Y-93954835D01*
X113620135Y-94099333D01*
X113659713Y-94144031D01*
X113783603Y-94257788D01*
X113914024Y-94340682D01*
X114060215Y-94397544D01*
X114204988Y-94429213D01*
X114367760Y-94437031D01*
X114531340Y-94410962D01*
X114690198Y-94353655D01*
X114838806Y-94267756D01*
X114971635Y-94155914D01*
X115083156Y-94020777D01*
X115094911Y-94003017D01*
X115133408Y-93946750D01*
X115166763Y-93903977D01*
X115188060Y-93883528D01*
X115188733Y-93883231D01*
X115211771Y-93887621D01*
X115264057Y-93905024D01*
X115341290Y-93933632D01*
X115439168Y-93971635D01*
X115553391Y-94017226D01*
X115679658Y-94068597D01*
X115813667Y-94123938D01*
X115951118Y-94181442D01*
X116087708Y-94239299D01*
X116219137Y-94295702D01*
X116341105Y-94348842D01*
X116449309Y-94396910D01*
X116539449Y-94438099D01*
X116607223Y-94470599D01*
X116648330Y-94492603D01*
X116659126Y-94501464D01*
X116650719Y-94528540D01*
X116628172Y-94579203D01*
X116595513Y-94644717D01*
X116576420Y-94680741D01*
X116493700Y-94833732D01*
X116616975Y-95015988D01*
X116680128Y-95109025D01*
X116749627Y-95210885D01*
X116815065Y-95306338D01*
X116848017Y-95354150D01*
X116893173Y-95421395D01*
X116928957Y-95478336D01*
X116950838Y-95517546D01*
X116955463Y-95530281D01*
X116942985Y-95548817D01*
X116908152Y-95589841D01*
X116854578Y-95649375D01*
X116785883Y-95723442D01*
X116705681Y-95808065D01*
X116654186Y-95861585D01*
X116562186Y-95955219D01*
X116479899Y-96036141D01*
X116410845Y-96101077D01*
X116358544Y-96146758D01*
X116326516Y-96169911D01*
X116320016Y-96172132D01*
X116295294Y-96161824D01*
X116245305Y-96133339D01*
X116175112Y-96089837D01*
X116089775Y-96034477D01*
X115994356Y-95970420D01*
X115967754Y-95952203D01*
X115871067Y-95885827D01*
X115784017Y-95826278D01*
X115711495Y-95776884D01*
X115658393Y-95740975D01*
X115629603Y-95721881D01*
X115626626Y-95720036D01*
X115603682Y-95722795D01*
X115553236Y-95737438D01*
X115481941Y-95761413D01*
X115396447Y-95792166D01*
X115303407Y-95827144D01*
X115209474Y-95863793D01*
X115121299Y-95899561D01*
X115045534Y-95931894D01*
X114988831Y-95958238D01*
X114957843Y-95976042D01*
X114956357Y-95977307D01*
X114947501Y-95988194D01*
X114938743Y-96006582D01*
X114929177Y-96036506D01*
X114917896Y-96082003D01*
X114903993Y-96147109D01*
X114886563Y-96235861D01*
X114864698Y-96352293D01*
X114837491Y-96500442D01*
X114831641Y-96532518D01*
X114813274Y-96627586D01*
X114795305Y-96710465D01*
X114779469Y-96773830D01*
X114767500Y-96810358D01*
X114764710Y-96815256D01*
X114739972Y-96823327D01*
X114684690Y-96829887D01*
X114605289Y-96834933D01*
X114508196Y-96838459D01*
X114399838Y-96840461D01*
X114286640Y-96840936D01*
X114175028Y-96839877D01*
X114071429Y-96837282D01*
X113982268Y-96833146D01*
X113913972Y-96827463D01*
X113872966Y-96820231D01*
X113864574Y-96815871D01*
X113856108Y-96791598D01*
X113842335Y-96736326D01*
X113824450Y-96655562D01*
X113803648Y-96554812D01*
X113781123Y-96439583D01*
X113769318Y-96376802D01*
X113747051Y-96257687D01*
X113726879Y-96151465D01*
X113709815Y-96063327D01*
X113696869Y-95998466D01*
X113689055Y-95962074D01*
X113687322Y-95956084D01*
X113667790Y-95945961D01*
X113620743Y-95924562D01*
X113552903Y-95894739D01*
X113470991Y-95859345D01*
X113381728Y-95821232D01*
X113291835Y-95783253D01*
X113208035Y-95748260D01*
X113137047Y-95719106D01*
X113085594Y-95698643D01*
X113060397Y-95689723D01*
X113059296Y-95689557D01*
X113039419Y-95699669D01*
X112993677Y-95728017D01*
X112926617Y-95771623D01*
X112842784Y-95827506D01*
X112746726Y-95892687D01*
X112691550Y-95930579D01*
X112590381Y-95999625D01*
X112498530Y-96060950D01*
X112420644Y-96111563D01*
X112361369Y-96148471D01*
X112325351Y-96168682D01*
X112317277Y-96171601D01*
X112298484Y-96159053D01*
X112258357Y-96124363D01*
X112201393Y-96071963D01*
X112132085Y-96006284D01*
X112054931Y-95931756D01*
X111974425Y-95852813D01*
X111895063Y-95773883D01*
X111821340Y-95699400D01*
X111757752Y-95633794D01*
X111708794Y-95581496D01*
X111678961Y-95546939D01*
X111671842Y-95535378D01*
X111681853Y-95516554D01*
X111709978Y-95471531D01*
X111753354Y-95404687D01*
X111809118Y-95320399D01*
X111874406Y-95223044D01*
X111924146Y-95149607D01*
X112176451Y-94778567D01*
X111921455Y-94159995D01*
X111476831Y-94076175D01*
X111032207Y-93992354D01*
X111032207Y-93066906D01*
X111476831Y-92983086D01*
D12*
X122253500Y-90413100D02*
X122253500Y-87753100D01*
X122253500Y-90413100D02*
X170573500Y-90413100D01*
X170573500Y-90413100D02*
X170573500Y-87753100D01*
X122253500Y-87753100D02*
X170573500Y-87753100D01*
X119653500Y-87753100D02*
X120983500Y-87753100D01*
X119653500Y-89083100D02*
X119653500Y-87753100D01*
X122253500Y-110733100D02*
X122253500Y-108073100D01*
X122253500Y-110733100D02*
X170573500Y-110733100D01*
X170573500Y-110733100D02*
X170573500Y-108073100D01*
X122253500Y-108073100D02*
X170573500Y-108073100D01*
X119653500Y-108073100D02*
X120983500Y-108073100D01*
X119653500Y-109403100D02*
X119653500Y-108073100D01*
X122253500Y-103113100D02*
X122253500Y-100453100D01*
X122253500Y-103113100D02*
X170573500Y-103113100D01*
X170573500Y-103113100D02*
X170573500Y-100453100D01*
X122253500Y-100453100D02*
X170573500Y-100453100D01*
X119653500Y-100453100D02*
X120983500Y-100453100D01*
X119653500Y-101783100D02*
X119653500Y-100453100D01*
X122253500Y-113273100D02*
X122253500Y-110613100D01*
X122253500Y-113273100D02*
X170573500Y-113273100D01*
X170573500Y-113273100D02*
X170573500Y-110613100D01*
X122253500Y-110613100D02*
X170573500Y-110613100D01*
X119653500Y-110613100D02*
X120983500Y-110613100D01*
X119653500Y-111943100D02*
X119653500Y-110613100D01*
X122253500Y-108193100D02*
X122253500Y-105533100D01*
X122253500Y-108193100D02*
X170573500Y-108193100D01*
X170573500Y-108193100D02*
X170573500Y-105533100D01*
X122253500Y-105533100D02*
X170573500Y-105533100D01*
X119653500Y-105533100D02*
X120983500Y-105533100D01*
X119653500Y-106863100D02*
X119653500Y-105533100D01*
X122253500Y-85333100D02*
X122253500Y-82673100D01*
X122253500Y-85333100D02*
X170573500Y-85333100D01*
X170573500Y-85333100D02*
X170573500Y-82673100D01*
X122253500Y-82673100D02*
X170573500Y-82673100D01*
X119653500Y-82673100D02*
X120983500Y-82673100D01*
X119653500Y-84003100D02*
X119653500Y-82673100D01*
X180154885Y-115745513D02*
G75*
G02X180278500Y-116353100I-1431385J-607587D01*
G01*
X178115758Y-114920991D02*
G75*
G02X179331500Y-114921100I607742J-1432109D01*
G01*
X177291391Y-116960842D02*
G75*
G02X177291500Y-115745100I1432109J607742D01*
G01*
X179331242Y-117785209D02*
G75*
G02X178115500Y-117785100I-607742J1432109D01*
G01*
X180278992Y-116326089D02*
G75*
G02X180155500Y-116961100I-1555492J-27011D01*
G01*
X180278500Y-112853100D02*
G75*
G03X180278500Y-112853100I-1555000J0D01*
G01*
X180278500Y-109353100D02*
G75*
G03X180278500Y-109353100I-1555000J0D01*
G01*
X180823500Y-118513100D02*
X180823500Y-107193100D01*
X175263500Y-118513100D02*
X175263500Y-107193100D01*
X182383500Y-118513100D02*
X182383500Y-107193100D01*
X175263500Y-118513100D02*
X182383500Y-118513100D01*
X175263500Y-107193100D02*
X182383500Y-107193100D01*
X180883500Y-118753100D02*
X182623500Y-118753100D01*
X182623500Y-118753100D02*
X182623500Y-117253100D01*
X119653500Y-50243100D02*
X119653500Y-48913100D01*
X119653500Y-48913100D02*
X120983500Y-48913100D01*
X122253500Y-48913100D02*
X170573500Y-48913100D01*
X170573500Y-51573100D02*
X170573500Y-48913100D01*
X122253500Y-51573100D02*
X170573500Y-51573100D01*
X122253500Y-51573100D02*
X122253500Y-48913100D01*
X119653500Y-37543100D02*
X119653500Y-36213100D01*
X119653500Y-36213100D02*
X120983500Y-36213100D01*
X122253500Y-36213100D02*
X170573500Y-36213100D01*
X170573500Y-38873100D02*
X170573500Y-36213100D01*
X122253500Y-38873100D02*
X170573500Y-38873100D01*
X122253500Y-38873100D02*
X122253500Y-36213100D01*
X119653500Y-40083100D02*
X119653500Y-38753100D01*
X119653500Y-38753100D02*
X120983500Y-38753100D01*
X122253500Y-38753100D02*
X170573500Y-38753100D01*
X170573500Y-41413100D02*
X170573500Y-38753100D01*
X122253500Y-41413100D02*
X170573500Y-41413100D01*
X122253500Y-41413100D02*
X122253500Y-38753100D01*
X182623500Y-69753100D02*
X182623500Y-68253100D01*
X180883500Y-69753100D02*
X182623500Y-69753100D01*
X175263500Y-58193100D02*
X182383500Y-58193100D01*
X175263500Y-69513100D02*
X182383500Y-69513100D01*
X182383500Y-69513100D02*
X182383500Y-58193100D01*
X175263500Y-69513100D02*
X175263500Y-58193100D01*
X180823500Y-69513100D02*
X180823500Y-58193100D01*
X180278500Y-60353100D02*
G75*
G03X180278500Y-60353100I-1555000J0D01*
G01*
X180278500Y-63853100D02*
G75*
G03X180278500Y-63853100I-1555000J0D01*
G01*
X180278992Y-67326089D02*
G75*
G02X180155500Y-67961100I-1555492J-27011D01*
G01*
X179331242Y-68785209D02*
G75*
G02X178115500Y-68785100I-607742J1432109D01*
G01*
X177291391Y-67960842D02*
G75*
G02X177291500Y-66745100I1432109J607742D01*
G01*
X178115758Y-65920991D02*
G75*
G02X179331500Y-65921100I607742J-1432109D01*
G01*
X180154885Y-66745513D02*
G75*
G02X180278500Y-67353100I-1431385J-607587D01*
G01*
X119653500Y-62943100D02*
X119653500Y-61613100D01*
X119653500Y-61613100D02*
X120983500Y-61613100D01*
X122253500Y-61613100D02*
X170573500Y-61613100D01*
X170573500Y-64273100D02*
X170573500Y-61613100D01*
X122253500Y-64273100D02*
X170573500Y-64273100D01*
X122253500Y-64273100D02*
X122253500Y-61613100D01*
X119653500Y-60403100D02*
X119653500Y-59073100D01*
X119653500Y-59073100D02*
X120983500Y-59073100D01*
X122253500Y-59073100D02*
X170573500Y-59073100D01*
X170573500Y-61733100D02*
X170573500Y-59073100D01*
X122253500Y-61733100D02*
X170573500Y-61733100D01*
X122253500Y-61733100D02*
X122253500Y-59073100D01*
X119653500Y-57863100D02*
X119653500Y-56533100D01*
X119653500Y-56533100D02*
X120983500Y-56533100D01*
X122253500Y-56533100D02*
X170573500Y-56533100D01*
X170573500Y-59193100D02*
X170573500Y-56533100D01*
X122253500Y-59193100D02*
X170573500Y-59193100D01*
X122253500Y-59193100D02*
X122253500Y-56533100D01*
X119653500Y-35003100D02*
X119653500Y-33673100D01*
X119653500Y-33673100D02*
X120983500Y-33673100D01*
X122253500Y-33673100D02*
X170573500Y-33673100D01*
X170573500Y-36333100D02*
X170573500Y-33673100D01*
X122253500Y-36333100D02*
X170573500Y-36333100D01*
X122253500Y-36333100D02*
X122253500Y-33673100D01*
X119653500Y-52783100D02*
X119653500Y-51453100D01*
X119653500Y-51453100D02*
X120983500Y-51453100D01*
X122253500Y-51453100D02*
X170573500Y-51453100D01*
X170573500Y-54113100D02*
X170573500Y-51453100D01*
X122253500Y-54113100D02*
X170573500Y-54113100D01*
X122253500Y-54113100D02*
X122253500Y-51453100D01*
X182623500Y-50153100D02*
X182623500Y-48653100D01*
X180883500Y-50153100D02*
X182623500Y-50153100D01*
X175263500Y-38593100D02*
X182383500Y-38593100D01*
X175263500Y-49913100D02*
X182383500Y-49913100D01*
X182383500Y-49913100D02*
X182383500Y-38593100D01*
X175263500Y-49913100D02*
X175263500Y-38593100D01*
X180823500Y-49913100D02*
X180823500Y-38593100D01*
X180278500Y-40753100D02*
G75*
G03X180278500Y-40753100I-1555000J0D01*
G01*
X180278500Y-44253100D02*
G75*
G03X180278500Y-44253100I-1555000J0D01*
G01*
X180278992Y-47726089D02*
G75*
G02X180155500Y-48361100I-1555492J-27011D01*
G01*
X179331242Y-49185209D02*
G75*
G02X178115500Y-49185100I-607742J1432109D01*
G01*
X177291391Y-48360842D02*
G75*
G02X177291500Y-47145100I1432109J607742D01*
G01*
X178115758Y-46320991D02*
G75*
G02X179331500Y-46321100I607742J-1432109D01*
G01*
X180154885Y-47145513D02*
G75*
G02X180278500Y-47753100I-1431385J-607587D01*
G01*
D13*
G36*
X111476831Y-43983086D02*
G01*
X111921455Y-43899265D01*
X112048953Y-43589980D01*
X112176451Y-43280694D01*
X111924146Y-42909654D01*
X111853896Y-42805743D01*
X111791172Y-42711813D01*
X111738838Y-42632248D01*
X111699757Y-42571430D01*
X111676793Y-42533743D01*
X111671842Y-42523479D01*
X111684576Y-42504990D01*
X111719782Y-42465480D01*
X111772962Y-42409378D01*
X111839618Y-42341113D01*
X111915254Y-42265114D01*
X111995372Y-42185808D01*
X112075474Y-42107625D01*
X112151064Y-42034993D01*
X112217645Y-41972341D01*
X112270718Y-41924097D01*
X112305787Y-41894690D01*
X112317523Y-41887659D01*
X112339160Y-41897777D01*
X112386562Y-41926141D01*
X112455093Y-41969771D01*
X112540115Y-42025682D01*
X112636993Y-42090894D01*
X112692250Y-42128681D01*
X112793148Y-42197557D01*
X112884199Y-42258760D01*
X112960870Y-42309322D01*
X113018628Y-42346272D01*
X113052943Y-42366642D01*
X113060154Y-42369703D01*
X113080648Y-42362764D01*
X113128413Y-42343849D01*
X113196732Y-42315813D01*
X113278889Y-42281509D01*
X113368170Y-42243791D01*
X113457858Y-42205513D01*
X113541238Y-42169530D01*
X113611594Y-42138694D01*
X113662210Y-42115861D01*
X113686371Y-42103883D01*
X113687322Y-42103176D01*
X113691936Y-42084369D01*
X113702228Y-42034282D01*
X113717187Y-41958107D01*
X113735801Y-41861035D01*
X113757059Y-41748257D01*
X113769318Y-41682458D01*
X113792262Y-41561950D01*
X113814095Y-41453103D01*
X113833622Y-41361424D01*
X113849648Y-41292419D01*
X113860979Y-41251596D01*
X113864574Y-41243389D01*
X113888906Y-41235352D01*
X113943859Y-41228867D01*
X114023008Y-41223930D01*
X114119926Y-41220536D01*
X114228187Y-41218682D01*
X114341365Y-41218362D01*
X114453035Y-41219573D01*
X114556768Y-41222310D01*
X114646141Y-41226569D01*
X114714726Y-41232345D01*
X114756097Y-41239633D01*
X114764710Y-41244005D01*
X114775033Y-41270136D01*
X114789792Y-41325507D01*
X114807252Y-41402793D01*
X114825680Y-41494670D01*
X114831641Y-41526742D01*
X114859966Y-41681376D01*
X114882776Y-41803525D01*
X114900980Y-41897227D01*
X114915483Y-41966516D01*
X114927192Y-42015429D01*
X114937015Y-42048003D01*
X114945856Y-42068272D01*
X114954624Y-42080274D01*
X114956357Y-42081953D01*
X114984271Y-42098716D01*
X115038595Y-42124286D01*
X115112677Y-42156112D01*
X115199865Y-42191640D01*
X115293508Y-42228317D01*
X115386952Y-42263589D01*
X115473547Y-42294904D01*
X115546640Y-42319707D01*
X115599578Y-42335446D01*
X115625711Y-42339568D01*
X115626626Y-42339224D01*
X115647986Y-42325259D01*
X115694984Y-42293578D01*
X115762727Y-42247509D01*
X115846323Y-42190382D01*
X115940882Y-42125527D01*
X115967754Y-42107057D01*
X116065175Y-42041201D01*
X116154063Y-41983250D01*
X116229312Y-41936362D01*
X116285820Y-41903693D01*
X116318481Y-41888400D01*
X116322493Y-41887659D01*
X116343584Y-41900508D01*
X116385364Y-41936012D01*
X116443345Y-41989607D01*
X116513035Y-42056729D01*
X116589945Y-42132813D01*
X116669583Y-42213296D01*
X116747461Y-42293613D01*
X116819086Y-42369201D01*
X116879970Y-42435495D01*
X116925621Y-42487931D01*
X116951550Y-42521945D01*
X116955783Y-42531355D01*
X116945812Y-42553257D01*
X116918920Y-42598100D01*
X116879636Y-42658579D01*
X116848017Y-42705111D01*
X116789998Y-42789425D01*
X116721684Y-42889274D01*
X116653479Y-42989427D01*
X116616975Y-43043273D01*
X116493700Y-43225529D01*
X116576420Y-43378519D01*
X116612659Y-43448218D01*
X116640826Y-43507486D01*
X116656891Y-43547589D01*
X116659126Y-43557797D01*
X116642622Y-43570071D01*
X116595982Y-43594287D01*
X116523509Y-43628637D01*
X116429506Y-43671312D01*
X116318274Y-43720506D01*
X116194115Y-43774410D01*
X116061332Y-43831216D01*
X115924227Y-43889118D01*
X115787102Y-43946307D01*
X115654258Y-44000976D01*
X115529998Y-44051316D01*
X115418625Y-44095520D01*
X115324439Y-44131781D01*
X115251744Y-44158291D01*
X115204841Y-44173242D01*
X115188733Y-44175646D01*
X115168186Y-44156589D01*
X115134833Y-44114864D01*
X115095602Y-44059194D01*
X115092499Y-44054522D01*
X114977323Y-43910636D01*
X114842953Y-43794617D01*
X114693684Y-43707470D01*
X114533813Y-43650201D01*
X114367637Y-43623814D01*
X114199452Y-43629315D01*
X114033555Y-43667710D01*
X113874242Y-43740005D01*
X113839387Y-43761274D01*
X113698637Y-43871904D01*
X113585614Y-44002598D01*
X113500903Y-44148836D01*
X113445094Y-44306092D01*
X113418774Y-44469843D01*
X113422530Y-44635567D01*
X113456950Y-44798738D01*
X113522623Y-44954835D01*
X113620135Y-45099333D01*
X113659713Y-45144031D01*
X113783603Y-45257788D01*
X113914024Y-45340682D01*
X114060215Y-45397544D01*
X114204988Y-45429213D01*
X114367760Y-45437031D01*
X114531340Y-45410962D01*
X114690198Y-45353655D01*
X114838806Y-45267756D01*
X114971635Y-45155914D01*
X115083156Y-45020777D01*
X115094911Y-45003017D01*
X115133408Y-44946750D01*
X115166763Y-44903977D01*
X115188060Y-44883528D01*
X115188733Y-44883231D01*
X115211771Y-44887621D01*
X115264057Y-44905024D01*
X115341290Y-44933632D01*
X115439168Y-44971635D01*
X115553391Y-45017226D01*
X115679658Y-45068597D01*
X115813667Y-45123938D01*
X115951118Y-45181442D01*
X116087708Y-45239299D01*
X116219137Y-45295702D01*
X116341105Y-45348842D01*
X116449309Y-45396910D01*
X116539449Y-45438099D01*
X116607223Y-45470599D01*
X116648330Y-45492603D01*
X116659126Y-45501464D01*
X116650719Y-45528540D01*
X116628172Y-45579203D01*
X116595513Y-45644717D01*
X116576420Y-45680741D01*
X116493700Y-45833732D01*
X116616975Y-46015988D01*
X116680128Y-46109025D01*
X116749627Y-46210885D01*
X116815065Y-46306338D01*
X116848017Y-46354150D01*
X116893173Y-46421395D01*
X116928957Y-46478336D01*
X116950838Y-46517546D01*
X116955463Y-46530281D01*
X116942985Y-46548817D01*
X116908152Y-46589841D01*
X116854578Y-46649375D01*
X116785883Y-46723442D01*
X116705681Y-46808065D01*
X116654186Y-46861585D01*
X116562186Y-46955219D01*
X116479899Y-47036141D01*
X116410845Y-47101077D01*
X116358544Y-47146758D01*
X116326516Y-47169911D01*
X116320016Y-47172132D01*
X116295294Y-47161824D01*
X116245305Y-47133339D01*
X116175112Y-47089837D01*
X116089775Y-47034477D01*
X115994356Y-46970420D01*
X115967754Y-46952203D01*
X115871067Y-46885827D01*
X115784017Y-46826278D01*
X115711495Y-46776884D01*
X115658393Y-46740975D01*
X115629603Y-46721881D01*
X115626626Y-46720036D01*
X115603682Y-46722795D01*
X115553236Y-46737438D01*
X115481941Y-46761413D01*
X115396447Y-46792166D01*
X115303407Y-46827144D01*
X115209474Y-46863793D01*
X115121299Y-46899561D01*
X115045534Y-46931894D01*
X114988831Y-46958238D01*
X114957843Y-46976042D01*
X114956357Y-46977307D01*
X114947501Y-46988194D01*
X114938743Y-47006582D01*
X114929177Y-47036506D01*
X114917896Y-47082003D01*
X114903993Y-47147109D01*
X114886563Y-47235861D01*
X114864698Y-47352293D01*
X114837491Y-47500442D01*
X114831641Y-47532518D01*
X114813274Y-47627586D01*
X114795305Y-47710465D01*
X114779469Y-47773830D01*
X114767500Y-47810358D01*
X114764710Y-47815256D01*
X114739972Y-47823327D01*
X114684690Y-47829887D01*
X114605289Y-47834933D01*
X114508196Y-47838459D01*
X114399838Y-47840461D01*
X114286640Y-47840936D01*
X114175028Y-47839877D01*
X114071429Y-47837282D01*
X113982268Y-47833146D01*
X113913972Y-47827463D01*
X113872966Y-47820231D01*
X113864574Y-47815871D01*
X113856108Y-47791598D01*
X113842335Y-47736326D01*
X113824450Y-47655562D01*
X113803648Y-47554812D01*
X113781123Y-47439583D01*
X113769318Y-47376802D01*
X113747051Y-47257687D01*
X113726879Y-47151465D01*
X113709815Y-47063327D01*
X113696869Y-46998466D01*
X113689055Y-46962074D01*
X113687322Y-46956084D01*
X113667790Y-46945961D01*
X113620743Y-46924562D01*
X113552903Y-46894739D01*
X113470991Y-46859345D01*
X113381728Y-46821232D01*
X113291835Y-46783253D01*
X113208035Y-46748260D01*
X113137047Y-46719106D01*
X113085594Y-46698643D01*
X113060397Y-46689723D01*
X113059296Y-46689557D01*
X113039419Y-46699669D01*
X112993677Y-46728017D01*
X112926617Y-46771623D01*
X112842784Y-46827506D01*
X112746726Y-46892687D01*
X112691550Y-46930579D01*
X112590381Y-46999625D01*
X112498530Y-47060950D01*
X112420644Y-47111563D01*
X112361369Y-47148471D01*
X112325351Y-47168682D01*
X112317277Y-47171601D01*
X112298484Y-47159053D01*
X112258357Y-47124363D01*
X112201393Y-47071963D01*
X112132085Y-47006284D01*
X112054931Y-46931756D01*
X111974425Y-46852813D01*
X111895063Y-46773883D01*
X111821340Y-46699400D01*
X111757752Y-46633794D01*
X111708794Y-46581496D01*
X111678961Y-46546939D01*
X111671842Y-46535378D01*
X111681853Y-46516554D01*
X111709978Y-46471531D01*
X111753354Y-46404687D01*
X111809118Y-46320399D01*
X111874406Y-46223044D01*
X111924146Y-46149607D01*
X112176451Y-45778567D01*
X111921455Y-45159995D01*
X111476831Y-45076175D01*
X111032207Y-44992354D01*
X111032207Y-44066906D01*
X111476831Y-43983086D01*
G37*
X111476831Y-43983086D02*
X111921455Y-43899265D01*
X112048953Y-43589980D01*
X112176451Y-43280694D01*
X111924146Y-42909654D01*
X111853896Y-42805743D01*
X111791172Y-42711813D01*
X111738838Y-42632248D01*
X111699757Y-42571430D01*
X111676793Y-42533743D01*
X111671842Y-42523479D01*
X111684576Y-42504990D01*
X111719782Y-42465480D01*
X111772962Y-42409378D01*
X111839618Y-42341113D01*
X111915254Y-42265114D01*
X111995372Y-42185808D01*
X112075474Y-42107625D01*
X112151064Y-42034993D01*
X112217645Y-41972341D01*
X112270718Y-41924097D01*
X112305787Y-41894690D01*
X112317523Y-41887659D01*
X112339160Y-41897777D01*
X112386562Y-41926141D01*
X112455093Y-41969771D01*
X112540115Y-42025682D01*
X112636993Y-42090894D01*
X112692250Y-42128681D01*
X112793148Y-42197557D01*
X112884199Y-42258760D01*
X112960870Y-42309322D01*
X113018628Y-42346272D01*
X113052943Y-42366642D01*
X113060154Y-42369703D01*
X113080648Y-42362764D01*
X113128413Y-42343849D01*
X113196732Y-42315813D01*
X113278889Y-42281509D01*
X113368170Y-42243791D01*
X113457858Y-42205513D01*
X113541238Y-42169530D01*
X113611594Y-42138694D01*
X113662210Y-42115861D01*
X113686371Y-42103883D01*
X113687322Y-42103176D01*
X113691936Y-42084369D01*
X113702228Y-42034282D01*
X113717187Y-41958107D01*
X113735801Y-41861035D01*
X113757059Y-41748257D01*
X113769318Y-41682458D01*
X113792262Y-41561950D01*
X113814095Y-41453103D01*
X113833622Y-41361424D01*
X113849648Y-41292419D01*
X113860979Y-41251596D01*
X113864574Y-41243389D01*
X113888906Y-41235352D01*
X113943859Y-41228867D01*
X114023008Y-41223930D01*
X114119926Y-41220536D01*
X114228187Y-41218682D01*
X114341365Y-41218362D01*
X114453035Y-41219573D01*
X114556768Y-41222310D01*
X114646141Y-41226569D01*
X114714726Y-41232345D01*
X114756097Y-41239633D01*
X114764710Y-41244005D01*
X114775033Y-41270136D01*
X114789792Y-41325507D01*
X114807252Y-41402793D01*
X114825680Y-41494670D01*
X114831641Y-41526742D01*
X114859966Y-41681376D01*
X114882776Y-41803525D01*
X114900980Y-41897227D01*
X114915483Y-41966516D01*
X114927192Y-42015429D01*
X114937015Y-42048003D01*
X114945856Y-42068272D01*
X114954624Y-42080274D01*
X114956357Y-42081953D01*
X114984271Y-42098716D01*
X115038595Y-42124286D01*
X115112677Y-42156112D01*
X115199865Y-42191640D01*
X115293508Y-42228317D01*
X115386952Y-42263589D01*
X115473547Y-42294904D01*
X115546640Y-42319707D01*
X115599578Y-42335446D01*
X115625711Y-42339568D01*
X115626626Y-42339224D01*
X115647986Y-42325259D01*
X115694984Y-42293578D01*
X115762727Y-42247509D01*
X115846323Y-42190382D01*
X115940882Y-42125527D01*
X115967754Y-42107057D01*
X116065175Y-42041201D01*
X116154063Y-41983250D01*
X116229312Y-41936362D01*
X116285820Y-41903693D01*
X116318481Y-41888400D01*
X116322493Y-41887659D01*
X116343584Y-41900508D01*
X116385364Y-41936012D01*
X116443345Y-41989607D01*
X116513035Y-42056729D01*
X116589945Y-42132813D01*
X116669583Y-42213296D01*
X116747461Y-42293613D01*
X116819086Y-42369201D01*
X116879970Y-42435495D01*
X116925621Y-42487931D01*
X116951550Y-42521945D01*
X116955783Y-42531355D01*
X116945812Y-42553257D01*
X116918920Y-42598100D01*
X116879636Y-42658579D01*
X116848017Y-42705111D01*
X116789998Y-42789425D01*
X116721684Y-42889274D01*
X116653479Y-42989427D01*
X116616975Y-43043273D01*
X116493700Y-43225529D01*
X116576420Y-43378519D01*
X116612659Y-43448218D01*
X116640826Y-43507486D01*
X116656891Y-43547589D01*
X116659126Y-43557797D01*
X116642622Y-43570071D01*
X116595982Y-43594287D01*
X116523509Y-43628637D01*
X116429506Y-43671312D01*
X116318274Y-43720506D01*
X116194115Y-43774410D01*
X116061332Y-43831216D01*
X115924227Y-43889118D01*
X115787102Y-43946307D01*
X115654258Y-44000976D01*
X115529998Y-44051316D01*
X115418625Y-44095520D01*
X115324439Y-44131781D01*
X115251744Y-44158291D01*
X115204841Y-44173242D01*
X115188733Y-44175646D01*
X115168186Y-44156589D01*
X115134833Y-44114864D01*
X115095602Y-44059194D01*
X115092499Y-44054522D01*
X114977323Y-43910636D01*
X114842953Y-43794617D01*
X114693684Y-43707470D01*
X114533813Y-43650201D01*
X114367637Y-43623814D01*
X114199452Y-43629315D01*
X114033555Y-43667710D01*
X113874242Y-43740005D01*
X113839387Y-43761274D01*
X113698637Y-43871904D01*
X113585614Y-44002598D01*
X113500903Y-44148836D01*
X113445094Y-44306092D01*
X113418774Y-44469843D01*
X113422530Y-44635567D01*
X113456950Y-44798738D01*
X113522623Y-44954835D01*
X113620135Y-45099333D01*
X113659713Y-45144031D01*
X113783603Y-45257788D01*
X113914024Y-45340682D01*
X114060215Y-45397544D01*
X114204988Y-45429213D01*
X114367760Y-45437031D01*
X114531340Y-45410962D01*
X114690198Y-45353655D01*
X114838806Y-45267756D01*
X114971635Y-45155914D01*
X115083156Y-45020777D01*
X115094911Y-45003017D01*
X115133408Y-44946750D01*
X115166763Y-44903977D01*
X115188060Y-44883528D01*
X115188733Y-44883231D01*
X115211771Y-44887621D01*
X115264057Y-44905024D01*
X115341290Y-44933632D01*
X115439168Y-44971635D01*
X115553391Y-45017226D01*
X115679658Y-45068597D01*
X115813667Y-45123938D01*
X115951118Y-45181442D01*
X116087708Y-45239299D01*
X116219137Y-45295702D01*
X116341105Y-45348842D01*
X116449309Y-45396910D01*
X116539449Y-45438099D01*
X116607223Y-45470599D01*
X116648330Y-45492603D01*
X116659126Y-45501464D01*
X116650719Y-45528540D01*
X116628172Y-45579203D01*
X116595513Y-45644717D01*
X116576420Y-45680741D01*
X116493700Y-45833732D01*
X116616975Y-46015988D01*
X116680128Y-46109025D01*
X116749627Y-46210885D01*
X116815065Y-46306338D01*
X116848017Y-46354150D01*
X116893173Y-46421395D01*
X116928957Y-46478336D01*
X116950838Y-46517546D01*
X116955463Y-46530281D01*
X116942985Y-46548817D01*
X116908152Y-46589841D01*
X116854578Y-46649375D01*
X116785883Y-46723442D01*
X116705681Y-46808065D01*
X116654186Y-46861585D01*
X116562186Y-46955219D01*
X116479899Y-47036141D01*
X116410845Y-47101077D01*
X116358544Y-47146758D01*
X116326516Y-47169911D01*
X116320016Y-47172132D01*
X116295294Y-47161824D01*
X116245305Y-47133339D01*
X116175112Y-47089837D01*
X116089775Y-47034477D01*
X115994356Y-46970420D01*
X115967754Y-46952203D01*
X115871067Y-46885827D01*
X115784017Y-46826278D01*
X115711495Y-46776884D01*
X115658393Y-46740975D01*
X115629603Y-46721881D01*
X115626626Y-46720036D01*
X115603682Y-46722795D01*
X115553236Y-46737438D01*
X115481941Y-46761413D01*
X115396447Y-46792166D01*
X115303407Y-46827144D01*
X115209474Y-46863793D01*
X115121299Y-46899561D01*
X115045534Y-46931894D01*
X114988831Y-46958238D01*
X114957843Y-46976042D01*
X114956357Y-46977307D01*
X114947501Y-46988194D01*
X114938743Y-47006582D01*
X114929177Y-47036506D01*
X114917896Y-47082003D01*
X114903993Y-47147109D01*
X114886563Y-47235861D01*
X114864698Y-47352293D01*
X114837491Y-47500442D01*
X114831641Y-47532518D01*
X114813274Y-47627586D01*
X114795305Y-47710465D01*
X114779469Y-47773830D01*
X114767500Y-47810358D01*
X114764710Y-47815256D01*
X114739972Y-47823327D01*
X114684690Y-47829887D01*
X114605289Y-47834933D01*
X114508196Y-47838459D01*
X114399838Y-47840461D01*
X114286640Y-47840936D01*
X114175028Y-47839877D01*
X114071429Y-47837282D01*
X113982268Y-47833146D01*
X113913972Y-47827463D01*
X113872966Y-47820231D01*
X113864574Y-47815871D01*
X113856108Y-47791598D01*
X113842335Y-47736326D01*
X113824450Y-47655562D01*
X113803648Y-47554812D01*
X113781123Y-47439583D01*
X113769318Y-47376802D01*
X113747051Y-47257687D01*
X113726879Y-47151465D01*
X113709815Y-47063327D01*
X113696869Y-46998466D01*
X113689055Y-46962074D01*
X113687322Y-46956084D01*
X113667790Y-46945961D01*
X113620743Y-46924562D01*
X113552903Y-46894739D01*
X113470991Y-46859345D01*
X113381728Y-46821232D01*
X113291835Y-46783253D01*
X113208035Y-46748260D01*
X113137047Y-46719106D01*
X113085594Y-46698643D01*
X113060397Y-46689723D01*
X113059296Y-46689557D01*
X113039419Y-46699669D01*
X112993677Y-46728017D01*
X112926617Y-46771623D01*
X112842784Y-46827506D01*
X112746726Y-46892687D01*
X112691550Y-46930579D01*
X112590381Y-46999625D01*
X112498530Y-47060950D01*
X112420644Y-47111563D01*
X112361369Y-47148471D01*
X112325351Y-47168682D01*
X112317277Y-47171601D01*
X112298484Y-47159053D01*
X112258357Y-47124363D01*
X112201393Y-47071963D01*
X112132085Y-47006284D01*
X112054931Y-46931756D01*
X111974425Y-46852813D01*
X111895063Y-46773883D01*
X111821340Y-46699400D01*
X111757752Y-46633794D01*
X111708794Y-46581496D01*
X111678961Y-46546939D01*
X111671842Y-46535378D01*
X111681853Y-46516554D01*
X111709978Y-46471531D01*
X111753354Y-46404687D01*
X111809118Y-46320399D01*
X111874406Y-46223044D01*
X111924146Y-46149607D01*
X112176451Y-45778567D01*
X111921455Y-45159995D01*
X111476831Y-45076175D01*
X111032207Y-44992354D01*
X111032207Y-44066906D01*
X111476831Y-43983086D01*
D11*
X117516280Y-98571233D02*
X118230566Y-98571233D01*
X118373423Y-98618852D01*
X118468661Y-98714090D01*
X118516280Y-98856947D01*
X118516280Y-98952185D01*
X117516280Y-97666471D02*
X117516280Y-97856947D01*
X117563900Y-97952185D01*
X117611519Y-97999804D01*
X117754376Y-98095042D01*
X117944852Y-98142661D01*
X118325804Y-98142661D01*
X118421042Y-98095042D01*
X118468661Y-98047423D01*
X118516280Y-97952185D01*
X118516280Y-97761709D01*
X118468661Y-97666471D01*
X118421042Y-97618852D01*
X118325804Y-97571233D01*
X118087709Y-97571233D01*
X117992471Y-97618852D01*
X117944852Y-97666471D01*
X117897233Y-97761709D01*
X117897233Y-97952185D01*
X117944852Y-98047423D01*
X117992471Y-98095042D01*
X118087709Y-98142661D01*
X117516280Y-86876433D02*
X118230566Y-86876433D01*
X118373423Y-86924052D01*
X118468661Y-87019290D01*
X118516280Y-87162147D01*
X118516280Y-87257385D01*
X117849614Y-85971671D02*
X118516280Y-85971671D01*
X117468661Y-86209766D02*
X118182947Y-86447861D01*
X118182947Y-85828814D01*
X178434880Y-86620533D02*
X179149166Y-86620533D01*
X179292023Y-86668152D01*
X179387261Y-86763390D01*
X179434880Y-86906247D01*
X179434880Y-87001485D01*
X179434880Y-85620533D02*
X179434880Y-86191961D01*
X179434880Y-85906247D02*
X178434880Y-85906247D01*
X178577738Y-86001485D01*
X178672976Y-86096723D01*
X178720595Y-86191961D01*
X117516280Y-89416433D02*
X118230566Y-89416433D01*
X118373423Y-89464052D01*
X118468661Y-89559290D01*
X118516280Y-89702147D01*
X118516280Y-89797385D01*
X117516280Y-88464052D02*
X117516280Y-88940242D01*
X117992471Y-88987861D01*
X117944852Y-88940242D01*
X117897233Y-88845004D01*
X117897233Y-88606909D01*
X117944852Y-88511671D01*
X117992471Y-88464052D01*
X118087709Y-88416433D01*
X118325804Y-88416433D01*
X118421042Y-88464052D01*
X118468661Y-88511671D01*
X118516280Y-88606909D01*
X118516280Y-88845004D01*
X118468661Y-88940242D01*
X118421042Y-88987861D01*
X117516280Y-110026633D02*
X118230566Y-110026633D01*
X118373423Y-110074252D01*
X118468661Y-110169490D01*
X118516280Y-110312347D01*
X118516280Y-110407585D01*
X118516280Y-109502823D02*
X118516280Y-109312347D01*
X118468661Y-109217109D01*
X118421042Y-109169490D01*
X118278185Y-109074252D01*
X118087709Y-109026633D01*
X117706757Y-109026633D01*
X117611519Y-109074252D01*
X117563900Y-109121871D01*
X117516280Y-109217109D01*
X117516280Y-109407585D01*
X117563900Y-109502823D01*
X117611519Y-109550442D01*
X117706757Y-109598061D01*
X117944852Y-109598061D01*
X118040090Y-109550442D01*
X118087709Y-109502823D01*
X118135328Y-109407585D01*
X118135328Y-109217109D01*
X118087709Y-109121871D01*
X118040090Y-109074252D01*
X117944852Y-109026633D01*
X117516280Y-100565133D02*
X118230566Y-100565133D01*
X118373423Y-100612752D01*
X118468661Y-100707990D01*
X118516280Y-100850847D01*
X118516280Y-100946085D01*
X117516280Y-100184180D02*
X117516280Y-99517514D01*
X118516280Y-99946085D01*
X117516280Y-113373023D02*
X118230566Y-113373023D01*
X118373423Y-113420642D01*
X118468661Y-113515880D01*
X118516280Y-113658738D01*
X118516280Y-113753976D01*
X118516280Y-112373023D02*
X118516280Y-112944452D01*
X118516280Y-112658738D02*
X117516280Y-112658738D01*
X117659138Y-112753976D01*
X117754376Y-112849214D01*
X117801995Y-112944452D01*
X117516280Y-111753976D02*
X117516280Y-111658738D01*
X117563900Y-111563500D01*
X117611519Y-111515880D01*
X117706757Y-111468261D01*
X117897233Y-111420642D01*
X118135328Y-111420642D01*
X118325804Y-111468261D01*
X118421042Y-111515880D01*
X118468661Y-111563500D01*
X118516280Y-111658738D01*
X118516280Y-111753976D01*
X118468661Y-111849214D01*
X118421042Y-111896833D01*
X118325804Y-111944452D01*
X118135328Y-111992071D01*
X117897233Y-111992071D01*
X117706757Y-111944452D01*
X117611519Y-111896833D01*
X117563900Y-111849214D01*
X117516280Y-111753976D01*
X117516280Y-107435833D02*
X118230566Y-107435833D01*
X118373423Y-107483452D01*
X118468661Y-107578690D01*
X118516280Y-107721547D01*
X118516280Y-107816785D01*
X117944852Y-106816785D02*
X117897233Y-106912023D01*
X117849614Y-106959642D01*
X117754376Y-107007261D01*
X117706757Y-107007261D01*
X117611519Y-106959642D01*
X117563900Y-106912023D01*
X117516280Y-106816785D01*
X117516280Y-106626309D01*
X117563900Y-106531071D01*
X117611519Y-106483452D01*
X117706757Y-106435833D01*
X117754376Y-106435833D01*
X117849614Y-106483452D01*
X117897233Y-106531071D01*
X117944852Y-106626309D01*
X117944852Y-106816785D01*
X117992471Y-106912023D01*
X118040090Y-106959642D01*
X118135328Y-107007261D01*
X118325804Y-107007261D01*
X118421042Y-106959642D01*
X118468661Y-106912023D01*
X118516280Y-106816785D01*
X118516280Y-106626309D01*
X118468661Y-106531071D01*
X118421042Y-106483452D01*
X118325804Y-106435833D01*
X118135328Y-106435833D01*
X118040090Y-106483452D01*
X117992471Y-106531071D01*
X117944852Y-106626309D01*
X117516280Y-84461533D02*
X118230566Y-84461533D01*
X118373423Y-84509152D01*
X118468661Y-84604390D01*
X118516280Y-84747247D01*
X118516280Y-84842485D01*
X117516280Y-84080580D02*
X117516280Y-83461533D01*
X117897233Y-83794866D01*
X117897233Y-83652009D01*
X117944852Y-83556771D01*
X117992471Y-83509152D01*
X118087709Y-83461533D01*
X118325804Y-83461533D01*
X118421042Y-83509152D01*
X118468661Y-83556771D01*
X118516280Y-83652009D01*
X118516280Y-83937723D01*
X118468661Y-84032961D01*
X118421042Y-84080580D01*
X178193580Y-120090033D02*
X178907866Y-120090033D01*
X179050723Y-120137652D01*
X179145961Y-120232890D01*
X179193580Y-120375747D01*
X179193580Y-120470985D01*
X178288819Y-119661461D02*
X178241200Y-119613842D01*
X178193580Y-119518604D01*
X178193580Y-119280509D01*
X178241200Y-119185271D01*
X178288819Y-119137652D01*
X178384057Y-119090033D01*
X178479295Y-119090033D01*
X178622152Y-119137652D01*
X179193580Y-119709080D01*
X179193580Y-119090033D01*
X117516280Y-49571233D02*
X118230566Y-49571233D01*
X118373423Y-49618852D01*
X118468661Y-49714090D01*
X118516280Y-49856947D01*
X118516280Y-49952185D01*
X117516280Y-48666471D02*
X117516280Y-48856947D01*
X117563900Y-48952185D01*
X117611519Y-48999804D01*
X117754376Y-49095042D01*
X117944852Y-49142661D01*
X118325804Y-49142661D01*
X118421042Y-49095042D01*
X118468661Y-49047423D01*
X118516280Y-48952185D01*
X118516280Y-48761709D01*
X118468661Y-48666471D01*
X118421042Y-48618852D01*
X118325804Y-48571233D01*
X118087709Y-48571233D01*
X117992471Y-48618852D01*
X117944852Y-48666471D01*
X117897233Y-48761709D01*
X117897233Y-48952185D01*
X117944852Y-49047423D01*
X117992471Y-49095042D01*
X118087709Y-49142661D01*
X117516280Y-37876433D02*
X118230566Y-37876433D01*
X118373423Y-37924052D01*
X118468661Y-38019290D01*
X118516280Y-38162147D01*
X118516280Y-38257385D01*
X117849614Y-36971671D02*
X118516280Y-36971671D01*
X117468661Y-37209766D02*
X118182947Y-37447861D01*
X118182947Y-36828814D01*
X117516280Y-40416433D02*
X118230566Y-40416433D01*
X118373423Y-40464052D01*
X118468661Y-40559290D01*
X118516280Y-40702147D01*
X118516280Y-40797385D01*
X117516280Y-39464052D02*
X117516280Y-39940242D01*
X117992471Y-39987861D01*
X117944852Y-39940242D01*
X117897233Y-39845004D01*
X117897233Y-39606909D01*
X117944852Y-39511671D01*
X117992471Y-39464052D01*
X118087709Y-39416433D01*
X118325804Y-39416433D01*
X118421042Y-39464052D01*
X118468661Y-39511671D01*
X118516280Y-39606909D01*
X118516280Y-39845004D01*
X118468661Y-39940242D01*
X118421042Y-39987861D01*
X178193580Y-71090033D02*
X178907866Y-71090033D01*
X179050723Y-71137652D01*
X179145961Y-71232890D01*
X179193580Y-71375747D01*
X179193580Y-71470985D01*
X178288819Y-70661461D02*
X178241200Y-70613842D01*
X178193580Y-70518604D01*
X178193580Y-70280509D01*
X178241200Y-70185271D01*
X178288819Y-70137652D01*
X178384057Y-70090033D01*
X178479295Y-70090033D01*
X178622152Y-70137652D01*
X179193580Y-70709080D01*
X179193580Y-70090033D01*
X117516280Y-64373023D02*
X118230566Y-64373023D01*
X118373423Y-64420642D01*
X118468661Y-64515880D01*
X118516280Y-64658738D01*
X118516280Y-64753976D01*
X118516280Y-63373023D02*
X118516280Y-63944452D01*
X118516280Y-63658738D02*
X117516280Y-63658738D01*
X117659138Y-63753976D01*
X117754376Y-63849214D01*
X117801995Y-63944452D01*
X117516280Y-62753976D02*
X117516280Y-62658738D01*
X117563900Y-62563500D01*
X117611519Y-62515880D01*
X117706757Y-62468261D01*
X117897233Y-62420642D01*
X118135328Y-62420642D01*
X118325804Y-62468261D01*
X118421042Y-62515880D01*
X118468661Y-62563500D01*
X118516280Y-62658738D01*
X118516280Y-62753976D01*
X118468661Y-62849214D01*
X118421042Y-62896833D01*
X118325804Y-62944452D01*
X118135328Y-62992071D01*
X117897233Y-62992071D01*
X117706757Y-62944452D01*
X117611519Y-62896833D01*
X117563900Y-62849214D01*
X117516280Y-62753976D01*
X117516280Y-61026633D02*
X118230566Y-61026633D01*
X118373423Y-61074252D01*
X118468661Y-61169490D01*
X118516280Y-61312347D01*
X118516280Y-61407585D01*
X118516280Y-60502823D02*
X118516280Y-60312347D01*
X118468661Y-60217109D01*
X118421042Y-60169490D01*
X118278185Y-60074252D01*
X118087709Y-60026633D01*
X117706757Y-60026633D01*
X117611519Y-60074252D01*
X117563900Y-60121871D01*
X117516280Y-60217109D01*
X117516280Y-60407585D01*
X117563900Y-60502823D01*
X117611519Y-60550442D01*
X117706757Y-60598061D01*
X117944852Y-60598061D01*
X118040090Y-60550442D01*
X118087709Y-60502823D01*
X118135328Y-60407585D01*
X118135328Y-60217109D01*
X118087709Y-60121871D01*
X118040090Y-60074252D01*
X117944852Y-60026633D01*
X117516280Y-58435833D02*
X118230566Y-58435833D01*
X118373423Y-58483452D01*
X118468661Y-58578690D01*
X118516280Y-58721547D01*
X118516280Y-58816785D01*
X117944852Y-57816785D02*
X117897233Y-57912023D01*
X117849614Y-57959642D01*
X117754376Y-58007261D01*
X117706757Y-58007261D01*
X117611519Y-57959642D01*
X117563900Y-57912023D01*
X117516280Y-57816785D01*
X117516280Y-57626309D01*
X117563900Y-57531071D01*
X117611519Y-57483452D01*
X117706757Y-57435833D01*
X117754376Y-57435833D01*
X117849614Y-57483452D01*
X117897233Y-57531071D01*
X117944852Y-57626309D01*
X117944852Y-57816785D01*
X117992471Y-57912023D01*
X118040090Y-57959642D01*
X118135328Y-58007261D01*
X118325804Y-58007261D01*
X118421042Y-57959642D01*
X118468661Y-57912023D01*
X118516280Y-57816785D01*
X118516280Y-57626309D01*
X118468661Y-57531071D01*
X118421042Y-57483452D01*
X118325804Y-57435833D01*
X118135328Y-57435833D01*
X118040090Y-57483452D01*
X117992471Y-57531071D01*
X117944852Y-57626309D01*
X117516280Y-35461533D02*
X118230566Y-35461533D01*
X118373423Y-35509152D01*
X118468661Y-35604390D01*
X118516280Y-35747247D01*
X118516280Y-35842485D01*
X117516280Y-35080580D02*
X117516280Y-34461533D01*
X117897233Y-34794866D01*
X117897233Y-34652009D01*
X117944852Y-34556771D01*
X117992471Y-34509152D01*
X118087709Y-34461533D01*
X118325804Y-34461533D01*
X118421042Y-34509152D01*
X118468661Y-34556771D01*
X118516280Y-34652009D01*
X118516280Y-34937723D01*
X118468661Y-35032961D01*
X118421042Y-35080580D01*
X117516280Y-51565133D02*
X118230566Y-51565133D01*
X118373423Y-51612752D01*
X118468661Y-51707990D01*
X118516280Y-51850847D01*
X118516280Y-51946085D01*
X117516280Y-51184180D02*
X117516280Y-50517514D01*
X118516280Y-50946085D01*
X178434880Y-37620533D02*
X179149166Y-37620533D01*
X179292023Y-37668152D01*
X179387261Y-37763390D01*
X179434880Y-37906247D01*
X179434880Y-38001485D01*
X179434880Y-36620533D02*
X179434880Y-37191961D01*
X179434880Y-36906247D02*
X178434880Y-36906247D01*
X178577738Y-37001485D01*
X178672976Y-37096723D01*
X178720595Y-37191961D01*
%LPC*%
D14*
X131143500Y-104323100D03*
D15*
X120983500Y-99243100D03*
D16*
X123523500Y-99243100D03*
X126063500Y-99243100D03*
X128603500Y-99243100D03*
X131143500Y-99243100D03*
X133683500Y-99243100D03*
X136223500Y-99243100D03*
X138763500Y-99243100D03*
X141303500Y-99243100D03*
X143843500Y-99243100D03*
X146383500Y-99243100D03*
X148923500Y-99243100D03*
X151463500Y-99243100D03*
X154003500Y-99243100D03*
X156543500Y-99243100D03*
X159083500Y-99243100D03*
X161623500Y-99243100D03*
X164163500Y-99243100D03*
X166703500Y-99243100D03*
X169243500Y-99243100D03*
D15*
X120983500Y-86543100D03*
D16*
X123523500Y-86543100D03*
X126063500Y-86543100D03*
X128603500Y-86543100D03*
X131143500Y-86543100D03*
X133683500Y-86543100D03*
X136223500Y-86543100D03*
X138763500Y-86543100D03*
X141303500Y-86543100D03*
X143843500Y-86543100D03*
X146383500Y-86543100D03*
X148923500Y-86543100D03*
X151463500Y-86543100D03*
X154003500Y-86543100D03*
X156543500Y-86543100D03*
X159083500Y-86543100D03*
X161623500Y-86543100D03*
X164163500Y-86543100D03*
X166703500Y-86543100D03*
X169243500Y-86543100D03*
D14*
X169243500Y-117023100D03*
X136223500Y-114483100D03*
X133683500Y-114483100D03*
X131143500Y-119563100D03*
X131143500Y-114483100D03*
X128603500Y-114483100D03*
X126063500Y-114483100D03*
X123523500Y-114483100D03*
X141303500Y-114483100D03*
X136223500Y-96703100D03*
X120983500Y-114483100D03*
X146383500Y-114483100D03*
D17*
X172723500Y-83053100D03*
D14*
X143843500Y-114483100D03*
X166703500Y-117023100D03*
X138763500Y-114483100D03*
D17*
X115723500Y-103053100D03*
D14*
X141303500Y-96703100D03*
X143843500Y-96703100D03*
X156543500Y-114483100D03*
X151463500Y-117023100D03*
X151463500Y-104323100D03*
X133683500Y-117023100D03*
X171783500Y-112853100D03*
X171783500Y-116353100D03*
X171783500Y-93253100D03*
D18*
X178723500Y-96753100D03*
D19*
X178723500Y-93253100D03*
X178723500Y-89753100D03*
D14*
X159083500Y-81463100D03*
X161623500Y-81463100D03*
X138763500Y-104323100D03*
X159083500Y-117023100D03*
X169243500Y-122103100D03*
X166703500Y-122103100D03*
X164163500Y-122103100D03*
X136223500Y-104323100D03*
D17*
X179723500Y-103053100D03*
X172723500Y-123053100D03*
D14*
X136223500Y-81463100D03*
X138763500Y-81463100D03*
X141303500Y-81463100D03*
X143843500Y-81463100D03*
X146383500Y-81463100D03*
X148923500Y-81463100D03*
X151463500Y-81463100D03*
X154003500Y-81463100D03*
X171783500Y-89753100D03*
X171783500Y-96753100D03*
X171783500Y-109353100D03*
X164163500Y-114483100D03*
X164163500Y-117023100D03*
X156543500Y-104323100D03*
X161623500Y-119563100D03*
X123523500Y-104323100D03*
X128603500Y-104323100D03*
X141303500Y-104323100D03*
X143843500Y-104323100D03*
X146383500Y-104323100D03*
X146383500Y-122103100D03*
D17*
X122723500Y-123053100D03*
D14*
X161623500Y-117023100D03*
X151463500Y-119563100D03*
X136223500Y-117023100D03*
X143843500Y-117023100D03*
X159083500Y-114483100D03*
X148923500Y-119563100D03*
X148923500Y-117023100D03*
X164163500Y-104323100D03*
X148923500Y-122103100D03*
X154003500Y-122103100D03*
X166703500Y-119563100D03*
X156543500Y-119563100D03*
X133683500Y-122103100D03*
X159083500Y-119563100D03*
X138763500Y-117023100D03*
X154003500Y-117023100D03*
X151463500Y-114483100D03*
X154003500Y-104323100D03*
X141303500Y-117023100D03*
X138763500Y-96703100D03*
X133683500Y-104323100D03*
X156543500Y-117023100D03*
X131143500Y-122103100D03*
X161623500Y-104323100D03*
X146383500Y-117023100D03*
X164163500Y-119563100D03*
X126063500Y-104323100D03*
X154003500Y-114483100D03*
X136223500Y-122103100D03*
X159083500Y-122103100D03*
X120983500Y-104323100D03*
X161623500Y-122103100D03*
X161623500Y-114483100D03*
X169243500Y-119563100D03*
X156543500Y-122103100D03*
X151463500Y-122103100D03*
X154003500Y-119563100D03*
X159083500Y-104323100D03*
D15*
X120983500Y-89083100D03*
D16*
X123523500Y-89083100D03*
X126063500Y-89083100D03*
X128603500Y-89083100D03*
X131143500Y-89083100D03*
X133683500Y-89083100D03*
X136223500Y-89083100D03*
X138763500Y-89083100D03*
X141303500Y-89083100D03*
X143843500Y-89083100D03*
X146383500Y-89083100D03*
X148923500Y-89083100D03*
X151463500Y-89083100D03*
X154003500Y-89083100D03*
X156543500Y-89083100D03*
X159083500Y-89083100D03*
X161623500Y-89083100D03*
X164163500Y-89083100D03*
X166703500Y-89083100D03*
X169243500Y-89083100D03*
D14*
X143843500Y-94163100D03*
X146383500Y-94163100D03*
X159083500Y-96703100D03*
X133683500Y-119563100D03*
X136223500Y-119563100D03*
X138763500Y-119563100D03*
X138763500Y-122103100D03*
X141303500Y-119563100D03*
X141303500Y-122103100D03*
X148923500Y-114483100D03*
X169243500Y-114483100D03*
X143843500Y-119563100D03*
X120983500Y-117023100D03*
X123523500Y-117023100D03*
X126063500Y-117023100D03*
X128603500Y-117023100D03*
X169243500Y-96703100D03*
X131143500Y-117023100D03*
X166703500Y-114483100D03*
X161623500Y-96703100D03*
X164163500Y-96703100D03*
X166703500Y-96703100D03*
X151463500Y-96703100D03*
X154003500Y-96703100D03*
X156543500Y-96703100D03*
X131143500Y-96703100D03*
X133683500Y-96703100D03*
X169243500Y-94163100D03*
X120983500Y-96703100D03*
X146383500Y-96703100D03*
X123523500Y-96703100D03*
X126063500Y-96703100D03*
X148923500Y-94163100D03*
X151463500Y-94163100D03*
X128603500Y-96703100D03*
X133683500Y-94163100D03*
X136223500Y-94163100D03*
X154003500Y-94163100D03*
X156543500Y-94163100D03*
X159083500Y-94163100D03*
X161623500Y-94163100D03*
X164163500Y-94163100D03*
X166703500Y-94163100D03*
X146383500Y-91623100D03*
X148923500Y-91623100D03*
X151463500Y-91623100D03*
X154003500Y-91623100D03*
X156543500Y-91623100D03*
X159083500Y-91623100D03*
X138763500Y-94163100D03*
X141303500Y-94163100D03*
X126063500Y-81463100D03*
X123523500Y-81463100D03*
X120983500Y-81463100D03*
X131143500Y-91623100D03*
X133683500Y-91623100D03*
X136223500Y-91623100D03*
X138763500Y-91623100D03*
X141303500Y-91623100D03*
X143843500Y-91623100D03*
X123523500Y-91623100D03*
X126063500Y-91623100D03*
X128603500Y-91623100D03*
X166703500Y-124643100D03*
X169243500Y-124643100D03*
X131143500Y-124643100D03*
X133683500Y-124643100D03*
X133683500Y-81463100D03*
X131143500Y-81463100D03*
X128603500Y-81463100D03*
X120983500Y-94163100D03*
X123523500Y-94163100D03*
X126063500Y-94163100D03*
X154003500Y-124643100D03*
X136223500Y-124643100D03*
X138763500Y-124643100D03*
X141303500Y-124643100D03*
X143843500Y-124643100D03*
X148923500Y-96703100D03*
X146383500Y-124643100D03*
X151463500Y-124643100D03*
X156543500Y-124643100D03*
X148923500Y-124643100D03*
D15*
X120983500Y-109403100D03*
D16*
X123523500Y-109403100D03*
X126063500Y-109403100D03*
X128603500Y-109403100D03*
X131143500Y-109403100D03*
X133683500Y-109403100D03*
X136223500Y-109403100D03*
X138763500Y-109403100D03*
X141303500Y-109403100D03*
X143843500Y-109403100D03*
X146383500Y-109403100D03*
X148923500Y-109403100D03*
X151463500Y-109403100D03*
X154003500Y-109403100D03*
X156543500Y-109403100D03*
X159083500Y-109403100D03*
X161623500Y-109403100D03*
X164163500Y-109403100D03*
X166703500Y-109403100D03*
X169243500Y-109403100D03*
D14*
X128603500Y-94163100D03*
X131143500Y-94163100D03*
X164163500Y-81463100D03*
X166703500Y-81463100D03*
X169243500Y-81463100D03*
X156543500Y-81463100D03*
D20*
X173323500Y-101783100D03*
X173323500Y-104323100D03*
D15*
X120983500Y-101783100D03*
D16*
X123523500Y-101783100D03*
X126063500Y-101783100D03*
X128603500Y-101783100D03*
X131143500Y-101783100D03*
X133683500Y-101783100D03*
X136223500Y-101783100D03*
X138763500Y-101783100D03*
X141303500Y-101783100D03*
X143843500Y-101783100D03*
X146383500Y-101783100D03*
X148923500Y-101783100D03*
X151463500Y-101783100D03*
X154003500Y-101783100D03*
X156543500Y-101783100D03*
X159083500Y-101783100D03*
X161623500Y-101783100D03*
X164163500Y-101783100D03*
X166703500Y-101783100D03*
X169243500Y-101783100D03*
D14*
X161623500Y-91623100D03*
X164163500Y-91623100D03*
X143843500Y-122103100D03*
X166703500Y-91623100D03*
X169243500Y-91623100D03*
D15*
X120983500Y-111943100D03*
D16*
X123523500Y-111943100D03*
X126063500Y-111943100D03*
X128603500Y-111943100D03*
X131143500Y-111943100D03*
X133683500Y-111943100D03*
X136223500Y-111943100D03*
X138763500Y-111943100D03*
X141303500Y-111943100D03*
X143843500Y-111943100D03*
X146383500Y-111943100D03*
X148923500Y-111943100D03*
X151463500Y-111943100D03*
X154003500Y-111943100D03*
X156543500Y-111943100D03*
X159083500Y-111943100D03*
X161623500Y-111943100D03*
X164163500Y-111943100D03*
X166703500Y-111943100D03*
X169243500Y-111943100D03*
D14*
X161623500Y-124643100D03*
X164163500Y-124643100D03*
X159083500Y-124643100D03*
D15*
X120983500Y-106863100D03*
D16*
X123523500Y-106863100D03*
X126063500Y-106863100D03*
X128603500Y-106863100D03*
X131143500Y-106863100D03*
X133683500Y-106863100D03*
X136223500Y-106863100D03*
X138763500Y-106863100D03*
X141303500Y-106863100D03*
X143843500Y-106863100D03*
X146383500Y-106863100D03*
X148923500Y-106863100D03*
X151463500Y-106863100D03*
X154003500Y-106863100D03*
X156543500Y-106863100D03*
X159083500Y-106863100D03*
X161623500Y-106863100D03*
X164163500Y-106863100D03*
X166703500Y-106863100D03*
X169243500Y-106863100D03*
D15*
X120983500Y-84003100D03*
D16*
X123523500Y-84003100D03*
X126063500Y-84003100D03*
X128603500Y-84003100D03*
X131143500Y-84003100D03*
X133683500Y-84003100D03*
X136223500Y-84003100D03*
X138763500Y-84003100D03*
X141303500Y-84003100D03*
X143843500Y-84003100D03*
X146383500Y-84003100D03*
X148923500Y-84003100D03*
X151463500Y-84003100D03*
X154003500Y-84003100D03*
X156543500Y-84003100D03*
X159083500Y-84003100D03*
X161623500Y-84003100D03*
X164163500Y-84003100D03*
X166703500Y-84003100D03*
X169243500Y-84003100D03*
D14*
X148923500Y-104323100D03*
X146383500Y-119563100D03*
X120983500Y-91623100D03*
D18*
X178723500Y-116353100D03*
D19*
X178723500Y-112853100D03*
X178723500Y-109353100D03*
D14*
X169243500Y-104323100D03*
X166703500Y-104323100D03*
D16*
X169243500Y-50243100D03*
X166703500Y-50243100D03*
X164163500Y-50243100D03*
X161623500Y-50243100D03*
X159083500Y-50243100D03*
X156543500Y-50243100D03*
X154003500Y-50243100D03*
X151463500Y-50243100D03*
X148923500Y-50243100D03*
X146383500Y-50243100D03*
X143843500Y-50243100D03*
X141303500Y-50243100D03*
X138763500Y-50243100D03*
X136223500Y-50243100D03*
X133683500Y-50243100D03*
X131143500Y-50243100D03*
X128603500Y-50243100D03*
X126063500Y-50243100D03*
X123523500Y-50243100D03*
D15*
X120983500Y-50243100D03*
D16*
X169243500Y-37543100D03*
X166703500Y-37543100D03*
X164163500Y-37543100D03*
X161623500Y-37543100D03*
X159083500Y-37543100D03*
X156543500Y-37543100D03*
X154003500Y-37543100D03*
X151463500Y-37543100D03*
X148923500Y-37543100D03*
X146383500Y-37543100D03*
X143843500Y-37543100D03*
X141303500Y-37543100D03*
X138763500Y-37543100D03*
X136223500Y-37543100D03*
X133683500Y-37543100D03*
X131143500Y-37543100D03*
X128603500Y-37543100D03*
X126063500Y-37543100D03*
X123523500Y-37543100D03*
D15*
X120983500Y-37543100D03*
D16*
X169243500Y-40083100D03*
X166703500Y-40083100D03*
X164163500Y-40083100D03*
X161623500Y-40083100D03*
X159083500Y-40083100D03*
X156543500Y-40083100D03*
X154003500Y-40083100D03*
X151463500Y-40083100D03*
X148923500Y-40083100D03*
X146383500Y-40083100D03*
X143843500Y-40083100D03*
X141303500Y-40083100D03*
X138763500Y-40083100D03*
X136223500Y-40083100D03*
X133683500Y-40083100D03*
X131143500Y-40083100D03*
X128603500Y-40083100D03*
X126063500Y-40083100D03*
X123523500Y-40083100D03*
D15*
X120983500Y-40083100D03*
D14*
X120983500Y-42623100D03*
D19*
X178723500Y-60353100D03*
X178723500Y-63853100D03*
D18*
X178723500Y-67353100D03*
D14*
X169243500Y-55323100D03*
X166703500Y-55323100D03*
X164163500Y-55323100D03*
X161623500Y-55323100D03*
X159083500Y-55323100D03*
X156543500Y-55323100D03*
X154003500Y-55323100D03*
X151463500Y-55323100D03*
X148923500Y-55323100D03*
X146383500Y-55323100D03*
X143843500Y-55323100D03*
X141303500Y-55323100D03*
X138763500Y-55323100D03*
X136223500Y-55323100D03*
X133683500Y-55323100D03*
X131143500Y-55323100D03*
X128603500Y-55323100D03*
X126063500Y-55323100D03*
X123523500Y-55323100D03*
X120983500Y-55323100D03*
D17*
X122723500Y-74053100D03*
D14*
X169243500Y-73103100D03*
X166703500Y-73103100D03*
X164163500Y-73103100D03*
X161623500Y-73103100D03*
X159083500Y-73103100D03*
X156543500Y-73103100D03*
X154003500Y-73103100D03*
X151463500Y-73103100D03*
X148923500Y-73103100D03*
X146383500Y-73103100D03*
X143843500Y-73103100D03*
X141303500Y-73103100D03*
X138763500Y-73103100D03*
X136223500Y-73103100D03*
X133683500Y-73103100D03*
X131143500Y-73103100D03*
X169243500Y-70563100D03*
X166703500Y-70563100D03*
X164163500Y-70563100D03*
X161623500Y-70563100D03*
X159083500Y-70563100D03*
X156543500Y-70563100D03*
X154003500Y-70563100D03*
X151463500Y-70563100D03*
X148923500Y-70563100D03*
X146383500Y-70563100D03*
X143843500Y-70563100D03*
X141303500Y-70563100D03*
X138763500Y-70563100D03*
X136223500Y-70563100D03*
X133683500Y-70563100D03*
X131143500Y-70563100D03*
X169243500Y-68023100D03*
X166703500Y-68023100D03*
X164163500Y-68023100D03*
X161623500Y-68023100D03*
X159083500Y-68023100D03*
X156543500Y-68023100D03*
X154003500Y-68023100D03*
X151463500Y-68023100D03*
X148923500Y-68023100D03*
X146383500Y-68023100D03*
X143843500Y-68023100D03*
X141303500Y-68023100D03*
X138763500Y-68023100D03*
X136223500Y-68023100D03*
X133683500Y-68023100D03*
X131143500Y-68023100D03*
X128603500Y-68023100D03*
X126063500Y-68023100D03*
X123523500Y-68023100D03*
X120983500Y-68023100D03*
X169243500Y-65483100D03*
X166703500Y-65483100D03*
X164163500Y-65483100D03*
X161623500Y-65483100D03*
X159083500Y-65483100D03*
X156543500Y-65483100D03*
X154003500Y-65483100D03*
X151463500Y-65483100D03*
X148923500Y-65483100D03*
X146383500Y-65483100D03*
X143843500Y-65483100D03*
X141303500Y-65483100D03*
X138763500Y-65483100D03*
X136223500Y-65483100D03*
X133683500Y-65483100D03*
X131143500Y-65483100D03*
X128603500Y-65483100D03*
X126063500Y-65483100D03*
X123523500Y-65483100D03*
X120983500Y-65483100D03*
D17*
X172723500Y-34053100D03*
D14*
X169243500Y-47703100D03*
X166703500Y-47703100D03*
X164163500Y-47703100D03*
X161623500Y-47703100D03*
X159083500Y-47703100D03*
X156543500Y-47703100D03*
X154003500Y-47703100D03*
X151463500Y-47703100D03*
X148923500Y-47703100D03*
X146383500Y-47703100D03*
X143843500Y-47703100D03*
X141303500Y-47703100D03*
X138763500Y-47703100D03*
X136223500Y-47703100D03*
X133683500Y-47703100D03*
X131143500Y-47703100D03*
X128603500Y-47703100D03*
X126063500Y-47703100D03*
X123523500Y-47703100D03*
X120983500Y-47703100D03*
X169243500Y-45163100D03*
X166703500Y-45163100D03*
X164163500Y-45163100D03*
X161623500Y-45163100D03*
X159083500Y-45163100D03*
X156543500Y-45163100D03*
X154003500Y-45163100D03*
X151463500Y-45163100D03*
X148923500Y-45163100D03*
X146383500Y-45163100D03*
X143843500Y-45163100D03*
X141303500Y-45163100D03*
X138763500Y-45163100D03*
X136223500Y-45163100D03*
X133683500Y-45163100D03*
X131143500Y-45163100D03*
X128603500Y-45163100D03*
X126063500Y-45163100D03*
X123523500Y-45163100D03*
X120983500Y-45163100D03*
X169243500Y-42623100D03*
X166703500Y-42623100D03*
X164163500Y-42623100D03*
X161623500Y-42623100D03*
X159083500Y-42623100D03*
X156543500Y-42623100D03*
X154003500Y-42623100D03*
X151463500Y-42623100D03*
X148923500Y-42623100D03*
X146383500Y-42623100D03*
X143843500Y-42623100D03*
X141303500Y-42623100D03*
X138763500Y-42623100D03*
X136223500Y-42623100D03*
X133683500Y-42623100D03*
X131143500Y-42623100D03*
X128603500Y-42623100D03*
X126063500Y-42623100D03*
X123523500Y-42623100D03*
X120983500Y-32463100D03*
X123523500Y-32463100D03*
X126063500Y-32463100D03*
X128603500Y-32463100D03*
X131143500Y-32463100D03*
X133683500Y-32463100D03*
X133683500Y-75643100D03*
X131143500Y-75643100D03*
X169243500Y-75643100D03*
X166703500Y-75643100D03*
X148923500Y-75643100D03*
X156543500Y-75643100D03*
X151463500Y-75643100D03*
X146383500Y-75643100D03*
X143843500Y-75643100D03*
X141303500Y-75643100D03*
X138763500Y-75643100D03*
X136223500Y-75643100D03*
X154003500Y-75643100D03*
X159083500Y-75643100D03*
X164163500Y-75643100D03*
X161623500Y-75643100D03*
D16*
X169243500Y-62943100D03*
X166703500Y-62943100D03*
X164163500Y-62943100D03*
X161623500Y-62943100D03*
X159083500Y-62943100D03*
X156543500Y-62943100D03*
X154003500Y-62943100D03*
X151463500Y-62943100D03*
X148923500Y-62943100D03*
X146383500Y-62943100D03*
X143843500Y-62943100D03*
X141303500Y-62943100D03*
X138763500Y-62943100D03*
X136223500Y-62943100D03*
X133683500Y-62943100D03*
X131143500Y-62943100D03*
X128603500Y-62943100D03*
X126063500Y-62943100D03*
X123523500Y-62943100D03*
D15*
X120983500Y-62943100D03*
D16*
X169243500Y-60403100D03*
X166703500Y-60403100D03*
X164163500Y-60403100D03*
X161623500Y-60403100D03*
X159083500Y-60403100D03*
X156543500Y-60403100D03*
X154003500Y-60403100D03*
X151463500Y-60403100D03*
X148923500Y-60403100D03*
X146383500Y-60403100D03*
X143843500Y-60403100D03*
X141303500Y-60403100D03*
X138763500Y-60403100D03*
X136223500Y-60403100D03*
X133683500Y-60403100D03*
X131143500Y-60403100D03*
X128603500Y-60403100D03*
X126063500Y-60403100D03*
X123523500Y-60403100D03*
D15*
X120983500Y-60403100D03*
D16*
X169243500Y-57863100D03*
X166703500Y-57863100D03*
X164163500Y-57863100D03*
X161623500Y-57863100D03*
X159083500Y-57863100D03*
X156543500Y-57863100D03*
X154003500Y-57863100D03*
X151463500Y-57863100D03*
X148923500Y-57863100D03*
X146383500Y-57863100D03*
X143843500Y-57863100D03*
X141303500Y-57863100D03*
X138763500Y-57863100D03*
X136223500Y-57863100D03*
X133683500Y-57863100D03*
X131143500Y-57863100D03*
X128603500Y-57863100D03*
X126063500Y-57863100D03*
X123523500Y-57863100D03*
D15*
X120983500Y-57863100D03*
D16*
X169243500Y-35003100D03*
X166703500Y-35003100D03*
X164163500Y-35003100D03*
X161623500Y-35003100D03*
X159083500Y-35003100D03*
X156543500Y-35003100D03*
X154003500Y-35003100D03*
X151463500Y-35003100D03*
X148923500Y-35003100D03*
X146383500Y-35003100D03*
X143843500Y-35003100D03*
X141303500Y-35003100D03*
X138763500Y-35003100D03*
X136223500Y-35003100D03*
X133683500Y-35003100D03*
X131143500Y-35003100D03*
X128603500Y-35003100D03*
X126063500Y-35003100D03*
X123523500Y-35003100D03*
D15*
X120983500Y-35003100D03*
D16*
X169243500Y-52783100D03*
X166703500Y-52783100D03*
X164163500Y-52783100D03*
X161623500Y-52783100D03*
X159083500Y-52783100D03*
X156543500Y-52783100D03*
X154003500Y-52783100D03*
X151463500Y-52783100D03*
X148923500Y-52783100D03*
X146383500Y-52783100D03*
X143843500Y-52783100D03*
X141303500Y-52783100D03*
X138763500Y-52783100D03*
X136223500Y-52783100D03*
X133683500Y-52783100D03*
X131143500Y-52783100D03*
X128603500Y-52783100D03*
X126063500Y-52783100D03*
X123523500Y-52783100D03*
D15*
X120983500Y-52783100D03*
D20*
X173323500Y-55323100D03*
X173323500Y-52783100D03*
D14*
X156543500Y-32463100D03*
X169243500Y-32463100D03*
X166703500Y-32463100D03*
X164163500Y-32463100D03*
X161623500Y-32463100D03*
X159083500Y-32463100D03*
D19*
X178723500Y-40753100D03*
X178723500Y-44253100D03*
D18*
X178723500Y-47753100D03*
D14*
X171783500Y-44253100D03*
X171783500Y-67353100D03*
X171783500Y-63853100D03*
X171783500Y-60353100D03*
X171783500Y-47753100D03*
X171783500Y-40753100D03*
X154003500Y-32463100D03*
X151463500Y-32463100D03*
X148923500Y-32463100D03*
X146383500Y-32463100D03*
X143843500Y-32463100D03*
X141303500Y-32463100D03*
X138763500Y-32463100D03*
X136223500Y-32463100D03*
D17*
X172723500Y-74053100D03*
X115723500Y-54053100D03*
X179723500Y-54053100D03*
M02*
