G04 #@! TF.GenerationSoftware,KiCad,Pcbnew,7.0.11+dfsg-1build4*
G04 #@! TF.CreationDate,2026-01-07T17:01:58-05:00*
G04 #@! TF.ProjectId,,58585858-5858-4585-9858-585858585858,rev?*
G04 #@! TF.SameCoordinates,Original*
G04 #@! TF.FileFunction,Soldermask,Top*
G04 #@! TF.FilePolarity,Negative*
%FSLAX46Y46*%
G04 Gerber Fmt 4.6, Leading zero omitted, Abs format (unit mm)*
G04 Created by KiCad (PCBNEW 7.0.11+dfsg-1build4) date 2026-01-07 17:01:58*
%MOMM*%
%LPD*%
G01*
G04 APERTURE LIST*
%ADD10C,1.700000*%
G04 #@! TA.AperFunction,Profile*
%ADD11C,0.050000*%
G04 #@! TD*
G04 APERTURE END LIST*
D10*
X114300000Y-122140000D03*
X81280000Y-132300000D03*
X91440000Y-106900000D03*
X142240000Y-104360000D03*
X83820000Y-119600000D03*
X104140000Y-111980000D03*
X129540000Y-127220000D03*
X139700000Y-109440000D03*
X78740000Y-122140000D03*
X109220000Y-104360000D03*
X142240000Y-132300000D03*
X116840000Y-122140000D03*
X86360000Y-111980000D03*
X76200000Y-117060000D03*
X101600000Y-137380000D03*
X137160000Y-129760000D03*
X111760000Y-132300000D03*
X96520000Y-111980000D03*
X116840000Y-124680000D03*
X86360000Y-114520000D03*
X96520000Y-132300000D03*
X124460000Y-117060000D03*
X99060000Y-111980000D03*
X139700000Y-101820000D03*
X93980000Y-101820000D03*
X78740000Y-119600000D03*
X111760000Y-106900000D03*
X96520000Y-104360000D03*
X139700000Y-137380000D03*
X101600000Y-104360000D03*
X101600000Y-127220000D03*
X134620000Y-124680000D03*
X76200000Y-104360000D03*
X121920000Y-117060000D03*
X101600000Y-106900000D03*
X142240000Y-106900000D03*
X96520000Y-124680000D03*
X132080000Y-111980000D03*
X127000000Y-94200000D03*
X134620000Y-132300000D03*
X121920000Y-111980000D03*
X119380000Y-132300000D03*
X124460000Y-119600000D03*
X106680000Y-134840000D03*
X83820000Y-114520000D03*
X129540000Y-94200000D03*
X91440000Y-122140000D03*
X121920000Y-132300000D03*
X78740000Y-99280000D03*
X106680000Y-132300000D03*
X111760000Y-109440000D03*
X137160000Y-132300000D03*
X129540000Y-106900000D03*
X96520000Y-117060000D03*
X111760000Y-137380000D03*
X127000000Y-104360000D03*
X91440000Y-132300000D03*
X137160000Y-127220000D03*
X124460000Y-132300000D03*
X121920000Y-134840000D03*
X114300000Y-114520000D03*
X78740000Y-127220000D03*
X132080000Y-96740000D03*
X139700000Y-111980000D03*
X121920000Y-117060000D03*
X114300000Y-132300000D03*
X104140000Y-114520000D03*
X119380000Y-137380000D03*
X119380000Y-109440000D03*
X111760000Y-114520000D03*
X104140000Y-101820000D03*
X119380000Y-99280000D03*
X78740000Y-117060000D03*
X129540000Y-101820000D03*
X116840000Y-114520000D03*
X96520000Y-114520000D03*
X93980000Y-106900000D03*
X142240000Y-111980000D03*
X132080000Y-129760000D03*
X109220000Y-132300000D03*
X127000000Y-127220000D03*
X116840000Y-137380000D03*
X132080000Y-104360000D03*
X86360000Y-104360000D03*
X81280000Y-119600000D03*
X124460000Y-129760000D03*
X134620000Y-109440000D03*
X86360000Y-127220000D03*
X88900000Y-117060000D03*
X86360000Y-96740000D03*
X109220000Y-122140000D03*
X83820000Y-101820000D03*
X127000000Y-132300000D03*
X109220000Y-99280000D03*
X116840000Y-99280000D03*
X121920000Y-127220000D03*
X127000000Y-109440000D03*
X119380000Y-104360000D03*
X88900000Y-114520000D03*
X104140000Y-109440000D03*
X137160000Y-111980000D03*
X137160000Y-101820000D03*
X104140000Y-104360000D03*
X96520000Y-119600000D03*
X116840000Y-132300000D03*
X124460000Y-106900000D03*
X121920000Y-124680000D03*
X116840000Y-101820000D03*
X121920000Y-129760000D03*
X106680000Y-124680000D03*
X124460000Y-114520000D03*
X76200000Y-129760000D03*
X129540000Y-117060000D03*
X129540000Y-109440000D03*
X119380000Y-106900000D03*
X96520000Y-94200000D03*
X114300000Y-94200000D03*
X91440000Y-114520000D03*
X121920000Y-106900000D03*
X139700000Y-129760000D03*
X132080000Y-101820000D03*
X109220000Y-137380000D03*
X101600000Y-124680000D03*
X121920000Y-134840000D03*
X91440000Y-134840000D03*
X116840000Y-117060000D03*
X127000000Y-134840000D03*
X134620000Y-119600000D03*
X114300000Y-109440000D03*
X129540000Y-122140000D03*
X132080000Y-124680000D03*
X124460000Y-134840000D03*
X124460000Y-124680000D03*
X134620000Y-122140000D03*
X81280000Y-101820000D03*
X86360000Y-119600000D03*
X93980000Y-137380000D03*
X119380000Y-119600000D03*
X78740000Y-129760000D03*
X142240000Y-99280000D03*
X114300000Y-119600000D03*
X127000000Y-129760000D03*
X114300000Y-101820000D03*
X111760000Y-122140000D03*
X76200000Y-127220000D03*
X91440000Y-124680000D03*
X119380000Y-134840000D03*
X83820000Y-111980000D03*
X127000000Y-122140000D03*
X99060000Y-94200000D03*
X93980000Y-94200000D03*
X106680000Y-117060000D03*
X81280000Y-129760000D03*
X129540000Y-111980000D03*
X93980000Y-124680000D03*
X99060000Y-99280000D03*
X88900000Y-109440000D03*
X96520000Y-129760000D03*
X137160000Y-99280000D03*
X93980000Y-96740000D03*
X99060000Y-106900000D03*
X116840000Y-106900000D03*
X104140000Y-134840000D03*
X83820000Y-94200000D03*
X139700000Y-122140000D03*
X81280000Y-99280000D03*
X116840000Y-134840000D03*
X119380000Y-117060000D03*
X78740000Y-106900000D03*
X114300000Y-124680000D03*
X134620000Y-94200000D03*
X99060000Y-134840000D03*
X88900000Y-99280000D03*
X139700000Y-119600000D03*
X114300000Y-99280000D03*
X127000000Y-119600000D03*
X99060000Y-122140000D03*
X142240000Y-122140000D03*
X119380000Y-129760000D03*
X111760000Y-94200000D03*
X93980000Y-129760000D03*
X78740000Y-114520000D03*
X139700000Y-106900000D03*
X132080000Y-132300000D03*
X91440000Y-104360000D03*
X119380000Y-114520000D03*
X116840000Y-104360000D03*
X81280000Y-111980000D03*
X106680000Y-106900000D03*
X132080000Y-106900000D03*
X114300000Y-137380000D03*
X109220000Y-94200000D03*
X109220000Y-124680000D03*
X99060000Y-124680000D03*
X121920000Y-94200000D03*
X106680000Y-119600000D03*
X139700000Y-134840000D03*
X104140000Y-127220000D03*
X78740000Y-101820000D03*
X121920000Y-104360000D03*
X116840000Y-111980000D03*
X137160000Y-119600000D03*
X104140000Y-96740000D03*
X139700000Y-94200000D03*
X81280000Y-109440000D03*
X104140000Y-94200000D03*
X142240000Y-117060000D03*
X81280000Y-104360000D03*
X101600000Y-96740000D03*
X111760000Y-129760000D03*
X114300000Y-129760000D03*
X142240000Y-119600000D03*
X91440000Y-117060000D03*
X111760000Y-117060000D03*
X78740000Y-111980000D03*
X121920000Y-119600000D03*
X121920000Y-119600000D03*
X121920000Y-137380000D03*
X121920000Y-132300000D03*
X86360000Y-101820000D03*
X142240000Y-129760000D03*
X119380000Y-127220000D03*
X119380000Y-101820000D03*
X121920000Y-109440000D03*
X93980000Y-117060000D03*
X101600000Y-129760000D03*
X134620000Y-106900000D03*
X137160000Y-96740000D03*
X93980000Y-127220000D03*
X129540000Y-99280000D03*
X83820000Y-117060000D03*
X93980000Y-132300000D03*
X137160000Y-124680000D03*
X134620000Y-129760000D03*
X86360000Y-122140000D03*
X134620000Y-137380000D03*
X121920000Y-96740000D03*
X129540000Y-137380000D03*
X109220000Y-114520000D03*
X83820000Y-104360000D03*
X101600000Y-111980000D03*
X124460000Y-137380000D03*
X139700000Y-96740000D03*
X121920000Y-99280000D03*
X109220000Y-117060000D03*
X91440000Y-109440000D03*
X142240000Y-101820000D03*
X134620000Y-99280000D03*
X129540000Y-132300000D03*
X88900000Y-101820000D03*
X99060000Y-109440000D03*
X83820000Y-127220000D03*
X83820000Y-134840000D03*
X106680000Y-111980000D03*
X106680000Y-109440000D03*
X76200000Y-101820000D03*
X76200000Y-106900000D03*
X132080000Y-94200000D03*
X134620000Y-104360000D03*
X83820000Y-132300000D03*
X137160000Y-117060000D03*
X121920000Y-122140000D03*
X88900000Y-94200000D03*
X121920000Y-96740000D03*
X78740000Y-132300000D03*
X83820000Y-137380000D03*
X137160000Y-104360000D03*
X86360000Y-99280000D03*
X121920000Y-124680000D03*
X101600000Y-114520000D03*
X91440000Y-127220000D03*
X81280000Y-127220000D03*
X119380000Y-94200000D03*
X101600000Y-109440000D03*
X116840000Y-94200000D03*
X127000000Y-114520000D03*
X106680000Y-129760000D03*
X142240000Y-127220000D03*
X101600000Y-94200000D03*
X116840000Y-119600000D03*
X111760000Y-104360000D03*
X132080000Y-119600000D03*
X99060000Y-129760000D03*
X93980000Y-99280000D03*
X104140000Y-129760000D03*
X139700000Y-114520000D03*
X139700000Y-99280000D03*
X129540000Y-119600000D03*
X76200000Y-109440000D03*
X88900000Y-127220000D03*
X81280000Y-122140000D03*
X111760000Y-101820000D03*
X134620000Y-117060000D03*
X109220000Y-127220000D03*
X93980000Y-134840000D03*
X132080000Y-109440000D03*
X86360000Y-134840000D03*
X76200000Y-114520000D03*
X101600000Y-119600000D03*
X88900000Y-134840000D03*
X78740000Y-109440000D03*
X121920000Y-111980000D03*
X86360000Y-132300000D03*
X88900000Y-119600000D03*
X78740000Y-104360000D03*
X127000000Y-124680000D03*
X132080000Y-117060000D03*
X114300000Y-117060000D03*
X134620000Y-114520000D03*
X88900000Y-104360000D03*
X106680000Y-104360000D03*
X86360000Y-137380000D03*
X142240000Y-124680000D03*
X137160000Y-137380000D03*
X86360000Y-94200000D03*
X111760000Y-134840000D03*
X86360000Y-129760000D03*
X91440000Y-94200000D03*
X134620000Y-134840000D03*
X116840000Y-127220000D03*
X124460000Y-127220000D03*
X124460000Y-104360000D03*
X142240000Y-114520000D03*
X124460000Y-94200000D03*
X101600000Y-134840000D03*
X121920000Y-109440000D03*
X88900000Y-129760000D03*
X132080000Y-137380000D03*
X88900000Y-122140000D03*
X109220000Y-109440000D03*
X124460000Y-109440000D03*
X76200000Y-122140000D03*
X101600000Y-117060000D03*
X132080000Y-127220000D03*
X104140000Y-119600000D03*
X96520000Y-109440000D03*
X127000000Y-137380000D03*
X104140000Y-122140000D03*
X111760000Y-96740000D03*
X139700000Y-104360000D03*
X121920000Y-137380000D03*
X111760000Y-124680000D03*
X88900000Y-137380000D03*
X124460000Y-101820000D03*
X106680000Y-114520000D03*
X91440000Y-101820000D03*
X101600000Y-99280000D03*
X129540000Y-114520000D03*
X109220000Y-129760000D03*
X91440000Y-137380000D03*
X96520000Y-96740000D03*
X81280000Y-114520000D03*
X109220000Y-106900000D03*
X91440000Y-119600000D03*
X127000000Y-111980000D03*
X127000000Y-99280000D03*
X121920000Y-114520000D03*
X119380000Y-96740000D03*
X76200000Y-111980000D03*
X129540000Y-124680000D03*
X83820000Y-106900000D03*
X114300000Y-96740000D03*
X99060000Y-132300000D03*
X124460000Y-111980000D03*
X93980000Y-104360000D03*
X96520000Y-134840000D03*
X83820000Y-129760000D03*
X88900000Y-111980000D03*
X114300000Y-127220000D03*
X83820000Y-109440000D03*
X127000000Y-101820000D03*
X76200000Y-124680000D03*
X99060000Y-101820000D03*
X83820000Y-96740000D03*
X111760000Y-119600000D03*
X134620000Y-111980000D03*
X99060000Y-137380000D03*
X132080000Y-122140000D03*
X127000000Y-96740000D03*
X121920000Y-106900000D03*
X93980000Y-122140000D03*
X109220000Y-111980000D03*
X104140000Y-106900000D03*
X106680000Y-94200000D03*
X83820000Y-124680000D03*
X114300000Y-106900000D03*
X134620000Y-101820000D03*
X137160000Y-109440000D03*
X81280000Y-106900000D03*
X99060000Y-119600000D03*
X96520000Y-101820000D03*
X88900000Y-124680000D03*
X109220000Y-96740000D03*
X139700000Y-132300000D03*
X124460000Y-96740000D03*
X121920000Y-127220000D03*
X96520000Y-99280000D03*
X121920000Y-101820000D03*
X101600000Y-122140000D03*
X121920000Y-114520000D03*
X111760000Y-111980000D03*
X91440000Y-96740000D03*
X139700000Y-127220000D03*
X99060000Y-127220000D03*
X114300000Y-104360000D03*
X88900000Y-96740000D03*
X134620000Y-127220000D03*
X93980000Y-114520000D03*
X106680000Y-137380000D03*
X93980000Y-111980000D03*
X127000000Y-106900000D03*
X104140000Y-137380000D03*
X109220000Y-134840000D03*
X106680000Y-101820000D03*
X111760000Y-127220000D03*
X106680000Y-127220000D03*
X139700000Y-124680000D03*
X129540000Y-129760000D03*
X86360000Y-117060000D03*
X88900000Y-106900000D03*
X119380000Y-122140000D03*
X132080000Y-99280000D03*
X81280000Y-124680000D03*
X99060000Y-117060000D03*
X132080000Y-134840000D03*
X111760000Y-99280000D03*
X109220000Y-101820000D03*
X81280000Y-117060000D03*
X104140000Y-117060000D03*
X99060000Y-104360000D03*
X121920000Y-101820000D03*
X109220000Y-119600000D03*
X101600000Y-132300000D03*
X91440000Y-111980000D03*
X129540000Y-96740000D03*
X88900000Y-132300000D03*
X104140000Y-132300000D03*
X127000000Y-117060000D03*
X124460000Y-122140000D03*
X91440000Y-129760000D03*
X101600000Y-101820000D03*
X91440000Y-99280000D03*
X106680000Y-122140000D03*
X116840000Y-109440000D03*
X121920000Y-104360000D03*
X139700000Y-117060000D03*
X106680000Y-99280000D03*
X114300000Y-134840000D03*
X137160000Y-134840000D03*
X96520000Y-106900000D03*
X132080000Y-114520000D03*
X86360000Y-106900000D03*
X137160000Y-114520000D03*
X121920000Y-99280000D03*
X104140000Y-99280000D03*
X93980000Y-109440000D03*
X137160000Y-122140000D03*
X99060000Y-96740000D03*
X129540000Y-104360000D03*
X104140000Y-124680000D03*
X96520000Y-137380000D03*
X78740000Y-124680000D03*
X137160000Y-94200000D03*
X86360000Y-124680000D03*
X142240000Y-109440000D03*
X83820000Y-122140000D03*
X124460000Y-99280000D03*
X96520000Y-122140000D03*
X96520000Y-127220000D03*
X116840000Y-129760000D03*
X114300000Y-111980000D03*
X76200000Y-119600000D03*
X121920000Y-129760000D03*
X93980000Y-119600000D03*
X119380000Y-124680000D03*
X99060000Y-114520000D03*
X137160000Y-106900000D03*
X134620000Y-96740000D03*
X86360000Y-109440000D03*
X106680000Y-96740000D03*
X129540000Y-134840000D03*
X119380000Y-111980000D03*
X83820000Y-99280000D03*
X121920000Y-122140000D03*
X116840000Y-96740000D03*
X119380000Y-74680000D03*
X101600000Y-82300000D03*
X129540000Y-54360000D03*
X116840000Y-59440000D03*
X99060000Y-67060000D03*
X116840000Y-46740000D03*
X111760000Y-49280000D03*
X106680000Y-72140000D03*
X121920000Y-64520000D03*
X137160000Y-64520000D03*
X137160000Y-84840000D03*
X106680000Y-49280000D03*
X114300000Y-61980000D03*
X101600000Y-51820000D03*
X104140000Y-82300000D03*
X88900000Y-46740000D03*
X121920000Y-49280000D03*
X129540000Y-46740000D03*
X81280000Y-67060000D03*
X88900000Y-82300000D03*
X127000000Y-67060000D03*
X99060000Y-64520000D03*
X104140000Y-87380000D03*
X137160000Y-44200000D03*
X104140000Y-49280000D03*
X134620000Y-46740000D03*
X137160000Y-72140000D03*
X139700000Y-67060000D03*
X93980000Y-59440000D03*
X132080000Y-64520000D03*
X106680000Y-46740000D03*
X111760000Y-61980000D03*
X137160000Y-56900000D03*
X109220000Y-69600000D03*
X99060000Y-46740000D03*
X106680000Y-87380000D03*
X109220000Y-51820000D03*
X99060000Y-54360000D03*
X86360000Y-67060000D03*
X134620000Y-77220000D03*
X104140000Y-74680000D03*
X121920000Y-51820000D03*
X121920000Y-72140000D03*
X142240000Y-59440000D03*
X83820000Y-49280000D03*
X132080000Y-84840000D03*
X106680000Y-51820000D03*
X93980000Y-69600000D03*
X93980000Y-61980000D03*
X116840000Y-79760000D03*
X121920000Y-79760000D03*
X109220000Y-84840000D03*
X121920000Y-54360000D03*
X91440000Y-49280000D03*
X86360000Y-74680000D03*
X76200000Y-69600000D03*
X93980000Y-64520000D03*
X78740000Y-74680000D03*
X129540000Y-79760000D03*
X132080000Y-49280000D03*
X96520000Y-56900000D03*
X129540000Y-84840000D03*
X111760000Y-77220000D03*
X104140000Y-67060000D03*
X96520000Y-87380000D03*
X91440000Y-61980000D03*
X86360000Y-56900000D03*
X114300000Y-84840000D03*
X124460000Y-49280000D03*
X83820000Y-72140000D03*
X139700000Y-74680000D03*
X106680000Y-77220000D03*
X96520000Y-77220000D03*
X96520000Y-72140000D03*
X114300000Y-54360000D03*
X86360000Y-59440000D03*
X119380000Y-72140000D03*
X88900000Y-56900000D03*
X91440000Y-79760000D03*
X124460000Y-72140000D03*
X127000000Y-56900000D03*
X81280000Y-74680000D03*
X99060000Y-77220000D03*
X139700000Y-77220000D03*
X91440000Y-46740000D03*
X101600000Y-72140000D03*
X121920000Y-51820000D03*
X96520000Y-49280000D03*
X121920000Y-77220000D03*
X124460000Y-46740000D03*
X139700000Y-82300000D03*
X109220000Y-46740000D03*
X88900000Y-74680000D03*
X96520000Y-51820000D03*
X99060000Y-69600000D03*
X81280000Y-56900000D03*
X137160000Y-59440000D03*
X134620000Y-51820000D03*
X114300000Y-56900000D03*
X83820000Y-74680000D03*
X106680000Y-44200000D03*
X104140000Y-56900000D03*
X109220000Y-61980000D03*
X119380000Y-61980000D03*
X127000000Y-46740000D03*
X132080000Y-72140000D03*
X99060000Y-87380000D03*
X134620000Y-61980000D03*
X111760000Y-69600000D03*
X83820000Y-46740000D03*
X99060000Y-51820000D03*
X76200000Y-74680000D03*
X127000000Y-51820000D03*
X83820000Y-59440000D03*
X114300000Y-77220000D03*
X88900000Y-61980000D03*
X83820000Y-79760000D03*
X96520000Y-84840000D03*
X93980000Y-54360000D03*
X124460000Y-61980000D03*
X99060000Y-82300000D03*
X114300000Y-46740000D03*
X83820000Y-56900000D03*
X129540000Y-74680000D03*
X76200000Y-61980000D03*
X119380000Y-46740000D03*
X121920000Y-64520000D03*
X127000000Y-49280000D03*
X127000000Y-61980000D03*
X91440000Y-69600000D03*
X109220000Y-56900000D03*
X81280000Y-64520000D03*
X96520000Y-46740000D03*
X91440000Y-87380000D03*
X109220000Y-79760000D03*
X101600000Y-49280000D03*
X91440000Y-51820000D03*
X106680000Y-64520000D03*
X124460000Y-51820000D03*
X88900000Y-87380000D03*
X111760000Y-74680000D03*
X121920000Y-87380000D03*
X139700000Y-54360000D03*
X111760000Y-46740000D03*
X104140000Y-72140000D03*
X127000000Y-87380000D03*
X96520000Y-59440000D03*
X104140000Y-69600000D03*
X132080000Y-77220000D03*
X101600000Y-67060000D03*
X76200000Y-72140000D03*
X124460000Y-59440000D03*
X109220000Y-59440000D03*
X88900000Y-72140000D03*
X132080000Y-87380000D03*
X88900000Y-79760000D03*
X121920000Y-59440000D03*
X101600000Y-84840000D03*
X124460000Y-44200000D03*
X142240000Y-64520000D03*
X124460000Y-54360000D03*
X124460000Y-77220000D03*
X116840000Y-77220000D03*
X134620000Y-84840000D03*
X91440000Y-44200000D03*
X86360000Y-79760000D03*
X111760000Y-84840000D03*
X86360000Y-44200000D03*
X137160000Y-87380000D03*
X142240000Y-74680000D03*
X86360000Y-87380000D03*
X106680000Y-54360000D03*
X88900000Y-54360000D03*
X134620000Y-64520000D03*
X114300000Y-67060000D03*
X132080000Y-67060000D03*
X127000000Y-74680000D03*
X78740000Y-54360000D03*
X88900000Y-69600000D03*
X86360000Y-82300000D03*
X121920000Y-61980000D03*
X78740000Y-59440000D03*
X88900000Y-84840000D03*
X101600000Y-69600000D03*
X76200000Y-64520000D03*
X86360000Y-84840000D03*
X132080000Y-59440000D03*
X93980000Y-84840000D03*
X109220000Y-77220000D03*
X134620000Y-67060000D03*
X111760000Y-51820000D03*
X81280000Y-72140000D03*
X88900000Y-77220000D03*
X76200000Y-59440000D03*
X129540000Y-69600000D03*
X139700000Y-49280000D03*
X139700000Y-64520000D03*
X104140000Y-79760000D03*
X93980000Y-49280000D03*
X99060000Y-79760000D03*
X132080000Y-69600000D03*
X111760000Y-54360000D03*
X116840000Y-69600000D03*
X101600000Y-44200000D03*
X142240000Y-77220000D03*
X106680000Y-79760000D03*
X127000000Y-64520000D03*
X116840000Y-44200000D03*
X101600000Y-59440000D03*
X119380000Y-44200000D03*
X81280000Y-77220000D03*
X91440000Y-77220000D03*
X101600000Y-64520000D03*
X121920000Y-74680000D03*
X86360000Y-49280000D03*
X137160000Y-54360000D03*
X83820000Y-87380000D03*
X78740000Y-82300000D03*
X121920000Y-46740000D03*
X88900000Y-44200000D03*
X121920000Y-72140000D03*
X137160000Y-67060000D03*
X83820000Y-82300000D03*
X134620000Y-54360000D03*
X132080000Y-44200000D03*
X76200000Y-56900000D03*
X76200000Y-51820000D03*
X106680000Y-59440000D03*
X93980000Y-72140000D03*
X121920000Y-56900000D03*
X106680000Y-61980000D03*
X83820000Y-84840000D03*
X83820000Y-77220000D03*
X99060000Y-59440000D03*
X88900000Y-51820000D03*
X129540000Y-82300000D03*
X134620000Y-49280000D03*
X142240000Y-51820000D03*
X91440000Y-59440000D03*
X109220000Y-67060000D03*
X121920000Y-49280000D03*
X139700000Y-46740000D03*
X124460000Y-87380000D03*
X101600000Y-61980000D03*
X83820000Y-54360000D03*
X109220000Y-64520000D03*
X129540000Y-87380000D03*
X121920000Y-46740000D03*
X134620000Y-87380000D03*
X86360000Y-72140000D03*
X134620000Y-79760000D03*
X137160000Y-74680000D03*
X93980000Y-82300000D03*
X83820000Y-67060000D03*
X129540000Y-49280000D03*
X93980000Y-77220000D03*
X137160000Y-46740000D03*
X134620000Y-56900000D03*
X101600000Y-79760000D03*
X93980000Y-67060000D03*
X121920000Y-59440000D03*
X119380000Y-51820000D03*
X119380000Y-77220000D03*
X142240000Y-79760000D03*
X86360000Y-51820000D03*
X121920000Y-82300000D03*
X121920000Y-87380000D03*
X121920000Y-69600000D03*
X121920000Y-69600000D03*
X78740000Y-61980000D03*
X111760000Y-67060000D03*
X91440000Y-67060000D03*
X142240000Y-69600000D03*
X114300000Y-79760000D03*
X111760000Y-79760000D03*
X101600000Y-46740000D03*
X81280000Y-54360000D03*
X142240000Y-67060000D03*
X104140000Y-44200000D03*
X81280000Y-59440000D03*
X139700000Y-44200000D03*
X104140000Y-46740000D03*
X137160000Y-69600000D03*
X116840000Y-61980000D03*
X121920000Y-54360000D03*
X129540000Y-64520000D03*
X78740000Y-51820000D03*
X104140000Y-77220000D03*
X139700000Y-84840000D03*
X106680000Y-69600000D03*
X121920000Y-44200000D03*
X99060000Y-74680000D03*
X109220000Y-74680000D03*
X109220000Y-44200000D03*
X114300000Y-87380000D03*
X132080000Y-56900000D03*
X106680000Y-56900000D03*
X81280000Y-61980000D03*
X116840000Y-54360000D03*
X119380000Y-64520000D03*
X91440000Y-54360000D03*
X132080000Y-82300000D03*
X139700000Y-56900000D03*
X78740000Y-64520000D03*
X93980000Y-79760000D03*
X111760000Y-44200000D03*
X119380000Y-79760000D03*
X142240000Y-72140000D03*
X99060000Y-72140000D03*
X127000000Y-69600000D03*
X114300000Y-49280000D03*
X139700000Y-69600000D03*
X88900000Y-49280000D03*
X99060000Y-84840000D03*
X134620000Y-44200000D03*
X114300000Y-74680000D03*
X78740000Y-56900000D03*
X119380000Y-67060000D03*
X116840000Y-84840000D03*
X81280000Y-49280000D03*
X139700000Y-72140000D03*
X83820000Y-44200000D03*
X104140000Y-84840000D03*
X116840000Y-56900000D03*
X99060000Y-56900000D03*
X93980000Y-46740000D03*
X137160000Y-49280000D03*
X96520000Y-79760000D03*
X88900000Y-59440000D03*
X99060000Y-49280000D03*
X93980000Y-74680000D03*
X129540000Y-61980000D03*
X81280000Y-79760000D03*
X106680000Y-67060000D03*
X93980000Y-44200000D03*
X99060000Y-44200000D03*
X127000000Y-72140000D03*
X83820000Y-61980000D03*
X119380000Y-84840000D03*
X91440000Y-74680000D03*
X76200000Y-77220000D03*
X111760000Y-72140000D03*
X114300000Y-51820000D03*
X127000000Y-79760000D03*
X114300000Y-69600000D03*
X142240000Y-49280000D03*
X78740000Y-79760000D03*
X119380000Y-69600000D03*
X93980000Y-87380000D03*
X86360000Y-69600000D03*
X81280000Y-51820000D03*
X134620000Y-72140000D03*
X124460000Y-74680000D03*
X124460000Y-84840000D03*
X132080000Y-74680000D03*
X129540000Y-72140000D03*
X114300000Y-59440000D03*
X134620000Y-69600000D03*
X127000000Y-84840000D03*
X116840000Y-67060000D03*
X91440000Y-84840000D03*
X121920000Y-84840000D03*
X101600000Y-74680000D03*
X109220000Y-87380000D03*
X132080000Y-51820000D03*
X139700000Y-79760000D03*
X121920000Y-56900000D03*
X91440000Y-64520000D03*
X114300000Y-44200000D03*
X96520000Y-44200000D03*
X119380000Y-56900000D03*
X129540000Y-59440000D03*
X129540000Y-67060000D03*
X76200000Y-79760000D03*
X124460000Y-64520000D03*
X106680000Y-74680000D03*
X121920000Y-79760000D03*
X116840000Y-51820000D03*
X121920000Y-74680000D03*
X124460000Y-56900000D03*
X116840000Y-82300000D03*
X96520000Y-69600000D03*
X104140000Y-54360000D03*
X137160000Y-51820000D03*
X137160000Y-61980000D03*
X104140000Y-59440000D03*
X88900000Y-64520000D03*
X119380000Y-54360000D03*
X127000000Y-59440000D03*
X121920000Y-77220000D03*
X116840000Y-49280000D03*
X109220000Y-49280000D03*
X127000000Y-82300000D03*
X83820000Y-51820000D03*
X109220000Y-72140000D03*
X86360000Y-46740000D03*
X88900000Y-67060000D03*
X86360000Y-77220000D03*
X134620000Y-59440000D03*
X124460000Y-79760000D03*
X81280000Y-69600000D03*
X86360000Y-54360000D03*
X132080000Y-54360000D03*
X116840000Y-87380000D03*
X127000000Y-77220000D03*
X109220000Y-82300000D03*
X132080000Y-79760000D03*
X142240000Y-61980000D03*
X93980000Y-56900000D03*
X96520000Y-64520000D03*
X116840000Y-64520000D03*
X129540000Y-51820000D03*
X78740000Y-67060000D03*
X119380000Y-49280000D03*
X104140000Y-51820000D03*
X111760000Y-64520000D03*
X119380000Y-59440000D03*
X119380000Y-87380000D03*
X104140000Y-64520000D03*
X114300000Y-82300000D03*
X121920000Y-67060000D03*
X139700000Y-61980000D03*
X132080000Y-46740000D03*
X78740000Y-77220000D03*
X114300000Y-64520000D03*
X121920000Y-84840000D03*
X124460000Y-82300000D03*
X137160000Y-77220000D03*
X91440000Y-82300000D03*
X127000000Y-54360000D03*
X111760000Y-87380000D03*
X96520000Y-67060000D03*
X129540000Y-56900000D03*
X137160000Y-82300000D03*
X111760000Y-59440000D03*
X106680000Y-82300000D03*
X78740000Y-49280000D03*
X121920000Y-82300000D03*
X91440000Y-72140000D03*
X129540000Y-44200000D03*
X83820000Y-64520000D03*
X106680000Y-84840000D03*
X124460000Y-69600000D03*
X119380000Y-82300000D03*
X121920000Y-61980000D03*
X134620000Y-82300000D03*
X127000000Y-44200000D03*
X132080000Y-61980000D03*
X96520000Y-74680000D03*
X142240000Y-56900000D03*
X101600000Y-56900000D03*
X121920000Y-67060000D03*
X76200000Y-54360000D03*
X134620000Y-74680000D03*
X101600000Y-77220000D03*
X101600000Y-54360000D03*
X139700000Y-87380000D03*
X96520000Y-54360000D03*
X111760000Y-56900000D03*
X78740000Y-69600000D03*
X93980000Y-51820000D03*
X139700000Y-51820000D03*
X99060000Y-61980000D03*
X124460000Y-67060000D03*
X96520000Y-82300000D03*
X86360000Y-64520000D03*
X116840000Y-74680000D03*
X96520000Y-61980000D03*
X111760000Y-82300000D03*
X137160000Y-79760000D03*
X101600000Y-87380000D03*
X76200000Y-67060000D03*
X86360000Y-61980000D03*
X116840000Y-72140000D03*
X142240000Y-82300000D03*
X109220000Y-54360000D03*
X78740000Y-72140000D03*
X139700000Y-59440000D03*
X129540000Y-77220000D03*
X104140000Y-61980000D03*
X83820000Y-69600000D03*
X142240000Y-54360000D03*
X91440000Y-56900000D03*
X81280000Y-82300000D03*
X114300000Y-72140000D03*
D11*
X81060000Y-140760000D02*
X142560000Y-140760000D01*
X81060000Y-90760000D02*
X142560000Y-90760000D01*
X72060000Y-100260000D02*
X72060000Y-131260000D01*
X142560019Y-90759998D02*
G75*
G03*
X146560000Y-98259999I11053281J1078398D01*
G01*
X146559989Y-133259987D02*
G75*
G03*
X142560001Y-140760000I7053311J-8578413D01*
G01*
X81059999Y-140760000D02*
G75*
G03*
X72060000Y-131260001I-9249999J250000D01*
G01*
X146560000Y-98260000D02*
X146560000Y-133260000D01*
X72060000Y-100259999D02*
G75*
G03*
X81059999Y-90760000I-250000J9249999D01*
G01*
X72060000Y-50259999D02*
G75*
G03*
X81059999Y-40760000I-250000J9249999D01*
G01*
X146560000Y-48260000D02*
X146560000Y-83260000D01*
X81059999Y-90760000D02*
G75*
G03*
X72060000Y-81260001I-9249999J250000D01*
G01*
X146559989Y-83259987D02*
G75*
G03*
X142560001Y-90760000I7053311J-8578413D01*
G01*
X142560019Y-40759998D02*
G75*
G03*
X146560000Y-48259999I11053281J1078398D01*
G01*
X72060000Y-50260000D02*
X72060000Y-81260000D01*
X81060000Y-40760000D02*
X142560000Y-40760000D01*
X81060000Y-90760000D02*
X142560000Y-90760000D01*
M02*
