M48
; DRILL file {KiCad 7.0.11+dfsg-1build4} date mié 07 ene 2026 17:01:53
; FORMAT={-:-/ absolute / metric / decimal}
; #@! TF.CreationDate,2026-01-07T17:01:53-05:00
; #@! TF.GenerationSoftware,Kicad,Pcbnew,7.0.11+dfsg-1build4
; #@! TF.FileFunction,Plated,1,2,PTH
FMAT,2
METRIC
; #@! TA.AperFunction,Plated,PTH,ComponentDrill
T1C1.000
%
G90
G05
T1
X76.2Y-51.82
X76.2Y-54.36
X76.2Y-56.9
X76.2Y-59.44
X76.2Y-61.98
X76.2Y-64.52
X76.2Y-67.06
X76.2Y-69.6
X76.2Y-72.14
X76.2Y-74.68
X76.2Y-77.22
X76.2Y-79.76
X76.2Y-101.82
X76.2Y-104.36
X76.2Y-106.9
X76.2Y-109.44
X76.2Y-111.98
X76.2Y-114.52
X76.2Y-117.06
X76.2Y-119.6
X76.2Y-122.14
X76.2Y-124.68
X76.2Y-127.22
X76.2Y-129.76
X78.74Y-49.28
X78.74Y-51.82
X78.74Y-54.36
X78.74Y-56.9
X78.74Y-59.44
X78.74Y-61.98
X78.74Y-64.52
X78.74Y-67.06
X78.74Y-69.6
X78.74Y-72.14
X78.74Y-74.68
X78.74Y-77.22
X78.74Y-79.76
X78.74Y-82.3
X78.74Y-99.28
X78.74Y-101.82
X78.74Y-104.36
X78.74Y-106.9
X78.74Y-109.44
X78.74Y-111.98
X78.74Y-114.52
X78.74Y-117.06
X78.74Y-119.6
X78.74Y-122.14
X78.74Y-124.68
X78.74Y-127.22
X78.74Y-129.76
X78.74Y-132.3
X81.28Y-49.28
X81.28Y-51.82
X81.28Y-54.36
X81.28Y-56.9
X81.28Y-59.44
X81.28Y-61.98
X81.28Y-64.52
X81.28Y-67.06
X81.28Y-69.6
X81.28Y-72.14
X81.28Y-74.68
X81.28Y-77.22
X81.28Y-79.76
X81.28Y-82.3
X81.28Y-99.28
X81.28Y-101.82
X81.28Y-104.36
X81.28Y-106.9
X81.28Y-109.44
X81.28Y-111.98
X81.28Y-114.52
X81.28Y-117.06
X81.28Y-119.6
X81.28Y-122.14
X81.28Y-124.68
X81.28Y-127.22
X81.28Y-129.76
X81.28Y-132.3
X83.82Y-44.2
X83.82Y-46.74
X83.82Y-49.28
X83.82Y-51.82
X83.82Y-54.36
X83.82Y-56.9
X83.82Y-59.44
X83.82Y-61.98
X83.82Y-64.52
X83.82Y-67.06
X83.82Y-69.6
X83.82Y-72.14
X83.82Y-74.68
X83.82Y-77.22
X83.82Y-79.76
X83.82Y-82.3
X83.82Y-84.84
X83.82Y-87.38
X83.82Y-94.2
X83.82Y-96.74
X83.82Y-99.28
X83.82Y-101.82
X83.82Y-104.36
X83.82Y-106.9
X83.82Y-109.44
X83.82Y-111.98
X83.82Y-114.52
X83.82Y-117.06
X83.82Y-119.6
X83.82Y-122.14
X83.82Y-124.68
X83.82Y-127.22
X83.82Y-129.76
X83.82Y-132.3
X83.82Y-134.84
X83.82Y-137.38
X86.36Y-44.2
X86.36Y-46.74
X86.36Y-49.28
X86.36Y-51.82
X86.36Y-54.36
X86.36Y-56.9
X86.36Y-59.44
X86.36Y-61.98
X86.36Y-64.52
X86.36Y-67.06
X86.36Y-69.6
X86.36Y-72.14
X86.36Y-74.68
X86.36Y-77.22
X86.36Y-79.76
X86.36Y-82.3
X86.36Y-84.84
X86.36Y-87.38
X86.36Y-94.2
X86.36Y-96.74
X86.36Y-99.28
X86.36Y-101.82
X86.36Y-104.36
X86.36Y-106.9
X86.36Y-109.44
X86.36Y-111.98
X86.36Y-114.52
X86.36Y-117.06
X86.36Y-119.6
X86.36Y-122.14
X86.36Y-124.68
X86.36Y-127.22
X86.36Y-129.76
X86.36Y-132.3
X86.36Y-134.84
X86.36Y-137.38
X88.9Y-44.2
X88.9Y-46.74
X88.9Y-49.28
X88.9Y-51.82
X88.9Y-54.36
X88.9Y-56.9
X88.9Y-59.44
X88.9Y-61.98
X88.9Y-64.52
X88.9Y-67.06
X88.9Y-69.6
X88.9Y-72.14
X88.9Y-74.68
X88.9Y-77.22
X88.9Y-79.76
X88.9Y-82.3
X88.9Y-84.84
X88.9Y-87.38
X88.9Y-94.2
X88.9Y-96.74
X88.9Y-99.28
X88.9Y-101.82
X88.9Y-104.36
X88.9Y-106.9
X88.9Y-109.44
X88.9Y-111.98
X88.9Y-114.52
X88.9Y-117.06
X88.9Y-119.6
X88.9Y-122.14
X88.9Y-124.68
X88.9Y-127.22
X88.9Y-129.76
X88.9Y-132.3
X88.9Y-134.84
X88.9Y-137.38
X91.44Y-44.2
X91.44Y-46.74
X91.44Y-49.28
X91.44Y-51.82
X91.44Y-54.36
X91.44Y-56.9
X91.44Y-59.44
X91.44Y-61.98
X91.44Y-64.52
X91.44Y-67.06
X91.44Y-69.6
X91.44Y-72.14
X91.44Y-74.68
X91.44Y-77.22
X91.44Y-79.76
X91.44Y-82.3
X91.44Y-84.84
X91.44Y-87.38
X91.44Y-94.2
X91.44Y-96.74
X91.44Y-99.28
X91.44Y-101.82
X91.44Y-104.36
X91.44Y-106.9
X91.44Y-109.44
X91.44Y-111.98
X91.44Y-114.52
X91.44Y-117.06
X91.44Y-119.6
X91.44Y-122.14
X91.44Y-124.68
X91.44Y-127.22
X91.44Y-129.76
X91.44Y-132.3
X91.44Y-134.84
X91.44Y-137.38
X93.98Y-44.2
X93.98Y-46.74
X93.98Y-49.28
X93.98Y-51.82
X93.98Y-54.36
X93.98Y-56.9
X93.98Y-59.44
X93.98Y-61.98
X93.98Y-64.52
X93.98Y-67.06
X93.98Y-69.6
X93.98Y-72.14
X93.98Y-74.68
X93.98Y-77.22
X93.98Y-79.76
X93.98Y-82.3
X93.98Y-84.84
X93.98Y-87.38
X93.98Y-94.2
X93.98Y-96.74
X93.98Y-99.28
X93.98Y-101.82
X93.98Y-104.36
X93.98Y-106.9
X93.98Y-109.44
X93.98Y-111.98
X93.98Y-114.52
X93.98Y-117.06
X93.98Y-119.6
X93.98Y-122.14
X93.98Y-124.68
X93.98Y-127.22
X93.98Y-129.76
X93.98Y-132.3
X93.98Y-134.84
X93.98Y-137.38
X96.52Y-44.2
X96.52Y-46.74
X96.52Y-49.28
X96.52Y-51.82
X96.52Y-54.36
X96.52Y-56.9
X96.52Y-59.44
X96.52Y-61.98
X96.52Y-64.52
X96.52Y-67.06
X96.52Y-69.6
X96.52Y-72.14
X96.52Y-74.68
X96.52Y-77.22
X96.52Y-79.76
X96.52Y-82.3
X96.52Y-84.84
X96.52Y-87.38
X96.52Y-94.2
X96.52Y-96.74
X96.52Y-99.28
X96.52Y-101.82
X96.52Y-104.36
X96.52Y-106.9
X96.52Y-109.44
X96.52Y-111.98
X96.52Y-114.52
X96.52Y-117.06
X96.52Y-119.6
X96.52Y-122.14
X96.52Y-124.68
X96.52Y-127.22
X96.52Y-129.76
X96.52Y-132.3
X96.52Y-134.84
X96.52Y-137.38
X99.06Y-44.2
X99.06Y-46.74
X99.06Y-49.28
X99.06Y-51.82
X99.06Y-54.36
X99.06Y-56.9
X99.06Y-59.44
X99.06Y-61.98
X99.06Y-64.52
X99.06Y-67.06
X99.06Y-69.6
X99.06Y-72.14
X99.06Y-74.68
X99.06Y-77.22
X99.06Y-79.76
X99.06Y-82.3
X99.06Y-84.84
X99.06Y-87.38
X99.06Y-94.2
X99.06Y-96.74
X99.06Y-99.28
X99.06Y-101.82
X99.06Y-104.36
X99.06Y-106.9
X99.06Y-109.44
X99.06Y-111.98
X99.06Y-114.52
X99.06Y-117.06
X99.06Y-119.6
X99.06Y-122.14
X99.06Y-124.68
X99.06Y-127.22
X99.06Y-129.76
X99.06Y-132.3
X99.06Y-134.84
X99.06Y-137.38
X101.6Y-44.2
X101.6Y-46.74
X101.6Y-49.28
X101.6Y-51.82
X101.6Y-54.36
X101.6Y-56.9
X101.6Y-59.44
X101.6Y-61.98
X101.6Y-64.52
X101.6Y-67.06
X101.6Y-69.6
X101.6Y-72.14
X101.6Y-74.68
X101.6Y-77.22
X101.6Y-79.76
X101.6Y-82.3
X101.6Y-84.84
X101.6Y-87.38
X101.6Y-94.2
X101.6Y-96.74
X101.6Y-99.28
X101.6Y-101.82
X101.6Y-104.36
X101.6Y-106.9
X101.6Y-109.44
X101.6Y-111.98
X101.6Y-114.52
X101.6Y-117.06
X101.6Y-119.6
X101.6Y-122.14
X101.6Y-124.68
X101.6Y-127.22
X101.6Y-129.76
X101.6Y-132.3
X101.6Y-134.84
X101.6Y-137.38
X104.14Y-44.2
X104.14Y-46.74
X104.14Y-49.28
X104.14Y-51.82
X104.14Y-54.36
X104.14Y-56.9
X104.14Y-59.44
X104.14Y-61.98
X104.14Y-64.52
X104.14Y-67.06
X104.14Y-69.6
X104.14Y-72.14
X104.14Y-74.68
X104.14Y-77.22
X104.14Y-79.76
X104.14Y-82.3
X104.14Y-84.84
X104.14Y-87.38
X104.14Y-94.2
X104.14Y-96.74
X104.14Y-99.28
X104.14Y-101.82
X104.14Y-104.36
X104.14Y-106.9
X104.14Y-109.44
X104.14Y-111.98
X104.14Y-114.52
X104.14Y-117.06
X104.14Y-119.6
X104.14Y-122.14
X104.14Y-124.68
X104.14Y-127.22
X104.14Y-129.76
X104.14Y-132.3
X104.14Y-134.84
X104.14Y-137.38
X106.68Y-44.2
X106.68Y-46.74
X106.68Y-49.28
X106.68Y-51.82
X106.68Y-54.36
X106.68Y-56.9
X106.68Y-59.44
X106.68Y-61.98
X106.68Y-64.52
X106.68Y-67.06
X106.68Y-69.6
X106.68Y-72.14
X106.68Y-74.68
X106.68Y-77.22
X106.68Y-79.76
X106.68Y-82.3
X106.68Y-84.84
X106.68Y-87.38
X106.68Y-94.2
X106.68Y-96.74
X106.68Y-99.28
X106.68Y-101.82
X106.68Y-104.36
X106.68Y-106.9
X106.68Y-109.44
X106.68Y-111.98
X106.68Y-114.52
X106.68Y-117.06
X106.68Y-119.6
X106.68Y-122.14
X106.68Y-124.68
X106.68Y-127.22
X106.68Y-129.76
X106.68Y-132.3
X106.68Y-134.84
X106.68Y-137.38
X109.22Y-44.2
X109.22Y-46.74
X109.22Y-49.28
X109.22Y-51.82
X109.22Y-54.36
X109.22Y-56.9
X109.22Y-59.44
X109.22Y-61.98
X109.22Y-64.52
X109.22Y-67.06
X109.22Y-69.6
X109.22Y-72.14
X109.22Y-74.68
X109.22Y-77.22
X109.22Y-79.76
X109.22Y-82.3
X109.22Y-84.84
X109.22Y-87.38
X109.22Y-94.2
X109.22Y-96.74
X109.22Y-99.28
X109.22Y-101.82
X109.22Y-104.36
X109.22Y-106.9
X109.22Y-109.44
X109.22Y-111.98
X109.22Y-114.52
X109.22Y-117.06
X109.22Y-119.6
X109.22Y-122.14
X109.22Y-124.68
X109.22Y-127.22
X109.22Y-129.76
X109.22Y-132.3
X109.22Y-134.84
X109.22Y-137.38
X111.76Y-44.2
X111.76Y-46.74
X111.76Y-49.28
X111.76Y-51.82
X111.76Y-54.36
X111.76Y-56.9
X111.76Y-59.44
X111.76Y-61.98
X111.76Y-64.52
X111.76Y-67.06
X111.76Y-69.6
X111.76Y-72.14
X111.76Y-74.68
X111.76Y-77.22
X111.76Y-79.76
X111.76Y-82.3
X111.76Y-84.84
X111.76Y-87.38
X111.76Y-94.2
X111.76Y-96.74
X111.76Y-99.28
X111.76Y-101.82
X111.76Y-104.36
X111.76Y-106.9
X111.76Y-109.44
X111.76Y-111.98
X111.76Y-114.52
X111.76Y-117.06
X111.76Y-119.6
X111.76Y-122.14
X111.76Y-124.68
X111.76Y-127.22
X111.76Y-129.76
X111.76Y-132.3
X111.76Y-134.84
X111.76Y-137.38
X114.3Y-44.2
X114.3Y-46.74
X114.3Y-49.28
X114.3Y-51.82
X114.3Y-54.36
X114.3Y-56.9
X114.3Y-59.44
X114.3Y-61.98
X114.3Y-64.52
X114.3Y-67.06
X114.3Y-69.6
X114.3Y-72.14
X114.3Y-74.68
X114.3Y-77.22
X114.3Y-79.76
X114.3Y-82.3
X114.3Y-84.84
X114.3Y-87.38
X114.3Y-94.2
X114.3Y-96.74
X114.3Y-99.28
X114.3Y-101.82
X114.3Y-104.36
X114.3Y-106.9
X114.3Y-109.44
X114.3Y-111.98
X114.3Y-114.52
X114.3Y-117.06
X114.3Y-119.6
X114.3Y-122.14
X114.3Y-124.68
X114.3Y-127.22
X114.3Y-129.76
X114.3Y-132.3
X114.3Y-134.84
X114.3Y-137.38
X116.84Y-44.2
X116.84Y-46.74
X116.84Y-49.28
X116.84Y-51.82
X116.84Y-54.36
X116.84Y-56.9
X116.84Y-59.44
X116.84Y-61.98
X116.84Y-64.52
X116.84Y-67.06
X116.84Y-69.6
X116.84Y-72.14
X116.84Y-74.68
X116.84Y-77.22
X116.84Y-79.76
X116.84Y-82.3
X116.84Y-84.84
X116.84Y-87.38
X116.84Y-94.2
X116.84Y-96.74
X116.84Y-99.28
X116.84Y-101.82
X116.84Y-104.36
X116.84Y-106.9
X116.84Y-109.44
X116.84Y-111.98
X116.84Y-114.52
X116.84Y-117.06
X116.84Y-119.6
X116.84Y-122.14
X116.84Y-124.68
X116.84Y-127.22
X116.84Y-129.76
X116.84Y-132.3
X116.84Y-134.84
X116.84Y-137.38
X119.38Y-44.2
X119.38Y-46.74
X119.38Y-49.28
X119.38Y-51.82
X119.38Y-54.36
X119.38Y-56.9
X119.38Y-59.44
X119.38Y-61.98
X119.38Y-64.52
X119.38Y-67.06
X119.38Y-69.6
X119.38Y-72.14
X119.38Y-74.68
X119.38Y-77.22
X119.38Y-79.76
X119.38Y-82.3
X119.38Y-84.84
X119.38Y-87.38
X119.38Y-94.2
X119.38Y-96.74
X119.38Y-99.28
X119.38Y-101.82
X119.38Y-104.36
X119.38Y-106.9
X119.38Y-109.44
X119.38Y-111.98
X119.38Y-114.52
X119.38Y-117.06
X119.38Y-119.6
X119.38Y-122.14
X119.38Y-124.68
X119.38Y-127.22
X119.38Y-129.76
X119.38Y-132.3
X119.38Y-134.84
X119.38Y-137.38
X121.92Y-44.2
X121.92Y-46.74
X121.92Y-46.74
X121.92Y-49.28
X121.92Y-49.28
X121.92Y-51.82
X121.92Y-51.82
X121.92Y-54.36
X121.92Y-54.36
X121.92Y-56.9
X121.92Y-56.9
X121.92Y-59.44
X121.92Y-59.44
X121.92Y-61.98
X121.92Y-61.98
X121.92Y-64.52
X121.92Y-64.52
X121.92Y-67.06
X121.92Y-67.06
X121.92Y-69.6
X121.92Y-69.6
X121.92Y-72.14
X121.92Y-72.14
X121.92Y-74.68
X121.92Y-74.68
X121.92Y-77.22
X121.92Y-77.22
X121.92Y-79.76
X121.92Y-79.76
X121.92Y-82.3
X121.92Y-82.3
X121.92Y-84.84
X121.92Y-84.84
X121.92Y-87.38
X121.92Y-87.38
X121.92Y-94.2
X121.92Y-96.74
X121.92Y-96.74
X121.92Y-99.28
X121.92Y-99.28
X121.92Y-101.82
X121.92Y-101.82
X121.92Y-104.36
X121.92Y-104.36
X121.92Y-106.9
X121.92Y-106.9
X121.92Y-109.44
X121.92Y-109.44
X121.92Y-111.98
X121.92Y-111.98
X121.92Y-114.52
X121.92Y-114.52
X121.92Y-117.06
X121.92Y-117.06
X121.92Y-119.6
X121.92Y-119.6
X121.92Y-122.14
X121.92Y-122.14
X121.92Y-124.68
X121.92Y-124.68
X121.92Y-127.22
X121.92Y-127.22
X121.92Y-129.76
X121.92Y-129.76
X121.92Y-132.3
X121.92Y-132.3
X121.92Y-134.84
X121.92Y-134.84
X121.92Y-137.38
X121.92Y-137.38
X124.46Y-44.2
X124.46Y-46.74
X124.46Y-49.28
X124.46Y-51.82
X124.46Y-54.36
X124.46Y-56.9
X124.46Y-59.44
X124.46Y-61.98
X124.46Y-64.52
X124.46Y-67.06
X124.46Y-69.6
X124.46Y-72.14
X124.46Y-74.68
X124.46Y-77.22
X124.46Y-79.76
X124.46Y-82.3
X124.46Y-84.84
X124.46Y-87.38
X124.46Y-94.2
X124.46Y-96.74
X124.46Y-99.28
X124.46Y-101.82
X124.46Y-104.36
X124.46Y-106.9
X124.46Y-109.44
X124.46Y-111.98
X124.46Y-114.52
X124.46Y-117.06
X124.46Y-119.6
X124.46Y-122.14
X124.46Y-124.68
X124.46Y-127.22
X124.46Y-129.76
X124.46Y-132.3
X124.46Y-134.84
X124.46Y-137.38
X127.0Y-44.2
X127.0Y-46.74
X127.0Y-49.28
X127.0Y-51.82
X127.0Y-54.36
X127.0Y-56.9
X127.0Y-59.44
X127.0Y-61.98
X127.0Y-64.52
X127.0Y-67.06
X127.0Y-69.6
X127.0Y-72.14
X127.0Y-74.68
X127.0Y-77.22
X127.0Y-79.76
X127.0Y-82.3
X127.0Y-84.84
X127.0Y-87.38
X127.0Y-94.2
X127.0Y-96.74
X127.0Y-99.28
X127.0Y-101.82
X127.0Y-104.36
X127.0Y-106.9
X127.0Y-109.44
X127.0Y-111.98
X127.0Y-114.52
X127.0Y-117.06
X127.0Y-119.6
X127.0Y-122.14
X127.0Y-124.68
X127.0Y-127.22
X127.0Y-129.76
X127.0Y-132.3
X127.0Y-134.84
X127.0Y-137.38
X129.54Y-44.2
X129.54Y-46.74
X129.54Y-49.28
X129.54Y-51.82
X129.54Y-54.36
X129.54Y-56.9
X129.54Y-59.44
X129.54Y-61.98
X129.54Y-64.52
X129.54Y-67.06
X129.54Y-69.6
X129.54Y-72.14
X129.54Y-74.68
X129.54Y-77.22
X129.54Y-79.76
X129.54Y-82.3
X129.54Y-84.84
X129.54Y-87.38
X129.54Y-94.2
X129.54Y-96.74
X129.54Y-99.28
X129.54Y-101.82
X129.54Y-104.36
X129.54Y-106.9
X129.54Y-109.44
X129.54Y-111.98
X129.54Y-114.52
X129.54Y-117.06
X129.54Y-119.6
X129.54Y-122.14
X129.54Y-124.68
X129.54Y-127.22
X129.54Y-129.76
X129.54Y-132.3
X129.54Y-134.84
X129.54Y-137.38
X132.08Y-44.2
X132.08Y-46.74
X132.08Y-49.28
X132.08Y-51.82
X132.08Y-54.36
X132.08Y-56.9
X132.08Y-59.44
X132.08Y-61.98
X132.08Y-64.52
X132.08Y-67.06
X132.08Y-69.6
X132.08Y-72.14
X132.08Y-74.68
X132.08Y-77.22
X132.08Y-79.76
X132.08Y-82.3
X132.08Y-84.84
X132.08Y-87.38
X132.08Y-94.2
X132.08Y-96.74
X132.08Y-99.28
X132.08Y-101.82
X132.08Y-104.36
X132.08Y-106.9
X132.08Y-109.44
X132.08Y-111.98
X132.08Y-114.52
X132.08Y-117.06
X132.08Y-119.6
X132.08Y-122.14
X132.08Y-124.68
X132.08Y-127.22
X132.08Y-129.76
X132.08Y-132.3
X132.08Y-134.84
X132.08Y-137.38
X134.62Y-44.2
X134.62Y-46.74
X134.62Y-49.28
X134.62Y-51.82
X134.62Y-54.36
X134.62Y-56.9
X134.62Y-59.44
X134.62Y-61.98
X134.62Y-64.52
X134.62Y-67.06
X134.62Y-69.6
X134.62Y-72.14
X134.62Y-74.68
X134.62Y-77.22
X134.62Y-79.76
X134.62Y-82.3
X134.62Y-84.84
X134.62Y-87.38
X134.62Y-94.2
X134.62Y-96.74
X134.62Y-99.28
X134.62Y-101.82
X134.62Y-104.36
X134.62Y-106.9
X134.62Y-109.44
X134.62Y-111.98
X134.62Y-114.52
X134.62Y-117.06
X134.62Y-119.6
X134.62Y-122.14
X134.62Y-124.68
X134.62Y-127.22
X134.62Y-129.76
X134.62Y-132.3
X134.62Y-134.84
X134.62Y-137.38
X137.16Y-44.2
X137.16Y-46.74
X137.16Y-49.28
X137.16Y-51.82
X137.16Y-54.36
X137.16Y-56.9
X137.16Y-59.44
X137.16Y-61.98
X137.16Y-64.52
X137.16Y-67.06
X137.16Y-69.6
X137.16Y-72.14
X137.16Y-74.68
X137.16Y-77.22
X137.16Y-79.76
X137.16Y-82.3
X137.16Y-84.84
X137.16Y-87.38
X137.16Y-94.2
X137.16Y-96.74
X137.16Y-99.28
X137.16Y-101.82
X137.16Y-104.36
X137.16Y-106.9
X137.16Y-109.44
X137.16Y-111.98
X137.16Y-114.52
X137.16Y-117.06
X137.16Y-119.6
X137.16Y-122.14
X137.16Y-124.68
X137.16Y-127.22
X137.16Y-129.76
X137.16Y-132.3
X137.16Y-134.84
X137.16Y-137.38
X139.7Y-44.2
X139.7Y-46.74
X139.7Y-49.28
X139.7Y-51.82
X139.7Y-54.36
X139.7Y-56.9
X139.7Y-59.44
X139.7Y-61.98
X139.7Y-64.52
X139.7Y-67.06
X139.7Y-69.6
X139.7Y-72.14
X139.7Y-74.68
X139.7Y-77.22
X139.7Y-79.76
X139.7Y-82.3
X139.7Y-84.84
X139.7Y-87.38
X139.7Y-94.2
X139.7Y-96.74
X139.7Y-99.28
X139.7Y-101.82
X139.7Y-104.36
X139.7Y-106.9
X139.7Y-109.44
X139.7Y-111.98
X139.7Y-114.52
X139.7Y-117.06
X139.7Y-119.6
X139.7Y-122.14
X139.7Y-124.68
X139.7Y-127.22
X139.7Y-129.76
X139.7Y-132.3
X139.7Y-134.84
X139.7Y-137.38
X142.24Y-49.28
X142.24Y-51.82
X142.24Y-54.36
X142.24Y-56.9
X142.24Y-59.44
X142.24Y-61.98
X142.24Y-64.52
X142.24Y-67.06
X142.24Y-69.6
X142.24Y-72.14
X142.24Y-74.68
X142.24Y-77.22
X142.24Y-79.76
X142.24Y-82.3
X142.24Y-99.28
X142.24Y-101.82
X142.24Y-104.36
X142.24Y-106.9
X142.24Y-109.44
X142.24Y-111.98
X142.24Y-114.52
X142.24Y-117.06
X142.24Y-119.6
X142.24Y-122.14
X142.24Y-124.68
X142.24Y-127.22
X142.24Y-129.76
X142.24Y-132.3
M30
