M48
; DRILL file {KiCad 7.0.11+dfsg-1build4} date mié 07 ene 2026 16:52:55
; FORMAT={-:-/ absolute / metric / decimal}
; #@! TF.CreationDate,2026-01-07T16:52:55-05:00
; #@! TF.GenerationSoftware,Kicad,Pcbnew,7.0.11+dfsg-1build4
; #@! TF.FileFunction,Plated,1,2,PTH
FMAT,2
METRIC
; #@! TA.AperFunction,Plated,PTH,ComponentDrill
T1C1.000
%
G90
G05
T1
X104.14Y-111.06
X104.14Y-113.6
X104.14Y-116.14
X104.14Y-118.68
X104.14Y-121.22
X104.14Y-123.76
X104.14Y-126.3
X104.14Y-128.84
X104.14Y-131.38
X104.14Y-133.92
X104.14Y-136.46
X104.14Y-139.0
X106.68Y-108.52
X106.68Y-111.06
X106.68Y-113.6
X106.68Y-116.14
X106.68Y-118.68
X106.68Y-121.22
X106.68Y-123.76
X106.68Y-126.3
X106.68Y-128.84
X106.68Y-131.38
X106.68Y-133.92
X106.68Y-136.46
X106.68Y-139.0
X106.68Y-141.54
X109.22Y-108.52
X109.22Y-111.06
X109.22Y-113.6
X109.22Y-116.14
X109.22Y-118.68
X109.22Y-121.22
X109.22Y-123.76
X109.22Y-126.3
X109.22Y-128.84
X109.22Y-131.38
X109.22Y-133.92
X109.22Y-136.46
X109.22Y-139.0
X109.22Y-141.54
X111.76Y-103.44
X111.76Y-105.98
X111.76Y-108.52
X111.76Y-111.06
X111.76Y-113.6
X111.76Y-116.14
X111.76Y-118.68
X111.76Y-121.22
X111.76Y-123.76
X111.76Y-126.3
X111.76Y-128.84
X111.76Y-131.38
X111.76Y-133.92
X111.76Y-136.46
X111.76Y-139.0
X111.76Y-141.54
X111.76Y-144.08
X111.76Y-146.62
X114.3Y-103.44
X114.3Y-105.98
X114.3Y-108.52
X114.3Y-111.06
X114.3Y-113.6
X114.3Y-116.14
X114.3Y-118.68
X114.3Y-121.22
X114.3Y-123.76
X114.3Y-126.3
X114.3Y-128.84
X114.3Y-131.38
X114.3Y-133.92
X114.3Y-136.46
X114.3Y-139.0
X114.3Y-141.54
X114.3Y-144.08
X114.3Y-146.62
X116.84Y-103.44
X116.84Y-105.98
X116.84Y-108.52
X116.84Y-111.06
X116.84Y-113.6
X116.84Y-116.14
X116.84Y-118.68
X116.84Y-121.22
X116.84Y-123.76
X116.84Y-126.3
X116.84Y-128.84
X116.84Y-131.38
X116.84Y-133.92
X116.84Y-136.46
X116.84Y-139.0
X116.84Y-141.54
X116.84Y-144.08
X116.84Y-146.62
X119.38Y-103.44
X119.38Y-105.98
X119.38Y-108.52
X119.38Y-111.06
X119.38Y-113.6
X119.38Y-116.14
X119.38Y-118.68
X119.38Y-121.22
X119.38Y-123.76
X119.38Y-126.3
X119.38Y-128.84
X119.38Y-131.38
X119.38Y-133.92
X119.38Y-136.46
X119.38Y-139.0
X119.38Y-141.54
X119.38Y-144.08
X119.38Y-146.62
X121.92Y-103.44
X121.92Y-105.98
X121.92Y-108.52
X121.92Y-111.06
X121.92Y-113.6
X121.92Y-116.14
X121.92Y-118.68
X121.92Y-121.22
X121.92Y-123.76
X121.92Y-126.3
X121.92Y-128.84
X121.92Y-131.38
X121.92Y-133.92
X121.92Y-136.46
X121.92Y-139.0
X121.92Y-141.54
X121.92Y-144.08
X121.92Y-146.62
X124.46Y-103.44
X124.46Y-105.98
X124.46Y-108.52
X124.46Y-111.06
X124.46Y-113.6
X124.46Y-116.14
X124.46Y-118.68
X124.46Y-121.22
X124.46Y-123.76
X124.46Y-126.3
X124.46Y-128.84
X124.46Y-131.38
X124.46Y-133.92
X124.46Y-136.46
X124.46Y-139.0
X124.46Y-141.54
X124.46Y-144.08
X124.46Y-146.62
X127.0Y-103.44
X127.0Y-105.98
X127.0Y-108.52
X127.0Y-111.06
X127.0Y-113.6
X127.0Y-116.14
X127.0Y-118.68
X127.0Y-121.22
X127.0Y-123.76
X127.0Y-126.3
X127.0Y-128.84
X127.0Y-131.38
X127.0Y-133.92
X127.0Y-136.46
X127.0Y-139.0
X127.0Y-141.54
X127.0Y-144.08
X127.0Y-146.62
X129.54Y-103.44
X129.54Y-105.98
X129.54Y-108.52
X129.54Y-111.06
X129.54Y-113.6
X129.54Y-116.14
X129.54Y-118.68
X129.54Y-121.22
X129.54Y-123.76
X129.54Y-126.3
X129.54Y-128.84
X129.54Y-131.38
X129.54Y-133.92
X129.54Y-136.46
X129.54Y-139.0
X129.54Y-141.54
X129.54Y-144.08
X129.54Y-146.62
X132.08Y-103.44
X132.08Y-105.98
X132.08Y-108.52
X132.08Y-111.06
X132.08Y-113.6
X132.08Y-116.14
X132.08Y-118.68
X132.08Y-121.22
X132.08Y-123.76
X132.08Y-126.3
X132.08Y-128.84
X132.08Y-131.38
X132.08Y-133.92
X132.08Y-136.46
X132.08Y-139.0
X132.08Y-141.54
X132.08Y-144.08
X132.08Y-146.62
X134.62Y-103.44
X134.62Y-105.98
X134.62Y-108.52
X134.62Y-111.06
X134.62Y-113.6
X134.62Y-116.14
X134.62Y-118.68
X134.62Y-121.22
X134.62Y-123.76
X134.62Y-126.3
X134.62Y-128.84
X134.62Y-131.38
X134.62Y-133.92
X134.62Y-136.46
X134.62Y-139.0
X134.62Y-141.54
X134.62Y-144.08
X134.62Y-146.62
X137.16Y-103.44
X137.16Y-105.98
X137.16Y-108.52
X137.16Y-111.06
X137.16Y-113.6
X137.16Y-116.14
X137.16Y-118.68
X137.16Y-121.22
X137.16Y-123.76
X137.16Y-126.3
X137.16Y-128.84
X137.16Y-131.38
X137.16Y-133.92
X137.16Y-136.46
X137.16Y-139.0
X137.16Y-141.54
X137.16Y-144.08
X137.16Y-146.62
X139.7Y-103.44
X139.7Y-105.98
X139.7Y-108.52
X139.7Y-111.06
X139.7Y-113.6
X139.7Y-116.14
X139.7Y-118.68
X139.7Y-121.22
X139.7Y-123.76
X139.7Y-126.3
X139.7Y-128.84
X139.7Y-131.38
X139.7Y-133.92
X139.7Y-136.46
X139.7Y-139.0
X139.7Y-141.54
X139.7Y-144.08
X139.7Y-146.62
X142.24Y-103.44
X142.24Y-105.98
X142.24Y-108.52
X142.24Y-111.06
X142.24Y-113.6
X142.24Y-116.14
X142.24Y-118.68
X142.24Y-121.22
X142.24Y-123.76
X142.24Y-126.3
X142.24Y-128.84
X142.24Y-131.38
X142.24Y-133.92
X142.24Y-136.46
X142.24Y-139.0
X142.24Y-141.54
X142.24Y-144.08
X142.24Y-146.62
X144.78Y-103.44
X144.78Y-105.98
X144.78Y-108.52
X144.78Y-111.06
X144.78Y-113.6
X144.78Y-116.14
X144.78Y-118.68
X144.78Y-121.22
X144.78Y-123.76
X144.78Y-126.3
X144.78Y-128.84
X144.78Y-131.38
X144.78Y-133.92
X144.78Y-136.46
X144.78Y-139.0
X144.78Y-141.54
X144.78Y-144.08
X144.78Y-146.62
X147.32Y-103.44
X147.32Y-105.98
X147.32Y-108.52
X147.32Y-111.06
X147.32Y-113.6
X147.32Y-116.14
X147.32Y-118.68
X147.32Y-121.22
X147.32Y-123.76
X147.32Y-126.3
X147.32Y-128.84
X147.32Y-131.38
X147.32Y-133.92
X147.32Y-136.46
X147.32Y-139.0
X147.32Y-141.54
X147.32Y-144.08
X147.32Y-146.62
X149.86Y-103.44
X149.86Y-105.98
X149.86Y-105.98
X149.86Y-108.52
X149.86Y-108.52
X149.86Y-111.06
X149.86Y-111.06
X149.86Y-113.6
X149.86Y-113.6
X149.86Y-116.14
X149.86Y-116.14
X149.86Y-118.68
X149.86Y-118.68
X149.86Y-121.22
X149.86Y-121.22
X149.86Y-123.76
X149.86Y-123.76
X149.86Y-126.3
X149.86Y-126.3
X149.86Y-128.84
X149.86Y-128.84
X149.86Y-131.38
X149.86Y-131.38
X149.86Y-133.92
X149.86Y-133.92
X149.86Y-136.46
X149.86Y-136.46
X149.86Y-139.0
X149.86Y-139.0
X149.86Y-141.54
X149.86Y-141.54
X149.86Y-144.08
X149.86Y-144.08
X149.86Y-146.62
X149.86Y-146.62
X152.4Y-103.44
X152.4Y-105.98
X152.4Y-108.52
X152.4Y-111.06
X152.4Y-113.6
X152.4Y-116.14
X152.4Y-118.68
X152.4Y-121.22
X152.4Y-123.76
X152.4Y-126.3
X152.4Y-128.84
X152.4Y-131.38
X152.4Y-133.92
X152.4Y-136.46
X152.4Y-139.0
X152.4Y-141.54
X152.4Y-144.08
X152.4Y-146.62
X154.94Y-103.44
X154.94Y-105.98
X154.94Y-108.52
X154.94Y-111.06
X154.94Y-113.6
X154.94Y-116.14
X154.94Y-118.68
X154.94Y-121.22
X154.94Y-123.76
X154.94Y-126.3
X154.94Y-128.84
X154.94Y-131.38
X154.94Y-133.92
X154.94Y-136.46
X154.94Y-139.0
X154.94Y-141.54
X154.94Y-144.08
X154.94Y-146.62
X157.48Y-103.44
X157.48Y-105.98
X157.48Y-108.52
X157.48Y-111.06
X157.48Y-113.6
X157.48Y-116.14
X157.48Y-118.68
X157.48Y-121.22
X157.48Y-123.76
X157.48Y-126.3
X157.48Y-128.84
X157.48Y-131.38
X157.48Y-133.92
X157.48Y-136.46
X157.48Y-139.0
X157.48Y-141.54
X157.48Y-144.08
X157.48Y-146.62
X160.02Y-103.44
X160.02Y-105.98
X160.02Y-108.52
X160.02Y-111.06
X160.02Y-113.6
X160.02Y-116.14
X160.02Y-118.68
X160.02Y-121.22
X160.02Y-123.76
X160.02Y-126.3
X160.02Y-128.84
X160.02Y-131.38
X160.02Y-133.92
X160.02Y-136.46
X160.02Y-139.0
X160.02Y-141.54
X160.02Y-144.08
X160.02Y-146.62
X162.56Y-103.44
X162.56Y-105.98
X162.56Y-108.52
X162.56Y-111.06
X162.56Y-113.6
X162.56Y-116.14
X162.56Y-118.68
X162.56Y-121.22
X162.56Y-123.76
X162.56Y-126.3
X162.56Y-128.84
X162.56Y-131.38
X162.56Y-133.92
X162.56Y-136.46
X162.56Y-139.0
X162.56Y-141.54
X162.56Y-144.08
X162.56Y-146.62
X165.1Y-103.44
X165.1Y-105.98
X165.1Y-108.52
X165.1Y-111.06
X165.1Y-113.6
X165.1Y-116.14
X165.1Y-118.68
X165.1Y-121.22
X165.1Y-123.76
X165.1Y-126.3
X165.1Y-128.84
X165.1Y-131.38
X165.1Y-133.92
X165.1Y-136.46
X165.1Y-139.0
X165.1Y-141.54
X165.1Y-144.08
X165.1Y-146.62
X167.64Y-103.44
X167.64Y-105.98
X167.64Y-108.52
X167.64Y-111.06
X167.64Y-113.6
X167.64Y-116.14
X167.64Y-118.68
X167.64Y-121.22
X167.64Y-123.76
X167.64Y-126.3
X167.64Y-128.84
X167.64Y-131.38
X167.64Y-133.92
X167.64Y-136.46
X167.64Y-139.0
X167.64Y-141.54
X167.64Y-144.08
X167.64Y-146.62
X170.18Y-108.52
X170.18Y-111.06
X170.18Y-113.6
X170.18Y-116.14
X170.18Y-118.68
X170.18Y-121.22
X170.18Y-123.76
X170.18Y-126.3
X170.18Y-128.84
X170.18Y-131.38
X170.18Y-133.92
X170.18Y-136.46
X170.18Y-139.0
X170.18Y-141.54
M30
