G04 #@! TF.GenerationSoftware,KiCad,Pcbnew,7.0.11+dfsg-1build4*
G04 #@! TF.CreationDate,2026-01-07T16:52:57-05:00*
G04 #@! TF.ProjectId,mcu-proto-90x60mm,6d63752d-7072-46f7-946f-2d3930783630,rev?*
G04 #@! TF.SameCoordinates,Original*
G04 #@! TF.FileFunction,Soldermask,Bot*
G04 #@! TF.FilePolarity,Negative*
%FSLAX46Y46*%
G04 Gerber Fmt 4.6, Leading zero omitted, Abs format (unit mm)*
G04 Created by KiCad (PCBNEW 7.0.11+dfsg-1build4) date 2026-01-07 16:52:57*
%MOMM*%
%LPD*%
G01*
G04 APERTURE LIST*
%ADD10C,1.700000*%
G04 #@! TA.AperFunction,Profile*
%ADD11C,0.050000*%
G04 #@! TD*
G04 APERTURE END LIST*
D10*
X147320000Y-133920000D03*
X129540000Y-141540000D03*
X157480000Y-113600000D03*
X144780000Y-118680000D03*
X127000000Y-126300000D03*
X144780000Y-105980000D03*
X139700000Y-108520000D03*
X134620000Y-131380000D03*
X149860000Y-123760000D03*
X165100000Y-123760000D03*
X165100000Y-144080000D03*
X134620000Y-108520000D03*
X142240000Y-121220000D03*
X129540000Y-111060000D03*
X132080000Y-141540000D03*
X116840000Y-105980000D03*
X149860000Y-108520000D03*
X157480000Y-105980000D03*
X109220000Y-126300000D03*
X116840000Y-141540000D03*
X154940000Y-126300000D03*
X127000000Y-123760000D03*
X132080000Y-146620000D03*
X165100000Y-103440000D03*
X132080000Y-108520000D03*
X162560000Y-105980000D03*
X165100000Y-131380000D03*
X167640000Y-126300000D03*
X121920000Y-118680000D03*
X160020000Y-123760000D03*
X134620000Y-105980000D03*
X139700000Y-121220000D03*
X165100000Y-116140000D03*
X137160000Y-128840000D03*
X127000000Y-105980000D03*
X134620000Y-146620000D03*
X137160000Y-111060000D03*
X127000000Y-113600000D03*
X114300000Y-126300000D03*
X162560000Y-136460000D03*
X132080000Y-133920000D03*
X149860000Y-111060000D03*
X149860000Y-131380000D03*
X170180000Y-118680000D03*
X111760000Y-108520000D03*
X160020000Y-144080000D03*
X134620000Y-111060000D03*
X121920000Y-128840000D03*
X121920000Y-121220000D03*
X144780000Y-139000000D03*
X149860000Y-139000000D03*
X137160000Y-144080000D03*
X149860000Y-113600000D03*
X119380000Y-108520000D03*
X114300000Y-133920000D03*
X104140000Y-128840000D03*
X121920000Y-123760000D03*
X106680000Y-133920000D03*
X157480000Y-139000000D03*
X160020000Y-108520000D03*
X124460000Y-116140000D03*
X157480000Y-144080000D03*
X139700000Y-136460000D03*
X132080000Y-126300000D03*
X124460000Y-146620000D03*
X119380000Y-121220000D03*
X114300000Y-116140000D03*
X142240000Y-144080000D03*
X152400000Y-108520000D03*
X111760000Y-131380000D03*
X167640000Y-133920000D03*
X134620000Y-136460000D03*
X124460000Y-136460000D03*
X124460000Y-131380000D03*
X142240000Y-113600000D03*
X114300000Y-118680000D03*
X147320000Y-131380000D03*
X116840000Y-116140000D03*
X119380000Y-139000000D03*
X152400000Y-131380000D03*
X154940000Y-116140000D03*
X109220000Y-133920000D03*
X127000000Y-136460000D03*
X167640000Y-136460000D03*
X119380000Y-105980000D03*
X129540000Y-131380000D03*
X149860000Y-111060000D03*
X124460000Y-108520000D03*
X149860000Y-136460000D03*
X152400000Y-105980000D03*
X167640000Y-141540000D03*
X137160000Y-105980000D03*
X116840000Y-133920000D03*
X124460000Y-111060000D03*
X127000000Y-128840000D03*
X109220000Y-116140000D03*
X165100000Y-118680000D03*
X162560000Y-111060000D03*
X142240000Y-116140000D03*
X111760000Y-133920000D03*
X134620000Y-103440000D03*
X132080000Y-116140000D03*
X137160000Y-121220000D03*
X147320000Y-121220000D03*
X154940000Y-105980000D03*
X160020000Y-131380000D03*
X127000000Y-146620000D03*
X162560000Y-121220000D03*
X139700000Y-128840000D03*
X111760000Y-105980000D03*
X127000000Y-111060000D03*
X104140000Y-133920000D03*
X154940000Y-111060000D03*
X111760000Y-118680000D03*
X142240000Y-136460000D03*
X116840000Y-121220000D03*
X111760000Y-139000000D03*
X124460000Y-144080000D03*
X121920000Y-113600000D03*
X152400000Y-121220000D03*
X127000000Y-141540000D03*
X142240000Y-105980000D03*
X111760000Y-116140000D03*
X157480000Y-133920000D03*
X104140000Y-121220000D03*
X147320000Y-105980000D03*
X149860000Y-123760000D03*
X154940000Y-108520000D03*
X154940000Y-121220000D03*
X119380000Y-128840000D03*
X137160000Y-116140000D03*
X109220000Y-123760000D03*
X124460000Y-105980000D03*
X119380000Y-146620000D03*
X137160000Y-139000000D03*
X129540000Y-108520000D03*
X119380000Y-111060000D03*
X134620000Y-123760000D03*
X152400000Y-111060000D03*
X116840000Y-146620000D03*
X139700000Y-133920000D03*
X149860000Y-146620000D03*
X167640000Y-113600000D03*
X139700000Y-105980000D03*
X132080000Y-131380000D03*
X154940000Y-146620000D03*
X124460000Y-118680000D03*
X132080000Y-128840000D03*
X160020000Y-136460000D03*
X129540000Y-126300000D03*
X104140000Y-131380000D03*
X152400000Y-118680000D03*
X137160000Y-118680000D03*
X116840000Y-131380000D03*
X160020000Y-146620000D03*
X116840000Y-139000000D03*
X149860000Y-118680000D03*
X129540000Y-144080000D03*
X152400000Y-103440000D03*
X170180000Y-123760000D03*
X152400000Y-113600000D03*
X152400000Y-136460000D03*
X144780000Y-136460000D03*
X162560000Y-144080000D03*
X119380000Y-103440000D03*
X114300000Y-139000000D03*
X139700000Y-144080000D03*
X114300000Y-103440000D03*
X165100000Y-146620000D03*
X170180000Y-133920000D03*
X114300000Y-146620000D03*
X134620000Y-113600000D03*
X116840000Y-113600000D03*
X162560000Y-123760000D03*
X142240000Y-126300000D03*
X160020000Y-126300000D03*
X154940000Y-133920000D03*
X106680000Y-113600000D03*
X116840000Y-128840000D03*
X114300000Y-141540000D03*
X149860000Y-121220000D03*
X106680000Y-118680000D03*
X116840000Y-144080000D03*
X129540000Y-128840000D03*
X104140000Y-123760000D03*
X114300000Y-144080000D03*
X160020000Y-118680000D03*
X121920000Y-144080000D03*
X137160000Y-136460000D03*
X162560000Y-126300000D03*
X139700000Y-111060000D03*
X109220000Y-131380000D03*
X116840000Y-136460000D03*
X104140000Y-118680000D03*
X157480000Y-128840000D03*
X167640000Y-108520000D03*
X167640000Y-123760000D03*
X132080000Y-139000000D03*
X121920000Y-108520000D03*
X127000000Y-139000000D03*
X160020000Y-128840000D03*
X139700000Y-113600000D03*
X144780000Y-128840000D03*
X129540000Y-103440000D03*
X170180000Y-136460000D03*
X134620000Y-139000000D03*
X154940000Y-123760000D03*
X144780000Y-103440000D03*
X129540000Y-118680000D03*
X147320000Y-103440000D03*
X109220000Y-136460000D03*
X119380000Y-136460000D03*
X129540000Y-123760000D03*
X149860000Y-133920000D03*
X114300000Y-108520000D03*
X165100000Y-113600000D03*
X111760000Y-146620000D03*
X106680000Y-141540000D03*
X149860000Y-105980000D03*
X116840000Y-103440000D03*
X149860000Y-131380000D03*
X165100000Y-126300000D03*
X111760000Y-141540000D03*
X162560000Y-113600000D03*
X160020000Y-103440000D03*
X104140000Y-116140000D03*
X104140000Y-111060000D03*
X134620000Y-118680000D03*
X121920000Y-131380000D03*
X149860000Y-116140000D03*
X134620000Y-121220000D03*
X111760000Y-144080000D03*
X111760000Y-136460000D03*
X127000000Y-118680000D03*
X116840000Y-111060000D03*
X157480000Y-141540000D03*
X162560000Y-108520000D03*
X170180000Y-111060000D03*
X119380000Y-118680000D03*
X137160000Y-126300000D03*
X149860000Y-108520000D03*
X167640000Y-105980000D03*
X152400000Y-146620000D03*
X129540000Y-121220000D03*
X111760000Y-113600000D03*
X137160000Y-123760000D03*
X157480000Y-146620000D03*
X149860000Y-105980000D03*
X162560000Y-146620000D03*
X114300000Y-131380000D03*
X162560000Y-139000000D03*
X165100000Y-133920000D03*
X121920000Y-141540000D03*
X111760000Y-126300000D03*
X157480000Y-108520000D03*
X121920000Y-136460000D03*
X165100000Y-105980000D03*
X162560000Y-116140000D03*
X129540000Y-139000000D03*
X121920000Y-126300000D03*
X149860000Y-118680000D03*
X147320000Y-111060000D03*
X147320000Y-136460000D03*
X170180000Y-139000000D03*
X114300000Y-111060000D03*
X149860000Y-141540000D03*
X149860000Y-146620000D03*
X149860000Y-128840000D03*
X149860000Y-128840000D03*
X106680000Y-121220000D03*
X139700000Y-126300000D03*
X119380000Y-126300000D03*
X170180000Y-128840000D03*
X142240000Y-139000000D03*
X139700000Y-139000000D03*
X129540000Y-105980000D03*
X109220000Y-113600000D03*
X170180000Y-126300000D03*
X132080000Y-103440000D03*
X109220000Y-118680000D03*
X167640000Y-103440000D03*
X132080000Y-105980000D03*
X165100000Y-128840000D03*
X144780000Y-121220000D03*
X149860000Y-113600000D03*
X157480000Y-123760000D03*
X106680000Y-111060000D03*
X132080000Y-136460000D03*
X167640000Y-144080000D03*
X134620000Y-128840000D03*
X149860000Y-103440000D03*
X127000000Y-133920000D03*
X137160000Y-133920000D03*
X137160000Y-103440000D03*
X142240000Y-146620000D03*
X160020000Y-116140000D03*
X134620000Y-116140000D03*
X109220000Y-121220000D03*
X144780000Y-113600000D03*
X147320000Y-123760000D03*
X119380000Y-113600000D03*
X160020000Y-141540000D03*
X167640000Y-116140000D03*
X106680000Y-123760000D03*
X121920000Y-139000000D03*
X139700000Y-103440000D03*
X147320000Y-139000000D03*
X170180000Y-131380000D03*
X127000000Y-131380000D03*
X154940000Y-128840000D03*
X142240000Y-108520000D03*
X167640000Y-128840000D03*
X116840000Y-108520000D03*
X127000000Y-144080000D03*
X162560000Y-103440000D03*
X142240000Y-133920000D03*
X106680000Y-116140000D03*
X147320000Y-126300000D03*
X144780000Y-144080000D03*
X109220000Y-108520000D03*
X167640000Y-131380000D03*
X111760000Y-103440000D03*
X132080000Y-144080000D03*
X144780000Y-116140000D03*
X127000000Y-116140000D03*
X121920000Y-105980000D03*
X165100000Y-108520000D03*
X124460000Y-139000000D03*
X116840000Y-118680000D03*
X127000000Y-108520000D03*
X121920000Y-133920000D03*
X157480000Y-121220000D03*
X109220000Y-139000000D03*
X134620000Y-126300000D03*
X121920000Y-103440000D03*
X127000000Y-103440000D03*
X154940000Y-131380000D03*
X111760000Y-121220000D03*
X147320000Y-144080000D03*
X119380000Y-133920000D03*
X104140000Y-136460000D03*
X139700000Y-131380000D03*
X142240000Y-111060000D03*
X154940000Y-139000000D03*
X142240000Y-128840000D03*
X170180000Y-108520000D03*
X106680000Y-139000000D03*
X147320000Y-128840000D03*
X121920000Y-146620000D03*
X114300000Y-128840000D03*
X109220000Y-111060000D03*
X162560000Y-131380000D03*
X152400000Y-133920000D03*
X152400000Y-144080000D03*
X160020000Y-133920000D03*
X157480000Y-131380000D03*
X142240000Y-118680000D03*
X162560000Y-128840000D03*
X154940000Y-144080000D03*
X144780000Y-126300000D03*
X119380000Y-144080000D03*
X149860000Y-144080000D03*
X129540000Y-133920000D03*
X137160000Y-146620000D03*
X160020000Y-111060000D03*
X167640000Y-139000000D03*
X149860000Y-116140000D03*
X119380000Y-123760000D03*
X142240000Y-103440000D03*
X124460000Y-103440000D03*
X147320000Y-116140000D03*
X157480000Y-118680000D03*
X157480000Y-126300000D03*
X104140000Y-139000000D03*
X152400000Y-123760000D03*
X134620000Y-133920000D03*
X149860000Y-139000000D03*
X144780000Y-111060000D03*
X149860000Y-133920000D03*
X152400000Y-116140000D03*
X144780000Y-141540000D03*
X124460000Y-128840000D03*
X132080000Y-113600000D03*
X165100000Y-111060000D03*
X165100000Y-121220000D03*
X132080000Y-118680000D03*
X116840000Y-123760000D03*
X147320000Y-113600000D03*
X154940000Y-118680000D03*
X149860000Y-136460000D03*
X144780000Y-108520000D03*
X137160000Y-108520000D03*
X154940000Y-141540000D03*
X111760000Y-111060000D03*
X137160000Y-131380000D03*
X114300000Y-105980000D03*
X116840000Y-126300000D03*
X114300000Y-136460000D03*
X162560000Y-118680000D03*
X152400000Y-139000000D03*
X109220000Y-128840000D03*
X114300000Y-113600000D03*
X160020000Y-113600000D03*
X144780000Y-146620000D03*
X154940000Y-136460000D03*
X137160000Y-141540000D03*
X160020000Y-139000000D03*
X170180000Y-121220000D03*
X121920000Y-116140000D03*
X124460000Y-123760000D03*
X144780000Y-123760000D03*
X157480000Y-111060000D03*
X106680000Y-126300000D03*
X147320000Y-108520000D03*
X132080000Y-111060000D03*
X139700000Y-123760000D03*
X147320000Y-118680000D03*
X147320000Y-146620000D03*
X132080000Y-123760000D03*
X142240000Y-141540000D03*
X149860000Y-126300000D03*
X167640000Y-121220000D03*
X160020000Y-105980000D03*
X106680000Y-136460000D03*
X142240000Y-123760000D03*
X149860000Y-144080000D03*
X152400000Y-141540000D03*
X165100000Y-136460000D03*
X119380000Y-141540000D03*
X154940000Y-113600000D03*
X139700000Y-146620000D03*
X124460000Y-126300000D03*
X157480000Y-116140000D03*
X165100000Y-141540000D03*
X139700000Y-118680000D03*
X134620000Y-141540000D03*
X106680000Y-108520000D03*
X149860000Y-141540000D03*
X119380000Y-131380000D03*
X157480000Y-103440000D03*
X111760000Y-123760000D03*
X134620000Y-144080000D03*
X152400000Y-128840000D03*
X147320000Y-141540000D03*
X149860000Y-121220000D03*
X162560000Y-141540000D03*
X154940000Y-103440000D03*
X160020000Y-121220000D03*
X124460000Y-133920000D03*
X170180000Y-116140000D03*
X129540000Y-116140000D03*
X149860000Y-126300000D03*
X104140000Y-113600000D03*
X162560000Y-133920000D03*
X129540000Y-136460000D03*
X129540000Y-113600000D03*
X167640000Y-146620000D03*
X124460000Y-113600000D03*
X139700000Y-116140000D03*
X106680000Y-128840000D03*
X121920000Y-111060000D03*
X167640000Y-111060000D03*
X127000000Y-121220000D03*
X152400000Y-126300000D03*
X124460000Y-141540000D03*
X114300000Y-123760000D03*
X144780000Y-133920000D03*
X124460000Y-121220000D03*
X139700000Y-141540000D03*
X165100000Y-139000000D03*
X129540000Y-146620000D03*
X104140000Y-126300000D03*
X114300000Y-121220000D03*
X144780000Y-131380000D03*
X170180000Y-141540000D03*
X137160000Y-113600000D03*
X106680000Y-131380000D03*
X167640000Y-118680000D03*
X157480000Y-136460000D03*
X132080000Y-121220000D03*
X111760000Y-128840000D03*
X170180000Y-113600000D03*
X119380000Y-116140000D03*
X109220000Y-141540000D03*
X142240000Y-131380000D03*
D11*
X100000000Y-109499999D02*
G75*
G03*
X108999999Y-100000000I-250000J9249999D01*
G01*
X174500000Y-107500000D02*
X174500000Y-142500000D01*
X108999999Y-150000000D02*
G75*
G03*
X100000000Y-140500001I-9249999J250000D01*
G01*
X174499989Y-142499987D02*
G75*
G03*
X170500001Y-150000000I7053311J-8578413D01*
G01*
X170500019Y-99999998D02*
G75*
G03*
X174500000Y-107499999I11053281J1078398D01*
G01*
X100000000Y-109500000D02*
X100000000Y-140500000D01*
X109000000Y-100000000D02*
X170500000Y-100000000D01*
X109000000Y-150000000D02*
X170500000Y-150000000D01*
M02*
