G04 #@! TF.GenerationSoftware,KiCad,Pcbnew,7.0.11+dfsg-1build4*
G04 #@! TF.CreationDate,2026-01-07T16:52:57-05:00*
G04 #@! TF.ProjectId,mcu-proto-90x60mm,6d63752d-7072-46f7-946f-2d3930783630,rev?*
G04 #@! TF.SameCoordinates,Original*
G04 #@! TF.FileFunction,Copper,L2,Bot*
G04 #@! TF.FilePolarity,Positive*
%FSLAX46Y46*%
G04 Gerber Fmt 4.6, Leading zero omitted, Abs format (unit mm)*
G04 Created by KiCad (PCBNEW 7.0.11+dfsg-1build4) date 2026-01-07 16:52:57*
%MOMM*%
%LPD*%
G01*
G04 APERTURE LIST*
G04 #@! TA.AperFunction,ComponentPad*
%ADD10C,1.700000*%
G04 #@! TD*
G04 #@! TA.AperFunction,Conductor*
%ADD11C,0.500000*%
G04 #@! TD*
G04 #@! TA.AperFunction,Profile*
%ADD12C,0.050000*%
G04 #@! TD*
G04 APERTURE END LIST*
D10*
X147320000Y-133920000D03*
X129540000Y-141540000D03*
X157480000Y-113600000D03*
X144780000Y-118680000D03*
X127000000Y-126300000D03*
X144780000Y-105980000D03*
X139700000Y-108520000D03*
X134620000Y-131380000D03*
X149860000Y-123760000D03*
X165100000Y-123760000D03*
X165100000Y-144080000D03*
X134620000Y-108520000D03*
X142240000Y-121220000D03*
X129540000Y-111060000D03*
X132080000Y-141540000D03*
X116840000Y-105980000D03*
X149860000Y-108520000D03*
X157480000Y-105980000D03*
X109220000Y-126300000D03*
X116840000Y-141540000D03*
X154940000Y-126300000D03*
X127000000Y-123760000D03*
X132080000Y-146620000D03*
X165100000Y-103440000D03*
X132080000Y-108520000D03*
X162560000Y-105980000D03*
X165100000Y-131380000D03*
X167640000Y-126300000D03*
X121920000Y-118680000D03*
X160020000Y-123760000D03*
X134620000Y-105980000D03*
X139700000Y-121220000D03*
X165100000Y-116140000D03*
X137160000Y-128840000D03*
X127000000Y-105980000D03*
X134620000Y-146620000D03*
X137160000Y-111060000D03*
X127000000Y-113600000D03*
X114300000Y-126300000D03*
X162560000Y-136460000D03*
X132080000Y-133920000D03*
X149860000Y-111060000D03*
X149860000Y-131380000D03*
X170180000Y-118680000D03*
X111760000Y-108520000D03*
X160020000Y-144080000D03*
X134620000Y-111060000D03*
X121920000Y-128840000D03*
X121920000Y-121220000D03*
X144780000Y-139000000D03*
X149860000Y-139000000D03*
X137160000Y-144080000D03*
X149860000Y-113600000D03*
X119380000Y-108520000D03*
X114300000Y-133920000D03*
X104140000Y-128840000D03*
X121920000Y-123760000D03*
X106680000Y-133920000D03*
X157480000Y-139000000D03*
X160020000Y-108520000D03*
X124460000Y-116140000D03*
X157480000Y-144080000D03*
X139700000Y-136460000D03*
X132080000Y-126300000D03*
X124460000Y-146620000D03*
X119380000Y-121220000D03*
X114300000Y-116140000D03*
X142240000Y-144080000D03*
X152400000Y-108520000D03*
X111760000Y-131380000D03*
X167640000Y-133920000D03*
X134620000Y-136460000D03*
X124460000Y-136460000D03*
X124460000Y-131380000D03*
X142240000Y-113600000D03*
X114300000Y-118680000D03*
X147320000Y-131380000D03*
X116840000Y-116140000D03*
X119380000Y-139000000D03*
X152400000Y-131380000D03*
X154940000Y-116140000D03*
X109220000Y-133920000D03*
X127000000Y-136460000D03*
X167640000Y-136460000D03*
X119380000Y-105980000D03*
X129540000Y-131380000D03*
X149860000Y-111060000D03*
X124460000Y-108520000D03*
X149860000Y-136460000D03*
X152400000Y-105980000D03*
X167640000Y-141540000D03*
X137160000Y-105980000D03*
X116840000Y-133920000D03*
X124460000Y-111060000D03*
X127000000Y-128840000D03*
X109220000Y-116140000D03*
X165100000Y-118680000D03*
X162560000Y-111060000D03*
X142240000Y-116140000D03*
X111760000Y-133920000D03*
X134620000Y-103440000D03*
X132080000Y-116140000D03*
X137160000Y-121220000D03*
X147320000Y-121220000D03*
X154940000Y-105980000D03*
X160020000Y-131380000D03*
X127000000Y-146620000D03*
X162560000Y-121220000D03*
X139700000Y-128840000D03*
X111760000Y-105980000D03*
X127000000Y-111060000D03*
X104140000Y-133920000D03*
X154940000Y-111060000D03*
X111760000Y-118680000D03*
X142240000Y-136460000D03*
X116840000Y-121220000D03*
X111760000Y-139000000D03*
X124460000Y-144080000D03*
X121920000Y-113600000D03*
X152400000Y-121220000D03*
X127000000Y-141540000D03*
X142240000Y-105980000D03*
X111760000Y-116140000D03*
X157480000Y-133920000D03*
X104140000Y-121220000D03*
X147320000Y-105980000D03*
X149860000Y-123760000D03*
X154940000Y-108520000D03*
X154940000Y-121220000D03*
X119380000Y-128840000D03*
X137160000Y-116140000D03*
X109220000Y-123760000D03*
X124460000Y-105980000D03*
X119380000Y-146620000D03*
X137160000Y-139000000D03*
X129540000Y-108520000D03*
X119380000Y-111060000D03*
X134620000Y-123760000D03*
X152400000Y-111060000D03*
X116840000Y-146620000D03*
X139700000Y-133920000D03*
X149860000Y-146620000D03*
X167640000Y-113600000D03*
X139700000Y-105980000D03*
X132080000Y-131380000D03*
X154940000Y-146620000D03*
X124460000Y-118680000D03*
X132080000Y-128840000D03*
X160020000Y-136460000D03*
X129540000Y-126300000D03*
X104140000Y-131380000D03*
X152400000Y-118680000D03*
X137160000Y-118680000D03*
X116840000Y-131380000D03*
X160020000Y-146620000D03*
X116840000Y-139000000D03*
X149860000Y-118680000D03*
X129540000Y-144080000D03*
X152400000Y-103440000D03*
X170180000Y-123760000D03*
X152400000Y-113600000D03*
X152400000Y-136460000D03*
X144780000Y-136460000D03*
X162560000Y-144080000D03*
X119380000Y-103440000D03*
X114300000Y-139000000D03*
X139700000Y-144080000D03*
X114300000Y-103440000D03*
X165100000Y-146620000D03*
X170180000Y-133920000D03*
X114300000Y-146620000D03*
X134620000Y-113600000D03*
X116840000Y-113600000D03*
X162560000Y-123760000D03*
X142240000Y-126300000D03*
X160020000Y-126300000D03*
X154940000Y-133920000D03*
X106680000Y-113600000D03*
X116840000Y-128840000D03*
X114300000Y-141540000D03*
X149860000Y-121220000D03*
X106680000Y-118680000D03*
X116840000Y-144080000D03*
X129540000Y-128840000D03*
X104140000Y-123760000D03*
X114300000Y-144080000D03*
X160020000Y-118680000D03*
X121920000Y-144080000D03*
X137160000Y-136460000D03*
X162560000Y-126300000D03*
X139700000Y-111060000D03*
X109220000Y-131380000D03*
X116840000Y-136460000D03*
X104140000Y-118680000D03*
X157480000Y-128840000D03*
X167640000Y-108520000D03*
X167640000Y-123760000D03*
X132080000Y-139000000D03*
X121920000Y-108520000D03*
X127000000Y-139000000D03*
X160020000Y-128840000D03*
X139700000Y-113600000D03*
X144780000Y-128840000D03*
X129540000Y-103440000D03*
X170180000Y-136460000D03*
X134620000Y-139000000D03*
X154940000Y-123760000D03*
X144780000Y-103440000D03*
X129540000Y-118680000D03*
X147320000Y-103440000D03*
X109220000Y-136460000D03*
X119380000Y-136460000D03*
X129540000Y-123760000D03*
X149860000Y-133920000D03*
X114300000Y-108520000D03*
X165100000Y-113600000D03*
X111760000Y-146620000D03*
X106680000Y-141540000D03*
X149860000Y-105980000D03*
X116840000Y-103440000D03*
X149860000Y-131380000D03*
X165100000Y-126300000D03*
X111760000Y-141540000D03*
X162560000Y-113600000D03*
X160020000Y-103440000D03*
X104140000Y-116140000D03*
X104140000Y-111060000D03*
X134620000Y-118680000D03*
X121920000Y-131380000D03*
X149860000Y-116140000D03*
X134620000Y-121220000D03*
X111760000Y-144080000D03*
X111760000Y-136460000D03*
X127000000Y-118680000D03*
X116840000Y-111060000D03*
X157480000Y-141540000D03*
X162560000Y-108520000D03*
X170180000Y-111060000D03*
X119380000Y-118680000D03*
X137160000Y-126300000D03*
X149860000Y-108520000D03*
X167640000Y-105980000D03*
X152400000Y-146620000D03*
X129540000Y-121220000D03*
X111760000Y-113600000D03*
X137160000Y-123760000D03*
X157480000Y-146620000D03*
X149860000Y-105980000D03*
X162560000Y-146620000D03*
X114300000Y-131380000D03*
X162560000Y-139000000D03*
X165100000Y-133920000D03*
X121920000Y-141540000D03*
X111760000Y-126300000D03*
X157480000Y-108520000D03*
X121920000Y-136460000D03*
X165100000Y-105980000D03*
X162560000Y-116140000D03*
X129540000Y-139000000D03*
X121920000Y-126300000D03*
X149860000Y-118680000D03*
X147320000Y-111060000D03*
X147320000Y-136460000D03*
X170180000Y-139000000D03*
X114300000Y-111060000D03*
X149860000Y-141540000D03*
X149860000Y-146620000D03*
X149860000Y-128840000D03*
X149860000Y-128840000D03*
X106680000Y-121220000D03*
X139700000Y-126300000D03*
X119380000Y-126300000D03*
X170180000Y-128840000D03*
X142240000Y-139000000D03*
X139700000Y-139000000D03*
X129540000Y-105980000D03*
X109220000Y-113600000D03*
X170180000Y-126300000D03*
X132080000Y-103440000D03*
X109220000Y-118680000D03*
X167640000Y-103440000D03*
X132080000Y-105980000D03*
X165100000Y-128840000D03*
X144780000Y-121220000D03*
X149860000Y-113600000D03*
X157480000Y-123760000D03*
X106680000Y-111060000D03*
X132080000Y-136460000D03*
X167640000Y-144080000D03*
X134620000Y-128840000D03*
X149860000Y-103440000D03*
X127000000Y-133920000D03*
X137160000Y-133920000D03*
X137160000Y-103440000D03*
X142240000Y-146620000D03*
X160020000Y-116140000D03*
X134620000Y-116140000D03*
X109220000Y-121220000D03*
X144780000Y-113600000D03*
X147320000Y-123760000D03*
X119380000Y-113600000D03*
X160020000Y-141540000D03*
X167640000Y-116140000D03*
X106680000Y-123760000D03*
X121920000Y-139000000D03*
X139700000Y-103440000D03*
X147320000Y-139000000D03*
X170180000Y-131380000D03*
X127000000Y-131380000D03*
X154940000Y-128840000D03*
X142240000Y-108520000D03*
X167640000Y-128840000D03*
X116840000Y-108520000D03*
X127000000Y-144080000D03*
X162560000Y-103440000D03*
X142240000Y-133920000D03*
X106680000Y-116140000D03*
X147320000Y-126300000D03*
X144780000Y-144080000D03*
X109220000Y-108520000D03*
X167640000Y-131380000D03*
X111760000Y-103440000D03*
X132080000Y-144080000D03*
X144780000Y-116140000D03*
X127000000Y-116140000D03*
X121920000Y-105980000D03*
X165100000Y-108520000D03*
X124460000Y-139000000D03*
X116840000Y-118680000D03*
X127000000Y-108520000D03*
X121920000Y-133920000D03*
X157480000Y-121220000D03*
X109220000Y-139000000D03*
X134620000Y-126300000D03*
X121920000Y-103440000D03*
X127000000Y-103440000D03*
X154940000Y-131380000D03*
X111760000Y-121220000D03*
X147320000Y-144080000D03*
X119380000Y-133920000D03*
X104140000Y-136460000D03*
X139700000Y-131380000D03*
X142240000Y-111060000D03*
X154940000Y-139000000D03*
X142240000Y-128840000D03*
X170180000Y-108520000D03*
X106680000Y-139000000D03*
X147320000Y-128840000D03*
X121920000Y-146620000D03*
X114300000Y-128840000D03*
X109220000Y-111060000D03*
X162560000Y-131380000D03*
X152400000Y-133920000D03*
X152400000Y-144080000D03*
X160020000Y-133920000D03*
X157480000Y-131380000D03*
X142240000Y-118680000D03*
X162560000Y-128840000D03*
X154940000Y-144080000D03*
X144780000Y-126300000D03*
X119380000Y-144080000D03*
X149860000Y-144080000D03*
X129540000Y-133920000D03*
X137160000Y-146620000D03*
X160020000Y-111060000D03*
X167640000Y-139000000D03*
X149860000Y-116140000D03*
X119380000Y-123760000D03*
X142240000Y-103440000D03*
X124460000Y-103440000D03*
X147320000Y-116140000D03*
X157480000Y-118680000D03*
X157480000Y-126300000D03*
X104140000Y-139000000D03*
X152400000Y-123760000D03*
X134620000Y-133920000D03*
X149860000Y-139000000D03*
X144780000Y-111060000D03*
X149860000Y-133920000D03*
X152400000Y-116140000D03*
X144780000Y-141540000D03*
X124460000Y-128840000D03*
X132080000Y-113600000D03*
X165100000Y-111060000D03*
X165100000Y-121220000D03*
X132080000Y-118680000D03*
X116840000Y-123760000D03*
X147320000Y-113600000D03*
X154940000Y-118680000D03*
X149860000Y-136460000D03*
X144780000Y-108520000D03*
X137160000Y-108520000D03*
X154940000Y-141540000D03*
X111760000Y-111060000D03*
X137160000Y-131380000D03*
X114300000Y-105980000D03*
X116840000Y-126300000D03*
X114300000Y-136460000D03*
X162560000Y-118680000D03*
X152400000Y-139000000D03*
X109220000Y-128840000D03*
X114300000Y-113600000D03*
X160020000Y-113600000D03*
X144780000Y-146620000D03*
X154940000Y-136460000D03*
X137160000Y-141540000D03*
X160020000Y-139000000D03*
X170180000Y-121220000D03*
X121920000Y-116140000D03*
X124460000Y-123760000D03*
X144780000Y-123760000D03*
X157480000Y-111060000D03*
X106680000Y-126300000D03*
X147320000Y-108520000D03*
X132080000Y-111060000D03*
X139700000Y-123760000D03*
X147320000Y-118680000D03*
X147320000Y-146620000D03*
X132080000Y-123760000D03*
X142240000Y-141540000D03*
X149860000Y-126300000D03*
X167640000Y-121220000D03*
X160020000Y-105980000D03*
X106680000Y-136460000D03*
X142240000Y-123760000D03*
X149860000Y-144080000D03*
X152400000Y-141540000D03*
X165100000Y-136460000D03*
X119380000Y-141540000D03*
X154940000Y-113600000D03*
X139700000Y-146620000D03*
X124460000Y-126300000D03*
X157480000Y-116140000D03*
X165100000Y-141540000D03*
X139700000Y-118680000D03*
X134620000Y-141540000D03*
X106680000Y-108520000D03*
X149860000Y-141540000D03*
X119380000Y-131380000D03*
X157480000Y-103440000D03*
X111760000Y-123760000D03*
X134620000Y-144080000D03*
X152400000Y-128840000D03*
X147320000Y-141540000D03*
X149860000Y-121220000D03*
X162560000Y-141540000D03*
X154940000Y-103440000D03*
X160020000Y-121220000D03*
X124460000Y-133920000D03*
X170180000Y-116140000D03*
X129540000Y-116140000D03*
X149860000Y-126300000D03*
X104140000Y-113600000D03*
X162560000Y-133920000D03*
X129540000Y-136460000D03*
X129540000Y-113600000D03*
X167640000Y-146620000D03*
X124460000Y-113600000D03*
X139700000Y-116140000D03*
X106680000Y-128840000D03*
X121920000Y-111060000D03*
X167640000Y-111060000D03*
X127000000Y-121220000D03*
X152400000Y-126300000D03*
X124460000Y-141540000D03*
X114300000Y-123760000D03*
X144780000Y-133920000D03*
X124460000Y-121220000D03*
X139700000Y-141540000D03*
X165100000Y-139000000D03*
X129540000Y-146620000D03*
X104140000Y-126300000D03*
X114300000Y-121220000D03*
X144780000Y-131380000D03*
X170180000Y-141540000D03*
X137160000Y-113600000D03*
X106680000Y-131380000D03*
X167640000Y-118680000D03*
X157480000Y-136460000D03*
X132080000Y-121220000D03*
X111760000Y-128840000D03*
X170180000Y-113600000D03*
X119380000Y-116140000D03*
X109220000Y-141540000D03*
X142240000Y-131380000D03*
D11*
X124460000Y-126300000D02*
X124460000Y-128840000D01*
X132080000Y-141540000D02*
X134620000Y-141540000D01*
X149860000Y-105980000D02*
X149860000Y-108520000D01*
X137160000Y-128840000D02*
X137160000Y-131380000D01*
X111760000Y-141540000D02*
X114300000Y-141540000D01*
X167640000Y-118680000D02*
X170180000Y-118680000D01*
X116840000Y-121220000D02*
X116840000Y-123760000D01*
X162560000Y-121220000D02*
X162560000Y-123760000D01*
X119380000Y-126300000D02*
X119380000Y-128840000D01*
X152400000Y-103440000D02*
X152400000Y-105980000D01*
X142240000Y-116140000D02*
X144780000Y-116140000D01*
X111760000Y-111060000D02*
X111760000Y-113600000D01*
X116840000Y-111060000D02*
X116840000Y-113600000D01*
X152400000Y-144080000D02*
X152400000Y-146620000D01*
X154940000Y-144080000D02*
X154940000Y-146620000D01*
X137160000Y-123760000D02*
X137160000Y-126300000D01*
X116840000Y-144080000D02*
X116840000Y-146620000D01*
X119380000Y-128840000D02*
X119380000Y-131380000D01*
X137160000Y-118680000D02*
X139700000Y-118680000D01*
X147320000Y-131380000D02*
X147320000Y-133920000D01*
X111760000Y-131380000D02*
X111760000Y-133920000D01*
X132080000Y-139000000D02*
X134620000Y-139000000D01*
X144780000Y-118680000D02*
X147320000Y-118680000D01*
X162560000Y-111060000D02*
X162560000Y-113600000D01*
X114300000Y-131380000D02*
X114300000Y-133920000D01*
X142240000Y-105980000D02*
X142240000Y-108520000D01*
X149860000Y-144080000D02*
X149860000Y-146620000D01*
X121920000Y-103440000D02*
X121920000Y-105980000D01*
X124460000Y-139000000D02*
X127000000Y-139000000D01*
X160020000Y-141540000D02*
X162560000Y-141540000D01*
X142240000Y-121220000D02*
X142240000Y-123760000D01*
X160020000Y-133920000D02*
X160020000Y-136460000D01*
X139700000Y-144080000D02*
X139700000Y-146620000D01*
X129540000Y-105980000D02*
X129540000Y-108520000D01*
X149860000Y-139000000D02*
X152400000Y-139000000D01*
X157480000Y-103440000D02*
X157480000Y-105980000D01*
X152400000Y-133920000D02*
X152400000Y-136460000D01*
X106680000Y-123760000D02*
X106680000Y-126300000D01*
X144780000Y-105980000D02*
X144780000Y-108520000D01*
X137160000Y-126300000D02*
X137160000Y-128840000D01*
X104140000Y-126300000D02*
X104140000Y-128840000D01*
X137160000Y-141540000D02*
X139700000Y-141540000D01*
X124460000Y-121220000D02*
X124460000Y-123760000D01*
X162560000Y-123760000D02*
X162560000Y-126300000D01*
X142240000Y-131380000D02*
X142240000Y-133920000D01*
X165100000Y-128840000D02*
X165100000Y-131380000D01*
X160020000Y-126300000D02*
X160020000Y-128840000D01*
X139700000Y-105980000D02*
X139700000Y-108520000D01*
X139700000Y-123760000D02*
X139700000Y-126300000D01*
X121920000Y-128840000D02*
X121920000Y-131380000D01*
X167640000Y-111060000D02*
X167640000Y-113600000D01*
X129540000Y-121220000D02*
X129540000Y-123760000D01*
X111760000Y-133920000D02*
X111760000Y-136460000D01*
X127000000Y-118680000D02*
X129540000Y-118680000D01*
X144780000Y-111060000D02*
X144780000Y-113600000D01*
X127000000Y-131380000D02*
X127000000Y-133920000D01*
X104140000Y-123760000D02*
X104140000Y-126300000D01*
X144780000Y-144080000D02*
X144780000Y-146620000D01*
X142240000Y-126300000D02*
X142240000Y-128840000D01*
X165100000Y-139000000D02*
X167640000Y-139000000D01*
X144780000Y-121220000D02*
X144780000Y-123760000D01*
X121920000Y-105980000D02*
X121920000Y-108520000D01*
X147320000Y-105980000D02*
X147320000Y-108520000D01*
X121920000Y-118680000D02*
X124460000Y-118680000D01*
X127000000Y-126300000D02*
X127000000Y-128840000D01*
X147320000Y-121220000D02*
X147320000Y-123760000D01*
X162560000Y-133920000D02*
X162560000Y-136460000D01*
X127000000Y-123760000D02*
X127000000Y-126300000D01*
X149860000Y-131380000D02*
X149860000Y-133920000D01*
X139700000Y-121220000D02*
X139700000Y-123760000D01*
X144780000Y-126300000D02*
X144780000Y-128840000D01*
X104140000Y-128840000D02*
X104140000Y-131380000D01*
X144780000Y-123760000D02*
X144780000Y-126300000D01*
X139700000Y-131380000D02*
X139700000Y-133920000D01*
X152400000Y-126300000D02*
X152400000Y-128840000D01*
X139700000Y-128840000D02*
X139700000Y-131380000D01*
X142240000Y-123760000D02*
X142240000Y-126300000D01*
X121920000Y-131380000D02*
X121920000Y-133920000D01*
X165100000Y-144080000D02*
X165100000Y-146620000D01*
X139700000Y-103440000D02*
X139700000Y-105980000D01*
X160020000Y-116140000D02*
X162560000Y-116140000D01*
X114300000Y-111060000D02*
X114300000Y-113600000D01*
X160020000Y-111060000D02*
X160020000Y-113600000D01*
X119380000Y-139000000D02*
X121920000Y-139000000D01*
X134620000Y-103440000D02*
X134620000Y-105980000D01*
X127000000Y-133920000D02*
X127000000Y-136460000D01*
X137160000Y-121220000D02*
X137160000Y-123760000D01*
X152400000Y-121220000D02*
X152400000Y-123760000D01*
X144780000Y-139000000D02*
X147320000Y-139000000D01*
X137160000Y-116140000D02*
X139700000Y-116140000D01*
X149860000Y-133920000D02*
X149860000Y-136460000D01*
X111760000Y-123760000D02*
X111760000Y-126300000D01*
X127000000Y-105980000D02*
X127000000Y-108520000D01*
X147320000Y-139000000D02*
X149860000Y-139000000D01*
X121920000Y-139000000D02*
X124460000Y-139000000D01*
X119380000Y-116140000D02*
X121920000Y-116140000D01*
X142240000Y-103440000D02*
X142240000Y-105980000D01*
X106680000Y-116140000D02*
X109220000Y-116140000D01*
X132080000Y-121220000D02*
X132080000Y-123760000D01*
X106680000Y-126300000D02*
X106680000Y-128840000D01*
X157480000Y-126300000D02*
X157480000Y-128840000D01*
X154940000Y-121220000D02*
X154940000Y-123760000D01*
X154940000Y-118680000D02*
X157480000Y-118680000D01*
X119380000Y-105980000D02*
X119380000Y-108520000D01*
X116840000Y-141540000D02*
X119380000Y-141540000D01*
X160020000Y-103440000D02*
X160020000Y-105980000D01*
X116840000Y-105980000D02*
X116840000Y-108520000D01*
X111760000Y-139000000D02*
X114300000Y-139000000D01*
X127000000Y-103440000D02*
X127000000Y-105980000D01*
X147320000Y-126300000D02*
X147320000Y-128840000D01*
X149860000Y-123760000D02*
X149860000Y-126300000D01*
X147320000Y-118680000D02*
X149860000Y-118680000D01*
X132080000Y-103440000D02*
X132080000Y-105980000D01*
X157480000Y-121220000D02*
X157480000Y-123760000D01*
X127000000Y-111060000D02*
X127000000Y-113600000D01*
X132080000Y-126300000D02*
X132080000Y-128840000D01*
X147320000Y-116140000D02*
X149860000Y-116140000D01*
X114300000Y-141540000D02*
X116840000Y-141540000D01*
X149860000Y-133920000D02*
X149860000Y-136460000D01*
X149860000Y-126300000D02*
X149860000Y-128840000D01*
X109220000Y-131380000D02*
X109220000Y-133920000D01*
X165100000Y-116140000D02*
X167640000Y-116140000D01*
X134620000Y-144080000D02*
X134620000Y-146620000D01*
X170180000Y-131380000D02*
X170180000Y-133920000D01*
X165100000Y-105980000D02*
X165100000Y-108520000D01*
X114300000Y-103440000D02*
X114300000Y-105980000D01*
X137160000Y-144080000D02*
X137160000Y-146620000D01*
X152400000Y-116140000D02*
X154940000Y-116140000D01*
X160020000Y-123760000D02*
X160020000Y-126300000D01*
X144780000Y-103440000D02*
X144780000Y-105980000D01*
X114300000Y-128840000D02*
X114300000Y-131380000D01*
X162560000Y-118680000D02*
X165100000Y-118680000D01*
X137160000Y-133920000D02*
X137160000Y-136460000D01*
X109220000Y-111060000D02*
X109220000Y-113600000D01*
X154940000Y-116140000D02*
X157480000Y-116140000D01*
X154940000Y-141540000D02*
X157480000Y-141540000D01*
X111760000Y-118680000D02*
X114300000Y-118680000D01*
X129540000Y-128840000D02*
X129540000Y-131380000D01*
X132080000Y-118680000D02*
X134620000Y-118680000D01*
X160020000Y-118680000D02*
X162560000Y-118680000D01*
X149860000Y-126300000D02*
X149860000Y-128840000D01*
X132080000Y-133920000D02*
X132080000Y-136460000D01*
X121920000Y-121220000D02*
X121920000Y-123760000D01*
X165100000Y-123760000D02*
X165100000Y-126300000D01*
X119380000Y-141540000D02*
X121920000Y-141540000D01*
X109220000Y-123760000D02*
X109220000Y-126300000D01*
X134620000Y-133920000D02*
X134620000Y-136460000D01*
X167640000Y-131380000D02*
X167640000Y-133920000D01*
X149860000Y-103440000D02*
X149860000Y-105980000D01*
X170180000Y-128840000D02*
X170180000Y-131380000D01*
X154940000Y-111060000D02*
X154940000Y-113600000D01*
X109220000Y-118680000D02*
X111760000Y-118680000D01*
X121920000Y-111060000D02*
X121920000Y-113600000D01*
X134620000Y-121220000D02*
X134620000Y-123760000D01*
X167640000Y-121220000D02*
X167640000Y-123760000D01*
X157480000Y-128840000D02*
X157480000Y-131380000D01*
X147320000Y-141540000D02*
X149860000Y-141540000D01*
X132080000Y-128840000D02*
X132080000Y-131380000D01*
X116840000Y-139000000D02*
X119380000Y-139000000D01*
X139700000Y-139000000D02*
X142240000Y-139000000D01*
X165100000Y-111060000D02*
X165100000Y-113600000D01*
X165100000Y-141540000D02*
X167640000Y-141540000D01*
X137160000Y-103440000D02*
X137160000Y-105980000D01*
X142240000Y-144080000D02*
X142240000Y-146620000D01*
X111760000Y-128840000D02*
X111760000Y-131380000D01*
X127000000Y-141540000D02*
X129540000Y-141540000D01*
X147320000Y-103440000D02*
X147320000Y-105980000D01*
X114300000Y-105980000D02*
X114300000Y-108520000D01*
X165100000Y-126300000D02*
X165100000Y-128840000D01*
X114300000Y-118680000D02*
X116840000Y-118680000D01*
X127000000Y-128840000D02*
X127000000Y-131380000D01*
X114300000Y-133920000D02*
X114300000Y-136460000D01*
X162560000Y-116140000D02*
X165100000Y-116140000D01*
X114300000Y-139000000D02*
X116840000Y-139000000D01*
X165100000Y-131380000D02*
X165100000Y-133920000D01*
X152400000Y-123760000D02*
X152400000Y-126300000D01*
X139700000Y-141540000D02*
X142240000Y-141540000D01*
X149860000Y-123760000D02*
X149860000Y-126300000D01*
X142240000Y-139000000D02*
X144780000Y-139000000D01*
X165100000Y-118680000D02*
X167640000Y-118680000D01*
X104140000Y-116140000D02*
X106680000Y-116140000D01*
X106680000Y-111060000D02*
X106680000Y-113600000D01*
X116840000Y-116140000D02*
X119380000Y-116140000D01*
X121920000Y-118680000D02*
X124460000Y-118680000D01*
X121920000Y-141540000D02*
X124460000Y-141540000D01*
X152400000Y-111060000D02*
X152400000Y-113600000D01*
X137160000Y-139000000D02*
X139700000Y-139000000D01*
X124460000Y-116140000D02*
X127000000Y-116140000D01*
X137160000Y-111060000D02*
X137160000Y-113600000D01*
X160020000Y-131380000D02*
X160020000Y-133920000D01*
X167640000Y-116140000D02*
X170180000Y-116140000D01*
X124460000Y-103440000D02*
X124460000Y-105980000D01*
X157480000Y-144080000D02*
X157480000Y-146620000D01*
X119380000Y-103440000D02*
X119380000Y-105980000D01*
X165100000Y-121220000D02*
X165100000Y-123760000D01*
X152400000Y-131380000D02*
X152400000Y-133920000D01*
X116840000Y-123760000D02*
X116840000Y-126300000D01*
X109220000Y-128840000D02*
X109220000Y-131380000D01*
X144780000Y-116140000D02*
X147320000Y-116140000D01*
X116840000Y-103440000D02*
X116840000Y-105980000D01*
X167640000Y-123760000D02*
X167640000Y-126300000D01*
X129540000Y-111060000D02*
X129540000Y-113600000D01*
X129540000Y-103440000D02*
X129540000Y-105980000D01*
X139700000Y-133920000D02*
X139700000Y-136460000D01*
X162560000Y-128840000D02*
X162560000Y-131380000D01*
X157480000Y-139000000D02*
X160020000Y-139000000D01*
X134620000Y-123760000D02*
X134620000Y-126300000D01*
X142240000Y-128840000D02*
X142240000Y-131380000D01*
X162560000Y-139000000D02*
X165100000Y-139000000D01*
X149860000Y-131380000D02*
X149860000Y-133920000D01*
X157480000Y-123760000D02*
X157480000Y-126300000D01*
X106680000Y-128840000D02*
X106680000Y-131380000D01*
X157480000Y-116140000D02*
X160020000Y-116140000D01*
X152400000Y-118680000D02*
X154940000Y-118680000D01*
X104140000Y-133920000D02*
X104140000Y-136460000D01*
X147320000Y-118680000D02*
X149860000Y-118680000D01*
X147320000Y-141540000D02*
X149860000Y-141540000D01*
X129540000Y-123760000D02*
X129540000Y-126300000D01*
X152400000Y-139000000D02*
X154940000Y-139000000D01*
X106680000Y-139000000D02*
X109220000Y-139000000D01*
X139700000Y-118680000D02*
X142240000Y-118680000D01*
X162560000Y-144080000D02*
X162560000Y-146620000D01*
X147320000Y-128840000D02*
X147320000Y-131380000D01*
X132080000Y-144080000D02*
X132080000Y-146620000D01*
X170180000Y-133920000D02*
X170180000Y-136460000D01*
X104140000Y-131380000D02*
X104140000Y-133920000D01*
X119380000Y-111060000D02*
X119380000Y-113600000D01*
X134620000Y-128840000D02*
X134620000Y-131380000D01*
X162560000Y-131380000D02*
X162560000Y-133920000D01*
X147320000Y-144080000D02*
X147320000Y-146620000D01*
X134620000Y-126300000D02*
X134620000Y-128840000D01*
X160020000Y-144080000D02*
X160020000Y-146620000D01*
X119380000Y-123760000D02*
X119380000Y-126300000D01*
X124460000Y-144080000D02*
X124460000Y-146620000D01*
X144780000Y-131380000D02*
X144780000Y-133920000D01*
X132080000Y-111060000D02*
X132080000Y-113600000D01*
X147320000Y-133920000D02*
X147320000Y-136460000D01*
X167640000Y-144080000D02*
X167640000Y-146620000D01*
X137160000Y-131380000D02*
X137160000Y-133920000D01*
X114300000Y-116140000D02*
X116840000Y-116140000D01*
X119380000Y-121220000D02*
X119380000Y-123760000D01*
X134620000Y-111060000D02*
X134620000Y-113600000D01*
X170180000Y-121220000D02*
X170180000Y-123760000D01*
X167640000Y-133920000D02*
X167640000Y-136460000D01*
X121920000Y-123760000D02*
X121920000Y-126300000D01*
X129540000Y-131380000D02*
X129540000Y-133920000D01*
X114300000Y-144080000D02*
X114300000Y-146620000D01*
X149860000Y-118680000D02*
X152400000Y-118680000D01*
X106680000Y-121220000D02*
X106680000Y-123760000D01*
X106680000Y-131380000D02*
X106680000Y-133920000D01*
X132080000Y-116140000D02*
X134620000Y-116140000D01*
X162560000Y-105980000D02*
X162560000Y-108520000D01*
X111760000Y-144080000D02*
X111760000Y-146620000D01*
X111760000Y-126300000D02*
X111760000Y-128840000D01*
X127000000Y-121220000D02*
X127000000Y-123760000D01*
X165100000Y-103440000D02*
X165100000Y-105980000D01*
X116840000Y-128840000D02*
X116840000Y-131380000D01*
X124460000Y-118680000D02*
X127000000Y-118680000D01*
X124460000Y-105980000D02*
X124460000Y-108520000D01*
X144780000Y-141540000D02*
X147320000Y-141540000D01*
X116840000Y-133920000D02*
X116840000Y-136460000D01*
X132080000Y-123760000D02*
X132080000Y-126300000D01*
X142240000Y-133920000D02*
X142240000Y-136460000D01*
X109220000Y-121220000D02*
X109220000Y-123760000D01*
X132080000Y-131380000D02*
X132080000Y-133920000D01*
X162560000Y-103440000D02*
X162560000Y-105980000D01*
X129540000Y-144080000D02*
X129540000Y-146620000D01*
X147320000Y-123760000D02*
X147320000Y-126300000D01*
X170180000Y-126300000D02*
X170180000Y-128840000D01*
X111760000Y-105980000D02*
X111760000Y-108520000D01*
X144780000Y-133920000D02*
X144780000Y-136460000D01*
X157480000Y-131380000D02*
X157480000Y-133920000D01*
X160020000Y-105980000D02*
X160020000Y-108520000D01*
X116840000Y-118680000D02*
X119380000Y-118680000D01*
X129540000Y-126300000D02*
X129540000Y-128840000D01*
X154940000Y-123760000D02*
X154940000Y-126300000D01*
X149860000Y-141540000D02*
X152400000Y-141540000D01*
X149860000Y-128840000D02*
X149860000Y-131380000D01*
X162560000Y-126300000D02*
X162560000Y-128840000D01*
X154940000Y-126300000D02*
X154940000Y-128840000D01*
X154940000Y-131380000D02*
X154940000Y-133920000D01*
X167640000Y-139000000D02*
X170180000Y-139000000D01*
X170180000Y-123760000D02*
X170180000Y-126300000D01*
X167640000Y-103440000D02*
X167640000Y-105980000D01*
X165100000Y-133920000D02*
X165100000Y-136460000D01*
X114300000Y-121220000D02*
X114300000Y-123760000D01*
X139700000Y-111060000D02*
X139700000Y-113600000D01*
X127000000Y-144080000D02*
X127000000Y-146620000D01*
X119380000Y-144080000D02*
X119380000Y-146620000D01*
X152400000Y-141540000D02*
X154940000Y-141540000D01*
X116840000Y-126300000D02*
X116840000Y-128840000D01*
X129540000Y-118680000D02*
X132080000Y-118680000D01*
X160020000Y-139000000D02*
X162560000Y-139000000D01*
X124460000Y-123760000D02*
X124460000Y-126300000D01*
X104140000Y-118680000D02*
X106680000Y-118680000D01*
X109220000Y-126300000D02*
X109220000Y-128840000D01*
X149860000Y-121220000D02*
X149860000Y-123760000D01*
X104140000Y-121220000D02*
X104140000Y-123760000D01*
X127000000Y-116140000D02*
X129540000Y-116140000D01*
X127000000Y-139000000D02*
X129540000Y-139000000D01*
X154940000Y-139000000D02*
X157480000Y-139000000D01*
X149860000Y-116140000D02*
X152400000Y-116140000D01*
X129540000Y-139000000D02*
X132080000Y-139000000D01*
X124460000Y-131380000D02*
X124460000Y-133920000D01*
X142240000Y-141540000D02*
X144780000Y-141540000D01*
X152400000Y-128840000D02*
X152400000Y-131380000D01*
X104140000Y-111060000D02*
X104140000Y-113600000D01*
X160020000Y-128840000D02*
X160020000Y-131380000D01*
X104140000Y-139000000D02*
X106680000Y-139000000D01*
X144780000Y-128840000D02*
X144780000Y-131380000D01*
X149860000Y-111060000D02*
X149860000Y-113600000D01*
X109220000Y-133920000D02*
X109220000Y-136460000D01*
X154940000Y-128840000D02*
X154940000Y-131380000D01*
X154940000Y-133920000D02*
X154940000Y-136460000D01*
X124460000Y-141540000D02*
X127000000Y-141540000D01*
X111760000Y-103440000D02*
X111760000Y-105980000D01*
X139700000Y-116140000D02*
X142240000Y-116140000D01*
X147320000Y-111060000D02*
X147320000Y-113600000D01*
X129540000Y-141540000D02*
X132080000Y-141540000D01*
X116840000Y-131380000D02*
X116840000Y-133920000D01*
X119380000Y-131380000D02*
X119380000Y-133920000D01*
X132080000Y-105980000D02*
X132080000Y-108520000D01*
X160020000Y-121220000D02*
X160020000Y-123760000D01*
X154940000Y-103440000D02*
X154940000Y-105980000D01*
X137160000Y-105980000D02*
X137160000Y-108520000D01*
X149860000Y-128840000D02*
X149860000Y-131380000D01*
X142240000Y-111060000D02*
X142240000Y-113600000D01*
X106680000Y-133920000D02*
X106680000Y-136460000D01*
X114300000Y-123760000D02*
X114300000Y-126300000D01*
X121920000Y-126300000D02*
X121920000Y-128840000D01*
X157480000Y-118680000D02*
X160020000Y-118680000D01*
X167640000Y-128840000D02*
X167640000Y-131380000D01*
X114300000Y-126300000D02*
X114300000Y-128840000D01*
X129540000Y-116140000D02*
X132080000Y-116140000D01*
X134620000Y-131380000D02*
X134620000Y-133920000D01*
X111760000Y-121220000D02*
X111760000Y-123760000D01*
X109220000Y-116140000D02*
X111760000Y-116140000D01*
X121920000Y-116140000D02*
X124460000Y-116140000D01*
X129540000Y-133920000D02*
X129540000Y-136460000D01*
X121920000Y-144080000D02*
X121920000Y-146620000D01*
X124460000Y-111060000D02*
X124460000Y-113600000D01*
X167640000Y-126300000D02*
X167640000Y-128840000D01*
X121920000Y-141540000D02*
X124460000Y-141540000D01*
X167640000Y-105980000D02*
X167640000Y-108520000D01*
X119380000Y-133920000D02*
X119380000Y-136460000D01*
X111760000Y-116140000D02*
X114300000Y-116140000D01*
X124460000Y-133920000D02*
X124460000Y-136460000D01*
X157480000Y-141540000D02*
X160020000Y-141540000D01*
X149860000Y-105980000D02*
X149860000Y-108520000D01*
X142240000Y-118680000D02*
X144780000Y-118680000D01*
X170180000Y-111060000D02*
X170180000Y-113600000D01*
X162560000Y-141540000D02*
X165100000Y-141540000D01*
X119380000Y-118680000D02*
X121920000Y-118680000D01*
X109220000Y-139000000D02*
X111760000Y-139000000D01*
X134620000Y-105980000D02*
X134620000Y-108520000D01*
X154940000Y-105980000D02*
X154940000Y-108520000D01*
X152400000Y-105980000D02*
X152400000Y-108520000D01*
X139700000Y-126300000D02*
X139700000Y-128840000D01*
X106680000Y-118680000D02*
X109220000Y-118680000D01*
X124460000Y-128840000D02*
X124460000Y-131380000D01*
X157480000Y-105980000D02*
X157480000Y-108520000D01*
X157480000Y-111060000D02*
X157480000Y-113600000D01*
X157480000Y-133920000D02*
X157480000Y-136460000D01*
X121920000Y-133920000D02*
X121920000Y-136460000D01*
G04 #@! TA.AperFunction,Conductor*
G36*
X170013992Y-100520185D02*
G01*
X170059747Y-100572989D01*
X170069497Y-100605555D01*
X170110407Y-100870227D01*
X170132992Y-101016343D01*
X170132995Y-101016361D01*
X170268412Y-101653390D01*
X170268418Y-101653413D01*
X170439327Y-102281804D01*
X170439335Y-102281830D01*
X170439337Y-102281837D01*
X170613661Y-102804977D01*
X170645231Y-102899715D01*
X170645237Y-102899732D01*
X170885439Y-103505060D01*
X170885450Y-103505087D01*
X171070105Y-103903655D01*
X171159227Y-104096020D01*
X171465711Y-104670681D01*
X171630290Y-104941507D01*
X171803935Y-105227253D01*
X171803951Y-105227278D01*
X172172817Y-105763961D01*
X172172825Y-105763972D01*
X172172834Y-105763985D01*
X172172844Y-105763998D01*
X172172847Y-105764002D01*
X172571239Y-106279178D01*
X172571246Y-106279187D01*
X172713861Y-106443655D01*
X172997921Y-106771241D01*
X173266172Y-107047631D01*
X173439896Y-107226627D01*
X173451514Y-107238597D01*
X173477404Y-107262439D01*
X173930604Y-107679790D01*
X173954251Y-107699232D01*
X173993533Y-107757013D01*
X173999500Y-107795014D01*
X173999500Y-142204961D01*
X173979815Y-142272000D01*
X173954254Y-142300741D01*
X173930586Y-142320200D01*
X173451510Y-142761381D01*
X173451500Y-142761390D01*
X172997902Y-143228752D01*
X172571232Y-143720801D01*
X172571225Y-143720810D01*
X172172832Y-144235987D01*
X172172802Y-144236028D01*
X171803936Y-144772711D01*
X171803920Y-144772736D01*
X171465702Y-145329300D01*
X171465694Y-145329313D01*
X171159216Y-145903962D01*
X171159210Y-145903974D01*
X170885433Y-146494906D01*
X170885422Y-146494932D01*
X170645220Y-147100261D01*
X170645202Y-147100310D01*
X170439327Y-147718132D01*
X170439309Y-147718190D01*
X170268400Y-148346582D01*
X170268394Y-148346605D01*
X170132978Y-148983635D01*
X170132975Y-148983653D01*
X170132974Y-148983659D01*
X170071768Y-149379641D01*
X170069480Y-149394442D01*
X170039786Y-149457687D01*
X169980612Y-149494839D01*
X169946935Y-149499500D01*
X109620877Y-149499500D01*
X109553838Y-149479815D01*
X109508083Y-149427011D01*
X109496946Y-149379641D01*
X109495707Y-149342587D01*
X109488598Y-149129765D01*
X109433382Y-148542895D01*
X109342832Y-147960429D01*
X109217279Y-147384493D01*
X109057180Y-146817189D01*
X108863121Y-146260586D01*
X108790862Y-146087698D01*
X108635807Y-145716710D01*
X108635803Y-145716703D01*
X108376076Y-145187564D01*
X108131898Y-144757834D01*
X108084863Y-144675057D01*
X107763239Y-144181069D01*
X107412376Y-143707402D01*
X107399646Y-143692226D01*
X107249828Y-143513618D01*
X107033553Y-143255784D01*
X107033546Y-143255776D01*
X107033536Y-143255765D01*
X106864788Y-143077643D01*
X106832972Y-143015438D01*
X106839837Y-142945906D01*
X106883205Y-142891125D01*
X106922713Y-142872588D01*
X107143483Y-142813433D01*
X107143492Y-142813429D01*
X107357578Y-142713600D01*
X107357582Y-142713598D01*
X107441373Y-142654926D01*
X107441373Y-142654925D01*
X106812533Y-142026086D01*
X106822315Y-142024680D01*
X106953100Y-141964952D01*
X107061761Y-141870798D01*
X107139493Y-141749844D01*
X107163076Y-141669524D01*
X107794925Y-142301373D01*
X107848425Y-142224968D01*
X107903002Y-142181344D01*
X107972501Y-142174151D01*
X108034855Y-142205673D01*
X108051576Y-142224969D01*
X108105073Y-142301372D01*
X108736922Y-141669523D01*
X108760507Y-141749844D01*
X108838239Y-141870798D01*
X108946900Y-141964952D01*
X109077685Y-142024680D01*
X109087466Y-142026086D01*
X108458625Y-142654925D01*
X108542421Y-142713599D01*
X108756507Y-142813429D01*
X108756516Y-142813433D01*
X108984673Y-142874567D01*
X108984684Y-142874569D01*
X109219998Y-142895157D01*
X109220002Y-142895157D01*
X109455315Y-142874569D01*
X109455326Y-142874567D01*
X109683483Y-142813433D01*
X109683492Y-142813429D01*
X109897578Y-142713600D01*
X109897582Y-142713598D01*
X109981373Y-142654926D01*
X109981373Y-142654925D01*
X109352533Y-142026086D01*
X109362315Y-142024680D01*
X109493100Y-141964952D01*
X109601761Y-141870798D01*
X109679493Y-141749844D01*
X109703076Y-141669524D01*
X110334925Y-142301373D01*
X110388119Y-142225405D01*
X110442696Y-142181781D01*
X110512195Y-142174588D01*
X110574549Y-142206110D01*
X110591269Y-142225405D01*
X110721505Y-142411401D01*
X110721506Y-142411402D01*
X110888597Y-142578493D01*
X110888603Y-142578498D01*
X111074158Y-142708425D01*
X111117783Y-142763002D01*
X111124977Y-142832500D01*
X111093454Y-142894855D01*
X111074158Y-142911575D01*
X110888597Y-143041505D01*
X110721505Y-143208597D01*
X110585965Y-143402169D01*
X110585964Y-143402171D01*
X110486098Y-143616335D01*
X110486094Y-143616344D01*
X110424938Y-143844586D01*
X110424936Y-143844596D01*
X110404341Y-144079999D01*
X110404341Y-144080000D01*
X110424936Y-144315403D01*
X110424938Y-144315413D01*
X110486094Y-144543655D01*
X110486096Y-144543659D01*
X110486097Y-144543663D01*
X110490000Y-144552032D01*
X110585965Y-144757830D01*
X110585967Y-144757834D01*
X110694281Y-144912521D01*
X110721501Y-144951396D01*
X110721506Y-144951402D01*
X110888595Y-145118492D01*
X110888598Y-145118494D01*
X110888599Y-145118495D01*
X110956623Y-145166125D01*
X111000248Y-145220701D01*
X111009500Y-145267700D01*
X111009500Y-145432298D01*
X110989815Y-145499337D01*
X110956625Y-145533872D01*
X110888595Y-145581507D01*
X110721505Y-145748597D01*
X110585965Y-145942169D01*
X110585964Y-145942171D01*
X110486098Y-146156335D01*
X110486094Y-146156344D01*
X110424938Y-146384586D01*
X110424936Y-146384596D01*
X110404341Y-146619999D01*
X110404341Y-146620000D01*
X110424936Y-146855403D01*
X110424938Y-146855413D01*
X110486094Y-147083655D01*
X110486096Y-147083659D01*
X110486097Y-147083663D01*
X110490000Y-147092032D01*
X110585965Y-147297830D01*
X110585967Y-147297834D01*
X110646643Y-147384487D01*
X110721505Y-147491401D01*
X110888599Y-147658495D01*
X110967634Y-147713836D01*
X111082165Y-147794032D01*
X111082167Y-147794033D01*
X111082170Y-147794035D01*
X111296337Y-147893903D01*
X111524592Y-147955063D01*
X111712918Y-147971539D01*
X111759999Y-147975659D01*
X111760000Y-147975659D01*
X111760001Y-147975659D01*
X111799234Y-147972226D01*
X111995408Y-147955063D01*
X112223663Y-147893903D01*
X112437830Y-147794035D01*
X112631401Y-147658495D01*
X112798495Y-147491401D01*
X112928425Y-147305842D01*
X112983002Y-147262217D01*
X113052500Y-147255023D01*
X113114855Y-147286546D01*
X113131575Y-147305842D01*
X113261500Y-147491395D01*
X113261505Y-147491401D01*
X113428599Y-147658495D01*
X113507634Y-147713836D01*
X113622165Y-147794032D01*
X113622167Y-147794033D01*
X113622170Y-147794035D01*
X113836337Y-147893903D01*
X114064592Y-147955063D01*
X114252918Y-147971539D01*
X114299999Y-147975659D01*
X114300000Y-147975659D01*
X114300001Y-147975659D01*
X114339234Y-147972226D01*
X114535408Y-147955063D01*
X114763663Y-147893903D01*
X114977830Y-147794035D01*
X115171401Y-147658495D01*
X115338495Y-147491401D01*
X115468425Y-147305842D01*
X115523002Y-147262217D01*
X115592500Y-147255023D01*
X115654855Y-147286546D01*
X115671575Y-147305842D01*
X115801500Y-147491395D01*
X115801505Y-147491401D01*
X115968599Y-147658495D01*
X116047634Y-147713836D01*
X116162165Y-147794032D01*
X116162167Y-147794033D01*
X116162170Y-147794035D01*
X116376337Y-147893903D01*
X116604592Y-147955063D01*
X116792918Y-147971539D01*
X116839999Y-147975659D01*
X116840000Y-147975659D01*
X116840001Y-147975659D01*
X116879234Y-147972226D01*
X117075408Y-147955063D01*
X117303663Y-147893903D01*
X117517830Y-147794035D01*
X117711401Y-147658495D01*
X117878495Y-147491401D01*
X118008425Y-147305842D01*
X118063002Y-147262217D01*
X118132500Y-147255023D01*
X118194855Y-147286546D01*
X118211575Y-147305842D01*
X118341500Y-147491395D01*
X118341505Y-147491401D01*
X118508599Y-147658495D01*
X118587634Y-147713836D01*
X118702165Y-147794032D01*
X118702167Y-147794033D01*
X118702170Y-147794035D01*
X118916337Y-147893903D01*
X119144592Y-147955063D01*
X119332918Y-147971539D01*
X119379999Y-147975659D01*
X119380000Y-147975659D01*
X119380001Y-147975659D01*
X119419234Y-147972226D01*
X119615408Y-147955063D01*
X119843663Y-147893903D01*
X120057830Y-147794035D01*
X120251401Y-147658495D01*
X120418495Y-147491401D01*
X120548425Y-147305842D01*
X120603002Y-147262217D01*
X120672500Y-147255023D01*
X120734855Y-147286546D01*
X120751575Y-147305842D01*
X120881500Y-147491395D01*
X120881505Y-147491401D01*
X121048599Y-147658495D01*
X121127634Y-147713836D01*
X121242165Y-147794032D01*
X121242167Y-147794033D01*
X121242170Y-147794035D01*
X121456337Y-147893903D01*
X121684592Y-147955063D01*
X121872918Y-147971539D01*
X121919999Y-147975659D01*
X121920000Y-147975659D01*
X121920001Y-147975659D01*
X121959234Y-147972226D01*
X122155408Y-147955063D01*
X122383663Y-147893903D01*
X122597830Y-147794035D01*
X122791401Y-147658495D01*
X122958495Y-147491401D01*
X123088425Y-147305842D01*
X123143002Y-147262217D01*
X123212500Y-147255023D01*
X123274855Y-147286546D01*
X123291575Y-147305842D01*
X123421500Y-147491395D01*
X123421505Y-147491401D01*
X123588599Y-147658495D01*
X123667634Y-147713836D01*
X123782165Y-147794032D01*
X123782167Y-147794033D01*
X123782170Y-147794035D01*
X123996337Y-147893903D01*
X124224592Y-147955063D01*
X124412918Y-147971539D01*
X124459999Y-147975659D01*
X124460000Y-147975659D01*
X124460001Y-147975659D01*
X124499234Y-147972226D01*
X124695408Y-147955063D01*
X124923663Y-147893903D01*
X125137830Y-147794035D01*
X125331401Y-147658495D01*
X125498495Y-147491401D01*
X125628425Y-147305842D01*
X125683002Y-147262217D01*
X125752500Y-147255023D01*
X125814855Y-147286546D01*
X125831575Y-147305842D01*
X125961500Y-147491395D01*
X125961505Y-147491401D01*
X126128599Y-147658495D01*
X126207634Y-147713836D01*
X126322165Y-147794032D01*
X126322167Y-147794033D01*
X126322170Y-147794035D01*
X126536337Y-147893903D01*
X126764592Y-147955063D01*
X126952918Y-147971539D01*
X126999999Y-147975659D01*
X127000000Y-147975659D01*
X127000001Y-147975659D01*
X127039234Y-147972226D01*
X127235408Y-147955063D01*
X127463663Y-147893903D01*
X127677830Y-147794035D01*
X127871401Y-147658495D01*
X128038495Y-147491401D01*
X128168425Y-147305842D01*
X128223002Y-147262217D01*
X128292500Y-147255023D01*
X128354855Y-147286546D01*
X128371575Y-147305842D01*
X128501500Y-147491395D01*
X128501505Y-147491401D01*
X128668599Y-147658495D01*
X128747634Y-147713836D01*
X128862165Y-147794032D01*
X128862167Y-147794033D01*
X128862170Y-147794035D01*
X129076337Y-147893903D01*
X129304592Y-147955063D01*
X129492918Y-147971539D01*
X129539999Y-147975659D01*
X129540000Y-147975659D01*
X129540001Y-147975659D01*
X129579234Y-147972226D01*
X129775408Y-147955063D01*
X130003663Y-147893903D01*
X130217830Y-147794035D01*
X130411401Y-147658495D01*
X130578495Y-147491401D01*
X130708425Y-147305842D01*
X130763002Y-147262217D01*
X130832500Y-147255023D01*
X130894855Y-147286546D01*
X130911575Y-147305842D01*
X131041500Y-147491395D01*
X131041505Y-147491401D01*
X131208599Y-147658495D01*
X131287634Y-147713836D01*
X131402165Y-147794032D01*
X131402167Y-147794033D01*
X131402170Y-147794035D01*
X131616337Y-147893903D01*
X131844592Y-147955063D01*
X132032918Y-147971539D01*
X132079999Y-147975659D01*
X132080000Y-147975659D01*
X132080001Y-147975659D01*
X132119234Y-147972226D01*
X132315408Y-147955063D01*
X132543663Y-147893903D01*
X132757830Y-147794035D01*
X132951401Y-147658495D01*
X133118495Y-147491401D01*
X133248425Y-147305842D01*
X133303002Y-147262217D01*
X133372500Y-147255023D01*
X133434855Y-147286546D01*
X133451575Y-147305842D01*
X133581500Y-147491395D01*
X133581505Y-147491401D01*
X133748599Y-147658495D01*
X133827634Y-147713836D01*
X133942165Y-147794032D01*
X133942167Y-147794033D01*
X133942170Y-147794035D01*
X134156337Y-147893903D01*
X134384592Y-147955063D01*
X134572918Y-147971539D01*
X134619999Y-147975659D01*
X134620000Y-147975659D01*
X134620001Y-147975659D01*
X134659234Y-147972226D01*
X134855408Y-147955063D01*
X135083663Y-147893903D01*
X135297830Y-147794035D01*
X135491401Y-147658495D01*
X135658495Y-147491401D01*
X135788425Y-147305842D01*
X135843002Y-147262217D01*
X135912500Y-147255023D01*
X135974855Y-147286546D01*
X135991575Y-147305842D01*
X136121500Y-147491395D01*
X136121505Y-147491401D01*
X136288599Y-147658495D01*
X136367634Y-147713836D01*
X136482165Y-147794032D01*
X136482167Y-147794033D01*
X136482170Y-147794035D01*
X136696337Y-147893903D01*
X136924592Y-147955063D01*
X137112918Y-147971539D01*
X137159999Y-147975659D01*
X137160000Y-147975659D01*
X137160001Y-147975659D01*
X137199234Y-147972226D01*
X137395408Y-147955063D01*
X137623663Y-147893903D01*
X137837830Y-147794035D01*
X138031401Y-147658495D01*
X138198495Y-147491401D01*
X138328425Y-147305842D01*
X138383002Y-147262217D01*
X138452500Y-147255023D01*
X138514855Y-147286546D01*
X138531575Y-147305842D01*
X138661500Y-147491395D01*
X138661505Y-147491401D01*
X138828599Y-147658495D01*
X138907634Y-147713836D01*
X139022165Y-147794032D01*
X139022167Y-147794033D01*
X139022170Y-147794035D01*
X139236337Y-147893903D01*
X139464592Y-147955063D01*
X139652918Y-147971539D01*
X139699999Y-147975659D01*
X139700000Y-147975659D01*
X139700001Y-147975659D01*
X139739234Y-147972226D01*
X139935408Y-147955063D01*
X140163663Y-147893903D01*
X140377830Y-147794035D01*
X140571401Y-147658495D01*
X140738495Y-147491401D01*
X140868425Y-147305842D01*
X140923002Y-147262217D01*
X140992500Y-147255023D01*
X141054855Y-147286546D01*
X141071575Y-147305842D01*
X141201500Y-147491395D01*
X141201505Y-147491401D01*
X141368599Y-147658495D01*
X141447634Y-147713836D01*
X141562165Y-147794032D01*
X141562167Y-147794033D01*
X141562170Y-147794035D01*
X141776337Y-147893903D01*
X142004592Y-147955063D01*
X142192918Y-147971539D01*
X142239999Y-147975659D01*
X142240000Y-147975659D01*
X142240001Y-147975659D01*
X142279234Y-147972226D01*
X142475408Y-147955063D01*
X142703663Y-147893903D01*
X142917830Y-147794035D01*
X143111401Y-147658495D01*
X143278495Y-147491401D01*
X143408425Y-147305842D01*
X143463002Y-147262217D01*
X143532500Y-147255023D01*
X143594855Y-147286546D01*
X143611575Y-147305842D01*
X143741500Y-147491395D01*
X143741505Y-147491401D01*
X143908599Y-147658495D01*
X143987634Y-147713836D01*
X144102165Y-147794032D01*
X144102167Y-147794033D01*
X144102170Y-147794035D01*
X144316337Y-147893903D01*
X144544592Y-147955063D01*
X144732918Y-147971539D01*
X144779999Y-147975659D01*
X144780000Y-147975659D01*
X144780001Y-147975659D01*
X144819234Y-147972226D01*
X145015408Y-147955063D01*
X145243663Y-147893903D01*
X145457830Y-147794035D01*
X145651401Y-147658495D01*
X145818495Y-147491401D01*
X145948425Y-147305842D01*
X146003002Y-147262217D01*
X146072500Y-147255023D01*
X146134855Y-147286546D01*
X146151575Y-147305842D01*
X146281500Y-147491395D01*
X146281505Y-147491401D01*
X146448599Y-147658495D01*
X146527634Y-147713836D01*
X146642165Y-147794032D01*
X146642167Y-147794033D01*
X146642170Y-147794035D01*
X146856337Y-147893903D01*
X147084592Y-147955063D01*
X147272918Y-147971539D01*
X147319999Y-147975659D01*
X147320000Y-147975659D01*
X147320001Y-147975659D01*
X147359234Y-147972226D01*
X147555408Y-147955063D01*
X147783663Y-147893903D01*
X147997830Y-147794035D01*
X148191401Y-147658495D01*
X148358495Y-147491401D01*
X148488425Y-147305842D01*
X148543002Y-147262217D01*
X148612500Y-147255023D01*
X148674855Y-147286546D01*
X148691575Y-147305842D01*
X148821500Y-147491395D01*
X148821505Y-147491401D01*
X148988599Y-147658495D01*
X149067634Y-147713836D01*
X149182165Y-147794032D01*
X149182167Y-147794033D01*
X149182170Y-147794035D01*
X149396337Y-147893903D01*
X149624592Y-147955063D01*
X149812918Y-147971539D01*
X149859999Y-147975659D01*
X149860000Y-147975659D01*
X149860001Y-147975659D01*
X149899234Y-147972226D01*
X150095408Y-147955063D01*
X150323663Y-147893903D01*
X150537830Y-147794035D01*
X150731401Y-147658495D01*
X150898495Y-147491401D01*
X151028425Y-147305842D01*
X151083002Y-147262217D01*
X151152500Y-147255023D01*
X151214855Y-147286546D01*
X151231575Y-147305842D01*
X151361500Y-147491395D01*
X151361505Y-147491401D01*
X151528599Y-147658495D01*
X151607634Y-147713836D01*
X151722165Y-147794032D01*
X151722167Y-147794033D01*
X151722170Y-147794035D01*
X151936337Y-147893903D01*
X152164592Y-147955063D01*
X152352918Y-147971539D01*
X152399999Y-147975659D01*
X152400000Y-147975659D01*
X152400001Y-147975659D01*
X152439234Y-147972226D01*
X152635408Y-147955063D01*
X152863663Y-147893903D01*
X153077830Y-147794035D01*
X153271401Y-147658495D01*
X153438495Y-147491401D01*
X153568425Y-147305842D01*
X153623002Y-147262217D01*
X153692500Y-147255023D01*
X153754855Y-147286546D01*
X153771575Y-147305842D01*
X153901500Y-147491395D01*
X153901505Y-147491401D01*
X154068599Y-147658495D01*
X154147634Y-147713836D01*
X154262165Y-147794032D01*
X154262167Y-147794033D01*
X154262170Y-147794035D01*
X154476337Y-147893903D01*
X154704592Y-147955063D01*
X154892918Y-147971539D01*
X154939999Y-147975659D01*
X154940000Y-147975659D01*
X154940001Y-147975659D01*
X154979234Y-147972226D01*
X155175408Y-147955063D01*
X155403663Y-147893903D01*
X155617830Y-147794035D01*
X155811401Y-147658495D01*
X155978495Y-147491401D01*
X156108425Y-147305842D01*
X156163002Y-147262217D01*
X156232500Y-147255023D01*
X156294855Y-147286546D01*
X156311575Y-147305842D01*
X156441500Y-147491395D01*
X156441505Y-147491401D01*
X156608599Y-147658495D01*
X156687634Y-147713836D01*
X156802165Y-147794032D01*
X156802167Y-147794033D01*
X156802170Y-147794035D01*
X157016337Y-147893903D01*
X157244592Y-147955063D01*
X157432918Y-147971539D01*
X157479999Y-147975659D01*
X157480000Y-147975659D01*
X157480001Y-147975659D01*
X157519234Y-147972226D01*
X157715408Y-147955063D01*
X157943663Y-147893903D01*
X158157830Y-147794035D01*
X158351401Y-147658495D01*
X158518495Y-147491401D01*
X158648425Y-147305842D01*
X158703002Y-147262217D01*
X158772500Y-147255023D01*
X158834855Y-147286546D01*
X158851575Y-147305842D01*
X158981500Y-147491395D01*
X158981505Y-147491401D01*
X159148599Y-147658495D01*
X159227634Y-147713836D01*
X159342165Y-147794032D01*
X159342167Y-147794033D01*
X159342170Y-147794035D01*
X159556337Y-147893903D01*
X159784592Y-147955063D01*
X159972918Y-147971539D01*
X160019999Y-147975659D01*
X160020000Y-147975659D01*
X160020001Y-147975659D01*
X160059234Y-147972226D01*
X160255408Y-147955063D01*
X160483663Y-147893903D01*
X160697830Y-147794035D01*
X160891401Y-147658495D01*
X161058495Y-147491401D01*
X161188425Y-147305842D01*
X161243002Y-147262217D01*
X161312500Y-147255023D01*
X161374855Y-147286546D01*
X161391575Y-147305842D01*
X161521500Y-147491395D01*
X161521505Y-147491401D01*
X161688599Y-147658495D01*
X161767634Y-147713836D01*
X161882165Y-147794032D01*
X161882167Y-147794033D01*
X161882170Y-147794035D01*
X162096337Y-147893903D01*
X162324592Y-147955063D01*
X162512918Y-147971539D01*
X162559999Y-147975659D01*
X162560000Y-147975659D01*
X162560001Y-147975659D01*
X162599234Y-147972226D01*
X162795408Y-147955063D01*
X163023663Y-147893903D01*
X163237830Y-147794035D01*
X163431401Y-147658495D01*
X163598495Y-147491401D01*
X163728425Y-147305842D01*
X163783002Y-147262217D01*
X163852500Y-147255023D01*
X163914855Y-147286546D01*
X163931575Y-147305842D01*
X164061500Y-147491395D01*
X164061505Y-147491401D01*
X164228599Y-147658495D01*
X164307634Y-147713836D01*
X164422165Y-147794032D01*
X164422167Y-147794033D01*
X164422170Y-147794035D01*
X164636337Y-147893903D01*
X164864592Y-147955063D01*
X165052918Y-147971539D01*
X165099999Y-147975659D01*
X165100000Y-147975659D01*
X165100001Y-147975659D01*
X165139234Y-147972226D01*
X165335408Y-147955063D01*
X165563663Y-147893903D01*
X165777830Y-147794035D01*
X165971401Y-147658495D01*
X166138495Y-147491401D01*
X166268425Y-147305842D01*
X166323002Y-147262217D01*
X166392500Y-147255023D01*
X166454855Y-147286546D01*
X166471575Y-147305842D01*
X166601500Y-147491395D01*
X166601505Y-147491401D01*
X166768599Y-147658495D01*
X166847634Y-147713836D01*
X166962165Y-147794032D01*
X166962167Y-147794033D01*
X166962170Y-147794035D01*
X167176337Y-147893903D01*
X167404592Y-147955063D01*
X167592918Y-147971539D01*
X167639999Y-147975659D01*
X167640000Y-147975659D01*
X167640001Y-147975659D01*
X167679234Y-147972226D01*
X167875408Y-147955063D01*
X168103663Y-147893903D01*
X168317830Y-147794035D01*
X168511401Y-147658495D01*
X168678495Y-147491401D01*
X168814035Y-147297830D01*
X168913903Y-147083663D01*
X168975063Y-146855408D01*
X168995659Y-146620000D01*
X168975063Y-146384592D01*
X168913903Y-146156337D01*
X168814035Y-145942171D01*
X168808425Y-145934158D01*
X168678494Y-145748597D01*
X168511404Y-145581507D01*
X168443375Y-145533872D01*
X168399751Y-145479294D01*
X168390500Y-145432298D01*
X168390500Y-145267700D01*
X168410185Y-145200661D01*
X168443375Y-145166126D01*
X168511401Y-145118495D01*
X168678495Y-144951401D01*
X168814035Y-144757830D01*
X168913903Y-144543663D01*
X168975063Y-144315408D01*
X168995659Y-144080000D01*
X168975063Y-143844592D01*
X168913903Y-143616337D01*
X168814035Y-143402171D01*
X168808425Y-143394158D01*
X168678494Y-143208597D01*
X168511402Y-143041506D01*
X168511396Y-143041501D01*
X168325842Y-142911575D01*
X168282217Y-142856998D01*
X168275023Y-142787500D01*
X168306546Y-142725145D01*
X168325842Y-142708425D01*
X168460436Y-142614181D01*
X168511401Y-142578495D01*
X168678495Y-142411401D01*
X168808732Y-142225403D01*
X168863307Y-142181780D01*
X168932805Y-142174586D01*
X168995160Y-142206109D01*
X169011880Y-142225405D01*
X169065073Y-142301373D01*
X169696923Y-141669523D01*
X169720507Y-141749844D01*
X169798239Y-141870798D01*
X169906900Y-141964952D01*
X170037685Y-142024680D01*
X170047466Y-142026086D01*
X169418625Y-142654925D01*
X169502421Y-142713599D01*
X169716507Y-142813429D01*
X169716516Y-142813433D01*
X169944673Y-142874567D01*
X169944684Y-142874569D01*
X170179998Y-142895157D01*
X170180002Y-142895157D01*
X170415315Y-142874569D01*
X170415326Y-142874567D01*
X170643483Y-142813433D01*
X170643492Y-142813429D01*
X170857578Y-142713600D01*
X170857582Y-142713598D01*
X170941373Y-142654926D01*
X170941373Y-142654925D01*
X170312533Y-142026086D01*
X170322315Y-142024680D01*
X170453100Y-141964952D01*
X170561761Y-141870798D01*
X170639493Y-141749844D01*
X170663076Y-141669524D01*
X171294925Y-142301373D01*
X171294926Y-142301373D01*
X171353598Y-142217582D01*
X171353600Y-142217578D01*
X171453429Y-142003492D01*
X171453433Y-142003483D01*
X171514567Y-141775326D01*
X171514569Y-141775315D01*
X171535157Y-141540001D01*
X171535157Y-141539998D01*
X171514569Y-141304684D01*
X171514567Y-141304673D01*
X171453433Y-141076516D01*
X171453429Y-141076507D01*
X171353600Y-140862423D01*
X171353599Y-140862421D01*
X171294925Y-140778626D01*
X171294925Y-140778625D01*
X170663076Y-141410475D01*
X170639493Y-141330156D01*
X170561761Y-141209202D01*
X170453100Y-141115048D01*
X170322315Y-141055320D01*
X170312533Y-141053913D01*
X170941373Y-140425073D01*
X170941373Y-140425072D01*
X170865405Y-140371880D01*
X170821780Y-140317304D01*
X170814586Y-140247805D01*
X170846108Y-140185451D01*
X170865399Y-140168734D01*
X171051401Y-140038495D01*
X171218495Y-139871401D01*
X171354035Y-139677830D01*
X171453903Y-139463663D01*
X171515063Y-139235408D01*
X171535659Y-139000000D01*
X171515063Y-138764592D01*
X171453903Y-138536337D01*
X171354035Y-138322171D01*
X171348425Y-138314158D01*
X171218494Y-138128597D01*
X171051402Y-137961506D01*
X171051396Y-137961501D01*
X170865842Y-137831575D01*
X170822217Y-137776998D01*
X170815023Y-137707500D01*
X170846546Y-137645145D01*
X170865842Y-137628425D01*
X170888026Y-137612891D01*
X171051401Y-137498495D01*
X171218495Y-137331401D01*
X171354035Y-137137830D01*
X171453903Y-136923663D01*
X171515063Y-136695408D01*
X171535659Y-136460000D01*
X171515063Y-136224592D01*
X171453903Y-135996337D01*
X171354035Y-135782171D01*
X171348425Y-135774158D01*
X171218494Y-135588597D01*
X171051404Y-135421507D01*
X170983375Y-135373872D01*
X170939751Y-135319294D01*
X170930500Y-135272298D01*
X170930500Y-135107700D01*
X170950185Y-135040661D01*
X170983375Y-135006126D01*
X171051401Y-134958495D01*
X171218495Y-134791401D01*
X171354035Y-134597830D01*
X171453903Y-134383663D01*
X171515063Y-134155408D01*
X171535659Y-133920000D01*
X171515063Y-133684592D01*
X171453903Y-133456337D01*
X171354035Y-133242171D01*
X171348425Y-133234158D01*
X171218494Y-133048597D01*
X171051404Y-132881507D01*
X170983375Y-132833872D01*
X170939751Y-132779294D01*
X170930500Y-132732298D01*
X170930500Y-132567700D01*
X170950185Y-132500661D01*
X170983375Y-132466126D01*
X171051401Y-132418495D01*
X171218495Y-132251401D01*
X171354035Y-132057830D01*
X171453903Y-131843663D01*
X171515063Y-131615408D01*
X171535659Y-131380000D01*
X171515063Y-131144592D01*
X171453903Y-130916337D01*
X171354035Y-130702171D01*
X171348425Y-130694158D01*
X171218494Y-130508597D01*
X171051404Y-130341507D01*
X170983375Y-130293872D01*
X170939751Y-130239294D01*
X170930500Y-130192298D01*
X170930500Y-130027700D01*
X170950185Y-129960661D01*
X170983375Y-129926126D01*
X171051401Y-129878495D01*
X171218495Y-129711401D01*
X171354035Y-129517830D01*
X171453903Y-129303663D01*
X171515063Y-129075408D01*
X171535659Y-128840000D01*
X171515063Y-128604592D01*
X171453903Y-128376337D01*
X171354035Y-128162171D01*
X171348425Y-128154158D01*
X171218494Y-127968597D01*
X171051404Y-127801507D01*
X170983375Y-127753872D01*
X170939751Y-127699294D01*
X170930500Y-127652298D01*
X170930500Y-127487700D01*
X170950185Y-127420661D01*
X170983375Y-127386126D01*
X171051401Y-127338495D01*
X171218495Y-127171401D01*
X171354035Y-126977830D01*
X171453903Y-126763663D01*
X171515063Y-126535408D01*
X171535659Y-126300000D01*
X171515063Y-126064592D01*
X171453903Y-125836337D01*
X171354035Y-125622171D01*
X171348425Y-125614158D01*
X171218494Y-125428597D01*
X171051404Y-125261507D01*
X170983375Y-125213872D01*
X170939751Y-125159294D01*
X170930500Y-125112298D01*
X170930500Y-124947700D01*
X170950185Y-124880661D01*
X170983375Y-124846126D01*
X171051401Y-124798495D01*
X171218495Y-124631401D01*
X171354035Y-124437830D01*
X171453903Y-124223663D01*
X171515063Y-123995408D01*
X171535659Y-123760000D01*
X171515063Y-123524592D01*
X171453903Y-123296337D01*
X171354035Y-123082171D01*
X171348425Y-123074158D01*
X171218494Y-122888597D01*
X171051404Y-122721507D01*
X170983375Y-122673872D01*
X170939751Y-122619294D01*
X170930500Y-122572298D01*
X170930500Y-122407700D01*
X170950185Y-122340661D01*
X170983375Y-122306126D01*
X171051401Y-122258495D01*
X171218495Y-122091401D01*
X171354035Y-121897830D01*
X171453903Y-121683663D01*
X171515063Y-121455408D01*
X171535659Y-121220000D01*
X171515063Y-120984592D01*
X171453903Y-120756337D01*
X171354035Y-120542171D01*
X171348425Y-120534158D01*
X171218494Y-120348597D01*
X171051402Y-120181506D01*
X171051396Y-120181501D01*
X170865842Y-120051575D01*
X170822217Y-119996998D01*
X170815023Y-119927500D01*
X170846546Y-119865145D01*
X170865842Y-119848425D01*
X170888026Y-119832891D01*
X171051401Y-119718495D01*
X171218495Y-119551401D01*
X171354035Y-119357830D01*
X171453903Y-119143663D01*
X171515063Y-118915408D01*
X171535659Y-118680000D01*
X171515063Y-118444592D01*
X171453903Y-118216337D01*
X171354035Y-118002171D01*
X171348425Y-117994158D01*
X171218494Y-117808597D01*
X171051402Y-117641506D01*
X171051396Y-117641501D01*
X170865842Y-117511575D01*
X170822217Y-117456998D01*
X170815023Y-117387500D01*
X170846546Y-117325145D01*
X170865842Y-117308425D01*
X170888026Y-117292891D01*
X171051401Y-117178495D01*
X171218495Y-117011401D01*
X171354035Y-116817830D01*
X171453903Y-116603663D01*
X171515063Y-116375408D01*
X171535659Y-116140000D01*
X171515063Y-115904592D01*
X171453903Y-115676337D01*
X171354035Y-115462171D01*
X171348425Y-115454158D01*
X171218494Y-115268597D01*
X171051402Y-115101506D01*
X171051396Y-115101501D01*
X170865842Y-114971575D01*
X170822217Y-114916998D01*
X170815023Y-114847500D01*
X170846546Y-114785145D01*
X170865842Y-114768425D01*
X170888026Y-114752891D01*
X171051401Y-114638495D01*
X171218495Y-114471401D01*
X171354035Y-114277830D01*
X171453903Y-114063663D01*
X171515063Y-113835408D01*
X171535659Y-113600000D01*
X171515063Y-113364592D01*
X171453903Y-113136337D01*
X171354035Y-112922171D01*
X171348425Y-112914158D01*
X171218494Y-112728597D01*
X171051404Y-112561507D01*
X170983375Y-112513872D01*
X170939751Y-112459294D01*
X170930500Y-112412298D01*
X170930500Y-112247700D01*
X170950185Y-112180661D01*
X170983375Y-112146126D01*
X171051401Y-112098495D01*
X171218495Y-111931401D01*
X171354035Y-111737830D01*
X171453903Y-111523663D01*
X171515063Y-111295408D01*
X171535659Y-111060000D01*
X171515063Y-110824592D01*
X171453903Y-110596337D01*
X171354035Y-110382171D01*
X171348425Y-110374158D01*
X171218494Y-110188597D01*
X171051402Y-110021506D01*
X171051401Y-110021505D01*
X170865405Y-109891269D01*
X170821781Y-109836692D01*
X170814588Y-109767193D01*
X170846110Y-109704839D01*
X170865405Y-109688119D01*
X170941373Y-109634925D01*
X170312533Y-109006086D01*
X170322315Y-109004680D01*
X170453100Y-108944952D01*
X170561761Y-108850798D01*
X170639493Y-108729844D01*
X170663076Y-108649524D01*
X171294925Y-109281373D01*
X171294926Y-109281373D01*
X171353598Y-109197582D01*
X171353600Y-109197578D01*
X171453429Y-108983492D01*
X171453433Y-108983483D01*
X171514567Y-108755326D01*
X171514569Y-108755315D01*
X171535157Y-108520001D01*
X171535157Y-108519998D01*
X171514569Y-108284684D01*
X171514567Y-108284673D01*
X171453433Y-108056516D01*
X171453429Y-108056507D01*
X171353600Y-107842423D01*
X171353599Y-107842421D01*
X171294925Y-107758626D01*
X171294925Y-107758625D01*
X170663076Y-108390475D01*
X170639493Y-108310156D01*
X170561761Y-108189202D01*
X170453100Y-108095048D01*
X170322315Y-108035320D01*
X170312533Y-108033913D01*
X170941373Y-107405073D01*
X170941373Y-107405072D01*
X170857583Y-107346402D01*
X170857579Y-107346400D01*
X170643492Y-107246570D01*
X170643483Y-107246566D01*
X170415326Y-107185432D01*
X170415315Y-107185430D01*
X170180002Y-107164843D01*
X170179998Y-107164843D01*
X169944684Y-107185430D01*
X169944673Y-107185432D01*
X169716516Y-107246566D01*
X169716507Y-107246570D01*
X169502419Y-107346401D01*
X169418625Y-107405072D01*
X170047466Y-108033913D01*
X170037685Y-108035320D01*
X169906900Y-108095048D01*
X169798239Y-108189202D01*
X169720507Y-108310156D01*
X169696923Y-108390475D01*
X169065073Y-107758626D01*
X169011881Y-107834594D01*
X168957304Y-107878219D01*
X168887806Y-107885413D01*
X168825451Y-107853891D01*
X168808730Y-107834594D01*
X168678494Y-107648597D01*
X168511404Y-107481507D01*
X168443375Y-107433872D01*
X168399751Y-107379294D01*
X168390500Y-107332298D01*
X168390500Y-107167700D01*
X168410185Y-107100661D01*
X168443375Y-107066126D01*
X168511401Y-107018495D01*
X168678495Y-106851401D01*
X168814035Y-106657830D01*
X168913903Y-106443663D01*
X168975063Y-106215408D01*
X168995659Y-105980000D01*
X168975063Y-105744592D01*
X168913903Y-105516337D01*
X168814035Y-105302171D01*
X168808425Y-105294158D01*
X168678494Y-105108597D01*
X168511404Y-104941507D01*
X168443375Y-104893872D01*
X168399751Y-104839294D01*
X168390500Y-104792298D01*
X168390500Y-104627700D01*
X168410185Y-104560661D01*
X168443375Y-104526126D01*
X168511401Y-104478495D01*
X168678495Y-104311401D01*
X168814035Y-104117830D01*
X168913903Y-103903663D01*
X168975063Y-103675408D01*
X168995659Y-103440000D01*
X168975063Y-103204592D01*
X168913903Y-102976337D01*
X168814035Y-102762171D01*
X168808425Y-102754158D01*
X168678494Y-102568597D01*
X168511402Y-102401506D01*
X168511395Y-102401501D01*
X168317834Y-102265967D01*
X168317830Y-102265965D01*
X168317828Y-102265964D01*
X168103663Y-102166097D01*
X168103659Y-102166096D01*
X168103655Y-102166094D01*
X167875413Y-102104938D01*
X167875403Y-102104936D01*
X167640001Y-102084341D01*
X167639999Y-102084341D01*
X167404596Y-102104936D01*
X167404586Y-102104938D01*
X167176344Y-102166094D01*
X167176335Y-102166098D01*
X166962171Y-102265964D01*
X166962169Y-102265965D01*
X166768597Y-102401505D01*
X166601505Y-102568597D01*
X166471575Y-102754158D01*
X166416998Y-102797783D01*
X166347500Y-102804977D01*
X166285145Y-102773454D01*
X166268425Y-102754158D01*
X166138494Y-102568597D01*
X165971402Y-102401506D01*
X165971395Y-102401501D01*
X165777834Y-102265967D01*
X165777830Y-102265965D01*
X165777828Y-102265964D01*
X165563663Y-102166097D01*
X165563659Y-102166096D01*
X165563655Y-102166094D01*
X165335413Y-102104938D01*
X165335403Y-102104936D01*
X165100001Y-102084341D01*
X165099999Y-102084341D01*
X164864596Y-102104936D01*
X164864586Y-102104938D01*
X164636344Y-102166094D01*
X164636335Y-102166098D01*
X164422171Y-102265964D01*
X164422169Y-102265965D01*
X164228597Y-102401505D01*
X164061505Y-102568597D01*
X163931575Y-102754158D01*
X163876998Y-102797783D01*
X163807500Y-102804977D01*
X163745145Y-102773454D01*
X163728425Y-102754158D01*
X163598494Y-102568597D01*
X163431402Y-102401506D01*
X163431395Y-102401501D01*
X163237834Y-102265967D01*
X163237830Y-102265965D01*
X163237828Y-102265964D01*
X163023663Y-102166097D01*
X163023659Y-102166096D01*
X163023655Y-102166094D01*
X162795413Y-102104938D01*
X162795403Y-102104936D01*
X162560001Y-102084341D01*
X162559999Y-102084341D01*
X162324596Y-102104936D01*
X162324586Y-102104938D01*
X162096344Y-102166094D01*
X162096335Y-102166098D01*
X161882171Y-102265964D01*
X161882169Y-102265965D01*
X161688597Y-102401505D01*
X161521505Y-102568597D01*
X161391575Y-102754158D01*
X161336998Y-102797783D01*
X161267500Y-102804977D01*
X161205145Y-102773454D01*
X161188425Y-102754158D01*
X161058494Y-102568597D01*
X160891402Y-102401506D01*
X160891395Y-102401501D01*
X160697834Y-102265967D01*
X160697830Y-102265965D01*
X160697828Y-102265964D01*
X160483663Y-102166097D01*
X160483659Y-102166096D01*
X160483655Y-102166094D01*
X160255413Y-102104938D01*
X160255403Y-102104936D01*
X160020001Y-102084341D01*
X160019999Y-102084341D01*
X159784596Y-102104936D01*
X159784586Y-102104938D01*
X159556344Y-102166094D01*
X159556335Y-102166098D01*
X159342171Y-102265964D01*
X159342169Y-102265965D01*
X159148597Y-102401505D01*
X158981505Y-102568597D01*
X158851575Y-102754158D01*
X158796998Y-102797783D01*
X158727500Y-102804977D01*
X158665145Y-102773454D01*
X158648425Y-102754158D01*
X158518494Y-102568597D01*
X158351402Y-102401506D01*
X158351395Y-102401501D01*
X158157834Y-102265967D01*
X158157830Y-102265965D01*
X158157828Y-102265964D01*
X157943663Y-102166097D01*
X157943659Y-102166096D01*
X157943655Y-102166094D01*
X157715413Y-102104938D01*
X157715403Y-102104936D01*
X157480001Y-102084341D01*
X157479999Y-102084341D01*
X157244596Y-102104936D01*
X157244586Y-102104938D01*
X157016344Y-102166094D01*
X157016335Y-102166098D01*
X156802171Y-102265964D01*
X156802169Y-102265965D01*
X156608597Y-102401505D01*
X156441505Y-102568597D01*
X156311575Y-102754158D01*
X156256998Y-102797783D01*
X156187500Y-102804977D01*
X156125145Y-102773454D01*
X156108425Y-102754158D01*
X155978494Y-102568597D01*
X155811402Y-102401506D01*
X155811395Y-102401501D01*
X155617834Y-102265967D01*
X155617830Y-102265965D01*
X155617828Y-102265964D01*
X155403663Y-102166097D01*
X155403659Y-102166096D01*
X155403655Y-102166094D01*
X155175413Y-102104938D01*
X155175403Y-102104936D01*
X154940001Y-102084341D01*
X154939999Y-102084341D01*
X154704596Y-102104936D01*
X154704586Y-102104938D01*
X154476344Y-102166094D01*
X154476335Y-102166098D01*
X154262171Y-102265964D01*
X154262169Y-102265965D01*
X154068597Y-102401505D01*
X153901505Y-102568597D01*
X153771575Y-102754158D01*
X153716998Y-102797783D01*
X153647500Y-102804977D01*
X153585145Y-102773454D01*
X153568425Y-102754158D01*
X153438494Y-102568597D01*
X153271402Y-102401506D01*
X153271395Y-102401501D01*
X153077834Y-102265967D01*
X153077830Y-102265965D01*
X153077828Y-102265964D01*
X152863663Y-102166097D01*
X152863659Y-102166096D01*
X152863655Y-102166094D01*
X152635413Y-102104938D01*
X152635403Y-102104936D01*
X152400001Y-102084341D01*
X152399999Y-102084341D01*
X152164596Y-102104936D01*
X152164586Y-102104938D01*
X151936344Y-102166094D01*
X151936335Y-102166098D01*
X151722171Y-102265964D01*
X151722169Y-102265965D01*
X151528597Y-102401505D01*
X151361505Y-102568597D01*
X151231575Y-102754158D01*
X151176998Y-102797783D01*
X151107500Y-102804977D01*
X151045145Y-102773454D01*
X151028425Y-102754158D01*
X150898494Y-102568597D01*
X150731402Y-102401506D01*
X150731395Y-102401501D01*
X150537834Y-102265967D01*
X150537830Y-102265965D01*
X150537828Y-102265964D01*
X150323663Y-102166097D01*
X150323659Y-102166096D01*
X150323655Y-102166094D01*
X150095413Y-102104938D01*
X150095403Y-102104936D01*
X149860001Y-102084341D01*
X149859999Y-102084341D01*
X149624596Y-102104936D01*
X149624586Y-102104938D01*
X149396344Y-102166094D01*
X149396335Y-102166098D01*
X149182171Y-102265964D01*
X149182169Y-102265965D01*
X148988597Y-102401505D01*
X148821505Y-102568597D01*
X148691575Y-102754158D01*
X148636998Y-102797783D01*
X148567500Y-102804977D01*
X148505145Y-102773454D01*
X148488425Y-102754158D01*
X148358494Y-102568597D01*
X148191402Y-102401506D01*
X148191395Y-102401501D01*
X147997834Y-102265967D01*
X147997830Y-102265965D01*
X147997828Y-102265964D01*
X147783663Y-102166097D01*
X147783659Y-102166096D01*
X147783655Y-102166094D01*
X147555413Y-102104938D01*
X147555403Y-102104936D01*
X147320001Y-102084341D01*
X147319999Y-102084341D01*
X147084596Y-102104936D01*
X147084586Y-102104938D01*
X146856344Y-102166094D01*
X146856335Y-102166098D01*
X146642171Y-102265964D01*
X146642169Y-102265965D01*
X146448597Y-102401505D01*
X146281505Y-102568597D01*
X146151575Y-102754158D01*
X146096998Y-102797783D01*
X146027500Y-102804977D01*
X145965145Y-102773454D01*
X145948425Y-102754158D01*
X145818494Y-102568597D01*
X145651402Y-102401506D01*
X145651395Y-102401501D01*
X145457834Y-102265967D01*
X145457830Y-102265965D01*
X145457828Y-102265964D01*
X145243663Y-102166097D01*
X145243659Y-102166096D01*
X145243655Y-102166094D01*
X145015413Y-102104938D01*
X145015403Y-102104936D01*
X144780001Y-102084341D01*
X144779999Y-102084341D01*
X144544596Y-102104936D01*
X144544586Y-102104938D01*
X144316344Y-102166094D01*
X144316335Y-102166098D01*
X144102171Y-102265964D01*
X144102169Y-102265965D01*
X143908597Y-102401505D01*
X143741505Y-102568597D01*
X143611575Y-102754158D01*
X143556998Y-102797783D01*
X143487500Y-102804977D01*
X143425145Y-102773454D01*
X143408425Y-102754158D01*
X143278494Y-102568597D01*
X143111402Y-102401506D01*
X143111395Y-102401501D01*
X142917834Y-102265967D01*
X142917830Y-102265965D01*
X142917828Y-102265964D01*
X142703663Y-102166097D01*
X142703659Y-102166096D01*
X142703655Y-102166094D01*
X142475413Y-102104938D01*
X142475403Y-102104936D01*
X142240001Y-102084341D01*
X142239999Y-102084341D01*
X142004596Y-102104936D01*
X142004586Y-102104938D01*
X141776344Y-102166094D01*
X141776335Y-102166098D01*
X141562171Y-102265964D01*
X141562169Y-102265965D01*
X141368597Y-102401505D01*
X141201505Y-102568597D01*
X141071575Y-102754158D01*
X141016998Y-102797783D01*
X140947500Y-102804977D01*
X140885145Y-102773454D01*
X140868425Y-102754158D01*
X140738494Y-102568597D01*
X140571402Y-102401506D01*
X140571395Y-102401501D01*
X140377834Y-102265967D01*
X140377830Y-102265965D01*
X140377828Y-102265964D01*
X140163663Y-102166097D01*
X140163659Y-102166096D01*
X140163655Y-102166094D01*
X139935413Y-102104938D01*
X139935403Y-102104936D01*
X139700001Y-102084341D01*
X139699999Y-102084341D01*
X139464596Y-102104936D01*
X139464586Y-102104938D01*
X139236344Y-102166094D01*
X139236335Y-102166098D01*
X139022171Y-102265964D01*
X139022169Y-102265965D01*
X138828597Y-102401505D01*
X138661505Y-102568597D01*
X138531575Y-102754158D01*
X138476998Y-102797783D01*
X138407500Y-102804977D01*
X138345145Y-102773454D01*
X138328425Y-102754158D01*
X138198494Y-102568597D01*
X138031402Y-102401506D01*
X138031395Y-102401501D01*
X137837834Y-102265967D01*
X137837830Y-102265965D01*
X137837828Y-102265964D01*
X137623663Y-102166097D01*
X137623659Y-102166096D01*
X137623655Y-102166094D01*
X137395413Y-102104938D01*
X137395403Y-102104936D01*
X137160001Y-102084341D01*
X137159999Y-102084341D01*
X136924596Y-102104936D01*
X136924586Y-102104938D01*
X136696344Y-102166094D01*
X136696335Y-102166098D01*
X136482171Y-102265964D01*
X136482169Y-102265965D01*
X136288597Y-102401505D01*
X136121505Y-102568597D01*
X135991575Y-102754158D01*
X135936998Y-102797783D01*
X135867500Y-102804977D01*
X135805145Y-102773454D01*
X135788425Y-102754158D01*
X135658494Y-102568597D01*
X135491402Y-102401506D01*
X135491395Y-102401501D01*
X135297834Y-102265967D01*
X135297830Y-102265965D01*
X135297828Y-102265964D01*
X135083663Y-102166097D01*
X135083659Y-102166096D01*
X135083655Y-102166094D01*
X134855413Y-102104938D01*
X134855403Y-102104936D01*
X134620001Y-102084341D01*
X134619999Y-102084341D01*
X134384596Y-102104936D01*
X134384586Y-102104938D01*
X134156344Y-102166094D01*
X134156335Y-102166098D01*
X133942171Y-102265964D01*
X133942169Y-102265965D01*
X133748597Y-102401505D01*
X133581505Y-102568597D01*
X133451575Y-102754158D01*
X133396998Y-102797783D01*
X133327500Y-102804977D01*
X133265145Y-102773454D01*
X133248425Y-102754158D01*
X133118494Y-102568597D01*
X132951402Y-102401506D01*
X132951395Y-102401501D01*
X132757834Y-102265967D01*
X132757830Y-102265965D01*
X132757828Y-102265964D01*
X132543663Y-102166097D01*
X132543659Y-102166096D01*
X132543655Y-102166094D01*
X132315413Y-102104938D01*
X132315403Y-102104936D01*
X132080001Y-102084341D01*
X132079999Y-102084341D01*
X131844596Y-102104936D01*
X131844586Y-102104938D01*
X131616344Y-102166094D01*
X131616335Y-102166098D01*
X131402171Y-102265964D01*
X131402169Y-102265965D01*
X131208597Y-102401505D01*
X131041505Y-102568597D01*
X130911575Y-102754158D01*
X130856998Y-102797783D01*
X130787500Y-102804977D01*
X130725145Y-102773454D01*
X130708425Y-102754158D01*
X130578494Y-102568597D01*
X130411402Y-102401506D01*
X130411395Y-102401501D01*
X130217834Y-102265967D01*
X130217830Y-102265965D01*
X130217828Y-102265964D01*
X130003663Y-102166097D01*
X130003659Y-102166096D01*
X130003655Y-102166094D01*
X129775413Y-102104938D01*
X129775403Y-102104936D01*
X129540001Y-102084341D01*
X129539999Y-102084341D01*
X129304596Y-102104936D01*
X129304586Y-102104938D01*
X129076344Y-102166094D01*
X129076335Y-102166098D01*
X128862171Y-102265964D01*
X128862169Y-102265965D01*
X128668597Y-102401505D01*
X128501505Y-102568597D01*
X128371575Y-102754158D01*
X128316998Y-102797783D01*
X128247500Y-102804977D01*
X128185145Y-102773454D01*
X128168425Y-102754158D01*
X128038494Y-102568597D01*
X127871402Y-102401506D01*
X127871395Y-102401501D01*
X127677834Y-102265967D01*
X127677830Y-102265965D01*
X127677828Y-102265964D01*
X127463663Y-102166097D01*
X127463659Y-102166096D01*
X127463655Y-102166094D01*
X127235413Y-102104938D01*
X127235403Y-102104936D01*
X127000001Y-102084341D01*
X126999999Y-102084341D01*
X126764596Y-102104936D01*
X126764586Y-102104938D01*
X126536344Y-102166094D01*
X126536335Y-102166098D01*
X126322171Y-102265964D01*
X126322169Y-102265965D01*
X126128597Y-102401505D01*
X125961505Y-102568597D01*
X125831575Y-102754158D01*
X125776998Y-102797783D01*
X125707500Y-102804977D01*
X125645145Y-102773454D01*
X125628425Y-102754158D01*
X125498494Y-102568597D01*
X125331402Y-102401506D01*
X125331395Y-102401501D01*
X125137834Y-102265967D01*
X125137830Y-102265965D01*
X125137828Y-102265964D01*
X124923663Y-102166097D01*
X124923659Y-102166096D01*
X124923655Y-102166094D01*
X124695413Y-102104938D01*
X124695403Y-102104936D01*
X124460001Y-102084341D01*
X124459999Y-102084341D01*
X124224596Y-102104936D01*
X124224586Y-102104938D01*
X123996344Y-102166094D01*
X123996335Y-102166098D01*
X123782171Y-102265964D01*
X123782169Y-102265965D01*
X123588597Y-102401505D01*
X123421505Y-102568597D01*
X123291575Y-102754158D01*
X123236998Y-102797783D01*
X123167500Y-102804977D01*
X123105145Y-102773454D01*
X123088425Y-102754158D01*
X122958494Y-102568597D01*
X122791402Y-102401506D01*
X122791395Y-102401501D01*
X122597834Y-102265967D01*
X122597830Y-102265965D01*
X122597828Y-102265964D01*
X122383663Y-102166097D01*
X122383659Y-102166096D01*
X122383655Y-102166094D01*
X122155413Y-102104938D01*
X122155403Y-102104936D01*
X121920001Y-102084341D01*
X121919999Y-102084341D01*
X121684596Y-102104936D01*
X121684586Y-102104938D01*
X121456344Y-102166094D01*
X121456335Y-102166098D01*
X121242171Y-102265964D01*
X121242169Y-102265965D01*
X121048597Y-102401505D01*
X120881505Y-102568597D01*
X120751575Y-102754158D01*
X120696998Y-102797783D01*
X120627500Y-102804977D01*
X120565145Y-102773454D01*
X120548425Y-102754158D01*
X120418494Y-102568597D01*
X120251402Y-102401506D01*
X120251395Y-102401501D01*
X120057834Y-102265967D01*
X120057830Y-102265965D01*
X120057828Y-102265964D01*
X119843663Y-102166097D01*
X119843659Y-102166096D01*
X119843655Y-102166094D01*
X119615413Y-102104938D01*
X119615403Y-102104936D01*
X119380001Y-102084341D01*
X119379999Y-102084341D01*
X119144596Y-102104936D01*
X119144586Y-102104938D01*
X118916344Y-102166094D01*
X118916335Y-102166098D01*
X118702171Y-102265964D01*
X118702169Y-102265965D01*
X118508597Y-102401505D01*
X118341505Y-102568597D01*
X118211575Y-102754158D01*
X118156998Y-102797783D01*
X118087500Y-102804977D01*
X118025145Y-102773454D01*
X118008425Y-102754158D01*
X117878494Y-102568597D01*
X117711402Y-102401506D01*
X117711395Y-102401501D01*
X117517834Y-102265967D01*
X117517830Y-102265965D01*
X117517828Y-102265964D01*
X117303663Y-102166097D01*
X117303659Y-102166096D01*
X117303655Y-102166094D01*
X117075413Y-102104938D01*
X117075403Y-102104936D01*
X116840001Y-102084341D01*
X116839999Y-102084341D01*
X116604596Y-102104936D01*
X116604586Y-102104938D01*
X116376344Y-102166094D01*
X116376335Y-102166098D01*
X116162171Y-102265964D01*
X116162169Y-102265965D01*
X115968597Y-102401505D01*
X115801505Y-102568597D01*
X115671575Y-102754158D01*
X115616998Y-102797783D01*
X115547500Y-102804977D01*
X115485145Y-102773454D01*
X115468425Y-102754158D01*
X115338494Y-102568597D01*
X115171402Y-102401506D01*
X115171395Y-102401501D01*
X114977834Y-102265967D01*
X114977830Y-102265965D01*
X114977828Y-102265964D01*
X114763663Y-102166097D01*
X114763659Y-102166096D01*
X114763655Y-102166094D01*
X114535413Y-102104938D01*
X114535403Y-102104936D01*
X114300001Y-102084341D01*
X114299999Y-102084341D01*
X114064596Y-102104936D01*
X114064586Y-102104938D01*
X113836344Y-102166094D01*
X113836335Y-102166098D01*
X113622171Y-102265964D01*
X113622169Y-102265965D01*
X113428597Y-102401505D01*
X113261505Y-102568597D01*
X113131575Y-102754158D01*
X113076998Y-102797783D01*
X113007500Y-102804977D01*
X112945145Y-102773454D01*
X112928425Y-102754158D01*
X112798494Y-102568597D01*
X112631402Y-102401506D01*
X112631395Y-102401501D01*
X112437834Y-102265967D01*
X112437830Y-102265965D01*
X112437828Y-102265964D01*
X112223663Y-102166097D01*
X112223659Y-102166096D01*
X112223655Y-102166094D01*
X111995413Y-102104938D01*
X111995403Y-102104936D01*
X111760001Y-102084341D01*
X111759999Y-102084341D01*
X111524596Y-102104936D01*
X111524586Y-102104938D01*
X111296344Y-102166094D01*
X111296335Y-102166098D01*
X111082171Y-102265964D01*
X111082169Y-102265965D01*
X110888597Y-102401505D01*
X110721505Y-102568597D01*
X110585965Y-102762169D01*
X110585964Y-102762171D01*
X110486098Y-102976335D01*
X110486094Y-102976344D01*
X110424938Y-103204586D01*
X110424936Y-103204596D01*
X110404341Y-103439999D01*
X110404341Y-103440000D01*
X110424936Y-103675403D01*
X110424938Y-103675413D01*
X110486094Y-103903655D01*
X110486096Y-103903659D01*
X110486097Y-103903663D01*
X110488024Y-103907795D01*
X110585965Y-104117830D01*
X110585967Y-104117834D01*
X110694281Y-104272521D01*
X110721501Y-104311396D01*
X110721506Y-104311402D01*
X110888595Y-104478492D01*
X110888598Y-104478494D01*
X110888599Y-104478495D01*
X110956623Y-104526125D01*
X111000248Y-104580701D01*
X111009500Y-104627700D01*
X111009500Y-104792298D01*
X110989815Y-104859337D01*
X110956625Y-104893872D01*
X110888595Y-104941507D01*
X110721505Y-105108597D01*
X110585965Y-105302169D01*
X110585964Y-105302171D01*
X110486098Y-105516335D01*
X110486094Y-105516344D01*
X110424938Y-105744586D01*
X110424936Y-105744596D01*
X110404341Y-105979999D01*
X110404341Y-105980000D01*
X110424936Y-106215403D01*
X110424938Y-106215413D01*
X110486094Y-106443655D01*
X110486096Y-106443659D01*
X110486097Y-106443663D01*
X110490000Y-106452032D01*
X110585965Y-106657830D01*
X110585967Y-106657834D01*
X110665371Y-106771234D01*
X110721501Y-106851396D01*
X110721506Y-106851402D01*
X110888595Y-107018492D01*
X110888598Y-107018494D01*
X110888599Y-107018495D01*
X110956623Y-107066125D01*
X111000248Y-107120701D01*
X111009500Y-107167700D01*
X111009500Y-107332298D01*
X110989815Y-107399337D01*
X110956625Y-107433872D01*
X110888595Y-107481507D01*
X110721505Y-107648597D01*
X110591269Y-107834595D01*
X110536692Y-107878220D01*
X110467194Y-107885414D01*
X110404839Y-107853891D01*
X110388119Y-107834595D01*
X110334925Y-107758626D01*
X110334925Y-107758625D01*
X109703076Y-108390475D01*
X109679493Y-108310156D01*
X109601761Y-108189202D01*
X109493100Y-108095048D01*
X109362315Y-108035320D01*
X109352533Y-108033913D01*
X109981373Y-107405073D01*
X109981373Y-107405072D01*
X109897583Y-107346402D01*
X109897579Y-107346400D01*
X109683492Y-107246570D01*
X109683483Y-107246566D01*
X109455326Y-107185432D01*
X109455315Y-107185430D01*
X109220002Y-107164843D01*
X109219998Y-107164843D01*
X108984684Y-107185430D01*
X108984673Y-107185432D01*
X108756516Y-107246566D01*
X108756507Y-107246570D01*
X108542419Y-107346401D01*
X108458625Y-107405072D01*
X109087466Y-108033913D01*
X109077685Y-108035320D01*
X108946900Y-108095048D01*
X108838239Y-108189202D01*
X108760507Y-108310156D01*
X108736923Y-108390476D01*
X108105072Y-107758625D01*
X108105072Y-107758626D01*
X108051574Y-107835030D01*
X107996998Y-107878655D01*
X107927499Y-107885849D01*
X107865144Y-107854326D01*
X107848424Y-107835030D01*
X107794925Y-107758626D01*
X107794925Y-107758625D01*
X107163076Y-108390475D01*
X107139493Y-108310156D01*
X107061761Y-108189202D01*
X106953100Y-108095048D01*
X106822315Y-108035320D01*
X106812532Y-108033913D01*
X107441373Y-107405073D01*
X107441373Y-107405072D01*
X107357583Y-107346402D01*
X107357579Y-107346400D01*
X107143492Y-107246570D01*
X107143483Y-107246566D01*
X106915326Y-107185432D01*
X106915317Y-107185430D01*
X106894326Y-107183594D01*
X106829258Y-107158140D01*
X106788281Y-107101548D01*
X106784404Y-107031786D01*
X106815117Y-106974787D01*
X107033553Y-106744216D01*
X107412376Y-106292598D01*
X107763239Y-105818931D01*
X108084863Y-105324943D01*
X108329802Y-104893872D01*
X108376076Y-104812435D01*
X108635803Y-104283296D01*
X108635807Y-104283289D01*
X108709677Y-104106546D01*
X108863121Y-103739414D01*
X109057180Y-103182811D01*
X109217279Y-102615507D01*
X109342832Y-102039571D01*
X109433382Y-101457105D01*
X109488598Y-100870235D01*
X109496946Y-100620359D01*
X109518858Y-100554015D01*
X109573161Y-100510048D01*
X109620877Y-100500500D01*
X169946953Y-100500500D01*
X170013992Y-100520185D01*
G37*
G04 #@! TD.AperFunction*
G04 #@! TA.AperFunction,Conductor*
G36*
X105270310Y-108383065D02*
G01*
X105316042Y-108435889D01*
X105326753Y-108498155D01*
X105324843Y-108519993D01*
X105324843Y-108520001D01*
X105345430Y-108755315D01*
X105345432Y-108755326D01*
X105406566Y-108983483D01*
X105406570Y-108983492D01*
X105506400Y-109197579D01*
X105506402Y-109197583D01*
X105565072Y-109281373D01*
X105565073Y-109281373D01*
X106196922Y-108649523D01*
X106220507Y-108729844D01*
X106298239Y-108850798D01*
X106406900Y-108944952D01*
X106537685Y-109004680D01*
X106547466Y-109006086D01*
X105918625Y-109634925D01*
X105994594Y-109688119D01*
X106038219Y-109742696D01*
X106045413Y-109812194D01*
X106013890Y-109874549D01*
X105994595Y-109891269D01*
X105808594Y-110021508D01*
X105641505Y-110188597D01*
X105511575Y-110374158D01*
X105456998Y-110417783D01*
X105387500Y-110424977D01*
X105325145Y-110393454D01*
X105308425Y-110374158D01*
X105178494Y-110188597D01*
X105011402Y-110021506D01*
X105011395Y-110021501D01*
X104817834Y-109885967D01*
X104817830Y-109885965D01*
X104817828Y-109885964D01*
X104603663Y-109786097D01*
X104603659Y-109786096D01*
X104603655Y-109786094D01*
X104375413Y-109724938D01*
X104375403Y-109724936D01*
X104140001Y-109704341D01*
X104139999Y-109704341D01*
X103904596Y-109724936D01*
X103904586Y-109724938D01*
X103676344Y-109786094D01*
X103676335Y-109786098D01*
X103462171Y-109885964D01*
X103462169Y-109885965D01*
X103268597Y-110021505D01*
X103101505Y-110188597D01*
X102965965Y-110382169D01*
X102965964Y-110382171D01*
X102866098Y-110596335D01*
X102866094Y-110596344D01*
X102804938Y-110824586D01*
X102804936Y-110824596D01*
X102784341Y-111059999D01*
X102784341Y-111060000D01*
X102804936Y-111295403D01*
X102804938Y-111295413D01*
X102866094Y-111523655D01*
X102866096Y-111523659D01*
X102866097Y-111523663D01*
X102870000Y-111532032D01*
X102965965Y-111737830D01*
X102965967Y-111737834D01*
X103074281Y-111892521D01*
X103101501Y-111931396D01*
X103101506Y-111931402D01*
X103268595Y-112098492D01*
X103268598Y-112098494D01*
X103268599Y-112098495D01*
X103336623Y-112146125D01*
X103380248Y-112200701D01*
X103389500Y-112247700D01*
X103389500Y-112412298D01*
X103369815Y-112479337D01*
X103336625Y-112513872D01*
X103268595Y-112561507D01*
X103101505Y-112728597D01*
X102965965Y-112922169D01*
X102965964Y-112922171D01*
X102866098Y-113136335D01*
X102866094Y-113136344D01*
X102804938Y-113364586D01*
X102804936Y-113364596D01*
X102784341Y-113599999D01*
X102784341Y-113600000D01*
X102804936Y-113835403D01*
X102804938Y-113835413D01*
X102866094Y-114063655D01*
X102866096Y-114063659D01*
X102866097Y-114063663D01*
X102870000Y-114072032D01*
X102965965Y-114277830D01*
X102965967Y-114277834D01*
X103074281Y-114432521D01*
X103101501Y-114471396D01*
X103101506Y-114471402D01*
X103268597Y-114638493D01*
X103268603Y-114638498D01*
X103454158Y-114768425D01*
X103497783Y-114823002D01*
X103504977Y-114892500D01*
X103473454Y-114954855D01*
X103454158Y-114971575D01*
X103268597Y-115101505D01*
X103101505Y-115268597D01*
X102965965Y-115462169D01*
X102965964Y-115462171D01*
X102866098Y-115676335D01*
X102866094Y-115676344D01*
X102804938Y-115904586D01*
X102804936Y-115904596D01*
X102784341Y-116139999D01*
X102784341Y-116140000D01*
X102804936Y-116375403D01*
X102804938Y-116375413D01*
X102866094Y-116603655D01*
X102866096Y-116603659D01*
X102866097Y-116603663D01*
X102870000Y-116612032D01*
X102965965Y-116817830D01*
X102965967Y-116817834D01*
X103053873Y-116943376D01*
X103101501Y-117011396D01*
X103101506Y-117011402D01*
X103268597Y-117178493D01*
X103268603Y-117178498D01*
X103454158Y-117308425D01*
X103497783Y-117363002D01*
X103504977Y-117432500D01*
X103473454Y-117494855D01*
X103454158Y-117511575D01*
X103268597Y-117641505D01*
X103101505Y-117808597D01*
X102965965Y-118002169D01*
X102965964Y-118002171D01*
X102866098Y-118216335D01*
X102866094Y-118216344D01*
X102804938Y-118444586D01*
X102804936Y-118444596D01*
X102784341Y-118679999D01*
X102784341Y-118680000D01*
X102804936Y-118915403D01*
X102804938Y-118915413D01*
X102866094Y-119143655D01*
X102866096Y-119143659D01*
X102866097Y-119143663D01*
X102870000Y-119152032D01*
X102965965Y-119357830D01*
X102965967Y-119357834D01*
X103053873Y-119483376D01*
X103101501Y-119551396D01*
X103101506Y-119551402D01*
X103268597Y-119718493D01*
X103268603Y-119718498D01*
X103454158Y-119848425D01*
X103497783Y-119903002D01*
X103504977Y-119972500D01*
X103473454Y-120034855D01*
X103454158Y-120051575D01*
X103268597Y-120181505D01*
X103101505Y-120348597D01*
X102965965Y-120542169D01*
X102965964Y-120542171D01*
X102866098Y-120756335D01*
X102866094Y-120756344D01*
X102804938Y-120984586D01*
X102804936Y-120984596D01*
X102784341Y-121219999D01*
X102784341Y-121220000D01*
X102804936Y-121455403D01*
X102804938Y-121455413D01*
X102866094Y-121683655D01*
X102866096Y-121683659D01*
X102866097Y-121683663D01*
X102870000Y-121692032D01*
X102965965Y-121897830D01*
X102965967Y-121897834D01*
X103074281Y-122052521D01*
X103101501Y-122091396D01*
X103101506Y-122091402D01*
X103268595Y-122258492D01*
X103268598Y-122258494D01*
X103268599Y-122258495D01*
X103336623Y-122306125D01*
X103380248Y-122360701D01*
X103389500Y-122407700D01*
X103389500Y-122572298D01*
X103369815Y-122639337D01*
X103336625Y-122673872D01*
X103268595Y-122721507D01*
X103101505Y-122888597D01*
X102965965Y-123082169D01*
X102965964Y-123082171D01*
X102866098Y-123296335D01*
X102866094Y-123296344D01*
X102804938Y-123524586D01*
X102804936Y-123524596D01*
X102784341Y-123759999D01*
X102784341Y-123760000D01*
X102804936Y-123995403D01*
X102804938Y-123995413D01*
X102866094Y-124223655D01*
X102866096Y-124223659D01*
X102866097Y-124223663D01*
X102870000Y-124232032D01*
X102965965Y-124437830D01*
X102965967Y-124437834D01*
X103074281Y-124592521D01*
X103101501Y-124631396D01*
X103101506Y-124631402D01*
X103268595Y-124798492D01*
X103268598Y-124798494D01*
X103268599Y-124798495D01*
X103336623Y-124846125D01*
X103380248Y-124900701D01*
X103389500Y-124947700D01*
X103389500Y-125112298D01*
X103369815Y-125179337D01*
X103336625Y-125213872D01*
X103268595Y-125261507D01*
X103101505Y-125428597D01*
X102965965Y-125622169D01*
X102965964Y-125622171D01*
X102866098Y-125836335D01*
X102866094Y-125836344D01*
X102804938Y-126064586D01*
X102804936Y-126064596D01*
X102784341Y-126299999D01*
X102784341Y-126300000D01*
X102804936Y-126535403D01*
X102804938Y-126535413D01*
X102866094Y-126763655D01*
X102866096Y-126763659D01*
X102866097Y-126763663D01*
X102870000Y-126772032D01*
X102965965Y-126977830D01*
X102965967Y-126977834D01*
X103074281Y-127132521D01*
X103101501Y-127171396D01*
X103101506Y-127171402D01*
X103268595Y-127338492D01*
X103268598Y-127338494D01*
X103268599Y-127338495D01*
X103336623Y-127386125D01*
X103380248Y-127440701D01*
X103389500Y-127487700D01*
X103389500Y-127652298D01*
X103369815Y-127719337D01*
X103336625Y-127753872D01*
X103268595Y-127801507D01*
X103101505Y-127968597D01*
X102965965Y-128162169D01*
X102965964Y-128162171D01*
X102866098Y-128376335D01*
X102866094Y-128376344D01*
X102804938Y-128604586D01*
X102804936Y-128604596D01*
X102784341Y-128839999D01*
X102784341Y-128840000D01*
X102804936Y-129075403D01*
X102804938Y-129075413D01*
X102866094Y-129303655D01*
X102866096Y-129303659D01*
X102866097Y-129303663D01*
X102870000Y-129312032D01*
X102965965Y-129517830D01*
X102965967Y-129517834D01*
X103074281Y-129672521D01*
X103101501Y-129711396D01*
X103101506Y-129711402D01*
X103268595Y-129878492D01*
X103268598Y-129878494D01*
X103268599Y-129878495D01*
X103336623Y-129926125D01*
X103380248Y-129980701D01*
X103389500Y-130027700D01*
X103389500Y-130192298D01*
X103369815Y-130259337D01*
X103336625Y-130293872D01*
X103268595Y-130341507D01*
X103101505Y-130508597D01*
X102965965Y-130702169D01*
X102965964Y-130702171D01*
X102866098Y-130916335D01*
X102866094Y-130916344D01*
X102804938Y-131144586D01*
X102804936Y-131144596D01*
X102784341Y-131379999D01*
X102784341Y-131380000D01*
X102804936Y-131615403D01*
X102804938Y-131615413D01*
X102866094Y-131843655D01*
X102866096Y-131843659D01*
X102866097Y-131843663D01*
X102870000Y-131852032D01*
X102965965Y-132057830D01*
X102965967Y-132057834D01*
X103074281Y-132212521D01*
X103101501Y-132251396D01*
X103101506Y-132251402D01*
X103268595Y-132418492D01*
X103268598Y-132418494D01*
X103268599Y-132418495D01*
X103336623Y-132466125D01*
X103380248Y-132520701D01*
X103389500Y-132567700D01*
X103389500Y-132732298D01*
X103369815Y-132799337D01*
X103336625Y-132833872D01*
X103268595Y-132881507D01*
X103101505Y-133048597D01*
X102965965Y-133242169D01*
X102965964Y-133242171D01*
X102866098Y-133456335D01*
X102866094Y-133456344D01*
X102804938Y-133684586D01*
X102804936Y-133684596D01*
X102784341Y-133919999D01*
X102784341Y-133920000D01*
X102804936Y-134155403D01*
X102804938Y-134155413D01*
X102866094Y-134383655D01*
X102866096Y-134383659D01*
X102866097Y-134383663D01*
X102870000Y-134392032D01*
X102965965Y-134597830D01*
X102965967Y-134597834D01*
X103074281Y-134752521D01*
X103101501Y-134791396D01*
X103101506Y-134791402D01*
X103268595Y-134958492D01*
X103268598Y-134958494D01*
X103268599Y-134958495D01*
X103336623Y-135006125D01*
X103380248Y-135060701D01*
X103389500Y-135107700D01*
X103389500Y-135272298D01*
X103369815Y-135339337D01*
X103336625Y-135373872D01*
X103268595Y-135421507D01*
X103101505Y-135588597D01*
X102965965Y-135782169D01*
X102965964Y-135782171D01*
X102866098Y-135996335D01*
X102866094Y-135996344D01*
X102804938Y-136224586D01*
X102804936Y-136224596D01*
X102784341Y-136459999D01*
X102784341Y-136460000D01*
X102804936Y-136695403D01*
X102804938Y-136695413D01*
X102866094Y-136923655D01*
X102866096Y-136923659D01*
X102866097Y-136923663D01*
X102870000Y-136932032D01*
X102965965Y-137137830D01*
X102965967Y-137137834D01*
X103074281Y-137292521D01*
X103101501Y-137331396D01*
X103101506Y-137331402D01*
X103268597Y-137498493D01*
X103268603Y-137498498D01*
X103454158Y-137628425D01*
X103497783Y-137683002D01*
X103504977Y-137752500D01*
X103473454Y-137814855D01*
X103454158Y-137831575D01*
X103268597Y-137961505D01*
X103101505Y-138128597D01*
X102965965Y-138322169D01*
X102965964Y-138322171D01*
X102866098Y-138536335D01*
X102866094Y-138536344D01*
X102804938Y-138764586D01*
X102804936Y-138764596D01*
X102784341Y-138999999D01*
X102784341Y-139000000D01*
X102804936Y-139235403D01*
X102804938Y-139235413D01*
X102866094Y-139463655D01*
X102866096Y-139463659D01*
X102866097Y-139463663D01*
X102870000Y-139472032D01*
X102965965Y-139677830D01*
X102965967Y-139677834D01*
X103053873Y-139803376D01*
X103101505Y-139871401D01*
X103268599Y-140038495D01*
X103365384Y-140106265D01*
X103462165Y-140174032D01*
X103462167Y-140174033D01*
X103462170Y-140174035D01*
X103676337Y-140273903D01*
X103904592Y-140335063D01*
X104092918Y-140351539D01*
X104139999Y-140355659D01*
X104140000Y-140355659D01*
X104140001Y-140355659D01*
X104179234Y-140352226D01*
X104375408Y-140335063D01*
X104603663Y-140273903D01*
X104817830Y-140174035D01*
X105011401Y-140038495D01*
X105178495Y-139871401D01*
X105226127Y-139803376D01*
X105280704Y-139759751D01*
X105327701Y-139750500D01*
X105492299Y-139750500D01*
X105559338Y-139770185D01*
X105593873Y-139803376D01*
X105641505Y-139871401D01*
X105808599Y-140038495D01*
X105994158Y-140168425D01*
X105994594Y-140168730D01*
X106038218Y-140223307D01*
X106045411Y-140292806D01*
X106013889Y-140355160D01*
X105994593Y-140371880D01*
X105918626Y-140425072D01*
X105918625Y-140425072D01*
X106547466Y-141053913D01*
X106537685Y-141055320D01*
X106406900Y-141115048D01*
X106298239Y-141209202D01*
X106220507Y-141330156D01*
X106196923Y-141410476D01*
X105565072Y-140778625D01*
X105506401Y-140862419D01*
X105406570Y-141076507D01*
X105406566Y-141076516D01*
X105345432Y-141304673D01*
X105345430Y-141304683D01*
X105326314Y-141523174D01*
X105300861Y-141588243D01*
X105244270Y-141629221D01*
X105174508Y-141633099D01*
X105135793Y-141616711D01*
X104771716Y-141382960D01*
X104730096Y-141359661D01*
X104461328Y-141209202D01*
X104257359Y-141095018D01*
X103726559Y-140838660D01*
X103181251Y-140614821D01*
X102623436Y-140424317D01*
X102623420Y-140424312D01*
X102233665Y-140316998D01*
X102055111Y-140267835D01*
X102055104Y-140267833D01*
X102055091Y-140267830D01*
X101478423Y-140145963D01*
X101478397Y-140145958D01*
X101478387Y-140145956D01*
X101478380Y-140145955D01*
X101478375Y-140145954D01*
X100895366Y-140059122D01*
X100895330Y-140059118D01*
X100613671Y-140034427D01*
X100548607Y-140008963D01*
X100507638Y-139952365D01*
X100500500Y-139910901D01*
X100500500Y-110089097D01*
X100520185Y-110022058D01*
X100572989Y-109976303D01*
X100613669Y-109965571D01*
X100738518Y-109954627D01*
X100895327Y-109940882D01*
X100895338Y-109940880D01*
X100895356Y-109940879D01*
X101478387Y-109854044D01*
X102055111Y-109732165D01*
X102623425Y-109575686D01*
X103181253Y-109385178D01*
X103667277Y-109185673D01*
X103726559Y-109161339D01*
X103902905Y-109076170D01*
X104257360Y-108904981D01*
X104771711Y-108617043D01*
X105136234Y-108383005D01*
X105203279Y-108363351D01*
X105270310Y-108383065D01*
G37*
G04 #@! TD.AperFunction*
G04 #@! TA.AperFunction,Conductor*
G36*
X108099338Y-139770185D02*
G01*
X108133873Y-139803376D01*
X108181505Y-139871401D01*
X108348599Y-140038495D01*
X108534158Y-140168425D01*
X108534594Y-140168730D01*
X108578218Y-140223307D01*
X108585411Y-140292806D01*
X108553889Y-140355160D01*
X108534593Y-140371880D01*
X108458626Y-140425072D01*
X108458625Y-140425072D01*
X109087466Y-141053913D01*
X109077685Y-141055320D01*
X108946900Y-141115048D01*
X108838239Y-141209202D01*
X108760507Y-141330156D01*
X108736923Y-141410476D01*
X108105072Y-140778625D01*
X108105072Y-140778626D01*
X108051574Y-140855030D01*
X107996998Y-140898655D01*
X107927499Y-140905849D01*
X107865144Y-140874326D01*
X107848424Y-140855030D01*
X107794925Y-140778626D01*
X107794925Y-140778625D01*
X107163076Y-141410475D01*
X107139493Y-141330156D01*
X107061761Y-141209202D01*
X106953100Y-141115048D01*
X106822315Y-141055320D01*
X106812533Y-141053913D01*
X107441373Y-140425073D01*
X107441373Y-140425072D01*
X107365405Y-140371880D01*
X107321780Y-140317304D01*
X107314586Y-140247805D01*
X107346108Y-140185451D01*
X107365399Y-140168734D01*
X107551401Y-140038495D01*
X107718495Y-139871401D01*
X107766127Y-139803376D01*
X107820704Y-139759751D01*
X107867701Y-139750500D01*
X108032299Y-139750500D01*
X108099338Y-139770185D01*
G37*
G04 #@! TD.AperFunction*
G04 #@! TA.AperFunction,Conductor*
G36*
X110639338Y-139770185D02*
G01*
X110673873Y-139803376D01*
X110721505Y-139871401D01*
X110888597Y-140038493D01*
X110888603Y-140038498D01*
X111074158Y-140168425D01*
X111117783Y-140223002D01*
X111124977Y-140292500D01*
X111093454Y-140354855D01*
X111074158Y-140371575D01*
X110888597Y-140501505D01*
X110721505Y-140668597D01*
X110591269Y-140854595D01*
X110536692Y-140898220D01*
X110467194Y-140905414D01*
X110404839Y-140873891D01*
X110388119Y-140854595D01*
X110334925Y-140778626D01*
X110334925Y-140778625D01*
X109703076Y-141410475D01*
X109679493Y-141330156D01*
X109601761Y-141209202D01*
X109493100Y-141115048D01*
X109362315Y-141055320D01*
X109352533Y-141053913D01*
X109981373Y-140425073D01*
X109981373Y-140425072D01*
X109905405Y-140371880D01*
X109861780Y-140317304D01*
X109854586Y-140247805D01*
X109886108Y-140185451D01*
X109905399Y-140168734D01*
X110091401Y-140038495D01*
X110258495Y-139871401D01*
X110306127Y-139803376D01*
X110360704Y-139759751D01*
X110407701Y-139750500D01*
X110572299Y-139750500D01*
X110639338Y-139770185D01*
G37*
G04 #@! TD.AperFunction*
G04 #@! TA.AperFunction,Conductor*
G36*
X169059338Y-139770185D02*
G01*
X169093873Y-139803376D01*
X169141505Y-139871401D01*
X169308599Y-140038495D01*
X169494158Y-140168425D01*
X169494594Y-140168730D01*
X169538218Y-140223307D01*
X169545411Y-140292806D01*
X169513889Y-140355160D01*
X169494593Y-140371880D01*
X169418626Y-140425072D01*
X169418625Y-140425072D01*
X170047466Y-141053913D01*
X170037685Y-141055320D01*
X169906900Y-141115048D01*
X169798239Y-141209202D01*
X169720507Y-141330156D01*
X169696923Y-141410475D01*
X169065073Y-140778626D01*
X169011881Y-140854594D01*
X168957304Y-140898219D01*
X168887806Y-140905413D01*
X168825451Y-140873891D01*
X168808730Y-140854594D01*
X168678494Y-140668597D01*
X168511402Y-140501506D01*
X168511396Y-140501501D01*
X168325842Y-140371575D01*
X168282217Y-140316998D01*
X168275023Y-140247500D01*
X168306546Y-140185145D01*
X168325842Y-140168425D01*
X168357934Y-140145954D01*
X168511401Y-140038495D01*
X168678495Y-139871401D01*
X168726127Y-139803376D01*
X168780704Y-139759751D01*
X168827701Y-139750500D01*
X168992299Y-139750500D01*
X169059338Y-139770185D01*
G37*
G04 #@! TD.AperFunction*
G04 #@! TA.AperFunction,Conductor*
G36*
X108760507Y-108729844D02*
G01*
X108838239Y-108850798D01*
X108946900Y-108944952D01*
X109077685Y-109004680D01*
X109087466Y-109006086D01*
X108458625Y-109634925D01*
X108534594Y-109688119D01*
X108578219Y-109742696D01*
X108585413Y-109812194D01*
X108553890Y-109874549D01*
X108534595Y-109891269D01*
X108348594Y-110021508D01*
X108181505Y-110188597D01*
X108051575Y-110374158D01*
X107996998Y-110417783D01*
X107927500Y-110424977D01*
X107865145Y-110393454D01*
X107848425Y-110374158D01*
X107718494Y-110188597D01*
X107551402Y-110021506D01*
X107551401Y-110021505D01*
X107365405Y-109891269D01*
X107321781Y-109836692D01*
X107314588Y-109767193D01*
X107346110Y-109704839D01*
X107365405Y-109688119D01*
X107441373Y-109634925D01*
X106812533Y-109006086D01*
X106822315Y-109004680D01*
X106953100Y-108944952D01*
X107061761Y-108850798D01*
X107139493Y-108729844D01*
X107163076Y-108649524D01*
X107794925Y-109281373D01*
X107848425Y-109204968D01*
X107903002Y-109161344D01*
X107972501Y-109154151D01*
X108034855Y-109185673D01*
X108051576Y-109204969D01*
X108105073Y-109281372D01*
X108736922Y-108649523D01*
X108760507Y-108729844D01*
G37*
G04 #@! TD.AperFunction*
G04 #@! TA.AperFunction,Conductor*
G36*
X110334925Y-109281373D02*
G01*
X110388119Y-109205405D01*
X110442696Y-109161781D01*
X110512195Y-109154588D01*
X110574549Y-109186110D01*
X110591269Y-109205405D01*
X110721505Y-109391401D01*
X110721506Y-109391402D01*
X110888597Y-109558493D01*
X110888603Y-109558498D01*
X111074158Y-109688425D01*
X111117783Y-109743002D01*
X111124977Y-109812500D01*
X111093454Y-109874855D01*
X111074158Y-109891575D01*
X110888597Y-110021505D01*
X110721505Y-110188597D01*
X110591575Y-110374158D01*
X110536998Y-110417783D01*
X110467500Y-110424977D01*
X110405145Y-110393454D01*
X110388425Y-110374158D01*
X110258494Y-110188597D01*
X110091402Y-110021506D01*
X110091401Y-110021505D01*
X109905405Y-109891269D01*
X109861781Y-109836692D01*
X109854588Y-109767193D01*
X109886110Y-109704839D01*
X109905405Y-109688119D01*
X109981373Y-109634925D01*
X109352533Y-109006086D01*
X109362315Y-109004680D01*
X109493100Y-108944952D01*
X109601761Y-108850798D01*
X109679493Y-108729844D01*
X109703076Y-108649524D01*
X110334925Y-109281373D01*
G37*
G04 #@! TD.AperFunction*
G04 #@! TA.AperFunction,Conductor*
G36*
X169720507Y-108729844D02*
G01*
X169798239Y-108850798D01*
X169906900Y-108944952D01*
X170037685Y-109004680D01*
X170047466Y-109006086D01*
X169418625Y-109634925D01*
X169494594Y-109688119D01*
X169538219Y-109742696D01*
X169545413Y-109812194D01*
X169513890Y-109874549D01*
X169494595Y-109891269D01*
X169308594Y-110021508D01*
X169141505Y-110188597D01*
X169011575Y-110374158D01*
X168956998Y-110417783D01*
X168887500Y-110424977D01*
X168825145Y-110393454D01*
X168808425Y-110374158D01*
X168678494Y-110188597D01*
X168511402Y-110021506D01*
X168511396Y-110021501D01*
X168325842Y-109891575D01*
X168282217Y-109836998D01*
X168275023Y-109767500D01*
X168306546Y-109705145D01*
X168325842Y-109688425D01*
X168486848Y-109575687D01*
X168511401Y-109558495D01*
X168678495Y-109391401D01*
X168808732Y-109205403D01*
X168863307Y-109161780D01*
X168932805Y-109154586D01*
X168995160Y-109186109D01*
X169011880Y-109205405D01*
X169065073Y-109281373D01*
X169696923Y-108649523D01*
X169720507Y-108729844D01*
G37*
G04 #@! TD.AperFunction*
D12*
X100000000Y-109499999D02*
G75*
G03*
X108999999Y-100000000I-250000J9249999D01*
G01*
X174500000Y-107500000D02*
X174500000Y-142500000D01*
X108999999Y-150000000D02*
G75*
G03*
X100000000Y-140500001I-9249999J250000D01*
G01*
X174499989Y-142499987D02*
G75*
G03*
X170500001Y-150000000I7053311J-8578413D01*
G01*
X170500019Y-99999998D02*
G75*
G03*
X174500000Y-107499999I11053281J1078398D01*
G01*
X100000000Y-109500000D02*
X100000000Y-140500000D01*
X109000000Y-100000000D02*
X170500000Y-100000000D01*
X109000000Y-150000000D02*
X170500000Y-150000000D01*
M02*
