G04 #@! TF.GenerationSoftware,KiCad,Pcbnew,7.0.11+dfsg-1build4*
G04 #@! TF.CreationDate,2025-11-24T13:09:25-05:00*
G04 #@! TF.ProjectId,,58585858-5858-4585-9858-585858585858,rev?*
G04 #@! TF.SameCoordinates,Original*
G04 #@! TF.FileFunction,Copper,L1,Top*
G04 #@! TF.FilePolarity,Positive*
%FSLAX46Y46*%
G04 Gerber Fmt 4.6, Leading zero omitted, Abs format (unit mm)*
G04 Created by KiCad (PCBNEW 7.0.11+dfsg-1build4) date 2025-11-24 13:09:25*
%MOMM*%
%LPD*%
G01*
G04 APERTURE LIST*
G04 #@! TA.AperFunction,ComponentPad*
%ADD10C,1.700000*%
G04 #@! TD*
G04 #@! TA.AperFunction,ComponentPad*
%ADD11R,2.400000X2.400000*%
G04 #@! TD*
G04 #@! TA.AperFunction,ComponentPad*
%ADD12C,2.400000*%
G04 #@! TD*
G04 #@! TA.AperFunction,Conductor*
%ADD13C,0.500000*%
G04 #@! TD*
G04 #@! TA.AperFunction,Profile*
%ADD14C,0.050000*%
G04 #@! TD*
G04 APERTURE END LIST*
D10*
X95520000Y-115040000D03*
X87900000Y-99800000D03*
X108220000Y-117580000D03*
X105680000Y-109960000D03*
X105680000Y-127740000D03*
X115840000Y-135360000D03*
X123460000Y-125200000D03*
X82820000Y-102340000D03*
X113300000Y-109960000D03*
X85360000Y-112500000D03*
X103140000Y-109960000D03*
X82820000Y-104880000D03*
X103140000Y-112500000D03*
X77740000Y-125200000D03*
X100600000Y-94720000D03*
X92980000Y-99800000D03*
X95520000Y-94720000D03*
X100600000Y-127740000D03*
X108220000Y-94720000D03*
X123460000Y-112500000D03*
X105680000Y-94720000D03*
X77740000Y-127740000D03*
X105680000Y-135360000D03*
X100600000Y-99800000D03*
X75200000Y-94720000D03*
X90440000Y-120120000D03*
X115840000Y-137900000D03*
X77740000Y-94720000D03*
X77740000Y-107420000D03*
X120920000Y-104880000D03*
X95520000Y-132820000D03*
X113300000Y-97260000D03*
X118380000Y-112500000D03*
X75200000Y-115040000D03*
X103140000Y-120120000D03*
X80280000Y-112500000D03*
X103140000Y-99800000D03*
X110760000Y-125200000D03*
X123460000Y-117580000D03*
X82820000Y-99800000D03*
X123460000Y-135360000D03*
X108220000Y-127740000D03*
X92980000Y-125200000D03*
X95520000Y-125200000D03*
X123460000Y-94720000D03*
X120920000Y-102340000D03*
X77740000Y-130280000D03*
X103140000Y-102340000D03*
X80280000Y-102340000D03*
X80280000Y-107420000D03*
X115840000Y-130280000D03*
X108220000Y-97260000D03*
X82820000Y-125200000D03*
X87900000Y-107420000D03*
X113300000Y-117580000D03*
X98060000Y-130280000D03*
X92980000Y-102340000D03*
X100600000Y-104880000D03*
X85360000Y-122660000D03*
X98060000Y-99800000D03*
X82820000Y-112500000D03*
X90440000Y-132820000D03*
X82820000Y-115040000D03*
X77740000Y-122660000D03*
X77740000Y-99800000D03*
X123460000Y-122660000D03*
X113300000Y-120120000D03*
X103140000Y-94720000D03*
X95520000Y-137900000D03*
X77740000Y-109960000D03*
X118380000Y-130280000D03*
X100600000Y-135360000D03*
X108220000Y-102340000D03*
X90440000Y-94720000D03*
X92980000Y-115040000D03*
X103140000Y-132820000D03*
X92980000Y-104880000D03*
X115840000Y-109960000D03*
X120920000Y-122660000D03*
X115840000Y-102340000D03*
X105680000Y-125200000D03*
X120920000Y-130280000D03*
X85360000Y-137900000D03*
X98060000Y-137900000D03*
X98060000Y-127740000D03*
X85360000Y-102340000D03*
X95520000Y-102340000D03*
X90440000Y-107420000D03*
X110760000Y-135360000D03*
X120920000Y-120120000D03*
X108220000Y-99800000D03*
X100600000Y-130280000D03*
X95520000Y-135360000D03*
X75200000Y-109960000D03*
X110760000Y-109960000D03*
X115840000Y-117580000D03*
X75200000Y-122660000D03*
X108220000Y-112500000D03*
X115840000Y-104880000D03*
X103140000Y-130280000D03*
X80280000Y-109960000D03*
X118380000Y-115040000D03*
X105680000Y-115040000D03*
X75200000Y-112500000D03*
X120920000Y-109960000D03*
X108220000Y-107420000D03*
X113300000Y-115040000D03*
X110760000Y-132820000D03*
X82820000Y-127740000D03*
X87900000Y-115040000D03*
X82820000Y-109960000D03*
X95520000Y-107420000D03*
X110760000Y-137900000D03*
X120920000Y-94720000D03*
X123460000Y-120120000D03*
X110760000Y-104880000D03*
X103140000Y-137900000D03*
X123460000Y-99800000D03*
X105680000Y-130280000D03*
X87900000Y-127740000D03*
X77740000Y-115040000D03*
X98060000Y-102340000D03*
X100600000Y-132820000D03*
X103140000Y-127740000D03*
X85360000Y-130280000D03*
X82820000Y-94720000D03*
X120920000Y-125200000D03*
D11*
X132940000Y-110010000D03*
D12*
X132940000Y-106510000D03*
X132940000Y-103010000D03*
D10*
X92980000Y-135360000D03*
X123460000Y-115040000D03*
X87900000Y-125200000D03*
X75200000Y-125200000D03*
X92980000Y-109960000D03*
X100600000Y-125200000D03*
X100600000Y-102340000D03*
X118380000Y-97260000D03*
X85360000Y-127740000D03*
X85360000Y-99800000D03*
X90440000Y-122660000D03*
X95520000Y-127740000D03*
X118380000Y-104880000D03*
X87900000Y-117580000D03*
X115840000Y-125200000D03*
X118380000Y-137900000D03*
X103140000Y-122660000D03*
X120920000Y-135360000D03*
X100600000Y-97260000D03*
X95520000Y-112500000D03*
X95520000Y-122660000D03*
X85360000Y-117580000D03*
X123460000Y-109960000D03*
X108220000Y-109960000D03*
X87900000Y-104880000D03*
X113300000Y-132820000D03*
X90440000Y-117580000D03*
X87900000Y-132820000D03*
X123460000Y-137900000D03*
X80280000Y-117580000D03*
X103140000Y-125200000D03*
X127540000Y-117580000D03*
X90440000Y-135360000D03*
X110760000Y-117580000D03*
X92980000Y-94720000D03*
X95520000Y-120120000D03*
X118380000Y-94720000D03*
X118380000Y-122660000D03*
X98060000Y-97260000D03*
X92980000Y-117580000D03*
X103140000Y-107420000D03*
X118380000Y-120120000D03*
X103140000Y-115040000D03*
X98060000Y-132820000D03*
X120920000Y-115040000D03*
X100600000Y-120120000D03*
X113300000Y-99800000D03*
X98060000Y-117580000D03*
X115840000Y-94720000D03*
X90440000Y-102340000D03*
X85360000Y-109960000D03*
X95520000Y-130280000D03*
X82820000Y-107420000D03*
X87900000Y-97260000D03*
X80280000Y-104880000D03*
X85360000Y-132820000D03*
X98060000Y-122660000D03*
X87900000Y-94720000D03*
X126000000Y-103010000D03*
X115840000Y-132820000D03*
X75200000Y-107420000D03*
X95520000Y-97260000D03*
X105680000Y-104880000D03*
X126000000Y-106510000D03*
X108220000Y-115040000D03*
X92980000Y-127740000D03*
X80280000Y-122660000D03*
X75200000Y-104880000D03*
X126000000Y-110010000D03*
X98060000Y-125200000D03*
X82820000Y-97260000D03*
X108220000Y-130280000D03*
X80280000Y-130280000D03*
X115840000Y-99800000D03*
X105680000Y-102340000D03*
X92980000Y-122660000D03*
X87900000Y-130280000D03*
X103140000Y-97260000D03*
X98060000Y-112500000D03*
X82820000Y-120120000D03*
X113300000Y-127740000D03*
X105680000Y-122660000D03*
X80280000Y-97260000D03*
X118380000Y-99800000D03*
X115840000Y-115040000D03*
X115840000Y-122660000D03*
X82820000Y-130280000D03*
X115840000Y-112500000D03*
X75200000Y-130280000D03*
X113300000Y-125200000D03*
X80280000Y-127740000D03*
X90440000Y-127740000D03*
X108220000Y-132820000D03*
X123460000Y-127740000D03*
X77740000Y-102340000D03*
X120920000Y-112500000D03*
X92980000Y-120120000D03*
X108220000Y-120120000D03*
X95520000Y-117580000D03*
X100600000Y-122660000D03*
D11*
X132940000Y-129610000D03*
D12*
X132940000Y-126110000D03*
X132940000Y-122610000D03*
D10*
X123460000Y-104880000D03*
X123460000Y-107420000D03*
X113300000Y-104880000D03*
X118380000Y-125200000D03*
X95520000Y-104880000D03*
X98060000Y-135360000D03*
X87900000Y-135360000D03*
X100600000Y-107420000D03*
X100600000Y-109960000D03*
X103140000Y-135360000D03*
X110760000Y-112500000D03*
X110760000Y-122660000D03*
X85360000Y-125200000D03*
X113300000Y-112500000D03*
X95520000Y-109960000D03*
X98060000Y-120120000D03*
X110760000Y-120120000D03*
X108220000Y-125200000D03*
X92980000Y-112500000D03*
X85360000Y-115040000D03*
X113300000Y-102340000D03*
X110760000Y-127740000D03*
X108220000Y-104880000D03*
X77740000Y-120120000D03*
X80280000Y-115040000D03*
X123460000Y-130280000D03*
X115840000Y-97260000D03*
X118380000Y-102340000D03*
X127540000Y-115040000D03*
X87900000Y-122660000D03*
X85360000Y-107420000D03*
X105680000Y-107420000D03*
X123460000Y-97260000D03*
X92980000Y-132820000D03*
X98060000Y-104880000D03*
X85360000Y-97260000D03*
X118380000Y-127740000D03*
X92980000Y-107420000D03*
X80280000Y-94720000D03*
X87900000Y-109960000D03*
X75200000Y-99800000D03*
X75200000Y-97260000D03*
X105680000Y-97260000D03*
X87900000Y-137900000D03*
X90440000Y-137900000D03*
X108220000Y-135360000D03*
X98060000Y-115040000D03*
X118380000Y-135360000D03*
X90440000Y-104880000D03*
X110760000Y-97260000D03*
X75200000Y-127740000D03*
X120920000Y-97260000D03*
X87900000Y-120120000D03*
X80280000Y-120120000D03*
X75200000Y-117580000D03*
X110760000Y-115040000D03*
X87900000Y-112500000D03*
X105680000Y-112500000D03*
X118380000Y-107420000D03*
X120920000Y-132820000D03*
X90440000Y-112500000D03*
X85360000Y-120120000D03*
X110760000Y-99800000D03*
X82820000Y-117580000D03*
X90440000Y-115040000D03*
X123460000Y-132820000D03*
X118380000Y-109960000D03*
X90440000Y-109960000D03*
X87900000Y-102340000D03*
X80280000Y-125200000D03*
X77740000Y-97260000D03*
X85360000Y-104880000D03*
X105680000Y-137900000D03*
X75200000Y-120120000D03*
X110760000Y-107420000D03*
X126000000Y-129610000D03*
X115840000Y-127740000D03*
X98060000Y-107420000D03*
X95520000Y-99800000D03*
X118380000Y-117580000D03*
X105680000Y-99800000D03*
X113300000Y-137900000D03*
X115840000Y-120120000D03*
X110760000Y-94720000D03*
X120920000Y-117580000D03*
X85360000Y-94720000D03*
X105680000Y-120120000D03*
X75200000Y-102340000D03*
X123460000Y-102340000D03*
X120920000Y-107420000D03*
X118380000Y-132820000D03*
X108220000Y-122660000D03*
X90440000Y-125200000D03*
X120920000Y-127740000D03*
X92980000Y-137900000D03*
X120920000Y-99800000D03*
X113300000Y-122660000D03*
X90440000Y-97260000D03*
X103140000Y-117580000D03*
X98060000Y-94720000D03*
X110760000Y-130280000D03*
X90440000Y-99800000D03*
X77740000Y-104880000D03*
X100600000Y-117580000D03*
X113300000Y-130280000D03*
X100600000Y-137900000D03*
X120920000Y-137900000D03*
X82820000Y-122660000D03*
X113300000Y-135360000D03*
X126000000Y-126110000D03*
X92980000Y-130280000D03*
X98060000Y-109960000D03*
X85360000Y-135360000D03*
X105680000Y-117580000D03*
X100600000Y-112500000D03*
X77740000Y-112500000D03*
X90440000Y-130280000D03*
X113300000Y-94720000D03*
X100600000Y-115040000D03*
X108220000Y-137900000D03*
X80280000Y-99800000D03*
X113300000Y-107420000D03*
X92980000Y-97260000D03*
X110760000Y-102340000D03*
X77740000Y-117580000D03*
X115840000Y-107420000D03*
X105680000Y-132820000D03*
X126000000Y-122610000D03*
X103140000Y-104880000D03*
X108220000Y-73660000D03*
X90440000Y-48260000D03*
X87900000Y-60960000D03*
X98060000Y-60960000D03*
X90440000Y-66040000D03*
X110760000Y-81280000D03*
X77740000Y-48260000D03*
X77740000Y-68580000D03*
X110760000Y-53340000D03*
X80280000Y-50800000D03*
X98060000Y-45720000D03*
X120920000Y-88900000D03*
X115840000Y-71120000D03*
X103140000Y-55880000D03*
X103140000Y-68580000D03*
X90440000Y-81280000D03*
X108220000Y-88900000D03*
X80280000Y-45720000D03*
X115840000Y-78740000D03*
X105680000Y-48260000D03*
X82820000Y-73660000D03*
X80280000Y-76200000D03*
X118380000Y-60960000D03*
X110760000Y-58420000D03*
X87900000Y-53340000D03*
X87900000Y-88900000D03*
X105680000Y-83820000D03*
X105680000Y-50800000D03*
X98060000Y-58420000D03*
X126000000Y-73610000D03*
X77740000Y-55880000D03*
X113300000Y-73660000D03*
X100600000Y-63500000D03*
X75200000Y-48260000D03*
X120920000Y-78740000D03*
X110760000Y-66040000D03*
X75200000Y-53340000D03*
X75200000Y-68580000D03*
X85360000Y-55880000D03*
X92980000Y-81280000D03*
X77740000Y-63500000D03*
X120920000Y-83820000D03*
X126000000Y-77110000D03*
X75200000Y-50800000D03*
X123460000Y-53340000D03*
X90440000Y-60960000D03*
X90440000Y-50800000D03*
X120920000Y-68580000D03*
X82820000Y-68580000D03*
X113300000Y-58420000D03*
X126000000Y-80610000D03*
X90440000Y-88900000D03*
X113300000Y-45720000D03*
X123460000Y-83820000D03*
X105680000Y-88900000D03*
X118380000Y-68580000D03*
X108220000Y-86360000D03*
X120920000Y-58420000D03*
X118380000Y-83820000D03*
X100600000Y-66040000D03*
X75200000Y-78740000D03*
X90440000Y-76200000D03*
X90440000Y-63500000D03*
X85360000Y-71120000D03*
X87900000Y-71120000D03*
X113300000Y-86360000D03*
X115840000Y-58420000D03*
X118380000Y-58420000D03*
X80280000Y-71120000D03*
X100600000Y-68580000D03*
X85360000Y-45720000D03*
X110760000Y-45720000D03*
X113300000Y-88900000D03*
X105680000Y-71120000D03*
X75200000Y-71120000D03*
X100600000Y-88900000D03*
X113300000Y-81280000D03*
X95520000Y-50800000D03*
X110760000Y-50800000D03*
X92980000Y-48260000D03*
X120920000Y-50800000D03*
X92980000Y-88900000D03*
X105680000Y-68580000D03*
X85360000Y-86360000D03*
X105680000Y-63500000D03*
X87900000Y-63500000D03*
X110760000Y-48260000D03*
X90440000Y-55880000D03*
X118380000Y-86360000D03*
X98060000Y-66040000D03*
X92980000Y-58420000D03*
X118380000Y-78740000D03*
X85360000Y-48260000D03*
X98060000Y-55880000D03*
X92980000Y-83820000D03*
X123460000Y-48260000D03*
X105680000Y-58420000D03*
X85360000Y-58420000D03*
X87900000Y-73660000D03*
X127540000Y-66040000D03*
X118380000Y-53340000D03*
X115840000Y-48260000D03*
X123460000Y-81280000D03*
X80280000Y-66040000D03*
X77740000Y-71120000D03*
X108220000Y-55880000D03*
X110760000Y-78740000D03*
X120920000Y-48260000D03*
X92980000Y-63500000D03*
X108220000Y-76200000D03*
X110760000Y-71120000D03*
X98060000Y-71120000D03*
X95520000Y-60960000D03*
X113300000Y-63500000D03*
X85360000Y-76200000D03*
X110760000Y-73660000D03*
X110760000Y-63500000D03*
X103140000Y-86360000D03*
X100600000Y-60960000D03*
X100600000Y-58420000D03*
X87900000Y-86360000D03*
X98060000Y-86360000D03*
X95520000Y-55880000D03*
X118380000Y-76200000D03*
X113300000Y-55880000D03*
X123460000Y-58420000D03*
X123460000Y-55880000D03*
D11*
X132940000Y-80610000D03*
D12*
X132940000Y-77110000D03*
X132940000Y-73610000D03*
D10*
X100600000Y-73660000D03*
X95520000Y-68580000D03*
X108220000Y-71120000D03*
X92980000Y-71120000D03*
X120920000Y-63500000D03*
X77740000Y-53340000D03*
X123460000Y-78740000D03*
X108220000Y-83820000D03*
X90440000Y-78740000D03*
X80280000Y-78740000D03*
X113300000Y-76200000D03*
X75200000Y-81280000D03*
X115840000Y-63500000D03*
X82820000Y-81280000D03*
X115840000Y-73660000D03*
X115840000Y-66040000D03*
X118380000Y-50800000D03*
X80280000Y-48260000D03*
X105680000Y-73660000D03*
X113300000Y-78740000D03*
X82820000Y-71120000D03*
X98060000Y-63500000D03*
X103140000Y-48260000D03*
X87900000Y-81280000D03*
X92980000Y-73660000D03*
X105680000Y-53340000D03*
X115840000Y-50800000D03*
X80280000Y-81280000D03*
X108220000Y-81280000D03*
X82820000Y-48260000D03*
X98060000Y-76200000D03*
X126000000Y-61010000D03*
X75200000Y-55880000D03*
X80280000Y-73660000D03*
X92980000Y-78740000D03*
X108220000Y-66040000D03*
X126000000Y-57510000D03*
X105680000Y-55880000D03*
X95520000Y-48260000D03*
X75200000Y-58420000D03*
X115840000Y-83820000D03*
X126000000Y-54010000D03*
X87900000Y-45720000D03*
X98060000Y-73660000D03*
X85360000Y-83820000D03*
X80280000Y-55880000D03*
X87900000Y-48260000D03*
X82820000Y-58420000D03*
X95520000Y-81280000D03*
X85360000Y-60960000D03*
X90440000Y-53340000D03*
X115840000Y-45720000D03*
X98060000Y-68580000D03*
X113300000Y-50800000D03*
X100600000Y-71120000D03*
X120920000Y-66040000D03*
X98060000Y-83820000D03*
X103140000Y-66040000D03*
X118380000Y-71120000D03*
X103140000Y-58420000D03*
X92980000Y-68580000D03*
X98060000Y-48260000D03*
X118380000Y-73660000D03*
X118380000Y-45720000D03*
X95520000Y-71120000D03*
X92980000Y-45720000D03*
X110760000Y-68580000D03*
X90440000Y-86360000D03*
X127540000Y-68580000D03*
X103140000Y-76200000D03*
X80280000Y-68580000D03*
X123460000Y-88900000D03*
X87900000Y-83820000D03*
X90440000Y-68580000D03*
X113300000Y-83820000D03*
X87900000Y-55880000D03*
X108220000Y-60960000D03*
X123460000Y-60960000D03*
X85360000Y-68580000D03*
X95520000Y-73660000D03*
X95520000Y-63500000D03*
X100600000Y-48260000D03*
X120920000Y-86360000D03*
X103140000Y-73660000D03*
X118380000Y-88900000D03*
X115840000Y-76200000D03*
X87900000Y-68580000D03*
X118380000Y-55880000D03*
X95520000Y-78740000D03*
X90440000Y-73660000D03*
X85360000Y-50800000D03*
X85360000Y-78740000D03*
X118380000Y-48260000D03*
X100600000Y-53340000D03*
X113300000Y-53340000D03*
X85360000Y-66040000D03*
X100600000Y-76200000D03*
X92980000Y-60960000D03*
X75200000Y-76200000D03*
X87900000Y-76200000D03*
X123460000Y-66040000D03*
X92980000Y-86360000D03*
D11*
X132940000Y-61010000D03*
D12*
X132940000Y-57510000D03*
X132940000Y-54010000D03*
D10*
X120920000Y-76200000D03*
X82820000Y-45720000D03*
X85360000Y-81280000D03*
X103140000Y-78740000D03*
X100600000Y-83820000D03*
X98060000Y-53340000D03*
X77740000Y-66040000D03*
X87900000Y-78740000D03*
X105680000Y-81280000D03*
X123460000Y-50800000D03*
X103140000Y-88900000D03*
X110760000Y-55880000D03*
X123460000Y-71120000D03*
X120920000Y-45720000D03*
X110760000Y-88900000D03*
X95520000Y-58420000D03*
X82820000Y-60960000D03*
X87900000Y-66040000D03*
X82820000Y-78740000D03*
X110760000Y-83820000D03*
X113300000Y-66040000D03*
X108220000Y-58420000D03*
X120920000Y-60960000D03*
X75200000Y-63500000D03*
X105680000Y-66040000D03*
X118380000Y-66040000D03*
X80280000Y-60960000D03*
X103140000Y-81280000D03*
X115840000Y-55880000D03*
X108220000Y-63500000D03*
X75200000Y-73660000D03*
X115840000Y-68580000D03*
X110760000Y-60960000D03*
X75200000Y-60960000D03*
X95520000Y-86360000D03*
X100600000Y-81280000D03*
X108220000Y-50800000D03*
X120920000Y-71120000D03*
X110760000Y-86360000D03*
X90440000Y-58420000D03*
X95520000Y-53340000D03*
X85360000Y-53340000D03*
X98060000Y-78740000D03*
X98060000Y-88900000D03*
X85360000Y-88900000D03*
X120920000Y-81280000D03*
X105680000Y-76200000D03*
X115840000Y-53340000D03*
X120920000Y-73660000D03*
X115840000Y-60960000D03*
X92980000Y-55880000D03*
X103140000Y-83820000D03*
X92980000Y-66040000D03*
X90440000Y-45720000D03*
X108220000Y-53340000D03*
X100600000Y-86360000D03*
X118380000Y-81280000D03*
X77740000Y-60960000D03*
X95520000Y-88900000D03*
X103140000Y-45720000D03*
X113300000Y-71120000D03*
X123460000Y-73660000D03*
X77740000Y-50800000D03*
X77740000Y-73660000D03*
X82820000Y-66040000D03*
X90440000Y-83820000D03*
X82820000Y-63500000D03*
X98060000Y-50800000D03*
X85360000Y-73660000D03*
X100600000Y-55880000D03*
X92980000Y-53340000D03*
X98060000Y-81280000D03*
X113300000Y-68580000D03*
X87900000Y-58420000D03*
X82820000Y-76200000D03*
X108220000Y-48260000D03*
X115840000Y-81280000D03*
X80280000Y-58420000D03*
X80280000Y-53340000D03*
X103140000Y-53340000D03*
X77740000Y-81280000D03*
X120920000Y-53340000D03*
X123460000Y-45720000D03*
X95520000Y-76200000D03*
X92980000Y-76200000D03*
X108220000Y-78740000D03*
X123460000Y-86360000D03*
X82820000Y-50800000D03*
X123460000Y-68580000D03*
X110760000Y-76200000D03*
X103140000Y-50800000D03*
X80280000Y-63500000D03*
X103140000Y-71120000D03*
X75200000Y-66040000D03*
X118380000Y-63500000D03*
X113300000Y-48260000D03*
X95520000Y-83820000D03*
X120920000Y-55880000D03*
X77740000Y-58420000D03*
X77740000Y-45720000D03*
X115840000Y-88900000D03*
X90440000Y-71120000D03*
X75200000Y-45720000D03*
X100600000Y-50800000D03*
X105680000Y-86360000D03*
X77740000Y-78740000D03*
X105680000Y-45720000D03*
X123460000Y-63500000D03*
X108220000Y-45720000D03*
X100600000Y-78740000D03*
X95520000Y-45720000D03*
X92980000Y-50800000D03*
X100600000Y-45720000D03*
X77740000Y-76200000D03*
X103140000Y-63500000D03*
X82820000Y-55880000D03*
X103140000Y-60960000D03*
X85360000Y-63500000D03*
X113300000Y-60960000D03*
X82820000Y-53340000D03*
X123460000Y-76200000D03*
X115840000Y-86360000D03*
X105680000Y-78740000D03*
X105680000Y-60960000D03*
X108220000Y-68580000D03*
X87900000Y-50800000D03*
X95520000Y-66040000D03*
D13*
X77740000Y-97260000D02*
X77740000Y-99800000D01*
X95520000Y-130280000D02*
X98060000Y-130280000D01*
X85360000Y-109960000D02*
X87900000Y-109960000D01*
X115840000Y-109960000D02*
X118380000Y-109960000D01*
X98060000Y-117580000D02*
X98060000Y-120120000D01*
X118380000Y-107420000D02*
X120920000Y-107420000D01*
X87900000Y-115040000D02*
X87900000Y-117580000D01*
X110760000Y-130280000D02*
X113300000Y-130280000D01*
X82820000Y-97260000D02*
X82820000Y-99800000D01*
X108220000Y-109960000D02*
X110760000Y-109960000D01*
X85360000Y-94720000D02*
X85360000Y-97260000D01*
X100600000Y-120120000D02*
X100600000Y-122660000D01*
X120920000Y-112500000D02*
X120920000Y-115040000D01*
X108220000Y-130280000D02*
X110760000Y-130280000D01*
X100600000Y-130280000D02*
X103140000Y-130280000D01*
X90440000Y-94720000D02*
X90440000Y-97260000D01*
X90440000Y-125200000D02*
X90440000Y-127740000D01*
X105680000Y-125200000D02*
X105680000Y-127740000D01*
X98060000Y-115040000D02*
X98060000Y-117580000D01*
X108220000Y-122660000D02*
X108220000Y-125200000D01*
X123460000Y-120120000D02*
X123460000Y-122660000D01*
X120920000Y-102340000D02*
X120920000Y-104880000D01*
X98060000Y-122660000D02*
X98060000Y-125200000D01*
X115840000Y-122660000D02*
X115840000Y-125200000D01*
X103140000Y-94720000D02*
X103140000Y-97260000D01*
X103140000Y-130280000D02*
X105680000Y-130280000D01*
X110760000Y-102340000D02*
X110760000Y-104880000D01*
X77740000Y-130280000D02*
X80280000Y-130280000D01*
X115840000Y-132820000D02*
X118380000Y-132820000D01*
X120920000Y-97260000D02*
X120920000Y-99800000D01*
X100600000Y-122660000D02*
X100600000Y-125200000D01*
X90440000Y-109960000D02*
X92980000Y-109960000D01*
X113300000Y-102340000D02*
X113300000Y-104880000D01*
X90440000Y-102340000D02*
X90440000Y-104880000D01*
X90440000Y-135360000D02*
X90440000Y-137900000D01*
X100600000Y-94720000D02*
X100600000Y-97260000D01*
X103140000Y-115040000D02*
X103140000Y-117580000D01*
X80280000Y-97260000D02*
X80280000Y-99800000D01*
X92980000Y-120120000D02*
X92980000Y-122660000D01*
X85360000Y-125200000D02*
X85360000Y-127740000D01*
X95520000Y-117580000D02*
X95520000Y-120120000D01*
X126000000Y-126110000D02*
X131290000Y-126110000D01*
X90440000Y-97260000D02*
X90440000Y-99800000D01*
X113300000Y-132820000D02*
X115840000Y-132820000D01*
X80280000Y-107420000D02*
X82820000Y-107420000D01*
X82820000Y-122660000D02*
X82820000Y-125200000D01*
X110760000Y-122660000D02*
X110760000Y-125200000D01*
X77740000Y-125200000D02*
X77740000Y-127740000D01*
X105680000Y-132820000D02*
X108220000Y-132820000D01*
X113300000Y-109960000D02*
X115840000Y-109960000D01*
X95520000Y-109960000D02*
X98060000Y-109960000D01*
X98060000Y-125200000D02*
X98060000Y-127740000D01*
X77740000Y-112500000D02*
X77740000Y-115040000D01*
X110760000Y-132820000D02*
X113300000Y-132820000D01*
X100600000Y-102340000D02*
X100600000Y-104880000D01*
X75200000Y-117580000D02*
X75200000Y-120120000D01*
X103140000Y-120120000D02*
X103140000Y-122660000D01*
X92980000Y-102340000D02*
X92980000Y-104880000D01*
X126000000Y-129610000D02*
X131290000Y-129610000D01*
X95520000Y-97260000D02*
X95520000Y-99800000D01*
X82820000Y-117580000D02*
X82820000Y-120120000D01*
X118380000Y-117580000D02*
X118380000Y-120120000D01*
X120920000Y-132820000D02*
X123460000Y-132820000D01*
X110760000Y-115040000D02*
X110760000Y-117580000D01*
X95520000Y-102340000D02*
X95520000Y-104880000D01*
X95520000Y-112500000D02*
X95520000Y-115040000D01*
X90440000Y-107420000D02*
X92980000Y-107420000D01*
X75200000Y-120120000D02*
X75200000Y-122660000D01*
X87900000Y-122660000D02*
X87900000Y-125200000D01*
X103140000Y-122660000D02*
X103140000Y-125200000D01*
X110760000Y-97260000D02*
X110760000Y-99800000D01*
X118380000Y-125200000D02*
X118380000Y-127740000D01*
X100600000Y-135360000D02*
X100600000Y-137900000D01*
X90440000Y-117580000D02*
X90440000Y-120120000D01*
X87900000Y-109960000D02*
X90440000Y-109960000D01*
X95520000Y-125200000D02*
X95520000Y-127740000D01*
X95520000Y-94720000D02*
X95520000Y-97260000D01*
X118380000Y-109960000D02*
X120920000Y-109960000D01*
X113300000Y-135360000D02*
X113300000Y-137900000D01*
X110760000Y-125200000D02*
X110760000Y-127740000D01*
X100600000Y-97260000D02*
X100600000Y-99800000D01*
X98060000Y-102340000D02*
X98060000Y-104880000D01*
X118380000Y-112500000D02*
X118380000Y-115040000D01*
X82820000Y-109960000D02*
X85360000Y-109960000D01*
X82820000Y-130280000D02*
X85360000Y-130280000D01*
X115840000Y-97260000D02*
X115840000Y-99800000D01*
X87900000Y-97260000D02*
X87900000Y-99800000D01*
X103140000Y-132820000D02*
X105680000Y-132820000D01*
X113300000Y-115040000D02*
X113300000Y-117580000D01*
X95520000Y-122660000D02*
X95520000Y-125200000D01*
X108220000Y-102340000D02*
X108220000Y-104880000D01*
X95520000Y-132820000D02*
X98060000Y-132820000D01*
X77740000Y-117580000D02*
X77740000Y-120120000D01*
X113300000Y-120120000D02*
X113300000Y-122660000D01*
X120920000Y-122660000D02*
X120920000Y-125200000D01*
X87900000Y-135360000D02*
X87900000Y-137900000D01*
X118380000Y-97260000D02*
X118380000Y-99800000D01*
X87900000Y-117580000D02*
X87900000Y-120120000D01*
X92980000Y-135360000D02*
X92980000Y-137900000D01*
X85360000Y-117580000D02*
X85360000Y-120120000D01*
X75200000Y-112500000D02*
X75200000Y-115040000D01*
X90440000Y-115040000D02*
X90440000Y-117580000D01*
X77740000Y-107420000D02*
X80280000Y-107420000D01*
X103140000Y-97260000D02*
X103140000Y-99800000D01*
X92980000Y-107420000D02*
X95520000Y-107420000D01*
X75200000Y-109960000D02*
X77740000Y-109960000D01*
X100600000Y-107420000D02*
X103140000Y-107420000D01*
X103140000Y-112500000D02*
X103140000Y-115040000D01*
X80280000Y-115040000D02*
X80280000Y-117580000D01*
X123460000Y-135360000D02*
X123460000Y-137900000D01*
X105680000Y-107420000D02*
X108220000Y-107420000D01*
X126000000Y-106510000D02*
X131290000Y-106510000D01*
X120920000Y-109960000D02*
X123460000Y-109960000D01*
X126000000Y-103010000D02*
X131290000Y-103010000D01*
X105680000Y-135360000D02*
X105680000Y-137900000D01*
X85360000Y-135360000D02*
X85360000Y-137900000D01*
X75200000Y-102340000D02*
X75200000Y-104880000D01*
X77740000Y-115040000D02*
X77740000Y-117580000D01*
X108220000Y-120120000D02*
X108220000Y-122660000D01*
X85360000Y-120120000D02*
X85360000Y-122660000D01*
X82820000Y-94720000D02*
X82820000Y-97260000D01*
X105680000Y-130280000D02*
X108220000Y-130280000D01*
X113300000Y-122660000D02*
X113300000Y-125200000D01*
X105680000Y-122660000D02*
X105680000Y-125200000D01*
X103140000Y-135360000D02*
X103140000Y-137900000D01*
X90440000Y-130280000D02*
X92980000Y-130280000D01*
X120920000Y-125200000D02*
X120920000Y-127740000D01*
X103140000Y-125200000D02*
X103140000Y-127740000D01*
X103140000Y-109960000D02*
X105680000Y-109960000D01*
X115840000Y-120120000D02*
X115840000Y-122660000D01*
X115840000Y-94720000D02*
X115840000Y-97260000D01*
X120920000Y-120120000D02*
X120920000Y-122660000D01*
X120920000Y-130280000D02*
X123460000Y-130280000D01*
X118380000Y-94720000D02*
X118380000Y-97260000D01*
X85360000Y-115040000D02*
X85360000Y-117580000D01*
X75200000Y-115040000D02*
X75200000Y-117580000D01*
X75200000Y-107420000D02*
X77740000Y-107420000D01*
X110760000Y-109960000D02*
X113300000Y-109960000D01*
X92980000Y-125200000D02*
X92980000Y-127740000D01*
X82820000Y-115040000D02*
X82820000Y-117580000D01*
X75200000Y-94720000D02*
X75200000Y-97260000D01*
X80280000Y-112500000D02*
X80280000Y-115040000D01*
X80280000Y-102340000D02*
X80280000Y-104880000D01*
X95520000Y-120120000D02*
X95520000Y-122660000D01*
X95520000Y-107420000D02*
X98060000Y-107420000D01*
X82820000Y-125200000D02*
X82820000Y-127740000D01*
X77740000Y-94720000D02*
X77740000Y-97260000D01*
X103140000Y-107420000D02*
X105680000Y-107420000D01*
X85360000Y-102340000D02*
X85360000Y-104880000D01*
X123460000Y-97260000D02*
X123460000Y-99800000D01*
X115840000Y-125200000D02*
X115840000Y-127740000D01*
X87900000Y-94720000D02*
X87900000Y-97260000D01*
X92980000Y-130280000D02*
X95520000Y-130280000D01*
X123460000Y-125200000D02*
X123460000Y-127740000D01*
X113300000Y-97260000D02*
X113300000Y-99800000D01*
X118380000Y-120120000D02*
X118380000Y-122660000D01*
X123460000Y-94720000D02*
X123460000Y-97260000D01*
X82820000Y-107420000D02*
X85360000Y-107420000D01*
X85360000Y-97260000D02*
X85360000Y-99800000D01*
X87900000Y-112500000D02*
X87900000Y-115040000D01*
X113300000Y-94720000D02*
X113300000Y-97260000D01*
X87900000Y-102340000D02*
X87900000Y-104880000D01*
X110760000Y-107420000D02*
X113300000Y-107420000D01*
X105680000Y-117580000D02*
X105680000Y-120120000D01*
X118380000Y-132820000D02*
X120920000Y-132820000D01*
X113300000Y-130280000D02*
X115840000Y-130280000D01*
X108220000Y-112500000D02*
X108220000Y-115040000D01*
X108220000Y-94720000D02*
X108220000Y-97260000D01*
X118380000Y-102340000D02*
X118380000Y-104880000D01*
X85360000Y-122660000D02*
X85360000Y-125200000D01*
X90440000Y-120120000D02*
X90440000Y-122660000D01*
X115840000Y-117580000D02*
X115840000Y-120120000D01*
X123460000Y-112500000D02*
X123460000Y-115040000D01*
X105680000Y-115040000D02*
X105680000Y-117580000D01*
X95520000Y-135360000D02*
X95520000Y-137900000D01*
X90440000Y-122660000D02*
X90440000Y-125200000D01*
X108220000Y-125200000D02*
X108220000Y-127740000D01*
X105680000Y-94720000D02*
X105680000Y-97260000D01*
X80280000Y-120120000D02*
X80280000Y-122660000D01*
X123460000Y-122660000D02*
X123460000Y-125200000D01*
X98060000Y-120120000D02*
X98060000Y-122660000D01*
X77740000Y-120120000D02*
X77740000Y-122660000D01*
X92980000Y-117580000D02*
X92980000Y-120120000D01*
X115840000Y-115040000D02*
X115840000Y-117580000D01*
X80280000Y-109960000D02*
X82820000Y-109960000D01*
X92980000Y-94720000D02*
X92980000Y-97260000D01*
X90440000Y-132820000D02*
X92980000Y-132820000D01*
X115840000Y-102340000D02*
X115840000Y-104880000D01*
X75200000Y-122660000D02*
X75200000Y-125200000D01*
X82820000Y-102340000D02*
X82820000Y-104880000D01*
X110760000Y-120120000D02*
X110760000Y-122660000D01*
X120920000Y-115040000D02*
X120920000Y-117580000D01*
X98060000Y-112500000D02*
X98060000Y-115040000D01*
X92980000Y-97260000D02*
X92980000Y-99800000D01*
X108220000Y-97260000D02*
X108220000Y-99800000D01*
X100600000Y-112500000D02*
X100600000Y-115040000D01*
X100600000Y-115040000D02*
X100600000Y-117580000D01*
X110760000Y-112500000D02*
X110760000Y-115040000D01*
X105680000Y-112500000D02*
X105680000Y-115040000D01*
X87900000Y-120120000D02*
X87900000Y-122660000D01*
X113300000Y-125200000D02*
X113300000Y-127740000D01*
X85360000Y-130280000D02*
X87900000Y-130280000D01*
X118380000Y-122660000D02*
X118380000Y-125200000D01*
X77740000Y-122660000D02*
X77740000Y-125200000D01*
X87900000Y-132820000D02*
X90440000Y-132820000D01*
X75200000Y-125200000D02*
X75200000Y-127740000D01*
X100600000Y-125200000D02*
X100600000Y-127740000D01*
X105680000Y-97260000D02*
X105680000Y-99800000D01*
X110760000Y-94720000D02*
X110760000Y-97260000D01*
X108220000Y-117580000D02*
X108220000Y-120120000D01*
X75200000Y-97260000D02*
X75200000Y-99800000D01*
X120920000Y-94720000D02*
X120920000Y-97260000D01*
X77740000Y-102340000D02*
X77740000Y-104880000D01*
X92980000Y-122660000D02*
X92980000Y-125200000D01*
X92980000Y-115040000D02*
X92980000Y-117580000D01*
X105680000Y-120120000D02*
X105680000Y-122660000D01*
X120920000Y-117580000D02*
X120920000Y-120120000D01*
X80280000Y-122660000D02*
X80280000Y-125200000D01*
X82820000Y-112500000D02*
X82820000Y-115040000D01*
X100600000Y-109960000D02*
X103140000Y-109960000D01*
X115840000Y-112500000D02*
X115840000Y-115040000D01*
X123460000Y-115040000D02*
X123460000Y-117580000D01*
X82820000Y-120120000D02*
X82820000Y-122660000D01*
X126000000Y-110010000D02*
X131290000Y-110010000D01*
X92980000Y-109960000D02*
X95520000Y-109960000D01*
X118380000Y-115040000D02*
X118380000Y-117580000D01*
X115840000Y-135360000D02*
X115840000Y-137900000D01*
X100600000Y-132820000D02*
X103140000Y-132820000D01*
X120920000Y-107420000D02*
X123460000Y-107420000D01*
X98060000Y-135360000D02*
X98060000Y-137900000D01*
X75200000Y-130280000D02*
X77740000Y-130280000D01*
X108220000Y-107420000D02*
X110760000Y-107420000D01*
X80280000Y-117580000D02*
X80280000Y-120120000D01*
X108220000Y-115040000D02*
X108220000Y-117580000D01*
X85360000Y-107420000D02*
X87900000Y-107420000D01*
X87900000Y-107420000D02*
X90440000Y-107420000D01*
X113300000Y-107420000D02*
X115840000Y-107420000D01*
X105680000Y-109960000D02*
X108220000Y-109960000D01*
X123460000Y-102340000D02*
X123460000Y-104880000D01*
X103140000Y-102340000D02*
X103140000Y-104880000D01*
X110760000Y-117580000D02*
X110760000Y-120120000D01*
X118380000Y-130280000D02*
X120920000Y-130280000D01*
X110760000Y-135360000D02*
X110760000Y-137900000D01*
X98060000Y-97260000D02*
X98060000Y-99800000D01*
X115840000Y-107420000D02*
X118380000Y-107420000D01*
X85360000Y-132820000D02*
X87900000Y-132820000D01*
X113300000Y-112500000D02*
X113300000Y-115040000D01*
X85360000Y-112500000D02*
X85360000Y-115040000D01*
X120920000Y-135360000D02*
X120920000Y-137900000D01*
X80280000Y-94720000D02*
X80280000Y-97260000D01*
X108220000Y-132820000D02*
X110760000Y-132820000D01*
X105680000Y-102340000D02*
X105680000Y-104880000D01*
X123460000Y-117580000D02*
X123460000Y-120120000D01*
X126000000Y-122610000D02*
X131290000Y-122610000D01*
X80280000Y-125200000D02*
X80280000Y-127740000D01*
X103140000Y-117580000D02*
X103140000Y-120120000D01*
X113300000Y-117580000D02*
X113300000Y-120120000D01*
X92980000Y-112500000D02*
X92980000Y-115040000D01*
X87900000Y-130280000D02*
X90440000Y-130280000D01*
X87900000Y-125200000D02*
X87900000Y-127740000D01*
X92980000Y-132820000D02*
X95520000Y-132820000D01*
X100600000Y-117580000D02*
X100600000Y-120120000D01*
X90440000Y-112500000D02*
X90440000Y-115040000D01*
X118380000Y-135360000D02*
X118380000Y-137900000D01*
X80280000Y-130280000D02*
X82820000Y-130280000D01*
X108220000Y-135360000D02*
X108220000Y-137900000D01*
X95520000Y-115040000D02*
X95520000Y-117580000D01*
X98060000Y-94720000D02*
X98060000Y-97260000D01*
X77740000Y-109960000D02*
X80280000Y-109960000D01*
X115840000Y-130280000D02*
X118380000Y-130280000D01*
X115840000Y-81280000D02*
X118380000Y-81280000D01*
X85360000Y-63500000D02*
X85360000Y-66040000D01*
X113300000Y-63500000D02*
X113300000Y-66040000D01*
X85360000Y-83820000D02*
X87900000Y-83820000D01*
X115840000Y-58420000D02*
X118380000Y-58420000D01*
X98060000Y-48260000D02*
X98060000Y-50800000D01*
X110760000Y-86360000D02*
X110760000Y-88900000D01*
X118380000Y-81280000D02*
X120920000Y-81280000D01*
X110760000Y-68580000D02*
X110760000Y-71120000D01*
X103140000Y-53340000D02*
X103140000Y-55880000D01*
X123460000Y-53340000D02*
X123460000Y-55880000D01*
X105680000Y-60960000D02*
X108220000Y-60960000D01*
X113300000Y-58420000D02*
X115840000Y-58420000D01*
X87900000Y-58420000D02*
X90440000Y-58420000D01*
X85360000Y-58420000D02*
X87900000Y-58420000D01*
X108220000Y-66040000D02*
X108220000Y-68580000D01*
X80280000Y-68580000D02*
X80280000Y-71120000D01*
X108220000Y-58420000D02*
X110760000Y-58420000D01*
X75200000Y-81280000D02*
X77740000Y-81280000D01*
X98060000Y-86360000D02*
X98060000Y-88900000D01*
X120920000Y-58420000D02*
X123460000Y-58420000D01*
X100600000Y-83820000D02*
X103140000Y-83820000D01*
X115840000Y-86360000D02*
X115840000Y-88900000D01*
X118380000Y-66040000D02*
X118380000Y-68580000D01*
X92980000Y-60960000D02*
X95520000Y-60960000D01*
X126000000Y-61010000D02*
X131290000Y-61010000D01*
X82820000Y-71120000D02*
X82820000Y-73660000D01*
X123460000Y-66040000D02*
X123460000Y-68580000D01*
X115840000Y-63500000D02*
X115840000Y-66040000D01*
X100600000Y-60960000D02*
X103140000Y-60960000D01*
X82820000Y-63500000D02*
X82820000Y-66040000D01*
X80280000Y-73660000D02*
X80280000Y-76200000D01*
X120920000Y-68580000D02*
X120920000Y-71120000D01*
X105680000Y-71120000D02*
X105680000Y-73660000D01*
X92980000Y-66040000D02*
X92980000Y-68580000D01*
X92980000Y-73660000D02*
X92980000Y-76200000D01*
X77740000Y-53340000D02*
X77740000Y-55880000D01*
X120920000Y-45720000D02*
X120920000Y-48260000D01*
X75200000Y-48260000D02*
X75200000Y-50800000D01*
X108220000Y-68580000D02*
X108220000Y-71120000D01*
X110760000Y-45720000D02*
X110760000Y-48260000D01*
X105680000Y-48260000D02*
X105680000Y-50800000D01*
X100600000Y-76200000D02*
X100600000Y-78740000D01*
X75200000Y-76200000D02*
X75200000Y-78740000D01*
X87900000Y-83820000D02*
X90440000Y-83820000D01*
X77740000Y-73660000D02*
X77740000Y-76200000D01*
X118380000Y-73660000D02*
X118380000Y-76200000D01*
X85360000Y-81280000D02*
X87900000Y-81280000D01*
X113300000Y-76200000D02*
X113300000Y-78740000D01*
X87900000Y-71120000D02*
X87900000Y-73660000D01*
X105680000Y-63500000D02*
X105680000Y-66040000D01*
X110760000Y-63500000D02*
X110760000Y-66040000D01*
X100600000Y-66040000D02*
X100600000Y-68580000D01*
X100600000Y-63500000D02*
X100600000Y-66040000D01*
X108220000Y-48260000D02*
X108220000Y-50800000D01*
X92980000Y-48260000D02*
X92980000Y-50800000D01*
X98060000Y-63500000D02*
X98060000Y-66040000D01*
X120920000Y-66040000D02*
X120920000Y-68580000D01*
X110760000Y-71120000D02*
X110760000Y-73660000D01*
X82820000Y-53340000D02*
X82820000Y-55880000D01*
X75200000Y-73660000D02*
X75200000Y-76200000D01*
X115840000Y-53340000D02*
X115840000Y-55880000D01*
X90440000Y-83820000D02*
X92980000Y-83820000D01*
X92980000Y-45720000D02*
X92980000Y-48260000D01*
X80280000Y-60960000D02*
X82820000Y-60960000D01*
X115840000Y-66040000D02*
X115840000Y-68580000D01*
X92980000Y-68580000D02*
X92980000Y-71120000D01*
X77740000Y-71120000D02*
X77740000Y-73660000D01*
X98060000Y-71120000D02*
X98060000Y-73660000D01*
X123460000Y-73660000D02*
X123460000Y-76200000D01*
X80280000Y-71120000D02*
X80280000Y-73660000D01*
X105680000Y-45720000D02*
X105680000Y-48260000D01*
X108220000Y-76200000D02*
X108220000Y-78740000D01*
X90440000Y-73660000D02*
X90440000Y-76200000D01*
X95520000Y-86360000D02*
X95520000Y-88900000D01*
X105680000Y-66040000D02*
X105680000Y-68580000D01*
X123460000Y-63500000D02*
X123460000Y-66040000D01*
X115840000Y-68580000D02*
X115840000Y-71120000D01*
X90440000Y-71120000D02*
X90440000Y-73660000D01*
X85360000Y-73660000D02*
X85360000Y-76200000D01*
X118380000Y-53340000D02*
X118380000Y-55880000D01*
X108220000Y-45720000D02*
X108220000Y-48260000D01*
X108220000Y-63500000D02*
X108220000Y-66040000D01*
X113300000Y-81280000D02*
X115840000Y-81280000D01*
X118380000Y-83820000D02*
X120920000Y-83820000D01*
X105680000Y-68580000D02*
X105680000Y-71120000D01*
X110760000Y-58420000D02*
X113300000Y-58420000D01*
X87900000Y-53340000D02*
X87900000Y-55880000D01*
X113300000Y-45720000D02*
X113300000Y-48260000D01*
X87900000Y-63500000D02*
X87900000Y-66040000D01*
X85360000Y-48260000D02*
X85360000Y-50800000D01*
X82820000Y-58420000D02*
X85360000Y-58420000D01*
X123460000Y-45720000D02*
X123460000Y-48260000D01*
X118380000Y-71120000D02*
X118380000Y-73660000D01*
X113300000Y-48260000D02*
X113300000Y-50800000D01*
X123460000Y-76200000D02*
X123460000Y-78740000D01*
X92980000Y-81280000D02*
X95520000Y-81280000D01*
X87900000Y-45720000D02*
X87900000Y-48260000D01*
X115840000Y-76200000D02*
X115840000Y-78740000D01*
X123460000Y-48260000D02*
X123460000Y-50800000D01*
X85360000Y-53340000D02*
X85360000Y-55880000D01*
X103140000Y-58420000D02*
X105680000Y-58420000D01*
X77740000Y-45720000D02*
X77740000Y-48260000D01*
X82820000Y-76200000D02*
X82820000Y-78740000D01*
X95520000Y-58420000D02*
X98060000Y-58420000D01*
X95520000Y-71120000D02*
X95520000Y-73660000D01*
X80280000Y-53340000D02*
X80280000Y-55880000D01*
X80280000Y-63500000D02*
X80280000Y-66040000D01*
X77740000Y-60960000D02*
X80280000Y-60960000D01*
X98060000Y-45720000D02*
X98060000Y-48260000D01*
X95520000Y-66040000D02*
X95520000Y-68580000D01*
X108220000Y-86360000D02*
X108220000Y-88900000D01*
X80280000Y-81280000D02*
X82820000Y-81280000D01*
X118380000Y-86360000D02*
X118380000Y-88900000D01*
X90440000Y-63500000D02*
X90440000Y-66040000D01*
X100600000Y-68580000D02*
X100600000Y-71120000D01*
X92980000Y-83820000D02*
X95520000Y-83820000D01*
X87900000Y-76200000D02*
X87900000Y-78740000D01*
X87900000Y-81280000D02*
X90440000Y-81280000D01*
X92980000Y-63500000D02*
X92980000Y-66040000D01*
X113300000Y-68580000D02*
X113300000Y-71120000D01*
X103140000Y-68580000D02*
X103140000Y-71120000D01*
X80280000Y-76200000D02*
X80280000Y-78740000D01*
X126000000Y-73610000D02*
X131290000Y-73610000D01*
X123460000Y-68580000D02*
X123460000Y-71120000D01*
X105680000Y-53340000D02*
X105680000Y-55880000D01*
X108220000Y-83820000D02*
X110760000Y-83820000D01*
X80280000Y-45720000D02*
X80280000Y-48260000D01*
X120920000Y-86360000D02*
X120920000Y-88900000D01*
X75200000Y-45720000D02*
X75200000Y-48260000D01*
X82820000Y-66040000D02*
X82820000Y-68580000D01*
X92980000Y-76200000D02*
X92980000Y-78740000D01*
X110760000Y-60960000D02*
X113300000Y-60960000D01*
X75200000Y-58420000D02*
X77740000Y-58420000D01*
X75200000Y-66040000D02*
X75200000Y-68580000D01*
X85360000Y-66040000D02*
X85360000Y-68580000D01*
X118380000Y-45720000D02*
X118380000Y-48260000D01*
X120920000Y-81280000D02*
X123460000Y-81280000D01*
X120920000Y-71120000D02*
X120920000Y-73660000D01*
X115840000Y-45720000D02*
X115840000Y-48260000D01*
X115840000Y-71120000D02*
X115840000Y-73660000D01*
X103140000Y-60960000D02*
X105680000Y-60960000D01*
X103140000Y-76200000D02*
X103140000Y-78740000D01*
X120920000Y-76200000D02*
X120920000Y-78740000D01*
X90440000Y-81280000D02*
X92980000Y-81280000D01*
X103140000Y-86360000D02*
X103140000Y-88900000D01*
X105680000Y-73660000D02*
X105680000Y-76200000D01*
X113300000Y-73660000D02*
X113300000Y-76200000D01*
X105680000Y-81280000D02*
X108220000Y-81280000D01*
X82820000Y-45720000D02*
X82820000Y-48260000D01*
X85360000Y-71120000D02*
X85360000Y-73660000D01*
X108220000Y-71120000D02*
X108220000Y-73660000D01*
X77740000Y-66040000D02*
X77740000Y-68580000D01*
X75200000Y-53340000D02*
X75200000Y-55880000D01*
X85360000Y-86360000D02*
X85360000Y-88900000D01*
X105680000Y-86360000D02*
X105680000Y-88900000D01*
X126000000Y-54010000D02*
X131290000Y-54010000D01*
X120920000Y-60960000D02*
X123460000Y-60960000D01*
X126000000Y-57510000D02*
X131290000Y-57510000D01*
X105680000Y-58420000D02*
X108220000Y-58420000D01*
X123460000Y-86360000D02*
X123460000Y-88900000D01*
X80280000Y-66040000D02*
X80280000Y-68580000D01*
X103140000Y-63500000D02*
X103140000Y-66040000D01*
X100600000Y-58420000D02*
X103140000Y-58420000D01*
X75200000Y-60960000D02*
X77740000Y-60960000D01*
X92980000Y-58420000D02*
X95520000Y-58420000D01*
X103140000Y-48260000D02*
X103140000Y-50800000D01*
X77740000Y-58420000D02*
X80280000Y-58420000D01*
X90440000Y-66040000D02*
X90440000Y-68580000D01*
X75200000Y-63500000D02*
X75200000Y-66040000D01*
X85360000Y-68580000D02*
X85360000Y-71120000D01*
X92980000Y-86360000D02*
X92980000Y-88900000D01*
X87900000Y-68580000D02*
X87900000Y-71120000D01*
X118380000Y-48260000D02*
X118380000Y-50800000D01*
X87900000Y-86360000D02*
X87900000Y-88900000D01*
X120920000Y-73660000D02*
X120920000Y-76200000D01*
X113300000Y-71120000D02*
X113300000Y-73660000D01*
X77740000Y-68580000D02*
X77740000Y-71120000D01*
X95520000Y-83820000D02*
X98060000Y-83820000D01*
X108220000Y-53340000D02*
X108220000Y-55880000D01*
X95520000Y-73660000D02*
X95520000Y-76200000D01*
X113300000Y-66040000D02*
X113300000Y-68580000D01*
X103140000Y-83820000D02*
X105680000Y-83820000D01*
X87900000Y-48260000D02*
X87900000Y-50800000D01*
X115840000Y-48260000D02*
X115840000Y-50800000D01*
X82820000Y-81280000D02*
X85360000Y-81280000D01*
X82820000Y-60960000D02*
X85360000Y-60960000D01*
X118380000Y-63500000D02*
X118380000Y-66040000D01*
X98060000Y-53340000D02*
X98060000Y-55880000D01*
X100600000Y-48260000D02*
X100600000Y-50800000D01*
X110760000Y-76200000D02*
X110760000Y-78740000D01*
X113300000Y-86360000D02*
X113300000Y-88900000D01*
X118380000Y-60960000D02*
X120920000Y-60960000D01*
X95520000Y-45720000D02*
X95520000Y-48260000D01*
X95520000Y-76200000D02*
X95520000Y-78740000D01*
X87900000Y-60960000D02*
X90440000Y-60960000D01*
X90440000Y-68580000D02*
X90440000Y-71120000D01*
X100600000Y-86360000D02*
X100600000Y-88900000D01*
X118380000Y-76200000D02*
X118380000Y-78740000D01*
X110760000Y-48260000D02*
X110760000Y-50800000D01*
X103140000Y-73660000D02*
X103140000Y-76200000D01*
X87900000Y-73660000D02*
X87900000Y-76200000D01*
X75200000Y-71120000D02*
X75200000Y-73660000D01*
X90440000Y-58420000D02*
X92980000Y-58420000D01*
X95520000Y-63500000D02*
X95520000Y-66040000D01*
X95520000Y-53340000D02*
X95520000Y-55880000D01*
X110760000Y-66040000D02*
X110760000Y-68580000D01*
X120920000Y-83820000D02*
X123460000Y-83820000D01*
X118380000Y-68580000D02*
X118380000Y-71120000D01*
X82820000Y-68580000D02*
X82820000Y-71120000D01*
X95520000Y-48260000D02*
X95520000Y-50800000D01*
X126000000Y-80610000D02*
X131290000Y-80610000D01*
X92980000Y-53340000D02*
X92980000Y-55880000D01*
X103140000Y-71120000D02*
X103140000Y-73660000D01*
X75200000Y-68580000D02*
X75200000Y-71120000D01*
X100600000Y-53340000D02*
X100600000Y-55880000D01*
X110760000Y-83820000D02*
X113300000Y-83820000D01*
X77740000Y-63500000D02*
X77740000Y-66040000D01*
X98060000Y-76200000D02*
X98060000Y-78740000D01*
X95520000Y-60960000D02*
X98060000Y-60960000D01*
X113300000Y-60960000D02*
X115840000Y-60960000D01*
X105680000Y-83820000D02*
X108220000Y-83820000D01*
X77740000Y-76200000D02*
X77740000Y-78740000D01*
X110760000Y-73660000D02*
X110760000Y-76200000D01*
X82820000Y-73660000D02*
X82820000Y-76200000D01*
X80280000Y-58420000D02*
X82820000Y-58420000D01*
X113300000Y-83820000D02*
X115840000Y-83820000D01*
X90440000Y-48260000D02*
X90440000Y-50800000D01*
X126000000Y-77110000D02*
X131290000Y-77110000D01*
X95520000Y-68580000D02*
X95520000Y-71120000D01*
X85360000Y-76200000D02*
X85360000Y-78740000D01*
X92980000Y-71120000D02*
X92980000Y-73660000D01*
X80280000Y-48260000D02*
X80280000Y-50800000D01*
X103140000Y-66040000D02*
X103140000Y-68580000D01*
X100600000Y-45720000D02*
X100600000Y-48260000D01*
X90440000Y-86360000D02*
X90440000Y-88900000D01*
X90440000Y-53340000D02*
X90440000Y-55880000D01*
X113300000Y-53340000D02*
X113300000Y-55880000D01*
X90440000Y-60960000D02*
X92980000Y-60960000D01*
X100600000Y-73660000D02*
X100600000Y-76200000D01*
X120920000Y-48260000D02*
X120920000Y-50800000D01*
X115840000Y-83820000D02*
X118380000Y-83820000D01*
X77740000Y-81280000D02*
X80280000Y-81280000D01*
X110760000Y-53340000D02*
X110760000Y-55880000D01*
X103140000Y-81280000D02*
X105680000Y-81280000D01*
X103140000Y-45720000D02*
X103140000Y-48260000D01*
X115840000Y-73660000D02*
X115840000Y-76200000D01*
X98060000Y-73660000D02*
X98060000Y-76200000D01*
X120920000Y-53340000D02*
X120920000Y-55880000D01*
X123460000Y-71120000D02*
X123460000Y-73660000D01*
X108220000Y-73660000D02*
X108220000Y-76200000D01*
X98060000Y-66040000D02*
X98060000Y-68580000D01*
X105680000Y-76200000D02*
X105680000Y-78740000D01*
X90440000Y-76200000D02*
X90440000Y-78740000D01*
X90440000Y-45720000D02*
X90440000Y-48260000D01*
X100600000Y-81280000D02*
X103140000Y-81280000D01*
X108220000Y-81280000D02*
X110760000Y-81280000D01*
X120920000Y-63500000D02*
X120920000Y-66040000D01*
X100600000Y-71120000D02*
X100600000Y-73660000D01*
X85360000Y-45720000D02*
X85360000Y-48260000D01*
X108220000Y-60960000D02*
X110760000Y-60960000D01*
X82820000Y-48260000D02*
X82820000Y-50800000D01*
X110760000Y-81280000D02*
X113300000Y-81280000D01*
X87900000Y-66040000D02*
X87900000Y-68580000D01*
X118380000Y-58420000D02*
X120920000Y-58420000D01*
X98060000Y-68580000D02*
X98060000Y-71120000D01*
X115840000Y-60960000D02*
X118380000Y-60960000D01*
X85360000Y-60960000D02*
X87900000Y-60960000D01*
X95520000Y-81280000D02*
X98060000Y-81280000D01*
X77740000Y-48260000D02*
X77740000Y-50800000D01*
G04 #@! TA.AperFunction,Conductor*
G36*
X132856621Y-42855502D02*
G01*
X132903114Y-42909158D01*
X132914500Y-42961500D01*
X132914500Y-43054165D01*
X132950993Y-43541130D01*
X132950993Y-43541131D01*
X132950994Y-43541135D01*
X133023776Y-44024015D01*
X133023779Y-44024026D01*
X133132438Y-44500094D01*
X133132444Y-44500117D01*
X133276376Y-44966735D01*
X133454785Y-45421314D01*
X133454800Y-45421347D01*
X133666662Y-45861283D01*
X133666665Y-45861290D01*
X133910835Y-46284206D01*
X134172969Y-46668685D01*
X134185923Y-46687685D01*
X134490395Y-47069480D01*
X134822546Y-47427454D01*
X135180520Y-47759605D01*
X135562315Y-48064077D01*
X135562332Y-48064089D01*
X135562334Y-48064090D01*
X135965793Y-48339164D01*
X135965795Y-48339165D01*
X136388705Y-48583332D01*
X136828679Y-48795212D01*
X137252008Y-48961356D01*
X137283264Y-48973623D01*
X137749882Y-49117555D01*
X137749895Y-49117559D01*
X138225985Y-49226224D01*
X138708865Y-49299006D01*
X139195833Y-49335500D01*
X139288500Y-49335500D01*
X139356621Y-49355502D01*
X139403114Y-49409158D01*
X139414500Y-49461500D01*
X139414500Y-85158500D01*
X139394498Y-85226621D01*
X139340842Y-85273114D01*
X139288500Y-85284500D01*
X139195833Y-85284500D01*
X139148755Y-85288028D01*
X138708869Y-85320993D01*
X138708868Y-85320993D01*
X138444334Y-85360865D01*
X138225985Y-85393776D01*
X138098973Y-85422765D01*
X137749905Y-85502438D01*
X137749882Y-85502444D01*
X137283264Y-85646376D01*
X136828685Y-85824785D01*
X136828652Y-85824800D01*
X136388716Y-86036662D01*
X136388709Y-86036665D01*
X135965793Y-86280835D01*
X135562334Y-86555909D01*
X135562316Y-86555922D01*
X135562315Y-86555923D01*
X135180520Y-86860395D01*
X134822546Y-87192546D01*
X134490395Y-87550520D01*
X134332049Y-87749079D01*
X134185922Y-87932316D01*
X134185909Y-87932334D01*
X133910835Y-88335793D01*
X133666665Y-88758709D01*
X133666662Y-88758716D01*
X133454800Y-89198652D01*
X133454785Y-89198685D01*
X133276376Y-89653264D01*
X133132444Y-90119882D01*
X133132438Y-90119905D01*
X133100805Y-90258500D01*
X133023776Y-90595985D01*
X133023776Y-90595988D01*
X132950993Y-91078868D01*
X132950993Y-91078869D01*
X132914500Y-91565834D01*
X132914500Y-91658500D01*
X132894498Y-91726621D01*
X132840842Y-91773114D01*
X132788500Y-91784500D01*
X71091500Y-91784500D01*
X71023379Y-91764498D01*
X70976886Y-91710842D01*
X70965500Y-91658500D01*
X70965500Y-91565834D01*
X70965500Y-91565833D01*
X70929006Y-91078865D01*
X70856224Y-90595985D01*
X70747559Y-90119895D01*
X70747555Y-90119882D01*
X70603623Y-89653264D01*
X70573169Y-89575669D01*
X70425212Y-89198679D01*
X70213332Y-88758705D01*
X69969165Y-88335795D01*
X69911495Y-88251209D01*
X69694090Y-87932334D01*
X69694089Y-87932332D01*
X69694077Y-87932315D01*
X69389605Y-87550520D01*
X69288154Y-87441182D01*
X75189500Y-87441182D01*
X75205981Y-87550522D01*
X75228604Y-87700619D01*
X75305933Y-87951314D01*
X75305938Y-87951327D01*
X75419773Y-88187706D01*
X75419777Y-88187713D01*
X75567562Y-88404472D01*
X75567567Y-88404479D01*
X75746019Y-88596805D01*
X75951143Y-88760386D01*
X75951146Y-88760388D01*
X76178352Y-88891566D01*
X76178356Y-88891567D01*
X76178357Y-88891568D01*
X76422584Y-88987420D01*
X76678370Y-89045802D01*
X76874506Y-89060500D01*
X76874507Y-89060500D01*
X77005493Y-89060500D01*
X77005494Y-89060500D01*
X77201630Y-89045802D01*
X77457416Y-88987420D01*
X77701643Y-88891568D01*
X77701645Y-88891566D01*
X77701647Y-88891566D01*
X77815250Y-88825977D01*
X77928857Y-88760386D01*
X78133981Y-88596805D01*
X78312433Y-88404479D01*
X78460228Y-88187704D01*
X78574063Y-87951323D01*
X78574066Y-87951314D01*
X78651395Y-87700619D01*
X78674019Y-87550522D01*
X78690500Y-87441182D01*
X78690500Y-87178818D01*
X78651396Y-86919385D01*
X78651395Y-86919383D01*
X78651395Y-86919380D01*
X78574066Y-86668685D01*
X78574061Y-86668672D01*
X78519757Y-86555909D01*
X78460228Y-86432296D01*
X78460226Y-86432293D01*
X78460222Y-86432286D01*
X78312437Y-86215527D01*
X78312433Y-86215521D01*
X78133981Y-86023195D01*
X77928857Y-85859614D01*
X77928852Y-85859611D01*
X77928853Y-85859611D01*
X77701647Y-85728433D01*
X77701639Y-85728430D01*
X77457419Y-85632581D01*
X77457417Y-85632580D01*
X77201633Y-85574198D01*
X77054528Y-85563174D01*
X77005494Y-85559500D01*
X76874506Y-85559500D01*
X76835278Y-85562439D01*
X76678366Y-85574198D01*
X76422582Y-85632580D01*
X76422580Y-85632581D01*
X76178360Y-85728430D01*
X76178352Y-85728433D01*
X75951146Y-85859611D01*
X75746018Y-86023195D01*
X75567566Y-86215522D01*
X75567562Y-86215527D01*
X75419777Y-86432286D01*
X75419773Y-86432293D01*
X75305938Y-86668672D01*
X75305933Y-86668685D01*
X75228604Y-86919380D01*
X75211077Y-87035669D01*
X75189500Y-87178818D01*
X75189500Y-87441182D01*
X69288154Y-87441182D01*
X69057454Y-87192546D01*
X68699480Y-86860395D01*
X68317685Y-86555923D01*
X68317674Y-86555915D01*
X68317665Y-86555909D01*
X67914206Y-86280835D01*
X67491290Y-86036665D01*
X67491283Y-86036662D01*
X67051347Y-85824800D01*
X67051314Y-85824785D01*
X66596735Y-85646376D01*
X66130117Y-85502444D01*
X66130094Y-85502438D01*
X65892060Y-85448108D01*
X65654015Y-85393776D01*
X65362883Y-85349895D01*
X65171131Y-85320993D01*
X64731244Y-85288028D01*
X64684167Y-85284500D01*
X64684166Y-85284500D01*
X64591500Y-85284500D01*
X64523379Y-85264498D01*
X64476886Y-85210842D01*
X64465500Y-85158500D01*
X64465500Y-81280000D01*
X73836844Y-81280000D01*
X73854886Y-81497732D01*
X73855437Y-81504375D01*
X73910702Y-81722612D01*
X73910703Y-81722613D01*
X73910704Y-81722616D01*
X73996935Y-81919204D01*
X74001141Y-81928793D01*
X74124275Y-82117265D01*
X74124279Y-82117270D01*
X74276762Y-82282908D01*
X74314124Y-82311988D01*
X74454424Y-82421189D01*
X74652426Y-82528342D01*
X74652427Y-82528342D01*
X74652428Y-82528343D01*
X74740320Y-82558516D01*
X74865365Y-82601444D01*
X75087431Y-82638500D01*
X75087435Y-82638500D01*
X75312565Y-82638500D01*
X75312569Y-82638500D01*
X75534635Y-82601444D01*
X75747574Y-82528342D01*
X75945576Y-82421189D01*
X76123240Y-82282906D01*
X76275722Y-82117268D01*
X76289890Y-82095583D01*
X76343895Y-82049495D01*
X76395372Y-82038500D01*
X76544628Y-82038500D01*
X76612749Y-82058502D01*
X76650110Y-82095583D01*
X76664278Y-82117268D01*
X76715824Y-82173261D01*
X76816762Y-82282908D01*
X76854124Y-82311988D01*
X76994424Y-82421189D01*
X77192426Y-82528342D01*
X77192427Y-82528342D01*
X77192428Y-82528343D01*
X77280320Y-82558516D01*
X77405365Y-82601444D01*
X77627431Y-82638500D01*
X77627435Y-82638500D01*
X77852565Y-82638500D01*
X77852569Y-82638500D01*
X78074635Y-82601444D01*
X78287574Y-82528342D01*
X78485576Y-82421189D01*
X78663240Y-82282906D01*
X78815722Y-82117268D01*
X78829890Y-82095583D01*
X78883895Y-82049495D01*
X78935372Y-82038500D01*
X79084628Y-82038500D01*
X79152749Y-82058502D01*
X79190110Y-82095583D01*
X79204278Y-82117268D01*
X79255824Y-82173261D01*
X79356762Y-82282908D01*
X79394124Y-82311988D01*
X79534424Y-82421189D01*
X79732426Y-82528342D01*
X79732427Y-82528342D01*
X79732428Y-82528343D01*
X79820320Y-82558516D01*
X79945365Y-82601444D01*
X80167431Y-82638500D01*
X80167435Y-82638500D01*
X80392565Y-82638500D01*
X80392569Y-82638500D01*
X80614635Y-82601444D01*
X80827574Y-82528342D01*
X81025576Y-82421189D01*
X81203240Y-82282906D01*
X81355722Y-82117268D01*
X81369890Y-82095583D01*
X81423895Y-82049495D01*
X81475372Y-82038500D01*
X81624628Y-82038500D01*
X81692749Y-82058502D01*
X81730110Y-82095583D01*
X81744278Y-82117268D01*
X81795824Y-82173261D01*
X81896762Y-82282908D01*
X81934124Y-82311988D01*
X82074424Y-82421189D01*
X82272426Y-82528342D01*
X82272427Y-82528342D01*
X82272428Y-82528343D01*
X82360320Y-82558516D01*
X82485365Y-82601444D01*
X82707431Y-82638500D01*
X82707435Y-82638500D01*
X82932565Y-82638500D01*
X82932569Y-82638500D01*
X83154635Y-82601444D01*
X83367574Y-82528342D01*
X83565576Y-82421189D01*
X83743240Y-82282906D01*
X83895722Y-82117268D01*
X83909890Y-82095583D01*
X83963895Y-82049495D01*
X84015372Y-82038500D01*
X84164628Y-82038500D01*
X84232749Y-82058502D01*
X84270110Y-82095583D01*
X84284278Y-82117268D01*
X84335824Y-82173261D01*
X84436762Y-82282908D01*
X84474124Y-82311988D01*
X84614424Y-82421189D01*
X84647680Y-82439186D01*
X84698071Y-82489200D01*
X84713423Y-82558516D01*
X84688862Y-82625129D01*
X84647680Y-82660813D01*
X84614426Y-82678810D01*
X84614424Y-82678811D01*
X84436762Y-82817091D01*
X84284279Y-82982729D01*
X84284275Y-82982734D01*
X84161141Y-83171206D01*
X84070703Y-83377386D01*
X84070702Y-83377387D01*
X84015437Y-83595624D01*
X83996844Y-83820000D01*
X84015437Y-84044375D01*
X84070702Y-84262612D01*
X84070703Y-84262613D01*
X84161141Y-84468793D01*
X84284275Y-84657265D01*
X84284279Y-84657270D01*
X84436762Y-84822908D01*
X84491331Y-84865381D01*
X84614424Y-84961189D01*
X84647680Y-84979186D01*
X84698071Y-85029200D01*
X84713423Y-85098516D01*
X84688862Y-85165129D01*
X84647680Y-85200813D01*
X84614426Y-85218810D01*
X84614424Y-85218811D01*
X84436762Y-85357091D01*
X84284279Y-85522729D01*
X84284275Y-85522734D01*
X84161141Y-85711206D01*
X84070703Y-85917386D01*
X84070702Y-85917387D01*
X84015437Y-86135624D01*
X84015436Y-86135630D01*
X84015436Y-86135632D01*
X83996844Y-86360000D01*
X84002834Y-86432293D01*
X84015437Y-86584375D01*
X84070702Y-86802612D01*
X84070703Y-86802613D01*
X84161141Y-87008793D01*
X84284275Y-87197265D01*
X84284279Y-87197270D01*
X84357082Y-87276353D01*
X84436760Y-87362906D01*
X84552892Y-87453296D01*
X84594362Y-87510919D01*
X84601500Y-87552726D01*
X84601500Y-87707273D01*
X84581498Y-87775394D01*
X84552891Y-87806704D01*
X84436765Y-87897089D01*
X84436760Y-87897094D01*
X84284279Y-88062729D01*
X84284275Y-88062734D01*
X84161141Y-88251206D01*
X84070703Y-88457386D01*
X84070702Y-88457387D01*
X84015437Y-88675624D01*
X84015436Y-88675630D01*
X84015436Y-88675632D01*
X83996844Y-88900000D01*
X84005198Y-89000820D01*
X84015437Y-89124375D01*
X84070702Y-89342612D01*
X84070703Y-89342613D01*
X84161141Y-89548793D01*
X84284275Y-89737265D01*
X84284279Y-89737270D01*
X84436762Y-89902908D01*
X84491331Y-89945381D01*
X84614424Y-90041189D01*
X84812426Y-90148342D01*
X84812427Y-90148342D01*
X84812428Y-90148343D01*
X84924227Y-90186723D01*
X85025365Y-90221444D01*
X85247431Y-90258500D01*
X85247435Y-90258500D01*
X85472565Y-90258500D01*
X85472569Y-90258500D01*
X85694635Y-90221444D01*
X85907574Y-90148342D01*
X86105576Y-90041189D01*
X86283240Y-89902906D01*
X86435722Y-89737268D01*
X86524518Y-89601354D01*
X86578520Y-89555268D01*
X86648868Y-89545692D01*
X86713225Y-89575669D01*
X86735480Y-89601353D01*
X86768607Y-89652058D01*
X86824275Y-89737265D01*
X86824279Y-89737270D01*
X86976762Y-89902908D01*
X87031331Y-89945381D01*
X87154424Y-90041189D01*
X87352426Y-90148342D01*
X87352427Y-90148342D01*
X87352428Y-90148343D01*
X87464227Y-90186723D01*
X87565365Y-90221444D01*
X87787431Y-90258500D01*
X87787435Y-90258500D01*
X88012565Y-90258500D01*
X88012569Y-90258500D01*
X88234635Y-90221444D01*
X88447574Y-90148342D01*
X88645576Y-90041189D01*
X88823240Y-89902906D01*
X88975722Y-89737268D01*
X89064518Y-89601354D01*
X89118520Y-89555268D01*
X89188868Y-89545692D01*
X89253225Y-89575669D01*
X89275480Y-89601353D01*
X89308607Y-89652058D01*
X89364275Y-89737265D01*
X89364279Y-89737270D01*
X89516762Y-89902908D01*
X89571331Y-89945381D01*
X89694424Y-90041189D01*
X89892426Y-90148342D01*
X89892427Y-90148342D01*
X89892428Y-90148343D01*
X90004227Y-90186723D01*
X90105365Y-90221444D01*
X90327431Y-90258500D01*
X90327435Y-90258500D01*
X90552565Y-90258500D01*
X90552569Y-90258500D01*
X90774635Y-90221444D01*
X90987574Y-90148342D01*
X91185576Y-90041189D01*
X91363240Y-89902906D01*
X91515722Y-89737268D01*
X91604518Y-89601354D01*
X91658520Y-89555268D01*
X91728868Y-89545692D01*
X91793225Y-89575669D01*
X91815480Y-89601353D01*
X91848607Y-89652058D01*
X91904275Y-89737265D01*
X91904279Y-89737270D01*
X92056762Y-89902908D01*
X92111331Y-89945381D01*
X92234424Y-90041189D01*
X92432426Y-90148342D01*
X92432427Y-90148342D01*
X92432428Y-90148343D01*
X92544227Y-90186723D01*
X92645365Y-90221444D01*
X92867431Y-90258500D01*
X92867435Y-90258500D01*
X93092565Y-90258500D01*
X93092569Y-90258500D01*
X93314635Y-90221444D01*
X93527574Y-90148342D01*
X93725576Y-90041189D01*
X93903240Y-89902906D01*
X94055722Y-89737268D01*
X94144518Y-89601354D01*
X94198520Y-89555268D01*
X94268868Y-89545692D01*
X94333225Y-89575669D01*
X94355480Y-89601353D01*
X94388607Y-89652058D01*
X94444275Y-89737265D01*
X94444279Y-89737270D01*
X94596762Y-89902908D01*
X94651331Y-89945381D01*
X94774424Y-90041189D01*
X94972426Y-90148342D01*
X94972427Y-90148342D01*
X94972428Y-90148343D01*
X95084227Y-90186723D01*
X95185365Y-90221444D01*
X95407431Y-90258500D01*
X95407435Y-90258500D01*
X95632565Y-90258500D01*
X95632569Y-90258500D01*
X95854635Y-90221444D01*
X96067574Y-90148342D01*
X96265576Y-90041189D01*
X96443240Y-89902906D01*
X96595722Y-89737268D01*
X96684518Y-89601354D01*
X96738520Y-89555268D01*
X96808868Y-89545692D01*
X96873225Y-89575669D01*
X96895480Y-89601353D01*
X96928607Y-89652058D01*
X96984275Y-89737265D01*
X96984279Y-89737270D01*
X97136762Y-89902908D01*
X97191331Y-89945381D01*
X97314424Y-90041189D01*
X97512426Y-90148342D01*
X97512427Y-90148342D01*
X97512428Y-90148343D01*
X97624227Y-90186723D01*
X97725365Y-90221444D01*
X97947431Y-90258500D01*
X97947435Y-90258500D01*
X98172565Y-90258500D01*
X98172569Y-90258500D01*
X98394635Y-90221444D01*
X98607574Y-90148342D01*
X98805576Y-90041189D01*
X98983240Y-89902906D01*
X99135722Y-89737268D01*
X99224518Y-89601354D01*
X99278520Y-89555268D01*
X99348868Y-89545692D01*
X99413225Y-89575669D01*
X99435480Y-89601353D01*
X99468607Y-89652058D01*
X99524275Y-89737265D01*
X99524279Y-89737270D01*
X99676762Y-89902908D01*
X99731331Y-89945381D01*
X99854424Y-90041189D01*
X100052426Y-90148342D01*
X100052427Y-90148342D01*
X100052428Y-90148343D01*
X100164227Y-90186723D01*
X100265365Y-90221444D01*
X100487431Y-90258500D01*
X100487435Y-90258500D01*
X100712565Y-90258500D01*
X100712569Y-90258500D01*
X100934635Y-90221444D01*
X101147574Y-90148342D01*
X101345576Y-90041189D01*
X101523240Y-89902906D01*
X101675722Y-89737268D01*
X101764518Y-89601354D01*
X101818520Y-89555268D01*
X101888868Y-89545692D01*
X101953225Y-89575669D01*
X101975480Y-89601353D01*
X102008607Y-89652058D01*
X102064275Y-89737265D01*
X102064279Y-89737270D01*
X102216762Y-89902908D01*
X102271331Y-89945381D01*
X102394424Y-90041189D01*
X102592426Y-90148342D01*
X102592427Y-90148342D01*
X102592428Y-90148343D01*
X102704227Y-90186723D01*
X102805365Y-90221444D01*
X103027431Y-90258500D01*
X103027435Y-90258500D01*
X103252565Y-90258500D01*
X103252569Y-90258500D01*
X103474635Y-90221444D01*
X103687574Y-90148342D01*
X103885576Y-90041189D01*
X104063240Y-89902906D01*
X104215722Y-89737268D01*
X104304518Y-89601354D01*
X104358520Y-89555268D01*
X104428868Y-89545692D01*
X104493225Y-89575669D01*
X104515480Y-89601353D01*
X104548607Y-89652058D01*
X104604275Y-89737265D01*
X104604279Y-89737270D01*
X104756762Y-89902908D01*
X104811331Y-89945381D01*
X104934424Y-90041189D01*
X105132426Y-90148342D01*
X105132427Y-90148342D01*
X105132428Y-90148343D01*
X105244227Y-90186723D01*
X105345365Y-90221444D01*
X105567431Y-90258500D01*
X105567435Y-90258500D01*
X105792565Y-90258500D01*
X105792569Y-90258500D01*
X106014635Y-90221444D01*
X106227574Y-90148342D01*
X106425576Y-90041189D01*
X106603240Y-89902906D01*
X106755722Y-89737268D01*
X106844518Y-89601354D01*
X106898520Y-89555268D01*
X106968868Y-89545692D01*
X107033225Y-89575669D01*
X107055480Y-89601353D01*
X107088607Y-89652058D01*
X107144275Y-89737265D01*
X107144279Y-89737270D01*
X107296762Y-89902908D01*
X107351331Y-89945381D01*
X107474424Y-90041189D01*
X107672426Y-90148342D01*
X107672427Y-90148342D01*
X107672428Y-90148343D01*
X107784227Y-90186723D01*
X107885365Y-90221444D01*
X108107431Y-90258500D01*
X108107435Y-90258500D01*
X108332565Y-90258500D01*
X108332569Y-90258500D01*
X108554635Y-90221444D01*
X108767574Y-90148342D01*
X108965576Y-90041189D01*
X109143240Y-89902906D01*
X109295722Y-89737268D01*
X109384518Y-89601354D01*
X109438520Y-89555268D01*
X109508868Y-89545692D01*
X109573225Y-89575669D01*
X109595480Y-89601353D01*
X109628607Y-89652058D01*
X109684275Y-89737265D01*
X109684279Y-89737270D01*
X109836762Y-89902908D01*
X109891331Y-89945381D01*
X110014424Y-90041189D01*
X110212426Y-90148342D01*
X110212427Y-90148342D01*
X110212428Y-90148343D01*
X110324227Y-90186723D01*
X110425365Y-90221444D01*
X110647431Y-90258500D01*
X110647435Y-90258500D01*
X110872565Y-90258500D01*
X110872569Y-90258500D01*
X111094635Y-90221444D01*
X111307574Y-90148342D01*
X111505576Y-90041189D01*
X111683240Y-89902906D01*
X111835722Y-89737268D01*
X111924518Y-89601354D01*
X111978520Y-89555268D01*
X112048868Y-89545692D01*
X112113225Y-89575669D01*
X112135480Y-89601353D01*
X112168607Y-89652058D01*
X112224275Y-89737265D01*
X112224279Y-89737270D01*
X112376762Y-89902908D01*
X112431331Y-89945381D01*
X112554424Y-90041189D01*
X112752426Y-90148342D01*
X112752427Y-90148342D01*
X112752428Y-90148343D01*
X112864227Y-90186723D01*
X112965365Y-90221444D01*
X113187431Y-90258500D01*
X113187435Y-90258500D01*
X113412565Y-90258500D01*
X113412569Y-90258500D01*
X113634635Y-90221444D01*
X113847574Y-90148342D01*
X114045576Y-90041189D01*
X114223240Y-89902906D01*
X114375722Y-89737268D01*
X114464518Y-89601354D01*
X114518520Y-89555268D01*
X114588868Y-89545692D01*
X114653225Y-89575669D01*
X114675480Y-89601353D01*
X114708607Y-89652058D01*
X114764275Y-89737265D01*
X114764279Y-89737270D01*
X114916762Y-89902908D01*
X114971331Y-89945381D01*
X115094424Y-90041189D01*
X115292426Y-90148342D01*
X115292427Y-90148342D01*
X115292428Y-90148343D01*
X115404227Y-90186723D01*
X115505365Y-90221444D01*
X115727431Y-90258500D01*
X115727435Y-90258500D01*
X115952565Y-90258500D01*
X115952569Y-90258500D01*
X116174635Y-90221444D01*
X116387574Y-90148342D01*
X116585576Y-90041189D01*
X116763240Y-89902906D01*
X116915722Y-89737268D01*
X117004518Y-89601354D01*
X117058520Y-89555268D01*
X117128868Y-89545692D01*
X117193225Y-89575669D01*
X117215480Y-89601353D01*
X117248607Y-89652058D01*
X117304275Y-89737265D01*
X117304279Y-89737270D01*
X117456762Y-89902908D01*
X117511331Y-89945381D01*
X117634424Y-90041189D01*
X117832426Y-90148342D01*
X117832427Y-90148342D01*
X117832428Y-90148343D01*
X117944227Y-90186723D01*
X118045365Y-90221444D01*
X118267431Y-90258500D01*
X118267435Y-90258500D01*
X118492565Y-90258500D01*
X118492569Y-90258500D01*
X118714635Y-90221444D01*
X118927574Y-90148342D01*
X119125576Y-90041189D01*
X119303240Y-89902906D01*
X119455722Y-89737268D01*
X119544518Y-89601354D01*
X119598520Y-89555268D01*
X119668868Y-89545692D01*
X119733225Y-89575669D01*
X119755480Y-89601353D01*
X119788607Y-89652058D01*
X119844275Y-89737265D01*
X119844279Y-89737270D01*
X119996762Y-89902908D01*
X120051331Y-89945381D01*
X120174424Y-90041189D01*
X120372426Y-90148342D01*
X120372427Y-90148342D01*
X120372428Y-90148343D01*
X120484227Y-90186723D01*
X120585365Y-90221444D01*
X120807431Y-90258500D01*
X120807435Y-90258500D01*
X121032565Y-90258500D01*
X121032569Y-90258500D01*
X121254635Y-90221444D01*
X121467574Y-90148342D01*
X121665576Y-90041189D01*
X121843240Y-89902906D01*
X121995722Y-89737268D01*
X122084518Y-89601354D01*
X122138520Y-89555268D01*
X122208868Y-89545692D01*
X122273225Y-89575669D01*
X122295480Y-89601353D01*
X122328607Y-89652058D01*
X122384275Y-89737265D01*
X122384279Y-89737270D01*
X122536762Y-89902908D01*
X122591331Y-89945381D01*
X122714424Y-90041189D01*
X122912426Y-90148342D01*
X122912427Y-90148342D01*
X122912428Y-90148343D01*
X123024227Y-90186723D01*
X123125365Y-90221444D01*
X123347431Y-90258500D01*
X123347435Y-90258500D01*
X123572565Y-90258500D01*
X123572569Y-90258500D01*
X123794635Y-90221444D01*
X124007574Y-90148342D01*
X124205576Y-90041189D01*
X124383240Y-89902906D01*
X124535722Y-89737268D01*
X124658860Y-89548791D01*
X124749296Y-89342616D01*
X124804564Y-89124368D01*
X124823156Y-88900000D01*
X124804564Y-88675632D01*
X124749296Y-88457384D01*
X124658860Y-88251209D01*
X124652140Y-88240924D01*
X124535724Y-88062734D01*
X124535720Y-88062729D01*
X124433165Y-87951327D01*
X124383240Y-87897094D01*
X124383234Y-87897089D01*
X124267109Y-87806704D01*
X124225638Y-87749079D01*
X124218500Y-87707273D01*
X124218500Y-87552726D01*
X124238502Y-87484605D01*
X124267106Y-87453297D01*
X124282671Y-87441182D01*
X125189500Y-87441182D01*
X125205981Y-87550522D01*
X125228604Y-87700619D01*
X125305933Y-87951314D01*
X125305938Y-87951327D01*
X125419773Y-88187706D01*
X125419777Y-88187713D01*
X125567562Y-88404472D01*
X125567567Y-88404479D01*
X125746019Y-88596805D01*
X125951143Y-88760386D01*
X125951146Y-88760388D01*
X126178352Y-88891566D01*
X126178356Y-88891567D01*
X126178357Y-88891568D01*
X126422584Y-88987420D01*
X126678370Y-89045802D01*
X126874506Y-89060500D01*
X126874507Y-89060500D01*
X127005493Y-89060500D01*
X127005494Y-89060500D01*
X127201630Y-89045802D01*
X127457416Y-88987420D01*
X127701643Y-88891568D01*
X127701645Y-88891566D01*
X127701647Y-88891566D01*
X127815250Y-88825977D01*
X127928857Y-88760386D01*
X128133981Y-88596805D01*
X128312433Y-88404479D01*
X128460228Y-88187704D01*
X128574063Y-87951323D01*
X128574066Y-87951314D01*
X128651395Y-87700619D01*
X128674019Y-87550522D01*
X128690500Y-87441182D01*
X128690500Y-87178818D01*
X128651396Y-86919385D01*
X128651395Y-86919383D01*
X128651395Y-86919380D01*
X128574066Y-86668685D01*
X128574061Y-86668672D01*
X128519757Y-86555909D01*
X128460228Y-86432296D01*
X128460226Y-86432293D01*
X128460222Y-86432286D01*
X128312437Y-86215527D01*
X128312433Y-86215521D01*
X128133981Y-86023195D01*
X127928857Y-85859614D01*
X127928852Y-85859611D01*
X127928853Y-85859611D01*
X127701647Y-85728433D01*
X127701639Y-85728430D01*
X127457419Y-85632581D01*
X127457417Y-85632580D01*
X127201633Y-85574198D01*
X127054528Y-85563174D01*
X127005494Y-85559500D01*
X126874506Y-85559500D01*
X126835278Y-85562439D01*
X126678366Y-85574198D01*
X126422582Y-85632580D01*
X126422580Y-85632581D01*
X126178360Y-85728430D01*
X126178352Y-85728433D01*
X125951146Y-85859611D01*
X125746018Y-86023195D01*
X125567566Y-86215522D01*
X125567562Y-86215527D01*
X125419777Y-86432286D01*
X125419773Y-86432293D01*
X125305938Y-86668672D01*
X125305933Y-86668685D01*
X125228604Y-86919380D01*
X125211077Y-87035669D01*
X125189500Y-87178818D01*
X125189500Y-87441182D01*
X124282671Y-87441182D01*
X124383240Y-87362906D01*
X124535722Y-87197268D01*
X124658860Y-87008791D01*
X124749296Y-86802616D01*
X124804564Y-86584368D01*
X124823156Y-86360000D01*
X124804564Y-86135632D01*
X124749296Y-85917384D01*
X124658860Y-85711209D01*
X124652140Y-85700924D01*
X124535724Y-85522734D01*
X124535720Y-85522729D01*
X124383237Y-85357091D01*
X124289972Y-85284500D01*
X124205576Y-85218811D01*
X124172319Y-85200813D01*
X124121929Y-85150802D01*
X124106576Y-85081485D01*
X124131136Y-85014872D01*
X124172320Y-84979186D01*
X124205576Y-84961189D01*
X124383240Y-84822906D01*
X124535722Y-84657268D01*
X124658860Y-84468791D01*
X124749296Y-84262616D01*
X124804564Y-84044368D01*
X124823156Y-83820000D01*
X124804564Y-83595632D01*
X124749296Y-83377384D01*
X124658860Y-83171209D01*
X124652140Y-83160924D01*
X124535724Y-82982734D01*
X124535720Y-82982729D01*
X124383237Y-82817091D01*
X124301382Y-82753381D01*
X124205576Y-82678811D01*
X124172319Y-82660813D01*
X124121929Y-82610802D01*
X124106576Y-82541485D01*
X124131136Y-82474872D01*
X124172320Y-82439186D01*
X124205576Y-82421189D01*
X124383240Y-82282906D01*
X124535722Y-82117268D01*
X124658860Y-81928791D01*
X124749296Y-81722616D01*
X124777078Y-81612908D01*
X124784576Y-81583300D01*
X124820688Y-81522174D01*
X124884115Y-81490275D01*
X124954719Y-81497732D01*
X124999417Y-81528890D01*
X125076760Y-81612906D01*
X125076762Y-81612908D01*
X125131331Y-81655381D01*
X125254424Y-81751189D01*
X125452426Y-81858342D01*
X125452427Y-81858342D01*
X125452428Y-81858343D01*
X125564227Y-81896723D01*
X125665365Y-81931444D01*
X125887431Y-81968500D01*
X125887435Y-81968500D01*
X126112565Y-81968500D01*
X126112569Y-81968500D01*
X126334635Y-81931444D01*
X126547574Y-81858342D01*
X126745576Y-81751189D01*
X126923240Y-81612906D01*
X127075722Y-81447268D01*
X127089890Y-81425583D01*
X127143895Y-81379495D01*
X127195372Y-81368500D01*
X131105500Y-81368500D01*
X131173621Y-81388502D01*
X131220114Y-81442158D01*
X131231500Y-81494500D01*
X131231500Y-81858649D01*
X131238009Y-81919196D01*
X131238011Y-81919204D01*
X131289110Y-82056202D01*
X131289112Y-82056207D01*
X131376738Y-82173261D01*
X131493792Y-82260887D01*
X131493794Y-82260888D01*
X131493796Y-82260889D01*
X131552825Y-82282906D01*
X131630795Y-82311988D01*
X131630803Y-82311990D01*
X131691350Y-82318499D01*
X131691355Y-82318499D01*
X131691362Y-82318500D01*
X131691368Y-82318500D01*
X134188632Y-82318500D01*
X134188638Y-82318500D01*
X134188645Y-82318499D01*
X134188649Y-82318499D01*
X134249196Y-82311990D01*
X134249199Y-82311989D01*
X134249201Y-82311989D01*
X134386204Y-82260889D01*
X134503261Y-82173261D01*
X134590887Y-82056207D01*
X134590887Y-82056206D01*
X134590889Y-82056204D01*
X134641989Y-81919201D01*
X134648500Y-81858638D01*
X134648500Y-79361362D01*
X134648499Y-79361350D01*
X134641990Y-79300803D01*
X134641988Y-79300795D01*
X134612924Y-79222875D01*
X134590889Y-79163796D01*
X134590888Y-79163794D01*
X134590887Y-79163792D01*
X134503261Y-79046738D01*
X134386207Y-78959112D01*
X134386202Y-78959110D01*
X134249204Y-78908011D01*
X134249196Y-78908009D01*
X134188649Y-78901500D01*
X134188638Y-78901500D01*
X133709647Y-78901500D01*
X133641526Y-78881498D01*
X133595033Y-78827842D01*
X133584929Y-78757568D01*
X133614423Y-78692988D01*
X133654978Y-78661978D01*
X133796640Y-78593757D01*
X133796640Y-78593756D01*
X133796646Y-78593754D01*
X134008219Y-78449505D01*
X134195931Y-78275334D01*
X134355587Y-78075131D01*
X134483622Y-77853369D01*
X134577174Y-77615001D01*
X134634155Y-77365353D01*
X134653291Y-77110000D01*
X134634155Y-76854647D01*
X134577174Y-76604999D01*
X134572013Y-76591849D01*
X134483625Y-76366637D01*
X134483623Y-76366633D01*
X134355589Y-76144872D01*
X134355588Y-76144870D01*
X134355587Y-76144869D01*
X134195931Y-75944666D01*
X134008219Y-75770495D01*
X133988993Y-75757387D01*
X133796647Y-75626247D01*
X133796646Y-75626246D01*
X133796643Y-75626245D01*
X133796641Y-75626243D01*
X133796640Y-75626242D01*
X133565936Y-75515142D01*
X133565929Y-75515139D01*
X133453311Y-75480402D01*
X133394113Y-75441210D01*
X133365500Y-75376234D01*
X133376559Y-75306104D01*
X133423777Y-75253086D01*
X133453311Y-75239598D01*
X133565929Y-75204860D01*
X133565930Y-75204859D01*
X133565935Y-75204858D01*
X133796646Y-75093754D01*
X134008219Y-74949505D01*
X134195931Y-74775334D01*
X134355587Y-74575131D01*
X134483622Y-74353369D01*
X134498576Y-74315268D01*
X134564770Y-74146606D01*
X134577174Y-74115001D01*
X134634155Y-73865353D01*
X134653291Y-73610000D01*
X134634155Y-73354647D01*
X134577174Y-73104999D01*
X134541580Y-73014306D01*
X134483625Y-72866637D01*
X134483623Y-72866633D01*
X134355589Y-72644872D01*
X134355588Y-72644870D01*
X134355587Y-72644869D01*
X134195931Y-72444666D01*
X134008219Y-72270495D01*
X133979814Y-72251129D01*
X133796647Y-72126247D01*
X133796646Y-72126246D01*
X133796643Y-72126245D01*
X133796641Y-72126243D01*
X133796640Y-72126242D01*
X133565936Y-72015142D01*
X133565929Y-72015139D01*
X133321253Y-71939667D01*
X133321245Y-71939665D01*
X133321243Y-71939665D01*
X133068034Y-71901500D01*
X132811966Y-71901500D01*
X132558757Y-71939665D01*
X132558755Y-71939665D01*
X132558746Y-71939667D01*
X132314073Y-72015138D01*
X132314060Y-72015143D01*
X132083352Y-72126247D01*
X132083345Y-72126251D01*
X131871787Y-72270490D01*
X131871782Y-72270494D01*
X131684070Y-72444665D01*
X131524412Y-72644870D01*
X131441486Y-72788501D01*
X131390103Y-72837494D01*
X131332367Y-72851500D01*
X127195372Y-72851500D01*
X127127251Y-72831498D01*
X127089890Y-72794417D01*
X127084504Y-72786175D01*
X127075722Y-72772732D01*
X126923240Y-72607094D01*
X126923239Y-72607093D01*
X126923237Y-72607091D01*
X126822739Y-72528870D01*
X126745576Y-72468811D01*
X126547574Y-72361658D01*
X126547572Y-72361657D01*
X126547571Y-72361656D01*
X126334639Y-72288557D01*
X126334630Y-72288555D01*
X126290476Y-72281187D01*
X126112569Y-72251500D01*
X125887431Y-72251500D01*
X125739211Y-72276233D01*
X125665369Y-72288555D01*
X125665360Y-72288557D01*
X125452428Y-72361656D01*
X125452426Y-72361658D01*
X125254426Y-72468810D01*
X125254424Y-72468811D01*
X125076762Y-72607091D01*
X124924279Y-72772729D01*
X124819149Y-72933643D01*
X124765145Y-72979731D01*
X124694797Y-72989306D01*
X124630440Y-72959328D01*
X124608183Y-72933642D01*
X124535724Y-72822734D01*
X124535720Y-72822729D01*
X124469791Y-72751112D01*
X124383240Y-72657094D01*
X124383234Y-72657089D01*
X124267109Y-72566704D01*
X124225638Y-72509079D01*
X124218500Y-72467273D01*
X124218500Y-72312726D01*
X124238502Y-72244605D01*
X124267106Y-72213297D01*
X124383240Y-72122906D01*
X124535722Y-71957268D01*
X124658860Y-71768791D01*
X124749296Y-71562616D01*
X124804564Y-71344368D01*
X124823156Y-71120000D01*
X124804564Y-70895632D01*
X124749296Y-70677384D01*
X124658860Y-70471209D01*
X124652140Y-70460924D01*
X124535724Y-70282734D01*
X124535720Y-70282729D01*
X124469791Y-70211112D01*
X124383240Y-70117094D01*
X124383234Y-70117089D01*
X124267109Y-70026704D01*
X124225638Y-69969079D01*
X124218500Y-69927273D01*
X124218500Y-69772726D01*
X124238502Y-69704605D01*
X124267106Y-69673297D01*
X124383240Y-69582906D01*
X124535722Y-69417268D01*
X124658860Y-69228791D01*
X124749296Y-69022616D01*
X124804564Y-68804368D01*
X124823156Y-68580000D01*
X126177346Y-68580000D01*
X126195932Y-68804292D01*
X126251176Y-69022449D01*
X126251179Y-69022456D01*
X126341580Y-69228548D01*
X126416921Y-69343866D01*
X127055638Y-68705149D01*
X127080507Y-68789844D01*
X127158239Y-68910798D01*
X127266900Y-69004952D01*
X127397685Y-69064680D01*
X127412411Y-69066797D01*
X126774310Y-69704898D01*
X126794697Y-69720766D01*
X126794701Y-69720768D01*
X126992628Y-69827882D01*
X126992630Y-69827883D01*
X127205483Y-69900955D01*
X127205490Y-69900957D01*
X127427477Y-69938000D01*
X127652523Y-69938000D01*
X127874509Y-69900957D01*
X127874516Y-69900955D01*
X128087369Y-69827883D01*
X128087371Y-69827881D01*
X128285298Y-69720769D01*
X128305688Y-69704898D01*
X127667587Y-69066797D01*
X127682315Y-69064680D01*
X127813100Y-69004952D01*
X127921761Y-68910798D01*
X127999493Y-68789844D01*
X128024361Y-68705150D01*
X128663077Y-69343866D01*
X128738419Y-69228548D01*
X128828820Y-69022456D01*
X128828823Y-69022449D01*
X128884067Y-68804292D01*
X128902653Y-68580000D01*
X128884067Y-68355707D01*
X128828823Y-68137550D01*
X128828820Y-68137543D01*
X128738419Y-67931451D01*
X128663077Y-67816132D01*
X128024360Y-68454848D01*
X127999493Y-68370156D01*
X127921761Y-68249202D01*
X127813100Y-68155048D01*
X127682315Y-68095320D01*
X127667586Y-68093202D01*
X128305688Y-67455100D01*
X128305687Y-67455099D01*
X128287807Y-67441182D01*
X132189500Y-67441182D01*
X132209985Y-67577089D01*
X132228604Y-67700619D01*
X132305933Y-67951314D01*
X132305938Y-67951327D01*
X132419773Y-68187706D01*
X132419777Y-68187713D01*
X132544166Y-68370156D01*
X132567567Y-68404479D01*
X132746019Y-68596805D01*
X132951143Y-68760386D01*
X132951146Y-68760388D01*
X133178352Y-68891566D01*
X133178356Y-68891567D01*
X133178357Y-68891568D01*
X133422584Y-68987420D01*
X133678370Y-69045802D01*
X133874506Y-69060500D01*
X133874507Y-69060500D01*
X134005493Y-69060500D01*
X134005494Y-69060500D01*
X134201630Y-69045802D01*
X134457416Y-68987420D01*
X134701643Y-68891568D01*
X134701645Y-68891566D01*
X134701647Y-68891566D01*
X134852678Y-68804368D01*
X134928857Y-68760386D01*
X135133981Y-68596805D01*
X135312433Y-68404479D01*
X135460228Y-68187704D01*
X135574063Y-67951323D01*
X135580193Y-67931451D01*
X135651395Y-67700619D01*
X135670014Y-67577094D01*
X135690500Y-67441182D01*
X135690500Y-67178818D01*
X135651396Y-66919385D01*
X135651395Y-66919383D01*
X135651395Y-66919380D01*
X135574066Y-66668685D01*
X135574061Y-66668672D01*
X135504718Y-66524680D01*
X135460228Y-66432296D01*
X135460226Y-66432293D01*
X135460222Y-66432286D01*
X135312437Y-66215527D01*
X135312433Y-66215521D01*
X135133981Y-66023195D01*
X134928857Y-65859614D01*
X134928852Y-65859611D01*
X134928853Y-65859611D01*
X134701647Y-65728433D01*
X134701639Y-65728430D01*
X134457419Y-65632581D01*
X134457417Y-65632580D01*
X134201633Y-65574198D01*
X134054528Y-65563174D01*
X134005494Y-65559500D01*
X133874506Y-65559500D01*
X133835278Y-65562439D01*
X133678366Y-65574198D01*
X133422582Y-65632580D01*
X133422580Y-65632581D01*
X133178360Y-65728430D01*
X133178352Y-65728433D01*
X132951146Y-65859611D01*
X132746018Y-66023195D01*
X132567566Y-66215522D01*
X132567562Y-66215527D01*
X132419777Y-66432286D01*
X132419773Y-66432293D01*
X132305938Y-66668672D01*
X132305933Y-66668685D01*
X132228604Y-66919380D01*
X132209986Y-67042905D01*
X132189500Y-67178818D01*
X132189500Y-67441182D01*
X128287807Y-67441182D01*
X128285308Y-67439237D01*
X128285298Y-67439231D01*
X128251267Y-67420814D01*
X128200876Y-67370801D01*
X128185524Y-67301484D01*
X128210085Y-67234871D01*
X128251268Y-67199186D01*
X128285294Y-67180772D01*
X128285298Y-67180769D01*
X128305688Y-67164898D01*
X127667587Y-66526797D01*
X127682315Y-66524680D01*
X127813100Y-66464952D01*
X127921761Y-66370798D01*
X127999493Y-66249844D01*
X128024361Y-66165150D01*
X128663077Y-66803866D01*
X128738419Y-66688548D01*
X128828820Y-66482456D01*
X128828823Y-66482449D01*
X128884067Y-66264292D01*
X128902653Y-66040000D01*
X128884067Y-65815707D01*
X128828823Y-65597550D01*
X128828820Y-65597543D01*
X128738419Y-65391451D01*
X128663077Y-65276132D01*
X128024360Y-65914848D01*
X127999493Y-65830156D01*
X127921761Y-65709202D01*
X127813100Y-65615048D01*
X127682315Y-65555320D01*
X127667586Y-65553202D01*
X128305688Y-64915100D01*
X128305687Y-64915099D01*
X128285308Y-64899237D01*
X128285298Y-64899231D01*
X128087371Y-64792117D01*
X128087369Y-64792116D01*
X127874516Y-64719044D01*
X127874509Y-64719042D01*
X127652523Y-64682000D01*
X127427477Y-64682000D01*
X127205490Y-64719042D01*
X127205483Y-64719044D01*
X126992630Y-64792116D01*
X126992628Y-64792118D01*
X126794700Y-64899230D01*
X126794693Y-64899235D01*
X126774311Y-64915099D01*
X126774310Y-64915100D01*
X127412412Y-65553202D01*
X127397685Y-65555320D01*
X127266900Y-65615048D01*
X127158239Y-65709202D01*
X127080507Y-65830156D01*
X127055639Y-65914849D01*
X126416921Y-65276131D01*
X126416920Y-65276132D01*
X126341586Y-65391439D01*
X126341579Y-65391453D01*
X126251179Y-65597543D01*
X126251176Y-65597550D01*
X126195932Y-65815707D01*
X126177346Y-66040000D01*
X126195932Y-66264292D01*
X126251176Y-66482449D01*
X126251179Y-66482456D01*
X126341580Y-66688548D01*
X126416921Y-66803866D01*
X127055638Y-66165149D01*
X127080507Y-66249844D01*
X127158239Y-66370798D01*
X127266900Y-66464952D01*
X127397685Y-66524680D01*
X127412411Y-66526797D01*
X126774310Y-67164898D01*
X126794697Y-67180766D01*
X126794705Y-67180771D01*
X126828731Y-67199185D01*
X126879122Y-67249197D01*
X126894475Y-67318514D01*
X126869915Y-67385127D01*
X126828735Y-67420811D01*
X126794705Y-67439227D01*
X126794693Y-67439235D01*
X126774311Y-67455099D01*
X126774310Y-67455100D01*
X127412412Y-68093202D01*
X127397685Y-68095320D01*
X127266900Y-68155048D01*
X127158239Y-68249202D01*
X127080507Y-68370156D01*
X127055639Y-68454849D01*
X126416921Y-67816131D01*
X126416920Y-67816132D01*
X126341586Y-67931439D01*
X126341579Y-67931453D01*
X126251179Y-68137543D01*
X126251176Y-68137550D01*
X126195932Y-68355707D01*
X126177346Y-68580000D01*
X124823156Y-68580000D01*
X124804564Y-68355632D01*
X124749338Y-68137550D01*
X124749297Y-68137387D01*
X124749296Y-68137386D01*
X124749296Y-68137384D01*
X124658860Y-67931209D01*
X124652140Y-67920924D01*
X124535724Y-67742734D01*
X124535720Y-67742729D01*
X124469791Y-67671112D01*
X124383240Y-67577094D01*
X124383234Y-67577089D01*
X124267109Y-67486704D01*
X124225638Y-67429079D01*
X124218500Y-67387273D01*
X124218500Y-67232726D01*
X124238502Y-67164605D01*
X124267106Y-67133297D01*
X124383240Y-67042906D01*
X124535722Y-66877268D01*
X124658860Y-66688791D01*
X124749296Y-66482616D01*
X124804564Y-66264368D01*
X124823156Y-66040000D01*
X124804564Y-65815632D01*
X124782482Y-65728432D01*
X124749297Y-65597387D01*
X124749296Y-65597386D01*
X124749296Y-65597384D01*
X124658860Y-65391209D01*
X124652140Y-65380924D01*
X124535724Y-65202734D01*
X124535720Y-65202729D01*
X124469791Y-65131112D01*
X124383240Y-65037094D01*
X124383234Y-65037089D01*
X124267109Y-64946704D01*
X124225638Y-64889079D01*
X124218500Y-64847273D01*
X124218500Y-64692726D01*
X124238502Y-64624605D01*
X124267106Y-64593297D01*
X124383240Y-64502906D01*
X124535722Y-64337268D01*
X124658860Y-64148791D01*
X124749296Y-63942616D01*
X124804564Y-63724368D01*
X124823156Y-63500000D01*
X124804564Y-63275632D01*
X124749296Y-63057384D01*
X124658860Y-62851209D01*
X124652140Y-62840924D01*
X124535724Y-62662734D01*
X124535720Y-62662729D01*
X124383237Y-62497091D01*
X124301382Y-62433381D01*
X124205576Y-62358811D01*
X124172319Y-62340813D01*
X124121929Y-62290802D01*
X124106576Y-62221485D01*
X124131136Y-62154872D01*
X124172320Y-62119186D01*
X124205576Y-62101189D01*
X124383240Y-61962906D01*
X124535722Y-61797268D01*
X124608185Y-61686353D01*
X124662185Y-61640268D01*
X124732533Y-61630692D01*
X124796891Y-61660668D01*
X124819149Y-61686356D01*
X124924275Y-61847265D01*
X124924279Y-61847270D01*
X125076762Y-62012908D01*
X125131331Y-62055381D01*
X125254424Y-62151189D01*
X125452426Y-62258342D01*
X125452427Y-62258342D01*
X125452428Y-62258343D01*
X125546979Y-62290802D01*
X125665365Y-62331444D01*
X125887431Y-62368500D01*
X125887435Y-62368500D01*
X126112565Y-62368500D01*
X126112569Y-62368500D01*
X126334635Y-62331444D01*
X126547574Y-62258342D01*
X126745576Y-62151189D01*
X126923240Y-62012906D01*
X127075722Y-61847268D01*
X127089890Y-61825583D01*
X127143895Y-61779495D01*
X127195372Y-61768500D01*
X131105500Y-61768500D01*
X131173621Y-61788502D01*
X131220114Y-61842158D01*
X131231500Y-61894500D01*
X131231500Y-62258649D01*
X131238009Y-62319196D01*
X131238011Y-62319204D01*
X131289110Y-62456202D01*
X131289112Y-62456207D01*
X131376738Y-62573261D01*
X131493792Y-62660887D01*
X131493794Y-62660888D01*
X131493796Y-62660889D01*
X131552875Y-62682924D01*
X131630795Y-62711988D01*
X131630803Y-62711990D01*
X131691350Y-62718499D01*
X131691355Y-62718499D01*
X131691362Y-62718500D01*
X131691368Y-62718500D01*
X134188632Y-62718500D01*
X134188638Y-62718500D01*
X134188645Y-62718499D01*
X134188649Y-62718499D01*
X134249196Y-62711990D01*
X134249199Y-62711989D01*
X134249201Y-62711989D01*
X134386204Y-62660889D01*
X134503261Y-62573261D01*
X134590889Y-62456204D01*
X134641989Y-62319201D01*
X134648500Y-62258638D01*
X134648500Y-59761362D01*
X134647365Y-59750802D01*
X134641990Y-59700803D01*
X134641988Y-59700795D01*
X134590889Y-59563797D01*
X134590887Y-59563792D01*
X134503261Y-59446738D01*
X134386207Y-59359112D01*
X134386202Y-59359110D01*
X134249204Y-59308011D01*
X134249196Y-59308009D01*
X134188649Y-59301500D01*
X134188638Y-59301500D01*
X133709647Y-59301500D01*
X133641526Y-59281498D01*
X133595033Y-59227842D01*
X133584929Y-59157568D01*
X133614423Y-59092988D01*
X133654978Y-59061978D01*
X133796640Y-58993757D01*
X133796640Y-58993756D01*
X133796646Y-58993754D01*
X134008219Y-58849505D01*
X134195931Y-58675334D01*
X134355587Y-58475131D01*
X134483622Y-58253369D01*
X134577174Y-58015001D01*
X134634155Y-57765353D01*
X134653291Y-57510000D01*
X134634155Y-57254647D01*
X134577174Y-57004999D01*
X134529257Y-56882908D01*
X134483625Y-56766637D01*
X134483623Y-56766633D01*
X134355589Y-56544872D01*
X134355588Y-56544870D01*
X134355587Y-56544869D01*
X134195931Y-56344666D01*
X134008219Y-56170495D01*
X133796646Y-56026246D01*
X133796643Y-56026245D01*
X133796641Y-56026243D01*
X133796640Y-56026242D01*
X133565936Y-55915142D01*
X133565929Y-55915139D01*
X133453311Y-55880402D01*
X133394113Y-55841210D01*
X133365500Y-55776234D01*
X133376559Y-55706104D01*
X133423777Y-55653086D01*
X133453311Y-55639598D01*
X133565929Y-55604860D01*
X133565930Y-55604859D01*
X133565935Y-55604858D01*
X133796646Y-55493754D01*
X134008219Y-55349505D01*
X134195931Y-55175334D01*
X134355587Y-54975131D01*
X134483622Y-54753369D01*
X134577174Y-54515001D01*
X134634155Y-54265353D01*
X134653291Y-54010000D01*
X134634155Y-53754647D01*
X134577174Y-53504999D01*
X134508067Y-53328916D01*
X134483625Y-53266637D01*
X134483623Y-53266633D01*
X134355589Y-53044872D01*
X134355588Y-53044870D01*
X134355587Y-53044869D01*
X134195931Y-52844666D01*
X134008219Y-52670495D01*
X133999175Y-52664329D01*
X133796647Y-52526247D01*
X133796646Y-52526246D01*
X133796643Y-52526245D01*
X133796641Y-52526243D01*
X133796640Y-52526242D01*
X133565936Y-52415142D01*
X133565929Y-52415139D01*
X133321253Y-52339667D01*
X133321245Y-52339665D01*
X133321243Y-52339665D01*
X133068034Y-52301500D01*
X132811966Y-52301500D01*
X132558757Y-52339665D01*
X132558755Y-52339665D01*
X132558746Y-52339667D01*
X132314073Y-52415138D01*
X132314060Y-52415143D01*
X132083352Y-52526247D01*
X132083345Y-52526251D01*
X131871787Y-52670490D01*
X131871782Y-52670494D01*
X131871781Y-52670495D01*
X131684069Y-52844666D01*
X131664815Y-52868810D01*
X131524412Y-53044870D01*
X131441486Y-53188501D01*
X131390103Y-53237494D01*
X131332367Y-53251500D01*
X127195372Y-53251500D01*
X127127251Y-53231498D01*
X127089890Y-53194417D01*
X127084504Y-53186175D01*
X127075722Y-53172732D01*
X126923240Y-53007094D01*
X126923239Y-53007093D01*
X126923237Y-53007091D01*
X126841382Y-52943381D01*
X126745576Y-52868811D01*
X126547574Y-52761658D01*
X126547572Y-52761657D01*
X126547571Y-52761656D01*
X126334639Y-52688557D01*
X126334630Y-52688555D01*
X126290476Y-52681187D01*
X126112569Y-52651500D01*
X125887431Y-52651500D01*
X125739211Y-52676233D01*
X125665369Y-52688555D01*
X125665360Y-52688557D01*
X125452428Y-52761656D01*
X125452426Y-52761658D01*
X125254426Y-52868810D01*
X125254424Y-52868811D01*
X125076762Y-53007091D01*
X124999421Y-53091106D01*
X124938568Y-53127677D01*
X124867603Y-53125542D01*
X124809058Y-53085380D01*
X124784576Y-53036699D01*
X124749297Y-52897387D01*
X124749296Y-52897386D01*
X124749296Y-52897384D01*
X124658860Y-52691209D01*
X124645324Y-52670490D01*
X124535724Y-52502734D01*
X124535720Y-52502729D01*
X124419570Y-52376559D01*
X124383240Y-52337094D01*
X124383239Y-52337093D01*
X124383237Y-52337091D01*
X124301382Y-52273381D01*
X124205576Y-52198811D01*
X124172319Y-52180813D01*
X124121929Y-52130802D01*
X124106576Y-52061485D01*
X124131136Y-51994872D01*
X124172320Y-51959186D01*
X124205576Y-51941189D01*
X124383240Y-51802906D01*
X124535722Y-51637268D01*
X124658860Y-51448791D01*
X124749296Y-51242616D01*
X124804564Y-51024368D01*
X124823156Y-50800000D01*
X124804564Y-50575632D01*
X124749296Y-50357384D01*
X124658860Y-50151209D01*
X124652140Y-50140924D01*
X124535724Y-49962734D01*
X124535720Y-49962729D01*
X124469791Y-49891112D01*
X124383240Y-49797094D01*
X124383234Y-49797089D01*
X124267109Y-49706704D01*
X124225638Y-49649079D01*
X124218500Y-49607273D01*
X124218500Y-49452726D01*
X124238502Y-49384605D01*
X124267106Y-49353297D01*
X124383240Y-49262906D01*
X124535722Y-49097268D01*
X124658860Y-48908791D01*
X124749296Y-48702616D01*
X124804564Y-48484368D01*
X124823156Y-48260000D01*
X124804564Y-48035632D01*
X124749296Y-47817384D01*
X124658860Y-47611209D01*
X124652140Y-47600924D01*
X124547777Y-47441182D01*
X125189500Y-47441182D01*
X125206828Y-47556144D01*
X125228604Y-47700619D01*
X125305933Y-47951314D01*
X125305938Y-47951327D01*
X125419773Y-48187706D01*
X125419777Y-48187713D01*
X125567562Y-48404472D01*
X125567567Y-48404479D01*
X125746019Y-48596805D01*
X125951143Y-48760386D01*
X125951146Y-48760388D01*
X126178352Y-48891566D01*
X126178356Y-48891567D01*
X126178357Y-48891568D01*
X126422584Y-48987420D01*
X126678370Y-49045802D01*
X126874506Y-49060500D01*
X126874507Y-49060500D01*
X127005493Y-49060500D01*
X127005494Y-49060500D01*
X127201630Y-49045802D01*
X127457416Y-48987420D01*
X127701643Y-48891568D01*
X127701645Y-48891566D01*
X127701647Y-48891566D01*
X127868533Y-48795214D01*
X127928857Y-48760386D01*
X128133981Y-48596805D01*
X128312433Y-48404479D01*
X128460228Y-48187704D01*
X128574063Y-47951323D01*
X128651396Y-47700615D01*
X128690500Y-47441182D01*
X128690500Y-47178818D01*
X128651396Y-46919385D01*
X128651395Y-46919383D01*
X128651395Y-46919380D01*
X128574066Y-46668685D01*
X128574061Y-46668672D01*
X128520410Y-46557265D01*
X128460228Y-46432296D01*
X128460226Y-46432293D01*
X128460222Y-46432286D01*
X128312437Y-46215527D01*
X128312433Y-46215521D01*
X128133981Y-46023195D01*
X127928857Y-45859614D01*
X127928852Y-45859611D01*
X127928853Y-45859611D01*
X127701647Y-45728433D01*
X127701639Y-45728430D01*
X127457419Y-45632581D01*
X127457417Y-45632580D01*
X127201633Y-45574198D01*
X127054528Y-45563174D01*
X127005494Y-45559500D01*
X126874506Y-45559500D01*
X126835278Y-45562439D01*
X126678366Y-45574198D01*
X126422582Y-45632580D01*
X126422580Y-45632581D01*
X126178360Y-45728430D01*
X126178352Y-45728433D01*
X125951146Y-45859611D01*
X125746018Y-46023195D01*
X125567566Y-46215522D01*
X125567562Y-46215527D01*
X125419777Y-46432286D01*
X125419773Y-46432293D01*
X125305938Y-46668672D01*
X125305933Y-46668685D01*
X125228604Y-46919380D01*
X125206879Y-47063514D01*
X125189500Y-47178818D01*
X125189500Y-47441182D01*
X124547777Y-47441182D01*
X124535724Y-47422734D01*
X124535720Y-47422729D01*
X124469791Y-47351112D01*
X124383240Y-47257094D01*
X124383234Y-47257089D01*
X124267109Y-47166704D01*
X124225638Y-47109079D01*
X124218500Y-47067273D01*
X124218500Y-46912726D01*
X124238502Y-46844605D01*
X124267106Y-46813297D01*
X124383240Y-46722906D01*
X124535722Y-46557268D01*
X124658860Y-46368791D01*
X124749296Y-46162616D01*
X124804564Y-45944368D01*
X124823156Y-45720000D01*
X124804564Y-45495632D01*
X124804562Y-45495624D01*
X124749297Y-45277387D01*
X124749296Y-45277386D01*
X124749296Y-45277384D01*
X124658860Y-45071209D01*
X124652140Y-45060924D01*
X124535724Y-44882734D01*
X124535720Y-44882729D01*
X124383237Y-44717091D01*
X124301382Y-44653381D01*
X124205576Y-44578811D01*
X124007574Y-44471658D01*
X124007572Y-44471657D01*
X124007571Y-44471656D01*
X123794639Y-44398557D01*
X123794630Y-44398555D01*
X123750476Y-44391187D01*
X123572569Y-44361500D01*
X123347431Y-44361500D01*
X123199211Y-44386233D01*
X123125369Y-44398555D01*
X123125360Y-44398557D01*
X122912428Y-44471656D01*
X122912426Y-44471658D01*
X122714426Y-44578810D01*
X122714424Y-44578811D01*
X122536762Y-44717091D01*
X122384279Y-44882729D01*
X122295483Y-45018643D01*
X122241479Y-45064731D01*
X122171131Y-45074306D01*
X122106774Y-45044329D01*
X122084517Y-45018643D01*
X121995720Y-44882729D01*
X121843237Y-44717091D01*
X121761382Y-44653381D01*
X121665576Y-44578811D01*
X121467574Y-44471658D01*
X121467572Y-44471657D01*
X121467571Y-44471656D01*
X121254639Y-44398557D01*
X121254630Y-44398555D01*
X121210476Y-44391187D01*
X121032569Y-44361500D01*
X120807431Y-44361500D01*
X120659211Y-44386233D01*
X120585369Y-44398555D01*
X120585360Y-44398557D01*
X120372428Y-44471656D01*
X120372426Y-44471658D01*
X120174426Y-44578810D01*
X120174424Y-44578811D01*
X119996762Y-44717091D01*
X119844279Y-44882729D01*
X119755483Y-45018643D01*
X119701479Y-45064731D01*
X119631131Y-45074306D01*
X119566774Y-45044329D01*
X119544517Y-45018643D01*
X119455720Y-44882729D01*
X119303237Y-44717091D01*
X119221382Y-44653381D01*
X119125576Y-44578811D01*
X118927574Y-44471658D01*
X118927572Y-44471657D01*
X118927571Y-44471656D01*
X118714639Y-44398557D01*
X118714630Y-44398555D01*
X118670476Y-44391187D01*
X118492569Y-44361500D01*
X118267431Y-44361500D01*
X118119211Y-44386233D01*
X118045369Y-44398555D01*
X118045360Y-44398557D01*
X117832428Y-44471656D01*
X117832426Y-44471658D01*
X117634426Y-44578810D01*
X117634424Y-44578811D01*
X117456762Y-44717091D01*
X117304279Y-44882729D01*
X117215483Y-45018643D01*
X117161479Y-45064731D01*
X117091131Y-45074306D01*
X117026774Y-45044329D01*
X117004517Y-45018643D01*
X116915720Y-44882729D01*
X116763237Y-44717091D01*
X116681382Y-44653381D01*
X116585576Y-44578811D01*
X116387574Y-44471658D01*
X116387572Y-44471657D01*
X116387571Y-44471656D01*
X116174639Y-44398557D01*
X116174630Y-44398555D01*
X116130476Y-44391187D01*
X115952569Y-44361500D01*
X115727431Y-44361500D01*
X115579211Y-44386233D01*
X115505369Y-44398555D01*
X115505360Y-44398557D01*
X115292428Y-44471656D01*
X115292426Y-44471658D01*
X115094426Y-44578810D01*
X115094424Y-44578811D01*
X114916762Y-44717091D01*
X114764279Y-44882729D01*
X114675483Y-45018643D01*
X114621479Y-45064731D01*
X114551131Y-45074306D01*
X114486774Y-45044329D01*
X114464517Y-45018643D01*
X114375720Y-44882729D01*
X114223237Y-44717091D01*
X114141382Y-44653381D01*
X114045576Y-44578811D01*
X113847574Y-44471658D01*
X113847572Y-44471657D01*
X113847571Y-44471656D01*
X113634639Y-44398557D01*
X113634630Y-44398555D01*
X113590476Y-44391187D01*
X113412569Y-44361500D01*
X113187431Y-44361500D01*
X113039211Y-44386233D01*
X112965369Y-44398555D01*
X112965360Y-44398557D01*
X112752428Y-44471656D01*
X112752426Y-44471658D01*
X112554426Y-44578810D01*
X112554424Y-44578811D01*
X112376762Y-44717091D01*
X112224279Y-44882729D01*
X112135483Y-45018643D01*
X112081479Y-45064731D01*
X112011131Y-45074306D01*
X111946774Y-45044329D01*
X111924517Y-45018643D01*
X111835720Y-44882729D01*
X111683237Y-44717091D01*
X111601382Y-44653381D01*
X111505576Y-44578811D01*
X111307574Y-44471658D01*
X111307572Y-44471657D01*
X111307571Y-44471656D01*
X111094639Y-44398557D01*
X111094630Y-44398555D01*
X111050476Y-44391187D01*
X110872569Y-44361500D01*
X110647431Y-44361500D01*
X110499211Y-44386233D01*
X110425369Y-44398555D01*
X110425360Y-44398557D01*
X110212428Y-44471656D01*
X110212426Y-44471658D01*
X110014426Y-44578810D01*
X110014424Y-44578811D01*
X109836762Y-44717091D01*
X109684279Y-44882729D01*
X109595483Y-45018643D01*
X109541479Y-45064731D01*
X109471131Y-45074306D01*
X109406774Y-45044329D01*
X109384517Y-45018643D01*
X109295720Y-44882729D01*
X109143237Y-44717091D01*
X109061382Y-44653381D01*
X108965576Y-44578811D01*
X108767574Y-44471658D01*
X108767572Y-44471657D01*
X108767571Y-44471656D01*
X108554639Y-44398557D01*
X108554630Y-44398555D01*
X108510476Y-44391187D01*
X108332569Y-44361500D01*
X108107431Y-44361500D01*
X107959211Y-44386233D01*
X107885369Y-44398555D01*
X107885360Y-44398557D01*
X107672428Y-44471656D01*
X107672426Y-44471658D01*
X107474426Y-44578810D01*
X107474424Y-44578811D01*
X107296762Y-44717091D01*
X107144279Y-44882729D01*
X107055483Y-45018643D01*
X107001479Y-45064731D01*
X106931131Y-45074306D01*
X106866774Y-45044329D01*
X106844517Y-45018643D01*
X106755720Y-44882729D01*
X106603237Y-44717091D01*
X106521382Y-44653381D01*
X106425576Y-44578811D01*
X106227574Y-44471658D01*
X106227572Y-44471657D01*
X106227571Y-44471656D01*
X106014639Y-44398557D01*
X106014630Y-44398555D01*
X105970476Y-44391187D01*
X105792569Y-44361500D01*
X105567431Y-44361500D01*
X105419211Y-44386233D01*
X105345369Y-44398555D01*
X105345360Y-44398557D01*
X105132428Y-44471656D01*
X105132426Y-44471658D01*
X104934426Y-44578810D01*
X104934424Y-44578811D01*
X104756762Y-44717091D01*
X104604279Y-44882729D01*
X104515483Y-45018643D01*
X104461479Y-45064731D01*
X104391131Y-45074306D01*
X104326774Y-45044329D01*
X104304517Y-45018643D01*
X104215720Y-44882729D01*
X104063237Y-44717091D01*
X103981382Y-44653381D01*
X103885576Y-44578811D01*
X103687574Y-44471658D01*
X103687572Y-44471657D01*
X103687571Y-44471656D01*
X103474639Y-44398557D01*
X103474630Y-44398555D01*
X103430476Y-44391187D01*
X103252569Y-44361500D01*
X103027431Y-44361500D01*
X102879211Y-44386233D01*
X102805369Y-44398555D01*
X102805360Y-44398557D01*
X102592428Y-44471656D01*
X102592426Y-44471658D01*
X102394426Y-44578810D01*
X102394424Y-44578811D01*
X102216762Y-44717091D01*
X102064279Y-44882729D01*
X101975483Y-45018643D01*
X101921479Y-45064731D01*
X101851131Y-45074306D01*
X101786774Y-45044329D01*
X101764517Y-45018643D01*
X101675720Y-44882729D01*
X101523237Y-44717091D01*
X101441382Y-44653381D01*
X101345576Y-44578811D01*
X101147574Y-44471658D01*
X101147572Y-44471657D01*
X101147571Y-44471656D01*
X100934639Y-44398557D01*
X100934630Y-44398555D01*
X100890476Y-44391187D01*
X100712569Y-44361500D01*
X100487431Y-44361500D01*
X100339211Y-44386233D01*
X100265369Y-44398555D01*
X100265360Y-44398557D01*
X100052428Y-44471656D01*
X100052426Y-44471658D01*
X99854426Y-44578810D01*
X99854424Y-44578811D01*
X99676762Y-44717091D01*
X99524279Y-44882729D01*
X99435483Y-45018643D01*
X99381479Y-45064731D01*
X99311131Y-45074306D01*
X99246774Y-45044329D01*
X99224517Y-45018643D01*
X99135720Y-44882729D01*
X98983237Y-44717091D01*
X98901382Y-44653381D01*
X98805576Y-44578811D01*
X98607574Y-44471658D01*
X98607572Y-44471657D01*
X98607571Y-44471656D01*
X98394639Y-44398557D01*
X98394630Y-44398555D01*
X98350476Y-44391187D01*
X98172569Y-44361500D01*
X97947431Y-44361500D01*
X97799211Y-44386233D01*
X97725369Y-44398555D01*
X97725360Y-44398557D01*
X97512428Y-44471656D01*
X97512426Y-44471658D01*
X97314426Y-44578810D01*
X97314424Y-44578811D01*
X97136762Y-44717091D01*
X96984279Y-44882729D01*
X96895483Y-45018643D01*
X96841479Y-45064731D01*
X96771131Y-45074306D01*
X96706774Y-45044329D01*
X96684517Y-45018643D01*
X96595720Y-44882729D01*
X96443237Y-44717091D01*
X96361382Y-44653381D01*
X96265576Y-44578811D01*
X96067574Y-44471658D01*
X96067572Y-44471657D01*
X96067571Y-44471656D01*
X95854639Y-44398557D01*
X95854630Y-44398555D01*
X95810476Y-44391187D01*
X95632569Y-44361500D01*
X95407431Y-44361500D01*
X95259211Y-44386233D01*
X95185369Y-44398555D01*
X95185360Y-44398557D01*
X94972428Y-44471656D01*
X94972426Y-44471658D01*
X94774426Y-44578810D01*
X94774424Y-44578811D01*
X94596762Y-44717091D01*
X94444279Y-44882729D01*
X94355483Y-45018643D01*
X94301479Y-45064731D01*
X94231131Y-45074306D01*
X94166774Y-45044329D01*
X94144517Y-45018643D01*
X94055720Y-44882729D01*
X93903237Y-44717091D01*
X93821382Y-44653381D01*
X93725576Y-44578811D01*
X93527574Y-44471658D01*
X93527572Y-44471657D01*
X93527571Y-44471656D01*
X93314639Y-44398557D01*
X93314630Y-44398555D01*
X93270476Y-44391187D01*
X93092569Y-44361500D01*
X92867431Y-44361500D01*
X92719211Y-44386233D01*
X92645369Y-44398555D01*
X92645360Y-44398557D01*
X92432428Y-44471656D01*
X92432426Y-44471658D01*
X92234426Y-44578810D01*
X92234424Y-44578811D01*
X92056762Y-44717091D01*
X91904279Y-44882729D01*
X91815483Y-45018643D01*
X91761479Y-45064731D01*
X91691131Y-45074306D01*
X91626774Y-45044329D01*
X91604517Y-45018643D01*
X91515720Y-44882729D01*
X91363237Y-44717091D01*
X91281382Y-44653381D01*
X91185576Y-44578811D01*
X90987574Y-44471658D01*
X90987572Y-44471657D01*
X90987571Y-44471656D01*
X90774639Y-44398557D01*
X90774630Y-44398555D01*
X90730476Y-44391187D01*
X90552569Y-44361500D01*
X90327431Y-44361500D01*
X90179211Y-44386233D01*
X90105369Y-44398555D01*
X90105360Y-44398557D01*
X89892428Y-44471656D01*
X89892426Y-44471658D01*
X89694426Y-44578810D01*
X89694424Y-44578811D01*
X89516762Y-44717091D01*
X89364279Y-44882729D01*
X89275483Y-45018643D01*
X89221479Y-45064731D01*
X89151131Y-45074306D01*
X89086774Y-45044329D01*
X89064517Y-45018643D01*
X88975720Y-44882729D01*
X88823237Y-44717091D01*
X88741382Y-44653381D01*
X88645576Y-44578811D01*
X88447574Y-44471658D01*
X88447572Y-44471657D01*
X88447571Y-44471656D01*
X88234639Y-44398557D01*
X88234630Y-44398555D01*
X88190476Y-44391187D01*
X88012569Y-44361500D01*
X87787431Y-44361500D01*
X87639211Y-44386233D01*
X87565369Y-44398555D01*
X87565360Y-44398557D01*
X87352428Y-44471656D01*
X87352426Y-44471658D01*
X87154426Y-44578810D01*
X87154424Y-44578811D01*
X86976762Y-44717091D01*
X86824279Y-44882729D01*
X86735483Y-45018643D01*
X86681479Y-45064731D01*
X86611131Y-45074306D01*
X86546774Y-45044329D01*
X86524517Y-45018643D01*
X86435720Y-44882729D01*
X86283237Y-44717091D01*
X86201382Y-44653381D01*
X86105576Y-44578811D01*
X85907574Y-44471658D01*
X85907572Y-44471657D01*
X85907571Y-44471656D01*
X85694639Y-44398557D01*
X85694630Y-44398555D01*
X85650476Y-44391187D01*
X85472569Y-44361500D01*
X85247431Y-44361500D01*
X85099211Y-44386233D01*
X85025369Y-44398555D01*
X85025360Y-44398557D01*
X84812428Y-44471656D01*
X84812426Y-44471658D01*
X84614426Y-44578810D01*
X84614424Y-44578811D01*
X84436762Y-44717091D01*
X84284279Y-44882729D01*
X84195483Y-45018643D01*
X84141479Y-45064731D01*
X84071131Y-45074306D01*
X84006774Y-45044329D01*
X83984517Y-45018643D01*
X83895720Y-44882729D01*
X83743237Y-44717091D01*
X83661382Y-44653381D01*
X83565576Y-44578811D01*
X83367574Y-44471658D01*
X83367572Y-44471657D01*
X83367571Y-44471656D01*
X83154639Y-44398557D01*
X83154630Y-44398555D01*
X83110476Y-44391187D01*
X82932569Y-44361500D01*
X82707431Y-44361500D01*
X82559211Y-44386233D01*
X82485369Y-44398555D01*
X82485360Y-44398557D01*
X82272428Y-44471656D01*
X82272426Y-44471658D01*
X82074426Y-44578810D01*
X82074424Y-44578811D01*
X81896762Y-44717091D01*
X81744279Y-44882729D01*
X81655483Y-45018643D01*
X81601479Y-45064731D01*
X81531131Y-45074306D01*
X81466774Y-45044329D01*
X81444517Y-45018643D01*
X81355720Y-44882729D01*
X81203237Y-44717091D01*
X81121382Y-44653381D01*
X81025576Y-44578811D01*
X80827574Y-44471658D01*
X80827572Y-44471657D01*
X80827571Y-44471656D01*
X80614639Y-44398557D01*
X80614630Y-44398555D01*
X80570476Y-44391187D01*
X80392569Y-44361500D01*
X80167431Y-44361500D01*
X80019211Y-44386233D01*
X79945369Y-44398555D01*
X79945360Y-44398557D01*
X79732428Y-44471656D01*
X79732426Y-44471658D01*
X79534426Y-44578810D01*
X79534424Y-44578811D01*
X79356762Y-44717091D01*
X79204279Y-44882729D01*
X79115483Y-45018643D01*
X79061479Y-45064731D01*
X78991131Y-45074306D01*
X78926774Y-45044329D01*
X78904517Y-45018643D01*
X78815720Y-44882729D01*
X78663237Y-44717091D01*
X78581382Y-44653381D01*
X78485576Y-44578811D01*
X78287574Y-44471658D01*
X78287572Y-44471657D01*
X78287571Y-44471656D01*
X78074639Y-44398557D01*
X78074630Y-44398555D01*
X78030476Y-44391187D01*
X77852569Y-44361500D01*
X77627431Y-44361500D01*
X77479211Y-44386233D01*
X77405369Y-44398555D01*
X77405360Y-44398557D01*
X77192428Y-44471656D01*
X77192426Y-44471658D01*
X76994426Y-44578810D01*
X76994424Y-44578811D01*
X76816762Y-44717091D01*
X76664279Y-44882729D01*
X76575483Y-45018643D01*
X76521479Y-45064731D01*
X76451131Y-45074306D01*
X76386774Y-45044329D01*
X76364517Y-45018643D01*
X76275720Y-44882729D01*
X76123237Y-44717091D01*
X76041382Y-44653381D01*
X75945576Y-44578811D01*
X75747574Y-44471658D01*
X75747572Y-44471657D01*
X75747571Y-44471656D01*
X75534639Y-44398557D01*
X75534630Y-44398555D01*
X75490476Y-44391187D01*
X75312569Y-44361500D01*
X75087431Y-44361500D01*
X74939211Y-44386233D01*
X74865369Y-44398555D01*
X74865360Y-44398557D01*
X74652428Y-44471656D01*
X74652426Y-44471658D01*
X74454426Y-44578810D01*
X74454424Y-44578811D01*
X74276762Y-44717091D01*
X74124279Y-44882729D01*
X74124275Y-44882734D01*
X74001141Y-45071206D01*
X73910703Y-45277386D01*
X73910702Y-45277387D01*
X73855437Y-45495624D01*
X73855436Y-45495630D01*
X73855436Y-45495632D01*
X73836844Y-45720000D01*
X73848552Y-45861295D01*
X73855437Y-45944375D01*
X73910702Y-46162612D01*
X73910703Y-46162613D01*
X73910704Y-46162616D01*
X73964038Y-46284206D01*
X74001141Y-46368793D01*
X74124275Y-46557265D01*
X74124279Y-46557270D01*
X74197082Y-46636353D01*
X74276760Y-46722906D01*
X74392892Y-46813296D01*
X74434362Y-46870919D01*
X74441500Y-46912726D01*
X74441500Y-47067273D01*
X74421498Y-47135394D01*
X74392891Y-47166704D01*
X74276765Y-47257089D01*
X74276760Y-47257094D01*
X74124279Y-47422729D01*
X74124275Y-47422734D01*
X74001141Y-47611206D01*
X73910703Y-47817386D01*
X73910702Y-47817387D01*
X73855437Y-48035624D01*
X73855436Y-48035630D01*
X73855436Y-48035632D01*
X73836844Y-48260000D01*
X73849860Y-48417081D01*
X73855437Y-48484375D01*
X73910702Y-48702612D01*
X73910703Y-48702613D01*
X73910704Y-48702616D01*
X73993585Y-48891568D01*
X74001141Y-48908793D01*
X74124275Y-49097265D01*
X74124279Y-49097270D01*
X74197082Y-49176353D01*
X74276760Y-49262906D01*
X74392892Y-49353296D01*
X74434362Y-49410919D01*
X74441500Y-49452726D01*
X74441500Y-49607273D01*
X74421498Y-49675394D01*
X74392891Y-49706704D01*
X74276765Y-49797089D01*
X74276760Y-49797094D01*
X74124279Y-49962729D01*
X74124275Y-49962734D01*
X74001141Y-50151206D01*
X73910703Y-50357386D01*
X73910702Y-50357387D01*
X73855437Y-50575624D01*
X73836844Y-50800000D01*
X73855437Y-51024375D01*
X73910702Y-51242612D01*
X73910703Y-51242613D01*
X74001141Y-51448793D01*
X74124275Y-51637265D01*
X74124279Y-51637270D01*
X74276762Y-51802908D01*
X74331331Y-51845381D01*
X74454424Y-51941189D01*
X74487680Y-51959186D01*
X74538071Y-52009200D01*
X74553423Y-52078516D01*
X74528862Y-52145129D01*
X74487680Y-52180813D01*
X74454426Y-52198810D01*
X74454424Y-52198811D01*
X74276762Y-52337091D01*
X74124279Y-52502729D01*
X74124275Y-52502734D01*
X74001141Y-52691206D01*
X73910703Y-52897386D01*
X73910702Y-52897387D01*
X73855437Y-53115624D01*
X73855436Y-53115630D01*
X73855436Y-53115632D01*
X73836844Y-53340000D01*
X73850516Y-53504999D01*
X73855437Y-53564375D01*
X73910702Y-53782612D01*
X73910703Y-53782613D01*
X74001141Y-53988793D01*
X74124275Y-54177265D01*
X74124279Y-54177270D01*
X74165754Y-54222323D01*
X74276760Y-54342906D01*
X74392892Y-54433296D01*
X74434362Y-54490919D01*
X74441500Y-54532726D01*
X74441500Y-54687273D01*
X74421498Y-54755394D01*
X74392891Y-54786704D01*
X74276765Y-54877089D01*
X74276760Y-54877094D01*
X74124279Y-55042729D01*
X74124275Y-55042734D01*
X74001141Y-55231206D01*
X73910703Y-55437386D01*
X73910702Y-55437387D01*
X73855437Y-55655624D01*
X73855436Y-55655630D01*
X73855436Y-55655632D01*
X73836844Y-55880000D01*
X73848962Y-56026243D01*
X73855437Y-56104375D01*
X73910702Y-56322612D01*
X73910703Y-56322613D01*
X73910704Y-56322616D01*
X73930967Y-56368811D01*
X74001141Y-56528793D01*
X74124275Y-56717265D01*
X74124279Y-56717270D01*
X74276762Y-56882908D01*
X74331331Y-56925381D01*
X74454424Y-57021189D01*
X74487680Y-57039186D01*
X74538071Y-57089200D01*
X74553423Y-57158516D01*
X74528862Y-57225129D01*
X74487680Y-57260813D01*
X74454426Y-57278810D01*
X74454424Y-57278811D01*
X74276762Y-57417091D01*
X74124279Y-57582729D01*
X74124275Y-57582734D01*
X74001141Y-57771206D01*
X73910703Y-57977386D01*
X73910702Y-57977387D01*
X73855437Y-58195624D01*
X73855436Y-58195630D01*
X73855436Y-58195632D01*
X73836844Y-58420000D01*
X73846685Y-58538766D01*
X73855437Y-58644375D01*
X73910702Y-58862612D01*
X73910703Y-58862613D01*
X73910704Y-58862616D01*
X73968225Y-58993752D01*
X74001141Y-59068793D01*
X74124275Y-59257265D01*
X74124279Y-59257270D01*
X74276762Y-59422908D01*
X74307379Y-59446738D01*
X74454424Y-59561189D01*
X74487680Y-59579186D01*
X74538071Y-59629200D01*
X74553423Y-59698516D01*
X74528862Y-59765129D01*
X74487680Y-59800813D01*
X74454426Y-59818810D01*
X74454424Y-59818811D01*
X74276762Y-59957091D01*
X74124279Y-60122729D01*
X74124275Y-60122734D01*
X74001141Y-60311206D01*
X73910703Y-60517386D01*
X73910702Y-60517387D01*
X73855437Y-60735624D01*
X73836844Y-60960000D01*
X73855437Y-61184375D01*
X73910702Y-61402612D01*
X73910703Y-61402613D01*
X74001141Y-61608793D01*
X74124275Y-61797265D01*
X74124279Y-61797270D01*
X74276762Y-61962908D01*
X74331331Y-62005381D01*
X74454424Y-62101189D01*
X74487680Y-62119186D01*
X74538071Y-62169200D01*
X74553423Y-62238516D01*
X74528862Y-62305129D01*
X74487680Y-62340813D01*
X74454426Y-62358810D01*
X74454424Y-62358811D01*
X74276762Y-62497091D01*
X74124279Y-62662729D01*
X74124275Y-62662734D01*
X74001141Y-62851206D01*
X73910703Y-63057386D01*
X73910702Y-63057387D01*
X73855437Y-63275624D01*
X73836844Y-63500000D01*
X73855437Y-63724375D01*
X73910702Y-63942612D01*
X73910703Y-63942613D01*
X74001141Y-64148793D01*
X74124275Y-64337265D01*
X74124279Y-64337270D01*
X74197082Y-64416353D01*
X74276760Y-64502906D01*
X74392892Y-64593296D01*
X74434362Y-64650919D01*
X74441500Y-64692726D01*
X74441500Y-64847273D01*
X74421498Y-64915394D01*
X74392891Y-64946704D01*
X74276765Y-65037089D01*
X74276760Y-65037094D01*
X74124279Y-65202729D01*
X74124275Y-65202734D01*
X74001141Y-65391206D01*
X73910703Y-65597386D01*
X73910702Y-65597387D01*
X73855437Y-65815624D01*
X73855436Y-65815630D01*
X73855436Y-65815632D01*
X73836844Y-66040000D01*
X73854232Y-66249844D01*
X73855437Y-66264375D01*
X73910702Y-66482612D01*
X73910703Y-66482613D01*
X73910704Y-66482616D01*
X74001140Y-66688791D01*
X74001141Y-66688793D01*
X74124275Y-66877265D01*
X74124279Y-66877270D01*
X74197082Y-66956353D01*
X74276760Y-67042906D01*
X74392892Y-67133296D01*
X74434362Y-67190919D01*
X74441500Y-67232726D01*
X74441500Y-67387273D01*
X74421498Y-67455394D01*
X74392891Y-67486704D01*
X74276765Y-67577089D01*
X74276760Y-67577094D01*
X74124279Y-67742729D01*
X74124275Y-67742734D01*
X74001141Y-67931206D01*
X73910703Y-68137386D01*
X73910702Y-68137387D01*
X73855437Y-68355624D01*
X73855436Y-68355630D01*
X73855436Y-68355632D01*
X73836844Y-68580000D01*
X73854232Y-68789844D01*
X73855437Y-68804375D01*
X73910702Y-69022612D01*
X73910703Y-69022613D01*
X73910704Y-69022616D01*
X74001140Y-69228791D01*
X74001141Y-69228793D01*
X74124275Y-69417265D01*
X74124279Y-69417270D01*
X74197082Y-69496353D01*
X74276760Y-69582906D01*
X74392892Y-69673296D01*
X74434362Y-69730919D01*
X74441500Y-69772726D01*
X74441500Y-69927273D01*
X74421498Y-69995394D01*
X74392891Y-70026704D01*
X74276765Y-70117089D01*
X74276760Y-70117094D01*
X74124279Y-70282729D01*
X74124275Y-70282734D01*
X74001141Y-70471206D01*
X73910703Y-70677386D01*
X73910702Y-70677387D01*
X73855437Y-70895624D01*
X73836844Y-71120000D01*
X73855437Y-71344375D01*
X73910702Y-71562612D01*
X73910703Y-71562613D01*
X74001141Y-71768793D01*
X74124275Y-71957265D01*
X74124279Y-71957270D01*
X74177555Y-72015142D01*
X74276760Y-72122906D01*
X74392892Y-72213296D01*
X74434362Y-72270919D01*
X74441500Y-72312726D01*
X74441500Y-72467273D01*
X74421498Y-72535394D01*
X74392891Y-72566704D01*
X74276765Y-72657089D01*
X74276760Y-72657094D01*
X74124279Y-72822729D01*
X74124275Y-72822734D01*
X74001141Y-73011206D01*
X73910703Y-73217386D01*
X73910702Y-73217387D01*
X73855437Y-73435624D01*
X73855436Y-73435630D01*
X73855436Y-73435632D01*
X73836844Y-73660000D01*
X73853860Y-73865353D01*
X73855437Y-73884375D01*
X73910702Y-74102612D01*
X73910703Y-74102613D01*
X73910704Y-74102616D01*
X73919034Y-74121606D01*
X74001141Y-74308793D01*
X74124275Y-74497265D01*
X74124279Y-74497270D01*
X74195953Y-74575127D01*
X74276760Y-74662906D01*
X74392892Y-74753296D01*
X74434362Y-74810919D01*
X74441500Y-74852726D01*
X74441500Y-75007273D01*
X74421498Y-75075394D01*
X74392891Y-75106704D01*
X74276765Y-75197089D01*
X74276760Y-75197094D01*
X74124279Y-75362729D01*
X74124275Y-75362734D01*
X74001141Y-75551206D01*
X73910703Y-75757386D01*
X73910702Y-75757387D01*
X73855437Y-75975624D01*
X73855436Y-75975630D01*
X73855436Y-75975632D01*
X73836844Y-76200000D01*
X73848237Y-76337494D01*
X73855437Y-76424375D01*
X73910702Y-76642612D01*
X73910703Y-76642613D01*
X74001141Y-76848793D01*
X74124275Y-77037265D01*
X74124279Y-77037270D01*
X74191233Y-77110000D01*
X74276760Y-77202906D01*
X74392892Y-77293296D01*
X74434362Y-77350919D01*
X74441500Y-77392726D01*
X74441500Y-77547273D01*
X74421498Y-77615394D01*
X74392891Y-77646704D01*
X74276765Y-77737089D01*
X74276760Y-77737094D01*
X74124279Y-77902729D01*
X74124275Y-77902734D01*
X74001141Y-78091206D01*
X73910703Y-78297386D01*
X73910702Y-78297387D01*
X73855437Y-78515624D01*
X73855436Y-78515630D01*
X73855436Y-78515632D01*
X73836844Y-78740000D01*
X73855000Y-78959112D01*
X73855437Y-78964375D01*
X73910702Y-79182612D01*
X73910703Y-79182613D01*
X73910704Y-79182616D01*
X73999781Y-79385692D01*
X74001141Y-79388793D01*
X74124275Y-79577265D01*
X74124279Y-79577270D01*
X74252539Y-79716596D01*
X74260736Y-79725500D01*
X74276762Y-79742908D01*
X74331331Y-79785381D01*
X74454424Y-79881189D01*
X74487680Y-79899186D01*
X74538071Y-79949200D01*
X74553423Y-80018516D01*
X74528862Y-80085129D01*
X74487680Y-80120813D01*
X74454426Y-80138810D01*
X74454424Y-80138811D01*
X74276762Y-80277091D01*
X74124279Y-80442729D01*
X74124275Y-80442734D01*
X74001141Y-80631206D01*
X73910703Y-80837386D01*
X73910702Y-80837387D01*
X73855437Y-81055624D01*
X73855436Y-81055630D01*
X73855436Y-81055632D01*
X73836844Y-81280000D01*
X64465500Y-81280000D01*
X64465500Y-67441182D01*
X68189500Y-67441182D01*
X68209985Y-67577089D01*
X68228604Y-67700619D01*
X68305933Y-67951314D01*
X68305938Y-67951327D01*
X68419773Y-68187706D01*
X68419777Y-68187713D01*
X68544166Y-68370156D01*
X68567567Y-68404479D01*
X68746019Y-68596805D01*
X68951143Y-68760386D01*
X68951146Y-68760388D01*
X69178352Y-68891566D01*
X69178356Y-68891567D01*
X69178357Y-68891568D01*
X69422584Y-68987420D01*
X69678370Y-69045802D01*
X69874506Y-69060500D01*
X69874507Y-69060500D01*
X70005493Y-69060500D01*
X70005494Y-69060500D01*
X70201630Y-69045802D01*
X70457416Y-68987420D01*
X70701643Y-68891568D01*
X70701645Y-68891566D01*
X70701647Y-68891566D01*
X70852678Y-68804368D01*
X70928857Y-68760386D01*
X71133981Y-68596805D01*
X71312433Y-68404479D01*
X71460228Y-68187704D01*
X71574063Y-67951323D01*
X71580193Y-67931451D01*
X71651395Y-67700619D01*
X71670014Y-67577094D01*
X71690500Y-67441182D01*
X71690500Y-67178818D01*
X71651396Y-66919385D01*
X71651395Y-66919383D01*
X71651395Y-66919380D01*
X71574066Y-66668685D01*
X71574061Y-66668672D01*
X71504718Y-66524680D01*
X71460228Y-66432296D01*
X71460226Y-66432293D01*
X71460222Y-66432286D01*
X71312437Y-66215527D01*
X71312433Y-66215521D01*
X71133981Y-66023195D01*
X70928857Y-65859614D01*
X70928852Y-65859611D01*
X70928853Y-65859611D01*
X70701647Y-65728433D01*
X70701639Y-65728430D01*
X70457419Y-65632581D01*
X70457417Y-65632580D01*
X70201633Y-65574198D01*
X70054528Y-65563174D01*
X70005494Y-65559500D01*
X69874506Y-65559500D01*
X69835278Y-65562439D01*
X69678366Y-65574198D01*
X69422582Y-65632580D01*
X69422580Y-65632581D01*
X69178360Y-65728430D01*
X69178352Y-65728433D01*
X68951146Y-65859611D01*
X68746018Y-66023195D01*
X68567566Y-66215522D01*
X68567562Y-66215527D01*
X68419777Y-66432286D01*
X68419773Y-66432293D01*
X68305938Y-66668672D01*
X68305933Y-66668685D01*
X68228604Y-66919380D01*
X68209986Y-67042905D01*
X68189500Y-67178818D01*
X68189500Y-67441182D01*
X64465500Y-67441182D01*
X64465500Y-49461500D01*
X64485502Y-49393379D01*
X64539158Y-49346886D01*
X64591500Y-49335500D01*
X64684166Y-49335500D01*
X64684167Y-49335500D01*
X65171135Y-49299006D01*
X65654015Y-49226224D01*
X66130105Y-49117559D01*
X66521415Y-48996856D01*
X66596735Y-48973623D01*
X66596737Y-48973621D01*
X66596744Y-48973620D01*
X67051321Y-48795212D01*
X67491295Y-48583332D01*
X67914205Y-48339165D01*
X68317685Y-48064077D01*
X68699480Y-47759605D01*
X69057454Y-47427454D01*
X69389605Y-47069480D01*
X69694077Y-46687685D01*
X69969165Y-46284205D01*
X70213332Y-45861295D01*
X70425212Y-45421321D01*
X70603620Y-44966744D01*
X70747559Y-44500105D01*
X70856224Y-44024015D01*
X70929006Y-43541135D01*
X70965500Y-43054167D01*
X70965500Y-42961500D01*
X70985502Y-42893379D01*
X71039158Y-42846886D01*
X71091500Y-42835500D01*
X132788500Y-42835500D01*
X132856621Y-42855502D01*
G37*
G04 #@! TD.AperFunction*
G04 #@! TA.AperFunction,Conductor*
G36*
X132856621Y-91855502D02*
G01*
X132903114Y-91909158D01*
X132914500Y-91961500D01*
X132914500Y-92054165D01*
X132950993Y-92541130D01*
X132950993Y-92541131D01*
X132950994Y-92541135D01*
X133023776Y-93024015D01*
X133023779Y-93024026D01*
X133132438Y-93500094D01*
X133132444Y-93500117D01*
X133276376Y-93966735D01*
X133454785Y-94421314D01*
X133454800Y-94421347D01*
X133666662Y-94861283D01*
X133666665Y-94861290D01*
X133910835Y-95284206D01*
X134172969Y-95668685D01*
X134185923Y-95687685D01*
X134490395Y-96069480D01*
X134822546Y-96427454D01*
X135180520Y-96759605D01*
X135562315Y-97064077D01*
X135562332Y-97064089D01*
X135562334Y-97064090D01*
X135965793Y-97339164D01*
X135965795Y-97339165D01*
X136388705Y-97583332D01*
X136828679Y-97795212D01*
X137252008Y-97961356D01*
X137283264Y-97973623D01*
X137749882Y-98117555D01*
X137749895Y-98117559D01*
X138225985Y-98226224D01*
X138708865Y-98299006D01*
X139195833Y-98335500D01*
X139288500Y-98335500D01*
X139356621Y-98355502D01*
X139403114Y-98409158D01*
X139414500Y-98461500D01*
X139414500Y-134158500D01*
X139394498Y-134226621D01*
X139340842Y-134273114D01*
X139288500Y-134284500D01*
X139195833Y-134284500D01*
X139148755Y-134288028D01*
X138708869Y-134320993D01*
X138708868Y-134320993D01*
X138444334Y-134360865D01*
X138225985Y-134393776D01*
X138098973Y-134422765D01*
X137749905Y-134502438D01*
X137749882Y-134502444D01*
X137283264Y-134646376D01*
X136828685Y-134824785D01*
X136828652Y-134824800D01*
X136388716Y-135036662D01*
X136388709Y-135036665D01*
X135965793Y-135280835D01*
X135562334Y-135555909D01*
X135562316Y-135555922D01*
X135562315Y-135555923D01*
X135180520Y-135860395D01*
X134822546Y-136192546D01*
X134490395Y-136550520D01*
X134332049Y-136749079D01*
X134185922Y-136932316D01*
X134185909Y-136932334D01*
X133910835Y-137335793D01*
X133666665Y-137758709D01*
X133666662Y-137758716D01*
X133454800Y-138198652D01*
X133454785Y-138198685D01*
X133276376Y-138653264D01*
X133132444Y-139119882D01*
X133132438Y-139119905D01*
X133100805Y-139258500D01*
X133023776Y-139595985D01*
X133023776Y-139595988D01*
X132950993Y-140078868D01*
X132950993Y-140078869D01*
X132914500Y-140565834D01*
X132914500Y-140658500D01*
X132894498Y-140726621D01*
X132840842Y-140773114D01*
X132788500Y-140784500D01*
X71091500Y-140784500D01*
X71023379Y-140764498D01*
X70976886Y-140710842D01*
X70965500Y-140658500D01*
X70965500Y-140565834D01*
X70965500Y-140565833D01*
X70929006Y-140078865D01*
X70856224Y-139595985D01*
X70747559Y-139119895D01*
X70747555Y-139119882D01*
X70603623Y-138653264D01*
X70573169Y-138575669D01*
X70425212Y-138198679D01*
X70213332Y-137758705D01*
X69969165Y-137335795D01*
X69911495Y-137251209D01*
X69694090Y-136932334D01*
X69694089Y-136932332D01*
X69694077Y-136932315D01*
X69389605Y-136550520D01*
X69288154Y-136441182D01*
X75189500Y-136441182D01*
X75205981Y-136550522D01*
X75228604Y-136700619D01*
X75305933Y-136951314D01*
X75305938Y-136951327D01*
X75419773Y-137187706D01*
X75419777Y-137187713D01*
X75567562Y-137404472D01*
X75567567Y-137404479D01*
X75746019Y-137596805D01*
X75951143Y-137760386D01*
X75951146Y-137760388D01*
X76178352Y-137891566D01*
X76178356Y-137891567D01*
X76178357Y-137891568D01*
X76422584Y-137987420D01*
X76678370Y-138045802D01*
X76874506Y-138060500D01*
X76874507Y-138060500D01*
X77005493Y-138060500D01*
X77005494Y-138060500D01*
X77201630Y-138045802D01*
X77457416Y-137987420D01*
X77701643Y-137891568D01*
X77701645Y-137891566D01*
X77701647Y-137891566D01*
X77815250Y-137825977D01*
X77928857Y-137760386D01*
X78133981Y-137596805D01*
X78312433Y-137404479D01*
X78460228Y-137187704D01*
X78574063Y-136951323D01*
X78574066Y-136951314D01*
X78651395Y-136700619D01*
X78674019Y-136550522D01*
X78690500Y-136441182D01*
X78690500Y-136178818D01*
X78651396Y-135919385D01*
X78651395Y-135919383D01*
X78651395Y-135919380D01*
X78574066Y-135668685D01*
X78574061Y-135668672D01*
X78519757Y-135555909D01*
X78460228Y-135432296D01*
X78460226Y-135432293D01*
X78460222Y-135432286D01*
X78312437Y-135215527D01*
X78312433Y-135215521D01*
X78133981Y-135023195D01*
X77928857Y-134859614D01*
X77928852Y-134859611D01*
X77928853Y-134859611D01*
X77701647Y-134728433D01*
X77701639Y-134728430D01*
X77457419Y-134632581D01*
X77457417Y-134632580D01*
X77201633Y-134574198D01*
X77054528Y-134563174D01*
X77005494Y-134559500D01*
X76874506Y-134559500D01*
X76835278Y-134562439D01*
X76678366Y-134574198D01*
X76422582Y-134632580D01*
X76422580Y-134632581D01*
X76178360Y-134728430D01*
X76178352Y-134728433D01*
X75951146Y-134859611D01*
X75746018Y-135023195D01*
X75567566Y-135215522D01*
X75567562Y-135215527D01*
X75419777Y-135432286D01*
X75419773Y-135432293D01*
X75305938Y-135668672D01*
X75305933Y-135668685D01*
X75228604Y-135919380D01*
X75211077Y-136035669D01*
X75189500Y-136178818D01*
X75189500Y-136441182D01*
X69288154Y-136441182D01*
X69057454Y-136192546D01*
X68699480Y-135860395D01*
X68317685Y-135555923D01*
X68317674Y-135555915D01*
X68317665Y-135555909D01*
X67914206Y-135280835D01*
X67491290Y-135036665D01*
X67491283Y-135036662D01*
X67051347Y-134824800D01*
X67051314Y-134824785D01*
X66596735Y-134646376D01*
X66130117Y-134502444D01*
X66130094Y-134502438D01*
X65892060Y-134448108D01*
X65654015Y-134393776D01*
X65362883Y-134349895D01*
X65171131Y-134320993D01*
X64731244Y-134288028D01*
X64684167Y-134284500D01*
X64684166Y-134284500D01*
X64591500Y-134284500D01*
X64523379Y-134264498D01*
X64476886Y-134210842D01*
X64465500Y-134158500D01*
X64465500Y-130280000D01*
X73836844Y-130280000D01*
X73854886Y-130497732D01*
X73855437Y-130504375D01*
X73910702Y-130722612D01*
X73910703Y-130722613D01*
X73910704Y-130722616D01*
X73996935Y-130919204D01*
X74001141Y-130928793D01*
X74124275Y-131117265D01*
X74124279Y-131117270D01*
X74276762Y-131282908D01*
X74314124Y-131311988D01*
X74454424Y-131421189D01*
X74652426Y-131528342D01*
X74652427Y-131528342D01*
X74652428Y-131528343D01*
X74740320Y-131558516D01*
X74865365Y-131601444D01*
X75087431Y-131638500D01*
X75087435Y-131638500D01*
X75312565Y-131638500D01*
X75312569Y-131638500D01*
X75534635Y-131601444D01*
X75747574Y-131528342D01*
X75945576Y-131421189D01*
X76123240Y-131282906D01*
X76275722Y-131117268D01*
X76289890Y-131095583D01*
X76343895Y-131049495D01*
X76395372Y-131038500D01*
X76544628Y-131038500D01*
X76612749Y-131058502D01*
X76650110Y-131095583D01*
X76664278Y-131117268D01*
X76715824Y-131173261D01*
X76816762Y-131282908D01*
X76854124Y-131311988D01*
X76994424Y-131421189D01*
X77192426Y-131528342D01*
X77192427Y-131528342D01*
X77192428Y-131528343D01*
X77280320Y-131558516D01*
X77405365Y-131601444D01*
X77627431Y-131638500D01*
X77627435Y-131638500D01*
X77852565Y-131638500D01*
X77852569Y-131638500D01*
X78074635Y-131601444D01*
X78287574Y-131528342D01*
X78485576Y-131421189D01*
X78663240Y-131282906D01*
X78815722Y-131117268D01*
X78829890Y-131095583D01*
X78883895Y-131049495D01*
X78935372Y-131038500D01*
X79084628Y-131038500D01*
X79152749Y-131058502D01*
X79190110Y-131095583D01*
X79204278Y-131117268D01*
X79255824Y-131173261D01*
X79356762Y-131282908D01*
X79394124Y-131311988D01*
X79534424Y-131421189D01*
X79732426Y-131528342D01*
X79732427Y-131528342D01*
X79732428Y-131528343D01*
X79820320Y-131558516D01*
X79945365Y-131601444D01*
X80167431Y-131638500D01*
X80167435Y-131638500D01*
X80392565Y-131638500D01*
X80392569Y-131638500D01*
X80614635Y-131601444D01*
X80827574Y-131528342D01*
X81025576Y-131421189D01*
X81203240Y-131282906D01*
X81355722Y-131117268D01*
X81369890Y-131095583D01*
X81423895Y-131049495D01*
X81475372Y-131038500D01*
X81624628Y-131038500D01*
X81692749Y-131058502D01*
X81730110Y-131095583D01*
X81744278Y-131117268D01*
X81795824Y-131173261D01*
X81896762Y-131282908D01*
X81934124Y-131311988D01*
X82074424Y-131421189D01*
X82272426Y-131528342D01*
X82272427Y-131528342D01*
X82272428Y-131528343D01*
X82360320Y-131558516D01*
X82485365Y-131601444D01*
X82707431Y-131638500D01*
X82707435Y-131638500D01*
X82932565Y-131638500D01*
X82932569Y-131638500D01*
X83154635Y-131601444D01*
X83367574Y-131528342D01*
X83565576Y-131421189D01*
X83743240Y-131282906D01*
X83895722Y-131117268D01*
X83909890Y-131095583D01*
X83963895Y-131049495D01*
X84015372Y-131038500D01*
X84164628Y-131038500D01*
X84232749Y-131058502D01*
X84270110Y-131095583D01*
X84284278Y-131117268D01*
X84335824Y-131173261D01*
X84436762Y-131282908D01*
X84474124Y-131311988D01*
X84614424Y-131421189D01*
X84647680Y-131439186D01*
X84698071Y-131489200D01*
X84713423Y-131558516D01*
X84688862Y-131625129D01*
X84647680Y-131660813D01*
X84614426Y-131678810D01*
X84614424Y-131678811D01*
X84436762Y-131817091D01*
X84284279Y-131982729D01*
X84284275Y-131982734D01*
X84161141Y-132171206D01*
X84070703Y-132377386D01*
X84070702Y-132377387D01*
X84015437Y-132595624D01*
X83996844Y-132820000D01*
X84015437Y-133044375D01*
X84070702Y-133262612D01*
X84070703Y-133262613D01*
X84161141Y-133468793D01*
X84284275Y-133657265D01*
X84284279Y-133657270D01*
X84436762Y-133822908D01*
X84491331Y-133865381D01*
X84614424Y-133961189D01*
X84647680Y-133979186D01*
X84698071Y-134029200D01*
X84713423Y-134098516D01*
X84688862Y-134165129D01*
X84647680Y-134200813D01*
X84614426Y-134218810D01*
X84614424Y-134218811D01*
X84436762Y-134357091D01*
X84284279Y-134522729D01*
X84284275Y-134522734D01*
X84161141Y-134711206D01*
X84070703Y-134917386D01*
X84070702Y-134917387D01*
X84015437Y-135135624D01*
X84015436Y-135135630D01*
X84015436Y-135135632D01*
X83996844Y-135360000D01*
X84002834Y-135432293D01*
X84015437Y-135584375D01*
X84070702Y-135802612D01*
X84070703Y-135802613D01*
X84161141Y-136008793D01*
X84284275Y-136197265D01*
X84284279Y-136197270D01*
X84357082Y-136276353D01*
X84436760Y-136362906D01*
X84552892Y-136453296D01*
X84594362Y-136510919D01*
X84601500Y-136552726D01*
X84601500Y-136707273D01*
X84581498Y-136775394D01*
X84552891Y-136806704D01*
X84436765Y-136897089D01*
X84436760Y-136897094D01*
X84284279Y-137062729D01*
X84284275Y-137062734D01*
X84161141Y-137251206D01*
X84070703Y-137457386D01*
X84070702Y-137457387D01*
X84015437Y-137675624D01*
X84015436Y-137675630D01*
X84015436Y-137675632D01*
X83996844Y-137900000D01*
X84005198Y-138000820D01*
X84015437Y-138124375D01*
X84070702Y-138342612D01*
X84070703Y-138342613D01*
X84161141Y-138548793D01*
X84284275Y-138737265D01*
X84284279Y-138737270D01*
X84436762Y-138902908D01*
X84491331Y-138945381D01*
X84614424Y-139041189D01*
X84812426Y-139148342D01*
X84812427Y-139148342D01*
X84812428Y-139148343D01*
X84924227Y-139186723D01*
X85025365Y-139221444D01*
X85247431Y-139258500D01*
X85247435Y-139258500D01*
X85472565Y-139258500D01*
X85472569Y-139258500D01*
X85694635Y-139221444D01*
X85907574Y-139148342D01*
X86105576Y-139041189D01*
X86283240Y-138902906D01*
X86435722Y-138737268D01*
X86524518Y-138601354D01*
X86578520Y-138555268D01*
X86648868Y-138545692D01*
X86713225Y-138575669D01*
X86735480Y-138601353D01*
X86768607Y-138652058D01*
X86824275Y-138737265D01*
X86824279Y-138737270D01*
X86976762Y-138902908D01*
X87031331Y-138945381D01*
X87154424Y-139041189D01*
X87352426Y-139148342D01*
X87352427Y-139148342D01*
X87352428Y-139148343D01*
X87464227Y-139186723D01*
X87565365Y-139221444D01*
X87787431Y-139258500D01*
X87787435Y-139258500D01*
X88012565Y-139258500D01*
X88012569Y-139258500D01*
X88234635Y-139221444D01*
X88447574Y-139148342D01*
X88645576Y-139041189D01*
X88823240Y-138902906D01*
X88975722Y-138737268D01*
X89064518Y-138601354D01*
X89118520Y-138555268D01*
X89188868Y-138545692D01*
X89253225Y-138575669D01*
X89275480Y-138601353D01*
X89308607Y-138652058D01*
X89364275Y-138737265D01*
X89364279Y-138737270D01*
X89516762Y-138902908D01*
X89571331Y-138945381D01*
X89694424Y-139041189D01*
X89892426Y-139148342D01*
X89892427Y-139148342D01*
X89892428Y-139148343D01*
X90004227Y-139186723D01*
X90105365Y-139221444D01*
X90327431Y-139258500D01*
X90327435Y-139258500D01*
X90552565Y-139258500D01*
X90552569Y-139258500D01*
X90774635Y-139221444D01*
X90987574Y-139148342D01*
X91185576Y-139041189D01*
X91363240Y-138902906D01*
X91515722Y-138737268D01*
X91604518Y-138601354D01*
X91658520Y-138555268D01*
X91728868Y-138545692D01*
X91793225Y-138575669D01*
X91815480Y-138601353D01*
X91848607Y-138652058D01*
X91904275Y-138737265D01*
X91904279Y-138737270D01*
X92056762Y-138902908D01*
X92111331Y-138945381D01*
X92234424Y-139041189D01*
X92432426Y-139148342D01*
X92432427Y-139148342D01*
X92432428Y-139148343D01*
X92544227Y-139186723D01*
X92645365Y-139221444D01*
X92867431Y-139258500D01*
X92867435Y-139258500D01*
X93092565Y-139258500D01*
X93092569Y-139258500D01*
X93314635Y-139221444D01*
X93527574Y-139148342D01*
X93725576Y-139041189D01*
X93903240Y-138902906D01*
X94055722Y-138737268D01*
X94144518Y-138601354D01*
X94198520Y-138555268D01*
X94268868Y-138545692D01*
X94333225Y-138575669D01*
X94355480Y-138601353D01*
X94388607Y-138652058D01*
X94444275Y-138737265D01*
X94444279Y-138737270D01*
X94596762Y-138902908D01*
X94651331Y-138945381D01*
X94774424Y-139041189D01*
X94972426Y-139148342D01*
X94972427Y-139148342D01*
X94972428Y-139148343D01*
X95084227Y-139186723D01*
X95185365Y-139221444D01*
X95407431Y-139258500D01*
X95407435Y-139258500D01*
X95632565Y-139258500D01*
X95632569Y-139258500D01*
X95854635Y-139221444D01*
X96067574Y-139148342D01*
X96265576Y-139041189D01*
X96443240Y-138902906D01*
X96595722Y-138737268D01*
X96684518Y-138601354D01*
X96738520Y-138555268D01*
X96808868Y-138545692D01*
X96873225Y-138575669D01*
X96895480Y-138601353D01*
X96928607Y-138652058D01*
X96984275Y-138737265D01*
X96984279Y-138737270D01*
X97136762Y-138902908D01*
X97191331Y-138945381D01*
X97314424Y-139041189D01*
X97512426Y-139148342D01*
X97512427Y-139148342D01*
X97512428Y-139148343D01*
X97624227Y-139186723D01*
X97725365Y-139221444D01*
X97947431Y-139258500D01*
X97947435Y-139258500D01*
X98172565Y-139258500D01*
X98172569Y-139258500D01*
X98394635Y-139221444D01*
X98607574Y-139148342D01*
X98805576Y-139041189D01*
X98983240Y-138902906D01*
X99135722Y-138737268D01*
X99224518Y-138601354D01*
X99278520Y-138555268D01*
X99348868Y-138545692D01*
X99413225Y-138575669D01*
X99435480Y-138601353D01*
X99468607Y-138652058D01*
X99524275Y-138737265D01*
X99524279Y-138737270D01*
X99676762Y-138902908D01*
X99731331Y-138945381D01*
X99854424Y-139041189D01*
X100052426Y-139148342D01*
X100052427Y-139148342D01*
X100052428Y-139148343D01*
X100164227Y-139186723D01*
X100265365Y-139221444D01*
X100487431Y-139258500D01*
X100487435Y-139258500D01*
X100712565Y-139258500D01*
X100712569Y-139258500D01*
X100934635Y-139221444D01*
X101147574Y-139148342D01*
X101345576Y-139041189D01*
X101523240Y-138902906D01*
X101675722Y-138737268D01*
X101764518Y-138601354D01*
X101818520Y-138555268D01*
X101888868Y-138545692D01*
X101953225Y-138575669D01*
X101975480Y-138601353D01*
X102008607Y-138652058D01*
X102064275Y-138737265D01*
X102064279Y-138737270D01*
X102216762Y-138902908D01*
X102271331Y-138945381D01*
X102394424Y-139041189D01*
X102592426Y-139148342D01*
X102592427Y-139148342D01*
X102592428Y-139148343D01*
X102704227Y-139186723D01*
X102805365Y-139221444D01*
X103027431Y-139258500D01*
X103027435Y-139258500D01*
X103252565Y-139258500D01*
X103252569Y-139258500D01*
X103474635Y-139221444D01*
X103687574Y-139148342D01*
X103885576Y-139041189D01*
X104063240Y-138902906D01*
X104215722Y-138737268D01*
X104304518Y-138601354D01*
X104358520Y-138555268D01*
X104428868Y-138545692D01*
X104493225Y-138575669D01*
X104515480Y-138601353D01*
X104548607Y-138652058D01*
X104604275Y-138737265D01*
X104604279Y-138737270D01*
X104756762Y-138902908D01*
X104811331Y-138945381D01*
X104934424Y-139041189D01*
X105132426Y-139148342D01*
X105132427Y-139148342D01*
X105132428Y-139148343D01*
X105244227Y-139186723D01*
X105345365Y-139221444D01*
X105567431Y-139258500D01*
X105567435Y-139258500D01*
X105792565Y-139258500D01*
X105792569Y-139258500D01*
X106014635Y-139221444D01*
X106227574Y-139148342D01*
X106425576Y-139041189D01*
X106603240Y-138902906D01*
X106755722Y-138737268D01*
X106844518Y-138601354D01*
X106898520Y-138555268D01*
X106968868Y-138545692D01*
X107033225Y-138575669D01*
X107055480Y-138601353D01*
X107088607Y-138652058D01*
X107144275Y-138737265D01*
X107144279Y-138737270D01*
X107296762Y-138902908D01*
X107351331Y-138945381D01*
X107474424Y-139041189D01*
X107672426Y-139148342D01*
X107672427Y-139148342D01*
X107672428Y-139148343D01*
X107784227Y-139186723D01*
X107885365Y-139221444D01*
X108107431Y-139258500D01*
X108107435Y-139258500D01*
X108332565Y-139258500D01*
X108332569Y-139258500D01*
X108554635Y-139221444D01*
X108767574Y-139148342D01*
X108965576Y-139041189D01*
X109143240Y-138902906D01*
X109295722Y-138737268D01*
X109384518Y-138601354D01*
X109438520Y-138555268D01*
X109508868Y-138545692D01*
X109573225Y-138575669D01*
X109595480Y-138601353D01*
X109628607Y-138652058D01*
X109684275Y-138737265D01*
X109684279Y-138737270D01*
X109836762Y-138902908D01*
X109891331Y-138945381D01*
X110014424Y-139041189D01*
X110212426Y-139148342D01*
X110212427Y-139148342D01*
X110212428Y-139148343D01*
X110324227Y-139186723D01*
X110425365Y-139221444D01*
X110647431Y-139258500D01*
X110647435Y-139258500D01*
X110872565Y-139258500D01*
X110872569Y-139258500D01*
X111094635Y-139221444D01*
X111307574Y-139148342D01*
X111505576Y-139041189D01*
X111683240Y-138902906D01*
X111835722Y-138737268D01*
X111924518Y-138601354D01*
X111978520Y-138555268D01*
X112048868Y-138545692D01*
X112113225Y-138575669D01*
X112135480Y-138601353D01*
X112168607Y-138652058D01*
X112224275Y-138737265D01*
X112224279Y-138737270D01*
X112376762Y-138902908D01*
X112431331Y-138945381D01*
X112554424Y-139041189D01*
X112752426Y-139148342D01*
X112752427Y-139148342D01*
X112752428Y-139148343D01*
X112864227Y-139186723D01*
X112965365Y-139221444D01*
X113187431Y-139258500D01*
X113187435Y-139258500D01*
X113412565Y-139258500D01*
X113412569Y-139258500D01*
X113634635Y-139221444D01*
X113847574Y-139148342D01*
X114045576Y-139041189D01*
X114223240Y-138902906D01*
X114375722Y-138737268D01*
X114464518Y-138601354D01*
X114518520Y-138555268D01*
X114588868Y-138545692D01*
X114653225Y-138575669D01*
X114675480Y-138601353D01*
X114708607Y-138652058D01*
X114764275Y-138737265D01*
X114764279Y-138737270D01*
X114916762Y-138902908D01*
X114971331Y-138945381D01*
X115094424Y-139041189D01*
X115292426Y-139148342D01*
X115292427Y-139148342D01*
X115292428Y-139148343D01*
X115404227Y-139186723D01*
X115505365Y-139221444D01*
X115727431Y-139258500D01*
X115727435Y-139258500D01*
X115952565Y-139258500D01*
X115952569Y-139258500D01*
X116174635Y-139221444D01*
X116387574Y-139148342D01*
X116585576Y-139041189D01*
X116763240Y-138902906D01*
X116915722Y-138737268D01*
X117004518Y-138601354D01*
X117058520Y-138555268D01*
X117128868Y-138545692D01*
X117193225Y-138575669D01*
X117215480Y-138601353D01*
X117248607Y-138652058D01*
X117304275Y-138737265D01*
X117304279Y-138737270D01*
X117456762Y-138902908D01*
X117511331Y-138945381D01*
X117634424Y-139041189D01*
X117832426Y-139148342D01*
X117832427Y-139148342D01*
X117832428Y-139148343D01*
X117944227Y-139186723D01*
X118045365Y-139221444D01*
X118267431Y-139258500D01*
X118267435Y-139258500D01*
X118492565Y-139258500D01*
X118492569Y-139258500D01*
X118714635Y-139221444D01*
X118927574Y-139148342D01*
X119125576Y-139041189D01*
X119303240Y-138902906D01*
X119455722Y-138737268D01*
X119544518Y-138601354D01*
X119598520Y-138555268D01*
X119668868Y-138545692D01*
X119733225Y-138575669D01*
X119755480Y-138601353D01*
X119788607Y-138652058D01*
X119844275Y-138737265D01*
X119844279Y-138737270D01*
X119996762Y-138902908D01*
X120051331Y-138945381D01*
X120174424Y-139041189D01*
X120372426Y-139148342D01*
X120372427Y-139148342D01*
X120372428Y-139148343D01*
X120484227Y-139186723D01*
X120585365Y-139221444D01*
X120807431Y-139258500D01*
X120807435Y-139258500D01*
X121032565Y-139258500D01*
X121032569Y-139258500D01*
X121254635Y-139221444D01*
X121467574Y-139148342D01*
X121665576Y-139041189D01*
X121843240Y-138902906D01*
X121995722Y-138737268D01*
X122084518Y-138601354D01*
X122138520Y-138555268D01*
X122208868Y-138545692D01*
X122273225Y-138575669D01*
X122295480Y-138601353D01*
X122328607Y-138652058D01*
X122384275Y-138737265D01*
X122384279Y-138737270D01*
X122536762Y-138902908D01*
X122591331Y-138945381D01*
X122714424Y-139041189D01*
X122912426Y-139148342D01*
X122912427Y-139148342D01*
X122912428Y-139148343D01*
X123024227Y-139186723D01*
X123125365Y-139221444D01*
X123347431Y-139258500D01*
X123347435Y-139258500D01*
X123572565Y-139258500D01*
X123572569Y-139258500D01*
X123794635Y-139221444D01*
X124007574Y-139148342D01*
X124205576Y-139041189D01*
X124383240Y-138902906D01*
X124535722Y-138737268D01*
X124658860Y-138548791D01*
X124749296Y-138342616D01*
X124804564Y-138124368D01*
X124823156Y-137900000D01*
X124804564Y-137675632D01*
X124749296Y-137457384D01*
X124658860Y-137251209D01*
X124652140Y-137240924D01*
X124535724Y-137062734D01*
X124535720Y-137062729D01*
X124433165Y-136951327D01*
X124383240Y-136897094D01*
X124383234Y-136897089D01*
X124267109Y-136806704D01*
X124225638Y-136749079D01*
X124218500Y-136707273D01*
X124218500Y-136552726D01*
X124238502Y-136484605D01*
X124267106Y-136453297D01*
X124282671Y-136441182D01*
X125189500Y-136441182D01*
X125205981Y-136550522D01*
X125228604Y-136700619D01*
X125305933Y-136951314D01*
X125305938Y-136951327D01*
X125419773Y-137187706D01*
X125419777Y-137187713D01*
X125567562Y-137404472D01*
X125567567Y-137404479D01*
X125746019Y-137596805D01*
X125951143Y-137760386D01*
X125951146Y-137760388D01*
X126178352Y-137891566D01*
X126178356Y-137891567D01*
X126178357Y-137891568D01*
X126422584Y-137987420D01*
X126678370Y-138045802D01*
X126874506Y-138060500D01*
X126874507Y-138060500D01*
X127005493Y-138060500D01*
X127005494Y-138060500D01*
X127201630Y-138045802D01*
X127457416Y-137987420D01*
X127701643Y-137891568D01*
X127701645Y-137891566D01*
X127701647Y-137891566D01*
X127815250Y-137825977D01*
X127928857Y-137760386D01*
X128133981Y-137596805D01*
X128312433Y-137404479D01*
X128460228Y-137187704D01*
X128574063Y-136951323D01*
X128574066Y-136951314D01*
X128651395Y-136700619D01*
X128674019Y-136550522D01*
X128690500Y-136441182D01*
X128690500Y-136178818D01*
X128651396Y-135919385D01*
X128651395Y-135919383D01*
X128651395Y-135919380D01*
X128574066Y-135668685D01*
X128574061Y-135668672D01*
X128519757Y-135555909D01*
X128460228Y-135432296D01*
X128460226Y-135432293D01*
X128460222Y-135432286D01*
X128312437Y-135215527D01*
X128312433Y-135215521D01*
X128133981Y-135023195D01*
X127928857Y-134859614D01*
X127928852Y-134859611D01*
X127928853Y-134859611D01*
X127701647Y-134728433D01*
X127701639Y-134728430D01*
X127457419Y-134632581D01*
X127457417Y-134632580D01*
X127201633Y-134574198D01*
X127054528Y-134563174D01*
X127005494Y-134559500D01*
X126874506Y-134559500D01*
X126835278Y-134562439D01*
X126678366Y-134574198D01*
X126422582Y-134632580D01*
X126422580Y-134632581D01*
X126178360Y-134728430D01*
X126178352Y-134728433D01*
X125951146Y-134859611D01*
X125746018Y-135023195D01*
X125567566Y-135215522D01*
X125567562Y-135215527D01*
X125419777Y-135432286D01*
X125419773Y-135432293D01*
X125305938Y-135668672D01*
X125305933Y-135668685D01*
X125228604Y-135919380D01*
X125211077Y-136035669D01*
X125189500Y-136178818D01*
X125189500Y-136441182D01*
X124282671Y-136441182D01*
X124383240Y-136362906D01*
X124535722Y-136197268D01*
X124658860Y-136008791D01*
X124749296Y-135802616D01*
X124804564Y-135584368D01*
X124823156Y-135360000D01*
X124804564Y-135135632D01*
X124749296Y-134917384D01*
X124658860Y-134711209D01*
X124652140Y-134700924D01*
X124535724Y-134522734D01*
X124535720Y-134522729D01*
X124383237Y-134357091D01*
X124289972Y-134284500D01*
X124205576Y-134218811D01*
X124172319Y-134200813D01*
X124121929Y-134150802D01*
X124106576Y-134081485D01*
X124131136Y-134014872D01*
X124172320Y-133979186D01*
X124205576Y-133961189D01*
X124383240Y-133822906D01*
X124535722Y-133657268D01*
X124658860Y-133468791D01*
X124749296Y-133262616D01*
X124804564Y-133044368D01*
X124823156Y-132820000D01*
X124804564Y-132595632D01*
X124749296Y-132377384D01*
X124658860Y-132171209D01*
X124652140Y-132160924D01*
X124535724Y-131982734D01*
X124535720Y-131982729D01*
X124383237Y-131817091D01*
X124301382Y-131753381D01*
X124205576Y-131678811D01*
X124172319Y-131660813D01*
X124121929Y-131610802D01*
X124106576Y-131541485D01*
X124131136Y-131474872D01*
X124172320Y-131439186D01*
X124205576Y-131421189D01*
X124383240Y-131282906D01*
X124535722Y-131117268D01*
X124658860Y-130928791D01*
X124749296Y-130722616D01*
X124777078Y-130612908D01*
X124784576Y-130583300D01*
X124820688Y-130522174D01*
X124884115Y-130490275D01*
X124954719Y-130497732D01*
X124999417Y-130528890D01*
X125076760Y-130612906D01*
X125076762Y-130612908D01*
X125131331Y-130655381D01*
X125254424Y-130751189D01*
X125452426Y-130858342D01*
X125452427Y-130858342D01*
X125452428Y-130858343D01*
X125564227Y-130896723D01*
X125665365Y-130931444D01*
X125887431Y-130968500D01*
X125887435Y-130968500D01*
X126112565Y-130968500D01*
X126112569Y-130968500D01*
X126334635Y-130931444D01*
X126547574Y-130858342D01*
X126745576Y-130751189D01*
X126923240Y-130612906D01*
X127075722Y-130447268D01*
X127089890Y-130425583D01*
X127143895Y-130379495D01*
X127195372Y-130368500D01*
X131105500Y-130368500D01*
X131173621Y-130388502D01*
X131220114Y-130442158D01*
X131231500Y-130494500D01*
X131231500Y-130858649D01*
X131238009Y-130919196D01*
X131238011Y-130919204D01*
X131289110Y-131056202D01*
X131289112Y-131056207D01*
X131376738Y-131173261D01*
X131493792Y-131260887D01*
X131493794Y-131260888D01*
X131493796Y-131260889D01*
X131552825Y-131282906D01*
X131630795Y-131311988D01*
X131630803Y-131311990D01*
X131691350Y-131318499D01*
X131691355Y-131318499D01*
X131691362Y-131318500D01*
X131691368Y-131318500D01*
X134188632Y-131318500D01*
X134188638Y-131318500D01*
X134188645Y-131318499D01*
X134188649Y-131318499D01*
X134249196Y-131311990D01*
X134249199Y-131311989D01*
X134249201Y-131311989D01*
X134386204Y-131260889D01*
X134503261Y-131173261D01*
X134590887Y-131056207D01*
X134590887Y-131056206D01*
X134590889Y-131056204D01*
X134641989Y-130919201D01*
X134648500Y-130858638D01*
X134648500Y-128361362D01*
X134648499Y-128361350D01*
X134641990Y-128300803D01*
X134641988Y-128300795D01*
X134612924Y-128222875D01*
X134590889Y-128163796D01*
X134590888Y-128163794D01*
X134590887Y-128163792D01*
X134503261Y-128046738D01*
X134386207Y-127959112D01*
X134386202Y-127959110D01*
X134249204Y-127908011D01*
X134249196Y-127908009D01*
X134188649Y-127901500D01*
X134188638Y-127901500D01*
X133709647Y-127901500D01*
X133641526Y-127881498D01*
X133595033Y-127827842D01*
X133584929Y-127757568D01*
X133614423Y-127692988D01*
X133654978Y-127661978D01*
X133796640Y-127593757D01*
X133796640Y-127593756D01*
X133796646Y-127593754D01*
X134008219Y-127449505D01*
X134195931Y-127275334D01*
X134355587Y-127075131D01*
X134483622Y-126853369D01*
X134577174Y-126615001D01*
X134634155Y-126365353D01*
X134653291Y-126110000D01*
X134634155Y-125854647D01*
X134577174Y-125604999D01*
X134572013Y-125591849D01*
X134483625Y-125366637D01*
X134483623Y-125366633D01*
X134355589Y-125144872D01*
X134355588Y-125144870D01*
X134355587Y-125144869D01*
X134195931Y-124944666D01*
X134008219Y-124770495D01*
X133988993Y-124757387D01*
X133796647Y-124626247D01*
X133796646Y-124626246D01*
X133796643Y-124626245D01*
X133796641Y-124626243D01*
X133796640Y-124626242D01*
X133565936Y-124515142D01*
X133565929Y-124515139D01*
X133453311Y-124480402D01*
X133394113Y-124441210D01*
X133365500Y-124376234D01*
X133376559Y-124306104D01*
X133423777Y-124253086D01*
X133453311Y-124239598D01*
X133565929Y-124204860D01*
X133565930Y-124204859D01*
X133565935Y-124204858D01*
X133796646Y-124093754D01*
X134008219Y-123949505D01*
X134195931Y-123775334D01*
X134355587Y-123575131D01*
X134483622Y-123353369D01*
X134498576Y-123315268D01*
X134564770Y-123146606D01*
X134577174Y-123115001D01*
X134634155Y-122865353D01*
X134653291Y-122610000D01*
X134634155Y-122354647D01*
X134577174Y-122104999D01*
X134541580Y-122014306D01*
X134483625Y-121866637D01*
X134483623Y-121866633D01*
X134355589Y-121644872D01*
X134355588Y-121644870D01*
X134355587Y-121644869D01*
X134195931Y-121444666D01*
X134008219Y-121270495D01*
X133979814Y-121251129D01*
X133796647Y-121126247D01*
X133796646Y-121126246D01*
X133796643Y-121126245D01*
X133796641Y-121126243D01*
X133796640Y-121126242D01*
X133565936Y-121015142D01*
X133565929Y-121015139D01*
X133321253Y-120939667D01*
X133321245Y-120939665D01*
X133321243Y-120939665D01*
X133068034Y-120901500D01*
X132811966Y-120901500D01*
X132558757Y-120939665D01*
X132558755Y-120939665D01*
X132558746Y-120939667D01*
X132314073Y-121015138D01*
X132314060Y-121015143D01*
X132083352Y-121126247D01*
X132083345Y-121126251D01*
X131871787Y-121270490D01*
X131871782Y-121270494D01*
X131684070Y-121444665D01*
X131524412Y-121644870D01*
X131441486Y-121788501D01*
X131390103Y-121837494D01*
X131332367Y-121851500D01*
X127195372Y-121851500D01*
X127127251Y-121831498D01*
X127089890Y-121794417D01*
X127084504Y-121786175D01*
X127075722Y-121772732D01*
X126923240Y-121607094D01*
X126923239Y-121607093D01*
X126923237Y-121607091D01*
X126822739Y-121528870D01*
X126745576Y-121468811D01*
X126547574Y-121361658D01*
X126547572Y-121361657D01*
X126547571Y-121361656D01*
X126334639Y-121288557D01*
X126334630Y-121288555D01*
X126290476Y-121281187D01*
X126112569Y-121251500D01*
X125887431Y-121251500D01*
X125739211Y-121276233D01*
X125665369Y-121288555D01*
X125665360Y-121288557D01*
X125452428Y-121361656D01*
X125452426Y-121361658D01*
X125254426Y-121468810D01*
X125254424Y-121468811D01*
X125076762Y-121607091D01*
X124924279Y-121772729D01*
X124819149Y-121933643D01*
X124765145Y-121979731D01*
X124694797Y-121989306D01*
X124630440Y-121959328D01*
X124608183Y-121933642D01*
X124535724Y-121822734D01*
X124535720Y-121822729D01*
X124469791Y-121751112D01*
X124383240Y-121657094D01*
X124383234Y-121657089D01*
X124267109Y-121566704D01*
X124225638Y-121509079D01*
X124218500Y-121467273D01*
X124218500Y-121312726D01*
X124238502Y-121244605D01*
X124267106Y-121213297D01*
X124383240Y-121122906D01*
X124535722Y-120957268D01*
X124658860Y-120768791D01*
X124749296Y-120562616D01*
X124804564Y-120344368D01*
X124823156Y-120120000D01*
X124804564Y-119895632D01*
X124749296Y-119677384D01*
X124658860Y-119471209D01*
X124652140Y-119460924D01*
X124535724Y-119282734D01*
X124535720Y-119282729D01*
X124469791Y-119211112D01*
X124383240Y-119117094D01*
X124383234Y-119117089D01*
X124267109Y-119026704D01*
X124225638Y-118969079D01*
X124218500Y-118927273D01*
X124218500Y-118772726D01*
X124238502Y-118704605D01*
X124267106Y-118673297D01*
X124383240Y-118582906D01*
X124535722Y-118417268D01*
X124658860Y-118228791D01*
X124749296Y-118022616D01*
X124804564Y-117804368D01*
X124823156Y-117580000D01*
X126177346Y-117580000D01*
X126195932Y-117804292D01*
X126251176Y-118022449D01*
X126251179Y-118022456D01*
X126341580Y-118228548D01*
X126416921Y-118343866D01*
X127055638Y-117705149D01*
X127080507Y-117789844D01*
X127158239Y-117910798D01*
X127266900Y-118004952D01*
X127397685Y-118064680D01*
X127412411Y-118066797D01*
X126774310Y-118704898D01*
X126794697Y-118720766D01*
X126794701Y-118720768D01*
X126992628Y-118827882D01*
X126992630Y-118827883D01*
X127205483Y-118900955D01*
X127205490Y-118900957D01*
X127427477Y-118938000D01*
X127652523Y-118938000D01*
X127874509Y-118900957D01*
X127874516Y-118900955D01*
X128087369Y-118827883D01*
X128087371Y-118827881D01*
X128285298Y-118720769D01*
X128305688Y-118704898D01*
X127667587Y-118066797D01*
X127682315Y-118064680D01*
X127813100Y-118004952D01*
X127921761Y-117910798D01*
X127999493Y-117789844D01*
X128024361Y-117705150D01*
X128663077Y-118343866D01*
X128738419Y-118228548D01*
X128828820Y-118022456D01*
X128828823Y-118022449D01*
X128884067Y-117804292D01*
X128902653Y-117580000D01*
X128884067Y-117355707D01*
X128828823Y-117137550D01*
X128828820Y-117137543D01*
X128738419Y-116931451D01*
X128663077Y-116816132D01*
X128024360Y-117454848D01*
X127999493Y-117370156D01*
X127921761Y-117249202D01*
X127813100Y-117155048D01*
X127682315Y-117095320D01*
X127667586Y-117093202D01*
X128305688Y-116455100D01*
X128305687Y-116455099D01*
X128287807Y-116441182D01*
X132189500Y-116441182D01*
X132209985Y-116577089D01*
X132228604Y-116700619D01*
X132305933Y-116951314D01*
X132305938Y-116951327D01*
X132419773Y-117187706D01*
X132419777Y-117187713D01*
X132544166Y-117370156D01*
X132567567Y-117404479D01*
X132746019Y-117596805D01*
X132951143Y-117760386D01*
X132951146Y-117760388D01*
X133178352Y-117891566D01*
X133178356Y-117891567D01*
X133178357Y-117891568D01*
X133422584Y-117987420D01*
X133678370Y-118045802D01*
X133874506Y-118060500D01*
X133874507Y-118060500D01*
X134005493Y-118060500D01*
X134005494Y-118060500D01*
X134201630Y-118045802D01*
X134457416Y-117987420D01*
X134701643Y-117891568D01*
X134701645Y-117891566D01*
X134701647Y-117891566D01*
X134852678Y-117804368D01*
X134928857Y-117760386D01*
X135133981Y-117596805D01*
X135312433Y-117404479D01*
X135460228Y-117187704D01*
X135574063Y-116951323D01*
X135580193Y-116931451D01*
X135651395Y-116700619D01*
X135670014Y-116577094D01*
X135690500Y-116441182D01*
X135690500Y-116178818D01*
X135651396Y-115919385D01*
X135651395Y-115919383D01*
X135651395Y-115919380D01*
X135574066Y-115668685D01*
X135574061Y-115668672D01*
X135504718Y-115524680D01*
X135460228Y-115432296D01*
X135460226Y-115432293D01*
X135460222Y-115432286D01*
X135312437Y-115215527D01*
X135312433Y-115215521D01*
X135133981Y-115023195D01*
X134928857Y-114859614D01*
X134928852Y-114859611D01*
X134928853Y-114859611D01*
X134701647Y-114728433D01*
X134701639Y-114728430D01*
X134457419Y-114632581D01*
X134457417Y-114632580D01*
X134201633Y-114574198D01*
X134054528Y-114563174D01*
X134005494Y-114559500D01*
X133874506Y-114559500D01*
X133835278Y-114562439D01*
X133678366Y-114574198D01*
X133422582Y-114632580D01*
X133422580Y-114632581D01*
X133178360Y-114728430D01*
X133178352Y-114728433D01*
X132951146Y-114859611D01*
X132746018Y-115023195D01*
X132567566Y-115215522D01*
X132567562Y-115215527D01*
X132419777Y-115432286D01*
X132419773Y-115432293D01*
X132305938Y-115668672D01*
X132305933Y-115668685D01*
X132228604Y-115919380D01*
X132209986Y-116042905D01*
X132189500Y-116178818D01*
X132189500Y-116441182D01*
X128287807Y-116441182D01*
X128285308Y-116439237D01*
X128285298Y-116439231D01*
X128251267Y-116420814D01*
X128200876Y-116370801D01*
X128185524Y-116301484D01*
X128210085Y-116234871D01*
X128251268Y-116199186D01*
X128285294Y-116180772D01*
X128285298Y-116180769D01*
X128305688Y-116164898D01*
X127667587Y-115526797D01*
X127682315Y-115524680D01*
X127813100Y-115464952D01*
X127921761Y-115370798D01*
X127999493Y-115249844D01*
X128024361Y-115165150D01*
X128663077Y-115803866D01*
X128738419Y-115688548D01*
X128828820Y-115482456D01*
X128828823Y-115482449D01*
X128884067Y-115264292D01*
X128902653Y-115040000D01*
X128884067Y-114815707D01*
X128828823Y-114597550D01*
X128828820Y-114597543D01*
X128738419Y-114391451D01*
X128663077Y-114276132D01*
X128024360Y-114914848D01*
X127999493Y-114830156D01*
X127921761Y-114709202D01*
X127813100Y-114615048D01*
X127682315Y-114555320D01*
X127667586Y-114553202D01*
X128305688Y-113915100D01*
X128305687Y-113915099D01*
X128285308Y-113899237D01*
X128285298Y-113899231D01*
X128087371Y-113792117D01*
X128087369Y-113792116D01*
X127874516Y-113719044D01*
X127874509Y-113719042D01*
X127652523Y-113682000D01*
X127427477Y-113682000D01*
X127205490Y-113719042D01*
X127205483Y-113719044D01*
X126992630Y-113792116D01*
X126992628Y-113792118D01*
X126794700Y-113899230D01*
X126794693Y-113899235D01*
X126774311Y-113915099D01*
X126774310Y-113915100D01*
X127412412Y-114553202D01*
X127397685Y-114555320D01*
X127266900Y-114615048D01*
X127158239Y-114709202D01*
X127080507Y-114830156D01*
X127055639Y-114914849D01*
X126416921Y-114276131D01*
X126416920Y-114276132D01*
X126341586Y-114391439D01*
X126341579Y-114391453D01*
X126251179Y-114597543D01*
X126251176Y-114597550D01*
X126195932Y-114815707D01*
X126177346Y-115040000D01*
X126195932Y-115264292D01*
X126251176Y-115482449D01*
X126251179Y-115482456D01*
X126341580Y-115688548D01*
X126416921Y-115803866D01*
X127055638Y-115165149D01*
X127080507Y-115249844D01*
X127158239Y-115370798D01*
X127266900Y-115464952D01*
X127397685Y-115524680D01*
X127412411Y-115526797D01*
X126774310Y-116164898D01*
X126794697Y-116180766D01*
X126794705Y-116180771D01*
X126828731Y-116199185D01*
X126879122Y-116249197D01*
X126894475Y-116318514D01*
X126869915Y-116385127D01*
X126828735Y-116420811D01*
X126794705Y-116439227D01*
X126794693Y-116439235D01*
X126774311Y-116455099D01*
X126774310Y-116455100D01*
X127412412Y-117093202D01*
X127397685Y-117095320D01*
X127266900Y-117155048D01*
X127158239Y-117249202D01*
X127080507Y-117370156D01*
X127055639Y-117454849D01*
X126416921Y-116816131D01*
X126416920Y-116816132D01*
X126341586Y-116931439D01*
X126341579Y-116931453D01*
X126251179Y-117137543D01*
X126251176Y-117137550D01*
X126195932Y-117355707D01*
X126177346Y-117580000D01*
X124823156Y-117580000D01*
X124804564Y-117355632D01*
X124749338Y-117137550D01*
X124749297Y-117137387D01*
X124749296Y-117137386D01*
X124749296Y-117137384D01*
X124658860Y-116931209D01*
X124652140Y-116920924D01*
X124535724Y-116742734D01*
X124535720Y-116742729D01*
X124469791Y-116671112D01*
X124383240Y-116577094D01*
X124383234Y-116577089D01*
X124267109Y-116486704D01*
X124225638Y-116429079D01*
X124218500Y-116387273D01*
X124218500Y-116232726D01*
X124238502Y-116164605D01*
X124267106Y-116133297D01*
X124383240Y-116042906D01*
X124535722Y-115877268D01*
X124658860Y-115688791D01*
X124749296Y-115482616D01*
X124804564Y-115264368D01*
X124823156Y-115040000D01*
X124804564Y-114815632D01*
X124782482Y-114728432D01*
X124749297Y-114597387D01*
X124749296Y-114597386D01*
X124749296Y-114597384D01*
X124658860Y-114391209D01*
X124652140Y-114380924D01*
X124535724Y-114202734D01*
X124535720Y-114202729D01*
X124469791Y-114131112D01*
X124383240Y-114037094D01*
X124383234Y-114037089D01*
X124267109Y-113946704D01*
X124225638Y-113889079D01*
X124218500Y-113847273D01*
X124218500Y-113692726D01*
X124238502Y-113624605D01*
X124267106Y-113593297D01*
X124383240Y-113502906D01*
X124535722Y-113337268D01*
X124658860Y-113148791D01*
X124749296Y-112942616D01*
X124804564Y-112724368D01*
X124823156Y-112500000D01*
X124804564Y-112275632D01*
X124749296Y-112057384D01*
X124658860Y-111851209D01*
X124652140Y-111840924D01*
X124535724Y-111662734D01*
X124535720Y-111662729D01*
X124383237Y-111497091D01*
X124301382Y-111433381D01*
X124205576Y-111358811D01*
X124172319Y-111340813D01*
X124121929Y-111290802D01*
X124106576Y-111221485D01*
X124131136Y-111154872D01*
X124172320Y-111119186D01*
X124205576Y-111101189D01*
X124383240Y-110962906D01*
X124535722Y-110797268D01*
X124608185Y-110686353D01*
X124662185Y-110640268D01*
X124732533Y-110630692D01*
X124796891Y-110660668D01*
X124819149Y-110686356D01*
X124924275Y-110847265D01*
X124924279Y-110847270D01*
X125076762Y-111012908D01*
X125131331Y-111055381D01*
X125254424Y-111151189D01*
X125452426Y-111258342D01*
X125452427Y-111258342D01*
X125452428Y-111258343D01*
X125546979Y-111290802D01*
X125665365Y-111331444D01*
X125887431Y-111368500D01*
X125887435Y-111368500D01*
X126112565Y-111368500D01*
X126112569Y-111368500D01*
X126334635Y-111331444D01*
X126547574Y-111258342D01*
X126745576Y-111151189D01*
X126923240Y-111012906D01*
X127075722Y-110847268D01*
X127089890Y-110825583D01*
X127143895Y-110779495D01*
X127195372Y-110768500D01*
X131105500Y-110768500D01*
X131173621Y-110788502D01*
X131220114Y-110842158D01*
X131231500Y-110894500D01*
X131231500Y-111258649D01*
X131238009Y-111319196D01*
X131238011Y-111319204D01*
X131289110Y-111456202D01*
X131289112Y-111456207D01*
X131376738Y-111573261D01*
X131493792Y-111660887D01*
X131493794Y-111660888D01*
X131493796Y-111660889D01*
X131552875Y-111682924D01*
X131630795Y-111711988D01*
X131630803Y-111711990D01*
X131691350Y-111718499D01*
X131691355Y-111718499D01*
X131691362Y-111718500D01*
X131691368Y-111718500D01*
X134188632Y-111718500D01*
X134188638Y-111718500D01*
X134188645Y-111718499D01*
X134188649Y-111718499D01*
X134249196Y-111711990D01*
X134249199Y-111711989D01*
X134249201Y-111711989D01*
X134386204Y-111660889D01*
X134503261Y-111573261D01*
X134590889Y-111456204D01*
X134641989Y-111319201D01*
X134648500Y-111258638D01*
X134648500Y-108761362D01*
X134647365Y-108750802D01*
X134641990Y-108700803D01*
X134641988Y-108700795D01*
X134590889Y-108563797D01*
X134590887Y-108563792D01*
X134503261Y-108446738D01*
X134386207Y-108359112D01*
X134386202Y-108359110D01*
X134249204Y-108308011D01*
X134249196Y-108308009D01*
X134188649Y-108301500D01*
X134188638Y-108301500D01*
X133709647Y-108301500D01*
X133641526Y-108281498D01*
X133595033Y-108227842D01*
X133584929Y-108157568D01*
X133614423Y-108092988D01*
X133654978Y-108061978D01*
X133796640Y-107993757D01*
X133796640Y-107993756D01*
X133796646Y-107993754D01*
X134008219Y-107849505D01*
X134195931Y-107675334D01*
X134355587Y-107475131D01*
X134483622Y-107253369D01*
X134577174Y-107015001D01*
X134634155Y-106765353D01*
X134653291Y-106510000D01*
X134634155Y-106254647D01*
X134577174Y-106004999D01*
X134529257Y-105882908D01*
X134483625Y-105766637D01*
X134483623Y-105766633D01*
X134355589Y-105544872D01*
X134355588Y-105544870D01*
X134355587Y-105544869D01*
X134195931Y-105344666D01*
X134008219Y-105170495D01*
X133796646Y-105026246D01*
X133796643Y-105026245D01*
X133796641Y-105026243D01*
X133796640Y-105026242D01*
X133565936Y-104915142D01*
X133565929Y-104915139D01*
X133453311Y-104880402D01*
X133394113Y-104841210D01*
X133365500Y-104776234D01*
X133376559Y-104706104D01*
X133423777Y-104653086D01*
X133453311Y-104639598D01*
X133565929Y-104604860D01*
X133565930Y-104604859D01*
X133565935Y-104604858D01*
X133796646Y-104493754D01*
X134008219Y-104349505D01*
X134195931Y-104175334D01*
X134355587Y-103975131D01*
X134483622Y-103753369D01*
X134577174Y-103515001D01*
X134634155Y-103265353D01*
X134653291Y-103010000D01*
X134634155Y-102754647D01*
X134577174Y-102504999D01*
X134508067Y-102328916D01*
X134483625Y-102266637D01*
X134483623Y-102266633D01*
X134355589Y-102044872D01*
X134355588Y-102044870D01*
X134355587Y-102044869D01*
X134195931Y-101844666D01*
X134008219Y-101670495D01*
X133999175Y-101664329D01*
X133796647Y-101526247D01*
X133796646Y-101526246D01*
X133796643Y-101526245D01*
X133796641Y-101526243D01*
X133796640Y-101526242D01*
X133565936Y-101415142D01*
X133565929Y-101415139D01*
X133321253Y-101339667D01*
X133321245Y-101339665D01*
X133321243Y-101339665D01*
X133068034Y-101301500D01*
X132811966Y-101301500D01*
X132558757Y-101339665D01*
X132558755Y-101339665D01*
X132558746Y-101339667D01*
X132314073Y-101415138D01*
X132314060Y-101415143D01*
X132083352Y-101526247D01*
X132083345Y-101526251D01*
X131871787Y-101670490D01*
X131871782Y-101670494D01*
X131871781Y-101670495D01*
X131684069Y-101844666D01*
X131664815Y-101868810D01*
X131524412Y-102044870D01*
X131441486Y-102188501D01*
X131390103Y-102237494D01*
X131332367Y-102251500D01*
X127195372Y-102251500D01*
X127127251Y-102231498D01*
X127089890Y-102194417D01*
X127084504Y-102186175D01*
X127075722Y-102172732D01*
X126923240Y-102007094D01*
X126923239Y-102007093D01*
X126923237Y-102007091D01*
X126841382Y-101943381D01*
X126745576Y-101868811D01*
X126547574Y-101761658D01*
X126547572Y-101761657D01*
X126547571Y-101761656D01*
X126334639Y-101688557D01*
X126334630Y-101688555D01*
X126290476Y-101681187D01*
X126112569Y-101651500D01*
X125887431Y-101651500D01*
X125739211Y-101676233D01*
X125665369Y-101688555D01*
X125665360Y-101688557D01*
X125452428Y-101761656D01*
X125452426Y-101761658D01*
X125254426Y-101868810D01*
X125254424Y-101868811D01*
X125076762Y-102007091D01*
X124999421Y-102091106D01*
X124938568Y-102127677D01*
X124867603Y-102125542D01*
X124809058Y-102085380D01*
X124784576Y-102036699D01*
X124749297Y-101897387D01*
X124749296Y-101897386D01*
X124749296Y-101897384D01*
X124658860Y-101691209D01*
X124645324Y-101670490D01*
X124535724Y-101502734D01*
X124535720Y-101502729D01*
X124419570Y-101376559D01*
X124383240Y-101337094D01*
X124383239Y-101337093D01*
X124383237Y-101337091D01*
X124301382Y-101273381D01*
X124205576Y-101198811D01*
X124172319Y-101180813D01*
X124121929Y-101130802D01*
X124106576Y-101061485D01*
X124131136Y-100994872D01*
X124172320Y-100959186D01*
X124205576Y-100941189D01*
X124383240Y-100802906D01*
X124535722Y-100637268D01*
X124658860Y-100448791D01*
X124749296Y-100242616D01*
X124804564Y-100024368D01*
X124823156Y-99800000D01*
X124804564Y-99575632D01*
X124749296Y-99357384D01*
X124658860Y-99151209D01*
X124652140Y-99140924D01*
X124535724Y-98962734D01*
X124535720Y-98962729D01*
X124469791Y-98891112D01*
X124383240Y-98797094D01*
X124383234Y-98797089D01*
X124267109Y-98706704D01*
X124225638Y-98649079D01*
X124218500Y-98607273D01*
X124218500Y-98452726D01*
X124238502Y-98384605D01*
X124267106Y-98353297D01*
X124383240Y-98262906D01*
X124535722Y-98097268D01*
X124658860Y-97908791D01*
X124749296Y-97702616D01*
X124804564Y-97484368D01*
X124823156Y-97260000D01*
X124804564Y-97035632D01*
X124749296Y-96817384D01*
X124658860Y-96611209D01*
X124652140Y-96600924D01*
X124547777Y-96441182D01*
X125189500Y-96441182D01*
X125206828Y-96556144D01*
X125228604Y-96700619D01*
X125305933Y-96951314D01*
X125305938Y-96951327D01*
X125419773Y-97187706D01*
X125419777Y-97187713D01*
X125567562Y-97404472D01*
X125567567Y-97404479D01*
X125746019Y-97596805D01*
X125951143Y-97760386D01*
X125951146Y-97760388D01*
X126178352Y-97891566D01*
X126178356Y-97891567D01*
X126178357Y-97891568D01*
X126422584Y-97987420D01*
X126678370Y-98045802D01*
X126874506Y-98060500D01*
X126874507Y-98060500D01*
X127005493Y-98060500D01*
X127005494Y-98060500D01*
X127201630Y-98045802D01*
X127457416Y-97987420D01*
X127701643Y-97891568D01*
X127701645Y-97891566D01*
X127701647Y-97891566D01*
X127868533Y-97795214D01*
X127928857Y-97760386D01*
X128133981Y-97596805D01*
X128312433Y-97404479D01*
X128460228Y-97187704D01*
X128574063Y-96951323D01*
X128651396Y-96700615D01*
X128690500Y-96441182D01*
X128690500Y-96178818D01*
X128651396Y-95919385D01*
X128651395Y-95919383D01*
X128651395Y-95919380D01*
X128574066Y-95668685D01*
X128574061Y-95668672D01*
X128520410Y-95557265D01*
X128460228Y-95432296D01*
X128460226Y-95432293D01*
X128460222Y-95432286D01*
X128312437Y-95215527D01*
X128312433Y-95215521D01*
X128133981Y-95023195D01*
X127928857Y-94859614D01*
X127928852Y-94859611D01*
X127928853Y-94859611D01*
X127701647Y-94728433D01*
X127701639Y-94728430D01*
X127457419Y-94632581D01*
X127457417Y-94632580D01*
X127201633Y-94574198D01*
X127054528Y-94563174D01*
X127005494Y-94559500D01*
X126874506Y-94559500D01*
X126835278Y-94562439D01*
X126678366Y-94574198D01*
X126422582Y-94632580D01*
X126422580Y-94632581D01*
X126178360Y-94728430D01*
X126178352Y-94728433D01*
X125951146Y-94859611D01*
X125746018Y-95023195D01*
X125567566Y-95215522D01*
X125567562Y-95215527D01*
X125419777Y-95432286D01*
X125419773Y-95432293D01*
X125305938Y-95668672D01*
X125305933Y-95668685D01*
X125228604Y-95919380D01*
X125206879Y-96063514D01*
X125189500Y-96178818D01*
X125189500Y-96441182D01*
X124547777Y-96441182D01*
X124535724Y-96422734D01*
X124535720Y-96422729D01*
X124469791Y-96351112D01*
X124383240Y-96257094D01*
X124383234Y-96257089D01*
X124267109Y-96166704D01*
X124225638Y-96109079D01*
X124218500Y-96067273D01*
X124218500Y-95912726D01*
X124238502Y-95844605D01*
X124267106Y-95813297D01*
X124383240Y-95722906D01*
X124535722Y-95557268D01*
X124658860Y-95368791D01*
X124749296Y-95162616D01*
X124804564Y-94944368D01*
X124823156Y-94720000D01*
X124804564Y-94495632D01*
X124804562Y-94495624D01*
X124749297Y-94277387D01*
X124749296Y-94277386D01*
X124749296Y-94277384D01*
X124658860Y-94071209D01*
X124652140Y-94060924D01*
X124535724Y-93882734D01*
X124535720Y-93882729D01*
X124383237Y-93717091D01*
X124301382Y-93653381D01*
X124205576Y-93578811D01*
X124007574Y-93471658D01*
X124007572Y-93471657D01*
X124007571Y-93471656D01*
X123794639Y-93398557D01*
X123794630Y-93398555D01*
X123750476Y-93391187D01*
X123572569Y-93361500D01*
X123347431Y-93361500D01*
X123199211Y-93386233D01*
X123125369Y-93398555D01*
X123125360Y-93398557D01*
X122912428Y-93471656D01*
X122912426Y-93471658D01*
X122714426Y-93578810D01*
X122714424Y-93578811D01*
X122536762Y-93717091D01*
X122384279Y-93882729D01*
X122295483Y-94018643D01*
X122241479Y-94064731D01*
X122171131Y-94074306D01*
X122106774Y-94044329D01*
X122084517Y-94018643D01*
X121995720Y-93882729D01*
X121843237Y-93717091D01*
X121761382Y-93653381D01*
X121665576Y-93578811D01*
X121467574Y-93471658D01*
X121467572Y-93471657D01*
X121467571Y-93471656D01*
X121254639Y-93398557D01*
X121254630Y-93398555D01*
X121210476Y-93391187D01*
X121032569Y-93361500D01*
X120807431Y-93361500D01*
X120659211Y-93386233D01*
X120585369Y-93398555D01*
X120585360Y-93398557D01*
X120372428Y-93471656D01*
X120372426Y-93471658D01*
X120174426Y-93578810D01*
X120174424Y-93578811D01*
X119996762Y-93717091D01*
X119844279Y-93882729D01*
X119755483Y-94018643D01*
X119701479Y-94064731D01*
X119631131Y-94074306D01*
X119566774Y-94044329D01*
X119544517Y-94018643D01*
X119455720Y-93882729D01*
X119303237Y-93717091D01*
X119221382Y-93653381D01*
X119125576Y-93578811D01*
X118927574Y-93471658D01*
X118927572Y-93471657D01*
X118927571Y-93471656D01*
X118714639Y-93398557D01*
X118714630Y-93398555D01*
X118670476Y-93391187D01*
X118492569Y-93361500D01*
X118267431Y-93361500D01*
X118119211Y-93386233D01*
X118045369Y-93398555D01*
X118045360Y-93398557D01*
X117832428Y-93471656D01*
X117832426Y-93471658D01*
X117634426Y-93578810D01*
X117634424Y-93578811D01*
X117456762Y-93717091D01*
X117304279Y-93882729D01*
X117215483Y-94018643D01*
X117161479Y-94064731D01*
X117091131Y-94074306D01*
X117026774Y-94044329D01*
X117004517Y-94018643D01*
X116915720Y-93882729D01*
X116763237Y-93717091D01*
X116681382Y-93653381D01*
X116585576Y-93578811D01*
X116387574Y-93471658D01*
X116387572Y-93471657D01*
X116387571Y-93471656D01*
X116174639Y-93398557D01*
X116174630Y-93398555D01*
X116130476Y-93391187D01*
X115952569Y-93361500D01*
X115727431Y-93361500D01*
X115579211Y-93386233D01*
X115505369Y-93398555D01*
X115505360Y-93398557D01*
X115292428Y-93471656D01*
X115292426Y-93471658D01*
X115094426Y-93578810D01*
X115094424Y-93578811D01*
X114916762Y-93717091D01*
X114764279Y-93882729D01*
X114675483Y-94018643D01*
X114621479Y-94064731D01*
X114551131Y-94074306D01*
X114486774Y-94044329D01*
X114464517Y-94018643D01*
X114375720Y-93882729D01*
X114223237Y-93717091D01*
X114141382Y-93653381D01*
X114045576Y-93578811D01*
X113847574Y-93471658D01*
X113847572Y-93471657D01*
X113847571Y-93471656D01*
X113634639Y-93398557D01*
X113634630Y-93398555D01*
X113590476Y-93391187D01*
X113412569Y-93361500D01*
X113187431Y-93361500D01*
X113039211Y-93386233D01*
X112965369Y-93398555D01*
X112965360Y-93398557D01*
X112752428Y-93471656D01*
X112752426Y-93471658D01*
X112554426Y-93578810D01*
X112554424Y-93578811D01*
X112376762Y-93717091D01*
X112224279Y-93882729D01*
X112135483Y-94018643D01*
X112081479Y-94064731D01*
X112011131Y-94074306D01*
X111946774Y-94044329D01*
X111924517Y-94018643D01*
X111835720Y-93882729D01*
X111683237Y-93717091D01*
X111601382Y-93653381D01*
X111505576Y-93578811D01*
X111307574Y-93471658D01*
X111307572Y-93471657D01*
X111307571Y-93471656D01*
X111094639Y-93398557D01*
X111094630Y-93398555D01*
X111050476Y-93391187D01*
X110872569Y-93361500D01*
X110647431Y-93361500D01*
X110499211Y-93386233D01*
X110425369Y-93398555D01*
X110425360Y-93398557D01*
X110212428Y-93471656D01*
X110212426Y-93471658D01*
X110014426Y-93578810D01*
X110014424Y-93578811D01*
X109836762Y-93717091D01*
X109684279Y-93882729D01*
X109595483Y-94018643D01*
X109541479Y-94064731D01*
X109471131Y-94074306D01*
X109406774Y-94044329D01*
X109384517Y-94018643D01*
X109295720Y-93882729D01*
X109143237Y-93717091D01*
X109061382Y-93653381D01*
X108965576Y-93578811D01*
X108767574Y-93471658D01*
X108767572Y-93471657D01*
X108767571Y-93471656D01*
X108554639Y-93398557D01*
X108554630Y-93398555D01*
X108510476Y-93391187D01*
X108332569Y-93361500D01*
X108107431Y-93361500D01*
X107959211Y-93386233D01*
X107885369Y-93398555D01*
X107885360Y-93398557D01*
X107672428Y-93471656D01*
X107672426Y-93471658D01*
X107474426Y-93578810D01*
X107474424Y-93578811D01*
X107296762Y-93717091D01*
X107144279Y-93882729D01*
X107055483Y-94018643D01*
X107001479Y-94064731D01*
X106931131Y-94074306D01*
X106866774Y-94044329D01*
X106844517Y-94018643D01*
X106755720Y-93882729D01*
X106603237Y-93717091D01*
X106521382Y-93653381D01*
X106425576Y-93578811D01*
X106227574Y-93471658D01*
X106227572Y-93471657D01*
X106227571Y-93471656D01*
X106014639Y-93398557D01*
X106014630Y-93398555D01*
X105970476Y-93391187D01*
X105792569Y-93361500D01*
X105567431Y-93361500D01*
X105419211Y-93386233D01*
X105345369Y-93398555D01*
X105345360Y-93398557D01*
X105132428Y-93471656D01*
X105132426Y-93471658D01*
X104934426Y-93578810D01*
X104934424Y-93578811D01*
X104756762Y-93717091D01*
X104604279Y-93882729D01*
X104515483Y-94018643D01*
X104461479Y-94064731D01*
X104391131Y-94074306D01*
X104326774Y-94044329D01*
X104304517Y-94018643D01*
X104215720Y-93882729D01*
X104063237Y-93717091D01*
X103981382Y-93653381D01*
X103885576Y-93578811D01*
X103687574Y-93471658D01*
X103687572Y-93471657D01*
X103687571Y-93471656D01*
X103474639Y-93398557D01*
X103474630Y-93398555D01*
X103430476Y-93391187D01*
X103252569Y-93361500D01*
X103027431Y-93361500D01*
X102879211Y-93386233D01*
X102805369Y-93398555D01*
X102805360Y-93398557D01*
X102592428Y-93471656D01*
X102592426Y-93471658D01*
X102394426Y-93578810D01*
X102394424Y-93578811D01*
X102216762Y-93717091D01*
X102064279Y-93882729D01*
X101975483Y-94018643D01*
X101921479Y-94064731D01*
X101851131Y-94074306D01*
X101786774Y-94044329D01*
X101764517Y-94018643D01*
X101675720Y-93882729D01*
X101523237Y-93717091D01*
X101441382Y-93653381D01*
X101345576Y-93578811D01*
X101147574Y-93471658D01*
X101147572Y-93471657D01*
X101147571Y-93471656D01*
X100934639Y-93398557D01*
X100934630Y-93398555D01*
X100890476Y-93391187D01*
X100712569Y-93361500D01*
X100487431Y-93361500D01*
X100339211Y-93386233D01*
X100265369Y-93398555D01*
X100265360Y-93398557D01*
X100052428Y-93471656D01*
X100052426Y-93471658D01*
X99854426Y-93578810D01*
X99854424Y-93578811D01*
X99676762Y-93717091D01*
X99524279Y-93882729D01*
X99435483Y-94018643D01*
X99381479Y-94064731D01*
X99311131Y-94074306D01*
X99246774Y-94044329D01*
X99224517Y-94018643D01*
X99135720Y-93882729D01*
X98983237Y-93717091D01*
X98901382Y-93653381D01*
X98805576Y-93578811D01*
X98607574Y-93471658D01*
X98607572Y-93471657D01*
X98607571Y-93471656D01*
X98394639Y-93398557D01*
X98394630Y-93398555D01*
X98350476Y-93391187D01*
X98172569Y-93361500D01*
X97947431Y-93361500D01*
X97799211Y-93386233D01*
X97725369Y-93398555D01*
X97725360Y-93398557D01*
X97512428Y-93471656D01*
X97512426Y-93471658D01*
X97314426Y-93578810D01*
X97314424Y-93578811D01*
X97136762Y-93717091D01*
X96984279Y-93882729D01*
X96895483Y-94018643D01*
X96841479Y-94064731D01*
X96771131Y-94074306D01*
X96706774Y-94044329D01*
X96684517Y-94018643D01*
X96595720Y-93882729D01*
X96443237Y-93717091D01*
X96361382Y-93653381D01*
X96265576Y-93578811D01*
X96067574Y-93471658D01*
X96067572Y-93471657D01*
X96067571Y-93471656D01*
X95854639Y-93398557D01*
X95854630Y-93398555D01*
X95810476Y-93391187D01*
X95632569Y-93361500D01*
X95407431Y-93361500D01*
X95259211Y-93386233D01*
X95185369Y-93398555D01*
X95185360Y-93398557D01*
X94972428Y-93471656D01*
X94972426Y-93471658D01*
X94774426Y-93578810D01*
X94774424Y-93578811D01*
X94596762Y-93717091D01*
X94444279Y-93882729D01*
X94355483Y-94018643D01*
X94301479Y-94064731D01*
X94231131Y-94074306D01*
X94166774Y-94044329D01*
X94144517Y-94018643D01*
X94055720Y-93882729D01*
X93903237Y-93717091D01*
X93821382Y-93653381D01*
X93725576Y-93578811D01*
X93527574Y-93471658D01*
X93527572Y-93471657D01*
X93527571Y-93471656D01*
X93314639Y-93398557D01*
X93314630Y-93398555D01*
X93270476Y-93391187D01*
X93092569Y-93361500D01*
X92867431Y-93361500D01*
X92719211Y-93386233D01*
X92645369Y-93398555D01*
X92645360Y-93398557D01*
X92432428Y-93471656D01*
X92432426Y-93471658D01*
X92234426Y-93578810D01*
X92234424Y-93578811D01*
X92056762Y-93717091D01*
X91904279Y-93882729D01*
X91815483Y-94018643D01*
X91761479Y-94064731D01*
X91691131Y-94074306D01*
X91626774Y-94044329D01*
X91604517Y-94018643D01*
X91515720Y-93882729D01*
X91363237Y-93717091D01*
X91281382Y-93653381D01*
X91185576Y-93578811D01*
X90987574Y-93471658D01*
X90987572Y-93471657D01*
X90987571Y-93471656D01*
X90774639Y-93398557D01*
X90774630Y-93398555D01*
X90730476Y-93391187D01*
X90552569Y-93361500D01*
X90327431Y-93361500D01*
X90179211Y-93386233D01*
X90105369Y-93398555D01*
X90105360Y-93398557D01*
X89892428Y-93471656D01*
X89892426Y-93471658D01*
X89694426Y-93578810D01*
X89694424Y-93578811D01*
X89516762Y-93717091D01*
X89364279Y-93882729D01*
X89275483Y-94018643D01*
X89221479Y-94064731D01*
X89151131Y-94074306D01*
X89086774Y-94044329D01*
X89064517Y-94018643D01*
X88975720Y-93882729D01*
X88823237Y-93717091D01*
X88741382Y-93653381D01*
X88645576Y-93578811D01*
X88447574Y-93471658D01*
X88447572Y-93471657D01*
X88447571Y-93471656D01*
X88234639Y-93398557D01*
X88234630Y-93398555D01*
X88190476Y-93391187D01*
X88012569Y-93361500D01*
X87787431Y-93361500D01*
X87639211Y-93386233D01*
X87565369Y-93398555D01*
X87565360Y-93398557D01*
X87352428Y-93471656D01*
X87352426Y-93471658D01*
X87154426Y-93578810D01*
X87154424Y-93578811D01*
X86976762Y-93717091D01*
X86824279Y-93882729D01*
X86735483Y-94018643D01*
X86681479Y-94064731D01*
X86611131Y-94074306D01*
X86546774Y-94044329D01*
X86524517Y-94018643D01*
X86435720Y-93882729D01*
X86283237Y-93717091D01*
X86201382Y-93653381D01*
X86105576Y-93578811D01*
X85907574Y-93471658D01*
X85907572Y-93471657D01*
X85907571Y-93471656D01*
X85694639Y-93398557D01*
X85694630Y-93398555D01*
X85650476Y-93391187D01*
X85472569Y-93361500D01*
X85247431Y-93361500D01*
X85099211Y-93386233D01*
X85025369Y-93398555D01*
X85025360Y-93398557D01*
X84812428Y-93471656D01*
X84812426Y-93471658D01*
X84614426Y-93578810D01*
X84614424Y-93578811D01*
X84436762Y-93717091D01*
X84284279Y-93882729D01*
X84195483Y-94018643D01*
X84141479Y-94064731D01*
X84071131Y-94074306D01*
X84006774Y-94044329D01*
X83984517Y-94018643D01*
X83895720Y-93882729D01*
X83743237Y-93717091D01*
X83661382Y-93653381D01*
X83565576Y-93578811D01*
X83367574Y-93471658D01*
X83367572Y-93471657D01*
X83367571Y-93471656D01*
X83154639Y-93398557D01*
X83154630Y-93398555D01*
X83110476Y-93391187D01*
X82932569Y-93361500D01*
X82707431Y-93361500D01*
X82559211Y-93386233D01*
X82485369Y-93398555D01*
X82485360Y-93398557D01*
X82272428Y-93471656D01*
X82272426Y-93471658D01*
X82074426Y-93578810D01*
X82074424Y-93578811D01*
X81896762Y-93717091D01*
X81744279Y-93882729D01*
X81655483Y-94018643D01*
X81601479Y-94064731D01*
X81531131Y-94074306D01*
X81466774Y-94044329D01*
X81444517Y-94018643D01*
X81355720Y-93882729D01*
X81203237Y-93717091D01*
X81121382Y-93653381D01*
X81025576Y-93578811D01*
X80827574Y-93471658D01*
X80827572Y-93471657D01*
X80827571Y-93471656D01*
X80614639Y-93398557D01*
X80614630Y-93398555D01*
X80570476Y-93391187D01*
X80392569Y-93361500D01*
X80167431Y-93361500D01*
X80019211Y-93386233D01*
X79945369Y-93398555D01*
X79945360Y-93398557D01*
X79732428Y-93471656D01*
X79732426Y-93471658D01*
X79534426Y-93578810D01*
X79534424Y-93578811D01*
X79356762Y-93717091D01*
X79204279Y-93882729D01*
X79115483Y-94018643D01*
X79061479Y-94064731D01*
X78991131Y-94074306D01*
X78926774Y-94044329D01*
X78904517Y-94018643D01*
X78815720Y-93882729D01*
X78663237Y-93717091D01*
X78581382Y-93653381D01*
X78485576Y-93578811D01*
X78287574Y-93471658D01*
X78287572Y-93471657D01*
X78287571Y-93471656D01*
X78074639Y-93398557D01*
X78074630Y-93398555D01*
X78030476Y-93391187D01*
X77852569Y-93361500D01*
X77627431Y-93361500D01*
X77479211Y-93386233D01*
X77405369Y-93398555D01*
X77405360Y-93398557D01*
X77192428Y-93471656D01*
X77192426Y-93471658D01*
X76994426Y-93578810D01*
X76994424Y-93578811D01*
X76816762Y-93717091D01*
X76664279Y-93882729D01*
X76575483Y-94018643D01*
X76521479Y-94064731D01*
X76451131Y-94074306D01*
X76386774Y-94044329D01*
X76364517Y-94018643D01*
X76275720Y-93882729D01*
X76123237Y-93717091D01*
X76041382Y-93653381D01*
X75945576Y-93578811D01*
X75747574Y-93471658D01*
X75747572Y-93471657D01*
X75747571Y-93471656D01*
X75534639Y-93398557D01*
X75534630Y-93398555D01*
X75490476Y-93391187D01*
X75312569Y-93361500D01*
X75087431Y-93361500D01*
X74939211Y-93386233D01*
X74865369Y-93398555D01*
X74865360Y-93398557D01*
X74652428Y-93471656D01*
X74652426Y-93471658D01*
X74454426Y-93578810D01*
X74454424Y-93578811D01*
X74276762Y-93717091D01*
X74124279Y-93882729D01*
X74124275Y-93882734D01*
X74001141Y-94071206D01*
X73910703Y-94277386D01*
X73910702Y-94277387D01*
X73855437Y-94495624D01*
X73855436Y-94495630D01*
X73855436Y-94495632D01*
X73836844Y-94720000D01*
X73848552Y-94861295D01*
X73855437Y-94944375D01*
X73910702Y-95162612D01*
X73910703Y-95162613D01*
X73910704Y-95162616D01*
X73964038Y-95284206D01*
X74001141Y-95368793D01*
X74124275Y-95557265D01*
X74124279Y-95557270D01*
X74197082Y-95636353D01*
X74276760Y-95722906D01*
X74392892Y-95813296D01*
X74434362Y-95870919D01*
X74441500Y-95912726D01*
X74441500Y-96067273D01*
X74421498Y-96135394D01*
X74392891Y-96166704D01*
X74276765Y-96257089D01*
X74276760Y-96257094D01*
X74124279Y-96422729D01*
X74124275Y-96422734D01*
X74001141Y-96611206D01*
X73910703Y-96817386D01*
X73910702Y-96817387D01*
X73855437Y-97035624D01*
X73855436Y-97035630D01*
X73855436Y-97035632D01*
X73836844Y-97260000D01*
X73849860Y-97417081D01*
X73855437Y-97484375D01*
X73910702Y-97702612D01*
X73910703Y-97702613D01*
X73910704Y-97702616D01*
X73993585Y-97891568D01*
X74001141Y-97908793D01*
X74124275Y-98097265D01*
X74124279Y-98097270D01*
X74197082Y-98176353D01*
X74276760Y-98262906D01*
X74392892Y-98353296D01*
X74434362Y-98410919D01*
X74441500Y-98452726D01*
X74441500Y-98607273D01*
X74421498Y-98675394D01*
X74392891Y-98706704D01*
X74276765Y-98797089D01*
X74276760Y-98797094D01*
X74124279Y-98962729D01*
X74124275Y-98962734D01*
X74001141Y-99151206D01*
X73910703Y-99357386D01*
X73910702Y-99357387D01*
X73855437Y-99575624D01*
X73836844Y-99800000D01*
X73855437Y-100024375D01*
X73910702Y-100242612D01*
X73910703Y-100242613D01*
X74001141Y-100448793D01*
X74124275Y-100637265D01*
X74124279Y-100637270D01*
X74276762Y-100802908D01*
X74331331Y-100845381D01*
X74454424Y-100941189D01*
X74487680Y-100959186D01*
X74538071Y-101009200D01*
X74553423Y-101078516D01*
X74528862Y-101145129D01*
X74487680Y-101180813D01*
X74454426Y-101198810D01*
X74454424Y-101198811D01*
X74276762Y-101337091D01*
X74124279Y-101502729D01*
X74124275Y-101502734D01*
X74001141Y-101691206D01*
X73910703Y-101897386D01*
X73910702Y-101897387D01*
X73855437Y-102115624D01*
X73855436Y-102115630D01*
X73855436Y-102115632D01*
X73836844Y-102340000D01*
X73850516Y-102504999D01*
X73855437Y-102564375D01*
X73910702Y-102782612D01*
X73910703Y-102782613D01*
X74001141Y-102988793D01*
X74124275Y-103177265D01*
X74124279Y-103177270D01*
X74165754Y-103222323D01*
X74276760Y-103342906D01*
X74392892Y-103433296D01*
X74434362Y-103490919D01*
X74441500Y-103532726D01*
X74441500Y-103687273D01*
X74421498Y-103755394D01*
X74392891Y-103786704D01*
X74276765Y-103877089D01*
X74276760Y-103877094D01*
X74124279Y-104042729D01*
X74124275Y-104042734D01*
X74001141Y-104231206D01*
X73910703Y-104437386D01*
X73910702Y-104437387D01*
X73855437Y-104655624D01*
X73855436Y-104655630D01*
X73855436Y-104655632D01*
X73836844Y-104880000D01*
X73848962Y-105026243D01*
X73855437Y-105104375D01*
X73910702Y-105322612D01*
X73910703Y-105322613D01*
X73910704Y-105322616D01*
X73930967Y-105368811D01*
X74001141Y-105528793D01*
X74124275Y-105717265D01*
X74124279Y-105717270D01*
X74276762Y-105882908D01*
X74331331Y-105925381D01*
X74454424Y-106021189D01*
X74487680Y-106039186D01*
X74538071Y-106089200D01*
X74553423Y-106158516D01*
X74528862Y-106225129D01*
X74487680Y-106260813D01*
X74454426Y-106278810D01*
X74454424Y-106278811D01*
X74276762Y-106417091D01*
X74124279Y-106582729D01*
X74124275Y-106582734D01*
X74001141Y-106771206D01*
X73910703Y-106977386D01*
X73910702Y-106977387D01*
X73855437Y-107195624D01*
X73855436Y-107195630D01*
X73855436Y-107195632D01*
X73836844Y-107420000D01*
X73846685Y-107538766D01*
X73855437Y-107644375D01*
X73910702Y-107862612D01*
X73910703Y-107862613D01*
X73910704Y-107862616D01*
X73968225Y-107993752D01*
X74001141Y-108068793D01*
X74124275Y-108257265D01*
X74124279Y-108257270D01*
X74276762Y-108422908D01*
X74307379Y-108446738D01*
X74454424Y-108561189D01*
X74487680Y-108579186D01*
X74538071Y-108629200D01*
X74553423Y-108698516D01*
X74528862Y-108765129D01*
X74487680Y-108800813D01*
X74454426Y-108818810D01*
X74454424Y-108818811D01*
X74276762Y-108957091D01*
X74124279Y-109122729D01*
X74124275Y-109122734D01*
X74001141Y-109311206D01*
X73910703Y-109517386D01*
X73910702Y-109517387D01*
X73855437Y-109735624D01*
X73836844Y-109960000D01*
X73855437Y-110184375D01*
X73910702Y-110402612D01*
X73910703Y-110402613D01*
X74001141Y-110608793D01*
X74124275Y-110797265D01*
X74124279Y-110797270D01*
X74276762Y-110962908D01*
X74331331Y-111005381D01*
X74454424Y-111101189D01*
X74487680Y-111119186D01*
X74538071Y-111169200D01*
X74553423Y-111238516D01*
X74528862Y-111305129D01*
X74487680Y-111340813D01*
X74454426Y-111358810D01*
X74454424Y-111358811D01*
X74276762Y-111497091D01*
X74124279Y-111662729D01*
X74124275Y-111662734D01*
X74001141Y-111851206D01*
X73910703Y-112057386D01*
X73910702Y-112057387D01*
X73855437Y-112275624D01*
X73836844Y-112500000D01*
X73855437Y-112724375D01*
X73910702Y-112942612D01*
X73910703Y-112942613D01*
X74001141Y-113148793D01*
X74124275Y-113337265D01*
X74124279Y-113337270D01*
X74197082Y-113416353D01*
X74276760Y-113502906D01*
X74392892Y-113593296D01*
X74434362Y-113650919D01*
X74441500Y-113692726D01*
X74441500Y-113847273D01*
X74421498Y-113915394D01*
X74392891Y-113946704D01*
X74276765Y-114037089D01*
X74276760Y-114037094D01*
X74124279Y-114202729D01*
X74124275Y-114202734D01*
X74001141Y-114391206D01*
X73910703Y-114597386D01*
X73910702Y-114597387D01*
X73855437Y-114815624D01*
X73855436Y-114815630D01*
X73855436Y-114815632D01*
X73836844Y-115040000D01*
X73854232Y-115249844D01*
X73855437Y-115264375D01*
X73910702Y-115482612D01*
X73910703Y-115482613D01*
X73910704Y-115482616D01*
X74001140Y-115688791D01*
X74001141Y-115688793D01*
X74124275Y-115877265D01*
X74124279Y-115877270D01*
X74197082Y-115956353D01*
X74276760Y-116042906D01*
X74392892Y-116133296D01*
X74434362Y-116190919D01*
X74441500Y-116232726D01*
X74441500Y-116387273D01*
X74421498Y-116455394D01*
X74392891Y-116486704D01*
X74276765Y-116577089D01*
X74276760Y-116577094D01*
X74124279Y-116742729D01*
X74124275Y-116742734D01*
X74001141Y-116931206D01*
X73910703Y-117137386D01*
X73910702Y-117137387D01*
X73855437Y-117355624D01*
X73855436Y-117355630D01*
X73855436Y-117355632D01*
X73836844Y-117580000D01*
X73854232Y-117789844D01*
X73855437Y-117804375D01*
X73910702Y-118022612D01*
X73910703Y-118022613D01*
X73910704Y-118022616D01*
X74001140Y-118228791D01*
X74001141Y-118228793D01*
X74124275Y-118417265D01*
X74124279Y-118417270D01*
X74197082Y-118496353D01*
X74276760Y-118582906D01*
X74392892Y-118673296D01*
X74434362Y-118730919D01*
X74441500Y-118772726D01*
X74441500Y-118927273D01*
X74421498Y-118995394D01*
X74392891Y-119026704D01*
X74276765Y-119117089D01*
X74276760Y-119117094D01*
X74124279Y-119282729D01*
X74124275Y-119282734D01*
X74001141Y-119471206D01*
X73910703Y-119677386D01*
X73910702Y-119677387D01*
X73855437Y-119895624D01*
X73836844Y-120120000D01*
X73855437Y-120344375D01*
X73910702Y-120562612D01*
X73910703Y-120562613D01*
X74001141Y-120768793D01*
X74124275Y-120957265D01*
X74124279Y-120957270D01*
X74177555Y-121015142D01*
X74276760Y-121122906D01*
X74392892Y-121213296D01*
X74434362Y-121270919D01*
X74441500Y-121312726D01*
X74441500Y-121467273D01*
X74421498Y-121535394D01*
X74392891Y-121566704D01*
X74276765Y-121657089D01*
X74276760Y-121657094D01*
X74124279Y-121822729D01*
X74124275Y-121822734D01*
X74001141Y-122011206D01*
X73910703Y-122217386D01*
X73910702Y-122217387D01*
X73855437Y-122435624D01*
X73855436Y-122435630D01*
X73855436Y-122435632D01*
X73836844Y-122660000D01*
X73853860Y-122865353D01*
X73855437Y-122884375D01*
X73910702Y-123102612D01*
X73910703Y-123102613D01*
X73910704Y-123102616D01*
X73919034Y-123121606D01*
X74001141Y-123308793D01*
X74124275Y-123497265D01*
X74124279Y-123497270D01*
X74195953Y-123575127D01*
X74276760Y-123662906D01*
X74392892Y-123753296D01*
X74434362Y-123810919D01*
X74441500Y-123852726D01*
X74441500Y-124007273D01*
X74421498Y-124075394D01*
X74392891Y-124106704D01*
X74276765Y-124197089D01*
X74276760Y-124197094D01*
X74124279Y-124362729D01*
X74124275Y-124362734D01*
X74001141Y-124551206D01*
X73910703Y-124757386D01*
X73910702Y-124757387D01*
X73855437Y-124975624D01*
X73855436Y-124975630D01*
X73855436Y-124975632D01*
X73836844Y-125200000D01*
X73848237Y-125337494D01*
X73855437Y-125424375D01*
X73910702Y-125642612D01*
X73910703Y-125642613D01*
X74001141Y-125848793D01*
X74124275Y-126037265D01*
X74124279Y-126037270D01*
X74191233Y-126110000D01*
X74276760Y-126202906D01*
X74392892Y-126293296D01*
X74434362Y-126350919D01*
X74441500Y-126392726D01*
X74441500Y-126547273D01*
X74421498Y-126615394D01*
X74392891Y-126646704D01*
X74276765Y-126737089D01*
X74276760Y-126737094D01*
X74124279Y-126902729D01*
X74124275Y-126902734D01*
X74001141Y-127091206D01*
X73910703Y-127297386D01*
X73910702Y-127297387D01*
X73855437Y-127515624D01*
X73855436Y-127515630D01*
X73855436Y-127515632D01*
X73836844Y-127740000D01*
X73855000Y-127959112D01*
X73855437Y-127964375D01*
X73910702Y-128182612D01*
X73910703Y-128182613D01*
X73910704Y-128182616D01*
X73999781Y-128385692D01*
X74001141Y-128388793D01*
X74124275Y-128577265D01*
X74124279Y-128577270D01*
X74252539Y-128716596D01*
X74260736Y-128725500D01*
X74276762Y-128742908D01*
X74331331Y-128785381D01*
X74454424Y-128881189D01*
X74487680Y-128899186D01*
X74538071Y-128949200D01*
X74553423Y-129018516D01*
X74528862Y-129085129D01*
X74487680Y-129120813D01*
X74454426Y-129138810D01*
X74454424Y-129138811D01*
X74276762Y-129277091D01*
X74124279Y-129442729D01*
X74124275Y-129442734D01*
X74001141Y-129631206D01*
X73910703Y-129837386D01*
X73910702Y-129837387D01*
X73855437Y-130055624D01*
X73855436Y-130055630D01*
X73855436Y-130055632D01*
X73836844Y-130280000D01*
X64465500Y-130280000D01*
X64465500Y-116441182D01*
X68189500Y-116441182D01*
X68209985Y-116577089D01*
X68228604Y-116700619D01*
X68305933Y-116951314D01*
X68305938Y-116951327D01*
X68419773Y-117187706D01*
X68419777Y-117187713D01*
X68544166Y-117370156D01*
X68567567Y-117404479D01*
X68746019Y-117596805D01*
X68951143Y-117760386D01*
X68951146Y-117760388D01*
X69178352Y-117891566D01*
X69178356Y-117891567D01*
X69178357Y-117891568D01*
X69422584Y-117987420D01*
X69678370Y-118045802D01*
X69874506Y-118060500D01*
X69874507Y-118060500D01*
X70005493Y-118060500D01*
X70005494Y-118060500D01*
X70201630Y-118045802D01*
X70457416Y-117987420D01*
X70701643Y-117891568D01*
X70701645Y-117891566D01*
X70701647Y-117891566D01*
X70852678Y-117804368D01*
X70928857Y-117760386D01*
X71133981Y-117596805D01*
X71312433Y-117404479D01*
X71460228Y-117187704D01*
X71574063Y-116951323D01*
X71580193Y-116931451D01*
X71651395Y-116700619D01*
X71670014Y-116577094D01*
X71690500Y-116441182D01*
X71690500Y-116178818D01*
X71651396Y-115919385D01*
X71651395Y-115919383D01*
X71651395Y-115919380D01*
X71574066Y-115668685D01*
X71574061Y-115668672D01*
X71504718Y-115524680D01*
X71460228Y-115432296D01*
X71460226Y-115432293D01*
X71460222Y-115432286D01*
X71312437Y-115215527D01*
X71312433Y-115215521D01*
X71133981Y-115023195D01*
X70928857Y-114859614D01*
X70928852Y-114859611D01*
X70928853Y-114859611D01*
X70701647Y-114728433D01*
X70701639Y-114728430D01*
X70457419Y-114632581D01*
X70457417Y-114632580D01*
X70201633Y-114574198D01*
X70054528Y-114563174D01*
X70005494Y-114559500D01*
X69874506Y-114559500D01*
X69835278Y-114562439D01*
X69678366Y-114574198D01*
X69422582Y-114632580D01*
X69422580Y-114632581D01*
X69178360Y-114728430D01*
X69178352Y-114728433D01*
X68951146Y-114859611D01*
X68746018Y-115023195D01*
X68567566Y-115215522D01*
X68567562Y-115215527D01*
X68419777Y-115432286D01*
X68419773Y-115432293D01*
X68305938Y-115668672D01*
X68305933Y-115668685D01*
X68228604Y-115919380D01*
X68209986Y-116042905D01*
X68189500Y-116178818D01*
X68189500Y-116441182D01*
X64465500Y-116441182D01*
X64465500Y-98461500D01*
X64485502Y-98393379D01*
X64539158Y-98346886D01*
X64591500Y-98335500D01*
X64684166Y-98335500D01*
X64684167Y-98335500D01*
X65171135Y-98299006D01*
X65654015Y-98226224D01*
X66130105Y-98117559D01*
X66521415Y-97996856D01*
X66596735Y-97973623D01*
X66596737Y-97973621D01*
X66596744Y-97973620D01*
X67051321Y-97795212D01*
X67491295Y-97583332D01*
X67914205Y-97339165D01*
X68317685Y-97064077D01*
X68699480Y-96759605D01*
X69057454Y-96427454D01*
X69389605Y-96069480D01*
X69694077Y-95687685D01*
X69969165Y-95284205D01*
X70213332Y-94861295D01*
X70425212Y-94421321D01*
X70603620Y-93966744D01*
X70747559Y-93500105D01*
X70856224Y-93024015D01*
X70929006Y-92541135D01*
X70965500Y-92054167D01*
X70965500Y-91961500D01*
X70985502Y-91893379D01*
X71039158Y-91846886D01*
X71091500Y-91835500D01*
X132788500Y-91835500D01*
X132856621Y-91855502D01*
G37*
G04 #@! TD.AperFunction*
D14*
X70940000Y-140810000D02*
X132940000Y-140810000D01*
X64440000Y-98310000D02*
G75*
G03*
X70940000Y-91810000I0J6500000D01*
G01*
X139440000Y-134310000D02*
G75*
G03*
X132940000Y-140810000I0J-6500000D01*
G01*
X139440000Y-98310000D02*
X139440000Y-134310000D01*
X70940000Y-91810000D02*
X132940000Y-91810000D01*
X64440000Y-98310000D02*
X64440000Y-134310000D01*
X132940000Y-91810000D02*
G75*
G03*
X139440000Y-98310000I6500000J0D01*
G01*
X70940000Y-140810000D02*
G75*
G03*
X64440000Y-134310000I-6500000J0D01*
G01*
X70940000Y-91810000D02*
G75*
G03*
X64440000Y-85310000I-6500000J0D01*
G01*
X132940000Y-42810000D02*
G75*
G03*
X139440000Y-49310000I6500000J0D01*
G01*
X64440000Y-49310000D02*
X64440000Y-85310000D01*
X70940000Y-42810000D02*
X132940000Y-42810000D01*
X139440000Y-49310000D02*
X139440000Y-85310000D01*
X139440000Y-85310000D02*
G75*
G03*
X132940000Y-91810000I0J-6500000D01*
G01*
X64440000Y-49310000D02*
G75*
G03*
X70940000Y-42810000I0J6500000D01*
G01*
X70940000Y-91810000D02*
X132940000Y-91810000D01*
M02*
