M48
; DRILL file {KiCad 7.0.11+dfsg-1build4} date lun 24 nov 2025 13:09:21
; FORMAT={-:-/ absolute / metric / decimal}
; #@! TF.CreationDate,2025-11-24T13:09:21-05:00
; #@! TF.GenerationSoftware,Kicad,Pcbnew,7.0.11+dfsg-1build4
; #@! TF.FileFunction,Plated,1,2,PTH
FMAT,2
METRIC
; #@! TA.AperFunction,Plated,PTH,ComponentDrill
T1C1.000
; #@! TA.AperFunction,Plated,PTH,ComponentDrill
T2C1.200
%
G90
G05
T1
X75.2Y-45.72
X75.2Y-48.26
X75.2Y-50.8
X75.2Y-53.34
X75.2Y-55.88
X75.2Y-58.42
X75.2Y-60.96
X75.2Y-63.5
X75.2Y-66.04
X75.2Y-68.58
X75.2Y-71.12
X75.2Y-73.66
X75.2Y-76.2
X75.2Y-78.74
X75.2Y-81.28
X75.2Y-94.72
X75.2Y-97.26
X75.2Y-99.8
X75.2Y-102.34
X75.2Y-104.88
X75.2Y-107.42
X75.2Y-109.96
X75.2Y-112.5
X75.2Y-115.04
X75.2Y-117.58
X75.2Y-120.12
X75.2Y-122.66
X75.2Y-125.2
X75.2Y-127.74
X75.2Y-130.28
X77.74Y-45.72
X77.74Y-48.26
X77.74Y-50.8
X77.74Y-53.34
X77.74Y-55.88
X77.74Y-58.42
X77.74Y-60.96
X77.74Y-63.5
X77.74Y-66.04
X77.74Y-68.58
X77.74Y-71.12
X77.74Y-73.66
X77.74Y-76.2
X77.74Y-78.74
X77.74Y-81.28
X77.74Y-94.72
X77.74Y-97.26
X77.74Y-99.8
X77.74Y-102.34
X77.74Y-104.88
X77.74Y-107.42
X77.74Y-109.96
X77.74Y-112.5
X77.74Y-115.04
X77.74Y-117.58
X77.74Y-120.12
X77.74Y-122.66
X77.74Y-125.2
X77.74Y-127.74
X77.74Y-130.28
X80.28Y-45.72
X80.28Y-48.26
X80.28Y-50.8
X80.28Y-53.34
X80.28Y-55.88
X80.28Y-58.42
X80.28Y-60.96
X80.28Y-63.5
X80.28Y-66.04
X80.28Y-68.58
X80.28Y-71.12
X80.28Y-73.66
X80.28Y-76.2
X80.28Y-78.74
X80.28Y-81.28
X80.28Y-94.72
X80.28Y-97.26
X80.28Y-99.8
X80.28Y-102.34
X80.28Y-104.88
X80.28Y-107.42
X80.28Y-109.96
X80.28Y-112.5
X80.28Y-115.04
X80.28Y-117.58
X80.28Y-120.12
X80.28Y-122.66
X80.28Y-125.2
X80.28Y-127.74
X80.28Y-130.28
X82.82Y-45.72
X82.82Y-48.26
X82.82Y-50.8
X82.82Y-53.34
X82.82Y-55.88
X82.82Y-58.42
X82.82Y-60.96
X82.82Y-63.5
X82.82Y-66.04
X82.82Y-68.58
X82.82Y-71.12
X82.82Y-73.66
X82.82Y-76.2
X82.82Y-78.74
X82.82Y-81.28
X82.82Y-94.72
X82.82Y-97.26
X82.82Y-99.8
X82.82Y-102.34
X82.82Y-104.88
X82.82Y-107.42
X82.82Y-109.96
X82.82Y-112.5
X82.82Y-115.04
X82.82Y-117.58
X82.82Y-120.12
X82.82Y-122.66
X82.82Y-125.2
X82.82Y-127.74
X82.82Y-130.28
X85.36Y-45.72
X85.36Y-48.26
X85.36Y-50.8
X85.36Y-53.34
X85.36Y-55.88
X85.36Y-58.42
X85.36Y-60.96
X85.36Y-63.5
X85.36Y-66.04
X85.36Y-68.58
X85.36Y-71.12
X85.36Y-73.66
X85.36Y-76.2
X85.36Y-78.74
X85.36Y-81.28
X85.36Y-83.82
X85.36Y-86.36
X85.36Y-88.9
X85.36Y-94.72
X85.36Y-97.26
X85.36Y-99.8
X85.36Y-102.34
X85.36Y-104.88
X85.36Y-107.42
X85.36Y-109.96
X85.36Y-112.5
X85.36Y-115.04
X85.36Y-117.58
X85.36Y-120.12
X85.36Y-122.66
X85.36Y-125.2
X85.36Y-127.74
X85.36Y-130.28
X85.36Y-132.82
X85.36Y-135.36
X85.36Y-137.9
X87.9Y-45.72
X87.9Y-48.26
X87.9Y-50.8
X87.9Y-53.34
X87.9Y-55.88
X87.9Y-58.42
X87.9Y-60.96
X87.9Y-63.5
X87.9Y-66.04
X87.9Y-68.58
X87.9Y-71.12
X87.9Y-73.66
X87.9Y-76.2
X87.9Y-78.74
X87.9Y-81.28
X87.9Y-83.82
X87.9Y-86.36
X87.9Y-88.9
X87.9Y-94.72
X87.9Y-97.26
X87.9Y-99.8
X87.9Y-102.34
X87.9Y-104.88
X87.9Y-107.42
X87.9Y-109.96
X87.9Y-112.5
X87.9Y-115.04
X87.9Y-117.58
X87.9Y-120.12
X87.9Y-122.66
X87.9Y-125.2
X87.9Y-127.74
X87.9Y-130.28
X87.9Y-132.82
X87.9Y-135.36
X87.9Y-137.9
X90.44Y-45.72
X90.44Y-48.26
X90.44Y-50.8
X90.44Y-53.34
X90.44Y-55.88
X90.44Y-58.42
X90.44Y-60.96
X90.44Y-63.5
X90.44Y-66.04
X90.44Y-68.58
X90.44Y-71.12
X90.44Y-73.66
X90.44Y-76.2
X90.44Y-78.74
X90.44Y-81.28
X90.44Y-83.82
X90.44Y-86.36
X90.44Y-88.9
X90.44Y-94.72
X90.44Y-97.26
X90.44Y-99.8
X90.44Y-102.34
X90.44Y-104.88
X90.44Y-107.42
X90.44Y-109.96
X90.44Y-112.5
X90.44Y-115.04
X90.44Y-117.58
X90.44Y-120.12
X90.44Y-122.66
X90.44Y-125.2
X90.44Y-127.74
X90.44Y-130.28
X90.44Y-132.82
X90.44Y-135.36
X90.44Y-137.9
X92.98Y-45.72
X92.98Y-48.26
X92.98Y-50.8
X92.98Y-53.34
X92.98Y-55.88
X92.98Y-58.42
X92.98Y-60.96
X92.98Y-63.5
X92.98Y-66.04
X92.98Y-68.58
X92.98Y-71.12
X92.98Y-73.66
X92.98Y-76.2
X92.98Y-78.74
X92.98Y-81.28
X92.98Y-83.82
X92.98Y-86.36
X92.98Y-88.9
X92.98Y-94.72
X92.98Y-97.26
X92.98Y-99.8
X92.98Y-102.34
X92.98Y-104.88
X92.98Y-107.42
X92.98Y-109.96
X92.98Y-112.5
X92.98Y-115.04
X92.98Y-117.58
X92.98Y-120.12
X92.98Y-122.66
X92.98Y-125.2
X92.98Y-127.74
X92.98Y-130.28
X92.98Y-132.82
X92.98Y-135.36
X92.98Y-137.9
X95.52Y-45.72
X95.52Y-48.26
X95.52Y-50.8
X95.52Y-53.34
X95.52Y-55.88
X95.52Y-58.42
X95.52Y-60.96
X95.52Y-63.5
X95.52Y-66.04
X95.52Y-68.58
X95.52Y-71.12
X95.52Y-73.66
X95.52Y-76.2
X95.52Y-78.74
X95.52Y-81.28
X95.52Y-83.82
X95.52Y-86.36
X95.52Y-88.9
X95.52Y-94.72
X95.52Y-97.26
X95.52Y-99.8
X95.52Y-102.34
X95.52Y-104.88
X95.52Y-107.42
X95.52Y-109.96
X95.52Y-112.5
X95.52Y-115.04
X95.52Y-117.58
X95.52Y-120.12
X95.52Y-122.66
X95.52Y-125.2
X95.52Y-127.74
X95.52Y-130.28
X95.52Y-132.82
X95.52Y-135.36
X95.52Y-137.9
X98.06Y-45.72
X98.06Y-48.26
X98.06Y-50.8
X98.06Y-53.34
X98.06Y-55.88
X98.06Y-58.42
X98.06Y-60.96
X98.06Y-63.5
X98.06Y-66.04
X98.06Y-68.58
X98.06Y-71.12
X98.06Y-73.66
X98.06Y-76.2
X98.06Y-78.74
X98.06Y-81.28
X98.06Y-83.82
X98.06Y-86.36
X98.06Y-88.9
X98.06Y-94.72
X98.06Y-97.26
X98.06Y-99.8
X98.06Y-102.34
X98.06Y-104.88
X98.06Y-107.42
X98.06Y-109.96
X98.06Y-112.5
X98.06Y-115.04
X98.06Y-117.58
X98.06Y-120.12
X98.06Y-122.66
X98.06Y-125.2
X98.06Y-127.74
X98.06Y-130.28
X98.06Y-132.82
X98.06Y-135.36
X98.06Y-137.9
X100.6Y-45.72
X100.6Y-48.26
X100.6Y-50.8
X100.6Y-53.34
X100.6Y-55.88
X100.6Y-58.42
X100.6Y-60.96
X100.6Y-63.5
X100.6Y-66.04
X100.6Y-68.58
X100.6Y-71.12
X100.6Y-73.66
X100.6Y-76.2
X100.6Y-78.74
X100.6Y-81.28
X100.6Y-83.82
X100.6Y-86.36
X100.6Y-88.9
X100.6Y-94.72
X100.6Y-97.26
X100.6Y-99.8
X100.6Y-102.34
X100.6Y-104.88
X100.6Y-107.42
X100.6Y-109.96
X100.6Y-112.5
X100.6Y-115.04
X100.6Y-117.58
X100.6Y-120.12
X100.6Y-122.66
X100.6Y-125.2
X100.6Y-127.74
X100.6Y-130.28
X100.6Y-132.82
X100.6Y-135.36
X100.6Y-137.9
X103.14Y-45.72
X103.14Y-48.26
X103.14Y-50.8
X103.14Y-53.34
X103.14Y-55.88
X103.14Y-58.42
X103.14Y-60.96
X103.14Y-63.5
X103.14Y-66.04
X103.14Y-68.58
X103.14Y-71.12
X103.14Y-73.66
X103.14Y-76.2
X103.14Y-78.74
X103.14Y-81.28
X103.14Y-83.82
X103.14Y-86.36
X103.14Y-88.9
X103.14Y-94.72
X103.14Y-97.26
X103.14Y-99.8
X103.14Y-102.34
X103.14Y-104.88
X103.14Y-107.42
X103.14Y-109.96
X103.14Y-112.5
X103.14Y-115.04
X103.14Y-117.58
X103.14Y-120.12
X103.14Y-122.66
X103.14Y-125.2
X103.14Y-127.74
X103.14Y-130.28
X103.14Y-132.82
X103.14Y-135.36
X103.14Y-137.9
X105.68Y-45.72
X105.68Y-48.26
X105.68Y-50.8
X105.68Y-53.34
X105.68Y-55.88
X105.68Y-58.42
X105.68Y-60.96
X105.68Y-63.5
X105.68Y-66.04
X105.68Y-68.58
X105.68Y-71.12
X105.68Y-73.66
X105.68Y-76.2
X105.68Y-78.74
X105.68Y-81.28
X105.68Y-83.82
X105.68Y-86.36
X105.68Y-88.9
X105.68Y-94.72
X105.68Y-97.26
X105.68Y-99.8
X105.68Y-102.34
X105.68Y-104.88
X105.68Y-107.42
X105.68Y-109.96
X105.68Y-112.5
X105.68Y-115.04
X105.68Y-117.58
X105.68Y-120.12
X105.68Y-122.66
X105.68Y-125.2
X105.68Y-127.74
X105.68Y-130.28
X105.68Y-132.82
X105.68Y-135.36
X105.68Y-137.9
X108.22Y-45.72
X108.22Y-48.26
X108.22Y-50.8
X108.22Y-53.34
X108.22Y-55.88
X108.22Y-58.42
X108.22Y-60.96
X108.22Y-63.5
X108.22Y-66.04
X108.22Y-68.58
X108.22Y-71.12
X108.22Y-73.66
X108.22Y-76.2
X108.22Y-78.74
X108.22Y-81.28
X108.22Y-83.82
X108.22Y-86.36
X108.22Y-88.9
X108.22Y-94.72
X108.22Y-97.26
X108.22Y-99.8
X108.22Y-102.34
X108.22Y-104.88
X108.22Y-107.42
X108.22Y-109.96
X108.22Y-112.5
X108.22Y-115.04
X108.22Y-117.58
X108.22Y-120.12
X108.22Y-122.66
X108.22Y-125.2
X108.22Y-127.74
X108.22Y-130.28
X108.22Y-132.82
X108.22Y-135.36
X108.22Y-137.9
X110.76Y-45.72
X110.76Y-48.26
X110.76Y-50.8
X110.76Y-53.34
X110.76Y-55.88
X110.76Y-58.42
X110.76Y-60.96
X110.76Y-63.5
X110.76Y-66.04
X110.76Y-68.58
X110.76Y-71.12
X110.76Y-73.66
X110.76Y-76.2
X110.76Y-78.74
X110.76Y-81.28
X110.76Y-83.82
X110.76Y-86.36
X110.76Y-88.9
X110.76Y-94.72
X110.76Y-97.26
X110.76Y-99.8
X110.76Y-102.34
X110.76Y-104.88
X110.76Y-107.42
X110.76Y-109.96
X110.76Y-112.5
X110.76Y-115.04
X110.76Y-117.58
X110.76Y-120.12
X110.76Y-122.66
X110.76Y-125.2
X110.76Y-127.74
X110.76Y-130.28
X110.76Y-132.82
X110.76Y-135.36
X110.76Y-137.9
X113.3Y-45.72
X113.3Y-48.26
X113.3Y-50.8
X113.3Y-53.34
X113.3Y-55.88
X113.3Y-58.42
X113.3Y-60.96
X113.3Y-63.5
X113.3Y-66.04
X113.3Y-68.58
X113.3Y-71.12
X113.3Y-73.66
X113.3Y-76.2
X113.3Y-78.74
X113.3Y-81.28
X113.3Y-83.82
X113.3Y-86.36
X113.3Y-88.9
X113.3Y-94.72
X113.3Y-97.26
X113.3Y-99.8
X113.3Y-102.34
X113.3Y-104.88
X113.3Y-107.42
X113.3Y-109.96
X113.3Y-112.5
X113.3Y-115.04
X113.3Y-117.58
X113.3Y-120.12
X113.3Y-122.66
X113.3Y-125.2
X113.3Y-127.74
X113.3Y-130.28
X113.3Y-132.82
X113.3Y-135.36
X113.3Y-137.9
X115.84Y-45.72
X115.84Y-48.26
X115.84Y-50.8
X115.84Y-53.34
X115.84Y-55.88
X115.84Y-58.42
X115.84Y-60.96
X115.84Y-63.5
X115.84Y-66.04
X115.84Y-68.58
X115.84Y-71.12
X115.84Y-73.66
X115.84Y-76.2
X115.84Y-78.74
X115.84Y-81.28
X115.84Y-83.82
X115.84Y-86.36
X115.84Y-88.9
X115.84Y-94.72
X115.84Y-97.26
X115.84Y-99.8
X115.84Y-102.34
X115.84Y-104.88
X115.84Y-107.42
X115.84Y-109.96
X115.84Y-112.5
X115.84Y-115.04
X115.84Y-117.58
X115.84Y-120.12
X115.84Y-122.66
X115.84Y-125.2
X115.84Y-127.74
X115.84Y-130.28
X115.84Y-132.82
X115.84Y-135.36
X115.84Y-137.9
X118.38Y-45.72
X118.38Y-48.26
X118.38Y-50.8
X118.38Y-53.34
X118.38Y-55.88
X118.38Y-58.42
X118.38Y-60.96
X118.38Y-63.5
X118.38Y-66.04
X118.38Y-68.58
X118.38Y-71.12
X118.38Y-73.66
X118.38Y-76.2
X118.38Y-78.74
X118.38Y-81.28
X118.38Y-83.82
X118.38Y-86.36
X118.38Y-88.9
X118.38Y-94.72
X118.38Y-97.26
X118.38Y-99.8
X118.38Y-102.34
X118.38Y-104.88
X118.38Y-107.42
X118.38Y-109.96
X118.38Y-112.5
X118.38Y-115.04
X118.38Y-117.58
X118.38Y-120.12
X118.38Y-122.66
X118.38Y-125.2
X118.38Y-127.74
X118.38Y-130.28
X118.38Y-132.82
X118.38Y-135.36
X118.38Y-137.9
X120.92Y-45.72
X120.92Y-48.26
X120.92Y-50.8
X120.92Y-53.34
X120.92Y-55.88
X120.92Y-58.42
X120.92Y-60.96
X120.92Y-63.5
X120.92Y-66.04
X120.92Y-68.58
X120.92Y-71.12
X120.92Y-73.66
X120.92Y-76.2
X120.92Y-78.74
X120.92Y-81.28
X120.92Y-83.82
X120.92Y-86.36
X120.92Y-88.9
X120.92Y-94.72
X120.92Y-97.26
X120.92Y-99.8
X120.92Y-102.34
X120.92Y-104.88
X120.92Y-107.42
X120.92Y-109.96
X120.92Y-112.5
X120.92Y-115.04
X120.92Y-117.58
X120.92Y-120.12
X120.92Y-122.66
X120.92Y-125.2
X120.92Y-127.74
X120.92Y-130.28
X120.92Y-132.82
X120.92Y-135.36
X120.92Y-137.9
X123.46Y-45.72
X123.46Y-48.26
X123.46Y-50.8
X123.46Y-53.34
X123.46Y-55.88
X123.46Y-58.42
X123.46Y-60.96
X123.46Y-63.5
X123.46Y-66.04
X123.46Y-68.58
X123.46Y-71.12
X123.46Y-73.66
X123.46Y-76.2
X123.46Y-78.74
X123.46Y-81.28
X123.46Y-83.82
X123.46Y-86.36
X123.46Y-88.9
X123.46Y-94.72
X123.46Y-97.26
X123.46Y-99.8
X123.46Y-102.34
X123.46Y-104.88
X123.46Y-107.42
X123.46Y-109.96
X123.46Y-112.5
X123.46Y-115.04
X123.46Y-117.58
X123.46Y-120.12
X123.46Y-122.66
X123.46Y-125.2
X123.46Y-127.74
X123.46Y-130.28
X123.46Y-132.82
X123.46Y-135.36
X123.46Y-137.9
X126.0Y-54.01
X126.0Y-57.51
X126.0Y-61.01
X126.0Y-73.61
X126.0Y-77.11
X126.0Y-80.61
X126.0Y-103.01
X126.0Y-106.51
X126.0Y-110.01
X126.0Y-122.61
X126.0Y-126.11
X126.0Y-129.61
X127.54Y-66.04
X127.54Y-68.58
X127.54Y-115.04
X127.54Y-117.58
T2
X132.94Y-54.01
X132.94Y-57.51
X132.94Y-61.01
X132.94Y-73.61
X132.94Y-77.11
X132.94Y-80.61
X132.94Y-103.01
X132.94Y-106.51
X132.94Y-110.01
X132.94Y-122.61
X132.94Y-126.11
X132.94Y-129.61
M30
