G04 #@! TF.GenerationSoftware,KiCad,Pcbnew,5.1.5+dfsg1-2build2*
G04 #@! TF.CreationDate,2022-07-24T21:39:07-05:00*
G04 #@! TF.ProjectId,,58585858-5858-4585-9858-585858585858,rev?*
G04 #@! TF.SameCoordinates,Original*
G04 #@! TF.FileFunction,Legend,Top*
G04 #@! TF.FilePolarity,Positive*
%FSLAX46Y46*%
G04 Gerber Fmt 4.6, Leading zero omitted, Abs format (unit mm)*
G04 Created by KiCad (PCBNEW 5.1.5+dfsg1-2build2) date 2022-07-24 21:39:07*
%MOMM*%
%LPD*%
G04 APERTURE LIST*
%ADD10C,0.150000*%
%ADD11C,0.700000*%
%ADD12C,2.102000*%
G04 APERTURE END LIST*
D10*
X157055144Y-112497617D02*
X156255144Y-112497617D01*
X156826573Y-112230950D01*
X156255144Y-111964283D01*
X157055144Y-111964283D01*
X156978954Y-111126188D02*
X157017049Y-111164283D01*
X157055144Y-111278569D01*
X157055144Y-111354760D01*
X157017049Y-111469045D01*
X156940859Y-111545236D01*
X156864668Y-111583331D01*
X156712287Y-111621426D01*
X156598001Y-111621426D01*
X156445620Y-111583331D01*
X156369430Y-111545236D01*
X156293240Y-111469045D01*
X156255144Y-111354760D01*
X156255144Y-111278569D01*
X156293240Y-111164283D01*
X156331335Y-111126188D01*
X156255144Y-110783331D02*
X156902763Y-110783331D01*
X156978954Y-110745236D01*
X157017049Y-110707140D01*
X157055144Y-110630950D01*
X157055144Y-110478569D01*
X157017049Y-110402379D01*
X156978954Y-110364283D01*
X156902763Y-110326188D01*
X156255144Y-110326188D01*
X157055144Y-109335712D02*
X156255144Y-109335712D01*
X156255144Y-109030950D01*
X156293240Y-108954760D01*
X156331335Y-108916664D01*
X156407525Y-108878569D01*
X156521811Y-108878569D01*
X156598001Y-108916664D01*
X156636097Y-108954760D01*
X156674192Y-109030950D01*
X156674192Y-109335712D01*
X157055144Y-108078569D02*
X156674192Y-108345236D01*
X157055144Y-108535712D02*
X156255144Y-108535712D01*
X156255144Y-108230950D01*
X156293240Y-108154760D01*
X156331335Y-108116664D01*
X156407525Y-108078569D01*
X156521811Y-108078569D01*
X156598001Y-108116664D01*
X156636097Y-108154760D01*
X156674192Y-108230950D01*
X156674192Y-108535712D01*
X156255144Y-107583331D02*
X156255144Y-107430950D01*
X156293240Y-107354760D01*
X156369430Y-107278569D01*
X156521811Y-107240474D01*
X156788478Y-107240474D01*
X156940859Y-107278569D01*
X157017049Y-107354760D01*
X157055144Y-107430950D01*
X157055144Y-107583331D01*
X157017049Y-107659521D01*
X156940859Y-107735712D01*
X156788478Y-107773807D01*
X156521811Y-107773807D01*
X156369430Y-107735712D01*
X156293240Y-107659521D01*
X156255144Y-107583331D01*
X156255144Y-107011902D02*
X156255144Y-106554760D01*
X157055144Y-106783331D02*
X156255144Y-106783331D01*
X156255144Y-106135712D02*
X156255144Y-105983331D01*
X156293240Y-105907140D01*
X156369430Y-105830950D01*
X156521811Y-105792855D01*
X156788478Y-105792855D01*
X156940859Y-105830950D01*
X157017049Y-105907140D01*
X157055144Y-105983331D01*
X157055144Y-106135712D01*
X157017049Y-106211902D01*
X156940859Y-106288093D01*
X156788478Y-106326188D01*
X156521811Y-106326188D01*
X156369430Y-106288093D01*
X156293240Y-106211902D01*
X156255144Y-106135712D01*
X157017049Y-104878569D02*
X157055144Y-104764283D01*
X157055144Y-104573807D01*
X157017049Y-104497617D01*
X156978954Y-104459521D01*
X156902763Y-104421426D01*
X156826573Y-104421426D01*
X156750382Y-104459521D01*
X156712287Y-104497617D01*
X156674192Y-104573807D01*
X156636097Y-104726188D01*
X156598001Y-104802379D01*
X156559906Y-104840474D01*
X156483716Y-104878569D01*
X156407525Y-104878569D01*
X156331335Y-104840474D01*
X156293240Y-104802379D01*
X156255144Y-104726188D01*
X156255144Y-104535712D01*
X156293240Y-104421426D01*
X157055144Y-104078569D02*
X156255144Y-104078569D01*
X156255144Y-103773807D01*
X156293240Y-103697617D01*
X156331335Y-103659521D01*
X156407525Y-103621426D01*
X156521811Y-103621426D01*
X156598001Y-103659521D01*
X156636097Y-103697617D01*
X156674192Y-103773807D01*
X156674192Y-104078569D01*
X156255144Y-103126188D02*
X156255144Y-102973807D01*
X156293240Y-102897617D01*
X156369430Y-102821426D01*
X156521811Y-102783331D01*
X156788478Y-102783331D01*
X156940859Y-102821426D01*
X157017049Y-102897617D01*
X157055144Y-102973807D01*
X157055144Y-103126188D01*
X157017049Y-103202379D01*
X156940859Y-103278569D01*
X156788478Y-103316664D01*
X156521811Y-103316664D01*
X156369430Y-103278569D01*
X156293240Y-103202379D01*
X156255144Y-103126188D01*
X157055144Y-101983331D02*
X156674192Y-102249998D01*
X157055144Y-102440474D02*
X156255144Y-102440474D01*
X156255144Y-102135712D01*
X156293240Y-102059521D01*
X156331335Y-102021426D01*
X156407525Y-101983331D01*
X156521811Y-101983331D01*
X156598001Y-102021426D01*
X156636097Y-102059521D01*
X156674192Y-102135712D01*
X156674192Y-102440474D01*
X156255144Y-101754760D02*
X156255144Y-101297617D01*
X157055144Y-101526188D02*
X156255144Y-101526188D01*
X156978954Y-100573807D02*
X157017049Y-100611902D01*
X157055144Y-100726188D01*
X157055144Y-100802379D01*
X157017049Y-100916664D01*
X156940859Y-100992855D01*
X156864668Y-101030950D01*
X156712287Y-101069045D01*
X156598001Y-101069045D01*
X156445620Y-101030950D01*
X156369430Y-100992855D01*
X156293240Y-100916664D01*
X156255144Y-100802379D01*
X156255144Y-100726188D01*
X156293240Y-100611902D01*
X156331335Y-100573807D01*
X156826573Y-100269045D02*
X156826573Y-99888093D01*
X157055144Y-100345236D02*
X156255144Y-100078569D01*
X157055144Y-99811902D01*
X157055144Y-99545236D02*
X156255144Y-99545236D01*
X156826573Y-99278569D01*
X156255144Y-99011902D01*
X157055144Y-99011902D01*
D11*
X100825300Y-87376590D02*
X100825300Y-87084490D01*
X103365300Y-87376590D02*
X103365300Y-87084490D01*
X105905300Y-87376590D02*
X105905300Y-87084490D01*
X108445300Y-87376590D02*
X108445300Y-87084490D01*
X110985300Y-87376590D02*
X110985300Y-87084490D01*
X113525300Y-87376590D02*
X113525300Y-87084490D01*
X116065300Y-87376590D02*
X116065300Y-87084490D01*
X118605300Y-87376590D02*
X118605300Y-87084490D01*
X121145300Y-87376590D02*
X121145300Y-87084490D01*
X123685300Y-87376590D02*
X123685300Y-87084490D01*
X126225300Y-87376590D02*
X126225300Y-87084490D01*
X128765300Y-87376590D02*
X128765300Y-87084490D01*
X131305300Y-87376590D02*
X131305300Y-87084490D01*
X133845300Y-87376590D02*
X133845300Y-87084490D01*
X136385300Y-87376590D02*
X136385300Y-87084490D01*
X138925300Y-87376590D02*
X138925300Y-87084490D01*
X141465300Y-87376590D02*
X141465300Y-87084490D01*
X144005300Y-87376590D02*
X144005300Y-87084490D01*
X146545300Y-87376590D02*
X146545300Y-87084490D01*
X149085300Y-87376590D02*
X149085300Y-87084490D01*
X151625300Y-87376590D02*
X151625300Y-87084490D01*
X154165300Y-87376590D02*
X154165300Y-87084490D01*
X100825300Y-89916590D02*
X100825300Y-89624490D01*
X103365300Y-89916590D02*
X103365300Y-89624490D01*
X105905300Y-89916590D02*
X105905300Y-89624490D01*
X108445300Y-89916590D02*
X108445300Y-89624490D01*
X110985300Y-89916590D02*
X110985300Y-89624490D01*
X113525300Y-89916590D02*
X113525300Y-89624490D01*
X116065300Y-89916590D02*
X116065300Y-89624490D01*
X118605300Y-89916590D02*
X118605300Y-89624490D01*
X121145300Y-89916590D02*
X121145300Y-89624490D01*
X123685300Y-89916590D02*
X123685300Y-89624490D01*
X126225300Y-89916590D02*
X126225300Y-89624490D01*
X128765300Y-89916590D02*
X128765300Y-89624490D01*
X131305300Y-89916590D02*
X131305300Y-89624490D01*
X133845300Y-89916590D02*
X133845300Y-89624490D01*
X136385300Y-89916590D02*
X136385300Y-89624490D01*
X138925300Y-89916590D02*
X138925300Y-89624490D01*
X141465300Y-89916590D02*
X141465300Y-89624490D01*
X144005300Y-89916590D02*
X144005300Y-89624490D01*
X146545300Y-89916590D02*
X146545300Y-89624490D01*
X149085300Y-89916590D02*
X149085300Y-89624490D01*
X151625300Y-89916590D02*
X151625300Y-89624490D01*
X154165300Y-89916590D02*
X154165300Y-89624490D01*
X100825300Y-94996590D02*
X100825300Y-94704490D01*
X103365300Y-94996590D02*
X103365300Y-94704490D01*
X105905300Y-94996590D02*
X105905300Y-94704490D01*
X108445300Y-94996590D02*
X108445300Y-94704490D01*
X110985300Y-94996590D02*
X110985300Y-94704490D01*
X113525300Y-94996590D02*
X113525300Y-94704490D01*
X116065300Y-94996590D02*
X116065300Y-94704490D01*
X118605300Y-94996590D02*
X118605300Y-94704490D01*
X121145300Y-94996590D02*
X121145300Y-94704490D01*
X123685300Y-94996590D02*
X123685300Y-94704490D01*
X126225300Y-94996590D02*
X126225300Y-94704490D01*
X128765300Y-94996590D02*
X128765300Y-94704490D01*
X131305300Y-94996590D02*
X131305300Y-94704490D01*
X133845300Y-94996590D02*
X133845300Y-94704490D01*
X136385300Y-94996590D02*
X136385300Y-94704490D01*
X138925300Y-94996590D02*
X138925300Y-94704490D01*
X141465300Y-94996590D02*
X141465300Y-94704490D01*
X144005300Y-94996590D02*
X144005300Y-94704490D01*
X146545300Y-94996590D02*
X146545300Y-94704490D01*
X149085300Y-94996590D02*
X149085300Y-94704490D01*
X151625300Y-94996590D02*
X151625300Y-94704490D01*
X154165300Y-94996590D02*
X154165300Y-94704490D01*
X102235000Y-98657040D02*
X101942900Y-98657040D01*
X104775000Y-98657040D02*
X104482900Y-98657040D01*
X107315000Y-98657040D02*
X107022900Y-98657040D01*
X109855000Y-98657040D02*
X109562900Y-98657040D01*
X112395000Y-98657040D02*
X112102900Y-98657040D01*
X114935000Y-98657040D02*
X114642900Y-98657040D01*
X117475000Y-98657040D02*
X117182900Y-98657040D01*
X120015000Y-98657040D02*
X119722900Y-98657040D01*
X122555000Y-98657040D02*
X122262900Y-98657040D01*
X125095000Y-98657040D02*
X124802900Y-98657040D01*
X130175000Y-98657040D02*
X129882900Y-98657040D01*
X132715000Y-98657040D02*
X132422900Y-98657040D01*
X135255000Y-98657040D02*
X134962900Y-98657040D01*
X137795000Y-98657040D02*
X137502900Y-98657040D01*
X140335000Y-98657040D02*
X140042900Y-98657040D01*
X142875000Y-98657040D02*
X142582900Y-98657040D01*
X145415000Y-98657040D02*
X145122900Y-98657040D01*
X147955000Y-98657040D02*
X147662900Y-98657040D01*
X150495000Y-98657040D02*
X150202900Y-98657040D01*
X153035000Y-98657040D02*
X152742900Y-98657040D01*
X102235000Y-101197040D02*
X101942900Y-101197040D01*
X104775000Y-101197040D02*
X104482900Y-101197040D01*
X107315000Y-101197040D02*
X107022900Y-101197040D01*
X109855000Y-101197040D02*
X109562900Y-101197040D01*
X112395000Y-101197040D02*
X112102900Y-101197040D01*
X114935000Y-101197040D02*
X114642900Y-101197040D01*
X117475000Y-101197040D02*
X117182900Y-101197040D01*
X120015000Y-101197040D02*
X119722900Y-101197040D01*
X122555000Y-101197040D02*
X122262900Y-101197040D01*
X125095000Y-101197040D02*
X124802900Y-101197040D01*
X130175000Y-101197040D02*
X129882900Y-101197040D01*
X132715000Y-101197040D02*
X132422900Y-101197040D01*
X135255000Y-101197040D02*
X134962900Y-101197040D01*
X137795000Y-101197040D02*
X137502900Y-101197040D01*
X140335000Y-101197040D02*
X140042900Y-101197040D01*
X142875000Y-101197040D02*
X142582900Y-101197040D01*
X145415000Y-101197040D02*
X145122900Y-101197040D01*
X147955000Y-101197040D02*
X147662900Y-101197040D01*
X150495000Y-101197040D02*
X150202900Y-101197040D01*
X153035000Y-101197040D02*
X152742900Y-101197040D01*
X102235000Y-116437040D02*
X101942900Y-116437040D01*
X104775000Y-116437040D02*
X104482900Y-116437040D01*
X107315000Y-116437040D02*
X107022900Y-116437040D01*
X109855000Y-116437040D02*
X109562900Y-116437040D01*
X112395000Y-116437040D02*
X112102900Y-116437040D01*
X114935000Y-116437040D02*
X114642900Y-116437040D01*
X117475000Y-116437040D02*
X117182900Y-116437040D01*
X120015000Y-116437040D02*
X119722900Y-116437040D01*
X122555000Y-116437040D02*
X122262900Y-116437040D01*
X125095000Y-116437040D02*
X124802900Y-116437040D01*
X130175000Y-116437040D02*
X129882900Y-116437040D01*
X132715000Y-116437040D02*
X132422900Y-116437040D01*
X135255000Y-116437040D02*
X134962900Y-116437040D01*
X137795000Y-116437040D02*
X137502900Y-116437040D01*
X140335000Y-116437040D02*
X140042900Y-116437040D01*
X142875000Y-116437040D02*
X142582900Y-116437040D01*
X145415000Y-116437040D02*
X145122900Y-116437040D01*
X147955000Y-116437040D02*
X147662900Y-116437040D01*
X150495000Y-116437040D02*
X150202900Y-116437040D01*
X153035000Y-116437040D02*
X152742900Y-116437040D01*
X102235000Y-118977040D02*
X101942900Y-118977040D01*
X104775000Y-118977040D02*
X104482900Y-118977040D01*
X107315000Y-118977040D02*
X107022900Y-118977040D01*
X109855000Y-118977040D02*
X109562900Y-118977040D01*
X112395000Y-118977040D02*
X112102900Y-118977040D01*
X114935000Y-118977040D02*
X114642900Y-118977040D01*
X117475000Y-118977040D02*
X117182900Y-118977040D01*
X120015000Y-118977040D02*
X119722900Y-118977040D01*
X122555000Y-118977040D02*
X122262900Y-118977040D01*
X125095000Y-118977040D02*
X124802900Y-118977040D01*
X130175000Y-118977040D02*
X129882900Y-118977040D01*
X132715000Y-118977040D02*
X132422900Y-118977040D01*
X135255000Y-118977040D02*
X134962900Y-118977040D01*
X137795000Y-118977040D02*
X137502900Y-118977040D01*
X140335000Y-118977040D02*
X140042900Y-118977040D01*
X142875000Y-118977040D02*
X142582900Y-118977040D01*
X145415000Y-118977040D02*
X145122900Y-118977040D01*
X147955000Y-118977040D02*
X147662900Y-118977040D01*
X150495000Y-118977040D02*
X150202900Y-118977040D01*
X153035000Y-118977040D02*
X152742900Y-118977040D01*
X102235000Y-121517040D02*
X101942900Y-121517040D01*
X104775000Y-121517040D02*
X104482900Y-121517040D01*
X107315000Y-121517040D02*
X107022900Y-121517040D01*
X109855000Y-121517040D02*
X109562900Y-121517040D01*
X112395000Y-121517040D02*
X112102900Y-121517040D01*
X114935000Y-121517040D02*
X114642900Y-121517040D01*
X117475000Y-121517040D02*
X117182900Y-121517040D01*
X120015000Y-121517040D02*
X119722900Y-121517040D01*
X122555000Y-121517040D02*
X122262900Y-121517040D01*
X125095000Y-121517040D02*
X124802900Y-121517040D01*
X130175000Y-121517040D02*
X129882900Y-121517040D01*
X132715000Y-121517040D02*
X132422900Y-121517040D01*
X135255000Y-121517040D02*
X134962900Y-121517040D01*
X137795000Y-121517040D02*
X137502900Y-121517040D01*
X140335000Y-121517040D02*
X140042900Y-121517040D01*
X142875000Y-121517040D02*
X142582900Y-121517040D01*
X145415000Y-121517040D02*
X145122900Y-121517040D01*
X147955000Y-121517040D02*
X147662900Y-121517040D01*
X150495000Y-121517040D02*
X150202900Y-121517040D01*
X153035000Y-121517040D02*
X152742900Y-121517040D01*
X100825300Y-105156590D02*
X100825300Y-104864490D01*
X103365300Y-105156590D02*
X103365300Y-104864490D01*
X105905300Y-105156590D02*
X105905300Y-104864490D01*
X108445300Y-105156590D02*
X108445300Y-104864490D01*
X110985300Y-105156590D02*
X110985300Y-104864490D01*
X113525300Y-105156590D02*
X113525300Y-104864490D01*
X116065300Y-105156590D02*
X116065300Y-104864490D01*
X118605300Y-105156590D02*
X118605300Y-104864490D01*
X121145300Y-105156590D02*
X121145300Y-104864490D01*
X123685300Y-105156590D02*
X123685300Y-104864490D01*
X126225300Y-105156590D02*
X126225300Y-104864490D01*
X128765300Y-105156590D02*
X128765300Y-104864490D01*
X131305300Y-105156590D02*
X131305300Y-104864490D01*
X133845300Y-105156590D02*
X133845300Y-104864490D01*
X136385300Y-105156590D02*
X136385300Y-104864490D01*
X138925300Y-105156590D02*
X138925300Y-104864490D01*
X141465300Y-105156590D02*
X141465300Y-104864490D01*
X144005300Y-105156590D02*
X144005300Y-104864490D01*
X146545300Y-105156590D02*
X146545300Y-104864490D01*
X149085300Y-105156590D02*
X149085300Y-104864490D01*
X151625300Y-105156590D02*
X151625300Y-104864490D01*
X154165300Y-105156590D02*
X154165300Y-104864490D01*
X100825300Y-107696590D02*
X100825300Y-107404490D01*
X103365300Y-107696590D02*
X103365300Y-107404490D01*
X105905300Y-107696590D02*
X105905300Y-107404490D01*
X108445300Y-107696590D02*
X108445300Y-107404490D01*
X110985300Y-107696590D02*
X110985300Y-107404490D01*
X113525300Y-107696590D02*
X113525300Y-107404490D01*
X116065300Y-107696590D02*
X116065300Y-107404490D01*
X118605300Y-107696590D02*
X118605300Y-107404490D01*
X121145300Y-107696590D02*
X121145300Y-107404490D01*
X123685300Y-107696590D02*
X123685300Y-107404490D01*
X126225300Y-107696590D02*
X126225300Y-107404490D01*
X128765300Y-107696590D02*
X128765300Y-107404490D01*
X131305300Y-107696590D02*
X131305300Y-107404490D01*
X133845300Y-107696590D02*
X133845300Y-107404490D01*
X136385300Y-107696590D02*
X136385300Y-107404490D01*
X138925300Y-107696590D02*
X138925300Y-107404490D01*
X141465300Y-107696590D02*
X141465300Y-107404490D01*
X144005300Y-107696590D02*
X144005300Y-107404490D01*
X146545300Y-107696590D02*
X146545300Y-107404490D01*
X149085300Y-107696590D02*
X149085300Y-107404490D01*
X151625300Y-107696590D02*
X151625300Y-107404490D01*
X154165300Y-107696590D02*
X154165300Y-107404490D01*
X100825300Y-110236590D02*
X100825300Y-109944490D01*
X103365300Y-110236590D02*
X103365300Y-109944490D01*
X105905300Y-110236590D02*
X105905300Y-109944490D01*
X108445300Y-110236590D02*
X108445300Y-109944490D01*
X110985300Y-110236590D02*
X110985300Y-109944490D01*
X113525300Y-110236590D02*
X113525300Y-109944490D01*
X116065300Y-110236590D02*
X116065300Y-109944490D01*
X118605300Y-110236590D02*
X118605300Y-109944490D01*
X121145300Y-110236590D02*
X121145300Y-109944490D01*
X123685300Y-110236590D02*
X123685300Y-109944490D01*
X126225300Y-110236590D02*
X126225300Y-109944490D01*
X128765300Y-110236590D02*
X128765300Y-109944490D01*
X131305300Y-110236590D02*
X131305300Y-109944490D01*
X133845300Y-110236590D02*
X133845300Y-109944490D01*
X136385300Y-110236590D02*
X136385300Y-109944490D01*
X138925300Y-110236590D02*
X138925300Y-109944490D01*
X141465300Y-110236590D02*
X141465300Y-109944490D01*
X144005300Y-110236590D02*
X144005300Y-109944490D01*
X146545300Y-110236590D02*
X146545300Y-109944490D01*
X149085300Y-110236590D02*
X149085300Y-109944490D01*
X151625300Y-110236590D02*
X151625300Y-109944490D01*
X154165300Y-110236590D02*
X154165300Y-109944490D01*
X100825300Y-112776590D02*
X100825300Y-112484490D01*
X103365300Y-112776590D02*
X103365300Y-112484490D01*
X105905300Y-112776590D02*
X105905300Y-112484490D01*
X108445300Y-112776590D02*
X108445300Y-112484490D01*
X110985300Y-112776590D02*
X110985300Y-112484490D01*
X113525300Y-112776590D02*
X113525300Y-112484490D01*
X116065300Y-112776590D02*
X116065300Y-112484490D01*
X118605300Y-112776590D02*
X118605300Y-112484490D01*
X121145300Y-112776590D02*
X121145300Y-112484490D01*
X123685300Y-112776590D02*
X123685300Y-112484490D01*
X126225300Y-112776590D02*
X126225300Y-112484490D01*
X128765300Y-112776590D02*
X128765300Y-112484490D01*
X131305300Y-112776590D02*
X131305300Y-112484490D01*
X133845300Y-112776590D02*
X133845300Y-112484490D01*
X136385300Y-112776590D02*
X136385300Y-112484490D01*
X154165300Y-112776590D02*
X154165300Y-112484490D01*
X149085300Y-112776590D02*
X149085300Y-112484490D01*
X151625300Y-112776590D02*
X151625300Y-112484490D01*
X146545300Y-112776590D02*
X146545300Y-112484490D01*
X144005300Y-112776590D02*
X144005300Y-112484490D01*
X141465300Y-112776590D02*
X141465300Y-112484490D01*
X138925300Y-112776590D02*
X138925300Y-112484490D01*
X154165300Y-71776590D02*
X154165300Y-71484490D01*
X151625300Y-71776590D02*
X151625300Y-71484490D01*
X149085300Y-71776590D02*
X149085300Y-71484490D01*
X146545300Y-71776590D02*
X146545300Y-71484490D01*
X144005300Y-71776590D02*
X144005300Y-71484490D01*
X141465300Y-71776590D02*
X141465300Y-71484490D01*
X138925300Y-71776590D02*
X138925300Y-71484490D01*
X136385300Y-71776590D02*
X136385300Y-71484490D01*
X133845300Y-71776590D02*
X133845300Y-71484490D01*
X131305300Y-71776590D02*
X131305300Y-71484490D01*
X128765300Y-71776590D02*
X128765300Y-71484490D01*
X126225300Y-71776590D02*
X126225300Y-71484490D01*
X123685300Y-71776590D02*
X123685300Y-71484490D01*
X121145300Y-71776590D02*
X121145300Y-71484490D01*
X118605300Y-71776590D02*
X118605300Y-71484490D01*
X116065300Y-71776590D02*
X116065300Y-71484490D01*
X113525300Y-71776590D02*
X113525300Y-71484490D01*
X110985300Y-71776590D02*
X110985300Y-71484490D01*
X108445300Y-71776590D02*
X108445300Y-71484490D01*
X105905300Y-71776590D02*
X105905300Y-71484490D01*
X103365300Y-71776590D02*
X103365300Y-71484490D01*
X100825300Y-71776590D02*
X100825300Y-71484490D01*
X154165300Y-69236590D02*
X154165300Y-68944490D01*
X151625300Y-69236590D02*
X151625300Y-68944490D01*
X149085300Y-69236590D02*
X149085300Y-68944490D01*
X146545300Y-69236590D02*
X146545300Y-68944490D01*
X144005300Y-69236590D02*
X144005300Y-68944490D01*
X141465300Y-69236590D02*
X141465300Y-68944490D01*
X138925300Y-69236590D02*
X138925300Y-68944490D01*
X136385300Y-69236590D02*
X136385300Y-68944490D01*
X133845300Y-69236590D02*
X133845300Y-68944490D01*
X131305300Y-69236590D02*
X131305300Y-68944490D01*
X128765300Y-69236590D02*
X128765300Y-68944490D01*
X126225300Y-69236590D02*
X126225300Y-68944490D01*
X123685300Y-69236590D02*
X123685300Y-68944490D01*
X121145300Y-69236590D02*
X121145300Y-68944490D01*
X118605300Y-69236590D02*
X118605300Y-68944490D01*
X116065300Y-69236590D02*
X116065300Y-68944490D01*
X113525300Y-69236590D02*
X113525300Y-68944490D01*
X110985300Y-69236590D02*
X110985300Y-68944490D01*
X108445300Y-69236590D02*
X108445300Y-68944490D01*
X105905300Y-69236590D02*
X105905300Y-68944490D01*
X103365300Y-69236590D02*
X103365300Y-68944490D01*
X100825300Y-69236590D02*
X100825300Y-68944490D01*
X154165300Y-66696590D02*
X154165300Y-66404490D01*
X151625300Y-66696590D02*
X151625300Y-66404490D01*
X149085300Y-66696590D02*
X149085300Y-66404490D01*
X146545300Y-66696590D02*
X146545300Y-66404490D01*
X144005300Y-66696590D02*
X144005300Y-66404490D01*
X141465300Y-66696590D02*
X141465300Y-66404490D01*
X138925300Y-66696590D02*
X138925300Y-66404490D01*
X136385300Y-66696590D02*
X136385300Y-66404490D01*
X133845300Y-66696590D02*
X133845300Y-66404490D01*
X131305300Y-66696590D02*
X131305300Y-66404490D01*
X128765300Y-66696590D02*
X128765300Y-66404490D01*
X126225300Y-66696590D02*
X126225300Y-66404490D01*
X123685300Y-66696590D02*
X123685300Y-66404490D01*
X121145300Y-66696590D02*
X121145300Y-66404490D01*
X118605300Y-66696590D02*
X118605300Y-66404490D01*
X116065300Y-66696590D02*
X116065300Y-66404490D01*
X113525300Y-66696590D02*
X113525300Y-66404490D01*
X110985300Y-66696590D02*
X110985300Y-66404490D01*
X108445300Y-66696590D02*
X108445300Y-66404490D01*
X105905300Y-66696590D02*
X105905300Y-66404490D01*
X103365300Y-66696590D02*
X103365300Y-66404490D01*
X100825300Y-66696590D02*
X100825300Y-66404490D01*
X154165300Y-64156590D02*
X154165300Y-63864490D01*
X151625300Y-64156590D02*
X151625300Y-63864490D01*
X149085300Y-64156590D02*
X149085300Y-63864490D01*
X146545300Y-64156590D02*
X146545300Y-63864490D01*
X144005300Y-64156590D02*
X144005300Y-63864490D01*
X141465300Y-64156590D02*
X141465300Y-63864490D01*
X138925300Y-64156590D02*
X138925300Y-63864490D01*
X136385300Y-64156590D02*
X136385300Y-63864490D01*
X133845300Y-64156590D02*
X133845300Y-63864490D01*
X131305300Y-64156590D02*
X131305300Y-63864490D01*
X128765300Y-64156590D02*
X128765300Y-63864490D01*
X126225300Y-64156590D02*
X126225300Y-63864490D01*
X123685300Y-64156590D02*
X123685300Y-63864490D01*
X121145300Y-64156590D02*
X121145300Y-63864490D01*
X118605300Y-64156590D02*
X118605300Y-63864490D01*
X116065300Y-64156590D02*
X116065300Y-63864490D01*
X113525300Y-64156590D02*
X113525300Y-63864490D01*
X110985300Y-64156590D02*
X110985300Y-63864490D01*
X108445300Y-64156590D02*
X108445300Y-63864490D01*
X105905300Y-64156590D02*
X105905300Y-63864490D01*
X103365300Y-64156590D02*
X103365300Y-63864490D01*
X100825300Y-64156590D02*
X100825300Y-63864490D01*
X153035000Y-80517040D02*
X152742900Y-80517040D01*
X150495000Y-80517040D02*
X150202900Y-80517040D01*
X147955000Y-80517040D02*
X147662900Y-80517040D01*
X145415000Y-80517040D02*
X145122900Y-80517040D01*
X142875000Y-80517040D02*
X142582900Y-80517040D01*
X140335000Y-80517040D02*
X140042900Y-80517040D01*
X137795000Y-80517040D02*
X137502900Y-80517040D01*
X135255000Y-80517040D02*
X134962900Y-80517040D01*
X132715000Y-80517040D02*
X132422900Y-80517040D01*
X130175000Y-80517040D02*
X129882900Y-80517040D01*
X125095000Y-80517040D02*
X124802900Y-80517040D01*
X122555000Y-80517040D02*
X122262900Y-80517040D01*
X120015000Y-80517040D02*
X119722900Y-80517040D01*
X117475000Y-80517040D02*
X117182900Y-80517040D01*
X114935000Y-80517040D02*
X114642900Y-80517040D01*
X112395000Y-80517040D02*
X112102900Y-80517040D01*
X109855000Y-80517040D02*
X109562900Y-80517040D01*
X107315000Y-80517040D02*
X107022900Y-80517040D01*
X104775000Y-80517040D02*
X104482900Y-80517040D01*
X102235000Y-80517040D02*
X101942900Y-80517040D01*
X153035000Y-77977040D02*
X152742900Y-77977040D01*
X150495000Y-77977040D02*
X150202900Y-77977040D01*
X147955000Y-77977040D02*
X147662900Y-77977040D01*
X145415000Y-77977040D02*
X145122900Y-77977040D01*
X142875000Y-77977040D02*
X142582900Y-77977040D01*
X140335000Y-77977040D02*
X140042900Y-77977040D01*
X137795000Y-77977040D02*
X137502900Y-77977040D01*
X135255000Y-77977040D02*
X134962900Y-77977040D01*
X132715000Y-77977040D02*
X132422900Y-77977040D01*
X130175000Y-77977040D02*
X129882900Y-77977040D01*
X125095000Y-77977040D02*
X124802900Y-77977040D01*
X122555000Y-77977040D02*
X122262900Y-77977040D01*
X120015000Y-77977040D02*
X119722900Y-77977040D01*
X117475000Y-77977040D02*
X117182900Y-77977040D01*
X114935000Y-77977040D02*
X114642900Y-77977040D01*
X112395000Y-77977040D02*
X112102900Y-77977040D01*
X109855000Y-77977040D02*
X109562900Y-77977040D01*
X107315000Y-77977040D02*
X107022900Y-77977040D01*
X104775000Y-77977040D02*
X104482900Y-77977040D01*
X102235000Y-77977040D02*
X101942900Y-77977040D01*
X153035000Y-75437040D02*
X152742900Y-75437040D01*
X150495000Y-75437040D02*
X150202900Y-75437040D01*
X147955000Y-75437040D02*
X147662900Y-75437040D01*
X145415000Y-75437040D02*
X145122900Y-75437040D01*
X142875000Y-75437040D02*
X142582900Y-75437040D01*
X140335000Y-75437040D02*
X140042900Y-75437040D01*
X137795000Y-75437040D02*
X137502900Y-75437040D01*
X135255000Y-75437040D02*
X134962900Y-75437040D01*
X132715000Y-75437040D02*
X132422900Y-75437040D01*
X130175000Y-75437040D02*
X129882900Y-75437040D01*
X125095000Y-75437040D02*
X124802900Y-75437040D01*
X122555000Y-75437040D02*
X122262900Y-75437040D01*
X120015000Y-75437040D02*
X119722900Y-75437040D01*
X117475000Y-75437040D02*
X117182900Y-75437040D01*
X114935000Y-75437040D02*
X114642900Y-75437040D01*
X112395000Y-75437040D02*
X112102900Y-75437040D01*
X109855000Y-75437040D02*
X109562900Y-75437040D01*
X107315000Y-75437040D02*
X107022900Y-75437040D01*
X104775000Y-75437040D02*
X104482900Y-75437040D01*
X102235000Y-75437040D02*
X101942900Y-75437040D01*
X153035000Y-60197040D02*
X152742900Y-60197040D01*
X150495000Y-60197040D02*
X150202900Y-60197040D01*
X147955000Y-60197040D02*
X147662900Y-60197040D01*
X145415000Y-60197040D02*
X145122900Y-60197040D01*
X142875000Y-60197040D02*
X142582900Y-60197040D01*
X140335000Y-60197040D02*
X140042900Y-60197040D01*
X137795000Y-60197040D02*
X137502900Y-60197040D01*
X135255000Y-60197040D02*
X134962900Y-60197040D01*
X132715000Y-60197040D02*
X132422900Y-60197040D01*
X130175000Y-60197040D02*
X129882900Y-60197040D01*
X125095000Y-60197040D02*
X124802900Y-60197040D01*
X122555000Y-60197040D02*
X122262900Y-60197040D01*
X120015000Y-60197040D02*
X119722900Y-60197040D01*
X117475000Y-60197040D02*
X117182900Y-60197040D01*
X114935000Y-60197040D02*
X114642900Y-60197040D01*
X112395000Y-60197040D02*
X112102900Y-60197040D01*
X109855000Y-60197040D02*
X109562900Y-60197040D01*
X107315000Y-60197040D02*
X107022900Y-60197040D01*
X104775000Y-60197040D02*
X104482900Y-60197040D01*
X102235000Y-60197040D02*
X101942900Y-60197040D01*
X153035000Y-57657040D02*
X152742900Y-57657040D01*
X150495000Y-57657040D02*
X150202900Y-57657040D01*
X147955000Y-57657040D02*
X147662900Y-57657040D01*
X145415000Y-57657040D02*
X145122900Y-57657040D01*
X142875000Y-57657040D02*
X142582900Y-57657040D01*
X140335000Y-57657040D02*
X140042900Y-57657040D01*
X137795000Y-57657040D02*
X137502900Y-57657040D01*
X135255000Y-57657040D02*
X134962900Y-57657040D01*
X132715000Y-57657040D02*
X132422900Y-57657040D01*
X130175000Y-57657040D02*
X129882900Y-57657040D01*
X125095000Y-57657040D02*
X124802900Y-57657040D01*
X122555000Y-57657040D02*
X122262900Y-57657040D01*
X120015000Y-57657040D02*
X119722900Y-57657040D01*
X117475000Y-57657040D02*
X117182900Y-57657040D01*
X114935000Y-57657040D02*
X114642900Y-57657040D01*
X112395000Y-57657040D02*
X112102900Y-57657040D01*
X109855000Y-57657040D02*
X109562900Y-57657040D01*
X107315000Y-57657040D02*
X107022900Y-57657040D01*
X104775000Y-57657040D02*
X104482900Y-57657040D01*
X102235000Y-57657040D02*
X101942900Y-57657040D01*
X154165300Y-53996590D02*
X154165300Y-53704490D01*
X151625300Y-53996590D02*
X151625300Y-53704490D01*
X149085300Y-53996590D02*
X149085300Y-53704490D01*
X146545300Y-53996590D02*
X146545300Y-53704490D01*
X144005300Y-53996590D02*
X144005300Y-53704490D01*
X141465300Y-53996590D02*
X141465300Y-53704490D01*
X138925300Y-53996590D02*
X138925300Y-53704490D01*
X136385300Y-53996590D02*
X136385300Y-53704490D01*
X133845300Y-53996590D02*
X133845300Y-53704490D01*
X131305300Y-53996590D02*
X131305300Y-53704490D01*
X128765300Y-53996590D02*
X128765300Y-53704490D01*
X126225300Y-53996590D02*
X126225300Y-53704490D01*
X123685300Y-53996590D02*
X123685300Y-53704490D01*
X121145300Y-53996590D02*
X121145300Y-53704490D01*
X118605300Y-53996590D02*
X118605300Y-53704490D01*
X116065300Y-53996590D02*
X116065300Y-53704490D01*
X113525300Y-53996590D02*
X113525300Y-53704490D01*
X110985300Y-53996590D02*
X110985300Y-53704490D01*
X108445300Y-53996590D02*
X108445300Y-53704490D01*
X105905300Y-53996590D02*
X105905300Y-53704490D01*
X103365300Y-53996590D02*
X103365300Y-53704490D01*
X100825300Y-53996590D02*
X100825300Y-53704490D01*
X154165300Y-48916590D02*
X154165300Y-48624490D01*
X151625300Y-48916590D02*
X151625300Y-48624490D01*
X149085300Y-48916590D02*
X149085300Y-48624490D01*
X146545300Y-48916590D02*
X146545300Y-48624490D01*
X144005300Y-48916590D02*
X144005300Y-48624490D01*
X141465300Y-48916590D02*
X141465300Y-48624490D01*
X138925300Y-48916590D02*
X138925300Y-48624490D01*
X136385300Y-48916590D02*
X136385300Y-48624490D01*
X133845300Y-48916590D02*
X133845300Y-48624490D01*
X131305300Y-48916590D02*
X131305300Y-48624490D01*
X128765300Y-48916590D02*
X128765300Y-48624490D01*
X126225300Y-48916590D02*
X126225300Y-48624490D01*
X123685300Y-48916590D02*
X123685300Y-48624490D01*
X121145300Y-48916590D02*
X121145300Y-48624490D01*
X118605300Y-48916590D02*
X118605300Y-48624490D01*
X116065300Y-48916590D02*
X116065300Y-48624490D01*
X113525300Y-48916590D02*
X113525300Y-48624490D01*
X110985300Y-48916590D02*
X110985300Y-48624490D01*
X108445300Y-48916590D02*
X108445300Y-48624490D01*
X105905300Y-48916590D02*
X105905300Y-48624490D01*
X103365300Y-48916590D02*
X103365300Y-48624490D01*
X100825300Y-48916590D02*
X100825300Y-48624490D01*
X154165300Y-46376590D02*
X154165300Y-46084490D01*
X151625300Y-46376590D02*
X151625300Y-46084490D01*
X149085300Y-46376590D02*
X149085300Y-46084490D01*
X146545300Y-46376590D02*
X146545300Y-46084490D01*
X144005300Y-46376590D02*
X144005300Y-46084490D01*
X141465300Y-46376590D02*
X141465300Y-46084490D01*
X138925300Y-46376590D02*
X138925300Y-46084490D01*
X136385300Y-46376590D02*
X136385300Y-46084490D01*
X133845300Y-46376590D02*
X133845300Y-46084490D01*
X131305300Y-46376590D02*
X131305300Y-46084490D01*
X128765300Y-46376590D02*
X128765300Y-46084490D01*
X126225300Y-46376590D02*
X126225300Y-46084490D01*
X123685300Y-46376590D02*
X123685300Y-46084490D01*
X121145300Y-46376590D02*
X121145300Y-46084490D01*
X118605300Y-46376590D02*
X118605300Y-46084490D01*
X116065300Y-46376590D02*
X116065300Y-46084490D01*
X113525300Y-46376590D02*
X113525300Y-46084490D01*
X110985300Y-46376590D02*
X110985300Y-46084490D01*
X108445300Y-46376590D02*
X108445300Y-46084490D01*
X105905300Y-46376590D02*
X105905300Y-46084490D01*
X103365300Y-46376590D02*
X103365300Y-46084490D01*
X100825300Y-46376590D02*
X100825300Y-46084490D01*
D10*
X157055144Y-71497617D02*
X156255144Y-71497617D01*
X156826573Y-71230950D01*
X156255144Y-70964283D01*
X157055144Y-70964283D01*
X156978954Y-70126188D02*
X157017049Y-70164283D01*
X157055144Y-70278569D01*
X157055144Y-70354760D01*
X157017049Y-70469045D01*
X156940859Y-70545236D01*
X156864668Y-70583331D01*
X156712287Y-70621426D01*
X156598001Y-70621426D01*
X156445620Y-70583331D01*
X156369430Y-70545236D01*
X156293240Y-70469045D01*
X156255144Y-70354760D01*
X156255144Y-70278569D01*
X156293240Y-70164283D01*
X156331335Y-70126188D01*
X156255144Y-69783331D02*
X156902763Y-69783331D01*
X156978954Y-69745236D01*
X157017049Y-69707140D01*
X157055144Y-69630950D01*
X157055144Y-69478569D01*
X157017049Y-69402379D01*
X156978954Y-69364283D01*
X156902763Y-69326188D01*
X156255144Y-69326188D01*
X157055144Y-68335712D02*
X156255144Y-68335712D01*
X156255144Y-68030950D01*
X156293240Y-67954760D01*
X156331335Y-67916664D01*
X156407525Y-67878569D01*
X156521811Y-67878569D01*
X156598001Y-67916664D01*
X156636097Y-67954760D01*
X156674192Y-68030950D01*
X156674192Y-68335712D01*
X157055144Y-67078569D02*
X156674192Y-67345236D01*
X157055144Y-67535712D02*
X156255144Y-67535712D01*
X156255144Y-67230950D01*
X156293240Y-67154760D01*
X156331335Y-67116664D01*
X156407525Y-67078569D01*
X156521811Y-67078569D01*
X156598001Y-67116664D01*
X156636097Y-67154760D01*
X156674192Y-67230950D01*
X156674192Y-67535712D01*
X156255144Y-66583331D02*
X156255144Y-66430950D01*
X156293240Y-66354760D01*
X156369430Y-66278569D01*
X156521811Y-66240474D01*
X156788478Y-66240474D01*
X156940859Y-66278569D01*
X157017049Y-66354760D01*
X157055144Y-66430950D01*
X157055144Y-66583331D01*
X157017049Y-66659521D01*
X156940859Y-66735712D01*
X156788478Y-66773807D01*
X156521811Y-66773807D01*
X156369430Y-66735712D01*
X156293240Y-66659521D01*
X156255144Y-66583331D01*
X156255144Y-66011902D02*
X156255144Y-65554760D01*
X157055144Y-65783331D02*
X156255144Y-65783331D01*
X156255144Y-65135712D02*
X156255144Y-64983331D01*
X156293240Y-64907140D01*
X156369430Y-64830950D01*
X156521811Y-64792855D01*
X156788478Y-64792855D01*
X156940859Y-64830950D01*
X157017049Y-64907140D01*
X157055144Y-64983331D01*
X157055144Y-65135712D01*
X157017049Y-65211902D01*
X156940859Y-65288093D01*
X156788478Y-65326188D01*
X156521811Y-65326188D01*
X156369430Y-65288093D01*
X156293240Y-65211902D01*
X156255144Y-65135712D01*
X157017049Y-63878569D02*
X157055144Y-63764283D01*
X157055144Y-63573807D01*
X157017049Y-63497617D01*
X156978954Y-63459521D01*
X156902763Y-63421426D01*
X156826573Y-63421426D01*
X156750382Y-63459521D01*
X156712287Y-63497617D01*
X156674192Y-63573807D01*
X156636097Y-63726188D01*
X156598001Y-63802379D01*
X156559906Y-63840474D01*
X156483716Y-63878569D01*
X156407525Y-63878569D01*
X156331335Y-63840474D01*
X156293240Y-63802379D01*
X156255144Y-63726188D01*
X156255144Y-63535712D01*
X156293240Y-63421426D01*
X157055144Y-63078569D02*
X156255144Y-63078569D01*
X156255144Y-62773807D01*
X156293240Y-62697617D01*
X156331335Y-62659521D01*
X156407525Y-62621426D01*
X156521811Y-62621426D01*
X156598001Y-62659521D01*
X156636097Y-62697617D01*
X156674192Y-62773807D01*
X156674192Y-63078569D01*
X156255144Y-62126188D02*
X156255144Y-61973807D01*
X156293240Y-61897617D01*
X156369430Y-61821426D01*
X156521811Y-61783331D01*
X156788478Y-61783331D01*
X156940859Y-61821426D01*
X157017049Y-61897617D01*
X157055144Y-61973807D01*
X157055144Y-62126188D01*
X157017049Y-62202379D01*
X156940859Y-62278569D01*
X156788478Y-62316664D01*
X156521811Y-62316664D01*
X156369430Y-62278569D01*
X156293240Y-62202379D01*
X156255144Y-62126188D01*
X157055144Y-60983331D02*
X156674192Y-61249998D01*
X157055144Y-61440474D02*
X156255144Y-61440474D01*
X156255144Y-61135712D01*
X156293240Y-61059521D01*
X156331335Y-61021426D01*
X156407525Y-60983331D01*
X156521811Y-60983331D01*
X156598001Y-61021426D01*
X156636097Y-61059521D01*
X156674192Y-61135712D01*
X156674192Y-61440474D01*
X156255144Y-60754760D02*
X156255144Y-60297617D01*
X157055144Y-60526188D02*
X156255144Y-60526188D01*
X156978954Y-59573807D02*
X157017049Y-59611902D01*
X157055144Y-59726188D01*
X157055144Y-59802379D01*
X157017049Y-59916664D01*
X156940859Y-59992855D01*
X156864668Y-60030950D01*
X156712287Y-60069045D01*
X156598001Y-60069045D01*
X156445620Y-60030950D01*
X156369430Y-59992855D01*
X156293240Y-59916664D01*
X156255144Y-59802379D01*
X156255144Y-59726188D01*
X156293240Y-59611902D01*
X156331335Y-59573807D01*
X156826573Y-59269045D02*
X156826573Y-58888093D01*
X157055144Y-59345236D02*
X156255144Y-59078569D01*
X157055144Y-58811902D01*
X157055144Y-58545236D02*
X156255144Y-58545236D01*
X156826573Y-58278569D01*
X156255144Y-58011902D01*
X157055144Y-58011902D01*
%LPC*%
D12*
X126225300Y-118977040D03*
X100825300Y-88497040D03*
X100825300Y-85957040D03*
X131305300Y-93577040D03*
X108445300Y-121517040D03*
X126225300Y-121517040D03*
X128765300Y-118977040D03*
X100825300Y-91037040D03*
X128765300Y-116437040D03*
X128765300Y-113897040D03*
X128765300Y-111357040D03*
X128765300Y-108817040D03*
X128765300Y-106277040D03*
X128765300Y-103737040D03*
X128765300Y-101197040D03*
X110985300Y-121517040D03*
X113525300Y-121517040D03*
X116065300Y-121517040D03*
X118605300Y-121517040D03*
X121145300Y-121517040D03*
X123685300Y-121517040D03*
X103365300Y-91037040D03*
X105905300Y-91037040D03*
X108445300Y-91037040D03*
X110985300Y-91037040D03*
X113525300Y-91037040D03*
X116065300Y-91037040D03*
X118605300Y-91037040D03*
X121145300Y-91037040D03*
X123685300Y-91037040D03*
X126225300Y-91037040D03*
X128765300Y-91037040D03*
X131305300Y-91037040D03*
X133845300Y-91037040D03*
X136385300Y-91037040D03*
X138925300Y-91037040D03*
X141465300Y-91037040D03*
X144005300Y-91037040D03*
X146545300Y-91037040D03*
X149085300Y-91037040D03*
X151625300Y-91037040D03*
X154165300Y-91037040D03*
X103365300Y-88497040D03*
X105905300Y-88497040D03*
X108445300Y-88497040D03*
X110985300Y-88497040D03*
X113525300Y-88497040D03*
X116065300Y-88497040D03*
X118605300Y-88497040D03*
X121145300Y-88497040D03*
X123685300Y-88497040D03*
X103365300Y-103737040D03*
X123685300Y-103737040D03*
X108445300Y-101197040D03*
X144005300Y-85957040D03*
X146545300Y-85957040D03*
X149085300Y-85957040D03*
X151625300Y-85957040D03*
X154165300Y-85957040D03*
X133845300Y-93577040D03*
X136385300Y-93577040D03*
X118605300Y-116437040D03*
X126225300Y-103737040D03*
X118605300Y-108817040D03*
X126225300Y-88497040D03*
X128765300Y-88497040D03*
X131305300Y-88497040D03*
X133845300Y-88497040D03*
X136385300Y-88497040D03*
X138925300Y-88497040D03*
X141465300Y-88497040D03*
X144005300Y-88497040D03*
X146545300Y-88497040D03*
X149085300Y-88497040D03*
X151625300Y-88497040D03*
X154165300Y-88497040D03*
X103365300Y-85957040D03*
X105905300Y-85957040D03*
X108445300Y-85957040D03*
X116065300Y-101197040D03*
X110985300Y-96117040D03*
X118605300Y-106277040D03*
X113525300Y-103737040D03*
X116065300Y-116437040D03*
X113525300Y-98657040D03*
X121145300Y-108817040D03*
X123685300Y-108817040D03*
X105905300Y-106277040D03*
X108445300Y-116437040D03*
X108445300Y-108817040D03*
X103365300Y-106277040D03*
X105905300Y-116437040D03*
X110985300Y-106277040D03*
X113525300Y-96117040D03*
X128765300Y-93577040D03*
X113525300Y-108817040D03*
X110985300Y-98657040D03*
X110985300Y-108817040D03*
X103365300Y-96117040D03*
X100825300Y-116437040D03*
X121145300Y-96117040D03*
X113525300Y-116437040D03*
X108445300Y-103737040D03*
X105905300Y-96117040D03*
X100825300Y-98657040D03*
X103365300Y-101197040D03*
X116065300Y-108817040D03*
X116065300Y-96117040D03*
X146545300Y-118977040D03*
X103365300Y-108817040D03*
X121145300Y-106277040D03*
X126225300Y-96117040D03*
X103365300Y-116437040D03*
X126225300Y-116437040D03*
X123685300Y-106277040D03*
X121145300Y-116437040D03*
X149085300Y-118977040D03*
X108445300Y-98657040D03*
X100825300Y-108817040D03*
X108445300Y-96117040D03*
X118605300Y-101197040D03*
X103365300Y-118977040D03*
X123685300Y-116437040D03*
X128765300Y-96117040D03*
X105905300Y-108817040D03*
X126225300Y-106277040D03*
X149085300Y-121517040D03*
X146545300Y-121517040D03*
X144005300Y-121517040D03*
X121145300Y-98657040D03*
X141465300Y-121517040D03*
X123685300Y-98657040D03*
X138925300Y-121517040D03*
X118605300Y-98657040D03*
X136385300Y-121517040D03*
X133845300Y-121517040D03*
X128765300Y-85957040D03*
X131305300Y-121517040D03*
X116065300Y-98657040D03*
X154165300Y-118977040D03*
X128765300Y-121517040D03*
X151625300Y-118977040D03*
X154165300Y-121517040D03*
X126225300Y-85957040D03*
X151625300Y-121517040D03*
X105905300Y-103737040D03*
X121145300Y-103737040D03*
X100825300Y-111357040D03*
X113525300Y-111357040D03*
X110985300Y-111357040D03*
X108445300Y-111357040D03*
X105905300Y-111357040D03*
X103365300Y-111357040D03*
X126225300Y-108817040D03*
X116065300Y-111357040D03*
X118605300Y-111357040D03*
X121145300Y-111357040D03*
X123685300Y-111357040D03*
X126225300Y-111357040D03*
X100825300Y-113897040D03*
X103365300Y-113897040D03*
X105905300Y-113897040D03*
X110985300Y-113897040D03*
X113525300Y-113897040D03*
X108445300Y-113897040D03*
X100825300Y-106277040D03*
X113525300Y-106277040D03*
X113525300Y-101197040D03*
X100825300Y-118977040D03*
X103365300Y-98657040D03*
X110985300Y-103737040D03*
X108445300Y-118977040D03*
X123685300Y-96117040D03*
X105905300Y-118977040D03*
X105905300Y-101197040D03*
X121145300Y-101197040D03*
X103365300Y-93577040D03*
X105905300Y-98657040D03*
X110985300Y-101197040D03*
X118605300Y-103737040D03*
X118605300Y-96117040D03*
X110985300Y-116437040D03*
X100825300Y-96117040D03*
X108445300Y-106277040D03*
X144005300Y-111357040D03*
X146545300Y-111357040D03*
X138925300Y-118977040D03*
X141465300Y-118977040D03*
X128765300Y-98657040D03*
X100825300Y-121517040D03*
X103365300Y-121517040D03*
X100825300Y-103737040D03*
X105905300Y-121517040D03*
X100825300Y-101197040D03*
X108445300Y-93577040D03*
X113525300Y-93577040D03*
X116065300Y-93577040D03*
X118605300Y-93577040D03*
X100825300Y-93577040D03*
X121145300Y-93577040D03*
X123685300Y-93577040D03*
X144005300Y-118977040D03*
X126225300Y-93577040D03*
X110985300Y-93577040D03*
X105905300Y-93577040D03*
X146545300Y-116437040D03*
X149085300Y-116437040D03*
X151625300Y-116437040D03*
X154165300Y-116437040D03*
X131305300Y-118977040D03*
X133845300Y-118977040D03*
X136385300Y-118977040D03*
X138925300Y-116437040D03*
X141465300Y-116437040D03*
X146545300Y-113897040D03*
X149085300Y-113897040D03*
X144005300Y-116437040D03*
X151625300Y-113897040D03*
X154165300Y-113897040D03*
X149085300Y-111357040D03*
X151625300Y-111357040D03*
X131305300Y-116437040D03*
X131305300Y-111357040D03*
X133845300Y-111357040D03*
X136385300Y-111357040D03*
X154165300Y-111357040D03*
X131305300Y-113897040D03*
X133845300Y-113897040D03*
X136385300Y-113897040D03*
X144005300Y-113897040D03*
X151625300Y-106277040D03*
X154165300Y-106277040D03*
X131305300Y-108817040D03*
X133845300Y-108817040D03*
X136385300Y-108817040D03*
X138925300Y-111357040D03*
X141465300Y-111357040D03*
X144005300Y-103737040D03*
X146545300Y-103737040D03*
X149085300Y-103737040D03*
X136385300Y-106277040D03*
X138925300Y-106277040D03*
X141465300Y-106277040D03*
X144005300Y-106277040D03*
X146545300Y-106277040D03*
X149085300Y-106277040D03*
X151625300Y-103737040D03*
X154165300Y-103737040D03*
X131305300Y-106277040D03*
X133845300Y-106277040D03*
X151625300Y-101197040D03*
X154165300Y-101197040D03*
X131305300Y-103737040D03*
X133845300Y-103737040D03*
X136385300Y-103737040D03*
X138925300Y-103737040D03*
X141465300Y-103737040D03*
X138925300Y-113897040D03*
X141465300Y-113897040D03*
X131305300Y-101197040D03*
X133845300Y-101197040D03*
X136385300Y-101197040D03*
X138925300Y-101197040D03*
X133845300Y-116437040D03*
X136385300Y-116437040D03*
X141465300Y-101197040D03*
X144005300Y-101197040D03*
X146545300Y-101197040D03*
X149085300Y-101197040D03*
X131305300Y-98657040D03*
X133845300Y-98657040D03*
X136385300Y-98657040D03*
X138925300Y-98657040D03*
X141465300Y-98657040D03*
X151625300Y-108817040D03*
X154165300Y-108817040D03*
X110985300Y-85957040D03*
X113525300Y-85957040D03*
X116065300Y-85957040D03*
X118605300Y-85957040D03*
X121145300Y-85957040D03*
X123685300Y-85957040D03*
X131305300Y-85957040D03*
X133845300Y-85957040D03*
X136385300Y-85957040D03*
X138925300Y-85957040D03*
X141465300Y-85957040D03*
X138925300Y-108817040D03*
X141465300Y-108817040D03*
X123685300Y-101197040D03*
X126225300Y-98657040D03*
X116065300Y-106277040D03*
X123685300Y-113897040D03*
X126225300Y-113897040D03*
X126225300Y-101197040D03*
X144005300Y-108817040D03*
X146545300Y-108817040D03*
X149085300Y-108817040D03*
X144005300Y-98657040D03*
X146545300Y-98657040D03*
X149085300Y-98657040D03*
X151625300Y-98657040D03*
X154165300Y-98657040D03*
X141465300Y-96117040D03*
X144005300Y-96117040D03*
X146545300Y-96117040D03*
X149085300Y-96117040D03*
X151625300Y-96117040D03*
X154165300Y-96117040D03*
X151625300Y-93577040D03*
X154165300Y-93577040D03*
X131305300Y-96117040D03*
X133845300Y-96117040D03*
X136385300Y-96117040D03*
X138925300Y-96117040D03*
X138925300Y-93577040D03*
X141465300Y-93577040D03*
X144005300Y-93577040D03*
X146545300Y-93577040D03*
X149085300Y-93577040D03*
X118605300Y-113897040D03*
X121145300Y-113897040D03*
X116065300Y-113897040D03*
X123685300Y-118977040D03*
X116065300Y-103737040D03*
X121145300Y-118977040D03*
X118605300Y-118977040D03*
X116065300Y-118977040D03*
X113525300Y-118977040D03*
X110985300Y-118977040D03*
X126225300Y-77977040D03*
X123685300Y-77977040D03*
X121145300Y-77977040D03*
X118605300Y-77977040D03*
X116065300Y-77977040D03*
X113525300Y-77977040D03*
X110985300Y-77977040D03*
X108445300Y-77977040D03*
X105905300Y-77977040D03*
X103365300Y-77977040D03*
X100825300Y-77977040D03*
X126225300Y-75437040D03*
X123685300Y-75437040D03*
X121145300Y-75437040D03*
X118605300Y-75437040D03*
X116065300Y-75437040D03*
X113525300Y-75437040D03*
X110985300Y-75437040D03*
X108445300Y-75437040D03*
X105905300Y-75437040D03*
X103365300Y-75437040D03*
X100825300Y-75437040D03*
X126225300Y-72897040D03*
X123685300Y-72897040D03*
X121145300Y-72897040D03*
X118605300Y-72897040D03*
X116065300Y-72897040D03*
X113525300Y-72897040D03*
X110985300Y-72897040D03*
X108445300Y-72897040D03*
X105905300Y-72897040D03*
X103365300Y-72897040D03*
X100825300Y-72897040D03*
X126225300Y-70357040D03*
X123685300Y-70357040D03*
X121145300Y-70357040D03*
X118605300Y-70357040D03*
X116065300Y-70357040D03*
X113525300Y-70357040D03*
X110985300Y-70357040D03*
X108445300Y-70357040D03*
X105905300Y-70357040D03*
X103365300Y-70357040D03*
X100825300Y-70357040D03*
X126225300Y-67817040D03*
X123685300Y-67817040D03*
X121145300Y-67817040D03*
X118605300Y-67817040D03*
X116065300Y-67817040D03*
X113525300Y-67817040D03*
X110985300Y-67817040D03*
X108445300Y-67817040D03*
X105905300Y-67817040D03*
X103365300Y-67817040D03*
X100825300Y-67817040D03*
X126225300Y-65277040D03*
X123685300Y-65277040D03*
X121145300Y-65277040D03*
X118605300Y-65277040D03*
X116065300Y-65277040D03*
X113525300Y-65277040D03*
X110985300Y-65277040D03*
X108445300Y-65277040D03*
X105905300Y-65277040D03*
X103365300Y-65277040D03*
X100825300Y-65277040D03*
X126225300Y-62737040D03*
X123685300Y-62737040D03*
X121145300Y-62737040D03*
X118605300Y-62737040D03*
X116065300Y-62737040D03*
X113525300Y-62737040D03*
X110985300Y-62737040D03*
X108445300Y-62737040D03*
X105905300Y-62737040D03*
X103365300Y-62737040D03*
X100825300Y-62737040D03*
X126225300Y-60197040D03*
X123685300Y-60197040D03*
X121145300Y-60197040D03*
X118605300Y-60197040D03*
X116065300Y-60197040D03*
X113525300Y-60197040D03*
X110985300Y-60197040D03*
X108445300Y-60197040D03*
X105905300Y-60197040D03*
X103365300Y-60197040D03*
X100825300Y-60197040D03*
X105905300Y-80517040D03*
X103365300Y-80517040D03*
X100825300Y-80517040D03*
X128765300Y-57657040D03*
X126225300Y-57657040D03*
X123685300Y-57657040D03*
X121145300Y-57657040D03*
X118605300Y-57657040D03*
X116065300Y-57657040D03*
X113525300Y-57657040D03*
X110985300Y-57657040D03*
X108445300Y-57657040D03*
X105905300Y-57657040D03*
X103365300Y-57657040D03*
X100825300Y-57657040D03*
X128765300Y-55117040D03*
X126225300Y-55117040D03*
X123685300Y-55117040D03*
X121145300Y-55117040D03*
X118605300Y-55117040D03*
X116065300Y-55117040D03*
X113525300Y-55117040D03*
X110985300Y-55117040D03*
X108445300Y-55117040D03*
X105905300Y-55117040D03*
X103365300Y-55117040D03*
X100825300Y-55117040D03*
X128765300Y-52577040D03*
X126225300Y-52577040D03*
X123685300Y-52577040D03*
X121145300Y-52577040D03*
X118605300Y-52577040D03*
X116065300Y-52577040D03*
X113525300Y-52577040D03*
X110985300Y-52577040D03*
X108445300Y-52577040D03*
X105905300Y-52577040D03*
X103365300Y-52577040D03*
X100825300Y-52577040D03*
X128765300Y-80517040D03*
X154165300Y-80517040D03*
X151625300Y-80517040D03*
X149085300Y-80517040D03*
X146545300Y-80517040D03*
X144005300Y-80517040D03*
X141465300Y-80517040D03*
X138925300Y-80517040D03*
X136385300Y-80517040D03*
X133845300Y-80517040D03*
X131305300Y-80517040D03*
X154165300Y-77977040D03*
X151625300Y-77977040D03*
X149085300Y-77977040D03*
X146545300Y-77977040D03*
X144005300Y-77977040D03*
X141465300Y-77977040D03*
X138925300Y-77977040D03*
X136385300Y-77977040D03*
X133845300Y-77977040D03*
X131305300Y-77977040D03*
X154165300Y-75437040D03*
X151625300Y-75437040D03*
X149085300Y-75437040D03*
X146545300Y-75437040D03*
X144005300Y-75437040D03*
X141465300Y-75437040D03*
X138925300Y-75437040D03*
X136385300Y-75437040D03*
X133845300Y-75437040D03*
X131305300Y-75437040D03*
X154165300Y-72897040D03*
X151625300Y-72897040D03*
X149085300Y-72897040D03*
X146545300Y-72897040D03*
X144005300Y-72897040D03*
X141465300Y-72897040D03*
X138925300Y-72897040D03*
X136385300Y-72897040D03*
X133845300Y-72897040D03*
X131305300Y-72897040D03*
X154165300Y-70357040D03*
X151625300Y-70357040D03*
X149085300Y-70357040D03*
X146545300Y-70357040D03*
X144005300Y-70357040D03*
X141465300Y-70357040D03*
X138925300Y-70357040D03*
X136385300Y-70357040D03*
X133845300Y-70357040D03*
X131305300Y-70357040D03*
X154165300Y-67817040D03*
X151625300Y-67817040D03*
X149085300Y-67817040D03*
X146545300Y-67817040D03*
X144005300Y-67817040D03*
X141465300Y-67817040D03*
X138925300Y-67817040D03*
X136385300Y-67817040D03*
X133845300Y-67817040D03*
X131305300Y-67817040D03*
X154165300Y-65277040D03*
X151625300Y-65277040D03*
X149085300Y-65277040D03*
X146545300Y-65277040D03*
X144005300Y-65277040D03*
X141465300Y-65277040D03*
X138925300Y-65277040D03*
X136385300Y-65277040D03*
X133845300Y-65277040D03*
X131305300Y-65277040D03*
X154165300Y-62737040D03*
X151625300Y-62737040D03*
X149085300Y-62737040D03*
X146545300Y-62737040D03*
X144005300Y-62737040D03*
X141465300Y-62737040D03*
X138925300Y-62737040D03*
X136385300Y-62737040D03*
X133845300Y-62737040D03*
X131305300Y-62737040D03*
X154165300Y-60197040D03*
X151625300Y-60197040D03*
X149085300Y-60197040D03*
X146545300Y-60197040D03*
X144005300Y-60197040D03*
X141465300Y-60197040D03*
X138925300Y-60197040D03*
X136385300Y-60197040D03*
X133845300Y-60197040D03*
X131305300Y-60197040D03*
X154165300Y-57657040D03*
X151625300Y-57657040D03*
X149085300Y-57657040D03*
X146545300Y-57657040D03*
X144005300Y-57657040D03*
X141465300Y-57657040D03*
X138925300Y-57657040D03*
X136385300Y-57657040D03*
X133845300Y-57657040D03*
X131305300Y-57657040D03*
X154165300Y-55117040D03*
X151625300Y-55117040D03*
X149085300Y-55117040D03*
X146545300Y-55117040D03*
X144005300Y-55117040D03*
X141465300Y-55117040D03*
X138925300Y-55117040D03*
X136385300Y-55117040D03*
X133845300Y-55117040D03*
X131305300Y-55117040D03*
X154165300Y-52577040D03*
X151625300Y-52577040D03*
X149085300Y-52577040D03*
X146545300Y-52577040D03*
X144005300Y-52577040D03*
X141465300Y-52577040D03*
X138925300Y-52577040D03*
X136385300Y-52577040D03*
X133845300Y-52577040D03*
X154165300Y-44957040D03*
X151625300Y-44957040D03*
X149085300Y-44957040D03*
X146545300Y-44957040D03*
X144005300Y-44957040D03*
X141465300Y-44957040D03*
X138925300Y-44957040D03*
X136385300Y-44957040D03*
X133845300Y-44957040D03*
X131305300Y-44957040D03*
X128765300Y-44957040D03*
X126225300Y-44957040D03*
X123685300Y-44957040D03*
X121145300Y-44957040D03*
X118605300Y-44957040D03*
X116065300Y-44957040D03*
X113525300Y-44957040D03*
X110985300Y-44957040D03*
X108445300Y-44957040D03*
X105905300Y-44957040D03*
X103365300Y-44957040D03*
X154165300Y-47497040D03*
X151625300Y-47497040D03*
X149085300Y-47497040D03*
X146545300Y-47497040D03*
X144005300Y-47497040D03*
X141465300Y-47497040D03*
X138925300Y-47497040D03*
X136385300Y-47497040D03*
X133845300Y-47497040D03*
X131305300Y-47497040D03*
X128765300Y-47497040D03*
X126225300Y-47497040D03*
X123685300Y-47497040D03*
X121145300Y-47497040D03*
X118605300Y-47497040D03*
X116065300Y-47497040D03*
X113525300Y-47497040D03*
X110985300Y-47497040D03*
X108445300Y-47497040D03*
X105905300Y-47497040D03*
X103365300Y-47497040D03*
X154165300Y-50037040D03*
X151625300Y-50037040D03*
X149085300Y-50037040D03*
X146545300Y-50037040D03*
X144005300Y-50037040D03*
X141465300Y-50037040D03*
X138925300Y-50037040D03*
X136385300Y-50037040D03*
X133845300Y-50037040D03*
X131305300Y-50037040D03*
X128765300Y-50037040D03*
X126225300Y-50037040D03*
X123685300Y-50037040D03*
X121145300Y-50037040D03*
X118605300Y-50037040D03*
X116065300Y-50037040D03*
X113525300Y-50037040D03*
X110985300Y-50037040D03*
X108445300Y-50037040D03*
X105905300Y-50037040D03*
X103365300Y-50037040D03*
X123685300Y-80517040D03*
X121145300Y-80517040D03*
X118605300Y-80517040D03*
X116065300Y-80517040D03*
X113525300Y-80517040D03*
X110985300Y-80517040D03*
X128765300Y-60197040D03*
X128765300Y-62737040D03*
X128765300Y-65277040D03*
X128765300Y-67817040D03*
X128765300Y-70357040D03*
X128765300Y-72897040D03*
X128765300Y-75437040D03*
X100825300Y-50037040D03*
X128765300Y-77977040D03*
X126225300Y-80517040D03*
X108445300Y-80517040D03*
X131305300Y-52577040D03*
X100825300Y-44957040D03*
X100825300Y-47497040D03*
M02*
