M48
; DRILL file {KiCad 5.1.5+dfsg1-2build2} date dom 24 jul 2022 21:38:59
; FORMAT={-:-/ absolute / metric / decimal}
; #@! TF.CreationDate,2022-07-24T21:38:59-05:00
; #@! TF.GenerationSoftware,Kicad,Pcbnew,5.1.5+dfsg1-2build2
; #@! TF.FileFunction,Plated,1,2,PTH
FMAT,2
METRIC
T1C1.200
%
G90
G05
T1
X146.545Y-52.577
X144.005Y-55.117
X144.005Y-67.817
X116.065Y-57.657
X138.925Y-50.037
X151.625Y-80.517
X126.225Y-55.117
X108.445Y-67.817
X154.165Y-47.497
X123.685Y-47.497
X128.765Y-62.737
X113.525Y-93.577
X103.365Y-118.977
X151.625Y-91.037
X105.905Y-55.117
X133.845Y-106.277
X113.525Y-101.197
X113.525Y-98.657
X118.605Y-118.977
X116.065Y-85.957
X126.225Y-57.657
X154.165Y-72.897
X151.625Y-75.437
X121.145Y-52.577
X100.825Y-62.737
X103.365Y-72.897
X110.985Y-70.357
X110.985Y-65.277
X136.385Y-52.577
X138.925Y-96.117
X146.545Y-111.357
X126.225Y-96.117
X126.225Y-91.037
X151.625Y-57.657
X136.385Y-57.657
X151.625Y-62.737
X149.085Y-70.357
X103.365Y-77.977
X113.525Y-57.657
X149.085Y-103.737
X110.985Y-101.197
X123.685Y-111.357
X146.545Y-98.657
X149.085Y-101.197
X154.165Y-67.817
X131.305Y-75.437
X138.925Y-75.437
X113.525Y-65.277
X131.305Y-80.517
X105.905Y-67.817
X103.365Y-67.817
X103.365Y-55.117
X103.365Y-65.277
X138.925Y-116.437
X116.065Y-98.657
X123.685Y-121.517
X123.685Y-60.197
X133.845Y-75.437
X138.925Y-72.897
X121.145Y-55.117
X113.525Y-67.817
X144.005Y-113.897
X100.825Y-96.117
X100.825Y-118.977
X100.825Y-111.357
X123.685Y-101.197
X131.305Y-67.817
X151.625Y-93.577
X146.545Y-62.737
X128.765Y-57.657
X118.605Y-62.737
X128.765Y-44.957
X126.225Y-93.577
X144.005Y-121.517
X144.005Y-85.957
X116.065Y-88.497
X100.825Y-72.897
X121.145Y-57.657
X123.685Y-67.817
X131.305Y-47.497
X108.445Y-80.517
X141.465Y-103.737
X149.085Y-111.357
X105.905Y-116.437
X141.465Y-88.497
X118.605Y-108.817
X138.925Y-67.817
X154.165Y-60.197
X108.445Y-47.497
X138.925Y-70.357
X103.365Y-62.737
X105.905Y-50.037
X105.905Y-121.517
X100.825Y-108.817
X144.005Y-91.037
X141.465Y-77.977
X151.625Y-103.737
X108.445Y-113.897
X118.605Y-106.277
X154.165Y-108.817
X105.905Y-75.437
X136.385Y-47.497
X144.005Y-50.037
X128.765Y-77.977
X128.765Y-80.517
X105.905Y-44.957
X110.985Y-80.517
X146.545Y-118.977
X113.525Y-116.437
X118.605Y-91.037
X110.985Y-118.977
X136.385Y-60.197
X108.445Y-70.357
X154.165Y-77.977
X110.985Y-50.037
X141.465Y-111.357
X121.145Y-101.197
X116.065Y-111.357
X146.545Y-108.817
X141.465Y-101.197
X118.605Y-72.897
X100.825Y-70.357
X113.525Y-77.977
X131.305Y-118.977
X133.845Y-121.517
X118.605Y-116.437
X138.925Y-93.577
X100.825Y-91.037
X128.765Y-55.117
X133.845Y-116.437
X131.305Y-113.897
X151.625Y-121.517
X105.905Y-85.957
X141.465Y-85.957
X144.005Y-60.197
X133.845Y-65.277
X100.825Y-67.817
X116.065Y-50.037
X154.165Y-65.277
X110.985Y-62.737
X121.145Y-93.577
X126.225Y-106.277
X108.445Y-88.497
X105.905Y-60.197
X149.085Y-80.517
X133.845Y-103.737
X144.005Y-116.437
X108.445Y-116.437
X133.845Y-88.497
X144.005Y-96.117
X138.925Y-55.117
X146.545Y-57.657
X110.985Y-44.957
X131.305Y-57.657
X146.545Y-65.277
X118.605Y-75.437
X110.985Y-75.437
X126.225Y-67.817
X121.145Y-50.037
X100.825Y-121.517
X121.145Y-116.437
X136.385Y-91.037
X116.065Y-103.737
X154.165Y-70.357
X108.445Y-52.577
X113.525Y-55.117
X144.005Y-106.277
X105.905Y-113.897
X138.925Y-98.657
X128.765Y-101.197
X123.685Y-77.977
X151.625Y-55.117
X136.385Y-70.357
X108.445Y-65.277
X113.525Y-47.497
X103.365Y-101.197
X110.985Y-91.037
X136.385Y-65.277
X133.845Y-108.817
X123.685Y-96.117
X105.905Y-111.357
X126.225Y-113.897
X123.685Y-85.957
X141.465Y-47.497
X149.085Y-50.037
X128.765Y-75.437
X126.225Y-72.897
X136.385Y-62.737
X100.825Y-55.117
X105.905Y-70.357
X118.605Y-47.497
X116.065Y-80.517
X149.085Y-116.437
X154.165Y-118.977
X138.925Y-121.517
X154.165Y-85.957
X103.365Y-103.737
X128.765Y-103.737
X108.445Y-121.517
X113.525Y-70.357
X146.545Y-44.957
X133.845Y-101.197
X133.845Y-111.357
X113.525Y-108.817
X151.625Y-88.497
X133.845Y-85.957
X138.925Y-52.577
X146.545Y-75.437
X121.145Y-60.197
X110.985Y-72.897
X133.845Y-77.977
X146.545Y-47.497
X116.065Y-93.577
X123.685Y-116.437
X154.165Y-91.037
X151.625Y-101.197
X121.145Y-108.817
X126.225Y-88.497
X141.465Y-93.577
X118.605Y-85.957
X151.625Y-52.577
X131.305Y-60.197
X131.305Y-72.897
X118.605Y-57.657
X110.985Y-55.117
X151.625Y-44.957
X128.765Y-106.277
X138.925Y-118.977
X103.365Y-116.437
X103.365Y-96.117
X128.765Y-91.037
X105.905Y-52.577
X118.605Y-55.117
X121.145Y-75.437
X136.385Y-106.277
X118.605Y-103.737
X126.225Y-111.357
X149.085Y-98.657
X131.305Y-98.657
X126.225Y-118.977
X116.065Y-44.957
X116.065Y-75.437
X154.165Y-62.737
X123.685Y-70.357
X123.685Y-57.657
X126.225Y-50.037
X141.465Y-116.437
X108.445Y-103.737
X103.365Y-91.037
X100.825Y-80.517
X151.625Y-106.277
X108.445Y-106.277
X103.365Y-98.657
X113.525Y-111.357
X126.225Y-98.657
X128.765Y-108.817
X123.685Y-72.897
X105.905Y-80.517
X108.445Y-77.977
X151.625Y-98.657
X131.305Y-44.957
X141.465Y-72.897
X154.165Y-80.517
X110.985Y-93.577
X121.145Y-98.657
X146.545Y-85.957
X118.605Y-88.497
X100.825Y-88.497
X118.605Y-52.577
X144.005Y-70.357
X103.365Y-75.437
X121.145Y-67.817
X138.925Y-113.897
X151.625Y-111.357
X110.985Y-106.277
X144.005Y-88.497
X136.385Y-72.897
X121.145Y-65.277
X103.365Y-60.197
X108.445Y-44.957
X154.165Y-50.037
X128.765Y-70.357
X146.545Y-55.117
X146.545Y-67.817
X131.305Y-70.357
X121.145Y-80.517
X100.825Y-101.197
X108.445Y-96.117
X146.545Y-91.037
X128.765Y-111.357
X136.385Y-44.957
X131.305Y-62.737
X103.365Y-80.517
X110.985Y-57.657
X123.685Y-62.737
X154.165Y-103.737
X100.825Y-106.277
X113.525Y-103.737
X110.985Y-85.957
X144.005Y-52.577
X144.005Y-72.897
X136.385Y-50.037
X116.065Y-113.897
X151.625Y-47.497
X128.765Y-65.277
X103.365Y-108.817
X121.145Y-91.037
X144.005Y-93.577
X144.005Y-103.737
X103.365Y-93.577
X118.605Y-111.357
X154.165Y-93.577
X149.085Y-108.817
X144.005Y-101.197
X116.065Y-77.977
X131.305Y-55.117
X138.925Y-57.657
X151.625Y-70.357
X126.225Y-65.277
X100.825Y-75.437
X133.845Y-52.577
X128.765Y-113.897
X141.465Y-75.437
X105.905Y-72.897
X133.845Y-118.977
X128.765Y-85.957
X118.605Y-121.517
X128.765Y-116.437
X154.165Y-75.437
X133.845Y-113.897
X118.605Y-96.117
X105.905Y-103.737
X108.445Y-85.957
X138.925Y-108.817
X121.145Y-44.957
X136.385Y-75.437
X103.365Y-57.657
X113.525Y-62.737
X136.385Y-55.117
X138.925Y-62.737
X133.845Y-67.817
X131.305Y-50.037
X100.825Y-47.497
X123.685Y-93.577
X149.085Y-121.517
X123.685Y-103.737
X110.985Y-88.497
X149.085Y-62.737
X105.905Y-77.977
X113.525Y-75.437
X136.385Y-103.737
X151.625Y-113.897
X108.445Y-108.817
X136.385Y-88.497
X146.545Y-96.117
X121.145Y-70.357
X141.465Y-67.817
X103.365Y-121.517
X149.085Y-118.977
X138.925Y-91.037
X146.545Y-93.577
X141.465Y-70.357
X128.765Y-47.497
X131.305Y-52.577
X146.545Y-106.277
X110.985Y-113.897
X116.065Y-101.197
X141.465Y-98.657
X154.165Y-55.117
X154.165Y-57.657
X116.065Y-70.357
X105.905Y-47.497
X110.985Y-121.517
X103.365Y-50.037
X116.065Y-108.817
X113.525Y-91.037
X126.225Y-60.197
X141.465Y-44.957
X136.385Y-108.817
X105.905Y-118.977
X103.365Y-111.357
X126.225Y-101.197
X121.145Y-77.977
X138.925Y-60.197
X136.385Y-80.517
X141.465Y-50.037
X126.225Y-80.517
X116.065Y-62.737
X138.925Y-65.277
X113.525Y-72.897
X126.225Y-44.957
X100.825Y-57.657
X103.365Y-44.957
X128.765Y-60.197
X151.625Y-116.437
X128.765Y-121.517
X118.605Y-98.657
X133.845Y-93.577
X126.225Y-121.517
X141.465Y-55.117
X100.825Y-60.197
X146.545Y-70.357
X136.385Y-101.197
X136.385Y-111.357
X154.165Y-121.517
X154.165Y-88.497
X136.385Y-85.957
X118.605Y-70.357
X118.605Y-60.197
X131.305Y-96.117
X146.545Y-60.197
X105.905Y-65.277
X126.225Y-62.737
X118.605Y-93.577
X128.765Y-96.117
X103.365Y-88.497
X151.625Y-72.897
X149.085Y-75.437
X154.165Y-101.197
X110.985Y-98.657
X123.685Y-108.817
X128.765Y-88.497
X154.165Y-98.657
X123.685Y-55.117
X116.065Y-60.197
X113.525Y-50.037
X149.085Y-57.657
X133.845Y-57.657
X149.085Y-65.277
X113.525Y-60.197
X108.445Y-57.657
X141.465Y-118.977
X126.225Y-116.437
X100.825Y-116.437
X131.305Y-91.037
X151.625Y-67.817
X108.445Y-72.897
X138.925Y-106.277
X100.825Y-113.897
X133.845Y-98.657
X108.445Y-62.737
X149.085Y-96.117
X146.545Y-113.897
X105.905Y-96.117
X105.905Y-91.037
X123.685Y-44.957
X105.905Y-57.657
X133.845Y-47.497
X154.165Y-106.277
X110.985Y-103.737
X110.985Y-111.357
X149.085Y-93.577
X116.065Y-106.277
X149.085Y-113.897
X144.005Y-62.737
X136.385Y-77.977
X105.905Y-62.737
X118.605Y-65.277
X110.985Y-47.497
X126.225Y-52.577
X108.445Y-50.037
X105.905Y-93.577
X141.465Y-121.517
X149.085Y-85.957
X121.145Y-88.497
X100.825Y-85.957
X151.625Y-60.197
X116.065Y-52.577
X126.225Y-75.437
X141.465Y-113.897
X131.305Y-116.437
X113.525Y-96.117
X146.545Y-88.497
X116.065Y-65.277
X146.545Y-77.977
X138.925Y-47.497
X146.545Y-50.037
X100.825Y-50.037
X138.925Y-77.977
X110.985Y-60.197
X116.065Y-47.497
X113.525Y-80.517
X108.445Y-93.577
X118.605Y-101.197
X149.085Y-91.037
X116.065Y-55.117
X144.005Y-44.957
X131.305Y-106.277
X113.525Y-106.277
X116.065Y-116.437
X113.525Y-85.957
X149.085Y-67.817
X146.545Y-80.517
X121.145Y-118.977
X133.845Y-60.197
X144.005Y-111.357
X121.145Y-106.277
X123.685Y-91.037
X133.845Y-96.117
X146.545Y-103.737
X105.905Y-98.657
X121.145Y-111.357
X144.005Y-98.657
X146.545Y-101.197
X149.085Y-44.957
X118.605Y-50.037
X136.385Y-118.977
X131.305Y-121.517
X121.145Y-121.517
X141.465Y-57.657
X141.465Y-60.197
X131.305Y-65.277
X100.825Y-65.277
X136.385Y-113.897
X110.985Y-116.437
X121.145Y-103.737
X141.465Y-108.817
X113.525Y-44.957
X151.625Y-65.277
X133.845Y-80.517
X149.085Y-52.577
X116.065Y-67.817
X123.685Y-50.037
X144.005Y-118.977
X146.545Y-121.517
X108.445Y-101.197
X113.525Y-88.497
X151.625Y-96.117
X144.005Y-57.657
X144.005Y-65.277
X138.925Y-103.737
X154.165Y-113.897
X103.365Y-106.277
X138.925Y-88.497
X126.225Y-103.737
X144.005Y-77.977
X100.825Y-52.577
X118.605Y-113.897
X108.445Y-55.117
X100.825Y-103.737
X108.445Y-98.657
X141.465Y-91.037
X113.525Y-118.977
X116.065Y-121.517
X149.085Y-55.117
X133.845Y-70.357
X123.685Y-52.577
X149.085Y-77.977
X110.985Y-67.817
X149.085Y-106.277
X113.525Y-113.897
X110.985Y-96.117
X151.625Y-108.817
X144.005Y-47.497
X151.625Y-50.037
X128.765Y-72.897
X100.825Y-77.977
X121.145Y-47.497
X118.605Y-80.517
X116.065Y-96.117
X121.145Y-96.117
X116.065Y-91.037
X113.525Y-121.517
X138.925Y-80.517
X138.925Y-111.357
X105.905Y-101.197
X126.225Y-108.817
X144.005Y-108.817
X136.385Y-116.437
X116.065Y-118.977
X121.145Y-72.897
X141.465Y-52.577
X103.365Y-52.577
X133.845Y-50.037
X146.545Y-72.897
X131.305Y-77.977
X151.625Y-77.977
X123.685Y-65.277
X149.085Y-47.497
X128.765Y-67.817
X154.165Y-116.437
X151.625Y-118.977
X136.385Y-121.517
X136.385Y-93.577
X128.765Y-118.977
X103.365Y-70.357
X126.225Y-77.977
X138.925Y-101.197
X154.165Y-111.357
X126.225Y-85.957
X103.365Y-85.957
X136.385Y-96.117
X138.925Y-85.957
X154.165Y-52.577
X118.605Y-67.817
X154.165Y-44.957
X121.145Y-62.737
X108.445Y-60.197
X100.825Y-93.577
X105.905Y-108.817
X105.905Y-88.497
X141.465Y-62.737
X136.385Y-67.817
X131.305Y-103.737
X110.985Y-108.817
X105.905Y-106.277
X131.305Y-88.497
X141.465Y-96.117
X118.605Y-44.957
X149.085Y-60.197
X133.845Y-55.117
X141.465Y-80.517
X128.765Y-50.037
X128.765Y-98.657
X123.685Y-106.277
X133.845Y-91.037
X118.605Y-77.977
X110.985Y-52.577
X141.465Y-106.277
X103.365Y-113.897
X154.165Y-96.117
X136.385Y-98.657
X128.765Y-52.577
X133.845Y-44.957
X126.225Y-70.357
X123.685Y-75.437
X100.825Y-98.657
X108.445Y-91.037
X121.145Y-113.897
X113.525Y-52.577
X126.225Y-47.497
X100.825Y-44.957
X131.305Y-108.817
X108.445Y-118.977
X108.445Y-111.357
X123.685Y-118.977
X123.685Y-113.897
X121.145Y-85.957
X110.985Y-77.977
X116.065Y-72.897
X133.845Y-62.737
X141.465Y-65.277
X144.005Y-75.437
X144.005Y-80.517
X103.365Y-47.497
X149.085Y-72.897
X108.445Y-75.437
X123.685Y-80.517
X146.545Y-116.437
X123.685Y-98.657
X151.625Y-85.957
X123.685Y-88.497
X131.305Y-93.577
X138.925Y-44.957
X133.845Y-72.897
X131.305Y-101.197
X131.305Y-111.357
X128.765Y-93.577
X149.085Y-88.497
X131.305Y-85.957
T0
M30
