G04 #@! TF.GenerationSoftware,KiCad,Pcbnew,5.1.5+dfsg1-2build2*
G04 #@! TF.CreationDate,2022-07-24T21:39:07-05:00*
G04 #@! TF.ProjectId,,58585858-5858-4585-9858-585858585858,rev?*
G04 #@! TF.SameCoordinates,Original*
G04 #@! TF.FileFunction,Legend,Bot*
G04 #@! TF.FilePolarity,Positive*
%FSLAX46Y46*%
G04 Gerber Fmt 4.6, Leading zero omitted, Abs format (unit mm)*
G04 Created by KiCad (PCBNEW 5.1.5+dfsg1-2build2) date 2022-07-24 21:39:07*
%MOMM*%
%LPD*%
G04 APERTURE LIST*
%ADD10C,0.150000*%
%ADD11C,2.102000*%
G04 APERTURE END LIST*
D10*
X156239255Y-113127537D02*
X157039255Y-113127537D01*
X156467826Y-112860870D01*
X157039255Y-112594203D01*
X156239255Y-112594203D01*
X156315445Y-111756108D02*
X156277350Y-111794203D01*
X156239255Y-111908489D01*
X156239255Y-111984680D01*
X156277350Y-112098965D01*
X156353540Y-112175156D01*
X156429731Y-112213251D01*
X156582112Y-112251346D01*
X156696398Y-112251346D01*
X156848779Y-112213251D01*
X156924969Y-112175156D01*
X157001160Y-112098965D01*
X157039255Y-111984680D01*
X157039255Y-111908489D01*
X157001160Y-111794203D01*
X156963064Y-111756108D01*
X157039255Y-111413251D02*
X156391636Y-111413251D01*
X156315445Y-111375156D01*
X156277350Y-111337060D01*
X156239255Y-111260870D01*
X156239255Y-111108489D01*
X156277350Y-111032299D01*
X156315445Y-110994203D01*
X156391636Y-110956108D01*
X157039255Y-110956108D01*
X156239255Y-109965632D02*
X157039255Y-109965632D01*
X157039255Y-109660870D01*
X157001160Y-109584680D01*
X156963064Y-109546584D01*
X156886874Y-109508489D01*
X156772588Y-109508489D01*
X156696398Y-109546584D01*
X156658302Y-109584680D01*
X156620207Y-109660870D01*
X156620207Y-109965632D01*
X156239255Y-108708489D02*
X156620207Y-108975156D01*
X156239255Y-109165632D02*
X157039255Y-109165632D01*
X157039255Y-108860870D01*
X157001160Y-108784680D01*
X156963064Y-108746584D01*
X156886874Y-108708489D01*
X156772588Y-108708489D01*
X156696398Y-108746584D01*
X156658302Y-108784680D01*
X156620207Y-108860870D01*
X156620207Y-109165632D01*
X157039255Y-108213251D02*
X157039255Y-108060870D01*
X157001160Y-107984680D01*
X156924969Y-107908489D01*
X156772588Y-107870394D01*
X156505921Y-107870394D01*
X156353540Y-107908489D01*
X156277350Y-107984680D01*
X156239255Y-108060870D01*
X156239255Y-108213251D01*
X156277350Y-108289441D01*
X156353540Y-108365632D01*
X156505921Y-108403727D01*
X156772588Y-108403727D01*
X156924969Y-108365632D01*
X157001160Y-108289441D01*
X157039255Y-108213251D01*
X157039255Y-107641822D02*
X157039255Y-107184680D01*
X156239255Y-107413251D02*
X157039255Y-107413251D01*
X157039255Y-106765632D02*
X157039255Y-106613251D01*
X157001160Y-106537060D01*
X156924969Y-106460870D01*
X156772588Y-106422775D01*
X156505921Y-106422775D01*
X156353540Y-106460870D01*
X156277350Y-106537060D01*
X156239255Y-106613251D01*
X156239255Y-106765632D01*
X156277350Y-106841822D01*
X156353540Y-106918013D01*
X156505921Y-106956108D01*
X156772588Y-106956108D01*
X156924969Y-106918013D01*
X157001160Y-106841822D01*
X157039255Y-106765632D01*
X156277350Y-105508489D02*
X156239255Y-105394203D01*
X156239255Y-105203727D01*
X156277350Y-105127537D01*
X156315445Y-105089441D01*
X156391636Y-105051346D01*
X156467826Y-105051346D01*
X156544017Y-105089441D01*
X156582112Y-105127537D01*
X156620207Y-105203727D01*
X156658302Y-105356108D01*
X156696398Y-105432299D01*
X156734493Y-105470394D01*
X156810683Y-105508489D01*
X156886874Y-105508489D01*
X156963064Y-105470394D01*
X157001160Y-105432299D01*
X157039255Y-105356108D01*
X157039255Y-105165632D01*
X157001160Y-105051346D01*
X156239255Y-104708489D02*
X157039255Y-104708489D01*
X157039255Y-104403727D01*
X157001160Y-104327537D01*
X156963064Y-104289441D01*
X156886874Y-104251346D01*
X156772588Y-104251346D01*
X156696398Y-104289441D01*
X156658302Y-104327537D01*
X156620207Y-104403727D01*
X156620207Y-104708489D01*
X157039255Y-103756108D02*
X157039255Y-103603727D01*
X157001160Y-103527537D01*
X156924969Y-103451346D01*
X156772588Y-103413251D01*
X156505921Y-103413251D01*
X156353540Y-103451346D01*
X156277350Y-103527537D01*
X156239255Y-103603727D01*
X156239255Y-103756108D01*
X156277350Y-103832299D01*
X156353540Y-103908489D01*
X156505921Y-103946584D01*
X156772588Y-103946584D01*
X156924969Y-103908489D01*
X157001160Y-103832299D01*
X157039255Y-103756108D01*
X156239255Y-102613251D02*
X156620207Y-102879918D01*
X156239255Y-103070394D02*
X157039255Y-103070394D01*
X157039255Y-102765632D01*
X157001160Y-102689441D01*
X156963064Y-102651346D01*
X156886874Y-102613251D01*
X156772588Y-102613251D01*
X156696398Y-102651346D01*
X156658302Y-102689441D01*
X156620207Y-102765632D01*
X156620207Y-103070394D01*
X157039255Y-102384680D02*
X157039255Y-101927537D01*
X156239255Y-102156108D02*
X157039255Y-102156108D01*
X156315445Y-101203727D02*
X156277350Y-101241822D01*
X156239255Y-101356108D01*
X156239255Y-101432299D01*
X156277350Y-101546584D01*
X156353540Y-101622775D01*
X156429731Y-101660870D01*
X156582112Y-101698965D01*
X156696398Y-101698965D01*
X156848779Y-101660870D01*
X156924969Y-101622775D01*
X157001160Y-101546584D01*
X157039255Y-101432299D01*
X157039255Y-101356108D01*
X157001160Y-101241822D01*
X156963064Y-101203727D01*
X156467826Y-100898965D02*
X156467826Y-100518013D01*
X156239255Y-100975156D02*
X157039255Y-100708489D01*
X156239255Y-100441822D01*
X156239255Y-100175156D02*
X157039255Y-100175156D01*
X156467826Y-99908489D01*
X157039255Y-99641822D01*
X156239255Y-99641822D01*
X156239255Y-72127537D02*
X157039255Y-72127537D01*
X156467826Y-71860870D01*
X157039255Y-71594203D01*
X156239255Y-71594203D01*
X156315445Y-70756108D02*
X156277350Y-70794203D01*
X156239255Y-70908489D01*
X156239255Y-70984680D01*
X156277350Y-71098965D01*
X156353540Y-71175156D01*
X156429731Y-71213251D01*
X156582112Y-71251346D01*
X156696398Y-71251346D01*
X156848779Y-71213251D01*
X156924969Y-71175156D01*
X157001160Y-71098965D01*
X157039255Y-70984680D01*
X157039255Y-70908489D01*
X157001160Y-70794203D01*
X156963064Y-70756108D01*
X157039255Y-70413251D02*
X156391636Y-70413251D01*
X156315445Y-70375156D01*
X156277350Y-70337060D01*
X156239255Y-70260870D01*
X156239255Y-70108489D01*
X156277350Y-70032299D01*
X156315445Y-69994203D01*
X156391636Y-69956108D01*
X157039255Y-69956108D01*
X156239255Y-68965632D02*
X157039255Y-68965632D01*
X157039255Y-68660870D01*
X157001160Y-68584680D01*
X156963064Y-68546584D01*
X156886874Y-68508489D01*
X156772588Y-68508489D01*
X156696398Y-68546584D01*
X156658302Y-68584680D01*
X156620207Y-68660870D01*
X156620207Y-68965632D01*
X156239255Y-67708489D02*
X156620207Y-67975156D01*
X156239255Y-68165632D02*
X157039255Y-68165632D01*
X157039255Y-67860870D01*
X157001160Y-67784680D01*
X156963064Y-67746584D01*
X156886874Y-67708489D01*
X156772588Y-67708489D01*
X156696398Y-67746584D01*
X156658302Y-67784680D01*
X156620207Y-67860870D01*
X156620207Y-68165632D01*
X157039255Y-67213251D02*
X157039255Y-67060870D01*
X157001160Y-66984680D01*
X156924969Y-66908489D01*
X156772588Y-66870394D01*
X156505921Y-66870394D01*
X156353540Y-66908489D01*
X156277350Y-66984680D01*
X156239255Y-67060870D01*
X156239255Y-67213251D01*
X156277350Y-67289441D01*
X156353540Y-67365632D01*
X156505921Y-67403727D01*
X156772588Y-67403727D01*
X156924969Y-67365632D01*
X157001160Y-67289441D01*
X157039255Y-67213251D01*
X157039255Y-66641822D02*
X157039255Y-66184680D01*
X156239255Y-66413251D02*
X157039255Y-66413251D01*
X157039255Y-65765632D02*
X157039255Y-65613251D01*
X157001160Y-65537060D01*
X156924969Y-65460870D01*
X156772588Y-65422775D01*
X156505921Y-65422775D01*
X156353540Y-65460870D01*
X156277350Y-65537060D01*
X156239255Y-65613251D01*
X156239255Y-65765632D01*
X156277350Y-65841822D01*
X156353540Y-65918013D01*
X156505921Y-65956108D01*
X156772588Y-65956108D01*
X156924969Y-65918013D01*
X157001160Y-65841822D01*
X157039255Y-65765632D01*
X156277350Y-64508489D02*
X156239255Y-64394203D01*
X156239255Y-64203727D01*
X156277350Y-64127537D01*
X156315445Y-64089441D01*
X156391636Y-64051346D01*
X156467826Y-64051346D01*
X156544017Y-64089441D01*
X156582112Y-64127537D01*
X156620207Y-64203727D01*
X156658302Y-64356108D01*
X156696398Y-64432299D01*
X156734493Y-64470394D01*
X156810683Y-64508489D01*
X156886874Y-64508489D01*
X156963064Y-64470394D01*
X157001160Y-64432299D01*
X157039255Y-64356108D01*
X157039255Y-64165632D01*
X157001160Y-64051346D01*
X156239255Y-63708489D02*
X157039255Y-63708489D01*
X157039255Y-63403727D01*
X157001160Y-63327537D01*
X156963064Y-63289441D01*
X156886874Y-63251346D01*
X156772588Y-63251346D01*
X156696398Y-63289441D01*
X156658302Y-63327537D01*
X156620207Y-63403727D01*
X156620207Y-63708489D01*
X157039255Y-62756108D02*
X157039255Y-62603727D01*
X157001160Y-62527537D01*
X156924969Y-62451346D01*
X156772588Y-62413251D01*
X156505921Y-62413251D01*
X156353540Y-62451346D01*
X156277350Y-62527537D01*
X156239255Y-62603727D01*
X156239255Y-62756108D01*
X156277350Y-62832299D01*
X156353540Y-62908489D01*
X156505921Y-62946584D01*
X156772588Y-62946584D01*
X156924969Y-62908489D01*
X157001160Y-62832299D01*
X157039255Y-62756108D01*
X156239255Y-61613251D02*
X156620207Y-61879918D01*
X156239255Y-62070394D02*
X157039255Y-62070394D01*
X157039255Y-61765632D01*
X157001160Y-61689441D01*
X156963064Y-61651346D01*
X156886874Y-61613251D01*
X156772588Y-61613251D01*
X156696398Y-61651346D01*
X156658302Y-61689441D01*
X156620207Y-61765632D01*
X156620207Y-62070394D01*
X157039255Y-61384680D02*
X157039255Y-60927537D01*
X156239255Y-61156108D02*
X157039255Y-61156108D01*
X156315445Y-60203727D02*
X156277350Y-60241822D01*
X156239255Y-60356108D01*
X156239255Y-60432299D01*
X156277350Y-60546584D01*
X156353540Y-60622775D01*
X156429731Y-60660870D01*
X156582112Y-60698965D01*
X156696398Y-60698965D01*
X156848779Y-60660870D01*
X156924969Y-60622775D01*
X157001160Y-60546584D01*
X157039255Y-60432299D01*
X157039255Y-60356108D01*
X157001160Y-60241822D01*
X156963064Y-60203727D01*
X156467826Y-59898965D02*
X156467826Y-59518013D01*
X156239255Y-59975156D02*
X157039255Y-59708489D01*
X156239255Y-59441822D01*
X156239255Y-59175156D02*
X157039255Y-59175156D01*
X156467826Y-58908489D01*
X157039255Y-58641822D01*
X156239255Y-58641822D01*
%LPC*%
D11*
X126225300Y-118977040D03*
X100825300Y-88497040D03*
X100825300Y-85957040D03*
X131305300Y-93577040D03*
X108445300Y-121517040D03*
X126225300Y-121517040D03*
X128765300Y-118977040D03*
X100825300Y-91037040D03*
X128765300Y-116437040D03*
X128765300Y-113897040D03*
X128765300Y-111357040D03*
X128765300Y-108817040D03*
X128765300Y-106277040D03*
X128765300Y-103737040D03*
X128765300Y-101197040D03*
X110985300Y-121517040D03*
X113525300Y-121517040D03*
X116065300Y-121517040D03*
X118605300Y-121517040D03*
X121145300Y-121517040D03*
X123685300Y-121517040D03*
X103365300Y-91037040D03*
X105905300Y-91037040D03*
X108445300Y-91037040D03*
X110985300Y-91037040D03*
X113525300Y-91037040D03*
X116065300Y-91037040D03*
X118605300Y-91037040D03*
X121145300Y-91037040D03*
X123685300Y-91037040D03*
X126225300Y-91037040D03*
X128765300Y-91037040D03*
X131305300Y-91037040D03*
X133845300Y-91037040D03*
X136385300Y-91037040D03*
X138925300Y-91037040D03*
X141465300Y-91037040D03*
X144005300Y-91037040D03*
X146545300Y-91037040D03*
X149085300Y-91037040D03*
X151625300Y-91037040D03*
X154165300Y-91037040D03*
X103365300Y-88497040D03*
X105905300Y-88497040D03*
X108445300Y-88497040D03*
X110985300Y-88497040D03*
X113525300Y-88497040D03*
X116065300Y-88497040D03*
X118605300Y-88497040D03*
X121145300Y-88497040D03*
X123685300Y-88497040D03*
X103365300Y-103737040D03*
X123685300Y-103737040D03*
X108445300Y-101197040D03*
X144005300Y-85957040D03*
X146545300Y-85957040D03*
X149085300Y-85957040D03*
X151625300Y-85957040D03*
X154165300Y-85957040D03*
X133845300Y-93577040D03*
X136385300Y-93577040D03*
X118605300Y-116437040D03*
X126225300Y-103737040D03*
X118605300Y-108817040D03*
X126225300Y-88497040D03*
X128765300Y-88497040D03*
X131305300Y-88497040D03*
X133845300Y-88497040D03*
X136385300Y-88497040D03*
X138925300Y-88497040D03*
X141465300Y-88497040D03*
X144005300Y-88497040D03*
X146545300Y-88497040D03*
X149085300Y-88497040D03*
X151625300Y-88497040D03*
X154165300Y-88497040D03*
X103365300Y-85957040D03*
X105905300Y-85957040D03*
X108445300Y-85957040D03*
X116065300Y-101197040D03*
X110985300Y-96117040D03*
X118605300Y-106277040D03*
X113525300Y-103737040D03*
X116065300Y-116437040D03*
X113525300Y-98657040D03*
X121145300Y-108817040D03*
X123685300Y-108817040D03*
X105905300Y-106277040D03*
X108445300Y-116437040D03*
X108445300Y-108817040D03*
X103365300Y-106277040D03*
X105905300Y-116437040D03*
X110985300Y-106277040D03*
X113525300Y-96117040D03*
X128765300Y-93577040D03*
X113525300Y-108817040D03*
X110985300Y-98657040D03*
X110985300Y-108817040D03*
X103365300Y-96117040D03*
X100825300Y-116437040D03*
X121145300Y-96117040D03*
X113525300Y-116437040D03*
X108445300Y-103737040D03*
X105905300Y-96117040D03*
X100825300Y-98657040D03*
X103365300Y-101197040D03*
X116065300Y-108817040D03*
X116065300Y-96117040D03*
X146545300Y-118977040D03*
X103365300Y-108817040D03*
X121145300Y-106277040D03*
X126225300Y-96117040D03*
X103365300Y-116437040D03*
X126225300Y-116437040D03*
X123685300Y-106277040D03*
X121145300Y-116437040D03*
X149085300Y-118977040D03*
X108445300Y-98657040D03*
X100825300Y-108817040D03*
X108445300Y-96117040D03*
X118605300Y-101197040D03*
X103365300Y-118977040D03*
X123685300Y-116437040D03*
X128765300Y-96117040D03*
X105905300Y-108817040D03*
X126225300Y-106277040D03*
X149085300Y-121517040D03*
X146545300Y-121517040D03*
X144005300Y-121517040D03*
X121145300Y-98657040D03*
X141465300Y-121517040D03*
X123685300Y-98657040D03*
X138925300Y-121517040D03*
X118605300Y-98657040D03*
X136385300Y-121517040D03*
X133845300Y-121517040D03*
X128765300Y-85957040D03*
X131305300Y-121517040D03*
X116065300Y-98657040D03*
X154165300Y-118977040D03*
X128765300Y-121517040D03*
X151625300Y-118977040D03*
X154165300Y-121517040D03*
X126225300Y-85957040D03*
X151625300Y-121517040D03*
X105905300Y-103737040D03*
X121145300Y-103737040D03*
X100825300Y-111357040D03*
X113525300Y-111357040D03*
X110985300Y-111357040D03*
X108445300Y-111357040D03*
X105905300Y-111357040D03*
X103365300Y-111357040D03*
X126225300Y-108817040D03*
X116065300Y-111357040D03*
X118605300Y-111357040D03*
X121145300Y-111357040D03*
X123685300Y-111357040D03*
X126225300Y-111357040D03*
X100825300Y-113897040D03*
X103365300Y-113897040D03*
X105905300Y-113897040D03*
X110985300Y-113897040D03*
X113525300Y-113897040D03*
X108445300Y-113897040D03*
X100825300Y-106277040D03*
X113525300Y-106277040D03*
X113525300Y-101197040D03*
X100825300Y-118977040D03*
X103365300Y-98657040D03*
X110985300Y-103737040D03*
X108445300Y-118977040D03*
X123685300Y-96117040D03*
X105905300Y-118977040D03*
X105905300Y-101197040D03*
X121145300Y-101197040D03*
X103365300Y-93577040D03*
X105905300Y-98657040D03*
X110985300Y-101197040D03*
X118605300Y-103737040D03*
X118605300Y-96117040D03*
X110985300Y-116437040D03*
X100825300Y-96117040D03*
X108445300Y-106277040D03*
X144005300Y-111357040D03*
X146545300Y-111357040D03*
X138925300Y-118977040D03*
X141465300Y-118977040D03*
X128765300Y-98657040D03*
X100825300Y-121517040D03*
X103365300Y-121517040D03*
X100825300Y-103737040D03*
X105905300Y-121517040D03*
X100825300Y-101197040D03*
X108445300Y-93577040D03*
X113525300Y-93577040D03*
X116065300Y-93577040D03*
X118605300Y-93577040D03*
X100825300Y-93577040D03*
X121145300Y-93577040D03*
X123685300Y-93577040D03*
X144005300Y-118977040D03*
X126225300Y-93577040D03*
X110985300Y-93577040D03*
X105905300Y-93577040D03*
X146545300Y-116437040D03*
X149085300Y-116437040D03*
X151625300Y-116437040D03*
X154165300Y-116437040D03*
X131305300Y-118977040D03*
X133845300Y-118977040D03*
X136385300Y-118977040D03*
X138925300Y-116437040D03*
X141465300Y-116437040D03*
X146545300Y-113897040D03*
X149085300Y-113897040D03*
X144005300Y-116437040D03*
X151625300Y-113897040D03*
X154165300Y-113897040D03*
X149085300Y-111357040D03*
X151625300Y-111357040D03*
X131305300Y-116437040D03*
X131305300Y-111357040D03*
X133845300Y-111357040D03*
X136385300Y-111357040D03*
X154165300Y-111357040D03*
X131305300Y-113897040D03*
X133845300Y-113897040D03*
X136385300Y-113897040D03*
X144005300Y-113897040D03*
X151625300Y-106277040D03*
X154165300Y-106277040D03*
X131305300Y-108817040D03*
X133845300Y-108817040D03*
X136385300Y-108817040D03*
X138925300Y-111357040D03*
X141465300Y-111357040D03*
X144005300Y-103737040D03*
X146545300Y-103737040D03*
X149085300Y-103737040D03*
X136385300Y-106277040D03*
X138925300Y-106277040D03*
X141465300Y-106277040D03*
X144005300Y-106277040D03*
X146545300Y-106277040D03*
X149085300Y-106277040D03*
X151625300Y-103737040D03*
X154165300Y-103737040D03*
X131305300Y-106277040D03*
X133845300Y-106277040D03*
X151625300Y-101197040D03*
X154165300Y-101197040D03*
X131305300Y-103737040D03*
X133845300Y-103737040D03*
X136385300Y-103737040D03*
X138925300Y-103737040D03*
X141465300Y-103737040D03*
X138925300Y-113897040D03*
X141465300Y-113897040D03*
X131305300Y-101197040D03*
X133845300Y-101197040D03*
X136385300Y-101197040D03*
X138925300Y-101197040D03*
X133845300Y-116437040D03*
X136385300Y-116437040D03*
X141465300Y-101197040D03*
X144005300Y-101197040D03*
X146545300Y-101197040D03*
X149085300Y-101197040D03*
X131305300Y-98657040D03*
X133845300Y-98657040D03*
X136385300Y-98657040D03*
X138925300Y-98657040D03*
X141465300Y-98657040D03*
X151625300Y-108817040D03*
X154165300Y-108817040D03*
X110985300Y-85957040D03*
X113525300Y-85957040D03*
X116065300Y-85957040D03*
X118605300Y-85957040D03*
X121145300Y-85957040D03*
X123685300Y-85957040D03*
X131305300Y-85957040D03*
X133845300Y-85957040D03*
X136385300Y-85957040D03*
X138925300Y-85957040D03*
X141465300Y-85957040D03*
X138925300Y-108817040D03*
X141465300Y-108817040D03*
X123685300Y-101197040D03*
X126225300Y-98657040D03*
X116065300Y-106277040D03*
X123685300Y-113897040D03*
X126225300Y-113897040D03*
X126225300Y-101197040D03*
X144005300Y-108817040D03*
X146545300Y-108817040D03*
X149085300Y-108817040D03*
X144005300Y-98657040D03*
X146545300Y-98657040D03*
X149085300Y-98657040D03*
X151625300Y-98657040D03*
X154165300Y-98657040D03*
X141465300Y-96117040D03*
X144005300Y-96117040D03*
X146545300Y-96117040D03*
X149085300Y-96117040D03*
X151625300Y-96117040D03*
X154165300Y-96117040D03*
X151625300Y-93577040D03*
X154165300Y-93577040D03*
X131305300Y-96117040D03*
X133845300Y-96117040D03*
X136385300Y-96117040D03*
X138925300Y-96117040D03*
X138925300Y-93577040D03*
X141465300Y-93577040D03*
X144005300Y-93577040D03*
X146545300Y-93577040D03*
X149085300Y-93577040D03*
X118605300Y-113897040D03*
X121145300Y-113897040D03*
X116065300Y-113897040D03*
X123685300Y-118977040D03*
X116065300Y-103737040D03*
X121145300Y-118977040D03*
X118605300Y-118977040D03*
X116065300Y-118977040D03*
X113525300Y-118977040D03*
X110985300Y-118977040D03*
X126225300Y-77977040D03*
X123685300Y-77977040D03*
X121145300Y-77977040D03*
X118605300Y-77977040D03*
X116065300Y-77977040D03*
X113525300Y-77977040D03*
X110985300Y-77977040D03*
X108445300Y-77977040D03*
X105905300Y-77977040D03*
X103365300Y-77977040D03*
X100825300Y-77977040D03*
X126225300Y-75437040D03*
X123685300Y-75437040D03*
X121145300Y-75437040D03*
X118605300Y-75437040D03*
X116065300Y-75437040D03*
X113525300Y-75437040D03*
X110985300Y-75437040D03*
X108445300Y-75437040D03*
X105905300Y-75437040D03*
X103365300Y-75437040D03*
X100825300Y-75437040D03*
X126225300Y-72897040D03*
X123685300Y-72897040D03*
X121145300Y-72897040D03*
X118605300Y-72897040D03*
X116065300Y-72897040D03*
X113525300Y-72897040D03*
X110985300Y-72897040D03*
X108445300Y-72897040D03*
X105905300Y-72897040D03*
X103365300Y-72897040D03*
X100825300Y-72897040D03*
X126225300Y-70357040D03*
X123685300Y-70357040D03*
X121145300Y-70357040D03*
X118605300Y-70357040D03*
X116065300Y-70357040D03*
X113525300Y-70357040D03*
X110985300Y-70357040D03*
X108445300Y-70357040D03*
X105905300Y-70357040D03*
X103365300Y-70357040D03*
X100825300Y-70357040D03*
X126225300Y-67817040D03*
X123685300Y-67817040D03*
X121145300Y-67817040D03*
X118605300Y-67817040D03*
X116065300Y-67817040D03*
X113525300Y-67817040D03*
X110985300Y-67817040D03*
X108445300Y-67817040D03*
X105905300Y-67817040D03*
X103365300Y-67817040D03*
X100825300Y-67817040D03*
X126225300Y-65277040D03*
X123685300Y-65277040D03*
X121145300Y-65277040D03*
X118605300Y-65277040D03*
X116065300Y-65277040D03*
X113525300Y-65277040D03*
X110985300Y-65277040D03*
X108445300Y-65277040D03*
X105905300Y-65277040D03*
X103365300Y-65277040D03*
X100825300Y-65277040D03*
X126225300Y-62737040D03*
X123685300Y-62737040D03*
X121145300Y-62737040D03*
X118605300Y-62737040D03*
X116065300Y-62737040D03*
X113525300Y-62737040D03*
X110985300Y-62737040D03*
X108445300Y-62737040D03*
X105905300Y-62737040D03*
X103365300Y-62737040D03*
X100825300Y-62737040D03*
X126225300Y-60197040D03*
X123685300Y-60197040D03*
X121145300Y-60197040D03*
X118605300Y-60197040D03*
X116065300Y-60197040D03*
X113525300Y-60197040D03*
X110985300Y-60197040D03*
X108445300Y-60197040D03*
X105905300Y-60197040D03*
X103365300Y-60197040D03*
X100825300Y-60197040D03*
X105905300Y-80517040D03*
X103365300Y-80517040D03*
X100825300Y-80517040D03*
X128765300Y-57657040D03*
X126225300Y-57657040D03*
X123685300Y-57657040D03*
X121145300Y-57657040D03*
X118605300Y-57657040D03*
X116065300Y-57657040D03*
X113525300Y-57657040D03*
X110985300Y-57657040D03*
X108445300Y-57657040D03*
X105905300Y-57657040D03*
X103365300Y-57657040D03*
X100825300Y-57657040D03*
X128765300Y-55117040D03*
X126225300Y-55117040D03*
X123685300Y-55117040D03*
X121145300Y-55117040D03*
X118605300Y-55117040D03*
X116065300Y-55117040D03*
X113525300Y-55117040D03*
X110985300Y-55117040D03*
X108445300Y-55117040D03*
X105905300Y-55117040D03*
X103365300Y-55117040D03*
X100825300Y-55117040D03*
X128765300Y-52577040D03*
X126225300Y-52577040D03*
X123685300Y-52577040D03*
X121145300Y-52577040D03*
X118605300Y-52577040D03*
X116065300Y-52577040D03*
X113525300Y-52577040D03*
X110985300Y-52577040D03*
X108445300Y-52577040D03*
X105905300Y-52577040D03*
X103365300Y-52577040D03*
X100825300Y-52577040D03*
X128765300Y-80517040D03*
X154165300Y-80517040D03*
X151625300Y-80517040D03*
X149085300Y-80517040D03*
X146545300Y-80517040D03*
X144005300Y-80517040D03*
X141465300Y-80517040D03*
X138925300Y-80517040D03*
X136385300Y-80517040D03*
X133845300Y-80517040D03*
X131305300Y-80517040D03*
X154165300Y-77977040D03*
X151625300Y-77977040D03*
X149085300Y-77977040D03*
X146545300Y-77977040D03*
X144005300Y-77977040D03*
X141465300Y-77977040D03*
X138925300Y-77977040D03*
X136385300Y-77977040D03*
X133845300Y-77977040D03*
X131305300Y-77977040D03*
X154165300Y-75437040D03*
X151625300Y-75437040D03*
X149085300Y-75437040D03*
X146545300Y-75437040D03*
X144005300Y-75437040D03*
X141465300Y-75437040D03*
X138925300Y-75437040D03*
X136385300Y-75437040D03*
X133845300Y-75437040D03*
X131305300Y-75437040D03*
X154165300Y-72897040D03*
X151625300Y-72897040D03*
X149085300Y-72897040D03*
X146545300Y-72897040D03*
X144005300Y-72897040D03*
X141465300Y-72897040D03*
X138925300Y-72897040D03*
X136385300Y-72897040D03*
X133845300Y-72897040D03*
X131305300Y-72897040D03*
X154165300Y-70357040D03*
X151625300Y-70357040D03*
X149085300Y-70357040D03*
X146545300Y-70357040D03*
X144005300Y-70357040D03*
X141465300Y-70357040D03*
X138925300Y-70357040D03*
X136385300Y-70357040D03*
X133845300Y-70357040D03*
X131305300Y-70357040D03*
X154165300Y-67817040D03*
X151625300Y-67817040D03*
X149085300Y-67817040D03*
X146545300Y-67817040D03*
X144005300Y-67817040D03*
X141465300Y-67817040D03*
X138925300Y-67817040D03*
X136385300Y-67817040D03*
X133845300Y-67817040D03*
X131305300Y-67817040D03*
X154165300Y-65277040D03*
X151625300Y-65277040D03*
X149085300Y-65277040D03*
X146545300Y-65277040D03*
X144005300Y-65277040D03*
X141465300Y-65277040D03*
X138925300Y-65277040D03*
X136385300Y-65277040D03*
X133845300Y-65277040D03*
X131305300Y-65277040D03*
X154165300Y-62737040D03*
X151625300Y-62737040D03*
X149085300Y-62737040D03*
X146545300Y-62737040D03*
X144005300Y-62737040D03*
X141465300Y-62737040D03*
X138925300Y-62737040D03*
X136385300Y-62737040D03*
X133845300Y-62737040D03*
X131305300Y-62737040D03*
X154165300Y-60197040D03*
X151625300Y-60197040D03*
X149085300Y-60197040D03*
X146545300Y-60197040D03*
X144005300Y-60197040D03*
X141465300Y-60197040D03*
X138925300Y-60197040D03*
X136385300Y-60197040D03*
X133845300Y-60197040D03*
X131305300Y-60197040D03*
X154165300Y-57657040D03*
X151625300Y-57657040D03*
X149085300Y-57657040D03*
X146545300Y-57657040D03*
X144005300Y-57657040D03*
X141465300Y-57657040D03*
X138925300Y-57657040D03*
X136385300Y-57657040D03*
X133845300Y-57657040D03*
X131305300Y-57657040D03*
X154165300Y-55117040D03*
X151625300Y-55117040D03*
X149085300Y-55117040D03*
X146545300Y-55117040D03*
X144005300Y-55117040D03*
X141465300Y-55117040D03*
X138925300Y-55117040D03*
X136385300Y-55117040D03*
X133845300Y-55117040D03*
X131305300Y-55117040D03*
X154165300Y-52577040D03*
X151625300Y-52577040D03*
X149085300Y-52577040D03*
X146545300Y-52577040D03*
X144005300Y-52577040D03*
X141465300Y-52577040D03*
X138925300Y-52577040D03*
X136385300Y-52577040D03*
X133845300Y-52577040D03*
X154165300Y-44957040D03*
X151625300Y-44957040D03*
X149085300Y-44957040D03*
X146545300Y-44957040D03*
X144005300Y-44957040D03*
X141465300Y-44957040D03*
X138925300Y-44957040D03*
X136385300Y-44957040D03*
X133845300Y-44957040D03*
X131305300Y-44957040D03*
X128765300Y-44957040D03*
X126225300Y-44957040D03*
X123685300Y-44957040D03*
X121145300Y-44957040D03*
X118605300Y-44957040D03*
X116065300Y-44957040D03*
X113525300Y-44957040D03*
X110985300Y-44957040D03*
X108445300Y-44957040D03*
X105905300Y-44957040D03*
X103365300Y-44957040D03*
X154165300Y-47497040D03*
X151625300Y-47497040D03*
X149085300Y-47497040D03*
X146545300Y-47497040D03*
X144005300Y-47497040D03*
X141465300Y-47497040D03*
X138925300Y-47497040D03*
X136385300Y-47497040D03*
X133845300Y-47497040D03*
X131305300Y-47497040D03*
X128765300Y-47497040D03*
X126225300Y-47497040D03*
X123685300Y-47497040D03*
X121145300Y-47497040D03*
X118605300Y-47497040D03*
X116065300Y-47497040D03*
X113525300Y-47497040D03*
X110985300Y-47497040D03*
X108445300Y-47497040D03*
X105905300Y-47497040D03*
X103365300Y-47497040D03*
X154165300Y-50037040D03*
X151625300Y-50037040D03*
X149085300Y-50037040D03*
X146545300Y-50037040D03*
X144005300Y-50037040D03*
X141465300Y-50037040D03*
X138925300Y-50037040D03*
X136385300Y-50037040D03*
X133845300Y-50037040D03*
X131305300Y-50037040D03*
X128765300Y-50037040D03*
X126225300Y-50037040D03*
X123685300Y-50037040D03*
X121145300Y-50037040D03*
X118605300Y-50037040D03*
X116065300Y-50037040D03*
X113525300Y-50037040D03*
X110985300Y-50037040D03*
X108445300Y-50037040D03*
X105905300Y-50037040D03*
X103365300Y-50037040D03*
X123685300Y-80517040D03*
X121145300Y-80517040D03*
X118605300Y-80517040D03*
X116065300Y-80517040D03*
X113525300Y-80517040D03*
X110985300Y-80517040D03*
X128765300Y-60197040D03*
X128765300Y-62737040D03*
X128765300Y-65277040D03*
X128765300Y-67817040D03*
X128765300Y-70357040D03*
X128765300Y-72897040D03*
X128765300Y-75437040D03*
X100825300Y-50037040D03*
X128765300Y-77977040D03*
X126225300Y-80517040D03*
X108445300Y-80517040D03*
X131305300Y-52577040D03*
X100825300Y-44957040D03*
X100825300Y-47497040D03*
M02*
