G04 #@! TF.GenerationSoftware,KiCad,Pcbnew,5.1.5+dfsg1-2build2*
G04 #@! TF.CreationDate,2021-11-15T16:56:08-05:00*
G04 #@! TF.ProjectId,ESP32CAM_BREAKOUT_FOR_WATERPROOF_ENCLOSURE,45535033-3243-4414-9d5f-425245414b4f,rev?*
G04 #@! TF.SameCoordinates,Original*
G04 #@! TF.FileFunction,Legend,Top*
G04 #@! TF.FilePolarity,Positive*
%FSLAX46Y46*%
G04 Gerber Fmt 4.6, Leading zero omitted, Abs format (unit mm)*
G04 Created by KiCad (PCBNEW 5.1.5+dfsg1-2build2) date 2021-11-15 16:56:08*
%MOMM*%
%LPD*%
G04 APERTURE LIST*
%ADD10C,0.150000*%
%ADD11C,0.500000*%
%ADD12C,0.120000*%
%ADD13C,0.010000*%
%ADD14C,2.100980*%
%ADD15C,2.102000*%
%ADD16C,2.502000*%
%ADD17R,2.502000X2.502000*%
%ADD18O,1.802000X1.802000*%
%ADD19R,1.802000X1.802000*%
%ADD20C,3.102000*%
G04 APERTURE END LIST*
D10*
X104675957Y-119855390D02*
X104675957Y-119588723D01*
X105095004Y-119474438D02*
X105095004Y-119855390D01*
X104295004Y-119855390D01*
X104295004Y-119474438D01*
X105056909Y-119169676D02*
X105095004Y-119055390D01*
X105095004Y-118864914D01*
X105056909Y-118788723D01*
X105018814Y-118750628D01*
X104942623Y-118712533D01*
X104866433Y-118712533D01*
X104790242Y-118750628D01*
X104752147Y-118788723D01*
X104714052Y-118864914D01*
X104675957Y-119017295D01*
X104637861Y-119093485D01*
X104599766Y-119131580D01*
X104523576Y-119169676D01*
X104447385Y-119169676D01*
X104371195Y-119131580D01*
X104333100Y-119093485D01*
X104295004Y-119017295D01*
X104295004Y-118826819D01*
X104333100Y-118712533D01*
X105095004Y-118369676D02*
X104295004Y-118369676D01*
X104295004Y-118064914D01*
X104333100Y-117988723D01*
X104371195Y-117950628D01*
X104447385Y-117912533D01*
X104561671Y-117912533D01*
X104637861Y-117950628D01*
X104675957Y-117988723D01*
X104714052Y-118064914D01*
X104714052Y-118369676D01*
X104295004Y-117645866D02*
X104295004Y-117150628D01*
X104599766Y-117417295D01*
X104599766Y-117303009D01*
X104637861Y-117226819D01*
X104675957Y-117188723D01*
X104752147Y-117150628D01*
X104942623Y-117150628D01*
X105018814Y-117188723D01*
X105056909Y-117226819D01*
X105095004Y-117303009D01*
X105095004Y-117531580D01*
X105056909Y-117607771D01*
X105018814Y-117645866D01*
X104371195Y-116845866D02*
X104333100Y-116807771D01*
X104295004Y-116731580D01*
X104295004Y-116541104D01*
X104333100Y-116464914D01*
X104371195Y-116426819D01*
X104447385Y-116388723D01*
X104523576Y-116388723D01*
X104637861Y-116426819D01*
X105095004Y-116883961D01*
X105095004Y-116388723D01*
X105018814Y-114979200D02*
X105056909Y-115017295D01*
X105095004Y-115131580D01*
X105095004Y-115207771D01*
X105056909Y-115322057D01*
X104980719Y-115398247D01*
X104904528Y-115436342D01*
X104752147Y-115474438D01*
X104637861Y-115474438D01*
X104485480Y-115436342D01*
X104409290Y-115398247D01*
X104333100Y-115322057D01*
X104295004Y-115207771D01*
X104295004Y-115131580D01*
X104333100Y-115017295D01*
X104371195Y-114979200D01*
X104866433Y-114674438D02*
X104866433Y-114293485D01*
X105095004Y-114750628D02*
X104295004Y-114483961D01*
X105095004Y-114217295D01*
X105095004Y-113950628D02*
X104295004Y-113950628D01*
X104866433Y-113683961D01*
X104295004Y-113417295D01*
X105095004Y-113417295D01*
X105095004Y-112426819D02*
X104295004Y-112426819D01*
X104295004Y-112122057D01*
X104333100Y-112045866D01*
X104371195Y-112007771D01*
X104447385Y-111969676D01*
X104561671Y-111969676D01*
X104637861Y-112007771D01*
X104675957Y-112045866D01*
X104714052Y-112122057D01*
X104714052Y-112426819D01*
X105095004Y-111169676D02*
X104714052Y-111436342D01*
X105095004Y-111626819D02*
X104295004Y-111626819D01*
X104295004Y-111322057D01*
X104333100Y-111245866D01*
X104371195Y-111207771D01*
X104447385Y-111169676D01*
X104561671Y-111169676D01*
X104637861Y-111207771D01*
X104675957Y-111245866D01*
X104714052Y-111322057D01*
X104714052Y-111626819D01*
X104295004Y-110674438D02*
X104295004Y-110522057D01*
X104333100Y-110445866D01*
X104409290Y-110369676D01*
X104561671Y-110331580D01*
X104828338Y-110331580D01*
X104980719Y-110369676D01*
X105056909Y-110445866D01*
X105095004Y-110522057D01*
X105095004Y-110674438D01*
X105056909Y-110750628D01*
X104980719Y-110826819D01*
X104828338Y-110864914D01*
X104561671Y-110864914D01*
X104409290Y-110826819D01*
X104333100Y-110750628D01*
X104295004Y-110674438D01*
X104295004Y-110103009D02*
X104295004Y-109645866D01*
X105095004Y-109874438D02*
X104295004Y-109874438D01*
X104295004Y-109226819D02*
X104295004Y-109074438D01*
X104333100Y-108998247D01*
X104409290Y-108922057D01*
X104561671Y-108883961D01*
X104828338Y-108883961D01*
X104980719Y-108922057D01*
X105056909Y-108998247D01*
X105095004Y-109074438D01*
X105095004Y-109226819D01*
X105056909Y-109303009D01*
X104980719Y-109379200D01*
X104828338Y-109417295D01*
X104561671Y-109417295D01*
X104409290Y-109379200D01*
X104333100Y-109303009D01*
X104295004Y-109226819D01*
X104295004Y-108655390D02*
X104295004Y-108198247D01*
X105095004Y-108426819D02*
X104295004Y-108426819D01*
X104714052Y-107779200D02*
X105095004Y-107779200D01*
X104295004Y-108045866D02*
X104714052Y-107779200D01*
X104295004Y-107512533D01*
X105095004Y-107245866D02*
X104295004Y-107245866D01*
X104295004Y-106941104D01*
X104333100Y-106864914D01*
X104371195Y-106826819D01*
X104447385Y-106788723D01*
X104561671Y-106788723D01*
X104637861Y-106826819D01*
X104675957Y-106864914D01*
X104714052Y-106941104D01*
X104714052Y-107245866D01*
X104675957Y-106445866D02*
X104675957Y-106179200D01*
X105095004Y-106064914D02*
X105095004Y-106445866D01*
X104295004Y-106445866D01*
X104295004Y-106064914D01*
X105987861Y-120464914D02*
X105949766Y-120541104D01*
X105911671Y-120579200D01*
X105835480Y-120617295D01*
X105797385Y-120617295D01*
X105721195Y-120579200D01*
X105683100Y-120541104D01*
X105645004Y-120464914D01*
X105645004Y-120312533D01*
X105683100Y-120236342D01*
X105721195Y-120198247D01*
X105797385Y-120160152D01*
X105835480Y-120160152D01*
X105911671Y-120198247D01*
X105949766Y-120236342D01*
X105987861Y-120312533D01*
X105987861Y-120464914D01*
X106025957Y-120541104D01*
X106064052Y-120579200D01*
X106140242Y-120617295D01*
X106292623Y-120617295D01*
X106368814Y-120579200D01*
X106406909Y-120541104D01*
X106445004Y-120464914D01*
X106445004Y-120312533D01*
X106406909Y-120236342D01*
X106368814Y-120198247D01*
X106292623Y-120160152D01*
X106140242Y-120160152D01*
X106064052Y-120198247D01*
X106025957Y-120236342D01*
X105987861Y-120312533D01*
X105645004Y-119893485D02*
X105645004Y-119398247D01*
X105949766Y-119664914D01*
X105949766Y-119550628D01*
X105987861Y-119474438D01*
X106025957Y-119436342D01*
X106102147Y-119398247D01*
X106292623Y-119398247D01*
X106368814Y-119436342D01*
X106406909Y-119474438D01*
X106445004Y-119550628D01*
X106445004Y-119779200D01*
X106406909Y-119855390D01*
X106368814Y-119893485D01*
X106445004Y-119131580D02*
X105911671Y-118712533D01*
X105911671Y-119131580D02*
X106445004Y-118712533D01*
X105645004Y-118026819D02*
X105645004Y-118407771D01*
X106025957Y-118445866D01*
X105987861Y-118407771D01*
X105949766Y-118331580D01*
X105949766Y-118141104D01*
X105987861Y-118064914D01*
X106025957Y-118026819D01*
X106102147Y-117988723D01*
X106292623Y-117988723D01*
X106368814Y-118026819D01*
X106406909Y-118064914D01*
X106445004Y-118141104D01*
X106445004Y-118331580D01*
X106406909Y-118407771D01*
X106368814Y-118445866D01*
X105987861Y-117531580D02*
X105949766Y-117607771D01*
X105911671Y-117645866D01*
X105835480Y-117683961D01*
X105797385Y-117683961D01*
X105721195Y-117645866D01*
X105683100Y-117607771D01*
X105645004Y-117531580D01*
X105645004Y-117379200D01*
X105683100Y-117303009D01*
X105721195Y-117264914D01*
X105797385Y-117226819D01*
X105835480Y-117226819D01*
X105911671Y-117264914D01*
X105949766Y-117303009D01*
X105987861Y-117379200D01*
X105987861Y-117531580D01*
X106025957Y-117607771D01*
X106064052Y-117645866D01*
X106140242Y-117683961D01*
X106292623Y-117683961D01*
X106368814Y-117645866D01*
X106406909Y-117607771D01*
X106445004Y-117531580D01*
X106445004Y-117379200D01*
X106406909Y-117303009D01*
X106368814Y-117264914D01*
X106292623Y-117226819D01*
X106140242Y-117226819D01*
X106064052Y-117264914D01*
X106025957Y-117303009D01*
X105987861Y-117379200D01*
X106445004Y-116960152D02*
X105911671Y-116541104D01*
X105911671Y-116960152D02*
X106445004Y-116541104D01*
X105645004Y-116312533D02*
X105645004Y-115817295D01*
X105949766Y-116083961D01*
X105949766Y-115969676D01*
X105987861Y-115893485D01*
X106025957Y-115855390D01*
X106102147Y-115817295D01*
X106292623Y-115817295D01*
X106368814Y-115855390D01*
X106406909Y-115893485D01*
X106445004Y-115969676D01*
X106445004Y-116198247D01*
X106406909Y-116274438D01*
X106368814Y-116312533D01*
X105645004Y-115550628D02*
X105645004Y-115055390D01*
X105949766Y-115322057D01*
X105949766Y-115207771D01*
X105987861Y-115131580D01*
X106025957Y-115093485D01*
X106102147Y-115055390D01*
X106292623Y-115055390D01*
X106368814Y-115093485D01*
X106406909Y-115131580D01*
X106445004Y-115207771D01*
X106445004Y-115436342D01*
X106406909Y-115512533D01*
X106368814Y-115550628D01*
X106445004Y-114712533D02*
X105911671Y-114712533D01*
X105987861Y-114712533D02*
X105949766Y-114674438D01*
X105911671Y-114598247D01*
X105911671Y-114483961D01*
X105949766Y-114407771D01*
X106025957Y-114369676D01*
X106445004Y-114369676D01*
X106025957Y-114369676D02*
X105949766Y-114331580D01*
X105911671Y-114255390D01*
X105911671Y-114141104D01*
X105949766Y-114064914D01*
X106025957Y-114026819D01*
X106445004Y-114026819D01*
X106445004Y-113645866D02*
X105911671Y-113645866D01*
X105987861Y-113645866D02*
X105949766Y-113607771D01*
X105911671Y-113531580D01*
X105911671Y-113417295D01*
X105949766Y-113341104D01*
X106025957Y-113303009D01*
X106445004Y-113303009D01*
X106025957Y-113303009D02*
X105949766Y-113264914D01*
X105911671Y-113188723D01*
X105911671Y-113074438D01*
X105949766Y-112998247D01*
X106025957Y-112960152D01*
X106445004Y-112960152D01*
X106025957Y-111969676D02*
X106025957Y-111703009D01*
X106445004Y-111588723D02*
X106445004Y-111969676D01*
X105645004Y-111969676D01*
X105645004Y-111588723D01*
X106445004Y-111245866D02*
X105645004Y-111245866D01*
X106445004Y-110788723D01*
X105645004Y-110788723D01*
X106368814Y-109950628D02*
X106406909Y-109988723D01*
X106445004Y-110103009D01*
X106445004Y-110179200D01*
X106406909Y-110293485D01*
X106330719Y-110369676D01*
X106254528Y-110407771D01*
X106102147Y-110445866D01*
X105987861Y-110445866D01*
X105835480Y-110407771D01*
X105759290Y-110369676D01*
X105683100Y-110293485D01*
X105645004Y-110179200D01*
X105645004Y-110103009D01*
X105683100Y-109988723D01*
X105721195Y-109950628D01*
X106445004Y-109226819D02*
X106445004Y-109607771D01*
X105645004Y-109607771D01*
X105645004Y-108807771D02*
X105645004Y-108655390D01*
X105683100Y-108579200D01*
X105759290Y-108503009D01*
X105911671Y-108464914D01*
X106178338Y-108464914D01*
X106330719Y-108503009D01*
X106406909Y-108579200D01*
X106445004Y-108655390D01*
X106445004Y-108807771D01*
X106406909Y-108883961D01*
X106330719Y-108960152D01*
X106178338Y-108998247D01*
X105911671Y-108998247D01*
X105759290Y-108960152D01*
X105683100Y-108883961D01*
X105645004Y-108807771D01*
X106406909Y-108160152D02*
X106445004Y-108045866D01*
X106445004Y-107855390D01*
X106406909Y-107779200D01*
X106368814Y-107741104D01*
X106292623Y-107703009D01*
X106216433Y-107703009D01*
X106140242Y-107741104D01*
X106102147Y-107779200D01*
X106064052Y-107855390D01*
X106025957Y-108007771D01*
X105987861Y-108083961D01*
X105949766Y-108122057D01*
X105873576Y-108160152D01*
X105797385Y-108160152D01*
X105721195Y-108122057D01*
X105683100Y-108083961D01*
X105645004Y-108007771D01*
X105645004Y-107817295D01*
X105683100Y-107703009D01*
X105645004Y-107360152D02*
X106292623Y-107360152D01*
X106368814Y-107322057D01*
X106406909Y-107283961D01*
X106445004Y-107207771D01*
X106445004Y-107055390D01*
X106406909Y-106979200D01*
X106368814Y-106941104D01*
X106292623Y-106903009D01*
X105645004Y-106903009D01*
X106445004Y-106064914D02*
X106064052Y-106331580D01*
X106445004Y-106522057D02*
X105645004Y-106522057D01*
X105645004Y-106217295D01*
X105683100Y-106141104D01*
X105721195Y-106103009D01*
X105797385Y-106064914D01*
X105911671Y-106064914D01*
X105987861Y-106103009D01*
X106025957Y-106141104D01*
X106064052Y-106217295D01*
X106064052Y-106522057D01*
X106025957Y-105722057D02*
X106025957Y-105455390D01*
X106445004Y-105341104D02*
X106445004Y-105722057D01*
X105645004Y-105722057D01*
X105645004Y-105341104D01*
D11*
X143471900Y-123228100D02*
X143649500Y-123228100D01*
X140931900Y-123228100D02*
X141109500Y-123228100D01*
X143471900Y-120688100D02*
X143649500Y-120688100D01*
X140931900Y-120688100D02*
X141109500Y-120688100D01*
X143471900Y-118148100D02*
X143649500Y-118148100D01*
X140931900Y-118148100D02*
X141109500Y-118148100D01*
X143471900Y-115608100D02*
X143649500Y-115608100D01*
X140931900Y-115608100D02*
X141109500Y-115608100D01*
X143471900Y-113068100D02*
X143649500Y-113068100D01*
X140931900Y-113068100D02*
X141109500Y-113068100D01*
X143471900Y-110528100D02*
X143649500Y-110528100D01*
X140931900Y-110528100D02*
X141109500Y-110528100D01*
X152438100Y-121894600D02*
X152438100Y-122072200D01*
X149898100Y-121894600D02*
X149898100Y-122072200D01*
X152438100Y-119354600D02*
X152438100Y-119532200D01*
X149898100Y-119354600D02*
X149898100Y-119532200D01*
X152438100Y-116814600D02*
X152438100Y-116992200D01*
X149898100Y-116814600D02*
X149898100Y-116992200D01*
X152438100Y-114274600D02*
X152438100Y-114452200D01*
X149898100Y-114274600D02*
X149898100Y-114452200D01*
X152438100Y-111734600D02*
X152438100Y-111912200D01*
X149898100Y-111734600D02*
X149898100Y-111912200D01*
X152438100Y-109194600D02*
X152438100Y-109372200D01*
X149898100Y-109194600D02*
X149898100Y-109372200D01*
X152438100Y-106654600D02*
X152438100Y-106832200D01*
X149898100Y-106654600D02*
X149898100Y-106832200D01*
X152438100Y-104114600D02*
X152438100Y-104292200D01*
X149898100Y-104114600D02*
X149898100Y-104292200D01*
X146012100Y-123240800D02*
X146189700Y-123240800D01*
X146012100Y-120700800D02*
X146189700Y-120700800D01*
X146012100Y-118160800D02*
X146189700Y-118160800D01*
X146012100Y-115620800D02*
X146189700Y-115620800D01*
X146012100Y-113080800D02*
X146189700Y-113080800D01*
X146012100Y-110540800D02*
X146189700Y-110540800D01*
X146012100Y-108000800D02*
X146189700Y-108000800D01*
X146012100Y-105460800D02*
X146189700Y-105460800D01*
X146012100Y-102920800D02*
X146189700Y-102920800D01*
X156146700Y-123228100D02*
X156324300Y-123228100D01*
X156146700Y-120688100D02*
X156324300Y-120688100D01*
X156146700Y-118148100D02*
X156324300Y-118148100D01*
X156146700Y-115608100D02*
X156324300Y-115608100D01*
X156146700Y-113068100D02*
X156324300Y-113068100D01*
X156146700Y-110528100D02*
X156324300Y-110528100D01*
X156146700Y-107988100D02*
X156324300Y-107988100D01*
X156146700Y-105448100D02*
X156324300Y-105448100D01*
X156146700Y-102908100D02*
X156324300Y-102908100D01*
X157518100Y-129527500D02*
X157518100Y-129705100D01*
X154978100Y-129527500D02*
X154978100Y-129705100D01*
X152438100Y-129527500D02*
X152438100Y-129705100D01*
X149898100Y-129527500D02*
X149898100Y-129705100D01*
X147358100Y-129527500D02*
X147358100Y-129705100D01*
X157518100Y-126987500D02*
X157518100Y-127165100D01*
X154978100Y-126987500D02*
X154978100Y-127165100D01*
X152438100Y-126987500D02*
X152438100Y-127165100D01*
X149898100Y-126987500D02*
X149898100Y-127165100D01*
X147358100Y-126987500D02*
X147358100Y-127165100D01*
X156184600Y-135928100D02*
X156362200Y-135928100D01*
X153644600Y-135928100D02*
X153822200Y-135928100D01*
X151104600Y-135928100D02*
X151282200Y-135928100D01*
X148564600Y-135928100D02*
X148742200Y-135928100D01*
X146024600Y-135928100D02*
X146202200Y-135928100D01*
X143484600Y-135928100D02*
X143662200Y-135928100D01*
X140944600Y-135928100D02*
X141122200Y-135928100D01*
X138404600Y-135928100D02*
X138582200Y-135928100D01*
X135864600Y-135928100D02*
X136042200Y-135928100D01*
X133324600Y-135928100D02*
X133502200Y-135928100D01*
X130784600Y-135928100D02*
X130962200Y-135928100D01*
X128244600Y-135928100D02*
X128422200Y-135928100D01*
X125704600Y-135928100D02*
X125882200Y-135928100D01*
X123164600Y-135928100D02*
X123342200Y-135928100D01*
X120624600Y-135928100D02*
X120802200Y-135928100D01*
X118084600Y-135928100D02*
X118262200Y-135928100D01*
X115544600Y-135928100D02*
X115722200Y-135928100D01*
X113004600Y-135928100D02*
X113182200Y-135928100D01*
X110464600Y-135928100D02*
X110642200Y-135928100D01*
X107924600Y-135928100D02*
X108102200Y-135928100D01*
X156184600Y-133388100D02*
X156362200Y-133388100D01*
X153644600Y-133388100D02*
X153822200Y-133388100D01*
X151104600Y-133388100D02*
X151282200Y-133388100D01*
X148564600Y-133388100D02*
X148742200Y-133388100D01*
X146024600Y-133388100D02*
X146202200Y-133388100D01*
X143484600Y-133388100D02*
X143662200Y-133388100D01*
X140944600Y-133388100D02*
X141122200Y-133388100D01*
X138404600Y-133388100D02*
X138582200Y-133388100D01*
X135864600Y-133388100D02*
X136042200Y-133388100D01*
X133324600Y-133388100D02*
X133502200Y-133388100D01*
X130784600Y-133388100D02*
X130962200Y-133388100D01*
X128244600Y-133388100D02*
X128422200Y-133388100D01*
X125704600Y-133388100D02*
X125882200Y-133388100D01*
X123164600Y-133388100D02*
X123342200Y-133388100D01*
X120624600Y-133388100D02*
X120802200Y-133388100D01*
X118084600Y-133388100D02*
X118262200Y-133388100D01*
X115544600Y-133388100D02*
X115722200Y-133388100D01*
X113004600Y-133388100D02*
X113182200Y-133388100D01*
X110464600Y-133388100D02*
X110642200Y-133388100D01*
X107924600Y-133388100D02*
X108102200Y-133388100D01*
X157518100Y-144741900D02*
X157518100Y-144919500D01*
X154978100Y-144741900D02*
X154978100Y-144919500D01*
X152438100Y-144741900D02*
X152438100Y-144919500D01*
X149898100Y-144741900D02*
X149898100Y-144919500D01*
X147358100Y-144741900D02*
X147358100Y-144919500D01*
X144818100Y-144741900D02*
X144818100Y-144919500D01*
X142278100Y-144741900D02*
X142278100Y-144919500D01*
X139738100Y-144741900D02*
X139738100Y-144919500D01*
X137198100Y-144741900D02*
X137198100Y-144919500D01*
X134658100Y-144741900D02*
X134658100Y-144919500D01*
X132118100Y-144741900D02*
X132118100Y-144919500D01*
X129578100Y-144741900D02*
X129578100Y-144919500D01*
X127038100Y-144741900D02*
X127038100Y-144919500D01*
X124498100Y-144741900D02*
X124498100Y-144919500D01*
X121958100Y-144741900D02*
X121958100Y-144919500D01*
X119418100Y-144741900D02*
X119418100Y-144919500D01*
X116878100Y-144741900D02*
X116878100Y-144919500D01*
X157518100Y-142201900D02*
X157518100Y-142379500D01*
X154978100Y-142201900D02*
X154978100Y-142379500D01*
X152438100Y-142201900D02*
X152438100Y-142379500D01*
X149898100Y-142201900D02*
X149898100Y-142379500D01*
X147358100Y-142201900D02*
X147358100Y-142379500D01*
X144818100Y-142201900D02*
X144818100Y-142379500D01*
X142278100Y-142201900D02*
X142278100Y-142379500D01*
X139738100Y-142201900D02*
X139738100Y-142379500D01*
X137198100Y-142201900D02*
X137198100Y-142379500D01*
X134658100Y-142201900D02*
X134658100Y-142379500D01*
X132118100Y-142201900D02*
X132118100Y-142379500D01*
X129578100Y-142201900D02*
X129578100Y-142379500D01*
X127038100Y-142201900D02*
X127038100Y-142379500D01*
X124498100Y-142201900D02*
X124498100Y-142379500D01*
X121958100Y-142201900D02*
X121958100Y-142379500D01*
X119418100Y-142201900D02*
X119418100Y-142379500D01*
X116878100Y-142201900D02*
X116878100Y-142379500D01*
X157518100Y-139661900D02*
X157518100Y-139839500D01*
X154978100Y-139661900D02*
X154978100Y-139839500D01*
X152438100Y-139661900D02*
X152438100Y-139839500D01*
X149898100Y-139661900D02*
X149898100Y-139839500D01*
X147358100Y-139661900D02*
X147358100Y-139839500D01*
X144818100Y-139661900D02*
X144818100Y-139839500D01*
X142278100Y-139661900D02*
X142278100Y-139839500D01*
X139738100Y-139661900D02*
X139738100Y-139839500D01*
X137198100Y-139661900D02*
X137198100Y-139839500D01*
X134658100Y-139661900D02*
X134658100Y-139839500D01*
X132118100Y-139661900D02*
X132118100Y-139839500D01*
X129578100Y-139661900D02*
X129578100Y-139839500D01*
X127038100Y-139661900D02*
X127038100Y-139839500D01*
X124498100Y-139661900D02*
X124498100Y-139839500D01*
X121958100Y-139661900D02*
X121958100Y-139839500D01*
X119418100Y-139661900D02*
X119418100Y-139839500D01*
X116878100Y-139661900D02*
X116878100Y-139839500D01*
X165150800Y-137782300D02*
X161531300Y-137782300D01*
X165125400Y-134289800D02*
X161505900Y-134289800D01*
X165150800Y-130810000D02*
X161531300Y-130810000D01*
X165150800Y-118198900D02*
X161531300Y-118198900D01*
X165150800Y-114693700D02*
X161531300Y-114693700D01*
X165138100Y-111201200D02*
X161518600Y-111201200D01*
D12*
X120690000Y-101640000D02*
X143550000Y-101640000D01*
X120690000Y-109279100D02*
X120690000Y-101640000D01*
X107990000Y-109279100D02*
X120690000Y-109279100D01*
X107990000Y-132120000D02*
X107990000Y-109279100D01*
X146090000Y-132120000D02*
X107990000Y-132120000D01*
X146090000Y-124500000D02*
X146090000Y-132120000D01*
X138470000Y-124500000D02*
X146090000Y-124500000D01*
X138470000Y-109260000D02*
X138470000Y-124500000D01*
X138470000Y-109260000D02*
X143550000Y-109260000D01*
X143550000Y-101640000D02*
X143550000Y-109260000D01*
D11*
X122948700Y-129827700D02*
X123317000Y-129459400D01*
X133134100Y-129853100D02*
X133502400Y-129484800D01*
X143192500Y-127376600D02*
X143802100Y-126779700D01*
X136169400Y-129878500D02*
X135801100Y-129510200D01*
X123355100Y-127173400D02*
X122986800Y-126805100D01*
X140639800Y-127440100D02*
X141287500Y-126779700D01*
X138099800Y-127414700D02*
X138747500Y-126754300D01*
X130606800Y-129840400D02*
X131254500Y-129180000D01*
X128028700Y-129853100D02*
X128676400Y-129192700D01*
X125488700Y-129840400D02*
X126136400Y-129180000D01*
X138747500Y-129865800D02*
X138087100Y-129218100D01*
X141287500Y-129853100D02*
X140627100Y-129205400D01*
X143827500Y-129891200D02*
X143167100Y-129243500D01*
X131216400Y-127427400D02*
X130556000Y-126779700D01*
X128727200Y-127440100D02*
X128066800Y-126792400D01*
X126199900Y-127414700D02*
X125539500Y-126767000D01*
X135775900Y-125763700D02*
X135953500Y-125763700D01*
X133388300Y-125763700D02*
X133565900Y-125763700D01*
X135763000Y-123236400D02*
X135940600Y-123236400D01*
X133375400Y-123249100D02*
X133553000Y-123249100D01*
X135763200Y-120683700D02*
X135940800Y-120683700D01*
X133375400Y-120696400D02*
X133553000Y-120696400D01*
X135763200Y-118143700D02*
X135940800Y-118143700D01*
X133375400Y-118143700D02*
X133553000Y-118143700D01*
X135763000Y-115616400D02*
X135940600Y-115616400D01*
X133375400Y-115616400D02*
X133553000Y-115616400D01*
X135763200Y-113076400D02*
X135940800Y-113076400D01*
X133375600Y-113063700D02*
X133553200Y-113063700D01*
X135775900Y-110523700D02*
X135953500Y-110523700D01*
X133375600Y-110523700D02*
X133553200Y-110523700D01*
X112902900Y-128316400D02*
X113080500Y-128316400D01*
X110515300Y-128303700D02*
X110692900Y-128303700D01*
X112903200Y-125776400D02*
X113080800Y-125776400D01*
X110515400Y-125763700D02*
X110693000Y-125763700D01*
X112903200Y-123236400D02*
X113080800Y-123236400D01*
X110515600Y-123223700D02*
X110693200Y-123223700D01*
X112903200Y-120696400D02*
X113080800Y-120696400D01*
X110515400Y-120696400D02*
X110693000Y-120696400D01*
X112915900Y-118131000D02*
X113093500Y-118131000D01*
X110515600Y-118156400D02*
X110693200Y-118156400D01*
X112903200Y-115616400D02*
X113080800Y-115616400D01*
X110515400Y-115603700D02*
X110693000Y-115603700D01*
X112915900Y-113076400D02*
X113093500Y-113076400D01*
X110528100Y-113063700D02*
X110705700Y-113063700D01*
X112915900Y-110536400D02*
X113093500Y-110536400D01*
X110528100Y-110536400D02*
X110705700Y-110536400D01*
X124498100Y-106561300D02*
X124498100Y-106738900D01*
X127050800Y-106561500D02*
X127050800Y-106739100D01*
X129565400Y-106561500D02*
X129565400Y-106739100D01*
X132118100Y-106548800D02*
X132118100Y-106726400D01*
X134670800Y-106561300D02*
X134670800Y-106738900D01*
X137198100Y-106561300D02*
X137198100Y-106738900D01*
X142278100Y-106561500D02*
X142278100Y-106739100D01*
X139738100Y-106561500D02*
X139738100Y-106739100D01*
X142278100Y-104161200D02*
X142278100Y-104338800D01*
X139738100Y-104173900D02*
X139738100Y-104351500D01*
X137185400Y-104161200D02*
X137185400Y-104338800D01*
X134645400Y-104173900D02*
X134645400Y-104351500D01*
X132105400Y-104161200D02*
X132105400Y-104338800D01*
X129565400Y-104148500D02*
X129565400Y-104326100D01*
X127025400Y-104135800D02*
X127025400Y-104313400D01*
X124485400Y-104135600D02*
X124485400Y-104313200D01*
D12*
X170900000Y-120600000D02*
X170900000Y-119100000D01*
X169160000Y-120600000D02*
X170900000Y-120600000D01*
X163540000Y-109040000D02*
X170660000Y-109040000D01*
X163540000Y-120360000D02*
X170660000Y-120360000D01*
X170660000Y-120360000D02*
X170660000Y-109040000D01*
X163540000Y-120360000D02*
X163540000Y-109040000D01*
X169100000Y-120360000D02*
X169100000Y-109040000D01*
X168555000Y-111200000D02*
G75*
G03X168555000Y-111200000I-1555000J0D01*
G01*
X168555000Y-114700000D02*
G75*
G03X168555000Y-114700000I-1555000J0D01*
G01*
X168555492Y-118172989D02*
G75*
G02X168432000Y-118808000I-1555492J-27011D01*
G01*
X167607742Y-119632109D02*
G75*
G02X166392000Y-119632000I-607742J1432109D01*
G01*
X165567891Y-118807742D02*
G75*
G02X165568000Y-117592000I1432109J607742D01*
G01*
X166392258Y-116767891D02*
G75*
G02X167608000Y-116768000I607742J-1432109D01*
G01*
X168431385Y-117592413D02*
G75*
G02X168555000Y-118200000I-1431385J-607587D01*
G01*
X123170000Y-128310000D02*
X123170000Y-126980000D01*
X123170000Y-126980000D02*
X124500000Y-126980000D01*
X125770000Y-126980000D02*
X143610000Y-126980000D01*
X143610000Y-129640000D02*
X143610000Y-126980000D01*
X125770000Y-129640000D02*
X143610000Y-129640000D01*
X125770000Y-129640000D02*
X125770000Y-126980000D01*
X123170000Y-105450000D02*
X123170000Y-104120000D01*
X123170000Y-104120000D02*
X124500000Y-104120000D01*
X125770000Y-104120000D02*
X143610000Y-104120000D01*
X143610000Y-106780000D02*
X143610000Y-104120000D01*
X125770000Y-106780000D02*
X143610000Y-106780000D01*
X125770000Y-106780000D02*
X125770000Y-104120000D01*
X111800000Y-129640000D02*
X110470000Y-129640000D01*
X110470000Y-129640000D02*
X110470000Y-128310000D01*
X110470000Y-127040000D02*
X110470000Y-109200000D01*
X113130000Y-109200000D02*
X110470000Y-109200000D01*
X113130000Y-127040000D02*
X113130000Y-109200000D01*
X113130000Y-127040000D02*
X110470000Y-127040000D01*
X134660000Y-129640000D02*
X133330000Y-129640000D01*
X133330000Y-129640000D02*
X133330000Y-128310000D01*
X133330000Y-127040000D02*
X133330000Y-109200000D01*
X135990000Y-109200000D02*
X133330000Y-109200000D01*
X135990000Y-127040000D02*
X135990000Y-109200000D01*
X135990000Y-127040000D02*
X133330000Y-127040000D01*
X170900000Y-140200000D02*
X170900000Y-138700000D01*
X169160000Y-140200000D02*
X170900000Y-140200000D01*
X163540000Y-128640000D02*
X170660000Y-128640000D01*
X163540000Y-139960000D02*
X170660000Y-139960000D01*
X170660000Y-139960000D02*
X170660000Y-128640000D01*
X163540000Y-139960000D02*
X163540000Y-128640000D01*
X169100000Y-139960000D02*
X169100000Y-128640000D01*
X168555000Y-130800000D02*
G75*
G03X168555000Y-130800000I-1555000J0D01*
G01*
X168555000Y-134300000D02*
G75*
G03X168555000Y-134300000I-1555000J0D01*
G01*
X168555492Y-137772989D02*
G75*
G02X168432000Y-138408000I-1555492J-27011D01*
G01*
X167607742Y-139232109D02*
G75*
G02X166392000Y-139232000I-607742J1432109D01*
G01*
X165567891Y-138407742D02*
G75*
G02X165568000Y-137192000I1432109J607742D01*
G01*
X166392258Y-136367891D02*
G75*
G02X167608000Y-136368000I607742J-1432109D01*
G01*
X168431385Y-137192413D02*
G75*
G02X168555000Y-137800000I-1431385J-607587D01*
G01*
D13*
G36*
X120481131Y-116398486D02*
G01*
X120925755Y-116314665D01*
X121053253Y-116005380D01*
X121180751Y-115696094D01*
X120928446Y-115325054D01*
X120858196Y-115221143D01*
X120795472Y-115127213D01*
X120743138Y-115047648D01*
X120704057Y-114986830D01*
X120681093Y-114949143D01*
X120676142Y-114938879D01*
X120688876Y-114920390D01*
X120724082Y-114880880D01*
X120777262Y-114824778D01*
X120843918Y-114756513D01*
X120919554Y-114680514D01*
X120999672Y-114601208D01*
X121079774Y-114523025D01*
X121155364Y-114450393D01*
X121221945Y-114387741D01*
X121275018Y-114339497D01*
X121310087Y-114310090D01*
X121321823Y-114303059D01*
X121343460Y-114313177D01*
X121390862Y-114341541D01*
X121459393Y-114385171D01*
X121544415Y-114441082D01*
X121641293Y-114506294D01*
X121696550Y-114544081D01*
X121797448Y-114612957D01*
X121888499Y-114674160D01*
X121965170Y-114724722D01*
X122022928Y-114761672D01*
X122057243Y-114782042D01*
X122064454Y-114785103D01*
X122084948Y-114778164D01*
X122132713Y-114759249D01*
X122201032Y-114731213D01*
X122283189Y-114696909D01*
X122372470Y-114659191D01*
X122462158Y-114620913D01*
X122545538Y-114584930D01*
X122615894Y-114554094D01*
X122666510Y-114531261D01*
X122690671Y-114519283D01*
X122691622Y-114518576D01*
X122696236Y-114499769D01*
X122706528Y-114449682D01*
X122721487Y-114373507D01*
X122740101Y-114276435D01*
X122761359Y-114163657D01*
X122773618Y-114097858D01*
X122796562Y-113977350D01*
X122818395Y-113868503D01*
X122837922Y-113776824D01*
X122853948Y-113707819D01*
X122865279Y-113666996D01*
X122868874Y-113658789D01*
X122893206Y-113650752D01*
X122948159Y-113644267D01*
X123027308Y-113639330D01*
X123124226Y-113635936D01*
X123232487Y-113634082D01*
X123345665Y-113633762D01*
X123457335Y-113634973D01*
X123561068Y-113637710D01*
X123650441Y-113641969D01*
X123719026Y-113647745D01*
X123760397Y-113655033D01*
X123769010Y-113659405D01*
X123779333Y-113685536D01*
X123794092Y-113740907D01*
X123811552Y-113818193D01*
X123829980Y-113910070D01*
X123835941Y-113942142D01*
X123864266Y-114096776D01*
X123887076Y-114218925D01*
X123905280Y-114312627D01*
X123919783Y-114381916D01*
X123931492Y-114430829D01*
X123941315Y-114463403D01*
X123950156Y-114483672D01*
X123958924Y-114495674D01*
X123960657Y-114497353D01*
X123988571Y-114514116D01*
X124042895Y-114539686D01*
X124116977Y-114571512D01*
X124204165Y-114607040D01*
X124297808Y-114643717D01*
X124391252Y-114678989D01*
X124477847Y-114710304D01*
X124550940Y-114735107D01*
X124603878Y-114750846D01*
X124630011Y-114754968D01*
X124630926Y-114754624D01*
X124652286Y-114740659D01*
X124699284Y-114708978D01*
X124767027Y-114662909D01*
X124850623Y-114605782D01*
X124945182Y-114540927D01*
X124972054Y-114522457D01*
X125069475Y-114456601D01*
X125158363Y-114398650D01*
X125233612Y-114351762D01*
X125290120Y-114319093D01*
X125322781Y-114303800D01*
X125326793Y-114303059D01*
X125347884Y-114315908D01*
X125389664Y-114351412D01*
X125447645Y-114405007D01*
X125517335Y-114472129D01*
X125594245Y-114548213D01*
X125673883Y-114628696D01*
X125751761Y-114709013D01*
X125823386Y-114784601D01*
X125884270Y-114850895D01*
X125929921Y-114903331D01*
X125955850Y-114937345D01*
X125960083Y-114946755D01*
X125950112Y-114968657D01*
X125923220Y-115013500D01*
X125883936Y-115073979D01*
X125852317Y-115120511D01*
X125794298Y-115204825D01*
X125725984Y-115304674D01*
X125657779Y-115404827D01*
X125621275Y-115458673D01*
X125498000Y-115640929D01*
X125580720Y-115793919D01*
X125616959Y-115863618D01*
X125645126Y-115922886D01*
X125661191Y-115962989D01*
X125663426Y-115973197D01*
X125646922Y-115985471D01*
X125600282Y-116009687D01*
X125527809Y-116044037D01*
X125433806Y-116086712D01*
X125322574Y-116135906D01*
X125198415Y-116189810D01*
X125065632Y-116246616D01*
X124928527Y-116304518D01*
X124791402Y-116361707D01*
X124658558Y-116416376D01*
X124534298Y-116466716D01*
X124422925Y-116510920D01*
X124328739Y-116547181D01*
X124256044Y-116573691D01*
X124209141Y-116588642D01*
X124193033Y-116591046D01*
X124172486Y-116571989D01*
X124139133Y-116530264D01*
X124099902Y-116474594D01*
X124096799Y-116469922D01*
X123981623Y-116326036D01*
X123847253Y-116210017D01*
X123697984Y-116122870D01*
X123538113Y-116065601D01*
X123371937Y-116039214D01*
X123203752Y-116044715D01*
X123037855Y-116083110D01*
X122878542Y-116155405D01*
X122843687Y-116176674D01*
X122702937Y-116287304D01*
X122589914Y-116417998D01*
X122505203Y-116564236D01*
X122449394Y-116721492D01*
X122423074Y-116885243D01*
X122426830Y-117050967D01*
X122461250Y-117214138D01*
X122526923Y-117370235D01*
X122624435Y-117514733D01*
X122664013Y-117559431D01*
X122787903Y-117673188D01*
X122918324Y-117756082D01*
X123064515Y-117812944D01*
X123209288Y-117844613D01*
X123372060Y-117852431D01*
X123535640Y-117826362D01*
X123694498Y-117769055D01*
X123843106Y-117683156D01*
X123975935Y-117571314D01*
X124087456Y-117436177D01*
X124099211Y-117418417D01*
X124137708Y-117362150D01*
X124171063Y-117319377D01*
X124192360Y-117298928D01*
X124193033Y-117298631D01*
X124216071Y-117303021D01*
X124268357Y-117320424D01*
X124345590Y-117349032D01*
X124443468Y-117387035D01*
X124557691Y-117432626D01*
X124683958Y-117483997D01*
X124817967Y-117539338D01*
X124955418Y-117596842D01*
X125092008Y-117654699D01*
X125223437Y-117711102D01*
X125345405Y-117764242D01*
X125453609Y-117812310D01*
X125543749Y-117853499D01*
X125611523Y-117885999D01*
X125652630Y-117908003D01*
X125663426Y-117916864D01*
X125655019Y-117943940D01*
X125632472Y-117994603D01*
X125599813Y-118060117D01*
X125580720Y-118096141D01*
X125498000Y-118249132D01*
X125621275Y-118431388D01*
X125684428Y-118524425D01*
X125753927Y-118626285D01*
X125819365Y-118721738D01*
X125852317Y-118769550D01*
X125897473Y-118836795D01*
X125933257Y-118893736D01*
X125955138Y-118932946D01*
X125959763Y-118945681D01*
X125947285Y-118964217D01*
X125912452Y-119005241D01*
X125858878Y-119064775D01*
X125790183Y-119138842D01*
X125709981Y-119223465D01*
X125658486Y-119276985D01*
X125566486Y-119370619D01*
X125484199Y-119451541D01*
X125415145Y-119516477D01*
X125362844Y-119562158D01*
X125330816Y-119585311D01*
X125324316Y-119587532D01*
X125299594Y-119577224D01*
X125249605Y-119548739D01*
X125179412Y-119505237D01*
X125094075Y-119449877D01*
X124998656Y-119385820D01*
X124972054Y-119367603D01*
X124875367Y-119301227D01*
X124788317Y-119241678D01*
X124715795Y-119192284D01*
X124662693Y-119156375D01*
X124633903Y-119137281D01*
X124630926Y-119135436D01*
X124607982Y-119138195D01*
X124557536Y-119152838D01*
X124486241Y-119176813D01*
X124400747Y-119207566D01*
X124307707Y-119242544D01*
X124213774Y-119279193D01*
X124125599Y-119314961D01*
X124049834Y-119347294D01*
X123993131Y-119373638D01*
X123962143Y-119391442D01*
X123960657Y-119392707D01*
X123951801Y-119403594D01*
X123943043Y-119421982D01*
X123933477Y-119451906D01*
X123922196Y-119497403D01*
X123908293Y-119562509D01*
X123890863Y-119651261D01*
X123868998Y-119767693D01*
X123841791Y-119915842D01*
X123835941Y-119947918D01*
X123817574Y-120042986D01*
X123799605Y-120125865D01*
X123783769Y-120189230D01*
X123771800Y-120225758D01*
X123769010Y-120230656D01*
X123744272Y-120238727D01*
X123688990Y-120245287D01*
X123609589Y-120250333D01*
X123512496Y-120253859D01*
X123404138Y-120255861D01*
X123290940Y-120256336D01*
X123179328Y-120255277D01*
X123075729Y-120252682D01*
X122986568Y-120248546D01*
X122918272Y-120242863D01*
X122877266Y-120235631D01*
X122868874Y-120231271D01*
X122860408Y-120206998D01*
X122846635Y-120151726D01*
X122828750Y-120070962D01*
X122807948Y-119970212D01*
X122785423Y-119854983D01*
X122773618Y-119792202D01*
X122751351Y-119673087D01*
X122731179Y-119566865D01*
X122714115Y-119478727D01*
X122701169Y-119413866D01*
X122693355Y-119377474D01*
X122691622Y-119371484D01*
X122672090Y-119361361D01*
X122625043Y-119339962D01*
X122557203Y-119310139D01*
X122475291Y-119274745D01*
X122386028Y-119236632D01*
X122296135Y-119198653D01*
X122212335Y-119163660D01*
X122141347Y-119134506D01*
X122089894Y-119114043D01*
X122064697Y-119105123D01*
X122063596Y-119104957D01*
X122043719Y-119115069D01*
X121997977Y-119143417D01*
X121930917Y-119187023D01*
X121847084Y-119242906D01*
X121751026Y-119308087D01*
X121695850Y-119345979D01*
X121594681Y-119415025D01*
X121502830Y-119476350D01*
X121424944Y-119526963D01*
X121365669Y-119563871D01*
X121329651Y-119584082D01*
X121321577Y-119587001D01*
X121302784Y-119574453D01*
X121262657Y-119539763D01*
X121205693Y-119487363D01*
X121136385Y-119421684D01*
X121059231Y-119347156D01*
X120978725Y-119268213D01*
X120899363Y-119189283D01*
X120825640Y-119114800D01*
X120762052Y-119049194D01*
X120713094Y-118996896D01*
X120683261Y-118962339D01*
X120676142Y-118950778D01*
X120686153Y-118931954D01*
X120714278Y-118886931D01*
X120757654Y-118820087D01*
X120813418Y-118735799D01*
X120878706Y-118638444D01*
X120928446Y-118565007D01*
X121180751Y-118193967D01*
X120925755Y-117575395D01*
X120481131Y-117491575D01*
X120036507Y-117407754D01*
X120036507Y-116482306D01*
X120481131Y-116398486D01*
G37*
X120481131Y-116398486D02*
X120925755Y-116314665D01*
X121053253Y-116005380D01*
X121180751Y-115696094D01*
X120928446Y-115325054D01*
X120858196Y-115221143D01*
X120795472Y-115127213D01*
X120743138Y-115047648D01*
X120704057Y-114986830D01*
X120681093Y-114949143D01*
X120676142Y-114938879D01*
X120688876Y-114920390D01*
X120724082Y-114880880D01*
X120777262Y-114824778D01*
X120843918Y-114756513D01*
X120919554Y-114680514D01*
X120999672Y-114601208D01*
X121079774Y-114523025D01*
X121155364Y-114450393D01*
X121221945Y-114387741D01*
X121275018Y-114339497D01*
X121310087Y-114310090D01*
X121321823Y-114303059D01*
X121343460Y-114313177D01*
X121390862Y-114341541D01*
X121459393Y-114385171D01*
X121544415Y-114441082D01*
X121641293Y-114506294D01*
X121696550Y-114544081D01*
X121797448Y-114612957D01*
X121888499Y-114674160D01*
X121965170Y-114724722D01*
X122022928Y-114761672D01*
X122057243Y-114782042D01*
X122064454Y-114785103D01*
X122084948Y-114778164D01*
X122132713Y-114759249D01*
X122201032Y-114731213D01*
X122283189Y-114696909D01*
X122372470Y-114659191D01*
X122462158Y-114620913D01*
X122545538Y-114584930D01*
X122615894Y-114554094D01*
X122666510Y-114531261D01*
X122690671Y-114519283D01*
X122691622Y-114518576D01*
X122696236Y-114499769D01*
X122706528Y-114449682D01*
X122721487Y-114373507D01*
X122740101Y-114276435D01*
X122761359Y-114163657D01*
X122773618Y-114097858D01*
X122796562Y-113977350D01*
X122818395Y-113868503D01*
X122837922Y-113776824D01*
X122853948Y-113707819D01*
X122865279Y-113666996D01*
X122868874Y-113658789D01*
X122893206Y-113650752D01*
X122948159Y-113644267D01*
X123027308Y-113639330D01*
X123124226Y-113635936D01*
X123232487Y-113634082D01*
X123345665Y-113633762D01*
X123457335Y-113634973D01*
X123561068Y-113637710D01*
X123650441Y-113641969D01*
X123719026Y-113647745D01*
X123760397Y-113655033D01*
X123769010Y-113659405D01*
X123779333Y-113685536D01*
X123794092Y-113740907D01*
X123811552Y-113818193D01*
X123829980Y-113910070D01*
X123835941Y-113942142D01*
X123864266Y-114096776D01*
X123887076Y-114218925D01*
X123905280Y-114312627D01*
X123919783Y-114381916D01*
X123931492Y-114430829D01*
X123941315Y-114463403D01*
X123950156Y-114483672D01*
X123958924Y-114495674D01*
X123960657Y-114497353D01*
X123988571Y-114514116D01*
X124042895Y-114539686D01*
X124116977Y-114571512D01*
X124204165Y-114607040D01*
X124297808Y-114643717D01*
X124391252Y-114678989D01*
X124477847Y-114710304D01*
X124550940Y-114735107D01*
X124603878Y-114750846D01*
X124630011Y-114754968D01*
X124630926Y-114754624D01*
X124652286Y-114740659D01*
X124699284Y-114708978D01*
X124767027Y-114662909D01*
X124850623Y-114605782D01*
X124945182Y-114540927D01*
X124972054Y-114522457D01*
X125069475Y-114456601D01*
X125158363Y-114398650D01*
X125233612Y-114351762D01*
X125290120Y-114319093D01*
X125322781Y-114303800D01*
X125326793Y-114303059D01*
X125347884Y-114315908D01*
X125389664Y-114351412D01*
X125447645Y-114405007D01*
X125517335Y-114472129D01*
X125594245Y-114548213D01*
X125673883Y-114628696D01*
X125751761Y-114709013D01*
X125823386Y-114784601D01*
X125884270Y-114850895D01*
X125929921Y-114903331D01*
X125955850Y-114937345D01*
X125960083Y-114946755D01*
X125950112Y-114968657D01*
X125923220Y-115013500D01*
X125883936Y-115073979D01*
X125852317Y-115120511D01*
X125794298Y-115204825D01*
X125725984Y-115304674D01*
X125657779Y-115404827D01*
X125621275Y-115458673D01*
X125498000Y-115640929D01*
X125580720Y-115793919D01*
X125616959Y-115863618D01*
X125645126Y-115922886D01*
X125661191Y-115962989D01*
X125663426Y-115973197D01*
X125646922Y-115985471D01*
X125600282Y-116009687D01*
X125527809Y-116044037D01*
X125433806Y-116086712D01*
X125322574Y-116135906D01*
X125198415Y-116189810D01*
X125065632Y-116246616D01*
X124928527Y-116304518D01*
X124791402Y-116361707D01*
X124658558Y-116416376D01*
X124534298Y-116466716D01*
X124422925Y-116510920D01*
X124328739Y-116547181D01*
X124256044Y-116573691D01*
X124209141Y-116588642D01*
X124193033Y-116591046D01*
X124172486Y-116571989D01*
X124139133Y-116530264D01*
X124099902Y-116474594D01*
X124096799Y-116469922D01*
X123981623Y-116326036D01*
X123847253Y-116210017D01*
X123697984Y-116122870D01*
X123538113Y-116065601D01*
X123371937Y-116039214D01*
X123203752Y-116044715D01*
X123037855Y-116083110D01*
X122878542Y-116155405D01*
X122843687Y-116176674D01*
X122702937Y-116287304D01*
X122589914Y-116417998D01*
X122505203Y-116564236D01*
X122449394Y-116721492D01*
X122423074Y-116885243D01*
X122426830Y-117050967D01*
X122461250Y-117214138D01*
X122526923Y-117370235D01*
X122624435Y-117514733D01*
X122664013Y-117559431D01*
X122787903Y-117673188D01*
X122918324Y-117756082D01*
X123064515Y-117812944D01*
X123209288Y-117844613D01*
X123372060Y-117852431D01*
X123535640Y-117826362D01*
X123694498Y-117769055D01*
X123843106Y-117683156D01*
X123975935Y-117571314D01*
X124087456Y-117436177D01*
X124099211Y-117418417D01*
X124137708Y-117362150D01*
X124171063Y-117319377D01*
X124192360Y-117298928D01*
X124193033Y-117298631D01*
X124216071Y-117303021D01*
X124268357Y-117320424D01*
X124345590Y-117349032D01*
X124443468Y-117387035D01*
X124557691Y-117432626D01*
X124683958Y-117483997D01*
X124817967Y-117539338D01*
X124955418Y-117596842D01*
X125092008Y-117654699D01*
X125223437Y-117711102D01*
X125345405Y-117764242D01*
X125453609Y-117812310D01*
X125543749Y-117853499D01*
X125611523Y-117885999D01*
X125652630Y-117908003D01*
X125663426Y-117916864D01*
X125655019Y-117943940D01*
X125632472Y-117994603D01*
X125599813Y-118060117D01*
X125580720Y-118096141D01*
X125498000Y-118249132D01*
X125621275Y-118431388D01*
X125684428Y-118524425D01*
X125753927Y-118626285D01*
X125819365Y-118721738D01*
X125852317Y-118769550D01*
X125897473Y-118836795D01*
X125933257Y-118893736D01*
X125955138Y-118932946D01*
X125959763Y-118945681D01*
X125947285Y-118964217D01*
X125912452Y-119005241D01*
X125858878Y-119064775D01*
X125790183Y-119138842D01*
X125709981Y-119223465D01*
X125658486Y-119276985D01*
X125566486Y-119370619D01*
X125484199Y-119451541D01*
X125415145Y-119516477D01*
X125362844Y-119562158D01*
X125330816Y-119585311D01*
X125324316Y-119587532D01*
X125299594Y-119577224D01*
X125249605Y-119548739D01*
X125179412Y-119505237D01*
X125094075Y-119449877D01*
X124998656Y-119385820D01*
X124972054Y-119367603D01*
X124875367Y-119301227D01*
X124788317Y-119241678D01*
X124715795Y-119192284D01*
X124662693Y-119156375D01*
X124633903Y-119137281D01*
X124630926Y-119135436D01*
X124607982Y-119138195D01*
X124557536Y-119152838D01*
X124486241Y-119176813D01*
X124400747Y-119207566D01*
X124307707Y-119242544D01*
X124213774Y-119279193D01*
X124125599Y-119314961D01*
X124049834Y-119347294D01*
X123993131Y-119373638D01*
X123962143Y-119391442D01*
X123960657Y-119392707D01*
X123951801Y-119403594D01*
X123943043Y-119421982D01*
X123933477Y-119451906D01*
X123922196Y-119497403D01*
X123908293Y-119562509D01*
X123890863Y-119651261D01*
X123868998Y-119767693D01*
X123841791Y-119915842D01*
X123835941Y-119947918D01*
X123817574Y-120042986D01*
X123799605Y-120125865D01*
X123783769Y-120189230D01*
X123771800Y-120225758D01*
X123769010Y-120230656D01*
X123744272Y-120238727D01*
X123688990Y-120245287D01*
X123609589Y-120250333D01*
X123512496Y-120253859D01*
X123404138Y-120255861D01*
X123290940Y-120256336D01*
X123179328Y-120255277D01*
X123075729Y-120252682D01*
X122986568Y-120248546D01*
X122918272Y-120242863D01*
X122877266Y-120235631D01*
X122868874Y-120231271D01*
X122860408Y-120206998D01*
X122846635Y-120151726D01*
X122828750Y-120070962D01*
X122807948Y-119970212D01*
X122785423Y-119854983D01*
X122773618Y-119792202D01*
X122751351Y-119673087D01*
X122731179Y-119566865D01*
X122714115Y-119478727D01*
X122701169Y-119413866D01*
X122693355Y-119377474D01*
X122691622Y-119371484D01*
X122672090Y-119361361D01*
X122625043Y-119339962D01*
X122557203Y-119310139D01*
X122475291Y-119274745D01*
X122386028Y-119236632D01*
X122296135Y-119198653D01*
X122212335Y-119163660D01*
X122141347Y-119134506D01*
X122089894Y-119114043D01*
X122064697Y-119105123D01*
X122063596Y-119104957D01*
X122043719Y-119115069D01*
X121997977Y-119143417D01*
X121930917Y-119187023D01*
X121847084Y-119242906D01*
X121751026Y-119308087D01*
X121695850Y-119345979D01*
X121594681Y-119415025D01*
X121502830Y-119476350D01*
X121424944Y-119526963D01*
X121365669Y-119563871D01*
X121329651Y-119584082D01*
X121321577Y-119587001D01*
X121302784Y-119574453D01*
X121262657Y-119539763D01*
X121205693Y-119487363D01*
X121136385Y-119421684D01*
X121059231Y-119347156D01*
X120978725Y-119268213D01*
X120899363Y-119189283D01*
X120825640Y-119114800D01*
X120762052Y-119049194D01*
X120713094Y-118996896D01*
X120683261Y-118962339D01*
X120676142Y-118950778D01*
X120686153Y-118931954D01*
X120714278Y-118886931D01*
X120757654Y-118820087D01*
X120813418Y-118735799D01*
X120878706Y-118638444D01*
X120928446Y-118565007D01*
X121180751Y-118193967D01*
X120925755Y-117575395D01*
X120481131Y-117491575D01*
X120036507Y-117407754D01*
X120036507Y-116482306D01*
X120481131Y-116398486D01*
D10*
X166711380Y-108067433D02*
X167425666Y-108067433D01*
X167568523Y-108115052D01*
X167663761Y-108210290D01*
X167711380Y-108353147D01*
X167711380Y-108448385D01*
X167711380Y-107067433D02*
X167711380Y-107638861D01*
X167711380Y-107353147D02*
X166711380Y-107353147D01*
X166854238Y-107448385D01*
X166949476Y-107543623D01*
X166997095Y-107638861D01*
X121182380Y-128643333D02*
X121896666Y-128643333D01*
X122039523Y-128690952D01*
X122134761Y-128786190D01*
X122182380Y-128929047D01*
X122182380Y-129024285D01*
X121515714Y-127738571D02*
X122182380Y-127738571D01*
X121134761Y-127976666D02*
X121849047Y-128214761D01*
X121849047Y-127595714D01*
X121182380Y-105783333D02*
X121896666Y-105783333D01*
X122039523Y-105830952D01*
X122134761Y-105926190D01*
X122182380Y-106069047D01*
X122182380Y-106164285D01*
X121182380Y-105402380D02*
X121182380Y-104783333D01*
X121563333Y-105116666D01*
X121563333Y-104973809D01*
X121610952Y-104878571D01*
X121658571Y-104830952D01*
X121753809Y-104783333D01*
X121991904Y-104783333D01*
X122087142Y-104830952D01*
X122134761Y-104878571D01*
X122182380Y-104973809D01*
X122182380Y-105259523D01*
X122134761Y-105354761D01*
X122087142Y-105402380D01*
X111252380Y-131413333D02*
X111966666Y-131413333D01*
X112109523Y-131460952D01*
X112204761Y-131556190D01*
X112252380Y-131699047D01*
X112252380Y-131794285D01*
X111252380Y-130460952D02*
X111252380Y-130937142D01*
X111728571Y-130984761D01*
X111680952Y-130937142D01*
X111633333Y-130841904D01*
X111633333Y-130603809D01*
X111680952Y-130508571D01*
X111728571Y-130460952D01*
X111823809Y-130413333D01*
X112061904Y-130413333D01*
X112157142Y-130460952D01*
X112204761Y-130508571D01*
X112252380Y-130603809D01*
X112252380Y-130841904D01*
X112204761Y-130937142D01*
X112157142Y-130984761D01*
X134112380Y-131413333D02*
X134826666Y-131413333D01*
X134969523Y-131460952D01*
X135064761Y-131556190D01*
X135112380Y-131699047D01*
X135112380Y-131794285D01*
X134112380Y-130508571D02*
X134112380Y-130699047D01*
X134160000Y-130794285D01*
X134207619Y-130841904D01*
X134350476Y-130937142D01*
X134540952Y-130984761D01*
X134921904Y-130984761D01*
X135017142Y-130937142D01*
X135064761Y-130889523D01*
X135112380Y-130794285D01*
X135112380Y-130603809D01*
X135064761Y-130508571D01*
X135017142Y-130460952D01*
X134921904Y-130413333D01*
X134683809Y-130413333D01*
X134588571Y-130460952D01*
X134540952Y-130508571D01*
X134493333Y-130603809D01*
X134493333Y-130794285D01*
X134540952Y-130889523D01*
X134588571Y-130937142D01*
X134683809Y-130984761D01*
X166470080Y-141536933D02*
X167184366Y-141536933D01*
X167327223Y-141584552D01*
X167422461Y-141679790D01*
X167470080Y-141822647D01*
X167470080Y-141917885D01*
X166565319Y-141108361D02*
X166517700Y-141060742D01*
X166470080Y-140965504D01*
X166470080Y-140727409D01*
X166517700Y-140632171D01*
X166565319Y-140584552D01*
X166660557Y-140536933D01*
X166755795Y-140536933D01*
X166898652Y-140584552D01*
X167470080Y-141155980D01*
X167470080Y-140536933D01*
%LPC*%
D14*
X162600000Y-125770000D03*
X162600000Y-123230000D03*
D15*
X144820000Y-102910000D03*
X144820000Y-105450000D03*
X144820000Y-107990000D03*
X144820000Y-110530000D03*
X142280000Y-110530000D03*
X139740000Y-110530000D03*
X139740000Y-113070000D03*
X139740000Y-115610000D03*
X139740000Y-118150000D03*
X139740000Y-120690000D03*
X139740000Y-123230000D03*
X142280000Y-123230000D03*
X144820000Y-123230000D03*
X147360000Y-130850000D03*
X147360000Y-128310000D03*
X147360000Y-125770000D03*
X147360000Y-123230000D03*
X106720000Y-133390000D03*
X109260000Y-133390000D03*
X111800000Y-133390000D03*
X114340000Y-133390000D03*
X116880000Y-133390000D03*
X119420000Y-133390000D03*
X121960000Y-133390000D03*
X124500000Y-133390000D03*
X127040000Y-133390000D03*
X129580000Y-133390000D03*
X132120000Y-133390000D03*
X134660000Y-133390000D03*
X137200000Y-133390000D03*
X139740000Y-133390000D03*
X142280000Y-133390000D03*
X144820000Y-133390000D03*
X147360000Y-133390000D03*
X106720000Y-135930000D03*
X116880000Y-146090000D03*
X119420000Y-146090000D03*
X116880000Y-143550000D03*
X119420000Y-143550000D03*
X116880000Y-141010000D03*
X119420000Y-141010000D03*
X116880000Y-138470000D03*
X119420000Y-138470000D03*
X109260000Y-135930000D03*
X111800000Y-135930000D03*
X114340000Y-135930000D03*
X116880000Y-135930000D03*
X119420000Y-135930000D03*
X121960000Y-146090000D03*
X124500000Y-146090000D03*
X127040000Y-146090000D03*
X129580000Y-146090000D03*
X132120000Y-146090000D03*
X134660000Y-146090000D03*
X137200000Y-146090000D03*
X139740000Y-146090000D03*
X142280000Y-146090000D03*
X121960000Y-143550000D03*
X124500000Y-143550000D03*
X127040000Y-143550000D03*
X129580000Y-143550000D03*
X132120000Y-143550000D03*
X134660000Y-143550000D03*
X137200000Y-143550000D03*
X139740000Y-143550000D03*
X142280000Y-143550000D03*
X121960000Y-141010000D03*
X124500000Y-141010000D03*
X127040000Y-141010000D03*
X129580000Y-141010000D03*
X132120000Y-141010000D03*
X134660000Y-141010000D03*
X137200000Y-141010000D03*
X139740000Y-141010000D03*
X142280000Y-141010000D03*
X121960000Y-138470000D03*
X124500000Y-138470000D03*
X127040000Y-138470000D03*
X129580000Y-138470000D03*
X132120000Y-138470000D03*
X134660000Y-138470000D03*
X137200000Y-138470000D03*
X139740000Y-138470000D03*
X142280000Y-138470000D03*
X121960000Y-135930000D03*
X124500000Y-135930000D03*
X127040000Y-135930000D03*
X129580000Y-135930000D03*
X132120000Y-135930000D03*
X134660000Y-135930000D03*
X137200000Y-135930000D03*
X139740000Y-135930000D03*
X142280000Y-135930000D03*
X144820000Y-146090000D03*
X144820000Y-143550000D03*
X144820000Y-141010000D03*
X144820000Y-138470000D03*
X144820000Y-135930000D03*
X142280000Y-120690000D03*
X142280000Y-118150000D03*
X142280000Y-115610000D03*
X142280000Y-113070000D03*
X144820000Y-120690000D03*
X144820000Y-118150000D03*
X144820000Y-115610000D03*
X144820000Y-113070000D03*
X157520000Y-146090000D03*
X157520000Y-143550000D03*
X157520000Y-141010000D03*
X157520000Y-138470000D03*
X157520000Y-135930000D03*
X157520000Y-133390000D03*
X157520000Y-130850000D03*
X157520000Y-128310000D03*
X157520000Y-125770000D03*
X157520000Y-123230000D03*
X157520000Y-120690000D03*
X157520000Y-118150000D03*
X157520000Y-115610000D03*
X157520000Y-113070000D03*
X157520000Y-110530000D03*
X157520000Y-107990000D03*
X157520000Y-105450000D03*
X157520000Y-102910000D03*
X154980000Y-146090000D03*
X154980000Y-143550000D03*
X154980000Y-141010000D03*
X154980000Y-138470000D03*
X154980000Y-135930000D03*
X154980000Y-133390000D03*
X154980000Y-130850000D03*
X154980000Y-128310000D03*
X154980000Y-125770000D03*
X154980000Y-123230000D03*
X154980000Y-120690000D03*
X154980000Y-118150000D03*
X154980000Y-115610000D03*
X154980000Y-113070000D03*
X154980000Y-110530000D03*
X154980000Y-107990000D03*
X154980000Y-105450000D03*
X154980000Y-102910000D03*
X152440000Y-146090000D03*
X152440000Y-143550000D03*
X152440000Y-141010000D03*
X152440000Y-138470000D03*
X152440000Y-135930000D03*
X152440000Y-133390000D03*
X152440000Y-130850000D03*
X152440000Y-128310000D03*
X152440000Y-125770000D03*
X152440000Y-123230000D03*
X152440000Y-120690000D03*
X152440000Y-118150000D03*
X152440000Y-115610000D03*
X152440000Y-113070000D03*
X152440000Y-110530000D03*
X152440000Y-107990000D03*
X152440000Y-105450000D03*
X152440000Y-102910000D03*
X149900000Y-146090000D03*
X149900000Y-143550000D03*
X149900000Y-141010000D03*
X149900000Y-138470000D03*
X149900000Y-135930000D03*
X149900000Y-133390000D03*
X149900000Y-130850000D03*
X149900000Y-128310000D03*
X149900000Y-125770000D03*
X149900000Y-123230000D03*
X149900000Y-120690000D03*
X149900000Y-118150000D03*
X149900000Y-115610000D03*
X149900000Y-113070000D03*
X149900000Y-110530000D03*
X149900000Y-107990000D03*
X149900000Y-105450000D03*
X149900000Y-102910000D03*
X147360000Y-146090000D03*
X147360000Y-143550000D03*
X147360000Y-141010000D03*
X147360000Y-138470000D03*
X147360000Y-135930000D03*
X147360000Y-120690000D03*
X147360000Y-118150000D03*
X147360000Y-115610000D03*
X147360000Y-113070000D03*
X147360000Y-110530000D03*
X147360000Y-107990000D03*
X147360000Y-105450000D03*
X147360000Y-102910000D03*
D16*
X167000000Y-111200000D03*
X167000000Y-114700000D03*
D17*
X167000000Y-118200000D03*
D15*
X160060000Y-114700000D03*
X160060000Y-137800000D03*
X160060000Y-134300000D03*
X160060000Y-130800000D03*
X160060000Y-118200000D03*
X160060000Y-111200000D03*
X137200000Y-130850000D03*
X132120000Y-130850000D03*
X144820000Y-130850000D03*
X142280000Y-130850000D03*
X139740000Y-130850000D03*
X144820000Y-125770000D03*
X142280000Y-125770000D03*
X139740000Y-125770000D03*
X129580000Y-130850000D03*
X127040000Y-130850000D03*
X124500000Y-130850000D03*
X121960000Y-130850000D03*
X121960000Y-125770000D03*
X124500000Y-125770000D03*
X127040000Y-125770000D03*
X129580000Y-125770000D03*
X137200000Y-125770000D03*
X137200000Y-123230000D03*
X137200000Y-120690000D03*
X137200000Y-118150000D03*
X137200000Y-115610000D03*
X137200000Y-113070000D03*
X137200000Y-110530000D03*
X132120000Y-125770000D03*
X132120000Y-123249100D03*
X132120000Y-120690000D03*
X132120000Y-118150000D03*
X132120000Y-115610000D03*
X132120000Y-113070000D03*
X132120000Y-110530000D03*
X114340000Y-110530000D03*
X114340000Y-113070000D03*
X114340000Y-115610000D03*
X114340000Y-118150000D03*
X114340000Y-120690000D03*
X114340000Y-123230000D03*
X114340000Y-125770000D03*
X114340000Y-128310000D03*
X109260000Y-110530000D03*
X109260000Y-113070000D03*
X109260000Y-115610000D03*
X109260000Y-118150000D03*
X109260000Y-120690000D03*
X109260000Y-123230000D03*
X109260000Y-125770000D03*
X109260000Y-128310000D03*
X142280000Y-107990000D03*
X139740000Y-107990000D03*
X137200000Y-107990000D03*
X134660000Y-107990000D03*
X132120000Y-107990000D03*
X129580000Y-107990000D03*
X127040000Y-107990000D03*
X124500000Y-107990000D03*
X142280000Y-102910000D03*
X139740000Y-102910000D03*
X137200000Y-102910000D03*
X134660000Y-102910000D03*
X132120000Y-102910000D03*
X129580000Y-102910000D03*
X127040000Y-102910000D03*
X124500000Y-102910000D03*
D18*
X142280000Y-128310000D03*
X139740000Y-128310000D03*
X137200000Y-128310000D03*
X134660000Y-128310000D03*
X132120000Y-128310000D03*
X129580000Y-128310000D03*
X127040000Y-128310000D03*
D19*
X124500000Y-128310000D03*
D18*
X142280000Y-105450000D03*
X139740000Y-105450000D03*
X137200000Y-105450000D03*
X134660000Y-105450000D03*
X132120000Y-105450000D03*
X129580000Y-105450000D03*
X127040000Y-105450000D03*
D19*
X124500000Y-105450000D03*
D18*
X111800000Y-110530000D03*
X111800000Y-113070000D03*
X111800000Y-115610000D03*
X111800000Y-118150000D03*
X111800000Y-120690000D03*
X111800000Y-123230000D03*
X111800000Y-125770000D03*
D19*
X111800000Y-128310000D03*
D18*
X134660000Y-110530000D03*
X134660000Y-113070000D03*
X134660000Y-115610000D03*
X134660000Y-118150000D03*
X134660000Y-120690000D03*
X134660000Y-123230000D03*
X134660000Y-125770000D03*
D19*
X134660000Y-128310000D03*
D16*
X167000000Y-130800000D03*
X167000000Y-134300000D03*
D17*
X167000000Y-137800000D03*
D20*
X162500000Y-144500000D03*
X112500000Y-104500000D03*
X105500000Y-124500000D03*
X112500000Y-144500000D03*
X162500000Y-104500000D03*
X169500000Y-124500000D03*
M02*
