G04 #@! TF.GenerationSoftware,KiCad,Pcbnew,5.1.5+dfsg1-2build2*
G04 #@! TF.CreationDate,2021-11-15T16:56:08-05:00*
G04 #@! TF.ProjectId,ESP32CAM_BREAKOUT_FOR_WATERPROOF_ENCLOSURE,45535033-3243-4414-9d5f-425245414b4f,rev?*
G04 #@! TF.SameCoordinates,Original*
G04 #@! TF.FileFunction,Copper,L1,Top*
G04 #@! TF.FilePolarity,Positive*
%FSLAX46Y46*%
G04 Gerber Fmt 4.6, Leading zero omitted, Abs format (unit mm)*
G04 Created by KiCad (PCBNEW 5.1.5+dfsg1-2build2) date 2021-11-15 16:56:08*
%MOMM*%
%LPD*%
G04 APERTURE LIST*
%ADD10C,1.998980*%
%ADD11C,2.000000*%
%ADD12C,2.400000*%
%ADD13R,2.400000X2.400000*%
%ADD14O,1.700000X1.700000*%
%ADD15R,1.700000X1.700000*%
%ADD16C,0.500000*%
%ADD17C,0.254000*%
G04 APERTURE END LIST*
D10*
X162600000Y-125770000D03*
X162600000Y-123230000D03*
D11*
X144820000Y-102910000D03*
X144820000Y-105450000D03*
X144820000Y-107990000D03*
X144820000Y-110530000D03*
X142280000Y-110530000D03*
X139740000Y-110530000D03*
X139740000Y-113070000D03*
X139740000Y-115610000D03*
X139740000Y-118150000D03*
X139740000Y-120690000D03*
X139740000Y-123230000D03*
X142280000Y-123230000D03*
X144820000Y-123230000D03*
X147360000Y-130850000D03*
X147360000Y-128310000D03*
X147360000Y-125770000D03*
X147360000Y-123230000D03*
X106720000Y-133390000D03*
X109260000Y-133390000D03*
X111800000Y-133390000D03*
X114340000Y-133390000D03*
X116880000Y-133390000D03*
X119420000Y-133390000D03*
X121960000Y-133390000D03*
X124500000Y-133390000D03*
X127040000Y-133390000D03*
X129580000Y-133390000D03*
X132120000Y-133390000D03*
X134660000Y-133390000D03*
X137200000Y-133390000D03*
X139740000Y-133390000D03*
X142280000Y-133390000D03*
X144820000Y-133390000D03*
X147360000Y-133390000D03*
X106720000Y-135930000D03*
X116880000Y-146090000D03*
X119420000Y-146090000D03*
X116880000Y-143550000D03*
X119420000Y-143550000D03*
X116880000Y-141010000D03*
X119420000Y-141010000D03*
X116880000Y-138470000D03*
X119420000Y-138470000D03*
X109260000Y-135930000D03*
X111800000Y-135930000D03*
X114340000Y-135930000D03*
X116880000Y-135930000D03*
X119420000Y-135930000D03*
X121960000Y-146090000D03*
X124500000Y-146090000D03*
X127040000Y-146090000D03*
X129580000Y-146090000D03*
X132120000Y-146090000D03*
X134660000Y-146090000D03*
X137200000Y-146090000D03*
X139740000Y-146090000D03*
X142280000Y-146090000D03*
X121960000Y-143550000D03*
X124500000Y-143550000D03*
X127040000Y-143550000D03*
X129580000Y-143550000D03*
X132120000Y-143550000D03*
X134660000Y-143550000D03*
X137200000Y-143550000D03*
X139740000Y-143550000D03*
X142280000Y-143550000D03*
X121960000Y-141010000D03*
X124500000Y-141010000D03*
X127040000Y-141010000D03*
X129580000Y-141010000D03*
X132120000Y-141010000D03*
X134660000Y-141010000D03*
X137200000Y-141010000D03*
X139740000Y-141010000D03*
X142280000Y-141010000D03*
X121960000Y-138470000D03*
X124500000Y-138470000D03*
X127040000Y-138470000D03*
X129580000Y-138470000D03*
X132120000Y-138470000D03*
X134660000Y-138470000D03*
X137200000Y-138470000D03*
X139740000Y-138470000D03*
X142280000Y-138470000D03*
X121960000Y-135930000D03*
X124500000Y-135930000D03*
X127040000Y-135930000D03*
X129580000Y-135930000D03*
X132120000Y-135930000D03*
X134660000Y-135930000D03*
X137200000Y-135930000D03*
X139740000Y-135930000D03*
X142280000Y-135930000D03*
X144820000Y-146090000D03*
X144820000Y-143550000D03*
X144820000Y-141010000D03*
X144820000Y-138470000D03*
X144820000Y-135930000D03*
X142280000Y-120690000D03*
X142280000Y-118150000D03*
X142280000Y-115610000D03*
X142280000Y-113070000D03*
X144820000Y-120690000D03*
X144820000Y-118150000D03*
X144820000Y-115610000D03*
X144820000Y-113070000D03*
X157520000Y-146090000D03*
X157520000Y-143550000D03*
X157520000Y-141010000D03*
X157520000Y-138470000D03*
X157520000Y-135930000D03*
X157520000Y-133390000D03*
X157520000Y-130850000D03*
X157520000Y-128310000D03*
X157520000Y-125770000D03*
X157520000Y-123230000D03*
X157520000Y-120690000D03*
X157520000Y-118150000D03*
X157520000Y-115610000D03*
X157520000Y-113070000D03*
X157520000Y-110530000D03*
X157520000Y-107990000D03*
X157520000Y-105450000D03*
X157520000Y-102910000D03*
X154980000Y-146090000D03*
X154980000Y-143550000D03*
X154980000Y-141010000D03*
X154980000Y-138470000D03*
X154980000Y-135930000D03*
X154980000Y-133390000D03*
X154980000Y-130850000D03*
X154980000Y-128310000D03*
X154980000Y-125770000D03*
X154980000Y-123230000D03*
X154980000Y-120690000D03*
X154980000Y-118150000D03*
X154980000Y-115610000D03*
X154980000Y-113070000D03*
X154980000Y-110530000D03*
X154980000Y-107990000D03*
X154980000Y-105450000D03*
X154980000Y-102910000D03*
X152440000Y-146090000D03*
X152440000Y-143550000D03*
X152440000Y-141010000D03*
X152440000Y-138470000D03*
X152440000Y-135930000D03*
X152440000Y-133390000D03*
X152440000Y-130850000D03*
X152440000Y-128310000D03*
X152440000Y-125770000D03*
X152440000Y-123230000D03*
X152440000Y-120690000D03*
X152440000Y-118150000D03*
X152440000Y-115610000D03*
X152440000Y-113070000D03*
X152440000Y-110530000D03*
X152440000Y-107990000D03*
X152440000Y-105450000D03*
X152440000Y-102910000D03*
X149900000Y-146090000D03*
X149900000Y-143550000D03*
X149900000Y-141010000D03*
X149900000Y-138470000D03*
X149900000Y-135930000D03*
X149900000Y-133390000D03*
X149900000Y-130850000D03*
X149900000Y-128310000D03*
X149900000Y-125770000D03*
X149900000Y-123230000D03*
X149900000Y-120690000D03*
X149900000Y-118150000D03*
X149900000Y-115610000D03*
X149900000Y-113070000D03*
X149900000Y-110530000D03*
X149900000Y-107990000D03*
X149900000Y-105450000D03*
X149900000Y-102910000D03*
X147360000Y-146090000D03*
X147360000Y-143550000D03*
X147360000Y-141010000D03*
X147360000Y-138470000D03*
X147360000Y-135930000D03*
X147360000Y-120690000D03*
X147360000Y-118150000D03*
X147360000Y-115610000D03*
X147360000Y-113070000D03*
X147360000Y-110530000D03*
X147360000Y-107990000D03*
X147360000Y-105450000D03*
X147360000Y-102910000D03*
D12*
X167000000Y-111200000D03*
X167000000Y-114700000D03*
D13*
X167000000Y-118200000D03*
D11*
X160060000Y-114700000D03*
X160060000Y-137800000D03*
X160060000Y-134300000D03*
X160060000Y-130800000D03*
X160060000Y-118200000D03*
X160060000Y-111200000D03*
X137200000Y-130850000D03*
X132120000Y-130850000D03*
X144820000Y-130850000D03*
X142280000Y-130850000D03*
X139740000Y-130850000D03*
X144820000Y-125770000D03*
X142280000Y-125770000D03*
X139740000Y-125770000D03*
X129580000Y-130850000D03*
X127040000Y-130850000D03*
X124500000Y-130850000D03*
X121960000Y-130850000D03*
X121960000Y-125770000D03*
X124500000Y-125770000D03*
X127040000Y-125770000D03*
X129580000Y-125770000D03*
X137200000Y-125770000D03*
X137200000Y-123230000D03*
X137200000Y-120690000D03*
X137200000Y-118150000D03*
X137200000Y-115610000D03*
X137200000Y-113070000D03*
X137200000Y-110530000D03*
X132120000Y-125770000D03*
X132120000Y-123249100D03*
X132120000Y-120690000D03*
X132120000Y-118150000D03*
X132120000Y-115610000D03*
X132120000Y-113070000D03*
X132120000Y-110530000D03*
X114340000Y-110530000D03*
X114340000Y-113070000D03*
X114340000Y-115610000D03*
X114340000Y-118150000D03*
X114340000Y-120690000D03*
X114340000Y-123230000D03*
X114340000Y-125770000D03*
X114340000Y-128310000D03*
X109260000Y-110530000D03*
X109260000Y-113070000D03*
X109260000Y-115610000D03*
X109260000Y-118150000D03*
X109260000Y-120690000D03*
X109260000Y-123230000D03*
X109260000Y-125770000D03*
X109260000Y-128310000D03*
X142280000Y-107990000D03*
X139740000Y-107990000D03*
X137200000Y-107990000D03*
X134660000Y-107990000D03*
X132120000Y-107990000D03*
X129580000Y-107990000D03*
X127040000Y-107990000D03*
X124500000Y-107990000D03*
X142280000Y-102910000D03*
X139740000Y-102910000D03*
X137200000Y-102910000D03*
X134660000Y-102910000D03*
X132120000Y-102910000D03*
X129580000Y-102910000D03*
X127040000Y-102910000D03*
X124500000Y-102910000D03*
D14*
X142280000Y-128310000D03*
X139740000Y-128310000D03*
X137200000Y-128310000D03*
X134660000Y-128310000D03*
X132120000Y-128310000D03*
X129580000Y-128310000D03*
X127040000Y-128310000D03*
D15*
X124500000Y-128310000D03*
D14*
X142280000Y-105450000D03*
X139740000Y-105450000D03*
X137200000Y-105450000D03*
X134660000Y-105450000D03*
X132120000Y-105450000D03*
X129580000Y-105450000D03*
X127040000Y-105450000D03*
D15*
X124500000Y-105450000D03*
D14*
X111800000Y-110530000D03*
X111800000Y-113070000D03*
X111800000Y-115610000D03*
X111800000Y-118150000D03*
X111800000Y-120690000D03*
X111800000Y-123230000D03*
X111800000Y-125770000D03*
D15*
X111800000Y-128310000D03*
D14*
X134660000Y-110530000D03*
X134660000Y-113070000D03*
X134660000Y-115610000D03*
X134660000Y-118150000D03*
X134660000Y-120690000D03*
X134660000Y-123230000D03*
X134660000Y-125770000D03*
D15*
X134660000Y-128310000D03*
D12*
X167000000Y-130800000D03*
X167000000Y-134300000D03*
D13*
X167000000Y-137800000D03*
D16*
X106720000Y-133390000D02*
X109260000Y-133390000D01*
X109260000Y-133390000D02*
X111800000Y-133390000D01*
X111800000Y-133390000D02*
X114340000Y-133390000D01*
X114340000Y-133390000D02*
X116880000Y-133390000D01*
X116880000Y-133390000D02*
X119420000Y-133390000D01*
X121960000Y-133390000D02*
X119420000Y-133390000D01*
X121960000Y-133390000D02*
X124500000Y-133390000D01*
X124500000Y-133390000D02*
X127040000Y-133390000D01*
X127040000Y-133390000D02*
X129580000Y-133390000D01*
X129580000Y-133390000D02*
X132120000Y-133390000D01*
X132120000Y-133390000D02*
X134660000Y-133390000D01*
X134660000Y-133390000D02*
X137200000Y-133390000D01*
X137200000Y-133390000D02*
X139740000Y-133390000D01*
X139740000Y-133390000D02*
X142280000Y-133390000D01*
X142280000Y-133390000D02*
X144820000Y-133390000D01*
X144820000Y-133390000D02*
X147360000Y-133390000D01*
X147360000Y-133390000D02*
X149900000Y-133390000D01*
X149900000Y-133390000D02*
X152440000Y-133390000D01*
X152440000Y-133390000D02*
X154980000Y-133390000D01*
X154980000Y-133390000D02*
X157520000Y-133390000D01*
X106720000Y-135930000D02*
X109260000Y-135930000D01*
X109260000Y-135930000D02*
X111800000Y-135930000D01*
X111800000Y-135930000D02*
X114340000Y-135930000D01*
X114340000Y-135930000D02*
X116880000Y-135930000D01*
X116880000Y-135930000D02*
X119420000Y-135930000D01*
X119420000Y-135930000D02*
X121960000Y-135930000D01*
X121960000Y-135930000D02*
X124500000Y-135930000D01*
X124500000Y-135930000D02*
X127040000Y-135930000D01*
X127040000Y-135930000D02*
X129580000Y-135930000D01*
X129580000Y-135930000D02*
X132120000Y-135930000D01*
X132120000Y-135930000D02*
X134660000Y-135930000D01*
X134660000Y-135930000D02*
X137200000Y-135930000D01*
X137200000Y-135930000D02*
X139740000Y-135930000D01*
X139740000Y-135930000D02*
X142280000Y-135930000D01*
X142280000Y-135930000D02*
X144820000Y-135930000D01*
X144820000Y-135930000D02*
X147360000Y-135930000D01*
X147360000Y-135930000D02*
X149900000Y-135930000D01*
X149900000Y-135930000D02*
X152440000Y-135930000D01*
X152440000Y-135930000D02*
X154980000Y-135930000D01*
X154980000Y-135930000D02*
X157520000Y-135930000D01*
X157520000Y-138470000D02*
X157520000Y-141010000D01*
X157520000Y-141010000D02*
X157520000Y-143550000D01*
X157520000Y-143550000D02*
X157520000Y-146090000D01*
X154980000Y-146090000D02*
X154980000Y-143550000D01*
X154980000Y-143550000D02*
X154980000Y-141010000D01*
X154980000Y-141010000D02*
X154980000Y-138470000D01*
X152440000Y-138470000D02*
X152440000Y-141010000D01*
X152440000Y-141010000D02*
X152440000Y-143550000D01*
X152440000Y-143550000D02*
X152440000Y-146090000D01*
X149900000Y-146090000D02*
X149900000Y-143550000D01*
X149900000Y-143550000D02*
X149900000Y-141010000D01*
X149900000Y-141010000D02*
X149900000Y-138470000D01*
X147360000Y-138470000D02*
X147360000Y-141010000D01*
X147360000Y-141010000D02*
X147360000Y-143550000D01*
X147360000Y-143550000D02*
X147360000Y-146090000D01*
X144820000Y-146090000D02*
X144820000Y-143550000D01*
X144820000Y-143550000D02*
X144820000Y-141010000D01*
X144820000Y-141010000D02*
X144820000Y-138470000D01*
X142280000Y-138470000D02*
X142280000Y-141010000D01*
X142280000Y-141010000D02*
X142280000Y-143550000D01*
X142280000Y-143550000D02*
X142280000Y-146090000D01*
X139740000Y-146090000D02*
X139740000Y-143550000D01*
X139740000Y-143550000D02*
X139740000Y-141010000D01*
X139740000Y-141010000D02*
X139740000Y-138470000D01*
X137200000Y-138470000D02*
X137200000Y-141010000D01*
X137200000Y-141010000D02*
X137200000Y-143550000D01*
X137200000Y-143550000D02*
X137200000Y-146090000D01*
X134660000Y-146090000D02*
X134660000Y-143550000D01*
X134660000Y-143550000D02*
X134660000Y-141010000D01*
X134660000Y-141010000D02*
X134660000Y-138470000D01*
X132120000Y-146090000D02*
X132120000Y-143550000D01*
X132120000Y-143550000D02*
X132120000Y-141010000D01*
X132120000Y-141010000D02*
X132120000Y-138470000D01*
X129580000Y-146090000D02*
X129580000Y-143550000D01*
X129730500Y-141160500D02*
X129580000Y-141010000D01*
X129580000Y-141010000D02*
X129580000Y-138470000D01*
X127040000Y-138470000D02*
X127040000Y-141010000D01*
X127040000Y-141010000D02*
X127040000Y-143550000D01*
X127040000Y-143550000D02*
X127040000Y-146090000D01*
X124500000Y-146090000D02*
X124500000Y-143550000D01*
X124500000Y-143550000D02*
X124500000Y-141010000D01*
X124500000Y-141010000D02*
X124500000Y-138470000D01*
X121960000Y-138470000D02*
X121960000Y-141010000D01*
X121960000Y-141010000D02*
X121960000Y-143550000D01*
X121960000Y-143550000D02*
X121960000Y-146090000D01*
X119420000Y-146090000D02*
X119420000Y-143550000D01*
X119420000Y-143550000D02*
X119420000Y-141010000D01*
X119420000Y-141010000D02*
X119420000Y-138470000D01*
X116880000Y-138470000D02*
X116880000Y-141010000D01*
X116880000Y-141010000D02*
X116880000Y-143550000D01*
X116880000Y-143550000D02*
X116880000Y-146090000D01*
X157520000Y-130850000D02*
X157520000Y-128310000D01*
X157520000Y-128310000D02*
X157520000Y-125770000D01*
X154980000Y-130850000D02*
X154980000Y-128310000D01*
X154980000Y-128310000D02*
X154980000Y-125770000D01*
X152440000Y-130850000D02*
X152440000Y-128310000D01*
X152440000Y-128310000D02*
X152440000Y-125770000D01*
X149900000Y-130850000D02*
X149900000Y-128310000D01*
X149900000Y-128310000D02*
X149900000Y-125770000D01*
X147360000Y-130850000D02*
X147360000Y-128310000D01*
X147360000Y-128310000D02*
X147360000Y-125770000D01*
X139740000Y-123230000D02*
X142280000Y-123230000D01*
X142280000Y-123230000D02*
X144820000Y-123230000D01*
X144820000Y-123230000D02*
X147360000Y-123230000D01*
X147360000Y-120690000D02*
X144820000Y-120690000D01*
X144820000Y-120690000D02*
X142280000Y-120690000D01*
X142280000Y-120690000D02*
X139740000Y-120690000D01*
X152440000Y-118150000D02*
X152440000Y-115610000D01*
X149900000Y-118150000D02*
X149900000Y-115610000D01*
X152440000Y-115610000D02*
X152440000Y-113070000D01*
X149900000Y-115610000D02*
X149900000Y-113070000D01*
X149900000Y-113070000D02*
X149900000Y-110530000D01*
X152440000Y-113070000D02*
X152440000Y-110530000D01*
X144820000Y-102910000D02*
X147360000Y-102910000D01*
X147360000Y-105450000D02*
X144820000Y-105450000D01*
X152440000Y-110530000D02*
X152440000Y-107990000D01*
X149900000Y-110530000D02*
X149900000Y-107990000D01*
X129580000Y-141010000D02*
X129580000Y-143550000D01*
X154980000Y-102910000D02*
X157520000Y-102910000D01*
X154980000Y-105450000D02*
X157520000Y-105450000D01*
X154980000Y-107990000D02*
X157520000Y-107990000D01*
X154980000Y-110530000D02*
X157520000Y-110530000D01*
X154980000Y-113070000D02*
X157520000Y-113070000D01*
X154980000Y-115610000D02*
X157520000Y-115610000D01*
X154980000Y-118150000D02*
X157520000Y-118150000D01*
X154980000Y-120690000D02*
X157520000Y-120690000D01*
X154980000Y-123230000D02*
X157520000Y-123230000D01*
X152440000Y-123230000D02*
X152440000Y-120690000D01*
X149900000Y-123230000D02*
X149900000Y-120690000D01*
X149900000Y-120690000D02*
X149900000Y-118150000D01*
X152440000Y-120690000D02*
X152440000Y-118150000D01*
X149900000Y-102910000D02*
X149900000Y-105450000D01*
X152440000Y-102910000D02*
X152440000Y-105450000D01*
X152440000Y-105450000D02*
X152440000Y-107990000D01*
X149900000Y-105450000D02*
X149900000Y-107990000D01*
X144820000Y-107990000D02*
X147360000Y-107990000D01*
X144820000Y-110530000D02*
X147360000Y-110530000D01*
X144820000Y-113070000D02*
X147360000Y-113070000D01*
X144820000Y-115610000D02*
X147360000Y-115610000D01*
X144820000Y-118150000D02*
X147360000Y-118150000D01*
X139740000Y-110530000D02*
X142280000Y-110530000D01*
X142280000Y-110530000D02*
X144820000Y-110530000D01*
X139740000Y-113070000D02*
X142280000Y-113070000D01*
X142280000Y-113070000D02*
X144820000Y-113070000D01*
X139740000Y-115610000D02*
X142280000Y-115610000D01*
X142280000Y-115610000D02*
X144820000Y-115610000D01*
X139740000Y-118150000D02*
X142280000Y-118150000D01*
X142280000Y-118150000D02*
X144820000Y-118150000D01*
X166926100Y-130800000D02*
X167043100Y-130683000D01*
X166545100Y-130800000D02*
X166636700Y-130708400D01*
X167103900Y-130800000D02*
X167170100Y-130733800D01*
X166659400Y-130800000D02*
X166789100Y-130670300D01*
X160060000Y-130800000D02*
X166659400Y-130800000D01*
X166824700Y-134300000D02*
X166890700Y-134366000D01*
X166791600Y-134300000D02*
X166903400Y-134188200D01*
X166613800Y-134300000D02*
X166979600Y-133934200D01*
X160060000Y-134300000D02*
X166613800Y-134300000D01*
X166669800Y-137800000D02*
X166738300Y-137731500D01*
X166936500Y-137800000D02*
X167043100Y-137693400D01*
X166657100Y-137800000D02*
X166890700Y-137566400D01*
X160060000Y-137800000D02*
X166657100Y-137800000D01*
X166749800Y-111200000D02*
X166928800Y-111379000D01*
X166927600Y-111200000D02*
X166966900Y-111239300D01*
X167018900Y-111200000D02*
X167157400Y-111061500D01*
X160060000Y-111200000D02*
X167018900Y-111200000D01*
X166942600Y-118200000D02*
X167081200Y-118338600D01*
X166650500Y-118200000D02*
X166789100Y-118338600D01*
X167194400Y-118200000D02*
X167246300Y-118148100D01*
X160060000Y-118200000D02*
X167194400Y-118200000D01*
X166871700Y-114700000D02*
X166928800Y-114642900D01*
X167036800Y-114700000D02*
X167132000Y-114604800D01*
X166808100Y-114700000D02*
X166890700Y-114782600D01*
X160060000Y-114700000D02*
X166808100Y-114700000D01*
X142280000Y-103223100D02*
X142176500Y-103119600D01*
X142280000Y-105450000D02*
X142280000Y-103223100D01*
X142280000Y-107384900D02*
X142151100Y-107513800D01*
X142280000Y-105450000D02*
X142280000Y-107384900D01*
X139740000Y-103527900D02*
X139534900Y-103322800D01*
X139740000Y-105450000D02*
X139740000Y-103527900D01*
X139740000Y-107312500D02*
X139877800Y-107450300D01*
X139740000Y-105450000D02*
X139740000Y-107312500D01*
X137200000Y-103362800D02*
X137172700Y-103335500D01*
X137200000Y-105450000D02*
X137200000Y-103362800D01*
X137200000Y-107550000D02*
X137147300Y-107602700D01*
X137200000Y-105450000D02*
X137200000Y-107550000D01*
X134660000Y-103566000D02*
X134658100Y-103564100D01*
X134660000Y-105450000D02*
X134660000Y-103566000D01*
X134660000Y-107261700D02*
X134759700Y-107361400D01*
X134660000Y-105450000D02*
X134660000Y-107261700D01*
X132120000Y-103248500D02*
X131991100Y-103119600D01*
X132120000Y-105450000D02*
X132120000Y-103248500D01*
X132120000Y-107122000D02*
X132143500Y-107145500D01*
X132120000Y-105450000D02*
X132120000Y-107122000D01*
X129580000Y-103130400D02*
X129628900Y-103081500D01*
X129580000Y-105450000D02*
X129580000Y-103130400D01*
X129580000Y-107219800D02*
X129451100Y-107348700D01*
X129580000Y-105450000D02*
X129580000Y-107219800D01*
X127040000Y-103371700D02*
X127139700Y-103272000D01*
X127040000Y-105450000D02*
X127040000Y-103371700D01*
X127040000Y-107423000D02*
X127012700Y-107450300D01*
X127040000Y-105450000D02*
X127040000Y-107423000D01*
X124500000Y-102990700D02*
X124536200Y-102954500D01*
X124500000Y-105450000D02*
X124500000Y-102990700D01*
X124500000Y-107325200D02*
X124536200Y-107361400D01*
X124500000Y-105450000D02*
X124500000Y-107325200D01*
X142280000Y-128301800D02*
X144716500Y-125865300D01*
X142280000Y-128310000D02*
X142280000Y-128301800D01*
X142280000Y-128369100D02*
X144691100Y-130780200D01*
X142280000Y-128310000D02*
X142280000Y-128369100D01*
X139808000Y-128310000D02*
X142328900Y-125789100D01*
X139740000Y-128310000D02*
X139808000Y-128310000D01*
X139757100Y-128310000D02*
X142468600Y-131021500D01*
X139740000Y-128310000D02*
X139757100Y-128310000D01*
X137204500Y-128310000D02*
X139763500Y-125751000D01*
X137200000Y-128310000D02*
X137204500Y-128310000D01*
X137204400Y-128310000D02*
X139484100Y-130589700D01*
X137200000Y-128310000D02*
X137204400Y-128310000D01*
X132162600Y-130850000D02*
X134632700Y-128379900D01*
X132120000Y-130850000D02*
X132162600Y-130850000D01*
X137128200Y-130850000D02*
X134556500Y-128278300D01*
X137200000Y-130850000D02*
X137128200Y-130850000D01*
X129580000Y-125778300D02*
X132232400Y-128430700D01*
X129580000Y-125770000D02*
X129580000Y-125778300D01*
X129609900Y-130850000D02*
X131889500Y-128570400D01*
X129580000Y-130850000D02*
X129609900Y-130850000D01*
X127057100Y-125770000D02*
X129425700Y-128138600D01*
X127040000Y-125770000D02*
X127057100Y-125770000D01*
X127040000Y-130841800D02*
X129717800Y-128164000D01*
X127040000Y-130850000D02*
X127040000Y-130841800D01*
X124542500Y-125770000D02*
X127127000Y-128354500D01*
X124500000Y-125770000D02*
X124542500Y-125770000D01*
X124500000Y-130829100D02*
X127025400Y-128303700D01*
X124500000Y-130850000D02*
X124500000Y-130829100D01*
X121960000Y-125778300D02*
X124383800Y-128202100D01*
X121960000Y-125770000D02*
X121960000Y-125778300D01*
X121960000Y-130816400D02*
X124536200Y-128240200D01*
X121960000Y-130850000D02*
X121960000Y-130816400D01*
X111740900Y-110530000D02*
X111747300Y-110536400D01*
X109260000Y-110530000D02*
X111740900Y-110530000D01*
X114192100Y-110530000D02*
X114338100Y-110384000D01*
X111800000Y-110530000D02*
X114192100Y-110530000D01*
X111741000Y-113070000D02*
X111747300Y-113063700D01*
X109260000Y-113070000D02*
X111741000Y-113070000D01*
X114128600Y-113070000D02*
X114223800Y-112974800D01*
X111800000Y-113070000D02*
X114128600Y-113070000D01*
X111753600Y-115610000D02*
X111760000Y-115616400D01*
X109260000Y-115610000D02*
X111753600Y-115610000D01*
X114268300Y-115610000D02*
X114325400Y-115552900D01*
X111800000Y-115610000D02*
X114268300Y-115610000D01*
X111791700Y-118150000D02*
X111823500Y-118181800D01*
X109260000Y-118150000D02*
X111791700Y-118150000D01*
X114230100Y-118150000D02*
X114325400Y-118245300D01*
X111800000Y-118150000D02*
X114230100Y-118150000D01*
X111728200Y-120690000D02*
X111798100Y-120759900D01*
X109260000Y-120690000D02*
X111728200Y-120690000D01*
X114280900Y-120690000D02*
X114376200Y-120785300D01*
X111800000Y-120690000D02*
X114280900Y-120690000D01*
X111664700Y-123230000D02*
X111683800Y-123249100D01*
X109260000Y-123230000D02*
X111664700Y-123230000D01*
X114090400Y-123230000D02*
X114223800Y-123363400D01*
X111800000Y-123230000D02*
X114090400Y-123230000D01*
X111740900Y-125770000D02*
X111747300Y-125776400D01*
X109260000Y-125770000D02*
X111740900Y-125770000D01*
X114217500Y-125770000D02*
X114325400Y-125662100D01*
X111800000Y-125770000D02*
X114217500Y-125770000D01*
X111741000Y-128310000D02*
X111747300Y-128303700D01*
X109260000Y-128310000D02*
X111741000Y-128310000D01*
X114027000Y-128310000D02*
X114033300Y-128303700D01*
X111800000Y-128310000D02*
X114027000Y-128310000D01*
X134677200Y-110530000D02*
X134708900Y-110498300D01*
X132120000Y-110530000D02*
X134677200Y-110530000D01*
X137014000Y-110530000D02*
X137045700Y-110498300D01*
X134660000Y-110530000D02*
X137014000Y-110530000D01*
X134296200Y-113070000D02*
X134416800Y-112949400D01*
X132120000Y-113070000D02*
X134296200Y-113070000D01*
X136975900Y-113070000D02*
X137083800Y-112962100D01*
X134660000Y-113070000D02*
X136975900Y-113070000D01*
X134347000Y-115610000D02*
X134493000Y-115464000D01*
X132120000Y-115610000D02*
X134347000Y-115610000D01*
X136620300Y-115610000D02*
X136766300Y-115464000D01*
X134660000Y-115610000D02*
X136620300Y-115610000D01*
X134118400Y-118150000D02*
X134239000Y-118029400D01*
X132120000Y-118150000D02*
X134118400Y-118150000D01*
X136696500Y-118150000D02*
X136817100Y-118029400D01*
X134660000Y-118150000D02*
X136696500Y-118150000D01*
X134385100Y-120690000D02*
X134683500Y-120391600D01*
X132120000Y-120690000D02*
X134385100Y-120690000D01*
X137306100Y-120690000D02*
X137337800Y-120658300D01*
X134660000Y-120690000D02*
X137306100Y-120690000D01*
X134747000Y-123249100D02*
X134785100Y-123287200D01*
X132120000Y-123249100D02*
X134747000Y-123249100D01*
X136607500Y-123230000D02*
X136639300Y-123261800D01*
X134660000Y-123230000D02*
X136607500Y-123230000D01*
X134105700Y-125770000D02*
X134251700Y-125624000D01*
X132120000Y-125770000D02*
X134105700Y-125770000D01*
X137039400Y-125770000D02*
X137083800Y-125725600D01*
X134660000Y-125770000D02*
X137039400Y-125770000D01*
D17*
G36*
X167922061Y-101068607D02*
G01*
X167938262Y-101170898D01*
X168176369Y-102162684D01*
X168208372Y-102261181D01*
X168598697Y-103203509D01*
X168621621Y-103248499D01*
X168645715Y-103295787D01*
X169178647Y-104165453D01*
X169198871Y-104193288D01*
X169239522Y-104249240D01*
X169901938Y-105024830D01*
X169975170Y-105098062D01*
X170750760Y-105760478D01*
X170834547Y-105821353D01*
X171704213Y-106354284D01*
X171796491Y-106401303D01*
X172738819Y-106791627D01*
X172837316Y-106823631D01*
X173829102Y-107061738D01*
X173931393Y-107077939D01*
X174340000Y-107110097D01*
X174340001Y-141889903D01*
X173931393Y-141922061D01*
X173829102Y-141938262D01*
X172837316Y-142176369D01*
X172738819Y-142208373D01*
X171796491Y-142598697D01*
X171705618Y-142645000D01*
X171704213Y-142645716D01*
X170834547Y-143178647D01*
X170750760Y-143239522D01*
X169975170Y-143901938D01*
X169901938Y-143975170D01*
X169239522Y-144750760D01*
X169209084Y-144792654D01*
X169178647Y-144834547D01*
X168645715Y-145704213D01*
X168626392Y-145742138D01*
X168598697Y-145796491D01*
X168208372Y-146738819D01*
X168178937Y-146829411D01*
X168176369Y-146837316D01*
X167938262Y-147829102D01*
X167922061Y-147931393D01*
X167889903Y-148340000D01*
X107110097Y-148340000D01*
X107077939Y-147931393D01*
X107061738Y-147829102D01*
X106823631Y-146837316D01*
X106791627Y-146738819D01*
X106401303Y-145796491D01*
X106354284Y-145704213D01*
X105821353Y-144834547D01*
X105760478Y-144750760D01*
X105366714Y-144289721D01*
X110365000Y-144289721D01*
X110365000Y-144710279D01*
X110447047Y-145122756D01*
X110607988Y-145511302D01*
X110841637Y-145860983D01*
X111139017Y-146158363D01*
X111488698Y-146392012D01*
X111877244Y-146552953D01*
X112289721Y-146635000D01*
X112710279Y-146635000D01*
X113122756Y-146552953D01*
X113511302Y-146392012D01*
X113860983Y-146158363D01*
X114158363Y-145860983D01*
X114392012Y-145511302D01*
X114552953Y-145122756D01*
X114635000Y-144710279D01*
X114635000Y-144289721D01*
X114552953Y-143877244D01*
X114392012Y-143488698D01*
X114158363Y-143139017D01*
X113860983Y-142841637D01*
X113511302Y-142607988D01*
X113122756Y-142447047D01*
X112710279Y-142365000D01*
X112289721Y-142365000D01*
X111877244Y-142447047D01*
X111488698Y-142607988D01*
X111139017Y-142841637D01*
X110841637Y-143139017D01*
X110607988Y-143488698D01*
X110447047Y-143877244D01*
X110365000Y-144289721D01*
X105366714Y-144289721D01*
X105098062Y-143975170D01*
X105024830Y-143901938D01*
X104249240Y-143239522D01*
X104180784Y-143189786D01*
X104165453Y-143178647D01*
X103295787Y-142645715D01*
X103249648Y-142622207D01*
X103203509Y-142598697D01*
X102261181Y-142208372D01*
X102162684Y-142176369D01*
X101170898Y-141938262D01*
X101068607Y-141922061D01*
X100660000Y-141889903D01*
X100660000Y-133228967D01*
X105085000Y-133228967D01*
X105085000Y-133551033D01*
X105147832Y-133866912D01*
X105271082Y-134164463D01*
X105450013Y-134432252D01*
X105677748Y-134659987D01*
X105677767Y-134660000D01*
X105677748Y-134660013D01*
X105450013Y-134887748D01*
X105271082Y-135155537D01*
X105147832Y-135453088D01*
X105085000Y-135768967D01*
X105085000Y-136091033D01*
X105147832Y-136406912D01*
X105271082Y-136704463D01*
X105450013Y-136972252D01*
X105677748Y-137199987D01*
X105945537Y-137378918D01*
X106243088Y-137502168D01*
X106558967Y-137565000D01*
X106881033Y-137565000D01*
X107196912Y-137502168D01*
X107494463Y-137378918D01*
X107762252Y-137199987D01*
X107989987Y-136972252D01*
X107990000Y-136972233D01*
X107990013Y-136972252D01*
X108217748Y-137199987D01*
X108485537Y-137378918D01*
X108783088Y-137502168D01*
X109098967Y-137565000D01*
X109421033Y-137565000D01*
X109736912Y-137502168D01*
X110034463Y-137378918D01*
X110302252Y-137199987D01*
X110529987Y-136972252D01*
X110530000Y-136972233D01*
X110530013Y-136972252D01*
X110757748Y-137199987D01*
X111025537Y-137378918D01*
X111323088Y-137502168D01*
X111638967Y-137565000D01*
X111961033Y-137565000D01*
X112276912Y-137502168D01*
X112574463Y-137378918D01*
X112842252Y-137199987D01*
X113069987Y-136972252D01*
X113070000Y-136972233D01*
X113070013Y-136972252D01*
X113297748Y-137199987D01*
X113565537Y-137378918D01*
X113863088Y-137502168D01*
X114178967Y-137565000D01*
X114501033Y-137565000D01*
X114816912Y-137502168D01*
X115114463Y-137378918D01*
X115382252Y-137199987D01*
X115609987Y-136972252D01*
X115610000Y-136972233D01*
X115610013Y-136972252D01*
X115837748Y-137199987D01*
X115837767Y-137200000D01*
X115837748Y-137200013D01*
X115610013Y-137427748D01*
X115431082Y-137695537D01*
X115307832Y-137993088D01*
X115245000Y-138308967D01*
X115245000Y-138631033D01*
X115307832Y-138946912D01*
X115431082Y-139244463D01*
X115610013Y-139512252D01*
X115837748Y-139739987D01*
X115837767Y-139740000D01*
X115837748Y-139740013D01*
X115610013Y-139967748D01*
X115431082Y-140235537D01*
X115307832Y-140533088D01*
X115245000Y-140848967D01*
X115245000Y-141171033D01*
X115307832Y-141486912D01*
X115431082Y-141784463D01*
X115610013Y-142052252D01*
X115837748Y-142279987D01*
X115837767Y-142280000D01*
X115837748Y-142280013D01*
X115610013Y-142507748D01*
X115431082Y-142775537D01*
X115307832Y-143073088D01*
X115245000Y-143388967D01*
X115245000Y-143711033D01*
X115307832Y-144026912D01*
X115431082Y-144324463D01*
X115610013Y-144592252D01*
X115837748Y-144819987D01*
X115837767Y-144820000D01*
X115837748Y-144820013D01*
X115610013Y-145047748D01*
X115431082Y-145315537D01*
X115307832Y-145613088D01*
X115245000Y-145928967D01*
X115245000Y-146251033D01*
X115307832Y-146566912D01*
X115431082Y-146864463D01*
X115610013Y-147132252D01*
X115837748Y-147359987D01*
X116105537Y-147538918D01*
X116403088Y-147662168D01*
X116718967Y-147725000D01*
X117041033Y-147725000D01*
X117356912Y-147662168D01*
X117654463Y-147538918D01*
X117922252Y-147359987D01*
X118149987Y-147132252D01*
X118150000Y-147132233D01*
X118150013Y-147132252D01*
X118377748Y-147359987D01*
X118645537Y-147538918D01*
X118943088Y-147662168D01*
X119258967Y-147725000D01*
X119581033Y-147725000D01*
X119896912Y-147662168D01*
X120194463Y-147538918D01*
X120462252Y-147359987D01*
X120689987Y-147132252D01*
X120690000Y-147132233D01*
X120690013Y-147132252D01*
X120917748Y-147359987D01*
X121185537Y-147538918D01*
X121483088Y-147662168D01*
X121798967Y-147725000D01*
X122121033Y-147725000D01*
X122436912Y-147662168D01*
X122734463Y-147538918D01*
X123002252Y-147359987D01*
X123229987Y-147132252D01*
X123230000Y-147132233D01*
X123230013Y-147132252D01*
X123457748Y-147359987D01*
X123725537Y-147538918D01*
X124023088Y-147662168D01*
X124338967Y-147725000D01*
X124661033Y-147725000D01*
X124976912Y-147662168D01*
X125274463Y-147538918D01*
X125542252Y-147359987D01*
X125769987Y-147132252D01*
X125770000Y-147132233D01*
X125770013Y-147132252D01*
X125997748Y-147359987D01*
X126265537Y-147538918D01*
X126563088Y-147662168D01*
X126878967Y-147725000D01*
X127201033Y-147725000D01*
X127516912Y-147662168D01*
X127814463Y-147538918D01*
X128082252Y-147359987D01*
X128309987Y-147132252D01*
X128310000Y-147132233D01*
X128310013Y-147132252D01*
X128537748Y-147359987D01*
X128805537Y-147538918D01*
X129103088Y-147662168D01*
X129418967Y-147725000D01*
X129741033Y-147725000D01*
X130056912Y-147662168D01*
X130354463Y-147538918D01*
X130622252Y-147359987D01*
X130849987Y-147132252D01*
X130850000Y-147132233D01*
X130850013Y-147132252D01*
X131077748Y-147359987D01*
X131345537Y-147538918D01*
X131643088Y-147662168D01*
X131958967Y-147725000D01*
X132281033Y-147725000D01*
X132596912Y-147662168D01*
X132894463Y-147538918D01*
X133162252Y-147359987D01*
X133389987Y-147132252D01*
X133390000Y-147132233D01*
X133390013Y-147132252D01*
X133617748Y-147359987D01*
X133885537Y-147538918D01*
X134183088Y-147662168D01*
X134498967Y-147725000D01*
X134821033Y-147725000D01*
X135136912Y-147662168D01*
X135434463Y-147538918D01*
X135702252Y-147359987D01*
X135929987Y-147132252D01*
X135930000Y-147132233D01*
X135930013Y-147132252D01*
X136157748Y-147359987D01*
X136425537Y-147538918D01*
X136723088Y-147662168D01*
X137038967Y-147725000D01*
X137361033Y-147725000D01*
X137676912Y-147662168D01*
X137974463Y-147538918D01*
X138242252Y-147359987D01*
X138469987Y-147132252D01*
X138470000Y-147132233D01*
X138470013Y-147132252D01*
X138697748Y-147359987D01*
X138965537Y-147538918D01*
X139263088Y-147662168D01*
X139578967Y-147725000D01*
X139901033Y-147725000D01*
X140216912Y-147662168D01*
X140514463Y-147538918D01*
X140782252Y-147359987D01*
X141009987Y-147132252D01*
X141010000Y-147132233D01*
X141010013Y-147132252D01*
X141237748Y-147359987D01*
X141505537Y-147538918D01*
X141803088Y-147662168D01*
X142118967Y-147725000D01*
X142441033Y-147725000D01*
X142756912Y-147662168D01*
X143054463Y-147538918D01*
X143322252Y-147359987D01*
X143549987Y-147132252D01*
X143550000Y-147132233D01*
X143550013Y-147132252D01*
X143777748Y-147359987D01*
X144045537Y-147538918D01*
X144343088Y-147662168D01*
X144658967Y-147725000D01*
X144981033Y-147725000D01*
X145296912Y-147662168D01*
X145594463Y-147538918D01*
X145862252Y-147359987D01*
X146089987Y-147132252D01*
X146090000Y-147132233D01*
X146090013Y-147132252D01*
X146317748Y-147359987D01*
X146585537Y-147538918D01*
X146883088Y-147662168D01*
X147198967Y-147725000D01*
X147521033Y-147725000D01*
X147836912Y-147662168D01*
X148134463Y-147538918D01*
X148402252Y-147359987D01*
X148629987Y-147132252D01*
X148630000Y-147132233D01*
X148630013Y-147132252D01*
X148857748Y-147359987D01*
X149125537Y-147538918D01*
X149423088Y-147662168D01*
X149738967Y-147725000D01*
X150061033Y-147725000D01*
X150376912Y-147662168D01*
X150674463Y-147538918D01*
X150942252Y-147359987D01*
X151169987Y-147132252D01*
X151170000Y-147132233D01*
X151170013Y-147132252D01*
X151397748Y-147359987D01*
X151665537Y-147538918D01*
X151963088Y-147662168D01*
X152278967Y-147725000D01*
X152601033Y-147725000D01*
X152916912Y-147662168D01*
X153214463Y-147538918D01*
X153482252Y-147359987D01*
X153709987Y-147132252D01*
X153710000Y-147132233D01*
X153710013Y-147132252D01*
X153937748Y-147359987D01*
X154205537Y-147538918D01*
X154503088Y-147662168D01*
X154818967Y-147725000D01*
X155141033Y-147725000D01*
X155456912Y-147662168D01*
X155754463Y-147538918D01*
X156022252Y-147359987D01*
X156249987Y-147132252D01*
X156250000Y-147132233D01*
X156250013Y-147132252D01*
X156477748Y-147359987D01*
X156745537Y-147538918D01*
X157043088Y-147662168D01*
X157358967Y-147725000D01*
X157681033Y-147725000D01*
X157996912Y-147662168D01*
X158294463Y-147538918D01*
X158562252Y-147359987D01*
X158789987Y-147132252D01*
X158968918Y-146864463D01*
X159092168Y-146566912D01*
X159155000Y-146251033D01*
X159155000Y-145928967D01*
X159092168Y-145613088D01*
X158968918Y-145315537D01*
X158789987Y-145047748D01*
X158562252Y-144820013D01*
X158562233Y-144820000D01*
X158562252Y-144819987D01*
X158789987Y-144592252D01*
X158968918Y-144324463D01*
X158983308Y-144289721D01*
X160365000Y-144289721D01*
X160365000Y-144710279D01*
X160447047Y-145122756D01*
X160607988Y-145511302D01*
X160841637Y-145860983D01*
X161139017Y-146158363D01*
X161488698Y-146392012D01*
X161877244Y-146552953D01*
X162289721Y-146635000D01*
X162710279Y-146635000D01*
X163122756Y-146552953D01*
X163511302Y-146392012D01*
X163860983Y-146158363D01*
X164158363Y-145860983D01*
X164392012Y-145511302D01*
X164552953Y-145122756D01*
X164635000Y-144710279D01*
X164635000Y-144289721D01*
X164552953Y-143877244D01*
X164392012Y-143488698D01*
X164158363Y-143139017D01*
X163860983Y-142841637D01*
X163511302Y-142607988D01*
X163122756Y-142447047D01*
X162710279Y-142365000D01*
X162289721Y-142365000D01*
X161877244Y-142447047D01*
X161488698Y-142607988D01*
X161139017Y-142841637D01*
X160841637Y-143139017D01*
X160607988Y-143488698D01*
X160447047Y-143877244D01*
X160365000Y-144289721D01*
X158983308Y-144289721D01*
X159092168Y-144026912D01*
X159155000Y-143711033D01*
X159155000Y-143388967D01*
X159092168Y-143073088D01*
X158968918Y-142775537D01*
X158789987Y-142507748D01*
X158562252Y-142280013D01*
X158562233Y-142280000D01*
X158562252Y-142279987D01*
X158789987Y-142052252D01*
X158968918Y-141784463D01*
X159092168Y-141486912D01*
X159155000Y-141171033D01*
X159155000Y-140848967D01*
X159092168Y-140533088D01*
X158968918Y-140235537D01*
X158789987Y-139967748D01*
X158562252Y-139740013D01*
X158562233Y-139740000D01*
X158562252Y-139739987D01*
X158789987Y-139512252D01*
X158968918Y-139244463D01*
X159036107Y-139082254D01*
X159285537Y-139248918D01*
X159583088Y-139372168D01*
X159898967Y-139435000D01*
X160221033Y-139435000D01*
X160536912Y-139372168D01*
X160834463Y-139248918D01*
X161102252Y-139069987D01*
X161329987Y-138842252D01*
X161435059Y-138685000D01*
X165161928Y-138685000D01*
X165161928Y-139000000D01*
X165174188Y-139124482D01*
X165210498Y-139244180D01*
X165269463Y-139354494D01*
X165348815Y-139451185D01*
X165445506Y-139530537D01*
X165555820Y-139589502D01*
X165675518Y-139625812D01*
X165800000Y-139638072D01*
X168200000Y-139638072D01*
X168324482Y-139625812D01*
X168444180Y-139589502D01*
X168554494Y-139530537D01*
X168651185Y-139451185D01*
X168730537Y-139354494D01*
X168789502Y-139244180D01*
X168825812Y-139124482D01*
X168838072Y-139000000D01*
X168838072Y-136600000D01*
X168825812Y-136475518D01*
X168789502Y-136355820D01*
X168730537Y-136245506D01*
X168651185Y-136148815D01*
X168554494Y-136069463D01*
X168444180Y-136010498D01*
X168324482Y-135974188D01*
X168200000Y-135961928D01*
X167782838Y-135961928D01*
X167869199Y-135926156D01*
X168169744Y-135725338D01*
X168425338Y-135469744D01*
X168626156Y-135169199D01*
X168764482Y-134835250D01*
X168835000Y-134480732D01*
X168835000Y-134119268D01*
X168764482Y-133764750D01*
X168626156Y-133430801D01*
X168425338Y-133130256D01*
X168169744Y-132874662D01*
X167869199Y-132673844D01*
X167570213Y-132550000D01*
X167869199Y-132426156D01*
X168169744Y-132225338D01*
X168425338Y-131969744D01*
X168626156Y-131669199D01*
X168764482Y-131335250D01*
X168835000Y-130980732D01*
X168835000Y-130619268D01*
X168764482Y-130264750D01*
X168626156Y-129930801D01*
X168425338Y-129630256D01*
X168169744Y-129374662D01*
X167869199Y-129173844D01*
X167535250Y-129035518D01*
X167180732Y-128965000D01*
X166819268Y-128965000D01*
X166464750Y-129035518D01*
X166130801Y-129173844D01*
X165830256Y-129374662D01*
X165574662Y-129630256D01*
X165384402Y-129915000D01*
X161435059Y-129915000D01*
X161329987Y-129757748D01*
X161102252Y-129530013D01*
X160834463Y-129351082D01*
X160536912Y-129227832D01*
X160221033Y-129165000D01*
X159898967Y-129165000D01*
X159583088Y-129227832D01*
X159285537Y-129351082D01*
X159017748Y-129530013D01*
X158790013Y-129757748D01*
X158769975Y-129787736D01*
X158562252Y-129580013D01*
X158562233Y-129580000D01*
X158562252Y-129579987D01*
X158789987Y-129352252D01*
X158968918Y-129084463D01*
X159092168Y-128786912D01*
X159155000Y-128471033D01*
X159155000Y-128148967D01*
X159092168Y-127833088D01*
X158968918Y-127535537D01*
X158789987Y-127267748D01*
X158562252Y-127040013D01*
X158562233Y-127040000D01*
X158562252Y-127039987D01*
X158697189Y-126905050D01*
X161644555Y-126905050D01*
X161740258Y-127169399D01*
X162029787Y-127310238D01*
X162341229Y-127391885D01*
X162662615Y-127411205D01*
X162981595Y-127367454D01*
X163285911Y-127262314D01*
X163459742Y-127169399D01*
X163555445Y-126905050D01*
X162600000Y-125949605D01*
X161644555Y-126905050D01*
X158697189Y-126905050D01*
X158789987Y-126812252D01*
X158968918Y-126544463D01*
X159092168Y-126246912D01*
X159155000Y-125931033D01*
X159155000Y-125832615D01*
X160958795Y-125832615D01*
X161002546Y-126151595D01*
X161107686Y-126455911D01*
X161200601Y-126629742D01*
X161464950Y-126725445D01*
X162420395Y-125770000D01*
X162779605Y-125770000D01*
X163735050Y-126725445D01*
X163999399Y-126629742D01*
X164140238Y-126340213D01*
X164221885Y-126028771D01*
X164241205Y-125707385D01*
X164197454Y-125388405D01*
X164092314Y-125084089D01*
X163999399Y-124910258D01*
X163735050Y-124814555D01*
X162779605Y-125770000D01*
X162420395Y-125770000D01*
X161464950Y-124814555D01*
X161200601Y-124910258D01*
X161059762Y-125199787D01*
X160978115Y-125511229D01*
X160958795Y-125832615D01*
X159155000Y-125832615D01*
X159155000Y-125608967D01*
X159092168Y-125293088D01*
X158968918Y-124995537D01*
X158789987Y-124727748D01*
X158562252Y-124500013D01*
X158562233Y-124500000D01*
X158562252Y-124499987D01*
X158697189Y-124365050D01*
X161644555Y-124365050D01*
X161693411Y-124500000D01*
X161644555Y-124634950D01*
X162600000Y-125590395D01*
X163555445Y-124634950D01*
X163506589Y-124500000D01*
X163555445Y-124365050D01*
X163480116Y-124289721D01*
X167365000Y-124289721D01*
X167365000Y-124710279D01*
X167447047Y-125122756D01*
X167607988Y-125511302D01*
X167841637Y-125860983D01*
X168139017Y-126158363D01*
X168488698Y-126392012D01*
X168877244Y-126552953D01*
X169289721Y-126635000D01*
X169710279Y-126635000D01*
X170122756Y-126552953D01*
X170511302Y-126392012D01*
X170860983Y-126158363D01*
X171158363Y-125860983D01*
X171392012Y-125511302D01*
X171552953Y-125122756D01*
X171635000Y-124710279D01*
X171635000Y-124289721D01*
X171552953Y-123877244D01*
X171392012Y-123488698D01*
X171158363Y-123139017D01*
X170860983Y-122841637D01*
X170511302Y-122607988D01*
X170122756Y-122447047D01*
X169710279Y-122365000D01*
X169289721Y-122365000D01*
X168877244Y-122447047D01*
X168488698Y-122607988D01*
X168139017Y-122841637D01*
X167841637Y-123139017D01*
X167607988Y-123488698D01*
X167447047Y-123877244D01*
X167365000Y-124289721D01*
X163480116Y-124289721D01*
X162600000Y-123409605D01*
X161644555Y-124365050D01*
X158697189Y-124365050D01*
X158789987Y-124272252D01*
X158968918Y-124004463D01*
X159092168Y-123706912D01*
X159155000Y-123391033D01*
X159155000Y-123292615D01*
X160958795Y-123292615D01*
X161002546Y-123611595D01*
X161107686Y-123915911D01*
X161200601Y-124089742D01*
X161464950Y-124185445D01*
X162420395Y-123230000D01*
X162779605Y-123230000D01*
X163735050Y-124185445D01*
X163999399Y-124089742D01*
X164140238Y-123800213D01*
X164221885Y-123488771D01*
X164241205Y-123167385D01*
X164197454Y-122848405D01*
X164092314Y-122544089D01*
X163999399Y-122370258D01*
X163735050Y-122274555D01*
X162779605Y-123230000D01*
X162420395Y-123230000D01*
X161464950Y-122274555D01*
X161200601Y-122370258D01*
X161059762Y-122659787D01*
X160978115Y-122971229D01*
X160958795Y-123292615D01*
X159155000Y-123292615D01*
X159155000Y-123068967D01*
X159092168Y-122753088D01*
X158968918Y-122455537D01*
X158789987Y-122187748D01*
X158697189Y-122094950D01*
X161644555Y-122094950D01*
X162600000Y-123050395D01*
X163555445Y-122094950D01*
X163459742Y-121830601D01*
X163170213Y-121689762D01*
X162858771Y-121608115D01*
X162537385Y-121588795D01*
X162218405Y-121632546D01*
X161914089Y-121737686D01*
X161740258Y-121830601D01*
X161644555Y-122094950D01*
X158697189Y-122094950D01*
X158562252Y-121960013D01*
X158562233Y-121960000D01*
X158562252Y-121959987D01*
X158789987Y-121732252D01*
X158968918Y-121464463D01*
X159092168Y-121166912D01*
X159155000Y-120851033D01*
X159155000Y-120528967D01*
X159092168Y-120213088D01*
X158968918Y-119915537D01*
X158789987Y-119647748D01*
X158562252Y-119420013D01*
X158562233Y-119420000D01*
X158562252Y-119419987D01*
X158769975Y-119212264D01*
X158790013Y-119242252D01*
X159017748Y-119469987D01*
X159285537Y-119648918D01*
X159583088Y-119772168D01*
X159898967Y-119835000D01*
X160221033Y-119835000D01*
X160536912Y-119772168D01*
X160834463Y-119648918D01*
X161102252Y-119469987D01*
X161329987Y-119242252D01*
X161435059Y-119085000D01*
X165161928Y-119085000D01*
X165161928Y-119400000D01*
X165174188Y-119524482D01*
X165210498Y-119644180D01*
X165269463Y-119754494D01*
X165348815Y-119851185D01*
X165445506Y-119930537D01*
X165555820Y-119989502D01*
X165675518Y-120025812D01*
X165800000Y-120038072D01*
X168200000Y-120038072D01*
X168324482Y-120025812D01*
X168444180Y-119989502D01*
X168554494Y-119930537D01*
X168651185Y-119851185D01*
X168730537Y-119754494D01*
X168789502Y-119644180D01*
X168825812Y-119524482D01*
X168838072Y-119400000D01*
X168838072Y-117000000D01*
X168825812Y-116875518D01*
X168789502Y-116755820D01*
X168730537Y-116645506D01*
X168651185Y-116548815D01*
X168554494Y-116469463D01*
X168444180Y-116410498D01*
X168324482Y-116374188D01*
X168200000Y-116361928D01*
X167782838Y-116361928D01*
X167869199Y-116326156D01*
X168169744Y-116125338D01*
X168425338Y-115869744D01*
X168626156Y-115569199D01*
X168764482Y-115235250D01*
X168835000Y-114880732D01*
X168835000Y-114519268D01*
X168764482Y-114164750D01*
X168626156Y-113830801D01*
X168425338Y-113530256D01*
X168169744Y-113274662D01*
X167869199Y-113073844D01*
X167570213Y-112950000D01*
X167869199Y-112826156D01*
X168169744Y-112625338D01*
X168425338Y-112369744D01*
X168626156Y-112069199D01*
X168764482Y-111735250D01*
X168835000Y-111380732D01*
X168835000Y-111019268D01*
X168764482Y-110664750D01*
X168626156Y-110330801D01*
X168425338Y-110030256D01*
X168169744Y-109774662D01*
X167869199Y-109573844D01*
X167535250Y-109435518D01*
X167180732Y-109365000D01*
X166819268Y-109365000D01*
X166464750Y-109435518D01*
X166130801Y-109573844D01*
X165830256Y-109774662D01*
X165574662Y-110030256D01*
X165384402Y-110315000D01*
X161435059Y-110315000D01*
X161329987Y-110157748D01*
X161102252Y-109930013D01*
X160834463Y-109751082D01*
X160536912Y-109627832D01*
X160221033Y-109565000D01*
X159898967Y-109565000D01*
X159583088Y-109627832D01*
X159285537Y-109751082D01*
X159036107Y-109917746D01*
X158968918Y-109755537D01*
X158789987Y-109487748D01*
X158562252Y-109260013D01*
X158562233Y-109260000D01*
X158562252Y-109259987D01*
X158789987Y-109032252D01*
X158968918Y-108764463D01*
X159092168Y-108466912D01*
X159155000Y-108151033D01*
X159155000Y-107828967D01*
X159092168Y-107513088D01*
X158968918Y-107215537D01*
X158789987Y-106947748D01*
X158562252Y-106720013D01*
X158562233Y-106720000D01*
X158562252Y-106719987D01*
X158789987Y-106492252D01*
X158968918Y-106224463D01*
X159092168Y-105926912D01*
X159155000Y-105611033D01*
X159155000Y-105288967D01*
X159092168Y-104973088D01*
X158968918Y-104675537D01*
X158789987Y-104407748D01*
X158671960Y-104289721D01*
X160365000Y-104289721D01*
X160365000Y-104710279D01*
X160447047Y-105122756D01*
X160607988Y-105511302D01*
X160841637Y-105860983D01*
X161139017Y-106158363D01*
X161488698Y-106392012D01*
X161877244Y-106552953D01*
X162289721Y-106635000D01*
X162710279Y-106635000D01*
X163122756Y-106552953D01*
X163511302Y-106392012D01*
X163860983Y-106158363D01*
X164158363Y-105860983D01*
X164392012Y-105511302D01*
X164552953Y-105122756D01*
X164635000Y-104710279D01*
X164635000Y-104289721D01*
X164552953Y-103877244D01*
X164392012Y-103488698D01*
X164158363Y-103139017D01*
X163860983Y-102841637D01*
X163511302Y-102607988D01*
X163122756Y-102447047D01*
X162710279Y-102365000D01*
X162289721Y-102365000D01*
X161877244Y-102447047D01*
X161488698Y-102607988D01*
X161139017Y-102841637D01*
X160841637Y-103139017D01*
X160607988Y-103488698D01*
X160447047Y-103877244D01*
X160365000Y-104289721D01*
X158671960Y-104289721D01*
X158562252Y-104180013D01*
X158562233Y-104180000D01*
X158562252Y-104179987D01*
X158789987Y-103952252D01*
X158968918Y-103684463D01*
X159092168Y-103386912D01*
X159155000Y-103071033D01*
X159155000Y-102748967D01*
X159092168Y-102433088D01*
X158968918Y-102135537D01*
X158789987Y-101867748D01*
X158562252Y-101640013D01*
X158294463Y-101461082D01*
X157996912Y-101337832D01*
X157681033Y-101275000D01*
X157358967Y-101275000D01*
X157043088Y-101337832D01*
X156745537Y-101461082D01*
X156477748Y-101640013D01*
X156250013Y-101867748D01*
X156250000Y-101867767D01*
X156249987Y-101867748D01*
X156022252Y-101640013D01*
X155754463Y-101461082D01*
X155456912Y-101337832D01*
X155141033Y-101275000D01*
X154818967Y-101275000D01*
X154503088Y-101337832D01*
X154205537Y-101461082D01*
X153937748Y-101640013D01*
X153710013Y-101867748D01*
X153710000Y-101867767D01*
X153709987Y-101867748D01*
X153482252Y-101640013D01*
X153214463Y-101461082D01*
X152916912Y-101337832D01*
X152601033Y-101275000D01*
X152278967Y-101275000D01*
X151963088Y-101337832D01*
X151665537Y-101461082D01*
X151397748Y-101640013D01*
X151170013Y-101867748D01*
X151170000Y-101867767D01*
X151169987Y-101867748D01*
X150942252Y-101640013D01*
X150674463Y-101461082D01*
X150376912Y-101337832D01*
X150061033Y-101275000D01*
X149738967Y-101275000D01*
X149423088Y-101337832D01*
X149125537Y-101461082D01*
X148857748Y-101640013D01*
X148630013Y-101867748D01*
X148630000Y-101867767D01*
X148629987Y-101867748D01*
X148402252Y-101640013D01*
X148134463Y-101461082D01*
X147836912Y-101337832D01*
X147521033Y-101275000D01*
X147198967Y-101275000D01*
X146883088Y-101337832D01*
X146585537Y-101461082D01*
X146317748Y-101640013D01*
X146090013Y-101867748D01*
X146090000Y-101867767D01*
X146089987Y-101867748D01*
X145862252Y-101640013D01*
X145594463Y-101461082D01*
X145296912Y-101337832D01*
X144981033Y-101275000D01*
X144658967Y-101275000D01*
X144343088Y-101337832D01*
X144045537Y-101461082D01*
X143777748Y-101640013D01*
X143550013Y-101867748D01*
X143550000Y-101867767D01*
X143549987Y-101867748D01*
X143322252Y-101640013D01*
X143054463Y-101461082D01*
X142756912Y-101337832D01*
X142441033Y-101275000D01*
X142118967Y-101275000D01*
X141803088Y-101337832D01*
X141505537Y-101461082D01*
X141237748Y-101640013D01*
X141010013Y-101867748D01*
X141010000Y-101867767D01*
X141009987Y-101867748D01*
X140782252Y-101640013D01*
X140514463Y-101461082D01*
X140216912Y-101337832D01*
X139901033Y-101275000D01*
X139578967Y-101275000D01*
X139263088Y-101337832D01*
X138965537Y-101461082D01*
X138697748Y-101640013D01*
X138470013Y-101867748D01*
X138470000Y-101867767D01*
X138469987Y-101867748D01*
X138242252Y-101640013D01*
X137974463Y-101461082D01*
X137676912Y-101337832D01*
X137361033Y-101275000D01*
X137038967Y-101275000D01*
X136723088Y-101337832D01*
X136425537Y-101461082D01*
X136157748Y-101640013D01*
X135930013Y-101867748D01*
X135930000Y-101867767D01*
X135929987Y-101867748D01*
X135702252Y-101640013D01*
X135434463Y-101461082D01*
X135136912Y-101337832D01*
X134821033Y-101275000D01*
X134498967Y-101275000D01*
X134183088Y-101337832D01*
X133885537Y-101461082D01*
X133617748Y-101640013D01*
X133390013Y-101867748D01*
X133390000Y-101867767D01*
X133389987Y-101867748D01*
X133162252Y-101640013D01*
X132894463Y-101461082D01*
X132596912Y-101337832D01*
X132281033Y-101275000D01*
X131958967Y-101275000D01*
X131643088Y-101337832D01*
X131345537Y-101461082D01*
X131077748Y-101640013D01*
X130850013Y-101867748D01*
X130850000Y-101867767D01*
X130849987Y-101867748D01*
X130622252Y-101640013D01*
X130354463Y-101461082D01*
X130056912Y-101337832D01*
X129741033Y-101275000D01*
X129418967Y-101275000D01*
X129103088Y-101337832D01*
X128805537Y-101461082D01*
X128537748Y-101640013D01*
X128310013Y-101867748D01*
X128310000Y-101867767D01*
X128309987Y-101867748D01*
X128082252Y-101640013D01*
X127814463Y-101461082D01*
X127516912Y-101337832D01*
X127201033Y-101275000D01*
X126878967Y-101275000D01*
X126563088Y-101337832D01*
X126265537Y-101461082D01*
X125997748Y-101640013D01*
X125770013Y-101867748D01*
X125770000Y-101867767D01*
X125769987Y-101867748D01*
X125542252Y-101640013D01*
X125274463Y-101461082D01*
X124976912Y-101337832D01*
X124661033Y-101275000D01*
X124338967Y-101275000D01*
X124023088Y-101337832D01*
X123725537Y-101461082D01*
X123457748Y-101640013D01*
X123230013Y-101867748D01*
X123051082Y-102135537D01*
X122927832Y-102433088D01*
X122865000Y-102748967D01*
X122865000Y-103071033D01*
X122927832Y-103386912D01*
X123051082Y-103684463D01*
X123230013Y-103952252D01*
X123329209Y-104051448D01*
X123295506Y-104069463D01*
X123198815Y-104148815D01*
X123119463Y-104245506D01*
X123060498Y-104355820D01*
X123024188Y-104475518D01*
X123011928Y-104600000D01*
X123011928Y-106300000D01*
X123024188Y-106424482D01*
X123060498Y-106544180D01*
X123119463Y-106654494D01*
X123198815Y-106751185D01*
X123295506Y-106830537D01*
X123329209Y-106848552D01*
X123230013Y-106947748D01*
X123051082Y-107215537D01*
X122927832Y-107513088D01*
X122865000Y-107828967D01*
X122865000Y-108151033D01*
X122927832Y-108466912D01*
X123051082Y-108764463D01*
X123230013Y-109032252D01*
X123457748Y-109259987D01*
X123725537Y-109438918D01*
X124023088Y-109562168D01*
X124338967Y-109625000D01*
X124661033Y-109625000D01*
X124976912Y-109562168D01*
X125274463Y-109438918D01*
X125542252Y-109259987D01*
X125769987Y-109032252D01*
X125770000Y-109032233D01*
X125770013Y-109032252D01*
X125997748Y-109259987D01*
X126265537Y-109438918D01*
X126563088Y-109562168D01*
X126878967Y-109625000D01*
X127201033Y-109625000D01*
X127516912Y-109562168D01*
X127814463Y-109438918D01*
X128082252Y-109259987D01*
X128309987Y-109032252D01*
X128310000Y-109032233D01*
X128310013Y-109032252D01*
X128537748Y-109259987D01*
X128805537Y-109438918D01*
X129103088Y-109562168D01*
X129418967Y-109625000D01*
X129741033Y-109625000D01*
X130056912Y-109562168D01*
X130354463Y-109438918D01*
X130622252Y-109259987D01*
X130849987Y-109032252D01*
X130850000Y-109032233D01*
X130850013Y-109032252D01*
X131077748Y-109259987D01*
X131077767Y-109260000D01*
X131077748Y-109260013D01*
X130850013Y-109487748D01*
X130671082Y-109755537D01*
X130547832Y-110053088D01*
X130485000Y-110368967D01*
X130485000Y-110691033D01*
X130547832Y-111006912D01*
X130671082Y-111304463D01*
X130850013Y-111572252D01*
X131077748Y-111799987D01*
X131077767Y-111800000D01*
X131077748Y-111800013D01*
X130850013Y-112027748D01*
X130671082Y-112295537D01*
X130547832Y-112593088D01*
X130485000Y-112908967D01*
X130485000Y-113231033D01*
X130547832Y-113546912D01*
X130671082Y-113844463D01*
X130850013Y-114112252D01*
X131077748Y-114339987D01*
X131077767Y-114340000D01*
X131077748Y-114340013D01*
X130850013Y-114567748D01*
X130671082Y-114835537D01*
X130547832Y-115133088D01*
X130485000Y-115448967D01*
X130485000Y-115771033D01*
X130547832Y-116086912D01*
X130671082Y-116384463D01*
X130850013Y-116652252D01*
X131077748Y-116879987D01*
X131077767Y-116880000D01*
X131077748Y-116880013D01*
X130850013Y-117107748D01*
X130671082Y-117375537D01*
X130547832Y-117673088D01*
X130485000Y-117988967D01*
X130485000Y-118311033D01*
X130547832Y-118626912D01*
X130671082Y-118924463D01*
X130850013Y-119192252D01*
X131077748Y-119419987D01*
X131077767Y-119420000D01*
X131077748Y-119420013D01*
X130850013Y-119647748D01*
X130671082Y-119915537D01*
X130547832Y-120213088D01*
X130485000Y-120528967D01*
X130485000Y-120851033D01*
X130547832Y-121166912D01*
X130671082Y-121464463D01*
X130850013Y-121732252D01*
X131077748Y-121959987D01*
X131092060Y-121969550D01*
X131077748Y-121979113D01*
X130850013Y-122206848D01*
X130671082Y-122474637D01*
X130547832Y-122772188D01*
X130485000Y-123088067D01*
X130485000Y-123410133D01*
X130547832Y-123726012D01*
X130671082Y-124023563D01*
X130850013Y-124291352D01*
X131068211Y-124509550D01*
X130850013Y-124727748D01*
X130850000Y-124727767D01*
X130849987Y-124727748D01*
X130622252Y-124500013D01*
X130354463Y-124321082D01*
X130056912Y-124197832D01*
X129741033Y-124135000D01*
X129418967Y-124135000D01*
X129103088Y-124197832D01*
X128805537Y-124321082D01*
X128537748Y-124500013D01*
X128310013Y-124727748D01*
X128310000Y-124727767D01*
X128309987Y-124727748D01*
X128082252Y-124500013D01*
X127814463Y-124321082D01*
X127516912Y-124197832D01*
X127201033Y-124135000D01*
X126878967Y-124135000D01*
X126563088Y-124197832D01*
X126265537Y-124321082D01*
X125997748Y-124500013D01*
X125770013Y-124727748D01*
X125770000Y-124727767D01*
X125769987Y-124727748D01*
X125542252Y-124500013D01*
X125274463Y-124321082D01*
X124976912Y-124197832D01*
X124661033Y-124135000D01*
X124338967Y-124135000D01*
X124023088Y-124197832D01*
X123725537Y-124321082D01*
X123457748Y-124500013D01*
X123230013Y-124727748D01*
X123230000Y-124727767D01*
X123229987Y-124727748D01*
X123002252Y-124500013D01*
X122734463Y-124321082D01*
X122436912Y-124197832D01*
X122121033Y-124135000D01*
X121798967Y-124135000D01*
X121483088Y-124197832D01*
X121185537Y-124321082D01*
X120917748Y-124500013D01*
X120690013Y-124727748D01*
X120511082Y-124995537D01*
X120387832Y-125293088D01*
X120325000Y-125608967D01*
X120325000Y-125931033D01*
X120387832Y-126246912D01*
X120511082Y-126544463D01*
X120690013Y-126812252D01*
X120917748Y-127039987D01*
X121185537Y-127218918D01*
X121483088Y-127342168D01*
X121798967Y-127405000D01*
X122121033Y-127405000D01*
X122299602Y-127369481D01*
X123011928Y-128081807D01*
X123011928Y-128512893D01*
X122278500Y-129246322D01*
X122121033Y-129215000D01*
X121798967Y-129215000D01*
X121483088Y-129277832D01*
X121185537Y-129401082D01*
X120917748Y-129580013D01*
X120690013Y-129807748D01*
X120511082Y-130075537D01*
X120387832Y-130373088D01*
X120325000Y-130688967D01*
X120325000Y-131011033D01*
X120387832Y-131326912D01*
X120511082Y-131624463D01*
X120690013Y-131892252D01*
X120917748Y-132119987D01*
X120917767Y-132120000D01*
X120917748Y-132120013D01*
X120690013Y-132347748D01*
X120690000Y-132347767D01*
X120689987Y-132347748D01*
X120462252Y-132120013D01*
X120194463Y-131941082D01*
X119896912Y-131817832D01*
X119581033Y-131755000D01*
X119258967Y-131755000D01*
X118943088Y-131817832D01*
X118645537Y-131941082D01*
X118377748Y-132120013D01*
X118150013Y-132347748D01*
X118150000Y-132347767D01*
X118149987Y-132347748D01*
X117922252Y-132120013D01*
X117654463Y-131941082D01*
X117356912Y-131817832D01*
X117041033Y-131755000D01*
X116718967Y-131755000D01*
X116403088Y-131817832D01*
X116105537Y-131941082D01*
X115837748Y-132120013D01*
X115610013Y-132347748D01*
X115610000Y-132347767D01*
X115609987Y-132347748D01*
X115382252Y-132120013D01*
X115114463Y-131941082D01*
X114816912Y-131817832D01*
X114501033Y-131755000D01*
X114178967Y-131755000D01*
X113863088Y-131817832D01*
X113565537Y-131941082D01*
X113297748Y-132120013D01*
X113070013Y-132347748D01*
X113070000Y-132347767D01*
X113069987Y-132347748D01*
X112842252Y-132120013D01*
X112574463Y-131941082D01*
X112276912Y-131817832D01*
X111961033Y-131755000D01*
X111638967Y-131755000D01*
X111323088Y-131817832D01*
X111025537Y-131941082D01*
X110757748Y-132120013D01*
X110530013Y-132347748D01*
X110530000Y-132347767D01*
X110529987Y-132347748D01*
X110302252Y-132120013D01*
X110034463Y-131941082D01*
X109736912Y-131817832D01*
X109421033Y-131755000D01*
X109098967Y-131755000D01*
X108783088Y-131817832D01*
X108485537Y-131941082D01*
X108217748Y-132120013D01*
X107990013Y-132347748D01*
X107990000Y-132347767D01*
X107989987Y-132347748D01*
X107762252Y-132120013D01*
X107494463Y-131941082D01*
X107196912Y-131817832D01*
X106881033Y-131755000D01*
X106558967Y-131755000D01*
X106243088Y-131817832D01*
X105945537Y-131941082D01*
X105677748Y-132120013D01*
X105450013Y-132347748D01*
X105271082Y-132615537D01*
X105147832Y-132913088D01*
X105085000Y-133228967D01*
X100660000Y-133228967D01*
X100660000Y-124289721D01*
X103365000Y-124289721D01*
X103365000Y-124710279D01*
X103447047Y-125122756D01*
X103607988Y-125511302D01*
X103841637Y-125860983D01*
X104139017Y-126158363D01*
X104488698Y-126392012D01*
X104877244Y-126552953D01*
X105289721Y-126635000D01*
X105710279Y-126635000D01*
X106122756Y-126552953D01*
X106511302Y-126392012D01*
X106860983Y-126158363D01*
X107158363Y-125860983D01*
X107392012Y-125511302D01*
X107552953Y-125122756D01*
X107635000Y-124710279D01*
X107635000Y-124289721D01*
X107552953Y-123877244D01*
X107392012Y-123488698D01*
X107158363Y-123139017D01*
X106860983Y-122841637D01*
X106511302Y-122607988D01*
X106122756Y-122447047D01*
X105710279Y-122365000D01*
X105289721Y-122365000D01*
X104877244Y-122447047D01*
X104488698Y-122607988D01*
X104139017Y-122841637D01*
X103841637Y-123139017D01*
X103607988Y-123488698D01*
X103447047Y-123877244D01*
X103365000Y-124289721D01*
X100660000Y-124289721D01*
X100660000Y-110368967D01*
X107625000Y-110368967D01*
X107625000Y-110691033D01*
X107687832Y-111006912D01*
X107811082Y-111304463D01*
X107990013Y-111572252D01*
X108217748Y-111799987D01*
X108217767Y-111800000D01*
X108217748Y-111800013D01*
X107990013Y-112027748D01*
X107811082Y-112295537D01*
X107687832Y-112593088D01*
X107625000Y-112908967D01*
X107625000Y-113231033D01*
X107687832Y-113546912D01*
X107811082Y-113844463D01*
X107990013Y-114112252D01*
X108217748Y-114339987D01*
X108217767Y-114340000D01*
X108217748Y-114340013D01*
X107990013Y-114567748D01*
X107811082Y-114835537D01*
X107687832Y-115133088D01*
X107625000Y-115448967D01*
X107625000Y-115771033D01*
X107687832Y-116086912D01*
X107811082Y-116384463D01*
X107990013Y-116652252D01*
X108217748Y-116879987D01*
X108217767Y-116880000D01*
X108217748Y-116880013D01*
X107990013Y-117107748D01*
X107811082Y-117375537D01*
X107687832Y-117673088D01*
X107625000Y-117988967D01*
X107625000Y-118311033D01*
X107687832Y-118626912D01*
X107811082Y-118924463D01*
X107990013Y-119192252D01*
X108217748Y-119419987D01*
X108217767Y-119420000D01*
X108217748Y-119420013D01*
X107990013Y-119647748D01*
X107811082Y-119915537D01*
X107687832Y-120213088D01*
X107625000Y-120528967D01*
X107625000Y-120851033D01*
X107687832Y-121166912D01*
X107811082Y-121464463D01*
X107990013Y-121732252D01*
X108217748Y-121959987D01*
X108217767Y-121960000D01*
X108217748Y-121960013D01*
X107990013Y-122187748D01*
X107811082Y-122455537D01*
X107687832Y-122753088D01*
X107625000Y-123068967D01*
X107625000Y-123391033D01*
X107687832Y-123706912D01*
X107811082Y-124004463D01*
X107990013Y-124272252D01*
X108217748Y-124499987D01*
X108217767Y-124500000D01*
X108217748Y-124500013D01*
X107990013Y-124727748D01*
X107811082Y-124995537D01*
X107687832Y-125293088D01*
X107625000Y-125608967D01*
X107625000Y-125931033D01*
X107687832Y-126246912D01*
X107811082Y-126544463D01*
X107990013Y-126812252D01*
X108217748Y-127039987D01*
X108217767Y-127040000D01*
X108217748Y-127040013D01*
X107990013Y-127267748D01*
X107811082Y-127535537D01*
X107687832Y-127833088D01*
X107625000Y-128148967D01*
X107625000Y-128471033D01*
X107687832Y-128786912D01*
X107811082Y-129084463D01*
X107990013Y-129352252D01*
X108217748Y-129579987D01*
X108485537Y-129758918D01*
X108783088Y-129882168D01*
X109098967Y-129945000D01*
X109421033Y-129945000D01*
X109736912Y-129882168D01*
X110034463Y-129758918D01*
X110302252Y-129579987D01*
X110401448Y-129480791D01*
X110419463Y-129514494D01*
X110498815Y-129611185D01*
X110595506Y-129690537D01*
X110705820Y-129749502D01*
X110825518Y-129785812D01*
X110950000Y-129798072D01*
X112650000Y-129798072D01*
X112774482Y-129785812D01*
X112894180Y-129749502D01*
X113004494Y-129690537D01*
X113101185Y-129611185D01*
X113180537Y-129514494D01*
X113198552Y-129480791D01*
X113297748Y-129579987D01*
X113565537Y-129758918D01*
X113863088Y-129882168D01*
X114178967Y-129945000D01*
X114501033Y-129945000D01*
X114816912Y-129882168D01*
X115114463Y-129758918D01*
X115382252Y-129579987D01*
X115609987Y-129352252D01*
X115788918Y-129084463D01*
X115912168Y-128786912D01*
X115975000Y-128471033D01*
X115975000Y-128148967D01*
X115912168Y-127833088D01*
X115788918Y-127535537D01*
X115609987Y-127267748D01*
X115382252Y-127040013D01*
X115382233Y-127040000D01*
X115382252Y-127039987D01*
X115609987Y-126812252D01*
X115788918Y-126544463D01*
X115912168Y-126246912D01*
X115975000Y-125931033D01*
X115975000Y-125608967D01*
X115912168Y-125293088D01*
X115788918Y-124995537D01*
X115609987Y-124727748D01*
X115382252Y-124500013D01*
X115382233Y-124500000D01*
X115382252Y-124499987D01*
X115609987Y-124272252D01*
X115788918Y-124004463D01*
X115912168Y-123706912D01*
X115975000Y-123391033D01*
X115975000Y-123068967D01*
X115912168Y-122753088D01*
X115788918Y-122455537D01*
X115609987Y-122187748D01*
X115382252Y-121960013D01*
X115382233Y-121960000D01*
X115382252Y-121959987D01*
X115609987Y-121732252D01*
X115788918Y-121464463D01*
X115912168Y-121166912D01*
X115975000Y-120851033D01*
X115975000Y-120528967D01*
X115912168Y-120213088D01*
X115788918Y-119915537D01*
X115609987Y-119647748D01*
X115382252Y-119420013D01*
X115382233Y-119420000D01*
X115382252Y-119419987D01*
X115609987Y-119192252D01*
X115788918Y-118924463D01*
X115912168Y-118626912D01*
X115975000Y-118311033D01*
X115975000Y-117988967D01*
X115912168Y-117673088D01*
X115788918Y-117375537D01*
X115609987Y-117107748D01*
X115382252Y-116880013D01*
X115382233Y-116880000D01*
X115382252Y-116879987D01*
X115609987Y-116652252D01*
X115788918Y-116384463D01*
X115912168Y-116086912D01*
X115975000Y-115771033D01*
X115975000Y-115448967D01*
X115912168Y-115133088D01*
X115788918Y-114835537D01*
X115609987Y-114567748D01*
X115382252Y-114340013D01*
X115382233Y-114340000D01*
X115382252Y-114339987D01*
X115609987Y-114112252D01*
X115788918Y-113844463D01*
X115912168Y-113546912D01*
X115975000Y-113231033D01*
X115975000Y-112908967D01*
X115912168Y-112593088D01*
X115788918Y-112295537D01*
X115609987Y-112027748D01*
X115382252Y-111800013D01*
X115382233Y-111800000D01*
X115382252Y-111799987D01*
X115609987Y-111572252D01*
X115788918Y-111304463D01*
X115912168Y-111006912D01*
X115975000Y-110691033D01*
X115975000Y-110368967D01*
X115912168Y-110053088D01*
X115788918Y-109755537D01*
X115609987Y-109487748D01*
X115382252Y-109260013D01*
X115114463Y-109081082D01*
X114816912Y-108957832D01*
X114501033Y-108895000D01*
X114178967Y-108895000D01*
X113863088Y-108957832D01*
X113565537Y-109081082D01*
X113297748Y-109260013D01*
X113070013Y-109487748D01*
X112979798Y-109622764D01*
X112953475Y-109583368D01*
X112746632Y-109376525D01*
X112503411Y-109214010D01*
X112233158Y-109102068D01*
X111946260Y-109045000D01*
X111653740Y-109045000D01*
X111366842Y-109102068D01*
X111096589Y-109214010D01*
X110853368Y-109376525D01*
X110646525Y-109583368D01*
X110620202Y-109622764D01*
X110529987Y-109487748D01*
X110302252Y-109260013D01*
X110034463Y-109081082D01*
X109736912Y-108957832D01*
X109421033Y-108895000D01*
X109098967Y-108895000D01*
X108783088Y-108957832D01*
X108485537Y-109081082D01*
X108217748Y-109260013D01*
X107990013Y-109487748D01*
X107811082Y-109755537D01*
X107687832Y-110053088D01*
X107625000Y-110368967D01*
X100660000Y-110368967D01*
X100660000Y-107110097D01*
X101068607Y-107077939D01*
X101170898Y-107061738D01*
X102162684Y-106823631D01*
X102178657Y-106818441D01*
X102261181Y-106791628D01*
X103203509Y-106401303D01*
X103260196Y-106372419D01*
X103295787Y-106354285D01*
X104165453Y-105821353D01*
X104208177Y-105790312D01*
X104249240Y-105760478D01*
X105024830Y-105098062D01*
X105098063Y-105024829D01*
X105725903Y-104289721D01*
X110365000Y-104289721D01*
X110365000Y-104710279D01*
X110447047Y-105122756D01*
X110607988Y-105511302D01*
X110841637Y-105860983D01*
X111139017Y-106158363D01*
X111488698Y-106392012D01*
X111877244Y-106552953D01*
X112289721Y-106635000D01*
X112710279Y-106635000D01*
X113122756Y-106552953D01*
X113511302Y-106392012D01*
X113860983Y-106158363D01*
X114158363Y-105860983D01*
X114392012Y-105511302D01*
X114552953Y-105122756D01*
X114635000Y-104710279D01*
X114635000Y-104289721D01*
X114552953Y-103877244D01*
X114392012Y-103488698D01*
X114158363Y-103139017D01*
X113860983Y-102841637D01*
X113511302Y-102607988D01*
X113122756Y-102447047D01*
X112710279Y-102365000D01*
X112289721Y-102365000D01*
X111877244Y-102447047D01*
X111488698Y-102607988D01*
X111139017Y-102841637D01*
X110841637Y-103139017D01*
X110607988Y-103488698D01*
X110447047Y-103877244D01*
X110365000Y-104289721D01*
X105725903Y-104289721D01*
X105760478Y-104249240D01*
X105821353Y-104165453D01*
X105821354Y-104165452D01*
X106354284Y-103295787D01*
X106373608Y-103257862D01*
X106401303Y-103203509D01*
X106791627Y-102261181D01*
X106823631Y-102162684D01*
X107061738Y-101170898D01*
X107077939Y-101068607D01*
X107110097Y-100660000D01*
X167889903Y-100660000D01*
X167922061Y-101068607D01*
G37*
X167922061Y-101068607D02*
X167938262Y-101170898D01*
X168176369Y-102162684D01*
X168208372Y-102261181D01*
X168598697Y-103203509D01*
X168621621Y-103248499D01*
X168645715Y-103295787D01*
X169178647Y-104165453D01*
X169198871Y-104193288D01*
X169239522Y-104249240D01*
X169901938Y-105024830D01*
X169975170Y-105098062D01*
X170750760Y-105760478D01*
X170834547Y-105821353D01*
X171704213Y-106354284D01*
X171796491Y-106401303D01*
X172738819Y-106791627D01*
X172837316Y-106823631D01*
X173829102Y-107061738D01*
X173931393Y-107077939D01*
X174340000Y-107110097D01*
X174340001Y-141889903D01*
X173931393Y-141922061D01*
X173829102Y-141938262D01*
X172837316Y-142176369D01*
X172738819Y-142208373D01*
X171796491Y-142598697D01*
X171705618Y-142645000D01*
X171704213Y-142645716D01*
X170834547Y-143178647D01*
X170750760Y-143239522D01*
X169975170Y-143901938D01*
X169901938Y-143975170D01*
X169239522Y-144750760D01*
X169209084Y-144792654D01*
X169178647Y-144834547D01*
X168645715Y-145704213D01*
X168626392Y-145742138D01*
X168598697Y-145796491D01*
X168208372Y-146738819D01*
X168178937Y-146829411D01*
X168176369Y-146837316D01*
X167938262Y-147829102D01*
X167922061Y-147931393D01*
X167889903Y-148340000D01*
X107110097Y-148340000D01*
X107077939Y-147931393D01*
X107061738Y-147829102D01*
X106823631Y-146837316D01*
X106791627Y-146738819D01*
X106401303Y-145796491D01*
X106354284Y-145704213D01*
X105821353Y-144834547D01*
X105760478Y-144750760D01*
X105366714Y-144289721D01*
X110365000Y-144289721D01*
X110365000Y-144710279D01*
X110447047Y-145122756D01*
X110607988Y-145511302D01*
X110841637Y-145860983D01*
X111139017Y-146158363D01*
X111488698Y-146392012D01*
X111877244Y-146552953D01*
X112289721Y-146635000D01*
X112710279Y-146635000D01*
X113122756Y-146552953D01*
X113511302Y-146392012D01*
X113860983Y-146158363D01*
X114158363Y-145860983D01*
X114392012Y-145511302D01*
X114552953Y-145122756D01*
X114635000Y-144710279D01*
X114635000Y-144289721D01*
X114552953Y-143877244D01*
X114392012Y-143488698D01*
X114158363Y-143139017D01*
X113860983Y-142841637D01*
X113511302Y-142607988D01*
X113122756Y-142447047D01*
X112710279Y-142365000D01*
X112289721Y-142365000D01*
X111877244Y-142447047D01*
X111488698Y-142607988D01*
X111139017Y-142841637D01*
X110841637Y-143139017D01*
X110607988Y-143488698D01*
X110447047Y-143877244D01*
X110365000Y-144289721D01*
X105366714Y-144289721D01*
X105098062Y-143975170D01*
X105024830Y-143901938D01*
X104249240Y-143239522D01*
X104180784Y-143189786D01*
X104165453Y-143178647D01*
X103295787Y-142645715D01*
X103249648Y-142622207D01*
X103203509Y-142598697D01*
X102261181Y-142208372D01*
X102162684Y-142176369D01*
X101170898Y-141938262D01*
X101068607Y-141922061D01*
X100660000Y-141889903D01*
X100660000Y-133228967D01*
X105085000Y-133228967D01*
X105085000Y-133551033D01*
X105147832Y-133866912D01*
X105271082Y-134164463D01*
X105450013Y-134432252D01*
X105677748Y-134659987D01*
X105677767Y-134660000D01*
X105677748Y-134660013D01*
X105450013Y-134887748D01*
X105271082Y-135155537D01*
X105147832Y-135453088D01*
X105085000Y-135768967D01*
X105085000Y-136091033D01*
X105147832Y-136406912D01*
X105271082Y-136704463D01*
X105450013Y-136972252D01*
X105677748Y-137199987D01*
X105945537Y-137378918D01*
X106243088Y-137502168D01*
X106558967Y-137565000D01*
X106881033Y-137565000D01*
X107196912Y-137502168D01*
X107494463Y-137378918D01*
X107762252Y-137199987D01*
X107989987Y-136972252D01*
X107990000Y-136972233D01*
X107990013Y-136972252D01*
X108217748Y-137199987D01*
X108485537Y-137378918D01*
X108783088Y-137502168D01*
X109098967Y-137565000D01*
X109421033Y-137565000D01*
X109736912Y-137502168D01*
X110034463Y-137378918D01*
X110302252Y-137199987D01*
X110529987Y-136972252D01*
X110530000Y-136972233D01*
X110530013Y-136972252D01*
X110757748Y-137199987D01*
X111025537Y-137378918D01*
X111323088Y-137502168D01*
X111638967Y-137565000D01*
X111961033Y-137565000D01*
X112276912Y-137502168D01*
X112574463Y-137378918D01*
X112842252Y-137199987D01*
X113069987Y-136972252D01*
X113070000Y-136972233D01*
X113070013Y-136972252D01*
X113297748Y-137199987D01*
X113565537Y-137378918D01*
X113863088Y-137502168D01*
X114178967Y-137565000D01*
X114501033Y-137565000D01*
X114816912Y-137502168D01*
X115114463Y-137378918D01*
X115382252Y-137199987D01*
X115609987Y-136972252D01*
X115610000Y-136972233D01*
X115610013Y-136972252D01*
X115837748Y-137199987D01*
X115837767Y-137200000D01*
X115837748Y-137200013D01*
X115610013Y-137427748D01*
X115431082Y-137695537D01*
X115307832Y-137993088D01*
X115245000Y-138308967D01*
X115245000Y-138631033D01*
X115307832Y-138946912D01*
X115431082Y-139244463D01*
X115610013Y-139512252D01*
X115837748Y-139739987D01*
X115837767Y-139740000D01*
X115837748Y-139740013D01*
X115610013Y-139967748D01*
X115431082Y-140235537D01*
X115307832Y-140533088D01*
X115245000Y-140848967D01*
X115245000Y-141171033D01*
X115307832Y-141486912D01*
X115431082Y-141784463D01*
X115610013Y-142052252D01*
X115837748Y-142279987D01*
X115837767Y-142280000D01*
X115837748Y-142280013D01*
X115610013Y-142507748D01*
X115431082Y-142775537D01*
X115307832Y-143073088D01*
X115245000Y-143388967D01*
X115245000Y-143711033D01*
X115307832Y-144026912D01*
X115431082Y-144324463D01*
X115610013Y-144592252D01*
X115837748Y-144819987D01*
X115837767Y-144820000D01*
X115837748Y-144820013D01*
X115610013Y-145047748D01*
X115431082Y-145315537D01*
X115307832Y-145613088D01*
X115245000Y-145928967D01*
X115245000Y-146251033D01*
X115307832Y-146566912D01*
X115431082Y-146864463D01*
X115610013Y-147132252D01*
X115837748Y-147359987D01*
X116105537Y-147538918D01*
X116403088Y-147662168D01*
X116718967Y-147725000D01*
X117041033Y-147725000D01*
X117356912Y-147662168D01*
X117654463Y-147538918D01*
X117922252Y-147359987D01*
X118149987Y-147132252D01*
X118150000Y-147132233D01*
X118150013Y-147132252D01*
X118377748Y-147359987D01*
X118645537Y-147538918D01*
X118943088Y-147662168D01*
X119258967Y-147725000D01*
X119581033Y-147725000D01*
X119896912Y-147662168D01*
X120194463Y-147538918D01*
X120462252Y-147359987D01*
X120689987Y-147132252D01*
X120690000Y-147132233D01*
X120690013Y-147132252D01*
X120917748Y-147359987D01*
X121185537Y-147538918D01*
X121483088Y-147662168D01*
X121798967Y-147725000D01*
X122121033Y-147725000D01*
X122436912Y-147662168D01*
X122734463Y-147538918D01*
X123002252Y-147359987D01*
X123229987Y-147132252D01*
X123230000Y-147132233D01*
X123230013Y-147132252D01*
X123457748Y-147359987D01*
X123725537Y-147538918D01*
X124023088Y-147662168D01*
X124338967Y-147725000D01*
X124661033Y-147725000D01*
X124976912Y-147662168D01*
X125274463Y-147538918D01*
X125542252Y-147359987D01*
X125769987Y-147132252D01*
X125770000Y-147132233D01*
X125770013Y-147132252D01*
X125997748Y-147359987D01*
X126265537Y-147538918D01*
X126563088Y-147662168D01*
X126878967Y-147725000D01*
X127201033Y-147725000D01*
X127516912Y-147662168D01*
X127814463Y-147538918D01*
X128082252Y-147359987D01*
X128309987Y-147132252D01*
X128310000Y-147132233D01*
X128310013Y-147132252D01*
X128537748Y-147359987D01*
X128805537Y-147538918D01*
X129103088Y-147662168D01*
X129418967Y-147725000D01*
X129741033Y-147725000D01*
X130056912Y-147662168D01*
X130354463Y-147538918D01*
X130622252Y-147359987D01*
X130849987Y-147132252D01*
X130850000Y-147132233D01*
X130850013Y-147132252D01*
X131077748Y-147359987D01*
X131345537Y-147538918D01*
X131643088Y-147662168D01*
X131958967Y-147725000D01*
X132281033Y-147725000D01*
X132596912Y-147662168D01*
X132894463Y-147538918D01*
X133162252Y-147359987D01*
X133389987Y-147132252D01*
X133390000Y-147132233D01*
X133390013Y-147132252D01*
X133617748Y-147359987D01*
X133885537Y-147538918D01*
X134183088Y-147662168D01*
X134498967Y-147725000D01*
X134821033Y-147725000D01*
X135136912Y-147662168D01*
X135434463Y-147538918D01*
X135702252Y-147359987D01*
X135929987Y-147132252D01*
X135930000Y-147132233D01*
X135930013Y-147132252D01*
X136157748Y-147359987D01*
X136425537Y-147538918D01*
X136723088Y-147662168D01*
X137038967Y-147725000D01*
X137361033Y-147725000D01*
X137676912Y-147662168D01*
X137974463Y-147538918D01*
X138242252Y-147359987D01*
X138469987Y-147132252D01*
X138470000Y-147132233D01*
X138470013Y-147132252D01*
X138697748Y-147359987D01*
X138965537Y-147538918D01*
X139263088Y-147662168D01*
X139578967Y-147725000D01*
X139901033Y-147725000D01*
X140216912Y-147662168D01*
X140514463Y-147538918D01*
X140782252Y-147359987D01*
X141009987Y-147132252D01*
X141010000Y-147132233D01*
X141010013Y-147132252D01*
X141237748Y-147359987D01*
X141505537Y-147538918D01*
X141803088Y-147662168D01*
X142118967Y-147725000D01*
X142441033Y-147725000D01*
X142756912Y-147662168D01*
X143054463Y-147538918D01*
X143322252Y-147359987D01*
X143549987Y-147132252D01*
X143550000Y-147132233D01*
X143550013Y-147132252D01*
X143777748Y-147359987D01*
X144045537Y-147538918D01*
X144343088Y-147662168D01*
X144658967Y-147725000D01*
X144981033Y-147725000D01*
X145296912Y-147662168D01*
X145594463Y-147538918D01*
X145862252Y-147359987D01*
X146089987Y-147132252D01*
X146090000Y-147132233D01*
X146090013Y-147132252D01*
X146317748Y-147359987D01*
X146585537Y-147538918D01*
X146883088Y-147662168D01*
X147198967Y-147725000D01*
X147521033Y-147725000D01*
X147836912Y-147662168D01*
X148134463Y-147538918D01*
X148402252Y-147359987D01*
X148629987Y-147132252D01*
X148630000Y-147132233D01*
X148630013Y-147132252D01*
X148857748Y-147359987D01*
X149125537Y-147538918D01*
X149423088Y-147662168D01*
X149738967Y-147725000D01*
X150061033Y-147725000D01*
X150376912Y-147662168D01*
X150674463Y-147538918D01*
X150942252Y-147359987D01*
X151169987Y-147132252D01*
X151170000Y-147132233D01*
X151170013Y-147132252D01*
X151397748Y-147359987D01*
X151665537Y-147538918D01*
X151963088Y-147662168D01*
X152278967Y-147725000D01*
X152601033Y-147725000D01*
X152916912Y-147662168D01*
X153214463Y-147538918D01*
X153482252Y-147359987D01*
X153709987Y-147132252D01*
X153710000Y-147132233D01*
X153710013Y-147132252D01*
X153937748Y-147359987D01*
X154205537Y-147538918D01*
X154503088Y-147662168D01*
X154818967Y-147725000D01*
X155141033Y-147725000D01*
X155456912Y-147662168D01*
X155754463Y-147538918D01*
X156022252Y-147359987D01*
X156249987Y-147132252D01*
X156250000Y-147132233D01*
X156250013Y-147132252D01*
X156477748Y-147359987D01*
X156745537Y-147538918D01*
X157043088Y-147662168D01*
X157358967Y-147725000D01*
X157681033Y-147725000D01*
X157996912Y-147662168D01*
X158294463Y-147538918D01*
X158562252Y-147359987D01*
X158789987Y-147132252D01*
X158968918Y-146864463D01*
X159092168Y-146566912D01*
X159155000Y-146251033D01*
X159155000Y-145928967D01*
X159092168Y-145613088D01*
X158968918Y-145315537D01*
X158789987Y-145047748D01*
X158562252Y-144820013D01*
X158562233Y-144820000D01*
X158562252Y-144819987D01*
X158789987Y-144592252D01*
X158968918Y-144324463D01*
X158983308Y-144289721D01*
X160365000Y-144289721D01*
X160365000Y-144710279D01*
X160447047Y-145122756D01*
X160607988Y-145511302D01*
X160841637Y-145860983D01*
X161139017Y-146158363D01*
X161488698Y-146392012D01*
X161877244Y-146552953D01*
X162289721Y-146635000D01*
X162710279Y-146635000D01*
X163122756Y-146552953D01*
X163511302Y-146392012D01*
X163860983Y-146158363D01*
X164158363Y-145860983D01*
X164392012Y-145511302D01*
X164552953Y-145122756D01*
X164635000Y-144710279D01*
X164635000Y-144289721D01*
X164552953Y-143877244D01*
X164392012Y-143488698D01*
X164158363Y-143139017D01*
X163860983Y-142841637D01*
X163511302Y-142607988D01*
X163122756Y-142447047D01*
X162710279Y-142365000D01*
X162289721Y-142365000D01*
X161877244Y-142447047D01*
X161488698Y-142607988D01*
X161139017Y-142841637D01*
X160841637Y-143139017D01*
X160607988Y-143488698D01*
X160447047Y-143877244D01*
X160365000Y-144289721D01*
X158983308Y-144289721D01*
X159092168Y-144026912D01*
X159155000Y-143711033D01*
X159155000Y-143388967D01*
X159092168Y-143073088D01*
X158968918Y-142775537D01*
X158789987Y-142507748D01*
X158562252Y-142280013D01*
X158562233Y-142280000D01*
X158562252Y-142279987D01*
X158789987Y-142052252D01*
X158968918Y-141784463D01*
X159092168Y-141486912D01*
X159155000Y-141171033D01*
X159155000Y-140848967D01*
X159092168Y-140533088D01*
X158968918Y-140235537D01*
X158789987Y-139967748D01*
X158562252Y-139740013D01*
X158562233Y-139740000D01*
X158562252Y-139739987D01*
X158789987Y-139512252D01*
X158968918Y-139244463D01*
X159036107Y-139082254D01*
X159285537Y-139248918D01*
X159583088Y-139372168D01*
X159898967Y-139435000D01*
X160221033Y-139435000D01*
X160536912Y-139372168D01*
X160834463Y-139248918D01*
X161102252Y-139069987D01*
X161329987Y-138842252D01*
X161435059Y-138685000D01*
X165161928Y-138685000D01*
X165161928Y-139000000D01*
X165174188Y-139124482D01*
X165210498Y-139244180D01*
X165269463Y-139354494D01*
X165348815Y-139451185D01*
X165445506Y-139530537D01*
X165555820Y-139589502D01*
X165675518Y-139625812D01*
X165800000Y-139638072D01*
X168200000Y-139638072D01*
X168324482Y-139625812D01*
X168444180Y-139589502D01*
X168554494Y-139530537D01*
X168651185Y-139451185D01*
X168730537Y-139354494D01*
X168789502Y-139244180D01*
X168825812Y-139124482D01*
X168838072Y-139000000D01*
X168838072Y-136600000D01*
X168825812Y-136475518D01*
X168789502Y-136355820D01*
X168730537Y-136245506D01*
X168651185Y-136148815D01*
X168554494Y-136069463D01*
X168444180Y-136010498D01*
X168324482Y-135974188D01*
X168200000Y-135961928D01*
X167782838Y-135961928D01*
X167869199Y-135926156D01*
X168169744Y-135725338D01*
X168425338Y-135469744D01*
X168626156Y-135169199D01*
X168764482Y-134835250D01*
X168835000Y-134480732D01*
X168835000Y-134119268D01*
X168764482Y-133764750D01*
X168626156Y-133430801D01*
X168425338Y-133130256D01*
X168169744Y-132874662D01*
X167869199Y-132673844D01*
X167570213Y-132550000D01*
X167869199Y-132426156D01*
X168169744Y-132225338D01*
X168425338Y-131969744D01*
X168626156Y-131669199D01*
X168764482Y-131335250D01*
X168835000Y-130980732D01*
X168835000Y-130619268D01*
X168764482Y-130264750D01*
X168626156Y-129930801D01*
X168425338Y-129630256D01*
X168169744Y-129374662D01*
X167869199Y-129173844D01*
X167535250Y-129035518D01*
X167180732Y-128965000D01*
X166819268Y-128965000D01*
X166464750Y-129035518D01*
X166130801Y-129173844D01*
X165830256Y-129374662D01*
X165574662Y-129630256D01*
X165384402Y-129915000D01*
X161435059Y-129915000D01*
X161329987Y-129757748D01*
X161102252Y-129530013D01*
X160834463Y-129351082D01*
X160536912Y-129227832D01*
X160221033Y-129165000D01*
X159898967Y-129165000D01*
X159583088Y-129227832D01*
X159285537Y-129351082D01*
X159017748Y-129530013D01*
X158790013Y-129757748D01*
X158769975Y-129787736D01*
X158562252Y-129580013D01*
X158562233Y-129580000D01*
X158562252Y-129579987D01*
X158789987Y-129352252D01*
X158968918Y-129084463D01*
X159092168Y-128786912D01*
X159155000Y-128471033D01*
X159155000Y-128148967D01*
X159092168Y-127833088D01*
X158968918Y-127535537D01*
X158789987Y-127267748D01*
X158562252Y-127040013D01*
X158562233Y-127040000D01*
X158562252Y-127039987D01*
X158697189Y-126905050D01*
X161644555Y-126905050D01*
X161740258Y-127169399D01*
X162029787Y-127310238D01*
X162341229Y-127391885D01*
X162662615Y-127411205D01*
X162981595Y-127367454D01*
X163285911Y-127262314D01*
X163459742Y-127169399D01*
X163555445Y-126905050D01*
X162600000Y-125949605D01*
X161644555Y-126905050D01*
X158697189Y-126905050D01*
X158789987Y-126812252D01*
X158968918Y-126544463D01*
X159092168Y-126246912D01*
X159155000Y-125931033D01*
X159155000Y-125832615D01*
X160958795Y-125832615D01*
X161002546Y-126151595D01*
X161107686Y-126455911D01*
X161200601Y-126629742D01*
X161464950Y-126725445D01*
X162420395Y-125770000D01*
X162779605Y-125770000D01*
X163735050Y-126725445D01*
X163999399Y-126629742D01*
X164140238Y-126340213D01*
X164221885Y-126028771D01*
X164241205Y-125707385D01*
X164197454Y-125388405D01*
X164092314Y-125084089D01*
X163999399Y-124910258D01*
X163735050Y-124814555D01*
X162779605Y-125770000D01*
X162420395Y-125770000D01*
X161464950Y-124814555D01*
X161200601Y-124910258D01*
X161059762Y-125199787D01*
X160978115Y-125511229D01*
X160958795Y-125832615D01*
X159155000Y-125832615D01*
X159155000Y-125608967D01*
X159092168Y-125293088D01*
X158968918Y-124995537D01*
X158789987Y-124727748D01*
X158562252Y-124500013D01*
X158562233Y-124500000D01*
X158562252Y-124499987D01*
X158697189Y-124365050D01*
X161644555Y-124365050D01*
X161693411Y-124500000D01*
X161644555Y-124634950D01*
X162600000Y-125590395D01*
X163555445Y-124634950D01*
X163506589Y-124500000D01*
X163555445Y-124365050D01*
X163480116Y-124289721D01*
X167365000Y-124289721D01*
X167365000Y-124710279D01*
X167447047Y-125122756D01*
X167607988Y-125511302D01*
X167841637Y-125860983D01*
X168139017Y-126158363D01*
X168488698Y-126392012D01*
X168877244Y-126552953D01*
X169289721Y-126635000D01*
X169710279Y-126635000D01*
X170122756Y-126552953D01*
X170511302Y-126392012D01*
X170860983Y-126158363D01*
X171158363Y-125860983D01*
X171392012Y-125511302D01*
X171552953Y-125122756D01*
X171635000Y-124710279D01*
X171635000Y-124289721D01*
X171552953Y-123877244D01*
X171392012Y-123488698D01*
X171158363Y-123139017D01*
X170860983Y-122841637D01*
X170511302Y-122607988D01*
X170122756Y-122447047D01*
X169710279Y-122365000D01*
X169289721Y-122365000D01*
X168877244Y-122447047D01*
X168488698Y-122607988D01*
X168139017Y-122841637D01*
X167841637Y-123139017D01*
X167607988Y-123488698D01*
X167447047Y-123877244D01*
X167365000Y-124289721D01*
X163480116Y-124289721D01*
X162600000Y-123409605D01*
X161644555Y-124365050D01*
X158697189Y-124365050D01*
X158789987Y-124272252D01*
X158968918Y-124004463D01*
X159092168Y-123706912D01*
X159155000Y-123391033D01*
X159155000Y-123292615D01*
X160958795Y-123292615D01*
X161002546Y-123611595D01*
X161107686Y-123915911D01*
X161200601Y-124089742D01*
X161464950Y-124185445D01*
X162420395Y-123230000D01*
X162779605Y-123230000D01*
X163735050Y-124185445D01*
X163999399Y-124089742D01*
X164140238Y-123800213D01*
X164221885Y-123488771D01*
X164241205Y-123167385D01*
X164197454Y-122848405D01*
X164092314Y-122544089D01*
X163999399Y-122370258D01*
X163735050Y-122274555D01*
X162779605Y-123230000D01*
X162420395Y-123230000D01*
X161464950Y-122274555D01*
X161200601Y-122370258D01*
X161059762Y-122659787D01*
X160978115Y-122971229D01*
X160958795Y-123292615D01*
X159155000Y-123292615D01*
X159155000Y-123068967D01*
X159092168Y-122753088D01*
X158968918Y-122455537D01*
X158789987Y-122187748D01*
X158697189Y-122094950D01*
X161644555Y-122094950D01*
X162600000Y-123050395D01*
X163555445Y-122094950D01*
X163459742Y-121830601D01*
X163170213Y-121689762D01*
X162858771Y-121608115D01*
X162537385Y-121588795D01*
X162218405Y-121632546D01*
X161914089Y-121737686D01*
X161740258Y-121830601D01*
X161644555Y-122094950D01*
X158697189Y-122094950D01*
X158562252Y-121960013D01*
X158562233Y-121960000D01*
X158562252Y-121959987D01*
X158789987Y-121732252D01*
X158968918Y-121464463D01*
X159092168Y-121166912D01*
X159155000Y-120851033D01*
X159155000Y-120528967D01*
X159092168Y-120213088D01*
X158968918Y-119915537D01*
X158789987Y-119647748D01*
X158562252Y-119420013D01*
X158562233Y-119420000D01*
X158562252Y-119419987D01*
X158769975Y-119212264D01*
X158790013Y-119242252D01*
X159017748Y-119469987D01*
X159285537Y-119648918D01*
X159583088Y-119772168D01*
X159898967Y-119835000D01*
X160221033Y-119835000D01*
X160536912Y-119772168D01*
X160834463Y-119648918D01*
X161102252Y-119469987D01*
X161329987Y-119242252D01*
X161435059Y-119085000D01*
X165161928Y-119085000D01*
X165161928Y-119400000D01*
X165174188Y-119524482D01*
X165210498Y-119644180D01*
X165269463Y-119754494D01*
X165348815Y-119851185D01*
X165445506Y-119930537D01*
X165555820Y-119989502D01*
X165675518Y-120025812D01*
X165800000Y-120038072D01*
X168200000Y-120038072D01*
X168324482Y-120025812D01*
X168444180Y-119989502D01*
X168554494Y-119930537D01*
X168651185Y-119851185D01*
X168730537Y-119754494D01*
X168789502Y-119644180D01*
X168825812Y-119524482D01*
X168838072Y-119400000D01*
X168838072Y-117000000D01*
X168825812Y-116875518D01*
X168789502Y-116755820D01*
X168730537Y-116645506D01*
X168651185Y-116548815D01*
X168554494Y-116469463D01*
X168444180Y-116410498D01*
X168324482Y-116374188D01*
X168200000Y-116361928D01*
X167782838Y-116361928D01*
X167869199Y-116326156D01*
X168169744Y-116125338D01*
X168425338Y-115869744D01*
X168626156Y-115569199D01*
X168764482Y-115235250D01*
X168835000Y-114880732D01*
X168835000Y-114519268D01*
X168764482Y-114164750D01*
X168626156Y-113830801D01*
X168425338Y-113530256D01*
X168169744Y-113274662D01*
X167869199Y-113073844D01*
X167570213Y-112950000D01*
X167869199Y-112826156D01*
X168169744Y-112625338D01*
X168425338Y-112369744D01*
X168626156Y-112069199D01*
X168764482Y-111735250D01*
X168835000Y-111380732D01*
X168835000Y-111019268D01*
X168764482Y-110664750D01*
X168626156Y-110330801D01*
X168425338Y-110030256D01*
X168169744Y-109774662D01*
X167869199Y-109573844D01*
X167535250Y-109435518D01*
X167180732Y-109365000D01*
X166819268Y-109365000D01*
X166464750Y-109435518D01*
X166130801Y-109573844D01*
X165830256Y-109774662D01*
X165574662Y-110030256D01*
X165384402Y-110315000D01*
X161435059Y-110315000D01*
X161329987Y-110157748D01*
X161102252Y-109930013D01*
X160834463Y-109751082D01*
X160536912Y-109627832D01*
X160221033Y-109565000D01*
X159898967Y-109565000D01*
X159583088Y-109627832D01*
X159285537Y-109751082D01*
X159036107Y-109917746D01*
X158968918Y-109755537D01*
X158789987Y-109487748D01*
X158562252Y-109260013D01*
X158562233Y-109260000D01*
X158562252Y-109259987D01*
X158789987Y-109032252D01*
X158968918Y-108764463D01*
X159092168Y-108466912D01*
X159155000Y-108151033D01*
X159155000Y-107828967D01*
X159092168Y-107513088D01*
X158968918Y-107215537D01*
X158789987Y-106947748D01*
X158562252Y-106720013D01*
X158562233Y-106720000D01*
X158562252Y-106719987D01*
X158789987Y-106492252D01*
X158968918Y-106224463D01*
X159092168Y-105926912D01*
X159155000Y-105611033D01*
X159155000Y-105288967D01*
X159092168Y-104973088D01*
X158968918Y-104675537D01*
X158789987Y-104407748D01*
X158671960Y-104289721D01*
X160365000Y-104289721D01*
X160365000Y-104710279D01*
X160447047Y-105122756D01*
X160607988Y-105511302D01*
X160841637Y-105860983D01*
X161139017Y-106158363D01*
X161488698Y-106392012D01*
X161877244Y-106552953D01*
X162289721Y-106635000D01*
X162710279Y-106635000D01*
X163122756Y-106552953D01*
X163511302Y-106392012D01*
X163860983Y-106158363D01*
X164158363Y-105860983D01*
X164392012Y-105511302D01*
X164552953Y-105122756D01*
X164635000Y-104710279D01*
X164635000Y-104289721D01*
X164552953Y-103877244D01*
X164392012Y-103488698D01*
X164158363Y-103139017D01*
X163860983Y-102841637D01*
X163511302Y-102607988D01*
X163122756Y-102447047D01*
X162710279Y-102365000D01*
X162289721Y-102365000D01*
X161877244Y-102447047D01*
X161488698Y-102607988D01*
X161139017Y-102841637D01*
X160841637Y-103139017D01*
X160607988Y-103488698D01*
X160447047Y-103877244D01*
X160365000Y-104289721D01*
X158671960Y-104289721D01*
X158562252Y-104180013D01*
X158562233Y-104180000D01*
X158562252Y-104179987D01*
X158789987Y-103952252D01*
X158968918Y-103684463D01*
X159092168Y-103386912D01*
X159155000Y-103071033D01*
X159155000Y-102748967D01*
X159092168Y-102433088D01*
X158968918Y-102135537D01*
X158789987Y-101867748D01*
X158562252Y-101640013D01*
X158294463Y-101461082D01*
X157996912Y-101337832D01*
X157681033Y-101275000D01*
X157358967Y-101275000D01*
X157043088Y-101337832D01*
X156745537Y-101461082D01*
X156477748Y-101640013D01*
X156250013Y-101867748D01*
X156250000Y-101867767D01*
X156249987Y-101867748D01*
X156022252Y-101640013D01*
X155754463Y-101461082D01*
X155456912Y-101337832D01*
X155141033Y-101275000D01*
X154818967Y-101275000D01*
X154503088Y-101337832D01*
X154205537Y-101461082D01*
X153937748Y-101640013D01*
X153710013Y-101867748D01*
X153710000Y-101867767D01*
X153709987Y-101867748D01*
X153482252Y-101640013D01*
X153214463Y-101461082D01*
X152916912Y-101337832D01*
X152601033Y-101275000D01*
X152278967Y-101275000D01*
X151963088Y-101337832D01*
X151665537Y-101461082D01*
X151397748Y-101640013D01*
X151170013Y-101867748D01*
X151170000Y-101867767D01*
X151169987Y-101867748D01*
X150942252Y-101640013D01*
X150674463Y-101461082D01*
X150376912Y-101337832D01*
X150061033Y-101275000D01*
X149738967Y-101275000D01*
X149423088Y-101337832D01*
X149125537Y-101461082D01*
X148857748Y-101640013D01*
X148630013Y-101867748D01*
X148630000Y-101867767D01*
X148629987Y-101867748D01*
X148402252Y-101640013D01*
X148134463Y-101461082D01*
X147836912Y-101337832D01*
X147521033Y-101275000D01*
X147198967Y-101275000D01*
X146883088Y-101337832D01*
X146585537Y-101461082D01*
X146317748Y-101640013D01*
X146090013Y-101867748D01*
X146090000Y-101867767D01*
X146089987Y-101867748D01*
X145862252Y-101640013D01*
X145594463Y-101461082D01*
X145296912Y-101337832D01*
X144981033Y-101275000D01*
X144658967Y-101275000D01*
X144343088Y-101337832D01*
X144045537Y-101461082D01*
X143777748Y-101640013D01*
X143550013Y-101867748D01*
X143550000Y-101867767D01*
X143549987Y-101867748D01*
X143322252Y-101640013D01*
X143054463Y-101461082D01*
X142756912Y-101337832D01*
X142441033Y-101275000D01*
X142118967Y-101275000D01*
X141803088Y-101337832D01*
X141505537Y-101461082D01*
X141237748Y-101640013D01*
X141010013Y-101867748D01*
X141010000Y-101867767D01*
X141009987Y-101867748D01*
X140782252Y-101640013D01*
X140514463Y-101461082D01*
X140216912Y-101337832D01*
X139901033Y-101275000D01*
X139578967Y-101275000D01*
X139263088Y-101337832D01*
X138965537Y-101461082D01*
X138697748Y-101640013D01*
X138470013Y-101867748D01*
X138470000Y-101867767D01*
X138469987Y-101867748D01*
X138242252Y-101640013D01*
X137974463Y-101461082D01*
X137676912Y-101337832D01*
X137361033Y-101275000D01*
X137038967Y-101275000D01*
X136723088Y-101337832D01*
X136425537Y-101461082D01*
X136157748Y-101640013D01*
X135930013Y-101867748D01*
X135930000Y-101867767D01*
X135929987Y-101867748D01*
X135702252Y-101640013D01*
X135434463Y-101461082D01*
X135136912Y-101337832D01*
X134821033Y-101275000D01*
X134498967Y-101275000D01*
X134183088Y-101337832D01*
X133885537Y-101461082D01*
X133617748Y-101640013D01*
X133390013Y-101867748D01*
X133390000Y-101867767D01*
X133389987Y-101867748D01*
X133162252Y-101640013D01*
X132894463Y-101461082D01*
X132596912Y-101337832D01*
X132281033Y-101275000D01*
X131958967Y-101275000D01*
X131643088Y-101337832D01*
X131345537Y-101461082D01*
X131077748Y-101640013D01*
X130850013Y-101867748D01*
X130850000Y-101867767D01*
X130849987Y-101867748D01*
X130622252Y-101640013D01*
X130354463Y-101461082D01*
X130056912Y-101337832D01*
X129741033Y-101275000D01*
X129418967Y-101275000D01*
X129103088Y-101337832D01*
X128805537Y-101461082D01*
X128537748Y-101640013D01*
X128310013Y-101867748D01*
X128310000Y-101867767D01*
X128309987Y-101867748D01*
X128082252Y-101640013D01*
X127814463Y-101461082D01*
X127516912Y-101337832D01*
X127201033Y-101275000D01*
X126878967Y-101275000D01*
X126563088Y-101337832D01*
X126265537Y-101461082D01*
X125997748Y-101640013D01*
X125770013Y-101867748D01*
X125770000Y-101867767D01*
X125769987Y-101867748D01*
X125542252Y-101640013D01*
X125274463Y-101461082D01*
X124976912Y-101337832D01*
X124661033Y-101275000D01*
X124338967Y-101275000D01*
X124023088Y-101337832D01*
X123725537Y-101461082D01*
X123457748Y-101640013D01*
X123230013Y-101867748D01*
X123051082Y-102135537D01*
X122927832Y-102433088D01*
X122865000Y-102748967D01*
X122865000Y-103071033D01*
X122927832Y-103386912D01*
X123051082Y-103684463D01*
X123230013Y-103952252D01*
X123329209Y-104051448D01*
X123295506Y-104069463D01*
X123198815Y-104148815D01*
X123119463Y-104245506D01*
X123060498Y-104355820D01*
X123024188Y-104475518D01*
X123011928Y-104600000D01*
X123011928Y-106300000D01*
X123024188Y-106424482D01*
X123060498Y-106544180D01*
X123119463Y-106654494D01*
X123198815Y-106751185D01*
X123295506Y-106830537D01*
X123329209Y-106848552D01*
X123230013Y-106947748D01*
X123051082Y-107215537D01*
X122927832Y-107513088D01*
X122865000Y-107828967D01*
X122865000Y-108151033D01*
X122927832Y-108466912D01*
X123051082Y-108764463D01*
X123230013Y-109032252D01*
X123457748Y-109259987D01*
X123725537Y-109438918D01*
X124023088Y-109562168D01*
X124338967Y-109625000D01*
X124661033Y-109625000D01*
X124976912Y-109562168D01*
X125274463Y-109438918D01*
X125542252Y-109259987D01*
X125769987Y-109032252D01*
X125770000Y-109032233D01*
X125770013Y-109032252D01*
X125997748Y-109259987D01*
X126265537Y-109438918D01*
X126563088Y-109562168D01*
X126878967Y-109625000D01*
X127201033Y-109625000D01*
X127516912Y-109562168D01*
X127814463Y-109438918D01*
X128082252Y-109259987D01*
X128309987Y-109032252D01*
X128310000Y-109032233D01*
X128310013Y-109032252D01*
X128537748Y-109259987D01*
X128805537Y-109438918D01*
X129103088Y-109562168D01*
X129418967Y-109625000D01*
X129741033Y-109625000D01*
X130056912Y-109562168D01*
X130354463Y-109438918D01*
X130622252Y-109259987D01*
X130849987Y-109032252D01*
X130850000Y-109032233D01*
X130850013Y-109032252D01*
X131077748Y-109259987D01*
X131077767Y-109260000D01*
X131077748Y-109260013D01*
X130850013Y-109487748D01*
X130671082Y-109755537D01*
X130547832Y-110053088D01*
X130485000Y-110368967D01*
X130485000Y-110691033D01*
X130547832Y-111006912D01*
X130671082Y-111304463D01*
X130850013Y-111572252D01*
X131077748Y-111799987D01*
X131077767Y-111800000D01*
X131077748Y-111800013D01*
X130850013Y-112027748D01*
X130671082Y-112295537D01*
X130547832Y-112593088D01*
X130485000Y-112908967D01*
X130485000Y-113231033D01*
X130547832Y-113546912D01*
X130671082Y-113844463D01*
X130850013Y-114112252D01*
X131077748Y-114339987D01*
X131077767Y-114340000D01*
X131077748Y-114340013D01*
X130850013Y-114567748D01*
X130671082Y-114835537D01*
X130547832Y-115133088D01*
X130485000Y-115448967D01*
X130485000Y-115771033D01*
X130547832Y-116086912D01*
X130671082Y-116384463D01*
X130850013Y-116652252D01*
X131077748Y-116879987D01*
X131077767Y-116880000D01*
X131077748Y-116880013D01*
X130850013Y-117107748D01*
X130671082Y-117375537D01*
X130547832Y-117673088D01*
X130485000Y-117988967D01*
X130485000Y-118311033D01*
X130547832Y-118626912D01*
X130671082Y-118924463D01*
X130850013Y-119192252D01*
X131077748Y-119419987D01*
X131077767Y-119420000D01*
X131077748Y-119420013D01*
X130850013Y-119647748D01*
X130671082Y-119915537D01*
X130547832Y-120213088D01*
X130485000Y-120528967D01*
X130485000Y-120851033D01*
X130547832Y-121166912D01*
X130671082Y-121464463D01*
X130850013Y-121732252D01*
X131077748Y-121959987D01*
X131092060Y-121969550D01*
X131077748Y-121979113D01*
X130850013Y-122206848D01*
X130671082Y-122474637D01*
X130547832Y-122772188D01*
X130485000Y-123088067D01*
X130485000Y-123410133D01*
X130547832Y-123726012D01*
X130671082Y-124023563D01*
X130850013Y-124291352D01*
X131068211Y-124509550D01*
X130850013Y-124727748D01*
X130850000Y-124727767D01*
X130849987Y-124727748D01*
X130622252Y-124500013D01*
X130354463Y-124321082D01*
X130056912Y-124197832D01*
X129741033Y-124135000D01*
X129418967Y-124135000D01*
X129103088Y-124197832D01*
X128805537Y-124321082D01*
X128537748Y-124500013D01*
X128310013Y-124727748D01*
X128310000Y-124727767D01*
X128309987Y-124727748D01*
X128082252Y-124500013D01*
X127814463Y-124321082D01*
X127516912Y-124197832D01*
X127201033Y-124135000D01*
X126878967Y-124135000D01*
X126563088Y-124197832D01*
X126265537Y-124321082D01*
X125997748Y-124500013D01*
X125770013Y-124727748D01*
X125770000Y-124727767D01*
X125769987Y-124727748D01*
X125542252Y-124500013D01*
X125274463Y-124321082D01*
X124976912Y-124197832D01*
X124661033Y-124135000D01*
X124338967Y-124135000D01*
X124023088Y-124197832D01*
X123725537Y-124321082D01*
X123457748Y-124500013D01*
X123230013Y-124727748D01*
X123230000Y-124727767D01*
X123229987Y-124727748D01*
X123002252Y-124500013D01*
X122734463Y-124321082D01*
X122436912Y-124197832D01*
X122121033Y-124135000D01*
X121798967Y-124135000D01*
X121483088Y-124197832D01*
X121185537Y-124321082D01*
X120917748Y-124500013D01*
X120690013Y-124727748D01*
X120511082Y-124995537D01*
X120387832Y-125293088D01*
X120325000Y-125608967D01*
X120325000Y-125931033D01*
X120387832Y-126246912D01*
X120511082Y-126544463D01*
X120690013Y-126812252D01*
X120917748Y-127039987D01*
X121185537Y-127218918D01*
X121483088Y-127342168D01*
X121798967Y-127405000D01*
X122121033Y-127405000D01*
X122299602Y-127369481D01*
X123011928Y-128081807D01*
X123011928Y-128512893D01*
X122278500Y-129246322D01*
X122121033Y-129215000D01*
X121798967Y-129215000D01*
X121483088Y-129277832D01*
X121185537Y-129401082D01*
X120917748Y-129580013D01*
X120690013Y-129807748D01*
X120511082Y-130075537D01*
X120387832Y-130373088D01*
X120325000Y-130688967D01*
X120325000Y-131011033D01*
X120387832Y-131326912D01*
X120511082Y-131624463D01*
X120690013Y-131892252D01*
X120917748Y-132119987D01*
X120917767Y-132120000D01*
X120917748Y-132120013D01*
X120690013Y-132347748D01*
X120690000Y-132347767D01*
X120689987Y-132347748D01*
X120462252Y-132120013D01*
X120194463Y-131941082D01*
X119896912Y-131817832D01*
X119581033Y-131755000D01*
X119258967Y-131755000D01*
X118943088Y-131817832D01*
X118645537Y-131941082D01*
X118377748Y-132120013D01*
X118150013Y-132347748D01*
X118150000Y-132347767D01*
X118149987Y-132347748D01*
X117922252Y-132120013D01*
X117654463Y-131941082D01*
X117356912Y-131817832D01*
X117041033Y-131755000D01*
X116718967Y-131755000D01*
X116403088Y-131817832D01*
X116105537Y-131941082D01*
X115837748Y-132120013D01*
X115610013Y-132347748D01*
X115610000Y-132347767D01*
X115609987Y-132347748D01*
X115382252Y-132120013D01*
X115114463Y-131941082D01*
X114816912Y-131817832D01*
X114501033Y-131755000D01*
X114178967Y-131755000D01*
X113863088Y-131817832D01*
X113565537Y-131941082D01*
X113297748Y-132120013D01*
X113070013Y-132347748D01*
X113070000Y-132347767D01*
X113069987Y-132347748D01*
X112842252Y-132120013D01*
X112574463Y-131941082D01*
X112276912Y-131817832D01*
X111961033Y-131755000D01*
X111638967Y-131755000D01*
X111323088Y-131817832D01*
X111025537Y-131941082D01*
X110757748Y-132120013D01*
X110530013Y-132347748D01*
X110530000Y-132347767D01*
X110529987Y-132347748D01*
X110302252Y-132120013D01*
X110034463Y-131941082D01*
X109736912Y-131817832D01*
X109421033Y-131755000D01*
X109098967Y-131755000D01*
X108783088Y-131817832D01*
X108485537Y-131941082D01*
X108217748Y-132120013D01*
X107990013Y-132347748D01*
X107990000Y-132347767D01*
X107989987Y-132347748D01*
X107762252Y-132120013D01*
X107494463Y-131941082D01*
X107196912Y-131817832D01*
X106881033Y-131755000D01*
X106558967Y-131755000D01*
X106243088Y-131817832D01*
X105945537Y-131941082D01*
X105677748Y-132120013D01*
X105450013Y-132347748D01*
X105271082Y-132615537D01*
X105147832Y-132913088D01*
X105085000Y-133228967D01*
X100660000Y-133228967D01*
X100660000Y-124289721D01*
X103365000Y-124289721D01*
X103365000Y-124710279D01*
X103447047Y-125122756D01*
X103607988Y-125511302D01*
X103841637Y-125860983D01*
X104139017Y-126158363D01*
X104488698Y-126392012D01*
X104877244Y-126552953D01*
X105289721Y-126635000D01*
X105710279Y-126635000D01*
X106122756Y-126552953D01*
X106511302Y-126392012D01*
X106860983Y-126158363D01*
X107158363Y-125860983D01*
X107392012Y-125511302D01*
X107552953Y-125122756D01*
X107635000Y-124710279D01*
X107635000Y-124289721D01*
X107552953Y-123877244D01*
X107392012Y-123488698D01*
X107158363Y-123139017D01*
X106860983Y-122841637D01*
X106511302Y-122607988D01*
X106122756Y-122447047D01*
X105710279Y-122365000D01*
X105289721Y-122365000D01*
X104877244Y-122447047D01*
X104488698Y-122607988D01*
X104139017Y-122841637D01*
X103841637Y-123139017D01*
X103607988Y-123488698D01*
X103447047Y-123877244D01*
X103365000Y-124289721D01*
X100660000Y-124289721D01*
X100660000Y-110368967D01*
X107625000Y-110368967D01*
X107625000Y-110691033D01*
X107687832Y-111006912D01*
X107811082Y-111304463D01*
X107990013Y-111572252D01*
X108217748Y-111799987D01*
X108217767Y-111800000D01*
X108217748Y-111800013D01*
X107990013Y-112027748D01*
X107811082Y-112295537D01*
X107687832Y-112593088D01*
X107625000Y-112908967D01*
X107625000Y-113231033D01*
X107687832Y-113546912D01*
X107811082Y-113844463D01*
X107990013Y-114112252D01*
X108217748Y-114339987D01*
X108217767Y-114340000D01*
X108217748Y-114340013D01*
X107990013Y-114567748D01*
X107811082Y-114835537D01*
X107687832Y-115133088D01*
X107625000Y-115448967D01*
X107625000Y-115771033D01*
X107687832Y-116086912D01*
X107811082Y-116384463D01*
X107990013Y-116652252D01*
X108217748Y-116879987D01*
X108217767Y-116880000D01*
X108217748Y-116880013D01*
X107990013Y-117107748D01*
X107811082Y-117375537D01*
X107687832Y-117673088D01*
X107625000Y-117988967D01*
X107625000Y-118311033D01*
X107687832Y-118626912D01*
X107811082Y-118924463D01*
X107990013Y-119192252D01*
X108217748Y-119419987D01*
X108217767Y-119420000D01*
X108217748Y-119420013D01*
X107990013Y-119647748D01*
X107811082Y-119915537D01*
X107687832Y-120213088D01*
X107625000Y-120528967D01*
X107625000Y-120851033D01*
X107687832Y-121166912D01*
X107811082Y-121464463D01*
X107990013Y-121732252D01*
X108217748Y-121959987D01*
X108217767Y-121960000D01*
X108217748Y-121960013D01*
X107990013Y-122187748D01*
X107811082Y-122455537D01*
X107687832Y-122753088D01*
X107625000Y-123068967D01*
X107625000Y-123391033D01*
X107687832Y-123706912D01*
X107811082Y-124004463D01*
X107990013Y-124272252D01*
X108217748Y-124499987D01*
X108217767Y-124500000D01*
X108217748Y-124500013D01*
X107990013Y-124727748D01*
X107811082Y-124995537D01*
X107687832Y-125293088D01*
X107625000Y-125608967D01*
X107625000Y-125931033D01*
X107687832Y-126246912D01*
X107811082Y-126544463D01*
X107990013Y-126812252D01*
X108217748Y-127039987D01*
X108217767Y-127040000D01*
X108217748Y-127040013D01*
X107990013Y-127267748D01*
X107811082Y-127535537D01*
X107687832Y-127833088D01*
X107625000Y-128148967D01*
X107625000Y-128471033D01*
X107687832Y-128786912D01*
X107811082Y-129084463D01*
X107990013Y-129352252D01*
X108217748Y-129579987D01*
X108485537Y-129758918D01*
X108783088Y-129882168D01*
X109098967Y-129945000D01*
X109421033Y-129945000D01*
X109736912Y-129882168D01*
X110034463Y-129758918D01*
X110302252Y-129579987D01*
X110401448Y-129480791D01*
X110419463Y-129514494D01*
X110498815Y-129611185D01*
X110595506Y-129690537D01*
X110705820Y-129749502D01*
X110825518Y-129785812D01*
X110950000Y-129798072D01*
X112650000Y-129798072D01*
X112774482Y-129785812D01*
X112894180Y-129749502D01*
X113004494Y-129690537D01*
X113101185Y-129611185D01*
X113180537Y-129514494D01*
X113198552Y-129480791D01*
X113297748Y-129579987D01*
X113565537Y-129758918D01*
X113863088Y-129882168D01*
X114178967Y-129945000D01*
X114501033Y-129945000D01*
X114816912Y-129882168D01*
X115114463Y-129758918D01*
X115382252Y-129579987D01*
X115609987Y-129352252D01*
X115788918Y-129084463D01*
X115912168Y-128786912D01*
X115975000Y-128471033D01*
X115975000Y-128148967D01*
X115912168Y-127833088D01*
X115788918Y-127535537D01*
X115609987Y-127267748D01*
X115382252Y-127040013D01*
X115382233Y-127040000D01*
X115382252Y-127039987D01*
X115609987Y-126812252D01*
X115788918Y-126544463D01*
X115912168Y-126246912D01*
X115975000Y-125931033D01*
X115975000Y-125608967D01*
X115912168Y-125293088D01*
X115788918Y-124995537D01*
X115609987Y-124727748D01*
X115382252Y-124500013D01*
X115382233Y-124500000D01*
X115382252Y-124499987D01*
X115609987Y-124272252D01*
X115788918Y-124004463D01*
X115912168Y-123706912D01*
X115975000Y-123391033D01*
X115975000Y-123068967D01*
X115912168Y-122753088D01*
X115788918Y-122455537D01*
X115609987Y-122187748D01*
X115382252Y-121960013D01*
X115382233Y-121960000D01*
X115382252Y-121959987D01*
X115609987Y-121732252D01*
X115788918Y-121464463D01*
X115912168Y-121166912D01*
X115975000Y-120851033D01*
X115975000Y-120528967D01*
X115912168Y-120213088D01*
X115788918Y-119915537D01*
X115609987Y-119647748D01*
X115382252Y-119420013D01*
X115382233Y-119420000D01*
X115382252Y-119419987D01*
X115609987Y-119192252D01*
X115788918Y-118924463D01*
X115912168Y-118626912D01*
X115975000Y-118311033D01*
X115975000Y-117988967D01*
X115912168Y-117673088D01*
X115788918Y-117375537D01*
X115609987Y-117107748D01*
X115382252Y-116880013D01*
X115382233Y-116880000D01*
X115382252Y-116879987D01*
X115609987Y-116652252D01*
X115788918Y-116384463D01*
X115912168Y-116086912D01*
X115975000Y-115771033D01*
X115975000Y-115448967D01*
X115912168Y-115133088D01*
X115788918Y-114835537D01*
X115609987Y-114567748D01*
X115382252Y-114340013D01*
X115382233Y-114340000D01*
X115382252Y-114339987D01*
X115609987Y-114112252D01*
X115788918Y-113844463D01*
X115912168Y-113546912D01*
X115975000Y-113231033D01*
X115975000Y-112908967D01*
X115912168Y-112593088D01*
X115788918Y-112295537D01*
X115609987Y-112027748D01*
X115382252Y-111800013D01*
X115382233Y-111800000D01*
X115382252Y-111799987D01*
X115609987Y-111572252D01*
X115788918Y-111304463D01*
X115912168Y-111006912D01*
X115975000Y-110691033D01*
X115975000Y-110368967D01*
X115912168Y-110053088D01*
X115788918Y-109755537D01*
X115609987Y-109487748D01*
X115382252Y-109260013D01*
X115114463Y-109081082D01*
X114816912Y-108957832D01*
X114501033Y-108895000D01*
X114178967Y-108895000D01*
X113863088Y-108957832D01*
X113565537Y-109081082D01*
X113297748Y-109260013D01*
X113070013Y-109487748D01*
X112979798Y-109622764D01*
X112953475Y-109583368D01*
X112746632Y-109376525D01*
X112503411Y-109214010D01*
X112233158Y-109102068D01*
X111946260Y-109045000D01*
X111653740Y-109045000D01*
X111366842Y-109102068D01*
X111096589Y-109214010D01*
X110853368Y-109376525D01*
X110646525Y-109583368D01*
X110620202Y-109622764D01*
X110529987Y-109487748D01*
X110302252Y-109260013D01*
X110034463Y-109081082D01*
X109736912Y-108957832D01*
X109421033Y-108895000D01*
X109098967Y-108895000D01*
X108783088Y-108957832D01*
X108485537Y-109081082D01*
X108217748Y-109260013D01*
X107990013Y-109487748D01*
X107811082Y-109755537D01*
X107687832Y-110053088D01*
X107625000Y-110368967D01*
X100660000Y-110368967D01*
X100660000Y-107110097D01*
X101068607Y-107077939D01*
X101170898Y-107061738D01*
X102162684Y-106823631D01*
X102178657Y-106818441D01*
X102261181Y-106791628D01*
X103203509Y-106401303D01*
X103260196Y-106372419D01*
X103295787Y-106354285D01*
X104165453Y-105821353D01*
X104208177Y-105790312D01*
X104249240Y-105760478D01*
X105024830Y-105098062D01*
X105098063Y-105024829D01*
X105725903Y-104289721D01*
X110365000Y-104289721D01*
X110365000Y-104710279D01*
X110447047Y-105122756D01*
X110607988Y-105511302D01*
X110841637Y-105860983D01*
X111139017Y-106158363D01*
X111488698Y-106392012D01*
X111877244Y-106552953D01*
X112289721Y-106635000D01*
X112710279Y-106635000D01*
X113122756Y-106552953D01*
X113511302Y-106392012D01*
X113860983Y-106158363D01*
X114158363Y-105860983D01*
X114392012Y-105511302D01*
X114552953Y-105122756D01*
X114635000Y-104710279D01*
X114635000Y-104289721D01*
X114552953Y-103877244D01*
X114392012Y-103488698D01*
X114158363Y-103139017D01*
X113860983Y-102841637D01*
X113511302Y-102607988D01*
X113122756Y-102447047D01*
X112710279Y-102365000D01*
X112289721Y-102365000D01*
X111877244Y-102447047D01*
X111488698Y-102607988D01*
X111139017Y-102841637D01*
X110841637Y-103139017D01*
X110607988Y-103488698D01*
X110447047Y-103877244D01*
X110365000Y-104289721D01*
X105725903Y-104289721D01*
X105760478Y-104249240D01*
X105821353Y-104165453D01*
X105821354Y-104165452D01*
X106354284Y-103295787D01*
X106373608Y-103257862D01*
X106401303Y-103203509D01*
X106791627Y-102261181D01*
X106823631Y-102162684D01*
X107061738Y-101170898D01*
X107077939Y-101068607D01*
X107110097Y-100660000D01*
X167889903Y-100660000D01*
X167922061Y-101068607D01*
M02*
