G04 #@! TF.GenerationSoftware,KiCad,Pcbnew,5.1.5+dfsg1-2build2*
G04 #@! TF.CreationDate,2021-12-11T20:18:00-05:00*
G04 #@! TF.ProjectId,RAK11300_LORA_ADAPTABLE_NODE,52414b31-3133-4303-905f-4c4f52415f41,rev?*
G04 #@! TF.SameCoordinates,Original*
G04 #@! TF.FileFunction,Copper,L1,Top*
G04 #@! TF.FilePolarity,Positive*
%FSLAX46Y46*%
G04 Gerber Fmt 4.6, Leading zero omitted, Abs format (unit mm)*
G04 Created by KiCad (PCBNEW 5.1.5+dfsg1-2build2) date 2021-12-11 20:18:00*
%MOMM*%
%LPD*%
G04 APERTURE LIST*
%ADD10C,0.010000*%
%ADD11C,1.700000*%
%ADD12R,2.000000X2.000000*%
%ADD13C,2.000000*%
%ADD14O,1.700000X1.700000*%
%ADD15C,2.400000*%
%ADD16R,2.400000X2.400000*%
%ADD17C,0.800000*%
%ADD18C,0.300000*%
%ADD19C,0.254000*%
G04 APERTURE END LIST*
D10*
G36*
X127987614Y-123059231D02*
G01*
X128071435Y-123503855D01*
X128380720Y-123631353D01*
X128690006Y-123758851D01*
X129061046Y-123506546D01*
X129164957Y-123436296D01*
X129258887Y-123373572D01*
X129338452Y-123321238D01*
X129399270Y-123282157D01*
X129436957Y-123259193D01*
X129447221Y-123254242D01*
X129465710Y-123266976D01*
X129505220Y-123302182D01*
X129561322Y-123355362D01*
X129629587Y-123422018D01*
X129705586Y-123497654D01*
X129784892Y-123577772D01*
X129863075Y-123657874D01*
X129935707Y-123733464D01*
X129998359Y-123800045D01*
X130046603Y-123853118D01*
X130076010Y-123888187D01*
X130083041Y-123899923D01*
X130072923Y-123921560D01*
X130044559Y-123968962D01*
X130000929Y-124037493D01*
X129945018Y-124122515D01*
X129879806Y-124219393D01*
X129842019Y-124274650D01*
X129773143Y-124375548D01*
X129711940Y-124466599D01*
X129661378Y-124543270D01*
X129624428Y-124601028D01*
X129604058Y-124635343D01*
X129600997Y-124642554D01*
X129607936Y-124663048D01*
X129626851Y-124710813D01*
X129654887Y-124779132D01*
X129689191Y-124861289D01*
X129726909Y-124950570D01*
X129765187Y-125040258D01*
X129801170Y-125123638D01*
X129832006Y-125193994D01*
X129854839Y-125244610D01*
X129866817Y-125268771D01*
X129867524Y-125269722D01*
X129886331Y-125274336D01*
X129936418Y-125284628D01*
X130012593Y-125299587D01*
X130109665Y-125318201D01*
X130222443Y-125339459D01*
X130288242Y-125351718D01*
X130408750Y-125374662D01*
X130517597Y-125396495D01*
X130609276Y-125416022D01*
X130678281Y-125432048D01*
X130719104Y-125443379D01*
X130727311Y-125446974D01*
X130735348Y-125471306D01*
X130741833Y-125526259D01*
X130746770Y-125605408D01*
X130750164Y-125702326D01*
X130752018Y-125810587D01*
X130752338Y-125923765D01*
X130751127Y-126035435D01*
X130748390Y-126139168D01*
X130744131Y-126228541D01*
X130738355Y-126297126D01*
X130731067Y-126338497D01*
X130726695Y-126347110D01*
X130700564Y-126357433D01*
X130645193Y-126372192D01*
X130567907Y-126389652D01*
X130476030Y-126408080D01*
X130443958Y-126414041D01*
X130289324Y-126442366D01*
X130167175Y-126465176D01*
X130073473Y-126483380D01*
X130004184Y-126497883D01*
X129955271Y-126509592D01*
X129922697Y-126519415D01*
X129902428Y-126528256D01*
X129890426Y-126537024D01*
X129888747Y-126538757D01*
X129871984Y-126566671D01*
X129846414Y-126620995D01*
X129814588Y-126695077D01*
X129779060Y-126782265D01*
X129742383Y-126875908D01*
X129707111Y-126969352D01*
X129675796Y-127055947D01*
X129650993Y-127129040D01*
X129635254Y-127181978D01*
X129631132Y-127208111D01*
X129631476Y-127209026D01*
X129645441Y-127230386D01*
X129677122Y-127277384D01*
X129723191Y-127345127D01*
X129780318Y-127428723D01*
X129845173Y-127523282D01*
X129863643Y-127550154D01*
X129929499Y-127647575D01*
X129987450Y-127736463D01*
X130034338Y-127811712D01*
X130067007Y-127868220D01*
X130082300Y-127900881D01*
X130083041Y-127904893D01*
X130070192Y-127925984D01*
X130034688Y-127967764D01*
X129981093Y-128025745D01*
X129913971Y-128095435D01*
X129837887Y-128172345D01*
X129757404Y-128251983D01*
X129677087Y-128329861D01*
X129601499Y-128401486D01*
X129535205Y-128462370D01*
X129482769Y-128508021D01*
X129448755Y-128533950D01*
X129439345Y-128538183D01*
X129417443Y-128528212D01*
X129372600Y-128501320D01*
X129312121Y-128462036D01*
X129265589Y-128430417D01*
X129181275Y-128372398D01*
X129081426Y-128304084D01*
X128981273Y-128235879D01*
X128927427Y-128199375D01*
X128745171Y-128076100D01*
X128592181Y-128158820D01*
X128522482Y-128195059D01*
X128463214Y-128223226D01*
X128423111Y-128239291D01*
X128412903Y-128241526D01*
X128400629Y-128225022D01*
X128376413Y-128178382D01*
X128342063Y-128105909D01*
X128299388Y-128011906D01*
X128250194Y-127900674D01*
X128196290Y-127776515D01*
X128139484Y-127643732D01*
X128081582Y-127506627D01*
X128024393Y-127369502D01*
X127969724Y-127236658D01*
X127919384Y-127112398D01*
X127875180Y-127001025D01*
X127838919Y-126906839D01*
X127812409Y-126834144D01*
X127797458Y-126787241D01*
X127795054Y-126771133D01*
X127814111Y-126750586D01*
X127855836Y-126717233D01*
X127911506Y-126678002D01*
X127916178Y-126674899D01*
X128060064Y-126559723D01*
X128176083Y-126425353D01*
X128263230Y-126276084D01*
X128320499Y-126116213D01*
X128346886Y-125950037D01*
X128341385Y-125781852D01*
X128302990Y-125615955D01*
X128230695Y-125456642D01*
X128209426Y-125421787D01*
X128098796Y-125281037D01*
X127968102Y-125168014D01*
X127821864Y-125083303D01*
X127664608Y-125027494D01*
X127500857Y-125001174D01*
X127335133Y-125004930D01*
X127171962Y-125039350D01*
X127015865Y-125105023D01*
X126871367Y-125202535D01*
X126826669Y-125242113D01*
X126712912Y-125366003D01*
X126630018Y-125496424D01*
X126573156Y-125642615D01*
X126541487Y-125787388D01*
X126533669Y-125950160D01*
X126559738Y-126113740D01*
X126617045Y-126272598D01*
X126702944Y-126421206D01*
X126814786Y-126554035D01*
X126949923Y-126665556D01*
X126967683Y-126677311D01*
X127023950Y-126715808D01*
X127066723Y-126749163D01*
X127087172Y-126770460D01*
X127087469Y-126771133D01*
X127083079Y-126794171D01*
X127065676Y-126846457D01*
X127037068Y-126923690D01*
X126999065Y-127021568D01*
X126953474Y-127135791D01*
X126902103Y-127262058D01*
X126846762Y-127396067D01*
X126789258Y-127533518D01*
X126731401Y-127670108D01*
X126674998Y-127801537D01*
X126621858Y-127923505D01*
X126573790Y-128031709D01*
X126532601Y-128121849D01*
X126500101Y-128189623D01*
X126478097Y-128230730D01*
X126469236Y-128241526D01*
X126442160Y-128233119D01*
X126391497Y-128210572D01*
X126325983Y-128177913D01*
X126289959Y-128158820D01*
X126136968Y-128076100D01*
X125954712Y-128199375D01*
X125861675Y-128262528D01*
X125759815Y-128332027D01*
X125664362Y-128397465D01*
X125616550Y-128430417D01*
X125549305Y-128475573D01*
X125492364Y-128511357D01*
X125453154Y-128533238D01*
X125440419Y-128537863D01*
X125421883Y-128525385D01*
X125380859Y-128490552D01*
X125321325Y-128436978D01*
X125247258Y-128368283D01*
X125162635Y-128288081D01*
X125109115Y-128236586D01*
X125015481Y-128144586D01*
X124934559Y-128062299D01*
X124869623Y-127993245D01*
X124823942Y-127940944D01*
X124800789Y-127908916D01*
X124798568Y-127902416D01*
X124808876Y-127877694D01*
X124837361Y-127827705D01*
X124880863Y-127757512D01*
X124936223Y-127672175D01*
X125000280Y-127576756D01*
X125018497Y-127550154D01*
X125084873Y-127453467D01*
X125144422Y-127366417D01*
X125193816Y-127293895D01*
X125229725Y-127240793D01*
X125248819Y-127212003D01*
X125250664Y-127209026D01*
X125247905Y-127186082D01*
X125233262Y-127135636D01*
X125209287Y-127064341D01*
X125178534Y-126978847D01*
X125143556Y-126885807D01*
X125106907Y-126791874D01*
X125071139Y-126703699D01*
X125038806Y-126627934D01*
X125012462Y-126571231D01*
X124994658Y-126540243D01*
X124993393Y-126538757D01*
X124982506Y-126529901D01*
X124964118Y-126521143D01*
X124934194Y-126511577D01*
X124888697Y-126500296D01*
X124823591Y-126486393D01*
X124734839Y-126468963D01*
X124618407Y-126447098D01*
X124470258Y-126419891D01*
X124438182Y-126414041D01*
X124343114Y-126395674D01*
X124260235Y-126377705D01*
X124196870Y-126361869D01*
X124160342Y-126349900D01*
X124155444Y-126347110D01*
X124147373Y-126322372D01*
X124140813Y-126267090D01*
X124135767Y-126187689D01*
X124132241Y-126090596D01*
X124130239Y-125982238D01*
X124129764Y-125869040D01*
X124130823Y-125757428D01*
X124133418Y-125653829D01*
X124137554Y-125564668D01*
X124143237Y-125496372D01*
X124150469Y-125455366D01*
X124154829Y-125446974D01*
X124179102Y-125438508D01*
X124234374Y-125424735D01*
X124315138Y-125406850D01*
X124415888Y-125386048D01*
X124531117Y-125363523D01*
X124593898Y-125351718D01*
X124713013Y-125329451D01*
X124819235Y-125309279D01*
X124907373Y-125292215D01*
X124972234Y-125279269D01*
X125008626Y-125271455D01*
X125014616Y-125269722D01*
X125024739Y-125250190D01*
X125046138Y-125203143D01*
X125075961Y-125135303D01*
X125111355Y-125053391D01*
X125149468Y-124964128D01*
X125187447Y-124874235D01*
X125222440Y-124790435D01*
X125251594Y-124719447D01*
X125272057Y-124667994D01*
X125280977Y-124642797D01*
X125281143Y-124641696D01*
X125271031Y-124621819D01*
X125242683Y-124576077D01*
X125199077Y-124509017D01*
X125143194Y-124425184D01*
X125078013Y-124329126D01*
X125040121Y-124273950D01*
X124971075Y-124172781D01*
X124909750Y-124080930D01*
X124859137Y-124003044D01*
X124822229Y-123943769D01*
X124802018Y-123907751D01*
X124799099Y-123899677D01*
X124811647Y-123880884D01*
X124846337Y-123840757D01*
X124898737Y-123783793D01*
X124964416Y-123714485D01*
X125038944Y-123637331D01*
X125117887Y-123556825D01*
X125196817Y-123477463D01*
X125271300Y-123403740D01*
X125336906Y-123340152D01*
X125389204Y-123291194D01*
X125423761Y-123261361D01*
X125435322Y-123254242D01*
X125454146Y-123264253D01*
X125499169Y-123292378D01*
X125566013Y-123335754D01*
X125650301Y-123391518D01*
X125747656Y-123456806D01*
X125821093Y-123506546D01*
X126192133Y-123758851D01*
X126810705Y-123503855D01*
X126894525Y-123059231D01*
X126978346Y-122614607D01*
X127903794Y-122614607D01*
X127987614Y-123059231D01*
G37*
X127987614Y-123059231D02*
X128071435Y-123503855D01*
X128380720Y-123631353D01*
X128690006Y-123758851D01*
X129061046Y-123506546D01*
X129164957Y-123436296D01*
X129258887Y-123373572D01*
X129338452Y-123321238D01*
X129399270Y-123282157D01*
X129436957Y-123259193D01*
X129447221Y-123254242D01*
X129465710Y-123266976D01*
X129505220Y-123302182D01*
X129561322Y-123355362D01*
X129629587Y-123422018D01*
X129705586Y-123497654D01*
X129784892Y-123577772D01*
X129863075Y-123657874D01*
X129935707Y-123733464D01*
X129998359Y-123800045D01*
X130046603Y-123853118D01*
X130076010Y-123888187D01*
X130083041Y-123899923D01*
X130072923Y-123921560D01*
X130044559Y-123968962D01*
X130000929Y-124037493D01*
X129945018Y-124122515D01*
X129879806Y-124219393D01*
X129842019Y-124274650D01*
X129773143Y-124375548D01*
X129711940Y-124466599D01*
X129661378Y-124543270D01*
X129624428Y-124601028D01*
X129604058Y-124635343D01*
X129600997Y-124642554D01*
X129607936Y-124663048D01*
X129626851Y-124710813D01*
X129654887Y-124779132D01*
X129689191Y-124861289D01*
X129726909Y-124950570D01*
X129765187Y-125040258D01*
X129801170Y-125123638D01*
X129832006Y-125193994D01*
X129854839Y-125244610D01*
X129866817Y-125268771D01*
X129867524Y-125269722D01*
X129886331Y-125274336D01*
X129936418Y-125284628D01*
X130012593Y-125299587D01*
X130109665Y-125318201D01*
X130222443Y-125339459D01*
X130288242Y-125351718D01*
X130408750Y-125374662D01*
X130517597Y-125396495D01*
X130609276Y-125416022D01*
X130678281Y-125432048D01*
X130719104Y-125443379D01*
X130727311Y-125446974D01*
X130735348Y-125471306D01*
X130741833Y-125526259D01*
X130746770Y-125605408D01*
X130750164Y-125702326D01*
X130752018Y-125810587D01*
X130752338Y-125923765D01*
X130751127Y-126035435D01*
X130748390Y-126139168D01*
X130744131Y-126228541D01*
X130738355Y-126297126D01*
X130731067Y-126338497D01*
X130726695Y-126347110D01*
X130700564Y-126357433D01*
X130645193Y-126372192D01*
X130567907Y-126389652D01*
X130476030Y-126408080D01*
X130443958Y-126414041D01*
X130289324Y-126442366D01*
X130167175Y-126465176D01*
X130073473Y-126483380D01*
X130004184Y-126497883D01*
X129955271Y-126509592D01*
X129922697Y-126519415D01*
X129902428Y-126528256D01*
X129890426Y-126537024D01*
X129888747Y-126538757D01*
X129871984Y-126566671D01*
X129846414Y-126620995D01*
X129814588Y-126695077D01*
X129779060Y-126782265D01*
X129742383Y-126875908D01*
X129707111Y-126969352D01*
X129675796Y-127055947D01*
X129650993Y-127129040D01*
X129635254Y-127181978D01*
X129631132Y-127208111D01*
X129631476Y-127209026D01*
X129645441Y-127230386D01*
X129677122Y-127277384D01*
X129723191Y-127345127D01*
X129780318Y-127428723D01*
X129845173Y-127523282D01*
X129863643Y-127550154D01*
X129929499Y-127647575D01*
X129987450Y-127736463D01*
X130034338Y-127811712D01*
X130067007Y-127868220D01*
X130082300Y-127900881D01*
X130083041Y-127904893D01*
X130070192Y-127925984D01*
X130034688Y-127967764D01*
X129981093Y-128025745D01*
X129913971Y-128095435D01*
X129837887Y-128172345D01*
X129757404Y-128251983D01*
X129677087Y-128329861D01*
X129601499Y-128401486D01*
X129535205Y-128462370D01*
X129482769Y-128508021D01*
X129448755Y-128533950D01*
X129439345Y-128538183D01*
X129417443Y-128528212D01*
X129372600Y-128501320D01*
X129312121Y-128462036D01*
X129265589Y-128430417D01*
X129181275Y-128372398D01*
X129081426Y-128304084D01*
X128981273Y-128235879D01*
X128927427Y-128199375D01*
X128745171Y-128076100D01*
X128592181Y-128158820D01*
X128522482Y-128195059D01*
X128463214Y-128223226D01*
X128423111Y-128239291D01*
X128412903Y-128241526D01*
X128400629Y-128225022D01*
X128376413Y-128178382D01*
X128342063Y-128105909D01*
X128299388Y-128011906D01*
X128250194Y-127900674D01*
X128196290Y-127776515D01*
X128139484Y-127643732D01*
X128081582Y-127506627D01*
X128024393Y-127369502D01*
X127969724Y-127236658D01*
X127919384Y-127112398D01*
X127875180Y-127001025D01*
X127838919Y-126906839D01*
X127812409Y-126834144D01*
X127797458Y-126787241D01*
X127795054Y-126771133D01*
X127814111Y-126750586D01*
X127855836Y-126717233D01*
X127911506Y-126678002D01*
X127916178Y-126674899D01*
X128060064Y-126559723D01*
X128176083Y-126425353D01*
X128263230Y-126276084D01*
X128320499Y-126116213D01*
X128346886Y-125950037D01*
X128341385Y-125781852D01*
X128302990Y-125615955D01*
X128230695Y-125456642D01*
X128209426Y-125421787D01*
X128098796Y-125281037D01*
X127968102Y-125168014D01*
X127821864Y-125083303D01*
X127664608Y-125027494D01*
X127500857Y-125001174D01*
X127335133Y-125004930D01*
X127171962Y-125039350D01*
X127015865Y-125105023D01*
X126871367Y-125202535D01*
X126826669Y-125242113D01*
X126712912Y-125366003D01*
X126630018Y-125496424D01*
X126573156Y-125642615D01*
X126541487Y-125787388D01*
X126533669Y-125950160D01*
X126559738Y-126113740D01*
X126617045Y-126272598D01*
X126702944Y-126421206D01*
X126814786Y-126554035D01*
X126949923Y-126665556D01*
X126967683Y-126677311D01*
X127023950Y-126715808D01*
X127066723Y-126749163D01*
X127087172Y-126770460D01*
X127087469Y-126771133D01*
X127083079Y-126794171D01*
X127065676Y-126846457D01*
X127037068Y-126923690D01*
X126999065Y-127021568D01*
X126953474Y-127135791D01*
X126902103Y-127262058D01*
X126846762Y-127396067D01*
X126789258Y-127533518D01*
X126731401Y-127670108D01*
X126674998Y-127801537D01*
X126621858Y-127923505D01*
X126573790Y-128031709D01*
X126532601Y-128121849D01*
X126500101Y-128189623D01*
X126478097Y-128230730D01*
X126469236Y-128241526D01*
X126442160Y-128233119D01*
X126391497Y-128210572D01*
X126325983Y-128177913D01*
X126289959Y-128158820D01*
X126136968Y-128076100D01*
X125954712Y-128199375D01*
X125861675Y-128262528D01*
X125759815Y-128332027D01*
X125664362Y-128397465D01*
X125616550Y-128430417D01*
X125549305Y-128475573D01*
X125492364Y-128511357D01*
X125453154Y-128533238D01*
X125440419Y-128537863D01*
X125421883Y-128525385D01*
X125380859Y-128490552D01*
X125321325Y-128436978D01*
X125247258Y-128368283D01*
X125162635Y-128288081D01*
X125109115Y-128236586D01*
X125015481Y-128144586D01*
X124934559Y-128062299D01*
X124869623Y-127993245D01*
X124823942Y-127940944D01*
X124800789Y-127908916D01*
X124798568Y-127902416D01*
X124808876Y-127877694D01*
X124837361Y-127827705D01*
X124880863Y-127757512D01*
X124936223Y-127672175D01*
X125000280Y-127576756D01*
X125018497Y-127550154D01*
X125084873Y-127453467D01*
X125144422Y-127366417D01*
X125193816Y-127293895D01*
X125229725Y-127240793D01*
X125248819Y-127212003D01*
X125250664Y-127209026D01*
X125247905Y-127186082D01*
X125233262Y-127135636D01*
X125209287Y-127064341D01*
X125178534Y-126978847D01*
X125143556Y-126885807D01*
X125106907Y-126791874D01*
X125071139Y-126703699D01*
X125038806Y-126627934D01*
X125012462Y-126571231D01*
X124994658Y-126540243D01*
X124993393Y-126538757D01*
X124982506Y-126529901D01*
X124964118Y-126521143D01*
X124934194Y-126511577D01*
X124888697Y-126500296D01*
X124823591Y-126486393D01*
X124734839Y-126468963D01*
X124618407Y-126447098D01*
X124470258Y-126419891D01*
X124438182Y-126414041D01*
X124343114Y-126395674D01*
X124260235Y-126377705D01*
X124196870Y-126361869D01*
X124160342Y-126349900D01*
X124155444Y-126347110D01*
X124147373Y-126322372D01*
X124140813Y-126267090D01*
X124135767Y-126187689D01*
X124132241Y-126090596D01*
X124130239Y-125982238D01*
X124129764Y-125869040D01*
X124130823Y-125757428D01*
X124133418Y-125653829D01*
X124137554Y-125564668D01*
X124143237Y-125496372D01*
X124150469Y-125455366D01*
X124154829Y-125446974D01*
X124179102Y-125438508D01*
X124234374Y-125424735D01*
X124315138Y-125406850D01*
X124415888Y-125386048D01*
X124531117Y-125363523D01*
X124593898Y-125351718D01*
X124713013Y-125329451D01*
X124819235Y-125309279D01*
X124907373Y-125292215D01*
X124972234Y-125279269D01*
X125008626Y-125271455D01*
X125014616Y-125269722D01*
X125024739Y-125250190D01*
X125046138Y-125203143D01*
X125075961Y-125135303D01*
X125111355Y-125053391D01*
X125149468Y-124964128D01*
X125187447Y-124874235D01*
X125222440Y-124790435D01*
X125251594Y-124719447D01*
X125272057Y-124667994D01*
X125280977Y-124642797D01*
X125281143Y-124641696D01*
X125271031Y-124621819D01*
X125242683Y-124576077D01*
X125199077Y-124509017D01*
X125143194Y-124425184D01*
X125078013Y-124329126D01*
X125040121Y-124273950D01*
X124971075Y-124172781D01*
X124909750Y-124080930D01*
X124859137Y-124003044D01*
X124822229Y-123943769D01*
X124802018Y-123907751D01*
X124799099Y-123899677D01*
X124811647Y-123880884D01*
X124846337Y-123840757D01*
X124898737Y-123783793D01*
X124964416Y-123714485D01*
X125038944Y-123637331D01*
X125117887Y-123556825D01*
X125196817Y-123477463D01*
X125271300Y-123403740D01*
X125336906Y-123340152D01*
X125389204Y-123291194D01*
X125423761Y-123261361D01*
X125435322Y-123254242D01*
X125454146Y-123264253D01*
X125499169Y-123292378D01*
X125566013Y-123335754D01*
X125650301Y-123391518D01*
X125747656Y-123456806D01*
X125821093Y-123506546D01*
X126192133Y-123758851D01*
X126810705Y-123503855D01*
X126894525Y-123059231D01*
X126978346Y-122614607D01*
X127903794Y-122614607D01*
X127987614Y-123059231D01*
D11*
X157415000Y-129505000D03*
X157415000Y-126965000D03*
X157415000Y-124425000D03*
X157415000Y-121885000D03*
X157415000Y-119345000D03*
X149795000Y-129505000D03*
X149795000Y-126965000D03*
X149795000Y-124425000D03*
X149795000Y-121885000D03*
X149795000Y-119345000D03*
X142175000Y-129505000D03*
X142175000Y-126965000D03*
X142175000Y-124425000D03*
X142175000Y-121885000D03*
X142175000Y-119345000D03*
D12*
X162220000Y-139800000D03*
D13*
X110230000Y-139800000D03*
D14*
X159955000Y-129505000D03*
X159955000Y-126965000D03*
X159955000Y-124425000D03*
X159955000Y-121885000D03*
D11*
X159955000Y-119345000D03*
D14*
X154875000Y-129505000D03*
X154875000Y-126965000D03*
X154875000Y-124425000D03*
X154875000Y-121885000D03*
D11*
X154875000Y-119345000D03*
D14*
X152335000Y-129505000D03*
X152335000Y-126965000D03*
X152335000Y-124425000D03*
X152335000Y-121885000D03*
D11*
X152335000Y-119345000D03*
D14*
X147255000Y-129505000D03*
X147255000Y-126965000D03*
X147255000Y-124425000D03*
X147255000Y-121885000D03*
D11*
X147255000Y-119345000D03*
D14*
X144715000Y-129505000D03*
X144715000Y-126965000D03*
X144715000Y-124425000D03*
X144715000Y-121885000D03*
D11*
X144715000Y-119345000D03*
D14*
X139635000Y-129505000D03*
X139635000Y-126965000D03*
X139635000Y-124425000D03*
X139635000Y-121885000D03*
D11*
X139635000Y-119345000D03*
D14*
X137095000Y-129505000D03*
X137095000Y-126965000D03*
X137095000Y-124425000D03*
X137095000Y-121885000D03*
D11*
X137095000Y-119345000D03*
D14*
X162495000Y-129505000D03*
X162495000Y-126965000D03*
X162495000Y-124425000D03*
X162495000Y-121885000D03*
D11*
X162495000Y-119345000D03*
D15*
X169910000Y-108400000D03*
X169910000Y-111900000D03*
D16*
X169910000Y-115400000D03*
D13*
X110220000Y-109085000D03*
X162210000Y-109085000D03*
D15*
X169910000Y-133335000D03*
X169910000Y-136835000D03*
D16*
X169910000Y-140335000D03*
D17*
X162293300Y-136880600D03*
X162115500Y-111772700D03*
X142151100Y-116713000D03*
X145084800Y-114960400D03*
X150012400Y-115443000D03*
X152755600Y-133210300D03*
X107403900Y-129438400D03*
X132562600Y-125717300D03*
X132562600Y-120904000D03*
X132588000Y-117322600D03*
X128397000Y-116916200D03*
X113080800Y-117411500D03*
X112915700Y-124625100D03*
X112814100Y-128181100D03*
D18*
X157415000Y-121885000D02*
X157415000Y-124425000D01*
X157415000Y-124425000D02*
X157415000Y-126965000D01*
X149795000Y-121885000D02*
X149795000Y-124425000D01*
X149795000Y-124425000D02*
X149795000Y-126965000D01*
X142175000Y-121885000D02*
X142175000Y-124425000D01*
X142175000Y-124425000D02*
X142175000Y-126965000D01*
X157415000Y-129505000D02*
X157415000Y-132475200D01*
X157415000Y-132475200D02*
X155816300Y-134073900D01*
X149795000Y-132472200D02*
X149795000Y-129505000D01*
X149795000Y-132487900D02*
X149795000Y-132472200D01*
X148234400Y-134048500D02*
X149795000Y-132487900D01*
X142175000Y-132167400D02*
X144056100Y-134048500D01*
X142175000Y-129505000D02*
X142175000Y-132167400D01*
X142175000Y-119345000D02*
X142175000Y-118756200D01*
X142175000Y-118756200D02*
X140944600Y-117525800D01*
X140944600Y-117525800D02*
X140944600Y-115277900D01*
X140944600Y-115277900D02*
X142074900Y-114147600D01*
X142074900Y-114147600D02*
X146342100Y-114147600D01*
X149795000Y-117600500D02*
X149795000Y-119345000D01*
X146342100Y-114147600D02*
X149795000Y-117600500D01*
X157415000Y-119345000D02*
X157415000Y-116851200D01*
X154711400Y-114147600D02*
X146342100Y-114147600D01*
X157415000Y-116851200D02*
X154711400Y-114147600D01*
X147586700Y-134048500D02*
X148234400Y-134048500D01*
X147612100Y-134073900D02*
X147586700Y-134048500D01*
X144056100Y-134048500D02*
X147586700Y-134048500D01*
X155816300Y-134073900D02*
X151866600Y-134073900D01*
X151866600Y-134073900D02*
X147612100Y-134073900D01*
X151866600Y-134073900D02*
X151396700Y-134073900D01*
X162687000Y-112763300D02*
X162115500Y-112191800D01*
X162115500Y-112191800D02*
X162115500Y-111772700D01*
X163652200Y-112763300D02*
X162687000Y-112763300D01*
X164820600Y-132765800D02*
X164820600Y-113931700D01*
X163957000Y-133629400D02*
X164820600Y-132765800D01*
X163093400Y-133629400D02*
X163957000Y-133629400D01*
X164820600Y-113931700D02*
X163652200Y-112763300D01*
X162293300Y-134429500D02*
X163093400Y-133629400D01*
X162293300Y-136880600D02*
X162293300Y-134429500D01*
X144681500Y-124425000D02*
X144715000Y-124425000D01*
X143433800Y-123177300D02*
X144681500Y-124425000D01*
X143433800Y-117995700D02*
X143433800Y-123177300D01*
X142151100Y-116713000D02*
X143433800Y-117995700D01*
X147255000Y-126965000D02*
X147177200Y-126965000D01*
X147255000Y-124425000D02*
X147246900Y-124425000D01*
X147246900Y-124425000D02*
X145999200Y-123177300D01*
X145999200Y-123177300D02*
X145999200Y-116166900D01*
X145999200Y-116166900D02*
X145999200Y-116014500D01*
X145999200Y-115912900D02*
X145999200Y-116166900D01*
X145084800Y-114998500D02*
X145999200Y-115912900D01*
X145084800Y-114960400D02*
X145084800Y-114998500D01*
X152335000Y-124425000D02*
X152288800Y-124425000D01*
X152276100Y-124425000D02*
X152335000Y-124425000D01*
X150088600Y-115443000D02*
X151041100Y-116395500D01*
X150012400Y-115443000D02*
X150088600Y-115443000D01*
X151041100Y-123190000D02*
X152276100Y-124425000D01*
X151041100Y-116395500D02*
X151041100Y-123190000D01*
X154784500Y-124425000D02*
X154875000Y-124425000D01*
X153631900Y-125577600D02*
X154784500Y-124425000D01*
X153631900Y-132537200D02*
X153631900Y-125577600D01*
X152755600Y-133210300D02*
X152958800Y-133210300D01*
X152958800Y-133210300D02*
X153631900Y-132537200D01*
X107403900Y-129616200D02*
X107403900Y-129438400D01*
X132562600Y-125717300D02*
X132562600Y-120904000D01*
X132562600Y-117348000D02*
X132562600Y-120904000D01*
X132588000Y-117322600D02*
X132562600Y-117348000D01*
X128397000Y-116916200D02*
X128473200Y-116992400D01*
X132257800Y-116992400D02*
X132588000Y-117322600D01*
X128473200Y-116992400D02*
X132257800Y-116992400D01*
X113080800Y-117411500D02*
X113093500Y-117424200D01*
X127889000Y-117424200D02*
X128397000Y-116916200D01*
X113093500Y-117424200D02*
X127889000Y-117424200D01*
X113080800Y-124460000D02*
X113080800Y-117411500D01*
X112915700Y-124625100D02*
X113080800Y-124460000D01*
X112915700Y-128079500D02*
X112915700Y-124625100D01*
X112814100Y-128181100D02*
X112915700Y-128079500D01*
X112814100Y-128181100D02*
X112814100Y-129082800D01*
X112814100Y-129082800D02*
X112433100Y-129463800D01*
X107429300Y-129463800D02*
X107403900Y-129438400D01*
X112433100Y-129463800D02*
X107429300Y-129463800D01*
D19*
G36*
X167922061Y-101068607D02*
G01*
X167938262Y-101170898D01*
X168148000Y-102044519D01*
X168148000Y-106680000D01*
X168150440Y-106704776D01*
X168157667Y-106728601D01*
X168169403Y-106750557D01*
X168185197Y-106769803D01*
X168204443Y-106785597D01*
X168226399Y-106797333D01*
X168250224Y-106804560D01*
X168275000Y-106807000D01*
X168991180Y-106807000D01*
X168740256Y-106974662D01*
X168484662Y-107230256D01*
X168283844Y-107530801D01*
X168145518Y-107864750D01*
X168075000Y-108219268D01*
X168075000Y-108580732D01*
X168145518Y-108935250D01*
X168283844Y-109269199D01*
X168484662Y-109569744D01*
X168740256Y-109825338D01*
X169040801Y-110026156D01*
X169339787Y-110150000D01*
X169040801Y-110273844D01*
X168740256Y-110474662D01*
X168484662Y-110730256D01*
X168283844Y-111030801D01*
X168145518Y-111364750D01*
X168075000Y-111719268D01*
X168075000Y-112080732D01*
X168145518Y-112435250D01*
X168283844Y-112769199D01*
X168484662Y-113069744D01*
X168740256Y-113325338D01*
X169040801Y-113526156D01*
X169127162Y-113561928D01*
X168710000Y-113561928D01*
X168585518Y-113574188D01*
X168465820Y-113610498D01*
X168355506Y-113669463D01*
X168258815Y-113748815D01*
X168179463Y-113845506D01*
X168120498Y-113955820D01*
X168084188Y-114075518D01*
X168071928Y-114200000D01*
X168071928Y-116600000D01*
X168084188Y-116724482D01*
X168120498Y-116844180D01*
X168179463Y-116954494D01*
X168258815Y-117051185D01*
X168355506Y-117130537D01*
X168465820Y-117189502D01*
X168585518Y-117225812D01*
X168710000Y-117238072D01*
X171110000Y-117238072D01*
X171234482Y-117225812D01*
X171354180Y-117189502D01*
X171464494Y-117130537D01*
X171561185Y-117051185D01*
X171640537Y-116954494D01*
X171699502Y-116844180D01*
X171735812Y-116724482D01*
X171748072Y-116600000D01*
X171748072Y-114200000D01*
X171735812Y-114075518D01*
X171699502Y-113955820D01*
X171640537Y-113845506D01*
X171561185Y-113748815D01*
X171464494Y-113669463D01*
X171354180Y-113610498D01*
X171234482Y-113574188D01*
X171110000Y-113561928D01*
X170692838Y-113561928D01*
X170779199Y-113526156D01*
X171079744Y-113325338D01*
X171335338Y-113069744D01*
X171536156Y-112769199D01*
X171674482Y-112435250D01*
X171745000Y-112080732D01*
X171745000Y-111719268D01*
X171674482Y-111364750D01*
X171536156Y-111030801D01*
X171335338Y-110730256D01*
X171079744Y-110474662D01*
X170779199Y-110273844D01*
X170480213Y-110150000D01*
X170779199Y-110026156D01*
X171079744Y-109825338D01*
X171335338Y-109569744D01*
X171536156Y-109269199D01*
X171674482Y-108935250D01*
X171745000Y-108580732D01*
X171745000Y-108219268D01*
X171674482Y-107864750D01*
X171536156Y-107530801D01*
X171335338Y-107230256D01*
X171079744Y-106974662D01*
X170828820Y-106807000D01*
X172786132Y-106807000D01*
X172837316Y-106823631D01*
X173829102Y-107061738D01*
X173931393Y-107077939D01*
X174340000Y-107110097D01*
X174340001Y-141889903D01*
X173931393Y-141922061D01*
X173829102Y-141938262D01*
X173101267Y-142113000D01*
X171375698Y-142113000D01*
X171464494Y-142065537D01*
X171561185Y-141986185D01*
X171640537Y-141889494D01*
X171699502Y-141779180D01*
X171735812Y-141659482D01*
X171748072Y-141535000D01*
X171745000Y-140620750D01*
X171586250Y-140462000D01*
X170037000Y-140462000D01*
X170037000Y-140482000D01*
X169783000Y-140482000D01*
X169783000Y-140462000D01*
X168233750Y-140462000D01*
X168075000Y-140620750D01*
X168071928Y-141535000D01*
X168084188Y-141659482D01*
X168120498Y-141779180D01*
X168179463Y-141889494D01*
X168258815Y-141986185D01*
X168355506Y-142065537D01*
X168444302Y-142113000D01*
X167640000Y-142113000D01*
X167615224Y-142115440D01*
X167591399Y-142122667D01*
X167569443Y-142134403D01*
X167550197Y-142150197D01*
X167534403Y-142169443D01*
X167522667Y-142191399D01*
X167515440Y-142215224D01*
X167513000Y-142240000D01*
X167513000Y-148340000D01*
X107646100Y-148340000D01*
X107662300Y-144289721D01*
X110365000Y-144289721D01*
X110365000Y-144710279D01*
X110447047Y-145122756D01*
X110607988Y-145511302D01*
X110841637Y-145860983D01*
X111139017Y-146158363D01*
X111488698Y-146392012D01*
X111877244Y-146552953D01*
X112289721Y-146635000D01*
X112710279Y-146635000D01*
X113122756Y-146552953D01*
X113511302Y-146392012D01*
X113860983Y-146158363D01*
X114158363Y-145860983D01*
X114331109Y-145602449D01*
X157515000Y-145602449D01*
X157515000Y-145987551D01*
X157590130Y-146365252D01*
X157737502Y-146721040D01*
X157951453Y-147041240D01*
X158223760Y-147313547D01*
X158543960Y-147527498D01*
X158899748Y-147674870D01*
X159277449Y-147750000D01*
X159662551Y-147750000D01*
X160040252Y-147674870D01*
X160396040Y-147527498D01*
X160716240Y-147313547D01*
X160988547Y-147041240D01*
X161202498Y-146721040D01*
X161349870Y-146365252D01*
X161425000Y-145987551D01*
X161425000Y-145602449D01*
X161349870Y-145224748D01*
X161202498Y-144868960D01*
X160988547Y-144548760D01*
X160716240Y-144276453D01*
X160396040Y-144062502D01*
X160040252Y-143915130D01*
X159662551Y-143840000D01*
X159277449Y-143840000D01*
X158899748Y-143915130D01*
X158543960Y-144062502D01*
X158223760Y-144276453D01*
X157951453Y-144548760D01*
X157737502Y-144868960D01*
X157590130Y-145224748D01*
X157515000Y-145602449D01*
X114331109Y-145602449D01*
X114392012Y-145511302D01*
X114552953Y-145122756D01*
X114635000Y-144710279D01*
X114635000Y-144289721D01*
X114552953Y-143877244D01*
X114392012Y-143488698D01*
X114158363Y-143139017D01*
X113860983Y-142841637D01*
X113511302Y-142607988D01*
X113122756Y-142447047D01*
X112710279Y-142365000D01*
X112289721Y-142365000D01*
X111877244Y-142447047D01*
X111488698Y-142607988D01*
X111139017Y-142841637D01*
X110841637Y-143139017D01*
X110607988Y-143488698D01*
X110447047Y-143877244D01*
X110365000Y-144289721D01*
X107662300Y-144289721D01*
X107670599Y-142215108D01*
X107668258Y-142190322D01*
X107661126Y-142166469D01*
X107649478Y-142144466D01*
X107633761Y-142125157D01*
X107614579Y-142109286D01*
X107592670Y-142097463D01*
X107568875Y-142090140D01*
X107543600Y-142087600D01*
X101792935Y-142087600D01*
X101170898Y-141938262D01*
X101068607Y-141922061D01*
X100660000Y-141889903D01*
X100660000Y-140935413D01*
X109274192Y-140935413D01*
X109369956Y-141199814D01*
X109659571Y-141340704D01*
X109971108Y-141422384D01*
X110292595Y-141441718D01*
X110611675Y-141397961D01*
X110916088Y-141292795D01*
X111090044Y-141199814D01*
X111185808Y-140935413D01*
X110230000Y-139979605D01*
X109274192Y-140935413D01*
X100660000Y-140935413D01*
X100660000Y-139862595D01*
X108588282Y-139862595D01*
X108632039Y-140181675D01*
X108737205Y-140486088D01*
X108830186Y-140660044D01*
X109094587Y-140755808D01*
X110050395Y-139800000D01*
X110409605Y-139800000D01*
X111365413Y-140755808D01*
X111629814Y-140660044D01*
X111770704Y-140370429D01*
X111852384Y-140058892D01*
X111871718Y-139737405D01*
X111827961Y-139418325D01*
X111722795Y-139113912D01*
X111629814Y-138939956D01*
X111365413Y-138844192D01*
X110409605Y-139800000D01*
X110050395Y-139800000D01*
X109094587Y-138844192D01*
X108830186Y-138939956D01*
X108689296Y-139229571D01*
X108607616Y-139541108D01*
X108588282Y-139862595D01*
X100660000Y-139862595D01*
X100660000Y-138664587D01*
X109274192Y-138664587D01*
X110230000Y-139620395D01*
X111050395Y-138800000D01*
X160581928Y-138800000D01*
X160581928Y-140800000D01*
X160594188Y-140924482D01*
X160630498Y-141044180D01*
X160689463Y-141154494D01*
X160768815Y-141251185D01*
X160865506Y-141330537D01*
X160975820Y-141389502D01*
X161095518Y-141425812D01*
X161220000Y-141438072D01*
X163220000Y-141438072D01*
X163344482Y-141425812D01*
X163464180Y-141389502D01*
X163574494Y-141330537D01*
X163671185Y-141251185D01*
X163750537Y-141154494D01*
X163809502Y-141044180D01*
X163845812Y-140924482D01*
X163858072Y-140800000D01*
X163858072Y-139135000D01*
X168071928Y-139135000D01*
X168075000Y-140049250D01*
X168233750Y-140208000D01*
X169783000Y-140208000D01*
X169783000Y-140188000D01*
X170037000Y-140188000D01*
X170037000Y-140208000D01*
X171586250Y-140208000D01*
X171745000Y-140049250D01*
X171748072Y-139135000D01*
X171735812Y-139010518D01*
X171699502Y-138890820D01*
X171640537Y-138780506D01*
X171561185Y-138683815D01*
X171464494Y-138604463D01*
X171354180Y-138545498D01*
X171234482Y-138509188D01*
X171110000Y-138496928D01*
X170689426Y-138498341D01*
X170779199Y-138461156D01*
X171079744Y-138260338D01*
X171335338Y-138004744D01*
X171536156Y-137704199D01*
X171674482Y-137370250D01*
X171745000Y-137015732D01*
X171745000Y-136654268D01*
X171674482Y-136299750D01*
X171536156Y-135965801D01*
X171335338Y-135665256D01*
X171079744Y-135409662D01*
X170779199Y-135208844D01*
X170480213Y-135085000D01*
X170779199Y-134961156D01*
X171079744Y-134760338D01*
X171335338Y-134504744D01*
X171536156Y-134204199D01*
X171674482Y-133870250D01*
X171745000Y-133515732D01*
X171745000Y-133154268D01*
X171674482Y-132799750D01*
X171536156Y-132465801D01*
X171335338Y-132165256D01*
X171079744Y-131909662D01*
X170779199Y-131708844D01*
X170445250Y-131570518D01*
X170090732Y-131500000D01*
X169729268Y-131500000D01*
X169374750Y-131570518D01*
X169040801Y-131708844D01*
X168740256Y-131909662D01*
X168484662Y-132165256D01*
X168283844Y-132465801D01*
X168145518Y-132799750D01*
X168075000Y-133154268D01*
X168075000Y-133515732D01*
X168145518Y-133870250D01*
X168283844Y-134204199D01*
X168484662Y-134504744D01*
X168740256Y-134760338D01*
X169040801Y-134961156D01*
X169339787Y-135085000D01*
X169040801Y-135208844D01*
X168740256Y-135409662D01*
X168484662Y-135665256D01*
X168283844Y-135965801D01*
X168145518Y-136299750D01*
X168075000Y-136654268D01*
X168075000Y-137015732D01*
X168145518Y-137370250D01*
X168283844Y-137704199D01*
X168484662Y-138004744D01*
X168740256Y-138260338D01*
X169040801Y-138461156D01*
X169130574Y-138498341D01*
X168710000Y-138496928D01*
X168585518Y-138509188D01*
X168465820Y-138545498D01*
X168355506Y-138604463D01*
X168258815Y-138683815D01*
X168179463Y-138780506D01*
X168120498Y-138890820D01*
X168084188Y-139010518D01*
X168071928Y-139135000D01*
X163858072Y-139135000D01*
X163858072Y-138800000D01*
X163845812Y-138675518D01*
X163809502Y-138555820D01*
X163750537Y-138445506D01*
X163671185Y-138348815D01*
X163574494Y-138269463D01*
X163464180Y-138210498D01*
X163344482Y-138174188D01*
X163220000Y-138161928D01*
X161220000Y-138161928D01*
X161095518Y-138174188D01*
X160975820Y-138210498D01*
X160865506Y-138269463D01*
X160768815Y-138348815D01*
X160689463Y-138445506D01*
X160630498Y-138555820D01*
X160594188Y-138675518D01*
X160581928Y-138800000D01*
X111050395Y-138800000D01*
X111185808Y-138664587D01*
X111090044Y-138400186D01*
X110800429Y-138259296D01*
X110488892Y-138177616D01*
X110167405Y-138158282D01*
X109848325Y-138202039D01*
X109543912Y-138307205D01*
X109369956Y-138400186D01*
X109274192Y-138664587D01*
X100660000Y-138664587D01*
X100660000Y-133612449D01*
X111035000Y-133612449D01*
X111035000Y-133997551D01*
X111110130Y-134375252D01*
X111257502Y-134731040D01*
X111471453Y-135051240D01*
X111743760Y-135323547D01*
X112063960Y-135537498D01*
X112419748Y-135684870D01*
X112797449Y-135760000D01*
X113182551Y-135760000D01*
X113560252Y-135684870D01*
X113916040Y-135537498D01*
X114236240Y-135323547D01*
X114508547Y-135051240D01*
X114722498Y-134731040D01*
X114869870Y-134375252D01*
X114945000Y-133997551D01*
X114945000Y-133612449D01*
X114869870Y-133234748D01*
X114722498Y-132878960D01*
X114508547Y-132558760D01*
X114236240Y-132286453D01*
X113916040Y-132072502D01*
X113560252Y-131925130D01*
X113182551Y-131850000D01*
X112797449Y-131850000D01*
X112419748Y-131925130D01*
X112063960Y-132072502D01*
X111743760Y-132286453D01*
X111471453Y-132558760D01*
X111257502Y-132878960D01*
X111110130Y-133234748D01*
X111035000Y-133612449D01*
X100660000Y-133612449D01*
X100660000Y-124289721D01*
X103365000Y-124289721D01*
X103365000Y-124710279D01*
X103447047Y-125122756D01*
X103607988Y-125511302D01*
X103841637Y-125860983D01*
X104139017Y-126158363D01*
X104488698Y-126392012D01*
X104877244Y-126552953D01*
X105289721Y-126635000D01*
X105710279Y-126635000D01*
X106122756Y-126552953D01*
X106511302Y-126392012D01*
X106860983Y-126158363D01*
X107147620Y-125871726D01*
X123489770Y-125871726D01*
X123490245Y-125984924D01*
X123490255Y-125985020D01*
X123490245Y-125985125D01*
X123490348Y-125994060D01*
X123492350Y-126102418D01*
X123492494Y-126103649D01*
X123492400Y-126104890D01*
X123492663Y-126113823D01*
X123496189Y-126210916D01*
X123496756Y-126215118D01*
X123496551Y-126219358D01*
X123497055Y-126228280D01*
X123502101Y-126307680D01*
X123504197Y-126320571D01*
X123504281Y-126333625D01*
X123505272Y-126342506D01*
X123511832Y-126397788D01*
X123524379Y-126455010D01*
X123536224Y-126512365D01*
X123538567Y-126519719D01*
X123538584Y-126519796D01*
X123538612Y-126519861D01*
X123538937Y-126520880D01*
X123547008Y-126545618D01*
X123564626Y-126585810D01*
X123579889Y-126626998D01*
X123589660Y-126642923D01*
X123597153Y-126660016D01*
X123622238Y-126696015D01*
X123645214Y-126733460D01*
X123657894Y-126747185D01*
X123668563Y-126762496D01*
X123700174Y-126792949D01*
X123729975Y-126825206D01*
X123745069Y-126836199D01*
X123758517Y-126849155D01*
X123795441Y-126872888D01*
X123830939Y-126898742D01*
X123838673Y-126903218D01*
X123843572Y-126906008D01*
X123854714Y-126910984D01*
X123863591Y-126916690D01*
X123897004Y-126929872D01*
X123898143Y-126930381D01*
X123952588Y-126955242D01*
X123957478Y-126956882D01*
X123957620Y-126956945D01*
X123957768Y-126956979D01*
X123961061Y-126958083D01*
X123997589Y-126970052D01*
X124015670Y-126974074D01*
X124033041Y-126980546D01*
X124041696Y-126982772D01*
X124105061Y-126998608D01*
X124110597Y-126999429D01*
X124115907Y-127001219D01*
X124124627Y-127003173D01*
X124207507Y-127021142D01*
X124210279Y-127021464D01*
X124212950Y-127022298D01*
X124221712Y-127024054D01*
X124316780Y-127042421D01*
X124316902Y-127042432D01*
X124323353Y-127043655D01*
X124354962Y-127049420D01*
X124501453Y-127076322D01*
X124533228Y-127082290D01*
X124544158Y-127110303D01*
X124490865Y-127187933D01*
X124490844Y-127187970D01*
X124490445Y-127188545D01*
X124472228Y-127215147D01*
X124472159Y-127215273D01*
X124468912Y-127220037D01*
X124404856Y-127315456D01*
X124404587Y-127315956D01*
X124404221Y-127316402D01*
X124399306Y-127323865D01*
X124343946Y-127409202D01*
X124342957Y-127411113D01*
X124341624Y-127412807D01*
X124336864Y-127420370D01*
X124293362Y-127490562D01*
X124290114Y-127497167D01*
X124285780Y-127503115D01*
X124281302Y-127510848D01*
X124252817Y-127560837D01*
X124238592Y-127592675D01*
X124221664Y-127623170D01*
X124218168Y-127631394D01*
X124207860Y-127656116D01*
X124202654Y-127673107D01*
X124201863Y-127674878D01*
X124201132Y-127678075D01*
X124196249Y-127694015D01*
X124181949Y-127731006D01*
X124177990Y-127753610D01*
X124171270Y-127775543D01*
X124167241Y-127814978D01*
X124160399Y-127854039D01*
X124160906Y-127876981D01*
X124158574Y-127899802D01*
X124162282Y-127939277D01*
X124163157Y-127978915D01*
X124168108Y-128001314D01*
X124170254Y-128024161D01*
X124175391Y-128041431D01*
X124176356Y-128049216D01*
X124183445Y-128070698D01*
X124190116Y-128100876D01*
X124192946Y-128109352D01*
X124195168Y-128115852D01*
X124201990Y-128130847D01*
X124205868Y-128143882D01*
X124210501Y-128152682D01*
X124215500Y-128167830D01*
X124232546Y-128198004D01*
X124246896Y-128229544D01*
X124262179Y-128250840D01*
X124264057Y-128254407D01*
X124265224Y-128255850D01*
X124276936Y-128276582D01*
X124282121Y-128283861D01*
X124305274Y-128315888D01*
X124321830Y-128334626D01*
X124336085Y-128355186D01*
X124341917Y-128361957D01*
X124387598Y-128414258D01*
X124392922Y-128419269D01*
X124397310Y-128425126D01*
X124403386Y-128431678D01*
X124468322Y-128500732D01*
X124470353Y-128502507D01*
X124472020Y-128504632D01*
X124478242Y-128511047D01*
X124559164Y-128593334D01*
X124559953Y-128593993D01*
X124560603Y-128594793D01*
X124566933Y-128601100D01*
X124660567Y-128693100D01*
X124660662Y-128693176D01*
X124665376Y-128697775D01*
X124718896Y-128749270D01*
X124719014Y-128749363D01*
X124722383Y-128752601D01*
X124807007Y-128832803D01*
X124807097Y-128832873D01*
X124812047Y-128837528D01*
X124886113Y-128906223D01*
X124886387Y-128906432D01*
X124886616Y-128906689D01*
X124893217Y-128912712D01*
X124952750Y-128966286D01*
X124956584Y-128969111D01*
X124959851Y-128972582D01*
X124966622Y-128978413D01*
X125007646Y-129013245D01*
X125033307Y-129031036D01*
X125057108Y-129051255D01*
X125064486Y-129056297D01*
X125083022Y-129068775D01*
X125104287Y-129080248D01*
X125110295Y-129084413D01*
X125119181Y-129088283D01*
X125123830Y-129090791D01*
X125163477Y-129114841D01*
X125178699Y-129120393D01*
X125192950Y-129128082D01*
X125237251Y-129141751D01*
X125280821Y-129157644D01*
X125296826Y-129160133D01*
X125312304Y-129164909D01*
X125358428Y-129169714D01*
X125404243Y-129176840D01*
X125420424Y-129176173D01*
X125436538Y-129177852D01*
X125482725Y-129173606D01*
X125529043Y-129171697D01*
X125544786Y-129167900D01*
X125560919Y-129166417D01*
X125605397Y-129153282D01*
X125634194Y-129146337D01*
X125642018Y-129144736D01*
X125643621Y-129144063D01*
X125650468Y-129142412D01*
X125658888Y-129139420D01*
X125671623Y-129134795D01*
X125677473Y-129131997D01*
X125680711Y-129131041D01*
X125693674Y-129124249D01*
X125713932Y-129114561D01*
X125757195Y-129096407D01*
X125765029Y-129092107D01*
X125804239Y-129070226D01*
X125814286Y-129063253D01*
X125825304Y-129057939D01*
X125832903Y-129053236D01*
X125889844Y-129017452D01*
X125893986Y-129014245D01*
X125898641Y-129011824D01*
X125906094Y-129006893D01*
X125973340Y-128961737D01*
X125973402Y-128961686D01*
X125979736Y-128957385D01*
X126027088Y-128924751D01*
X126121072Y-128860320D01*
X126182888Y-128818143D01*
X126213440Y-128828301D01*
X126243864Y-128841625D01*
X126252380Y-128844334D01*
X126279456Y-128852741D01*
X126299169Y-128856805D01*
X126300468Y-128857237D01*
X126302518Y-128857496D01*
X126339974Y-128865218D01*
X126400360Y-128877809D01*
X126401082Y-128877816D01*
X126401789Y-128877962D01*
X126463161Y-128878443D01*
X126525260Y-128879070D01*
X126525978Y-128878935D01*
X126526691Y-128878941D01*
X126586966Y-128867497D01*
X126648026Y-128856046D01*
X126648697Y-128855778D01*
X126649405Y-128855643D01*
X126706510Y-128832628D01*
X126763982Y-128809615D01*
X126764590Y-128809220D01*
X126765257Y-128808951D01*
X126816834Y-128775263D01*
X126868711Y-128741545D01*
X126869229Y-128741041D01*
X126869832Y-128740647D01*
X126913711Y-128697752D01*
X126958224Y-128654432D01*
X126959099Y-128653381D01*
X126959149Y-128653332D01*
X126959193Y-128653268D01*
X126963941Y-128647564D01*
X126972802Y-128636768D01*
X127005100Y-128588481D01*
X127038073Y-128540613D01*
X127042241Y-128532954D01*
X127042247Y-128532946D01*
X127042250Y-128532938D01*
X127042345Y-128532764D01*
X127064349Y-128491657D01*
X127068090Y-128482652D01*
X127073261Y-128474383D01*
X127077180Y-128466353D01*
X127109681Y-128398578D01*
X127110183Y-128397201D01*
X127110938Y-128395942D01*
X127114708Y-128387840D01*
X127155897Y-128297700D01*
X127155936Y-128297588D01*
X127158675Y-128291535D01*
X127206743Y-128183332D01*
X127206795Y-128183174D01*
X127208588Y-128179136D01*
X127261729Y-128057168D01*
X127261776Y-128057022D01*
X127263127Y-128053934D01*
X127319530Y-127922504D01*
X127319571Y-127922376D01*
X127320713Y-127919730D01*
X127378570Y-127783140D01*
X127378609Y-127783015D01*
X127379672Y-127780523D01*
X127437176Y-127643072D01*
X127437215Y-127642944D01*
X127438306Y-127640354D01*
X127441101Y-127633585D01*
X127490895Y-127752978D01*
X127490960Y-127753099D01*
X127492003Y-127755617D01*
X127549905Y-127892722D01*
X127549967Y-127892837D01*
X127551069Y-127895462D01*
X127607875Y-128028245D01*
X127607946Y-128028374D01*
X127609230Y-128031389D01*
X127663134Y-128155547D01*
X127663208Y-128155681D01*
X127664882Y-128159537D01*
X127714076Y-128270769D01*
X127714144Y-128270889D01*
X127716628Y-128276464D01*
X127759303Y-128370467D01*
X127759701Y-128371157D01*
X127759963Y-128371918D01*
X127763735Y-128380019D01*
X127798085Y-128452492D01*
X127801771Y-128458637D01*
X127804348Y-128465336D01*
X127808411Y-128473295D01*
X127832627Y-128519935D01*
X127858187Y-128559236D01*
X127881797Y-128599740D01*
X127887080Y-128606948D01*
X127899354Y-128623452D01*
X127932779Y-128660265D01*
X127964718Y-128698396D01*
X127974703Y-128706438D01*
X127983318Y-128715927D01*
X128023252Y-128745544D01*
X128061993Y-128776748D01*
X128073352Y-128782699D01*
X128083644Y-128790332D01*
X128128575Y-128811631D01*
X128172635Y-128834714D01*
X128184927Y-128838344D01*
X128196512Y-128843835D01*
X128244736Y-128856003D01*
X128292428Y-128870085D01*
X128305193Y-128871258D01*
X128317622Y-128874394D01*
X128367292Y-128876964D01*
X128416811Y-128881514D01*
X128429558Y-128880186D01*
X128442361Y-128880848D01*
X128491578Y-128873722D01*
X128518375Y-128870929D01*
X128532383Y-128869893D01*
X128534848Y-128869213D01*
X128541043Y-128868567D01*
X128549786Y-128866716D01*
X128559994Y-128864481D01*
X128563703Y-128863279D01*
X128565978Y-128862950D01*
X128580055Y-128857982D01*
X128606074Y-128849553D01*
X128652787Y-128836660D01*
X128661105Y-128833394D01*
X128699232Y-128818120D01*
X128720664Y-128832716D01*
X128819096Y-128900060D01*
X128902785Y-128957649D01*
X128902921Y-128957724D01*
X128905888Y-128959770D01*
X128952419Y-128991389D01*
X128954344Y-128992438D01*
X128956039Y-128993831D01*
X128963499Y-128998751D01*
X129023978Y-129038035D01*
X129030222Y-129041272D01*
X129035815Y-129045541D01*
X129043447Y-129050190D01*
X129088290Y-129077082D01*
X129116939Y-129090655D01*
X129144159Y-129106932D01*
X129152267Y-129110691D01*
X129174169Y-129120662D01*
X129190578Y-129126273D01*
X129206033Y-129134141D01*
X129249560Y-129146441D01*
X129292356Y-129161075D01*
X129309543Y-129163392D01*
X129326232Y-129168108D01*
X129371324Y-129171720D01*
X129416143Y-129177762D01*
X129433449Y-129176697D01*
X129450740Y-129178082D01*
X129495663Y-129172868D01*
X129540813Y-129170089D01*
X129557593Y-129165680D01*
X129574813Y-129163681D01*
X129601384Y-129155140D01*
X129604868Y-129154618D01*
X129619094Y-129149519D01*
X129661618Y-129138345D01*
X129677213Y-129130765D01*
X129693726Y-129125457D01*
X129701901Y-129121848D01*
X129711311Y-129117615D01*
X129716659Y-129114550D01*
X129722450Y-129112474D01*
X129755205Y-129092856D01*
X129773957Y-129083742D01*
X129785031Y-129075360D01*
X129819678Y-129055501D01*
X129824322Y-129051462D01*
X129829607Y-129048296D01*
X129836751Y-129042928D01*
X129870765Y-129016999D01*
X129882754Y-129005851D01*
X129896228Y-128996541D01*
X129903009Y-128990720D01*
X129955445Y-128945069D01*
X129958221Y-128942130D01*
X129961487Y-128939742D01*
X129968111Y-128933743D01*
X130034405Y-128872859D01*
X130034755Y-128872468D01*
X130035176Y-128872150D01*
X130041705Y-128866049D01*
X130117293Y-128794424D01*
X130117354Y-128794354D01*
X130122605Y-128789332D01*
X130202922Y-128711454D01*
X130203007Y-128711354D01*
X130207558Y-128706913D01*
X130288041Y-128627275D01*
X130288115Y-128627186D01*
X130292872Y-128622444D01*
X130368683Y-128545809D01*
X130368689Y-128545804D01*
X130368773Y-128545717D01*
X130368956Y-128545533D01*
X130368967Y-128545519D01*
X130374933Y-128539411D01*
X130442055Y-128469720D01*
X130443360Y-128468069D01*
X130444957Y-128466688D01*
X130451068Y-128460168D01*
X130504663Y-128402187D01*
X130510049Y-128395078D01*
X130516547Y-128388967D01*
X130522381Y-128382198D01*
X130557885Y-128340418D01*
X130584005Y-128302777D01*
X130612050Y-128266557D01*
X130616752Y-128258958D01*
X130629602Y-128237867D01*
X130647587Y-128200581D01*
X130668003Y-128164548D01*
X130674669Y-128144433D01*
X130683867Y-128125364D01*
X130694266Y-128085301D01*
X130707296Y-128045983D01*
X130709927Y-128024962D01*
X130715248Y-128004464D01*
X130717669Y-127963123D01*
X130722811Y-127922044D01*
X130721310Y-127900924D01*
X130722549Y-127879772D01*
X130716893Y-127838750D01*
X130713959Y-127797452D01*
X130712397Y-127788654D01*
X130711656Y-127784642D01*
X130707585Y-127770505D01*
X130705668Y-127755926D01*
X130690334Y-127710597D01*
X130677092Y-127664613D01*
X130670357Y-127651544D01*
X130665642Y-127637607D01*
X130661909Y-127629488D01*
X130646616Y-127596827D01*
X130634786Y-127576896D01*
X130625495Y-127555663D01*
X130621076Y-127547896D01*
X130588407Y-127491388D01*
X130584834Y-127486404D01*
X130582192Y-127480871D01*
X130577519Y-127473254D01*
X130530631Y-127398004D01*
X130529351Y-127396337D01*
X130528403Y-127394453D01*
X130523574Y-127386934D01*
X130465623Y-127298046D01*
X130465080Y-127297368D01*
X130464671Y-127296588D01*
X130459718Y-127289150D01*
X130393862Y-127191729D01*
X130393757Y-127191602D01*
X130391071Y-127187635D01*
X130372962Y-127161289D01*
X130337987Y-127110295D01*
X130339759Y-127105599D01*
X130348882Y-127082308D01*
X130405822Y-127071675D01*
X130559271Y-127043567D01*
X130559360Y-127043541D01*
X130560907Y-127043265D01*
X130592979Y-127037304D01*
X130593044Y-127037285D01*
X130593116Y-127037279D01*
X130601890Y-127035582D01*
X130693767Y-127017154D01*
X130696924Y-127016192D01*
X130700208Y-127015828D01*
X130708938Y-127013920D01*
X130786224Y-126996460D01*
X130793646Y-126994001D01*
X130801378Y-126992842D01*
X130810028Y-126990601D01*
X130865399Y-126975842D01*
X130895916Y-126964417D01*
X130927377Y-126955895D01*
X130935711Y-126952669D01*
X130961842Y-126942346D01*
X130980685Y-126932680D01*
X130982376Y-126932047D01*
X130984603Y-126930670D01*
X130997273Y-126924171D01*
X131033915Y-126908551D01*
X131052725Y-126895726D01*
X131072979Y-126885336D01*
X131104205Y-126860625D01*
X131137115Y-126838186D01*
X131153077Y-126821950D01*
X131170926Y-126807825D01*
X131196766Y-126777511D01*
X131224682Y-126749115D01*
X131237180Y-126730098D01*
X131251953Y-126712767D01*
X131262333Y-126694226D01*
X131266653Y-126688852D01*
X131275835Y-126671281D01*
X131293282Y-126644734D01*
X131297382Y-126636793D01*
X131301754Y-126628180D01*
X131307370Y-126613785D01*
X131312972Y-126603779D01*
X131316054Y-126594318D01*
X131324503Y-126578150D01*
X131334404Y-126544490D01*
X131347151Y-126511816D01*
X131351982Y-126484729D01*
X131359750Y-126458321D01*
X131361362Y-126449531D01*
X131368650Y-126408160D01*
X131370524Y-126383752D01*
X131375286Y-126359734D01*
X131376097Y-126350835D01*
X131381873Y-126282249D01*
X131381774Y-126275047D01*
X131382918Y-126267928D01*
X131383406Y-126259005D01*
X131387665Y-126169633D01*
X131387548Y-126167298D01*
X131387870Y-126164980D01*
X131388167Y-126156049D01*
X131390904Y-126052316D01*
X131390868Y-126051813D01*
X131390930Y-126051310D01*
X131391089Y-126042375D01*
X131392298Y-125930901D01*
X131392299Y-125930891D01*
X131392335Y-125921955D01*
X131392015Y-125808777D01*
X131392005Y-125808674D01*
X131392015Y-125808564D01*
X131391924Y-125799629D01*
X131390070Y-125691367D01*
X131389926Y-125690120D01*
X131390023Y-125688860D01*
X131389772Y-125679927D01*
X131386378Y-125583009D01*
X131385811Y-125578766D01*
X131386023Y-125574487D01*
X131385529Y-125565565D01*
X131380592Y-125486416D01*
X131378484Y-125473358D01*
X131378408Y-125460134D01*
X131377423Y-125451253D01*
X131370938Y-125396300D01*
X131358142Y-125337764D01*
X131345799Y-125279081D01*
X131344297Y-125274426D01*
X131344264Y-125274275D01*
X131344203Y-125274135D01*
X131343055Y-125270577D01*
X131335018Y-125246245D01*
X131329430Y-125233622D01*
X131325820Y-125220284D01*
X131304180Y-125176584D01*
X131284456Y-125132030D01*
X131276521Y-125120731D01*
X131270390Y-125108350D01*
X131240673Y-125069685D01*
X131212672Y-125029812D01*
X131202695Y-125020270D01*
X131194275Y-125009315D01*
X131157633Y-124977175D01*
X131122402Y-124943482D01*
X131110750Y-124936053D01*
X131100372Y-124926950D01*
X131058192Y-124902543D01*
X131017081Y-124876331D01*
X131004216Y-124871310D01*
X130992261Y-124864392D01*
X130984101Y-124860750D01*
X130975894Y-124857155D01*
X130936912Y-124844447D01*
X130898867Y-124829143D01*
X130890273Y-124826693D01*
X130849451Y-124815363D01*
X130840412Y-124813783D01*
X130831755Y-124810722D01*
X130823064Y-124808640D01*
X130754059Y-124792614D01*
X130752668Y-124792432D01*
X130751328Y-124791985D01*
X130742600Y-124790063D01*
X130650922Y-124770536D01*
X130650841Y-124770527D01*
X130643464Y-124768994D01*
X130534617Y-124747161D01*
X130534483Y-124747148D01*
X130528452Y-124745956D01*
X130407944Y-124723012D01*
X130407818Y-124723001D01*
X130405463Y-124722545D01*
X130340726Y-124710484D01*
X130321835Y-124706923D01*
X130370605Y-124635479D01*
X130408094Y-124580657D01*
X130408170Y-124580519D01*
X130410728Y-124576775D01*
X130475940Y-124479897D01*
X130475995Y-124479796D01*
X130479756Y-124474162D01*
X130535667Y-124389140D01*
X130535787Y-124388911D01*
X130535952Y-124388707D01*
X130540803Y-124381202D01*
X130584433Y-124312671D01*
X130586429Y-124308735D01*
X130589107Y-124305218D01*
X130593749Y-124297581D01*
X130622113Y-124250179D01*
X130634135Y-124224740D01*
X130648826Y-124200731D01*
X130652667Y-124192663D01*
X130662785Y-124171026D01*
X130672464Y-124143635D01*
X130675482Y-124137249D01*
X130677351Y-124129805D01*
X130682071Y-124116448D01*
X130702166Y-124062051D01*
X130702886Y-124057544D01*
X130704401Y-124053256D01*
X130712715Y-123995999D01*
X130721865Y-123938708D01*
X130721696Y-123934151D01*
X130722350Y-123929646D01*
X130719381Y-123871791D01*
X130717232Y-123813887D01*
X130716183Y-123809457D01*
X130715949Y-123804904D01*
X130701785Y-123748673D01*
X130688442Y-123692344D01*
X130686553Y-123688203D01*
X130685439Y-123683782D01*
X130660637Y-123631404D01*
X130644907Y-123596927D01*
X130641193Y-123587909D01*
X130639911Y-123585978D01*
X130636594Y-123578708D01*
X130632055Y-123571010D01*
X130625024Y-123559274D01*
X130597593Y-123522238D01*
X130572106Y-123483849D01*
X130566412Y-123476962D01*
X130537005Y-123441893D01*
X130531041Y-123436049D01*
X130526148Y-123429282D01*
X130520183Y-123422628D01*
X130471939Y-123369555D01*
X130471162Y-123368852D01*
X130470529Y-123368008D01*
X130464451Y-123361458D01*
X130401799Y-123294877D01*
X130401706Y-123294796D01*
X130397195Y-123290036D01*
X130324563Y-123214445D01*
X130324445Y-123214344D01*
X130321077Y-123210845D01*
X130242893Y-123130743D01*
X130242774Y-123130642D01*
X130239739Y-123127534D01*
X130160433Y-123047416D01*
X130160309Y-123047313D01*
X130157049Y-123044023D01*
X130081051Y-122968388D01*
X130080945Y-122968302D01*
X130076706Y-122964105D01*
X130008442Y-122897449D01*
X130008232Y-122897280D01*
X130008056Y-122897072D01*
X130001613Y-122890880D01*
X129945511Y-122837699D01*
X129941238Y-122834376D01*
X129937624Y-122830348D01*
X129930994Y-122824357D01*
X129891484Y-122789151D01*
X129862833Y-122768256D01*
X129836054Y-122745013D01*
X129828730Y-122739893D01*
X129810241Y-122727159D01*
X129794658Y-122718537D01*
X129790564Y-122715551D01*
X129789693Y-122715147D01*
X129777314Y-122705937D01*
X129738528Y-122687479D01*
X129700949Y-122666686D01*
X129682259Y-122660701D01*
X129664528Y-122652263D01*
X129622879Y-122641686D01*
X129581994Y-122628594D01*
X129562501Y-122626353D01*
X129543464Y-122621519D01*
X129500562Y-122619234D01*
X129457905Y-122614331D01*
X129438340Y-122615920D01*
X129418735Y-122614876D01*
X129376218Y-122620966D01*
X129333408Y-122624443D01*
X129314521Y-122629803D01*
X129295091Y-122632586D01*
X129254568Y-122646817D01*
X129213247Y-122658544D01*
X129195764Y-122667469D01*
X129177241Y-122673974D01*
X129169166Y-122677800D01*
X129158901Y-122682751D01*
X129135960Y-122696728D01*
X129111599Y-122708064D01*
X129103936Y-122712661D01*
X129066249Y-122735625D01*
X129063699Y-122737544D01*
X129060838Y-122738959D01*
X129053287Y-122743737D01*
X128992469Y-122782818D01*
X128992374Y-122782893D01*
X128986751Y-122786536D01*
X128907186Y-122838870D01*
X128907064Y-122838969D01*
X128903471Y-122841332D01*
X128809541Y-122904056D01*
X128809424Y-122904152D01*
X128806508Y-122906094D01*
X128702598Y-122976343D01*
X128702524Y-122976404D01*
X128701169Y-122977312D01*
X128632276Y-123024159D01*
X128616536Y-122940666D01*
X128616535Y-122940662D01*
X128532716Y-122496043D01*
X128532521Y-122495375D01*
X128532458Y-122494683D01*
X128515015Y-122435418D01*
X128497709Y-122376143D01*
X128497389Y-122375527D01*
X128497192Y-122374859D01*
X128468594Y-122320157D01*
X128440080Y-122265326D01*
X128439644Y-122264782D01*
X128439323Y-122264167D01*
X128400736Y-122216174D01*
X128362025Y-122167812D01*
X128361491Y-122167362D01*
X128361057Y-122166822D01*
X128313678Y-122127067D01*
X128266514Y-122087318D01*
X128265909Y-122086984D01*
X128265373Y-122086534D01*
X128210967Y-122056624D01*
X128157188Y-122026907D01*
X128156529Y-122026696D01*
X128155917Y-122026360D01*
X128097072Y-122007694D01*
X128038212Y-121988882D01*
X128037518Y-121988803D01*
X128036857Y-121988593D01*
X127975534Y-121981714D01*
X127914114Y-121974690D01*
X127913422Y-121974747D01*
X127912730Y-121974669D01*
X127903794Y-121974607D01*
X126978346Y-121974607D01*
X126977657Y-121974675D01*
X126976963Y-121974608D01*
X126915378Y-121980781D01*
X126854036Y-121986796D01*
X126853371Y-121986997D01*
X126852680Y-121987066D01*
X126793514Y-122005069D01*
X126734461Y-122022898D01*
X126733849Y-122023223D01*
X126733183Y-122023426D01*
X126678733Y-122052529D01*
X126624175Y-122081537D01*
X126623635Y-122081977D01*
X126623024Y-122082304D01*
X126575152Y-122121519D01*
X126527380Y-122160482D01*
X126526940Y-122161014D01*
X126526399Y-122161457D01*
X126486860Y-122209462D01*
X126447762Y-122256724D01*
X126447434Y-122257331D01*
X126446989Y-122257871D01*
X126417607Y-122312495D01*
X126388354Y-122366597D01*
X126388149Y-122367260D01*
X126387819Y-122367873D01*
X126369638Y-122427057D01*
X126351418Y-122485917D01*
X126351346Y-122486606D01*
X126351141Y-122487272D01*
X126349424Y-122496042D01*
X126265603Y-122940666D01*
X126265603Y-122940667D01*
X126249863Y-123024159D01*
X126180969Y-122977312D01*
X126180915Y-122977282D01*
X126179998Y-122976652D01*
X126106561Y-122926912D01*
X126106439Y-122926845D01*
X126104117Y-122925265D01*
X126006762Y-122859977D01*
X126006624Y-122859903D01*
X126003431Y-122857758D01*
X125919143Y-122801994D01*
X125919007Y-122801922D01*
X125914395Y-122798884D01*
X125847552Y-122755508D01*
X125846619Y-122755025D01*
X125845790Y-122754368D01*
X125838244Y-122749581D01*
X125793221Y-122721456D01*
X125777239Y-122713525D01*
X125762517Y-122703443D01*
X125754657Y-122699192D01*
X125735833Y-122689182D01*
X125721188Y-122683144D01*
X125707580Y-122675040D01*
X125663553Y-122659383D01*
X125620356Y-122641574D01*
X125604822Y-122638497D01*
X125589894Y-122633188D01*
X125543655Y-122626380D01*
X125497830Y-122617302D01*
X125481992Y-122617300D01*
X125466320Y-122614993D01*
X125419657Y-122617294D01*
X125372924Y-122617290D01*
X125357384Y-122620366D01*
X125341566Y-122621146D01*
X125296229Y-122632470D01*
X125250395Y-122641542D01*
X125235752Y-122647576D01*
X125220382Y-122651415D01*
X125178106Y-122671330D01*
X125134909Y-122689130D01*
X125121947Y-122697740D01*
X125115400Y-122700547D01*
X125113894Y-122701578D01*
X125107386Y-122704644D01*
X125099744Y-122709276D01*
X125088183Y-122716395D01*
X125050931Y-122744696D01*
X125040298Y-122751977D01*
X125030867Y-122758242D01*
X125030238Y-122758866D01*
X125012343Y-122771121D01*
X125005538Y-122776913D01*
X124970981Y-122806746D01*
X124965159Y-122812860D01*
X124958387Y-122817910D01*
X124951821Y-122823972D01*
X124899523Y-122872930D01*
X124898806Y-122873747D01*
X124897940Y-122874416D01*
X124891481Y-122880591D01*
X124825875Y-122944179D01*
X124825797Y-122944270D01*
X124821078Y-122948877D01*
X124746595Y-123022600D01*
X124746495Y-123022720D01*
X124743035Y-123026151D01*
X124664105Y-123105513D01*
X124664003Y-123105638D01*
X124660925Y-123108734D01*
X124581982Y-123189240D01*
X124581884Y-123189362D01*
X124578630Y-123192684D01*
X124504102Y-123269838D01*
X124504017Y-123269945D01*
X124499869Y-123274262D01*
X124434190Y-123343570D01*
X124434020Y-123343789D01*
X124433808Y-123343973D01*
X124427713Y-123350508D01*
X124375313Y-123407472D01*
X124372053Y-123411796D01*
X124368069Y-123415480D01*
X124362178Y-123422199D01*
X124327488Y-123462326D01*
X124307133Y-123491135D01*
X124284401Y-123518100D01*
X124279388Y-123525497D01*
X124266840Y-123544290D01*
X124258331Y-123560206D01*
X124255411Y-123564338D01*
X124251831Y-123572364D01*
X124245768Y-123583703D01*
X124222523Y-123621898D01*
X124216373Y-123638684D01*
X124207948Y-123654441D01*
X124194933Y-123697196D01*
X124179550Y-123739180D01*
X124176777Y-123756843D01*
X124171574Y-123773934D01*
X124167111Y-123818402D01*
X124160175Y-123862574D01*
X124160885Y-123880431D01*
X124159100Y-123898215D01*
X124163361Y-123942716D01*
X124165137Y-123987382D01*
X124169303Y-124004765D01*
X124171006Y-124022553D01*
X124183824Y-124065363D01*
X124186564Y-124076797D01*
X124190966Y-124098054D01*
X124192566Y-124101843D01*
X124194245Y-124108848D01*
X124197225Y-124117273D01*
X124200144Y-124125346D01*
X124204559Y-124134612D01*
X124206834Y-124142210D01*
X124220434Y-124167928D01*
X124220840Y-124168780D01*
X124239566Y-124213116D01*
X124243885Y-124220940D01*
X124264096Y-124256958D01*
X124269898Y-124265276D01*
X124274268Y-124274434D01*
X124278939Y-124282053D01*
X124315847Y-124341327D01*
X124316898Y-124342696D01*
X124317675Y-124344247D01*
X124322492Y-124351774D01*
X124373106Y-124429660D01*
X124373141Y-124429704D01*
X124377481Y-124436303D01*
X124438807Y-124528154D01*
X124438885Y-124528250D01*
X124442453Y-124533556D01*
X124511499Y-124634725D01*
X124511562Y-124634800D01*
X124512549Y-124636259D01*
X124549417Y-124689943D01*
X124560860Y-124706808D01*
X124476296Y-124722616D01*
X124476258Y-124722627D01*
X124475628Y-124722741D01*
X124412848Y-124734546D01*
X124412700Y-124734589D01*
X124408334Y-124735411D01*
X124293105Y-124757936D01*
X124292989Y-124757971D01*
X124286476Y-124759269D01*
X124185726Y-124780071D01*
X124185623Y-124780103D01*
X124185502Y-124780116D01*
X124176764Y-124781988D01*
X124096000Y-124799873D01*
X124092237Y-124801102D01*
X124088313Y-124801625D01*
X124079627Y-124803725D01*
X124024355Y-124817498D01*
X124000987Y-124825816D01*
X123976791Y-124831325D01*
X123968333Y-124834210D01*
X123944060Y-124842676D01*
X123912178Y-124857427D01*
X123906681Y-124859383D01*
X123902280Y-124862006D01*
X123898902Y-124863568D01*
X123852926Y-124882656D01*
X123842297Y-124889757D01*
X123830699Y-124895123D01*
X123790459Y-124924389D01*
X123749066Y-124952043D01*
X123740018Y-124961074D01*
X123729684Y-124968590D01*
X123695882Y-125005128D01*
X123694591Y-125006417D01*
X123693222Y-125007565D01*
X123692335Y-125008668D01*
X123660661Y-125040283D01*
X123653545Y-125050891D01*
X123644861Y-125060278D01*
X123625489Y-125091802D01*
X123614952Y-125104906D01*
X123606618Y-125120847D01*
X123591079Y-125144012D01*
X123586904Y-125151913D01*
X123582544Y-125160305D01*
X123580951Y-125164278D01*
X123579464Y-125166697D01*
X123573012Y-125184071D01*
X123571200Y-125188590D01*
X123557080Y-125215597D01*
X123548008Y-125246418D01*
X123536049Y-125276235D01*
X123530416Y-125306180D01*
X123521809Y-125335419D01*
X123520196Y-125344208D01*
X123512964Y-125385214D01*
X123511056Y-125410003D01*
X123506244Y-125434400D01*
X123505441Y-125443300D01*
X123499758Y-125511596D01*
X123499865Y-125518884D01*
X123498717Y-125526088D01*
X123498241Y-125535011D01*
X123494105Y-125624173D01*
X123494226Y-125626530D01*
X123493904Y-125628872D01*
X123493619Y-125637803D01*
X123491024Y-125741402D01*
X123491061Y-125741911D01*
X123490999Y-125742421D01*
X123490852Y-125751356D01*
X123489795Y-125862782D01*
X123489794Y-125862789D01*
X123489794Y-125862892D01*
X123489793Y-125862968D01*
X123489794Y-125862974D01*
X123489770Y-125871726D01*
X107147620Y-125871726D01*
X107158363Y-125860983D01*
X107392012Y-125511302D01*
X107552953Y-125122756D01*
X107635000Y-124710279D01*
X107635000Y-124289721D01*
X107552953Y-123877244D01*
X107392012Y-123488698D01*
X107158363Y-123139017D01*
X106860983Y-122841637D01*
X106511302Y-122607988D01*
X106122756Y-122447047D01*
X105710279Y-122365000D01*
X105289721Y-122365000D01*
X104877244Y-122447047D01*
X104488698Y-122607988D01*
X104139017Y-122841637D01*
X103841637Y-123139017D01*
X103607988Y-123488698D01*
X103447047Y-123877244D01*
X103365000Y-124289721D01*
X100660000Y-124289721D01*
X100660000Y-119198740D01*
X135610000Y-119198740D01*
X135610000Y-119491260D01*
X135667068Y-119778158D01*
X135779010Y-120048411D01*
X135941525Y-120291632D01*
X136148368Y-120498475D01*
X136330534Y-120620195D01*
X136213645Y-120689822D01*
X135997412Y-120884731D01*
X135823359Y-121118080D01*
X135698175Y-121380901D01*
X135653524Y-121528110D01*
X135774845Y-121758000D01*
X136968000Y-121758000D01*
X136968000Y-121738000D01*
X137222000Y-121738000D01*
X137222000Y-121758000D01*
X137242000Y-121758000D01*
X137242000Y-122012000D01*
X137222000Y-122012000D01*
X137222000Y-122032000D01*
X136968000Y-122032000D01*
X136968000Y-122012000D01*
X135774845Y-122012000D01*
X135653524Y-122241890D01*
X135698175Y-122389099D01*
X135823359Y-122651920D01*
X135997412Y-122885269D01*
X136213645Y-123080178D01*
X136330534Y-123149805D01*
X136148368Y-123271525D01*
X135941525Y-123478368D01*
X135779010Y-123721589D01*
X135667068Y-123991842D01*
X135610000Y-124278740D01*
X135610000Y-124571260D01*
X135667068Y-124858158D01*
X135779010Y-125128411D01*
X135941525Y-125371632D01*
X136148368Y-125578475D01*
X136322760Y-125695000D01*
X136148368Y-125811525D01*
X135941525Y-126018368D01*
X135779010Y-126261589D01*
X135667068Y-126531842D01*
X135610000Y-126818740D01*
X135610000Y-127111260D01*
X135667068Y-127398158D01*
X135779010Y-127668411D01*
X135941525Y-127911632D01*
X136148368Y-128118475D01*
X136322760Y-128235000D01*
X136148368Y-128351525D01*
X135941525Y-128558368D01*
X135779010Y-128801589D01*
X135667068Y-129071842D01*
X135610000Y-129358740D01*
X135610000Y-129651260D01*
X135667068Y-129938158D01*
X135779010Y-130208411D01*
X135941525Y-130451632D01*
X136148368Y-130658475D01*
X136391589Y-130820990D01*
X136661842Y-130932932D01*
X136948740Y-130990000D01*
X137241260Y-130990000D01*
X137528158Y-130932932D01*
X137798411Y-130820990D01*
X138041632Y-130658475D01*
X138248475Y-130451632D01*
X138365000Y-130277240D01*
X138481525Y-130451632D01*
X138688368Y-130658475D01*
X138931589Y-130820990D01*
X139201842Y-130932932D01*
X139488740Y-130990000D01*
X139781260Y-130990000D01*
X140068158Y-130932932D01*
X140338411Y-130820990D01*
X140581632Y-130658475D01*
X140788475Y-130451632D01*
X140905000Y-130277240D01*
X141021525Y-130451632D01*
X141228368Y-130658475D01*
X141390000Y-130766474D01*
X141390001Y-132128837D01*
X141386203Y-132167400D01*
X141401359Y-132321286D01*
X141446246Y-132469259D01*
X141446247Y-132469260D01*
X141519139Y-132605633D01*
X141548810Y-132641787D01*
X141592655Y-132695212D01*
X141592659Y-132695216D01*
X141617237Y-132725164D01*
X141647185Y-132749742D01*
X143473758Y-134576316D01*
X143498336Y-134606264D01*
X143528284Y-134630842D01*
X143528287Y-134630845D01*
X143557659Y-134654950D01*
X143617867Y-134704362D01*
X143722592Y-134760338D01*
X143754240Y-134777254D01*
X143902212Y-134822141D01*
X143916590Y-134823557D01*
X144017539Y-134833500D01*
X144017546Y-134833500D01*
X144056099Y-134837297D01*
X144094652Y-134833500D01*
X147411926Y-134833500D01*
X147458213Y-134847541D01*
X147573539Y-134858900D01*
X147573547Y-134858900D01*
X147612099Y-134862697D01*
X147650652Y-134858900D01*
X155777747Y-134858900D01*
X155816300Y-134862697D01*
X155854853Y-134858900D01*
X155854861Y-134858900D01*
X155970187Y-134847541D01*
X156118160Y-134802654D01*
X156254533Y-134729762D01*
X156374064Y-134631664D01*
X156398647Y-134601710D01*
X157942816Y-133057542D01*
X157972764Y-133032964D01*
X158070862Y-132913433D01*
X158143754Y-132777060D01*
X158188641Y-132629087D01*
X158188937Y-132626087D01*
X158193893Y-132575760D01*
X158200000Y-132513761D01*
X158200000Y-132513754D01*
X158203797Y-132475201D01*
X158200000Y-132436648D01*
X158200000Y-130766474D01*
X158361632Y-130658475D01*
X158568475Y-130451632D01*
X158685000Y-130277240D01*
X158801525Y-130451632D01*
X159008368Y-130658475D01*
X159251589Y-130820990D01*
X159521842Y-130932932D01*
X159808740Y-130990000D01*
X160101260Y-130990000D01*
X160388158Y-130932932D01*
X160658411Y-130820990D01*
X160901632Y-130658475D01*
X161108475Y-130451632D01*
X161225000Y-130277240D01*
X161341525Y-130451632D01*
X161548368Y-130658475D01*
X161791589Y-130820990D01*
X162061842Y-130932932D01*
X162348740Y-130990000D01*
X162641260Y-130990000D01*
X162928158Y-130932932D01*
X163198411Y-130820990D01*
X163441632Y-130658475D01*
X163648475Y-130451632D01*
X163810990Y-130208411D01*
X163922932Y-129938158D01*
X163980000Y-129651260D01*
X163980000Y-129358740D01*
X163922932Y-129071842D01*
X163810990Y-128801589D01*
X163648475Y-128558368D01*
X163441632Y-128351525D01*
X163267240Y-128235000D01*
X163441632Y-128118475D01*
X163648475Y-127911632D01*
X163810990Y-127668411D01*
X163922932Y-127398158D01*
X163980000Y-127111260D01*
X163980000Y-126818740D01*
X163922932Y-126531842D01*
X163810990Y-126261589D01*
X163648475Y-126018368D01*
X163441632Y-125811525D01*
X163267240Y-125695000D01*
X163441632Y-125578475D01*
X163648475Y-125371632D01*
X163810990Y-125128411D01*
X163922932Y-124858158D01*
X163980000Y-124571260D01*
X163980000Y-124278740D01*
X163922932Y-123991842D01*
X163810990Y-123721589D01*
X163648475Y-123478368D01*
X163441632Y-123271525D01*
X163267240Y-123155000D01*
X163441632Y-123038475D01*
X163648475Y-122831632D01*
X163810990Y-122588411D01*
X163922932Y-122318158D01*
X163980000Y-122031260D01*
X163980000Y-121738740D01*
X163922932Y-121451842D01*
X163810990Y-121181589D01*
X163648475Y-120938368D01*
X163441632Y-120731525D01*
X163267240Y-120615000D01*
X163441632Y-120498475D01*
X163648475Y-120291632D01*
X163810990Y-120048411D01*
X163922932Y-119778158D01*
X163980000Y-119491260D01*
X163980000Y-119198740D01*
X163922932Y-118911842D01*
X163810990Y-118641589D01*
X163648475Y-118398368D01*
X163441632Y-118191525D01*
X163198411Y-118029010D01*
X162928158Y-117917068D01*
X162641260Y-117860000D01*
X162348740Y-117860000D01*
X162061842Y-117917068D01*
X161791589Y-118029010D01*
X161548368Y-118191525D01*
X161341525Y-118398368D01*
X161225000Y-118572760D01*
X161108475Y-118398368D01*
X160901632Y-118191525D01*
X160658411Y-118029010D01*
X160388158Y-117917068D01*
X160101260Y-117860000D01*
X159808740Y-117860000D01*
X159521842Y-117917068D01*
X159251589Y-118029010D01*
X159008368Y-118191525D01*
X158801525Y-118398368D01*
X158685000Y-118572760D01*
X158568475Y-118398368D01*
X158361632Y-118191525D01*
X158200000Y-118083526D01*
X158200000Y-116889756D01*
X158203797Y-116851200D01*
X158200000Y-116812644D01*
X158200000Y-116812639D01*
X158194043Y-116752159D01*
X158188642Y-116697313D01*
X158143754Y-116549340D01*
X158131354Y-116526141D01*
X158203760Y-116598547D01*
X158523960Y-116812498D01*
X158879748Y-116959870D01*
X159257449Y-117035000D01*
X159642551Y-117035000D01*
X160020252Y-116959870D01*
X160376040Y-116812498D01*
X160696240Y-116598547D01*
X160968547Y-116326240D01*
X161182498Y-116006040D01*
X161329870Y-115650252D01*
X161405000Y-115272551D01*
X161405000Y-114887449D01*
X161329870Y-114509748D01*
X161182498Y-114153960D01*
X160968547Y-113833760D01*
X160696240Y-113561453D01*
X160376040Y-113347502D01*
X160020252Y-113200130D01*
X159642551Y-113125000D01*
X159257449Y-113125000D01*
X158879748Y-113200130D01*
X158523960Y-113347502D01*
X158203760Y-113561453D01*
X157931453Y-113833760D01*
X157717502Y-114153960D01*
X157570130Y-114509748D01*
X157495000Y-114887449D01*
X157495000Y-115272551D01*
X157570130Y-115650252D01*
X157717502Y-116006040D01*
X157793025Y-116119068D01*
X155293747Y-113619790D01*
X155269164Y-113589836D01*
X155149633Y-113491738D01*
X155013260Y-113418846D01*
X154865287Y-113373959D01*
X154749961Y-113362600D01*
X154749953Y-113362600D01*
X154711400Y-113358803D01*
X154672847Y-113362600D01*
X146380653Y-113362600D01*
X146342100Y-113358803D01*
X146303547Y-113362600D01*
X142113456Y-113362600D01*
X142074900Y-113358803D01*
X142036344Y-113362600D01*
X142036339Y-113362600D01*
X141995926Y-113366580D01*
X141921013Y-113373958D01*
X141773040Y-113418846D01*
X141636667Y-113491738D01*
X141517136Y-113589836D01*
X141492553Y-113619790D01*
X140416785Y-114695558D01*
X140386837Y-114720136D01*
X140362259Y-114750084D01*
X140362255Y-114750088D01*
X140331849Y-114787138D01*
X140288739Y-114839667D01*
X140286095Y-114844614D01*
X140215846Y-114976041D01*
X140170959Y-115124014D01*
X140155803Y-115277900D01*
X140159601Y-115316463D01*
X140159600Y-117487247D01*
X140155803Y-117525800D01*
X140159600Y-117564353D01*
X140159600Y-117564360D01*
X140170959Y-117679686D01*
X140215846Y-117827659D01*
X140288738Y-117964032D01*
X140346500Y-118034415D01*
X140338411Y-118029010D01*
X140068158Y-117917068D01*
X139781260Y-117860000D01*
X139488740Y-117860000D01*
X139201842Y-117917068D01*
X138931589Y-118029010D01*
X138688368Y-118191525D01*
X138481525Y-118398368D01*
X138365000Y-118572760D01*
X138248475Y-118398368D01*
X138041632Y-118191525D01*
X137798411Y-118029010D01*
X137528158Y-117917068D01*
X137241260Y-117860000D01*
X136948740Y-117860000D01*
X136661842Y-117917068D01*
X136391589Y-118029010D01*
X136148368Y-118191525D01*
X135941525Y-118398368D01*
X135779010Y-118641589D01*
X135667068Y-118911842D01*
X135610000Y-119198740D01*
X100660000Y-119198740D01*
X100660000Y-111670761D01*
X161080500Y-111670761D01*
X161080500Y-111874639D01*
X161120274Y-112074598D01*
X161198295Y-112262956D01*
X161311563Y-112432474D01*
X161402819Y-112523730D01*
X161459638Y-112630032D01*
X161557736Y-112749564D01*
X161587689Y-112774146D01*
X162104657Y-113291115D01*
X162129236Y-113321064D01*
X162159184Y-113345642D01*
X162159187Y-113345645D01*
X162161450Y-113347502D01*
X162248767Y-113419162D01*
X162385140Y-113492054D01*
X162533113Y-113536941D01*
X162648439Y-113548300D01*
X162648446Y-113548300D01*
X162686999Y-113552097D01*
X162725552Y-113548300D01*
X163327043Y-113548300D01*
X164035601Y-114256859D01*
X164035600Y-132440643D01*
X163631843Y-132844400D01*
X163131952Y-132844400D01*
X163093399Y-132840603D01*
X163054846Y-132844400D01*
X163054839Y-132844400D01*
X162953890Y-132854343D01*
X162939512Y-132855759D01*
X162905072Y-132866206D01*
X162791540Y-132900646D01*
X162655167Y-132973538D01*
X162603779Y-133015712D01*
X162565587Y-133047055D01*
X162565584Y-133047058D01*
X162535636Y-133071636D01*
X162511057Y-133101585D01*
X161765485Y-133847158D01*
X161735537Y-133871736D01*
X161710959Y-133901684D01*
X161710955Y-133901688D01*
X161686687Y-133931259D01*
X161637439Y-133991267D01*
X161606848Y-134048499D01*
X161564546Y-134127641D01*
X161519659Y-134275614D01*
X161504503Y-134429500D01*
X161508301Y-134468063D01*
X161508300Y-136201889D01*
X161489363Y-136220826D01*
X161376095Y-136390344D01*
X161298074Y-136578702D01*
X161258300Y-136778661D01*
X161258300Y-136982539D01*
X161298074Y-137182498D01*
X161376095Y-137370856D01*
X161489363Y-137540374D01*
X161633526Y-137684537D01*
X161803044Y-137797805D01*
X161991402Y-137875826D01*
X162191361Y-137915600D01*
X162395239Y-137915600D01*
X162595198Y-137875826D01*
X162783556Y-137797805D01*
X162953074Y-137684537D01*
X163097237Y-137540374D01*
X163210505Y-137370856D01*
X163288526Y-137182498D01*
X163328300Y-136982539D01*
X163328300Y-136778661D01*
X163288526Y-136578702D01*
X163210505Y-136390344D01*
X163097237Y-136220826D01*
X163078300Y-136201889D01*
X163078300Y-134754657D01*
X163418558Y-134414400D01*
X163918447Y-134414400D01*
X163957000Y-134418197D01*
X163995553Y-134414400D01*
X163995561Y-134414400D01*
X164110887Y-134403041D01*
X164258860Y-134358154D01*
X164395233Y-134285262D01*
X164514764Y-134187164D01*
X164539347Y-134157210D01*
X165348411Y-133348146D01*
X165378364Y-133323564D01*
X165476462Y-133204033D01*
X165549354Y-133067660D01*
X165550157Y-133065013D01*
X165594242Y-132919687D01*
X165603738Y-132823262D01*
X165605600Y-132804361D01*
X165605600Y-132804356D01*
X165609397Y-132765800D01*
X165605600Y-132727244D01*
X165605600Y-124289721D01*
X167365000Y-124289721D01*
X167365000Y-124710279D01*
X167447047Y-125122756D01*
X167607988Y-125511302D01*
X167841637Y-125860983D01*
X168139017Y-126158363D01*
X168488698Y-126392012D01*
X168877244Y-126552953D01*
X169289721Y-126635000D01*
X169710279Y-126635000D01*
X170122756Y-126552953D01*
X170511302Y-126392012D01*
X170860983Y-126158363D01*
X171158363Y-125860983D01*
X171392012Y-125511302D01*
X171552953Y-125122756D01*
X171635000Y-124710279D01*
X171635000Y-124289721D01*
X171552953Y-123877244D01*
X171392012Y-123488698D01*
X171158363Y-123139017D01*
X170860983Y-122841637D01*
X170511302Y-122607988D01*
X170122756Y-122447047D01*
X169710279Y-122365000D01*
X169289721Y-122365000D01*
X168877244Y-122447047D01*
X168488698Y-122607988D01*
X168139017Y-122841637D01*
X167841637Y-123139017D01*
X167607988Y-123488698D01*
X167447047Y-123877244D01*
X167365000Y-124289721D01*
X165605600Y-124289721D01*
X165605600Y-113970252D01*
X165609397Y-113931699D01*
X165605600Y-113893146D01*
X165605600Y-113893139D01*
X165594241Y-113777813D01*
X165573479Y-113709368D01*
X165549354Y-113629840D01*
X165476462Y-113493467D01*
X165378364Y-113373936D01*
X165348415Y-113349358D01*
X164234547Y-112235490D01*
X164209964Y-112205536D01*
X164090433Y-112107438D01*
X163954060Y-112034546D01*
X163806087Y-111989659D01*
X163690761Y-111978300D01*
X163690753Y-111978300D01*
X163652200Y-111974503D01*
X163613647Y-111978300D01*
X163129881Y-111978300D01*
X163150500Y-111874639D01*
X163150500Y-111670761D01*
X163110726Y-111470802D01*
X163032705Y-111282444D01*
X162919437Y-111112926D01*
X162775274Y-110968763D01*
X162605756Y-110855495D01*
X162417398Y-110777474D01*
X162217439Y-110737700D01*
X162013561Y-110737700D01*
X161813602Y-110777474D01*
X161625244Y-110855495D01*
X161455726Y-110968763D01*
X161311563Y-111112926D01*
X161198295Y-111282444D01*
X161120274Y-111470802D01*
X161080500Y-111670761D01*
X100660000Y-111670761D01*
X100660000Y-108923967D01*
X108585000Y-108923967D01*
X108585000Y-109246033D01*
X108647832Y-109561912D01*
X108771082Y-109859463D01*
X108950013Y-110127252D01*
X109177748Y-110354987D01*
X109445537Y-110533918D01*
X109743088Y-110657168D01*
X110058967Y-110720000D01*
X110381033Y-110720000D01*
X110696912Y-110657168D01*
X110994463Y-110533918D01*
X111262252Y-110354987D01*
X111489987Y-110127252D01*
X111668918Y-109859463D01*
X111792168Y-109561912D01*
X111855000Y-109246033D01*
X111855000Y-108923967D01*
X160575000Y-108923967D01*
X160575000Y-109246033D01*
X160637832Y-109561912D01*
X160761082Y-109859463D01*
X160940013Y-110127252D01*
X161167748Y-110354987D01*
X161435537Y-110533918D01*
X161733088Y-110657168D01*
X162048967Y-110720000D01*
X162371033Y-110720000D01*
X162686912Y-110657168D01*
X162984463Y-110533918D01*
X163252252Y-110354987D01*
X163479987Y-110127252D01*
X163658918Y-109859463D01*
X163782168Y-109561912D01*
X163845000Y-109246033D01*
X163845000Y-108923967D01*
X163782168Y-108608088D01*
X163658918Y-108310537D01*
X163479987Y-108042748D01*
X163252252Y-107815013D01*
X162984463Y-107636082D01*
X162686912Y-107512832D01*
X162371033Y-107450000D01*
X162048967Y-107450000D01*
X161733088Y-107512832D01*
X161435537Y-107636082D01*
X161167748Y-107815013D01*
X160940013Y-108042748D01*
X160761082Y-108310537D01*
X160637832Y-108608088D01*
X160575000Y-108923967D01*
X111855000Y-108923967D01*
X111792168Y-108608088D01*
X111668918Y-108310537D01*
X111489987Y-108042748D01*
X111262252Y-107815013D01*
X110994463Y-107636082D01*
X110696912Y-107512832D01*
X110381033Y-107450000D01*
X110058967Y-107450000D01*
X109743088Y-107512832D01*
X109445537Y-107636082D01*
X109177748Y-107815013D01*
X108950013Y-108042748D01*
X108771082Y-108310537D01*
X108647832Y-108608088D01*
X108585000Y-108923967D01*
X100660000Y-108923967D01*
X100660000Y-107110097D01*
X101068607Y-107077939D01*
X101170898Y-107061738D01*
X101385569Y-107010200D01*
X107442000Y-107010200D01*
X107466776Y-107007760D01*
X107490601Y-107000533D01*
X107512557Y-106988797D01*
X107531803Y-106973003D01*
X107547597Y-106953757D01*
X107559333Y-106931801D01*
X107566560Y-106907976D01*
X107568999Y-106882708D01*
X107553553Y-102897449D01*
X111015000Y-102897449D01*
X111015000Y-103282551D01*
X111090130Y-103660252D01*
X111237502Y-104016040D01*
X111451453Y-104336240D01*
X111723760Y-104608547D01*
X112043960Y-104822498D01*
X112399748Y-104969870D01*
X112777449Y-105045000D01*
X113162551Y-105045000D01*
X113540252Y-104969870D01*
X113896040Y-104822498D01*
X114216240Y-104608547D01*
X114488547Y-104336240D01*
X114519630Y-104289721D01*
X160365000Y-104289721D01*
X160365000Y-104710279D01*
X160447047Y-105122756D01*
X160607988Y-105511302D01*
X160841637Y-105860983D01*
X161139017Y-106158363D01*
X161488698Y-106392012D01*
X161877244Y-106552953D01*
X162289721Y-106635000D01*
X162710279Y-106635000D01*
X163122756Y-106552953D01*
X163511302Y-106392012D01*
X163860983Y-106158363D01*
X164158363Y-105860983D01*
X164392012Y-105511302D01*
X164552953Y-105122756D01*
X164635000Y-104710279D01*
X164635000Y-104289721D01*
X164552953Y-103877244D01*
X164392012Y-103488698D01*
X164158363Y-103139017D01*
X163860983Y-102841637D01*
X163511302Y-102607988D01*
X163122756Y-102447047D01*
X162710279Y-102365000D01*
X162289721Y-102365000D01*
X161877244Y-102447047D01*
X161488698Y-102607988D01*
X161139017Y-102841637D01*
X160841637Y-103139017D01*
X160607988Y-103488698D01*
X160447047Y-103877244D01*
X160365000Y-104289721D01*
X114519630Y-104289721D01*
X114702498Y-104016040D01*
X114849870Y-103660252D01*
X114925000Y-103282551D01*
X114925000Y-102897449D01*
X114849870Y-102519748D01*
X114702498Y-102163960D01*
X114488547Y-101843760D01*
X114216240Y-101571453D01*
X113896040Y-101357502D01*
X113540252Y-101210130D01*
X113162551Y-101135000D01*
X112777449Y-101135000D01*
X112399748Y-101210130D01*
X112043960Y-101357502D01*
X111723760Y-101571453D01*
X111451453Y-101843760D01*
X111237502Y-102163960D01*
X111090130Y-102519748D01*
X111015000Y-102897449D01*
X107553553Y-102897449D01*
X107544880Y-100660000D01*
X167889903Y-100660000D01*
X167922061Y-101068607D01*
G37*
X167922061Y-101068607D02*
X167938262Y-101170898D01*
X168148000Y-102044519D01*
X168148000Y-106680000D01*
X168150440Y-106704776D01*
X168157667Y-106728601D01*
X168169403Y-106750557D01*
X168185197Y-106769803D01*
X168204443Y-106785597D01*
X168226399Y-106797333D01*
X168250224Y-106804560D01*
X168275000Y-106807000D01*
X168991180Y-106807000D01*
X168740256Y-106974662D01*
X168484662Y-107230256D01*
X168283844Y-107530801D01*
X168145518Y-107864750D01*
X168075000Y-108219268D01*
X168075000Y-108580732D01*
X168145518Y-108935250D01*
X168283844Y-109269199D01*
X168484662Y-109569744D01*
X168740256Y-109825338D01*
X169040801Y-110026156D01*
X169339787Y-110150000D01*
X169040801Y-110273844D01*
X168740256Y-110474662D01*
X168484662Y-110730256D01*
X168283844Y-111030801D01*
X168145518Y-111364750D01*
X168075000Y-111719268D01*
X168075000Y-112080732D01*
X168145518Y-112435250D01*
X168283844Y-112769199D01*
X168484662Y-113069744D01*
X168740256Y-113325338D01*
X169040801Y-113526156D01*
X169127162Y-113561928D01*
X168710000Y-113561928D01*
X168585518Y-113574188D01*
X168465820Y-113610498D01*
X168355506Y-113669463D01*
X168258815Y-113748815D01*
X168179463Y-113845506D01*
X168120498Y-113955820D01*
X168084188Y-114075518D01*
X168071928Y-114200000D01*
X168071928Y-116600000D01*
X168084188Y-116724482D01*
X168120498Y-116844180D01*
X168179463Y-116954494D01*
X168258815Y-117051185D01*
X168355506Y-117130537D01*
X168465820Y-117189502D01*
X168585518Y-117225812D01*
X168710000Y-117238072D01*
X171110000Y-117238072D01*
X171234482Y-117225812D01*
X171354180Y-117189502D01*
X171464494Y-117130537D01*
X171561185Y-117051185D01*
X171640537Y-116954494D01*
X171699502Y-116844180D01*
X171735812Y-116724482D01*
X171748072Y-116600000D01*
X171748072Y-114200000D01*
X171735812Y-114075518D01*
X171699502Y-113955820D01*
X171640537Y-113845506D01*
X171561185Y-113748815D01*
X171464494Y-113669463D01*
X171354180Y-113610498D01*
X171234482Y-113574188D01*
X171110000Y-113561928D01*
X170692838Y-113561928D01*
X170779199Y-113526156D01*
X171079744Y-113325338D01*
X171335338Y-113069744D01*
X171536156Y-112769199D01*
X171674482Y-112435250D01*
X171745000Y-112080732D01*
X171745000Y-111719268D01*
X171674482Y-111364750D01*
X171536156Y-111030801D01*
X171335338Y-110730256D01*
X171079744Y-110474662D01*
X170779199Y-110273844D01*
X170480213Y-110150000D01*
X170779199Y-110026156D01*
X171079744Y-109825338D01*
X171335338Y-109569744D01*
X171536156Y-109269199D01*
X171674482Y-108935250D01*
X171745000Y-108580732D01*
X171745000Y-108219268D01*
X171674482Y-107864750D01*
X171536156Y-107530801D01*
X171335338Y-107230256D01*
X171079744Y-106974662D01*
X170828820Y-106807000D01*
X172786132Y-106807000D01*
X172837316Y-106823631D01*
X173829102Y-107061738D01*
X173931393Y-107077939D01*
X174340000Y-107110097D01*
X174340001Y-141889903D01*
X173931393Y-141922061D01*
X173829102Y-141938262D01*
X173101267Y-142113000D01*
X171375698Y-142113000D01*
X171464494Y-142065537D01*
X171561185Y-141986185D01*
X171640537Y-141889494D01*
X171699502Y-141779180D01*
X171735812Y-141659482D01*
X171748072Y-141535000D01*
X171745000Y-140620750D01*
X171586250Y-140462000D01*
X170037000Y-140462000D01*
X170037000Y-140482000D01*
X169783000Y-140482000D01*
X169783000Y-140462000D01*
X168233750Y-140462000D01*
X168075000Y-140620750D01*
X168071928Y-141535000D01*
X168084188Y-141659482D01*
X168120498Y-141779180D01*
X168179463Y-141889494D01*
X168258815Y-141986185D01*
X168355506Y-142065537D01*
X168444302Y-142113000D01*
X167640000Y-142113000D01*
X167615224Y-142115440D01*
X167591399Y-142122667D01*
X167569443Y-142134403D01*
X167550197Y-142150197D01*
X167534403Y-142169443D01*
X167522667Y-142191399D01*
X167515440Y-142215224D01*
X167513000Y-142240000D01*
X167513000Y-148340000D01*
X107646100Y-148340000D01*
X107662300Y-144289721D01*
X110365000Y-144289721D01*
X110365000Y-144710279D01*
X110447047Y-145122756D01*
X110607988Y-145511302D01*
X110841637Y-145860983D01*
X111139017Y-146158363D01*
X111488698Y-146392012D01*
X111877244Y-146552953D01*
X112289721Y-146635000D01*
X112710279Y-146635000D01*
X113122756Y-146552953D01*
X113511302Y-146392012D01*
X113860983Y-146158363D01*
X114158363Y-145860983D01*
X114331109Y-145602449D01*
X157515000Y-145602449D01*
X157515000Y-145987551D01*
X157590130Y-146365252D01*
X157737502Y-146721040D01*
X157951453Y-147041240D01*
X158223760Y-147313547D01*
X158543960Y-147527498D01*
X158899748Y-147674870D01*
X159277449Y-147750000D01*
X159662551Y-147750000D01*
X160040252Y-147674870D01*
X160396040Y-147527498D01*
X160716240Y-147313547D01*
X160988547Y-147041240D01*
X161202498Y-146721040D01*
X161349870Y-146365252D01*
X161425000Y-145987551D01*
X161425000Y-145602449D01*
X161349870Y-145224748D01*
X161202498Y-144868960D01*
X160988547Y-144548760D01*
X160716240Y-144276453D01*
X160396040Y-144062502D01*
X160040252Y-143915130D01*
X159662551Y-143840000D01*
X159277449Y-143840000D01*
X158899748Y-143915130D01*
X158543960Y-144062502D01*
X158223760Y-144276453D01*
X157951453Y-144548760D01*
X157737502Y-144868960D01*
X157590130Y-145224748D01*
X157515000Y-145602449D01*
X114331109Y-145602449D01*
X114392012Y-145511302D01*
X114552953Y-145122756D01*
X114635000Y-144710279D01*
X114635000Y-144289721D01*
X114552953Y-143877244D01*
X114392012Y-143488698D01*
X114158363Y-143139017D01*
X113860983Y-142841637D01*
X113511302Y-142607988D01*
X113122756Y-142447047D01*
X112710279Y-142365000D01*
X112289721Y-142365000D01*
X111877244Y-142447047D01*
X111488698Y-142607988D01*
X111139017Y-142841637D01*
X110841637Y-143139017D01*
X110607988Y-143488698D01*
X110447047Y-143877244D01*
X110365000Y-144289721D01*
X107662300Y-144289721D01*
X107670599Y-142215108D01*
X107668258Y-142190322D01*
X107661126Y-142166469D01*
X107649478Y-142144466D01*
X107633761Y-142125157D01*
X107614579Y-142109286D01*
X107592670Y-142097463D01*
X107568875Y-142090140D01*
X107543600Y-142087600D01*
X101792935Y-142087600D01*
X101170898Y-141938262D01*
X101068607Y-141922061D01*
X100660000Y-141889903D01*
X100660000Y-140935413D01*
X109274192Y-140935413D01*
X109369956Y-141199814D01*
X109659571Y-141340704D01*
X109971108Y-141422384D01*
X110292595Y-141441718D01*
X110611675Y-141397961D01*
X110916088Y-141292795D01*
X111090044Y-141199814D01*
X111185808Y-140935413D01*
X110230000Y-139979605D01*
X109274192Y-140935413D01*
X100660000Y-140935413D01*
X100660000Y-139862595D01*
X108588282Y-139862595D01*
X108632039Y-140181675D01*
X108737205Y-140486088D01*
X108830186Y-140660044D01*
X109094587Y-140755808D01*
X110050395Y-139800000D01*
X110409605Y-139800000D01*
X111365413Y-140755808D01*
X111629814Y-140660044D01*
X111770704Y-140370429D01*
X111852384Y-140058892D01*
X111871718Y-139737405D01*
X111827961Y-139418325D01*
X111722795Y-139113912D01*
X111629814Y-138939956D01*
X111365413Y-138844192D01*
X110409605Y-139800000D01*
X110050395Y-139800000D01*
X109094587Y-138844192D01*
X108830186Y-138939956D01*
X108689296Y-139229571D01*
X108607616Y-139541108D01*
X108588282Y-139862595D01*
X100660000Y-139862595D01*
X100660000Y-138664587D01*
X109274192Y-138664587D01*
X110230000Y-139620395D01*
X111050395Y-138800000D01*
X160581928Y-138800000D01*
X160581928Y-140800000D01*
X160594188Y-140924482D01*
X160630498Y-141044180D01*
X160689463Y-141154494D01*
X160768815Y-141251185D01*
X160865506Y-141330537D01*
X160975820Y-141389502D01*
X161095518Y-141425812D01*
X161220000Y-141438072D01*
X163220000Y-141438072D01*
X163344482Y-141425812D01*
X163464180Y-141389502D01*
X163574494Y-141330537D01*
X163671185Y-141251185D01*
X163750537Y-141154494D01*
X163809502Y-141044180D01*
X163845812Y-140924482D01*
X163858072Y-140800000D01*
X163858072Y-139135000D01*
X168071928Y-139135000D01*
X168075000Y-140049250D01*
X168233750Y-140208000D01*
X169783000Y-140208000D01*
X169783000Y-140188000D01*
X170037000Y-140188000D01*
X170037000Y-140208000D01*
X171586250Y-140208000D01*
X171745000Y-140049250D01*
X171748072Y-139135000D01*
X171735812Y-139010518D01*
X171699502Y-138890820D01*
X171640537Y-138780506D01*
X171561185Y-138683815D01*
X171464494Y-138604463D01*
X171354180Y-138545498D01*
X171234482Y-138509188D01*
X171110000Y-138496928D01*
X170689426Y-138498341D01*
X170779199Y-138461156D01*
X171079744Y-138260338D01*
X171335338Y-138004744D01*
X171536156Y-137704199D01*
X171674482Y-137370250D01*
X171745000Y-137015732D01*
X171745000Y-136654268D01*
X171674482Y-136299750D01*
X171536156Y-135965801D01*
X171335338Y-135665256D01*
X171079744Y-135409662D01*
X170779199Y-135208844D01*
X170480213Y-135085000D01*
X170779199Y-134961156D01*
X171079744Y-134760338D01*
X171335338Y-134504744D01*
X171536156Y-134204199D01*
X171674482Y-133870250D01*
X171745000Y-133515732D01*
X171745000Y-133154268D01*
X171674482Y-132799750D01*
X171536156Y-132465801D01*
X171335338Y-132165256D01*
X171079744Y-131909662D01*
X170779199Y-131708844D01*
X170445250Y-131570518D01*
X170090732Y-131500000D01*
X169729268Y-131500000D01*
X169374750Y-131570518D01*
X169040801Y-131708844D01*
X168740256Y-131909662D01*
X168484662Y-132165256D01*
X168283844Y-132465801D01*
X168145518Y-132799750D01*
X168075000Y-133154268D01*
X168075000Y-133515732D01*
X168145518Y-133870250D01*
X168283844Y-134204199D01*
X168484662Y-134504744D01*
X168740256Y-134760338D01*
X169040801Y-134961156D01*
X169339787Y-135085000D01*
X169040801Y-135208844D01*
X168740256Y-135409662D01*
X168484662Y-135665256D01*
X168283844Y-135965801D01*
X168145518Y-136299750D01*
X168075000Y-136654268D01*
X168075000Y-137015732D01*
X168145518Y-137370250D01*
X168283844Y-137704199D01*
X168484662Y-138004744D01*
X168740256Y-138260338D01*
X169040801Y-138461156D01*
X169130574Y-138498341D01*
X168710000Y-138496928D01*
X168585518Y-138509188D01*
X168465820Y-138545498D01*
X168355506Y-138604463D01*
X168258815Y-138683815D01*
X168179463Y-138780506D01*
X168120498Y-138890820D01*
X168084188Y-139010518D01*
X168071928Y-139135000D01*
X163858072Y-139135000D01*
X163858072Y-138800000D01*
X163845812Y-138675518D01*
X163809502Y-138555820D01*
X163750537Y-138445506D01*
X163671185Y-138348815D01*
X163574494Y-138269463D01*
X163464180Y-138210498D01*
X163344482Y-138174188D01*
X163220000Y-138161928D01*
X161220000Y-138161928D01*
X161095518Y-138174188D01*
X160975820Y-138210498D01*
X160865506Y-138269463D01*
X160768815Y-138348815D01*
X160689463Y-138445506D01*
X160630498Y-138555820D01*
X160594188Y-138675518D01*
X160581928Y-138800000D01*
X111050395Y-138800000D01*
X111185808Y-138664587D01*
X111090044Y-138400186D01*
X110800429Y-138259296D01*
X110488892Y-138177616D01*
X110167405Y-138158282D01*
X109848325Y-138202039D01*
X109543912Y-138307205D01*
X109369956Y-138400186D01*
X109274192Y-138664587D01*
X100660000Y-138664587D01*
X100660000Y-133612449D01*
X111035000Y-133612449D01*
X111035000Y-133997551D01*
X111110130Y-134375252D01*
X111257502Y-134731040D01*
X111471453Y-135051240D01*
X111743760Y-135323547D01*
X112063960Y-135537498D01*
X112419748Y-135684870D01*
X112797449Y-135760000D01*
X113182551Y-135760000D01*
X113560252Y-135684870D01*
X113916040Y-135537498D01*
X114236240Y-135323547D01*
X114508547Y-135051240D01*
X114722498Y-134731040D01*
X114869870Y-134375252D01*
X114945000Y-133997551D01*
X114945000Y-133612449D01*
X114869870Y-133234748D01*
X114722498Y-132878960D01*
X114508547Y-132558760D01*
X114236240Y-132286453D01*
X113916040Y-132072502D01*
X113560252Y-131925130D01*
X113182551Y-131850000D01*
X112797449Y-131850000D01*
X112419748Y-131925130D01*
X112063960Y-132072502D01*
X111743760Y-132286453D01*
X111471453Y-132558760D01*
X111257502Y-132878960D01*
X111110130Y-133234748D01*
X111035000Y-133612449D01*
X100660000Y-133612449D01*
X100660000Y-124289721D01*
X103365000Y-124289721D01*
X103365000Y-124710279D01*
X103447047Y-125122756D01*
X103607988Y-125511302D01*
X103841637Y-125860983D01*
X104139017Y-126158363D01*
X104488698Y-126392012D01*
X104877244Y-126552953D01*
X105289721Y-126635000D01*
X105710279Y-126635000D01*
X106122756Y-126552953D01*
X106511302Y-126392012D01*
X106860983Y-126158363D01*
X107147620Y-125871726D01*
X123489770Y-125871726D01*
X123490245Y-125984924D01*
X123490255Y-125985020D01*
X123490245Y-125985125D01*
X123490348Y-125994060D01*
X123492350Y-126102418D01*
X123492494Y-126103649D01*
X123492400Y-126104890D01*
X123492663Y-126113823D01*
X123496189Y-126210916D01*
X123496756Y-126215118D01*
X123496551Y-126219358D01*
X123497055Y-126228280D01*
X123502101Y-126307680D01*
X123504197Y-126320571D01*
X123504281Y-126333625D01*
X123505272Y-126342506D01*
X123511832Y-126397788D01*
X123524379Y-126455010D01*
X123536224Y-126512365D01*
X123538567Y-126519719D01*
X123538584Y-126519796D01*
X123538612Y-126519861D01*
X123538937Y-126520880D01*
X123547008Y-126545618D01*
X123564626Y-126585810D01*
X123579889Y-126626998D01*
X123589660Y-126642923D01*
X123597153Y-126660016D01*
X123622238Y-126696015D01*
X123645214Y-126733460D01*
X123657894Y-126747185D01*
X123668563Y-126762496D01*
X123700174Y-126792949D01*
X123729975Y-126825206D01*
X123745069Y-126836199D01*
X123758517Y-126849155D01*
X123795441Y-126872888D01*
X123830939Y-126898742D01*
X123838673Y-126903218D01*
X123843572Y-126906008D01*
X123854714Y-126910984D01*
X123863591Y-126916690D01*
X123897004Y-126929872D01*
X123898143Y-126930381D01*
X123952588Y-126955242D01*
X123957478Y-126956882D01*
X123957620Y-126956945D01*
X123957768Y-126956979D01*
X123961061Y-126958083D01*
X123997589Y-126970052D01*
X124015670Y-126974074D01*
X124033041Y-126980546D01*
X124041696Y-126982772D01*
X124105061Y-126998608D01*
X124110597Y-126999429D01*
X124115907Y-127001219D01*
X124124627Y-127003173D01*
X124207507Y-127021142D01*
X124210279Y-127021464D01*
X124212950Y-127022298D01*
X124221712Y-127024054D01*
X124316780Y-127042421D01*
X124316902Y-127042432D01*
X124323353Y-127043655D01*
X124354962Y-127049420D01*
X124501453Y-127076322D01*
X124533228Y-127082290D01*
X124544158Y-127110303D01*
X124490865Y-127187933D01*
X124490844Y-127187970D01*
X124490445Y-127188545D01*
X124472228Y-127215147D01*
X124472159Y-127215273D01*
X124468912Y-127220037D01*
X124404856Y-127315456D01*
X124404587Y-127315956D01*
X124404221Y-127316402D01*
X124399306Y-127323865D01*
X124343946Y-127409202D01*
X124342957Y-127411113D01*
X124341624Y-127412807D01*
X124336864Y-127420370D01*
X124293362Y-127490562D01*
X124290114Y-127497167D01*
X124285780Y-127503115D01*
X124281302Y-127510848D01*
X124252817Y-127560837D01*
X124238592Y-127592675D01*
X124221664Y-127623170D01*
X124218168Y-127631394D01*
X124207860Y-127656116D01*
X124202654Y-127673107D01*
X124201863Y-127674878D01*
X124201132Y-127678075D01*
X124196249Y-127694015D01*
X124181949Y-127731006D01*
X124177990Y-127753610D01*
X124171270Y-127775543D01*
X124167241Y-127814978D01*
X124160399Y-127854039D01*
X124160906Y-127876981D01*
X124158574Y-127899802D01*
X124162282Y-127939277D01*
X124163157Y-127978915D01*
X124168108Y-128001314D01*
X124170254Y-128024161D01*
X124175391Y-128041431D01*
X124176356Y-128049216D01*
X124183445Y-128070698D01*
X124190116Y-128100876D01*
X124192946Y-128109352D01*
X124195168Y-128115852D01*
X124201990Y-128130847D01*
X124205868Y-128143882D01*
X124210501Y-128152682D01*
X124215500Y-128167830D01*
X124232546Y-128198004D01*
X124246896Y-128229544D01*
X124262179Y-128250840D01*
X124264057Y-128254407D01*
X124265224Y-128255850D01*
X124276936Y-128276582D01*
X124282121Y-128283861D01*
X124305274Y-128315888D01*
X124321830Y-128334626D01*
X124336085Y-128355186D01*
X124341917Y-128361957D01*
X124387598Y-128414258D01*
X124392922Y-128419269D01*
X124397310Y-128425126D01*
X124403386Y-128431678D01*
X124468322Y-128500732D01*
X124470353Y-128502507D01*
X124472020Y-128504632D01*
X124478242Y-128511047D01*
X124559164Y-128593334D01*
X124559953Y-128593993D01*
X124560603Y-128594793D01*
X124566933Y-128601100D01*
X124660567Y-128693100D01*
X124660662Y-128693176D01*
X124665376Y-128697775D01*
X124718896Y-128749270D01*
X124719014Y-128749363D01*
X124722383Y-128752601D01*
X124807007Y-128832803D01*
X124807097Y-128832873D01*
X124812047Y-128837528D01*
X124886113Y-128906223D01*
X124886387Y-128906432D01*
X124886616Y-128906689D01*
X124893217Y-128912712D01*
X124952750Y-128966286D01*
X124956584Y-128969111D01*
X124959851Y-128972582D01*
X124966622Y-128978413D01*
X125007646Y-129013245D01*
X125033307Y-129031036D01*
X125057108Y-129051255D01*
X125064486Y-129056297D01*
X125083022Y-129068775D01*
X125104287Y-129080248D01*
X125110295Y-129084413D01*
X125119181Y-129088283D01*
X125123830Y-129090791D01*
X125163477Y-129114841D01*
X125178699Y-129120393D01*
X125192950Y-129128082D01*
X125237251Y-129141751D01*
X125280821Y-129157644D01*
X125296826Y-129160133D01*
X125312304Y-129164909D01*
X125358428Y-129169714D01*
X125404243Y-129176840D01*
X125420424Y-129176173D01*
X125436538Y-129177852D01*
X125482725Y-129173606D01*
X125529043Y-129171697D01*
X125544786Y-129167900D01*
X125560919Y-129166417D01*
X125605397Y-129153282D01*
X125634194Y-129146337D01*
X125642018Y-129144736D01*
X125643621Y-129144063D01*
X125650468Y-129142412D01*
X125658888Y-129139420D01*
X125671623Y-129134795D01*
X125677473Y-129131997D01*
X125680711Y-129131041D01*
X125693674Y-129124249D01*
X125713932Y-129114561D01*
X125757195Y-129096407D01*
X125765029Y-129092107D01*
X125804239Y-129070226D01*
X125814286Y-129063253D01*
X125825304Y-129057939D01*
X125832903Y-129053236D01*
X125889844Y-129017452D01*
X125893986Y-129014245D01*
X125898641Y-129011824D01*
X125906094Y-129006893D01*
X125973340Y-128961737D01*
X125973402Y-128961686D01*
X125979736Y-128957385D01*
X126027088Y-128924751D01*
X126121072Y-128860320D01*
X126182888Y-128818143D01*
X126213440Y-128828301D01*
X126243864Y-128841625D01*
X126252380Y-128844334D01*
X126279456Y-128852741D01*
X126299169Y-128856805D01*
X126300468Y-128857237D01*
X126302518Y-128857496D01*
X126339974Y-128865218D01*
X126400360Y-128877809D01*
X126401082Y-128877816D01*
X126401789Y-128877962D01*
X126463161Y-128878443D01*
X126525260Y-128879070D01*
X126525978Y-128878935D01*
X126526691Y-128878941D01*
X126586966Y-128867497D01*
X126648026Y-128856046D01*
X126648697Y-128855778D01*
X126649405Y-128855643D01*
X126706510Y-128832628D01*
X126763982Y-128809615D01*
X126764590Y-128809220D01*
X126765257Y-128808951D01*
X126816834Y-128775263D01*
X126868711Y-128741545D01*
X126869229Y-128741041D01*
X126869832Y-128740647D01*
X126913711Y-128697752D01*
X126958224Y-128654432D01*
X126959099Y-128653381D01*
X126959149Y-128653332D01*
X126959193Y-128653268D01*
X126963941Y-128647564D01*
X126972802Y-128636768D01*
X127005100Y-128588481D01*
X127038073Y-128540613D01*
X127042241Y-128532954D01*
X127042247Y-128532946D01*
X127042250Y-128532938D01*
X127042345Y-128532764D01*
X127064349Y-128491657D01*
X127068090Y-128482652D01*
X127073261Y-128474383D01*
X127077180Y-128466353D01*
X127109681Y-128398578D01*
X127110183Y-128397201D01*
X127110938Y-128395942D01*
X127114708Y-128387840D01*
X127155897Y-128297700D01*
X127155936Y-128297588D01*
X127158675Y-128291535D01*
X127206743Y-128183332D01*
X127206795Y-128183174D01*
X127208588Y-128179136D01*
X127261729Y-128057168D01*
X127261776Y-128057022D01*
X127263127Y-128053934D01*
X127319530Y-127922504D01*
X127319571Y-127922376D01*
X127320713Y-127919730D01*
X127378570Y-127783140D01*
X127378609Y-127783015D01*
X127379672Y-127780523D01*
X127437176Y-127643072D01*
X127437215Y-127642944D01*
X127438306Y-127640354D01*
X127441101Y-127633585D01*
X127490895Y-127752978D01*
X127490960Y-127753099D01*
X127492003Y-127755617D01*
X127549905Y-127892722D01*
X127549967Y-127892837D01*
X127551069Y-127895462D01*
X127607875Y-128028245D01*
X127607946Y-128028374D01*
X127609230Y-128031389D01*
X127663134Y-128155547D01*
X127663208Y-128155681D01*
X127664882Y-128159537D01*
X127714076Y-128270769D01*
X127714144Y-128270889D01*
X127716628Y-128276464D01*
X127759303Y-128370467D01*
X127759701Y-128371157D01*
X127759963Y-128371918D01*
X127763735Y-128380019D01*
X127798085Y-128452492D01*
X127801771Y-128458637D01*
X127804348Y-128465336D01*
X127808411Y-128473295D01*
X127832627Y-128519935D01*
X127858187Y-128559236D01*
X127881797Y-128599740D01*
X127887080Y-128606948D01*
X127899354Y-128623452D01*
X127932779Y-128660265D01*
X127964718Y-128698396D01*
X127974703Y-128706438D01*
X127983318Y-128715927D01*
X128023252Y-128745544D01*
X128061993Y-128776748D01*
X128073352Y-128782699D01*
X128083644Y-128790332D01*
X128128575Y-128811631D01*
X128172635Y-128834714D01*
X128184927Y-128838344D01*
X128196512Y-128843835D01*
X128244736Y-128856003D01*
X128292428Y-128870085D01*
X128305193Y-128871258D01*
X128317622Y-128874394D01*
X128367292Y-128876964D01*
X128416811Y-128881514D01*
X128429558Y-128880186D01*
X128442361Y-128880848D01*
X128491578Y-128873722D01*
X128518375Y-128870929D01*
X128532383Y-128869893D01*
X128534848Y-128869213D01*
X128541043Y-128868567D01*
X128549786Y-128866716D01*
X128559994Y-128864481D01*
X128563703Y-128863279D01*
X128565978Y-128862950D01*
X128580055Y-128857982D01*
X128606074Y-128849553D01*
X128652787Y-128836660D01*
X128661105Y-128833394D01*
X128699232Y-128818120D01*
X128720664Y-128832716D01*
X128819096Y-128900060D01*
X128902785Y-128957649D01*
X128902921Y-128957724D01*
X128905888Y-128959770D01*
X128952419Y-128991389D01*
X128954344Y-128992438D01*
X128956039Y-128993831D01*
X128963499Y-128998751D01*
X129023978Y-129038035D01*
X129030222Y-129041272D01*
X129035815Y-129045541D01*
X129043447Y-129050190D01*
X129088290Y-129077082D01*
X129116939Y-129090655D01*
X129144159Y-129106932D01*
X129152267Y-129110691D01*
X129174169Y-129120662D01*
X129190578Y-129126273D01*
X129206033Y-129134141D01*
X129249560Y-129146441D01*
X129292356Y-129161075D01*
X129309543Y-129163392D01*
X129326232Y-129168108D01*
X129371324Y-129171720D01*
X129416143Y-129177762D01*
X129433449Y-129176697D01*
X129450740Y-129178082D01*
X129495663Y-129172868D01*
X129540813Y-129170089D01*
X129557593Y-129165680D01*
X129574813Y-129163681D01*
X129601384Y-129155140D01*
X129604868Y-129154618D01*
X129619094Y-129149519D01*
X129661618Y-129138345D01*
X129677213Y-129130765D01*
X129693726Y-129125457D01*
X129701901Y-129121848D01*
X129711311Y-129117615D01*
X129716659Y-129114550D01*
X129722450Y-129112474D01*
X129755205Y-129092856D01*
X129773957Y-129083742D01*
X129785031Y-129075360D01*
X129819678Y-129055501D01*
X129824322Y-129051462D01*
X129829607Y-129048296D01*
X129836751Y-129042928D01*
X129870765Y-129016999D01*
X129882754Y-129005851D01*
X129896228Y-128996541D01*
X129903009Y-128990720D01*
X129955445Y-128945069D01*
X129958221Y-128942130D01*
X129961487Y-128939742D01*
X129968111Y-128933743D01*
X130034405Y-128872859D01*
X130034755Y-128872468D01*
X130035176Y-128872150D01*
X130041705Y-128866049D01*
X130117293Y-128794424D01*
X130117354Y-128794354D01*
X130122605Y-128789332D01*
X130202922Y-128711454D01*
X130203007Y-128711354D01*
X130207558Y-128706913D01*
X130288041Y-128627275D01*
X130288115Y-128627186D01*
X130292872Y-128622444D01*
X130368683Y-128545809D01*
X130368689Y-128545804D01*
X130368773Y-128545717D01*
X130368956Y-128545533D01*
X130368967Y-128545519D01*
X130374933Y-128539411D01*
X130442055Y-128469720D01*
X130443360Y-128468069D01*
X130444957Y-128466688D01*
X130451068Y-128460168D01*
X130504663Y-128402187D01*
X130510049Y-128395078D01*
X130516547Y-128388967D01*
X130522381Y-128382198D01*
X130557885Y-128340418D01*
X130584005Y-128302777D01*
X130612050Y-128266557D01*
X130616752Y-128258958D01*
X130629602Y-128237867D01*
X130647587Y-128200581D01*
X130668003Y-128164548D01*
X130674669Y-128144433D01*
X130683867Y-128125364D01*
X130694266Y-128085301D01*
X130707296Y-128045983D01*
X130709927Y-128024962D01*
X130715248Y-128004464D01*
X130717669Y-127963123D01*
X130722811Y-127922044D01*
X130721310Y-127900924D01*
X130722549Y-127879772D01*
X130716893Y-127838750D01*
X130713959Y-127797452D01*
X130712397Y-127788654D01*
X130711656Y-127784642D01*
X130707585Y-127770505D01*
X130705668Y-127755926D01*
X130690334Y-127710597D01*
X130677092Y-127664613D01*
X130670357Y-127651544D01*
X130665642Y-127637607D01*
X130661909Y-127629488D01*
X130646616Y-127596827D01*
X130634786Y-127576896D01*
X130625495Y-127555663D01*
X130621076Y-127547896D01*
X130588407Y-127491388D01*
X130584834Y-127486404D01*
X130582192Y-127480871D01*
X130577519Y-127473254D01*
X130530631Y-127398004D01*
X130529351Y-127396337D01*
X130528403Y-127394453D01*
X130523574Y-127386934D01*
X130465623Y-127298046D01*
X130465080Y-127297368D01*
X130464671Y-127296588D01*
X130459718Y-127289150D01*
X130393862Y-127191729D01*
X130393757Y-127191602D01*
X130391071Y-127187635D01*
X130372962Y-127161289D01*
X130337987Y-127110295D01*
X130339759Y-127105599D01*
X130348882Y-127082308D01*
X130405822Y-127071675D01*
X130559271Y-127043567D01*
X130559360Y-127043541D01*
X130560907Y-127043265D01*
X130592979Y-127037304D01*
X130593044Y-127037285D01*
X130593116Y-127037279D01*
X130601890Y-127035582D01*
X130693767Y-127017154D01*
X130696924Y-127016192D01*
X130700208Y-127015828D01*
X130708938Y-127013920D01*
X130786224Y-126996460D01*
X130793646Y-126994001D01*
X130801378Y-126992842D01*
X130810028Y-126990601D01*
X130865399Y-126975842D01*
X130895916Y-126964417D01*
X130927377Y-126955895D01*
X130935711Y-126952669D01*
X130961842Y-126942346D01*
X130980685Y-126932680D01*
X130982376Y-126932047D01*
X130984603Y-126930670D01*
X130997273Y-126924171D01*
X131033915Y-126908551D01*
X131052725Y-126895726D01*
X131072979Y-126885336D01*
X131104205Y-126860625D01*
X131137115Y-126838186D01*
X131153077Y-126821950D01*
X131170926Y-126807825D01*
X131196766Y-126777511D01*
X131224682Y-126749115D01*
X131237180Y-126730098D01*
X131251953Y-126712767D01*
X131262333Y-126694226D01*
X131266653Y-126688852D01*
X131275835Y-126671281D01*
X131293282Y-126644734D01*
X131297382Y-126636793D01*
X131301754Y-126628180D01*
X131307370Y-126613785D01*
X131312972Y-126603779D01*
X131316054Y-126594318D01*
X131324503Y-126578150D01*
X131334404Y-126544490D01*
X131347151Y-126511816D01*
X131351982Y-126484729D01*
X131359750Y-126458321D01*
X131361362Y-126449531D01*
X131368650Y-126408160D01*
X131370524Y-126383752D01*
X131375286Y-126359734D01*
X131376097Y-126350835D01*
X131381873Y-126282249D01*
X131381774Y-126275047D01*
X131382918Y-126267928D01*
X131383406Y-126259005D01*
X131387665Y-126169633D01*
X131387548Y-126167298D01*
X131387870Y-126164980D01*
X131388167Y-126156049D01*
X131390904Y-126052316D01*
X131390868Y-126051813D01*
X131390930Y-126051310D01*
X131391089Y-126042375D01*
X131392298Y-125930901D01*
X131392299Y-125930891D01*
X131392335Y-125921955D01*
X131392015Y-125808777D01*
X131392005Y-125808674D01*
X131392015Y-125808564D01*
X131391924Y-125799629D01*
X131390070Y-125691367D01*
X131389926Y-125690120D01*
X131390023Y-125688860D01*
X131389772Y-125679927D01*
X131386378Y-125583009D01*
X131385811Y-125578766D01*
X131386023Y-125574487D01*
X131385529Y-125565565D01*
X131380592Y-125486416D01*
X131378484Y-125473358D01*
X131378408Y-125460134D01*
X131377423Y-125451253D01*
X131370938Y-125396300D01*
X131358142Y-125337764D01*
X131345799Y-125279081D01*
X131344297Y-125274426D01*
X131344264Y-125274275D01*
X131344203Y-125274135D01*
X131343055Y-125270577D01*
X131335018Y-125246245D01*
X131329430Y-125233622D01*
X131325820Y-125220284D01*
X131304180Y-125176584D01*
X131284456Y-125132030D01*
X131276521Y-125120731D01*
X131270390Y-125108350D01*
X131240673Y-125069685D01*
X131212672Y-125029812D01*
X131202695Y-125020270D01*
X131194275Y-125009315D01*
X131157633Y-124977175D01*
X131122402Y-124943482D01*
X131110750Y-124936053D01*
X131100372Y-124926950D01*
X131058192Y-124902543D01*
X131017081Y-124876331D01*
X131004216Y-124871310D01*
X130992261Y-124864392D01*
X130984101Y-124860750D01*
X130975894Y-124857155D01*
X130936912Y-124844447D01*
X130898867Y-124829143D01*
X130890273Y-124826693D01*
X130849451Y-124815363D01*
X130840412Y-124813783D01*
X130831755Y-124810722D01*
X130823064Y-124808640D01*
X130754059Y-124792614D01*
X130752668Y-124792432D01*
X130751328Y-124791985D01*
X130742600Y-124790063D01*
X130650922Y-124770536D01*
X130650841Y-124770527D01*
X130643464Y-124768994D01*
X130534617Y-124747161D01*
X130534483Y-124747148D01*
X130528452Y-124745956D01*
X130407944Y-124723012D01*
X130407818Y-124723001D01*
X130405463Y-124722545D01*
X130340726Y-124710484D01*
X130321835Y-124706923D01*
X130370605Y-124635479D01*
X130408094Y-124580657D01*
X130408170Y-124580519D01*
X130410728Y-124576775D01*
X130475940Y-124479897D01*
X130475995Y-124479796D01*
X130479756Y-124474162D01*
X130535667Y-124389140D01*
X130535787Y-124388911D01*
X130535952Y-124388707D01*
X130540803Y-124381202D01*
X130584433Y-124312671D01*
X130586429Y-124308735D01*
X130589107Y-124305218D01*
X130593749Y-124297581D01*
X130622113Y-124250179D01*
X130634135Y-124224740D01*
X130648826Y-124200731D01*
X130652667Y-124192663D01*
X130662785Y-124171026D01*
X130672464Y-124143635D01*
X130675482Y-124137249D01*
X130677351Y-124129805D01*
X130682071Y-124116448D01*
X130702166Y-124062051D01*
X130702886Y-124057544D01*
X130704401Y-124053256D01*
X130712715Y-123995999D01*
X130721865Y-123938708D01*
X130721696Y-123934151D01*
X130722350Y-123929646D01*
X130719381Y-123871791D01*
X130717232Y-123813887D01*
X130716183Y-123809457D01*
X130715949Y-123804904D01*
X130701785Y-123748673D01*
X130688442Y-123692344D01*
X130686553Y-123688203D01*
X130685439Y-123683782D01*
X130660637Y-123631404D01*
X130644907Y-123596927D01*
X130641193Y-123587909D01*
X130639911Y-123585978D01*
X130636594Y-123578708D01*
X130632055Y-123571010D01*
X130625024Y-123559274D01*
X130597593Y-123522238D01*
X130572106Y-123483849D01*
X130566412Y-123476962D01*
X130537005Y-123441893D01*
X130531041Y-123436049D01*
X130526148Y-123429282D01*
X130520183Y-123422628D01*
X130471939Y-123369555D01*
X130471162Y-123368852D01*
X130470529Y-123368008D01*
X130464451Y-123361458D01*
X130401799Y-123294877D01*
X130401706Y-123294796D01*
X130397195Y-123290036D01*
X130324563Y-123214445D01*
X130324445Y-123214344D01*
X130321077Y-123210845D01*
X130242893Y-123130743D01*
X130242774Y-123130642D01*
X130239739Y-123127534D01*
X130160433Y-123047416D01*
X130160309Y-123047313D01*
X130157049Y-123044023D01*
X130081051Y-122968388D01*
X130080945Y-122968302D01*
X130076706Y-122964105D01*
X130008442Y-122897449D01*
X130008232Y-122897280D01*
X130008056Y-122897072D01*
X130001613Y-122890880D01*
X129945511Y-122837699D01*
X129941238Y-122834376D01*
X129937624Y-122830348D01*
X129930994Y-122824357D01*
X129891484Y-122789151D01*
X129862833Y-122768256D01*
X129836054Y-122745013D01*
X129828730Y-122739893D01*
X129810241Y-122727159D01*
X129794658Y-122718537D01*
X129790564Y-122715551D01*
X129789693Y-122715147D01*
X129777314Y-122705937D01*
X129738528Y-122687479D01*
X129700949Y-122666686D01*
X129682259Y-122660701D01*
X129664528Y-122652263D01*
X129622879Y-122641686D01*
X129581994Y-122628594D01*
X129562501Y-122626353D01*
X129543464Y-122621519D01*
X129500562Y-122619234D01*
X129457905Y-122614331D01*
X129438340Y-122615920D01*
X129418735Y-122614876D01*
X129376218Y-122620966D01*
X129333408Y-122624443D01*
X129314521Y-122629803D01*
X129295091Y-122632586D01*
X129254568Y-122646817D01*
X129213247Y-122658544D01*
X129195764Y-122667469D01*
X129177241Y-122673974D01*
X129169166Y-122677800D01*
X129158901Y-122682751D01*
X129135960Y-122696728D01*
X129111599Y-122708064D01*
X129103936Y-122712661D01*
X129066249Y-122735625D01*
X129063699Y-122737544D01*
X129060838Y-122738959D01*
X129053287Y-122743737D01*
X128992469Y-122782818D01*
X128992374Y-122782893D01*
X128986751Y-122786536D01*
X128907186Y-122838870D01*
X128907064Y-122838969D01*
X128903471Y-122841332D01*
X128809541Y-122904056D01*
X128809424Y-122904152D01*
X128806508Y-122906094D01*
X128702598Y-122976343D01*
X128702524Y-122976404D01*
X128701169Y-122977312D01*
X128632276Y-123024159D01*
X128616536Y-122940666D01*
X128616535Y-122940662D01*
X128532716Y-122496043D01*
X128532521Y-122495375D01*
X128532458Y-122494683D01*
X128515015Y-122435418D01*
X128497709Y-122376143D01*
X128497389Y-122375527D01*
X128497192Y-122374859D01*
X128468594Y-122320157D01*
X128440080Y-122265326D01*
X128439644Y-122264782D01*
X128439323Y-122264167D01*
X128400736Y-122216174D01*
X128362025Y-122167812D01*
X128361491Y-122167362D01*
X128361057Y-122166822D01*
X128313678Y-122127067D01*
X128266514Y-122087318D01*
X128265909Y-122086984D01*
X128265373Y-122086534D01*
X128210967Y-122056624D01*
X128157188Y-122026907D01*
X128156529Y-122026696D01*
X128155917Y-122026360D01*
X128097072Y-122007694D01*
X128038212Y-121988882D01*
X128037518Y-121988803D01*
X128036857Y-121988593D01*
X127975534Y-121981714D01*
X127914114Y-121974690D01*
X127913422Y-121974747D01*
X127912730Y-121974669D01*
X127903794Y-121974607D01*
X126978346Y-121974607D01*
X126977657Y-121974675D01*
X126976963Y-121974608D01*
X126915378Y-121980781D01*
X126854036Y-121986796D01*
X126853371Y-121986997D01*
X126852680Y-121987066D01*
X126793514Y-122005069D01*
X126734461Y-122022898D01*
X126733849Y-122023223D01*
X126733183Y-122023426D01*
X126678733Y-122052529D01*
X126624175Y-122081537D01*
X126623635Y-122081977D01*
X126623024Y-122082304D01*
X126575152Y-122121519D01*
X126527380Y-122160482D01*
X126526940Y-122161014D01*
X126526399Y-122161457D01*
X126486860Y-122209462D01*
X126447762Y-122256724D01*
X126447434Y-122257331D01*
X126446989Y-122257871D01*
X126417607Y-122312495D01*
X126388354Y-122366597D01*
X126388149Y-122367260D01*
X126387819Y-122367873D01*
X126369638Y-122427057D01*
X126351418Y-122485917D01*
X126351346Y-122486606D01*
X126351141Y-122487272D01*
X126349424Y-122496042D01*
X126265603Y-122940666D01*
X126265603Y-122940667D01*
X126249863Y-123024159D01*
X126180969Y-122977312D01*
X126180915Y-122977282D01*
X126179998Y-122976652D01*
X126106561Y-122926912D01*
X126106439Y-122926845D01*
X126104117Y-122925265D01*
X126006762Y-122859977D01*
X126006624Y-122859903D01*
X126003431Y-122857758D01*
X125919143Y-122801994D01*
X125919007Y-122801922D01*
X125914395Y-122798884D01*
X125847552Y-122755508D01*
X125846619Y-122755025D01*
X125845790Y-122754368D01*
X125838244Y-122749581D01*
X125793221Y-122721456D01*
X125777239Y-122713525D01*
X125762517Y-122703443D01*
X125754657Y-122699192D01*
X125735833Y-122689182D01*
X125721188Y-122683144D01*
X125707580Y-122675040D01*
X125663553Y-122659383D01*
X125620356Y-122641574D01*
X125604822Y-122638497D01*
X125589894Y-122633188D01*
X125543655Y-122626380D01*
X125497830Y-122617302D01*
X125481992Y-122617300D01*
X125466320Y-122614993D01*
X125419657Y-122617294D01*
X125372924Y-122617290D01*
X125357384Y-122620366D01*
X125341566Y-122621146D01*
X125296229Y-122632470D01*
X125250395Y-122641542D01*
X125235752Y-122647576D01*
X125220382Y-122651415D01*
X125178106Y-122671330D01*
X125134909Y-122689130D01*
X125121947Y-122697740D01*
X125115400Y-122700547D01*
X125113894Y-122701578D01*
X125107386Y-122704644D01*
X125099744Y-122709276D01*
X125088183Y-122716395D01*
X125050931Y-122744696D01*
X125040298Y-122751977D01*
X125030867Y-122758242D01*
X125030238Y-122758866D01*
X125012343Y-122771121D01*
X125005538Y-122776913D01*
X124970981Y-122806746D01*
X124965159Y-122812860D01*
X124958387Y-122817910D01*
X124951821Y-122823972D01*
X124899523Y-122872930D01*
X124898806Y-122873747D01*
X124897940Y-122874416D01*
X124891481Y-122880591D01*
X124825875Y-122944179D01*
X124825797Y-122944270D01*
X124821078Y-122948877D01*
X124746595Y-123022600D01*
X124746495Y-123022720D01*
X124743035Y-123026151D01*
X124664105Y-123105513D01*
X124664003Y-123105638D01*
X124660925Y-123108734D01*
X124581982Y-123189240D01*
X124581884Y-123189362D01*
X124578630Y-123192684D01*
X124504102Y-123269838D01*
X124504017Y-123269945D01*
X124499869Y-123274262D01*
X124434190Y-123343570D01*
X124434020Y-123343789D01*
X124433808Y-123343973D01*
X124427713Y-123350508D01*
X124375313Y-123407472D01*
X124372053Y-123411796D01*
X124368069Y-123415480D01*
X124362178Y-123422199D01*
X124327488Y-123462326D01*
X124307133Y-123491135D01*
X124284401Y-123518100D01*
X124279388Y-123525497D01*
X124266840Y-123544290D01*
X124258331Y-123560206D01*
X124255411Y-123564338D01*
X124251831Y-123572364D01*
X124245768Y-123583703D01*
X124222523Y-123621898D01*
X124216373Y-123638684D01*
X124207948Y-123654441D01*
X124194933Y-123697196D01*
X124179550Y-123739180D01*
X124176777Y-123756843D01*
X124171574Y-123773934D01*
X124167111Y-123818402D01*
X124160175Y-123862574D01*
X124160885Y-123880431D01*
X124159100Y-123898215D01*
X124163361Y-123942716D01*
X124165137Y-123987382D01*
X124169303Y-124004765D01*
X124171006Y-124022553D01*
X124183824Y-124065363D01*
X124186564Y-124076797D01*
X124190966Y-124098054D01*
X124192566Y-124101843D01*
X124194245Y-124108848D01*
X124197225Y-124117273D01*
X124200144Y-124125346D01*
X124204559Y-124134612D01*
X124206834Y-124142210D01*
X124220434Y-124167928D01*
X124220840Y-124168780D01*
X124239566Y-124213116D01*
X124243885Y-124220940D01*
X124264096Y-124256958D01*
X124269898Y-124265276D01*
X124274268Y-124274434D01*
X124278939Y-124282053D01*
X124315847Y-124341327D01*
X124316898Y-124342696D01*
X124317675Y-124344247D01*
X124322492Y-124351774D01*
X124373106Y-124429660D01*
X124373141Y-124429704D01*
X124377481Y-124436303D01*
X124438807Y-124528154D01*
X124438885Y-124528250D01*
X124442453Y-124533556D01*
X124511499Y-124634725D01*
X124511562Y-124634800D01*
X124512549Y-124636259D01*
X124549417Y-124689943D01*
X124560860Y-124706808D01*
X124476296Y-124722616D01*
X124476258Y-124722627D01*
X124475628Y-124722741D01*
X124412848Y-124734546D01*
X124412700Y-124734589D01*
X124408334Y-124735411D01*
X124293105Y-124757936D01*
X124292989Y-124757971D01*
X124286476Y-124759269D01*
X124185726Y-124780071D01*
X124185623Y-124780103D01*
X124185502Y-124780116D01*
X124176764Y-124781988D01*
X124096000Y-124799873D01*
X124092237Y-124801102D01*
X124088313Y-124801625D01*
X124079627Y-124803725D01*
X124024355Y-124817498D01*
X124000987Y-124825816D01*
X123976791Y-124831325D01*
X123968333Y-124834210D01*
X123944060Y-124842676D01*
X123912178Y-124857427D01*
X123906681Y-124859383D01*
X123902280Y-124862006D01*
X123898902Y-124863568D01*
X123852926Y-124882656D01*
X123842297Y-124889757D01*
X123830699Y-124895123D01*
X123790459Y-124924389D01*
X123749066Y-124952043D01*
X123740018Y-124961074D01*
X123729684Y-124968590D01*
X123695882Y-125005128D01*
X123694591Y-125006417D01*
X123693222Y-125007565D01*
X123692335Y-125008668D01*
X123660661Y-125040283D01*
X123653545Y-125050891D01*
X123644861Y-125060278D01*
X123625489Y-125091802D01*
X123614952Y-125104906D01*
X123606618Y-125120847D01*
X123591079Y-125144012D01*
X123586904Y-125151913D01*
X123582544Y-125160305D01*
X123580951Y-125164278D01*
X123579464Y-125166697D01*
X123573012Y-125184071D01*
X123571200Y-125188590D01*
X123557080Y-125215597D01*
X123548008Y-125246418D01*
X123536049Y-125276235D01*
X123530416Y-125306180D01*
X123521809Y-125335419D01*
X123520196Y-125344208D01*
X123512964Y-125385214D01*
X123511056Y-125410003D01*
X123506244Y-125434400D01*
X123505441Y-125443300D01*
X123499758Y-125511596D01*
X123499865Y-125518884D01*
X123498717Y-125526088D01*
X123498241Y-125535011D01*
X123494105Y-125624173D01*
X123494226Y-125626530D01*
X123493904Y-125628872D01*
X123493619Y-125637803D01*
X123491024Y-125741402D01*
X123491061Y-125741911D01*
X123490999Y-125742421D01*
X123490852Y-125751356D01*
X123489795Y-125862782D01*
X123489794Y-125862789D01*
X123489794Y-125862892D01*
X123489793Y-125862968D01*
X123489794Y-125862974D01*
X123489770Y-125871726D01*
X107147620Y-125871726D01*
X107158363Y-125860983D01*
X107392012Y-125511302D01*
X107552953Y-125122756D01*
X107635000Y-124710279D01*
X107635000Y-124289721D01*
X107552953Y-123877244D01*
X107392012Y-123488698D01*
X107158363Y-123139017D01*
X106860983Y-122841637D01*
X106511302Y-122607988D01*
X106122756Y-122447047D01*
X105710279Y-122365000D01*
X105289721Y-122365000D01*
X104877244Y-122447047D01*
X104488698Y-122607988D01*
X104139017Y-122841637D01*
X103841637Y-123139017D01*
X103607988Y-123488698D01*
X103447047Y-123877244D01*
X103365000Y-124289721D01*
X100660000Y-124289721D01*
X100660000Y-119198740D01*
X135610000Y-119198740D01*
X135610000Y-119491260D01*
X135667068Y-119778158D01*
X135779010Y-120048411D01*
X135941525Y-120291632D01*
X136148368Y-120498475D01*
X136330534Y-120620195D01*
X136213645Y-120689822D01*
X135997412Y-120884731D01*
X135823359Y-121118080D01*
X135698175Y-121380901D01*
X135653524Y-121528110D01*
X135774845Y-121758000D01*
X136968000Y-121758000D01*
X136968000Y-121738000D01*
X137222000Y-121738000D01*
X137222000Y-121758000D01*
X137242000Y-121758000D01*
X137242000Y-122012000D01*
X137222000Y-122012000D01*
X137222000Y-122032000D01*
X136968000Y-122032000D01*
X136968000Y-122012000D01*
X135774845Y-122012000D01*
X135653524Y-122241890D01*
X135698175Y-122389099D01*
X135823359Y-122651920D01*
X135997412Y-122885269D01*
X136213645Y-123080178D01*
X136330534Y-123149805D01*
X136148368Y-123271525D01*
X135941525Y-123478368D01*
X135779010Y-123721589D01*
X135667068Y-123991842D01*
X135610000Y-124278740D01*
X135610000Y-124571260D01*
X135667068Y-124858158D01*
X135779010Y-125128411D01*
X135941525Y-125371632D01*
X136148368Y-125578475D01*
X136322760Y-125695000D01*
X136148368Y-125811525D01*
X135941525Y-126018368D01*
X135779010Y-126261589D01*
X135667068Y-126531842D01*
X135610000Y-126818740D01*
X135610000Y-127111260D01*
X135667068Y-127398158D01*
X135779010Y-127668411D01*
X135941525Y-127911632D01*
X136148368Y-128118475D01*
X136322760Y-128235000D01*
X136148368Y-128351525D01*
X135941525Y-128558368D01*
X135779010Y-128801589D01*
X135667068Y-129071842D01*
X135610000Y-129358740D01*
X135610000Y-129651260D01*
X135667068Y-129938158D01*
X135779010Y-130208411D01*
X135941525Y-130451632D01*
X136148368Y-130658475D01*
X136391589Y-130820990D01*
X136661842Y-130932932D01*
X136948740Y-130990000D01*
X137241260Y-130990000D01*
X137528158Y-130932932D01*
X137798411Y-130820990D01*
X138041632Y-130658475D01*
X138248475Y-130451632D01*
X138365000Y-130277240D01*
X138481525Y-130451632D01*
X138688368Y-130658475D01*
X138931589Y-130820990D01*
X139201842Y-130932932D01*
X139488740Y-130990000D01*
X139781260Y-130990000D01*
X140068158Y-130932932D01*
X140338411Y-130820990D01*
X140581632Y-130658475D01*
X140788475Y-130451632D01*
X140905000Y-130277240D01*
X141021525Y-130451632D01*
X141228368Y-130658475D01*
X141390000Y-130766474D01*
X141390001Y-132128837D01*
X141386203Y-132167400D01*
X141401359Y-132321286D01*
X141446246Y-132469259D01*
X141446247Y-132469260D01*
X141519139Y-132605633D01*
X141548810Y-132641787D01*
X141592655Y-132695212D01*
X141592659Y-132695216D01*
X141617237Y-132725164D01*
X141647185Y-132749742D01*
X143473758Y-134576316D01*
X143498336Y-134606264D01*
X143528284Y-134630842D01*
X143528287Y-134630845D01*
X143557659Y-134654950D01*
X143617867Y-134704362D01*
X143722592Y-134760338D01*
X143754240Y-134777254D01*
X143902212Y-134822141D01*
X143916590Y-134823557D01*
X144017539Y-134833500D01*
X144017546Y-134833500D01*
X144056099Y-134837297D01*
X144094652Y-134833500D01*
X147411926Y-134833500D01*
X147458213Y-134847541D01*
X147573539Y-134858900D01*
X147573547Y-134858900D01*
X147612099Y-134862697D01*
X147650652Y-134858900D01*
X155777747Y-134858900D01*
X155816300Y-134862697D01*
X155854853Y-134858900D01*
X155854861Y-134858900D01*
X155970187Y-134847541D01*
X156118160Y-134802654D01*
X156254533Y-134729762D01*
X156374064Y-134631664D01*
X156398647Y-134601710D01*
X157942816Y-133057542D01*
X157972764Y-133032964D01*
X158070862Y-132913433D01*
X158143754Y-132777060D01*
X158188641Y-132629087D01*
X158188937Y-132626087D01*
X158193893Y-132575760D01*
X158200000Y-132513761D01*
X158200000Y-132513754D01*
X158203797Y-132475201D01*
X158200000Y-132436648D01*
X158200000Y-130766474D01*
X158361632Y-130658475D01*
X158568475Y-130451632D01*
X158685000Y-130277240D01*
X158801525Y-130451632D01*
X159008368Y-130658475D01*
X159251589Y-130820990D01*
X159521842Y-130932932D01*
X159808740Y-130990000D01*
X160101260Y-130990000D01*
X160388158Y-130932932D01*
X160658411Y-130820990D01*
X160901632Y-130658475D01*
X161108475Y-130451632D01*
X161225000Y-130277240D01*
X161341525Y-130451632D01*
X161548368Y-130658475D01*
X161791589Y-130820990D01*
X162061842Y-130932932D01*
X162348740Y-130990000D01*
X162641260Y-130990000D01*
X162928158Y-130932932D01*
X163198411Y-130820990D01*
X163441632Y-130658475D01*
X163648475Y-130451632D01*
X163810990Y-130208411D01*
X163922932Y-129938158D01*
X163980000Y-129651260D01*
X163980000Y-129358740D01*
X163922932Y-129071842D01*
X163810990Y-128801589D01*
X163648475Y-128558368D01*
X163441632Y-128351525D01*
X163267240Y-128235000D01*
X163441632Y-128118475D01*
X163648475Y-127911632D01*
X163810990Y-127668411D01*
X163922932Y-127398158D01*
X163980000Y-127111260D01*
X163980000Y-126818740D01*
X163922932Y-126531842D01*
X163810990Y-126261589D01*
X163648475Y-126018368D01*
X163441632Y-125811525D01*
X163267240Y-125695000D01*
X163441632Y-125578475D01*
X163648475Y-125371632D01*
X163810990Y-125128411D01*
X163922932Y-124858158D01*
X163980000Y-124571260D01*
X163980000Y-124278740D01*
X163922932Y-123991842D01*
X163810990Y-123721589D01*
X163648475Y-123478368D01*
X163441632Y-123271525D01*
X163267240Y-123155000D01*
X163441632Y-123038475D01*
X163648475Y-122831632D01*
X163810990Y-122588411D01*
X163922932Y-122318158D01*
X163980000Y-122031260D01*
X163980000Y-121738740D01*
X163922932Y-121451842D01*
X163810990Y-121181589D01*
X163648475Y-120938368D01*
X163441632Y-120731525D01*
X163267240Y-120615000D01*
X163441632Y-120498475D01*
X163648475Y-120291632D01*
X163810990Y-120048411D01*
X163922932Y-119778158D01*
X163980000Y-119491260D01*
X163980000Y-119198740D01*
X163922932Y-118911842D01*
X163810990Y-118641589D01*
X163648475Y-118398368D01*
X163441632Y-118191525D01*
X163198411Y-118029010D01*
X162928158Y-117917068D01*
X162641260Y-117860000D01*
X162348740Y-117860000D01*
X162061842Y-117917068D01*
X161791589Y-118029010D01*
X161548368Y-118191525D01*
X161341525Y-118398368D01*
X161225000Y-118572760D01*
X161108475Y-118398368D01*
X160901632Y-118191525D01*
X160658411Y-118029010D01*
X160388158Y-117917068D01*
X160101260Y-117860000D01*
X159808740Y-117860000D01*
X159521842Y-117917068D01*
X159251589Y-118029010D01*
X159008368Y-118191525D01*
X158801525Y-118398368D01*
X158685000Y-118572760D01*
X158568475Y-118398368D01*
X158361632Y-118191525D01*
X158200000Y-118083526D01*
X158200000Y-116889756D01*
X158203797Y-116851200D01*
X158200000Y-116812644D01*
X158200000Y-116812639D01*
X158194043Y-116752159D01*
X158188642Y-116697313D01*
X158143754Y-116549340D01*
X158131354Y-116526141D01*
X158203760Y-116598547D01*
X158523960Y-116812498D01*
X158879748Y-116959870D01*
X159257449Y-117035000D01*
X159642551Y-117035000D01*
X160020252Y-116959870D01*
X160376040Y-116812498D01*
X160696240Y-116598547D01*
X160968547Y-116326240D01*
X161182498Y-116006040D01*
X161329870Y-115650252D01*
X161405000Y-115272551D01*
X161405000Y-114887449D01*
X161329870Y-114509748D01*
X161182498Y-114153960D01*
X160968547Y-113833760D01*
X160696240Y-113561453D01*
X160376040Y-113347502D01*
X160020252Y-113200130D01*
X159642551Y-113125000D01*
X159257449Y-113125000D01*
X158879748Y-113200130D01*
X158523960Y-113347502D01*
X158203760Y-113561453D01*
X157931453Y-113833760D01*
X157717502Y-114153960D01*
X157570130Y-114509748D01*
X157495000Y-114887449D01*
X157495000Y-115272551D01*
X157570130Y-115650252D01*
X157717502Y-116006040D01*
X157793025Y-116119068D01*
X155293747Y-113619790D01*
X155269164Y-113589836D01*
X155149633Y-113491738D01*
X155013260Y-113418846D01*
X154865287Y-113373959D01*
X154749961Y-113362600D01*
X154749953Y-113362600D01*
X154711400Y-113358803D01*
X154672847Y-113362600D01*
X146380653Y-113362600D01*
X146342100Y-113358803D01*
X146303547Y-113362600D01*
X142113456Y-113362600D01*
X142074900Y-113358803D01*
X142036344Y-113362600D01*
X142036339Y-113362600D01*
X141995926Y-113366580D01*
X141921013Y-113373958D01*
X141773040Y-113418846D01*
X141636667Y-113491738D01*
X141517136Y-113589836D01*
X141492553Y-113619790D01*
X140416785Y-114695558D01*
X140386837Y-114720136D01*
X140362259Y-114750084D01*
X140362255Y-114750088D01*
X140331849Y-114787138D01*
X140288739Y-114839667D01*
X140286095Y-114844614D01*
X140215846Y-114976041D01*
X140170959Y-115124014D01*
X140155803Y-115277900D01*
X140159601Y-115316463D01*
X140159600Y-117487247D01*
X140155803Y-117525800D01*
X140159600Y-117564353D01*
X140159600Y-117564360D01*
X140170959Y-117679686D01*
X140215846Y-117827659D01*
X140288738Y-117964032D01*
X140346500Y-118034415D01*
X140338411Y-118029010D01*
X140068158Y-117917068D01*
X139781260Y-117860000D01*
X139488740Y-117860000D01*
X139201842Y-117917068D01*
X138931589Y-118029010D01*
X138688368Y-118191525D01*
X138481525Y-118398368D01*
X138365000Y-118572760D01*
X138248475Y-118398368D01*
X138041632Y-118191525D01*
X137798411Y-118029010D01*
X137528158Y-117917068D01*
X137241260Y-117860000D01*
X136948740Y-117860000D01*
X136661842Y-117917068D01*
X136391589Y-118029010D01*
X136148368Y-118191525D01*
X135941525Y-118398368D01*
X135779010Y-118641589D01*
X135667068Y-118911842D01*
X135610000Y-119198740D01*
X100660000Y-119198740D01*
X100660000Y-111670761D01*
X161080500Y-111670761D01*
X161080500Y-111874639D01*
X161120274Y-112074598D01*
X161198295Y-112262956D01*
X161311563Y-112432474D01*
X161402819Y-112523730D01*
X161459638Y-112630032D01*
X161557736Y-112749564D01*
X161587689Y-112774146D01*
X162104657Y-113291115D01*
X162129236Y-113321064D01*
X162159184Y-113345642D01*
X162159187Y-113345645D01*
X162161450Y-113347502D01*
X162248767Y-113419162D01*
X162385140Y-113492054D01*
X162533113Y-113536941D01*
X162648439Y-113548300D01*
X162648446Y-113548300D01*
X162686999Y-113552097D01*
X162725552Y-113548300D01*
X163327043Y-113548300D01*
X164035601Y-114256859D01*
X164035600Y-132440643D01*
X163631843Y-132844400D01*
X163131952Y-132844400D01*
X163093399Y-132840603D01*
X163054846Y-132844400D01*
X163054839Y-132844400D01*
X162953890Y-132854343D01*
X162939512Y-132855759D01*
X162905072Y-132866206D01*
X162791540Y-132900646D01*
X162655167Y-132973538D01*
X162603779Y-133015712D01*
X162565587Y-133047055D01*
X162565584Y-133047058D01*
X162535636Y-133071636D01*
X162511057Y-133101585D01*
X161765485Y-133847158D01*
X161735537Y-133871736D01*
X161710959Y-133901684D01*
X161710955Y-133901688D01*
X161686687Y-133931259D01*
X161637439Y-133991267D01*
X161606848Y-134048499D01*
X161564546Y-134127641D01*
X161519659Y-134275614D01*
X161504503Y-134429500D01*
X161508301Y-134468063D01*
X161508300Y-136201889D01*
X161489363Y-136220826D01*
X161376095Y-136390344D01*
X161298074Y-136578702D01*
X161258300Y-136778661D01*
X161258300Y-136982539D01*
X161298074Y-137182498D01*
X161376095Y-137370856D01*
X161489363Y-137540374D01*
X161633526Y-137684537D01*
X161803044Y-137797805D01*
X161991402Y-137875826D01*
X162191361Y-137915600D01*
X162395239Y-137915600D01*
X162595198Y-137875826D01*
X162783556Y-137797805D01*
X162953074Y-137684537D01*
X163097237Y-137540374D01*
X163210505Y-137370856D01*
X163288526Y-137182498D01*
X163328300Y-136982539D01*
X163328300Y-136778661D01*
X163288526Y-136578702D01*
X163210505Y-136390344D01*
X163097237Y-136220826D01*
X163078300Y-136201889D01*
X163078300Y-134754657D01*
X163418558Y-134414400D01*
X163918447Y-134414400D01*
X163957000Y-134418197D01*
X163995553Y-134414400D01*
X163995561Y-134414400D01*
X164110887Y-134403041D01*
X164258860Y-134358154D01*
X164395233Y-134285262D01*
X164514764Y-134187164D01*
X164539347Y-134157210D01*
X165348411Y-133348146D01*
X165378364Y-133323564D01*
X165476462Y-133204033D01*
X165549354Y-133067660D01*
X165550157Y-133065013D01*
X165594242Y-132919687D01*
X165603738Y-132823262D01*
X165605600Y-132804361D01*
X165605600Y-132804356D01*
X165609397Y-132765800D01*
X165605600Y-132727244D01*
X165605600Y-124289721D01*
X167365000Y-124289721D01*
X167365000Y-124710279D01*
X167447047Y-125122756D01*
X167607988Y-125511302D01*
X167841637Y-125860983D01*
X168139017Y-126158363D01*
X168488698Y-126392012D01*
X168877244Y-126552953D01*
X169289721Y-126635000D01*
X169710279Y-126635000D01*
X170122756Y-126552953D01*
X170511302Y-126392012D01*
X170860983Y-126158363D01*
X171158363Y-125860983D01*
X171392012Y-125511302D01*
X171552953Y-125122756D01*
X171635000Y-124710279D01*
X171635000Y-124289721D01*
X171552953Y-123877244D01*
X171392012Y-123488698D01*
X171158363Y-123139017D01*
X170860983Y-122841637D01*
X170511302Y-122607988D01*
X170122756Y-122447047D01*
X169710279Y-122365000D01*
X169289721Y-122365000D01*
X168877244Y-122447047D01*
X168488698Y-122607988D01*
X168139017Y-122841637D01*
X167841637Y-123139017D01*
X167607988Y-123488698D01*
X167447047Y-123877244D01*
X167365000Y-124289721D01*
X165605600Y-124289721D01*
X165605600Y-113970252D01*
X165609397Y-113931699D01*
X165605600Y-113893146D01*
X165605600Y-113893139D01*
X165594241Y-113777813D01*
X165573479Y-113709368D01*
X165549354Y-113629840D01*
X165476462Y-113493467D01*
X165378364Y-113373936D01*
X165348415Y-113349358D01*
X164234547Y-112235490D01*
X164209964Y-112205536D01*
X164090433Y-112107438D01*
X163954060Y-112034546D01*
X163806087Y-111989659D01*
X163690761Y-111978300D01*
X163690753Y-111978300D01*
X163652200Y-111974503D01*
X163613647Y-111978300D01*
X163129881Y-111978300D01*
X163150500Y-111874639D01*
X163150500Y-111670761D01*
X163110726Y-111470802D01*
X163032705Y-111282444D01*
X162919437Y-111112926D01*
X162775274Y-110968763D01*
X162605756Y-110855495D01*
X162417398Y-110777474D01*
X162217439Y-110737700D01*
X162013561Y-110737700D01*
X161813602Y-110777474D01*
X161625244Y-110855495D01*
X161455726Y-110968763D01*
X161311563Y-111112926D01*
X161198295Y-111282444D01*
X161120274Y-111470802D01*
X161080500Y-111670761D01*
X100660000Y-111670761D01*
X100660000Y-108923967D01*
X108585000Y-108923967D01*
X108585000Y-109246033D01*
X108647832Y-109561912D01*
X108771082Y-109859463D01*
X108950013Y-110127252D01*
X109177748Y-110354987D01*
X109445537Y-110533918D01*
X109743088Y-110657168D01*
X110058967Y-110720000D01*
X110381033Y-110720000D01*
X110696912Y-110657168D01*
X110994463Y-110533918D01*
X111262252Y-110354987D01*
X111489987Y-110127252D01*
X111668918Y-109859463D01*
X111792168Y-109561912D01*
X111855000Y-109246033D01*
X111855000Y-108923967D01*
X160575000Y-108923967D01*
X160575000Y-109246033D01*
X160637832Y-109561912D01*
X160761082Y-109859463D01*
X160940013Y-110127252D01*
X161167748Y-110354987D01*
X161435537Y-110533918D01*
X161733088Y-110657168D01*
X162048967Y-110720000D01*
X162371033Y-110720000D01*
X162686912Y-110657168D01*
X162984463Y-110533918D01*
X163252252Y-110354987D01*
X163479987Y-110127252D01*
X163658918Y-109859463D01*
X163782168Y-109561912D01*
X163845000Y-109246033D01*
X163845000Y-108923967D01*
X163782168Y-108608088D01*
X163658918Y-108310537D01*
X163479987Y-108042748D01*
X163252252Y-107815013D01*
X162984463Y-107636082D01*
X162686912Y-107512832D01*
X162371033Y-107450000D01*
X162048967Y-107450000D01*
X161733088Y-107512832D01*
X161435537Y-107636082D01*
X161167748Y-107815013D01*
X160940013Y-108042748D01*
X160761082Y-108310537D01*
X160637832Y-108608088D01*
X160575000Y-108923967D01*
X111855000Y-108923967D01*
X111792168Y-108608088D01*
X111668918Y-108310537D01*
X111489987Y-108042748D01*
X111262252Y-107815013D01*
X110994463Y-107636082D01*
X110696912Y-107512832D01*
X110381033Y-107450000D01*
X110058967Y-107450000D01*
X109743088Y-107512832D01*
X109445537Y-107636082D01*
X109177748Y-107815013D01*
X108950013Y-108042748D01*
X108771082Y-108310537D01*
X108647832Y-108608088D01*
X108585000Y-108923967D01*
X100660000Y-108923967D01*
X100660000Y-107110097D01*
X101068607Y-107077939D01*
X101170898Y-107061738D01*
X101385569Y-107010200D01*
X107442000Y-107010200D01*
X107466776Y-107007760D01*
X107490601Y-107000533D01*
X107512557Y-106988797D01*
X107531803Y-106973003D01*
X107547597Y-106953757D01*
X107559333Y-106931801D01*
X107566560Y-106907976D01*
X107568999Y-106882708D01*
X107553553Y-102897449D01*
X111015000Y-102897449D01*
X111015000Y-103282551D01*
X111090130Y-103660252D01*
X111237502Y-104016040D01*
X111451453Y-104336240D01*
X111723760Y-104608547D01*
X112043960Y-104822498D01*
X112399748Y-104969870D01*
X112777449Y-105045000D01*
X113162551Y-105045000D01*
X113540252Y-104969870D01*
X113896040Y-104822498D01*
X114216240Y-104608547D01*
X114488547Y-104336240D01*
X114519630Y-104289721D01*
X160365000Y-104289721D01*
X160365000Y-104710279D01*
X160447047Y-105122756D01*
X160607988Y-105511302D01*
X160841637Y-105860983D01*
X161139017Y-106158363D01*
X161488698Y-106392012D01*
X161877244Y-106552953D01*
X162289721Y-106635000D01*
X162710279Y-106635000D01*
X163122756Y-106552953D01*
X163511302Y-106392012D01*
X163860983Y-106158363D01*
X164158363Y-105860983D01*
X164392012Y-105511302D01*
X164552953Y-105122756D01*
X164635000Y-104710279D01*
X164635000Y-104289721D01*
X164552953Y-103877244D01*
X164392012Y-103488698D01*
X164158363Y-103139017D01*
X163860983Y-102841637D01*
X163511302Y-102607988D01*
X163122756Y-102447047D01*
X162710279Y-102365000D01*
X162289721Y-102365000D01*
X161877244Y-102447047D01*
X161488698Y-102607988D01*
X161139017Y-102841637D01*
X160841637Y-103139017D01*
X160607988Y-103488698D01*
X160447047Y-103877244D01*
X160365000Y-104289721D01*
X114519630Y-104289721D01*
X114702498Y-104016040D01*
X114849870Y-103660252D01*
X114925000Y-103282551D01*
X114925000Y-102897449D01*
X114849870Y-102519748D01*
X114702498Y-102163960D01*
X114488547Y-101843760D01*
X114216240Y-101571453D01*
X113896040Y-101357502D01*
X113540252Y-101210130D01*
X113162551Y-101135000D01*
X112777449Y-101135000D01*
X112399748Y-101210130D01*
X112043960Y-101357502D01*
X111723760Y-101571453D01*
X111451453Y-101843760D01*
X111237502Y-102163960D01*
X111090130Y-102519748D01*
X111015000Y-102897449D01*
X107553553Y-102897449D01*
X107544880Y-100660000D01*
X167889903Y-100660000D01*
X167922061Y-101068607D01*
M02*
