G04 #@! TF.GenerationSoftware,KiCad,Pcbnew,5.1.5+dfsg1-2build2*
G04 #@! TF.CreationDate,2021-12-11T20:18:00-05:00*
G04 #@! TF.ProjectId,RAK11300_LORA_ADAPTABLE_NODE,52414b31-3133-4303-905f-4c4f52415f41,rev?*
G04 #@! TF.SameCoordinates,Original*
G04 #@! TF.FileFunction,Legend,Top*
G04 #@! TF.FilePolarity,Positive*
%FSLAX46Y46*%
G04 Gerber Fmt 4.6, Leading zero omitted, Abs format (unit mm)*
G04 Created by KiCad (PCBNEW 5.1.5+dfsg1-2build2) date 2021-12-11 20:18:00*
%MOMM*%
%LPD*%
G04 APERTURE LIST*
%ADD10C,0.250000*%
%ADD11C,0.150000*%
%ADD12C,0.120000*%
%ADD13C,1.802000*%
%ADD14R,2.102000X2.102000*%
%ADD15C,2.102000*%
%ADD16C,2.742000*%
%ADD17O,1.802000X1.802000*%
%ADD18C,2.502000*%
%ADD19R,2.502000X2.502000*%
%ADD20C,3.102000*%
G04 APERTURE END LIST*
D10*
X150774400Y-120637300D02*
X150317200Y-120180100D01*
X156870400Y-120205500D02*
X156413200Y-120662700D01*
X156438600Y-120637300D02*
X150736300Y-120637300D01*
X149301200Y-120180100D02*
X148844000Y-120637300D01*
X148856700Y-120637300D02*
X143154400Y-120637300D01*
X143129000Y-120637300D02*
X142671800Y-120180100D01*
X156895800Y-128689100D02*
X156438600Y-128231900D01*
X149288500Y-128689100D02*
X148831300Y-128231900D01*
X150736300Y-128231900D02*
X150279100Y-128689100D01*
X143154400Y-128231900D02*
X142697200Y-128689100D01*
X156451300Y-128231900D02*
X150749000Y-128231900D01*
X148844000Y-128231900D02*
X143141700Y-128231900D01*
X157416500Y-125450600D02*
X157416500Y-125933200D01*
X157416500Y-122910600D02*
X157416500Y-123393200D01*
X149796500Y-125463300D02*
X149796500Y-125945900D01*
X149796500Y-122923300D02*
X149796500Y-123405900D01*
X142176500Y-125450600D02*
X142176500Y-125933200D01*
X142176500Y-122910600D02*
X142176500Y-123393200D01*
D11*
X174075000Y-140526666D02*
X174041666Y-140593333D01*
X174041666Y-140693333D01*
X174075000Y-140793333D01*
X174141666Y-140860000D01*
X174208333Y-140893333D01*
X174341666Y-140926666D01*
X174441666Y-140926666D01*
X174575000Y-140893333D01*
X174641666Y-140860000D01*
X174708333Y-140793333D01*
X174741666Y-140693333D01*
X174741666Y-140626666D01*
X174708333Y-140526666D01*
X174675000Y-140493333D01*
X174441666Y-140493333D01*
X174441666Y-140626666D01*
X174741666Y-140193333D02*
X174041666Y-140193333D01*
X174741666Y-139793333D01*
X174041666Y-139793333D01*
X174741666Y-139460000D02*
X174041666Y-139460000D01*
X174041666Y-139293333D01*
X174075000Y-139193333D01*
X174141666Y-139126666D01*
X174208333Y-139093333D01*
X174341666Y-139060000D01*
X174441666Y-139060000D01*
X174575000Y-139093333D01*
X174641666Y-139126666D01*
X174708333Y-139193333D01*
X174741666Y-139293333D01*
X174741666Y-139460000D01*
X174041666Y-137260000D02*
X174741666Y-137026666D01*
X174041666Y-136793333D01*
X174041666Y-133960000D02*
X174741666Y-133793333D01*
X174241666Y-133660000D01*
X174741666Y-133526666D01*
X174041666Y-133360000D01*
X174041666Y-115293333D02*
X174741666Y-114826666D01*
X174041666Y-114826666D02*
X174741666Y-115293333D01*
X174408333Y-111760000D02*
X174741666Y-111760000D01*
X174041666Y-111993333D02*
X174408333Y-111760000D01*
X174041666Y-111526666D01*
X174041666Y-108693333D02*
X174041666Y-108226666D01*
X174741666Y-108693333D01*
X174741666Y-108226666D01*
X115348452Y-120239780D02*
X115015119Y-119763590D01*
X114777023Y-120239780D02*
X114777023Y-119239780D01*
X115157976Y-119239780D01*
X115253214Y-119287400D01*
X115300833Y-119335019D01*
X115348452Y-119430257D01*
X115348452Y-119573114D01*
X115300833Y-119668352D01*
X115253214Y-119715971D01*
X115157976Y-119763590D01*
X114777023Y-119763590D01*
X115729404Y-119954066D02*
X116205595Y-119954066D01*
X115634166Y-120239780D02*
X115967500Y-119239780D01*
X116300833Y-120239780D01*
X116634166Y-120239780D02*
X116634166Y-119239780D01*
X117205595Y-120239780D02*
X116777023Y-119668352D01*
X117205595Y-119239780D02*
X116634166Y-119811209D01*
X118157976Y-120239780D02*
X117586547Y-120239780D01*
X117872261Y-120239780D02*
X117872261Y-119239780D01*
X117777023Y-119382638D01*
X117681785Y-119477876D01*
X117586547Y-119525495D01*
X119110357Y-120239780D02*
X118538928Y-120239780D01*
X118824642Y-120239780D02*
X118824642Y-119239780D01*
X118729404Y-119382638D01*
X118634166Y-119477876D01*
X118538928Y-119525495D01*
X119443690Y-119239780D02*
X120062738Y-119239780D01*
X119729404Y-119620733D01*
X119872261Y-119620733D01*
X119967500Y-119668352D01*
X120015119Y-119715971D01*
X120062738Y-119811209D01*
X120062738Y-120049304D01*
X120015119Y-120144542D01*
X119967500Y-120192161D01*
X119872261Y-120239780D01*
X119586547Y-120239780D01*
X119491309Y-120192161D01*
X119443690Y-120144542D01*
X120681785Y-119239780D02*
X120777023Y-119239780D01*
X120872261Y-119287400D01*
X120919880Y-119335019D01*
X120967500Y-119430257D01*
X121015119Y-119620733D01*
X121015119Y-119858828D01*
X120967500Y-120049304D01*
X120919880Y-120144542D01*
X120872261Y-120192161D01*
X120777023Y-120239780D01*
X120681785Y-120239780D01*
X120586547Y-120192161D01*
X120538928Y-120144542D01*
X120491309Y-120049304D01*
X120443690Y-119858828D01*
X120443690Y-119620733D01*
X120491309Y-119430257D01*
X120538928Y-119335019D01*
X120586547Y-119287400D01*
X120681785Y-119239780D01*
X121634166Y-119239780D02*
X121729404Y-119239780D01*
X121824642Y-119287400D01*
X121872261Y-119335019D01*
X121919880Y-119430257D01*
X121967500Y-119620733D01*
X121967500Y-119858828D01*
X121919880Y-120049304D01*
X121872261Y-120144542D01*
X121824642Y-120192161D01*
X121729404Y-120239780D01*
X121634166Y-120239780D01*
X121538928Y-120192161D01*
X121491309Y-120144542D01*
X121443690Y-120049304D01*
X121396071Y-119858828D01*
X121396071Y-119620733D01*
X121443690Y-119430257D01*
X121491309Y-119335019D01*
X121538928Y-119287400D01*
X121634166Y-119239780D01*
X123634166Y-120239780D02*
X123157976Y-120239780D01*
X123157976Y-119239780D01*
X124157976Y-119239780D02*
X124348452Y-119239780D01*
X124443690Y-119287400D01*
X124538928Y-119382638D01*
X124586547Y-119573114D01*
X124586547Y-119906447D01*
X124538928Y-120096923D01*
X124443690Y-120192161D01*
X124348452Y-120239780D01*
X124157976Y-120239780D01*
X124062738Y-120192161D01*
X123967500Y-120096923D01*
X123919880Y-119906447D01*
X123919880Y-119573114D01*
X123967500Y-119382638D01*
X124062738Y-119287400D01*
X124157976Y-119239780D01*
X125586547Y-120239780D02*
X125253214Y-119763590D01*
X125015119Y-120239780D02*
X125015119Y-119239780D01*
X125396071Y-119239780D01*
X125491309Y-119287400D01*
X125538928Y-119335019D01*
X125586547Y-119430257D01*
X125586547Y-119573114D01*
X125538928Y-119668352D01*
X125491309Y-119715971D01*
X125396071Y-119763590D01*
X125015119Y-119763590D01*
X125967500Y-119954066D02*
X126443690Y-119954066D01*
X125872261Y-120239780D02*
X126205595Y-119239780D01*
X126538928Y-120239780D01*
X114753214Y-121604066D02*
X115229404Y-121604066D01*
X114657976Y-121889780D02*
X114991309Y-120889780D01*
X115324642Y-121889780D01*
X115657976Y-121889780D02*
X115657976Y-120889780D01*
X115896071Y-120889780D01*
X116038928Y-120937400D01*
X116134166Y-121032638D01*
X116181785Y-121127876D01*
X116229404Y-121318352D01*
X116229404Y-121461209D01*
X116181785Y-121651685D01*
X116134166Y-121746923D01*
X116038928Y-121842161D01*
X115896071Y-121889780D01*
X115657976Y-121889780D01*
X116610357Y-121604066D02*
X117086547Y-121604066D01*
X116515119Y-121889780D02*
X116848452Y-120889780D01*
X117181785Y-121889780D01*
X117515119Y-121889780D02*
X117515119Y-120889780D01*
X117896071Y-120889780D01*
X117991309Y-120937400D01*
X118038928Y-120985019D01*
X118086547Y-121080257D01*
X118086547Y-121223114D01*
X118038928Y-121318352D01*
X117991309Y-121365971D01*
X117896071Y-121413590D01*
X117515119Y-121413590D01*
X118372261Y-120889780D02*
X118943690Y-120889780D01*
X118657976Y-121889780D02*
X118657976Y-120889780D01*
X119229404Y-121604066D02*
X119705595Y-121604066D01*
X119134166Y-121889780D02*
X119467500Y-120889780D01*
X119800833Y-121889780D01*
X120467500Y-121365971D02*
X120610357Y-121413590D01*
X120657976Y-121461209D01*
X120705595Y-121556447D01*
X120705595Y-121699304D01*
X120657976Y-121794542D01*
X120610357Y-121842161D01*
X120515119Y-121889780D01*
X120134166Y-121889780D01*
X120134166Y-120889780D01*
X120467500Y-120889780D01*
X120562738Y-120937400D01*
X120610357Y-120985019D01*
X120657976Y-121080257D01*
X120657976Y-121175495D01*
X120610357Y-121270733D01*
X120562738Y-121318352D01*
X120467500Y-121365971D01*
X120134166Y-121365971D01*
X121610357Y-121889780D02*
X121134166Y-121889780D01*
X121134166Y-120889780D01*
X121943690Y-121365971D02*
X122277023Y-121365971D01*
X122419880Y-121889780D02*
X121943690Y-121889780D01*
X121943690Y-120889780D01*
X122419880Y-120889780D01*
X123610357Y-121889780D02*
X123610357Y-120889780D01*
X124181785Y-121889780D01*
X124181785Y-120889780D01*
X124848452Y-120889780D02*
X125038928Y-120889780D01*
X125134166Y-120937400D01*
X125229404Y-121032638D01*
X125277023Y-121223114D01*
X125277023Y-121556447D01*
X125229404Y-121746923D01*
X125134166Y-121842161D01*
X125038928Y-121889780D01*
X124848452Y-121889780D01*
X124753214Y-121842161D01*
X124657976Y-121746923D01*
X124610357Y-121556447D01*
X124610357Y-121223114D01*
X124657976Y-121032638D01*
X124753214Y-120937400D01*
X124848452Y-120889780D01*
X125705595Y-121889780D02*
X125705595Y-120889780D01*
X125943690Y-120889780D01*
X126086547Y-120937400D01*
X126181785Y-121032638D01*
X126229404Y-121127876D01*
X126277023Y-121318352D01*
X126277023Y-121461209D01*
X126229404Y-121651685D01*
X126181785Y-121746923D01*
X126086547Y-121842161D01*
X125943690Y-121889780D01*
X125705595Y-121889780D01*
X126705595Y-121365971D02*
X127038928Y-121365971D01*
X127181785Y-121889780D02*
X126705595Y-121889780D01*
X126705595Y-120889780D01*
X127181785Y-120889780D01*
X119777023Y-122539780D02*
X120110357Y-123539780D01*
X120443690Y-122539780D01*
X121729404Y-122539780D02*
X121824642Y-122539780D01*
X121919880Y-122587400D01*
X121967500Y-122635019D01*
X122015119Y-122730257D01*
X122062738Y-122920733D01*
X122062738Y-123158828D01*
X122015119Y-123349304D01*
X121967500Y-123444542D01*
X121919880Y-123492161D01*
X121824642Y-123539780D01*
X121729404Y-123539780D01*
X121634166Y-123492161D01*
X121586547Y-123444542D01*
X121538928Y-123349304D01*
X121491309Y-123158828D01*
X121491309Y-122920733D01*
X121538928Y-122730257D01*
X121586547Y-122635019D01*
X121634166Y-122587400D01*
X121729404Y-122539780D01*
D12*
X113910000Y-141860000D02*
X113910000Y-137860000D01*
X112910000Y-136860000D02*
X112910000Y-142860000D01*
X111910000Y-143860000D02*
X111910000Y-135860000D01*
X114910000Y-140860000D02*
X114910000Y-138860000D01*
X107600000Y-148365000D02*
X107600000Y-131235000D01*
X107600000Y-131235000D02*
X164840000Y-131235000D01*
X164840000Y-131235000D02*
X164840000Y-148365000D01*
X164840000Y-148365000D02*
X107600000Y-148365000D01*
X164120000Y-147400000D02*
X164120000Y-132200000D01*
X164120000Y-132200000D02*
X146120000Y-132200000D01*
X108320000Y-147400000D02*
X108320000Y-132200000D01*
X164120000Y-147400000D02*
X146120000Y-147400000D01*
X126320000Y-147400000D02*
X108320000Y-147400000D01*
X126320000Y-132200000D02*
X108320000Y-132200000D01*
X146120000Y-132200000D02*
G75*
G02X144120000Y-134200000I-2000000J0D01*
G01*
X128320000Y-134200000D02*
G75*
G02X126320000Y-132200000I0J2000000D01*
G01*
X126320000Y-147400000D02*
G75*
G02X128320000Y-145400000I2000000J0D01*
G01*
X144120000Y-145400000D02*
G75*
G02X146120000Y-147400000I0J-2000000D01*
G01*
X144120000Y-145400000D02*
X128320000Y-145400000D01*
X128320000Y-134200000D02*
X144120000Y-134200000D01*
X158625000Y-118015000D02*
X159955000Y-118015000D01*
X158625000Y-119345000D02*
X158625000Y-118015000D01*
X158625000Y-120615000D02*
X161285000Y-120615000D01*
X161285000Y-120615000D02*
X161285000Y-130835000D01*
X158625000Y-120615000D02*
X158625000Y-130835000D01*
X158625000Y-130835000D02*
X161285000Y-130835000D01*
X153545000Y-118015000D02*
X154875000Y-118015000D01*
X153545000Y-119345000D02*
X153545000Y-118015000D01*
X153545000Y-120615000D02*
X156205000Y-120615000D01*
X156205000Y-120615000D02*
X156205000Y-130835000D01*
X153545000Y-120615000D02*
X153545000Y-130835000D01*
X153545000Y-130835000D02*
X156205000Y-130835000D01*
X151005000Y-118015000D02*
X152335000Y-118015000D01*
X151005000Y-119345000D02*
X151005000Y-118015000D01*
X151005000Y-120615000D02*
X153665000Y-120615000D01*
X153665000Y-120615000D02*
X153665000Y-130835000D01*
X151005000Y-120615000D02*
X151005000Y-130835000D01*
X151005000Y-130835000D02*
X153665000Y-130835000D01*
X145925000Y-118015000D02*
X147255000Y-118015000D01*
X145925000Y-119345000D02*
X145925000Y-118015000D01*
X145925000Y-120615000D02*
X148585000Y-120615000D01*
X148585000Y-120615000D02*
X148585000Y-130835000D01*
X145925000Y-120615000D02*
X145925000Y-130835000D01*
X145925000Y-130835000D02*
X148585000Y-130835000D01*
X143385000Y-118015000D02*
X144715000Y-118015000D01*
X143385000Y-119345000D02*
X143385000Y-118015000D01*
X143385000Y-120615000D02*
X146045000Y-120615000D01*
X146045000Y-120615000D02*
X146045000Y-130835000D01*
X143385000Y-120615000D02*
X143385000Y-130835000D01*
X143385000Y-130835000D02*
X146045000Y-130835000D01*
X138305000Y-118015000D02*
X139635000Y-118015000D01*
X138305000Y-119345000D02*
X138305000Y-118015000D01*
X138305000Y-120615000D02*
X140965000Y-120615000D01*
X140965000Y-120615000D02*
X140965000Y-130835000D01*
X138305000Y-120615000D02*
X138305000Y-130835000D01*
X138305000Y-130835000D02*
X140965000Y-130835000D01*
X135765000Y-118015000D02*
X137095000Y-118015000D01*
X135765000Y-119345000D02*
X135765000Y-118015000D01*
X135765000Y-120615000D02*
X138425000Y-120615000D01*
X138425000Y-120615000D02*
X138425000Y-130835000D01*
X135765000Y-120615000D02*
X135765000Y-130835000D01*
X135765000Y-130835000D02*
X138425000Y-130835000D01*
X161165000Y-118015000D02*
X162495000Y-118015000D01*
X161165000Y-119345000D02*
X161165000Y-118015000D01*
X161165000Y-120615000D02*
X163825000Y-120615000D01*
X163825000Y-120615000D02*
X163825000Y-130835000D01*
X161165000Y-120615000D02*
X161165000Y-130835000D01*
X161165000Y-130835000D02*
X163825000Y-130835000D01*
X173810000Y-117800000D02*
X173810000Y-116300000D01*
X172070000Y-117800000D02*
X173810000Y-117800000D01*
X166450000Y-106240000D02*
X173570000Y-106240000D01*
X166450000Y-117560000D02*
X173570000Y-117560000D01*
X173570000Y-117560000D02*
X173570000Y-106240000D01*
X166450000Y-117560000D02*
X166450000Y-106240000D01*
X172010000Y-117560000D02*
X172010000Y-106240000D01*
X171465000Y-108400000D02*
G75*
G03X171465000Y-108400000I-1555000J0D01*
G01*
X171465000Y-111900000D02*
G75*
G03X171465000Y-111900000I-1555000J0D01*
G01*
X171465492Y-115372989D02*
G75*
G02X171342000Y-116008000I-1555492J-27011D01*
G01*
X170517742Y-116832109D02*
G75*
G02X169302000Y-116832000I-607742J1432109D01*
G01*
X168477891Y-116007742D02*
G75*
G02X168478000Y-114792000I1432109J607742D01*
G01*
X169302258Y-113967891D02*
G75*
G02X170518000Y-113968000I607742J-1432109D01*
G01*
X171341385Y-114792413D02*
G75*
G02X171465000Y-115400000I-1431385J-607587D01*
G01*
X158530000Y-107025000D02*
X158530000Y-111025000D01*
X159530000Y-112025000D02*
X159530000Y-106025000D01*
X160530000Y-105025000D02*
X160530000Y-113025000D01*
X157530000Y-108025000D02*
X157530000Y-110025000D01*
X164840000Y-100520000D02*
X164840000Y-117650000D01*
X164840000Y-117650000D02*
X107600000Y-117650000D01*
X107600000Y-117650000D02*
X107600000Y-100520000D01*
X107600000Y-100520000D02*
X164840000Y-100520000D01*
X108320000Y-101485000D02*
X108320000Y-116685000D01*
X108320000Y-116685000D02*
X126320000Y-116685000D01*
X164120000Y-101485000D02*
X164120000Y-116685000D01*
X108320000Y-101485000D02*
X126320000Y-101485000D01*
X146120000Y-101485000D02*
X164120000Y-101485000D01*
X146120000Y-116685000D02*
X164120000Y-116685000D01*
X126320000Y-116685000D02*
G75*
G02X128320000Y-114685000I2000000J0D01*
G01*
X144120000Y-114685000D02*
G75*
G02X146120000Y-116685000I0J-2000000D01*
G01*
X146120000Y-101485000D02*
G75*
G02X144120000Y-103485000I-2000000J0D01*
G01*
X128320000Y-103485000D02*
G75*
G02X126320000Y-101485000I0J2000000D01*
G01*
X128320000Y-103485000D02*
X144120000Y-103485000D01*
X144120000Y-114685000D02*
X128320000Y-114685000D01*
X173810000Y-142735000D02*
X173810000Y-141235000D01*
X172070000Y-142735000D02*
X173810000Y-142735000D01*
X166450000Y-131175000D02*
X173570000Y-131175000D01*
X166450000Y-142495000D02*
X173570000Y-142495000D01*
X173570000Y-142495000D02*
X173570000Y-131175000D01*
X166450000Y-142495000D02*
X166450000Y-131175000D01*
X172010000Y-142495000D02*
X172010000Y-131175000D01*
X171465000Y-133335000D02*
G75*
G03X171465000Y-133335000I-1555000J0D01*
G01*
X171465000Y-136835000D02*
G75*
G03X171465000Y-136835000I-1555000J0D01*
G01*
X171465492Y-140307989D02*
G75*
G02X171342000Y-140943000I-1555492J-27011D01*
G01*
X170517742Y-141767109D02*
G75*
G02X169302000Y-141767000I-607742J1432109D01*
G01*
X168477891Y-140942742D02*
G75*
G02X168478000Y-139727000I1432109J607742D01*
G01*
X169302258Y-138902891D02*
G75*
G02X170518000Y-138903000I607742J-1432109D01*
G01*
X171341385Y-139727413D02*
G75*
G02X171465000Y-140335000I-1431385J-607587D01*
G01*
D11*
X103786085Y-141787571D02*
X103928942Y-141835190D01*
X103976561Y-141882809D01*
X104024180Y-141978047D01*
X104024180Y-142120904D01*
X103976561Y-142216142D01*
X103928942Y-142263761D01*
X103833704Y-142311380D01*
X103452752Y-142311380D01*
X103452752Y-141311380D01*
X103786085Y-141311380D01*
X103881323Y-141359000D01*
X103928942Y-141406619D01*
X103976561Y-141501857D01*
X103976561Y-141597095D01*
X103928942Y-141692333D01*
X103881323Y-141739952D01*
X103786085Y-141787571D01*
X103452752Y-141787571D01*
X104309895Y-141311380D02*
X104881323Y-141311380D01*
X104595609Y-142311380D02*
X104595609Y-141311380D01*
X105167038Y-141406619D02*
X105214657Y-141359000D01*
X105309895Y-141311380D01*
X105547990Y-141311380D01*
X105643228Y-141359000D01*
X105690847Y-141406619D01*
X105738466Y-141501857D01*
X105738466Y-141597095D01*
X105690847Y-141739952D01*
X105119419Y-142311380D01*
X105738466Y-142311380D01*
X165239047Y-139931428D02*
X166000952Y-139931428D01*
X165620000Y-140312380D02*
X165620000Y-139550476D01*
X106469047Y-139931428D02*
X107230952Y-139931428D01*
X159621666Y-116467380D02*
X159621666Y-117181666D01*
X159574047Y-117324523D01*
X159478809Y-117419761D01*
X159335952Y-117467380D01*
X159240714Y-117467380D01*
X160145476Y-117467380D02*
X160335952Y-117467380D01*
X160431190Y-117419761D01*
X160478809Y-117372142D01*
X160574047Y-117229285D01*
X160621666Y-117038809D01*
X160621666Y-116657857D01*
X160574047Y-116562619D01*
X160526428Y-116515000D01*
X160431190Y-116467380D01*
X160240714Y-116467380D01*
X160145476Y-116515000D01*
X160097857Y-116562619D01*
X160050238Y-116657857D01*
X160050238Y-116895952D01*
X160097857Y-116991190D01*
X160145476Y-117038809D01*
X160240714Y-117086428D01*
X160431190Y-117086428D01*
X160526428Y-117038809D01*
X160574047Y-116991190D01*
X160621666Y-116895952D01*
X154541666Y-116467380D02*
X154541666Y-117181666D01*
X154494047Y-117324523D01*
X154398809Y-117419761D01*
X154255952Y-117467380D01*
X154160714Y-117467380D01*
X155160714Y-116895952D02*
X155065476Y-116848333D01*
X155017857Y-116800714D01*
X154970238Y-116705476D01*
X154970238Y-116657857D01*
X155017857Y-116562619D01*
X155065476Y-116515000D01*
X155160714Y-116467380D01*
X155351190Y-116467380D01*
X155446428Y-116515000D01*
X155494047Y-116562619D01*
X155541666Y-116657857D01*
X155541666Y-116705476D01*
X155494047Y-116800714D01*
X155446428Y-116848333D01*
X155351190Y-116895952D01*
X155160714Y-116895952D01*
X155065476Y-116943571D01*
X155017857Y-116991190D01*
X154970238Y-117086428D01*
X154970238Y-117276904D01*
X155017857Y-117372142D01*
X155065476Y-117419761D01*
X155160714Y-117467380D01*
X155351190Y-117467380D01*
X155446428Y-117419761D01*
X155494047Y-117372142D01*
X155541666Y-117276904D01*
X155541666Y-117086428D01*
X155494047Y-116991190D01*
X155446428Y-116943571D01*
X155351190Y-116895952D01*
X152001666Y-116467380D02*
X152001666Y-117181666D01*
X151954047Y-117324523D01*
X151858809Y-117419761D01*
X151715952Y-117467380D01*
X151620714Y-117467380D01*
X152382619Y-116467380D02*
X153049285Y-116467380D01*
X152620714Y-117467380D01*
X146921666Y-116467380D02*
X146921666Y-117181666D01*
X146874047Y-117324523D01*
X146778809Y-117419761D01*
X146635952Y-117467380D01*
X146540714Y-117467380D01*
X147826428Y-116467380D02*
X147635952Y-116467380D01*
X147540714Y-116515000D01*
X147493095Y-116562619D01*
X147397857Y-116705476D01*
X147350238Y-116895952D01*
X147350238Y-117276904D01*
X147397857Y-117372142D01*
X147445476Y-117419761D01*
X147540714Y-117467380D01*
X147731190Y-117467380D01*
X147826428Y-117419761D01*
X147874047Y-117372142D01*
X147921666Y-117276904D01*
X147921666Y-117038809D01*
X147874047Y-116943571D01*
X147826428Y-116895952D01*
X147731190Y-116848333D01*
X147540714Y-116848333D01*
X147445476Y-116895952D01*
X147397857Y-116943571D01*
X147350238Y-117038809D01*
X144381666Y-116467380D02*
X144381666Y-117181666D01*
X144334047Y-117324523D01*
X144238809Y-117419761D01*
X144095952Y-117467380D01*
X144000714Y-117467380D01*
X145334047Y-116467380D02*
X144857857Y-116467380D01*
X144810238Y-116943571D01*
X144857857Y-116895952D01*
X144953095Y-116848333D01*
X145191190Y-116848333D01*
X145286428Y-116895952D01*
X145334047Y-116943571D01*
X145381666Y-117038809D01*
X145381666Y-117276904D01*
X145334047Y-117372142D01*
X145286428Y-117419761D01*
X145191190Y-117467380D01*
X144953095Y-117467380D01*
X144857857Y-117419761D01*
X144810238Y-117372142D01*
X139301666Y-116467380D02*
X139301666Y-117181666D01*
X139254047Y-117324523D01*
X139158809Y-117419761D01*
X139015952Y-117467380D01*
X138920714Y-117467380D01*
X140206428Y-116800714D02*
X140206428Y-117467380D01*
X139968333Y-116419761D02*
X139730238Y-117134047D01*
X140349285Y-117134047D01*
X136761666Y-116467380D02*
X136761666Y-117181666D01*
X136714047Y-117324523D01*
X136618809Y-117419761D01*
X136475952Y-117467380D01*
X136380714Y-117467380D01*
X137142619Y-116467380D02*
X137761666Y-116467380D01*
X137428333Y-116848333D01*
X137571190Y-116848333D01*
X137666428Y-116895952D01*
X137714047Y-116943571D01*
X137761666Y-117038809D01*
X137761666Y-117276904D01*
X137714047Y-117372142D01*
X137666428Y-117419761D01*
X137571190Y-117467380D01*
X137285476Y-117467380D01*
X137190238Y-117419761D01*
X137142619Y-117372142D01*
X161685476Y-116467380D02*
X161685476Y-117181666D01*
X161637857Y-117324523D01*
X161542619Y-117419761D01*
X161399761Y-117467380D01*
X161304523Y-117467380D01*
X162685476Y-117467380D02*
X162114047Y-117467380D01*
X162399761Y-117467380D02*
X162399761Y-116467380D01*
X162304523Y-116610238D01*
X162209285Y-116705476D01*
X162114047Y-116753095D01*
X163304523Y-116467380D02*
X163399761Y-116467380D01*
X163495000Y-116515000D01*
X163542619Y-116562619D01*
X163590238Y-116657857D01*
X163637857Y-116848333D01*
X163637857Y-117086428D01*
X163590238Y-117276904D01*
X163542619Y-117372142D01*
X163495000Y-117419761D01*
X163399761Y-117467380D01*
X163304523Y-117467380D01*
X163209285Y-117419761D01*
X163161666Y-117372142D01*
X163114047Y-117276904D01*
X163066428Y-117086428D01*
X163066428Y-116848333D01*
X163114047Y-116657857D01*
X163161666Y-116562619D01*
X163209285Y-116515000D01*
X163304523Y-116467380D01*
X168727380Y-104938333D02*
X169441666Y-104938333D01*
X169584523Y-104985952D01*
X169679761Y-105081190D01*
X169727380Y-105224047D01*
X169727380Y-105319285D01*
X169727380Y-103938333D02*
X169727380Y-104509761D01*
X169727380Y-104224047D02*
X168727380Y-104224047D01*
X168870238Y-104319285D01*
X168965476Y-104414523D01*
X169013095Y-104509761D01*
X104354285Y-107108571D02*
X104497142Y-107156190D01*
X104544761Y-107203809D01*
X104592380Y-107299047D01*
X104592380Y-107441904D01*
X104544761Y-107537142D01*
X104497142Y-107584761D01*
X104401904Y-107632380D01*
X104020952Y-107632380D01*
X104020952Y-106632380D01*
X104354285Y-106632380D01*
X104449523Y-106680000D01*
X104497142Y-106727619D01*
X104544761Y-106822857D01*
X104544761Y-106918095D01*
X104497142Y-107013333D01*
X104449523Y-107060952D01*
X104354285Y-107108571D01*
X104020952Y-107108571D01*
X104878095Y-106632380D02*
X105449523Y-106632380D01*
X105163809Y-107632380D02*
X105163809Y-106632380D01*
X106306666Y-107632380D02*
X105735238Y-107632380D01*
X106020952Y-107632380D02*
X106020952Y-106632380D01*
X105925714Y-106775238D01*
X105830476Y-106870476D01*
X105735238Y-106918095D01*
X106439047Y-109096428D02*
X107200952Y-109096428D01*
X106820000Y-109477380D02*
X106820000Y-108715476D01*
X165209047Y-109096428D02*
X165970952Y-109096428D01*
X168727380Y-129873333D02*
X169441666Y-129873333D01*
X169584523Y-129920952D01*
X169679761Y-130016190D01*
X169727380Y-130159047D01*
X169727380Y-130254285D01*
X168822619Y-129444761D02*
X168775000Y-129397142D01*
X168727380Y-129301904D01*
X168727380Y-129063809D01*
X168775000Y-128968571D01*
X168822619Y-128920952D01*
X168917857Y-128873333D01*
X169013095Y-128873333D01*
X169155952Y-128920952D01*
X169727380Y-129492380D01*
X169727380Y-128873333D01*
%LPC*%
D13*
X157415000Y-129505000D03*
X157415000Y-126965000D03*
X157415000Y-124425000D03*
X157415000Y-121885000D03*
X157415000Y-119345000D03*
X149795000Y-129505000D03*
X149795000Y-126965000D03*
X149795000Y-124425000D03*
X149795000Y-121885000D03*
X149795000Y-119345000D03*
X142175000Y-129505000D03*
X142175000Y-126965000D03*
X142175000Y-124425000D03*
X142175000Y-121885000D03*
X142175000Y-119345000D03*
D14*
X162220000Y-139800000D03*
D15*
X110230000Y-139800000D03*
D16*
X112990000Y-133805000D03*
X159470000Y-145795000D03*
D17*
X159955000Y-129505000D03*
X159955000Y-126965000D03*
X159955000Y-124425000D03*
X159955000Y-121885000D03*
D13*
X159955000Y-119345000D03*
D17*
X154875000Y-129505000D03*
X154875000Y-126965000D03*
X154875000Y-124425000D03*
X154875000Y-121885000D03*
D13*
X154875000Y-119345000D03*
D17*
X152335000Y-129505000D03*
X152335000Y-126965000D03*
X152335000Y-124425000D03*
X152335000Y-121885000D03*
D13*
X152335000Y-119345000D03*
D17*
X147255000Y-129505000D03*
X147255000Y-126965000D03*
X147255000Y-124425000D03*
X147255000Y-121885000D03*
D13*
X147255000Y-119345000D03*
D17*
X144715000Y-129505000D03*
X144715000Y-126965000D03*
X144715000Y-124425000D03*
X144715000Y-121885000D03*
D13*
X144715000Y-119345000D03*
D17*
X139635000Y-129505000D03*
X139635000Y-126965000D03*
X139635000Y-124425000D03*
X139635000Y-121885000D03*
D13*
X139635000Y-119345000D03*
D17*
X137095000Y-129505000D03*
X137095000Y-126965000D03*
X137095000Y-124425000D03*
X137095000Y-121885000D03*
D13*
X137095000Y-119345000D03*
D17*
X162495000Y-129505000D03*
X162495000Y-126965000D03*
X162495000Y-124425000D03*
X162495000Y-121885000D03*
D13*
X162495000Y-119345000D03*
D18*
X169910000Y-108400000D03*
X169910000Y-111900000D03*
D19*
X169910000Y-115400000D03*
D15*
X110220000Y-109085000D03*
X162210000Y-109085000D03*
D16*
X159450000Y-115080000D03*
X112970000Y-103090000D03*
D18*
X169910000Y-133335000D03*
X169910000Y-136835000D03*
D19*
X169910000Y-140335000D03*
D20*
X105500000Y-124500000D03*
X112500000Y-144500000D03*
X162500000Y-104500000D03*
X169500000Y-124500000D03*
M02*
