G04 #@! TF.GenerationSoftware,KiCad,Pcbnew,5.1.5+dfsg1-2build2*
G04 #@! TF.CreationDate,2021-12-11T20:18:00-05:00*
G04 #@! TF.ProjectId,RAK11300_LORA_ADAPTABLE_NODE,52414b31-3133-4303-905f-4c4f52415f41,rev?*
G04 #@! TF.SameCoordinates,Original*
G04 #@! TF.FileFunction,Copper,L2,Bot*
G04 #@! TF.FilePolarity,Positive*
%FSLAX46Y46*%
G04 Gerber Fmt 4.6, Leading zero omitted, Abs format (unit mm)*
G04 Created by KiCad (PCBNEW 5.1.5+dfsg1-2build2) date 2021-12-11 20:18:00*
%MOMM*%
%LPD*%
G04 APERTURE LIST*
%ADD10C,1.700000*%
%ADD11R,2.000000X2.000000*%
%ADD12C,2.000000*%
%ADD13R,1.300000X0.900000*%
%ADD14R,0.900000X1.300000*%
%ADD15O,1.700000X1.700000*%
%ADD16C,2.400000*%
%ADD17R,2.400000X2.400000*%
%ADD18R,1.000000X1.500000*%
%ADD19C,0.100000*%
%ADD20C,0.800000*%
%ADD21C,0.300000*%
%ADD22C,0.200000*%
%ADD23C,0.500000*%
%ADD24C,0.250000*%
%ADD25C,0.254000*%
G04 APERTURE END LIST*
D10*
X157415000Y-129505000D03*
X157415000Y-126965000D03*
X157415000Y-124425000D03*
X157415000Y-121885000D03*
X157415000Y-119345000D03*
X149795000Y-129505000D03*
X149795000Y-126965000D03*
X149795000Y-124425000D03*
X149795000Y-121885000D03*
X149795000Y-119345000D03*
X142175000Y-129505000D03*
X142175000Y-126965000D03*
X142175000Y-124425000D03*
X142175000Y-121885000D03*
X142175000Y-119345000D03*
D11*
X162220000Y-139800000D03*
D12*
X110230000Y-139800000D03*
D13*
X134077400Y-117346300D03*
X134077400Y-118546300D03*
X134077400Y-119746300D03*
X134077400Y-120946300D03*
X134077400Y-122146300D03*
X134077400Y-123346300D03*
X134077400Y-124546300D03*
X134077400Y-125746300D03*
X134077400Y-126946300D03*
X134077400Y-128146300D03*
D14*
X128407400Y-115426300D03*
X127207400Y-115426300D03*
X126007400Y-115426300D03*
X124807400Y-115426300D03*
X123607400Y-115426300D03*
X122407400Y-115426300D03*
X121207400Y-115426300D03*
X120007400Y-115426300D03*
X118807400Y-115426300D03*
X117607400Y-115426300D03*
X116407400Y-115426300D03*
X115207400Y-115426300D03*
X114007400Y-115426300D03*
D13*
X111337400Y-117406300D03*
X111337400Y-118606300D03*
X111337400Y-119806300D03*
X111337400Y-121006300D03*
X111337400Y-122206300D03*
D14*
X122507400Y-130116300D03*
X121307400Y-130116300D03*
X120107400Y-130116300D03*
X118907400Y-130116300D03*
D13*
X111337400Y-124606300D03*
D14*
X123707400Y-130116300D03*
X124907400Y-130116300D03*
X126107400Y-130116300D03*
X127307400Y-130116300D03*
X128507400Y-130116300D03*
X129707400Y-130116300D03*
X130907400Y-130116300D03*
D13*
X111337400Y-123406300D03*
X111337400Y-125806300D03*
X111337400Y-127006300D03*
X111337400Y-128206300D03*
D14*
X116507400Y-130116300D03*
X117707400Y-130116300D03*
D15*
X159955000Y-129505000D03*
X159955000Y-126965000D03*
X159955000Y-124425000D03*
X159955000Y-121885000D03*
D10*
X159955000Y-119345000D03*
D15*
X154875000Y-129505000D03*
X154875000Y-126965000D03*
X154875000Y-124425000D03*
X154875000Y-121885000D03*
D10*
X154875000Y-119345000D03*
D15*
X152335000Y-129505000D03*
X152335000Y-126965000D03*
X152335000Y-124425000D03*
X152335000Y-121885000D03*
D10*
X152335000Y-119345000D03*
D15*
X147255000Y-129505000D03*
X147255000Y-126965000D03*
X147255000Y-124425000D03*
X147255000Y-121885000D03*
D10*
X147255000Y-119345000D03*
D15*
X144715000Y-129505000D03*
X144715000Y-126965000D03*
X144715000Y-124425000D03*
X144715000Y-121885000D03*
D10*
X144715000Y-119345000D03*
D15*
X139635000Y-129505000D03*
X139635000Y-126965000D03*
X139635000Y-124425000D03*
X139635000Y-121885000D03*
D10*
X139635000Y-119345000D03*
D15*
X137095000Y-129505000D03*
X137095000Y-126965000D03*
X137095000Y-124425000D03*
X137095000Y-121885000D03*
D10*
X137095000Y-119345000D03*
D15*
X162495000Y-129505000D03*
X162495000Y-126965000D03*
X162495000Y-124425000D03*
X162495000Y-121885000D03*
D10*
X162495000Y-119345000D03*
D16*
X169910000Y-108400000D03*
X169910000Y-111900000D03*
D17*
X169910000Y-115400000D03*
D12*
X110220000Y-109085000D03*
X162210000Y-109085000D03*
D16*
X169910000Y-133335000D03*
X169910000Y-136835000D03*
D17*
X169910000Y-140335000D03*
D18*
X132080000Y-102870000D03*
G04 #@! TA.AperFunction,SMDPad,CuDef*
D19*
G36*
X133380000Y-102120602D02*
G01*
X133404534Y-102120602D01*
X133453365Y-102125412D01*
X133501490Y-102134984D01*
X133548445Y-102149228D01*
X133593778Y-102168005D01*
X133637051Y-102191136D01*
X133677850Y-102218396D01*
X133715779Y-102249524D01*
X133750476Y-102284221D01*
X133781604Y-102322150D01*
X133808864Y-102362949D01*
X133831995Y-102406222D01*
X133850772Y-102451555D01*
X133865016Y-102498510D01*
X133874588Y-102546635D01*
X133879398Y-102595466D01*
X133879398Y-102620000D01*
X133880000Y-102620000D01*
X133880000Y-103120000D01*
X133879398Y-103120000D01*
X133879398Y-103144534D01*
X133874588Y-103193365D01*
X133865016Y-103241490D01*
X133850772Y-103288445D01*
X133831995Y-103333778D01*
X133808864Y-103377051D01*
X133781604Y-103417850D01*
X133750476Y-103455779D01*
X133715779Y-103490476D01*
X133677850Y-103521604D01*
X133637051Y-103548864D01*
X133593778Y-103571995D01*
X133548445Y-103590772D01*
X133501490Y-103605016D01*
X133453365Y-103614588D01*
X133404534Y-103619398D01*
X133380000Y-103619398D01*
X133380000Y-103620000D01*
X132830000Y-103620000D01*
X132830000Y-102120000D01*
X133380000Y-102120000D01*
X133380000Y-102120602D01*
G37*
G04 #@! TD.AperFunction*
G04 #@! TA.AperFunction,SMDPad,CuDef*
G36*
X131330000Y-103620000D02*
G01*
X130780000Y-103620000D01*
X130780000Y-103619398D01*
X130755466Y-103619398D01*
X130706635Y-103614588D01*
X130658510Y-103605016D01*
X130611555Y-103590772D01*
X130566222Y-103571995D01*
X130522949Y-103548864D01*
X130482150Y-103521604D01*
X130444221Y-103490476D01*
X130409524Y-103455779D01*
X130378396Y-103417850D01*
X130351136Y-103377051D01*
X130328005Y-103333778D01*
X130309228Y-103288445D01*
X130294984Y-103241490D01*
X130285412Y-103193365D01*
X130280602Y-103144534D01*
X130280602Y-103120000D01*
X130280000Y-103120000D01*
X130280000Y-102620000D01*
X130280602Y-102620000D01*
X130280602Y-102595466D01*
X130285412Y-102546635D01*
X130294984Y-102498510D01*
X130309228Y-102451555D01*
X130328005Y-102406222D01*
X130351136Y-102362949D01*
X130378396Y-102322150D01*
X130409524Y-102284221D01*
X130444221Y-102249524D01*
X130482150Y-102218396D01*
X130522949Y-102191136D01*
X130566222Y-102168005D01*
X130611555Y-102149228D01*
X130658510Y-102134984D01*
X130706635Y-102125412D01*
X130755466Y-102120602D01*
X130780000Y-102120602D01*
X130780000Y-102120000D01*
X131330000Y-102120000D01*
X131330000Y-103620000D01*
G37*
G04 #@! TD.AperFunction*
D20*
X162293300Y-136880600D03*
X162115500Y-111772700D03*
X142151100Y-116713000D03*
X145084800Y-114960400D03*
X150012400Y-115443000D03*
X152755600Y-133210300D03*
X107403900Y-129438400D03*
X132562600Y-125717300D03*
X132562600Y-120904000D03*
X132588000Y-117322600D03*
X128397000Y-116916200D03*
X113080800Y-117411500D03*
X112915700Y-124625100D03*
X112814100Y-128181100D03*
D21*
X142175000Y-124425000D02*
X142175000Y-126965000D01*
X142175000Y-124425000D02*
X142175000Y-121885000D01*
X149795000Y-121885000D02*
X149795000Y-124425000D01*
X149795000Y-124425000D02*
X149795000Y-126965000D01*
X157415000Y-126965000D02*
X157415000Y-124425000D01*
X157415000Y-124425000D02*
X157415000Y-121885000D01*
X110220000Y-109085000D02*
X110256700Y-109085000D01*
X116471700Y-102870000D02*
X130780000Y-102870000D01*
X110256700Y-109085000D02*
X116471700Y-102870000D01*
X133380000Y-102870000D02*
X152641300Y-102870000D01*
X158856300Y-109085000D02*
X162210000Y-109085000D01*
X152641300Y-102870000D02*
X158856300Y-109085000D01*
X162220000Y-136953900D02*
X162293300Y-136880600D01*
X162220000Y-139800000D02*
X162220000Y-136953900D01*
X162115500Y-109179500D02*
X162210000Y-109085000D01*
X162115500Y-111772700D02*
X162115500Y-109179500D01*
D22*
X129707400Y-130316300D02*
X129332400Y-130691300D01*
X129707400Y-130116300D02*
X129707400Y-130316300D01*
D21*
X129707400Y-130116300D02*
X129707400Y-131193300D01*
X129707400Y-131193300D02*
X130060700Y-131546600D01*
X130060700Y-131546600D02*
X137845800Y-131546600D01*
X137845800Y-131546600D02*
X138163300Y-131229100D01*
X138163300Y-130573300D02*
X137095000Y-129505000D01*
X138163300Y-131229100D02*
X138163300Y-130573300D01*
D22*
X128507400Y-130316300D02*
X128882400Y-130691300D01*
X128507400Y-130116300D02*
X128507400Y-130316300D01*
D21*
X139635000Y-129662950D02*
X139635000Y-129505000D01*
X138684000Y-130613950D02*
X139635000Y-129662950D01*
X138684000Y-131470400D02*
X138684000Y-130613950D01*
X138010900Y-132143500D02*
X138684000Y-131470400D01*
X129705100Y-132143500D02*
X138010900Y-132143500D01*
X128507400Y-130945800D02*
X129705100Y-132143500D01*
X128507400Y-130116300D02*
X128507400Y-130945800D01*
X152335000Y-132437100D02*
X152335000Y-129505000D01*
X147916900Y-135940800D02*
X148831300Y-135940800D01*
X148831300Y-135940800D02*
X152335000Y-132437100D01*
X147104100Y-136753600D02*
X147916900Y-135940800D01*
X127571500Y-136753600D02*
X147104100Y-136753600D01*
X125514100Y-135978900D02*
X126796800Y-135978900D01*
X121307400Y-131772200D02*
X125514100Y-135978900D01*
X126796800Y-135978900D02*
X127571500Y-136753600D01*
X121307400Y-130116300D02*
X121307400Y-131772200D01*
X122507400Y-131664100D02*
X122507400Y-130116300D01*
X127431800Y-135343900D02*
X126187200Y-135343900D01*
X146278600Y-136004300D02*
X128092200Y-136004300D01*
X147154900Y-135128000D02*
X146278600Y-136004300D01*
X148475700Y-135128000D02*
X147154900Y-135128000D01*
X151066500Y-132537200D02*
X148475700Y-135128000D01*
X128092200Y-136004300D02*
X127431800Y-135343900D01*
X151066500Y-128206500D02*
X151066500Y-132537200D01*
X152308000Y-126965000D02*
X151066500Y-128206500D01*
X126187200Y-135343900D02*
X122507400Y-131664100D01*
X152335000Y-126965000D02*
X152308000Y-126965000D01*
X152335000Y-121885000D02*
X152212600Y-121885000D01*
X109474000Y-117970300D02*
X110110000Y-118606300D01*
X109474000Y-114592100D02*
X109474000Y-117970300D01*
X112598200Y-113842800D02*
X110223300Y-113842800D01*
X118973600Y-107467400D02*
X112598200Y-113842800D01*
X110110000Y-118606300D02*
X111337400Y-118606300D01*
X110223300Y-113842800D02*
X109474000Y-114592100D01*
X151053800Y-120573800D02*
X151053800Y-114058700D01*
X152335000Y-121855000D02*
X151053800Y-120573800D01*
X144462500Y-107467400D02*
X118973600Y-107467400D01*
X151053800Y-114058700D02*
X144462500Y-107467400D01*
X152335000Y-121885000D02*
X152335000Y-121855000D01*
X109722500Y-119806300D02*
X111337400Y-119806300D01*
X108661200Y-118745000D02*
X109722500Y-119806300D01*
X109931200Y-112903000D02*
X108661200Y-114173000D01*
X112458500Y-112903000D02*
X109931200Y-112903000D01*
X118618000Y-106743500D02*
X112458500Y-112903000D01*
X145783300Y-106743500D02*
X118618000Y-106743500D01*
X152335000Y-113295200D02*
X145783300Y-106743500D01*
X108661200Y-114173000D02*
X108661200Y-118745000D01*
X152335000Y-119345000D02*
X152335000Y-113295200D01*
X137076300Y-126946300D02*
X137095000Y-126965000D01*
X134077400Y-126946300D02*
X137076300Y-126946300D01*
X137095000Y-124425000D02*
X136363000Y-124425000D01*
X135284300Y-123346300D02*
X134077400Y-123346300D01*
X136363000Y-124425000D02*
X135284300Y-123346300D01*
X137095000Y-115289100D02*
X137095000Y-119345000D01*
X135750300Y-113944400D02*
X137095000Y-115289100D01*
X127207400Y-114245000D02*
X127508000Y-113944400D01*
X127508000Y-113944400D02*
X135750300Y-113944400D01*
X127207400Y-115426300D02*
X127207400Y-114245000D01*
X134077400Y-128146300D02*
X136096500Y-128146300D01*
X136096500Y-128146300D02*
X136194800Y-128244600D01*
X138355400Y-128244600D02*
X139635000Y-126965000D01*
X136194800Y-128244600D02*
X138355400Y-128244600D01*
D23*
X139635000Y-124425000D02*
X139635000Y-124268000D01*
D21*
X138355400Y-125704600D02*
X139635000Y-124425000D01*
X135953500Y-125704600D02*
X138355400Y-125704600D01*
X134795200Y-124546300D02*
X135953500Y-125704600D01*
X134077400Y-124546300D02*
X134795200Y-124546300D01*
X138355400Y-123164600D02*
X139635000Y-121885000D01*
X136118600Y-123164600D02*
X138355400Y-123164600D01*
X135100300Y-122146300D02*
X136118600Y-123164600D01*
X134077400Y-122146300D02*
X135100300Y-122146300D01*
X139635000Y-115708200D02*
X139635000Y-119345000D01*
X127050800Y-113284000D02*
X137210800Y-113284000D01*
X126007400Y-114327400D02*
X127050800Y-113284000D01*
X137210800Y-113284000D02*
X139635000Y-115708200D01*
X126007400Y-115426300D02*
X126007400Y-114327400D01*
X144715000Y-131395700D02*
X144715000Y-129505000D01*
X142671800Y-133388100D02*
X144715000Y-131395700D01*
X142544800Y-133565900D02*
X142671800Y-133388100D01*
X142240000Y-133819900D02*
X142671800Y-133388100D01*
X129362200Y-133819900D02*
X142240000Y-133819900D01*
X129108200Y-133565900D02*
X129362200Y-133819900D01*
X128282700Y-133565900D02*
X129108200Y-133565900D01*
X126107400Y-131390600D02*
X128282700Y-133565900D01*
X126107400Y-130116300D02*
X126107400Y-131390600D01*
X127307400Y-131358700D02*
X127307400Y-130116300D01*
X128866900Y-132918200D02*
X127307400Y-131358700D01*
X141528800Y-132918200D02*
X128866900Y-132918200D01*
X143446500Y-131000500D02*
X141528800Y-132918200D01*
X144561000Y-126965000D02*
X143446500Y-128079500D01*
X143446500Y-128079500D02*
X143446500Y-131000500D01*
X144715000Y-126965000D02*
X144561000Y-126965000D01*
X144715000Y-124425000D02*
X144715000Y-124344200D01*
X144715000Y-124425000D02*
X144715000Y-124369600D01*
X144715000Y-124425000D02*
X144715000Y-124395000D01*
D24*
X144715000Y-124425000D02*
X144715000Y-124179100D01*
X144715000Y-124425000D02*
X144706900Y-124425000D01*
D21*
X144715000Y-124425000D02*
X144715000Y-124356900D01*
X124807400Y-113863700D02*
X124807400Y-115426300D01*
X126161800Y-112509300D02*
X124807400Y-113863700D01*
X137985500Y-112509300D02*
X126161800Y-112509300D01*
X142151100Y-116674900D02*
X137985500Y-112509300D01*
X142151100Y-116713000D02*
X142151100Y-116674900D01*
X122605800Y-111810800D02*
X121207400Y-113209200D01*
X121207400Y-113209200D02*
X121207400Y-115426300D01*
X139166600Y-111810800D02*
X122605800Y-111810800D01*
X143421100Y-116065300D02*
X139166600Y-111810800D01*
X143421100Y-120624600D02*
X143421100Y-116065300D01*
X144681500Y-121885000D02*
X143421100Y-120624600D01*
X144715000Y-121885000D02*
X144681500Y-121885000D01*
X120007400Y-113190000D02*
X120007400Y-115426300D01*
X122123200Y-111074200D02*
X120007400Y-113190000D01*
X139661900Y-111074200D02*
X122123200Y-111074200D01*
X144715000Y-116127300D02*
X139661900Y-111074200D01*
X144715000Y-119345000D02*
X144715000Y-116127300D01*
X147255000Y-131713200D02*
X147255000Y-129505000D01*
X144259300Y-134708900D02*
X147255000Y-131713200D01*
X144157700Y-134810500D02*
X144259300Y-134708900D01*
X143713200Y-135255000D02*
X144259300Y-134708900D01*
X128473200Y-135255000D02*
X143713200Y-135255000D01*
X127952500Y-134734300D02*
X128473200Y-135255000D01*
X126796800Y-134734300D02*
X127952500Y-134734300D01*
X123707400Y-131644900D02*
X126796800Y-134734300D01*
X123707400Y-130116300D02*
X123707400Y-131644900D01*
X145973800Y-128246200D02*
X147255000Y-126965000D01*
X145973800Y-131406900D02*
X145973800Y-128246200D01*
X142811500Y-134569200D02*
X145973800Y-131406900D01*
X129120900Y-134569200D02*
X142811500Y-134569200D01*
X127469900Y-134188200D02*
X128739900Y-134188200D01*
X128739900Y-134188200D02*
X129120900Y-134569200D01*
X124907400Y-131625700D02*
X127469900Y-134188200D01*
X124907400Y-130116300D02*
X124907400Y-131625700D01*
X141909800Y-111683800D02*
X141960600Y-111721900D01*
X141909800Y-111721900D02*
X141909800Y-111683800D01*
X145084800Y-114896900D02*
X141909800Y-111721900D01*
X145084800Y-114960400D02*
X145084800Y-114896900D01*
X141871700Y-111645700D02*
X141909800Y-111683800D01*
X140563600Y-110337600D02*
X141871700Y-111645700D01*
X121412000Y-110337600D02*
X140563600Y-110337600D01*
X118807400Y-112942200D02*
X121412000Y-110337600D01*
X118807400Y-115426300D02*
X118807400Y-112942200D01*
X141465300Y-109601000D02*
X120345200Y-109601000D01*
X120345200Y-109601000D02*
X117607400Y-112338800D01*
X146011900Y-120802400D02*
X146011900Y-114147600D01*
X146011900Y-114147600D02*
X141465300Y-109601000D01*
X147094500Y-121885000D02*
X146011900Y-120802400D01*
X117607400Y-112338800D02*
X117607400Y-115426300D01*
X147255000Y-121885000D02*
X147094500Y-121885000D01*
X147255000Y-113917500D02*
X145351500Y-112014000D01*
X147255000Y-119345000D02*
X147255000Y-113917500D01*
X145630900Y-112293400D02*
X145351500Y-112014000D01*
X115207400Y-113379900D02*
X115207400Y-115426300D01*
X119697500Y-108889800D02*
X115207400Y-113379900D01*
X142227300Y-108889800D02*
X119697500Y-108889800D01*
X145351500Y-112014000D02*
X142227300Y-108889800D01*
X114007400Y-113436900D02*
X114007400Y-115426300D01*
X119278400Y-108165900D02*
X114007400Y-113436900D01*
X142811500Y-108165900D02*
X119278400Y-108165900D01*
X150012400Y-115366800D02*
X142811500Y-108165900D01*
X150012400Y-115443000D02*
X150012400Y-115366800D01*
X149237700Y-136728200D02*
X152755600Y-133210300D01*
X148361400Y-136728200D02*
X149237700Y-136728200D01*
X127025400Y-137553700D02*
X147535900Y-137553700D01*
X126174500Y-136702800D02*
X127025400Y-137553700D01*
X147535900Y-137553700D02*
X148361400Y-136728200D01*
X120107400Y-131778700D02*
X125031500Y-136702800D01*
X125031500Y-136702800D02*
X126174500Y-136702800D01*
X120107400Y-130116300D02*
X120107400Y-131778700D01*
X149745700Y-137553700D02*
X153619200Y-133680200D01*
X154784500Y-126965000D02*
X154875000Y-126965000D01*
X148818600Y-137553700D02*
X149745700Y-137553700D01*
X153619200Y-133680200D02*
X153619200Y-128130300D01*
X147955000Y-138417300D02*
X148818600Y-137553700D01*
X153619200Y-128130300D02*
X154784500Y-126965000D01*
X126606300Y-138417300D02*
X147955000Y-138417300D01*
X125666500Y-137477500D02*
X126606300Y-138417300D01*
X124739400Y-137477500D02*
X125666500Y-137477500D01*
X118907400Y-131645500D02*
X124739400Y-137477500D01*
X118907400Y-130116300D02*
X118907400Y-131645500D01*
X149987000Y-138404600D02*
X154875000Y-133516600D01*
X154875000Y-133516600D02*
X154875000Y-129505000D01*
X148590000Y-139255500D02*
X149440900Y-138404600D01*
X149440900Y-138404600D02*
X149987000Y-138404600D01*
X125006100Y-138226800D02*
X126034800Y-139255500D01*
X126034800Y-139255500D02*
X148590000Y-139255500D01*
X124193300Y-138226800D02*
X125006100Y-138226800D01*
X117707400Y-131740900D02*
X124193300Y-138226800D01*
X117707400Y-130116300D02*
X117707400Y-131740900D01*
X109360400Y-121006300D02*
X111337400Y-121006300D01*
X107873800Y-113563400D02*
X107873800Y-119519700D01*
X118325900Y-105968800D02*
X112331500Y-111963200D01*
X109474000Y-111963200D02*
X107873800Y-113563400D01*
X112331500Y-111963200D02*
X109474000Y-111963200D01*
X147053300Y-105968800D02*
X118325900Y-105968800D01*
X107873800Y-119519700D02*
X109360400Y-121006300D01*
X153593800Y-120637300D02*
X153593800Y-112509300D01*
X154841500Y-121885000D02*
X153593800Y-120637300D01*
X153593800Y-112509300D02*
X147053300Y-105968800D01*
X154875000Y-121885000D02*
X154841500Y-121885000D01*
X109277700Y-122206300D02*
X111337400Y-122206300D01*
X107022900Y-113220500D02*
X107022900Y-119951500D01*
X107022900Y-119951500D02*
X109277700Y-122206300D01*
X111950500Y-111163100D02*
X109080300Y-111163100D01*
X117817900Y-105295700D02*
X111950500Y-111163100D01*
X148539200Y-105295700D02*
X117817900Y-105295700D01*
X109080300Y-111163100D02*
X107022900Y-113220500D01*
X154875000Y-111631500D02*
X148539200Y-105295700D01*
X154875000Y-119345000D02*
X154875000Y-111631500D01*
X158673800Y-128003300D02*
X158673800Y-130937000D01*
X159712100Y-126965000D02*
X158673800Y-128003300D01*
X159955000Y-126965000D02*
X159712100Y-126965000D01*
X151860250Y-137750550D02*
X151371300Y-138239500D01*
X158673800Y-130937000D02*
X151860250Y-137750550D01*
X149352000Y-140258800D02*
X151860250Y-137750550D01*
X120103900Y-138201400D02*
X123177300Y-138201400D01*
X118579900Y-136677400D02*
X120103900Y-138201400D01*
X112382300Y-136677400D02*
X118579900Y-136677400D01*
X109918500Y-126250700D02*
X109918500Y-134213600D01*
X123177300Y-138201400D02*
X125234700Y-140258800D01*
X109918500Y-134213600D02*
X112382300Y-136677400D01*
X110362900Y-125806300D02*
X109918500Y-126250700D01*
X125234700Y-140258800D02*
X149352000Y-140258800D01*
X111337400Y-125806300D02*
X110362900Y-125806300D01*
X159955000Y-129505000D02*
X159955000Y-130773400D01*
X152050750Y-138677650D02*
X151879300Y-138849100D01*
X159955000Y-130773400D02*
X152050750Y-138677650D01*
X125095000Y-141274800D02*
X149453600Y-141274800D01*
X122885200Y-139065000D02*
X125095000Y-141274800D01*
X149453600Y-141274800D02*
X152050750Y-138677650D01*
X119849900Y-139065000D02*
X122885200Y-139065000D01*
X112026700Y-137375900D02*
X118160800Y-137375900D01*
X118160800Y-137375900D02*
X119849900Y-139065000D01*
X109220000Y-134569200D02*
X112026700Y-137375900D01*
X109220000Y-124079000D02*
X109220000Y-134569200D01*
X109892700Y-123406300D02*
X109220000Y-124079000D01*
X111337400Y-123406300D02*
X109892700Y-123406300D01*
X169910000Y-136835000D02*
X167505500Y-136835000D01*
X167505500Y-136835000D02*
X166090600Y-135420100D01*
X166090600Y-135420100D02*
X166090600Y-130797300D01*
X164798300Y-129505000D02*
X162495000Y-129505000D01*
X166090600Y-130797300D02*
X164798300Y-129505000D01*
X169910000Y-133335000D02*
X168552100Y-133335000D01*
X168552100Y-133335000D02*
X167627300Y-132410200D01*
X167627300Y-132410200D02*
X167627300Y-129070100D01*
X165522200Y-126965000D02*
X162495000Y-126965000D01*
X167627300Y-129070100D02*
X165522200Y-126965000D01*
X162495000Y-124425000D02*
X162495000Y-124347200D01*
X162495000Y-124347200D02*
X167563800Y-119278400D01*
X167563800Y-119278400D02*
X167563800Y-116001800D01*
X168165600Y-115400000D02*
X169910000Y-115400000D01*
X167563800Y-116001800D02*
X168165600Y-115400000D01*
X162495000Y-121885000D02*
X162620400Y-121885000D01*
X162620400Y-121885000D02*
X166814500Y-117690900D01*
X166814500Y-117690900D02*
X166814500Y-112623600D01*
X167538100Y-111900000D02*
X169910000Y-111900000D01*
X166814500Y-112623600D02*
X167538100Y-111900000D01*
X162495000Y-119345000D02*
X163509400Y-119345000D01*
X163509400Y-119345000D02*
X165506400Y-117348000D01*
X165506400Y-117348000D02*
X165506400Y-110109000D01*
X167215400Y-108400000D02*
X169910000Y-108400000D01*
X165506400Y-110109000D02*
X167215400Y-108400000D01*
X134077400Y-120946300D02*
X135297300Y-120946300D01*
X136236000Y-121885000D02*
X137095000Y-121885000D01*
X135297300Y-120946300D02*
X136236000Y-121885000D01*
X107403900Y-129438400D02*
X107048300Y-129438400D01*
X107048300Y-129438400D02*
X106019600Y-130467100D01*
X106019600Y-130467100D02*
X106019600Y-137807700D01*
X108011900Y-139800000D02*
X110230000Y-139800000D01*
X106019600Y-137807700D02*
X108011900Y-139800000D01*
X132591600Y-125746300D02*
X132562600Y-125717300D01*
X134077400Y-125746300D02*
X132591600Y-125746300D01*
X134035100Y-120904000D02*
X134077400Y-120946300D01*
X132562600Y-120904000D02*
X134035100Y-120904000D01*
X132611700Y-117346300D02*
X132588000Y-117322600D01*
X134077400Y-117346300D02*
X132611700Y-117346300D01*
X128407400Y-116905800D02*
X128397000Y-116916200D01*
X128407400Y-115426300D02*
X128407400Y-116905800D01*
X113075600Y-117406300D02*
X113080800Y-117411500D01*
X111337400Y-117406300D02*
X113075600Y-117406300D01*
X112896900Y-124606300D02*
X112915700Y-124625100D01*
X111337400Y-124606300D02*
X112896900Y-124606300D01*
X112788900Y-128206300D02*
X112814100Y-128181100D01*
X111337400Y-128206300D02*
X112788900Y-128206300D01*
X163525200Y-142532100D02*
X165747700Y-140309600D01*
X165747700Y-140309600D02*
X167182800Y-140309600D01*
X125018800Y-142532100D02*
X163525200Y-142532100D01*
X122286700Y-139800000D02*
X125018800Y-142532100D01*
X110230000Y-139800000D02*
X122286700Y-139800000D01*
X167182800Y-140309600D02*
X169910000Y-140335000D01*
X166814500Y-140335000D02*
X167182800Y-140309600D01*
X159955000Y-119345000D02*
X159955000Y-119213400D01*
X159955000Y-119213400D02*
X156375100Y-115633500D01*
X156375100Y-115633500D02*
X156375100Y-111125000D01*
X156375100Y-111125000D02*
X149834600Y-104584500D01*
X149834600Y-104584500D02*
X132511800Y-104584500D01*
X132080000Y-104152700D02*
X132080000Y-102870000D01*
X132511800Y-104584500D02*
X132080000Y-104152700D01*
D25*
G36*
X167922061Y-101068607D02*
G01*
X167938262Y-101170898D01*
X168148000Y-102044519D01*
X168148000Y-106654600D01*
X168150440Y-106679376D01*
X168157667Y-106703201D01*
X168169403Y-106725157D01*
X168185197Y-106744403D01*
X168204443Y-106760197D01*
X168226399Y-106771933D01*
X168250224Y-106779160D01*
X168273988Y-106781596D01*
X169020299Y-106787543D01*
X168740256Y-106974662D01*
X168484662Y-107230256D01*
X168283844Y-107530801D01*
X168248968Y-107615000D01*
X167253955Y-107615000D01*
X167215400Y-107611203D01*
X167176844Y-107615000D01*
X167176839Y-107615000D01*
X167136426Y-107618980D01*
X167061513Y-107626358D01*
X166913540Y-107671246D01*
X166777167Y-107744138D01*
X166716959Y-107793550D01*
X166687587Y-107817655D01*
X166687584Y-107817658D01*
X166657636Y-107842236D01*
X166633058Y-107872184D01*
X164978585Y-109526658D01*
X164948637Y-109551236D01*
X164924059Y-109581184D01*
X164924055Y-109581188D01*
X164907796Y-109601000D01*
X164850539Y-109670767D01*
X164814996Y-109737264D01*
X164777646Y-109807141D01*
X164732759Y-109955114D01*
X164717603Y-110109000D01*
X164721401Y-110147563D01*
X164721400Y-117022842D01*
X163497175Y-118247068D01*
X163441632Y-118191525D01*
X163198411Y-118029010D01*
X162928158Y-117917068D01*
X162641260Y-117860000D01*
X162348740Y-117860000D01*
X162061842Y-117917068D01*
X161791589Y-118029010D01*
X161548368Y-118191525D01*
X161341525Y-118398368D01*
X161225000Y-118572760D01*
X161108475Y-118398368D01*
X160901632Y-118191525D01*
X160658411Y-118029010D01*
X160388158Y-117917068D01*
X160101260Y-117860000D01*
X159808740Y-117860000D01*
X159727848Y-117876090D01*
X158763459Y-116911702D01*
X158879748Y-116959870D01*
X159257449Y-117035000D01*
X159642551Y-117035000D01*
X160020252Y-116959870D01*
X160376040Y-116812498D01*
X160696240Y-116598547D01*
X160968547Y-116326240D01*
X161182498Y-116006040D01*
X161329870Y-115650252D01*
X161405000Y-115272551D01*
X161405000Y-114887449D01*
X161329870Y-114509748D01*
X161182498Y-114153960D01*
X160968547Y-113833760D01*
X160696240Y-113561453D01*
X160376040Y-113347502D01*
X160020252Y-113200130D01*
X159642551Y-113125000D01*
X159257449Y-113125000D01*
X158879748Y-113200130D01*
X158523960Y-113347502D01*
X158203760Y-113561453D01*
X157931453Y-113833760D01*
X157717502Y-114153960D01*
X157570130Y-114509748D01*
X157495000Y-114887449D01*
X157495000Y-115272551D01*
X157570130Y-115650252D01*
X157618299Y-115766541D01*
X157160100Y-115308343D01*
X157160100Y-111163556D01*
X157163897Y-111125000D01*
X157160100Y-111086444D01*
X157160100Y-111086439D01*
X157155246Y-111037159D01*
X157148742Y-110971113D01*
X157103854Y-110823140D01*
X157078568Y-110775833D01*
X157030962Y-110686767D01*
X156932864Y-110567236D01*
X156902910Y-110542653D01*
X150416945Y-104056688D01*
X150392364Y-104026736D01*
X150272833Y-103928638D01*
X150136460Y-103855746D01*
X149988487Y-103810859D01*
X149873161Y-103799500D01*
X149873153Y-103799500D01*
X149834600Y-103795703D01*
X149796047Y-103799500D01*
X134290633Y-103799500D01*
X134297042Y-103791691D01*
X134351498Y-103710192D01*
X134380999Y-103655000D01*
X152316143Y-103655000D01*
X158273958Y-109612816D01*
X158298536Y-109642764D01*
X158328484Y-109667342D01*
X158328487Y-109667345D01*
X158332657Y-109670767D01*
X158418067Y-109740862D01*
X158554440Y-109813754D01*
X158667972Y-109848194D01*
X158702412Y-109858641D01*
X158716790Y-109860057D01*
X158817739Y-109870000D01*
X158817746Y-109870000D01*
X158856299Y-109873797D01*
X158894852Y-109870000D01*
X160768123Y-109870000D01*
X160940013Y-110127252D01*
X161167748Y-110354987D01*
X161330501Y-110463735D01*
X161330500Y-111093989D01*
X161311563Y-111112926D01*
X161198295Y-111282444D01*
X161120274Y-111470802D01*
X161080500Y-111670761D01*
X161080500Y-111874639D01*
X161120274Y-112074598D01*
X161198295Y-112262956D01*
X161311563Y-112432474D01*
X161455726Y-112576637D01*
X161625244Y-112689905D01*
X161813602Y-112767926D01*
X162013561Y-112807700D01*
X162217439Y-112807700D01*
X162417398Y-112767926D01*
X162605756Y-112689905D01*
X162775274Y-112576637D01*
X162919437Y-112432474D01*
X163032705Y-112262956D01*
X163110726Y-112074598D01*
X163150500Y-111874639D01*
X163150500Y-111670761D01*
X163110726Y-111470802D01*
X163032705Y-111282444D01*
X162919437Y-111112926D01*
X162900500Y-111093989D01*
X162900500Y-110568697D01*
X162984463Y-110533918D01*
X163252252Y-110354987D01*
X163479987Y-110127252D01*
X163658918Y-109859463D01*
X163782168Y-109561912D01*
X163845000Y-109246033D01*
X163845000Y-108923967D01*
X163782168Y-108608088D01*
X163658918Y-108310537D01*
X163479987Y-108042748D01*
X163252252Y-107815013D01*
X162984463Y-107636082D01*
X162686912Y-107512832D01*
X162371033Y-107450000D01*
X162048967Y-107450000D01*
X161733088Y-107512832D01*
X161435537Y-107636082D01*
X161167748Y-107815013D01*
X160940013Y-108042748D01*
X160768123Y-108300000D01*
X159181458Y-108300000D01*
X155171179Y-104289721D01*
X160365000Y-104289721D01*
X160365000Y-104710279D01*
X160447047Y-105122756D01*
X160607988Y-105511302D01*
X160841637Y-105860983D01*
X161139017Y-106158363D01*
X161488698Y-106392012D01*
X161877244Y-106552953D01*
X162289721Y-106635000D01*
X162710279Y-106635000D01*
X163122756Y-106552953D01*
X163511302Y-106392012D01*
X163860983Y-106158363D01*
X164158363Y-105860983D01*
X164392012Y-105511302D01*
X164552953Y-105122756D01*
X164635000Y-104710279D01*
X164635000Y-104289721D01*
X164552953Y-103877244D01*
X164392012Y-103488698D01*
X164158363Y-103139017D01*
X163860983Y-102841637D01*
X163511302Y-102607988D01*
X163122756Y-102447047D01*
X162710279Y-102365000D01*
X162289721Y-102365000D01*
X161877244Y-102447047D01*
X161488698Y-102607988D01*
X161139017Y-102841637D01*
X160841637Y-103139017D01*
X160607988Y-103488698D01*
X160447047Y-103877244D01*
X160365000Y-104289721D01*
X155171179Y-104289721D01*
X153223647Y-102342190D01*
X153199064Y-102312236D01*
X153079533Y-102214138D01*
X152943160Y-102141246D01*
X152795187Y-102096359D01*
X152679861Y-102085000D01*
X152679853Y-102085000D01*
X152641300Y-102081203D01*
X152602747Y-102085000D01*
X134380999Y-102085000D01*
X134351498Y-102029808D01*
X134297042Y-101948309D01*
X134217690Y-101851618D01*
X134148382Y-101782310D01*
X134051691Y-101702958D01*
X133970192Y-101648502D01*
X133859875Y-101589536D01*
X133769319Y-101552027D01*
X133649623Y-101515718D01*
X133553490Y-101496596D01*
X133429009Y-101484336D01*
X133404450Y-101484336D01*
X133380000Y-101481928D01*
X132830000Y-101481928D01*
X132705518Y-101494188D01*
X132705000Y-101494345D01*
X132704482Y-101494188D01*
X132580000Y-101481928D01*
X131580000Y-101481928D01*
X131455518Y-101494188D01*
X131455000Y-101494345D01*
X131454482Y-101494188D01*
X131330000Y-101481928D01*
X130780000Y-101481928D01*
X130755550Y-101484336D01*
X130730991Y-101484336D01*
X130606510Y-101496596D01*
X130510377Y-101515718D01*
X130390681Y-101552027D01*
X130300125Y-101589536D01*
X130189808Y-101648502D01*
X130108309Y-101702958D01*
X130011618Y-101782310D01*
X129942310Y-101851618D01*
X129862958Y-101948309D01*
X129808502Y-102029808D01*
X129779001Y-102085000D01*
X116510252Y-102085000D01*
X116471699Y-102081203D01*
X116433146Y-102085000D01*
X116433139Y-102085000D01*
X116332190Y-102094943D01*
X116317812Y-102096359D01*
X116283372Y-102106806D01*
X116169840Y-102141246D01*
X116033467Y-102214138D01*
X116013310Y-102230681D01*
X115943887Y-102287655D01*
X115943884Y-102287658D01*
X115913936Y-102312236D01*
X115889358Y-102342184D01*
X114919043Y-103312499D01*
X114925000Y-103282551D01*
X114925000Y-102897449D01*
X114849870Y-102519748D01*
X114702498Y-102163960D01*
X114488547Y-101843760D01*
X114216240Y-101571453D01*
X113896040Y-101357502D01*
X113540252Y-101210130D01*
X113162551Y-101135000D01*
X112777449Y-101135000D01*
X112399748Y-101210130D01*
X112043960Y-101357502D01*
X111723760Y-101571453D01*
X111451453Y-101843760D01*
X111237502Y-102163960D01*
X111090130Y-102519748D01*
X111015000Y-102897449D01*
X111015000Y-103282551D01*
X111090130Y-103660252D01*
X111237502Y-104016040D01*
X111451453Y-104336240D01*
X111723760Y-104608547D01*
X112043960Y-104822498D01*
X112399748Y-104969870D01*
X112777449Y-105045000D01*
X113162551Y-105045000D01*
X113192500Y-105039043D01*
X110712326Y-107519217D01*
X110696912Y-107512832D01*
X110381033Y-107450000D01*
X110058967Y-107450000D01*
X109743088Y-107512832D01*
X109445537Y-107636082D01*
X109177748Y-107815013D01*
X108950013Y-108042748D01*
X108771082Y-108310537D01*
X108647832Y-108608088D01*
X108585000Y-108923967D01*
X108585000Y-109246033D01*
X108647832Y-109561912D01*
X108771082Y-109859463D01*
X108950013Y-110127252D01*
X109177748Y-110354987D01*
X109212339Y-110378100D01*
X109118855Y-110378100D01*
X109080300Y-110374303D01*
X109041744Y-110378100D01*
X109041739Y-110378100D01*
X109001326Y-110382080D01*
X108926413Y-110389458D01*
X108778440Y-110434346D01*
X108642067Y-110507238D01*
X108609558Y-110533918D01*
X108552487Y-110580755D01*
X108552484Y-110580758D01*
X108522536Y-110605336D01*
X108497958Y-110635284D01*
X106495090Y-112638153D01*
X106465136Y-112662736D01*
X106367038Y-112782268D01*
X106294146Y-112918641D01*
X106249259Y-113066614D01*
X106237900Y-113181940D01*
X106237900Y-113181947D01*
X106234103Y-113220500D01*
X106237900Y-113259053D01*
X106237901Y-119912937D01*
X106234103Y-119951500D01*
X106249259Y-120105386D01*
X106294146Y-120253359D01*
X106325554Y-120312120D01*
X106367039Y-120389733D01*
X106401578Y-120431818D01*
X106440555Y-120479312D01*
X106440559Y-120479316D01*
X106465137Y-120509264D01*
X106495085Y-120533842D01*
X108695353Y-122734110D01*
X108719936Y-122764064D01*
X108839467Y-122862162D01*
X108968817Y-122931300D01*
X108975840Y-122935054D01*
X109123813Y-122979942D01*
X109198726Y-122987320D01*
X109201272Y-122987570D01*
X108692189Y-123496653D01*
X108662236Y-123521236D01*
X108564138Y-123640768D01*
X108491246Y-123777141D01*
X108446359Y-123925114D01*
X108435000Y-124040440D01*
X108435000Y-124040447D01*
X108431203Y-124079000D01*
X108435000Y-124117553D01*
X108435001Y-134530637D01*
X108431203Y-134569200D01*
X108446359Y-134723086D01*
X108491246Y-134871059D01*
X108525177Y-134934540D01*
X108564139Y-135007433D01*
X108600091Y-135051240D01*
X108637655Y-135097012D01*
X108637659Y-135097016D01*
X108662237Y-135126964D01*
X108692185Y-135151542D01*
X111444358Y-137903716D01*
X111468936Y-137933664D01*
X111498884Y-137958242D01*
X111498887Y-137958245D01*
X111508784Y-137966367D01*
X111588467Y-138031762D01*
X111707349Y-138095305D01*
X111724840Y-138104654D01*
X111872812Y-138149541D01*
X111875828Y-138149838D01*
X111988139Y-138160900D01*
X111988146Y-138160900D01*
X112026699Y-138164697D01*
X112065252Y-138160900D01*
X117835643Y-138160900D01*
X119267558Y-139592816D01*
X119292136Y-139622764D01*
X119322084Y-139647342D01*
X119322087Y-139647345D01*
X119351459Y-139671450D01*
X119411667Y-139720862D01*
X119548040Y-139793754D01*
X119696012Y-139838641D01*
X119710390Y-139840057D01*
X119811339Y-139850000D01*
X119811346Y-139850000D01*
X119849899Y-139853797D01*
X119888452Y-139850000D01*
X122560043Y-139850000D01*
X124512658Y-141802616D01*
X124537236Y-141832564D01*
X124567184Y-141857142D01*
X124567187Y-141857145D01*
X124596559Y-141881250D01*
X124656767Y-141930662D01*
X124782996Y-141998132D01*
X124793140Y-142003554D01*
X124941112Y-142048441D01*
X124955490Y-142049857D01*
X125056439Y-142059800D01*
X125056446Y-142059800D01*
X125094999Y-142063597D01*
X125133552Y-142059800D01*
X149415047Y-142059800D01*
X149453600Y-142063597D01*
X149492153Y-142059800D01*
X149492161Y-142059800D01*
X149607487Y-142048441D01*
X149755460Y-142003554D01*
X149891833Y-141930662D01*
X150011364Y-141832564D01*
X150035947Y-141802610D01*
X153038557Y-138800000D01*
X160581928Y-138800000D01*
X160581928Y-140800000D01*
X160594188Y-140924482D01*
X160630498Y-141044180D01*
X160689463Y-141154494D01*
X160768815Y-141251185D01*
X160865506Y-141330537D01*
X160975820Y-141389502D01*
X161095518Y-141425812D01*
X161220000Y-141438072D01*
X163220000Y-141438072D01*
X163344482Y-141425812D01*
X163464180Y-141389502D01*
X163574494Y-141330537D01*
X163671185Y-141251185D01*
X163750537Y-141154494D01*
X163809502Y-141044180D01*
X163845812Y-140924482D01*
X163858072Y-140800000D01*
X163858072Y-138800000D01*
X163845812Y-138675518D01*
X163809502Y-138555820D01*
X163750537Y-138445506D01*
X163671185Y-138348815D01*
X163574494Y-138269463D01*
X163464180Y-138210498D01*
X163344482Y-138174188D01*
X163220000Y-138161928D01*
X163005000Y-138161928D01*
X163005000Y-137632611D01*
X163097237Y-137540374D01*
X163210505Y-137370856D01*
X163288526Y-137182498D01*
X163328300Y-136982539D01*
X163328300Y-136778661D01*
X163288526Y-136578702D01*
X163210505Y-136390344D01*
X163097237Y-136220826D01*
X162953074Y-136076663D01*
X162783556Y-135963395D01*
X162595198Y-135885374D01*
X162395239Y-135845600D01*
X162191361Y-135845600D01*
X161991402Y-135885374D01*
X161803044Y-135963395D01*
X161633526Y-136076663D01*
X161489363Y-136220826D01*
X161376095Y-136390344D01*
X161298074Y-136578702D01*
X161258300Y-136778661D01*
X161258300Y-136982539D01*
X161298074Y-137182498D01*
X161376095Y-137370856D01*
X161435001Y-137459015D01*
X161435001Y-138161928D01*
X161220000Y-138161928D01*
X161095518Y-138174188D01*
X160975820Y-138210498D01*
X160865506Y-138269463D01*
X160768815Y-138348815D01*
X160689463Y-138445506D01*
X160630498Y-138555820D01*
X160594188Y-138675518D01*
X160581928Y-138800000D01*
X153038557Y-138800000D01*
X160482810Y-131355747D01*
X160512764Y-131331164D01*
X160610862Y-131211633D01*
X160683754Y-131075260D01*
X160689341Y-131056841D01*
X160728642Y-130927287D01*
X160737944Y-130832836D01*
X160740000Y-130811961D01*
X160740000Y-130811956D01*
X160743797Y-130773400D01*
X160742923Y-130764521D01*
X160901632Y-130658475D01*
X161108475Y-130451632D01*
X161225000Y-130277240D01*
X161341525Y-130451632D01*
X161548368Y-130658475D01*
X161791589Y-130820990D01*
X162061842Y-130932932D01*
X162348740Y-130990000D01*
X162641260Y-130990000D01*
X162928158Y-130932932D01*
X163198411Y-130820990D01*
X163441632Y-130658475D01*
X163648475Y-130451632D01*
X163756474Y-130290000D01*
X164473143Y-130290000D01*
X165305601Y-131122459D01*
X165305600Y-135381547D01*
X165301803Y-135420100D01*
X165305600Y-135458653D01*
X165305600Y-135458660D01*
X165316959Y-135573986D01*
X165361846Y-135721959D01*
X165434738Y-135858332D01*
X165532836Y-135977864D01*
X165562790Y-136002447D01*
X166923153Y-137362810D01*
X166947736Y-137392764D01*
X167067267Y-137490862D01*
X167169560Y-137545538D01*
X167203640Y-137563754D01*
X167351613Y-137608642D01*
X167426526Y-137616020D01*
X167466939Y-137620000D01*
X167466944Y-137620000D01*
X167505500Y-137623797D01*
X167544056Y-137620000D01*
X168248968Y-137620000D01*
X168283844Y-137704199D01*
X168484662Y-138004744D01*
X168740256Y-138260338D01*
X169040801Y-138461156D01*
X169130574Y-138498341D01*
X168710000Y-138496928D01*
X168585518Y-138509188D01*
X168465820Y-138545498D01*
X168355506Y-138604463D01*
X168258815Y-138683815D01*
X168179463Y-138780506D01*
X168120498Y-138890820D01*
X168084188Y-139010518D01*
X168071928Y-139135000D01*
X168075000Y-140049250D01*
X168233750Y-140208000D01*
X169783000Y-140208000D01*
X169783000Y-140188000D01*
X170037000Y-140188000D01*
X170037000Y-140208000D01*
X171586250Y-140208000D01*
X171745000Y-140049250D01*
X171748072Y-139135000D01*
X171735812Y-139010518D01*
X171699502Y-138890820D01*
X171640537Y-138780506D01*
X171561185Y-138683815D01*
X171464494Y-138604463D01*
X171354180Y-138545498D01*
X171234482Y-138509188D01*
X171110000Y-138496928D01*
X170689426Y-138498341D01*
X170779199Y-138461156D01*
X171079744Y-138260338D01*
X171335338Y-138004744D01*
X171536156Y-137704199D01*
X171674482Y-137370250D01*
X171745000Y-137015732D01*
X171745000Y-136654268D01*
X171674482Y-136299750D01*
X171536156Y-135965801D01*
X171335338Y-135665256D01*
X171079744Y-135409662D01*
X170779199Y-135208844D01*
X170480213Y-135085000D01*
X170779199Y-134961156D01*
X171079744Y-134760338D01*
X171335338Y-134504744D01*
X171536156Y-134204199D01*
X171674482Y-133870250D01*
X171745000Y-133515732D01*
X171745000Y-133154268D01*
X171674482Y-132799750D01*
X171536156Y-132465801D01*
X171335338Y-132165256D01*
X171079744Y-131909662D01*
X170779199Y-131708844D01*
X170445250Y-131570518D01*
X170090732Y-131500000D01*
X169729268Y-131500000D01*
X169374750Y-131570518D01*
X169040801Y-131708844D01*
X168740256Y-131909662D01*
X168488588Y-132161331D01*
X168412300Y-132085043D01*
X168412300Y-129108655D01*
X168416097Y-129070100D01*
X168412300Y-129031544D01*
X168412300Y-129031539D01*
X168406569Y-128973354D01*
X168400942Y-128916213D01*
X168356054Y-128768240D01*
X168326338Y-128712645D01*
X168283162Y-128631867D01*
X168214382Y-128548059D01*
X168209645Y-128542287D01*
X168209642Y-128542284D01*
X168185064Y-128512336D01*
X168155116Y-128487758D01*
X166104546Y-126437189D01*
X166079964Y-126407236D01*
X165960433Y-126309138D01*
X165824060Y-126236246D01*
X165676087Y-126191359D01*
X165560761Y-126180000D01*
X165560753Y-126180000D01*
X165522200Y-126176203D01*
X165483647Y-126180000D01*
X163756474Y-126180000D01*
X163648475Y-126018368D01*
X163441632Y-125811525D01*
X163267240Y-125695000D01*
X163441632Y-125578475D01*
X163648475Y-125371632D01*
X163810990Y-125128411D01*
X163922932Y-124858158D01*
X163980000Y-124571260D01*
X163980000Y-124289721D01*
X167365000Y-124289721D01*
X167365000Y-124710279D01*
X167447047Y-125122756D01*
X167607988Y-125511302D01*
X167841637Y-125860983D01*
X168139017Y-126158363D01*
X168488698Y-126392012D01*
X168877244Y-126552953D01*
X169289721Y-126635000D01*
X169710279Y-126635000D01*
X170122756Y-126552953D01*
X170511302Y-126392012D01*
X170860983Y-126158363D01*
X171158363Y-125860983D01*
X171392012Y-125511302D01*
X171552953Y-125122756D01*
X171635000Y-124710279D01*
X171635000Y-124289721D01*
X171552953Y-123877244D01*
X171392012Y-123488698D01*
X171158363Y-123139017D01*
X170860983Y-122841637D01*
X170511302Y-122607988D01*
X170122756Y-122447047D01*
X169710279Y-122365000D01*
X169289721Y-122365000D01*
X168877244Y-122447047D01*
X168488698Y-122607988D01*
X168139017Y-122841637D01*
X167841637Y-123139017D01*
X167607988Y-123488698D01*
X167447047Y-123877244D01*
X167365000Y-124289721D01*
X163980000Y-124289721D01*
X163980000Y-124278740D01*
X163929167Y-124023190D01*
X168091611Y-119860746D01*
X168121564Y-119836164D01*
X168219662Y-119716633D01*
X168292554Y-119580260D01*
X168315554Y-119504440D01*
X168337442Y-119432287D01*
X168347018Y-119335054D01*
X168348800Y-119316961D01*
X168348800Y-119316956D01*
X168352597Y-119278400D01*
X168348800Y-119239844D01*
X168348800Y-117125034D01*
X168355506Y-117130537D01*
X168465820Y-117189502D01*
X168585518Y-117225812D01*
X168710000Y-117238072D01*
X171110000Y-117238072D01*
X171234482Y-117225812D01*
X171354180Y-117189502D01*
X171464494Y-117130537D01*
X171561185Y-117051185D01*
X171640537Y-116954494D01*
X171699502Y-116844180D01*
X171735812Y-116724482D01*
X171748072Y-116600000D01*
X171748072Y-114200000D01*
X171735812Y-114075518D01*
X171699502Y-113955820D01*
X171640537Y-113845506D01*
X171561185Y-113748815D01*
X171464494Y-113669463D01*
X171354180Y-113610498D01*
X171234482Y-113574188D01*
X171110000Y-113561928D01*
X170692838Y-113561928D01*
X170779199Y-113526156D01*
X171079744Y-113325338D01*
X171335338Y-113069744D01*
X171536156Y-112769199D01*
X171674482Y-112435250D01*
X171745000Y-112080732D01*
X171745000Y-111719268D01*
X171674482Y-111364750D01*
X171536156Y-111030801D01*
X171335338Y-110730256D01*
X171079744Y-110474662D01*
X170779199Y-110273844D01*
X170480213Y-110150000D01*
X170779199Y-110026156D01*
X171079744Y-109825338D01*
X171335338Y-109569744D01*
X171536156Y-109269199D01*
X171674482Y-108935250D01*
X171745000Y-108580732D01*
X171745000Y-108219268D01*
X171674482Y-107864750D01*
X171536156Y-107530801D01*
X171335338Y-107230256D01*
X171079744Y-106974662D01*
X170821176Y-106801892D01*
X172819415Y-106817814D01*
X172837316Y-106823631D01*
X173829102Y-107061738D01*
X173931393Y-107077939D01*
X174340000Y-107110097D01*
X174340001Y-141889903D01*
X173931393Y-141922061D01*
X173829102Y-141938262D01*
X173101267Y-142113000D01*
X171375698Y-142113000D01*
X171464494Y-142065537D01*
X171561185Y-141986185D01*
X171640537Y-141889494D01*
X171699502Y-141779180D01*
X171735812Y-141659482D01*
X171748072Y-141535000D01*
X171745000Y-140620750D01*
X171586250Y-140462000D01*
X170037000Y-140462000D01*
X170037000Y-140482000D01*
X169783000Y-140482000D01*
X169783000Y-140462000D01*
X168233750Y-140462000D01*
X168075000Y-140620750D01*
X168071928Y-141535000D01*
X168084188Y-141659482D01*
X168120498Y-141779180D01*
X168179463Y-141889494D01*
X168258815Y-141986185D01*
X168355506Y-142065537D01*
X168444302Y-142113000D01*
X167640000Y-142113000D01*
X167615224Y-142115440D01*
X167591399Y-142122667D01*
X167569443Y-142134403D01*
X167550197Y-142150197D01*
X167534403Y-142169443D01*
X167522667Y-142191399D01*
X167515440Y-142215224D01*
X167513000Y-142240000D01*
X167513000Y-148340000D01*
X107670600Y-148340000D01*
X107670600Y-144289721D01*
X110365000Y-144289721D01*
X110365000Y-144710279D01*
X110447047Y-145122756D01*
X110607988Y-145511302D01*
X110841637Y-145860983D01*
X111139017Y-146158363D01*
X111488698Y-146392012D01*
X111877244Y-146552953D01*
X112289721Y-146635000D01*
X112710279Y-146635000D01*
X113122756Y-146552953D01*
X113511302Y-146392012D01*
X113860983Y-146158363D01*
X114158363Y-145860983D01*
X114331109Y-145602449D01*
X157515000Y-145602449D01*
X157515000Y-145987551D01*
X157590130Y-146365252D01*
X157737502Y-146721040D01*
X157951453Y-147041240D01*
X158223760Y-147313547D01*
X158543960Y-147527498D01*
X158899748Y-147674870D01*
X159277449Y-147750000D01*
X159662551Y-147750000D01*
X160040252Y-147674870D01*
X160396040Y-147527498D01*
X160716240Y-147313547D01*
X160988547Y-147041240D01*
X161202498Y-146721040D01*
X161349870Y-146365252D01*
X161425000Y-145987551D01*
X161425000Y-145602449D01*
X161349870Y-145224748D01*
X161202498Y-144868960D01*
X160988547Y-144548760D01*
X160716240Y-144276453D01*
X160396040Y-144062502D01*
X160040252Y-143915130D01*
X159662551Y-143840000D01*
X159277449Y-143840000D01*
X158899748Y-143915130D01*
X158543960Y-144062502D01*
X158223760Y-144276453D01*
X157951453Y-144548760D01*
X157737502Y-144868960D01*
X157590130Y-145224748D01*
X157515000Y-145602449D01*
X114331109Y-145602449D01*
X114392012Y-145511302D01*
X114552953Y-145122756D01*
X114635000Y-144710279D01*
X114635000Y-144289721D01*
X114552953Y-143877244D01*
X114392012Y-143488698D01*
X114158363Y-143139017D01*
X113860983Y-142841637D01*
X113511302Y-142607988D01*
X113122756Y-142447047D01*
X112710279Y-142365000D01*
X112289721Y-142365000D01*
X111877244Y-142447047D01*
X111488698Y-142607988D01*
X111139017Y-142841637D01*
X110841637Y-143139017D01*
X110607988Y-143488698D01*
X110447047Y-143877244D01*
X110365000Y-144289721D01*
X107670600Y-144289721D01*
X107670600Y-142214600D01*
X107668160Y-142189824D01*
X107660933Y-142165999D01*
X107649197Y-142144043D01*
X107633403Y-142124797D01*
X107614157Y-142109003D01*
X107592201Y-142097267D01*
X107568376Y-142090040D01*
X107543600Y-142087600D01*
X101792935Y-142087600D01*
X101170898Y-141938262D01*
X101068607Y-141922061D01*
X100660000Y-141889903D01*
X100660000Y-140935413D01*
X109274192Y-140935413D01*
X109369956Y-141199814D01*
X109659571Y-141340704D01*
X109971108Y-141422384D01*
X110292595Y-141441718D01*
X110611675Y-141397961D01*
X110916088Y-141292795D01*
X111090044Y-141199814D01*
X111185808Y-140935413D01*
X110230000Y-139979605D01*
X109274192Y-140935413D01*
X100660000Y-140935413D01*
X100660000Y-139862595D01*
X108588282Y-139862595D01*
X108632039Y-140181675D01*
X108737205Y-140486088D01*
X108830186Y-140660044D01*
X109094587Y-140755808D01*
X110050395Y-139800000D01*
X110409605Y-139800000D01*
X111365413Y-140755808D01*
X111629814Y-140660044D01*
X111770704Y-140370429D01*
X111852384Y-140058892D01*
X111871718Y-139737405D01*
X111827961Y-139418325D01*
X111722795Y-139113912D01*
X111629814Y-138939956D01*
X111365413Y-138844192D01*
X110409605Y-139800000D01*
X110050395Y-139800000D01*
X109094587Y-138844192D01*
X108830186Y-138939956D01*
X108689296Y-139229571D01*
X108607616Y-139541108D01*
X108588282Y-139862595D01*
X100660000Y-139862595D01*
X100660000Y-138664587D01*
X109274192Y-138664587D01*
X110230000Y-139620395D01*
X111185808Y-138664587D01*
X111090044Y-138400186D01*
X110800429Y-138259296D01*
X110488892Y-138177616D01*
X110167405Y-138158282D01*
X109848325Y-138202039D01*
X109543912Y-138307205D01*
X109369956Y-138400186D01*
X109274192Y-138664587D01*
X100660000Y-138664587D01*
X100660000Y-124289721D01*
X103365000Y-124289721D01*
X103365000Y-124710279D01*
X103447047Y-125122756D01*
X103607988Y-125511302D01*
X103841637Y-125860983D01*
X104139017Y-126158363D01*
X104488698Y-126392012D01*
X104877244Y-126552953D01*
X105289721Y-126635000D01*
X105710279Y-126635000D01*
X106122756Y-126552953D01*
X106511302Y-126392012D01*
X106860983Y-126158363D01*
X107158363Y-125860983D01*
X107392012Y-125511302D01*
X107552953Y-125122756D01*
X107635000Y-124710279D01*
X107635000Y-124289721D01*
X107552953Y-123877244D01*
X107392012Y-123488698D01*
X107158363Y-123139017D01*
X106860983Y-122841637D01*
X106511302Y-122607988D01*
X106122756Y-122447047D01*
X105710279Y-122365000D01*
X105289721Y-122365000D01*
X104877244Y-122447047D01*
X104488698Y-122607988D01*
X104139017Y-122841637D01*
X103841637Y-123139017D01*
X103607988Y-123488698D01*
X103447047Y-123877244D01*
X103365000Y-124289721D01*
X100660000Y-124289721D01*
X100660000Y-107110097D01*
X101068607Y-107077939D01*
X101170898Y-107061738D01*
X101370467Y-107013826D01*
X107466946Y-107035599D01*
X107491731Y-107033247D01*
X107515581Y-107026106D01*
X107537580Y-107014448D01*
X107556881Y-106998723D01*
X107572744Y-106979534D01*
X107584558Y-106957620D01*
X107591870Y-106933821D01*
X107594400Y-106908600D01*
X107594400Y-100660000D01*
X167889903Y-100660000D01*
X167922061Y-101068607D01*
G37*
X167922061Y-101068607D02*
X167938262Y-101170898D01*
X168148000Y-102044519D01*
X168148000Y-106654600D01*
X168150440Y-106679376D01*
X168157667Y-106703201D01*
X168169403Y-106725157D01*
X168185197Y-106744403D01*
X168204443Y-106760197D01*
X168226399Y-106771933D01*
X168250224Y-106779160D01*
X168273988Y-106781596D01*
X169020299Y-106787543D01*
X168740256Y-106974662D01*
X168484662Y-107230256D01*
X168283844Y-107530801D01*
X168248968Y-107615000D01*
X167253955Y-107615000D01*
X167215400Y-107611203D01*
X167176844Y-107615000D01*
X167176839Y-107615000D01*
X167136426Y-107618980D01*
X167061513Y-107626358D01*
X166913540Y-107671246D01*
X166777167Y-107744138D01*
X166716959Y-107793550D01*
X166687587Y-107817655D01*
X166687584Y-107817658D01*
X166657636Y-107842236D01*
X166633058Y-107872184D01*
X164978585Y-109526658D01*
X164948637Y-109551236D01*
X164924059Y-109581184D01*
X164924055Y-109581188D01*
X164907796Y-109601000D01*
X164850539Y-109670767D01*
X164814996Y-109737264D01*
X164777646Y-109807141D01*
X164732759Y-109955114D01*
X164717603Y-110109000D01*
X164721401Y-110147563D01*
X164721400Y-117022842D01*
X163497175Y-118247068D01*
X163441632Y-118191525D01*
X163198411Y-118029010D01*
X162928158Y-117917068D01*
X162641260Y-117860000D01*
X162348740Y-117860000D01*
X162061842Y-117917068D01*
X161791589Y-118029010D01*
X161548368Y-118191525D01*
X161341525Y-118398368D01*
X161225000Y-118572760D01*
X161108475Y-118398368D01*
X160901632Y-118191525D01*
X160658411Y-118029010D01*
X160388158Y-117917068D01*
X160101260Y-117860000D01*
X159808740Y-117860000D01*
X159727848Y-117876090D01*
X158763459Y-116911702D01*
X158879748Y-116959870D01*
X159257449Y-117035000D01*
X159642551Y-117035000D01*
X160020252Y-116959870D01*
X160376040Y-116812498D01*
X160696240Y-116598547D01*
X160968547Y-116326240D01*
X161182498Y-116006040D01*
X161329870Y-115650252D01*
X161405000Y-115272551D01*
X161405000Y-114887449D01*
X161329870Y-114509748D01*
X161182498Y-114153960D01*
X160968547Y-113833760D01*
X160696240Y-113561453D01*
X160376040Y-113347502D01*
X160020252Y-113200130D01*
X159642551Y-113125000D01*
X159257449Y-113125000D01*
X158879748Y-113200130D01*
X158523960Y-113347502D01*
X158203760Y-113561453D01*
X157931453Y-113833760D01*
X157717502Y-114153960D01*
X157570130Y-114509748D01*
X157495000Y-114887449D01*
X157495000Y-115272551D01*
X157570130Y-115650252D01*
X157618299Y-115766541D01*
X157160100Y-115308343D01*
X157160100Y-111163556D01*
X157163897Y-111125000D01*
X157160100Y-111086444D01*
X157160100Y-111086439D01*
X157155246Y-111037159D01*
X157148742Y-110971113D01*
X157103854Y-110823140D01*
X157078568Y-110775833D01*
X157030962Y-110686767D01*
X156932864Y-110567236D01*
X156902910Y-110542653D01*
X150416945Y-104056688D01*
X150392364Y-104026736D01*
X150272833Y-103928638D01*
X150136460Y-103855746D01*
X149988487Y-103810859D01*
X149873161Y-103799500D01*
X149873153Y-103799500D01*
X149834600Y-103795703D01*
X149796047Y-103799500D01*
X134290633Y-103799500D01*
X134297042Y-103791691D01*
X134351498Y-103710192D01*
X134380999Y-103655000D01*
X152316143Y-103655000D01*
X158273958Y-109612816D01*
X158298536Y-109642764D01*
X158328484Y-109667342D01*
X158328487Y-109667345D01*
X158332657Y-109670767D01*
X158418067Y-109740862D01*
X158554440Y-109813754D01*
X158667972Y-109848194D01*
X158702412Y-109858641D01*
X158716790Y-109860057D01*
X158817739Y-109870000D01*
X158817746Y-109870000D01*
X158856299Y-109873797D01*
X158894852Y-109870000D01*
X160768123Y-109870000D01*
X160940013Y-110127252D01*
X161167748Y-110354987D01*
X161330501Y-110463735D01*
X161330500Y-111093989D01*
X161311563Y-111112926D01*
X161198295Y-111282444D01*
X161120274Y-111470802D01*
X161080500Y-111670761D01*
X161080500Y-111874639D01*
X161120274Y-112074598D01*
X161198295Y-112262956D01*
X161311563Y-112432474D01*
X161455726Y-112576637D01*
X161625244Y-112689905D01*
X161813602Y-112767926D01*
X162013561Y-112807700D01*
X162217439Y-112807700D01*
X162417398Y-112767926D01*
X162605756Y-112689905D01*
X162775274Y-112576637D01*
X162919437Y-112432474D01*
X163032705Y-112262956D01*
X163110726Y-112074598D01*
X163150500Y-111874639D01*
X163150500Y-111670761D01*
X163110726Y-111470802D01*
X163032705Y-111282444D01*
X162919437Y-111112926D01*
X162900500Y-111093989D01*
X162900500Y-110568697D01*
X162984463Y-110533918D01*
X163252252Y-110354987D01*
X163479987Y-110127252D01*
X163658918Y-109859463D01*
X163782168Y-109561912D01*
X163845000Y-109246033D01*
X163845000Y-108923967D01*
X163782168Y-108608088D01*
X163658918Y-108310537D01*
X163479987Y-108042748D01*
X163252252Y-107815013D01*
X162984463Y-107636082D01*
X162686912Y-107512832D01*
X162371033Y-107450000D01*
X162048967Y-107450000D01*
X161733088Y-107512832D01*
X161435537Y-107636082D01*
X161167748Y-107815013D01*
X160940013Y-108042748D01*
X160768123Y-108300000D01*
X159181458Y-108300000D01*
X155171179Y-104289721D01*
X160365000Y-104289721D01*
X160365000Y-104710279D01*
X160447047Y-105122756D01*
X160607988Y-105511302D01*
X160841637Y-105860983D01*
X161139017Y-106158363D01*
X161488698Y-106392012D01*
X161877244Y-106552953D01*
X162289721Y-106635000D01*
X162710279Y-106635000D01*
X163122756Y-106552953D01*
X163511302Y-106392012D01*
X163860983Y-106158363D01*
X164158363Y-105860983D01*
X164392012Y-105511302D01*
X164552953Y-105122756D01*
X164635000Y-104710279D01*
X164635000Y-104289721D01*
X164552953Y-103877244D01*
X164392012Y-103488698D01*
X164158363Y-103139017D01*
X163860983Y-102841637D01*
X163511302Y-102607988D01*
X163122756Y-102447047D01*
X162710279Y-102365000D01*
X162289721Y-102365000D01*
X161877244Y-102447047D01*
X161488698Y-102607988D01*
X161139017Y-102841637D01*
X160841637Y-103139017D01*
X160607988Y-103488698D01*
X160447047Y-103877244D01*
X160365000Y-104289721D01*
X155171179Y-104289721D01*
X153223647Y-102342190D01*
X153199064Y-102312236D01*
X153079533Y-102214138D01*
X152943160Y-102141246D01*
X152795187Y-102096359D01*
X152679861Y-102085000D01*
X152679853Y-102085000D01*
X152641300Y-102081203D01*
X152602747Y-102085000D01*
X134380999Y-102085000D01*
X134351498Y-102029808D01*
X134297042Y-101948309D01*
X134217690Y-101851618D01*
X134148382Y-101782310D01*
X134051691Y-101702958D01*
X133970192Y-101648502D01*
X133859875Y-101589536D01*
X133769319Y-101552027D01*
X133649623Y-101515718D01*
X133553490Y-101496596D01*
X133429009Y-101484336D01*
X133404450Y-101484336D01*
X133380000Y-101481928D01*
X132830000Y-101481928D01*
X132705518Y-101494188D01*
X132705000Y-101494345D01*
X132704482Y-101494188D01*
X132580000Y-101481928D01*
X131580000Y-101481928D01*
X131455518Y-101494188D01*
X131455000Y-101494345D01*
X131454482Y-101494188D01*
X131330000Y-101481928D01*
X130780000Y-101481928D01*
X130755550Y-101484336D01*
X130730991Y-101484336D01*
X130606510Y-101496596D01*
X130510377Y-101515718D01*
X130390681Y-101552027D01*
X130300125Y-101589536D01*
X130189808Y-101648502D01*
X130108309Y-101702958D01*
X130011618Y-101782310D01*
X129942310Y-101851618D01*
X129862958Y-101948309D01*
X129808502Y-102029808D01*
X129779001Y-102085000D01*
X116510252Y-102085000D01*
X116471699Y-102081203D01*
X116433146Y-102085000D01*
X116433139Y-102085000D01*
X116332190Y-102094943D01*
X116317812Y-102096359D01*
X116283372Y-102106806D01*
X116169840Y-102141246D01*
X116033467Y-102214138D01*
X116013310Y-102230681D01*
X115943887Y-102287655D01*
X115943884Y-102287658D01*
X115913936Y-102312236D01*
X115889358Y-102342184D01*
X114919043Y-103312499D01*
X114925000Y-103282551D01*
X114925000Y-102897449D01*
X114849870Y-102519748D01*
X114702498Y-102163960D01*
X114488547Y-101843760D01*
X114216240Y-101571453D01*
X113896040Y-101357502D01*
X113540252Y-101210130D01*
X113162551Y-101135000D01*
X112777449Y-101135000D01*
X112399748Y-101210130D01*
X112043960Y-101357502D01*
X111723760Y-101571453D01*
X111451453Y-101843760D01*
X111237502Y-102163960D01*
X111090130Y-102519748D01*
X111015000Y-102897449D01*
X111015000Y-103282551D01*
X111090130Y-103660252D01*
X111237502Y-104016040D01*
X111451453Y-104336240D01*
X111723760Y-104608547D01*
X112043960Y-104822498D01*
X112399748Y-104969870D01*
X112777449Y-105045000D01*
X113162551Y-105045000D01*
X113192500Y-105039043D01*
X110712326Y-107519217D01*
X110696912Y-107512832D01*
X110381033Y-107450000D01*
X110058967Y-107450000D01*
X109743088Y-107512832D01*
X109445537Y-107636082D01*
X109177748Y-107815013D01*
X108950013Y-108042748D01*
X108771082Y-108310537D01*
X108647832Y-108608088D01*
X108585000Y-108923967D01*
X108585000Y-109246033D01*
X108647832Y-109561912D01*
X108771082Y-109859463D01*
X108950013Y-110127252D01*
X109177748Y-110354987D01*
X109212339Y-110378100D01*
X109118855Y-110378100D01*
X109080300Y-110374303D01*
X109041744Y-110378100D01*
X109041739Y-110378100D01*
X109001326Y-110382080D01*
X108926413Y-110389458D01*
X108778440Y-110434346D01*
X108642067Y-110507238D01*
X108609558Y-110533918D01*
X108552487Y-110580755D01*
X108552484Y-110580758D01*
X108522536Y-110605336D01*
X108497958Y-110635284D01*
X106495090Y-112638153D01*
X106465136Y-112662736D01*
X106367038Y-112782268D01*
X106294146Y-112918641D01*
X106249259Y-113066614D01*
X106237900Y-113181940D01*
X106237900Y-113181947D01*
X106234103Y-113220500D01*
X106237900Y-113259053D01*
X106237901Y-119912937D01*
X106234103Y-119951500D01*
X106249259Y-120105386D01*
X106294146Y-120253359D01*
X106325554Y-120312120D01*
X106367039Y-120389733D01*
X106401578Y-120431818D01*
X106440555Y-120479312D01*
X106440559Y-120479316D01*
X106465137Y-120509264D01*
X106495085Y-120533842D01*
X108695353Y-122734110D01*
X108719936Y-122764064D01*
X108839467Y-122862162D01*
X108968817Y-122931300D01*
X108975840Y-122935054D01*
X109123813Y-122979942D01*
X109198726Y-122987320D01*
X109201272Y-122987570D01*
X108692189Y-123496653D01*
X108662236Y-123521236D01*
X108564138Y-123640768D01*
X108491246Y-123777141D01*
X108446359Y-123925114D01*
X108435000Y-124040440D01*
X108435000Y-124040447D01*
X108431203Y-124079000D01*
X108435000Y-124117553D01*
X108435001Y-134530637D01*
X108431203Y-134569200D01*
X108446359Y-134723086D01*
X108491246Y-134871059D01*
X108525177Y-134934540D01*
X108564139Y-135007433D01*
X108600091Y-135051240D01*
X108637655Y-135097012D01*
X108637659Y-135097016D01*
X108662237Y-135126964D01*
X108692185Y-135151542D01*
X111444358Y-137903716D01*
X111468936Y-137933664D01*
X111498884Y-137958242D01*
X111498887Y-137958245D01*
X111508784Y-137966367D01*
X111588467Y-138031762D01*
X111707349Y-138095305D01*
X111724840Y-138104654D01*
X111872812Y-138149541D01*
X111875828Y-138149838D01*
X111988139Y-138160900D01*
X111988146Y-138160900D01*
X112026699Y-138164697D01*
X112065252Y-138160900D01*
X117835643Y-138160900D01*
X119267558Y-139592816D01*
X119292136Y-139622764D01*
X119322084Y-139647342D01*
X119322087Y-139647345D01*
X119351459Y-139671450D01*
X119411667Y-139720862D01*
X119548040Y-139793754D01*
X119696012Y-139838641D01*
X119710390Y-139840057D01*
X119811339Y-139850000D01*
X119811346Y-139850000D01*
X119849899Y-139853797D01*
X119888452Y-139850000D01*
X122560043Y-139850000D01*
X124512658Y-141802616D01*
X124537236Y-141832564D01*
X124567184Y-141857142D01*
X124567187Y-141857145D01*
X124596559Y-141881250D01*
X124656767Y-141930662D01*
X124782996Y-141998132D01*
X124793140Y-142003554D01*
X124941112Y-142048441D01*
X124955490Y-142049857D01*
X125056439Y-142059800D01*
X125056446Y-142059800D01*
X125094999Y-142063597D01*
X125133552Y-142059800D01*
X149415047Y-142059800D01*
X149453600Y-142063597D01*
X149492153Y-142059800D01*
X149492161Y-142059800D01*
X149607487Y-142048441D01*
X149755460Y-142003554D01*
X149891833Y-141930662D01*
X150011364Y-141832564D01*
X150035947Y-141802610D01*
X153038557Y-138800000D01*
X160581928Y-138800000D01*
X160581928Y-140800000D01*
X160594188Y-140924482D01*
X160630498Y-141044180D01*
X160689463Y-141154494D01*
X160768815Y-141251185D01*
X160865506Y-141330537D01*
X160975820Y-141389502D01*
X161095518Y-141425812D01*
X161220000Y-141438072D01*
X163220000Y-141438072D01*
X163344482Y-141425812D01*
X163464180Y-141389502D01*
X163574494Y-141330537D01*
X163671185Y-141251185D01*
X163750537Y-141154494D01*
X163809502Y-141044180D01*
X163845812Y-140924482D01*
X163858072Y-140800000D01*
X163858072Y-138800000D01*
X163845812Y-138675518D01*
X163809502Y-138555820D01*
X163750537Y-138445506D01*
X163671185Y-138348815D01*
X163574494Y-138269463D01*
X163464180Y-138210498D01*
X163344482Y-138174188D01*
X163220000Y-138161928D01*
X163005000Y-138161928D01*
X163005000Y-137632611D01*
X163097237Y-137540374D01*
X163210505Y-137370856D01*
X163288526Y-137182498D01*
X163328300Y-136982539D01*
X163328300Y-136778661D01*
X163288526Y-136578702D01*
X163210505Y-136390344D01*
X163097237Y-136220826D01*
X162953074Y-136076663D01*
X162783556Y-135963395D01*
X162595198Y-135885374D01*
X162395239Y-135845600D01*
X162191361Y-135845600D01*
X161991402Y-135885374D01*
X161803044Y-135963395D01*
X161633526Y-136076663D01*
X161489363Y-136220826D01*
X161376095Y-136390344D01*
X161298074Y-136578702D01*
X161258300Y-136778661D01*
X161258300Y-136982539D01*
X161298074Y-137182498D01*
X161376095Y-137370856D01*
X161435001Y-137459015D01*
X161435001Y-138161928D01*
X161220000Y-138161928D01*
X161095518Y-138174188D01*
X160975820Y-138210498D01*
X160865506Y-138269463D01*
X160768815Y-138348815D01*
X160689463Y-138445506D01*
X160630498Y-138555820D01*
X160594188Y-138675518D01*
X160581928Y-138800000D01*
X153038557Y-138800000D01*
X160482810Y-131355747D01*
X160512764Y-131331164D01*
X160610862Y-131211633D01*
X160683754Y-131075260D01*
X160689341Y-131056841D01*
X160728642Y-130927287D01*
X160737944Y-130832836D01*
X160740000Y-130811961D01*
X160740000Y-130811956D01*
X160743797Y-130773400D01*
X160742923Y-130764521D01*
X160901632Y-130658475D01*
X161108475Y-130451632D01*
X161225000Y-130277240D01*
X161341525Y-130451632D01*
X161548368Y-130658475D01*
X161791589Y-130820990D01*
X162061842Y-130932932D01*
X162348740Y-130990000D01*
X162641260Y-130990000D01*
X162928158Y-130932932D01*
X163198411Y-130820990D01*
X163441632Y-130658475D01*
X163648475Y-130451632D01*
X163756474Y-130290000D01*
X164473143Y-130290000D01*
X165305601Y-131122459D01*
X165305600Y-135381547D01*
X165301803Y-135420100D01*
X165305600Y-135458653D01*
X165305600Y-135458660D01*
X165316959Y-135573986D01*
X165361846Y-135721959D01*
X165434738Y-135858332D01*
X165532836Y-135977864D01*
X165562790Y-136002447D01*
X166923153Y-137362810D01*
X166947736Y-137392764D01*
X167067267Y-137490862D01*
X167169560Y-137545538D01*
X167203640Y-137563754D01*
X167351613Y-137608642D01*
X167426526Y-137616020D01*
X167466939Y-137620000D01*
X167466944Y-137620000D01*
X167505500Y-137623797D01*
X167544056Y-137620000D01*
X168248968Y-137620000D01*
X168283844Y-137704199D01*
X168484662Y-138004744D01*
X168740256Y-138260338D01*
X169040801Y-138461156D01*
X169130574Y-138498341D01*
X168710000Y-138496928D01*
X168585518Y-138509188D01*
X168465820Y-138545498D01*
X168355506Y-138604463D01*
X168258815Y-138683815D01*
X168179463Y-138780506D01*
X168120498Y-138890820D01*
X168084188Y-139010518D01*
X168071928Y-139135000D01*
X168075000Y-140049250D01*
X168233750Y-140208000D01*
X169783000Y-140208000D01*
X169783000Y-140188000D01*
X170037000Y-140188000D01*
X170037000Y-140208000D01*
X171586250Y-140208000D01*
X171745000Y-140049250D01*
X171748072Y-139135000D01*
X171735812Y-139010518D01*
X171699502Y-138890820D01*
X171640537Y-138780506D01*
X171561185Y-138683815D01*
X171464494Y-138604463D01*
X171354180Y-138545498D01*
X171234482Y-138509188D01*
X171110000Y-138496928D01*
X170689426Y-138498341D01*
X170779199Y-138461156D01*
X171079744Y-138260338D01*
X171335338Y-138004744D01*
X171536156Y-137704199D01*
X171674482Y-137370250D01*
X171745000Y-137015732D01*
X171745000Y-136654268D01*
X171674482Y-136299750D01*
X171536156Y-135965801D01*
X171335338Y-135665256D01*
X171079744Y-135409662D01*
X170779199Y-135208844D01*
X170480213Y-135085000D01*
X170779199Y-134961156D01*
X171079744Y-134760338D01*
X171335338Y-134504744D01*
X171536156Y-134204199D01*
X171674482Y-133870250D01*
X171745000Y-133515732D01*
X171745000Y-133154268D01*
X171674482Y-132799750D01*
X171536156Y-132465801D01*
X171335338Y-132165256D01*
X171079744Y-131909662D01*
X170779199Y-131708844D01*
X170445250Y-131570518D01*
X170090732Y-131500000D01*
X169729268Y-131500000D01*
X169374750Y-131570518D01*
X169040801Y-131708844D01*
X168740256Y-131909662D01*
X168488588Y-132161331D01*
X168412300Y-132085043D01*
X168412300Y-129108655D01*
X168416097Y-129070100D01*
X168412300Y-129031544D01*
X168412300Y-129031539D01*
X168406569Y-128973354D01*
X168400942Y-128916213D01*
X168356054Y-128768240D01*
X168326338Y-128712645D01*
X168283162Y-128631867D01*
X168214382Y-128548059D01*
X168209645Y-128542287D01*
X168209642Y-128542284D01*
X168185064Y-128512336D01*
X168155116Y-128487758D01*
X166104546Y-126437189D01*
X166079964Y-126407236D01*
X165960433Y-126309138D01*
X165824060Y-126236246D01*
X165676087Y-126191359D01*
X165560761Y-126180000D01*
X165560753Y-126180000D01*
X165522200Y-126176203D01*
X165483647Y-126180000D01*
X163756474Y-126180000D01*
X163648475Y-126018368D01*
X163441632Y-125811525D01*
X163267240Y-125695000D01*
X163441632Y-125578475D01*
X163648475Y-125371632D01*
X163810990Y-125128411D01*
X163922932Y-124858158D01*
X163980000Y-124571260D01*
X163980000Y-124289721D01*
X167365000Y-124289721D01*
X167365000Y-124710279D01*
X167447047Y-125122756D01*
X167607988Y-125511302D01*
X167841637Y-125860983D01*
X168139017Y-126158363D01*
X168488698Y-126392012D01*
X168877244Y-126552953D01*
X169289721Y-126635000D01*
X169710279Y-126635000D01*
X170122756Y-126552953D01*
X170511302Y-126392012D01*
X170860983Y-126158363D01*
X171158363Y-125860983D01*
X171392012Y-125511302D01*
X171552953Y-125122756D01*
X171635000Y-124710279D01*
X171635000Y-124289721D01*
X171552953Y-123877244D01*
X171392012Y-123488698D01*
X171158363Y-123139017D01*
X170860983Y-122841637D01*
X170511302Y-122607988D01*
X170122756Y-122447047D01*
X169710279Y-122365000D01*
X169289721Y-122365000D01*
X168877244Y-122447047D01*
X168488698Y-122607988D01*
X168139017Y-122841637D01*
X167841637Y-123139017D01*
X167607988Y-123488698D01*
X167447047Y-123877244D01*
X167365000Y-124289721D01*
X163980000Y-124289721D01*
X163980000Y-124278740D01*
X163929167Y-124023190D01*
X168091611Y-119860746D01*
X168121564Y-119836164D01*
X168219662Y-119716633D01*
X168292554Y-119580260D01*
X168315554Y-119504440D01*
X168337442Y-119432287D01*
X168347018Y-119335054D01*
X168348800Y-119316961D01*
X168348800Y-119316956D01*
X168352597Y-119278400D01*
X168348800Y-119239844D01*
X168348800Y-117125034D01*
X168355506Y-117130537D01*
X168465820Y-117189502D01*
X168585518Y-117225812D01*
X168710000Y-117238072D01*
X171110000Y-117238072D01*
X171234482Y-117225812D01*
X171354180Y-117189502D01*
X171464494Y-117130537D01*
X171561185Y-117051185D01*
X171640537Y-116954494D01*
X171699502Y-116844180D01*
X171735812Y-116724482D01*
X171748072Y-116600000D01*
X171748072Y-114200000D01*
X171735812Y-114075518D01*
X171699502Y-113955820D01*
X171640537Y-113845506D01*
X171561185Y-113748815D01*
X171464494Y-113669463D01*
X171354180Y-113610498D01*
X171234482Y-113574188D01*
X171110000Y-113561928D01*
X170692838Y-113561928D01*
X170779199Y-113526156D01*
X171079744Y-113325338D01*
X171335338Y-113069744D01*
X171536156Y-112769199D01*
X171674482Y-112435250D01*
X171745000Y-112080732D01*
X171745000Y-111719268D01*
X171674482Y-111364750D01*
X171536156Y-111030801D01*
X171335338Y-110730256D01*
X171079744Y-110474662D01*
X170779199Y-110273844D01*
X170480213Y-110150000D01*
X170779199Y-110026156D01*
X171079744Y-109825338D01*
X171335338Y-109569744D01*
X171536156Y-109269199D01*
X171674482Y-108935250D01*
X171745000Y-108580732D01*
X171745000Y-108219268D01*
X171674482Y-107864750D01*
X171536156Y-107530801D01*
X171335338Y-107230256D01*
X171079744Y-106974662D01*
X170821176Y-106801892D01*
X172819415Y-106817814D01*
X172837316Y-106823631D01*
X173829102Y-107061738D01*
X173931393Y-107077939D01*
X174340000Y-107110097D01*
X174340001Y-141889903D01*
X173931393Y-141922061D01*
X173829102Y-141938262D01*
X173101267Y-142113000D01*
X171375698Y-142113000D01*
X171464494Y-142065537D01*
X171561185Y-141986185D01*
X171640537Y-141889494D01*
X171699502Y-141779180D01*
X171735812Y-141659482D01*
X171748072Y-141535000D01*
X171745000Y-140620750D01*
X171586250Y-140462000D01*
X170037000Y-140462000D01*
X170037000Y-140482000D01*
X169783000Y-140482000D01*
X169783000Y-140462000D01*
X168233750Y-140462000D01*
X168075000Y-140620750D01*
X168071928Y-141535000D01*
X168084188Y-141659482D01*
X168120498Y-141779180D01*
X168179463Y-141889494D01*
X168258815Y-141986185D01*
X168355506Y-142065537D01*
X168444302Y-142113000D01*
X167640000Y-142113000D01*
X167615224Y-142115440D01*
X167591399Y-142122667D01*
X167569443Y-142134403D01*
X167550197Y-142150197D01*
X167534403Y-142169443D01*
X167522667Y-142191399D01*
X167515440Y-142215224D01*
X167513000Y-142240000D01*
X167513000Y-148340000D01*
X107670600Y-148340000D01*
X107670600Y-144289721D01*
X110365000Y-144289721D01*
X110365000Y-144710279D01*
X110447047Y-145122756D01*
X110607988Y-145511302D01*
X110841637Y-145860983D01*
X111139017Y-146158363D01*
X111488698Y-146392012D01*
X111877244Y-146552953D01*
X112289721Y-146635000D01*
X112710279Y-146635000D01*
X113122756Y-146552953D01*
X113511302Y-146392012D01*
X113860983Y-146158363D01*
X114158363Y-145860983D01*
X114331109Y-145602449D01*
X157515000Y-145602449D01*
X157515000Y-145987551D01*
X157590130Y-146365252D01*
X157737502Y-146721040D01*
X157951453Y-147041240D01*
X158223760Y-147313547D01*
X158543960Y-147527498D01*
X158899748Y-147674870D01*
X159277449Y-147750000D01*
X159662551Y-147750000D01*
X160040252Y-147674870D01*
X160396040Y-147527498D01*
X160716240Y-147313547D01*
X160988547Y-147041240D01*
X161202498Y-146721040D01*
X161349870Y-146365252D01*
X161425000Y-145987551D01*
X161425000Y-145602449D01*
X161349870Y-145224748D01*
X161202498Y-144868960D01*
X160988547Y-144548760D01*
X160716240Y-144276453D01*
X160396040Y-144062502D01*
X160040252Y-143915130D01*
X159662551Y-143840000D01*
X159277449Y-143840000D01*
X158899748Y-143915130D01*
X158543960Y-144062502D01*
X158223760Y-144276453D01*
X157951453Y-144548760D01*
X157737502Y-144868960D01*
X157590130Y-145224748D01*
X157515000Y-145602449D01*
X114331109Y-145602449D01*
X114392012Y-145511302D01*
X114552953Y-145122756D01*
X114635000Y-144710279D01*
X114635000Y-144289721D01*
X114552953Y-143877244D01*
X114392012Y-143488698D01*
X114158363Y-143139017D01*
X113860983Y-142841637D01*
X113511302Y-142607988D01*
X113122756Y-142447047D01*
X112710279Y-142365000D01*
X112289721Y-142365000D01*
X111877244Y-142447047D01*
X111488698Y-142607988D01*
X111139017Y-142841637D01*
X110841637Y-143139017D01*
X110607988Y-143488698D01*
X110447047Y-143877244D01*
X110365000Y-144289721D01*
X107670600Y-144289721D01*
X107670600Y-142214600D01*
X107668160Y-142189824D01*
X107660933Y-142165999D01*
X107649197Y-142144043D01*
X107633403Y-142124797D01*
X107614157Y-142109003D01*
X107592201Y-142097267D01*
X107568376Y-142090040D01*
X107543600Y-142087600D01*
X101792935Y-142087600D01*
X101170898Y-141938262D01*
X101068607Y-141922061D01*
X100660000Y-141889903D01*
X100660000Y-140935413D01*
X109274192Y-140935413D01*
X109369956Y-141199814D01*
X109659571Y-141340704D01*
X109971108Y-141422384D01*
X110292595Y-141441718D01*
X110611675Y-141397961D01*
X110916088Y-141292795D01*
X111090044Y-141199814D01*
X111185808Y-140935413D01*
X110230000Y-139979605D01*
X109274192Y-140935413D01*
X100660000Y-140935413D01*
X100660000Y-139862595D01*
X108588282Y-139862595D01*
X108632039Y-140181675D01*
X108737205Y-140486088D01*
X108830186Y-140660044D01*
X109094587Y-140755808D01*
X110050395Y-139800000D01*
X110409605Y-139800000D01*
X111365413Y-140755808D01*
X111629814Y-140660044D01*
X111770704Y-140370429D01*
X111852384Y-140058892D01*
X111871718Y-139737405D01*
X111827961Y-139418325D01*
X111722795Y-139113912D01*
X111629814Y-138939956D01*
X111365413Y-138844192D01*
X110409605Y-139800000D01*
X110050395Y-139800000D01*
X109094587Y-138844192D01*
X108830186Y-138939956D01*
X108689296Y-139229571D01*
X108607616Y-139541108D01*
X108588282Y-139862595D01*
X100660000Y-139862595D01*
X100660000Y-138664587D01*
X109274192Y-138664587D01*
X110230000Y-139620395D01*
X111185808Y-138664587D01*
X111090044Y-138400186D01*
X110800429Y-138259296D01*
X110488892Y-138177616D01*
X110167405Y-138158282D01*
X109848325Y-138202039D01*
X109543912Y-138307205D01*
X109369956Y-138400186D01*
X109274192Y-138664587D01*
X100660000Y-138664587D01*
X100660000Y-124289721D01*
X103365000Y-124289721D01*
X103365000Y-124710279D01*
X103447047Y-125122756D01*
X103607988Y-125511302D01*
X103841637Y-125860983D01*
X104139017Y-126158363D01*
X104488698Y-126392012D01*
X104877244Y-126552953D01*
X105289721Y-126635000D01*
X105710279Y-126635000D01*
X106122756Y-126552953D01*
X106511302Y-126392012D01*
X106860983Y-126158363D01*
X107158363Y-125860983D01*
X107392012Y-125511302D01*
X107552953Y-125122756D01*
X107635000Y-124710279D01*
X107635000Y-124289721D01*
X107552953Y-123877244D01*
X107392012Y-123488698D01*
X107158363Y-123139017D01*
X106860983Y-122841637D01*
X106511302Y-122607988D01*
X106122756Y-122447047D01*
X105710279Y-122365000D01*
X105289721Y-122365000D01*
X104877244Y-122447047D01*
X104488698Y-122607988D01*
X104139017Y-122841637D01*
X103841637Y-123139017D01*
X103607988Y-123488698D01*
X103447047Y-123877244D01*
X103365000Y-124289721D01*
X100660000Y-124289721D01*
X100660000Y-107110097D01*
X101068607Y-107077939D01*
X101170898Y-107061738D01*
X101370467Y-107013826D01*
X107466946Y-107035599D01*
X107491731Y-107033247D01*
X107515581Y-107026106D01*
X107537580Y-107014448D01*
X107556881Y-106998723D01*
X107572744Y-106979534D01*
X107584558Y-106957620D01*
X107591870Y-106933821D01*
X107594400Y-106908600D01*
X107594400Y-100660000D01*
X167889903Y-100660000D01*
X167922061Y-101068607D01*
G36*
X112931588Y-114651818D02*
G01*
X112919328Y-114776300D01*
X112919328Y-116076300D01*
X112931588Y-116200782D01*
X112967898Y-116320480D01*
X113026863Y-116430794D01*
X113106215Y-116527485D01*
X113202906Y-116606837D01*
X113313220Y-116665802D01*
X113432918Y-116702112D01*
X113557400Y-116714372D01*
X114457400Y-116714372D01*
X114581882Y-116702112D01*
X114607400Y-116694371D01*
X114632918Y-116702112D01*
X114757400Y-116714372D01*
X115657400Y-116714372D01*
X115781882Y-116702112D01*
X115807400Y-116694371D01*
X115832918Y-116702112D01*
X115957400Y-116714372D01*
X116857400Y-116714372D01*
X116981882Y-116702112D01*
X117007400Y-116694371D01*
X117032918Y-116702112D01*
X117157400Y-116714372D01*
X118057400Y-116714372D01*
X118181882Y-116702112D01*
X118207400Y-116694371D01*
X118232918Y-116702112D01*
X118357400Y-116714372D01*
X119257400Y-116714372D01*
X119381882Y-116702112D01*
X119407400Y-116694371D01*
X119432918Y-116702112D01*
X119557400Y-116714372D01*
X120457400Y-116714372D01*
X120581882Y-116702112D01*
X120607400Y-116694371D01*
X120632918Y-116702112D01*
X120757400Y-116714372D01*
X121657400Y-116714372D01*
X121781882Y-116702112D01*
X121807400Y-116694371D01*
X121832918Y-116702112D01*
X121957400Y-116714372D01*
X122857400Y-116714372D01*
X122981882Y-116702112D01*
X123007400Y-116694371D01*
X123032918Y-116702112D01*
X123157400Y-116714372D01*
X124057400Y-116714372D01*
X124181882Y-116702112D01*
X124207400Y-116694371D01*
X124232918Y-116702112D01*
X124357400Y-116714372D01*
X125257400Y-116714372D01*
X125381882Y-116702112D01*
X125407400Y-116694371D01*
X125432918Y-116702112D01*
X125557400Y-116714372D01*
X126457400Y-116714372D01*
X126581882Y-116702112D01*
X126607400Y-116694371D01*
X126632918Y-116702112D01*
X126757400Y-116714372D01*
X127657400Y-116714372D01*
X127781882Y-116702112D01*
X127807400Y-116694371D01*
X127832918Y-116702112D01*
X127957400Y-116714372D01*
X128121650Y-116711300D01*
X128280400Y-116552550D01*
X128280400Y-116210052D01*
X128283212Y-116200782D01*
X128295472Y-116076300D01*
X128295472Y-115553300D01*
X128534400Y-115553300D01*
X128534400Y-116552550D01*
X128693150Y-116711300D01*
X128857400Y-116714372D01*
X128981882Y-116702112D01*
X129101580Y-116665802D01*
X129211894Y-116606837D01*
X129308585Y-116527485D01*
X129387937Y-116430794D01*
X129446902Y-116320480D01*
X129483212Y-116200782D01*
X129495472Y-116076300D01*
X129492400Y-115712050D01*
X129333650Y-115553300D01*
X128534400Y-115553300D01*
X128295472Y-115553300D01*
X128295472Y-115279300D01*
X128534400Y-115279300D01*
X128534400Y-115299300D01*
X129333650Y-115299300D01*
X129492400Y-115140550D01*
X129495472Y-114776300D01*
X129490853Y-114729400D01*
X135425143Y-114729400D01*
X136310000Y-115614258D01*
X136310001Y-118083526D01*
X136148368Y-118191525D01*
X135941525Y-118398368D01*
X135779010Y-118641589D01*
X135667068Y-118911842D01*
X135610000Y-119198740D01*
X135610000Y-119491260D01*
X135667068Y-119778158D01*
X135779010Y-120048411D01*
X135941525Y-120291632D01*
X136148368Y-120498475D01*
X136330534Y-120620195D01*
X136213645Y-120689822D01*
X135997412Y-120884731D01*
X135823359Y-121118080D01*
X135698175Y-121380901D01*
X135653524Y-121528110D01*
X135721976Y-121657819D01*
X135682647Y-121618490D01*
X135658064Y-121588536D01*
X135538533Y-121490438D01*
X135402160Y-121417546D01*
X135364505Y-121406123D01*
X135365472Y-121396300D01*
X135362400Y-121232050D01*
X135203650Y-121073300D01*
X134861152Y-121073300D01*
X134851882Y-121070488D01*
X134727400Y-121058228D01*
X133427400Y-121058228D01*
X133302918Y-121070488D01*
X133293648Y-121073300D01*
X132951150Y-121073300D01*
X132792400Y-121232050D01*
X132789328Y-121396300D01*
X132801588Y-121520782D01*
X132809329Y-121546300D01*
X132801588Y-121571818D01*
X132789328Y-121696300D01*
X132789328Y-122596300D01*
X132801588Y-122720782D01*
X132809329Y-122746300D01*
X132801588Y-122771818D01*
X132789328Y-122896300D01*
X132789328Y-123796300D01*
X132801588Y-123920782D01*
X132809329Y-123946300D01*
X132801588Y-123971818D01*
X132789328Y-124096300D01*
X132789328Y-124996300D01*
X132801588Y-125120782D01*
X132809329Y-125146300D01*
X132801588Y-125171818D01*
X132789328Y-125296300D01*
X132792400Y-125460550D01*
X132951150Y-125619300D01*
X133293648Y-125619300D01*
X133302918Y-125622112D01*
X133427400Y-125634372D01*
X134224400Y-125634372D01*
X134224400Y-125858228D01*
X133427400Y-125858228D01*
X133302918Y-125870488D01*
X133293648Y-125873300D01*
X132951150Y-125873300D01*
X132792400Y-126032050D01*
X132789328Y-126196300D01*
X132801588Y-126320782D01*
X132809329Y-126346300D01*
X132801588Y-126371818D01*
X132789328Y-126496300D01*
X132789328Y-127396300D01*
X132801588Y-127520782D01*
X132809329Y-127546300D01*
X132801588Y-127571818D01*
X132789328Y-127696300D01*
X132789328Y-128596300D01*
X132801588Y-128720782D01*
X132837898Y-128840480D01*
X132896863Y-128950794D01*
X132976215Y-129047485D01*
X133072906Y-129126837D01*
X133183220Y-129185802D01*
X133302918Y-129222112D01*
X133427400Y-129234372D01*
X134727400Y-129234372D01*
X134851882Y-129222112D01*
X134971580Y-129185802D01*
X135081894Y-129126837D01*
X135178585Y-129047485D01*
X135257937Y-128950794D01*
X135268357Y-128931300D01*
X135725282Y-128931300D01*
X135667068Y-129071842D01*
X135610000Y-129358740D01*
X135610000Y-129651260D01*
X135667068Y-129938158D01*
X135779010Y-130208411D01*
X135941525Y-130451632D01*
X136148368Y-130658475D01*
X136302706Y-130761600D01*
X131995472Y-130761600D01*
X131995472Y-129466300D01*
X131983212Y-129341818D01*
X131946902Y-129222120D01*
X131887937Y-129111806D01*
X131808585Y-129015115D01*
X131711894Y-128935763D01*
X131601580Y-128876798D01*
X131481882Y-128840488D01*
X131357400Y-128828228D01*
X130457400Y-128828228D01*
X130332918Y-128840488D01*
X130307400Y-128848229D01*
X130281882Y-128840488D01*
X130157400Y-128828228D01*
X129257400Y-128828228D01*
X129132918Y-128840488D01*
X129107400Y-128848229D01*
X129081882Y-128840488D01*
X128957400Y-128828228D01*
X128057400Y-128828228D01*
X127932918Y-128840488D01*
X127907400Y-128848229D01*
X127881882Y-128840488D01*
X127757400Y-128828228D01*
X126857400Y-128828228D01*
X126732918Y-128840488D01*
X126707400Y-128848229D01*
X126681882Y-128840488D01*
X126557400Y-128828228D01*
X125657400Y-128828228D01*
X125532918Y-128840488D01*
X125507400Y-128848229D01*
X125481882Y-128840488D01*
X125357400Y-128828228D01*
X124457400Y-128828228D01*
X124332918Y-128840488D01*
X124307400Y-128848229D01*
X124281882Y-128840488D01*
X124157400Y-128828228D01*
X123257400Y-128828228D01*
X123132918Y-128840488D01*
X123107400Y-128848229D01*
X123081882Y-128840488D01*
X122957400Y-128828228D01*
X122057400Y-128828228D01*
X121932918Y-128840488D01*
X121907400Y-128848229D01*
X121881882Y-128840488D01*
X121757400Y-128828228D01*
X120857400Y-128828228D01*
X120732918Y-128840488D01*
X120707400Y-128848229D01*
X120681882Y-128840488D01*
X120557400Y-128828228D01*
X119657400Y-128828228D01*
X119532918Y-128840488D01*
X119507400Y-128848229D01*
X119481882Y-128840488D01*
X119357400Y-128828228D01*
X118457400Y-128828228D01*
X118332918Y-128840488D01*
X118307400Y-128848229D01*
X118281882Y-128840488D01*
X118157400Y-128828228D01*
X117257400Y-128828228D01*
X117132918Y-128840488D01*
X117107400Y-128848229D01*
X117081882Y-128840488D01*
X116957400Y-128828228D01*
X116057400Y-128828228D01*
X115932918Y-128840488D01*
X115813220Y-128876798D01*
X115702906Y-128935763D01*
X115606215Y-129015115D01*
X115526863Y-129111806D01*
X115467898Y-129222120D01*
X115431588Y-129341818D01*
X115419328Y-129466300D01*
X115419328Y-130766300D01*
X115431588Y-130890782D01*
X115467898Y-131010480D01*
X115526863Y-131120794D01*
X115606215Y-131217485D01*
X115702906Y-131296837D01*
X115813220Y-131355802D01*
X115932918Y-131392112D01*
X116057400Y-131404372D01*
X116922401Y-131404372D01*
X116922401Y-131702338D01*
X116918603Y-131740900D01*
X116933759Y-131894786D01*
X116978646Y-132042759D01*
X117010489Y-132102333D01*
X117051539Y-132179133D01*
X117082560Y-132216932D01*
X117125055Y-132268712D01*
X117125059Y-132268716D01*
X117149637Y-132298664D01*
X117179585Y-132323242D01*
X122272743Y-137416400D01*
X120429058Y-137416400D01*
X119162247Y-136149590D01*
X119137664Y-136119636D01*
X119018133Y-136021538D01*
X118881760Y-135948646D01*
X118733787Y-135903759D01*
X118618461Y-135892400D01*
X118618453Y-135892400D01*
X118579900Y-135888603D01*
X118541347Y-135892400D01*
X112707458Y-135892400D01*
X112519837Y-135704779D01*
X112797449Y-135760000D01*
X113182551Y-135760000D01*
X113560252Y-135684870D01*
X113916040Y-135537498D01*
X114236240Y-135323547D01*
X114508547Y-135051240D01*
X114722498Y-134731040D01*
X114869870Y-134375252D01*
X114945000Y-133997551D01*
X114945000Y-133612449D01*
X114869870Y-133234748D01*
X114722498Y-132878960D01*
X114508547Y-132558760D01*
X114236240Y-132286453D01*
X113916040Y-132072502D01*
X113560252Y-131925130D01*
X113182551Y-131850000D01*
X112797449Y-131850000D01*
X112419748Y-131925130D01*
X112063960Y-132072502D01*
X111743760Y-132286453D01*
X111471453Y-132558760D01*
X111257502Y-132878960D01*
X111110130Y-133234748D01*
X111035000Y-133612449D01*
X111035000Y-133997551D01*
X111090221Y-134275164D01*
X110703500Y-133888443D01*
X110703500Y-129294236D01*
X111051650Y-129291300D01*
X111210400Y-129132550D01*
X111210400Y-128333300D01*
X111464400Y-128333300D01*
X111464400Y-129132550D01*
X111623150Y-129291300D01*
X111987400Y-129294372D01*
X112111882Y-129282112D01*
X112231580Y-129245802D01*
X112341894Y-129186837D01*
X112438585Y-129107485D01*
X112517937Y-129010794D01*
X112576902Y-128900480D01*
X112613212Y-128780782D01*
X112625472Y-128656300D01*
X112622400Y-128492050D01*
X112463650Y-128333300D01*
X111464400Y-128333300D01*
X111210400Y-128333300D01*
X111190400Y-128333300D01*
X111190400Y-128094372D01*
X111987400Y-128094372D01*
X112111882Y-128082112D01*
X112121152Y-128079300D01*
X112463650Y-128079300D01*
X112622400Y-127920550D01*
X112625472Y-127756300D01*
X112613212Y-127631818D01*
X112605471Y-127606300D01*
X112613212Y-127580782D01*
X112625472Y-127456300D01*
X112625472Y-126556300D01*
X112613212Y-126431818D01*
X112605471Y-126406300D01*
X112613212Y-126380782D01*
X112625472Y-126256300D01*
X112625472Y-125356300D01*
X112613212Y-125231818D01*
X112605471Y-125206300D01*
X112613212Y-125180782D01*
X112625472Y-125056300D01*
X112622400Y-124892050D01*
X112463650Y-124733300D01*
X112121152Y-124733300D01*
X112111882Y-124730488D01*
X111987400Y-124718228D01*
X110687400Y-124718228D01*
X110562918Y-124730488D01*
X110553648Y-124733300D01*
X110211150Y-124733300D01*
X110052400Y-124892050D01*
X110049328Y-125056300D01*
X110051902Y-125082431D01*
X110005000Y-125107500D01*
X110005000Y-124404157D01*
X110070504Y-124338654D01*
X110211150Y-124479300D01*
X110553648Y-124479300D01*
X110562918Y-124482112D01*
X110687400Y-124494372D01*
X111987400Y-124494372D01*
X112111882Y-124482112D01*
X112121152Y-124479300D01*
X112463650Y-124479300D01*
X112622400Y-124320550D01*
X112625472Y-124156300D01*
X112613212Y-124031818D01*
X112605471Y-124006300D01*
X112613212Y-123980782D01*
X112625472Y-123856300D01*
X112625472Y-122956300D01*
X112613212Y-122831818D01*
X112605471Y-122806300D01*
X112613212Y-122780782D01*
X112625472Y-122656300D01*
X112625472Y-121756300D01*
X112613212Y-121631818D01*
X112605471Y-121606300D01*
X112613212Y-121580782D01*
X112625472Y-121456300D01*
X112625472Y-120556300D01*
X112613212Y-120431818D01*
X112605471Y-120406300D01*
X112613212Y-120380782D01*
X112625472Y-120256300D01*
X112625472Y-119356300D01*
X112613212Y-119231818D01*
X112605471Y-119206300D01*
X112613212Y-119180782D01*
X112625472Y-119056300D01*
X112625472Y-118156300D01*
X112613212Y-118031818D01*
X112605471Y-118006300D01*
X112613212Y-117980782D01*
X112625472Y-117856300D01*
X112624350Y-117796300D01*
X132789328Y-117796300D01*
X132801588Y-117920782D01*
X132809329Y-117946300D01*
X132801588Y-117971818D01*
X132789328Y-118096300D01*
X132789328Y-118996300D01*
X132801588Y-119120782D01*
X132809329Y-119146300D01*
X132801588Y-119171818D01*
X132789328Y-119296300D01*
X132789328Y-120196300D01*
X132801588Y-120320782D01*
X132809329Y-120346300D01*
X132801588Y-120371818D01*
X132789328Y-120496300D01*
X132792400Y-120660550D01*
X132951150Y-120819300D01*
X133293648Y-120819300D01*
X133302918Y-120822112D01*
X133427400Y-120834372D01*
X134727400Y-120834372D01*
X134851882Y-120822112D01*
X134861152Y-120819300D01*
X135203650Y-120819300D01*
X135362400Y-120660550D01*
X135365472Y-120496300D01*
X135353212Y-120371818D01*
X135345471Y-120346300D01*
X135353212Y-120320782D01*
X135365472Y-120196300D01*
X135365472Y-119296300D01*
X135353212Y-119171818D01*
X135345471Y-119146300D01*
X135353212Y-119120782D01*
X135365472Y-118996300D01*
X135365472Y-118096300D01*
X135353212Y-117971818D01*
X135345471Y-117946300D01*
X135353212Y-117920782D01*
X135365472Y-117796300D01*
X135362400Y-117632050D01*
X135203650Y-117473300D01*
X134861152Y-117473300D01*
X134851882Y-117470488D01*
X134727400Y-117458228D01*
X133427400Y-117458228D01*
X133302918Y-117470488D01*
X133293648Y-117473300D01*
X132951150Y-117473300D01*
X132792400Y-117632050D01*
X132789328Y-117796300D01*
X112624350Y-117796300D01*
X112622400Y-117692050D01*
X112463650Y-117533300D01*
X112121152Y-117533300D01*
X112111882Y-117530488D01*
X111987400Y-117518228D01*
X111190400Y-117518228D01*
X111190400Y-117279300D01*
X111210400Y-117279300D01*
X111210400Y-116480050D01*
X111464400Y-116480050D01*
X111464400Y-117279300D01*
X112463650Y-117279300D01*
X112622400Y-117120550D01*
X112625472Y-116956300D01*
X112619563Y-116896300D01*
X132789328Y-116896300D01*
X132792400Y-117060550D01*
X132951150Y-117219300D01*
X133950400Y-117219300D01*
X133950400Y-116420050D01*
X134204400Y-116420050D01*
X134204400Y-117219300D01*
X135203650Y-117219300D01*
X135362400Y-117060550D01*
X135365472Y-116896300D01*
X135353212Y-116771818D01*
X135316902Y-116652120D01*
X135257937Y-116541806D01*
X135178585Y-116445115D01*
X135081894Y-116365763D01*
X134971580Y-116306798D01*
X134851882Y-116270488D01*
X134727400Y-116258228D01*
X134363150Y-116261300D01*
X134204400Y-116420050D01*
X133950400Y-116420050D01*
X133791650Y-116261300D01*
X133427400Y-116258228D01*
X133302918Y-116270488D01*
X133183220Y-116306798D01*
X133072906Y-116365763D01*
X132976215Y-116445115D01*
X132896863Y-116541806D01*
X132837898Y-116652120D01*
X132801588Y-116771818D01*
X132789328Y-116896300D01*
X112619563Y-116896300D01*
X112613212Y-116831818D01*
X112576902Y-116712120D01*
X112517937Y-116601806D01*
X112438585Y-116505115D01*
X112341894Y-116425763D01*
X112231580Y-116366798D01*
X112111882Y-116330488D01*
X111987400Y-116318228D01*
X111623150Y-116321300D01*
X111464400Y-116480050D01*
X111210400Y-116480050D01*
X111051650Y-116321300D01*
X110687400Y-116318228D01*
X110562918Y-116330488D01*
X110443220Y-116366798D01*
X110332906Y-116425763D01*
X110259000Y-116486416D01*
X110259000Y-114917257D01*
X110548458Y-114627800D01*
X112559647Y-114627800D01*
X112598200Y-114631597D01*
X112636753Y-114627800D01*
X112636761Y-114627800D01*
X112752087Y-114616441D01*
X112900060Y-114571554D01*
X112966749Y-114535909D01*
X112931588Y-114651818D01*
G37*
X112931588Y-114651818D02*
X112919328Y-114776300D01*
X112919328Y-116076300D01*
X112931588Y-116200782D01*
X112967898Y-116320480D01*
X113026863Y-116430794D01*
X113106215Y-116527485D01*
X113202906Y-116606837D01*
X113313220Y-116665802D01*
X113432918Y-116702112D01*
X113557400Y-116714372D01*
X114457400Y-116714372D01*
X114581882Y-116702112D01*
X114607400Y-116694371D01*
X114632918Y-116702112D01*
X114757400Y-116714372D01*
X115657400Y-116714372D01*
X115781882Y-116702112D01*
X115807400Y-116694371D01*
X115832918Y-116702112D01*
X115957400Y-116714372D01*
X116857400Y-116714372D01*
X116981882Y-116702112D01*
X117007400Y-116694371D01*
X117032918Y-116702112D01*
X117157400Y-116714372D01*
X118057400Y-116714372D01*
X118181882Y-116702112D01*
X118207400Y-116694371D01*
X118232918Y-116702112D01*
X118357400Y-116714372D01*
X119257400Y-116714372D01*
X119381882Y-116702112D01*
X119407400Y-116694371D01*
X119432918Y-116702112D01*
X119557400Y-116714372D01*
X120457400Y-116714372D01*
X120581882Y-116702112D01*
X120607400Y-116694371D01*
X120632918Y-116702112D01*
X120757400Y-116714372D01*
X121657400Y-116714372D01*
X121781882Y-116702112D01*
X121807400Y-116694371D01*
X121832918Y-116702112D01*
X121957400Y-116714372D01*
X122857400Y-116714372D01*
X122981882Y-116702112D01*
X123007400Y-116694371D01*
X123032918Y-116702112D01*
X123157400Y-116714372D01*
X124057400Y-116714372D01*
X124181882Y-116702112D01*
X124207400Y-116694371D01*
X124232918Y-116702112D01*
X124357400Y-116714372D01*
X125257400Y-116714372D01*
X125381882Y-116702112D01*
X125407400Y-116694371D01*
X125432918Y-116702112D01*
X125557400Y-116714372D01*
X126457400Y-116714372D01*
X126581882Y-116702112D01*
X126607400Y-116694371D01*
X126632918Y-116702112D01*
X126757400Y-116714372D01*
X127657400Y-116714372D01*
X127781882Y-116702112D01*
X127807400Y-116694371D01*
X127832918Y-116702112D01*
X127957400Y-116714372D01*
X128121650Y-116711300D01*
X128280400Y-116552550D01*
X128280400Y-116210052D01*
X128283212Y-116200782D01*
X128295472Y-116076300D01*
X128295472Y-115553300D01*
X128534400Y-115553300D01*
X128534400Y-116552550D01*
X128693150Y-116711300D01*
X128857400Y-116714372D01*
X128981882Y-116702112D01*
X129101580Y-116665802D01*
X129211894Y-116606837D01*
X129308585Y-116527485D01*
X129387937Y-116430794D01*
X129446902Y-116320480D01*
X129483212Y-116200782D01*
X129495472Y-116076300D01*
X129492400Y-115712050D01*
X129333650Y-115553300D01*
X128534400Y-115553300D01*
X128295472Y-115553300D01*
X128295472Y-115279300D01*
X128534400Y-115279300D01*
X128534400Y-115299300D01*
X129333650Y-115299300D01*
X129492400Y-115140550D01*
X129495472Y-114776300D01*
X129490853Y-114729400D01*
X135425143Y-114729400D01*
X136310000Y-115614258D01*
X136310001Y-118083526D01*
X136148368Y-118191525D01*
X135941525Y-118398368D01*
X135779010Y-118641589D01*
X135667068Y-118911842D01*
X135610000Y-119198740D01*
X135610000Y-119491260D01*
X135667068Y-119778158D01*
X135779010Y-120048411D01*
X135941525Y-120291632D01*
X136148368Y-120498475D01*
X136330534Y-120620195D01*
X136213645Y-120689822D01*
X135997412Y-120884731D01*
X135823359Y-121118080D01*
X135698175Y-121380901D01*
X135653524Y-121528110D01*
X135721976Y-121657819D01*
X135682647Y-121618490D01*
X135658064Y-121588536D01*
X135538533Y-121490438D01*
X135402160Y-121417546D01*
X135364505Y-121406123D01*
X135365472Y-121396300D01*
X135362400Y-121232050D01*
X135203650Y-121073300D01*
X134861152Y-121073300D01*
X134851882Y-121070488D01*
X134727400Y-121058228D01*
X133427400Y-121058228D01*
X133302918Y-121070488D01*
X133293648Y-121073300D01*
X132951150Y-121073300D01*
X132792400Y-121232050D01*
X132789328Y-121396300D01*
X132801588Y-121520782D01*
X132809329Y-121546300D01*
X132801588Y-121571818D01*
X132789328Y-121696300D01*
X132789328Y-122596300D01*
X132801588Y-122720782D01*
X132809329Y-122746300D01*
X132801588Y-122771818D01*
X132789328Y-122896300D01*
X132789328Y-123796300D01*
X132801588Y-123920782D01*
X132809329Y-123946300D01*
X132801588Y-123971818D01*
X132789328Y-124096300D01*
X132789328Y-124996300D01*
X132801588Y-125120782D01*
X132809329Y-125146300D01*
X132801588Y-125171818D01*
X132789328Y-125296300D01*
X132792400Y-125460550D01*
X132951150Y-125619300D01*
X133293648Y-125619300D01*
X133302918Y-125622112D01*
X133427400Y-125634372D01*
X134224400Y-125634372D01*
X134224400Y-125858228D01*
X133427400Y-125858228D01*
X133302918Y-125870488D01*
X133293648Y-125873300D01*
X132951150Y-125873300D01*
X132792400Y-126032050D01*
X132789328Y-126196300D01*
X132801588Y-126320782D01*
X132809329Y-126346300D01*
X132801588Y-126371818D01*
X132789328Y-126496300D01*
X132789328Y-127396300D01*
X132801588Y-127520782D01*
X132809329Y-127546300D01*
X132801588Y-127571818D01*
X132789328Y-127696300D01*
X132789328Y-128596300D01*
X132801588Y-128720782D01*
X132837898Y-128840480D01*
X132896863Y-128950794D01*
X132976215Y-129047485D01*
X133072906Y-129126837D01*
X133183220Y-129185802D01*
X133302918Y-129222112D01*
X133427400Y-129234372D01*
X134727400Y-129234372D01*
X134851882Y-129222112D01*
X134971580Y-129185802D01*
X135081894Y-129126837D01*
X135178585Y-129047485D01*
X135257937Y-128950794D01*
X135268357Y-128931300D01*
X135725282Y-128931300D01*
X135667068Y-129071842D01*
X135610000Y-129358740D01*
X135610000Y-129651260D01*
X135667068Y-129938158D01*
X135779010Y-130208411D01*
X135941525Y-130451632D01*
X136148368Y-130658475D01*
X136302706Y-130761600D01*
X131995472Y-130761600D01*
X131995472Y-129466300D01*
X131983212Y-129341818D01*
X131946902Y-129222120D01*
X131887937Y-129111806D01*
X131808585Y-129015115D01*
X131711894Y-128935763D01*
X131601580Y-128876798D01*
X131481882Y-128840488D01*
X131357400Y-128828228D01*
X130457400Y-128828228D01*
X130332918Y-128840488D01*
X130307400Y-128848229D01*
X130281882Y-128840488D01*
X130157400Y-128828228D01*
X129257400Y-128828228D01*
X129132918Y-128840488D01*
X129107400Y-128848229D01*
X129081882Y-128840488D01*
X128957400Y-128828228D01*
X128057400Y-128828228D01*
X127932918Y-128840488D01*
X127907400Y-128848229D01*
X127881882Y-128840488D01*
X127757400Y-128828228D01*
X126857400Y-128828228D01*
X126732918Y-128840488D01*
X126707400Y-128848229D01*
X126681882Y-128840488D01*
X126557400Y-128828228D01*
X125657400Y-128828228D01*
X125532918Y-128840488D01*
X125507400Y-128848229D01*
X125481882Y-128840488D01*
X125357400Y-128828228D01*
X124457400Y-128828228D01*
X124332918Y-128840488D01*
X124307400Y-128848229D01*
X124281882Y-128840488D01*
X124157400Y-128828228D01*
X123257400Y-128828228D01*
X123132918Y-128840488D01*
X123107400Y-128848229D01*
X123081882Y-128840488D01*
X122957400Y-128828228D01*
X122057400Y-128828228D01*
X121932918Y-128840488D01*
X121907400Y-128848229D01*
X121881882Y-128840488D01*
X121757400Y-128828228D01*
X120857400Y-128828228D01*
X120732918Y-128840488D01*
X120707400Y-128848229D01*
X120681882Y-128840488D01*
X120557400Y-128828228D01*
X119657400Y-128828228D01*
X119532918Y-128840488D01*
X119507400Y-128848229D01*
X119481882Y-128840488D01*
X119357400Y-128828228D01*
X118457400Y-128828228D01*
X118332918Y-128840488D01*
X118307400Y-128848229D01*
X118281882Y-128840488D01*
X118157400Y-128828228D01*
X117257400Y-128828228D01*
X117132918Y-128840488D01*
X117107400Y-128848229D01*
X117081882Y-128840488D01*
X116957400Y-128828228D01*
X116057400Y-128828228D01*
X115932918Y-128840488D01*
X115813220Y-128876798D01*
X115702906Y-128935763D01*
X115606215Y-129015115D01*
X115526863Y-129111806D01*
X115467898Y-129222120D01*
X115431588Y-129341818D01*
X115419328Y-129466300D01*
X115419328Y-130766300D01*
X115431588Y-130890782D01*
X115467898Y-131010480D01*
X115526863Y-131120794D01*
X115606215Y-131217485D01*
X115702906Y-131296837D01*
X115813220Y-131355802D01*
X115932918Y-131392112D01*
X116057400Y-131404372D01*
X116922401Y-131404372D01*
X116922401Y-131702338D01*
X116918603Y-131740900D01*
X116933759Y-131894786D01*
X116978646Y-132042759D01*
X117010489Y-132102333D01*
X117051539Y-132179133D01*
X117082560Y-132216932D01*
X117125055Y-132268712D01*
X117125059Y-132268716D01*
X117149637Y-132298664D01*
X117179585Y-132323242D01*
X122272743Y-137416400D01*
X120429058Y-137416400D01*
X119162247Y-136149590D01*
X119137664Y-136119636D01*
X119018133Y-136021538D01*
X118881760Y-135948646D01*
X118733787Y-135903759D01*
X118618461Y-135892400D01*
X118618453Y-135892400D01*
X118579900Y-135888603D01*
X118541347Y-135892400D01*
X112707458Y-135892400D01*
X112519837Y-135704779D01*
X112797449Y-135760000D01*
X113182551Y-135760000D01*
X113560252Y-135684870D01*
X113916040Y-135537498D01*
X114236240Y-135323547D01*
X114508547Y-135051240D01*
X114722498Y-134731040D01*
X114869870Y-134375252D01*
X114945000Y-133997551D01*
X114945000Y-133612449D01*
X114869870Y-133234748D01*
X114722498Y-132878960D01*
X114508547Y-132558760D01*
X114236240Y-132286453D01*
X113916040Y-132072502D01*
X113560252Y-131925130D01*
X113182551Y-131850000D01*
X112797449Y-131850000D01*
X112419748Y-131925130D01*
X112063960Y-132072502D01*
X111743760Y-132286453D01*
X111471453Y-132558760D01*
X111257502Y-132878960D01*
X111110130Y-133234748D01*
X111035000Y-133612449D01*
X111035000Y-133997551D01*
X111090221Y-134275164D01*
X110703500Y-133888443D01*
X110703500Y-129294236D01*
X111051650Y-129291300D01*
X111210400Y-129132550D01*
X111210400Y-128333300D01*
X111464400Y-128333300D01*
X111464400Y-129132550D01*
X111623150Y-129291300D01*
X111987400Y-129294372D01*
X112111882Y-129282112D01*
X112231580Y-129245802D01*
X112341894Y-129186837D01*
X112438585Y-129107485D01*
X112517937Y-129010794D01*
X112576902Y-128900480D01*
X112613212Y-128780782D01*
X112625472Y-128656300D01*
X112622400Y-128492050D01*
X112463650Y-128333300D01*
X111464400Y-128333300D01*
X111210400Y-128333300D01*
X111190400Y-128333300D01*
X111190400Y-128094372D01*
X111987400Y-128094372D01*
X112111882Y-128082112D01*
X112121152Y-128079300D01*
X112463650Y-128079300D01*
X112622400Y-127920550D01*
X112625472Y-127756300D01*
X112613212Y-127631818D01*
X112605471Y-127606300D01*
X112613212Y-127580782D01*
X112625472Y-127456300D01*
X112625472Y-126556300D01*
X112613212Y-126431818D01*
X112605471Y-126406300D01*
X112613212Y-126380782D01*
X112625472Y-126256300D01*
X112625472Y-125356300D01*
X112613212Y-125231818D01*
X112605471Y-125206300D01*
X112613212Y-125180782D01*
X112625472Y-125056300D01*
X112622400Y-124892050D01*
X112463650Y-124733300D01*
X112121152Y-124733300D01*
X112111882Y-124730488D01*
X111987400Y-124718228D01*
X110687400Y-124718228D01*
X110562918Y-124730488D01*
X110553648Y-124733300D01*
X110211150Y-124733300D01*
X110052400Y-124892050D01*
X110049328Y-125056300D01*
X110051902Y-125082431D01*
X110005000Y-125107500D01*
X110005000Y-124404157D01*
X110070504Y-124338654D01*
X110211150Y-124479300D01*
X110553648Y-124479300D01*
X110562918Y-124482112D01*
X110687400Y-124494372D01*
X111987400Y-124494372D01*
X112111882Y-124482112D01*
X112121152Y-124479300D01*
X112463650Y-124479300D01*
X112622400Y-124320550D01*
X112625472Y-124156300D01*
X112613212Y-124031818D01*
X112605471Y-124006300D01*
X112613212Y-123980782D01*
X112625472Y-123856300D01*
X112625472Y-122956300D01*
X112613212Y-122831818D01*
X112605471Y-122806300D01*
X112613212Y-122780782D01*
X112625472Y-122656300D01*
X112625472Y-121756300D01*
X112613212Y-121631818D01*
X112605471Y-121606300D01*
X112613212Y-121580782D01*
X112625472Y-121456300D01*
X112625472Y-120556300D01*
X112613212Y-120431818D01*
X112605471Y-120406300D01*
X112613212Y-120380782D01*
X112625472Y-120256300D01*
X112625472Y-119356300D01*
X112613212Y-119231818D01*
X112605471Y-119206300D01*
X112613212Y-119180782D01*
X112625472Y-119056300D01*
X112625472Y-118156300D01*
X112613212Y-118031818D01*
X112605471Y-118006300D01*
X112613212Y-117980782D01*
X112625472Y-117856300D01*
X112624350Y-117796300D01*
X132789328Y-117796300D01*
X132801588Y-117920782D01*
X132809329Y-117946300D01*
X132801588Y-117971818D01*
X132789328Y-118096300D01*
X132789328Y-118996300D01*
X132801588Y-119120782D01*
X132809329Y-119146300D01*
X132801588Y-119171818D01*
X132789328Y-119296300D01*
X132789328Y-120196300D01*
X132801588Y-120320782D01*
X132809329Y-120346300D01*
X132801588Y-120371818D01*
X132789328Y-120496300D01*
X132792400Y-120660550D01*
X132951150Y-120819300D01*
X133293648Y-120819300D01*
X133302918Y-120822112D01*
X133427400Y-120834372D01*
X134727400Y-120834372D01*
X134851882Y-120822112D01*
X134861152Y-120819300D01*
X135203650Y-120819300D01*
X135362400Y-120660550D01*
X135365472Y-120496300D01*
X135353212Y-120371818D01*
X135345471Y-120346300D01*
X135353212Y-120320782D01*
X135365472Y-120196300D01*
X135365472Y-119296300D01*
X135353212Y-119171818D01*
X135345471Y-119146300D01*
X135353212Y-119120782D01*
X135365472Y-118996300D01*
X135365472Y-118096300D01*
X135353212Y-117971818D01*
X135345471Y-117946300D01*
X135353212Y-117920782D01*
X135365472Y-117796300D01*
X135362400Y-117632050D01*
X135203650Y-117473300D01*
X134861152Y-117473300D01*
X134851882Y-117470488D01*
X134727400Y-117458228D01*
X133427400Y-117458228D01*
X133302918Y-117470488D01*
X133293648Y-117473300D01*
X132951150Y-117473300D01*
X132792400Y-117632050D01*
X132789328Y-117796300D01*
X112624350Y-117796300D01*
X112622400Y-117692050D01*
X112463650Y-117533300D01*
X112121152Y-117533300D01*
X112111882Y-117530488D01*
X111987400Y-117518228D01*
X111190400Y-117518228D01*
X111190400Y-117279300D01*
X111210400Y-117279300D01*
X111210400Y-116480050D01*
X111464400Y-116480050D01*
X111464400Y-117279300D01*
X112463650Y-117279300D01*
X112622400Y-117120550D01*
X112625472Y-116956300D01*
X112619563Y-116896300D01*
X132789328Y-116896300D01*
X132792400Y-117060550D01*
X132951150Y-117219300D01*
X133950400Y-117219300D01*
X133950400Y-116420050D01*
X134204400Y-116420050D01*
X134204400Y-117219300D01*
X135203650Y-117219300D01*
X135362400Y-117060550D01*
X135365472Y-116896300D01*
X135353212Y-116771818D01*
X135316902Y-116652120D01*
X135257937Y-116541806D01*
X135178585Y-116445115D01*
X135081894Y-116365763D01*
X134971580Y-116306798D01*
X134851882Y-116270488D01*
X134727400Y-116258228D01*
X134363150Y-116261300D01*
X134204400Y-116420050D01*
X133950400Y-116420050D01*
X133791650Y-116261300D01*
X133427400Y-116258228D01*
X133302918Y-116270488D01*
X133183220Y-116306798D01*
X133072906Y-116365763D01*
X132976215Y-116445115D01*
X132896863Y-116541806D01*
X132837898Y-116652120D01*
X132801588Y-116771818D01*
X132789328Y-116896300D01*
X112619563Y-116896300D01*
X112613212Y-116831818D01*
X112576902Y-116712120D01*
X112517937Y-116601806D01*
X112438585Y-116505115D01*
X112341894Y-116425763D01*
X112231580Y-116366798D01*
X112111882Y-116330488D01*
X111987400Y-116318228D01*
X111623150Y-116321300D01*
X111464400Y-116480050D01*
X111210400Y-116480050D01*
X111051650Y-116321300D01*
X110687400Y-116318228D01*
X110562918Y-116330488D01*
X110443220Y-116366798D01*
X110332906Y-116425763D01*
X110259000Y-116486416D01*
X110259000Y-114917257D01*
X110548458Y-114627800D01*
X112559647Y-114627800D01*
X112598200Y-114631597D01*
X112636753Y-114627800D01*
X112636761Y-114627800D01*
X112752087Y-114616441D01*
X112900060Y-114571554D01*
X112966749Y-114535909D01*
X112931588Y-114651818D01*
G36*
X137222000Y-121758000D02*
G01*
X137242000Y-121758000D01*
X137242000Y-122012000D01*
X137222000Y-122012000D01*
X137222000Y-122032000D01*
X136968000Y-122032000D01*
X136968000Y-122012000D01*
X136948000Y-122012000D01*
X136948000Y-121758000D01*
X136968000Y-121758000D01*
X136968000Y-121738000D01*
X137222000Y-121738000D01*
X137222000Y-121758000D01*
G37*
X137222000Y-121758000D02*
X137242000Y-121758000D01*
X137242000Y-122012000D01*
X137222000Y-122012000D01*
X137222000Y-122032000D01*
X136968000Y-122032000D01*
X136968000Y-122012000D01*
X136948000Y-122012000D01*
X136948000Y-121758000D01*
X136968000Y-121758000D01*
X136968000Y-121738000D01*
X137222000Y-121738000D01*
X137222000Y-121758000D01*
M02*
