<?xml version="1.0" standalone="no"?>
 <!DOCTYPE svg PUBLIC "-//W3C//DTD SVG 1.1//EN" 
 "http://www.w3.org/Graphics/SVG/1.1/DTD/svg11.dtd"> 
<svg xmlns="http://www.w3.org/2000/svg" version="1.1" 
    width="29.7002cm" height="21.0007cm" viewBox="0 0 116930 82680 ">
<title>SVG Picture created as MCU_PROTO_83x58mm-F_SilkS.svg date 2022/02/14 23:25:42 </title>
  <desc>Picture generated by PCBNEW </desc>
<g style="fill:#000000; fill-opacity:1;stroke:#000000; stroke-opacity:1;
stroke-linecap:round; stroke-linejoin:round; "
 transform="translate(0 0) scale(1 1)">
</g>
<g style="fill:#000000; fill-opacity:0.0; 
stroke:#000000; stroke-width:-0.000393701; stroke-opacity:1; 
stroke-linecap:round; stroke-linejoin:round;">
</g>
<g style="fill:#000000; fill-opacity:0.0; 
stroke:#000000; stroke-width:196.85; stroke-opacity:1; 
stroke-linecap:round; stroke-linejoin:round;">
<path d="M61555 43515
L61470 43515
" />
<path d="M60555 43515
L60470 43515
" />
<path d="M59555 43515
L59470 43515
" />
<path d="M58555 43515
L58470 43515
" />
<path d="M57555 43515
L57470 43515
" />
<path d="M56555 43515
L56470 43515
" />
<path d="M55555 43515
L55470 43515
" />
<path d="M54555 43515
L54470 43515
" />
<path d="M53555 43515
L53470 43515
" />
<path d="M52555 43515
L52470 43515
" />
<path d="M51555 43515
L51470 43515
" />
<path d="M50555 43515
L50470 43515
" />
<path d="M49555 43515
L49470 43515
" />
<path d="M48555 43515
L48470 43515
" />
<path d="M47555 43515
L47470 43515
" />
<path d="M46555 43515
L46470 43515
" />
<path d="M45555 43515
L45470 43515
" />
<path d="M44555 43515
L44470 43515
" />
<path d="M43555 43515
L43470 43515
" />
<path d="M61555 46515
L61470 46515
" />
<path d="M60555 46515
L60470 46515
" />
<path d="M59555 46515
L59470 46515
" />
<path d="M58555 46515
L58470 46515
" />
<path d="M57555 46515
L57470 46515
" />
<path d="M56555 46515
L56470 46515
" />
<path d="M55555 46515
L55470 46515
" />
<path d="M54555 46515
L54470 46515
" />
<path d="M53555 46515
L53470 46515
" />
<path d="M52555 46515
L52470 46515
" />
<path d="M51555 46515
L51470 46515
" />
<path d="M50555 46515
L50470 46515
" />
<path d="M49555 46515
L49470 46515
" />
<path d="M48555 46515
L48470 46515
" />
<path d="M47555 46515
L47470 46515
" />
<path d="M46555 46515
L46470 46515
" />
<path d="M45555 46515
L45470 46515
" />
<path d="M44555 46515
L44470 46515
" />
<path d="M43555 46515
L43470 46515
" />
<path d="M61555 54520
L61470 54520
" />
<path d="M60555 54520
L60470 54520
" />
<path d="M59555 54520
L59470 54520
" />
<path d="M58555 54520
L58470 54520
" />
<path d="M57555 54520
L57470 54520
" />
<path d="M56555 54520
L56470 54520
" />
<path d="M55555 54520
L55470 54520
" />
<path d="M54555 54520
L54470 54520
" />
<path d="M53555 54520
L53470 54520
" />
<path d="M52555 54520
L52470 54520
" />
<path d="M51555 54520
L51470 54520
" />
<path d="M50555 54520
L50470 54520
" />
<path d="M49555 54520
L49470 54520
" />
<path d="M48555 54520
L48470 54520
" />
<path d="M47555 54520
L47470 54520
" />
<path d="M46555 54520
L46470 54520
" />
<path d="M45555 54520
L45470 54520
" />
<path d="M44555 54520
L44470 54520
" />
<path d="M43555 54520
L43470 54520
" />
<path d="M61555 55515
L61470 55515
" />
<path d="M60555 55515
L60470 55515
" />
<path d="M59555 55515
L59470 55515
" />
<path d="M58555 55515
L58470 55515
" />
<path d="M57555 55515
L57470 55515
" />
<path d="M56555 55515
L56470 55515
" />
<path d="M55555 55515
L55470 55515
" />
<path d="M54555 55515
L54470 55515
" />
<path d="M53555 55515
L53470 55515
" />
<path d="M52555 55515
L52470 55515
" />
<path d="M51555 55515
L51470 55515
" />
<path d="M50555 55515
L50470 55515
" />
<path d="M49555 55515
L49470 55515
" />
<path d="M48555 55515
L48470 55515
" />
<path d="M47555 55515
L47470 55515
" />
<path d="M62015 56975
L62015 57060
" />
<path d="M61015 56975
L61015 57060
" />
<path d="M60015 56975
L60015 57060
" />
<path d="M59015 56975
L59015 57060
" />
<path d="M58015 56975
L58015 57060
" />
<path d="M57015 56975
L57015 57060
" />
<path d="M56015 56975
L56015 57060
" />
<path d="M55015 56975
L55015 57060
" />
<path d="M54015 56975
L54015 57060
" />
<path d="M53015 56975
L53015 57060
" />
<path d="M52015 56975
L52015 57060
" />
<path d="M51015 56975
L51015 57060
" />
<path d="M50015 56975
L50015 57060
" />
<path d="M49015 56975
L49015 57060
" />
<path d="M48015 56975
L48015 57060
" />
<path d="M47015 56975
L47015 57060
" />
<path d="M62010 53000
L62010 53085
" />
<path d="M61010 53000
L61010 53085
" />
<path d="M60010 53000
L60010 53085
" />
<path d="M59010 53000
L59010 53085
" />
<path d="M58010 53000
L58010 53085
" />
<path d="M57010 53000
L57010 53085
" />
<path d="M56010 53000
L56010 53085
" />
<path d="M55010 53000
L55010 53085
" />
<path d="M54010 53000
L54010 53085
" />
<path d="M53010 53000
L53010 53085
" />
<path d="M52010 53000
L52010 53085
" />
<path d="M51010 53000
L51010 53085
" />
<path d="M50010 53000
L50010 53085
" />
<path d="M49010 53000
L49010 53085
" />
<path d="M48010 53000
L48010 53085
" />
<path d="M47010 53000
L47010 53085
" />
<path d="M46010 53000
L46010 53085
" />
<path d="M45010 53000
L45010 53085
" />
<path d="M44010 53000
L44010 53085
" />
<path d="M43010 53000
L43010 53085
" />
<path d="M62010 52000
L62010 52085
" />
<path d="M61010 52000
L61010 52085
" />
<path d="M60010 52000
L60010 52085
" />
<path d="M59010 52000
L59010 52085
" />
<path d="M58010 52000
L58010 52085
" />
<path d="M57010 52000
L57010 52085
" />
<path d="M56010 52000
L56010 52085
" />
<path d="M55010 52000
L55010 52085
" />
<path d="M54010 52000
L54010 52085
" />
<path d="M53010 52000
L53010 52085
" />
<path d="M52010 52000
L52010 52085
" />
<path d="M51010 52000
L51010 52085
" />
<path d="M50010 52000
L50010 52085
" />
<path d="M49010 52000
L49010 52085
" />
<path d="M48010 52000
L48010 52085
" />
<path d="M47010 52000
L47010 52085
" />
<path d="M46010 52000
L46010 52085
" />
<path d="M45010 52000
L45010 52085
" />
<path d="M44010 52000
L44010 52085
" />
<path d="M43010 52000
L43010 52085
" />
<path d="M62010 51000
L62010 51085
" />
<path d="M61010 51000
L61010 51085
" />
<path d="M60010 51000
L60010 51085
" />
<path d="M59010 51000
L59010 51085
" />
<path d="M58010 51000
L58010 51085
" />
<path d="M57010 51000
L57010 51085
" />
<path d="M56010 51000
L56010 51085
" />
<path d="M55010 51000
L55010 51085
" />
<path d="M54010 51000
L54010 51085
" />
<path d="M53010 51000
L53010 51085
" />
<path d="M52010 51000
L52010 51085
" />
<path d="M51010 51000
L51010 51085
" />
<path d="M50010 51000
L50010 51085
" />
<path d="M49010 51000
L49010 51085
" />
<path d="M48010 51000
L48010 51085
" />
<path d="M47010 51000
L47010 51085
" />
<path d="M46010 51000
L46010 51085
" />
<path d="M45010 51000
L45010 51085
" />
<path d="M44010 51000
L44010 51085
" />
<path d="M43010 51000
L43010 51085
" />
<path d="M62010 50000
L62010 50085
" />
<path d="M61010 50000
L61010 50085
" />
<path d="M60010 50000
L60010 50085
" />
<path d="M59010 50000
L59010 50085
" />
<path d="M58010 50000
L58010 50085
" />
<path d="M57010 50000
L57010 50085
" />
<path d="M56010 50000
L56010 50085
" />
<path d="M55010 50000
L55010 50085
" />
<path d="M54010 50000
L54010 50085
" />
<path d="M53010 50000
L53010 50085
" />
<path d="M52010 50000
L52010 50085
" />
<path d="M51010 50000
L51010 50085
" />
<path d="M50010 50000
L50010 50085
" />
<path d="M49010 50000
L49010 50085
" />
<path d="M48010 50000
L48010 50085
" />
<path d="M47010 50000
L47010 50085
" />
<path d="M46010 50000
L46010 50085
" />
<path d="M45010 50000
L45010 50085
" />
<path d="M44010 50000
L44010 50085
" />
<path d="M43010 50000
L43010 50085
" />
<path d="M62010 49000
L62010 49085
" />
<path d="M61010 49000
L61010 49085
" />
<path d="M60010 49000
L60010 49085
" />
<path d="M59010 49000
L59010 49085
" />
<path d="M58010 49000
L58010 49085
" />
<path d="M57010 49000
L57010 49085
" />
<path d="M56010 49000
L56010 49085
" />
<path d="M55010 49000
L55010 49085
" />
<path d="M54010 49000
L54010 49085
" />
<path d="M53010 49000
L53010 49085
" />
<path d="M52010 49000
L52010 49085
" />
<path d="M51010 49000
L51010 49085
" />
<path d="M50010 49000
L50010 49085
" />
<path d="M49010 49000
L49010 49085
" />
<path d="M48010 49000
L48010 49085
" />
<path d="M47010 49000
L47010 49085
" />
<path d="M46010 49000
L46010 49085
" />
<path d="M45010 49000
L45010 49085
" />
<path d="M44010 49000
L44010 49085
" />
<path d="M43010 49000
L43010 49085
" />
<path d="M62010 48000
L62010 48085
" />
<path d="M61010 48000
L61010 48085
" />
<path d="M60010 48000
L60010 48085
" />
<path d="M59010 48000
L59010 48085
" />
<path d="M58010 48000
L58010 48085
" />
<path d="M57010 48000
L57010 48085
" />
<path d="M56010 48000
L56010 48085
" />
<path d="M55010 48000
L55010 48085
" />
<path d="M54010 48000
L54010 48085
" />
<path d="M53010 48000
L53010 48085
" />
<path d="M52010 48000
L52010 48085
" />
<path d="M51010 48000
L51010 48085
" />
<path d="M50010 48000
L50010 48085
" />
<path d="M49010 48000
L49010 48085
" />
<path d="M48010 48000
L48010 48085
" />
<path d="M47010 48000
L47010 48085
" />
<path d="M46010 48000
L46010 48085
" />
<path d="M45010 48000
L45010 48085
" />
<path d="M44010 48000
L44010 48085
" />
<path d="M43010 48000
L43010 48085
" />
<path d="M62015 44975
L62015 45060
" />
<path d="M61015 44975
L61015 45060
" />
<path d="M60015 44975
L60015 45060
" />
<path d="M59015 44975
L59015 45060
" />
<path d="M58015 44975
L58015 45060
" />
<path d="M57015 44975
L57015 45060
" />
<path d="M56015 44975
L56015 45060
" />
<path d="M55015 44975
L55015 45060
" />
<path d="M54015 44975
L54015 45060
" />
<path d="M53015 44975
L53015 45060
" />
<path d="M52015 44975
L52015 45060
" />
<path d="M51015 44975
L51015 45060
" />
<path d="M50015 44975
L50015 45060
" />
<path d="M49015 44975
L49015 45060
" />
<path d="M48015 44975
L48015 45060
" />
<path d="M47015 44975
L47015 45060
" />
<path d="M46015 44975
L46015 45060
" />
<path d="M45015 44975
L45015 45060
" />
<path d="M44015 44975
L44015 45060
" />
<path d="M43015 44975
L43015 45060
" />
<path d="M62010 42005
L62010 42090
" />
<path d="M61010 42005
L61010 42090
" />
<path d="M60010 42005
L60010 42090
" />
<path d="M59010 42005
L59010 42090
" />
<path d="M58010 42005
L58010 42090
" />
<path d="M57010 42005
L57010 42090
" />
<path d="M56010 42005
L56010 42090
" />
<path d="M55010 42005
L55010 42090
" />
<path d="M54010 42005
L54010 42090
" />
<path d="M53010 42005
L53010 42090
" />
<path d="M52010 42005
L52010 42090
" />
<path d="M51010 42005
L51010 42090
" />
<path d="M50010 42005
L50010 42090
" />
<path d="M49010 42005
L49010 42090
" />
<path d="M48010 42005
L48010 42090
" />
<path d="M47010 42005
L47010 42090
" />
<path d="M46010 42005
L46010 42090
" />
<path d="M45010 42005
L45010 42090
" />
<path d="M44010 42005
L44010 42090
" />
<path d="M43010 42005
L43010 42090
" />
<path d="M62010 41005
L62010 41090
" />
<path d="M61010 41005
L61010 41090
" />
<path d="M60010 41005
L60010 41090
" />
<path d="M59010 41005
L59010 41090
" />
<path d="M58010 41005
L58010 41090
" />
<path d="M57010 41005
L57010 41090
" />
<path d="M56010 41005
L56010 41090
" />
<path d="M55010 41005
L55010 41090
" />
<path d="M54010 41005
L54010 41090
" />
<path d="M53010 41005
L53010 41090
" />
<path d="M52010 41005
L52010 41090
" />
<path d="M51010 41005
L51010 41090
" />
<path d="M50010 41005
L50010 41090
" />
<path d="M49010 41005
L49010 41090
" />
<path d="M48010 41005
L48010 41090
" />
<path d="M47010 41005
L47010 41090
" />
<path d="M46010 41005
L46010 41090
" />
<path d="M45010 41005
L45010 41090
" />
<path d="M44010 41005
L44010 41090
" />
<path d="M43010 41005
L43010 41090
" />
</g>
<g style="fill:#000000; fill-opacity:0.0; 
stroke:#000000; stroke-width:59.0551; stroke-opacity:1; 
stroke-linecap:round; stroke-linejoin:round;">
<g transform="rotate(-90 40149.3 52545)">
<text x="40149.3" y="52702.5"
textLength="5309.34" font-size="419.947" lengthAdjust="spacingAndGlyphs"
text-anchor="middle" opacity="0">MCU PROTO 83x58mm</text>
</g>
<path d="M40291 55124
L39976 55124
L40201 55019
L39976 54914
L40291 54914
" />
<path d="M40261 54584
L40276 54599
L40291 54644
L40291 54674
L40276 54719
L40246 54749
L40216 54764
L40156 54779
L40111 54779
L40051 54764
L40021 54749
L39991 54719
L39976 54674
L39976 54644
L39991 54599
L40006 54584
" />
<path d="M39976 54449
L40231 54449
L40261 54434
L40276 54419
L40291 54389
L40291 54329
L40276 54299
L40261 54284
L40231 54269
L39976 54269
" />
<path d="M40291 53879
L39976 53879
L39976 53759
L39991 53729
L40006 53714
L40036 53699
L40081 53699
L40111 53714
L40126 53729
L40141 53759
L40141 53879
" />
<path d="M40291 53384
L40141 53489
" />
<path d="M40291 53564
L39976 53564
L39976 53444
L39991 53414
L40006 53399
L40036 53384
L40081 53384
L40111 53399
L40126 53414
L40141 53444
L40141 53564
" />
<path d="M39976 53189
L39976 53129
L39991 53099
L40021 53069
L40081 53054
L40186 53054
L40246 53069
L40276 53099
L40291 53129
L40291 53189
L40276 53219
L40246 53249
L40186 53264
L40081 53264
L40021 53249
L39991 53219
L39976 53189
" />
<path d="M39976 52964
L39976 52784
" />
<path d="M40291 52874
L39976 52874
" />
<path d="M39976 52619
L39976 52559
L39991 52530
L40021 52500
L40081 52485
L40186 52485
L40246 52500
L40276 52530
L40291 52559
L40291 52619
L40276 52649
L40246 52679
L40186 52694
L40081 52694
L40021 52679
L39991 52649
L39976 52619
" />
<path d="M40111 52065
L40096 52095
L40081 52110
L40051 52125
L40036 52125
L40006 52110
L39991 52095
L39976 52065
L39976 52005
L39991 51975
L40006 51960
L40036 51945
L40051 51945
L40081 51960
L40096 51975
L40111 52005
L40111 52065
L40126 52095
L40141 52110
L40171 52125
L40231 52125
L40261 52110
L40276 52095
L40291 52065
L40291 52005
L40276 51975
L40261 51960
L40231 51945
L40171 51945
L40141 51960
L40126 51975
L40111 52005
" />
<path d="M39976 51840
L39976 51645
L40096 51750
L40096 51705
L40111 51675
L40126 51660
L40156 51645
L40231 51645
L40261 51660
L40276 51675
L40291 51705
L40291 51795
L40276 51825
L40261 51840
" />
<path d="M40291 51540
L40081 51375
" />
<path d="M40081 51540
L40291 51375
" />
<path d="M39976 51105
L39976 51255
L40126 51270
L40111 51255
L40096 51225
L40096 51150
L40111 51120
L40126 51105
L40156 51090
L40231 51090
L40261 51105
L40276 51120
L40291 51150
L40291 51225
L40276 51255
L40261 51270
" />
<path d="M40111 50910
L40096 50940
L40081 50955
L40051 50970
L40036 50970
L40006 50955
L39991 50940
L39976 50910
L39976 50850
L39991 50820
L40006 50805
L40036 50790
L40051 50790
L40081 50805
L40096 50820
L40111 50850
L40111 50910
L40126 50940
L40141 50955
L40171 50970
L40231 50970
L40261 50955
L40276 50940
L40291 50910
L40291 50850
L40276 50820
L40261 50805
L40231 50790
L40171 50790
L40141 50805
L40126 50820
L40111 50850
" />
<path d="M40291 50655
L40081 50655
" />
<path d="M40111 50655
L40096 50640
L40081 50610
L40081 50565
L40096 50535
L40126 50520
L40291 50520
" />
<path d="M40126 50520
L40096 50505
L40081 50475
L40081 50430
L40096 50400
L40126 50385
L40291 50385
" />
<path d="M40291 50235
L40081 50235
" />
<path d="M40111 50235
L40096 50220
L40081 50190
L40081 50145
L40096 50115
L40126 50100
L40291 50100
" />
<path d="M40126 50100
L40096 50085
L40081 50055
L40081 50010
L40096 49980
L40126 49965
L40291 49965
" />
<g transform="rotate(-90 40680.7 52545)">
<text x="40680.7" y="52702.5"
textLength="76.7717" font-size="419.947" lengthAdjust="spacingAndGlyphs"
text-anchor="middle" opacity="0"></text>
</g>
</g>
<g style="fill:#000000; fill-opacity:0.0; 
stroke:#000000; stroke-width:196.85; stroke-opacity:1; 
stroke-linecap:round; stroke-linejoin:round;">
<path d="M65020 54245
L63595 54245
" />
<path d="M65010 52870
L63585 52870
" />
<path d="M65020 51500
L63595 51500
" />
<path d="M65020 46535
L63595 46535
" />
<path d="M65020 45155
L63595 45155
" />
<path d="M65015 43780
L63590 43780
" />
</g>
<g style="fill:#000000; fill-opacity:0.0; 
stroke:#000000; stroke-width:19.685; stroke-opacity:1; 
stroke-linecap:round; stroke-linejoin:round;">
<path d="M68897.6 56102.4 A2559.06 2559.06 0.0 0 0 66338.6 58661.4 " />
<path d="M66338.6 39370.1 A2559.06 2559.06 0.0 0 0 68897.6 41929.1 " />
<path d="M41929.1 58661.4 A2559.06 2559.06 0.0 0 0 39370.1 56102.4 " />
<path d="M39370.1 41929.1 A2559.06 2559.06 0.0 0 0 41929.1 39370.1 " />
<path d="M68897 41929
L68897 56102
" />
<path d="M39370 41929
L39370 56102
" />
<path d="M41929 58661
L66338 58661
" />
<path d="M41929 39370
L66338 39370
" />
</g>
<g style="fill:#000000; fill-opacity:0.0; 
stroke:#000000; stroke-width:47.2441; stroke-opacity:1; 
stroke-linecap:round; stroke-linejoin:round;">
<path d="M42492 52515
L42492 51992
" />
<path d="M42492 51992
L43015 51992
" />
<path d="M43515 51992
L62539 51992
" />
<path d="M62539 53039
L62539 51992
" />
<path d="M43515 53039
L62539 53039
" />
<path d="M43515 53039
L43515 51992
" />
<path d="M42492 51515
L42492 50992
" />
<path d="M42492 50992
L43015 50992
" />
<path d="M43515 50992
L62539 50992
" />
<path d="M62539 52039
L62539 50992
" />
<path d="M43515 52039
L62539 52039
" />
<path d="M43515 52039
L43515 50992
" />
<path d="M42492 50515
L42492 49992
" />
<path d="M42492 49992
L43015 49992
" />
<path d="M43515 49992
L62539 49992
" />
<path d="M62539 51039
L62539 49992
" />
<path d="M43515 51039
L62539 51039
" />
<path d="M43515 51039
L43515 49992
" />
<path d="M42492 48515
L42492 47992
" />
<path d="M42492 47992
L43015 47992
" />
<path d="M43515 47992
L62539 47992
" />
<path d="M62539 49039
L62539 47992
" />
<path d="M43515 49039
L62539 49039
" />
<path d="M43515 49039
L43515 47992
" />
<path d="M42492 41515
L42492 40992
" />
<path d="M42492 40992
L43015 40992
" />
<path d="M43515 40992
L62539 40992
" />
<path d="M62539 42039
L62539 40992
" />
<path d="M43515 42039
L62539 42039
" />
<path d="M43515 42039
L43515 40992
" />
<path d="M42492 49515
L42492 48992
" />
<path d="M42492 48992
L43015 48992
" />
<path d="M43515 48992
L62539 48992
" />
<path d="M62539 50039
L62539 48992
" />
<path d="M43515 50039
L62539 50039
" />
<path d="M43515 50039
L43515 48992
" />
<path d="M67283 47480
L67283 46889
" />
<path d="M66598 47480
L67283 47480
" />
<path d="M64385 42929
L67188 42929
" />
<path d="M64385 47385
L67188 47385
" />
<path d="M67188 47385
L67188 42929
" />
<path d="M64385 47385
L64385 42929
" />
<path d="M66574 47385
L66574 42929
" />
<circle cx="65748" cy="43779.5" r="612.205" /> 
<circle cx="65748" cy="45157.5" r="612.205" /> 
<path d="M66311.8 46774.8 A612.491 612.491 0.0 0 0 66360.4 46524.8 " />
<path d="M65508.7 47099.2 A612.491 612.491 0.0 0 0 65987.3 47099.3 " />
<path d="M65184.3 46296.1 A612.491 612.491 0.0 0 0 65184.2 46774.7 " />
<path d="M65987.4 45971.7 A612.491 612.491 0.0 0 0 65508.8 45971.6 " />
<path d="M66360.2 46535.4 A612.205 612.205 0.0 0 0 66311.6 46296.2 " />
<path d="M67283 55196
L67283 54606
" />
<path d="M66598 55196
L67283 55196
" />
<path d="M64385 50645
L67188 50645
" />
<path d="M64385 55102
L67188 55102
" />
<path d="M67188 55102
L67188 50645
" />
<path d="M64385 55102
L64385 50645
" />
<path d="M66574 55102
L66574 50645
" />
<circle cx="65748" cy="51496.1" r="612.205" /> 
<circle cx="65748" cy="52874" r="612.205" /> 
<path d="M66311.8 54491.3 A612.491 612.491 0.0 0 0 66360.4 54241.3 " />
<path d="M65508.7 54815.7 A612.491 612.491 0.0 0 0 65987.3 54815.8 " />
<path d="M65184.3 54012.6 A612.491 612.491 0.0 0 0 65184.2 54491.2 " />
<path d="M65987.4 53688.2 A612.491 612.491 0.0 0 0 65508.8 53688.1 " />
<path d="M66360.2 54252 A612.205 612.205 0.0 0 0 66311.6 54012.8 " />
</g>
<g style="fill:#000000; fill-opacity:1.0; 
stroke:#000000; stroke-width:3.93701; stroke-opacity:1; 
stroke-linecap:round; stroke-linejoin:round;">
<path style="fill:#000000; fill-opacity:1.0; 
stroke:#000000; stroke-width:3.93701; stroke-opacity:1; 
stroke-linecap:round; stroke-linejoin:round;fill-rule:evenodd;"
d="M 39833.5,43036.2
40008.6,43003.2
40058.8,42881.4
40109,42759.6
40009.6,42613.6
39982,42572.7
39957.3,42535.7
39936.7,42504.3
39921.3,42480.4
39912.2,42465.6
39910.3,42461.5
39915.3,42454.2
39929.2,42438.7
39950.1,42416.6
39976.3,42389.7
40006.1,42359.8
40037.7,42328.6
40069.2,42297.8
40099,42269.2
40125.2,42244.5
40146.1,42225.6
40159.9,42214
40164.5,42211.2
40173,42215.2
40191.7,42226.4
40218.7,42243.5
40252.1,42265.5
40290.3,42291.2
40312,42306.1
40351.8,42333.2
40387.6,42357.3
40417.8,42377.2
40440.5,42391.8
40454,42399.8
40456.9,42401
40464.9,42398.3
40483.7,42390.8
40510.6,42379.8
40543,42366.3
40578.1,42351.4
40613.4,42336.3
40646.3,42322.2
40674,42310
40693.9,42301
40703.4,42296.3
40703.8,42296.1
40705.6,42288.6
40709.7,42268.9
40715.5,42238.9
40722.9,42200.7
40731.2,42156.3
40736.1,42130.4
40745.1,42083
40753.7,42040.1
40761.4,42004
40767.7,41976.9
40772.2,41960.8
40773.6,41957.6
40783.2,41954.4
40804.8,41951.8
40835.9,41949.9
40874.1,41948.6
40916.7,41947.8
40961.3,41947.7
41005.2,41948.2
41046.1,41949.3
41081.3,41950.9
41108.3,41953.2
41124.6,41956.1
41128,41957.8
41132,41968.1
41137.8,41989.9
41144.7,42020.3
41152,42056.5
41154.3,42069.1
41165.5,42130
41174.4,42178.1
41181.6,42215
41187.3,42242.3
41191.9,42261.5
41195.8,42274.3
41199.3,42282.3
41202.7,42287
41203.4,42287.7
41214.4,42294.3
41235.8,42304.4
41265,42316.9
41299.3,42330.9
41336.1,42345.3
41372.9,42359.2
41407,42371.5
41435.8,42381.3
41456.6,42387.5
41466.9,42389.1
41467.3,42389
41475.7,42383.5
41494.2,42371
41520.9,42352.9
41553.8,42330.4
41591,42304.9
41601.6,42297.6
41640,42271.7
41674.9,42248.8
41704.6,42230.4
41726.8,42217.5
41739.7,42211.5
41741.3,42211.2
41749.6,42216.3
41766,42230.2
41788.8,42251.3
41816.3,42277.8
41846.6,42307.7
41877.9,42339.4
41908.6,42371
41936.8,42400.8
41960.7,42426.9
41978.7,42447.5
41988.9,42460.9
41990.6,42464.6
41986.7,42473.3
41976.1,42490.9
41960.6,42514.7
41948.2,42533
41925.3,42566.2
41898.4,42605.5
41871.6,42645
41857.2,42666.2
41808.7,42737.9
41841.2,42798.2
41855.5,42825.6
41866.6,42848.9
41872.9,42864.7
41873.8,42868.7
41867.3,42873.6
41848.9,42883.1
41820.4,42896.6
41783.4,42913.4
41739.6,42932.8
41690.7,42954
41638.4,42976.4
41584.5,42999.2
41530.5,43021.7
41478.2,43043.2
41429.3,43063
41385.4,43080.4
41348.3,43094.7
41319.7,43105.2
41301.2,43111
41294.9,43112
41286.8,43104.5
41273.7,43088.1
41258.2,43066.1
41257,43064.3
41211.7,43007.7
41158.8,42962
41100,42927.7
41037.1,42905.1
40971.6,42894.7
40905.4,42896.9
40840.1,42912
40777.4,42940.5
40763.7,42948.8
40708.2,42992.4
40663.7,43043.9
40630.4,43101.4
40608.4,43163.3
40598.1,43227.8
40599.5,43293.1
40613.1,43357.3
40638.9,43418.8
40677.3,43475.6
40692.9,43493.2
40741.7,43538
40793,43570.7
40850.6,43593
40907.6,43605.5
40971.7,43608.6
41036.1,43598.3
41098.6,43575.8
41157.1,43542
41209.4,43497.9
41253.3,43444.7
41258,43437.7
41273.1,43415.6
41286.2,43398.7
41294.6,43390.7
41294.9,43390.6
41304,43392.3
41324.6,43399.1
41355,43410.4
41393.5,43425.4
41438.5,43443.3
41488.2,43463.5
41540.9,43485.3
41595,43508
41648.8,43530.7
41700.6,43553
41748.6,43573.9
41791.2,43592.8
41826.7,43609
41853.4,43621.8
41869.5,43630.5
41873.8,43634
41870.5,43644.6
41861.6,43664.6
41848.7,43690.4
41841.2,43704.5
41808.7,43764.8
41857.2,43836.5
41882.1,43873.2
41909.4,43913.3
41935.2,43950.8
41948.2,43969.7
41965.9,43996.1
41980,44018.6
41988.6,44034
41990.5,44039
41985.5,44046.3
41971.8,44062.5
41950.7,44085.9
41923.7,44115.1
41892.1,44148.4
41871.8,44169.4
41835.6,44206.3
41803.2,44238.2
41776,44263.7
41755.5,44281.7
41742.8,44290.8
41740.3,44291.7
41730.5,44287.6
41710.9,44276.4
41683.2,44259.3
41649.6,44237.5
41612.1,44212.3
41601.6,44205.1
41563.5,44179
41529.3,44155.5
41500.7,44136.1
41479.8,44122
41468.5,44114.4
41467.3,44113.7
41458.3,44114.8
41438.4,44120.6
41410.3,44130
41376.7,44142.1
41340,44155.9
41303.1,44170.3
41268.3,44184.4
41238.5,44197.1
41216.2,44207.5
41204,44214.5
41203.4,44215
41199.9,44219.3
41196.5,44226.5
41192.7,44238.3
41188.3,44256.2
41182.8,44281.9
41175.9,44316.8
41167.3,44362.6
41156.6,44421
41154.3,44433.6
41147.1,44471
41140,44503.6
41133.8,44528.6
41129.1,44543
41128,44544.9
41118.2,44548.1
41096.5,44550.7
41065.2,44552.7
41027,44554
40984.3,44554.8
40939.7,44555
40895.8,44554.6
40855,44553.6
40819.9,44551.9
40793,44549.7
40776.9,44546.9
40773.6,44545.1
40770.2,44535.6
40764.8,44513.8
40757.8,44482
40749.6,44442.4
40740.7,44397
40736.1,44372.3
40727.3,44325.4
40719.4,44283.6
40712.6,44248.9
40707.5,44223.3
40704.5,44209
40703.8,44206.6
40696.1,44202.7
40677.6,44194.2
40650.9,44182.5
40618.6,44168.6
40583.5,44153.6
40548.1,44138.6
40515.1,44124.8
40487.1,44113.3
40466.9,44105.3
40457,44101.8
40456.5,44101.7
40448.7,44105.7
40430.7,44116.9
40404.3,44134
40371.3,44156
40333.5,44181.7
40311.8,44196.6
40271.9,44223.8
40235.8,44247.9
40205.1,44267.9
40181.8,44282.4
40167.6,44290.3
40164.4,44291.5
40157,44286.6
40141.2,44272.9
40118.8,44252.3
40091.5,44226.4
40061.1,44197.1
40029.4,44166
39998.2,44134.9
39969.1,44105.6
39944.1,44079.8
39924.8,44059.2
39913.1,44045.6
39910.3,44041
39914.2,44033.6
39925.3,44015.9
39942.4,43989.6
39964.3,43956.4
39990,43918
40009.6,43889.1
40109,43743.1
40008.6,43499.5
39833.5,43466.5
39658.5,43433.5
39658.5,43069.2
Z" /> 
<g >
</g>
<g >
</g>
<g >
</g>
<g >
</g>
<g >
</g>
<g >
</g>
<g >
</g>
<g >
</g>
<g >
</g>
<g >
</g>
<g >
</g>
<g >
</g>
<g >
</g>
<g >
</g>
<g >
</g>
<g >
</g>
<g >
</g>
<g >
</g>
<g >
</g>
<g >
</g>
<g >
</g>
<g >
</g>
<g >
</g>
<g >
</g>
<g >
</g>
<g >
</g>
<g >
</g>
<g >
</g>
<g >
</g>
<g >
</g>
<g >
</g>
<g >
</g>
<g >
</g>
<g >
</g>
<g >
</g>
<g >
</g>
<g >
</g>
<g >
</g>
<g >
</g>
<g >
</g>
<g >
</g>
<g >
</g>
<g >
</g>
<g >
</g>
<g >
</g>
<g >
</g>
<g >
</g>
<g >
</g>
<g >
</g>
<g >
</g>
<g >
</g>
<g >
</g>
<g >
</g>
<g >
</g>
<g >
</g>
<g >
</g>
<g >
</g>
<g >
</g>
<g >
</g>
<g >
</g>
<g >
</g>
<g >
</g>
<g >
</g>
<g >
</g>
<g >
</g>
<g >
</g>
<g >
</g>
<g >
</g>
<g >
</g>
<g >
</g>
<g >
</g>
<g >
</g>
<g >
</g>
<g >
</g>
<g >
</g>
<g >
</g>
<g >
</g>
<g >
</g>
<g >
</g>
<g >
</g>
<g >
</g>
<g >
</g>
<g >
</g>
<g >
</g>
<g >
</g>
<g >
</g>
<g >
</g>
<g >
</g>
<g >
</g>
<g >
</g>
<g >
</g>
<g >
</g>
<g >
</g>
<g >
</g>
<g >
</g>
<g >
</g>
<g >
</g>
<g >
</g>
<g >
</g>
<g >
</g>
<g >
</g>
<g >
</g>
<g >
</g>
<g >
</g>
<g >
</g>
<g >
</g>
<g >
</g>
<g >
</g>
<g >
</g>
<g >
</g>
<g >
</g>
<g >
</g>
<g >
</g>
<g >
</g>
<g >
</g>
<g >
</g>
<g >
</g>
<g >
</g>
<g >
</g>
<g >
</g>
<g >
</g>
<g >
</g>
<g >
</g>
<g >
</g>
<g >
</g>
<g >
</g>
<g >
</g>
<g >
</g>
<g >
</g>
<g >
</g>
<g >
</g>
<g >
</g>
<g >
</g>
<g >
</g>
<g >
</g>
<g >
</g>
<g >
</g>
<g >
</g>
<g >
</g>
<g >
</g>
<g >
</g>
<g >
</g>
<g >
</g>
<g >
</g>
<g >
</g>
<g >
</g>
<g >
</g>
<g >
</g>
<g >
</g>
<g >
</g>
<g >
</g>
<g >
</g>
<g >
</g>
<g >
</g>
<g >
</g>
<g >
</g>
<g >
</g>
<g >
</g>
<g >
</g>
<g >
</g>
<g >
</g>
<g >
</g>
<g >
</g>
<g >
</g>
<g >
</g>
<g >
</g>
<g >
</g>
<g >
</g>
<g >
</g>
<g >
</g>
<g >
</g>
<g >
</g>
<g >
</g>
<g >
</g>
<g >
</g>
<g >
</g>
<g >
</g>
<g >
</g>
<g >
</g>
<g >
</g>
<g >
</g>
<g >
</g>
<g >
</g>
<g >
</g>
<g >
</g>
<g >
</g>
<g >
</g>
<g >
</g>
<g >
</g>
<g >
</g>
<g >
</g>
<g >
</g>
<g >
</g>
<g >
</g>
<g >
</g>
<g >
</g>
<g >
</g>
<g >
</g>
<g >
</g>
<g >
</g>
<g >
</g>
<g >
</g>
<g >
</g>
<g >
</g>
<g >
</g>
<g >
</g>
<g >
</g>
<g >
</g>
<g >
</g>
<g >
</g>
<g >
</g>
<g >
</g>
<g >
</g>
<g >
</g>
<g >
</g>
<g >
</g>
<g >
</g>
<g >
</g>
<g >
</g>
<g >
</g>
<g >
</g>
<g >
</g>
<g >
</g>
<g >
</g>
<g >
</g>
<g >
</g>
<g >
</g>
<g >
</g>
<g >
</g>
<g >
</g>
<g >
</g>
<g >
</g>
<g >
</g>
<g >
</g>
<g >
</g>
<g >
</g>
<g >
</g>
<g >
</g>
<g >
</g>
<g >
</g>
<g >
</g>
<g >
</g>
<g >
</g>
<g >
</g>
<g >
</g>
<g >
</g>
<g >
</g>
<g >
</g>
<g >
</g>
<g >
</g>
<g >
</g>
</g>
<g style="fill:#000000; fill-opacity:1.0; 
stroke:#000000; stroke-width:3.93701; stroke-opacity:1; 
stroke-linecap:round; stroke-linejoin:round;">
</g>
<g style="fill:#000000; fill-opacity:0.0; 
stroke:#000000; stroke-width:3.93701; stroke-opacity:1; 
stroke-linecap:round; stroke-linejoin:round;">
</g>
<g style="fill:#000000; fill-opacity:0.0; 
stroke:#000000; stroke-width:59.0551; stroke-opacity:1; 
stroke-linecap:round; stroke-linejoin:round;">
<g transform="rotate(-90 41955 53275)">
<text x="41955" y="53471.9"
textLength="733.971" font-size="524.934" lengthAdjust="spacingAndGlyphs"
text-anchor="middle" opacity="0">J8</text>
</g>
<path d="M41739 53406
L42020 53406
L42076 53424
L42114 53462
L42133 53518
L42133 53556
" />
<path d="M41908 53162
L41889 53200
L41870 53218
L41833 53237
L41814 53237
L41776 53218
L41758 53200
L41739 53162
L41739 53087
L41758 53050
L41776 53031
L41814 53012
L41833 53012
L41870 53031
L41889 53050
L41908 53087
L41908 53162
L41926 53200
L41945 53218
L41983 53237
L42058 53237
L42095 53218
L42114 53200
L42133 53162
L42133 53087
L42114 53050
L42095 53031
L42058 53012
L41983 53012
L41945 53031
L41926 53050
L41908 53087
" />
<g transform="rotate(-90 41955 52300)">
<text x="41955" y="52496.9"
textLength="751.687" font-size="524.934" lengthAdjust="spacingAndGlyphs"
text-anchor="middle" opacity="0">J7</text>
</g>
<path d="M41739 52431
L42020 52431
L42076 52449
L42114 52487
L42133 52543
L42133 52581
" />
<path d="M41739 52281
L41739 52018
L42133 52187
" />
<g transform="rotate(-90 41880 51245)">
<text x="41880" y="51441.9"
textLength="751.687" font-size="524.934" lengthAdjust="spacingAndGlyphs"
text-anchor="middle" opacity="0">J6</text>
</g>
<path d="M41664 51376
L41945 51376
L42001 51394
L42039 51432
L42058 51488
L42058 51526
" />
<path d="M41664 51020
L41664 51095
L41683 51132
L41701 51151
L41758 51188
L41833 51207
L41983 51207
L42020 51188
L42039 51170
L42058 51132
L42058 51057
L42039 51020
L42020 51001
L41983 50982
L41889 50982
L41851 51001
L41833 51020
L41814 51057
L41814 51132
L41833 51170
L41851 51188
L41889 51207
" />
<g transform="rotate(-90 41820 48015)">
<text x="41820" y="48211.9"
textLength="751.687" font-size="524.934" lengthAdjust="spacingAndGlyphs"
text-anchor="middle" opacity="0">J4</text>
</g>
<path d="M41604 48146
L41885 48146
L41941 48164
L41979 48202
L41998 48258
L41998 48296
" />
<path d="M41735 47790
L41998 47790
" />
<path d="M41585 47883
L41866 47977
L41866 47733
" />
<g transform="rotate(-90 42030 41485)">
<text x="42030" y="41681.9"
textLength="751.687" font-size="524.934" lengthAdjust="spacingAndGlyphs"
text-anchor="middle" opacity="0">J3</text>
</g>
<path d="M41814 41616
L42095 41616
L42151 41634
L42189 41672
L42208 41728
L42208 41766
" />
<path d="M41814 41466
L41814 41222
L41964 41353
L41964 41297
L41983 41260
L42001 41241
L42039 41222
L42133 41222
L42170 41241
L42189 41260
L42208 41297
L42208 41410
L42189 41447
L42170 41466
" />
<g transform="rotate(-90 41850 50085)">
<text x="41850" y="50281.9"
textLength="751.687" font-size="524.934" lengthAdjust="spacingAndGlyphs"
text-anchor="middle" opacity="0">J5</text>
</g>
<path d="M41634 50216
L41915 50216
L41971 50234
L42009 50272
L42028 50328
L42028 50366
" />
<path d="M41634 49841
L41634 50028
L41821 50047
L41803 50028
L41784 49991
L41784 49897
L41803 49860
L41821 49841
L41859 49822
L41953 49822
L41990 49841
L42009 49860
L42028 49897
L42028 49991
L42009 50028
L41990 50047
" />
<g transform="rotate(-90 65850 42415)">
<text x="65850" y="42611.9"
textLength="751.687" font-size="524.934" lengthAdjust="spacingAndGlyphs"
text-anchor="middle" opacity="0">J1</text>
</g>
<path d="M65634 42546
L65915 42546
L65971 42564
L66009 42602
L66028 42658
L66028 42696
" />
<path d="M66028 42152
L66028 42377
" />
<path d="M66028 42265
L65634 42265
L65690 42302
L65728 42340
L65746 42377
" />
<g transform="rotate(-90 65755 55592)">
<text x="65755" y="55788.8"
textLength="751.687" font-size="524.934" lengthAdjust="spacingAndGlyphs"
text-anchor="middle" opacity="0">J2</text>
</g>
<path d="M65539 55723
L65820 55723
L65876 55741
L65914 55779
L65933 55835
L65933 55873
" />
<path d="M65576 55554
L65558 55535
L65539 55498
L65539 55404
L65558 55366
L65576 55348
L65614 55329
L65651 55329
L65708 55348
L65933 55573
L65933 55329
" />
<g >
</g>
</g> 
</svg>
