G04 #@! TF.GenerationSoftware,KiCad,Pcbnew,5.1.5+dfsg1-2build2*
G04 #@! TF.CreationDate,2022-02-15T20:05:43-05:00*
G04 #@! TF.ProjectId,MCU_PROTO_83x58mm,4d43555f-5052-44f5-944f-5f3833783538,rev?*
G04 #@! TF.SameCoordinates,Original*
G04 #@! TF.FileFunction,Copper,L2,Bot*
G04 #@! TF.FilePolarity,Positive*
%FSLAX46Y46*%
G04 Gerber Fmt 4.6, Leading zero omitted, Abs format (unit mm)*
G04 Created by KiCad (PCBNEW 5.1.5+dfsg1-2build2) date 2022-02-15 20:05:43*
%MOMM*%
%LPD*%
G04 APERTURE LIST*
%ADD10C,0.010000*%
%ADD11O,1.700000X1.700000*%
%ADD12R,1.700000X1.700000*%
%ADD13C,2.000000*%
%ADD14C,2.400000*%
%ADD15R,2.400000X2.400000*%
%ADD16C,1.998980*%
%ADD17C,0.500000*%
%ADD18C,0.254000*%
G04 APERTURE END LIST*
D10*
G36*
X101177131Y-117751414D02*
G01*
X101621755Y-117835235D01*
X101749253Y-118144520D01*
X101876751Y-118453806D01*
X101624446Y-118824846D01*
X101554196Y-118928757D01*
X101491472Y-119022687D01*
X101439138Y-119102252D01*
X101400057Y-119163070D01*
X101377093Y-119200757D01*
X101372142Y-119211021D01*
X101384876Y-119229510D01*
X101420082Y-119269020D01*
X101473262Y-119325122D01*
X101539918Y-119393387D01*
X101615554Y-119469386D01*
X101695672Y-119548692D01*
X101775774Y-119626875D01*
X101851364Y-119699507D01*
X101917945Y-119762159D01*
X101971018Y-119810403D01*
X102006087Y-119839810D01*
X102017823Y-119846841D01*
X102039460Y-119836723D01*
X102086862Y-119808359D01*
X102155393Y-119764729D01*
X102240415Y-119708818D01*
X102337293Y-119643606D01*
X102392550Y-119605819D01*
X102493448Y-119536943D01*
X102584499Y-119475740D01*
X102661170Y-119425178D01*
X102718928Y-119388228D01*
X102753243Y-119367858D01*
X102760454Y-119364797D01*
X102780948Y-119371736D01*
X102828713Y-119390651D01*
X102897032Y-119418687D01*
X102979189Y-119452991D01*
X103068470Y-119490709D01*
X103158158Y-119528987D01*
X103241538Y-119564970D01*
X103311894Y-119595806D01*
X103362510Y-119618639D01*
X103386671Y-119630617D01*
X103387622Y-119631324D01*
X103392236Y-119650131D01*
X103402528Y-119700218D01*
X103417487Y-119776393D01*
X103436101Y-119873465D01*
X103457359Y-119986243D01*
X103469618Y-120052042D01*
X103492562Y-120172550D01*
X103514395Y-120281397D01*
X103533922Y-120373076D01*
X103549948Y-120442081D01*
X103561279Y-120482904D01*
X103564874Y-120491111D01*
X103589206Y-120499148D01*
X103644159Y-120505633D01*
X103723308Y-120510570D01*
X103820226Y-120513964D01*
X103928487Y-120515818D01*
X104041665Y-120516138D01*
X104153335Y-120514927D01*
X104257068Y-120512190D01*
X104346441Y-120507931D01*
X104415026Y-120502155D01*
X104456397Y-120494867D01*
X104465010Y-120490495D01*
X104475333Y-120464364D01*
X104490092Y-120408993D01*
X104507552Y-120331707D01*
X104525980Y-120239830D01*
X104531941Y-120207758D01*
X104560266Y-120053124D01*
X104583076Y-119930975D01*
X104601280Y-119837273D01*
X104615783Y-119767984D01*
X104627492Y-119719071D01*
X104637315Y-119686497D01*
X104646156Y-119666228D01*
X104654924Y-119654226D01*
X104656657Y-119652547D01*
X104684571Y-119635784D01*
X104738895Y-119610214D01*
X104812977Y-119578388D01*
X104900165Y-119542860D01*
X104993808Y-119506183D01*
X105087252Y-119470911D01*
X105173847Y-119439596D01*
X105246940Y-119414793D01*
X105299878Y-119399054D01*
X105326011Y-119394932D01*
X105326926Y-119395276D01*
X105348286Y-119409241D01*
X105395284Y-119440922D01*
X105463027Y-119486991D01*
X105546623Y-119544118D01*
X105641182Y-119608973D01*
X105668054Y-119627443D01*
X105765475Y-119693299D01*
X105854363Y-119751250D01*
X105929612Y-119798138D01*
X105986120Y-119830807D01*
X106018781Y-119846100D01*
X106022793Y-119846841D01*
X106043884Y-119833992D01*
X106085664Y-119798488D01*
X106143645Y-119744893D01*
X106213335Y-119677771D01*
X106290245Y-119601687D01*
X106369883Y-119521204D01*
X106447761Y-119440887D01*
X106519386Y-119365299D01*
X106580270Y-119299005D01*
X106625921Y-119246569D01*
X106651850Y-119212555D01*
X106656083Y-119203145D01*
X106646112Y-119181243D01*
X106619220Y-119136400D01*
X106579936Y-119075921D01*
X106548317Y-119029389D01*
X106490298Y-118945075D01*
X106421984Y-118845226D01*
X106353779Y-118745073D01*
X106317275Y-118691227D01*
X106194000Y-118508971D01*
X106276720Y-118355981D01*
X106312959Y-118286282D01*
X106341126Y-118227014D01*
X106357191Y-118186911D01*
X106359426Y-118176703D01*
X106342922Y-118164429D01*
X106296282Y-118140213D01*
X106223809Y-118105863D01*
X106129806Y-118063188D01*
X106018574Y-118013994D01*
X105894415Y-117960090D01*
X105761632Y-117903284D01*
X105624527Y-117845382D01*
X105487402Y-117788193D01*
X105354558Y-117733524D01*
X105230298Y-117683184D01*
X105118925Y-117638980D01*
X105024739Y-117602719D01*
X104952044Y-117576209D01*
X104905141Y-117561258D01*
X104889033Y-117558854D01*
X104868486Y-117577911D01*
X104835133Y-117619636D01*
X104795902Y-117675306D01*
X104792799Y-117679978D01*
X104677623Y-117823864D01*
X104543253Y-117939883D01*
X104393984Y-118027030D01*
X104234113Y-118084299D01*
X104067937Y-118110686D01*
X103899752Y-118105185D01*
X103733855Y-118066790D01*
X103574542Y-117994495D01*
X103539687Y-117973226D01*
X103398937Y-117862596D01*
X103285914Y-117731902D01*
X103201203Y-117585664D01*
X103145394Y-117428408D01*
X103119074Y-117264657D01*
X103122830Y-117098933D01*
X103157250Y-116935762D01*
X103222923Y-116779665D01*
X103320435Y-116635167D01*
X103360013Y-116590469D01*
X103483903Y-116476712D01*
X103614324Y-116393818D01*
X103760515Y-116336956D01*
X103905288Y-116305287D01*
X104068060Y-116297469D01*
X104231640Y-116323538D01*
X104390498Y-116380845D01*
X104539106Y-116466744D01*
X104671935Y-116578586D01*
X104783456Y-116713723D01*
X104795211Y-116731483D01*
X104833708Y-116787750D01*
X104867063Y-116830523D01*
X104888360Y-116850972D01*
X104889033Y-116851269D01*
X104912071Y-116846879D01*
X104964357Y-116829476D01*
X105041590Y-116800868D01*
X105139468Y-116762865D01*
X105253691Y-116717274D01*
X105379958Y-116665903D01*
X105513967Y-116610562D01*
X105651418Y-116553058D01*
X105788008Y-116495201D01*
X105919437Y-116438798D01*
X106041405Y-116385658D01*
X106149609Y-116337590D01*
X106239749Y-116296401D01*
X106307523Y-116263901D01*
X106348630Y-116241897D01*
X106359426Y-116233036D01*
X106351019Y-116205960D01*
X106328472Y-116155297D01*
X106295813Y-116089783D01*
X106276720Y-116053759D01*
X106194000Y-115900768D01*
X106317275Y-115718512D01*
X106380428Y-115625475D01*
X106449927Y-115523615D01*
X106515365Y-115428162D01*
X106548317Y-115380350D01*
X106593473Y-115313105D01*
X106629257Y-115256164D01*
X106651138Y-115216954D01*
X106655763Y-115204219D01*
X106643285Y-115185683D01*
X106608452Y-115144659D01*
X106554878Y-115085125D01*
X106486183Y-115011058D01*
X106405981Y-114926435D01*
X106354486Y-114872915D01*
X106262486Y-114779281D01*
X106180199Y-114698359D01*
X106111145Y-114633423D01*
X106058844Y-114587742D01*
X106026816Y-114564589D01*
X106020316Y-114562368D01*
X105995594Y-114572676D01*
X105945605Y-114601161D01*
X105875412Y-114644663D01*
X105790075Y-114700023D01*
X105694656Y-114764080D01*
X105668054Y-114782297D01*
X105571367Y-114848673D01*
X105484317Y-114908222D01*
X105411795Y-114957616D01*
X105358693Y-114993525D01*
X105329903Y-115012619D01*
X105326926Y-115014464D01*
X105303982Y-115011705D01*
X105253536Y-114997062D01*
X105182241Y-114973087D01*
X105096747Y-114942334D01*
X105003707Y-114907356D01*
X104909774Y-114870707D01*
X104821599Y-114834939D01*
X104745834Y-114802606D01*
X104689131Y-114776262D01*
X104658143Y-114758458D01*
X104656657Y-114757193D01*
X104647801Y-114746306D01*
X104639043Y-114727918D01*
X104629477Y-114697994D01*
X104618196Y-114652497D01*
X104604293Y-114587391D01*
X104586863Y-114498639D01*
X104564998Y-114382207D01*
X104537791Y-114234058D01*
X104531941Y-114201982D01*
X104513574Y-114106914D01*
X104495605Y-114024035D01*
X104479769Y-113960670D01*
X104467800Y-113924142D01*
X104465010Y-113919244D01*
X104440272Y-113911173D01*
X104384990Y-113904613D01*
X104305589Y-113899567D01*
X104208496Y-113896041D01*
X104100138Y-113894039D01*
X103986940Y-113893564D01*
X103875328Y-113894623D01*
X103771729Y-113897218D01*
X103682568Y-113901354D01*
X103614272Y-113907037D01*
X103573266Y-113914269D01*
X103564874Y-113918629D01*
X103556408Y-113942902D01*
X103542635Y-113998174D01*
X103524750Y-114078938D01*
X103503948Y-114179688D01*
X103481423Y-114294917D01*
X103469618Y-114357698D01*
X103447351Y-114476813D01*
X103427179Y-114583035D01*
X103410115Y-114671173D01*
X103397169Y-114736034D01*
X103389355Y-114772426D01*
X103387622Y-114778416D01*
X103368090Y-114788539D01*
X103321043Y-114809938D01*
X103253203Y-114839761D01*
X103171291Y-114875155D01*
X103082028Y-114913268D01*
X102992135Y-114951247D01*
X102908335Y-114986240D01*
X102837347Y-115015394D01*
X102785894Y-115035857D01*
X102760697Y-115044777D01*
X102759596Y-115044943D01*
X102739719Y-115034831D01*
X102693977Y-115006483D01*
X102626917Y-114962877D01*
X102543084Y-114906994D01*
X102447026Y-114841813D01*
X102391850Y-114803921D01*
X102290681Y-114734875D01*
X102198830Y-114673550D01*
X102120944Y-114622937D01*
X102061669Y-114586029D01*
X102025651Y-114565818D01*
X102017577Y-114562899D01*
X101998784Y-114575447D01*
X101958657Y-114610137D01*
X101901693Y-114662537D01*
X101832385Y-114728216D01*
X101755231Y-114802744D01*
X101674725Y-114881687D01*
X101595363Y-114960617D01*
X101521640Y-115035100D01*
X101458052Y-115100706D01*
X101409094Y-115153004D01*
X101379261Y-115187561D01*
X101372142Y-115199122D01*
X101382153Y-115217946D01*
X101410278Y-115262969D01*
X101453654Y-115329813D01*
X101509418Y-115414101D01*
X101574706Y-115511456D01*
X101624446Y-115584893D01*
X101876751Y-115955933D01*
X101621755Y-116574505D01*
X101177131Y-116658325D01*
X100732507Y-116742146D01*
X100732507Y-117667594D01*
X101177131Y-117751414D01*
G37*
X101177131Y-117751414D02*
X101621755Y-117835235D01*
X101749253Y-118144520D01*
X101876751Y-118453806D01*
X101624446Y-118824846D01*
X101554196Y-118928757D01*
X101491472Y-119022687D01*
X101439138Y-119102252D01*
X101400057Y-119163070D01*
X101377093Y-119200757D01*
X101372142Y-119211021D01*
X101384876Y-119229510D01*
X101420082Y-119269020D01*
X101473262Y-119325122D01*
X101539918Y-119393387D01*
X101615554Y-119469386D01*
X101695672Y-119548692D01*
X101775774Y-119626875D01*
X101851364Y-119699507D01*
X101917945Y-119762159D01*
X101971018Y-119810403D01*
X102006087Y-119839810D01*
X102017823Y-119846841D01*
X102039460Y-119836723D01*
X102086862Y-119808359D01*
X102155393Y-119764729D01*
X102240415Y-119708818D01*
X102337293Y-119643606D01*
X102392550Y-119605819D01*
X102493448Y-119536943D01*
X102584499Y-119475740D01*
X102661170Y-119425178D01*
X102718928Y-119388228D01*
X102753243Y-119367858D01*
X102760454Y-119364797D01*
X102780948Y-119371736D01*
X102828713Y-119390651D01*
X102897032Y-119418687D01*
X102979189Y-119452991D01*
X103068470Y-119490709D01*
X103158158Y-119528987D01*
X103241538Y-119564970D01*
X103311894Y-119595806D01*
X103362510Y-119618639D01*
X103386671Y-119630617D01*
X103387622Y-119631324D01*
X103392236Y-119650131D01*
X103402528Y-119700218D01*
X103417487Y-119776393D01*
X103436101Y-119873465D01*
X103457359Y-119986243D01*
X103469618Y-120052042D01*
X103492562Y-120172550D01*
X103514395Y-120281397D01*
X103533922Y-120373076D01*
X103549948Y-120442081D01*
X103561279Y-120482904D01*
X103564874Y-120491111D01*
X103589206Y-120499148D01*
X103644159Y-120505633D01*
X103723308Y-120510570D01*
X103820226Y-120513964D01*
X103928487Y-120515818D01*
X104041665Y-120516138D01*
X104153335Y-120514927D01*
X104257068Y-120512190D01*
X104346441Y-120507931D01*
X104415026Y-120502155D01*
X104456397Y-120494867D01*
X104465010Y-120490495D01*
X104475333Y-120464364D01*
X104490092Y-120408993D01*
X104507552Y-120331707D01*
X104525980Y-120239830D01*
X104531941Y-120207758D01*
X104560266Y-120053124D01*
X104583076Y-119930975D01*
X104601280Y-119837273D01*
X104615783Y-119767984D01*
X104627492Y-119719071D01*
X104637315Y-119686497D01*
X104646156Y-119666228D01*
X104654924Y-119654226D01*
X104656657Y-119652547D01*
X104684571Y-119635784D01*
X104738895Y-119610214D01*
X104812977Y-119578388D01*
X104900165Y-119542860D01*
X104993808Y-119506183D01*
X105087252Y-119470911D01*
X105173847Y-119439596D01*
X105246940Y-119414793D01*
X105299878Y-119399054D01*
X105326011Y-119394932D01*
X105326926Y-119395276D01*
X105348286Y-119409241D01*
X105395284Y-119440922D01*
X105463027Y-119486991D01*
X105546623Y-119544118D01*
X105641182Y-119608973D01*
X105668054Y-119627443D01*
X105765475Y-119693299D01*
X105854363Y-119751250D01*
X105929612Y-119798138D01*
X105986120Y-119830807D01*
X106018781Y-119846100D01*
X106022793Y-119846841D01*
X106043884Y-119833992D01*
X106085664Y-119798488D01*
X106143645Y-119744893D01*
X106213335Y-119677771D01*
X106290245Y-119601687D01*
X106369883Y-119521204D01*
X106447761Y-119440887D01*
X106519386Y-119365299D01*
X106580270Y-119299005D01*
X106625921Y-119246569D01*
X106651850Y-119212555D01*
X106656083Y-119203145D01*
X106646112Y-119181243D01*
X106619220Y-119136400D01*
X106579936Y-119075921D01*
X106548317Y-119029389D01*
X106490298Y-118945075D01*
X106421984Y-118845226D01*
X106353779Y-118745073D01*
X106317275Y-118691227D01*
X106194000Y-118508971D01*
X106276720Y-118355981D01*
X106312959Y-118286282D01*
X106341126Y-118227014D01*
X106357191Y-118186911D01*
X106359426Y-118176703D01*
X106342922Y-118164429D01*
X106296282Y-118140213D01*
X106223809Y-118105863D01*
X106129806Y-118063188D01*
X106018574Y-118013994D01*
X105894415Y-117960090D01*
X105761632Y-117903284D01*
X105624527Y-117845382D01*
X105487402Y-117788193D01*
X105354558Y-117733524D01*
X105230298Y-117683184D01*
X105118925Y-117638980D01*
X105024739Y-117602719D01*
X104952044Y-117576209D01*
X104905141Y-117561258D01*
X104889033Y-117558854D01*
X104868486Y-117577911D01*
X104835133Y-117619636D01*
X104795902Y-117675306D01*
X104792799Y-117679978D01*
X104677623Y-117823864D01*
X104543253Y-117939883D01*
X104393984Y-118027030D01*
X104234113Y-118084299D01*
X104067937Y-118110686D01*
X103899752Y-118105185D01*
X103733855Y-118066790D01*
X103574542Y-117994495D01*
X103539687Y-117973226D01*
X103398937Y-117862596D01*
X103285914Y-117731902D01*
X103201203Y-117585664D01*
X103145394Y-117428408D01*
X103119074Y-117264657D01*
X103122830Y-117098933D01*
X103157250Y-116935762D01*
X103222923Y-116779665D01*
X103320435Y-116635167D01*
X103360013Y-116590469D01*
X103483903Y-116476712D01*
X103614324Y-116393818D01*
X103760515Y-116336956D01*
X103905288Y-116305287D01*
X104068060Y-116297469D01*
X104231640Y-116323538D01*
X104390498Y-116380845D01*
X104539106Y-116466744D01*
X104671935Y-116578586D01*
X104783456Y-116713723D01*
X104795211Y-116731483D01*
X104833708Y-116787750D01*
X104867063Y-116830523D01*
X104888360Y-116850972D01*
X104889033Y-116851269D01*
X104912071Y-116846879D01*
X104964357Y-116829476D01*
X105041590Y-116800868D01*
X105139468Y-116762865D01*
X105253691Y-116717274D01*
X105379958Y-116665903D01*
X105513967Y-116610562D01*
X105651418Y-116553058D01*
X105788008Y-116495201D01*
X105919437Y-116438798D01*
X106041405Y-116385658D01*
X106149609Y-116337590D01*
X106239749Y-116296401D01*
X106307523Y-116263901D01*
X106348630Y-116241897D01*
X106359426Y-116233036D01*
X106351019Y-116205960D01*
X106328472Y-116155297D01*
X106295813Y-116089783D01*
X106276720Y-116053759D01*
X106194000Y-115900768D01*
X106317275Y-115718512D01*
X106380428Y-115625475D01*
X106449927Y-115523615D01*
X106515365Y-115428162D01*
X106548317Y-115380350D01*
X106593473Y-115313105D01*
X106629257Y-115256164D01*
X106651138Y-115216954D01*
X106655763Y-115204219D01*
X106643285Y-115185683D01*
X106608452Y-115144659D01*
X106554878Y-115085125D01*
X106486183Y-115011058D01*
X106405981Y-114926435D01*
X106354486Y-114872915D01*
X106262486Y-114779281D01*
X106180199Y-114698359D01*
X106111145Y-114633423D01*
X106058844Y-114587742D01*
X106026816Y-114564589D01*
X106020316Y-114562368D01*
X105995594Y-114572676D01*
X105945605Y-114601161D01*
X105875412Y-114644663D01*
X105790075Y-114700023D01*
X105694656Y-114764080D01*
X105668054Y-114782297D01*
X105571367Y-114848673D01*
X105484317Y-114908222D01*
X105411795Y-114957616D01*
X105358693Y-114993525D01*
X105329903Y-115012619D01*
X105326926Y-115014464D01*
X105303982Y-115011705D01*
X105253536Y-114997062D01*
X105182241Y-114973087D01*
X105096747Y-114942334D01*
X105003707Y-114907356D01*
X104909774Y-114870707D01*
X104821599Y-114834939D01*
X104745834Y-114802606D01*
X104689131Y-114776262D01*
X104658143Y-114758458D01*
X104656657Y-114757193D01*
X104647801Y-114746306D01*
X104639043Y-114727918D01*
X104629477Y-114697994D01*
X104618196Y-114652497D01*
X104604293Y-114587391D01*
X104586863Y-114498639D01*
X104564998Y-114382207D01*
X104537791Y-114234058D01*
X104531941Y-114201982D01*
X104513574Y-114106914D01*
X104495605Y-114024035D01*
X104479769Y-113960670D01*
X104467800Y-113924142D01*
X104465010Y-113919244D01*
X104440272Y-113911173D01*
X104384990Y-113904613D01*
X104305589Y-113899567D01*
X104208496Y-113896041D01*
X104100138Y-113894039D01*
X103986940Y-113893564D01*
X103875328Y-113894623D01*
X103771729Y-113897218D01*
X103682568Y-113901354D01*
X103614272Y-113907037D01*
X103573266Y-113914269D01*
X103564874Y-113918629D01*
X103556408Y-113942902D01*
X103542635Y-113998174D01*
X103524750Y-114078938D01*
X103503948Y-114179688D01*
X103481423Y-114294917D01*
X103469618Y-114357698D01*
X103447351Y-114476813D01*
X103427179Y-114583035D01*
X103410115Y-114671173D01*
X103397169Y-114736034D01*
X103389355Y-114772426D01*
X103387622Y-114778416D01*
X103368090Y-114788539D01*
X103321043Y-114809938D01*
X103253203Y-114839761D01*
X103171291Y-114875155D01*
X103082028Y-114913268D01*
X102992135Y-114951247D01*
X102908335Y-114986240D01*
X102837347Y-115015394D01*
X102785894Y-115035857D01*
X102760697Y-115044777D01*
X102759596Y-115044943D01*
X102739719Y-115034831D01*
X102693977Y-115006483D01*
X102626917Y-114962877D01*
X102543084Y-114906994D01*
X102447026Y-114841813D01*
X102391850Y-114803921D01*
X102290681Y-114734875D01*
X102198830Y-114673550D01*
X102120944Y-114622937D01*
X102061669Y-114586029D01*
X102025651Y-114565818D01*
X102017577Y-114562899D01*
X101998784Y-114575447D01*
X101958657Y-114610137D01*
X101901693Y-114662537D01*
X101832385Y-114728216D01*
X101755231Y-114802744D01*
X101674725Y-114881687D01*
X101595363Y-114960617D01*
X101521640Y-115035100D01*
X101458052Y-115100706D01*
X101409094Y-115153004D01*
X101379261Y-115187561D01*
X101372142Y-115199122D01*
X101382153Y-115217946D01*
X101410278Y-115262969D01*
X101453654Y-115329813D01*
X101509418Y-115414101D01*
X101574706Y-115511456D01*
X101624446Y-115584893D01*
X101876751Y-115955933D01*
X101621755Y-116574505D01*
X101177131Y-116658325D01*
X100732507Y-116742146D01*
X100732507Y-117667594D01*
X101177131Y-117751414D01*
D11*
X158520000Y-110530000D03*
X155980000Y-110530000D03*
X153440000Y-110530000D03*
X150900000Y-110530000D03*
X148360000Y-110530000D03*
X145820000Y-110530000D03*
X143280000Y-110530000D03*
X140740000Y-110530000D03*
X138200000Y-110530000D03*
X135660000Y-110530000D03*
X133120000Y-110530000D03*
X130580000Y-110530000D03*
X128040000Y-110530000D03*
X125500000Y-110530000D03*
X122960000Y-110530000D03*
X120420000Y-110530000D03*
X117880000Y-110530000D03*
X115340000Y-110530000D03*
X112800000Y-110530000D03*
D12*
X110260000Y-110530000D03*
D11*
X158520000Y-120690000D03*
X155980000Y-120690000D03*
X153440000Y-120690000D03*
X150900000Y-120690000D03*
X148360000Y-120690000D03*
X145820000Y-120690000D03*
X143280000Y-120690000D03*
X140740000Y-120690000D03*
X138200000Y-120690000D03*
X135660000Y-120690000D03*
X133120000Y-120690000D03*
X130580000Y-120690000D03*
X128040000Y-120690000D03*
X125500000Y-120690000D03*
X122960000Y-120690000D03*
X120420000Y-120690000D03*
X117880000Y-120690000D03*
X115340000Y-120690000D03*
X112800000Y-120690000D03*
D12*
X110260000Y-120690000D03*
D13*
X110260000Y-113070000D03*
D14*
X168000000Y-130800000D03*
X168000000Y-134300000D03*
D15*
X168000000Y-137800000D03*
D11*
X158520000Y-107990000D03*
X155980000Y-107990000D03*
X153440000Y-107990000D03*
X150900000Y-107990000D03*
X148360000Y-107990000D03*
X145820000Y-107990000D03*
X143280000Y-107990000D03*
X140740000Y-107990000D03*
X138200000Y-107990000D03*
X135660000Y-107990000D03*
X133120000Y-107990000D03*
X130580000Y-107990000D03*
X128040000Y-107990000D03*
X125500000Y-107990000D03*
X122960000Y-107990000D03*
X120420000Y-107990000D03*
X117880000Y-107990000D03*
X115340000Y-107990000D03*
X112800000Y-107990000D03*
D12*
X110260000Y-107990000D03*
D13*
X158520000Y-125770000D03*
X155980000Y-125770000D03*
X153440000Y-125770000D03*
X150900000Y-125770000D03*
X148360000Y-125770000D03*
X145820000Y-125770000D03*
X143280000Y-125770000D03*
X140740000Y-125770000D03*
X138200000Y-125770000D03*
X135660000Y-125770000D03*
X133120000Y-125770000D03*
X130580000Y-125770000D03*
X128040000Y-125770000D03*
X125500000Y-125770000D03*
X122960000Y-125770000D03*
X120420000Y-125770000D03*
X117880000Y-125770000D03*
X115340000Y-125770000D03*
X112800000Y-125770000D03*
X110260000Y-125770000D03*
X158520000Y-143550000D03*
X155980000Y-143550000D03*
X153440000Y-143550000D03*
X150900000Y-143550000D03*
X148360000Y-143550000D03*
X145820000Y-143550000D03*
X143280000Y-143550000D03*
X140740000Y-143550000D03*
X138200000Y-143550000D03*
X135660000Y-143550000D03*
X133120000Y-143550000D03*
X130580000Y-143550000D03*
X128040000Y-143550000D03*
X125500000Y-143550000D03*
X122960000Y-143550000D03*
X120420000Y-143550000D03*
X158520000Y-141010000D03*
X155980000Y-141010000D03*
X153440000Y-141010000D03*
X150900000Y-141010000D03*
X148360000Y-141010000D03*
X145820000Y-141010000D03*
X143280000Y-141010000D03*
X140740000Y-141010000D03*
X138200000Y-141010000D03*
X135660000Y-141010000D03*
X133120000Y-141010000D03*
X130580000Y-141010000D03*
X128040000Y-141010000D03*
X125500000Y-141010000D03*
X122960000Y-141010000D03*
X120420000Y-141010000D03*
X158520000Y-138470000D03*
X155980000Y-138470000D03*
X153440000Y-138470000D03*
X150900000Y-138470000D03*
X148360000Y-138470000D03*
X145820000Y-138470000D03*
X143280000Y-138470000D03*
X140740000Y-138470000D03*
X138200000Y-138470000D03*
X135660000Y-138470000D03*
X133120000Y-138470000D03*
X130580000Y-138470000D03*
X128040000Y-138470000D03*
X125500000Y-138470000D03*
X122960000Y-138470000D03*
X120420000Y-138470000D03*
X117880000Y-138470000D03*
X115340000Y-138470000D03*
X112800000Y-138470000D03*
X110260000Y-138470000D03*
X158520000Y-135930000D03*
X155980000Y-135930000D03*
X153440000Y-135930000D03*
X150900000Y-135930000D03*
X148360000Y-135930000D03*
X145820000Y-135930000D03*
X143280000Y-135930000D03*
X140740000Y-135930000D03*
X138200000Y-135930000D03*
X135660000Y-135930000D03*
X133120000Y-135930000D03*
X130580000Y-135930000D03*
X128040000Y-135930000D03*
X125500000Y-135930000D03*
X122960000Y-135930000D03*
X120420000Y-135930000D03*
X117880000Y-135930000D03*
X115340000Y-135930000D03*
X112800000Y-135930000D03*
X110260000Y-135930000D03*
X158520000Y-118150000D03*
X155980000Y-118150000D03*
X153440000Y-118150000D03*
X150900000Y-118150000D03*
X148360000Y-118150000D03*
X145820000Y-118150000D03*
X143280000Y-118150000D03*
X140740000Y-118150000D03*
X138200000Y-118150000D03*
X135660000Y-118150000D03*
X133120000Y-118150000D03*
X130580000Y-118150000D03*
X128040000Y-118150000D03*
X125500000Y-118150000D03*
X122960000Y-118150000D03*
X120420000Y-118150000D03*
X117880000Y-118150000D03*
X115340000Y-118150000D03*
X112800000Y-118150000D03*
X110260000Y-118150000D03*
X158520000Y-115610000D03*
X155980000Y-115610000D03*
X153440000Y-115610000D03*
X150900000Y-115610000D03*
X148360000Y-115610000D03*
X145820000Y-115610000D03*
X143280000Y-115610000D03*
X140740000Y-115610000D03*
X138200000Y-115610000D03*
X135660000Y-115610000D03*
X133120000Y-115610000D03*
X130580000Y-115610000D03*
X128040000Y-115610000D03*
X125500000Y-115610000D03*
X122960000Y-115610000D03*
X120420000Y-115610000D03*
X117880000Y-115610000D03*
X115340000Y-115610000D03*
X112800000Y-115610000D03*
X110260000Y-115610000D03*
X158520000Y-113070000D03*
X155980000Y-113070000D03*
X153440000Y-113070000D03*
X150900000Y-113070000D03*
X148360000Y-113070000D03*
X145820000Y-113070000D03*
X143280000Y-113070000D03*
X140740000Y-113070000D03*
X138200000Y-113070000D03*
X135660000Y-113070000D03*
X133120000Y-113070000D03*
X130580000Y-113070000D03*
X128040000Y-113070000D03*
X125500000Y-113070000D03*
X122960000Y-113070000D03*
X120420000Y-113070000D03*
X117880000Y-113070000D03*
X115340000Y-113070000D03*
X112800000Y-113070000D03*
X110260000Y-102910000D03*
X112800000Y-102910000D03*
X115340000Y-102910000D03*
X117880000Y-102910000D03*
X120420000Y-102910000D03*
X122960000Y-102910000D03*
X122960000Y-146090000D03*
X120420000Y-146090000D03*
X158520000Y-146090000D03*
X155980000Y-146090000D03*
X138200000Y-146090000D03*
X145820000Y-146090000D03*
X140740000Y-146090000D03*
X135660000Y-146090000D03*
X133120000Y-146090000D03*
X130580000Y-146090000D03*
X128040000Y-146090000D03*
X125500000Y-146090000D03*
X143280000Y-146090000D03*
X148360000Y-146090000D03*
X153440000Y-146090000D03*
X150900000Y-146090000D03*
D11*
X158520000Y-133390000D03*
X155980000Y-133390000D03*
X153440000Y-133390000D03*
X150900000Y-133390000D03*
X148360000Y-133390000D03*
X145820000Y-133390000D03*
X143280000Y-133390000D03*
X140740000Y-133390000D03*
X138200000Y-133390000D03*
X135660000Y-133390000D03*
X133120000Y-133390000D03*
X130580000Y-133390000D03*
X128040000Y-133390000D03*
X125500000Y-133390000D03*
X122960000Y-133390000D03*
X120420000Y-133390000D03*
X117880000Y-133390000D03*
X115340000Y-133390000D03*
X112800000Y-133390000D03*
D12*
X110260000Y-133390000D03*
D11*
X158520000Y-130850000D03*
X155980000Y-130850000D03*
X153440000Y-130850000D03*
X150900000Y-130850000D03*
X148360000Y-130850000D03*
X145820000Y-130850000D03*
X143280000Y-130850000D03*
X140740000Y-130850000D03*
X138200000Y-130850000D03*
X135660000Y-130850000D03*
X133120000Y-130850000D03*
X130580000Y-130850000D03*
X128040000Y-130850000D03*
X125500000Y-130850000D03*
X122960000Y-130850000D03*
X120420000Y-130850000D03*
X117880000Y-130850000D03*
X115340000Y-130850000D03*
X112800000Y-130850000D03*
D12*
X110260000Y-130850000D03*
D11*
X158520000Y-128310000D03*
X155980000Y-128310000D03*
X153440000Y-128310000D03*
X150900000Y-128310000D03*
X148360000Y-128310000D03*
X145820000Y-128310000D03*
X143280000Y-128310000D03*
X140740000Y-128310000D03*
X138200000Y-128310000D03*
X135660000Y-128310000D03*
X133120000Y-128310000D03*
X130580000Y-128310000D03*
X128040000Y-128310000D03*
X125500000Y-128310000D03*
X122960000Y-128310000D03*
X120420000Y-128310000D03*
X117880000Y-128310000D03*
X115340000Y-128310000D03*
X112800000Y-128310000D03*
D12*
X110260000Y-128310000D03*
D11*
X158520000Y-105450000D03*
X155980000Y-105450000D03*
X153440000Y-105450000D03*
X150900000Y-105450000D03*
X148360000Y-105450000D03*
X145820000Y-105450000D03*
X143280000Y-105450000D03*
X140740000Y-105450000D03*
X138200000Y-105450000D03*
X135660000Y-105450000D03*
X133120000Y-105450000D03*
X130580000Y-105450000D03*
X128040000Y-105450000D03*
X125500000Y-105450000D03*
X122960000Y-105450000D03*
X120420000Y-105450000D03*
X117880000Y-105450000D03*
X115340000Y-105450000D03*
X112800000Y-105450000D03*
D12*
X110260000Y-105450000D03*
D11*
X158520000Y-123230000D03*
X155980000Y-123230000D03*
X153440000Y-123230000D03*
X150900000Y-123230000D03*
X148360000Y-123230000D03*
X145820000Y-123230000D03*
X143280000Y-123230000D03*
X140740000Y-123230000D03*
X138200000Y-123230000D03*
X135660000Y-123230000D03*
X133120000Y-123230000D03*
X130580000Y-123230000D03*
X128040000Y-123230000D03*
X125500000Y-123230000D03*
X122960000Y-123230000D03*
X120420000Y-123230000D03*
X117880000Y-123230000D03*
X115340000Y-123230000D03*
X112800000Y-123230000D03*
D12*
X110260000Y-123230000D03*
D16*
X162600000Y-125770000D03*
X162600000Y-123230000D03*
D13*
X145820000Y-102910000D03*
X158520000Y-102910000D03*
X155980000Y-102910000D03*
X153440000Y-102910000D03*
X150900000Y-102910000D03*
X148360000Y-102910000D03*
D14*
X168000000Y-111200000D03*
X168000000Y-114700000D03*
D15*
X168000000Y-118200000D03*
D13*
X161060000Y-114700000D03*
X161060000Y-137800000D03*
X161060000Y-134300000D03*
X161060000Y-130800000D03*
X161060000Y-118200000D03*
X161060000Y-111200000D03*
X143280000Y-102910000D03*
X140740000Y-102910000D03*
X138200000Y-102910000D03*
X135660000Y-102910000D03*
X133120000Y-102910000D03*
X130580000Y-102910000D03*
X128040000Y-102910000D03*
X125500000Y-102910000D03*
D17*
X115340000Y-107990000D02*
X115340000Y-106389800D01*
X125500000Y-107990000D02*
X125500000Y-106474900D01*
X155980000Y-107990000D02*
X155980000Y-106389800D01*
X130527300Y-135877300D02*
X130580000Y-135930000D01*
X130527300Y-134366000D02*
X130527300Y-135877300D01*
X140740000Y-135930000D02*
X140740000Y-134351400D01*
X143280000Y-135930000D02*
X143280000Y-134317100D01*
X158520000Y-135930000D02*
X158520000Y-134338700D01*
X110260000Y-138470000D02*
X112800000Y-138470000D01*
X112800000Y-138470000D02*
X115340000Y-138470000D01*
X115340000Y-138470000D02*
X117880000Y-138470000D01*
X117880000Y-138470000D02*
X120420000Y-138470000D01*
X120420000Y-138470000D02*
X122960000Y-138470000D01*
X122960000Y-138470000D02*
X125500000Y-138470000D01*
X125500000Y-138470000D02*
X128040000Y-138470000D01*
X128040000Y-138470000D02*
X130580000Y-138470000D01*
X130580000Y-138470000D02*
X133120000Y-138470000D01*
X133120000Y-138470000D02*
X135660000Y-138470000D01*
X135660000Y-138470000D02*
X138200000Y-138470000D01*
X138200000Y-138470000D02*
X140740000Y-138470000D01*
X140740000Y-138470000D02*
X143280000Y-138470000D01*
X143280000Y-138470000D02*
X145820000Y-138470000D01*
X145820000Y-138470000D02*
X148360000Y-138470000D01*
X148360000Y-138470000D02*
X150900000Y-138470000D01*
X150900000Y-138470000D02*
X153440000Y-138470000D01*
X153440000Y-138470000D02*
X155980000Y-138470000D01*
X155980000Y-138470000D02*
X158520000Y-138470000D01*
X158520000Y-141010000D02*
X155980000Y-141010000D01*
X155980000Y-141010000D02*
X153440000Y-141010000D01*
X153440000Y-141010000D02*
X150900000Y-141010000D01*
X150900000Y-141010000D02*
X148360000Y-141010000D01*
X148360000Y-141010000D02*
X145820000Y-141010000D01*
X145820000Y-141010000D02*
X143280000Y-141010000D01*
X143280000Y-141010000D02*
X140740000Y-141010000D01*
X140740000Y-141010000D02*
X138200000Y-141010000D01*
X138200000Y-141010000D02*
X135660000Y-141010000D01*
X135660000Y-141010000D02*
X133120000Y-141010000D01*
X120420000Y-141010000D02*
X122960000Y-141010000D01*
X122960000Y-141010000D02*
X125500000Y-141010000D01*
X125500000Y-141010000D02*
X128040000Y-141010000D01*
X128040000Y-141010000D02*
X130580000Y-141010000D01*
X130580000Y-141010000D02*
X133120000Y-141010000D01*
X120420000Y-143550000D02*
X120420000Y-146090000D01*
X122960000Y-143550000D02*
X122960000Y-146090000D01*
X125500000Y-143550000D02*
X125500000Y-146090000D01*
X128040000Y-143550000D02*
X128040000Y-146090000D01*
X130580000Y-143550000D02*
X130580000Y-146090000D01*
X133120000Y-143550000D02*
X133120000Y-146090000D01*
X135660000Y-143550000D02*
X135660000Y-146090000D01*
X138200000Y-143550000D02*
X138200000Y-146090000D01*
X140740000Y-143550000D02*
X140740000Y-146090000D01*
X143280000Y-143550000D02*
X143280000Y-146090000D01*
X145820000Y-143550000D02*
X145820000Y-146090000D01*
X148360000Y-143550000D02*
X148360000Y-146090000D01*
X150900000Y-143550000D02*
X150900000Y-146090000D01*
X153440000Y-143550000D02*
X153440000Y-146090000D01*
X155980000Y-143550000D02*
X155980000Y-146090000D01*
X158520000Y-143550000D02*
X158520000Y-146090000D01*
X110260000Y-118150000D02*
X112800000Y-118150000D01*
X112800000Y-118150000D02*
X115340000Y-118150000D01*
X115340000Y-118150000D02*
X117880000Y-118150000D01*
X117880000Y-118150000D02*
X120420000Y-118150000D01*
X120420000Y-118150000D02*
X122960000Y-118150000D01*
X122960000Y-118150000D02*
X125500000Y-118150000D01*
X125500000Y-118150000D02*
X128040000Y-118150000D01*
X128040000Y-118150000D02*
X130580000Y-118150000D01*
X130580000Y-118150000D02*
X133120000Y-118150000D01*
X133120000Y-118150000D02*
X135660000Y-118150000D01*
X135660000Y-118150000D02*
X138200000Y-118150000D01*
X138200000Y-118150000D02*
X140740000Y-118150000D01*
X140740000Y-118150000D02*
X143280000Y-118150000D01*
X143280000Y-118150000D02*
X145820000Y-118150000D01*
X145820000Y-118150000D02*
X148360000Y-118150000D01*
X148360000Y-118150000D02*
X150900000Y-118150000D01*
X150900000Y-118150000D02*
X153440000Y-118150000D01*
X153440000Y-118150000D02*
X155980000Y-118150000D01*
X155980000Y-118150000D02*
X158520000Y-118150000D01*
X120420000Y-125770000D02*
X120420000Y-127315600D01*
X145820000Y-125770000D02*
X145820000Y-127344800D01*
X158520000Y-115610000D02*
X155980000Y-115610000D01*
X155980000Y-115610000D02*
X153440000Y-115610000D01*
X153440000Y-115610000D02*
X150900000Y-115610000D01*
X150900000Y-115610000D02*
X148360000Y-115610000D01*
X148360000Y-115610000D02*
X145820000Y-115610000D01*
X145820000Y-115610000D02*
X143280000Y-115610000D01*
X143280000Y-115610000D02*
X140740000Y-115610000D01*
X140740000Y-115610000D02*
X138200000Y-115610000D01*
X138200000Y-115610000D02*
X135660000Y-115610000D01*
X135660000Y-115610000D02*
X133120000Y-115610000D01*
X133120000Y-115610000D02*
X130580000Y-115610000D01*
X130580000Y-115610000D02*
X128040000Y-115610000D01*
X128040000Y-115610000D02*
X125500000Y-115610000D01*
X125500000Y-115610000D02*
X122960000Y-115610000D01*
X122960000Y-115610000D02*
X120420000Y-115610000D01*
X120420000Y-115610000D02*
X117880000Y-115610000D01*
X117880000Y-115610000D02*
X115340000Y-115610000D01*
X115340000Y-115610000D02*
X112800000Y-115610000D01*
X112800000Y-115610000D02*
X110260000Y-115610000D01*
X166989600Y-130800000D02*
X166992300Y-130797300D01*
X167045800Y-130800000D02*
X167081200Y-130835400D01*
X167058500Y-130800000D02*
X167081200Y-130822700D01*
X167078500Y-130800000D02*
X167309800Y-130568700D01*
X161060000Y-130800000D02*
X167078500Y-130800000D01*
X166905900Y-134300000D02*
X166941500Y-134264400D01*
X166931300Y-134300000D02*
X167043100Y-134188200D01*
X167286900Y-134300000D02*
X167436800Y-134150100D01*
X166931300Y-134300000D02*
X166992300Y-134239000D01*
X161060000Y-134300000D02*
X166931300Y-134300000D01*
X166971900Y-137800000D02*
X167043100Y-137871200D01*
X167086200Y-137800000D02*
X167157400Y-137871200D01*
X161060000Y-137800000D02*
X167086200Y-137800000D01*
X166815700Y-111200000D02*
X166852600Y-111163100D01*
X166841100Y-111200000D02*
X166928800Y-111112300D01*
X166914900Y-111200000D02*
X166954200Y-111239300D01*
X167069700Y-111200000D02*
X167271700Y-110998000D01*
X161060000Y-111200000D02*
X167069700Y-111200000D01*
X167156300Y-118200000D02*
X167157400Y-118198900D01*
X166853700Y-118200000D02*
X167030400Y-118376700D01*
X161060000Y-118200000D02*
X166853700Y-118200000D01*
X167100300Y-114700000D02*
X167106600Y-114693700D01*
X167011300Y-114700000D02*
X167017700Y-114706400D01*
X166973300Y-114700000D02*
X167195500Y-114477800D01*
X161060000Y-114700000D02*
X166973300Y-114700000D01*
X128040000Y-105450000D02*
X128040000Y-104112700D01*
X125500000Y-105450000D02*
X125500000Y-104049200D01*
X122960000Y-106339000D02*
X122754900Y-106133900D01*
X122960000Y-107990000D02*
X122960000Y-106339000D01*
X122960000Y-103709600D02*
X122999500Y-103670100D01*
X122960000Y-105450000D02*
X122960000Y-103709600D01*
X120420000Y-103757100D02*
X120456200Y-103720900D01*
X120420000Y-105450000D02*
X120420000Y-103757100D01*
X120420000Y-106233600D02*
X120456200Y-106197400D01*
X120420000Y-107990000D02*
X120420000Y-106233600D01*
X117880000Y-105450000D02*
X117880000Y-104074600D01*
X117880000Y-105450000D02*
X117880000Y-107278300D01*
X115340000Y-103884100D02*
X115566700Y-103657400D01*
X115340000Y-105450000D02*
X115340000Y-103884100D01*
X112800000Y-103481500D02*
X112798100Y-103479600D01*
X112800000Y-105450000D02*
X112800000Y-103481500D01*
X112800000Y-106135800D02*
X112798100Y-106133900D01*
X112800000Y-107990000D02*
X112800000Y-106135800D01*
X110260000Y-103947600D02*
X110372400Y-103835200D01*
X110260000Y-105450000D02*
X110260000Y-103947600D01*
X110260000Y-106309800D02*
X110435900Y-106133900D01*
X110260000Y-107990000D02*
X110260000Y-106309800D01*
X128040000Y-107990000D02*
X128040000Y-106211500D01*
X125500000Y-120690000D02*
X125500000Y-122299100D01*
X120420000Y-120690000D02*
X120420000Y-122442600D01*
X128040000Y-124153300D02*
X128177800Y-124015500D01*
X128040000Y-125770000D02*
X128040000Y-124153300D01*
X128040000Y-123230000D02*
X128040000Y-121397400D01*
X128040000Y-112205900D02*
X128028700Y-112217200D01*
X128040000Y-110530000D02*
X128040000Y-112205900D01*
X125500000Y-124864500D02*
X125485400Y-124879100D01*
X125500000Y-123230000D02*
X125500000Y-124864500D01*
X125500000Y-112253900D02*
X125526800Y-112280700D01*
X125500000Y-110530000D02*
X125500000Y-112253900D01*
X122960000Y-123924700D02*
X122996200Y-123888500D01*
X122960000Y-125770000D02*
X122960000Y-123924700D01*
X122960000Y-123230000D02*
X122960000Y-121363100D01*
X122960000Y-112294800D02*
X122936000Y-112318800D01*
X122960000Y-110530000D02*
X122960000Y-112294800D01*
X120420000Y-123230000D02*
X120420000Y-124728600D01*
X120420000Y-112330100D02*
X120434100Y-112344200D01*
X120420000Y-110530000D02*
X120420000Y-112330100D01*
X117880000Y-124064400D02*
X117928900Y-124015500D01*
X117880000Y-125770000D02*
X117880000Y-124064400D01*
X117880000Y-123230000D02*
X117880000Y-121667900D01*
X117880000Y-112205900D02*
X117843300Y-112242600D01*
X117880000Y-110530000D02*
X117880000Y-112205900D01*
X115340000Y-124051700D02*
X115630200Y-123761500D01*
X115340000Y-125770000D02*
X115340000Y-124051700D01*
X115340000Y-123230000D02*
X115340000Y-121223400D01*
X115340000Y-112269400D02*
X115290600Y-112318800D01*
X115340000Y-110530000D02*
X115340000Y-112269400D01*
X112800000Y-123442100D02*
X112810800Y-123431300D01*
X112800000Y-125770000D02*
X112800000Y-123442100D01*
X112800000Y-123230000D02*
X112800000Y-120749700D01*
X112800000Y-112317400D02*
X112852200Y-112369600D01*
X112800000Y-110530000D02*
X112800000Y-112317400D01*
X110260000Y-123115700D02*
X110181900Y-123037600D01*
X110260000Y-125770000D02*
X110260000Y-123115700D01*
X110260000Y-112307500D02*
X110223300Y-112344200D01*
X110260000Y-110530000D02*
X110260000Y-112307500D01*
X110260000Y-123230000D02*
X110260000Y-120626500D01*
X128040000Y-126773300D02*
X127974600Y-126707900D01*
X128040000Y-128310000D02*
X128040000Y-126773300D01*
X125500000Y-127586100D02*
X125548900Y-127635000D01*
X125500000Y-125770000D02*
X125500000Y-127586100D01*
X125500000Y-128310000D02*
X125500000Y-130011800D01*
X122960000Y-126807600D02*
X123123200Y-126644400D01*
X122960000Y-128310000D02*
X122960000Y-126807600D01*
X120420000Y-128310000D02*
X120420000Y-129922900D01*
X117880000Y-126722500D02*
X117865400Y-126707900D01*
X117880000Y-128310000D02*
X117880000Y-126722500D01*
X133120000Y-106271700D02*
X133321300Y-106070400D01*
X133120000Y-107990000D02*
X133120000Y-106271700D01*
X133120000Y-104036500D02*
X133321300Y-103835200D01*
X133120000Y-105450000D02*
X133120000Y-104036500D01*
X130580000Y-106347900D02*
X130730500Y-106197400D01*
X130580000Y-107990000D02*
X130580000Y-106347900D01*
X130580000Y-103785800D02*
X130619500Y-103746300D01*
X130580000Y-105450000D02*
X130580000Y-103785800D01*
X158520000Y-106347900D02*
X158619700Y-106248200D01*
X158520000Y-107990000D02*
X158520000Y-106347900D01*
X158520000Y-103769800D02*
X158568900Y-103720900D01*
X158520000Y-105450000D02*
X158520000Y-103769800D01*
X155980000Y-104074600D02*
X156333700Y-103720900D01*
X155980000Y-105450000D02*
X155980000Y-104074600D01*
X153440000Y-106148500D02*
X153425400Y-106133900D01*
X153440000Y-107990000D02*
X153440000Y-106148500D01*
X153440000Y-104011100D02*
X153666700Y-103784400D01*
X153440000Y-105450000D02*
X153440000Y-104011100D01*
X150900000Y-106246300D02*
X151012400Y-106133900D01*
X150900000Y-107990000D02*
X150900000Y-106246300D01*
X150900000Y-103896800D02*
X151012400Y-103784400D01*
X150900000Y-105450000D02*
X150900000Y-103896800D01*
X148360000Y-106262800D02*
X148294600Y-106197400D01*
X148360000Y-107990000D02*
X148360000Y-106262800D01*
X148360000Y-103896800D02*
X148535900Y-103720900D01*
X148360000Y-105450000D02*
X148360000Y-103896800D01*
X145820000Y-106386000D02*
X146008600Y-106197400D01*
X145820000Y-107990000D02*
X145820000Y-106386000D01*
X145820000Y-103722300D02*
X145872200Y-103670100D01*
X145820000Y-105450000D02*
X145820000Y-103722300D01*
X143280000Y-103909500D02*
X143468600Y-103720900D01*
X143280000Y-105450000D02*
X143280000Y-103909500D01*
X140740000Y-103620700D02*
X140754100Y-103606600D01*
X140740000Y-105450000D02*
X140740000Y-103620700D01*
X138200000Y-106351700D02*
X138096500Y-106248200D01*
X138200000Y-107990000D02*
X138200000Y-106351700D01*
X138200000Y-103595300D02*
X138214100Y-103581200D01*
X138200000Y-105450000D02*
X138200000Y-103595300D01*
X135660000Y-105966900D02*
X135797800Y-105829100D01*
X135660000Y-107990000D02*
X135660000Y-105966900D01*
X135660000Y-105450000D02*
X135660000Y-104100000D01*
X155980000Y-120690000D02*
X155980000Y-122553100D01*
X150900000Y-120690000D02*
X150900000Y-122315600D01*
X145820000Y-120690000D02*
X145820000Y-122353700D01*
X143280000Y-107990000D02*
X143280000Y-106364400D01*
X140740000Y-107990000D02*
X140740000Y-106449500D01*
X138200000Y-120690000D02*
X138200000Y-122400700D01*
X133120000Y-120690000D02*
X133120000Y-122222900D01*
X158520000Y-123903100D02*
X158505400Y-123888500D01*
X158520000Y-125770000D02*
X158520000Y-123903100D01*
X158520000Y-123230000D02*
X158520000Y-121413900D01*
X158520000Y-112457100D02*
X158559500Y-112496600D01*
X158520000Y-110530000D02*
X158520000Y-112457100D01*
X155980000Y-124915300D02*
X155825700Y-125069600D01*
X155980000Y-123230000D02*
X155980000Y-124915300D01*
X155980000Y-112358300D02*
X155968700Y-112369600D01*
X155980000Y-110530000D02*
X155980000Y-112358300D01*
X153440000Y-124039000D02*
X153654000Y-123825000D01*
X153440000Y-125770000D02*
X153440000Y-124039000D01*
X153440000Y-123230000D02*
X153440000Y-121537100D01*
X153440000Y-112244000D02*
X153416000Y-112268000D01*
X153440000Y-110530000D02*
X153440000Y-112244000D01*
X150900000Y-125067700D02*
X150898100Y-125069600D01*
X150900000Y-123230000D02*
X150900000Y-125067700D01*
X150900000Y-112317400D02*
X150901400Y-112318800D01*
X150900000Y-110530000D02*
X150900000Y-112317400D01*
X148360000Y-123988200D02*
X148396200Y-123952000D01*
X148360000Y-125770000D02*
X148360000Y-123988200D01*
X148360000Y-123230000D02*
X148360000Y-121286900D01*
X148360000Y-112434500D02*
X148297900Y-112496600D01*
X148360000Y-110530000D02*
X148360000Y-112434500D01*
X145820000Y-124855600D02*
X145843500Y-124879100D01*
X145820000Y-123230000D02*
X145820000Y-124855600D01*
X145820000Y-112253900D02*
X145834100Y-112268000D01*
X145820000Y-110530000D02*
X145820000Y-112253900D01*
X143280000Y-123826900D02*
X143278100Y-123825000D01*
X143280000Y-125770000D02*
X143280000Y-123826900D01*
X143280000Y-123230000D02*
X143280000Y-121257700D01*
X143280000Y-112104300D02*
X143243300Y-112141000D01*
X143280000Y-110530000D02*
X143280000Y-112104300D01*
X140740000Y-124191400D02*
X141106400Y-123825000D01*
X140740000Y-125770000D02*
X140740000Y-124191400D01*
X140740000Y-123230000D02*
X140740000Y-121702200D01*
X140740000Y-112393600D02*
X140741400Y-112395000D01*
X140740000Y-110530000D02*
X140740000Y-112393600D01*
X138200000Y-123230000D02*
X138200000Y-124588900D01*
X138200000Y-112371000D02*
X138176000Y-112395000D01*
X138200000Y-110530000D02*
X138200000Y-112371000D01*
X135660000Y-124153300D02*
X135797800Y-124015500D01*
X135660000Y-125770000D02*
X135660000Y-124153300D01*
X135660000Y-123230000D02*
X135660000Y-121727600D01*
X135660000Y-112155100D02*
X135623300Y-112191800D01*
X135660000Y-110530000D02*
X135660000Y-112155100D01*
X133120000Y-123230000D02*
X133120000Y-124627000D01*
X133120000Y-112368200D02*
X133121400Y-112369600D01*
X133120000Y-110530000D02*
X133120000Y-112368200D01*
X130580000Y-123988200D02*
X130806700Y-123761500D01*
X130580000Y-125770000D02*
X130580000Y-123988200D01*
X130580000Y-123230000D02*
X130580000Y-121549800D01*
X130580000Y-112294800D02*
X130556000Y-112318800D01*
X130580000Y-110530000D02*
X130580000Y-112294800D01*
X158520000Y-128310000D02*
X158520000Y-126798700D01*
X155980000Y-127459100D02*
X156016200Y-127495300D01*
X155980000Y-125770000D02*
X155980000Y-127459100D01*
X155980000Y-128310000D02*
X155980000Y-129961000D01*
X153440000Y-126667900D02*
X153590500Y-126517400D01*
X153440000Y-128310000D02*
X153440000Y-126667900D01*
X150900000Y-127493400D02*
X150898100Y-127495300D01*
X150900000Y-125770000D02*
X150900000Y-127493400D01*
X150900000Y-128310000D02*
X150900000Y-130126100D01*
X148360000Y-126693300D02*
X148535900Y-126517400D01*
X148360000Y-128310000D02*
X148360000Y-126693300D01*
X145820000Y-128310000D02*
X145820000Y-129973700D01*
X143280000Y-126579000D02*
X143341600Y-126517400D01*
X143280000Y-128310000D02*
X143280000Y-126579000D01*
X140740000Y-126744100D02*
X140776200Y-126707900D01*
X140740000Y-128310000D02*
X140740000Y-126744100D01*
X138200000Y-127408300D02*
X138287000Y-127495300D01*
X138200000Y-125770000D02*
X138200000Y-127408300D01*
X138200000Y-128310000D02*
X138200000Y-129973700D01*
X135660000Y-126582800D02*
X135658100Y-126580900D01*
X135660000Y-128310000D02*
X135660000Y-126582800D01*
X133120000Y-127734700D02*
X133029200Y-127825500D01*
X133120000Y-125770000D02*
X133120000Y-127734700D01*
X133120000Y-128310000D02*
X133120000Y-130138800D01*
X130580000Y-126794900D02*
X130667000Y-126707900D01*
X130580000Y-128310000D02*
X130580000Y-126794900D01*
X158520000Y-130850000D02*
X158520000Y-129207900D01*
X155980000Y-130850000D02*
X155980000Y-132589900D01*
X153440000Y-130850000D02*
X153440000Y-129157100D01*
X150900000Y-130850000D02*
X150900000Y-132374000D01*
X150900000Y-132374000D02*
X150961600Y-132435600D01*
X148360000Y-130850000D02*
X148360000Y-129300600D01*
X145820000Y-130850000D02*
X145820000Y-132539100D01*
X143280000Y-130850000D02*
X143280000Y-128945000D01*
X140740000Y-130850000D02*
X140740000Y-129033900D01*
X138200000Y-130850000D02*
X138200000Y-132539100D01*
X135660000Y-130850000D02*
X135660000Y-128953900D01*
X133120000Y-130850000D02*
X133120000Y-132548000D01*
X130580000Y-130850000D02*
X130580000Y-128966600D01*
X128040000Y-130850000D02*
X128040000Y-129017400D01*
X125500000Y-130850000D02*
X125500000Y-132513700D01*
X122960000Y-130850000D02*
X122960000Y-129046600D01*
X120420000Y-130850000D02*
X120420000Y-132551800D01*
X117880000Y-130850000D02*
X117880000Y-128894200D01*
X110260000Y-135358500D02*
X110296200Y-135394700D01*
X110260000Y-133390000D02*
X110260000Y-135358500D01*
X110260000Y-133390000D02*
X110260000Y-130973200D01*
X110260000Y-130973200D02*
X110245400Y-130958600D01*
X110245400Y-125933200D02*
X110321600Y-125857000D01*
X110245400Y-130958600D02*
X110245400Y-125933200D01*
X158520000Y-133390000D02*
X158520000Y-131697100D01*
X155980000Y-135062600D02*
X155978100Y-135064500D01*
X155980000Y-133390000D02*
X155980000Y-135062600D01*
X153440000Y-133390000D02*
X153440000Y-131751700D01*
X153440000Y-135037200D02*
X153425400Y-135051800D01*
X153440000Y-133390000D02*
X153440000Y-135037200D01*
X150900000Y-134999100D02*
X150872700Y-135026400D01*
X150900000Y-133390000D02*
X150900000Y-134999100D01*
X148360000Y-134202800D02*
X148345400Y-134188200D01*
X148360000Y-135930000D02*
X148360000Y-134202800D01*
X148360000Y-133390000D02*
X148360000Y-131620900D01*
X145820000Y-134977500D02*
X145868900Y-135026400D01*
X145820000Y-133390000D02*
X145820000Y-134977500D01*
X143280000Y-133390000D02*
X143280000Y-131700900D01*
X140740000Y-133390000D02*
X140740000Y-131608200D01*
X138200000Y-134186300D02*
X138261600Y-134124700D01*
X138200000Y-135930000D02*
X138200000Y-134186300D01*
X135721600Y-132676900D02*
X135658100Y-132740400D01*
X135660000Y-133390000D02*
X135660000Y-134846700D01*
X135660000Y-133390000D02*
X135660000Y-131777100D01*
X133120000Y-135142600D02*
X133143500Y-135166100D01*
X133120000Y-133390000D02*
X133120000Y-135142600D01*
X130580000Y-133390000D02*
X130580000Y-131532000D01*
X128040000Y-134135500D02*
X128114300Y-134061200D01*
X128040000Y-135930000D02*
X128040000Y-134135500D01*
X128040000Y-133390000D02*
X128040000Y-131709800D01*
X125500000Y-134999100D02*
X125485400Y-135013700D01*
X125500000Y-133390000D02*
X125500000Y-134999100D01*
X123097800Y-134061200D02*
X123275600Y-133883400D01*
X123097800Y-134912100D02*
X123097800Y-134061200D01*
X122960000Y-133390000D02*
X122960000Y-131735200D01*
X120420000Y-134199000D02*
X120862600Y-133756400D01*
X120420000Y-135930000D02*
X120420000Y-134199000D01*
X117880000Y-135307700D02*
X117903500Y-135331200D01*
X117880000Y-133390000D02*
X117880000Y-135307700D01*
X117880000Y-133390000D02*
X117880000Y-131620900D01*
X115340000Y-134037700D02*
X115249200Y-133946900D01*
X115340000Y-135930000D02*
X115340000Y-134037700D01*
X115340000Y-133390000D02*
X115340000Y-131278000D01*
X115340000Y-131278000D02*
X115376200Y-131241800D01*
X115376200Y-131241800D02*
X115376200Y-127889000D01*
X115376200Y-127889000D02*
X115376200Y-126453900D01*
X112800000Y-134999100D02*
X112772700Y-135026400D01*
X112800000Y-133390000D02*
X112800000Y-134999100D01*
X112800000Y-133390000D02*
X112800000Y-130858900D01*
X112800000Y-130858900D02*
X112810800Y-130848100D01*
X112810800Y-130848100D02*
X112810800Y-128295400D01*
X112810800Y-128295400D02*
X112810800Y-126060200D01*
D18*
G36*
X167922061Y-101068607D02*
G01*
X167938262Y-101170898D01*
X168176369Y-102162684D01*
X168208372Y-102261181D01*
X168598697Y-103203509D01*
X168622207Y-103249648D01*
X168645715Y-103295787D01*
X169178647Y-104165453D01*
X169186489Y-104176246D01*
X169239522Y-104249240D01*
X169901938Y-105024830D01*
X169975170Y-105098062D01*
X170750760Y-105760478D01*
X170834547Y-105821353D01*
X171704213Y-106354284D01*
X171796491Y-106401303D01*
X172738819Y-106791627D01*
X172837316Y-106823631D01*
X173829102Y-107061738D01*
X173931393Y-107077939D01*
X174340000Y-107110097D01*
X174340001Y-141889903D01*
X173931393Y-141922061D01*
X173829102Y-141938262D01*
X172837316Y-142176369D01*
X172738819Y-142208373D01*
X171796491Y-142598697D01*
X171705618Y-142645000D01*
X171704213Y-142645716D01*
X170834547Y-143178647D01*
X170750760Y-143239522D01*
X169975170Y-143901938D01*
X169901938Y-143975170D01*
X169239522Y-144750760D01*
X169209084Y-144792654D01*
X169178647Y-144834547D01*
X168645715Y-145704213D01*
X168626392Y-145742138D01*
X168598697Y-145796491D01*
X168208372Y-146738819D01*
X168178937Y-146829411D01*
X168176369Y-146837316D01*
X167938262Y-147829102D01*
X167922061Y-147931393D01*
X167889903Y-148340000D01*
X107110097Y-148340000D01*
X107077939Y-147931393D01*
X107061738Y-147829102D01*
X106823631Y-146837316D01*
X106791627Y-146738819D01*
X106401303Y-145796491D01*
X106354284Y-145704213D01*
X105821353Y-144834547D01*
X105760478Y-144750760D01*
X105366714Y-144289721D01*
X110365000Y-144289721D01*
X110365000Y-144710279D01*
X110447047Y-145122756D01*
X110607988Y-145511302D01*
X110841637Y-145860983D01*
X111139017Y-146158363D01*
X111488698Y-146392012D01*
X111877244Y-146552953D01*
X112289721Y-146635000D01*
X112710279Y-146635000D01*
X113122756Y-146552953D01*
X113511302Y-146392012D01*
X113860983Y-146158363D01*
X114158363Y-145860983D01*
X114392012Y-145511302D01*
X114552953Y-145122756D01*
X114635000Y-144710279D01*
X114635000Y-144289721D01*
X114552953Y-143877244D01*
X114392012Y-143488698D01*
X114158363Y-143139017D01*
X113860983Y-142841637D01*
X113511302Y-142607988D01*
X113122756Y-142447047D01*
X112710279Y-142365000D01*
X112289721Y-142365000D01*
X111877244Y-142447047D01*
X111488698Y-142607988D01*
X111139017Y-142841637D01*
X110841637Y-143139017D01*
X110607988Y-143488698D01*
X110447047Y-143877244D01*
X110365000Y-144289721D01*
X105366714Y-144289721D01*
X105098062Y-143975170D01*
X105024830Y-143901938D01*
X104249240Y-143239522D01*
X104180784Y-143189786D01*
X104165453Y-143178647D01*
X103295787Y-142645715D01*
X103249648Y-142622207D01*
X103203509Y-142598697D01*
X102261181Y-142208372D01*
X102162684Y-142176369D01*
X101170898Y-141938262D01*
X101068607Y-141922061D01*
X100660000Y-141889903D01*
X100660000Y-124289721D01*
X103365000Y-124289721D01*
X103365000Y-124710279D01*
X103447047Y-125122756D01*
X103607988Y-125511302D01*
X103841637Y-125860983D01*
X104139017Y-126158363D01*
X104488698Y-126392012D01*
X104877244Y-126552953D01*
X105289721Y-126635000D01*
X105710279Y-126635000D01*
X106122756Y-126552953D01*
X106511302Y-126392012D01*
X106860983Y-126158363D01*
X107158363Y-125860983D01*
X107392012Y-125511302D01*
X107552953Y-125122756D01*
X107635000Y-124710279D01*
X107635000Y-124289721D01*
X107552953Y-123877244D01*
X107392012Y-123488698D01*
X107158363Y-123139017D01*
X106860983Y-122841637D01*
X106511302Y-122607988D01*
X106122756Y-122447047D01*
X105710279Y-122365000D01*
X105289721Y-122365000D01*
X104877244Y-122447047D01*
X104488698Y-122607988D01*
X104139017Y-122841637D01*
X103841637Y-123139017D01*
X103607988Y-123488698D01*
X103447047Y-123877244D01*
X103365000Y-124289721D01*
X100660000Y-124289721D01*
X100660000Y-118305199D01*
X101058514Y-118380326D01*
X101058566Y-118380336D01*
X101142059Y-118396076D01*
X101095212Y-118464970D01*
X101095170Y-118465048D01*
X101094243Y-118466398D01*
X101023993Y-118570309D01*
X101023920Y-118570443D01*
X101021956Y-118573341D01*
X100959232Y-118667271D01*
X100959156Y-118667413D01*
X100956770Y-118670986D01*
X100904436Y-118750551D01*
X100904383Y-118750652D01*
X100900718Y-118756269D01*
X100861637Y-118817087D01*
X100860181Y-118819929D01*
X100858228Y-118822451D01*
X100853525Y-118830049D01*
X100830561Y-118867736D01*
X100818887Y-118891932D01*
X100804590Y-118914679D01*
X100800651Y-118922701D01*
X100795700Y-118932965D01*
X100788936Y-118951398D01*
X100779769Y-118968753D01*
X100776420Y-118979957D01*
X100776286Y-118980234D01*
X100775950Y-118981526D01*
X100767466Y-119009907D01*
X100752671Y-119050226D01*
X100749618Y-119069611D01*
X100743993Y-119088426D01*
X100739917Y-119131201D01*
X100733237Y-119173611D01*
X100734007Y-119193220D01*
X100732144Y-119212769D01*
X100736452Y-119255505D01*
X100738137Y-119298421D01*
X100742703Y-119317514D01*
X100744672Y-119337045D01*
X100757199Y-119378128D01*
X100767189Y-119419902D01*
X100775377Y-119437747D01*
X100781102Y-119456521D01*
X100801369Y-119494389D01*
X100819282Y-119533426D01*
X100830775Y-119549333D01*
X100840041Y-119566646D01*
X100845059Y-119574041D01*
X100857793Y-119592530D01*
X100880658Y-119619628D01*
X100901152Y-119648571D01*
X100907051Y-119655284D01*
X100942257Y-119694794D01*
X100946234Y-119698463D01*
X100949497Y-119702783D01*
X100955599Y-119709311D01*
X101008780Y-119765413D01*
X101008982Y-119765588D01*
X101009151Y-119765805D01*
X101015349Y-119772242D01*
X101082005Y-119840506D01*
X101082111Y-119840595D01*
X101086288Y-119844851D01*
X101161923Y-119920849D01*
X101162043Y-119920948D01*
X101165316Y-119924233D01*
X101245434Y-120003539D01*
X101245559Y-120003641D01*
X101248643Y-120006693D01*
X101328745Y-120084877D01*
X101328871Y-120084978D01*
X101332345Y-120088363D01*
X101407936Y-120160995D01*
X101408029Y-120161068D01*
X101412777Y-120165599D01*
X101479358Y-120228251D01*
X101480188Y-120228892D01*
X101480884Y-120229683D01*
X101487455Y-120235739D01*
X101540528Y-120283983D01*
X101547223Y-120288968D01*
X101552986Y-120295016D01*
X101559793Y-120300805D01*
X101594862Y-120330212D01*
X101632898Y-120356237D01*
X101669541Y-120384178D01*
X101677174Y-120388824D01*
X101688910Y-120395855D01*
X101695035Y-120398754D01*
X101697947Y-120400746D01*
X101711589Y-120406588D01*
X101741266Y-120420632D01*
X101793292Y-120446163D01*
X101797700Y-120447339D01*
X101801812Y-120449285D01*
X101857932Y-120463408D01*
X101913977Y-120478360D01*
X101918528Y-120478657D01*
X101922941Y-120479768D01*
X101980772Y-120482724D01*
X102038618Y-120486504D01*
X102043135Y-120485912D01*
X102047685Y-120486145D01*
X102105047Y-120477802D01*
X102162466Y-120470281D01*
X102166780Y-120468824D01*
X102171291Y-120468168D01*
X102225904Y-120448856D01*
X102242696Y-120443185D01*
X102246715Y-120442235D01*
X102250173Y-120440659D01*
X102280805Y-120430314D01*
X102288926Y-120426585D01*
X102310563Y-120416467D01*
X102334768Y-120402117D01*
X102360379Y-120390448D01*
X102368079Y-120385913D01*
X102415481Y-120357549D01*
X102419030Y-120354923D01*
X102423000Y-120352980D01*
X102430571Y-120348233D01*
X102499102Y-120304603D01*
X102499303Y-120304445D01*
X102499540Y-120304325D01*
X102507040Y-120299467D01*
X102592062Y-120243556D01*
X102592153Y-120243482D01*
X102597797Y-120239740D01*
X102694675Y-120174528D01*
X102694795Y-120174429D01*
X102698558Y-120171894D01*
X102753378Y-120134405D01*
X102824823Y-120085635D01*
X102828381Y-120104513D01*
X102840445Y-120169263D01*
X102840478Y-120169379D01*
X102840912Y-120171744D01*
X102863856Y-120292252D01*
X102863893Y-120292377D01*
X102865061Y-120298417D01*
X102886894Y-120407264D01*
X102886917Y-120407339D01*
X102888436Y-120414722D01*
X102907963Y-120506400D01*
X102908389Y-120507742D01*
X102908553Y-120509141D01*
X102910514Y-120517859D01*
X102926540Y-120586864D01*
X102929477Y-120595554D01*
X102930932Y-120604624D01*
X102933263Y-120613251D01*
X102944593Y-120654073D01*
X102959363Y-120692326D01*
X102971526Y-120731484D01*
X102975055Y-120739694D01*
X102978650Y-120747901D01*
X102985398Y-120759949D01*
X102990241Y-120772886D01*
X103015877Y-120814360D01*
X103039692Y-120856875D01*
X103048651Y-120867381D01*
X103055915Y-120879133D01*
X103089121Y-120914840D01*
X103120738Y-120951918D01*
X103131566Y-120960483D01*
X103140975Y-120970601D01*
X103180475Y-120999171D01*
X103218701Y-121029409D01*
X103230994Y-121035712D01*
X103242182Y-121043804D01*
X103286464Y-121064152D01*
X103329850Y-121086396D01*
X103343132Y-121090190D01*
X103355679Y-121095956D01*
X103364145Y-121098818D01*
X103388477Y-121106855D01*
X103446980Y-121120016D01*
X103505333Y-121133629D01*
X103510185Y-121134236D01*
X103510337Y-121134270D01*
X103510490Y-121134274D01*
X103514200Y-121134738D01*
X103569153Y-121141223D01*
X103582378Y-121141484D01*
X103595401Y-121143773D01*
X103604316Y-121144392D01*
X103683465Y-121149329D01*
X103687746Y-121149177D01*
X103691981Y-121149803D01*
X103700909Y-121150178D01*
X103797827Y-121153572D01*
X103799084Y-121153493D01*
X103800334Y-121153655D01*
X103809267Y-121153870D01*
X103917529Y-121155724D01*
X103917634Y-121155716D01*
X103917742Y-121155728D01*
X103926677Y-121155815D01*
X104039664Y-121156134D01*
X104039669Y-121156135D01*
X104039855Y-121156135D01*
X104039863Y-121156134D01*
X104048605Y-121156100D01*
X104160275Y-121154889D01*
X104160774Y-121154835D01*
X104161281Y-121154878D01*
X104170216Y-121154704D01*
X104273948Y-121151967D01*
X104276265Y-121151678D01*
X104278603Y-121151828D01*
X104287532Y-121151465D01*
X104376905Y-121147206D01*
X104384034Y-121146162D01*
X104391240Y-121146362D01*
X104400150Y-121145673D01*
X104468735Y-121139897D01*
X104492809Y-121135473D01*
X104517249Y-121133939D01*
X104526060Y-121132450D01*
X104567431Y-121125162D01*
X104593944Y-121117764D01*
X104621098Y-121113311D01*
X104653951Y-121101020D01*
X104687741Y-121091591D01*
X104704736Y-121083010D01*
X104713469Y-121080299D01*
X104722701Y-121075298D01*
X104738084Y-121069543D01*
X104746080Y-121065554D01*
X104754693Y-121061182D01*
X104780346Y-121044831D01*
X104799240Y-121035291D01*
X104805310Y-121030550D01*
X104823297Y-121020807D01*
X104840829Y-121006281D01*
X104860023Y-120994047D01*
X104888804Y-120966531D01*
X104919479Y-120941115D01*
X104933857Y-120923458D01*
X104950307Y-120907731D01*
X104973199Y-120875145D01*
X104998349Y-120844259D01*
X105009020Y-120824154D01*
X105022107Y-120805524D01*
X105038234Y-120769108D01*
X105056905Y-120733930D01*
X105060246Y-120725642D01*
X105070569Y-120699511D01*
X105079528Y-120668177D01*
X105091380Y-120637818D01*
X105093742Y-120629199D01*
X105108501Y-120573829D01*
X105109768Y-120566113D01*
X105112330Y-120558727D01*
X105114360Y-120550024D01*
X105131820Y-120472738D01*
X105132230Y-120469460D01*
X105133236Y-120466316D01*
X105135054Y-120457567D01*
X105153482Y-120365690D01*
X105153489Y-120365624D01*
X105153510Y-120365554D01*
X105155204Y-120356779D01*
X105161165Y-120324708D01*
X105161173Y-120324616D01*
X105161467Y-120323071D01*
X105189585Y-120169570D01*
X105200208Y-120112681D01*
X105223514Y-120103553D01*
X105228194Y-120101786D01*
X105279189Y-120136762D01*
X105305535Y-120154871D01*
X105305672Y-120154947D01*
X105309629Y-120157662D01*
X105407050Y-120223518D01*
X105407820Y-120223935D01*
X105408494Y-120224491D01*
X105415946Y-120229423D01*
X105504834Y-120287374D01*
X105506697Y-120288344D01*
X105508353Y-120289653D01*
X105515904Y-120294431D01*
X105591154Y-120341319D01*
X105596646Y-120344037D01*
X105601583Y-120347681D01*
X105609288Y-120352207D01*
X105665796Y-120384876D01*
X105686896Y-120394462D01*
X105706661Y-120406570D01*
X105714727Y-120410416D01*
X105747388Y-120425709D01*
X105761257Y-120430618D01*
X105774232Y-120437535D01*
X105820035Y-120451420D01*
X105865137Y-120467383D01*
X105879681Y-120469502D01*
X105893765Y-120473772D01*
X105902542Y-120475456D01*
X105906554Y-120476197D01*
X105947807Y-120479708D01*
X105988746Y-120485935D01*
X106009909Y-120484992D01*
X106031010Y-120486788D01*
X106072151Y-120482220D01*
X106113528Y-120480377D01*
X106134108Y-120475341D01*
X106155153Y-120473004D01*
X106194637Y-120460528D01*
X106234855Y-120450686D01*
X106254053Y-120441754D01*
X106274255Y-120435371D01*
X106310564Y-120415463D01*
X106348103Y-120397998D01*
X106355767Y-120393401D01*
X106376858Y-120380552D01*
X106413468Y-120353014D01*
X106451468Y-120327424D01*
X106458318Y-120321685D01*
X106500098Y-120286181D01*
X106506298Y-120279770D01*
X106513483Y-120274483D01*
X106520087Y-120268463D01*
X106578068Y-120214868D01*
X106579468Y-120213294D01*
X106581141Y-120212009D01*
X106587621Y-120205855D01*
X106657311Y-120138732D01*
X106657328Y-120138712D01*
X106663434Y-120132756D01*
X106740344Y-120056672D01*
X106740421Y-120056579D01*
X106745175Y-120051841D01*
X106824813Y-119971358D01*
X106824895Y-119971257D01*
X106829354Y-119966722D01*
X106907232Y-119886405D01*
X106907291Y-119886331D01*
X106912324Y-119881093D01*
X106983949Y-119805505D01*
X106984269Y-119805093D01*
X106984669Y-119804745D01*
X106990759Y-119798205D01*
X107051643Y-119731911D01*
X107054073Y-119728682D01*
X107057055Y-119725944D01*
X107062969Y-119719245D01*
X107108620Y-119666809D01*
X107118114Y-119653471D01*
X107129433Y-119641634D01*
X107134899Y-119634565D01*
X107160828Y-119600551D01*
X107164066Y-119595312D01*
X107168171Y-119590724D01*
X107189072Y-119555411D01*
X107196917Y-119545342D01*
X107205556Y-119528182D01*
X107226497Y-119494300D01*
X107228654Y-119488537D01*
X107231792Y-119483235D01*
X107235515Y-119475111D01*
X107239747Y-119465701D01*
X107245282Y-119449273D01*
X107253084Y-119433776D01*
X107264412Y-119392989D01*
X107270277Y-119377318D01*
X107270990Y-119372973D01*
X107279629Y-119347333D01*
X107281868Y-119330138D01*
X107286510Y-119313426D01*
X107289919Y-119268321D01*
X107295760Y-119223473D01*
X107294617Y-119206169D01*
X107295924Y-119188875D01*
X107290508Y-119143973D01*
X107287526Y-119098838D01*
X107283042Y-119082082D01*
X107280966Y-119064867D01*
X107266931Y-119021868D01*
X107255240Y-118978177D01*
X107247591Y-118962619D01*
X107242208Y-118946127D01*
X107238562Y-118937969D01*
X107228591Y-118916067D01*
X107212699Y-118888627D01*
X107199524Y-118859785D01*
X107194982Y-118852090D01*
X107168090Y-118807247D01*
X107163903Y-118801599D01*
X107160751Y-118795306D01*
X107155935Y-118787778D01*
X107116651Y-118727299D01*
X107115283Y-118725586D01*
X107114260Y-118723645D01*
X107109289Y-118716219D01*
X107077670Y-118669688D01*
X107077575Y-118669574D01*
X107075549Y-118666585D01*
X107017960Y-118582896D01*
X106950616Y-118484464D01*
X106936020Y-118463032D01*
X106951294Y-118424905D01*
X106964830Y-118378407D01*
X106975424Y-118347198D01*
X106978653Y-118338440D01*
X106978879Y-118337021D01*
X106980410Y-118332510D01*
X106982381Y-118323794D01*
X106984616Y-118313586D01*
X106985244Y-118308280D01*
X106986206Y-118304977D01*
X106987864Y-118286147D01*
X106990459Y-118264214D01*
X106998274Y-118215085D01*
X106997790Y-118202274D01*
X106999297Y-118189545D01*
X106995439Y-118139978D01*
X106993563Y-118090267D01*
X106990599Y-118077789D01*
X106989605Y-118065016D01*
X106976193Y-118017140D01*
X106964697Y-117968742D01*
X106959369Y-117957084D01*
X106955911Y-117944740D01*
X106933452Y-117900377D01*
X106912777Y-117855138D01*
X106905283Y-117844733D01*
X106899495Y-117833300D01*
X106868841Y-117794136D01*
X106839778Y-117753783D01*
X106830412Y-117745038D01*
X106822509Y-117734940D01*
X106784832Y-117702476D01*
X106748485Y-117668536D01*
X106741352Y-117663154D01*
X106724848Y-117650880D01*
X106684675Y-117626705D01*
X106645737Y-117600600D01*
X106637835Y-117596427D01*
X106591195Y-117572211D01*
X106584539Y-117569543D01*
X106578440Y-117565768D01*
X106570392Y-117561885D01*
X106497919Y-117527535D01*
X106497166Y-117527265D01*
X106496478Y-117526854D01*
X106488367Y-117523103D01*
X106394364Y-117480428D01*
X106394235Y-117480384D01*
X106388669Y-117477876D01*
X106277437Y-117428682D01*
X106277287Y-117428633D01*
X106273447Y-117426934D01*
X106149289Y-117373030D01*
X106149149Y-117372985D01*
X106146145Y-117371675D01*
X106013362Y-117314869D01*
X106013227Y-117314826D01*
X106010622Y-117313705D01*
X105873517Y-117255803D01*
X105873392Y-117255764D01*
X105870878Y-117254695D01*
X105751485Y-117204901D01*
X105758253Y-117202106D01*
X105758373Y-117202042D01*
X105760972Y-117200976D01*
X105898424Y-117143472D01*
X105898547Y-117143406D01*
X105901040Y-117142370D01*
X106037629Y-117084513D01*
X106037746Y-117084449D01*
X106040405Y-117083330D01*
X106171834Y-117026927D01*
X106171967Y-117026854D01*
X106175068Y-117025528D01*
X106297037Y-116972388D01*
X106297173Y-116972312D01*
X106301231Y-116970543D01*
X106409435Y-116922475D01*
X106409539Y-116922416D01*
X106415600Y-116919697D01*
X106505740Y-116878508D01*
X106507008Y-116877771D01*
X106508394Y-116877288D01*
X106516479Y-116873480D01*
X106584253Y-116840980D01*
X106592591Y-116835926D01*
X106601649Y-116832311D01*
X106609557Y-116828149D01*
X106650664Y-116806145D01*
X106698971Y-116773856D01*
X106747721Y-116742224D01*
X106754497Y-116736740D01*
X106754508Y-116736733D01*
X106754516Y-116736725D01*
X106754668Y-116736602D01*
X106765464Y-116727741D01*
X106809239Y-116684000D01*
X106852905Y-116640562D01*
X106853306Y-116639967D01*
X106853820Y-116639453D01*
X106888172Y-116588181D01*
X106922664Y-116536950D01*
X106922945Y-116536279D01*
X106923344Y-116535684D01*
X106947077Y-116478732D01*
X106970967Y-116421762D01*
X106971111Y-116421060D01*
X106971390Y-116420389D01*
X106983634Y-116359784D01*
X106995978Y-116299386D01*
X106995982Y-116298662D01*
X106996125Y-116297956D01*
X106996365Y-116236057D01*
X106996741Y-116174481D01*
X106996606Y-116173778D01*
X106996609Y-116173051D01*
X106984842Y-116112391D01*
X106973231Y-116051808D01*
X106972836Y-116050505D01*
X106972822Y-116050431D01*
X106972791Y-116050354D01*
X106970641Y-116043256D01*
X106962234Y-116016180D01*
X106949341Y-115985582D01*
X106939306Y-115953931D01*
X106936104Y-115946599D01*
X106978220Y-115884872D01*
X107042835Y-115790619D01*
X107075285Y-115743537D01*
X107075324Y-115743467D01*
X107079637Y-115737139D01*
X107124794Y-115669894D01*
X107127278Y-115665277D01*
X107130545Y-115661177D01*
X107135352Y-115653644D01*
X107171137Y-115596702D01*
X107176602Y-115585763D01*
X107183717Y-115575812D01*
X107188126Y-115568039D01*
X107210007Y-115528829D01*
X107228768Y-115485813D01*
X107241020Y-115461089D01*
X107245528Y-115452770D01*
X107246175Y-115450686D01*
X107249587Y-115443801D01*
X107252695Y-115435423D01*
X107257320Y-115422688D01*
X107258772Y-115417016D01*
X107259940Y-115414338D01*
X107262812Y-115401236D01*
X107268815Y-115377788D01*
X107282574Y-115333484D01*
X107284283Y-115317368D01*
X107288298Y-115301684D01*
X107290852Y-115255408D01*
X107295744Y-115209273D01*
X107294290Y-115193131D01*
X107295182Y-115176968D01*
X107288699Y-115131073D01*
X107284537Y-115084871D01*
X107279977Y-115069326D01*
X107277712Y-115053289D01*
X107262431Y-115009507D01*
X107249380Y-114965015D01*
X107241889Y-114950653D01*
X107236551Y-114935360D01*
X107213065Y-114895394D01*
X107208919Y-114887445D01*
X107206608Y-114881930D01*
X107204090Y-114878188D01*
X107191614Y-114854269D01*
X107186675Y-114846822D01*
X107174197Y-114828286D01*
X107154315Y-114804208D01*
X107136882Y-114778298D01*
X107131145Y-114771446D01*
X107096313Y-114730422D01*
X107092891Y-114727110D01*
X107090118Y-114723234D01*
X107084186Y-114716550D01*
X107030612Y-114657017D01*
X107030362Y-114656788D01*
X107030154Y-114656507D01*
X107024123Y-114649913D01*
X106955428Y-114575847D01*
X106955347Y-114575775D01*
X106950703Y-114570807D01*
X106870501Y-114486183D01*
X106870376Y-114486075D01*
X106867170Y-114482696D01*
X106815675Y-114429176D01*
X106815587Y-114429101D01*
X106811000Y-114424367D01*
X106719000Y-114330733D01*
X106718210Y-114330073D01*
X106717561Y-114329273D01*
X106711234Y-114322964D01*
X106628947Y-114242042D01*
X106626848Y-114240347D01*
X106625099Y-114238289D01*
X106618632Y-114232122D01*
X106549578Y-114167186D01*
X106543788Y-114162721D01*
X106538848Y-114157323D01*
X106532158Y-114151398D01*
X106479857Y-114105717D01*
X106459506Y-114091182D01*
X106440994Y-114074359D01*
X106433788Y-114069074D01*
X106401761Y-114045921D01*
X106380725Y-114033647D01*
X106379735Y-114032823D01*
X106376775Y-114031211D01*
X106355145Y-114015227D01*
X106323812Y-114000439D01*
X106293876Y-113982972D01*
X106278266Y-113977578D01*
X106270034Y-113973096D01*
X106257711Y-113969242D01*
X106242188Y-113961916D01*
X106233752Y-113958968D01*
X106227252Y-113956746D01*
X106198081Y-113949869D01*
X106175820Y-113942177D01*
X106167484Y-113941026D01*
X106150822Y-113935815D01*
X106128005Y-113933350D01*
X106105679Y-113928087D01*
X106066067Y-113926659D01*
X106054102Y-113925366D01*
X106052089Y-113925088D01*
X106051725Y-113925109D01*
X106026638Y-113922399D01*
X106003780Y-113924413D01*
X105980854Y-113923586D01*
X105941705Y-113929881D01*
X105902213Y-113933360D01*
X105880189Y-113939773D01*
X105857531Y-113943416D01*
X105820353Y-113957195D01*
X105782288Y-113968278D01*
X105774016Y-113971660D01*
X105749294Y-113981968D01*
X105718569Y-113998466D01*
X105686532Y-114012247D01*
X105678737Y-114016617D01*
X105628748Y-114045102D01*
X105622742Y-114049350D01*
X105616091Y-114052507D01*
X105608462Y-114057162D01*
X105538269Y-114100664D01*
X105536561Y-114101969D01*
X105534632Y-114102934D01*
X105527102Y-114107746D01*
X105441765Y-114163106D01*
X105441319Y-114163462D01*
X105440809Y-114163727D01*
X105433355Y-114168656D01*
X105337937Y-114232713D01*
X105337831Y-114232801D01*
X105333047Y-114236028D01*
X105306445Y-114254245D01*
X105306411Y-114254273D01*
X105305832Y-114254665D01*
X105228203Y-114307958D01*
X105200190Y-114297028D01*
X105194210Y-114265186D01*
X105167320Y-114118762D01*
X105161555Y-114087153D01*
X105161522Y-114087038D01*
X105160321Y-114080580D01*
X105141954Y-113985512D01*
X105141159Y-113982835D01*
X105140875Y-113980053D01*
X105139042Y-113971307D01*
X105121073Y-113888427D01*
X105119359Y-113883100D01*
X105118615Y-113877545D01*
X105116508Y-113868861D01*
X105100672Y-113805496D01*
X105094448Y-113788047D01*
X105090676Y-113769900D01*
X105087952Y-113761389D01*
X105075983Y-113724861D01*
X105051916Y-113670144D01*
X105050701Y-113667318D01*
X105038610Y-113635372D01*
X105033303Y-113626856D01*
X105028277Y-113615167D01*
X105025756Y-113610669D01*
X105025693Y-113610526D01*
X105025606Y-113610401D01*
X105023908Y-113607372D01*
X105021118Y-113602473D01*
X104995773Y-113566633D01*
X104972548Y-113529365D01*
X104959778Y-113515733D01*
X104948999Y-113500491D01*
X104917179Y-113470260D01*
X104887154Y-113438209D01*
X104871979Y-113427317D01*
X104858445Y-113414459D01*
X104821347Y-113390976D01*
X104785680Y-113365376D01*
X104768688Y-113357643D01*
X104752906Y-113347653D01*
X104711955Y-113331824D01*
X104671994Y-113313638D01*
X104663518Y-113310808D01*
X104638780Y-113302737D01*
X104581618Y-113290097D01*
X104524555Y-113276747D01*
X104516887Y-113275783D01*
X104516820Y-113275768D01*
X104516759Y-113275767D01*
X104515688Y-113275632D01*
X104460406Y-113269072D01*
X104447355Y-113268806D01*
X104434495Y-113266530D01*
X104425580Y-113265901D01*
X104346180Y-113260855D01*
X104341939Y-113261000D01*
X104337744Y-113260375D01*
X104328816Y-113259989D01*
X104231723Y-113256463D01*
X104230488Y-113256539D01*
X104229251Y-113256377D01*
X104220318Y-113256150D01*
X104111960Y-113254148D01*
X104111861Y-113254156D01*
X104111759Y-113254144D01*
X104102824Y-113254045D01*
X103989812Y-113253571D01*
X103989804Y-113253570D01*
X103989621Y-113253570D01*
X103980868Y-113253593D01*
X103869256Y-113254652D01*
X103868749Y-113254707D01*
X103868236Y-113254662D01*
X103859301Y-113254824D01*
X103755703Y-113257419D01*
X103753364Y-113257708D01*
X103751002Y-113257553D01*
X103742073Y-113257905D01*
X103652912Y-113262041D01*
X103645696Y-113263088D01*
X103638407Y-113262879D01*
X103629496Y-113263558D01*
X103561200Y-113269241D01*
X103536741Y-113273711D01*
X103511925Y-113275273D01*
X103503114Y-113276764D01*
X103462108Y-113283996D01*
X103432753Y-113292193D01*
X103402731Y-113297408D01*
X103372749Y-113308949D01*
X103341805Y-113317590D01*
X103314608Y-113331330D01*
X103305315Y-113334907D01*
X103292657Y-113339407D01*
X103290889Y-113340460D01*
X103286163Y-113342279D01*
X103278205Y-113346344D01*
X103269813Y-113350704D01*
X103247449Y-113365257D01*
X103230317Y-113373912D01*
X103216245Y-113384907D01*
X103185336Y-113403312D01*
X103175830Y-113411863D01*
X103165122Y-113418831D01*
X103133922Y-113449229D01*
X103131892Y-113450815D01*
X103129767Y-113453277D01*
X103129495Y-113453542D01*
X103092472Y-113486845D01*
X103084806Y-113497082D01*
X103075657Y-113505996D01*
X103047432Y-113546992D01*
X103017603Y-113586826D01*
X103012078Y-113598342D01*
X103004826Y-113608876D01*
X102985100Y-113654578D01*
X102982026Y-113660987D01*
X102981143Y-113662422D01*
X102980475Y-113664220D01*
X102963577Y-113699443D01*
X102960576Y-113707860D01*
X102952110Y-113732133D01*
X102946265Y-113756242D01*
X102937619Y-113779499D01*
X102935398Y-113788155D01*
X102921625Y-113843427D01*
X102921047Y-113847343D01*
X102919766Y-113851088D01*
X102917773Y-113859799D01*
X102899888Y-113940564D01*
X102899875Y-113940675D01*
X102899838Y-113940787D01*
X102897971Y-113949526D01*
X102877169Y-114050276D01*
X102877157Y-114050391D01*
X102875836Y-114056905D01*
X102853311Y-114172134D01*
X102853296Y-114172295D01*
X102852446Y-114176648D01*
X102840641Y-114239429D01*
X102840637Y-114239471D01*
X102840516Y-114240096D01*
X102824708Y-114324660D01*
X102807843Y-114313217D01*
X102754159Y-114276349D01*
X102754071Y-114276300D01*
X102752625Y-114275299D01*
X102651456Y-114206253D01*
X102651344Y-114206192D01*
X102646054Y-114202607D01*
X102554203Y-114141281D01*
X102554147Y-114141251D01*
X102547560Y-114136906D01*
X102469674Y-114086292D01*
X102468139Y-114085496D01*
X102466780Y-114084422D01*
X102459227Y-114079647D01*
X102399953Y-114042739D01*
X102390858Y-114038242D01*
X102382620Y-114032323D01*
X102374858Y-114027896D01*
X102338840Y-114007685D01*
X102294776Y-113988344D01*
X102291361Y-113986657D01*
X102268356Y-113974079D01*
X102261538Y-113971933D01*
X102251629Y-113967041D01*
X102243246Y-113963944D01*
X102235173Y-113961025D01*
X102228903Y-113959430D01*
X102224466Y-113957482D01*
X102199505Y-113951949D01*
X102191850Y-113950001D01*
X102149210Y-113936582D01*
X102131438Y-113934630D01*
X102114124Y-113930224D01*
X102069506Y-113927826D01*
X102025051Y-113922942D01*
X102007237Y-113924479D01*
X101989398Y-113923520D01*
X101945156Y-113929835D01*
X101900607Y-113933678D01*
X101883439Y-113938644D01*
X101865745Y-113941169D01*
X101823556Y-113955963D01*
X101780619Y-113968382D01*
X101764741Y-113976588D01*
X101747876Y-113982502D01*
X101709380Y-114005199D01*
X101694054Y-114013120D01*
X101690035Y-114014846D01*
X101687959Y-114016270D01*
X101669656Y-114025729D01*
X101662190Y-114030640D01*
X101643397Y-114043188D01*
X101616120Y-114065539D01*
X101587027Y-114085491D01*
X101580226Y-114091288D01*
X101540099Y-114125978D01*
X101536363Y-114129907D01*
X101531990Y-114133109D01*
X101525371Y-114139113D01*
X101468408Y-114191513D01*
X101468226Y-114191716D01*
X101467999Y-114191888D01*
X101461470Y-114197990D01*
X101392162Y-114263669D01*
X101392071Y-114263774D01*
X101387738Y-114267902D01*
X101310584Y-114342430D01*
X101310485Y-114342547D01*
X101307140Y-114345781D01*
X101226634Y-114424725D01*
X101226532Y-114424846D01*
X101223414Y-114427905D01*
X101144051Y-114506835D01*
X101143949Y-114506959D01*
X101140500Y-114510395D01*
X101066777Y-114584878D01*
X101066699Y-114584973D01*
X101062079Y-114589675D01*
X100998491Y-114655281D01*
X100997813Y-114656134D01*
X100996983Y-114656842D01*
X100990830Y-114663323D01*
X100941872Y-114715621D01*
X100936731Y-114722319D01*
X100930533Y-114728057D01*
X100924646Y-114734781D01*
X100894813Y-114769338D01*
X100867846Y-114807560D01*
X100839033Y-114844407D01*
X100834295Y-114851984D01*
X100827176Y-114863544D01*
X100824541Y-114868940D01*
X100822806Y-114871400D01*
X100819481Y-114878868D01*
X100811279Y-114890848D01*
X100792868Y-114933814D01*
X100772375Y-114975787D01*
X100768326Y-114991087D01*
X100762082Y-115005658D01*
X100752364Y-115051397D01*
X100740418Y-115096536D01*
X100739417Y-115112337D01*
X100736124Y-115127837D01*
X100735476Y-115174562D01*
X100732522Y-115221192D01*
X100734611Y-115236895D01*
X100734391Y-115252731D01*
X100742829Y-115298680D01*
X100748991Y-115345008D01*
X100754091Y-115360009D01*
X100756951Y-115375584D01*
X100774152Y-115419019D01*
X100789195Y-115463267D01*
X100797109Y-115476988D01*
X100802941Y-115491714D01*
X100807082Y-115499633D01*
X100817092Y-115518457D01*
X100826967Y-115533317D01*
X100834674Y-115549409D01*
X100839356Y-115557021D01*
X100867481Y-115602044D01*
X100868125Y-115602880D01*
X100868596Y-115603822D01*
X100873408Y-115611352D01*
X100916784Y-115678195D01*
X100916871Y-115678304D01*
X100919894Y-115682943D01*
X100975658Y-115767231D01*
X100975758Y-115767354D01*
X100977877Y-115770562D01*
X101043165Y-115867917D01*
X101043252Y-115868023D01*
X101044812Y-115870361D01*
X101094552Y-115943798D01*
X101094601Y-115943857D01*
X101095212Y-115944769D01*
X101142059Y-116013663D01*
X101058592Y-116029398D01*
X101058566Y-116029403D01*
X100660000Y-116104541D01*
X100660000Y-107110097D01*
X101068607Y-107077939D01*
X101170898Y-107061738D01*
X102162684Y-106823631D01*
X102261181Y-106791628D01*
X103203509Y-106401303D01*
X103263199Y-106370889D01*
X103295787Y-106354285D01*
X104165453Y-105821353D01*
X104208177Y-105790312D01*
X104249240Y-105760478D01*
X105024830Y-105098062D01*
X105098063Y-105024829D01*
X105760478Y-104249240D01*
X105821353Y-104165453D01*
X105821354Y-104165452D01*
X106354284Y-103295787D01*
X106373608Y-103257862D01*
X106401303Y-103203509D01*
X106589579Y-102748967D01*
X108625000Y-102748967D01*
X108625000Y-103071033D01*
X108687832Y-103386912D01*
X108811082Y-103684463D01*
X108990013Y-103952252D01*
X109089209Y-104051448D01*
X109055506Y-104069463D01*
X108958815Y-104148815D01*
X108879463Y-104245506D01*
X108820498Y-104355820D01*
X108784188Y-104475518D01*
X108771928Y-104600000D01*
X108771928Y-106300000D01*
X108784188Y-106424482D01*
X108820498Y-106544180D01*
X108879463Y-106654494D01*
X108933222Y-106720000D01*
X108879463Y-106785506D01*
X108820498Y-106895820D01*
X108784188Y-107015518D01*
X108771928Y-107140000D01*
X108771928Y-108840000D01*
X108784188Y-108964482D01*
X108820498Y-109084180D01*
X108879463Y-109194494D01*
X108933222Y-109260000D01*
X108879463Y-109325506D01*
X108820498Y-109435820D01*
X108784188Y-109555518D01*
X108771928Y-109680000D01*
X108771928Y-111380000D01*
X108784188Y-111504482D01*
X108820498Y-111624180D01*
X108879463Y-111734494D01*
X108958815Y-111831185D01*
X109055506Y-111910537D01*
X109089209Y-111928552D01*
X108990013Y-112027748D01*
X108811082Y-112295537D01*
X108687832Y-112593088D01*
X108625000Y-112908967D01*
X108625000Y-113231033D01*
X108687832Y-113546912D01*
X108811082Y-113844463D01*
X108990013Y-114112252D01*
X109217748Y-114339987D01*
X109217767Y-114340000D01*
X109217748Y-114340013D01*
X108990013Y-114567748D01*
X108811082Y-114835537D01*
X108687832Y-115133088D01*
X108625000Y-115448967D01*
X108625000Y-115771033D01*
X108687832Y-116086912D01*
X108811082Y-116384463D01*
X108990013Y-116652252D01*
X109217748Y-116879987D01*
X109217767Y-116880000D01*
X109217748Y-116880013D01*
X108990013Y-117107748D01*
X108811082Y-117375537D01*
X108687832Y-117673088D01*
X108625000Y-117988967D01*
X108625000Y-118311033D01*
X108687832Y-118626912D01*
X108811082Y-118924463D01*
X108990013Y-119192252D01*
X109089209Y-119291448D01*
X109055506Y-119309463D01*
X108958815Y-119388815D01*
X108879463Y-119485506D01*
X108820498Y-119595820D01*
X108784188Y-119715518D01*
X108771928Y-119840000D01*
X108771928Y-121540000D01*
X108784188Y-121664482D01*
X108820498Y-121784180D01*
X108879463Y-121894494D01*
X108933222Y-121960000D01*
X108879463Y-122025506D01*
X108820498Y-122135820D01*
X108784188Y-122255518D01*
X108771928Y-122380000D01*
X108771928Y-124080000D01*
X108784188Y-124204482D01*
X108820498Y-124324180D01*
X108879463Y-124434494D01*
X108958815Y-124531185D01*
X109055506Y-124610537D01*
X109089209Y-124628552D01*
X108990013Y-124727748D01*
X108811082Y-124995537D01*
X108687832Y-125293088D01*
X108625000Y-125608967D01*
X108625000Y-125931033D01*
X108687832Y-126246912D01*
X108811082Y-126544463D01*
X108990013Y-126812252D01*
X109089209Y-126911448D01*
X109055506Y-126929463D01*
X108958815Y-127008815D01*
X108879463Y-127105506D01*
X108820498Y-127215820D01*
X108784188Y-127335518D01*
X108771928Y-127460000D01*
X108771928Y-129160000D01*
X108784188Y-129284482D01*
X108820498Y-129404180D01*
X108879463Y-129514494D01*
X108933222Y-129580000D01*
X108879463Y-129645506D01*
X108820498Y-129755820D01*
X108784188Y-129875518D01*
X108771928Y-130000000D01*
X108771928Y-131700000D01*
X108784188Y-131824482D01*
X108820498Y-131944180D01*
X108879463Y-132054494D01*
X108933222Y-132120000D01*
X108879463Y-132185506D01*
X108820498Y-132295820D01*
X108784188Y-132415518D01*
X108771928Y-132540000D01*
X108771928Y-134240000D01*
X108784188Y-134364482D01*
X108820498Y-134484180D01*
X108879463Y-134594494D01*
X108958815Y-134691185D01*
X109055506Y-134770537D01*
X109089209Y-134788552D01*
X108990013Y-134887748D01*
X108811082Y-135155537D01*
X108687832Y-135453088D01*
X108625000Y-135768967D01*
X108625000Y-136091033D01*
X108687832Y-136406912D01*
X108811082Y-136704463D01*
X108990013Y-136972252D01*
X109217748Y-137199987D01*
X109217767Y-137200000D01*
X109217748Y-137200013D01*
X108990013Y-137427748D01*
X108811082Y-137695537D01*
X108687832Y-137993088D01*
X108625000Y-138308967D01*
X108625000Y-138631033D01*
X108687832Y-138946912D01*
X108811082Y-139244463D01*
X108990013Y-139512252D01*
X109217748Y-139739987D01*
X109485537Y-139918918D01*
X109783088Y-140042168D01*
X110098967Y-140105000D01*
X110421033Y-140105000D01*
X110736912Y-140042168D01*
X111034463Y-139918918D01*
X111302252Y-139739987D01*
X111529987Y-139512252D01*
X111530000Y-139512233D01*
X111530013Y-139512252D01*
X111757748Y-139739987D01*
X112025537Y-139918918D01*
X112323088Y-140042168D01*
X112638967Y-140105000D01*
X112961033Y-140105000D01*
X113276912Y-140042168D01*
X113574463Y-139918918D01*
X113842252Y-139739987D01*
X114069987Y-139512252D01*
X114070000Y-139512233D01*
X114070013Y-139512252D01*
X114297748Y-139739987D01*
X114565537Y-139918918D01*
X114863088Y-140042168D01*
X115178967Y-140105000D01*
X115501033Y-140105000D01*
X115816912Y-140042168D01*
X116114463Y-139918918D01*
X116382252Y-139739987D01*
X116609987Y-139512252D01*
X116610000Y-139512233D01*
X116610013Y-139512252D01*
X116837748Y-139739987D01*
X117105537Y-139918918D01*
X117403088Y-140042168D01*
X117718967Y-140105000D01*
X118041033Y-140105000D01*
X118356912Y-140042168D01*
X118654463Y-139918918D01*
X118922252Y-139739987D01*
X119149987Y-139512252D01*
X119150000Y-139512233D01*
X119150013Y-139512252D01*
X119377748Y-139739987D01*
X119377767Y-139740000D01*
X119377748Y-139740013D01*
X119150013Y-139967748D01*
X118971082Y-140235537D01*
X118847832Y-140533088D01*
X118785000Y-140848967D01*
X118785000Y-141171033D01*
X118847832Y-141486912D01*
X118971082Y-141784463D01*
X119150013Y-142052252D01*
X119377748Y-142279987D01*
X119377767Y-142280000D01*
X119377748Y-142280013D01*
X119150013Y-142507748D01*
X118971082Y-142775537D01*
X118847832Y-143073088D01*
X118785000Y-143388967D01*
X118785000Y-143711033D01*
X118847832Y-144026912D01*
X118971082Y-144324463D01*
X119150013Y-144592252D01*
X119377748Y-144819987D01*
X119377767Y-144820000D01*
X119377748Y-144820013D01*
X119150013Y-145047748D01*
X118971082Y-145315537D01*
X118847832Y-145613088D01*
X118785000Y-145928967D01*
X118785000Y-146251033D01*
X118847832Y-146566912D01*
X118971082Y-146864463D01*
X119150013Y-147132252D01*
X119377748Y-147359987D01*
X119645537Y-147538918D01*
X119943088Y-147662168D01*
X120258967Y-147725000D01*
X120581033Y-147725000D01*
X120896912Y-147662168D01*
X121194463Y-147538918D01*
X121462252Y-147359987D01*
X121689987Y-147132252D01*
X121690000Y-147132233D01*
X121690013Y-147132252D01*
X121917748Y-147359987D01*
X122185537Y-147538918D01*
X122483088Y-147662168D01*
X122798967Y-147725000D01*
X123121033Y-147725000D01*
X123436912Y-147662168D01*
X123734463Y-147538918D01*
X124002252Y-147359987D01*
X124229987Y-147132252D01*
X124230000Y-147132233D01*
X124230013Y-147132252D01*
X124457748Y-147359987D01*
X124725537Y-147538918D01*
X125023088Y-147662168D01*
X125338967Y-147725000D01*
X125661033Y-147725000D01*
X125976912Y-147662168D01*
X126274463Y-147538918D01*
X126542252Y-147359987D01*
X126769987Y-147132252D01*
X126770000Y-147132233D01*
X126770013Y-147132252D01*
X126997748Y-147359987D01*
X127265537Y-147538918D01*
X127563088Y-147662168D01*
X127878967Y-147725000D01*
X128201033Y-147725000D01*
X128516912Y-147662168D01*
X128814463Y-147538918D01*
X129082252Y-147359987D01*
X129309987Y-147132252D01*
X129310000Y-147132233D01*
X129310013Y-147132252D01*
X129537748Y-147359987D01*
X129805537Y-147538918D01*
X130103088Y-147662168D01*
X130418967Y-147725000D01*
X130741033Y-147725000D01*
X131056912Y-147662168D01*
X131354463Y-147538918D01*
X131622252Y-147359987D01*
X131849987Y-147132252D01*
X131850000Y-147132233D01*
X131850013Y-147132252D01*
X132077748Y-147359987D01*
X132345537Y-147538918D01*
X132643088Y-147662168D01*
X132958967Y-147725000D01*
X133281033Y-147725000D01*
X133596912Y-147662168D01*
X133894463Y-147538918D01*
X134162252Y-147359987D01*
X134389987Y-147132252D01*
X134390000Y-147132233D01*
X134390013Y-147132252D01*
X134617748Y-147359987D01*
X134885537Y-147538918D01*
X135183088Y-147662168D01*
X135498967Y-147725000D01*
X135821033Y-147725000D01*
X136136912Y-147662168D01*
X136434463Y-147538918D01*
X136702252Y-147359987D01*
X136929987Y-147132252D01*
X136930000Y-147132233D01*
X136930013Y-147132252D01*
X137157748Y-147359987D01*
X137425537Y-147538918D01*
X137723088Y-147662168D01*
X138038967Y-147725000D01*
X138361033Y-147725000D01*
X138676912Y-147662168D01*
X138974463Y-147538918D01*
X139242252Y-147359987D01*
X139469987Y-147132252D01*
X139470000Y-147132233D01*
X139470013Y-147132252D01*
X139697748Y-147359987D01*
X139965537Y-147538918D01*
X140263088Y-147662168D01*
X140578967Y-147725000D01*
X140901033Y-147725000D01*
X141216912Y-147662168D01*
X141514463Y-147538918D01*
X141782252Y-147359987D01*
X142009987Y-147132252D01*
X142010000Y-147132233D01*
X142010013Y-147132252D01*
X142237748Y-147359987D01*
X142505537Y-147538918D01*
X142803088Y-147662168D01*
X143118967Y-147725000D01*
X143441033Y-147725000D01*
X143756912Y-147662168D01*
X144054463Y-147538918D01*
X144322252Y-147359987D01*
X144549987Y-147132252D01*
X144550000Y-147132233D01*
X144550013Y-147132252D01*
X144777748Y-147359987D01*
X145045537Y-147538918D01*
X145343088Y-147662168D01*
X145658967Y-147725000D01*
X145981033Y-147725000D01*
X146296912Y-147662168D01*
X146594463Y-147538918D01*
X146862252Y-147359987D01*
X147089987Y-147132252D01*
X147090000Y-147132233D01*
X147090013Y-147132252D01*
X147317748Y-147359987D01*
X147585537Y-147538918D01*
X147883088Y-147662168D01*
X148198967Y-147725000D01*
X148521033Y-147725000D01*
X148836912Y-147662168D01*
X149134463Y-147538918D01*
X149402252Y-147359987D01*
X149629987Y-147132252D01*
X149630000Y-147132233D01*
X149630013Y-147132252D01*
X149857748Y-147359987D01*
X150125537Y-147538918D01*
X150423088Y-147662168D01*
X150738967Y-147725000D01*
X151061033Y-147725000D01*
X151376912Y-147662168D01*
X151674463Y-147538918D01*
X151942252Y-147359987D01*
X152169987Y-147132252D01*
X152170000Y-147132233D01*
X152170013Y-147132252D01*
X152397748Y-147359987D01*
X152665537Y-147538918D01*
X152963088Y-147662168D01*
X153278967Y-147725000D01*
X153601033Y-147725000D01*
X153916912Y-147662168D01*
X154214463Y-147538918D01*
X154482252Y-147359987D01*
X154709987Y-147132252D01*
X154710000Y-147132233D01*
X154710013Y-147132252D01*
X154937748Y-147359987D01*
X155205537Y-147538918D01*
X155503088Y-147662168D01*
X155818967Y-147725000D01*
X156141033Y-147725000D01*
X156456912Y-147662168D01*
X156754463Y-147538918D01*
X157022252Y-147359987D01*
X157249987Y-147132252D01*
X157250000Y-147132233D01*
X157250013Y-147132252D01*
X157477748Y-147359987D01*
X157745537Y-147538918D01*
X158043088Y-147662168D01*
X158358967Y-147725000D01*
X158681033Y-147725000D01*
X158996912Y-147662168D01*
X159294463Y-147538918D01*
X159562252Y-147359987D01*
X159789987Y-147132252D01*
X159968918Y-146864463D01*
X160092168Y-146566912D01*
X160155000Y-146251033D01*
X160155000Y-145928967D01*
X160092168Y-145613088D01*
X159968918Y-145315537D01*
X159789987Y-145047748D01*
X159562252Y-144820013D01*
X159562233Y-144820000D01*
X159562252Y-144819987D01*
X159789987Y-144592252D01*
X159968918Y-144324463D01*
X159983308Y-144289721D01*
X160365000Y-144289721D01*
X160365000Y-144710279D01*
X160447047Y-145122756D01*
X160607988Y-145511302D01*
X160841637Y-145860983D01*
X161139017Y-146158363D01*
X161488698Y-146392012D01*
X161877244Y-146552953D01*
X162289721Y-146635000D01*
X162710279Y-146635000D01*
X163122756Y-146552953D01*
X163511302Y-146392012D01*
X163860983Y-146158363D01*
X164158363Y-145860983D01*
X164392012Y-145511302D01*
X164552953Y-145122756D01*
X164635000Y-144710279D01*
X164635000Y-144289721D01*
X164552953Y-143877244D01*
X164392012Y-143488698D01*
X164158363Y-143139017D01*
X163860983Y-142841637D01*
X163511302Y-142607988D01*
X163122756Y-142447047D01*
X162710279Y-142365000D01*
X162289721Y-142365000D01*
X161877244Y-142447047D01*
X161488698Y-142607988D01*
X161139017Y-142841637D01*
X160841637Y-143139017D01*
X160607988Y-143488698D01*
X160447047Y-143877244D01*
X160365000Y-144289721D01*
X159983308Y-144289721D01*
X160092168Y-144026912D01*
X160155000Y-143711033D01*
X160155000Y-143388967D01*
X160092168Y-143073088D01*
X159968918Y-142775537D01*
X159789987Y-142507748D01*
X159562252Y-142280013D01*
X159562233Y-142280000D01*
X159562252Y-142279987D01*
X159789987Y-142052252D01*
X159968918Y-141784463D01*
X160092168Y-141486912D01*
X160155000Y-141171033D01*
X160155000Y-140848967D01*
X160092168Y-140533088D01*
X159968918Y-140235537D01*
X159789987Y-139967748D01*
X159562252Y-139740013D01*
X159562233Y-139740000D01*
X159562252Y-139739987D01*
X159789987Y-139512252D01*
X159968918Y-139244463D01*
X160036107Y-139082254D01*
X160285537Y-139248918D01*
X160583088Y-139372168D01*
X160898967Y-139435000D01*
X161221033Y-139435000D01*
X161536912Y-139372168D01*
X161834463Y-139248918D01*
X162102252Y-139069987D01*
X162329987Y-138842252D01*
X162435059Y-138685000D01*
X166161928Y-138685000D01*
X166161928Y-139000000D01*
X166174188Y-139124482D01*
X166210498Y-139244180D01*
X166269463Y-139354494D01*
X166348815Y-139451185D01*
X166445506Y-139530537D01*
X166555820Y-139589502D01*
X166675518Y-139625812D01*
X166800000Y-139638072D01*
X169200000Y-139638072D01*
X169324482Y-139625812D01*
X169444180Y-139589502D01*
X169554494Y-139530537D01*
X169651185Y-139451185D01*
X169730537Y-139354494D01*
X169789502Y-139244180D01*
X169825812Y-139124482D01*
X169838072Y-139000000D01*
X169838072Y-136600000D01*
X169825812Y-136475518D01*
X169789502Y-136355820D01*
X169730537Y-136245506D01*
X169651185Y-136148815D01*
X169554494Y-136069463D01*
X169444180Y-136010498D01*
X169324482Y-135974188D01*
X169200000Y-135961928D01*
X168782838Y-135961928D01*
X168869199Y-135926156D01*
X169169744Y-135725338D01*
X169425338Y-135469744D01*
X169626156Y-135169199D01*
X169764482Y-134835250D01*
X169835000Y-134480732D01*
X169835000Y-134119268D01*
X169764482Y-133764750D01*
X169626156Y-133430801D01*
X169425338Y-133130256D01*
X169169744Y-132874662D01*
X168869199Y-132673844D01*
X168570213Y-132550000D01*
X168869199Y-132426156D01*
X169169744Y-132225338D01*
X169425338Y-131969744D01*
X169626156Y-131669199D01*
X169764482Y-131335250D01*
X169835000Y-130980732D01*
X169835000Y-130619268D01*
X169764482Y-130264750D01*
X169626156Y-129930801D01*
X169425338Y-129630256D01*
X169169744Y-129374662D01*
X168869199Y-129173844D01*
X168535250Y-129035518D01*
X168180732Y-128965000D01*
X167819268Y-128965000D01*
X167464750Y-129035518D01*
X167130801Y-129173844D01*
X166830256Y-129374662D01*
X166574662Y-129630256D01*
X166384402Y-129915000D01*
X162435059Y-129915000D01*
X162329987Y-129757748D01*
X162102252Y-129530013D01*
X161834463Y-129351082D01*
X161536912Y-129227832D01*
X161221033Y-129165000D01*
X160898967Y-129165000D01*
X160583088Y-129227832D01*
X160285537Y-129351082D01*
X160017748Y-129530013D01*
X159790013Y-129757748D01*
X159683094Y-129917764D01*
X159673475Y-129903368D01*
X159466632Y-129696525D01*
X159405000Y-129655344D01*
X159405000Y-129504656D01*
X159466632Y-129463475D01*
X159673475Y-129256632D01*
X159835990Y-129013411D01*
X159947932Y-128743158D01*
X160005000Y-128456260D01*
X160005000Y-128163740D01*
X159947932Y-127876842D01*
X159835990Y-127606589D01*
X159673475Y-127363368D01*
X159466632Y-127156525D01*
X159427236Y-127130202D01*
X159562252Y-127039987D01*
X159697189Y-126905050D01*
X161644555Y-126905050D01*
X161740258Y-127169399D01*
X162029787Y-127310238D01*
X162341229Y-127391885D01*
X162662615Y-127411205D01*
X162981595Y-127367454D01*
X163285911Y-127262314D01*
X163459742Y-127169399D01*
X163555445Y-126905050D01*
X162600000Y-125949605D01*
X161644555Y-126905050D01*
X159697189Y-126905050D01*
X159789987Y-126812252D01*
X159968918Y-126544463D01*
X160092168Y-126246912D01*
X160155000Y-125931033D01*
X160155000Y-125832615D01*
X160958795Y-125832615D01*
X161002546Y-126151595D01*
X161107686Y-126455911D01*
X161200601Y-126629742D01*
X161464950Y-126725445D01*
X162420395Y-125770000D01*
X162779605Y-125770000D01*
X163735050Y-126725445D01*
X163999399Y-126629742D01*
X164140238Y-126340213D01*
X164221885Y-126028771D01*
X164241205Y-125707385D01*
X164197454Y-125388405D01*
X164092314Y-125084089D01*
X163999399Y-124910258D01*
X163735050Y-124814555D01*
X162779605Y-125770000D01*
X162420395Y-125770000D01*
X161464950Y-124814555D01*
X161200601Y-124910258D01*
X161059762Y-125199787D01*
X160978115Y-125511229D01*
X160958795Y-125832615D01*
X160155000Y-125832615D01*
X160155000Y-125608967D01*
X160092168Y-125293088D01*
X159968918Y-124995537D01*
X159789987Y-124727748D01*
X159562252Y-124500013D01*
X159427236Y-124409798D01*
X159466632Y-124383475D01*
X159485057Y-124365050D01*
X161644555Y-124365050D01*
X161693411Y-124500000D01*
X161644555Y-124634950D01*
X162600000Y-125590395D01*
X163555445Y-124634950D01*
X163506589Y-124500000D01*
X163555445Y-124365050D01*
X163480116Y-124289721D01*
X167365000Y-124289721D01*
X167365000Y-124710279D01*
X167447047Y-125122756D01*
X167607988Y-125511302D01*
X167841637Y-125860983D01*
X168139017Y-126158363D01*
X168488698Y-126392012D01*
X168877244Y-126552953D01*
X169289721Y-126635000D01*
X169710279Y-126635000D01*
X170122756Y-126552953D01*
X170511302Y-126392012D01*
X170860983Y-126158363D01*
X171158363Y-125860983D01*
X171392012Y-125511302D01*
X171552953Y-125122756D01*
X171635000Y-124710279D01*
X171635000Y-124289721D01*
X171552953Y-123877244D01*
X171392012Y-123488698D01*
X171158363Y-123139017D01*
X170860983Y-122841637D01*
X170511302Y-122607988D01*
X170122756Y-122447047D01*
X169710279Y-122365000D01*
X169289721Y-122365000D01*
X168877244Y-122447047D01*
X168488698Y-122607988D01*
X168139017Y-122841637D01*
X167841637Y-123139017D01*
X167607988Y-123488698D01*
X167447047Y-123877244D01*
X167365000Y-124289721D01*
X163480116Y-124289721D01*
X162600000Y-123409605D01*
X161644555Y-124365050D01*
X159485057Y-124365050D01*
X159673475Y-124176632D01*
X159835990Y-123933411D01*
X159947932Y-123663158D01*
X160005000Y-123376260D01*
X160005000Y-123292615D01*
X160958795Y-123292615D01*
X161002546Y-123611595D01*
X161107686Y-123915911D01*
X161200601Y-124089742D01*
X161464950Y-124185445D01*
X162420395Y-123230000D01*
X162779605Y-123230000D01*
X163735050Y-124185445D01*
X163999399Y-124089742D01*
X164140238Y-123800213D01*
X164221885Y-123488771D01*
X164241205Y-123167385D01*
X164197454Y-122848405D01*
X164092314Y-122544089D01*
X163999399Y-122370258D01*
X163735050Y-122274555D01*
X162779605Y-123230000D01*
X162420395Y-123230000D01*
X161464950Y-122274555D01*
X161200601Y-122370258D01*
X161059762Y-122659787D01*
X160978115Y-122971229D01*
X160958795Y-123292615D01*
X160005000Y-123292615D01*
X160005000Y-123083740D01*
X159947932Y-122796842D01*
X159835990Y-122526589D01*
X159673475Y-122283368D01*
X159485057Y-122094950D01*
X161644555Y-122094950D01*
X162600000Y-123050395D01*
X163555445Y-122094950D01*
X163459742Y-121830601D01*
X163170213Y-121689762D01*
X162858771Y-121608115D01*
X162537385Y-121588795D01*
X162218405Y-121632546D01*
X161914089Y-121737686D01*
X161740258Y-121830601D01*
X161644555Y-122094950D01*
X159485057Y-122094950D01*
X159466632Y-122076525D01*
X159405000Y-122035344D01*
X159405000Y-121884656D01*
X159466632Y-121843475D01*
X159673475Y-121636632D01*
X159835990Y-121393411D01*
X159947932Y-121123158D01*
X160005000Y-120836260D01*
X160005000Y-120543740D01*
X159947932Y-120256842D01*
X159835990Y-119986589D01*
X159673475Y-119743368D01*
X159466632Y-119536525D01*
X159427236Y-119510202D01*
X159562252Y-119419987D01*
X159769975Y-119212264D01*
X159790013Y-119242252D01*
X160017748Y-119469987D01*
X160285537Y-119648918D01*
X160583088Y-119772168D01*
X160898967Y-119835000D01*
X161221033Y-119835000D01*
X161536912Y-119772168D01*
X161834463Y-119648918D01*
X162102252Y-119469987D01*
X162329987Y-119242252D01*
X162435059Y-119085000D01*
X166161928Y-119085000D01*
X166161928Y-119400000D01*
X166174188Y-119524482D01*
X166210498Y-119644180D01*
X166269463Y-119754494D01*
X166348815Y-119851185D01*
X166445506Y-119930537D01*
X166555820Y-119989502D01*
X166675518Y-120025812D01*
X166800000Y-120038072D01*
X169200000Y-120038072D01*
X169324482Y-120025812D01*
X169444180Y-119989502D01*
X169554494Y-119930537D01*
X169651185Y-119851185D01*
X169730537Y-119754494D01*
X169789502Y-119644180D01*
X169825812Y-119524482D01*
X169838072Y-119400000D01*
X169838072Y-117000000D01*
X169825812Y-116875518D01*
X169789502Y-116755820D01*
X169730537Y-116645506D01*
X169651185Y-116548815D01*
X169554494Y-116469463D01*
X169444180Y-116410498D01*
X169324482Y-116374188D01*
X169200000Y-116361928D01*
X168782838Y-116361928D01*
X168869199Y-116326156D01*
X169169744Y-116125338D01*
X169425338Y-115869744D01*
X169626156Y-115569199D01*
X169764482Y-115235250D01*
X169835000Y-114880732D01*
X169835000Y-114519268D01*
X169764482Y-114164750D01*
X169626156Y-113830801D01*
X169425338Y-113530256D01*
X169169744Y-113274662D01*
X168869199Y-113073844D01*
X168570213Y-112950000D01*
X168869199Y-112826156D01*
X169169744Y-112625338D01*
X169425338Y-112369744D01*
X169626156Y-112069199D01*
X169764482Y-111735250D01*
X169835000Y-111380732D01*
X169835000Y-111019268D01*
X169764482Y-110664750D01*
X169626156Y-110330801D01*
X169425338Y-110030256D01*
X169169744Y-109774662D01*
X168869199Y-109573844D01*
X168535250Y-109435518D01*
X168180732Y-109365000D01*
X167819268Y-109365000D01*
X167464750Y-109435518D01*
X167130801Y-109573844D01*
X166830256Y-109774662D01*
X166574662Y-110030256D01*
X166384402Y-110315000D01*
X162435059Y-110315000D01*
X162329987Y-110157748D01*
X162102252Y-109930013D01*
X161834463Y-109751082D01*
X161536912Y-109627832D01*
X161221033Y-109565000D01*
X160898967Y-109565000D01*
X160583088Y-109627832D01*
X160285537Y-109751082D01*
X160017748Y-109930013D01*
X159919518Y-110028243D01*
X159835990Y-109826589D01*
X159673475Y-109583368D01*
X159466632Y-109376525D01*
X159292240Y-109260000D01*
X159466632Y-109143475D01*
X159673475Y-108936632D01*
X159835990Y-108693411D01*
X159947932Y-108423158D01*
X160005000Y-108136260D01*
X160005000Y-107843740D01*
X159947932Y-107556842D01*
X159835990Y-107286589D01*
X159673475Y-107043368D01*
X159466632Y-106836525D01*
X159405000Y-106795344D01*
X159405000Y-106656404D01*
X159414768Y-106638130D01*
X159466632Y-106603475D01*
X159673475Y-106396632D01*
X159835990Y-106153411D01*
X159947932Y-105883158D01*
X160005000Y-105596260D01*
X160005000Y-105303740D01*
X159947932Y-105016842D01*
X159835990Y-104746589D01*
X159673475Y-104503368D01*
X159466632Y-104296525D01*
X159456449Y-104289721D01*
X160365000Y-104289721D01*
X160365000Y-104710279D01*
X160447047Y-105122756D01*
X160607988Y-105511302D01*
X160841637Y-105860983D01*
X161139017Y-106158363D01*
X161488698Y-106392012D01*
X161877244Y-106552953D01*
X162289721Y-106635000D01*
X162710279Y-106635000D01*
X163122756Y-106552953D01*
X163511302Y-106392012D01*
X163860983Y-106158363D01*
X164158363Y-105860983D01*
X164392012Y-105511302D01*
X164552953Y-105122756D01*
X164635000Y-104710279D01*
X164635000Y-104289721D01*
X164552953Y-103877244D01*
X164392012Y-103488698D01*
X164158363Y-103139017D01*
X163860983Y-102841637D01*
X163511302Y-102607988D01*
X163122756Y-102447047D01*
X162710279Y-102365000D01*
X162289721Y-102365000D01*
X161877244Y-102447047D01*
X161488698Y-102607988D01*
X161139017Y-102841637D01*
X160841637Y-103139017D01*
X160607988Y-103488698D01*
X160447047Y-103877244D01*
X160365000Y-104289721D01*
X159456449Y-104289721D01*
X159427236Y-104270202D01*
X159562252Y-104179987D01*
X159789987Y-103952252D01*
X159968918Y-103684463D01*
X160092168Y-103386912D01*
X160155000Y-103071033D01*
X160155000Y-102748967D01*
X160092168Y-102433088D01*
X159968918Y-102135537D01*
X159789987Y-101867748D01*
X159562252Y-101640013D01*
X159294463Y-101461082D01*
X158996912Y-101337832D01*
X158681033Y-101275000D01*
X158358967Y-101275000D01*
X158043088Y-101337832D01*
X157745537Y-101461082D01*
X157477748Y-101640013D01*
X157250013Y-101867748D01*
X157250000Y-101867767D01*
X157249987Y-101867748D01*
X157022252Y-101640013D01*
X156754463Y-101461082D01*
X156456912Y-101337832D01*
X156141033Y-101275000D01*
X155818967Y-101275000D01*
X155503088Y-101337832D01*
X155205537Y-101461082D01*
X154937748Y-101640013D01*
X154710013Y-101867748D01*
X154710000Y-101867767D01*
X154709987Y-101867748D01*
X154482252Y-101640013D01*
X154214463Y-101461082D01*
X153916912Y-101337832D01*
X153601033Y-101275000D01*
X153278967Y-101275000D01*
X152963088Y-101337832D01*
X152665537Y-101461082D01*
X152397748Y-101640013D01*
X152170013Y-101867748D01*
X152170000Y-101867767D01*
X152169987Y-101867748D01*
X151942252Y-101640013D01*
X151674463Y-101461082D01*
X151376912Y-101337832D01*
X151061033Y-101275000D01*
X150738967Y-101275000D01*
X150423088Y-101337832D01*
X150125537Y-101461082D01*
X149857748Y-101640013D01*
X149630013Y-101867748D01*
X149630000Y-101867767D01*
X149629987Y-101867748D01*
X149402252Y-101640013D01*
X149134463Y-101461082D01*
X148836912Y-101337832D01*
X148521033Y-101275000D01*
X148198967Y-101275000D01*
X147883088Y-101337832D01*
X147585537Y-101461082D01*
X147317748Y-101640013D01*
X147090013Y-101867748D01*
X147090000Y-101867767D01*
X147089987Y-101867748D01*
X146862252Y-101640013D01*
X146594463Y-101461082D01*
X146296912Y-101337832D01*
X145981033Y-101275000D01*
X145658967Y-101275000D01*
X145343088Y-101337832D01*
X145045537Y-101461082D01*
X144777748Y-101640013D01*
X144550013Y-101867748D01*
X144550000Y-101867767D01*
X144549987Y-101867748D01*
X144322252Y-101640013D01*
X144054463Y-101461082D01*
X143756912Y-101337832D01*
X143441033Y-101275000D01*
X143118967Y-101275000D01*
X142803088Y-101337832D01*
X142505537Y-101461082D01*
X142237748Y-101640013D01*
X142010013Y-101867748D01*
X142010000Y-101867767D01*
X142009987Y-101867748D01*
X141782252Y-101640013D01*
X141514463Y-101461082D01*
X141216912Y-101337832D01*
X140901033Y-101275000D01*
X140578967Y-101275000D01*
X140263088Y-101337832D01*
X139965537Y-101461082D01*
X139697748Y-101640013D01*
X139470013Y-101867748D01*
X139470000Y-101867767D01*
X139469987Y-101867748D01*
X139242252Y-101640013D01*
X138974463Y-101461082D01*
X138676912Y-101337832D01*
X138361033Y-101275000D01*
X138038967Y-101275000D01*
X137723088Y-101337832D01*
X137425537Y-101461082D01*
X137157748Y-101640013D01*
X136930013Y-101867748D01*
X136930000Y-101867767D01*
X136929987Y-101867748D01*
X136702252Y-101640013D01*
X136434463Y-101461082D01*
X136136912Y-101337832D01*
X135821033Y-101275000D01*
X135498967Y-101275000D01*
X135183088Y-101337832D01*
X134885537Y-101461082D01*
X134617748Y-101640013D01*
X134390013Y-101867748D01*
X134390000Y-101867767D01*
X134389987Y-101867748D01*
X134162252Y-101640013D01*
X133894463Y-101461082D01*
X133596912Y-101337832D01*
X133281033Y-101275000D01*
X132958967Y-101275000D01*
X132643088Y-101337832D01*
X132345537Y-101461082D01*
X132077748Y-101640013D01*
X131850013Y-101867748D01*
X131850000Y-101867767D01*
X131849987Y-101867748D01*
X131622252Y-101640013D01*
X131354463Y-101461082D01*
X131056912Y-101337832D01*
X130741033Y-101275000D01*
X130418967Y-101275000D01*
X130103088Y-101337832D01*
X129805537Y-101461082D01*
X129537748Y-101640013D01*
X129310013Y-101867748D01*
X129310000Y-101867767D01*
X129309987Y-101867748D01*
X129082252Y-101640013D01*
X128814463Y-101461082D01*
X128516912Y-101337832D01*
X128201033Y-101275000D01*
X127878967Y-101275000D01*
X127563088Y-101337832D01*
X127265537Y-101461082D01*
X126997748Y-101640013D01*
X126770013Y-101867748D01*
X126770000Y-101867767D01*
X126769987Y-101867748D01*
X126542252Y-101640013D01*
X126274463Y-101461082D01*
X125976912Y-101337832D01*
X125661033Y-101275000D01*
X125338967Y-101275000D01*
X125023088Y-101337832D01*
X124725537Y-101461082D01*
X124457748Y-101640013D01*
X124230013Y-101867748D01*
X124230000Y-101867767D01*
X124229987Y-101867748D01*
X124002252Y-101640013D01*
X123734463Y-101461082D01*
X123436912Y-101337832D01*
X123121033Y-101275000D01*
X122798967Y-101275000D01*
X122483088Y-101337832D01*
X122185537Y-101461082D01*
X121917748Y-101640013D01*
X121690013Y-101867748D01*
X121690000Y-101867767D01*
X121689987Y-101867748D01*
X121462252Y-101640013D01*
X121194463Y-101461082D01*
X120896912Y-101337832D01*
X120581033Y-101275000D01*
X120258967Y-101275000D01*
X119943088Y-101337832D01*
X119645537Y-101461082D01*
X119377748Y-101640013D01*
X119150013Y-101867748D01*
X119150000Y-101867767D01*
X119149987Y-101867748D01*
X118922252Y-101640013D01*
X118654463Y-101461082D01*
X118356912Y-101337832D01*
X118041033Y-101275000D01*
X117718967Y-101275000D01*
X117403088Y-101337832D01*
X117105537Y-101461082D01*
X116837748Y-101640013D01*
X116610013Y-101867748D01*
X116610000Y-101867767D01*
X116609987Y-101867748D01*
X116382252Y-101640013D01*
X116114463Y-101461082D01*
X115816912Y-101337832D01*
X115501033Y-101275000D01*
X115178967Y-101275000D01*
X114863088Y-101337832D01*
X114565537Y-101461082D01*
X114297748Y-101640013D01*
X114070013Y-101867748D01*
X114070000Y-101867767D01*
X114069987Y-101867748D01*
X113842252Y-101640013D01*
X113574463Y-101461082D01*
X113276912Y-101337832D01*
X112961033Y-101275000D01*
X112638967Y-101275000D01*
X112323088Y-101337832D01*
X112025537Y-101461082D01*
X111757748Y-101640013D01*
X111530013Y-101867748D01*
X111530000Y-101867767D01*
X111529987Y-101867748D01*
X111302252Y-101640013D01*
X111034463Y-101461082D01*
X110736912Y-101337832D01*
X110421033Y-101275000D01*
X110098967Y-101275000D01*
X109783088Y-101337832D01*
X109485537Y-101461082D01*
X109217748Y-101640013D01*
X108990013Y-101867748D01*
X108811082Y-102135537D01*
X108687832Y-102433088D01*
X108625000Y-102748967D01*
X106589579Y-102748967D01*
X106791627Y-102261181D01*
X106823631Y-102162684D01*
X107061738Y-101170898D01*
X107077939Y-101068607D01*
X107110097Y-100660000D01*
X167889903Y-100660000D01*
X167922061Y-101068607D01*
G37*
X167922061Y-101068607D02*
X167938262Y-101170898D01*
X168176369Y-102162684D01*
X168208372Y-102261181D01*
X168598697Y-103203509D01*
X168622207Y-103249648D01*
X168645715Y-103295787D01*
X169178647Y-104165453D01*
X169186489Y-104176246D01*
X169239522Y-104249240D01*
X169901938Y-105024830D01*
X169975170Y-105098062D01*
X170750760Y-105760478D01*
X170834547Y-105821353D01*
X171704213Y-106354284D01*
X171796491Y-106401303D01*
X172738819Y-106791627D01*
X172837316Y-106823631D01*
X173829102Y-107061738D01*
X173931393Y-107077939D01*
X174340000Y-107110097D01*
X174340001Y-141889903D01*
X173931393Y-141922061D01*
X173829102Y-141938262D01*
X172837316Y-142176369D01*
X172738819Y-142208373D01*
X171796491Y-142598697D01*
X171705618Y-142645000D01*
X171704213Y-142645716D01*
X170834547Y-143178647D01*
X170750760Y-143239522D01*
X169975170Y-143901938D01*
X169901938Y-143975170D01*
X169239522Y-144750760D01*
X169209084Y-144792654D01*
X169178647Y-144834547D01*
X168645715Y-145704213D01*
X168626392Y-145742138D01*
X168598697Y-145796491D01*
X168208372Y-146738819D01*
X168178937Y-146829411D01*
X168176369Y-146837316D01*
X167938262Y-147829102D01*
X167922061Y-147931393D01*
X167889903Y-148340000D01*
X107110097Y-148340000D01*
X107077939Y-147931393D01*
X107061738Y-147829102D01*
X106823631Y-146837316D01*
X106791627Y-146738819D01*
X106401303Y-145796491D01*
X106354284Y-145704213D01*
X105821353Y-144834547D01*
X105760478Y-144750760D01*
X105366714Y-144289721D01*
X110365000Y-144289721D01*
X110365000Y-144710279D01*
X110447047Y-145122756D01*
X110607988Y-145511302D01*
X110841637Y-145860983D01*
X111139017Y-146158363D01*
X111488698Y-146392012D01*
X111877244Y-146552953D01*
X112289721Y-146635000D01*
X112710279Y-146635000D01*
X113122756Y-146552953D01*
X113511302Y-146392012D01*
X113860983Y-146158363D01*
X114158363Y-145860983D01*
X114392012Y-145511302D01*
X114552953Y-145122756D01*
X114635000Y-144710279D01*
X114635000Y-144289721D01*
X114552953Y-143877244D01*
X114392012Y-143488698D01*
X114158363Y-143139017D01*
X113860983Y-142841637D01*
X113511302Y-142607988D01*
X113122756Y-142447047D01*
X112710279Y-142365000D01*
X112289721Y-142365000D01*
X111877244Y-142447047D01*
X111488698Y-142607988D01*
X111139017Y-142841637D01*
X110841637Y-143139017D01*
X110607988Y-143488698D01*
X110447047Y-143877244D01*
X110365000Y-144289721D01*
X105366714Y-144289721D01*
X105098062Y-143975170D01*
X105024830Y-143901938D01*
X104249240Y-143239522D01*
X104180784Y-143189786D01*
X104165453Y-143178647D01*
X103295787Y-142645715D01*
X103249648Y-142622207D01*
X103203509Y-142598697D01*
X102261181Y-142208372D01*
X102162684Y-142176369D01*
X101170898Y-141938262D01*
X101068607Y-141922061D01*
X100660000Y-141889903D01*
X100660000Y-124289721D01*
X103365000Y-124289721D01*
X103365000Y-124710279D01*
X103447047Y-125122756D01*
X103607988Y-125511302D01*
X103841637Y-125860983D01*
X104139017Y-126158363D01*
X104488698Y-126392012D01*
X104877244Y-126552953D01*
X105289721Y-126635000D01*
X105710279Y-126635000D01*
X106122756Y-126552953D01*
X106511302Y-126392012D01*
X106860983Y-126158363D01*
X107158363Y-125860983D01*
X107392012Y-125511302D01*
X107552953Y-125122756D01*
X107635000Y-124710279D01*
X107635000Y-124289721D01*
X107552953Y-123877244D01*
X107392012Y-123488698D01*
X107158363Y-123139017D01*
X106860983Y-122841637D01*
X106511302Y-122607988D01*
X106122756Y-122447047D01*
X105710279Y-122365000D01*
X105289721Y-122365000D01*
X104877244Y-122447047D01*
X104488698Y-122607988D01*
X104139017Y-122841637D01*
X103841637Y-123139017D01*
X103607988Y-123488698D01*
X103447047Y-123877244D01*
X103365000Y-124289721D01*
X100660000Y-124289721D01*
X100660000Y-118305199D01*
X101058514Y-118380326D01*
X101058566Y-118380336D01*
X101142059Y-118396076D01*
X101095212Y-118464970D01*
X101095170Y-118465048D01*
X101094243Y-118466398D01*
X101023993Y-118570309D01*
X101023920Y-118570443D01*
X101021956Y-118573341D01*
X100959232Y-118667271D01*
X100959156Y-118667413D01*
X100956770Y-118670986D01*
X100904436Y-118750551D01*
X100904383Y-118750652D01*
X100900718Y-118756269D01*
X100861637Y-118817087D01*
X100860181Y-118819929D01*
X100858228Y-118822451D01*
X100853525Y-118830049D01*
X100830561Y-118867736D01*
X100818887Y-118891932D01*
X100804590Y-118914679D01*
X100800651Y-118922701D01*
X100795700Y-118932965D01*
X100788936Y-118951398D01*
X100779769Y-118968753D01*
X100776420Y-118979957D01*
X100776286Y-118980234D01*
X100775950Y-118981526D01*
X100767466Y-119009907D01*
X100752671Y-119050226D01*
X100749618Y-119069611D01*
X100743993Y-119088426D01*
X100739917Y-119131201D01*
X100733237Y-119173611D01*
X100734007Y-119193220D01*
X100732144Y-119212769D01*
X100736452Y-119255505D01*
X100738137Y-119298421D01*
X100742703Y-119317514D01*
X100744672Y-119337045D01*
X100757199Y-119378128D01*
X100767189Y-119419902D01*
X100775377Y-119437747D01*
X100781102Y-119456521D01*
X100801369Y-119494389D01*
X100819282Y-119533426D01*
X100830775Y-119549333D01*
X100840041Y-119566646D01*
X100845059Y-119574041D01*
X100857793Y-119592530D01*
X100880658Y-119619628D01*
X100901152Y-119648571D01*
X100907051Y-119655284D01*
X100942257Y-119694794D01*
X100946234Y-119698463D01*
X100949497Y-119702783D01*
X100955599Y-119709311D01*
X101008780Y-119765413D01*
X101008982Y-119765588D01*
X101009151Y-119765805D01*
X101015349Y-119772242D01*
X101082005Y-119840506D01*
X101082111Y-119840595D01*
X101086288Y-119844851D01*
X101161923Y-119920849D01*
X101162043Y-119920948D01*
X101165316Y-119924233D01*
X101245434Y-120003539D01*
X101245559Y-120003641D01*
X101248643Y-120006693D01*
X101328745Y-120084877D01*
X101328871Y-120084978D01*
X101332345Y-120088363D01*
X101407936Y-120160995D01*
X101408029Y-120161068D01*
X101412777Y-120165599D01*
X101479358Y-120228251D01*
X101480188Y-120228892D01*
X101480884Y-120229683D01*
X101487455Y-120235739D01*
X101540528Y-120283983D01*
X101547223Y-120288968D01*
X101552986Y-120295016D01*
X101559793Y-120300805D01*
X101594862Y-120330212D01*
X101632898Y-120356237D01*
X101669541Y-120384178D01*
X101677174Y-120388824D01*
X101688910Y-120395855D01*
X101695035Y-120398754D01*
X101697947Y-120400746D01*
X101711589Y-120406588D01*
X101741266Y-120420632D01*
X101793292Y-120446163D01*
X101797700Y-120447339D01*
X101801812Y-120449285D01*
X101857932Y-120463408D01*
X101913977Y-120478360D01*
X101918528Y-120478657D01*
X101922941Y-120479768D01*
X101980772Y-120482724D01*
X102038618Y-120486504D01*
X102043135Y-120485912D01*
X102047685Y-120486145D01*
X102105047Y-120477802D01*
X102162466Y-120470281D01*
X102166780Y-120468824D01*
X102171291Y-120468168D01*
X102225904Y-120448856D01*
X102242696Y-120443185D01*
X102246715Y-120442235D01*
X102250173Y-120440659D01*
X102280805Y-120430314D01*
X102288926Y-120426585D01*
X102310563Y-120416467D01*
X102334768Y-120402117D01*
X102360379Y-120390448D01*
X102368079Y-120385913D01*
X102415481Y-120357549D01*
X102419030Y-120354923D01*
X102423000Y-120352980D01*
X102430571Y-120348233D01*
X102499102Y-120304603D01*
X102499303Y-120304445D01*
X102499540Y-120304325D01*
X102507040Y-120299467D01*
X102592062Y-120243556D01*
X102592153Y-120243482D01*
X102597797Y-120239740D01*
X102694675Y-120174528D01*
X102694795Y-120174429D01*
X102698558Y-120171894D01*
X102753378Y-120134405D01*
X102824823Y-120085635D01*
X102828381Y-120104513D01*
X102840445Y-120169263D01*
X102840478Y-120169379D01*
X102840912Y-120171744D01*
X102863856Y-120292252D01*
X102863893Y-120292377D01*
X102865061Y-120298417D01*
X102886894Y-120407264D01*
X102886917Y-120407339D01*
X102888436Y-120414722D01*
X102907963Y-120506400D01*
X102908389Y-120507742D01*
X102908553Y-120509141D01*
X102910514Y-120517859D01*
X102926540Y-120586864D01*
X102929477Y-120595554D01*
X102930932Y-120604624D01*
X102933263Y-120613251D01*
X102944593Y-120654073D01*
X102959363Y-120692326D01*
X102971526Y-120731484D01*
X102975055Y-120739694D01*
X102978650Y-120747901D01*
X102985398Y-120759949D01*
X102990241Y-120772886D01*
X103015877Y-120814360D01*
X103039692Y-120856875D01*
X103048651Y-120867381D01*
X103055915Y-120879133D01*
X103089121Y-120914840D01*
X103120738Y-120951918D01*
X103131566Y-120960483D01*
X103140975Y-120970601D01*
X103180475Y-120999171D01*
X103218701Y-121029409D01*
X103230994Y-121035712D01*
X103242182Y-121043804D01*
X103286464Y-121064152D01*
X103329850Y-121086396D01*
X103343132Y-121090190D01*
X103355679Y-121095956D01*
X103364145Y-121098818D01*
X103388477Y-121106855D01*
X103446980Y-121120016D01*
X103505333Y-121133629D01*
X103510185Y-121134236D01*
X103510337Y-121134270D01*
X103510490Y-121134274D01*
X103514200Y-121134738D01*
X103569153Y-121141223D01*
X103582378Y-121141484D01*
X103595401Y-121143773D01*
X103604316Y-121144392D01*
X103683465Y-121149329D01*
X103687746Y-121149177D01*
X103691981Y-121149803D01*
X103700909Y-121150178D01*
X103797827Y-121153572D01*
X103799084Y-121153493D01*
X103800334Y-121153655D01*
X103809267Y-121153870D01*
X103917529Y-121155724D01*
X103917634Y-121155716D01*
X103917742Y-121155728D01*
X103926677Y-121155815D01*
X104039664Y-121156134D01*
X104039669Y-121156135D01*
X104039855Y-121156135D01*
X104039863Y-121156134D01*
X104048605Y-121156100D01*
X104160275Y-121154889D01*
X104160774Y-121154835D01*
X104161281Y-121154878D01*
X104170216Y-121154704D01*
X104273948Y-121151967D01*
X104276265Y-121151678D01*
X104278603Y-121151828D01*
X104287532Y-121151465D01*
X104376905Y-121147206D01*
X104384034Y-121146162D01*
X104391240Y-121146362D01*
X104400150Y-121145673D01*
X104468735Y-121139897D01*
X104492809Y-121135473D01*
X104517249Y-121133939D01*
X104526060Y-121132450D01*
X104567431Y-121125162D01*
X104593944Y-121117764D01*
X104621098Y-121113311D01*
X104653951Y-121101020D01*
X104687741Y-121091591D01*
X104704736Y-121083010D01*
X104713469Y-121080299D01*
X104722701Y-121075298D01*
X104738084Y-121069543D01*
X104746080Y-121065554D01*
X104754693Y-121061182D01*
X104780346Y-121044831D01*
X104799240Y-121035291D01*
X104805310Y-121030550D01*
X104823297Y-121020807D01*
X104840829Y-121006281D01*
X104860023Y-120994047D01*
X104888804Y-120966531D01*
X104919479Y-120941115D01*
X104933857Y-120923458D01*
X104950307Y-120907731D01*
X104973199Y-120875145D01*
X104998349Y-120844259D01*
X105009020Y-120824154D01*
X105022107Y-120805524D01*
X105038234Y-120769108D01*
X105056905Y-120733930D01*
X105060246Y-120725642D01*
X105070569Y-120699511D01*
X105079528Y-120668177D01*
X105091380Y-120637818D01*
X105093742Y-120629199D01*
X105108501Y-120573829D01*
X105109768Y-120566113D01*
X105112330Y-120558727D01*
X105114360Y-120550024D01*
X105131820Y-120472738D01*
X105132230Y-120469460D01*
X105133236Y-120466316D01*
X105135054Y-120457567D01*
X105153482Y-120365690D01*
X105153489Y-120365624D01*
X105153510Y-120365554D01*
X105155204Y-120356779D01*
X105161165Y-120324708D01*
X105161173Y-120324616D01*
X105161467Y-120323071D01*
X105189585Y-120169570D01*
X105200208Y-120112681D01*
X105223514Y-120103553D01*
X105228194Y-120101786D01*
X105279189Y-120136762D01*
X105305535Y-120154871D01*
X105305672Y-120154947D01*
X105309629Y-120157662D01*
X105407050Y-120223518D01*
X105407820Y-120223935D01*
X105408494Y-120224491D01*
X105415946Y-120229423D01*
X105504834Y-120287374D01*
X105506697Y-120288344D01*
X105508353Y-120289653D01*
X105515904Y-120294431D01*
X105591154Y-120341319D01*
X105596646Y-120344037D01*
X105601583Y-120347681D01*
X105609288Y-120352207D01*
X105665796Y-120384876D01*
X105686896Y-120394462D01*
X105706661Y-120406570D01*
X105714727Y-120410416D01*
X105747388Y-120425709D01*
X105761257Y-120430618D01*
X105774232Y-120437535D01*
X105820035Y-120451420D01*
X105865137Y-120467383D01*
X105879681Y-120469502D01*
X105893765Y-120473772D01*
X105902542Y-120475456D01*
X105906554Y-120476197D01*
X105947807Y-120479708D01*
X105988746Y-120485935D01*
X106009909Y-120484992D01*
X106031010Y-120486788D01*
X106072151Y-120482220D01*
X106113528Y-120480377D01*
X106134108Y-120475341D01*
X106155153Y-120473004D01*
X106194637Y-120460528D01*
X106234855Y-120450686D01*
X106254053Y-120441754D01*
X106274255Y-120435371D01*
X106310564Y-120415463D01*
X106348103Y-120397998D01*
X106355767Y-120393401D01*
X106376858Y-120380552D01*
X106413468Y-120353014D01*
X106451468Y-120327424D01*
X106458318Y-120321685D01*
X106500098Y-120286181D01*
X106506298Y-120279770D01*
X106513483Y-120274483D01*
X106520087Y-120268463D01*
X106578068Y-120214868D01*
X106579468Y-120213294D01*
X106581141Y-120212009D01*
X106587621Y-120205855D01*
X106657311Y-120138732D01*
X106657328Y-120138712D01*
X106663434Y-120132756D01*
X106740344Y-120056672D01*
X106740421Y-120056579D01*
X106745175Y-120051841D01*
X106824813Y-119971358D01*
X106824895Y-119971257D01*
X106829354Y-119966722D01*
X106907232Y-119886405D01*
X106907291Y-119886331D01*
X106912324Y-119881093D01*
X106983949Y-119805505D01*
X106984269Y-119805093D01*
X106984669Y-119804745D01*
X106990759Y-119798205D01*
X107051643Y-119731911D01*
X107054073Y-119728682D01*
X107057055Y-119725944D01*
X107062969Y-119719245D01*
X107108620Y-119666809D01*
X107118114Y-119653471D01*
X107129433Y-119641634D01*
X107134899Y-119634565D01*
X107160828Y-119600551D01*
X107164066Y-119595312D01*
X107168171Y-119590724D01*
X107189072Y-119555411D01*
X107196917Y-119545342D01*
X107205556Y-119528182D01*
X107226497Y-119494300D01*
X107228654Y-119488537D01*
X107231792Y-119483235D01*
X107235515Y-119475111D01*
X107239747Y-119465701D01*
X107245282Y-119449273D01*
X107253084Y-119433776D01*
X107264412Y-119392989D01*
X107270277Y-119377318D01*
X107270990Y-119372973D01*
X107279629Y-119347333D01*
X107281868Y-119330138D01*
X107286510Y-119313426D01*
X107289919Y-119268321D01*
X107295760Y-119223473D01*
X107294617Y-119206169D01*
X107295924Y-119188875D01*
X107290508Y-119143973D01*
X107287526Y-119098838D01*
X107283042Y-119082082D01*
X107280966Y-119064867D01*
X107266931Y-119021868D01*
X107255240Y-118978177D01*
X107247591Y-118962619D01*
X107242208Y-118946127D01*
X107238562Y-118937969D01*
X107228591Y-118916067D01*
X107212699Y-118888627D01*
X107199524Y-118859785D01*
X107194982Y-118852090D01*
X107168090Y-118807247D01*
X107163903Y-118801599D01*
X107160751Y-118795306D01*
X107155935Y-118787778D01*
X107116651Y-118727299D01*
X107115283Y-118725586D01*
X107114260Y-118723645D01*
X107109289Y-118716219D01*
X107077670Y-118669688D01*
X107077575Y-118669574D01*
X107075549Y-118666585D01*
X107017960Y-118582896D01*
X106950616Y-118484464D01*
X106936020Y-118463032D01*
X106951294Y-118424905D01*
X106964830Y-118378407D01*
X106975424Y-118347198D01*
X106978653Y-118338440D01*
X106978879Y-118337021D01*
X106980410Y-118332510D01*
X106982381Y-118323794D01*
X106984616Y-118313586D01*
X106985244Y-118308280D01*
X106986206Y-118304977D01*
X106987864Y-118286147D01*
X106990459Y-118264214D01*
X106998274Y-118215085D01*
X106997790Y-118202274D01*
X106999297Y-118189545D01*
X106995439Y-118139978D01*
X106993563Y-118090267D01*
X106990599Y-118077789D01*
X106989605Y-118065016D01*
X106976193Y-118017140D01*
X106964697Y-117968742D01*
X106959369Y-117957084D01*
X106955911Y-117944740D01*
X106933452Y-117900377D01*
X106912777Y-117855138D01*
X106905283Y-117844733D01*
X106899495Y-117833300D01*
X106868841Y-117794136D01*
X106839778Y-117753783D01*
X106830412Y-117745038D01*
X106822509Y-117734940D01*
X106784832Y-117702476D01*
X106748485Y-117668536D01*
X106741352Y-117663154D01*
X106724848Y-117650880D01*
X106684675Y-117626705D01*
X106645737Y-117600600D01*
X106637835Y-117596427D01*
X106591195Y-117572211D01*
X106584539Y-117569543D01*
X106578440Y-117565768D01*
X106570392Y-117561885D01*
X106497919Y-117527535D01*
X106497166Y-117527265D01*
X106496478Y-117526854D01*
X106488367Y-117523103D01*
X106394364Y-117480428D01*
X106394235Y-117480384D01*
X106388669Y-117477876D01*
X106277437Y-117428682D01*
X106277287Y-117428633D01*
X106273447Y-117426934D01*
X106149289Y-117373030D01*
X106149149Y-117372985D01*
X106146145Y-117371675D01*
X106013362Y-117314869D01*
X106013227Y-117314826D01*
X106010622Y-117313705D01*
X105873517Y-117255803D01*
X105873392Y-117255764D01*
X105870878Y-117254695D01*
X105751485Y-117204901D01*
X105758253Y-117202106D01*
X105758373Y-117202042D01*
X105760972Y-117200976D01*
X105898424Y-117143472D01*
X105898547Y-117143406D01*
X105901040Y-117142370D01*
X106037629Y-117084513D01*
X106037746Y-117084449D01*
X106040405Y-117083330D01*
X106171834Y-117026927D01*
X106171967Y-117026854D01*
X106175068Y-117025528D01*
X106297037Y-116972388D01*
X106297173Y-116972312D01*
X106301231Y-116970543D01*
X106409435Y-116922475D01*
X106409539Y-116922416D01*
X106415600Y-116919697D01*
X106505740Y-116878508D01*
X106507008Y-116877771D01*
X106508394Y-116877288D01*
X106516479Y-116873480D01*
X106584253Y-116840980D01*
X106592591Y-116835926D01*
X106601649Y-116832311D01*
X106609557Y-116828149D01*
X106650664Y-116806145D01*
X106698971Y-116773856D01*
X106747721Y-116742224D01*
X106754497Y-116736740D01*
X106754508Y-116736733D01*
X106754516Y-116736725D01*
X106754668Y-116736602D01*
X106765464Y-116727741D01*
X106809239Y-116684000D01*
X106852905Y-116640562D01*
X106853306Y-116639967D01*
X106853820Y-116639453D01*
X106888172Y-116588181D01*
X106922664Y-116536950D01*
X106922945Y-116536279D01*
X106923344Y-116535684D01*
X106947077Y-116478732D01*
X106970967Y-116421762D01*
X106971111Y-116421060D01*
X106971390Y-116420389D01*
X106983634Y-116359784D01*
X106995978Y-116299386D01*
X106995982Y-116298662D01*
X106996125Y-116297956D01*
X106996365Y-116236057D01*
X106996741Y-116174481D01*
X106996606Y-116173778D01*
X106996609Y-116173051D01*
X106984842Y-116112391D01*
X106973231Y-116051808D01*
X106972836Y-116050505D01*
X106972822Y-116050431D01*
X106972791Y-116050354D01*
X106970641Y-116043256D01*
X106962234Y-116016180D01*
X106949341Y-115985582D01*
X106939306Y-115953931D01*
X106936104Y-115946599D01*
X106978220Y-115884872D01*
X107042835Y-115790619D01*
X107075285Y-115743537D01*
X107075324Y-115743467D01*
X107079637Y-115737139D01*
X107124794Y-115669894D01*
X107127278Y-115665277D01*
X107130545Y-115661177D01*
X107135352Y-115653644D01*
X107171137Y-115596702D01*
X107176602Y-115585763D01*
X107183717Y-115575812D01*
X107188126Y-115568039D01*
X107210007Y-115528829D01*
X107228768Y-115485813D01*
X107241020Y-115461089D01*
X107245528Y-115452770D01*
X107246175Y-115450686D01*
X107249587Y-115443801D01*
X107252695Y-115435423D01*
X107257320Y-115422688D01*
X107258772Y-115417016D01*
X107259940Y-115414338D01*
X107262812Y-115401236D01*
X107268815Y-115377788D01*
X107282574Y-115333484D01*
X107284283Y-115317368D01*
X107288298Y-115301684D01*
X107290852Y-115255408D01*
X107295744Y-115209273D01*
X107294290Y-115193131D01*
X107295182Y-115176968D01*
X107288699Y-115131073D01*
X107284537Y-115084871D01*
X107279977Y-115069326D01*
X107277712Y-115053289D01*
X107262431Y-115009507D01*
X107249380Y-114965015D01*
X107241889Y-114950653D01*
X107236551Y-114935360D01*
X107213065Y-114895394D01*
X107208919Y-114887445D01*
X107206608Y-114881930D01*
X107204090Y-114878188D01*
X107191614Y-114854269D01*
X107186675Y-114846822D01*
X107174197Y-114828286D01*
X107154315Y-114804208D01*
X107136882Y-114778298D01*
X107131145Y-114771446D01*
X107096313Y-114730422D01*
X107092891Y-114727110D01*
X107090118Y-114723234D01*
X107084186Y-114716550D01*
X107030612Y-114657017D01*
X107030362Y-114656788D01*
X107030154Y-114656507D01*
X107024123Y-114649913D01*
X106955428Y-114575847D01*
X106955347Y-114575775D01*
X106950703Y-114570807D01*
X106870501Y-114486183D01*
X106870376Y-114486075D01*
X106867170Y-114482696D01*
X106815675Y-114429176D01*
X106815587Y-114429101D01*
X106811000Y-114424367D01*
X106719000Y-114330733D01*
X106718210Y-114330073D01*
X106717561Y-114329273D01*
X106711234Y-114322964D01*
X106628947Y-114242042D01*
X106626848Y-114240347D01*
X106625099Y-114238289D01*
X106618632Y-114232122D01*
X106549578Y-114167186D01*
X106543788Y-114162721D01*
X106538848Y-114157323D01*
X106532158Y-114151398D01*
X106479857Y-114105717D01*
X106459506Y-114091182D01*
X106440994Y-114074359D01*
X106433788Y-114069074D01*
X106401761Y-114045921D01*
X106380725Y-114033647D01*
X106379735Y-114032823D01*
X106376775Y-114031211D01*
X106355145Y-114015227D01*
X106323812Y-114000439D01*
X106293876Y-113982972D01*
X106278266Y-113977578D01*
X106270034Y-113973096D01*
X106257711Y-113969242D01*
X106242188Y-113961916D01*
X106233752Y-113958968D01*
X106227252Y-113956746D01*
X106198081Y-113949869D01*
X106175820Y-113942177D01*
X106167484Y-113941026D01*
X106150822Y-113935815D01*
X106128005Y-113933350D01*
X106105679Y-113928087D01*
X106066067Y-113926659D01*
X106054102Y-113925366D01*
X106052089Y-113925088D01*
X106051725Y-113925109D01*
X106026638Y-113922399D01*
X106003780Y-113924413D01*
X105980854Y-113923586D01*
X105941705Y-113929881D01*
X105902213Y-113933360D01*
X105880189Y-113939773D01*
X105857531Y-113943416D01*
X105820353Y-113957195D01*
X105782288Y-113968278D01*
X105774016Y-113971660D01*
X105749294Y-113981968D01*
X105718569Y-113998466D01*
X105686532Y-114012247D01*
X105678737Y-114016617D01*
X105628748Y-114045102D01*
X105622742Y-114049350D01*
X105616091Y-114052507D01*
X105608462Y-114057162D01*
X105538269Y-114100664D01*
X105536561Y-114101969D01*
X105534632Y-114102934D01*
X105527102Y-114107746D01*
X105441765Y-114163106D01*
X105441319Y-114163462D01*
X105440809Y-114163727D01*
X105433355Y-114168656D01*
X105337937Y-114232713D01*
X105337831Y-114232801D01*
X105333047Y-114236028D01*
X105306445Y-114254245D01*
X105306411Y-114254273D01*
X105305832Y-114254665D01*
X105228203Y-114307958D01*
X105200190Y-114297028D01*
X105194210Y-114265186D01*
X105167320Y-114118762D01*
X105161555Y-114087153D01*
X105161522Y-114087038D01*
X105160321Y-114080580D01*
X105141954Y-113985512D01*
X105141159Y-113982835D01*
X105140875Y-113980053D01*
X105139042Y-113971307D01*
X105121073Y-113888427D01*
X105119359Y-113883100D01*
X105118615Y-113877545D01*
X105116508Y-113868861D01*
X105100672Y-113805496D01*
X105094448Y-113788047D01*
X105090676Y-113769900D01*
X105087952Y-113761389D01*
X105075983Y-113724861D01*
X105051916Y-113670144D01*
X105050701Y-113667318D01*
X105038610Y-113635372D01*
X105033303Y-113626856D01*
X105028277Y-113615167D01*
X105025756Y-113610669D01*
X105025693Y-113610526D01*
X105025606Y-113610401D01*
X105023908Y-113607372D01*
X105021118Y-113602473D01*
X104995773Y-113566633D01*
X104972548Y-113529365D01*
X104959778Y-113515733D01*
X104948999Y-113500491D01*
X104917179Y-113470260D01*
X104887154Y-113438209D01*
X104871979Y-113427317D01*
X104858445Y-113414459D01*
X104821347Y-113390976D01*
X104785680Y-113365376D01*
X104768688Y-113357643D01*
X104752906Y-113347653D01*
X104711955Y-113331824D01*
X104671994Y-113313638D01*
X104663518Y-113310808D01*
X104638780Y-113302737D01*
X104581618Y-113290097D01*
X104524555Y-113276747D01*
X104516887Y-113275783D01*
X104516820Y-113275768D01*
X104516759Y-113275767D01*
X104515688Y-113275632D01*
X104460406Y-113269072D01*
X104447355Y-113268806D01*
X104434495Y-113266530D01*
X104425580Y-113265901D01*
X104346180Y-113260855D01*
X104341939Y-113261000D01*
X104337744Y-113260375D01*
X104328816Y-113259989D01*
X104231723Y-113256463D01*
X104230488Y-113256539D01*
X104229251Y-113256377D01*
X104220318Y-113256150D01*
X104111960Y-113254148D01*
X104111861Y-113254156D01*
X104111759Y-113254144D01*
X104102824Y-113254045D01*
X103989812Y-113253571D01*
X103989804Y-113253570D01*
X103989621Y-113253570D01*
X103980868Y-113253593D01*
X103869256Y-113254652D01*
X103868749Y-113254707D01*
X103868236Y-113254662D01*
X103859301Y-113254824D01*
X103755703Y-113257419D01*
X103753364Y-113257708D01*
X103751002Y-113257553D01*
X103742073Y-113257905D01*
X103652912Y-113262041D01*
X103645696Y-113263088D01*
X103638407Y-113262879D01*
X103629496Y-113263558D01*
X103561200Y-113269241D01*
X103536741Y-113273711D01*
X103511925Y-113275273D01*
X103503114Y-113276764D01*
X103462108Y-113283996D01*
X103432753Y-113292193D01*
X103402731Y-113297408D01*
X103372749Y-113308949D01*
X103341805Y-113317590D01*
X103314608Y-113331330D01*
X103305315Y-113334907D01*
X103292657Y-113339407D01*
X103290889Y-113340460D01*
X103286163Y-113342279D01*
X103278205Y-113346344D01*
X103269813Y-113350704D01*
X103247449Y-113365257D01*
X103230317Y-113373912D01*
X103216245Y-113384907D01*
X103185336Y-113403312D01*
X103175830Y-113411863D01*
X103165122Y-113418831D01*
X103133922Y-113449229D01*
X103131892Y-113450815D01*
X103129767Y-113453277D01*
X103129495Y-113453542D01*
X103092472Y-113486845D01*
X103084806Y-113497082D01*
X103075657Y-113505996D01*
X103047432Y-113546992D01*
X103017603Y-113586826D01*
X103012078Y-113598342D01*
X103004826Y-113608876D01*
X102985100Y-113654578D01*
X102982026Y-113660987D01*
X102981143Y-113662422D01*
X102980475Y-113664220D01*
X102963577Y-113699443D01*
X102960576Y-113707860D01*
X102952110Y-113732133D01*
X102946265Y-113756242D01*
X102937619Y-113779499D01*
X102935398Y-113788155D01*
X102921625Y-113843427D01*
X102921047Y-113847343D01*
X102919766Y-113851088D01*
X102917773Y-113859799D01*
X102899888Y-113940564D01*
X102899875Y-113940675D01*
X102899838Y-113940787D01*
X102897971Y-113949526D01*
X102877169Y-114050276D01*
X102877157Y-114050391D01*
X102875836Y-114056905D01*
X102853311Y-114172134D01*
X102853296Y-114172295D01*
X102852446Y-114176648D01*
X102840641Y-114239429D01*
X102840637Y-114239471D01*
X102840516Y-114240096D01*
X102824708Y-114324660D01*
X102807843Y-114313217D01*
X102754159Y-114276349D01*
X102754071Y-114276300D01*
X102752625Y-114275299D01*
X102651456Y-114206253D01*
X102651344Y-114206192D01*
X102646054Y-114202607D01*
X102554203Y-114141281D01*
X102554147Y-114141251D01*
X102547560Y-114136906D01*
X102469674Y-114086292D01*
X102468139Y-114085496D01*
X102466780Y-114084422D01*
X102459227Y-114079647D01*
X102399953Y-114042739D01*
X102390858Y-114038242D01*
X102382620Y-114032323D01*
X102374858Y-114027896D01*
X102338840Y-114007685D01*
X102294776Y-113988344D01*
X102291361Y-113986657D01*
X102268356Y-113974079D01*
X102261538Y-113971933D01*
X102251629Y-113967041D01*
X102243246Y-113963944D01*
X102235173Y-113961025D01*
X102228903Y-113959430D01*
X102224466Y-113957482D01*
X102199505Y-113951949D01*
X102191850Y-113950001D01*
X102149210Y-113936582D01*
X102131438Y-113934630D01*
X102114124Y-113930224D01*
X102069506Y-113927826D01*
X102025051Y-113922942D01*
X102007237Y-113924479D01*
X101989398Y-113923520D01*
X101945156Y-113929835D01*
X101900607Y-113933678D01*
X101883439Y-113938644D01*
X101865745Y-113941169D01*
X101823556Y-113955963D01*
X101780619Y-113968382D01*
X101764741Y-113976588D01*
X101747876Y-113982502D01*
X101709380Y-114005199D01*
X101694054Y-114013120D01*
X101690035Y-114014846D01*
X101687959Y-114016270D01*
X101669656Y-114025729D01*
X101662190Y-114030640D01*
X101643397Y-114043188D01*
X101616120Y-114065539D01*
X101587027Y-114085491D01*
X101580226Y-114091288D01*
X101540099Y-114125978D01*
X101536363Y-114129907D01*
X101531990Y-114133109D01*
X101525371Y-114139113D01*
X101468408Y-114191513D01*
X101468226Y-114191716D01*
X101467999Y-114191888D01*
X101461470Y-114197990D01*
X101392162Y-114263669D01*
X101392071Y-114263774D01*
X101387738Y-114267902D01*
X101310584Y-114342430D01*
X101310485Y-114342547D01*
X101307140Y-114345781D01*
X101226634Y-114424725D01*
X101226532Y-114424846D01*
X101223414Y-114427905D01*
X101144051Y-114506835D01*
X101143949Y-114506959D01*
X101140500Y-114510395D01*
X101066777Y-114584878D01*
X101066699Y-114584973D01*
X101062079Y-114589675D01*
X100998491Y-114655281D01*
X100997813Y-114656134D01*
X100996983Y-114656842D01*
X100990830Y-114663323D01*
X100941872Y-114715621D01*
X100936731Y-114722319D01*
X100930533Y-114728057D01*
X100924646Y-114734781D01*
X100894813Y-114769338D01*
X100867846Y-114807560D01*
X100839033Y-114844407D01*
X100834295Y-114851984D01*
X100827176Y-114863544D01*
X100824541Y-114868940D01*
X100822806Y-114871400D01*
X100819481Y-114878868D01*
X100811279Y-114890848D01*
X100792868Y-114933814D01*
X100772375Y-114975787D01*
X100768326Y-114991087D01*
X100762082Y-115005658D01*
X100752364Y-115051397D01*
X100740418Y-115096536D01*
X100739417Y-115112337D01*
X100736124Y-115127837D01*
X100735476Y-115174562D01*
X100732522Y-115221192D01*
X100734611Y-115236895D01*
X100734391Y-115252731D01*
X100742829Y-115298680D01*
X100748991Y-115345008D01*
X100754091Y-115360009D01*
X100756951Y-115375584D01*
X100774152Y-115419019D01*
X100789195Y-115463267D01*
X100797109Y-115476988D01*
X100802941Y-115491714D01*
X100807082Y-115499633D01*
X100817092Y-115518457D01*
X100826967Y-115533317D01*
X100834674Y-115549409D01*
X100839356Y-115557021D01*
X100867481Y-115602044D01*
X100868125Y-115602880D01*
X100868596Y-115603822D01*
X100873408Y-115611352D01*
X100916784Y-115678195D01*
X100916871Y-115678304D01*
X100919894Y-115682943D01*
X100975658Y-115767231D01*
X100975758Y-115767354D01*
X100977877Y-115770562D01*
X101043165Y-115867917D01*
X101043252Y-115868023D01*
X101044812Y-115870361D01*
X101094552Y-115943798D01*
X101094601Y-115943857D01*
X101095212Y-115944769D01*
X101142059Y-116013663D01*
X101058592Y-116029398D01*
X101058566Y-116029403D01*
X100660000Y-116104541D01*
X100660000Y-107110097D01*
X101068607Y-107077939D01*
X101170898Y-107061738D01*
X102162684Y-106823631D01*
X102261181Y-106791628D01*
X103203509Y-106401303D01*
X103263199Y-106370889D01*
X103295787Y-106354285D01*
X104165453Y-105821353D01*
X104208177Y-105790312D01*
X104249240Y-105760478D01*
X105024830Y-105098062D01*
X105098063Y-105024829D01*
X105760478Y-104249240D01*
X105821353Y-104165453D01*
X105821354Y-104165452D01*
X106354284Y-103295787D01*
X106373608Y-103257862D01*
X106401303Y-103203509D01*
X106589579Y-102748967D01*
X108625000Y-102748967D01*
X108625000Y-103071033D01*
X108687832Y-103386912D01*
X108811082Y-103684463D01*
X108990013Y-103952252D01*
X109089209Y-104051448D01*
X109055506Y-104069463D01*
X108958815Y-104148815D01*
X108879463Y-104245506D01*
X108820498Y-104355820D01*
X108784188Y-104475518D01*
X108771928Y-104600000D01*
X108771928Y-106300000D01*
X108784188Y-106424482D01*
X108820498Y-106544180D01*
X108879463Y-106654494D01*
X108933222Y-106720000D01*
X108879463Y-106785506D01*
X108820498Y-106895820D01*
X108784188Y-107015518D01*
X108771928Y-107140000D01*
X108771928Y-108840000D01*
X108784188Y-108964482D01*
X108820498Y-109084180D01*
X108879463Y-109194494D01*
X108933222Y-109260000D01*
X108879463Y-109325506D01*
X108820498Y-109435820D01*
X108784188Y-109555518D01*
X108771928Y-109680000D01*
X108771928Y-111380000D01*
X108784188Y-111504482D01*
X108820498Y-111624180D01*
X108879463Y-111734494D01*
X108958815Y-111831185D01*
X109055506Y-111910537D01*
X109089209Y-111928552D01*
X108990013Y-112027748D01*
X108811082Y-112295537D01*
X108687832Y-112593088D01*
X108625000Y-112908967D01*
X108625000Y-113231033D01*
X108687832Y-113546912D01*
X108811082Y-113844463D01*
X108990013Y-114112252D01*
X109217748Y-114339987D01*
X109217767Y-114340000D01*
X109217748Y-114340013D01*
X108990013Y-114567748D01*
X108811082Y-114835537D01*
X108687832Y-115133088D01*
X108625000Y-115448967D01*
X108625000Y-115771033D01*
X108687832Y-116086912D01*
X108811082Y-116384463D01*
X108990013Y-116652252D01*
X109217748Y-116879987D01*
X109217767Y-116880000D01*
X109217748Y-116880013D01*
X108990013Y-117107748D01*
X108811082Y-117375537D01*
X108687832Y-117673088D01*
X108625000Y-117988967D01*
X108625000Y-118311033D01*
X108687832Y-118626912D01*
X108811082Y-118924463D01*
X108990013Y-119192252D01*
X109089209Y-119291448D01*
X109055506Y-119309463D01*
X108958815Y-119388815D01*
X108879463Y-119485506D01*
X108820498Y-119595820D01*
X108784188Y-119715518D01*
X108771928Y-119840000D01*
X108771928Y-121540000D01*
X108784188Y-121664482D01*
X108820498Y-121784180D01*
X108879463Y-121894494D01*
X108933222Y-121960000D01*
X108879463Y-122025506D01*
X108820498Y-122135820D01*
X108784188Y-122255518D01*
X108771928Y-122380000D01*
X108771928Y-124080000D01*
X108784188Y-124204482D01*
X108820498Y-124324180D01*
X108879463Y-124434494D01*
X108958815Y-124531185D01*
X109055506Y-124610537D01*
X109089209Y-124628552D01*
X108990013Y-124727748D01*
X108811082Y-124995537D01*
X108687832Y-125293088D01*
X108625000Y-125608967D01*
X108625000Y-125931033D01*
X108687832Y-126246912D01*
X108811082Y-126544463D01*
X108990013Y-126812252D01*
X109089209Y-126911448D01*
X109055506Y-126929463D01*
X108958815Y-127008815D01*
X108879463Y-127105506D01*
X108820498Y-127215820D01*
X108784188Y-127335518D01*
X108771928Y-127460000D01*
X108771928Y-129160000D01*
X108784188Y-129284482D01*
X108820498Y-129404180D01*
X108879463Y-129514494D01*
X108933222Y-129580000D01*
X108879463Y-129645506D01*
X108820498Y-129755820D01*
X108784188Y-129875518D01*
X108771928Y-130000000D01*
X108771928Y-131700000D01*
X108784188Y-131824482D01*
X108820498Y-131944180D01*
X108879463Y-132054494D01*
X108933222Y-132120000D01*
X108879463Y-132185506D01*
X108820498Y-132295820D01*
X108784188Y-132415518D01*
X108771928Y-132540000D01*
X108771928Y-134240000D01*
X108784188Y-134364482D01*
X108820498Y-134484180D01*
X108879463Y-134594494D01*
X108958815Y-134691185D01*
X109055506Y-134770537D01*
X109089209Y-134788552D01*
X108990013Y-134887748D01*
X108811082Y-135155537D01*
X108687832Y-135453088D01*
X108625000Y-135768967D01*
X108625000Y-136091033D01*
X108687832Y-136406912D01*
X108811082Y-136704463D01*
X108990013Y-136972252D01*
X109217748Y-137199987D01*
X109217767Y-137200000D01*
X109217748Y-137200013D01*
X108990013Y-137427748D01*
X108811082Y-137695537D01*
X108687832Y-137993088D01*
X108625000Y-138308967D01*
X108625000Y-138631033D01*
X108687832Y-138946912D01*
X108811082Y-139244463D01*
X108990013Y-139512252D01*
X109217748Y-139739987D01*
X109485537Y-139918918D01*
X109783088Y-140042168D01*
X110098967Y-140105000D01*
X110421033Y-140105000D01*
X110736912Y-140042168D01*
X111034463Y-139918918D01*
X111302252Y-139739987D01*
X111529987Y-139512252D01*
X111530000Y-139512233D01*
X111530013Y-139512252D01*
X111757748Y-139739987D01*
X112025537Y-139918918D01*
X112323088Y-140042168D01*
X112638967Y-140105000D01*
X112961033Y-140105000D01*
X113276912Y-140042168D01*
X113574463Y-139918918D01*
X113842252Y-139739987D01*
X114069987Y-139512252D01*
X114070000Y-139512233D01*
X114070013Y-139512252D01*
X114297748Y-139739987D01*
X114565537Y-139918918D01*
X114863088Y-140042168D01*
X115178967Y-140105000D01*
X115501033Y-140105000D01*
X115816912Y-140042168D01*
X116114463Y-139918918D01*
X116382252Y-139739987D01*
X116609987Y-139512252D01*
X116610000Y-139512233D01*
X116610013Y-139512252D01*
X116837748Y-139739987D01*
X117105537Y-139918918D01*
X117403088Y-140042168D01*
X117718967Y-140105000D01*
X118041033Y-140105000D01*
X118356912Y-140042168D01*
X118654463Y-139918918D01*
X118922252Y-139739987D01*
X119149987Y-139512252D01*
X119150000Y-139512233D01*
X119150013Y-139512252D01*
X119377748Y-139739987D01*
X119377767Y-139740000D01*
X119377748Y-139740013D01*
X119150013Y-139967748D01*
X118971082Y-140235537D01*
X118847832Y-140533088D01*
X118785000Y-140848967D01*
X118785000Y-141171033D01*
X118847832Y-141486912D01*
X118971082Y-141784463D01*
X119150013Y-142052252D01*
X119377748Y-142279987D01*
X119377767Y-142280000D01*
X119377748Y-142280013D01*
X119150013Y-142507748D01*
X118971082Y-142775537D01*
X118847832Y-143073088D01*
X118785000Y-143388967D01*
X118785000Y-143711033D01*
X118847832Y-144026912D01*
X118971082Y-144324463D01*
X119150013Y-144592252D01*
X119377748Y-144819987D01*
X119377767Y-144820000D01*
X119377748Y-144820013D01*
X119150013Y-145047748D01*
X118971082Y-145315537D01*
X118847832Y-145613088D01*
X118785000Y-145928967D01*
X118785000Y-146251033D01*
X118847832Y-146566912D01*
X118971082Y-146864463D01*
X119150013Y-147132252D01*
X119377748Y-147359987D01*
X119645537Y-147538918D01*
X119943088Y-147662168D01*
X120258967Y-147725000D01*
X120581033Y-147725000D01*
X120896912Y-147662168D01*
X121194463Y-147538918D01*
X121462252Y-147359987D01*
X121689987Y-147132252D01*
X121690000Y-147132233D01*
X121690013Y-147132252D01*
X121917748Y-147359987D01*
X122185537Y-147538918D01*
X122483088Y-147662168D01*
X122798967Y-147725000D01*
X123121033Y-147725000D01*
X123436912Y-147662168D01*
X123734463Y-147538918D01*
X124002252Y-147359987D01*
X124229987Y-147132252D01*
X124230000Y-147132233D01*
X124230013Y-147132252D01*
X124457748Y-147359987D01*
X124725537Y-147538918D01*
X125023088Y-147662168D01*
X125338967Y-147725000D01*
X125661033Y-147725000D01*
X125976912Y-147662168D01*
X126274463Y-147538918D01*
X126542252Y-147359987D01*
X126769987Y-147132252D01*
X126770000Y-147132233D01*
X126770013Y-147132252D01*
X126997748Y-147359987D01*
X127265537Y-147538918D01*
X127563088Y-147662168D01*
X127878967Y-147725000D01*
X128201033Y-147725000D01*
X128516912Y-147662168D01*
X128814463Y-147538918D01*
X129082252Y-147359987D01*
X129309987Y-147132252D01*
X129310000Y-147132233D01*
X129310013Y-147132252D01*
X129537748Y-147359987D01*
X129805537Y-147538918D01*
X130103088Y-147662168D01*
X130418967Y-147725000D01*
X130741033Y-147725000D01*
X131056912Y-147662168D01*
X131354463Y-147538918D01*
X131622252Y-147359987D01*
X131849987Y-147132252D01*
X131850000Y-147132233D01*
X131850013Y-147132252D01*
X132077748Y-147359987D01*
X132345537Y-147538918D01*
X132643088Y-147662168D01*
X132958967Y-147725000D01*
X133281033Y-147725000D01*
X133596912Y-147662168D01*
X133894463Y-147538918D01*
X134162252Y-147359987D01*
X134389987Y-147132252D01*
X134390000Y-147132233D01*
X134390013Y-147132252D01*
X134617748Y-147359987D01*
X134885537Y-147538918D01*
X135183088Y-147662168D01*
X135498967Y-147725000D01*
X135821033Y-147725000D01*
X136136912Y-147662168D01*
X136434463Y-147538918D01*
X136702252Y-147359987D01*
X136929987Y-147132252D01*
X136930000Y-147132233D01*
X136930013Y-147132252D01*
X137157748Y-147359987D01*
X137425537Y-147538918D01*
X137723088Y-147662168D01*
X138038967Y-147725000D01*
X138361033Y-147725000D01*
X138676912Y-147662168D01*
X138974463Y-147538918D01*
X139242252Y-147359987D01*
X139469987Y-147132252D01*
X139470000Y-147132233D01*
X139470013Y-147132252D01*
X139697748Y-147359987D01*
X139965537Y-147538918D01*
X140263088Y-147662168D01*
X140578967Y-147725000D01*
X140901033Y-147725000D01*
X141216912Y-147662168D01*
X141514463Y-147538918D01*
X141782252Y-147359987D01*
X142009987Y-147132252D01*
X142010000Y-147132233D01*
X142010013Y-147132252D01*
X142237748Y-147359987D01*
X142505537Y-147538918D01*
X142803088Y-147662168D01*
X143118967Y-147725000D01*
X143441033Y-147725000D01*
X143756912Y-147662168D01*
X144054463Y-147538918D01*
X144322252Y-147359987D01*
X144549987Y-147132252D01*
X144550000Y-147132233D01*
X144550013Y-147132252D01*
X144777748Y-147359987D01*
X145045537Y-147538918D01*
X145343088Y-147662168D01*
X145658967Y-147725000D01*
X145981033Y-147725000D01*
X146296912Y-147662168D01*
X146594463Y-147538918D01*
X146862252Y-147359987D01*
X147089987Y-147132252D01*
X147090000Y-147132233D01*
X147090013Y-147132252D01*
X147317748Y-147359987D01*
X147585537Y-147538918D01*
X147883088Y-147662168D01*
X148198967Y-147725000D01*
X148521033Y-147725000D01*
X148836912Y-147662168D01*
X149134463Y-147538918D01*
X149402252Y-147359987D01*
X149629987Y-147132252D01*
X149630000Y-147132233D01*
X149630013Y-147132252D01*
X149857748Y-147359987D01*
X150125537Y-147538918D01*
X150423088Y-147662168D01*
X150738967Y-147725000D01*
X151061033Y-147725000D01*
X151376912Y-147662168D01*
X151674463Y-147538918D01*
X151942252Y-147359987D01*
X152169987Y-147132252D01*
X152170000Y-147132233D01*
X152170013Y-147132252D01*
X152397748Y-147359987D01*
X152665537Y-147538918D01*
X152963088Y-147662168D01*
X153278967Y-147725000D01*
X153601033Y-147725000D01*
X153916912Y-147662168D01*
X154214463Y-147538918D01*
X154482252Y-147359987D01*
X154709987Y-147132252D01*
X154710000Y-147132233D01*
X154710013Y-147132252D01*
X154937748Y-147359987D01*
X155205537Y-147538918D01*
X155503088Y-147662168D01*
X155818967Y-147725000D01*
X156141033Y-147725000D01*
X156456912Y-147662168D01*
X156754463Y-147538918D01*
X157022252Y-147359987D01*
X157249987Y-147132252D01*
X157250000Y-147132233D01*
X157250013Y-147132252D01*
X157477748Y-147359987D01*
X157745537Y-147538918D01*
X158043088Y-147662168D01*
X158358967Y-147725000D01*
X158681033Y-147725000D01*
X158996912Y-147662168D01*
X159294463Y-147538918D01*
X159562252Y-147359987D01*
X159789987Y-147132252D01*
X159968918Y-146864463D01*
X160092168Y-146566912D01*
X160155000Y-146251033D01*
X160155000Y-145928967D01*
X160092168Y-145613088D01*
X159968918Y-145315537D01*
X159789987Y-145047748D01*
X159562252Y-144820013D01*
X159562233Y-144820000D01*
X159562252Y-144819987D01*
X159789987Y-144592252D01*
X159968918Y-144324463D01*
X159983308Y-144289721D01*
X160365000Y-144289721D01*
X160365000Y-144710279D01*
X160447047Y-145122756D01*
X160607988Y-145511302D01*
X160841637Y-145860983D01*
X161139017Y-146158363D01*
X161488698Y-146392012D01*
X161877244Y-146552953D01*
X162289721Y-146635000D01*
X162710279Y-146635000D01*
X163122756Y-146552953D01*
X163511302Y-146392012D01*
X163860983Y-146158363D01*
X164158363Y-145860983D01*
X164392012Y-145511302D01*
X164552953Y-145122756D01*
X164635000Y-144710279D01*
X164635000Y-144289721D01*
X164552953Y-143877244D01*
X164392012Y-143488698D01*
X164158363Y-143139017D01*
X163860983Y-142841637D01*
X163511302Y-142607988D01*
X163122756Y-142447047D01*
X162710279Y-142365000D01*
X162289721Y-142365000D01*
X161877244Y-142447047D01*
X161488698Y-142607988D01*
X161139017Y-142841637D01*
X160841637Y-143139017D01*
X160607988Y-143488698D01*
X160447047Y-143877244D01*
X160365000Y-144289721D01*
X159983308Y-144289721D01*
X160092168Y-144026912D01*
X160155000Y-143711033D01*
X160155000Y-143388967D01*
X160092168Y-143073088D01*
X159968918Y-142775537D01*
X159789987Y-142507748D01*
X159562252Y-142280013D01*
X159562233Y-142280000D01*
X159562252Y-142279987D01*
X159789987Y-142052252D01*
X159968918Y-141784463D01*
X160092168Y-141486912D01*
X160155000Y-141171033D01*
X160155000Y-140848967D01*
X160092168Y-140533088D01*
X159968918Y-140235537D01*
X159789987Y-139967748D01*
X159562252Y-139740013D01*
X159562233Y-139740000D01*
X159562252Y-139739987D01*
X159789987Y-139512252D01*
X159968918Y-139244463D01*
X160036107Y-139082254D01*
X160285537Y-139248918D01*
X160583088Y-139372168D01*
X160898967Y-139435000D01*
X161221033Y-139435000D01*
X161536912Y-139372168D01*
X161834463Y-139248918D01*
X162102252Y-139069987D01*
X162329987Y-138842252D01*
X162435059Y-138685000D01*
X166161928Y-138685000D01*
X166161928Y-139000000D01*
X166174188Y-139124482D01*
X166210498Y-139244180D01*
X166269463Y-139354494D01*
X166348815Y-139451185D01*
X166445506Y-139530537D01*
X166555820Y-139589502D01*
X166675518Y-139625812D01*
X166800000Y-139638072D01*
X169200000Y-139638072D01*
X169324482Y-139625812D01*
X169444180Y-139589502D01*
X169554494Y-139530537D01*
X169651185Y-139451185D01*
X169730537Y-139354494D01*
X169789502Y-139244180D01*
X169825812Y-139124482D01*
X169838072Y-139000000D01*
X169838072Y-136600000D01*
X169825812Y-136475518D01*
X169789502Y-136355820D01*
X169730537Y-136245506D01*
X169651185Y-136148815D01*
X169554494Y-136069463D01*
X169444180Y-136010498D01*
X169324482Y-135974188D01*
X169200000Y-135961928D01*
X168782838Y-135961928D01*
X168869199Y-135926156D01*
X169169744Y-135725338D01*
X169425338Y-135469744D01*
X169626156Y-135169199D01*
X169764482Y-134835250D01*
X169835000Y-134480732D01*
X169835000Y-134119268D01*
X169764482Y-133764750D01*
X169626156Y-133430801D01*
X169425338Y-133130256D01*
X169169744Y-132874662D01*
X168869199Y-132673844D01*
X168570213Y-132550000D01*
X168869199Y-132426156D01*
X169169744Y-132225338D01*
X169425338Y-131969744D01*
X169626156Y-131669199D01*
X169764482Y-131335250D01*
X169835000Y-130980732D01*
X169835000Y-130619268D01*
X169764482Y-130264750D01*
X169626156Y-129930801D01*
X169425338Y-129630256D01*
X169169744Y-129374662D01*
X168869199Y-129173844D01*
X168535250Y-129035518D01*
X168180732Y-128965000D01*
X167819268Y-128965000D01*
X167464750Y-129035518D01*
X167130801Y-129173844D01*
X166830256Y-129374662D01*
X166574662Y-129630256D01*
X166384402Y-129915000D01*
X162435059Y-129915000D01*
X162329987Y-129757748D01*
X162102252Y-129530013D01*
X161834463Y-129351082D01*
X161536912Y-129227832D01*
X161221033Y-129165000D01*
X160898967Y-129165000D01*
X160583088Y-129227832D01*
X160285537Y-129351082D01*
X160017748Y-129530013D01*
X159790013Y-129757748D01*
X159683094Y-129917764D01*
X159673475Y-129903368D01*
X159466632Y-129696525D01*
X159405000Y-129655344D01*
X159405000Y-129504656D01*
X159466632Y-129463475D01*
X159673475Y-129256632D01*
X159835990Y-129013411D01*
X159947932Y-128743158D01*
X160005000Y-128456260D01*
X160005000Y-128163740D01*
X159947932Y-127876842D01*
X159835990Y-127606589D01*
X159673475Y-127363368D01*
X159466632Y-127156525D01*
X159427236Y-127130202D01*
X159562252Y-127039987D01*
X159697189Y-126905050D01*
X161644555Y-126905050D01*
X161740258Y-127169399D01*
X162029787Y-127310238D01*
X162341229Y-127391885D01*
X162662615Y-127411205D01*
X162981595Y-127367454D01*
X163285911Y-127262314D01*
X163459742Y-127169399D01*
X163555445Y-126905050D01*
X162600000Y-125949605D01*
X161644555Y-126905050D01*
X159697189Y-126905050D01*
X159789987Y-126812252D01*
X159968918Y-126544463D01*
X160092168Y-126246912D01*
X160155000Y-125931033D01*
X160155000Y-125832615D01*
X160958795Y-125832615D01*
X161002546Y-126151595D01*
X161107686Y-126455911D01*
X161200601Y-126629742D01*
X161464950Y-126725445D01*
X162420395Y-125770000D01*
X162779605Y-125770000D01*
X163735050Y-126725445D01*
X163999399Y-126629742D01*
X164140238Y-126340213D01*
X164221885Y-126028771D01*
X164241205Y-125707385D01*
X164197454Y-125388405D01*
X164092314Y-125084089D01*
X163999399Y-124910258D01*
X163735050Y-124814555D01*
X162779605Y-125770000D01*
X162420395Y-125770000D01*
X161464950Y-124814555D01*
X161200601Y-124910258D01*
X161059762Y-125199787D01*
X160978115Y-125511229D01*
X160958795Y-125832615D01*
X160155000Y-125832615D01*
X160155000Y-125608967D01*
X160092168Y-125293088D01*
X159968918Y-124995537D01*
X159789987Y-124727748D01*
X159562252Y-124500013D01*
X159427236Y-124409798D01*
X159466632Y-124383475D01*
X159485057Y-124365050D01*
X161644555Y-124365050D01*
X161693411Y-124500000D01*
X161644555Y-124634950D01*
X162600000Y-125590395D01*
X163555445Y-124634950D01*
X163506589Y-124500000D01*
X163555445Y-124365050D01*
X163480116Y-124289721D01*
X167365000Y-124289721D01*
X167365000Y-124710279D01*
X167447047Y-125122756D01*
X167607988Y-125511302D01*
X167841637Y-125860983D01*
X168139017Y-126158363D01*
X168488698Y-126392012D01*
X168877244Y-126552953D01*
X169289721Y-126635000D01*
X169710279Y-126635000D01*
X170122756Y-126552953D01*
X170511302Y-126392012D01*
X170860983Y-126158363D01*
X171158363Y-125860983D01*
X171392012Y-125511302D01*
X171552953Y-125122756D01*
X171635000Y-124710279D01*
X171635000Y-124289721D01*
X171552953Y-123877244D01*
X171392012Y-123488698D01*
X171158363Y-123139017D01*
X170860983Y-122841637D01*
X170511302Y-122607988D01*
X170122756Y-122447047D01*
X169710279Y-122365000D01*
X169289721Y-122365000D01*
X168877244Y-122447047D01*
X168488698Y-122607988D01*
X168139017Y-122841637D01*
X167841637Y-123139017D01*
X167607988Y-123488698D01*
X167447047Y-123877244D01*
X167365000Y-124289721D01*
X163480116Y-124289721D01*
X162600000Y-123409605D01*
X161644555Y-124365050D01*
X159485057Y-124365050D01*
X159673475Y-124176632D01*
X159835990Y-123933411D01*
X159947932Y-123663158D01*
X160005000Y-123376260D01*
X160005000Y-123292615D01*
X160958795Y-123292615D01*
X161002546Y-123611595D01*
X161107686Y-123915911D01*
X161200601Y-124089742D01*
X161464950Y-124185445D01*
X162420395Y-123230000D01*
X162779605Y-123230000D01*
X163735050Y-124185445D01*
X163999399Y-124089742D01*
X164140238Y-123800213D01*
X164221885Y-123488771D01*
X164241205Y-123167385D01*
X164197454Y-122848405D01*
X164092314Y-122544089D01*
X163999399Y-122370258D01*
X163735050Y-122274555D01*
X162779605Y-123230000D01*
X162420395Y-123230000D01*
X161464950Y-122274555D01*
X161200601Y-122370258D01*
X161059762Y-122659787D01*
X160978115Y-122971229D01*
X160958795Y-123292615D01*
X160005000Y-123292615D01*
X160005000Y-123083740D01*
X159947932Y-122796842D01*
X159835990Y-122526589D01*
X159673475Y-122283368D01*
X159485057Y-122094950D01*
X161644555Y-122094950D01*
X162600000Y-123050395D01*
X163555445Y-122094950D01*
X163459742Y-121830601D01*
X163170213Y-121689762D01*
X162858771Y-121608115D01*
X162537385Y-121588795D01*
X162218405Y-121632546D01*
X161914089Y-121737686D01*
X161740258Y-121830601D01*
X161644555Y-122094950D01*
X159485057Y-122094950D01*
X159466632Y-122076525D01*
X159405000Y-122035344D01*
X159405000Y-121884656D01*
X159466632Y-121843475D01*
X159673475Y-121636632D01*
X159835990Y-121393411D01*
X159947932Y-121123158D01*
X160005000Y-120836260D01*
X160005000Y-120543740D01*
X159947932Y-120256842D01*
X159835990Y-119986589D01*
X159673475Y-119743368D01*
X159466632Y-119536525D01*
X159427236Y-119510202D01*
X159562252Y-119419987D01*
X159769975Y-119212264D01*
X159790013Y-119242252D01*
X160017748Y-119469987D01*
X160285537Y-119648918D01*
X160583088Y-119772168D01*
X160898967Y-119835000D01*
X161221033Y-119835000D01*
X161536912Y-119772168D01*
X161834463Y-119648918D01*
X162102252Y-119469987D01*
X162329987Y-119242252D01*
X162435059Y-119085000D01*
X166161928Y-119085000D01*
X166161928Y-119400000D01*
X166174188Y-119524482D01*
X166210498Y-119644180D01*
X166269463Y-119754494D01*
X166348815Y-119851185D01*
X166445506Y-119930537D01*
X166555820Y-119989502D01*
X166675518Y-120025812D01*
X166800000Y-120038072D01*
X169200000Y-120038072D01*
X169324482Y-120025812D01*
X169444180Y-119989502D01*
X169554494Y-119930537D01*
X169651185Y-119851185D01*
X169730537Y-119754494D01*
X169789502Y-119644180D01*
X169825812Y-119524482D01*
X169838072Y-119400000D01*
X169838072Y-117000000D01*
X169825812Y-116875518D01*
X169789502Y-116755820D01*
X169730537Y-116645506D01*
X169651185Y-116548815D01*
X169554494Y-116469463D01*
X169444180Y-116410498D01*
X169324482Y-116374188D01*
X169200000Y-116361928D01*
X168782838Y-116361928D01*
X168869199Y-116326156D01*
X169169744Y-116125338D01*
X169425338Y-115869744D01*
X169626156Y-115569199D01*
X169764482Y-115235250D01*
X169835000Y-114880732D01*
X169835000Y-114519268D01*
X169764482Y-114164750D01*
X169626156Y-113830801D01*
X169425338Y-113530256D01*
X169169744Y-113274662D01*
X168869199Y-113073844D01*
X168570213Y-112950000D01*
X168869199Y-112826156D01*
X169169744Y-112625338D01*
X169425338Y-112369744D01*
X169626156Y-112069199D01*
X169764482Y-111735250D01*
X169835000Y-111380732D01*
X169835000Y-111019268D01*
X169764482Y-110664750D01*
X169626156Y-110330801D01*
X169425338Y-110030256D01*
X169169744Y-109774662D01*
X168869199Y-109573844D01*
X168535250Y-109435518D01*
X168180732Y-109365000D01*
X167819268Y-109365000D01*
X167464750Y-109435518D01*
X167130801Y-109573844D01*
X166830256Y-109774662D01*
X166574662Y-110030256D01*
X166384402Y-110315000D01*
X162435059Y-110315000D01*
X162329987Y-110157748D01*
X162102252Y-109930013D01*
X161834463Y-109751082D01*
X161536912Y-109627832D01*
X161221033Y-109565000D01*
X160898967Y-109565000D01*
X160583088Y-109627832D01*
X160285537Y-109751082D01*
X160017748Y-109930013D01*
X159919518Y-110028243D01*
X159835990Y-109826589D01*
X159673475Y-109583368D01*
X159466632Y-109376525D01*
X159292240Y-109260000D01*
X159466632Y-109143475D01*
X159673475Y-108936632D01*
X159835990Y-108693411D01*
X159947932Y-108423158D01*
X160005000Y-108136260D01*
X160005000Y-107843740D01*
X159947932Y-107556842D01*
X159835990Y-107286589D01*
X159673475Y-107043368D01*
X159466632Y-106836525D01*
X159405000Y-106795344D01*
X159405000Y-106656404D01*
X159414768Y-106638130D01*
X159466632Y-106603475D01*
X159673475Y-106396632D01*
X159835990Y-106153411D01*
X159947932Y-105883158D01*
X160005000Y-105596260D01*
X160005000Y-105303740D01*
X159947932Y-105016842D01*
X159835990Y-104746589D01*
X159673475Y-104503368D01*
X159466632Y-104296525D01*
X159456449Y-104289721D01*
X160365000Y-104289721D01*
X160365000Y-104710279D01*
X160447047Y-105122756D01*
X160607988Y-105511302D01*
X160841637Y-105860983D01*
X161139017Y-106158363D01*
X161488698Y-106392012D01*
X161877244Y-106552953D01*
X162289721Y-106635000D01*
X162710279Y-106635000D01*
X163122756Y-106552953D01*
X163511302Y-106392012D01*
X163860983Y-106158363D01*
X164158363Y-105860983D01*
X164392012Y-105511302D01*
X164552953Y-105122756D01*
X164635000Y-104710279D01*
X164635000Y-104289721D01*
X164552953Y-103877244D01*
X164392012Y-103488698D01*
X164158363Y-103139017D01*
X163860983Y-102841637D01*
X163511302Y-102607988D01*
X163122756Y-102447047D01*
X162710279Y-102365000D01*
X162289721Y-102365000D01*
X161877244Y-102447047D01*
X161488698Y-102607988D01*
X161139017Y-102841637D01*
X160841637Y-103139017D01*
X160607988Y-103488698D01*
X160447047Y-103877244D01*
X160365000Y-104289721D01*
X159456449Y-104289721D01*
X159427236Y-104270202D01*
X159562252Y-104179987D01*
X159789987Y-103952252D01*
X159968918Y-103684463D01*
X160092168Y-103386912D01*
X160155000Y-103071033D01*
X160155000Y-102748967D01*
X160092168Y-102433088D01*
X159968918Y-102135537D01*
X159789987Y-101867748D01*
X159562252Y-101640013D01*
X159294463Y-101461082D01*
X158996912Y-101337832D01*
X158681033Y-101275000D01*
X158358967Y-101275000D01*
X158043088Y-101337832D01*
X157745537Y-101461082D01*
X157477748Y-101640013D01*
X157250013Y-101867748D01*
X157250000Y-101867767D01*
X157249987Y-101867748D01*
X157022252Y-101640013D01*
X156754463Y-101461082D01*
X156456912Y-101337832D01*
X156141033Y-101275000D01*
X155818967Y-101275000D01*
X155503088Y-101337832D01*
X155205537Y-101461082D01*
X154937748Y-101640013D01*
X154710013Y-101867748D01*
X154710000Y-101867767D01*
X154709987Y-101867748D01*
X154482252Y-101640013D01*
X154214463Y-101461082D01*
X153916912Y-101337832D01*
X153601033Y-101275000D01*
X153278967Y-101275000D01*
X152963088Y-101337832D01*
X152665537Y-101461082D01*
X152397748Y-101640013D01*
X152170013Y-101867748D01*
X152170000Y-101867767D01*
X152169987Y-101867748D01*
X151942252Y-101640013D01*
X151674463Y-101461082D01*
X151376912Y-101337832D01*
X151061033Y-101275000D01*
X150738967Y-101275000D01*
X150423088Y-101337832D01*
X150125537Y-101461082D01*
X149857748Y-101640013D01*
X149630013Y-101867748D01*
X149630000Y-101867767D01*
X149629987Y-101867748D01*
X149402252Y-101640013D01*
X149134463Y-101461082D01*
X148836912Y-101337832D01*
X148521033Y-101275000D01*
X148198967Y-101275000D01*
X147883088Y-101337832D01*
X147585537Y-101461082D01*
X147317748Y-101640013D01*
X147090013Y-101867748D01*
X147090000Y-101867767D01*
X147089987Y-101867748D01*
X146862252Y-101640013D01*
X146594463Y-101461082D01*
X146296912Y-101337832D01*
X145981033Y-101275000D01*
X145658967Y-101275000D01*
X145343088Y-101337832D01*
X145045537Y-101461082D01*
X144777748Y-101640013D01*
X144550013Y-101867748D01*
X144550000Y-101867767D01*
X144549987Y-101867748D01*
X144322252Y-101640013D01*
X144054463Y-101461082D01*
X143756912Y-101337832D01*
X143441033Y-101275000D01*
X143118967Y-101275000D01*
X142803088Y-101337832D01*
X142505537Y-101461082D01*
X142237748Y-101640013D01*
X142010013Y-101867748D01*
X142010000Y-101867767D01*
X142009987Y-101867748D01*
X141782252Y-101640013D01*
X141514463Y-101461082D01*
X141216912Y-101337832D01*
X140901033Y-101275000D01*
X140578967Y-101275000D01*
X140263088Y-101337832D01*
X139965537Y-101461082D01*
X139697748Y-101640013D01*
X139470013Y-101867748D01*
X139470000Y-101867767D01*
X139469987Y-101867748D01*
X139242252Y-101640013D01*
X138974463Y-101461082D01*
X138676912Y-101337832D01*
X138361033Y-101275000D01*
X138038967Y-101275000D01*
X137723088Y-101337832D01*
X137425537Y-101461082D01*
X137157748Y-101640013D01*
X136930013Y-101867748D01*
X136930000Y-101867767D01*
X136929987Y-101867748D01*
X136702252Y-101640013D01*
X136434463Y-101461082D01*
X136136912Y-101337832D01*
X135821033Y-101275000D01*
X135498967Y-101275000D01*
X135183088Y-101337832D01*
X134885537Y-101461082D01*
X134617748Y-101640013D01*
X134390013Y-101867748D01*
X134390000Y-101867767D01*
X134389987Y-101867748D01*
X134162252Y-101640013D01*
X133894463Y-101461082D01*
X133596912Y-101337832D01*
X133281033Y-101275000D01*
X132958967Y-101275000D01*
X132643088Y-101337832D01*
X132345537Y-101461082D01*
X132077748Y-101640013D01*
X131850013Y-101867748D01*
X131850000Y-101867767D01*
X131849987Y-101867748D01*
X131622252Y-101640013D01*
X131354463Y-101461082D01*
X131056912Y-101337832D01*
X130741033Y-101275000D01*
X130418967Y-101275000D01*
X130103088Y-101337832D01*
X129805537Y-101461082D01*
X129537748Y-101640013D01*
X129310013Y-101867748D01*
X129310000Y-101867767D01*
X129309987Y-101867748D01*
X129082252Y-101640013D01*
X128814463Y-101461082D01*
X128516912Y-101337832D01*
X128201033Y-101275000D01*
X127878967Y-101275000D01*
X127563088Y-101337832D01*
X127265537Y-101461082D01*
X126997748Y-101640013D01*
X126770013Y-101867748D01*
X126770000Y-101867767D01*
X126769987Y-101867748D01*
X126542252Y-101640013D01*
X126274463Y-101461082D01*
X125976912Y-101337832D01*
X125661033Y-101275000D01*
X125338967Y-101275000D01*
X125023088Y-101337832D01*
X124725537Y-101461082D01*
X124457748Y-101640013D01*
X124230013Y-101867748D01*
X124230000Y-101867767D01*
X124229987Y-101867748D01*
X124002252Y-101640013D01*
X123734463Y-101461082D01*
X123436912Y-101337832D01*
X123121033Y-101275000D01*
X122798967Y-101275000D01*
X122483088Y-101337832D01*
X122185537Y-101461082D01*
X121917748Y-101640013D01*
X121690013Y-101867748D01*
X121690000Y-101867767D01*
X121689987Y-101867748D01*
X121462252Y-101640013D01*
X121194463Y-101461082D01*
X120896912Y-101337832D01*
X120581033Y-101275000D01*
X120258967Y-101275000D01*
X119943088Y-101337832D01*
X119645537Y-101461082D01*
X119377748Y-101640013D01*
X119150013Y-101867748D01*
X119150000Y-101867767D01*
X119149987Y-101867748D01*
X118922252Y-101640013D01*
X118654463Y-101461082D01*
X118356912Y-101337832D01*
X118041033Y-101275000D01*
X117718967Y-101275000D01*
X117403088Y-101337832D01*
X117105537Y-101461082D01*
X116837748Y-101640013D01*
X116610013Y-101867748D01*
X116610000Y-101867767D01*
X116609987Y-101867748D01*
X116382252Y-101640013D01*
X116114463Y-101461082D01*
X115816912Y-101337832D01*
X115501033Y-101275000D01*
X115178967Y-101275000D01*
X114863088Y-101337832D01*
X114565537Y-101461082D01*
X114297748Y-101640013D01*
X114070013Y-101867748D01*
X114070000Y-101867767D01*
X114069987Y-101867748D01*
X113842252Y-101640013D01*
X113574463Y-101461082D01*
X113276912Y-101337832D01*
X112961033Y-101275000D01*
X112638967Y-101275000D01*
X112323088Y-101337832D01*
X112025537Y-101461082D01*
X111757748Y-101640013D01*
X111530013Y-101867748D01*
X111530000Y-101867767D01*
X111529987Y-101867748D01*
X111302252Y-101640013D01*
X111034463Y-101461082D01*
X110736912Y-101337832D01*
X110421033Y-101275000D01*
X110098967Y-101275000D01*
X109783088Y-101337832D01*
X109485537Y-101461082D01*
X109217748Y-101640013D01*
X108990013Y-101867748D01*
X108811082Y-102135537D01*
X108687832Y-102433088D01*
X108625000Y-102748967D01*
X106589579Y-102748967D01*
X106791627Y-102261181D01*
X106823631Y-102162684D01*
X107061738Y-101170898D01*
X107077939Y-101068607D01*
X107110097Y-100660000D01*
X167889903Y-100660000D01*
X167922061Y-101068607D01*
M02*
