G04 #@! TF.GenerationSoftware,KiCad,Pcbnew,5.1.5+dfsg1-2build2*
G04 #@! TF.CreationDate,2022-02-15T20:53:46-05:00*
G04 #@! TF.ProjectId,MCU_PROTO_83x58mm,4d43555f-5052-44f5-944f-5f3833783538,rev?*
G04 #@! TF.SameCoordinates,Original*
G04 #@! TF.FileFunction,Legend,Top*
G04 #@! TF.FilePolarity,Positive*
%FSLAX46Y46*%
G04 Gerber Fmt 4.6, Leading zero omitted, Abs format (unit mm)*
G04 Created by KiCad (PCBNEW 5.1.5+dfsg1-2build2) date 2022-02-15 20:53:46*
%MOMM*%
%LPD*%
G04 APERTURE LIST*
%ADD10C,0.500000*%
%ADD11C,0.150000*%
%ADD12C,0.120000*%
%ADD13C,0.010000*%
%ADD14O,1.802000X1.802000*%
%ADD15R,1.802000X1.802000*%
%ADD16C,2.102000*%
%ADD17C,2.502000*%
%ADD18R,2.502000X2.502000*%
%ADD19C,3.102000*%
%ADD20C,2.100980*%
G04 APERTURE END LIST*
D10*
X157353000Y-115610000D02*
X157137100Y-115610000D01*
X154813000Y-115610000D02*
X154597100Y-115610000D01*
X152273000Y-115610000D02*
X152057100Y-115610000D01*
X149733000Y-115610000D02*
X149517100Y-115610000D01*
X147193000Y-115610000D02*
X146977100Y-115610000D01*
X144653000Y-115610000D02*
X144437100Y-115610000D01*
X142113000Y-115610000D02*
X141897100Y-115610000D01*
X139573000Y-115610000D02*
X139357100Y-115610000D01*
X137033000Y-115610000D02*
X136817100Y-115610000D01*
X134493000Y-115610000D02*
X134277100Y-115610000D01*
X131953000Y-115610000D02*
X131737100Y-115610000D01*
X129413000Y-115610000D02*
X129197100Y-115610000D01*
X126873000Y-115610000D02*
X126657100Y-115610000D01*
X124333000Y-115610000D02*
X124117100Y-115610000D01*
X121793000Y-115610000D02*
X121577100Y-115610000D01*
X119253000Y-115610000D02*
X119037100Y-115610000D01*
X116713000Y-115610000D02*
X116497100Y-115610000D01*
X114173000Y-115610000D02*
X113957100Y-115610000D01*
X111633000Y-115610000D02*
X111417100Y-115610000D01*
X158505400Y-111620300D02*
X158505400Y-111836200D01*
X155965400Y-111620300D02*
X155965400Y-111836200D01*
X153425400Y-111620300D02*
X153425400Y-111836200D01*
X150885400Y-111620300D02*
X150885400Y-111836200D01*
X148345400Y-111620300D02*
X148345400Y-111836200D01*
X145805400Y-111620300D02*
X145805400Y-111836200D01*
X143265400Y-111620300D02*
X143265400Y-111836200D01*
X140725400Y-111620300D02*
X140725400Y-111836200D01*
X138185400Y-111620300D02*
X138185400Y-111836200D01*
X135645400Y-111620300D02*
X135645400Y-111836200D01*
X133105400Y-111620300D02*
X133105400Y-111836200D01*
X130565400Y-111620300D02*
X130565400Y-111836200D01*
X128025400Y-111620300D02*
X128025400Y-111836200D01*
X125485400Y-111620300D02*
X125485400Y-111836200D01*
X122945400Y-111620300D02*
X122945400Y-111836200D01*
X120405400Y-111620300D02*
X120405400Y-111836200D01*
X117865400Y-111620300D02*
X117865400Y-111836200D01*
X115325400Y-111620300D02*
X115325400Y-111836200D01*
X112785400Y-111620300D02*
X112785400Y-111836200D01*
X110245400Y-111620300D02*
X110245400Y-111836200D01*
X158505400Y-131997400D02*
X158505400Y-132213300D01*
X155965400Y-131997400D02*
X155965400Y-132213300D01*
X153425400Y-131997400D02*
X153425400Y-132213300D01*
X150885400Y-131997400D02*
X150885400Y-132213300D01*
X148345400Y-131997400D02*
X148345400Y-132213300D01*
X145805400Y-131997400D02*
X145805400Y-132213300D01*
X143265400Y-131997400D02*
X143265400Y-132213300D01*
X140725400Y-131997400D02*
X140725400Y-132213300D01*
X138185400Y-131997400D02*
X138185400Y-132213300D01*
X135645400Y-131997400D02*
X135645400Y-132213300D01*
X133105400Y-131997400D02*
X133105400Y-132213300D01*
X130565400Y-131997400D02*
X130565400Y-132213300D01*
X128025400Y-131997400D02*
X128025400Y-132213300D01*
X125485400Y-131997400D02*
X125485400Y-132213300D01*
X122945400Y-131997400D02*
X122945400Y-132213300D01*
X120405400Y-131997400D02*
X120405400Y-132213300D01*
X117865400Y-131997400D02*
X117865400Y-132213300D01*
X115325400Y-131997400D02*
X115325400Y-132213300D01*
X112785400Y-131997400D02*
X112785400Y-132213300D01*
X110245400Y-131997400D02*
X110245400Y-132213300D01*
X158505400Y-129457400D02*
X158505400Y-129673300D01*
X155965400Y-129457400D02*
X155965400Y-129673300D01*
X153425400Y-129457400D02*
X153425400Y-129673300D01*
X150885400Y-129457400D02*
X150885400Y-129673300D01*
X148345400Y-129457400D02*
X148345400Y-129673300D01*
X145805400Y-129457400D02*
X145805400Y-129673300D01*
X143265400Y-129457400D02*
X143265400Y-129673300D01*
X140725400Y-129457400D02*
X140725400Y-129673300D01*
X138185400Y-129457400D02*
X138185400Y-129673300D01*
X135645400Y-129457400D02*
X135645400Y-129673300D01*
X133105400Y-129457400D02*
X133105400Y-129673300D01*
X130565400Y-129457400D02*
X130565400Y-129673300D01*
X128025400Y-129457400D02*
X128025400Y-129673300D01*
X125485400Y-129457400D02*
X125485400Y-129673300D01*
X122945400Y-129457400D02*
X122945400Y-129673300D01*
X120405400Y-129457400D02*
X120405400Y-129673300D01*
X117865400Y-129457400D02*
X117865400Y-129673300D01*
X115325400Y-129457400D02*
X115325400Y-129673300D01*
X112785400Y-129457400D02*
X112785400Y-129673300D01*
X110245400Y-129457400D02*
X110245400Y-129673300D01*
X158505400Y-126917400D02*
X158505400Y-127133300D01*
X155965400Y-126917400D02*
X155965400Y-127133300D01*
X153425400Y-126917400D02*
X153425400Y-127133300D01*
X150885400Y-126917400D02*
X150885400Y-127133300D01*
X148345400Y-126917400D02*
X148345400Y-127133300D01*
X145805400Y-126917400D02*
X145805400Y-127133300D01*
X143265400Y-126917400D02*
X143265400Y-127133300D01*
X140725400Y-126917400D02*
X140725400Y-127133300D01*
X138185400Y-126917400D02*
X138185400Y-127133300D01*
X135645400Y-126917400D02*
X135645400Y-127133300D01*
X133105400Y-126917400D02*
X133105400Y-127133300D01*
X130565400Y-126917400D02*
X130565400Y-127133300D01*
X128025400Y-126917400D02*
X128025400Y-127133300D01*
X125485400Y-126917400D02*
X125485400Y-127133300D01*
X122945400Y-126917400D02*
X122945400Y-127133300D01*
X120405400Y-126917400D02*
X120405400Y-127133300D01*
X117865400Y-126917400D02*
X117865400Y-127133300D01*
X115325400Y-126917400D02*
X115325400Y-127133300D01*
X112785400Y-126917400D02*
X112785400Y-127133300D01*
X110245400Y-126917400D02*
X110245400Y-127133300D01*
X158505400Y-124377400D02*
X158505400Y-124593300D01*
X155965400Y-124377400D02*
X155965400Y-124593300D01*
X153425400Y-124377400D02*
X153425400Y-124593300D01*
X150885400Y-124377400D02*
X150885400Y-124593300D01*
X148345400Y-124377400D02*
X148345400Y-124593300D01*
X145805400Y-124377400D02*
X145805400Y-124593300D01*
X143265400Y-124377400D02*
X143265400Y-124593300D01*
X140725400Y-124377400D02*
X140725400Y-124593300D01*
X138185400Y-124377400D02*
X138185400Y-124593300D01*
X135645400Y-124377400D02*
X135645400Y-124593300D01*
X133105400Y-124377400D02*
X133105400Y-124593300D01*
X130565400Y-124377400D02*
X130565400Y-124593300D01*
X128025400Y-124377400D02*
X128025400Y-124593300D01*
X125485400Y-124377400D02*
X125485400Y-124593300D01*
X122945400Y-124377400D02*
X122945400Y-124593300D01*
X120405400Y-124377400D02*
X120405400Y-124593300D01*
X117865400Y-124377400D02*
X117865400Y-124593300D01*
X115325400Y-124377400D02*
X115325400Y-124593300D01*
X112785400Y-124377400D02*
X112785400Y-124593300D01*
X110245400Y-124377400D02*
X110245400Y-124593300D01*
X158505400Y-121837400D02*
X158505400Y-122053300D01*
X155965400Y-121837400D02*
X155965400Y-122053300D01*
X153425400Y-121837400D02*
X153425400Y-122053300D01*
X150885400Y-121837400D02*
X150885400Y-122053300D01*
X148345400Y-121837400D02*
X148345400Y-122053300D01*
X145805400Y-121837400D02*
X145805400Y-122053300D01*
X143265400Y-121837400D02*
X143265400Y-122053300D01*
X140725400Y-121837400D02*
X140725400Y-122053300D01*
X138185400Y-121837400D02*
X138185400Y-122053300D01*
X135645400Y-121837400D02*
X135645400Y-122053300D01*
X133105400Y-121837400D02*
X133105400Y-122053300D01*
X130565400Y-121837400D02*
X130565400Y-122053300D01*
X128025400Y-121837400D02*
X128025400Y-122053300D01*
X125485400Y-121837400D02*
X125485400Y-122053300D01*
X122945400Y-121837400D02*
X122945400Y-122053300D01*
X120405400Y-121837400D02*
X120405400Y-122053300D01*
X117865400Y-121837400D02*
X117865400Y-122053300D01*
X115325400Y-121837400D02*
X115325400Y-122053300D01*
X112785400Y-121837400D02*
X112785400Y-122053300D01*
X110245400Y-121837400D02*
X110245400Y-122053300D01*
X157349700Y-118148100D02*
X157133800Y-118148100D01*
X154809700Y-118148100D02*
X154593800Y-118148100D01*
X152269700Y-118148100D02*
X152053800Y-118148100D01*
X149729700Y-118148100D02*
X149513800Y-118148100D01*
X147189700Y-118148100D02*
X146973800Y-118148100D01*
X144649700Y-118148100D02*
X144433800Y-118148100D01*
X142109700Y-118148100D02*
X141893800Y-118148100D01*
X139569700Y-118148100D02*
X139353800Y-118148100D01*
X137029700Y-118148100D02*
X136813800Y-118148100D01*
X134489700Y-118148100D02*
X134273800Y-118148100D01*
X131949700Y-118148100D02*
X131733800Y-118148100D01*
X129409700Y-118148100D02*
X129193800Y-118148100D01*
X126869700Y-118148100D02*
X126653800Y-118148100D01*
X124329700Y-118148100D02*
X124113800Y-118148100D01*
X121789700Y-118148100D02*
X121573800Y-118148100D01*
X119249700Y-118148100D02*
X119033800Y-118148100D01*
X116709700Y-118148100D02*
X116493800Y-118148100D01*
X114169700Y-118148100D02*
X113953800Y-118148100D01*
X111629700Y-118148100D02*
X111413800Y-118148100D01*
X157349700Y-138480800D02*
X157133800Y-138480800D01*
X154809700Y-138480800D02*
X154593800Y-138480800D01*
X152269700Y-138480800D02*
X152053800Y-138480800D01*
X149729700Y-138480800D02*
X149513800Y-138480800D01*
X147189700Y-138480800D02*
X146973800Y-138480800D01*
X144649700Y-138480800D02*
X144433800Y-138480800D01*
X142109700Y-138480800D02*
X141893800Y-138480800D01*
X139569700Y-138480800D02*
X139353800Y-138480800D01*
X137029700Y-138480800D02*
X136813800Y-138480800D01*
X134489700Y-138480800D02*
X134273800Y-138480800D01*
X131949700Y-138480800D02*
X131733800Y-138480800D01*
X129409700Y-138480800D02*
X129193800Y-138480800D01*
X126869700Y-138480800D02*
X126653800Y-138480800D01*
X124329700Y-138480800D02*
X124113800Y-138480800D01*
X121789700Y-138480800D02*
X121573800Y-138480800D01*
X119249700Y-138480800D02*
X119033800Y-138480800D01*
X116709700Y-138480800D02*
X116493800Y-138480800D01*
X114169700Y-138480800D02*
X113953800Y-138480800D01*
X111629700Y-138480800D02*
X111413800Y-138480800D01*
X157349700Y-141008100D02*
X157133800Y-141008100D01*
X154809700Y-141008100D02*
X154593800Y-141008100D01*
X152269700Y-141008100D02*
X152053800Y-141008100D01*
X149729700Y-141008100D02*
X149513800Y-141008100D01*
X147189700Y-141008100D02*
X146973800Y-141008100D01*
X144649700Y-141008100D02*
X144433800Y-141008100D01*
X142109700Y-141008100D02*
X141893800Y-141008100D01*
X139569700Y-141008100D02*
X139353800Y-141008100D01*
X137029700Y-141008100D02*
X136813800Y-141008100D01*
X134489700Y-141008100D02*
X134273800Y-141008100D01*
X131949700Y-141008100D02*
X131733800Y-141008100D01*
X129409700Y-141008100D02*
X129193800Y-141008100D01*
X126869700Y-141008100D02*
X126653800Y-141008100D01*
X124329700Y-141008100D02*
X124113800Y-141008100D01*
X121789700Y-141008100D02*
X121573800Y-141008100D01*
X158518100Y-144716500D02*
X158518100Y-144932400D01*
X155978100Y-144716500D02*
X155978100Y-144932400D01*
X153438100Y-144716500D02*
X153438100Y-144932400D01*
X150898100Y-144716500D02*
X150898100Y-144932400D01*
X148358100Y-144716500D02*
X148358100Y-144932400D01*
X145818100Y-144716500D02*
X145818100Y-144932400D01*
X143278100Y-144716500D02*
X143278100Y-144932400D01*
X140738100Y-144716500D02*
X140738100Y-144932400D01*
X138198100Y-144716500D02*
X138198100Y-144932400D01*
X135658100Y-144716500D02*
X135658100Y-144932400D01*
X133118100Y-144716500D02*
X133118100Y-144932400D01*
X130578100Y-144716500D02*
X130578100Y-144932400D01*
X128038100Y-144716500D02*
X128038100Y-144932400D01*
X125498100Y-144716500D02*
X125498100Y-144932400D01*
X122958100Y-144716500D02*
X122958100Y-144932400D01*
X120418100Y-144716500D02*
X120418100Y-144932400D01*
X158505400Y-134620000D02*
X158505400Y-134835900D01*
X155965400Y-134620000D02*
X155965400Y-134835900D01*
X153425400Y-134620000D02*
X153425400Y-134835900D01*
X150885400Y-134620000D02*
X150885400Y-134835900D01*
X148345400Y-134620000D02*
X148345400Y-134835900D01*
X145805400Y-134620000D02*
X145805400Y-134835900D01*
X143265400Y-134620000D02*
X143265400Y-134835900D01*
X140725400Y-134620000D02*
X140725400Y-134835900D01*
X138185400Y-134620000D02*
X138185400Y-134835900D01*
X135645400Y-134620000D02*
X135645400Y-134835900D01*
X133105400Y-134620000D02*
X133105400Y-134835900D01*
X130565400Y-134620000D02*
X130565400Y-134835900D01*
X128025400Y-134620000D02*
X128025400Y-134835900D01*
X125485400Y-134620000D02*
X125485400Y-134835900D01*
X122945400Y-134620000D02*
X122945400Y-134835900D01*
X120405400Y-134620000D02*
X120405400Y-134835900D01*
X117865400Y-134620000D02*
X117865400Y-134835900D01*
X115325400Y-134620000D02*
X115325400Y-134835900D01*
X112785400Y-134620000D02*
X112785400Y-134835900D01*
X110245400Y-134620000D02*
X110245400Y-134835900D01*
X158505400Y-106692700D02*
X158505400Y-106908600D01*
X155965400Y-106692700D02*
X155965400Y-106908600D01*
X153425400Y-106692700D02*
X153425400Y-106908600D01*
X150885400Y-106692700D02*
X150885400Y-106908600D01*
X148345400Y-106692700D02*
X148345400Y-106908600D01*
X145805400Y-106692700D02*
X145805400Y-106908600D01*
X143265400Y-106692700D02*
X143265400Y-106908600D01*
X140725400Y-106692700D02*
X140725400Y-106908600D01*
X138185400Y-106692700D02*
X138185400Y-106908600D01*
X135645400Y-106692700D02*
X135645400Y-106908600D01*
X133105400Y-106692700D02*
X133105400Y-106908600D01*
X130565400Y-106692700D02*
X130565400Y-106908600D01*
X128025400Y-106692700D02*
X128025400Y-106908600D01*
X125485400Y-106692700D02*
X125485400Y-106908600D01*
X122945400Y-106692700D02*
X122945400Y-106908600D01*
X120405400Y-106692700D02*
X120405400Y-106908600D01*
X117865400Y-106692700D02*
X117865400Y-106908600D01*
X115325400Y-106692700D02*
X115325400Y-106908600D01*
X112785400Y-106692700D02*
X112785400Y-106908600D01*
X110245400Y-106692700D02*
X110245400Y-106908600D01*
X158505400Y-104152700D02*
X158505400Y-104368600D01*
X155965400Y-104152700D02*
X155965400Y-104368600D01*
X153425400Y-104152700D02*
X153425400Y-104368600D01*
X150885400Y-104152700D02*
X150885400Y-104368600D01*
X148345400Y-104152700D02*
X148345400Y-104368600D01*
X145805400Y-104152700D02*
X145805400Y-104368600D01*
X143265400Y-104152700D02*
X143265400Y-104368600D01*
X140725400Y-104152700D02*
X140725400Y-104368600D01*
X138185400Y-104152700D02*
X138185400Y-104368600D01*
X135645400Y-104152700D02*
X135645400Y-104368600D01*
X133105400Y-104152700D02*
X133105400Y-104368600D01*
X130565400Y-104152700D02*
X130565400Y-104368600D01*
X128025400Y-104152700D02*
X128025400Y-104368600D01*
X125485400Y-104152700D02*
X125485400Y-104368600D01*
X122945400Y-104152700D02*
X122945400Y-104368600D01*
X120405400Y-104152700D02*
X120405400Y-104368600D01*
X117865400Y-104152700D02*
X117865400Y-104368600D01*
X115325400Y-104152700D02*
X115325400Y-104368600D01*
X112785400Y-104152700D02*
X112785400Y-104368600D01*
X110245400Y-104152700D02*
X110245400Y-104368600D01*
D11*
X102341004Y-140016680D02*
X101541004Y-140016680D01*
X102112433Y-139750014D01*
X101541004Y-139483347D01*
X102341004Y-139483347D01*
X102264814Y-138645252D02*
X102302909Y-138683347D01*
X102341004Y-138797633D01*
X102341004Y-138873823D01*
X102302909Y-138988109D01*
X102226719Y-139064300D01*
X102150528Y-139102395D01*
X101998147Y-139140490D01*
X101883861Y-139140490D01*
X101731480Y-139102395D01*
X101655290Y-139064300D01*
X101579100Y-138988109D01*
X101541004Y-138873823D01*
X101541004Y-138797633D01*
X101579100Y-138683347D01*
X101617195Y-138645252D01*
X101541004Y-138302395D02*
X102188623Y-138302395D01*
X102264814Y-138264300D01*
X102302909Y-138226204D01*
X102341004Y-138150014D01*
X102341004Y-137997633D01*
X102302909Y-137921442D01*
X102264814Y-137883347D01*
X102188623Y-137845252D01*
X101541004Y-137845252D01*
X102341004Y-136854776D02*
X101541004Y-136854776D01*
X101541004Y-136550014D01*
X101579100Y-136473823D01*
X101617195Y-136435728D01*
X101693385Y-136397633D01*
X101807671Y-136397633D01*
X101883861Y-136435728D01*
X101921957Y-136473823D01*
X101960052Y-136550014D01*
X101960052Y-136854776D01*
X102341004Y-135597633D02*
X101960052Y-135864300D01*
X102341004Y-136054776D02*
X101541004Y-136054776D01*
X101541004Y-135750014D01*
X101579100Y-135673823D01*
X101617195Y-135635728D01*
X101693385Y-135597633D01*
X101807671Y-135597633D01*
X101883861Y-135635728D01*
X101921957Y-135673823D01*
X101960052Y-135750014D01*
X101960052Y-136054776D01*
X101541004Y-135102395D02*
X101541004Y-134950014D01*
X101579100Y-134873823D01*
X101655290Y-134797633D01*
X101807671Y-134759538D01*
X102074338Y-134759538D01*
X102226719Y-134797633D01*
X102302909Y-134873823D01*
X102341004Y-134950014D01*
X102341004Y-135102395D01*
X102302909Y-135178585D01*
X102226719Y-135254776D01*
X102074338Y-135292871D01*
X101807671Y-135292871D01*
X101655290Y-135254776D01*
X101579100Y-135178585D01*
X101541004Y-135102395D01*
X101541004Y-134530966D02*
X101541004Y-134073823D01*
X102341004Y-134302395D02*
X101541004Y-134302395D01*
X101541004Y-133654776D02*
X101541004Y-133502395D01*
X101579100Y-133426204D01*
X101655290Y-133350014D01*
X101807671Y-133311919D01*
X102074338Y-133311919D01*
X102226719Y-133350014D01*
X102302909Y-133426204D01*
X102341004Y-133502395D01*
X102341004Y-133654776D01*
X102302909Y-133730966D01*
X102226719Y-133807157D01*
X102074338Y-133845252D01*
X101807671Y-133845252D01*
X101655290Y-133807157D01*
X101579100Y-133730966D01*
X101541004Y-133654776D01*
X101883861Y-132245252D02*
X101845766Y-132321442D01*
X101807671Y-132359538D01*
X101731480Y-132397633D01*
X101693385Y-132397633D01*
X101617195Y-132359538D01*
X101579100Y-132321442D01*
X101541004Y-132245252D01*
X101541004Y-132092871D01*
X101579100Y-132016680D01*
X101617195Y-131978585D01*
X101693385Y-131940490D01*
X101731480Y-131940490D01*
X101807671Y-131978585D01*
X101845766Y-132016680D01*
X101883861Y-132092871D01*
X101883861Y-132245252D01*
X101921957Y-132321442D01*
X101960052Y-132359538D01*
X102036242Y-132397633D01*
X102188623Y-132397633D01*
X102264814Y-132359538D01*
X102302909Y-132321442D01*
X102341004Y-132245252D01*
X102341004Y-132092871D01*
X102302909Y-132016680D01*
X102264814Y-131978585D01*
X102188623Y-131940490D01*
X102036242Y-131940490D01*
X101960052Y-131978585D01*
X101921957Y-132016680D01*
X101883861Y-132092871D01*
X101541004Y-131673823D02*
X101541004Y-131178585D01*
X101845766Y-131445252D01*
X101845766Y-131330966D01*
X101883861Y-131254776D01*
X101921957Y-131216680D01*
X101998147Y-131178585D01*
X102188623Y-131178585D01*
X102264814Y-131216680D01*
X102302909Y-131254776D01*
X102341004Y-131330966D01*
X102341004Y-131559538D01*
X102302909Y-131635728D01*
X102264814Y-131673823D01*
X102341004Y-130911919D02*
X101807671Y-130492871D01*
X101807671Y-130911919D02*
X102341004Y-130492871D01*
X101541004Y-129807157D02*
X101541004Y-130188109D01*
X101921957Y-130226204D01*
X101883861Y-130188109D01*
X101845766Y-130111919D01*
X101845766Y-129921442D01*
X101883861Y-129845252D01*
X101921957Y-129807157D01*
X101998147Y-129769061D01*
X102188623Y-129769061D01*
X102264814Y-129807157D01*
X102302909Y-129845252D01*
X102341004Y-129921442D01*
X102341004Y-130111919D01*
X102302909Y-130188109D01*
X102264814Y-130226204D01*
X101883861Y-129311919D02*
X101845766Y-129388109D01*
X101807671Y-129426204D01*
X101731480Y-129464300D01*
X101693385Y-129464300D01*
X101617195Y-129426204D01*
X101579100Y-129388109D01*
X101541004Y-129311919D01*
X101541004Y-129159538D01*
X101579100Y-129083347D01*
X101617195Y-129045252D01*
X101693385Y-129007157D01*
X101731480Y-129007157D01*
X101807671Y-129045252D01*
X101845766Y-129083347D01*
X101883861Y-129159538D01*
X101883861Y-129311919D01*
X101921957Y-129388109D01*
X101960052Y-129426204D01*
X102036242Y-129464300D01*
X102188623Y-129464300D01*
X102264814Y-129426204D01*
X102302909Y-129388109D01*
X102341004Y-129311919D01*
X102341004Y-129159538D01*
X102302909Y-129083347D01*
X102264814Y-129045252D01*
X102188623Y-129007157D01*
X102036242Y-129007157D01*
X101960052Y-129045252D01*
X101921957Y-129083347D01*
X101883861Y-129159538D01*
X102341004Y-128664300D02*
X101807671Y-128664300D01*
X101883861Y-128664300D02*
X101845766Y-128626204D01*
X101807671Y-128550014D01*
X101807671Y-128435728D01*
X101845766Y-128359538D01*
X101921957Y-128321442D01*
X102341004Y-128321442D01*
X101921957Y-128321442D02*
X101845766Y-128283347D01*
X101807671Y-128207157D01*
X101807671Y-128092871D01*
X101845766Y-128016680D01*
X101921957Y-127978585D01*
X102341004Y-127978585D01*
X102341004Y-127597633D02*
X101807671Y-127597633D01*
X101883861Y-127597633D02*
X101845766Y-127559538D01*
X101807671Y-127483347D01*
X101807671Y-127369061D01*
X101845766Y-127292871D01*
X101921957Y-127254776D01*
X102341004Y-127254776D01*
X101921957Y-127254776D02*
X101845766Y-127216680D01*
X101807671Y-127140490D01*
X101807671Y-127026204D01*
X101845766Y-126950014D01*
X101921957Y-126911919D01*
X102341004Y-126911919D01*
D10*
X166138100Y-137782300D02*
X162518600Y-137782300D01*
X166138100Y-134289800D02*
X162518600Y-134289800D01*
X166138100Y-130810000D02*
X162518600Y-130810000D01*
X166138100Y-118198900D02*
X162518600Y-118198900D01*
X166138100Y-114693700D02*
X162518600Y-114693700D01*
X166138100Y-111201200D02*
X162518600Y-111201200D01*
D12*
X108930000Y-120690000D02*
X108930000Y-119360000D01*
X108930000Y-119360000D02*
X110260000Y-119360000D01*
X111530000Y-119360000D02*
X159850000Y-119360000D01*
X159850000Y-122020000D02*
X159850000Y-119360000D01*
X111530000Y-122020000D02*
X159850000Y-122020000D01*
X111530000Y-122020000D02*
X111530000Y-119360000D01*
X108930000Y-107990000D02*
X108930000Y-106660000D01*
X108930000Y-106660000D02*
X110260000Y-106660000D01*
X111530000Y-106660000D02*
X159850000Y-106660000D01*
X159850000Y-109320000D02*
X159850000Y-106660000D01*
X111530000Y-109320000D02*
X159850000Y-109320000D01*
X111530000Y-109320000D02*
X111530000Y-106660000D01*
X108930000Y-110530000D02*
X108930000Y-109200000D01*
X108930000Y-109200000D02*
X110260000Y-109200000D01*
X111530000Y-109200000D02*
X159850000Y-109200000D01*
X159850000Y-111860000D02*
X159850000Y-109200000D01*
X111530000Y-111860000D02*
X159850000Y-111860000D01*
X111530000Y-111860000D02*
X111530000Y-109200000D01*
X171900000Y-140200000D02*
X171900000Y-138700000D01*
X170160000Y-140200000D02*
X171900000Y-140200000D01*
X164540000Y-128640000D02*
X171660000Y-128640000D01*
X164540000Y-139960000D02*
X171660000Y-139960000D01*
X171660000Y-139960000D02*
X171660000Y-128640000D01*
X164540000Y-139960000D02*
X164540000Y-128640000D01*
X170100000Y-139960000D02*
X170100000Y-128640000D01*
X169555000Y-130800000D02*
G75*
G03X169555000Y-130800000I-1555000J0D01*
G01*
X169555000Y-134300000D02*
G75*
G03X169555000Y-134300000I-1555000J0D01*
G01*
X169555492Y-137772989D02*
G75*
G02X169432000Y-138408000I-1555492J-27011D01*
G01*
X168607742Y-139232109D02*
G75*
G02X167392000Y-139232000I-607742J1432109D01*
G01*
X166567891Y-138407742D02*
G75*
G02X166568000Y-137192000I1432109J607742D01*
G01*
X167392258Y-136367891D02*
G75*
G02X168608000Y-136368000I607742J-1432109D01*
G01*
X169431385Y-137192413D02*
G75*
G02X169555000Y-137800000I-1431385J-607587D01*
G01*
X108930000Y-133390000D02*
X108930000Y-132060000D01*
X108930000Y-132060000D02*
X110260000Y-132060000D01*
X111530000Y-132060000D02*
X159850000Y-132060000D01*
X159850000Y-134720000D02*
X159850000Y-132060000D01*
X111530000Y-134720000D02*
X159850000Y-134720000D01*
X111530000Y-134720000D02*
X111530000Y-132060000D01*
X108930000Y-130850000D02*
X108930000Y-129520000D01*
X108930000Y-129520000D02*
X110260000Y-129520000D01*
X111530000Y-129520000D02*
X159850000Y-129520000D01*
X159850000Y-132180000D02*
X159850000Y-129520000D01*
X111530000Y-132180000D02*
X159850000Y-132180000D01*
X111530000Y-132180000D02*
X111530000Y-129520000D01*
X108930000Y-128310000D02*
X108930000Y-126980000D01*
X108930000Y-126980000D02*
X110260000Y-126980000D01*
X111530000Y-126980000D02*
X159850000Y-126980000D01*
X159850000Y-129640000D02*
X159850000Y-126980000D01*
X111530000Y-129640000D02*
X159850000Y-129640000D01*
X111530000Y-129640000D02*
X111530000Y-126980000D01*
X108930000Y-105450000D02*
X108930000Y-104120000D01*
X108930000Y-104120000D02*
X110260000Y-104120000D01*
X111530000Y-104120000D02*
X159850000Y-104120000D01*
X159850000Y-106780000D02*
X159850000Y-104120000D01*
X111530000Y-106780000D02*
X159850000Y-106780000D01*
X111530000Y-106780000D02*
X111530000Y-104120000D01*
X108930000Y-123230000D02*
X108930000Y-121900000D01*
X108930000Y-121900000D02*
X110260000Y-121900000D01*
X111530000Y-121900000D02*
X159850000Y-121900000D01*
X159850000Y-124560000D02*
X159850000Y-121900000D01*
X111530000Y-124560000D02*
X159850000Y-124560000D01*
X111530000Y-124560000D02*
X111530000Y-121900000D01*
X171900000Y-120600000D02*
X171900000Y-119100000D01*
X170160000Y-120600000D02*
X171900000Y-120600000D01*
X164540000Y-109040000D02*
X171660000Y-109040000D01*
X164540000Y-120360000D02*
X171660000Y-120360000D01*
X171660000Y-120360000D02*
X171660000Y-109040000D01*
X164540000Y-120360000D02*
X164540000Y-109040000D01*
X170100000Y-120360000D02*
X170100000Y-109040000D01*
X169555000Y-111200000D02*
G75*
G03X169555000Y-111200000I-1555000J0D01*
G01*
X169555000Y-114700000D02*
G75*
G03X169555000Y-114700000I-1555000J0D01*
G01*
X169555492Y-118172989D02*
G75*
G02X169432000Y-118808000I-1555492J-27011D01*
G01*
X168607742Y-119632109D02*
G75*
G02X167392000Y-119632000I-607742J1432109D01*
G01*
X166567891Y-118807742D02*
G75*
G02X166568000Y-117592000I1432109J607742D01*
G01*
X167392258Y-116767891D02*
G75*
G02X168608000Y-116768000I607742J-1432109D01*
G01*
X169431385Y-117592413D02*
G75*
G02X169555000Y-118200000I-1431385J-607587D01*
G01*
D13*
G36*
X101253331Y-114429986D02*
G01*
X101697955Y-114346165D01*
X101825453Y-114036880D01*
X101952951Y-113727594D01*
X101700646Y-113356554D01*
X101630396Y-113252643D01*
X101567672Y-113158713D01*
X101515338Y-113079148D01*
X101476257Y-113018330D01*
X101453293Y-112980643D01*
X101448342Y-112970379D01*
X101461076Y-112951890D01*
X101496282Y-112912380D01*
X101549462Y-112856278D01*
X101616118Y-112788013D01*
X101691754Y-112712014D01*
X101771872Y-112632708D01*
X101851974Y-112554525D01*
X101927564Y-112481893D01*
X101994145Y-112419241D01*
X102047218Y-112370997D01*
X102082287Y-112341590D01*
X102094023Y-112334559D01*
X102115660Y-112344677D01*
X102163062Y-112373041D01*
X102231593Y-112416671D01*
X102316615Y-112472582D01*
X102413493Y-112537794D01*
X102468750Y-112575581D01*
X102569648Y-112644457D01*
X102660699Y-112705660D01*
X102737370Y-112756222D01*
X102795128Y-112793172D01*
X102829443Y-112813542D01*
X102836654Y-112816603D01*
X102857148Y-112809664D01*
X102904913Y-112790749D01*
X102973232Y-112762713D01*
X103055389Y-112728409D01*
X103144670Y-112690691D01*
X103234358Y-112652413D01*
X103317738Y-112616430D01*
X103388094Y-112585594D01*
X103438710Y-112562761D01*
X103462871Y-112550783D01*
X103463822Y-112550076D01*
X103468436Y-112531269D01*
X103478728Y-112481182D01*
X103493687Y-112405007D01*
X103512301Y-112307935D01*
X103533559Y-112195157D01*
X103545818Y-112129358D01*
X103568762Y-112008850D01*
X103590595Y-111900003D01*
X103610122Y-111808324D01*
X103626148Y-111739319D01*
X103637479Y-111698496D01*
X103641074Y-111690289D01*
X103665406Y-111682252D01*
X103720359Y-111675767D01*
X103799508Y-111670830D01*
X103896426Y-111667436D01*
X104004687Y-111665582D01*
X104117865Y-111665262D01*
X104229535Y-111666473D01*
X104333268Y-111669210D01*
X104422641Y-111673469D01*
X104491226Y-111679245D01*
X104532597Y-111686533D01*
X104541210Y-111690905D01*
X104551533Y-111717036D01*
X104566292Y-111772407D01*
X104583752Y-111849693D01*
X104602180Y-111941570D01*
X104608141Y-111973642D01*
X104636466Y-112128276D01*
X104659276Y-112250425D01*
X104677480Y-112344127D01*
X104691983Y-112413416D01*
X104703692Y-112462329D01*
X104713515Y-112494903D01*
X104722356Y-112515172D01*
X104731124Y-112527174D01*
X104732857Y-112528853D01*
X104760771Y-112545616D01*
X104815095Y-112571186D01*
X104889177Y-112603012D01*
X104976365Y-112638540D01*
X105070008Y-112675217D01*
X105163452Y-112710489D01*
X105250047Y-112741804D01*
X105323140Y-112766607D01*
X105376078Y-112782346D01*
X105402211Y-112786468D01*
X105403126Y-112786124D01*
X105424486Y-112772159D01*
X105471484Y-112740478D01*
X105539227Y-112694409D01*
X105622823Y-112637282D01*
X105717382Y-112572427D01*
X105744254Y-112553957D01*
X105841675Y-112488101D01*
X105930563Y-112430150D01*
X106005812Y-112383262D01*
X106062320Y-112350593D01*
X106094981Y-112335300D01*
X106098993Y-112334559D01*
X106120084Y-112347408D01*
X106161864Y-112382912D01*
X106219845Y-112436507D01*
X106289535Y-112503629D01*
X106366445Y-112579713D01*
X106446083Y-112660196D01*
X106523961Y-112740513D01*
X106595586Y-112816101D01*
X106656470Y-112882395D01*
X106702121Y-112934831D01*
X106728050Y-112968845D01*
X106732283Y-112978255D01*
X106722312Y-113000157D01*
X106695420Y-113045000D01*
X106656136Y-113105479D01*
X106624517Y-113152011D01*
X106566498Y-113236325D01*
X106498184Y-113336174D01*
X106429979Y-113436327D01*
X106393475Y-113490173D01*
X106270200Y-113672429D01*
X106352920Y-113825419D01*
X106389159Y-113895118D01*
X106417326Y-113954386D01*
X106433391Y-113994489D01*
X106435626Y-114004697D01*
X106419122Y-114016971D01*
X106372482Y-114041187D01*
X106300009Y-114075537D01*
X106206006Y-114118212D01*
X106094774Y-114167406D01*
X105970615Y-114221310D01*
X105837832Y-114278116D01*
X105700727Y-114336018D01*
X105563602Y-114393207D01*
X105430758Y-114447876D01*
X105306498Y-114498216D01*
X105195125Y-114542420D01*
X105100939Y-114578681D01*
X105028244Y-114605191D01*
X104981341Y-114620142D01*
X104965233Y-114622546D01*
X104944686Y-114603489D01*
X104911333Y-114561764D01*
X104872102Y-114506094D01*
X104868999Y-114501422D01*
X104753823Y-114357536D01*
X104619453Y-114241517D01*
X104470184Y-114154370D01*
X104310313Y-114097101D01*
X104144137Y-114070714D01*
X103975952Y-114076215D01*
X103810055Y-114114610D01*
X103650742Y-114186905D01*
X103615887Y-114208174D01*
X103475137Y-114318804D01*
X103362114Y-114449498D01*
X103277403Y-114595736D01*
X103221594Y-114752992D01*
X103195274Y-114916743D01*
X103199030Y-115082467D01*
X103233450Y-115245638D01*
X103299123Y-115401735D01*
X103396635Y-115546233D01*
X103436213Y-115590931D01*
X103560103Y-115704688D01*
X103690524Y-115787582D01*
X103836715Y-115844444D01*
X103981488Y-115876113D01*
X104144260Y-115883931D01*
X104307840Y-115857862D01*
X104466698Y-115800555D01*
X104615306Y-115714656D01*
X104748135Y-115602814D01*
X104859656Y-115467677D01*
X104871411Y-115449917D01*
X104909908Y-115393650D01*
X104943263Y-115350877D01*
X104964560Y-115330428D01*
X104965233Y-115330131D01*
X104988271Y-115334521D01*
X105040557Y-115351924D01*
X105117790Y-115380532D01*
X105215668Y-115418535D01*
X105329891Y-115464126D01*
X105456158Y-115515497D01*
X105590167Y-115570838D01*
X105727618Y-115628342D01*
X105864208Y-115686199D01*
X105995637Y-115742602D01*
X106117605Y-115795742D01*
X106225809Y-115843810D01*
X106315949Y-115884999D01*
X106383723Y-115917499D01*
X106424830Y-115939503D01*
X106435626Y-115948364D01*
X106427219Y-115975440D01*
X106404672Y-116026103D01*
X106372013Y-116091617D01*
X106352920Y-116127641D01*
X106270200Y-116280632D01*
X106393475Y-116462888D01*
X106456628Y-116555925D01*
X106526127Y-116657785D01*
X106591565Y-116753238D01*
X106624517Y-116801050D01*
X106669673Y-116868295D01*
X106705457Y-116925236D01*
X106727338Y-116964446D01*
X106731963Y-116977181D01*
X106719485Y-116995717D01*
X106684652Y-117036741D01*
X106631078Y-117096275D01*
X106562383Y-117170342D01*
X106482181Y-117254965D01*
X106430686Y-117308485D01*
X106338686Y-117402119D01*
X106256399Y-117483041D01*
X106187345Y-117547977D01*
X106135044Y-117593658D01*
X106103016Y-117616811D01*
X106096516Y-117619032D01*
X106071794Y-117608724D01*
X106021805Y-117580239D01*
X105951612Y-117536737D01*
X105866275Y-117481377D01*
X105770856Y-117417320D01*
X105744254Y-117399103D01*
X105647567Y-117332727D01*
X105560517Y-117273178D01*
X105487995Y-117223784D01*
X105434893Y-117187875D01*
X105406103Y-117168781D01*
X105403126Y-117166936D01*
X105380182Y-117169695D01*
X105329736Y-117184338D01*
X105258441Y-117208313D01*
X105172947Y-117239066D01*
X105079907Y-117274044D01*
X104985974Y-117310693D01*
X104897799Y-117346461D01*
X104822034Y-117378794D01*
X104765331Y-117405138D01*
X104734343Y-117422942D01*
X104732857Y-117424207D01*
X104724001Y-117435094D01*
X104715243Y-117453482D01*
X104705677Y-117483406D01*
X104694396Y-117528903D01*
X104680493Y-117594009D01*
X104663063Y-117682761D01*
X104641198Y-117799193D01*
X104613991Y-117947342D01*
X104608141Y-117979418D01*
X104589774Y-118074486D01*
X104571805Y-118157365D01*
X104555969Y-118220730D01*
X104544000Y-118257258D01*
X104541210Y-118262156D01*
X104516472Y-118270227D01*
X104461190Y-118276787D01*
X104381789Y-118281833D01*
X104284696Y-118285359D01*
X104176338Y-118287361D01*
X104063140Y-118287836D01*
X103951528Y-118286777D01*
X103847929Y-118284182D01*
X103758768Y-118280046D01*
X103690472Y-118274363D01*
X103649466Y-118267131D01*
X103641074Y-118262771D01*
X103632608Y-118238498D01*
X103618835Y-118183226D01*
X103600950Y-118102462D01*
X103580148Y-118001712D01*
X103557623Y-117886483D01*
X103545818Y-117823702D01*
X103523551Y-117704587D01*
X103503379Y-117598365D01*
X103486315Y-117510227D01*
X103473369Y-117445366D01*
X103465555Y-117408974D01*
X103463822Y-117402984D01*
X103444290Y-117392861D01*
X103397243Y-117371462D01*
X103329403Y-117341639D01*
X103247491Y-117306245D01*
X103158228Y-117268132D01*
X103068335Y-117230153D01*
X102984535Y-117195160D01*
X102913547Y-117166006D01*
X102862094Y-117145543D01*
X102836897Y-117136623D01*
X102835796Y-117136457D01*
X102815919Y-117146569D01*
X102770177Y-117174917D01*
X102703117Y-117218523D01*
X102619284Y-117274406D01*
X102523226Y-117339587D01*
X102468050Y-117377479D01*
X102366881Y-117446525D01*
X102275030Y-117507850D01*
X102197144Y-117558463D01*
X102137869Y-117595371D01*
X102101851Y-117615582D01*
X102093777Y-117618501D01*
X102074984Y-117605953D01*
X102034857Y-117571263D01*
X101977893Y-117518863D01*
X101908585Y-117453184D01*
X101831431Y-117378656D01*
X101750925Y-117299713D01*
X101671563Y-117220783D01*
X101597840Y-117146300D01*
X101534252Y-117080694D01*
X101485294Y-117028396D01*
X101455461Y-116993839D01*
X101448342Y-116982278D01*
X101458353Y-116963454D01*
X101486478Y-116918431D01*
X101529854Y-116851587D01*
X101585618Y-116767299D01*
X101650906Y-116669944D01*
X101700646Y-116596507D01*
X101952951Y-116225467D01*
X101697955Y-115606895D01*
X101253331Y-115523075D01*
X100808707Y-115439254D01*
X100808707Y-114513806D01*
X101253331Y-114429986D01*
G37*
X101253331Y-114429986D02*
X101697955Y-114346165D01*
X101825453Y-114036880D01*
X101952951Y-113727594D01*
X101700646Y-113356554D01*
X101630396Y-113252643D01*
X101567672Y-113158713D01*
X101515338Y-113079148D01*
X101476257Y-113018330D01*
X101453293Y-112980643D01*
X101448342Y-112970379D01*
X101461076Y-112951890D01*
X101496282Y-112912380D01*
X101549462Y-112856278D01*
X101616118Y-112788013D01*
X101691754Y-112712014D01*
X101771872Y-112632708D01*
X101851974Y-112554525D01*
X101927564Y-112481893D01*
X101994145Y-112419241D01*
X102047218Y-112370997D01*
X102082287Y-112341590D01*
X102094023Y-112334559D01*
X102115660Y-112344677D01*
X102163062Y-112373041D01*
X102231593Y-112416671D01*
X102316615Y-112472582D01*
X102413493Y-112537794D01*
X102468750Y-112575581D01*
X102569648Y-112644457D01*
X102660699Y-112705660D01*
X102737370Y-112756222D01*
X102795128Y-112793172D01*
X102829443Y-112813542D01*
X102836654Y-112816603D01*
X102857148Y-112809664D01*
X102904913Y-112790749D01*
X102973232Y-112762713D01*
X103055389Y-112728409D01*
X103144670Y-112690691D01*
X103234358Y-112652413D01*
X103317738Y-112616430D01*
X103388094Y-112585594D01*
X103438710Y-112562761D01*
X103462871Y-112550783D01*
X103463822Y-112550076D01*
X103468436Y-112531269D01*
X103478728Y-112481182D01*
X103493687Y-112405007D01*
X103512301Y-112307935D01*
X103533559Y-112195157D01*
X103545818Y-112129358D01*
X103568762Y-112008850D01*
X103590595Y-111900003D01*
X103610122Y-111808324D01*
X103626148Y-111739319D01*
X103637479Y-111698496D01*
X103641074Y-111690289D01*
X103665406Y-111682252D01*
X103720359Y-111675767D01*
X103799508Y-111670830D01*
X103896426Y-111667436D01*
X104004687Y-111665582D01*
X104117865Y-111665262D01*
X104229535Y-111666473D01*
X104333268Y-111669210D01*
X104422641Y-111673469D01*
X104491226Y-111679245D01*
X104532597Y-111686533D01*
X104541210Y-111690905D01*
X104551533Y-111717036D01*
X104566292Y-111772407D01*
X104583752Y-111849693D01*
X104602180Y-111941570D01*
X104608141Y-111973642D01*
X104636466Y-112128276D01*
X104659276Y-112250425D01*
X104677480Y-112344127D01*
X104691983Y-112413416D01*
X104703692Y-112462329D01*
X104713515Y-112494903D01*
X104722356Y-112515172D01*
X104731124Y-112527174D01*
X104732857Y-112528853D01*
X104760771Y-112545616D01*
X104815095Y-112571186D01*
X104889177Y-112603012D01*
X104976365Y-112638540D01*
X105070008Y-112675217D01*
X105163452Y-112710489D01*
X105250047Y-112741804D01*
X105323140Y-112766607D01*
X105376078Y-112782346D01*
X105402211Y-112786468D01*
X105403126Y-112786124D01*
X105424486Y-112772159D01*
X105471484Y-112740478D01*
X105539227Y-112694409D01*
X105622823Y-112637282D01*
X105717382Y-112572427D01*
X105744254Y-112553957D01*
X105841675Y-112488101D01*
X105930563Y-112430150D01*
X106005812Y-112383262D01*
X106062320Y-112350593D01*
X106094981Y-112335300D01*
X106098993Y-112334559D01*
X106120084Y-112347408D01*
X106161864Y-112382912D01*
X106219845Y-112436507D01*
X106289535Y-112503629D01*
X106366445Y-112579713D01*
X106446083Y-112660196D01*
X106523961Y-112740513D01*
X106595586Y-112816101D01*
X106656470Y-112882395D01*
X106702121Y-112934831D01*
X106728050Y-112968845D01*
X106732283Y-112978255D01*
X106722312Y-113000157D01*
X106695420Y-113045000D01*
X106656136Y-113105479D01*
X106624517Y-113152011D01*
X106566498Y-113236325D01*
X106498184Y-113336174D01*
X106429979Y-113436327D01*
X106393475Y-113490173D01*
X106270200Y-113672429D01*
X106352920Y-113825419D01*
X106389159Y-113895118D01*
X106417326Y-113954386D01*
X106433391Y-113994489D01*
X106435626Y-114004697D01*
X106419122Y-114016971D01*
X106372482Y-114041187D01*
X106300009Y-114075537D01*
X106206006Y-114118212D01*
X106094774Y-114167406D01*
X105970615Y-114221310D01*
X105837832Y-114278116D01*
X105700727Y-114336018D01*
X105563602Y-114393207D01*
X105430758Y-114447876D01*
X105306498Y-114498216D01*
X105195125Y-114542420D01*
X105100939Y-114578681D01*
X105028244Y-114605191D01*
X104981341Y-114620142D01*
X104965233Y-114622546D01*
X104944686Y-114603489D01*
X104911333Y-114561764D01*
X104872102Y-114506094D01*
X104868999Y-114501422D01*
X104753823Y-114357536D01*
X104619453Y-114241517D01*
X104470184Y-114154370D01*
X104310313Y-114097101D01*
X104144137Y-114070714D01*
X103975952Y-114076215D01*
X103810055Y-114114610D01*
X103650742Y-114186905D01*
X103615887Y-114208174D01*
X103475137Y-114318804D01*
X103362114Y-114449498D01*
X103277403Y-114595736D01*
X103221594Y-114752992D01*
X103195274Y-114916743D01*
X103199030Y-115082467D01*
X103233450Y-115245638D01*
X103299123Y-115401735D01*
X103396635Y-115546233D01*
X103436213Y-115590931D01*
X103560103Y-115704688D01*
X103690524Y-115787582D01*
X103836715Y-115844444D01*
X103981488Y-115876113D01*
X104144260Y-115883931D01*
X104307840Y-115857862D01*
X104466698Y-115800555D01*
X104615306Y-115714656D01*
X104748135Y-115602814D01*
X104859656Y-115467677D01*
X104871411Y-115449917D01*
X104909908Y-115393650D01*
X104943263Y-115350877D01*
X104964560Y-115330428D01*
X104965233Y-115330131D01*
X104988271Y-115334521D01*
X105040557Y-115351924D01*
X105117790Y-115380532D01*
X105215668Y-115418535D01*
X105329891Y-115464126D01*
X105456158Y-115515497D01*
X105590167Y-115570838D01*
X105727618Y-115628342D01*
X105864208Y-115686199D01*
X105995637Y-115742602D01*
X106117605Y-115795742D01*
X106225809Y-115843810D01*
X106315949Y-115884999D01*
X106383723Y-115917499D01*
X106424830Y-115939503D01*
X106435626Y-115948364D01*
X106427219Y-115975440D01*
X106404672Y-116026103D01*
X106372013Y-116091617D01*
X106352920Y-116127641D01*
X106270200Y-116280632D01*
X106393475Y-116462888D01*
X106456628Y-116555925D01*
X106526127Y-116657785D01*
X106591565Y-116753238D01*
X106624517Y-116801050D01*
X106669673Y-116868295D01*
X106705457Y-116925236D01*
X106727338Y-116964446D01*
X106731963Y-116977181D01*
X106719485Y-116995717D01*
X106684652Y-117036741D01*
X106631078Y-117096275D01*
X106562383Y-117170342D01*
X106482181Y-117254965D01*
X106430686Y-117308485D01*
X106338686Y-117402119D01*
X106256399Y-117483041D01*
X106187345Y-117547977D01*
X106135044Y-117593658D01*
X106103016Y-117616811D01*
X106096516Y-117619032D01*
X106071794Y-117608724D01*
X106021805Y-117580239D01*
X105951612Y-117536737D01*
X105866275Y-117481377D01*
X105770856Y-117417320D01*
X105744254Y-117399103D01*
X105647567Y-117332727D01*
X105560517Y-117273178D01*
X105487995Y-117223784D01*
X105434893Y-117187875D01*
X105406103Y-117168781D01*
X105403126Y-117166936D01*
X105380182Y-117169695D01*
X105329736Y-117184338D01*
X105258441Y-117208313D01*
X105172947Y-117239066D01*
X105079907Y-117274044D01*
X104985974Y-117310693D01*
X104897799Y-117346461D01*
X104822034Y-117378794D01*
X104765331Y-117405138D01*
X104734343Y-117422942D01*
X104732857Y-117424207D01*
X104724001Y-117435094D01*
X104715243Y-117453482D01*
X104705677Y-117483406D01*
X104694396Y-117528903D01*
X104680493Y-117594009D01*
X104663063Y-117682761D01*
X104641198Y-117799193D01*
X104613991Y-117947342D01*
X104608141Y-117979418D01*
X104589774Y-118074486D01*
X104571805Y-118157365D01*
X104555969Y-118220730D01*
X104544000Y-118257258D01*
X104541210Y-118262156D01*
X104516472Y-118270227D01*
X104461190Y-118276787D01*
X104381789Y-118281833D01*
X104284696Y-118285359D01*
X104176338Y-118287361D01*
X104063140Y-118287836D01*
X103951528Y-118286777D01*
X103847929Y-118284182D01*
X103758768Y-118280046D01*
X103690472Y-118274363D01*
X103649466Y-118267131D01*
X103641074Y-118262771D01*
X103632608Y-118238498D01*
X103618835Y-118183226D01*
X103600950Y-118102462D01*
X103580148Y-118001712D01*
X103557623Y-117886483D01*
X103545818Y-117823702D01*
X103523551Y-117704587D01*
X103503379Y-117598365D01*
X103486315Y-117510227D01*
X103473369Y-117445366D01*
X103465555Y-117408974D01*
X103463822Y-117402984D01*
X103444290Y-117392861D01*
X103397243Y-117371462D01*
X103329403Y-117341639D01*
X103247491Y-117306245D01*
X103158228Y-117268132D01*
X103068335Y-117230153D01*
X102984535Y-117195160D01*
X102913547Y-117166006D01*
X102862094Y-117145543D01*
X102836897Y-117136623D01*
X102835796Y-117136457D01*
X102815919Y-117146569D01*
X102770177Y-117174917D01*
X102703117Y-117218523D01*
X102619284Y-117274406D01*
X102523226Y-117339587D01*
X102468050Y-117377479D01*
X102366881Y-117446525D01*
X102275030Y-117507850D01*
X102197144Y-117558463D01*
X102137869Y-117595371D01*
X102101851Y-117615582D01*
X102093777Y-117618501D01*
X102074984Y-117605953D01*
X102034857Y-117571263D01*
X101977893Y-117518863D01*
X101908585Y-117453184D01*
X101831431Y-117378656D01*
X101750925Y-117299713D01*
X101671563Y-117220783D01*
X101597840Y-117146300D01*
X101534252Y-117080694D01*
X101485294Y-117028396D01*
X101455461Y-116993839D01*
X101448342Y-116982278D01*
X101458353Y-116963454D01*
X101486478Y-116918431D01*
X101529854Y-116851587D01*
X101585618Y-116767299D01*
X101650906Y-116669944D01*
X101700646Y-116596507D01*
X101952951Y-116225467D01*
X101697955Y-115606895D01*
X101253331Y-115523075D01*
X100808707Y-115439254D01*
X100808707Y-114513806D01*
X101253331Y-114429986D01*
D11*
X106792780Y-120018133D02*
X107507066Y-120018133D01*
X107649923Y-120065752D01*
X107745161Y-120160990D01*
X107792780Y-120303847D01*
X107792780Y-120399085D01*
X106792780Y-119113371D02*
X106792780Y-119303847D01*
X106840400Y-119399085D01*
X106888019Y-119446704D01*
X107030876Y-119541942D01*
X107221352Y-119589561D01*
X107602304Y-119589561D01*
X107697542Y-119541942D01*
X107745161Y-119494323D01*
X107792780Y-119399085D01*
X107792780Y-119208609D01*
X107745161Y-119113371D01*
X107697542Y-119065752D01*
X107602304Y-119018133D01*
X107364209Y-119018133D01*
X107268971Y-119065752D01*
X107221352Y-119113371D01*
X107173733Y-119208609D01*
X107173733Y-119399085D01*
X107221352Y-119494323D01*
X107268971Y-119541942D01*
X107364209Y-119589561D01*
X106792780Y-108323333D02*
X107507066Y-108323333D01*
X107649923Y-108370952D01*
X107745161Y-108466190D01*
X107792780Y-108609047D01*
X107792780Y-108704285D01*
X107126114Y-107418571D02*
X107792780Y-107418571D01*
X106745161Y-107656666D02*
X107459447Y-107894761D01*
X107459447Y-107275714D01*
X106792780Y-110863333D02*
X107507066Y-110863333D01*
X107649923Y-110910952D01*
X107745161Y-111006190D01*
X107792780Y-111149047D01*
X107792780Y-111244285D01*
X106792780Y-109910952D02*
X106792780Y-110387142D01*
X107268971Y-110434761D01*
X107221352Y-110387142D01*
X107173733Y-110291904D01*
X107173733Y-110053809D01*
X107221352Y-109958571D01*
X107268971Y-109910952D01*
X107364209Y-109863333D01*
X107602304Y-109863333D01*
X107697542Y-109910952D01*
X107745161Y-109958571D01*
X107792780Y-110053809D01*
X107792780Y-110291904D01*
X107745161Y-110387142D01*
X107697542Y-110434761D01*
X167470080Y-141536933D02*
X168184366Y-141536933D01*
X168327223Y-141584552D01*
X168422461Y-141679790D01*
X168470080Y-141822647D01*
X168470080Y-141917885D01*
X167565319Y-141108361D02*
X167517700Y-141060742D01*
X167470080Y-140965504D01*
X167470080Y-140727409D01*
X167517700Y-140632171D01*
X167565319Y-140584552D01*
X167660557Y-140536933D01*
X167755795Y-140536933D01*
X167898652Y-140584552D01*
X168470080Y-141155980D01*
X168470080Y-140536933D01*
X106792780Y-134819923D02*
X107507066Y-134819923D01*
X107649923Y-134867542D01*
X107745161Y-134962780D01*
X107792780Y-135105638D01*
X107792780Y-135200876D01*
X107792780Y-133819923D02*
X107792780Y-134391352D01*
X107792780Y-134105638D02*
X106792780Y-134105638D01*
X106935638Y-134200876D01*
X107030876Y-134296114D01*
X107078495Y-134391352D01*
X106792780Y-133200876D02*
X106792780Y-133105638D01*
X106840400Y-133010400D01*
X106888019Y-132962780D01*
X106983257Y-132915161D01*
X107173733Y-132867542D01*
X107411828Y-132867542D01*
X107602304Y-132915161D01*
X107697542Y-132962780D01*
X107745161Y-133010400D01*
X107792780Y-133105638D01*
X107792780Y-133200876D01*
X107745161Y-133296114D01*
X107697542Y-133343733D01*
X107602304Y-133391352D01*
X107411828Y-133438971D01*
X107173733Y-133438971D01*
X106983257Y-133391352D01*
X106888019Y-133343733D01*
X106840400Y-133296114D01*
X106792780Y-133200876D01*
X106792780Y-131473533D02*
X107507066Y-131473533D01*
X107649923Y-131521152D01*
X107745161Y-131616390D01*
X107792780Y-131759247D01*
X107792780Y-131854485D01*
X107792780Y-130949723D02*
X107792780Y-130759247D01*
X107745161Y-130664009D01*
X107697542Y-130616390D01*
X107554685Y-130521152D01*
X107364209Y-130473533D01*
X106983257Y-130473533D01*
X106888019Y-130521152D01*
X106840400Y-130568771D01*
X106792780Y-130664009D01*
X106792780Y-130854485D01*
X106840400Y-130949723D01*
X106888019Y-130997342D01*
X106983257Y-131044961D01*
X107221352Y-131044961D01*
X107316590Y-130997342D01*
X107364209Y-130949723D01*
X107411828Y-130854485D01*
X107411828Y-130664009D01*
X107364209Y-130568771D01*
X107316590Y-130521152D01*
X107221352Y-130473533D01*
X106792780Y-128882733D02*
X107507066Y-128882733D01*
X107649923Y-128930352D01*
X107745161Y-129025590D01*
X107792780Y-129168447D01*
X107792780Y-129263685D01*
X107221352Y-128263685D02*
X107173733Y-128358923D01*
X107126114Y-128406542D01*
X107030876Y-128454161D01*
X106983257Y-128454161D01*
X106888019Y-128406542D01*
X106840400Y-128358923D01*
X106792780Y-128263685D01*
X106792780Y-128073209D01*
X106840400Y-127977971D01*
X106888019Y-127930352D01*
X106983257Y-127882733D01*
X107030876Y-127882733D01*
X107126114Y-127930352D01*
X107173733Y-127977971D01*
X107221352Y-128073209D01*
X107221352Y-128263685D01*
X107268971Y-128358923D01*
X107316590Y-128406542D01*
X107411828Y-128454161D01*
X107602304Y-128454161D01*
X107697542Y-128406542D01*
X107745161Y-128358923D01*
X107792780Y-128263685D01*
X107792780Y-128073209D01*
X107745161Y-127977971D01*
X107697542Y-127930352D01*
X107602304Y-127882733D01*
X107411828Y-127882733D01*
X107316590Y-127930352D01*
X107268971Y-127977971D01*
X107221352Y-128073209D01*
X106792780Y-105908433D02*
X107507066Y-105908433D01*
X107649923Y-105956052D01*
X107745161Y-106051290D01*
X107792780Y-106194147D01*
X107792780Y-106289385D01*
X106792780Y-105527480D02*
X106792780Y-104908433D01*
X107173733Y-105241766D01*
X107173733Y-105098909D01*
X107221352Y-105003671D01*
X107268971Y-104956052D01*
X107364209Y-104908433D01*
X107602304Y-104908433D01*
X107697542Y-104956052D01*
X107745161Y-105003671D01*
X107792780Y-105098909D01*
X107792780Y-105384623D01*
X107745161Y-105479861D01*
X107697542Y-105527480D01*
X106792780Y-122012033D02*
X107507066Y-122012033D01*
X107649923Y-122059652D01*
X107745161Y-122154890D01*
X107792780Y-122297747D01*
X107792780Y-122392985D01*
X106792780Y-121631080D02*
X106792780Y-120964414D01*
X107792780Y-121392985D01*
X167711380Y-108067433D02*
X168425666Y-108067433D01*
X168568523Y-108115052D01*
X168663761Y-108210290D01*
X168711380Y-108353147D01*
X168711380Y-108448385D01*
X168711380Y-107067433D02*
X168711380Y-107638861D01*
X168711380Y-107353147D02*
X167711380Y-107353147D01*
X167854238Y-107448385D01*
X167949476Y-107543623D01*
X167997095Y-107638861D01*
%LPC*%
D14*
X158520000Y-120690000D03*
X155980000Y-120690000D03*
X153440000Y-120690000D03*
X150900000Y-120690000D03*
X148360000Y-120690000D03*
X145820000Y-120690000D03*
X143280000Y-120690000D03*
X140740000Y-120690000D03*
X138200000Y-120690000D03*
X135660000Y-120690000D03*
X133120000Y-120690000D03*
X130580000Y-120690000D03*
X128040000Y-120690000D03*
X125500000Y-120690000D03*
X122960000Y-120690000D03*
X120420000Y-120690000D03*
X117880000Y-120690000D03*
X115340000Y-120690000D03*
X112800000Y-120690000D03*
D15*
X110260000Y-120690000D03*
D14*
X158520000Y-107990000D03*
X155980000Y-107990000D03*
X153440000Y-107990000D03*
X150900000Y-107990000D03*
X148360000Y-107990000D03*
X145820000Y-107990000D03*
X143280000Y-107990000D03*
X140740000Y-107990000D03*
X138200000Y-107990000D03*
X135660000Y-107990000D03*
X133120000Y-107990000D03*
X130580000Y-107990000D03*
X128040000Y-107990000D03*
X125500000Y-107990000D03*
X122960000Y-107990000D03*
X120420000Y-107990000D03*
X117880000Y-107990000D03*
X115340000Y-107990000D03*
X112800000Y-107990000D03*
D15*
X110260000Y-107990000D03*
D14*
X158520000Y-110530000D03*
X155980000Y-110530000D03*
X153440000Y-110530000D03*
X150900000Y-110530000D03*
X148360000Y-110530000D03*
X145820000Y-110530000D03*
X143280000Y-110530000D03*
X140740000Y-110530000D03*
X138200000Y-110530000D03*
X135660000Y-110530000D03*
X133120000Y-110530000D03*
X130580000Y-110530000D03*
X128040000Y-110530000D03*
X125500000Y-110530000D03*
X122960000Y-110530000D03*
X120420000Y-110530000D03*
X117880000Y-110530000D03*
X115340000Y-110530000D03*
X112800000Y-110530000D03*
D15*
X110260000Y-110530000D03*
D16*
X110260000Y-113070000D03*
D17*
X168000000Y-130800000D03*
X168000000Y-134300000D03*
D18*
X168000000Y-137800000D03*
D16*
X158520000Y-125770000D03*
X155980000Y-125770000D03*
X153440000Y-125770000D03*
X150900000Y-125770000D03*
X148360000Y-125770000D03*
X145820000Y-125770000D03*
X143280000Y-125770000D03*
X140740000Y-125770000D03*
X138200000Y-125770000D03*
X135660000Y-125770000D03*
X133120000Y-125770000D03*
X130580000Y-125770000D03*
X128040000Y-125770000D03*
X125500000Y-125770000D03*
X122960000Y-125770000D03*
X120420000Y-125770000D03*
X117880000Y-125770000D03*
X115340000Y-125770000D03*
X112800000Y-125770000D03*
X110260000Y-125770000D03*
D19*
X112500000Y-144500000D03*
D16*
X158520000Y-143550000D03*
X155980000Y-143550000D03*
X153440000Y-143550000D03*
X150900000Y-143550000D03*
X148360000Y-143550000D03*
X145820000Y-143550000D03*
X143280000Y-143550000D03*
X140740000Y-143550000D03*
X138200000Y-143550000D03*
X135660000Y-143550000D03*
X133120000Y-143550000D03*
X130580000Y-143550000D03*
X128040000Y-143550000D03*
X125500000Y-143550000D03*
X122960000Y-143550000D03*
X120420000Y-143550000D03*
X158520000Y-141010000D03*
X155980000Y-141010000D03*
X153440000Y-141010000D03*
X150900000Y-141010000D03*
X148360000Y-141010000D03*
X145820000Y-141010000D03*
X143280000Y-141010000D03*
X140740000Y-141010000D03*
X138200000Y-141010000D03*
X135660000Y-141010000D03*
X133120000Y-141010000D03*
X130580000Y-141010000D03*
X128040000Y-141010000D03*
X125500000Y-141010000D03*
X122960000Y-141010000D03*
X120420000Y-141010000D03*
X158520000Y-138470000D03*
X155980000Y-138470000D03*
X153440000Y-138470000D03*
X150900000Y-138470000D03*
X148360000Y-138470000D03*
X145820000Y-138470000D03*
X143280000Y-138470000D03*
X140740000Y-138470000D03*
X138200000Y-138470000D03*
X135660000Y-138470000D03*
X133120000Y-138470000D03*
X130580000Y-138470000D03*
X128040000Y-138470000D03*
X125500000Y-138470000D03*
X122960000Y-138470000D03*
X120420000Y-138470000D03*
X117880000Y-138470000D03*
X115340000Y-138470000D03*
X112800000Y-138470000D03*
X110260000Y-138470000D03*
X158520000Y-135930000D03*
X155980000Y-135930000D03*
X153440000Y-135930000D03*
X150900000Y-135930000D03*
X148360000Y-135930000D03*
X145820000Y-135930000D03*
X143280000Y-135930000D03*
X140740000Y-135930000D03*
X138200000Y-135930000D03*
X135660000Y-135930000D03*
X133120000Y-135930000D03*
X130580000Y-135930000D03*
X128040000Y-135930000D03*
X125500000Y-135930000D03*
X122960000Y-135930000D03*
X120420000Y-135930000D03*
X117880000Y-135930000D03*
X115340000Y-135930000D03*
X112800000Y-135930000D03*
X110260000Y-135930000D03*
D19*
X162500000Y-104500000D03*
D16*
X158520000Y-118150000D03*
X155980000Y-118150000D03*
X153440000Y-118150000D03*
X150900000Y-118150000D03*
X148360000Y-118150000D03*
X145820000Y-118150000D03*
X143280000Y-118150000D03*
X140740000Y-118150000D03*
X138200000Y-118150000D03*
X135660000Y-118150000D03*
X133120000Y-118150000D03*
X130580000Y-118150000D03*
X128040000Y-118150000D03*
X125500000Y-118150000D03*
X122960000Y-118150000D03*
X120420000Y-118150000D03*
X117880000Y-118150000D03*
X115340000Y-118150000D03*
X112800000Y-118150000D03*
X110260000Y-118150000D03*
X158520000Y-115610000D03*
X155980000Y-115610000D03*
X153440000Y-115610000D03*
X150900000Y-115610000D03*
X148360000Y-115610000D03*
X145820000Y-115610000D03*
X143280000Y-115610000D03*
X140740000Y-115610000D03*
X138200000Y-115610000D03*
X135660000Y-115610000D03*
X133120000Y-115610000D03*
X130580000Y-115610000D03*
X128040000Y-115610000D03*
X125500000Y-115610000D03*
X122960000Y-115610000D03*
X120420000Y-115610000D03*
X117880000Y-115610000D03*
X115340000Y-115610000D03*
X112800000Y-115610000D03*
X110260000Y-115610000D03*
X158520000Y-113070000D03*
X155980000Y-113070000D03*
X153440000Y-113070000D03*
X150900000Y-113070000D03*
X148360000Y-113070000D03*
X145820000Y-113070000D03*
X143280000Y-113070000D03*
X140740000Y-113070000D03*
X138200000Y-113070000D03*
X135660000Y-113070000D03*
X133120000Y-113070000D03*
X130580000Y-113070000D03*
X128040000Y-113070000D03*
X125500000Y-113070000D03*
X122960000Y-113070000D03*
X120420000Y-113070000D03*
X117880000Y-113070000D03*
X115340000Y-113070000D03*
X112800000Y-113070000D03*
X110260000Y-102910000D03*
X112800000Y-102910000D03*
X115340000Y-102910000D03*
X117880000Y-102910000D03*
X120420000Y-102910000D03*
X122960000Y-102910000D03*
X122960000Y-146090000D03*
X120420000Y-146090000D03*
X158520000Y-146090000D03*
X155980000Y-146090000D03*
X138200000Y-146090000D03*
X145820000Y-146090000D03*
X140740000Y-146090000D03*
X135660000Y-146090000D03*
X133120000Y-146090000D03*
X130580000Y-146090000D03*
X128040000Y-146090000D03*
X125500000Y-146090000D03*
X143280000Y-146090000D03*
X148360000Y-146090000D03*
X153440000Y-146090000D03*
X150900000Y-146090000D03*
D14*
X158520000Y-133390000D03*
X155980000Y-133390000D03*
X153440000Y-133390000D03*
X150900000Y-133390000D03*
X148360000Y-133390000D03*
X145820000Y-133390000D03*
X143280000Y-133390000D03*
X140740000Y-133390000D03*
X138200000Y-133390000D03*
X135660000Y-133390000D03*
X133120000Y-133390000D03*
X130580000Y-133390000D03*
X128040000Y-133390000D03*
X125500000Y-133390000D03*
X122960000Y-133390000D03*
X120420000Y-133390000D03*
X117880000Y-133390000D03*
X115340000Y-133390000D03*
X112800000Y-133390000D03*
D15*
X110260000Y-133390000D03*
D14*
X158520000Y-130850000D03*
X155980000Y-130850000D03*
X153440000Y-130850000D03*
X150900000Y-130850000D03*
X148360000Y-130850000D03*
X145820000Y-130850000D03*
X143280000Y-130850000D03*
X140740000Y-130850000D03*
X138200000Y-130850000D03*
X135660000Y-130850000D03*
X133120000Y-130850000D03*
X130580000Y-130850000D03*
X128040000Y-130850000D03*
X125500000Y-130850000D03*
X122960000Y-130850000D03*
X120420000Y-130850000D03*
X117880000Y-130850000D03*
X115340000Y-130850000D03*
X112800000Y-130850000D03*
D15*
X110260000Y-130850000D03*
D14*
X158520000Y-128310000D03*
X155980000Y-128310000D03*
X153440000Y-128310000D03*
X150900000Y-128310000D03*
X148360000Y-128310000D03*
X145820000Y-128310000D03*
X143280000Y-128310000D03*
X140740000Y-128310000D03*
X138200000Y-128310000D03*
X135660000Y-128310000D03*
X133120000Y-128310000D03*
X130580000Y-128310000D03*
X128040000Y-128310000D03*
X125500000Y-128310000D03*
X122960000Y-128310000D03*
X120420000Y-128310000D03*
X117880000Y-128310000D03*
X115340000Y-128310000D03*
X112800000Y-128310000D03*
D15*
X110260000Y-128310000D03*
D14*
X158520000Y-105450000D03*
X155980000Y-105450000D03*
X153440000Y-105450000D03*
X150900000Y-105450000D03*
X148360000Y-105450000D03*
X145820000Y-105450000D03*
X143280000Y-105450000D03*
X140740000Y-105450000D03*
X138200000Y-105450000D03*
X135660000Y-105450000D03*
X133120000Y-105450000D03*
X130580000Y-105450000D03*
X128040000Y-105450000D03*
X125500000Y-105450000D03*
X122960000Y-105450000D03*
X120420000Y-105450000D03*
X117880000Y-105450000D03*
X115340000Y-105450000D03*
X112800000Y-105450000D03*
D15*
X110260000Y-105450000D03*
D14*
X158520000Y-123230000D03*
X155980000Y-123230000D03*
X153440000Y-123230000D03*
X150900000Y-123230000D03*
X148360000Y-123230000D03*
X145820000Y-123230000D03*
X143280000Y-123230000D03*
X140740000Y-123230000D03*
X138200000Y-123230000D03*
X135660000Y-123230000D03*
X133120000Y-123230000D03*
X130580000Y-123230000D03*
X128040000Y-123230000D03*
X125500000Y-123230000D03*
X122960000Y-123230000D03*
X120420000Y-123230000D03*
X117880000Y-123230000D03*
X115340000Y-123230000D03*
X112800000Y-123230000D03*
D15*
X110260000Y-123230000D03*
D20*
X162600000Y-125770000D03*
X162600000Y-123230000D03*
D16*
X145820000Y-102910000D03*
X158520000Y-102910000D03*
X155980000Y-102910000D03*
X153440000Y-102910000D03*
X150900000Y-102910000D03*
X148360000Y-102910000D03*
D17*
X168000000Y-111200000D03*
X168000000Y-114700000D03*
D18*
X168000000Y-118200000D03*
D16*
X161060000Y-114700000D03*
X161060000Y-137800000D03*
X161060000Y-134300000D03*
X161060000Y-130800000D03*
X161060000Y-118200000D03*
X161060000Y-111200000D03*
X143280000Y-102910000D03*
X140740000Y-102910000D03*
X138200000Y-102910000D03*
X135660000Y-102910000D03*
X133120000Y-102910000D03*
X130580000Y-102910000D03*
X128040000Y-102910000D03*
X125500000Y-102910000D03*
D19*
X162500000Y-144500000D03*
X105500000Y-124500000D03*
X169500000Y-124500000D03*
M02*
