G04 #@! TF.GenerationSoftware,KiCad,Pcbnew,5.1.5+dfsg1-2build2*
G04 #@! TF.CreationDate,2022-02-15T20:53:46-05:00*
G04 #@! TF.ProjectId,MCU_PROTO_83x58mm,4d43555f-5052-44f5-944f-5f3833783538,rev?*
G04 #@! TF.SameCoordinates,Original*
G04 #@! TF.FileFunction,Legend,Bot*
G04 #@! TF.FilePolarity,Positive*
%FSLAX46Y46*%
G04 Gerber Fmt 4.6, Leading zero omitted, Abs format (unit mm)*
G04 Created by KiCad (PCBNEW 5.1.5+dfsg1-2build2) date 2022-02-15 20:53:46*
%MOMM*%
%LPD*%
G04 APERTURE LIST*
%ADD10C,0.150000*%
%ADD11O,1.802000X1.802000*%
%ADD12R,1.802000X1.802000*%
%ADD13C,2.102000*%
%ADD14C,2.502000*%
%ADD15R,2.502000X2.502000*%
%ADD16C,3.102000*%
%ADD17C,2.100980*%
G04 APERTURE END LIST*
D10*
X104336804Y-128080319D02*
X103536804Y-128080319D01*
X104108233Y-128346985D01*
X103536804Y-128613652D01*
X104336804Y-128613652D01*
X104260614Y-129451747D02*
X104298709Y-129413652D01*
X104336804Y-129299366D01*
X104336804Y-129223176D01*
X104298709Y-129108890D01*
X104222519Y-129032700D01*
X104146328Y-128994604D01*
X103993947Y-128956509D01*
X103879661Y-128956509D01*
X103727280Y-128994604D01*
X103651090Y-129032700D01*
X103574900Y-129108890D01*
X103536804Y-129223176D01*
X103536804Y-129299366D01*
X103574900Y-129413652D01*
X103612995Y-129451747D01*
X103536804Y-129794604D02*
X104184423Y-129794604D01*
X104260614Y-129832700D01*
X104298709Y-129870795D01*
X104336804Y-129946985D01*
X104336804Y-130099366D01*
X104298709Y-130175557D01*
X104260614Y-130213652D01*
X104184423Y-130251747D01*
X103536804Y-130251747D01*
X104336804Y-131242223D02*
X103536804Y-131242223D01*
X103536804Y-131546985D01*
X103574900Y-131623176D01*
X103612995Y-131661271D01*
X103689185Y-131699366D01*
X103803471Y-131699366D01*
X103879661Y-131661271D01*
X103917757Y-131623176D01*
X103955852Y-131546985D01*
X103955852Y-131242223D01*
X104336804Y-132499366D02*
X103955852Y-132232700D01*
X104336804Y-132042223D02*
X103536804Y-132042223D01*
X103536804Y-132346985D01*
X103574900Y-132423176D01*
X103612995Y-132461271D01*
X103689185Y-132499366D01*
X103803471Y-132499366D01*
X103879661Y-132461271D01*
X103917757Y-132423176D01*
X103955852Y-132346985D01*
X103955852Y-132042223D01*
X103536804Y-132994604D02*
X103536804Y-133146985D01*
X103574900Y-133223176D01*
X103651090Y-133299366D01*
X103803471Y-133337461D01*
X104070138Y-133337461D01*
X104222519Y-133299366D01*
X104298709Y-133223176D01*
X104336804Y-133146985D01*
X104336804Y-132994604D01*
X104298709Y-132918414D01*
X104222519Y-132842223D01*
X104070138Y-132804128D01*
X103803471Y-132804128D01*
X103651090Y-132842223D01*
X103574900Y-132918414D01*
X103536804Y-132994604D01*
X103536804Y-133566033D02*
X103536804Y-134023176D01*
X104336804Y-133794604D02*
X103536804Y-133794604D01*
X103536804Y-134442223D02*
X103536804Y-134594604D01*
X103574900Y-134670795D01*
X103651090Y-134746985D01*
X103803471Y-134785080D01*
X104070138Y-134785080D01*
X104222519Y-134746985D01*
X104298709Y-134670795D01*
X104336804Y-134594604D01*
X104336804Y-134442223D01*
X104298709Y-134366033D01*
X104222519Y-134289842D01*
X104070138Y-134251747D01*
X103803471Y-134251747D01*
X103651090Y-134289842D01*
X103574900Y-134366033D01*
X103536804Y-134442223D01*
X103879661Y-135851747D02*
X103841566Y-135775557D01*
X103803471Y-135737461D01*
X103727280Y-135699366D01*
X103689185Y-135699366D01*
X103612995Y-135737461D01*
X103574900Y-135775557D01*
X103536804Y-135851747D01*
X103536804Y-136004128D01*
X103574900Y-136080319D01*
X103612995Y-136118414D01*
X103689185Y-136156509D01*
X103727280Y-136156509D01*
X103803471Y-136118414D01*
X103841566Y-136080319D01*
X103879661Y-136004128D01*
X103879661Y-135851747D01*
X103917757Y-135775557D01*
X103955852Y-135737461D01*
X104032042Y-135699366D01*
X104184423Y-135699366D01*
X104260614Y-135737461D01*
X104298709Y-135775557D01*
X104336804Y-135851747D01*
X104336804Y-136004128D01*
X104298709Y-136080319D01*
X104260614Y-136118414D01*
X104184423Y-136156509D01*
X104032042Y-136156509D01*
X103955852Y-136118414D01*
X103917757Y-136080319D01*
X103879661Y-136004128D01*
X103536804Y-136423176D02*
X103536804Y-136918414D01*
X103841566Y-136651747D01*
X103841566Y-136766033D01*
X103879661Y-136842223D01*
X103917757Y-136880319D01*
X103993947Y-136918414D01*
X104184423Y-136918414D01*
X104260614Y-136880319D01*
X104298709Y-136842223D01*
X104336804Y-136766033D01*
X104336804Y-136537461D01*
X104298709Y-136461271D01*
X104260614Y-136423176D01*
X104336804Y-137185080D02*
X103803471Y-137604128D01*
X103803471Y-137185080D02*
X104336804Y-137604128D01*
X103536804Y-138289842D02*
X103536804Y-137908890D01*
X103917757Y-137870795D01*
X103879661Y-137908890D01*
X103841566Y-137985080D01*
X103841566Y-138175557D01*
X103879661Y-138251747D01*
X103917757Y-138289842D01*
X103993947Y-138327938D01*
X104184423Y-138327938D01*
X104260614Y-138289842D01*
X104298709Y-138251747D01*
X104336804Y-138175557D01*
X104336804Y-137985080D01*
X104298709Y-137908890D01*
X104260614Y-137870795D01*
X103879661Y-138785080D02*
X103841566Y-138708890D01*
X103803471Y-138670795D01*
X103727280Y-138632700D01*
X103689185Y-138632700D01*
X103612995Y-138670795D01*
X103574900Y-138708890D01*
X103536804Y-138785080D01*
X103536804Y-138937461D01*
X103574900Y-139013652D01*
X103612995Y-139051747D01*
X103689185Y-139089842D01*
X103727280Y-139089842D01*
X103803471Y-139051747D01*
X103841566Y-139013652D01*
X103879661Y-138937461D01*
X103879661Y-138785080D01*
X103917757Y-138708890D01*
X103955852Y-138670795D01*
X104032042Y-138632700D01*
X104184423Y-138632700D01*
X104260614Y-138670795D01*
X104298709Y-138708890D01*
X104336804Y-138785080D01*
X104336804Y-138937461D01*
X104298709Y-139013652D01*
X104260614Y-139051747D01*
X104184423Y-139089842D01*
X104032042Y-139089842D01*
X103955852Y-139051747D01*
X103917757Y-139013652D01*
X103879661Y-138937461D01*
X104336804Y-139432700D02*
X103803471Y-139432700D01*
X103879661Y-139432700D02*
X103841566Y-139470795D01*
X103803471Y-139546985D01*
X103803471Y-139661271D01*
X103841566Y-139737461D01*
X103917757Y-139775557D01*
X104336804Y-139775557D01*
X103917757Y-139775557D02*
X103841566Y-139813652D01*
X103803471Y-139889842D01*
X103803471Y-140004128D01*
X103841566Y-140080319D01*
X103917757Y-140118414D01*
X104336804Y-140118414D01*
X104336804Y-140499366D02*
X103803471Y-140499366D01*
X103879661Y-140499366D02*
X103841566Y-140537461D01*
X103803471Y-140613652D01*
X103803471Y-140727938D01*
X103841566Y-140804128D01*
X103917757Y-140842223D01*
X104336804Y-140842223D01*
X103917757Y-140842223D02*
X103841566Y-140880319D01*
X103803471Y-140956509D01*
X103803471Y-141070795D01*
X103841566Y-141146985D01*
X103917757Y-141185080D01*
X104336804Y-141185080D01*
%LPC*%
D11*
X158520000Y-120690000D03*
X155980000Y-120690000D03*
X153440000Y-120690000D03*
X150900000Y-120690000D03*
X148360000Y-120690000D03*
X145820000Y-120690000D03*
X143280000Y-120690000D03*
X140740000Y-120690000D03*
X138200000Y-120690000D03*
X135660000Y-120690000D03*
X133120000Y-120690000D03*
X130580000Y-120690000D03*
X128040000Y-120690000D03*
X125500000Y-120690000D03*
X122960000Y-120690000D03*
X120420000Y-120690000D03*
X117880000Y-120690000D03*
X115340000Y-120690000D03*
X112800000Y-120690000D03*
D12*
X110260000Y-120690000D03*
D11*
X158520000Y-107990000D03*
X155980000Y-107990000D03*
X153440000Y-107990000D03*
X150900000Y-107990000D03*
X148360000Y-107990000D03*
X145820000Y-107990000D03*
X143280000Y-107990000D03*
X140740000Y-107990000D03*
X138200000Y-107990000D03*
X135660000Y-107990000D03*
X133120000Y-107990000D03*
X130580000Y-107990000D03*
X128040000Y-107990000D03*
X125500000Y-107990000D03*
X122960000Y-107990000D03*
X120420000Y-107990000D03*
X117880000Y-107990000D03*
X115340000Y-107990000D03*
X112800000Y-107990000D03*
D12*
X110260000Y-107990000D03*
D11*
X158520000Y-110530000D03*
X155980000Y-110530000D03*
X153440000Y-110530000D03*
X150900000Y-110530000D03*
X148360000Y-110530000D03*
X145820000Y-110530000D03*
X143280000Y-110530000D03*
X140740000Y-110530000D03*
X138200000Y-110530000D03*
X135660000Y-110530000D03*
X133120000Y-110530000D03*
X130580000Y-110530000D03*
X128040000Y-110530000D03*
X125500000Y-110530000D03*
X122960000Y-110530000D03*
X120420000Y-110530000D03*
X117880000Y-110530000D03*
X115340000Y-110530000D03*
X112800000Y-110530000D03*
D12*
X110260000Y-110530000D03*
D13*
X110260000Y-113070000D03*
D14*
X168000000Y-130800000D03*
X168000000Y-134300000D03*
D15*
X168000000Y-137800000D03*
D13*
X158520000Y-125770000D03*
X155980000Y-125770000D03*
X153440000Y-125770000D03*
X150900000Y-125770000D03*
X148360000Y-125770000D03*
X145820000Y-125770000D03*
X143280000Y-125770000D03*
X140740000Y-125770000D03*
X138200000Y-125770000D03*
X135660000Y-125770000D03*
X133120000Y-125770000D03*
X130580000Y-125770000D03*
X128040000Y-125770000D03*
X125500000Y-125770000D03*
X122960000Y-125770000D03*
X120420000Y-125770000D03*
X117880000Y-125770000D03*
X115340000Y-125770000D03*
X112800000Y-125770000D03*
X110260000Y-125770000D03*
D16*
X112500000Y-144500000D03*
D13*
X158520000Y-143550000D03*
X155980000Y-143550000D03*
X153440000Y-143550000D03*
X150900000Y-143550000D03*
X148360000Y-143550000D03*
X145820000Y-143550000D03*
X143280000Y-143550000D03*
X140740000Y-143550000D03*
X138200000Y-143550000D03*
X135660000Y-143550000D03*
X133120000Y-143550000D03*
X130580000Y-143550000D03*
X128040000Y-143550000D03*
X125500000Y-143550000D03*
X122960000Y-143550000D03*
X120420000Y-143550000D03*
X158520000Y-141010000D03*
X155980000Y-141010000D03*
X153440000Y-141010000D03*
X150900000Y-141010000D03*
X148360000Y-141010000D03*
X145820000Y-141010000D03*
X143280000Y-141010000D03*
X140740000Y-141010000D03*
X138200000Y-141010000D03*
X135660000Y-141010000D03*
X133120000Y-141010000D03*
X130580000Y-141010000D03*
X128040000Y-141010000D03*
X125500000Y-141010000D03*
X122960000Y-141010000D03*
X120420000Y-141010000D03*
X158520000Y-138470000D03*
X155980000Y-138470000D03*
X153440000Y-138470000D03*
X150900000Y-138470000D03*
X148360000Y-138470000D03*
X145820000Y-138470000D03*
X143280000Y-138470000D03*
X140740000Y-138470000D03*
X138200000Y-138470000D03*
X135660000Y-138470000D03*
X133120000Y-138470000D03*
X130580000Y-138470000D03*
X128040000Y-138470000D03*
X125500000Y-138470000D03*
X122960000Y-138470000D03*
X120420000Y-138470000D03*
X117880000Y-138470000D03*
X115340000Y-138470000D03*
X112800000Y-138470000D03*
X110260000Y-138470000D03*
X158520000Y-135930000D03*
X155980000Y-135930000D03*
X153440000Y-135930000D03*
X150900000Y-135930000D03*
X148360000Y-135930000D03*
X145820000Y-135930000D03*
X143280000Y-135930000D03*
X140740000Y-135930000D03*
X138200000Y-135930000D03*
X135660000Y-135930000D03*
X133120000Y-135930000D03*
X130580000Y-135930000D03*
X128040000Y-135930000D03*
X125500000Y-135930000D03*
X122960000Y-135930000D03*
X120420000Y-135930000D03*
X117880000Y-135930000D03*
X115340000Y-135930000D03*
X112800000Y-135930000D03*
X110260000Y-135930000D03*
D16*
X162500000Y-104500000D03*
D13*
X158520000Y-118150000D03*
X155980000Y-118150000D03*
X153440000Y-118150000D03*
X150900000Y-118150000D03*
X148360000Y-118150000D03*
X145820000Y-118150000D03*
X143280000Y-118150000D03*
X140740000Y-118150000D03*
X138200000Y-118150000D03*
X135660000Y-118150000D03*
X133120000Y-118150000D03*
X130580000Y-118150000D03*
X128040000Y-118150000D03*
X125500000Y-118150000D03*
X122960000Y-118150000D03*
X120420000Y-118150000D03*
X117880000Y-118150000D03*
X115340000Y-118150000D03*
X112800000Y-118150000D03*
X110260000Y-118150000D03*
X158520000Y-115610000D03*
X155980000Y-115610000D03*
X153440000Y-115610000D03*
X150900000Y-115610000D03*
X148360000Y-115610000D03*
X145820000Y-115610000D03*
X143280000Y-115610000D03*
X140740000Y-115610000D03*
X138200000Y-115610000D03*
X135660000Y-115610000D03*
X133120000Y-115610000D03*
X130580000Y-115610000D03*
X128040000Y-115610000D03*
X125500000Y-115610000D03*
X122960000Y-115610000D03*
X120420000Y-115610000D03*
X117880000Y-115610000D03*
X115340000Y-115610000D03*
X112800000Y-115610000D03*
X110260000Y-115610000D03*
X158520000Y-113070000D03*
X155980000Y-113070000D03*
X153440000Y-113070000D03*
X150900000Y-113070000D03*
X148360000Y-113070000D03*
X145820000Y-113070000D03*
X143280000Y-113070000D03*
X140740000Y-113070000D03*
X138200000Y-113070000D03*
X135660000Y-113070000D03*
X133120000Y-113070000D03*
X130580000Y-113070000D03*
X128040000Y-113070000D03*
X125500000Y-113070000D03*
X122960000Y-113070000D03*
X120420000Y-113070000D03*
X117880000Y-113070000D03*
X115340000Y-113070000D03*
X112800000Y-113070000D03*
X110260000Y-102910000D03*
X112800000Y-102910000D03*
X115340000Y-102910000D03*
X117880000Y-102910000D03*
X120420000Y-102910000D03*
X122960000Y-102910000D03*
X122960000Y-146090000D03*
X120420000Y-146090000D03*
X158520000Y-146090000D03*
X155980000Y-146090000D03*
X138200000Y-146090000D03*
X145820000Y-146090000D03*
X140740000Y-146090000D03*
X135660000Y-146090000D03*
X133120000Y-146090000D03*
X130580000Y-146090000D03*
X128040000Y-146090000D03*
X125500000Y-146090000D03*
X143280000Y-146090000D03*
X148360000Y-146090000D03*
X153440000Y-146090000D03*
X150900000Y-146090000D03*
D11*
X158520000Y-133390000D03*
X155980000Y-133390000D03*
X153440000Y-133390000D03*
X150900000Y-133390000D03*
X148360000Y-133390000D03*
X145820000Y-133390000D03*
X143280000Y-133390000D03*
X140740000Y-133390000D03*
X138200000Y-133390000D03*
X135660000Y-133390000D03*
X133120000Y-133390000D03*
X130580000Y-133390000D03*
X128040000Y-133390000D03*
X125500000Y-133390000D03*
X122960000Y-133390000D03*
X120420000Y-133390000D03*
X117880000Y-133390000D03*
X115340000Y-133390000D03*
X112800000Y-133390000D03*
D12*
X110260000Y-133390000D03*
D11*
X158520000Y-130850000D03*
X155980000Y-130850000D03*
X153440000Y-130850000D03*
X150900000Y-130850000D03*
X148360000Y-130850000D03*
X145820000Y-130850000D03*
X143280000Y-130850000D03*
X140740000Y-130850000D03*
X138200000Y-130850000D03*
X135660000Y-130850000D03*
X133120000Y-130850000D03*
X130580000Y-130850000D03*
X128040000Y-130850000D03*
X125500000Y-130850000D03*
X122960000Y-130850000D03*
X120420000Y-130850000D03*
X117880000Y-130850000D03*
X115340000Y-130850000D03*
X112800000Y-130850000D03*
D12*
X110260000Y-130850000D03*
D11*
X158520000Y-128310000D03*
X155980000Y-128310000D03*
X153440000Y-128310000D03*
X150900000Y-128310000D03*
X148360000Y-128310000D03*
X145820000Y-128310000D03*
X143280000Y-128310000D03*
X140740000Y-128310000D03*
X138200000Y-128310000D03*
X135660000Y-128310000D03*
X133120000Y-128310000D03*
X130580000Y-128310000D03*
X128040000Y-128310000D03*
X125500000Y-128310000D03*
X122960000Y-128310000D03*
X120420000Y-128310000D03*
X117880000Y-128310000D03*
X115340000Y-128310000D03*
X112800000Y-128310000D03*
D12*
X110260000Y-128310000D03*
D11*
X158520000Y-105450000D03*
X155980000Y-105450000D03*
X153440000Y-105450000D03*
X150900000Y-105450000D03*
X148360000Y-105450000D03*
X145820000Y-105450000D03*
X143280000Y-105450000D03*
X140740000Y-105450000D03*
X138200000Y-105450000D03*
X135660000Y-105450000D03*
X133120000Y-105450000D03*
X130580000Y-105450000D03*
X128040000Y-105450000D03*
X125500000Y-105450000D03*
X122960000Y-105450000D03*
X120420000Y-105450000D03*
X117880000Y-105450000D03*
X115340000Y-105450000D03*
X112800000Y-105450000D03*
D12*
X110260000Y-105450000D03*
D11*
X158520000Y-123230000D03*
X155980000Y-123230000D03*
X153440000Y-123230000D03*
X150900000Y-123230000D03*
X148360000Y-123230000D03*
X145820000Y-123230000D03*
X143280000Y-123230000D03*
X140740000Y-123230000D03*
X138200000Y-123230000D03*
X135660000Y-123230000D03*
X133120000Y-123230000D03*
X130580000Y-123230000D03*
X128040000Y-123230000D03*
X125500000Y-123230000D03*
X122960000Y-123230000D03*
X120420000Y-123230000D03*
X117880000Y-123230000D03*
X115340000Y-123230000D03*
X112800000Y-123230000D03*
D12*
X110260000Y-123230000D03*
D17*
X162600000Y-125770000D03*
X162600000Y-123230000D03*
D13*
X145820000Y-102910000D03*
X158520000Y-102910000D03*
X155980000Y-102910000D03*
X153440000Y-102910000D03*
X150900000Y-102910000D03*
X148360000Y-102910000D03*
D14*
X168000000Y-111200000D03*
X168000000Y-114700000D03*
D15*
X168000000Y-118200000D03*
D13*
X161060000Y-114700000D03*
X161060000Y-137800000D03*
X161060000Y-134300000D03*
X161060000Y-130800000D03*
X161060000Y-118200000D03*
X161060000Y-111200000D03*
X143280000Y-102910000D03*
X140740000Y-102910000D03*
X138200000Y-102910000D03*
X135660000Y-102910000D03*
X133120000Y-102910000D03*
X130580000Y-102910000D03*
X128040000Y-102910000D03*
X125500000Y-102910000D03*
D16*
X162500000Y-144500000D03*
X105500000Y-124500000D03*
X169500000Y-124500000D03*
M02*
