M48
; DRILL file {KiCad 5.1.5+dfsg1-2build2} date mar 16 nov 2021 14:37:11
; FORMAT={-:-/ absolute / metric / decimal}
; #@! TF.CreationDate,2021-11-16T14:37:11-05:00
; #@! TF.GenerationSoftware,Kicad,Pcbnew,5.1.5+dfsg1-2build2
; #@! TF.FileFunction,Plated,1,2,PTH
FMAT,2
METRIC
T1C0.800
T2C1.000
T3C1.200
%
G90
G05
T1
X162.6Y-123.23
X162.6Y-125.77
T2
X109.26Y-125.77
X111.8Y-125.77
X114.34Y-125.77
X116.88Y-125.77
X119.42Y-125.77
X121.96Y-125.77
X124.5Y-125.77
X127.04Y-125.77
X129.58Y-125.77
X132.12Y-125.77
X134.66Y-125.77
X137.2Y-125.77
X139.74Y-125.77
X142.28Y-125.77
X144.82Y-125.77
X147.36Y-125.77
X149.9Y-125.77
X152.44Y-125.77
X154.98Y-125.77
X157.52Y-125.77
X109.26Y-130.85
X111.8Y-130.85
X114.34Y-130.85
X116.88Y-130.85
X119.42Y-130.85
X121.96Y-130.85
X124.5Y-130.85
X127.04Y-130.85
X129.58Y-130.85
X132.12Y-130.85
X134.66Y-130.85
X137.2Y-130.85
X139.74Y-130.85
X142.28Y-130.85
X144.82Y-130.85
X147.36Y-130.85
X149.9Y-130.85
X152.44Y-130.85
X154.98Y-130.85
X157.52Y-130.85
X109.26Y-105.45
X111.8Y-105.45
X114.34Y-105.45
X116.88Y-105.45
X119.42Y-105.45
X121.96Y-105.45
X124.5Y-105.45
X127.04Y-105.45
X129.58Y-105.45
X132.12Y-105.45
X134.66Y-105.45
X137.2Y-105.45
X139.74Y-105.45
X142.28Y-105.45
X144.82Y-105.45
X147.36Y-105.45
X149.9Y-105.45
X152.44Y-105.45
X154.98Y-105.45
X157.52Y-105.45
X109.26Y-133.39
X111.8Y-133.39
X114.34Y-133.39
X116.88Y-133.39
X119.42Y-133.39
X121.96Y-133.39
X124.5Y-133.39
X127.04Y-133.39
X129.58Y-133.39
X132.12Y-133.39
X134.66Y-133.39
X137.2Y-133.39
X139.74Y-133.39
X142.28Y-133.39
X144.82Y-133.39
X147.36Y-133.39
X149.9Y-133.39
X152.44Y-133.39
X154.98Y-133.39
X157.52Y-133.39
X109.26Y-123.23
X111.8Y-123.23
X114.34Y-123.23
X116.88Y-123.23
X119.42Y-123.23
X121.96Y-123.23
X124.5Y-123.23
X127.04Y-123.23
X129.58Y-123.23
X132.12Y-123.23
X134.66Y-123.23
X137.2Y-123.23
X139.74Y-123.23
X142.28Y-123.23
X144.82Y-123.23
X147.36Y-123.23
X149.9Y-123.23
X152.44Y-123.23
X154.98Y-123.23
X157.52Y-123.23
X109.26Y-128.31
X111.8Y-128.31
X114.34Y-128.31
X116.88Y-128.31
X119.42Y-128.31
X121.96Y-128.31
X124.5Y-128.31
X127.04Y-128.31
X129.58Y-128.31
X132.12Y-128.31
X134.66Y-128.31
X137.2Y-128.31
X139.74Y-128.31
X142.28Y-128.31
X144.82Y-128.31
X147.36Y-128.31
X149.9Y-128.31
X152.44Y-128.31
X154.98Y-128.31
X157.52Y-128.31
T3
X114.34Y-118.15
X142.28Y-118.15
X124.5Y-107.99
X154.98Y-118.15
X154.98Y-141.01
X152.44Y-120.69
X121.96Y-146.09
X134.66Y-118.15
X134.66Y-143.55
X124.5Y-113.07
X157.52Y-110.53
X132.12Y-141.01
X132.12Y-110.53
X114.34Y-115.61
X147.36Y-110.53
X116.88Y-102.91
X139.74Y-138.47
X139.74Y-143.55
X160.06Y-111.2
X111.8Y-118.15
X132.12Y-146.09
X139.74Y-135.93
X157.52Y-118.15
X137.2Y-107.99
X109.26Y-102.91
X144.82Y-135.93
X152.44Y-102.91
X127.04Y-102.91
X109.26Y-118.15
X134.66Y-107.99
X132.12Y-135.93
X139.74Y-146.09
X119.42Y-107.99
X121.96Y-110.53
X114.34Y-102.91
X147.36Y-113.07
X124.5Y-118.15
X121.96Y-141.01
X149.9Y-120.69
X152.44Y-113.07
X157.52Y-135.93
X152.44Y-107.99
X142.28Y-120.69
X157.52Y-102.91
X121.96Y-120.69
X152.44Y-135.93
X154.98Y-115.61
X124.5Y-138.47
X121.96Y-143.55
X157.52Y-141.01
X134.66Y-135.93
X127.04Y-110.53
X137.2Y-138.47
X144.82Y-115.61
X127.04Y-115.61
X121.96Y-113.07
X121.96Y-135.93
X116.88Y-118.15
X160.06Y-130.8
X137.2Y-118.15
X157.52Y-115.61
X144.82Y-110.53
X111.8Y-107.99
X132.12Y-102.91
X144.82Y-141.01
X137.2Y-146.09
X111.8Y-113.07
X124.5Y-110.53
X132.12Y-107.99
X134.66Y-110.53
X129.58Y-120.69
X139.74Y-120.69
X154.98Y-107.99
X149.9Y-115.61
X129.58Y-115.61
X152.44Y-146.09
X152.44Y-143.55
X152.44Y-110.53
X147.36Y-107.99
X149.9Y-118.15
X142.28Y-146.09
X160.06Y-137.8
X114.34Y-110.53
X127.04Y-120.69
X116.88Y-135.93
X137.2Y-102.91
X139.74Y-113.07
X114.34Y-107.99
X144.82Y-138.47
X129.58Y-113.07
X116.88Y-110.53
X137.2Y-110.53
X144.82Y-102.91
X167.0Y-111.2
X167.0Y-114.7
X167.0Y-118.2
X137.2Y-143.55
X114.34Y-135.93
X147.36Y-141.01
X142.28Y-138.47
X142.28Y-141.01
X121.96Y-138.47
X149.9Y-135.93
X127.04Y-113.07
X154.98Y-113.07
X139.74Y-141.01
X119.42Y-146.09
X144.82Y-107.99
X157.52Y-120.69
X116.88Y-120.69
X149.9Y-110.53
X127.04Y-138.47
X129.58Y-110.53
X116.88Y-138.47
X127.04Y-141.01
X152.44Y-115.61
X119.42Y-102.91
X109.26Y-115.61
X142.28Y-102.91
X154.98Y-143.55
X157.52Y-138.47
X129.58Y-146.09
X139.74Y-118.15
X152.44Y-138.47
X127.04Y-135.93
X132.12Y-138.47
X114.34Y-113.07
X149.9Y-102.91
X124.5Y-102.91
X134.66Y-115.61
X154.98Y-120.69
X111.8Y-135.93
X124.5Y-120.69
X132.12Y-118.15
X132.12Y-115.61
X111.8Y-102.91
X127.04Y-107.99
X124.5Y-141.01
X139.74Y-107.99
X137.2Y-135.93
X154.98Y-110.53
X129.58Y-135.93
X142.28Y-110.53
X111.8Y-138.47
X134.66Y-141.01
X142.28Y-143.55
X119.42Y-120.69
X147.36Y-120.69
X160.06Y-118.2
X134.66Y-146.09
X127.04Y-143.55
X134.66Y-113.07
X149.9Y-138.47
X109.26Y-107.99
X152.44Y-118.15
X154.98Y-102.91
X129.58Y-102.91
X127.04Y-118.15
X129.58Y-138.47
X119.42Y-118.15
X144.82Y-146.09
X121.96Y-107.99
X109.26Y-138.47
X142.28Y-135.93
X134.66Y-138.47
X157.52Y-146.09
X119.42Y-113.07
X134.66Y-120.69
X129.58Y-143.55
X154.98Y-138.47
X144.82Y-120.69
X149.9Y-146.09
X111.8Y-115.61
X147.36Y-118.15
X114.34Y-120.69
X124.5Y-115.61
X121.96Y-118.15
X147.36Y-135.93
X109.26Y-110.53
X129.58Y-118.15
X160.06Y-134.3
X157.52Y-113.07
X111.8Y-110.53
X137.2Y-113.07
X119.42Y-141.01
X154.98Y-135.93
X121.96Y-115.61
X119.42Y-110.53
X129.58Y-107.99
X134.66Y-102.91
X132.12Y-120.69
X139.74Y-115.61
X154.98Y-146.09
X119.42Y-115.61
X142.28Y-113.07
X124.5Y-135.93
X109.26Y-113.07
X132.12Y-113.07
X109.26Y-135.93
X157.52Y-107.99
X147.36Y-143.55
X147.36Y-138.47
X147.36Y-146.09
X109.26Y-120.69
X114.34Y-138.47
X119.42Y-143.55
X142.28Y-115.61
X119.42Y-138.47
X129.58Y-141.01
X137.2Y-120.69
X149.9Y-107.99
X124.5Y-146.09
X124.5Y-143.55
X144.82Y-143.55
X152.44Y-141.01
X121.96Y-102.91
X116.88Y-115.61
X157.52Y-143.55
X139.74Y-102.91
X127.04Y-146.09
X139.74Y-110.53
X116.88Y-113.07
X149.9Y-113.07
X111.8Y-120.69
X119.42Y-135.93
X137.2Y-141.01
X116.88Y-107.99
X149.9Y-143.55
X147.36Y-102.91
X167.0Y-130.8
X167.0Y-134.3
X167.0Y-137.8
X147.36Y-115.61
X137.2Y-115.61
X144.82Y-113.07
X160.06Y-114.7
X132.12Y-143.55
X149.9Y-141.01
X142.28Y-107.99
X144.82Y-118.15
T0
M30
