<?xml version="1.0" standalone="no"?>
 <!DOCTYPE svg PUBLIC "-//W3C//DTD SVG 1.1//EN" 
 "http://www.w3.org/Graphics/SVG/1.1/DTD/svg11.dtd"> 
<svg xmlns="http://www.w3.org/2000/svg" version="1.1" 
    width="29.7002cm" height="21.0007cm" viewBox="0 0 116930 82680 ">
<title>SVG Picture created as MCU_PROTO_83x58mm-B_SilkS.svg date 2022/02/14 23:25:42 </title>
  <desc>Picture generated by PCBNEW </desc>
<g style="fill:#000000; fill-opacity:1;stroke:#000000; stroke-opacity:1;
stroke-linecap:round; stroke-linejoin:round; "
 transform="translate(0 0) scale(1 1)">
</g>
<g style="fill:#000000; fill-opacity:0.0; 
stroke:#000000; stroke-width:-0.000393701; stroke-opacity:1; 
stroke-linecap:round; stroke-linejoin:round;">
</g>
<g style="fill:#000000; fill-opacity:0.0; 
stroke:#000000; stroke-width:59.0551; stroke-opacity:1; 
stroke-linecap:round; stroke-linejoin:round;">
<g transform="rotate(-90 40935 53005)">
<text x="40935" y="53162.5"
textLength="-5232.56" font-size="-419.947" lengthAdjust="spacingAndGlyphs"
text-anchor="middle" opacity="0">MCU PROTO 83x58mm</text>
</g>
<path d="M41077 50425
L40762 50425
L40987 50530
L40762 50635
L41077 50635
" />
<path d="M41047 50965
L41062 50950
L41077 50905
L41077 50875
L41062 50830
L41032 50800
L41002 50785
L40942 50770
L40897 50770
L40837 50785
L40807 50800
L40777 50830
L40762 50875
L40762 50905
L40777 50950
L40792 50965
" />
<path d="M40762 51100
L41017 51100
L41047 51115
L41062 51130
L41077 51160
L41077 51220
L41062 51250
L41047 51265
L41017 51280
L40762 51280
" />
<path d="M41077 51670
L40762 51670
L40762 51790
L40777 51820
L40792 51835
L40822 51850
L40867 51850
L40897 51835
L40912 51820
L40927 51790
L40927 51670
" />
<path d="M41077 52165
L40927 52060
" />
<path d="M41077 51985
L40762 51985
L40762 52105
L40777 52135
L40792 52150
L40822 52165
L40867 52165
L40897 52150
L40912 52135
L40927 52105
L40927 51985
" />
<path d="M40762 52360
L40762 52420
L40777 52450
L40807 52480
L40867 52495
L40972 52495
L41032 52480
L41062 52450
L41077 52420
L41077 52360
L41062 52330
L41032 52300
L40972 52285
L40867 52285
L40807 52300
L40777 52330
L40762 52360
" />
<path d="M40762 52585
L40762 52765
" />
<path d="M41077 52675
L40762 52675
" />
<path d="M40762 52930
L40762 52990
L40777 53019
L40807 53049
L40867 53064
L40972 53064
L41032 53049
L41062 53019
L41077 52990
L41077 52930
L41062 52900
L41032 52870
L40972 52855
L40867 52855
L40807 52870
L40777 52900
L40762 52930
" />
<path d="M40897 53484
L40882 53454
L40867 53439
L40837 53424
L40822 53424
L40792 53439
L40777 53454
L40762 53484
L40762 53544
L40777 53574
L40792 53589
L40822 53604
L40837 53604
L40867 53589
L40882 53574
L40897 53544
L40897 53484
L40912 53454
L40927 53439
L40957 53424
L41017 53424
L41047 53439
L41062 53454
L41077 53484
L41077 53544
L41062 53574
L41047 53589
L41017 53604
L40957 53604
L40927 53589
L40912 53574
L40897 53544
" />
<path d="M40762 53709
L40762 53904
L40882 53799
L40882 53844
L40897 53874
L40912 53889
L40942 53904
L41017 53904
L41047 53889
L41062 53874
L41077 53844
L41077 53754
L41062 53724
L41047 53709
" />
<path d="M41077 54009
L40867 54174
" />
<path d="M40867 54009
L41077 54174
" />
<path d="M40762 54444
L40762 54294
L40912 54279
L40897 54294
L40882 54324
L40882 54399
L40897 54429
L40912 54444
L40942 54459
L41017 54459
L41047 54444
L41062 54429
L41077 54399
L41077 54324
L41062 54294
L41047 54279
" />
<path d="M40897 54639
L40882 54609
L40867 54594
L40837 54579
L40822 54579
L40792 54594
L40777 54609
L40762 54639
L40762 54699
L40777 54729
L40792 54744
L40822 54759
L40837 54759
L40867 54744
L40882 54729
L40897 54699
L40897 54639
L40912 54609
L40927 54594
L40957 54579
L41017 54579
L41047 54594
L41062 54609
L41077 54639
L41077 54699
L41062 54729
L41047 54744
L41017 54759
L40957 54759
L40927 54744
L40912 54729
L40897 54699
" />
<path d="M41077 54894
L40867 54894
" />
<path d="M40897 54894
L40882 54909
L40867 54939
L40867 54984
L40882 55014
L40912 55029
L41077 55029
" />
<path d="M40912 55029
L40882 55044
L40867 55074
L40867 55119
L40882 55149
L40912 55164
L41077 55164
" />
<path d="M41077 55314
L40867 55314
" />
<path d="M40897 55314
L40882 55329
L40867 55359
L40867 55404
L40882 55434
L40912 55449
L41077 55449
" />
<path d="M40912 55449
L40882 55464
L40867 55494
L40867 55539
L40882 55569
L40912 55584
L41077 55584
" />
</g>
<g style="fill:#000000; fill-opacity:0.0; 
stroke:#000000; stroke-width:19.685; stroke-opacity:1; 
stroke-linecap:round; stroke-linejoin:round;">
<path d="M68897.6 56102.4 A2559.06 2559.06 0.0 0 0 66338.6 58661.4 " />
<path d="M66338.6 39370.1 A2559.06 2559.06 0.0 0 0 68897.6 41929.1 " />
<path d="M41929.1 58661.4 A2559.06 2559.06 0.0 0 0 39370.1 56102.4 " />
<path d="M39370.1 41929.1 A2559.06 2559.06 0.0 0 0 41929.1 39370.1 " />
<path d="M68897 41929
L68897 56102
" />
<path d="M39370 41929
L39370 56102
" />
<path d="M41929 58661
L66338 58661
" />
<path d="M41929 39370
L66338 39370
" />
<g >
</g>
<g >
</g>
<g >
</g>
<g >
</g>
<g >
</g>
<g >
</g>
<g >
</g>
<g >
</g>
<g >
</g>
<g >
</g>
<g >
</g>
<g >
</g>
<g >
</g>
<g >
</g>
<g >
</g>
<g >
</g>
<g >
</g>
<g >
</g>
<g >
</g>
<g >
</g>
<g >
</g>
<g >
</g>
<g >
</g>
<g >
</g>
<g >
</g>
<g >
</g>
<g >
</g>
<g >
</g>
<g >
</g>
<g >
</g>
<g >
</g>
<g >
</g>
<g >
</g>
<g >
</g>
<g >
</g>
<g >
</g>
<g >
</g>
<g >
</g>
<g >
</g>
<g >
</g>
<g >
</g>
<g >
</g>
<g >
</g>
<g >
</g>
<g >
</g>
<g >
</g>
<g >
</g>
<g >
</g>
<g >
</g>
<g >
</g>
<g >
</g>
<g >
</g>
<g >
</g>
<g >
</g>
<g >
</g>
<g >
</g>
<g >
</g>
<g >
</g>
<g >
</g>
<g >
</g>
<g >
</g>
<g >
</g>
<g >
</g>
<g >
</g>
<g >
</g>
<g >
</g>
<g >
</g>
<g >
</g>
<g >
</g>
<g >
</g>
<g >
</g>
<g >
</g>
<g >
</g>
<g >
</g>
<g >
</g>
<g >
</g>
<g >
</g>
<g >
</g>
<g >
</g>
<g >
</g>
<g >
</g>
<g >
</g>
<g >
</g>
<g >
</g>
<g >
</g>
<g >
</g>
<g >
</g>
<g >
</g>
<g >
</g>
<g >
</g>
<g >
</g>
<g >
</g>
<g >
</g>
<g >
</g>
<g >
</g>
<g >
</g>
<g >
</g>
<g >
</g>
<g >
</g>
<g >
</g>
<g >
</g>
<g >
</g>
<g >
</g>
<g >
</g>
<g >
</g>
<g >
</g>
<g >
</g>
<g >
</g>
<g >
</g>
<g >
</g>
<g >
</g>
<g >
</g>
<g >
</g>
<g >
</g>
<g >
</g>
<g >
</g>
<g >
</g>
<g >
</g>
<g >
</g>
<g >
</g>
<g >
</g>
<g >
</g>
<g >
</g>
<g >
</g>
<g >
</g>
<g >
</g>
<g >
</g>
<g >
</g>
<g >
</g>
<g >
</g>
<g >
</g>
<g >
</g>
<g >
</g>
<g >
</g>
<g >
</g>
<g >
</g>
<g >
</g>
<g >
</g>
<g >
</g>
<g >
</g>
<g >
</g>
<g >
</g>
<g >
</g>
<g >
</g>
<g >
</g>
<g >
</g>
<g >
</g>
<g >
</g>
<g >
</g>
<g >
</g>
<g >
</g>
<g >
</g>
<g >
</g>
<g >
</g>
<g >
</g>
<g >
</g>
<g >
</g>
<g >
</g>
<g >
</g>
<g >
</g>
<g >
</g>
<g >
</g>
<g >
</g>
<g >
</g>
<g >
</g>
<g >
</g>
<g >
</g>
<g >
</g>
<g >
</g>
<g >
</g>
<g >
</g>
<g >
</g>
<g >
</g>
<g >
</g>
<g >
</g>
<g >
</g>
<g >
</g>
<g >
</g>
<g >
</g>
<g >
</g>
<g >
</g>
<g >
</g>
<g >
</g>
<g >
</g>
<g >
</g>
<g >
</g>
<g >
</g>
<g >
</g>
<g >
</g>
<g >
</g>
<g >
</g>
<g >
</g>
<g >
</g>
<g >
</g>
<g >
</g>
<g >
</g>
<g >
</g>
<g >
</g>
<g >
</g>
<g >
</g>
<g >
</g>
<g >
</g>
<g >
</g>
<g >
</g>
<g >
</g>
<g >
</g>
<g >
</g>
<g >
</g>
<g >
</g>
<g >
</g>
<g >
</g>
<g >
</g>
<g >
</g>
<g >
</g>
<g >
</g>
<g >
</g>
<g >
</g>
<g >
</g>
<g >
</g>
<g >
</g>
<g >
</g>
<g >
</g>
<g >
</g>
<g >
</g>
<g >
</g>
<g >
</g>
<g >
</g>
<g >
</g>
<g >
</g>
<g >
</g>
<g >
</g>
<g >
</g>
<g >
</g>
<g >
</g>
<g >
</g>
<g >
</g>
<g >
</g>
<g >
</g>
<g >
</g>
<g >
</g>
<g >
</g>
<g >
</g>
<g >
</g>
<g >
</g>
<g >
</g>
<g >
</g>
<g >
</g>
<g >
</g>
<g >
</g>
<g >
</g>
<g >
</g>
<g >
</g>
</g> 
</svg>
