<?xml version="1.0" standalone="no"?>
 <!DOCTYPE svg PUBLIC "-//W3C//DTD SVG 1.1//EN" 
 "http://www.w3.org/Graphics/SVG/1.1/DTD/svg11.dtd"> 
<svg xmlns="http://www.w3.org/2000/svg" version="1.1" 
    width="29.7002cm" height="21.0007cm" viewBox="0 0 116930 82680 ">
<title>SVG Picture created as MCU_PROTO_83x58mm-F_SilkS.svg date 2022/02/16 11:04:51 </title>
  <desc>Picture generated by PCBNEW </desc>
<g style="fill:#000000; fill-opacity:1;stroke:#000000; stroke-opacity:1;
stroke-linecap:round; stroke-linejoin:round; "
 transform="translate(0 0) scale(1 1)">
</g>
<g style="fill:#000000; fill-opacity:0.0; 
stroke:#000000; stroke-width:-0.000393701; stroke-opacity:1; 
stroke-linecap:round; stroke-linejoin:round;">
</g>
<g style="fill:#000000; fill-opacity:0.0; 
stroke:#000000; stroke-width:196.85; stroke-opacity:1; 
stroke-linecap:round; stroke-linejoin:round;">
<path d="M62146 45515
L62061 45515
" />
<path d="M61146 45515
L61061 45515
" />
<path d="M60146 45515
L60061 45515
" />
<path d="M59146 45515
L59061 45515
" />
<path d="M58146 45515
L58061 45515
" />
<path d="M57146 45515
L57061 45515
" />
<path d="M56146 45515
L56061 45515
" />
<path d="M55146 45515
L55061 45515
" />
<path d="M54146 45515
L54061 45515
" />
<path d="M53146 45515
L53061 45515
" />
<path d="M52146 45515
L52061 45515
" />
<path d="M51146 45515
L51061 45515
" />
<path d="M50146 45515
L50061 45515
" />
<path d="M49146 45515
L49061 45515
" />
<path d="M48146 45515
L48061 45515
" />
<path d="M47146 45515
L47061 45515
" />
<path d="M46146 45515
L46061 45515
" />
<path d="M45146 45515
L45061 45515
" />
<path d="M44146 45515
L44061 45515
" />
<path d="M62600 43945
L62600 44030
" />
<path d="M61600 43945
L61600 44030
" />
<path d="M60600 43945
L60600 44030
" />
<path d="M59600 43945
L59600 44030
" />
<path d="M58600 43945
L58600 44030
" />
<path d="M57600 43945
L57600 44030
" />
<path d="M56600 43945
L56600 44030
" />
<path d="M55600 43945
L55600 44030
" />
<path d="M54600 43945
L54600 44030
" />
<path d="M53600 43945
L53600 44030
" />
<path d="M52600 43945
L52600 44030
" />
<path d="M51600 43945
L51600 44030
" />
<path d="M50600 43945
L50600 44030
" />
<path d="M49600 43945
L49600 44030
" />
<path d="M48600 43945
L48600 44030
" />
<path d="M47600 43945
L47600 44030
" />
<path d="M46600 43945
L46600 44030
" />
<path d="M45600 43945
L45600 44030
" />
<path d="M44600 43945
L44600 44030
" />
<path d="M43600 43945
L43600 44030
" />
<path d="M62600 51967
L62600 52052
" />
<path d="M61600 51967
L61600 52052
" />
<path d="M60600 51967
L60600 52052
" />
<path d="M59600 51967
L59600 52052
" />
<path d="M58600 51967
L58600 52052
" />
<path d="M57600 51967
L57600 52052
" />
<path d="M56600 51967
L56600 52052
" />
<path d="M55600 51967
L55600 52052
" />
<path d="M54600 51967
L54600 52052
" />
<path d="M53600 51967
L53600 52052
" />
<path d="M52600 51967
L52600 52052
" />
<path d="M51600 51967
L51600 52052
" />
<path d="M50600 51967
L50600 52052
" />
<path d="M49600 51967
L49600 52052
" />
<path d="M48600 51967
L48600 52052
" />
<path d="M47600 51967
L47600 52052
" />
<path d="M46600 51967
L46600 52052
" />
<path d="M45600 51967
L45600 52052
" />
<path d="M44600 51967
L44600 52052
" />
<path d="M43600 51967
L43600 52052
" />
<path d="M62600 50967
L62600 51052
" />
<path d="M61600 50967
L61600 51052
" />
<path d="M60600 50967
L60600 51052
" />
<path d="M59600 50967
L59600 51052
" />
<path d="M58600 50967
L58600 51052
" />
<path d="M57600 50967
L57600 51052
" />
<path d="M56600 50967
L56600 51052
" />
<path d="M55600 50967
L55600 51052
" />
<path d="M54600 50967
L54600 51052
" />
<path d="M53600 50967
L53600 51052
" />
<path d="M52600 50967
L52600 51052
" />
<path d="M51600 50967
L51600 51052
" />
<path d="M50600 50967
L50600 51052
" />
<path d="M49600 50967
L49600 51052
" />
<path d="M48600 50967
L48600 51052
" />
<path d="M47600 50967
L47600 51052
" />
<path d="M46600 50967
L46600 51052
" />
<path d="M45600 50967
L45600 51052
" />
<path d="M44600 50967
L44600 51052
" />
<path d="M43600 50967
L43600 51052
" />
<path d="M62600 49967
L62600 50052
" />
<path d="M61600 49967
L61600 50052
" />
<path d="M60600 49967
L60600 50052
" />
<path d="M59600 49967
L59600 50052
" />
<path d="M58600 49967
L58600 50052
" />
<path d="M57600 49967
L57600 50052
" />
<path d="M56600 49967
L56600 50052
" />
<path d="M55600 49967
L55600 50052
" />
<path d="M54600 49967
L54600 50052
" />
<path d="M53600 49967
L53600 50052
" />
<path d="M52600 49967
L52600 50052
" />
<path d="M51600 49967
L51600 50052
" />
<path d="M50600 49967
L50600 50052
" />
<path d="M49600 49967
L49600 50052
" />
<path d="M48600 49967
L48600 50052
" />
<path d="M47600 49967
L47600 50052
" />
<path d="M46600 49967
L46600 50052
" />
<path d="M45600 49967
L45600 50052
" />
<path d="M44600 49967
L44600 50052
" />
<path d="M43600 49967
L43600 50052
" />
<path d="M62600 48967
L62600 49052
" />
<path d="M61600 48967
L61600 49052
" />
<path d="M60600 48967
L60600 49052
" />
<path d="M59600 48967
L59600 49052
" />
<path d="M58600 48967
L58600 49052
" />
<path d="M57600 48967
L57600 49052
" />
<path d="M56600 48967
L56600 49052
" />
<path d="M55600 48967
L55600 49052
" />
<path d="M54600 48967
L54600 49052
" />
<path d="M53600 48967
L53600 49052
" />
<path d="M52600 48967
L52600 49052
" />
<path d="M51600 48967
L51600 49052
" />
<path d="M50600 48967
L50600 49052
" />
<path d="M49600 48967
L49600 49052
" />
<path d="M48600 48967
L48600 49052
" />
<path d="M47600 48967
L47600 49052
" />
<path d="M46600 48967
L46600 49052
" />
<path d="M45600 48967
L45600 49052
" />
<path d="M44600 48967
L44600 49052
" />
<path d="M43600 48967
L43600 49052
" />
<path d="M62600 47967
L62600 48052
" />
<path d="M61600 47967
L61600 48052
" />
<path d="M60600 47967
L60600 48052
" />
<path d="M59600 47967
L59600 48052
" />
<path d="M58600 47967
L58600 48052
" />
<path d="M57600 47967
L57600 48052
" />
<path d="M56600 47967
L56600 48052
" />
<path d="M55600 47967
L55600 48052
" />
<path d="M54600 47967
L54600 48052
" />
<path d="M53600 47967
L53600 48052
" />
<path d="M52600 47967
L52600 48052
" />
<path d="M51600 47967
L51600 48052
" />
<path d="M50600 47967
L50600 48052
" />
<path d="M49600 47967
L49600 48052
" />
<path d="M48600 47967
L48600 48052
" />
<path d="M47600 47967
L47600 48052
" />
<path d="M46600 47967
L46600 48052
" />
<path d="M45600 47967
L45600 48052
" />
<path d="M44600 47967
L44600 48052
" />
<path d="M43600 47967
L43600 48052
" />
<path d="M62145 46515
L62060 46515
" />
<path d="M61145 46515
L61060 46515
" />
<path d="M60145 46515
L60060 46515
" />
<path d="M59145 46515
L59060 46515
" />
<path d="M58145 46515
L58060 46515
" />
<path d="M57145 46515
L57060 46515
" />
<path d="M56145 46515
L56060 46515
" />
<path d="M55145 46515
L55060 46515
" />
<path d="M54145 46515
L54060 46515
" />
<path d="M53145 46515
L53060 46515
" />
<path d="M52145 46515
L52060 46515
" />
<path d="M51145 46515
L51060 46515
" />
<path d="M50145 46515
L50060 46515
" />
<path d="M49145 46515
L49060 46515
" />
<path d="M48145 46515
L48060 46515
" />
<path d="M47145 46515
L47060 46515
" />
<path d="M46145 46515
L46060 46515
" />
<path d="M45145 46515
L45060 46515
" />
<path d="M44145 46515
L44060 46515
" />
<path d="M62145 54520
L62060 54520
" />
<path d="M61145 54520
L61060 54520
" />
<path d="M60145 54520
L60060 54520
" />
<path d="M59145 54520
L59060 54520
" />
<path d="M58145 54520
L58060 54520
" />
<path d="M57145 54520
L57060 54520
" />
<path d="M56145 54520
L56060 54520
" />
<path d="M55145 54520
L55060 54520
" />
<path d="M54145 54520
L54060 54520
" />
<path d="M53145 54520
L53060 54520
" />
<path d="M52145 54520
L52060 54520
" />
<path d="M51145 54520
L51060 54520
" />
<path d="M50145 54520
L50060 54520
" />
<path d="M49145 54520
L49060 54520
" />
<path d="M48145 54520
L48060 54520
" />
<path d="M47145 54520
L47060 54520
" />
<path d="M46145 54520
L46060 54520
" />
<path d="M45145 54520
L45060 54520
" />
<path d="M44145 54520
L44060 54520
" />
<path d="M62145 55515
L62060 55515
" />
<path d="M61145 55515
L61060 55515
" />
<path d="M60145 55515
L60060 55515
" />
<path d="M59145 55515
L59060 55515
" />
<path d="M58145 55515
L58060 55515
" />
<path d="M57145 55515
L57060 55515
" />
<path d="M56145 55515
L56060 55515
" />
<path d="M55145 55515
L55060 55515
" />
<path d="M54145 55515
L54060 55515
" />
<path d="M53145 55515
L53060 55515
" />
<path d="M52145 55515
L52060 55515
" />
<path d="M51145 55515
L51060 55515
" />
<path d="M50145 55515
L50060 55515
" />
<path d="M49145 55515
L49060 55515
" />
<path d="M48145 55515
L48060 55515
" />
<path d="M62605 56975
L62605 57060
" />
<path d="M61605 56975
L61605 57060
" />
<path d="M60605 56975
L60605 57060
" />
<path d="M59605 56975
L59605 57060
" />
<path d="M58605 56975
L58605 57060
" />
<path d="M57605 56975
L57605 57060
" />
<path d="M56605 56975
L56605 57060
" />
<path d="M55605 56975
L55605 57060
" />
<path d="M54605 56975
L54605 57060
" />
<path d="M53605 56975
L53605 57060
" />
<path d="M52605 56975
L52605 57060
" />
<path d="M51605 56975
L51605 57060
" />
<path d="M50605 56975
L50605 57060
" />
<path d="M49605 56975
L49605 57060
" />
<path d="M48605 56975
L48605 57060
" />
<path d="M47605 56975
L47605 57060
" />
<path d="M62600 53000
L62600 53085
" />
<path d="M61600 53000
L61600 53085
" />
<path d="M60600 53000
L60600 53085
" />
<path d="M59600 53000
L59600 53085
" />
<path d="M58600 53000
L58600 53085
" />
<path d="M57600 53000
L57600 53085
" />
<path d="M56600 53000
L56600 53085
" />
<path d="M55600 53000
L55600 53085
" />
<path d="M54600 53000
L54600 53085
" />
<path d="M53600 53000
L53600 53085
" />
<path d="M52600 53000
L52600 53085
" />
<path d="M51600 53000
L51600 53085
" />
<path d="M50600 53000
L50600 53085
" />
<path d="M49600 53000
L49600 53085
" />
<path d="M48600 53000
L48600 53085
" />
<path d="M47600 53000
L47600 53085
" />
<path d="M46600 53000
L46600 53085
" />
<path d="M45600 53000
L45600 53085
" />
<path d="M44600 53000
L44600 53085
" />
<path d="M43600 53000
L43600 53085
" />
<path d="M62600 42005
L62600 42090
" />
<path d="M61600 42005
L61600 42090
" />
<path d="M60600 42005
L60600 42090
" />
<path d="M59600 42005
L59600 42090
" />
<path d="M58600 42005
L58600 42090
" />
<path d="M57600 42005
L57600 42090
" />
<path d="M56600 42005
L56600 42090
" />
<path d="M55600 42005
L55600 42090
" />
<path d="M54600 42005
L54600 42090
" />
<path d="M53600 42005
L53600 42090
" />
<path d="M52600 42005
L52600 42090
" />
<path d="M51600 42005
L51600 42090
" />
<path d="M50600 42005
L50600 42090
" />
<path d="M49600 42005
L49600 42090
" />
<path d="M48600 42005
L48600 42090
" />
<path d="M47600 42005
L47600 42090
" />
<path d="M46600 42005
L46600 42090
" />
<path d="M45600 42005
L45600 42090
" />
<path d="M44600 42005
L44600 42090
" />
<path d="M43600 42005
L43600 42090
" />
<path d="M62600 41005
L62600 41090
" />
<path d="M61600 41005
L61600 41090
" />
<path d="M60600 41005
L60600 41090
" />
<path d="M59600 41005
L59600 41090
" />
<path d="M58600 41005
L58600 41090
" />
<path d="M57600 41005
L57600 41090
" />
<path d="M56600 41005
L56600 41090
" />
<path d="M55600 41005
L55600 41090
" />
<path d="M54600 41005
L54600 41090
" />
<path d="M53600 41005
L53600 41090
" />
<path d="M52600 41005
L52600 41090
" />
<path d="M51600 41005
L51600 41090
" />
<path d="M50600 41005
L50600 41090
" />
<path d="M49600 41005
L49600 41090
" />
<path d="M48600 41005
L48600 41090
" />
<path d="M47600 41005
L47600 41090
" />
<path d="M46600 41005
L46600 41090
" />
<path d="M45600 41005
L45600 41090
" />
<path d="M44600 41005
L44600 41090
" />
<path d="M43600 41005
L43600 41090
" />
</g>
<g style="fill:#000000; fill-opacity:0.0; 
stroke:#000000; stroke-width:59.0551; stroke-opacity:1; 
stroke-linecap:round; stroke-linejoin:round;">
<g transform="rotate(-90 40149.3 52545)">
<text x="40149.3" y="52702.5"
textLength="5309.34" font-size="419.947" lengthAdjust="spacingAndGlyphs"
text-anchor="middle" opacity="0">MCU PROTO 83x58mm</text>
</g>
<path d="M40291 55124
L39976 55124
L40201 55019
L39976 54914
L40291 54914
" />
<path d="M40261 54584
L40276 54599
L40291 54644
L40291 54674
L40276 54719
L40246 54749
L40216 54764
L40156 54779
L40111 54779
L40051 54764
L40021 54749
L39991 54719
L39976 54674
L39976 54644
L39991 54599
L40006 54584
" />
<path d="M39976 54449
L40231 54449
L40261 54434
L40276 54419
L40291 54389
L40291 54329
L40276 54299
L40261 54284
L40231 54269
L39976 54269
" />
<path d="M40291 53879
L39976 53879
L39976 53759
L39991 53729
L40006 53714
L40036 53699
L40081 53699
L40111 53714
L40126 53729
L40141 53759
L40141 53879
" />
<path d="M40291 53384
L40141 53489
" />
<path d="M40291 53564
L39976 53564
L39976 53444
L39991 53414
L40006 53399
L40036 53384
L40081 53384
L40111 53399
L40126 53414
L40141 53444
L40141 53564
" />
<path d="M39976 53189
L39976 53129
L39991 53099
L40021 53069
L40081 53054
L40186 53054
L40246 53069
L40276 53099
L40291 53129
L40291 53189
L40276 53219
L40246 53249
L40186 53264
L40081 53264
L40021 53249
L39991 53219
L39976 53189
" />
<path d="M39976 52964
L39976 52784
" />
<path d="M40291 52874
L39976 52874
" />
<path d="M39976 52619
L39976 52559
L39991 52530
L40021 52500
L40081 52485
L40186 52485
L40246 52500
L40276 52530
L40291 52559
L40291 52619
L40276 52649
L40246 52679
L40186 52694
L40081 52694
L40021 52679
L39991 52649
L39976 52619
" />
<path d="M40111 52065
L40096 52095
L40081 52110
L40051 52125
L40036 52125
L40006 52110
L39991 52095
L39976 52065
L39976 52005
L39991 51975
L40006 51960
L40036 51945
L40051 51945
L40081 51960
L40096 51975
L40111 52005
L40111 52065
L40126 52095
L40141 52110
L40171 52125
L40231 52125
L40261 52110
L40276 52095
L40291 52065
L40291 52005
L40276 51975
L40261 51960
L40231 51945
L40171 51945
L40141 51960
L40126 51975
L40111 52005
" />
<path d="M39976 51840
L39976 51645
L40096 51750
L40096 51705
L40111 51675
L40126 51660
L40156 51645
L40231 51645
L40261 51660
L40276 51675
L40291 51705
L40291 51795
L40276 51825
L40261 51840
" />
<path d="M40291 51540
L40081 51375
" />
<path d="M40081 51540
L40291 51375
" />
<path d="M39976 51105
L39976 51255
L40126 51270
L40111 51255
L40096 51225
L40096 51150
L40111 51120
L40126 51105
L40156 51090
L40231 51090
L40261 51105
L40276 51120
L40291 51150
L40291 51225
L40276 51255
L40261 51270
" />
<path d="M40111 50910
L40096 50940
L40081 50955
L40051 50970
L40036 50970
L40006 50955
L39991 50940
L39976 50910
L39976 50850
L39991 50820
L40006 50805
L40036 50790
L40051 50790
L40081 50805
L40096 50820
L40111 50850
L40111 50910
L40126 50940
L40141 50955
L40171 50970
L40231 50970
L40261 50955
L40276 50940
L40291 50910
L40291 50850
L40276 50820
L40261 50805
L40231 50790
L40171 50790
L40141 50805
L40126 50820
L40111 50850
" />
<path d="M40291 50655
L40081 50655
" />
<path d="M40111 50655
L40096 50640
L40081 50610
L40081 50565
L40096 50535
L40126 50520
L40291 50520
" />
<path d="M40126 50520
L40096 50505
L40081 50475
L40081 50430
L40096 50400
L40126 50385
L40291 50385
" />
<path d="M40291 50235
L40081 50235
" />
<path d="M40111 50235
L40096 50220
L40081 50190
L40081 50145
L40096 50115
L40126 50100
L40291 50100
" />
<path d="M40126 50100
L40096 50085
L40081 50055
L40081 50010
L40096 49980
L40126 49965
L40291 49965
" />
<g transform="rotate(-90 40680.7 52545)">
<text x="40680.7" y="52702.5"
textLength="76.7717" font-size="419.947" lengthAdjust="spacingAndGlyphs"
text-anchor="middle" opacity="0"></text>
</g>
</g>
<g style="fill:#000000; fill-opacity:0.0; 
stroke:#000000; stroke-width:196.85; stroke-opacity:1; 
stroke-linecap:round; stroke-linejoin:round;">
<path d="M65605 54245
L64180 54245
" />
<path d="M65605 52870
L64180 52870
" />
<path d="M65605 51500
L64180 51500
" />
<path d="M65605 46535
L64180 46535
" />
<path d="M65605 45155
L64180 45155
" />
<path d="M65605 43780
L64180 43780
" />
</g>
<g style="fill:#000000; fill-opacity:0.0; 
stroke:#000000; stroke-width:19.685; stroke-opacity:1; 
stroke-linecap:round; stroke-linejoin:round;">
<path d="M68897.6 56102.4 A2559.06 2559.06 0.0 0 0 66338.6 58661.4 " />
<path d="M66338.6 39370.1 A2559.06 2559.06 0.0 0 0 68897.6 41929.1 " />
<path d="M41929.1 58661.4 A2559.06 2559.06 0.0 0 0 39370.1 56102.4 " />
<path d="M39370.1 41929.1 A2559.06 2559.06 0.0 0 0 41929.1 39370.1 " />
<path d="M68897 41929
L68897 56102
" />
<path d="M39370 41929
L39370 56102
" />
<path d="M41929 58661
L66338 58661
" />
<path d="M41929 39370
L66338 39370
" />
</g>
<g style="fill:#000000; fill-opacity:0.0; 
stroke:#000000; stroke-width:47.2441; stroke-opacity:1; 
stroke-linecap:round; stroke-linejoin:round;">
<path d="M43082 47515
L43082 46992
" />
<path d="M43082 46992
L43606 46992
" />
<path d="M44106 46992
L63129 46992
" />
<path d="M63129 48039
L63129 46992
" />
<path d="M44106 48039
L63129 48039
" />
<path d="M44106 48039
L44106 46992
" />
<path d="M43082 42515
L43082 41992
" />
<path d="M43082 41992
L43606 41992
" />
<path d="M44106 41992
L63129 41992
" />
<path d="M63129 43039
L63129 41992
" />
<path d="M44106 43039
L63129 43039
" />
<path d="M44106 43039
L44106 41992
" />
<path d="M43082 43515
L43082 42992
" />
<path d="M43082 42992
L43606 42992
" />
<path d="M44106 42992
L63129 42992
" />
<path d="M63129 44039
L63129 42992
" />
<path d="M44106 44039
L63129 44039
" />
<path d="M44106 44039
L44106 42992
" />
<path d="M67874 55196
L67874 54606
" />
<path d="M67188 55196
L67874 55196
" />
<path d="M64976 50645
L67779 50645
" />
<path d="M64976 55102
L67779 55102
" />
<path d="M67779 55102
L67779 50645
" />
<path d="M64976 55102
L64976 50645
" />
<path d="M67165 55102
L67165 50645
" />
<circle cx="66338.6" cy="51496.1" r="612.205" /> 
<circle cx="66338.6" cy="52874" r="612.205" /> 
<path d="M66902.4 54491.3 A612.491 612.491 0.0 0 0 66951 54241.3 " />
<path d="M66099.2 54815.7 A612.491 612.491 0.0 0 0 66577.9 54815.8 " />
<path d="M65774.8 54012.6 A612.491 612.491 0.0 0 0 65774.8 54491.2 " />
<path d="M66578 53688.2 A612.491 612.491 0.0 0 0 66099.3 53688.1 " />
<path d="M66950.8 54252 A612.205 612.205 0.0 0 0 66902.1 54012.8 " />
<path d="M43082 52515
L43082 51992
" />
<path d="M43082 51992
L43606 51992
" />
<path d="M44106 51992
L63129 51992
" />
<path d="M63129 53039
L63129 51992
" />
<path d="M44106 53039
L63129 53039
" />
<path d="M44106 53039
L44106 51992
" />
<path d="M43082 51515
L43082 50992
" />
<path d="M43082 50992
L43606 50992
" />
<path d="M44106 50992
L63129 50992
" />
<path d="M63129 52039
L63129 50992
" />
<path d="M44106 52039
L63129 52039
" />
<path d="M44106 52039
L44106 50992
" />
<path d="M43082 50515
L43082 49992
" />
<path d="M43082 49992
L43606 49992
" />
<path d="M44106 49992
L63129 49992
" />
<path d="M63129 51039
L63129 49992
" />
<path d="M44106 51039
L63129 51039
" />
<path d="M44106 51039
L44106 49992
" />
<path d="M43082 41515
L43082 40992
" />
<path d="M43082 40992
L43606 40992
" />
<path d="M44106 40992
L63129 40992
" />
<path d="M63129 42039
L63129 40992
" />
<path d="M44106 42039
L63129 42039
" />
<path d="M44106 42039
L44106 40992
" />
<path d="M43082 48515
L43082 47992
" />
<path d="M43082 47992
L43606 47992
" />
<path d="M44106 47992
L63129 47992
" />
<path d="M63129 49039
L63129 47992
" />
<path d="M44106 49039
L63129 49039
" />
<path d="M44106 49039
L44106 47992
" />
<path d="M67874 47480
L67874 46889
" />
<path d="M67188 47480
L67874 47480
" />
<path d="M64976 42929
L67779 42929
" />
<path d="M64976 47385
L67779 47385
" />
<path d="M67779 47385
L67779 42929
" />
<path d="M64976 47385
L64976 42929
" />
<path d="M67165 47385
L67165 42929
" />
<circle cx="66338.6" cy="43779.5" r="612.205" /> 
<circle cx="66338.6" cy="45157.5" r="612.205" /> 
<path d="M66902.4 46774.8 A612.491 612.491 0.0 0 0 66951 46524.8 " />
<path d="M66099.2 47099.2 A612.491 612.491 0.0 0 0 66577.9 47099.3 " />
<path d="M65774.8 46296.1 A612.491 612.491 0.0 0 0 65774.8 46774.7 " />
<path d="M66578 45971.7 A612.491 612.491 0.0 0 0 66099.3 45971.6 " />
<path d="M66950.8 46535.4 A612.205 612.205 0.0 0 0 66902.1 46296.2 " />
</g>
<g style="fill:#000000; fill-opacity:1.0; 
stroke:#000000; stroke-width:3.93701; stroke-opacity:1; 
stroke-linecap:round; stroke-linejoin:round;">
<path style="fill:#000000; fill-opacity:1.0; 
stroke:#000000; stroke-width:3.93701; stroke-opacity:1; 
stroke-linecap:round; stroke-linejoin:round;fill-rule:evenodd;"
d="M 39863.5,45051.2
40038.6,45018.2
40088.8,44896.4
40139,44774.6
40039.6,44628.6
40012,44587.7
39987.3,44550.7
39966.7,44519.3
39951.3,44495.4
39942.2,44480.6
39940.3,44476.5
39945.3,44469.2
39959.2,44453.7
39980.1,44431.6
40006.3,44404.7
40036.1,44374.8
40067.7,44343.6
40099.2,44312.8
40129,44284.2
40155.2,44259.5
40176.1,44240.6
40189.9,44229
40194.5,44226.2
40203,44230.2
40221.7,44241.4
40248.7,44258.5
40282.1,44280.5
40320.3,44306.2
40342,44321.1
40381.8,44348.2
40417.6,44372.3
40447.8,44392.2
40470.5,44406.8
40484,44414.8
40486.9,44416
40494.9,44413.3
40513.7,44405.8
40540.6,44394.8
40573,44381.3
40608.1,44366.4
40643.4,44351.3
40676.3,44337.2
40704,44325
40723.9,44316
40733.4,44311.3
40733.8,44311.1
40735.6,44303.6
40739.7,44283.9
40745.5,44253.9
40752.9,44215.7
40761.2,44171.3
40766.1,44145.4
40775.1,44098
40783.7,44055.1
40791.4,44019
40797.7,43991.9
40802.2,43975.8
40803.6,43972.6
40813.2,43969.4
40834.8,43966.8
40865.9,43964.9
40904.1,43963.6
40946.7,43962.8
40991.3,43962.7
41035.2,43963.2
41076.1,43964.3
41111.3,43965.9
41138.3,43968.2
41154.6,43971.1
41158,43972.8
41162,43983.1
41167.8,44004.9
41174.7,44035.3
41182,44071.5
41184.3,44084.1
41195.5,44145
41204.4,44193.1
41211.6,44230
41217.3,44257.3
41221.9,44276.5
41225.8,44289.3
41229.3,44297.3
41232.7,44302
41233.4,44302.7
41244.4,44309.3
41265.8,44319.4
41295,44331.9
41329.3,44345.9
41366.1,44360.3
41402.9,44374.2
41437,44386.5
41465.8,44396.3
41486.6,44402.5
41496.9,44404.1
41497.3,44404
41505.7,44398.5
41524.2,44386
41550.9,44367.9
41583.8,44345.4
41621,44319.9
41631.6,44312.6
41670,44286.7
41704.9,44263.8
41734.6,44245.4
41756.8,44232.5
41769.7,44226.5
41771.3,44226.2
41779.6,44231.3
41796,44245.2
41818.8,44266.3
41846.3,44292.8
41876.6,44322.7
41907.9,44354.4
41938.6,44386
41966.8,44415.8
41990.7,44441.9
42008.7,44462.5
42018.9,44475.9
42020.6,44479.6
42016.7,44488.3
42006.1,44505.9
41990.6,44529.7
41978.2,44548
41955.3,44581.2
41928.4,44620.5
41901.6,44660
41887.2,44681.2
41838.7,44752.9
41871.2,44813.2
41885.5,44840.6
41896.6,44863.9
41902.9,44879.7
41903.8,44883.7
41897.3,44888.6
41878.9,44898.1
41850.4,44911.6
41813.4,44928.4
41769.6,44947.8
41720.7,44969
41668.4,44991.4
41614.5,45014.2
41560.5,45036.7
41508.2,45058.2
41459.3,45078
41415.4,45095.4
41378.3,45109.7
41349.7,45120.2
41331.2,45126
41324.9,45127
41316.8,45119.5
41303.7,45103.1
41288.2,45081.1
41287,45079.3
41241.7,45022.7
41188.8,44977
41130,44942.7
41067.1,44920.1
41001.6,44909.7
40935.4,44911.9
40870.1,44927
40807.4,44955.5
40793.7,44963.8
40738.2,45007.4
40693.7,45058.9
40660.4,45116.4
40638.4,45178.3
40628.1,45242.8
40629.5,45308.1
40643.1,45372.3
40668.9,45433.8
40707.3,45490.6
40722.9,45508.2
40771.7,45553
40823,45585.7
40880.6,45608
40937.6,45620.5
41001.7,45623.6
41066.1,45613.3
41128.6,45590.8
41187.1,45557
41239.4,45512.9
41283.3,45459.7
41288,45452.7
41303.1,45430.6
41316.2,45413.7
41324.6,45405.7
41324.9,45405.6
41334,45407.3
41354.6,45414.1
41385,45425.4
41423.5,45440.4
41468.5,45458.3
41518.2,45478.5
41570.9,45500.3
41625,45523
41678.8,45545.7
41730.6,45568
41778.6,45588.9
41821.2,45607.8
41856.7,45624
41883.4,45636.8
41899.5,45645.5
41903.8,45649
41900.5,45659.6
41891.6,45679.6
41878.7,45705.4
41871.2,45719.5
41838.7,45779.8
41887.2,45851.5
41912.1,45888.2
41939.4,45928.3
41965.2,45965.8
41978.2,45984.7
41995.9,46011.1
42010,46033.6
42018.6,46049
42020.5,46054
42015.5,46061.3
42001.8,46077.5
41980.7,46100.9
41953.7,46130.1
41922.1,46163.4
41901.8,46184.4
41865.6,46221.3
41833.2,46253.2
41806,46278.7
41785.5,46296.7
41772.8,46305.8
41770.3,46306.7
41760.5,46302.6
41740.9,46291.4
41713.2,46274.3
41679.6,46252.5
41642.1,46227.3
41631.6,46220.1
41593.5,46194
41559.3,46170.5
41530.7,46151.1
41509.8,46137
41498.5,46129.4
41497.3,46128.7
41488.3,46129.8
41468.4,46135.6
41440.3,46145
41406.7,46157.1
41370,46170.9
41333.1,46185.3
41298.3,46199.4
41268.5,46212.1
41246.2,46222.5
41234,46229.5
41233.4,46230
41229.9,46234.3
41226.5,46241.5
41222.7,46253.3
41218.3,46271.2
41212.8,46296.9
41205.9,46331.8
41197.3,46377.6
41186.6,46436
41184.3,46448.6
41177.1,46486
41170,46518.6
41163.8,46543.6
41159.1,46558
41158,46559.9
41148.2,46563.1
41126.5,46565.7
41095.2,46567.7
41057,46569
41014.3,46569.8
40969.7,46570
40925.8,46569.6
40885,46568.6
40849.9,46566.9
40823,46564.7
40806.9,46561.9
40803.6,46560.1
40800.2,46550.6
40794.8,46528.8
40787.8,46497
40779.6,46457.4
40770.7,46412
40766.1,46387.3
40757.3,46340.4
40749.4,46298.6
40742.6,46263.9
40737.5,46238.3
40734.5,46224
40733.8,46221.6
40726.1,46217.7
40707.6,46209.2
40680.9,46197.5
40648.6,46183.6
40613.5,46168.6
40578.1,46153.6
40545.1,46139.8
40517.1,46128.3
40496.9,46120.3
40487,46116.8
40486.5,46116.7
40478.7,46120.7
40460.7,46131.9
40434.3,46149
40401.3,46171
40363.5,46196.7
40341.8,46211.6
40301.9,46238.8
40265.8,46262.9
40235.1,46282.9
40211.8,46297.4
40197.6,46305.3
40194.4,46306.5
40187,46301.6
40171.2,46287.9
40148.8,46267.3
40121.5,46241.4
40091.1,46212.1
40059.4,46181
40028.2,46149.9
39999.1,46120.6
39974.1,46094.8
39954.8,46074.2
39943.1,46060.6
39940.3,46056
39944.2,46048.6
39955.3,46030.9
39972.4,46004.6
39994.3,45971.4
40020,45933
40039.6,45904.1
40139,45758.1
40038.6,45514.5
39863.5,45481.5
39688.5,45448.5
39688.5,45084.2
Z" /> 
<g >
</g>
<g >
</g>
<g >
</g>
<g >
</g>
<g >
</g>
<g >
</g>
<g >
</g>
<g >
</g>
<g >
</g>
<g >
</g>
<g >
</g>
<g >
</g>
<g >
</g>
<g >
</g>
<g >
</g>
<g >
</g>
<g >
</g>
<g >
</g>
<g >
</g>
<g >
</g>
<g >
</g>
<g >
</g>
<g >
</g>
<g >
</g>
<g >
</g>
<g >
</g>
<g >
</g>
<g >
</g>
<g >
</g>
<g >
</g>
<g >
</g>
<g >
</g>
<g >
</g>
<g >
</g>
<g >
</g>
<g >
</g>
<g >
</g>
<g >
</g>
<g >
</g>
<g >
</g>
<g >
</g>
<g >
</g>
<g >
</g>
<g >
</g>
<g >
</g>
<g >
</g>
<g >
</g>
<g >
</g>
<g >
</g>
<g >
</g>
<g >
</g>
<g >
</g>
<g >
</g>
<g >
</g>
<g >
</g>
<g >
</g>
<g >
</g>
<g >
</g>
<g >
</g>
<g >
</g>
<g >
</g>
<g >
</g>
<g >
</g>
<g >
</g>
<g >
</g>
<g >
</g>
<g >
</g>
<g >
</g>
<g >
</g>
<g >
</g>
<g >
</g>
<g >
</g>
<g >
</g>
<g >
</g>
<g >
</g>
<g >
</g>
<g >
</g>
<g >
</g>
<g >
</g>
<g >
</g>
<g >
</g>
<g >
</g>
<g >
</g>
<g >
</g>
<g >
</g>
<g >
</g>
<g >
</g>
<g >
</g>
<g >
</g>
<g >
</g>
<g >
</g>
<g >
</g>
<g >
</g>
<g >
</g>
<g >
</g>
<g >
</g>
<g >
</g>
<g >
</g>
<g >
</g>
<g >
</g>
<g >
</g>
<g >
</g>
<g >
</g>
<g >
</g>
<g >
</g>
<g >
</g>
<g >
</g>
<g >
</g>
<g >
</g>
<g >
</g>
<g >
</g>
<g >
</g>
<g >
</g>
<g >
</g>
<g >
</g>
<g >
</g>
<g >
</g>
<g >
</g>
<g >
</g>
<g >
</g>
<g >
</g>
<g >
</g>
<g >
</g>
<g >
</g>
<g >
</g>
<g >
</g>
<g >
</g>
<g >
</g>
<g >
</g>
<g >
</g>
<g >
</g>
<g >
</g>
<g >
</g>
<g >
</g>
<g >
</g>
<g >
</g>
<g >
</g>
<g >
</g>
<g >
</g>
<g >
</g>
<g >
</g>
<g >
</g>
<g >
</g>
<g >
</g>
<g >
</g>
<g >
</g>
<g >
</g>
<g >
</g>
<g >
</g>
<g >
</g>
<g >
</g>
<g >
</g>
<g >
</g>
<g >
</g>
<g >
</g>
<g >
</g>
<g >
</g>
<g >
</g>
<g >
</g>
<g >
</g>
<g >
</g>
<g >
</g>
<g >
</g>
<g >
</g>
<g >
</g>
<g >
</g>
<g >
</g>
<g >
</g>
<g >
</g>
<g >
</g>
<g >
</g>
<g >
</g>
<g >
</g>
<g >
</g>
<g >
</g>
<g >
</g>
<g >
</g>
<g >
</g>
<g >
</g>
<g >
</g>
<g >
</g>
<g >
</g>
<g >
</g>
<g >
</g>
<g >
</g>
<g >
</g>
<g >
</g>
<g >
</g>
<g >
</g>
<g >
</g>
<g >
</g>
<g >
</g>
<g >
</g>
<g >
</g>
<g >
</g>
<g >
</g>
<g >
</g>
<g >
</g>
<g >
</g>
<g >
</g>
<g >
</g>
<g >
</g>
<g >
</g>
<g >
</g>
<g >
</g>
<g >
</g>
<g >
</g>
<g >
</g>
<g >
</g>
<g >
</g>
<g >
</g>
<g >
</g>
<g >
</g>
</g>
<g style="fill:#000000; fill-opacity:1.0; 
stroke:#000000; stroke-width:3.93701; stroke-opacity:1; 
stroke-linecap:round; stroke-linejoin:round;">
</g>
<g style="fill:#000000; fill-opacity:0.0; 
stroke:#000000; stroke-width:3.93701; stroke-opacity:1; 
stroke-linecap:round; stroke-linejoin:round;">
</g>
<g style="fill:#000000; fill-opacity:0.0; 
stroke:#000000; stroke-width:59.0551; stroke-opacity:1; 
stroke-linecap:round; stroke-linejoin:round;">
<g transform="rotate(-90 42456.9 47120)">
<text x="42456.9" y="47316.9"
textLength="733.971" font-size="524.934" lengthAdjust="spacingAndGlyphs"
text-anchor="middle" opacity="0">J6</text>
</g>
<path d="M42241 47251
L42522 47251
L42578 47269
L42616 47307
L42634 47363
L42634 47401
" />
<path d="M42241 46895
L42241 46970
L42260 47007
L42278 47026
L42334 47063
L42409 47082
L42559 47082
L42597 47063
L42616 47045
L42634 47007
L42634 46932
L42616 46895
L42597 46876
L42559 46857
L42466 46857
L42428 46876
L42409 46895
L42391 46932
L42391 47007
L42409 47045
L42428 47063
L42466 47082
" />
<g transform="rotate(-90 42456.9 42515.7)">
<text x="42456.9" y="42712.6"
textLength="751.687" font-size="524.934" lengthAdjust="spacingAndGlyphs"
text-anchor="middle" opacity="0">J4</text>
</g>
<path d="M42241 42646
L42522 42646
L42578 42665
L42616 42703
L42634 42759
L42634 42796
" />
<path d="M42372 42290
L42634 42290
" />
<path d="M42222 42384
L42503 42478
L42503 42234
" />
<g transform="rotate(-90 42456.9 43515.7)">
<text x="42456.9" y="43712.6"
textLength="751.687" font-size="524.934" lengthAdjust="spacingAndGlyphs"
text-anchor="middle" opacity="0">J5</text>
</g>
<path d="M42241 43646
L42522 43646
L42578 43665
L42616 43703
L42634 43759
L42634 43796
" />
<path d="M42241 43272
L42241 43459
L42428 43478
L42409 43459
L42391 43422
L42391 43328
L42409 43290
L42428 43272
L42466 43253
L42559 43253
L42597 43272
L42616 43290
L42634 43328
L42634 43422
L42616 43459
L42597 43478
" />
<g transform="rotate(-90 66345.6 55592)">
<text x="66345.6" y="55788.8"
textLength="751.687" font-size="524.934" lengthAdjust="spacingAndGlyphs"
text-anchor="middle" opacity="0">J2</text>
</g>
<path d="M66129 55723
L66411 55723
L66467 55741
L66504 55779
L66523 55835
L66523 55873
" />
<path d="M66167 55554
L66148 55535
L66129 55498
L66129 55404
L66148 55366
L66167 55348
L66204 55329
L66242 55329
L66298 55348
L66523 55573
L66523 55329
" />
<g transform="rotate(-90 42456.9 52760)">
<text x="42456.9" y="52956.9"
textLength="1126.64" font-size="524.934" lengthAdjust="spacingAndGlyphs"
text-anchor="middle" opacity="0">J10</text>
</g>
<path d="M42241 53078
L42522 53078
L42578 53097
L42616 53134
L42634 53191
L42634 53228
" />
<path d="M42634 52685
L42634 52909
" />
<path d="M42634 52797
L42241 52797
L42297 52834
L42334 52872
L42353 52909
" />
<path d="M42241 52441
L42241 52403
L42260 52366
L42278 52347
L42316 52328
L42391 52310
L42484 52310
L42559 52328
L42597 52347
L42616 52366
L42634 52403
L42634 52441
L42616 52478
L42597 52497
L42559 52516
L42484 52535
L42391 52535
L42316 52516
L42278 52497
L42260 52478
L42241 52441
" />
<g transform="rotate(-90 42456.9 51630)">
<text x="42456.9" y="51826.9"
textLength="751.687" font-size="524.934" lengthAdjust="spacingAndGlyphs"
text-anchor="middle" opacity="0">J9</text>
</g>
<path d="M42241 51761
L42522 51761
L42578 51779
L42616 51817
L42634 51873
L42634 51911
" />
<path d="M42634 51555
L42634 51480
L42616 51442
L42597 51423
L42541 51386
L42466 51367
L42316 51367
L42278 51386
L42260 51405
L42241 51442
L42241 51517
L42260 51555
L42278 51573
L42316 51592
L42409 51592
L42447 51573
L42466 51555
L42484 51517
L42484 51442
L42466 51405
L42447 51386
L42409 51367
" />
<g transform="rotate(-90 42456.9 50610)">
<text x="42456.9" y="50806.9"
textLength="751.687" font-size="524.934" lengthAdjust="spacingAndGlyphs"
text-anchor="middle" opacity="0">J8</text>
</g>
<path d="M42241 50741
L42522 50741
L42578 50759
L42616 50797
L42634 50853
L42634 50891
" />
<path d="M42409 50497
L42391 50535
L42372 50553
L42334 50572
L42316 50572
L42278 50553
L42260 50535
L42241 50497
L42241 50422
L42260 50385
L42278 50366
L42316 50347
L42334 50347
L42372 50366
L42391 50385
L42409 50422
L42409 50497
L42428 50535
L42447 50553
L42484 50572
L42559 50572
L42597 50553
L42616 50535
L42634 50497
L42634 50422
L42616 50385
L42597 50366
L42559 50347
L42484 50347
L42447 50366
L42428 50385
L42409 50422
" />
<g transform="rotate(-90 42456.9 41565)">
<text x="42456.9" y="41761.9"
textLength="751.687" font-size="524.934" lengthAdjust="spacingAndGlyphs"
text-anchor="middle" opacity="0">J3</text>
</g>
<path d="M42241 41696
L42522 41696
L42578 41714
L42616 41752
L42634 41808
L42634 41846
" />
<path d="M42241 41546
L42241 41302
L42391 41433
L42391 41377
L42409 41340
L42428 41321
L42466 41302
L42559 41302
L42597 41321
L42616 41340
L42634 41377
L42634 41490
L42616 41527
L42597 41546
" />
<g transform="rotate(-90 42456.9 47905)">
<text x="42456.9" y="48101.9"
textLength="751.687" font-size="524.934" lengthAdjust="spacingAndGlyphs"
text-anchor="middle" opacity="0">J7</text>
</g>
<path d="M42241 48036
L42522 48036
L42578 48054
L42616 48092
L42634 48148
L42634 48186
" />
<path d="M42241 47886
L42241 47623
L42634 47792
" />
<g transform="rotate(-90 66440.6 42415)">
<text x="66440.6" y="42611.9"
textLength="751.687" font-size="524.934" lengthAdjust="spacingAndGlyphs"
text-anchor="middle" opacity="0">J1</text>
</g>
<path d="M66224 42546
L66506 42546
L66562 42564
L66599 42602
L66618 42658
L66618 42696
" />
<path d="M66618 42152
L66618 42377
" />
<path d="M66618 42265
L66224 42265
L66281 42302
L66318 42340
L66337 42377
" />
<g >
</g>
</g> 
</svg>
