G04 #@! TF.GenerationSoftware,KiCad,Pcbnew,5.1.5+dfsg1-2build2*
G04 #@! TF.CreationDate,2022-02-15T22:10:23-05:00*
G04 #@! TF.ProjectId,MCU_PROTO_83x58mm,4d43555f-5052-44f5-944f-5f3833783538,rev?*
G04 #@! TF.SameCoordinates,Original*
G04 #@! TF.FileFunction,Copper,L1,Top*
G04 #@! TF.FilePolarity,Positive*
%FSLAX46Y46*%
G04 Gerber Fmt 4.6, Leading zero omitted, Abs format (unit mm)*
G04 Created by KiCad (PCBNEW 5.1.5+dfsg1-2build2) date 2022-02-15 22:10:23*
%MOMM*%
%LPD*%
G04 APERTURE LIST*
%ADD10O,1.700000X1.700000*%
%ADD11R,1.700000X1.700000*%
%ADD12C,2.000000*%
%ADD13C,2.400000*%
%ADD14R,2.400000X2.400000*%
%ADD15C,1.998980*%
%ADD16C,0.500000*%
%ADD17C,0.254000*%
G04 APERTURE END LIST*
D10*
X159020000Y-120690000D03*
X156480000Y-120690000D03*
X153940000Y-120690000D03*
X151400000Y-120690000D03*
X148860000Y-120690000D03*
X146320000Y-120690000D03*
X143780000Y-120690000D03*
X141240000Y-120690000D03*
X138700000Y-120690000D03*
X136160000Y-120690000D03*
X133620000Y-120690000D03*
X131080000Y-120690000D03*
X128540000Y-120690000D03*
X126000000Y-120690000D03*
X123460000Y-120690000D03*
X120920000Y-120690000D03*
X118380000Y-120690000D03*
X115840000Y-120690000D03*
X113300000Y-120690000D03*
D11*
X110760000Y-120690000D03*
D10*
X159020000Y-107990000D03*
X156480000Y-107990000D03*
X153940000Y-107990000D03*
X151400000Y-107990000D03*
X148860000Y-107990000D03*
X146320000Y-107990000D03*
X143780000Y-107990000D03*
X141240000Y-107990000D03*
X138700000Y-107990000D03*
X136160000Y-107990000D03*
X133620000Y-107990000D03*
X131080000Y-107990000D03*
X128540000Y-107990000D03*
X126000000Y-107990000D03*
X123460000Y-107990000D03*
X120920000Y-107990000D03*
X118380000Y-107990000D03*
X115840000Y-107990000D03*
X113300000Y-107990000D03*
D11*
X110760000Y-107990000D03*
D10*
X159020000Y-110530000D03*
X156480000Y-110530000D03*
X153940000Y-110530000D03*
X151400000Y-110530000D03*
X148860000Y-110530000D03*
X146320000Y-110530000D03*
X143780000Y-110530000D03*
X141240000Y-110530000D03*
X138700000Y-110530000D03*
X136160000Y-110530000D03*
X133620000Y-110530000D03*
X131080000Y-110530000D03*
X128540000Y-110530000D03*
X126000000Y-110530000D03*
X123460000Y-110530000D03*
X120920000Y-110530000D03*
X118380000Y-110530000D03*
X115840000Y-110530000D03*
X113300000Y-110530000D03*
D11*
X110760000Y-110530000D03*
D12*
X110760000Y-113070000D03*
D13*
X168500000Y-130800000D03*
X168500000Y-134300000D03*
D14*
X168500000Y-137800000D03*
D12*
X159020000Y-125770000D03*
X156480000Y-125770000D03*
X153940000Y-125770000D03*
X151400000Y-125770000D03*
X148860000Y-125770000D03*
X146320000Y-125770000D03*
X143780000Y-125770000D03*
X141240000Y-125770000D03*
X138700000Y-125770000D03*
X136160000Y-125770000D03*
X133620000Y-125770000D03*
X131080000Y-125770000D03*
X128540000Y-125770000D03*
X126000000Y-125770000D03*
X123460000Y-125770000D03*
X120920000Y-125770000D03*
X118380000Y-125770000D03*
X115840000Y-125770000D03*
X113300000Y-125770000D03*
X110760000Y-125770000D03*
X159020000Y-143550000D03*
X156480000Y-143550000D03*
X153940000Y-143550000D03*
X151400000Y-143550000D03*
X148860000Y-143550000D03*
X146320000Y-143550000D03*
X143780000Y-143550000D03*
X141240000Y-143550000D03*
X138700000Y-143550000D03*
X136160000Y-143550000D03*
X133620000Y-143550000D03*
X131080000Y-143550000D03*
X128540000Y-143550000D03*
X126000000Y-143550000D03*
X123460000Y-143550000D03*
X120920000Y-143550000D03*
X159020000Y-141010000D03*
X156480000Y-141010000D03*
X153940000Y-141010000D03*
X151400000Y-141010000D03*
X148860000Y-141010000D03*
X146320000Y-141010000D03*
X143780000Y-141010000D03*
X141240000Y-141010000D03*
X138700000Y-141010000D03*
X136160000Y-141010000D03*
X133620000Y-141010000D03*
X131080000Y-141010000D03*
X128540000Y-141010000D03*
X126000000Y-141010000D03*
X123460000Y-141010000D03*
X120920000Y-141010000D03*
X159020000Y-138470000D03*
X156480000Y-138470000D03*
X153940000Y-138470000D03*
X151400000Y-138470000D03*
X148860000Y-138470000D03*
X146320000Y-138470000D03*
X143780000Y-138470000D03*
X141240000Y-138470000D03*
X138700000Y-138470000D03*
X136160000Y-138470000D03*
X133620000Y-138470000D03*
X131080000Y-138470000D03*
X128540000Y-138470000D03*
X126000000Y-138470000D03*
X123460000Y-138470000D03*
X120920000Y-138470000D03*
X118380000Y-138470000D03*
X115840000Y-138470000D03*
X113300000Y-138470000D03*
X110760000Y-138470000D03*
X159020000Y-135930000D03*
X156480000Y-135930000D03*
X153940000Y-135930000D03*
X151400000Y-135930000D03*
X148860000Y-135930000D03*
X146320000Y-135930000D03*
X143780000Y-135930000D03*
X141240000Y-135930000D03*
X138700000Y-135930000D03*
X136160000Y-135930000D03*
X133620000Y-135930000D03*
X131080000Y-135930000D03*
X128540000Y-135930000D03*
X126000000Y-135930000D03*
X123460000Y-135930000D03*
X120920000Y-135930000D03*
X118380000Y-135930000D03*
X115840000Y-135930000D03*
X113300000Y-135930000D03*
X110760000Y-135930000D03*
X159020000Y-118150000D03*
X156480000Y-118150000D03*
X153940000Y-118150000D03*
X151400000Y-118150000D03*
X148860000Y-118150000D03*
X146320000Y-118150000D03*
X143780000Y-118150000D03*
X141240000Y-118150000D03*
X138700000Y-118150000D03*
X136160000Y-118150000D03*
X133620000Y-118150000D03*
X131080000Y-118150000D03*
X128540000Y-118150000D03*
X126000000Y-118150000D03*
X123460000Y-118150000D03*
X120920000Y-118150000D03*
X118380000Y-118150000D03*
X115840000Y-118150000D03*
X113300000Y-118150000D03*
X110760000Y-118150000D03*
X159020000Y-115610000D03*
X156480000Y-115610000D03*
X153940000Y-115610000D03*
X151400000Y-115610000D03*
X148860000Y-115610000D03*
X146320000Y-115610000D03*
X143780000Y-115610000D03*
X141240000Y-115610000D03*
X138700000Y-115610000D03*
X136160000Y-115610000D03*
X133620000Y-115610000D03*
X131080000Y-115610000D03*
X128540000Y-115610000D03*
X126000000Y-115610000D03*
X123460000Y-115610000D03*
X120920000Y-115610000D03*
X118380000Y-115610000D03*
X115840000Y-115610000D03*
X113300000Y-115610000D03*
X110760000Y-115610000D03*
X159020000Y-113070000D03*
X156480000Y-113070000D03*
X153940000Y-113070000D03*
X151400000Y-113070000D03*
X148860000Y-113070000D03*
X146320000Y-113070000D03*
X143780000Y-113070000D03*
X141240000Y-113070000D03*
X138700000Y-113070000D03*
X136160000Y-113070000D03*
X133620000Y-113070000D03*
X131080000Y-113070000D03*
X128540000Y-113070000D03*
X126000000Y-113070000D03*
X123460000Y-113070000D03*
X120920000Y-113070000D03*
X118380000Y-113070000D03*
X115840000Y-113070000D03*
X113300000Y-113070000D03*
X110760000Y-102910000D03*
X113300000Y-102910000D03*
X115840000Y-102910000D03*
X118380000Y-102910000D03*
X120920000Y-102910000D03*
X123460000Y-102910000D03*
X123460000Y-146090000D03*
X120920000Y-146090000D03*
X159020000Y-146090000D03*
X156480000Y-146090000D03*
X138700000Y-146090000D03*
X146320000Y-146090000D03*
X141240000Y-146090000D03*
X136160000Y-146090000D03*
X133620000Y-146090000D03*
X131080000Y-146090000D03*
X128540000Y-146090000D03*
X126000000Y-146090000D03*
X143780000Y-146090000D03*
X148860000Y-146090000D03*
X153940000Y-146090000D03*
X151400000Y-146090000D03*
D10*
X159020000Y-133390000D03*
X156480000Y-133390000D03*
X153940000Y-133390000D03*
X151400000Y-133390000D03*
X148860000Y-133390000D03*
X146320000Y-133390000D03*
X143780000Y-133390000D03*
X141240000Y-133390000D03*
X138700000Y-133390000D03*
X136160000Y-133390000D03*
X133620000Y-133390000D03*
X131080000Y-133390000D03*
X128540000Y-133390000D03*
X126000000Y-133390000D03*
X123460000Y-133390000D03*
X120920000Y-133390000D03*
X118380000Y-133390000D03*
X115840000Y-133390000D03*
X113300000Y-133390000D03*
D11*
X110760000Y-133390000D03*
D10*
X159020000Y-130850000D03*
X156480000Y-130850000D03*
X153940000Y-130850000D03*
X151400000Y-130850000D03*
X148860000Y-130850000D03*
X146320000Y-130850000D03*
X143780000Y-130850000D03*
X141240000Y-130850000D03*
X138700000Y-130850000D03*
X136160000Y-130850000D03*
X133620000Y-130850000D03*
X131080000Y-130850000D03*
X128540000Y-130850000D03*
X126000000Y-130850000D03*
X123460000Y-130850000D03*
X120920000Y-130850000D03*
X118380000Y-130850000D03*
X115840000Y-130850000D03*
X113300000Y-130850000D03*
D11*
X110760000Y-130850000D03*
D10*
X159020000Y-128310000D03*
X156480000Y-128310000D03*
X153940000Y-128310000D03*
X151400000Y-128310000D03*
X148860000Y-128310000D03*
X146320000Y-128310000D03*
X143780000Y-128310000D03*
X141240000Y-128310000D03*
X138700000Y-128310000D03*
X136160000Y-128310000D03*
X133620000Y-128310000D03*
X131080000Y-128310000D03*
X128540000Y-128310000D03*
X126000000Y-128310000D03*
X123460000Y-128310000D03*
X120920000Y-128310000D03*
X118380000Y-128310000D03*
X115840000Y-128310000D03*
X113300000Y-128310000D03*
D11*
X110760000Y-128310000D03*
D10*
X159020000Y-105450000D03*
X156480000Y-105450000D03*
X153940000Y-105450000D03*
X151400000Y-105450000D03*
X148860000Y-105450000D03*
X146320000Y-105450000D03*
X143780000Y-105450000D03*
X141240000Y-105450000D03*
X138700000Y-105450000D03*
X136160000Y-105450000D03*
X133620000Y-105450000D03*
X131080000Y-105450000D03*
X128540000Y-105450000D03*
X126000000Y-105450000D03*
X123460000Y-105450000D03*
X120920000Y-105450000D03*
X118380000Y-105450000D03*
X115840000Y-105450000D03*
X113300000Y-105450000D03*
D11*
X110760000Y-105450000D03*
D10*
X159020000Y-123230000D03*
X156480000Y-123230000D03*
X153940000Y-123230000D03*
X151400000Y-123230000D03*
X148860000Y-123230000D03*
X146320000Y-123230000D03*
X143780000Y-123230000D03*
X141240000Y-123230000D03*
X138700000Y-123230000D03*
X136160000Y-123230000D03*
X133620000Y-123230000D03*
X131080000Y-123230000D03*
X128540000Y-123230000D03*
X126000000Y-123230000D03*
X123460000Y-123230000D03*
X120920000Y-123230000D03*
X118380000Y-123230000D03*
X115840000Y-123230000D03*
X113300000Y-123230000D03*
D11*
X110760000Y-123230000D03*
D15*
X163100000Y-125770000D03*
X163100000Y-123230000D03*
D12*
X146320000Y-102910000D03*
X159020000Y-102910000D03*
X156480000Y-102910000D03*
X153940000Y-102910000D03*
X151400000Y-102910000D03*
X148860000Y-102910000D03*
D13*
X168500000Y-111200000D03*
X168500000Y-114700000D03*
D14*
X168500000Y-118200000D03*
D12*
X161560000Y-114700000D03*
X161560000Y-137800000D03*
X161560000Y-134300000D03*
X161560000Y-130800000D03*
X161560000Y-118200000D03*
X161560000Y-111200000D03*
X143780000Y-102910000D03*
X141240000Y-102910000D03*
X138700000Y-102910000D03*
X136160000Y-102910000D03*
X133620000Y-102910000D03*
X131080000Y-102910000D03*
X128540000Y-102910000D03*
X126000000Y-102910000D03*
D16*
X159020000Y-103007800D02*
X159322900Y-102704900D01*
X156480000Y-103528500D02*
X156592400Y-103416100D01*
X153940000Y-103541200D02*
X154382600Y-103098600D01*
X128540000Y-103430700D02*
X128284100Y-103174800D01*
X126000000Y-103379900D02*
X125883800Y-103263700D01*
X146320000Y-102910000D02*
X146320000Y-104379400D01*
X146320000Y-104379400D02*
X146320000Y-107990000D01*
X153940000Y-107990000D02*
X153940000Y-106424100D01*
X156480000Y-102910000D02*
X156480000Y-104493700D01*
X156480000Y-104493700D02*
X156480000Y-107990000D01*
X141240000Y-135930000D02*
X141240000Y-134304400D01*
X110760000Y-138470000D02*
X113300000Y-138470000D01*
X113300000Y-138470000D02*
X115840000Y-138470000D01*
X115840000Y-138470000D02*
X118380000Y-138470000D01*
X118380000Y-138470000D02*
X120920000Y-138470000D01*
X120920000Y-138470000D02*
X123460000Y-138470000D01*
X123460000Y-138470000D02*
X126000000Y-138470000D01*
X126000000Y-138470000D02*
X128540000Y-138470000D01*
X120920000Y-141010000D02*
X123460000Y-141010000D01*
X123460000Y-141010000D02*
X126000000Y-141010000D01*
X126000000Y-141010000D02*
X128540000Y-141010000D01*
X128540000Y-138470000D02*
X131080000Y-138470000D01*
X128540000Y-141010000D02*
X131080000Y-141010000D01*
X131080000Y-141010000D02*
X133620000Y-141010000D01*
X131080000Y-138470000D02*
X132604000Y-138470000D01*
X133620000Y-138470000D02*
X136160000Y-138470000D01*
X133620000Y-141010000D02*
X136160000Y-141010000D01*
X136160000Y-138470000D02*
X138700000Y-138470000D01*
X136160000Y-141010000D02*
X138700000Y-141010000D01*
X138700000Y-141010000D02*
X141240000Y-141010000D01*
X138700000Y-138470000D02*
X141240000Y-138470000D01*
X141240000Y-138470000D02*
X143780000Y-138470000D01*
X141240000Y-141010000D02*
X143780000Y-141010000D01*
X143780000Y-138470000D02*
X146320000Y-138470000D01*
X143780000Y-141010000D02*
X146320000Y-141010000D01*
X146320000Y-138470000D02*
X148860000Y-138470000D01*
X146320000Y-141010000D02*
X148860000Y-141010000D01*
X148860000Y-138470000D02*
X151400000Y-138470000D01*
X148860000Y-141010000D02*
X151400000Y-141010000D01*
X151400000Y-141010000D02*
X153940000Y-141010000D01*
X151400000Y-138470000D02*
X153940000Y-138470000D01*
X153940000Y-138470000D02*
X156480000Y-138470000D01*
X156480000Y-138470000D02*
X159020000Y-138470000D01*
X153940000Y-141010000D02*
X156480000Y-141010000D01*
X156480000Y-141010000D02*
X159020000Y-141010000D01*
X159020000Y-143550000D02*
X159020000Y-146090000D01*
X156480000Y-143550000D02*
X156480000Y-146090000D01*
X153940000Y-143550000D02*
X153940000Y-146090000D01*
X151400000Y-143550000D02*
X151400000Y-146090000D01*
X148860000Y-143550000D02*
X148860000Y-146090000D01*
X146320000Y-143550000D02*
X146320000Y-146090000D01*
X143780000Y-143550000D02*
X143780000Y-146090000D01*
X141240000Y-143550000D02*
X141240000Y-146090000D01*
X138700000Y-143550000D02*
X138700000Y-146090000D01*
X136160000Y-143550000D02*
X136160000Y-146090000D01*
X133620000Y-143550000D02*
X133620000Y-146090000D01*
X131080000Y-143550000D02*
X131080000Y-146090000D01*
X128540000Y-143550000D02*
X128540000Y-146090000D01*
X126000000Y-143550000D02*
X126000000Y-146090000D01*
X123460000Y-143550000D02*
X123460000Y-146090000D01*
X120920000Y-143550000D02*
X120920000Y-146090000D01*
X159020000Y-118150000D02*
X156480000Y-118150000D01*
X156480000Y-118150000D02*
X153940000Y-118150000D01*
X153940000Y-118150000D02*
X151400000Y-118150000D01*
X151400000Y-118150000D02*
X148860000Y-118150000D01*
X148860000Y-118150000D02*
X146320000Y-118150000D01*
X146320000Y-118150000D02*
X143780000Y-118150000D01*
X143780000Y-118150000D02*
X141240000Y-118150000D01*
X141240000Y-118150000D02*
X138700000Y-118150000D01*
X138700000Y-118150000D02*
X136160000Y-118150000D01*
X136160000Y-118150000D02*
X133620000Y-118150000D01*
X133620000Y-118150000D02*
X131080000Y-118150000D01*
X128540000Y-118150000D02*
X131080000Y-118150000D01*
X128540000Y-118150000D02*
X126000000Y-118150000D01*
X126000000Y-118150000D02*
X123460000Y-118150000D01*
X123460000Y-118150000D02*
X120920000Y-118150000D01*
X120920000Y-118150000D02*
X118380000Y-118150000D01*
X118380000Y-118150000D02*
X115840000Y-118150000D01*
X115840000Y-118150000D02*
X113300000Y-118150000D01*
X113300000Y-118150000D02*
X110760000Y-118150000D01*
X110760000Y-115610000D02*
X113300000Y-115610000D01*
X113300000Y-115610000D02*
X115840000Y-115610000D01*
X115840000Y-115610000D02*
X118380000Y-115610000D01*
X118380000Y-115610000D02*
X120920000Y-115610000D01*
X120920000Y-115610000D02*
X123460000Y-115610000D01*
X123460000Y-115610000D02*
X126000000Y-115610000D01*
X126000000Y-115610000D02*
X128540000Y-115610000D01*
X128540000Y-115610000D02*
X131080000Y-115610000D01*
X131080000Y-115610000D02*
X133620000Y-115610000D01*
X133620000Y-115610000D02*
X136160000Y-115610000D01*
X136160000Y-115610000D02*
X138700000Y-115610000D01*
X138700000Y-115610000D02*
X141240000Y-115610000D01*
X141240000Y-115610000D02*
X143780000Y-115610000D01*
X143780000Y-115610000D02*
X146320000Y-115610000D01*
X146320000Y-115610000D02*
X148860000Y-115610000D01*
X148860000Y-115610000D02*
X151400000Y-115610000D01*
X151400000Y-115610000D02*
X153940000Y-115610000D01*
X153940000Y-115610000D02*
X156480000Y-115610000D01*
X156480000Y-115610000D02*
X159020000Y-115610000D01*
X167603900Y-130800000D02*
X167670100Y-130733800D01*
X167837900Y-130800000D02*
X167974900Y-130937000D01*
X161560000Y-130800000D02*
X167837900Y-130800000D01*
X167324700Y-134300000D02*
X167390700Y-134366000D01*
X167291600Y-134300000D02*
X167403400Y-134188200D01*
X167629500Y-134300000D02*
X167771700Y-134442200D01*
X161560000Y-134300000D02*
X167629500Y-134300000D01*
X167512700Y-137800000D02*
X167568500Y-137744200D01*
X161560000Y-137800000D02*
X167512700Y-137800000D01*
X167249800Y-111200000D02*
X167428800Y-111379000D01*
X167427600Y-111200000D02*
X167466900Y-111239300D01*
X167518900Y-111200000D02*
X167657400Y-111061500D01*
X167922900Y-111200000D02*
X167974900Y-111252000D01*
X161560000Y-111200000D02*
X167922900Y-111200000D01*
X167694400Y-118200000D02*
X167746300Y-118148100D01*
X167465800Y-118200000D02*
X167695500Y-117970300D01*
X161560000Y-118200000D02*
X167465800Y-118200000D01*
X167536800Y-114700000D02*
X167632000Y-114604800D01*
X167638300Y-114700000D02*
X167657400Y-114719100D01*
X161560000Y-114700000D02*
X167638300Y-114700000D01*
X128540000Y-104773100D02*
X128385700Y-104927400D01*
X128540000Y-102910000D02*
X128540000Y-104773100D01*
X128540000Y-105450000D02*
X128540000Y-106948600D01*
X126000000Y-105069000D02*
X126214000Y-105283000D01*
X126000000Y-102910000D02*
X126000000Y-105069000D01*
X126000000Y-107249600D02*
X125972700Y-107276900D01*
X126000000Y-105450000D02*
X126000000Y-107249600D01*
X123460000Y-104764200D02*
X123737500Y-105041700D01*
X123460000Y-102910000D02*
X123460000Y-104764200D01*
X123460000Y-107126400D02*
X123801000Y-107467400D01*
X123460000Y-105450000D02*
X123460000Y-107126400D01*
X120920000Y-105878000D02*
X120905400Y-105892600D01*
X120920000Y-102910000D02*
X120920000Y-105878000D01*
X120920000Y-105450000D02*
X120920000Y-107126400D01*
X118380000Y-105446200D02*
X118301900Y-105524300D01*
X118380000Y-102910000D02*
X118380000Y-105446200D01*
X118380000Y-107325800D02*
X118187600Y-107518200D01*
X118380000Y-105450000D02*
X118380000Y-107325800D01*
X115840000Y-105297600D02*
X116130200Y-105587800D01*
X115840000Y-102910000D02*
X115840000Y-105297600D01*
X115840000Y-107786800D02*
X116003200Y-107950000D01*
X115840000Y-105450000D02*
X115840000Y-107786800D01*
X113300000Y-105281100D02*
X113298100Y-105283000D01*
X113300000Y-102910000D02*
X113300000Y-105281100D01*
X113300000Y-107469300D02*
X113475900Y-107645200D01*
X113300000Y-105450000D02*
X113300000Y-107469300D01*
X110760000Y-105170600D02*
X110872400Y-105283000D01*
X110760000Y-102910000D02*
X110760000Y-105170600D01*
X110760000Y-107456600D02*
X111062900Y-107759500D01*
X110760000Y-105450000D02*
X110760000Y-107456600D01*
X128540000Y-123150000D02*
X128550800Y-123139200D01*
X128540000Y-125770000D02*
X128540000Y-123150000D01*
X128540000Y-123230000D02*
X128540000Y-120702700D01*
X128540000Y-112342800D02*
X128566800Y-112369600D01*
X128540000Y-110530000D02*
X128540000Y-112342800D01*
X126000000Y-123318900D02*
X125960000Y-123278900D01*
X126000000Y-125770000D02*
X126000000Y-123318900D01*
X126000000Y-123230000D02*
X126000000Y-120855100D01*
X126000000Y-112498000D02*
X125976000Y-112522000D01*
X126000000Y-110530000D02*
X126000000Y-112498000D01*
X123460000Y-123280800D02*
X123407300Y-123228100D01*
X123460000Y-125770000D02*
X123460000Y-123280800D01*
X123460000Y-123230000D02*
X123460000Y-120639200D01*
X123460000Y-112800000D02*
X123575700Y-112915700D01*
X123460000Y-110530000D02*
X123460000Y-112800000D01*
X120920000Y-123150000D02*
X121045100Y-123024900D01*
X120920000Y-125770000D02*
X120920000Y-123150000D01*
X120920000Y-123230000D02*
X120920000Y-121372000D01*
X120920000Y-112571400D02*
X120959500Y-112610900D01*
X120920000Y-110530000D02*
X120920000Y-112571400D01*
X118380000Y-123607200D02*
X118543200Y-123444000D01*
X118380000Y-125770000D02*
X118380000Y-123607200D01*
X118380000Y-123230000D02*
X118380000Y-121359300D01*
X118380000Y-112688500D02*
X118279800Y-112788700D01*
X118380000Y-110530000D02*
X118380000Y-112688500D01*
X115840000Y-123556400D02*
X116066700Y-123329700D01*
X115840000Y-125770000D02*
X115840000Y-123556400D01*
X115840000Y-123230000D02*
X115840000Y-120918600D01*
X115840000Y-112637700D02*
X115765200Y-112712500D01*
X115840000Y-110530000D02*
X115840000Y-112637700D01*
X113300000Y-123509400D02*
X113285400Y-123494800D01*
X113300000Y-125770000D02*
X113300000Y-123509400D01*
X113300000Y-123230000D02*
X113300000Y-120965600D01*
X113300000Y-112726600D02*
X113136300Y-112890300D01*
X113300000Y-110530000D02*
X113300000Y-112726600D01*
X110760000Y-123619900D02*
X111164500Y-123215400D01*
X110760000Y-125770000D02*
X110760000Y-123619900D01*
X110760000Y-112596800D02*
X110850300Y-112687100D01*
X110760000Y-110530000D02*
X110760000Y-112596800D01*
X120920000Y-126159900D02*
X120956200Y-126123700D01*
X120920000Y-128310000D02*
X120920000Y-126159900D01*
X115840000Y-126515500D02*
X116155600Y-126199900D01*
X115840000Y-128310000D02*
X115840000Y-126515500D01*
X113300000Y-126087500D02*
X113260000Y-126047500D01*
X113300000Y-128310000D02*
X113300000Y-126087500D01*
X110760000Y-123230000D02*
X110760000Y-120981600D01*
X133620000Y-104646100D02*
X133580000Y-104686100D01*
X133620000Y-102910000D02*
X133620000Y-104646100D01*
X133620000Y-107316900D02*
X133821300Y-107518200D01*
X133620000Y-105450000D02*
X133620000Y-107316900D01*
X131080000Y-104646100D02*
X131040000Y-104686100D01*
X131080000Y-102910000D02*
X131080000Y-104646100D01*
X131080000Y-105450000D02*
X131080000Y-106961300D01*
X159068900Y-104025700D02*
X159068900Y-105041700D01*
X159020000Y-106182800D02*
X159068900Y-106133900D01*
X159020000Y-107990000D02*
X159020000Y-106182800D01*
X153940000Y-104785800D02*
X153925400Y-104800400D01*
X153940000Y-102910000D02*
X153940000Y-104785800D01*
X151400000Y-104976300D02*
X151271100Y-105105200D01*
X151400000Y-102910000D02*
X151400000Y-104976300D01*
X151400000Y-106182800D02*
X151448900Y-106133900D01*
X151400000Y-107990000D02*
X151400000Y-106182800D01*
X148860000Y-104980100D02*
X148985100Y-105105200D01*
X148860000Y-102910000D02*
X148860000Y-104980100D01*
X148860000Y-106322500D02*
X148985100Y-106197400D01*
X148860000Y-107990000D02*
X148860000Y-106322500D01*
X143780000Y-104624500D02*
X143841600Y-104686100D01*
X143780000Y-102910000D02*
X143780000Y-104624500D01*
X143780000Y-105450000D02*
X143780000Y-106974000D01*
X141240000Y-104561000D02*
X141428600Y-104749600D01*
X141240000Y-102910000D02*
X141240000Y-104561000D01*
X141240000Y-105450000D02*
X141240000Y-107681900D01*
X138700000Y-104611800D02*
X138837800Y-104749600D01*
X138700000Y-102910000D02*
X138700000Y-104611800D01*
X138700000Y-105450000D02*
X138700000Y-107532300D01*
X136160000Y-105208700D02*
X136183500Y-105232200D01*
X136160000Y-102910000D02*
X136160000Y-105208700D01*
X136160000Y-105450000D02*
X136160000Y-107427900D01*
X159020000Y-123318900D02*
X159018100Y-123317000D01*
X159020000Y-125770000D02*
X159020000Y-123318900D01*
X159020000Y-123230000D02*
X159020000Y-120715400D01*
X159020000Y-112634900D02*
X159021400Y-112636300D01*
X159020000Y-110530000D02*
X159020000Y-112634900D01*
X156480000Y-123191900D02*
X156465400Y-123177300D01*
X156480000Y-125770000D02*
X156480000Y-123191900D01*
X156480000Y-123230000D02*
X156480000Y-120639200D01*
X156480000Y-112561500D02*
X156202000Y-112839500D01*
X156480000Y-110530000D02*
X156480000Y-112561500D01*
X153940000Y-123429400D02*
X154001600Y-123367800D01*
X153940000Y-125770000D02*
X153940000Y-123429400D01*
X153940000Y-123230000D02*
X153940000Y-120698900D01*
X153940000Y-112396400D02*
X153839800Y-112496600D01*
X153940000Y-110530000D02*
X153940000Y-112396400D01*
X151400000Y-123277000D02*
X151448900Y-123228100D01*
X151400000Y-125770000D02*
X151400000Y-123277000D01*
X151400000Y-123230000D02*
X151400000Y-120635400D01*
X151400000Y-112498000D02*
X151261700Y-112636300D01*
X151400000Y-110530000D02*
X151400000Y-112498000D01*
X148860000Y-123213500D02*
X148896200Y-123177300D01*
X148860000Y-125770000D02*
X148860000Y-123213500D01*
X148860000Y-123230000D02*
X148860000Y-120762400D01*
X148860000Y-112523400D02*
X148670900Y-112712500D01*
X148860000Y-110530000D02*
X148860000Y-112523400D01*
X146320000Y-123382400D02*
X146165700Y-123228100D01*
X146320000Y-125770000D02*
X146320000Y-123382400D01*
X146320000Y-123230000D02*
X146320000Y-120698900D01*
X146320000Y-112812700D02*
X146397600Y-112890300D01*
X146320000Y-110530000D02*
X146320000Y-112812700D01*
X143780000Y-123306200D02*
X143752700Y-123278900D01*
X143780000Y-125770000D02*
X143780000Y-123306200D01*
X143780000Y-123230000D02*
X143780000Y-120702700D01*
X143780000Y-112625000D02*
X143743300Y-112661700D01*
X143780000Y-110530000D02*
X143780000Y-112625000D01*
X141240000Y-123369700D02*
X141149200Y-123278900D01*
X141240000Y-125770000D02*
X141240000Y-123369700D01*
X141240000Y-123230000D02*
X141240000Y-120715400D01*
X141240000Y-112548800D02*
X141101700Y-112687100D01*
X141240000Y-110530000D02*
X141240000Y-112548800D01*
X138700000Y-123153800D02*
X138685400Y-123139200D01*
X138700000Y-125770000D02*
X138700000Y-123153800D01*
X138700000Y-123230000D02*
X138700000Y-120740800D01*
X138700000Y-112472600D02*
X138650600Y-112522000D01*
X138700000Y-110530000D02*
X138700000Y-112472600D01*
X136160000Y-123200800D02*
X136221600Y-123139200D01*
X136160000Y-125770000D02*
X136160000Y-123200800D01*
X136160000Y-123230000D02*
X136160000Y-120648100D01*
X136160000Y-112380900D02*
X136199500Y-112420400D01*
X136160000Y-110530000D02*
X136160000Y-112380900D01*
X133620000Y-123141100D02*
X133618100Y-123139200D01*
X133620000Y-125770000D02*
X133620000Y-123141100D01*
X133620000Y-123230000D02*
X133620000Y-120753500D01*
X133620000Y-112409100D02*
X133469000Y-112560100D01*
X133620000Y-110530000D02*
X133620000Y-112409100D01*
X131080000Y-123293500D02*
X131065400Y-123278900D01*
X131080000Y-125770000D02*
X131080000Y-123293500D01*
X131080000Y-123230000D02*
X131080000Y-120690000D01*
X131080000Y-112622200D02*
X131195700Y-112737900D01*
X131080000Y-110530000D02*
X131080000Y-112622200D01*
X159020000Y-125731900D02*
X159018100Y-125730000D01*
X159020000Y-128310000D02*
X159020000Y-125731900D01*
X156480000Y-125922400D02*
X156427300Y-125869700D01*
X156480000Y-128310000D02*
X156480000Y-125922400D01*
X153940000Y-125893200D02*
X154001600Y-125831600D01*
X153940000Y-128310000D02*
X153940000Y-125893200D01*
X151400000Y-125770000D02*
X151360000Y-125730000D01*
X151400000Y-128310000D02*
X151400000Y-125770000D01*
X148860000Y-125728100D02*
X148896200Y-125691900D01*
X148860000Y-128310000D02*
X148860000Y-125728100D01*
X146320000Y-125804300D02*
X146394300Y-125730000D01*
X146320000Y-128310000D02*
X146320000Y-125804300D01*
X159020000Y-130850000D02*
X159020000Y-128344300D01*
X156480000Y-130850000D02*
X156480000Y-128191900D01*
X153940000Y-130850000D02*
X153940000Y-128357000D01*
X151400000Y-130850000D02*
X151400000Y-128306200D01*
X148860000Y-130850000D02*
X148860000Y-128230000D01*
X146320000Y-130850000D02*
X146320000Y-128268100D01*
X143780000Y-130850000D02*
X143780000Y-128395100D01*
X143879700Y-128295400D02*
X143879700Y-125730000D01*
X143780000Y-128395100D02*
X143879700Y-128295400D01*
X120920000Y-130850000D02*
X120920000Y-128691000D01*
X118380000Y-130850000D02*
X118380000Y-128788800D01*
X118378100Y-128786900D02*
X118378100Y-125730000D01*
X118380000Y-128788800D02*
X118378100Y-128786900D01*
X115840000Y-130850000D02*
X115840000Y-128661800D01*
X110760000Y-134139300D02*
X110745400Y-134124700D01*
X110760000Y-135930000D02*
X110760000Y-134139300D01*
X110760000Y-133390000D02*
X110760000Y-131104000D01*
X110760000Y-131104000D02*
X110910500Y-130953500D01*
X110910500Y-125895100D02*
X111101000Y-125704600D01*
X110910500Y-130953500D02*
X110910500Y-125895100D01*
X159020000Y-134152000D02*
X158865700Y-133997700D01*
X159020000Y-135930000D02*
X159020000Y-134152000D01*
X159020000Y-133390000D02*
X159020000Y-130850000D01*
X156480000Y-133390000D02*
X156480000Y-130799200D01*
X156480000Y-133986900D02*
X156452700Y-133959600D01*
X156480000Y-135930000D02*
X156480000Y-133986900D01*
X153940000Y-134088500D02*
X153912700Y-134061200D01*
X153940000Y-135930000D02*
X153940000Y-134088500D01*
X153940000Y-133390000D02*
X153940000Y-130820800D01*
X151400000Y-133390000D02*
X151400000Y-134834000D01*
X151400000Y-133390000D02*
X151400000Y-130897000D01*
X148860000Y-133390000D02*
X148860000Y-130850000D01*
X148860000Y-134046600D02*
X148883500Y-134023100D01*
X148860000Y-135930000D02*
X148860000Y-134046600D01*
X146320000Y-133390000D02*
X146320000Y-130964300D01*
X146320000Y-133898000D02*
X146292700Y-133870700D01*
X146320000Y-135930000D02*
X146320000Y-133898000D01*
X143780000Y-133390000D02*
X143780000Y-130947800D01*
X143780000Y-134249800D02*
X143943200Y-134086600D01*
X143780000Y-135930000D02*
X143780000Y-134249800D01*
X141240000Y-133390000D02*
X141240000Y-130710300D01*
X141240000Y-130710300D02*
X141200000Y-130670300D01*
X141200000Y-125920500D02*
X141149200Y-125869700D01*
X141200000Y-130670300D02*
X141200000Y-125920500D01*
X138700000Y-133390000D02*
X138700000Y-130884300D01*
X138700000Y-130884300D02*
X138774300Y-130810000D01*
X138774300Y-125768100D02*
X138736200Y-125730000D01*
X138774300Y-130810000D02*
X138774300Y-125768100D01*
X138700000Y-134075800D02*
X138685400Y-134061200D01*
X138700000Y-135930000D02*
X138700000Y-134075800D01*
X136160000Y-134135500D02*
X136170800Y-134124700D01*
X136160000Y-135930000D02*
X136160000Y-134135500D01*
X136160000Y-133390000D02*
X136160000Y-130820800D01*
X136160000Y-130820800D02*
X136183500Y-130797300D01*
X136183500Y-125907800D02*
X136221600Y-125869700D01*
X136183500Y-130797300D02*
X136183500Y-125907800D01*
X133620000Y-133390000D02*
X133620000Y-134901300D01*
X133620000Y-133390000D02*
X133620000Y-130938900D01*
X133620000Y-130938900D02*
X133580000Y-130898900D01*
X133580000Y-130898900D02*
X133580000Y-125958600D01*
X131080000Y-133720200D02*
X131014600Y-133654800D01*
X131080000Y-135930000D02*
X131080000Y-133720200D01*
X131080000Y-133390000D02*
X131080000Y-130811900D01*
X131080000Y-130811900D02*
X131014600Y-130746500D01*
X131014600Y-125818900D02*
X130976500Y-125780800D01*
X131014600Y-130746500D02*
X131014600Y-125818900D01*
X128540000Y-134135500D02*
X128550800Y-134124700D01*
X128540000Y-135930000D02*
X128540000Y-134135500D01*
X128540000Y-133390000D02*
X128540000Y-130985900D01*
X128540000Y-130985900D02*
X128512700Y-130958600D01*
X128512700Y-125818900D02*
X128550800Y-125780800D01*
X128512700Y-130958600D02*
X128512700Y-125818900D01*
X126000000Y-133390000D02*
X126000000Y-130833500D01*
X126000000Y-130833500D02*
X125998100Y-130831600D01*
X125998100Y-125882400D02*
X126048900Y-125831600D01*
X125998100Y-130831600D02*
X125998100Y-125882400D01*
X126000000Y-134199000D02*
X126048900Y-134150100D01*
X126000000Y-135930000D02*
X126000000Y-134199000D01*
X123460000Y-134275200D02*
X123610500Y-134124700D01*
X123460000Y-135930000D02*
X123460000Y-134275200D01*
X123460000Y-133390000D02*
X123460000Y-131002400D01*
X123460000Y-131002400D02*
X123496200Y-130966200D01*
X123496200Y-125742700D02*
X123445400Y-125691900D01*
X123496200Y-130966200D02*
X123496200Y-125742700D01*
X120920000Y-134875900D02*
X121007000Y-134962900D01*
X120920000Y-133390000D02*
X120920000Y-134875900D01*
X120920000Y-133390000D02*
X120920000Y-131815200D01*
X120920000Y-131815200D02*
X120920000Y-131278000D01*
X118380000Y-133390000D02*
X118380000Y-130998600D01*
X118380000Y-134075800D02*
X118327300Y-134023100D01*
X118380000Y-135930000D02*
X118380000Y-134075800D01*
X115840000Y-134215500D02*
X115812700Y-134188200D01*
X115840000Y-135930000D02*
X115840000Y-134215500D01*
X115840000Y-133390000D02*
X115840000Y-131278000D01*
X113300000Y-133390000D02*
X113300000Y-131218300D01*
X113300000Y-131218300D02*
X113387000Y-131131300D01*
X113387000Y-131131300D02*
X113387000Y-128689100D01*
X113300000Y-134075800D02*
X113247300Y-134023100D01*
X113300000Y-135930000D02*
X113300000Y-134075800D01*
D17*
G36*
X167922061Y-101068607D02*
G01*
X167938262Y-101170898D01*
X168176369Y-102162684D01*
X168208372Y-102261181D01*
X168598697Y-103203509D01*
X168622207Y-103249648D01*
X168645715Y-103295787D01*
X169178647Y-104165453D01*
X169204829Y-104201489D01*
X169239522Y-104249240D01*
X169901938Y-105024830D01*
X169975170Y-105098062D01*
X170750760Y-105760478D01*
X170834547Y-105821353D01*
X171704213Y-106354284D01*
X171796491Y-106401303D01*
X172738819Y-106791627D01*
X172837316Y-106823631D01*
X173829102Y-107061738D01*
X173931393Y-107077939D01*
X174340000Y-107110097D01*
X174340001Y-141889903D01*
X173931393Y-141922061D01*
X173829102Y-141938262D01*
X172837316Y-142176369D01*
X172738819Y-142208373D01*
X171796491Y-142598697D01*
X171705618Y-142645000D01*
X171704213Y-142645716D01*
X170834547Y-143178647D01*
X170750760Y-143239522D01*
X169975170Y-143901938D01*
X169901938Y-143975170D01*
X169239522Y-144750760D01*
X169209084Y-144792654D01*
X169178647Y-144834547D01*
X168645715Y-145704213D01*
X168626392Y-145742138D01*
X168598697Y-145796491D01*
X168208372Y-146738819D01*
X168178937Y-146829411D01*
X168176369Y-146837316D01*
X167938262Y-147829102D01*
X167922061Y-147931393D01*
X167889903Y-148340000D01*
X107110097Y-148340000D01*
X107077939Y-147931393D01*
X107061738Y-147829102D01*
X106823631Y-146837316D01*
X106791627Y-146738819D01*
X106401303Y-145796491D01*
X106354284Y-145704213D01*
X105821353Y-144834547D01*
X105760478Y-144750760D01*
X105366714Y-144289721D01*
X110365000Y-144289721D01*
X110365000Y-144710279D01*
X110447047Y-145122756D01*
X110607988Y-145511302D01*
X110841637Y-145860983D01*
X111139017Y-146158363D01*
X111488698Y-146392012D01*
X111877244Y-146552953D01*
X112289721Y-146635000D01*
X112710279Y-146635000D01*
X113122756Y-146552953D01*
X113511302Y-146392012D01*
X113860983Y-146158363D01*
X114158363Y-145860983D01*
X114392012Y-145511302D01*
X114552953Y-145122756D01*
X114635000Y-144710279D01*
X114635000Y-144289721D01*
X114552953Y-143877244D01*
X114392012Y-143488698D01*
X114158363Y-143139017D01*
X113860983Y-142841637D01*
X113511302Y-142607988D01*
X113122756Y-142447047D01*
X112710279Y-142365000D01*
X112289721Y-142365000D01*
X111877244Y-142447047D01*
X111488698Y-142607988D01*
X111139017Y-142841637D01*
X110841637Y-143139017D01*
X110607988Y-143488698D01*
X110447047Y-143877244D01*
X110365000Y-144289721D01*
X105366714Y-144289721D01*
X105098062Y-143975170D01*
X105024830Y-143901938D01*
X104249240Y-143239522D01*
X104180784Y-143189786D01*
X104165453Y-143178647D01*
X103295787Y-142645715D01*
X103249648Y-142622207D01*
X103203509Y-142598697D01*
X102261181Y-142208372D01*
X102162684Y-142176369D01*
X101170898Y-141938262D01*
X101068607Y-141922061D01*
X100660000Y-141889903D01*
X100660000Y-124289721D01*
X103365000Y-124289721D01*
X103365000Y-124710279D01*
X103447047Y-125122756D01*
X103607988Y-125511302D01*
X103841637Y-125860983D01*
X104139017Y-126158363D01*
X104488698Y-126392012D01*
X104877244Y-126552953D01*
X105289721Y-126635000D01*
X105710279Y-126635000D01*
X106122756Y-126552953D01*
X106511302Y-126392012D01*
X106860983Y-126158363D01*
X107158363Y-125860983D01*
X107392012Y-125511302D01*
X107552953Y-125122756D01*
X107635000Y-124710279D01*
X107635000Y-124289721D01*
X107552953Y-123877244D01*
X107392012Y-123488698D01*
X107158363Y-123139017D01*
X106860983Y-122841637D01*
X106511302Y-122607988D01*
X106122756Y-122447047D01*
X105710279Y-122365000D01*
X105289721Y-122365000D01*
X104877244Y-122447047D01*
X104488698Y-122607988D01*
X104139017Y-122841637D01*
X103841637Y-123139017D01*
X103607988Y-123488698D01*
X103447047Y-123877244D01*
X103365000Y-124289721D01*
X100660000Y-124289721D01*
X100660000Y-107110097D01*
X101068607Y-107077939D01*
X101170898Y-107061738D01*
X102162684Y-106823631D01*
X102165115Y-106822841D01*
X102261181Y-106791628D01*
X103203509Y-106401303D01*
X103295787Y-106354285D01*
X104165453Y-105821353D01*
X104207346Y-105790916D01*
X104249240Y-105760478D01*
X105024830Y-105098062D01*
X105098063Y-105024829D01*
X105760478Y-104249240D01*
X105821353Y-104165453D01*
X105821354Y-104165452D01*
X106354284Y-103295787D01*
X106401303Y-103203509D01*
X106589579Y-102748967D01*
X109125000Y-102748967D01*
X109125000Y-103071033D01*
X109187832Y-103386912D01*
X109311082Y-103684463D01*
X109490013Y-103952252D01*
X109589209Y-104051448D01*
X109555506Y-104069463D01*
X109458815Y-104148815D01*
X109379463Y-104245506D01*
X109320498Y-104355820D01*
X109284188Y-104475518D01*
X109271928Y-104600000D01*
X109271928Y-106300000D01*
X109284188Y-106424482D01*
X109320498Y-106544180D01*
X109379463Y-106654494D01*
X109433222Y-106720000D01*
X109379463Y-106785506D01*
X109320498Y-106895820D01*
X109284188Y-107015518D01*
X109271928Y-107140000D01*
X109271928Y-108840000D01*
X109284188Y-108964482D01*
X109320498Y-109084180D01*
X109379463Y-109194494D01*
X109433222Y-109260000D01*
X109379463Y-109325506D01*
X109320498Y-109435820D01*
X109284188Y-109555518D01*
X109271928Y-109680000D01*
X109271928Y-111380000D01*
X109284188Y-111504482D01*
X109320498Y-111624180D01*
X109379463Y-111734494D01*
X109458815Y-111831185D01*
X109555506Y-111910537D01*
X109589209Y-111928552D01*
X109490013Y-112027748D01*
X109311082Y-112295537D01*
X109187832Y-112593088D01*
X109125000Y-112908967D01*
X109125000Y-113231033D01*
X109187832Y-113546912D01*
X109311082Y-113844463D01*
X109490013Y-114112252D01*
X109717748Y-114339987D01*
X109717767Y-114340000D01*
X109717748Y-114340013D01*
X109490013Y-114567748D01*
X109311082Y-114835537D01*
X109187832Y-115133088D01*
X109125000Y-115448967D01*
X109125000Y-115771033D01*
X109187832Y-116086912D01*
X109311082Y-116384463D01*
X109490013Y-116652252D01*
X109717748Y-116879987D01*
X109717767Y-116880000D01*
X109717748Y-116880013D01*
X109490013Y-117107748D01*
X109311082Y-117375537D01*
X109187832Y-117673088D01*
X109125000Y-117988967D01*
X109125000Y-118311033D01*
X109187832Y-118626912D01*
X109311082Y-118924463D01*
X109490013Y-119192252D01*
X109589209Y-119291448D01*
X109555506Y-119309463D01*
X109458815Y-119388815D01*
X109379463Y-119485506D01*
X109320498Y-119595820D01*
X109284188Y-119715518D01*
X109271928Y-119840000D01*
X109271928Y-121540000D01*
X109284188Y-121664482D01*
X109320498Y-121784180D01*
X109379463Y-121894494D01*
X109433222Y-121960000D01*
X109379463Y-122025506D01*
X109320498Y-122135820D01*
X109284188Y-122255518D01*
X109271928Y-122380000D01*
X109271928Y-124080000D01*
X109284188Y-124204482D01*
X109320498Y-124324180D01*
X109379463Y-124434494D01*
X109458815Y-124531185D01*
X109555506Y-124610537D01*
X109589209Y-124628552D01*
X109490013Y-124727748D01*
X109311082Y-124995537D01*
X109187832Y-125293088D01*
X109125000Y-125608967D01*
X109125000Y-125931033D01*
X109187832Y-126246912D01*
X109311082Y-126544463D01*
X109490013Y-126812252D01*
X109589209Y-126911448D01*
X109555506Y-126929463D01*
X109458815Y-127008815D01*
X109379463Y-127105506D01*
X109320498Y-127215820D01*
X109284188Y-127335518D01*
X109271928Y-127460000D01*
X109271928Y-129160000D01*
X109284188Y-129284482D01*
X109320498Y-129404180D01*
X109379463Y-129514494D01*
X109433222Y-129580000D01*
X109379463Y-129645506D01*
X109320498Y-129755820D01*
X109284188Y-129875518D01*
X109271928Y-130000000D01*
X109271928Y-131700000D01*
X109284188Y-131824482D01*
X109320498Y-131944180D01*
X109379463Y-132054494D01*
X109433222Y-132120000D01*
X109379463Y-132185506D01*
X109320498Y-132295820D01*
X109284188Y-132415518D01*
X109271928Y-132540000D01*
X109271928Y-134240000D01*
X109284188Y-134364482D01*
X109320498Y-134484180D01*
X109379463Y-134594494D01*
X109458815Y-134691185D01*
X109555506Y-134770537D01*
X109589209Y-134788552D01*
X109490013Y-134887748D01*
X109311082Y-135155537D01*
X109187832Y-135453088D01*
X109125000Y-135768967D01*
X109125000Y-136091033D01*
X109187832Y-136406912D01*
X109311082Y-136704463D01*
X109490013Y-136972252D01*
X109717748Y-137199987D01*
X109717767Y-137200000D01*
X109717748Y-137200013D01*
X109490013Y-137427748D01*
X109311082Y-137695537D01*
X109187832Y-137993088D01*
X109125000Y-138308967D01*
X109125000Y-138631033D01*
X109187832Y-138946912D01*
X109311082Y-139244463D01*
X109490013Y-139512252D01*
X109717748Y-139739987D01*
X109985537Y-139918918D01*
X110283088Y-140042168D01*
X110598967Y-140105000D01*
X110921033Y-140105000D01*
X111236912Y-140042168D01*
X111534463Y-139918918D01*
X111802252Y-139739987D01*
X112029987Y-139512252D01*
X112030000Y-139512233D01*
X112030013Y-139512252D01*
X112257748Y-139739987D01*
X112525537Y-139918918D01*
X112823088Y-140042168D01*
X113138967Y-140105000D01*
X113461033Y-140105000D01*
X113776912Y-140042168D01*
X114074463Y-139918918D01*
X114342252Y-139739987D01*
X114569987Y-139512252D01*
X114570000Y-139512233D01*
X114570013Y-139512252D01*
X114797748Y-139739987D01*
X115065537Y-139918918D01*
X115363088Y-140042168D01*
X115678967Y-140105000D01*
X116001033Y-140105000D01*
X116316912Y-140042168D01*
X116614463Y-139918918D01*
X116882252Y-139739987D01*
X117109987Y-139512252D01*
X117110000Y-139512233D01*
X117110013Y-139512252D01*
X117337748Y-139739987D01*
X117605537Y-139918918D01*
X117903088Y-140042168D01*
X118218967Y-140105000D01*
X118541033Y-140105000D01*
X118856912Y-140042168D01*
X119154463Y-139918918D01*
X119422252Y-139739987D01*
X119649987Y-139512252D01*
X119650000Y-139512233D01*
X119650013Y-139512252D01*
X119877748Y-139739987D01*
X119877767Y-139740000D01*
X119877748Y-139740013D01*
X119650013Y-139967748D01*
X119471082Y-140235537D01*
X119347832Y-140533088D01*
X119285000Y-140848967D01*
X119285000Y-141171033D01*
X119347832Y-141486912D01*
X119471082Y-141784463D01*
X119650013Y-142052252D01*
X119877748Y-142279987D01*
X119877767Y-142280000D01*
X119877748Y-142280013D01*
X119650013Y-142507748D01*
X119471082Y-142775537D01*
X119347832Y-143073088D01*
X119285000Y-143388967D01*
X119285000Y-143711033D01*
X119347832Y-144026912D01*
X119471082Y-144324463D01*
X119650013Y-144592252D01*
X119877748Y-144819987D01*
X119877767Y-144820000D01*
X119877748Y-144820013D01*
X119650013Y-145047748D01*
X119471082Y-145315537D01*
X119347832Y-145613088D01*
X119285000Y-145928967D01*
X119285000Y-146251033D01*
X119347832Y-146566912D01*
X119471082Y-146864463D01*
X119650013Y-147132252D01*
X119877748Y-147359987D01*
X120145537Y-147538918D01*
X120443088Y-147662168D01*
X120758967Y-147725000D01*
X121081033Y-147725000D01*
X121396912Y-147662168D01*
X121694463Y-147538918D01*
X121962252Y-147359987D01*
X122189987Y-147132252D01*
X122190000Y-147132233D01*
X122190013Y-147132252D01*
X122417748Y-147359987D01*
X122685537Y-147538918D01*
X122983088Y-147662168D01*
X123298967Y-147725000D01*
X123621033Y-147725000D01*
X123936912Y-147662168D01*
X124234463Y-147538918D01*
X124502252Y-147359987D01*
X124729987Y-147132252D01*
X124730000Y-147132233D01*
X124730013Y-147132252D01*
X124957748Y-147359987D01*
X125225537Y-147538918D01*
X125523088Y-147662168D01*
X125838967Y-147725000D01*
X126161033Y-147725000D01*
X126476912Y-147662168D01*
X126774463Y-147538918D01*
X127042252Y-147359987D01*
X127269987Y-147132252D01*
X127270000Y-147132233D01*
X127270013Y-147132252D01*
X127497748Y-147359987D01*
X127765537Y-147538918D01*
X128063088Y-147662168D01*
X128378967Y-147725000D01*
X128701033Y-147725000D01*
X129016912Y-147662168D01*
X129314463Y-147538918D01*
X129582252Y-147359987D01*
X129809987Y-147132252D01*
X129810000Y-147132233D01*
X129810013Y-147132252D01*
X130037748Y-147359987D01*
X130305537Y-147538918D01*
X130603088Y-147662168D01*
X130918967Y-147725000D01*
X131241033Y-147725000D01*
X131556912Y-147662168D01*
X131854463Y-147538918D01*
X132122252Y-147359987D01*
X132349987Y-147132252D01*
X132350000Y-147132233D01*
X132350013Y-147132252D01*
X132577748Y-147359987D01*
X132845537Y-147538918D01*
X133143088Y-147662168D01*
X133458967Y-147725000D01*
X133781033Y-147725000D01*
X134096912Y-147662168D01*
X134394463Y-147538918D01*
X134662252Y-147359987D01*
X134889987Y-147132252D01*
X134890000Y-147132233D01*
X134890013Y-147132252D01*
X135117748Y-147359987D01*
X135385537Y-147538918D01*
X135683088Y-147662168D01*
X135998967Y-147725000D01*
X136321033Y-147725000D01*
X136636912Y-147662168D01*
X136934463Y-147538918D01*
X137202252Y-147359987D01*
X137429987Y-147132252D01*
X137430000Y-147132233D01*
X137430013Y-147132252D01*
X137657748Y-147359987D01*
X137925537Y-147538918D01*
X138223088Y-147662168D01*
X138538967Y-147725000D01*
X138861033Y-147725000D01*
X139176912Y-147662168D01*
X139474463Y-147538918D01*
X139742252Y-147359987D01*
X139969987Y-147132252D01*
X139970000Y-147132233D01*
X139970013Y-147132252D01*
X140197748Y-147359987D01*
X140465537Y-147538918D01*
X140763088Y-147662168D01*
X141078967Y-147725000D01*
X141401033Y-147725000D01*
X141716912Y-147662168D01*
X142014463Y-147538918D01*
X142282252Y-147359987D01*
X142509987Y-147132252D01*
X142510000Y-147132233D01*
X142510013Y-147132252D01*
X142737748Y-147359987D01*
X143005537Y-147538918D01*
X143303088Y-147662168D01*
X143618967Y-147725000D01*
X143941033Y-147725000D01*
X144256912Y-147662168D01*
X144554463Y-147538918D01*
X144822252Y-147359987D01*
X145049987Y-147132252D01*
X145050000Y-147132233D01*
X145050013Y-147132252D01*
X145277748Y-147359987D01*
X145545537Y-147538918D01*
X145843088Y-147662168D01*
X146158967Y-147725000D01*
X146481033Y-147725000D01*
X146796912Y-147662168D01*
X147094463Y-147538918D01*
X147362252Y-147359987D01*
X147589987Y-147132252D01*
X147590000Y-147132233D01*
X147590013Y-147132252D01*
X147817748Y-147359987D01*
X148085537Y-147538918D01*
X148383088Y-147662168D01*
X148698967Y-147725000D01*
X149021033Y-147725000D01*
X149336912Y-147662168D01*
X149634463Y-147538918D01*
X149902252Y-147359987D01*
X150129987Y-147132252D01*
X150130000Y-147132233D01*
X150130013Y-147132252D01*
X150357748Y-147359987D01*
X150625537Y-147538918D01*
X150923088Y-147662168D01*
X151238967Y-147725000D01*
X151561033Y-147725000D01*
X151876912Y-147662168D01*
X152174463Y-147538918D01*
X152442252Y-147359987D01*
X152669987Y-147132252D01*
X152670000Y-147132233D01*
X152670013Y-147132252D01*
X152897748Y-147359987D01*
X153165537Y-147538918D01*
X153463088Y-147662168D01*
X153778967Y-147725000D01*
X154101033Y-147725000D01*
X154416912Y-147662168D01*
X154714463Y-147538918D01*
X154982252Y-147359987D01*
X155209987Y-147132252D01*
X155210000Y-147132233D01*
X155210013Y-147132252D01*
X155437748Y-147359987D01*
X155705537Y-147538918D01*
X156003088Y-147662168D01*
X156318967Y-147725000D01*
X156641033Y-147725000D01*
X156956912Y-147662168D01*
X157254463Y-147538918D01*
X157522252Y-147359987D01*
X157749987Y-147132252D01*
X157750000Y-147132233D01*
X157750013Y-147132252D01*
X157977748Y-147359987D01*
X158245537Y-147538918D01*
X158543088Y-147662168D01*
X158858967Y-147725000D01*
X159181033Y-147725000D01*
X159496912Y-147662168D01*
X159794463Y-147538918D01*
X160062252Y-147359987D01*
X160289987Y-147132252D01*
X160468918Y-146864463D01*
X160592168Y-146566912D01*
X160655000Y-146251033D01*
X160655000Y-145928967D01*
X160592168Y-145613088D01*
X160468918Y-145315537D01*
X160289987Y-145047748D01*
X160062252Y-144820013D01*
X160062233Y-144820000D01*
X160062252Y-144819987D01*
X160289987Y-144592252D01*
X160365000Y-144479987D01*
X160365000Y-144710279D01*
X160447047Y-145122756D01*
X160607988Y-145511302D01*
X160841637Y-145860983D01*
X161139017Y-146158363D01*
X161488698Y-146392012D01*
X161877244Y-146552953D01*
X162289721Y-146635000D01*
X162710279Y-146635000D01*
X163122756Y-146552953D01*
X163511302Y-146392012D01*
X163860983Y-146158363D01*
X164158363Y-145860983D01*
X164392012Y-145511302D01*
X164552953Y-145122756D01*
X164635000Y-144710279D01*
X164635000Y-144289721D01*
X164552953Y-143877244D01*
X164392012Y-143488698D01*
X164158363Y-143139017D01*
X163860983Y-142841637D01*
X163511302Y-142607988D01*
X163122756Y-142447047D01*
X162710279Y-142365000D01*
X162289721Y-142365000D01*
X161877244Y-142447047D01*
X161488698Y-142607988D01*
X161139017Y-142841637D01*
X160841637Y-143139017D01*
X160655000Y-143418339D01*
X160655000Y-143388967D01*
X160592168Y-143073088D01*
X160468918Y-142775537D01*
X160289987Y-142507748D01*
X160062252Y-142280013D01*
X160062233Y-142280000D01*
X160062252Y-142279987D01*
X160289987Y-142052252D01*
X160468918Y-141784463D01*
X160592168Y-141486912D01*
X160655000Y-141171033D01*
X160655000Y-140848967D01*
X160592168Y-140533088D01*
X160468918Y-140235537D01*
X160289987Y-139967748D01*
X160062252Y-139740013D01*
X160062233Y-139740000D01*
X160062252Y-139739987D01*
X160289987Y-139512252D01*
X160468918Y-139244463D01*
X160536107Y-139082254D01*
X160785537Y-139248918D01*
X161083088Y-139372168D01*
X161398967Y-139435000D01*
X161721033Y-139435000D01*
X162036912Y-139372168D01*
X162334463Y-139248918D01*
X162602252Y-139069987D01*
X162829987Y-138842252D01*
X162935059Y-138685000D01*
X166661928Y-138685000D01*
X166661928Y-139000000D01*
X166674188Y-139124482D01*
X166710498Y-139244180D01*
X166769463Y-139354494D01*
X166848815Y-139451185D01*
X166945506Y-139530537D01*
X167055820Y-139589502D01*
X167175518Y-139625812D01*
X167300000Y-139638072D01*
X169700000Y-139638072D01*
X169824482Y-139625812D01*
X169944180Y-139589502D01*
X170054494Y-139530537D01*
X170151185Y-139451185D01*
X170230537Y-139354494D01*
X170289502Y-139244180D01*
X170325812Y-139124482D01*
X170338072Y-139000000D01*
X170338072Y-136600000D01*
X170325812Y-136475518D01*
X170289502Y-136355820D01*
X170230537Y-136245506D01*
X170151185Y-136148815D01*
X170054494Y-136069463D01*
X169944180Y-136010498D01*
X169824482Y-135974188D01*
X169700000Y-135961928D01*
X169282838Y-135961928D01*
X169369199Y-135926156D01*
X169669744Y-135725338D01*
X169925338Y-135469744D01*
X170126156Y-135169199D01*
X170264482Y-134835250D01*
X170335000Y-134480732D01*
X170335000Y-134119268D01*
X170264482Y-133764750D01*
X170126156Y-133430801D01*
X169925338Y-133130256D01*
X169669744Y-132874662D01*
X169369199Y-132673844D01*
X169070213Y-132550000D01*
X169369199Y-132426156D01*
X169669744Y-132225338D01*
X169925338Y-131969744D01*
X170126156Y-131669199D01*
X170264482Y-131335250D01*
X170335000Y-130980732D01*
X170335000Y-130619268D01*
X170264482Y-130264750D01*
X170126156Y-129930801D01*
X169925338Y-129630256D01*
X169669744Y-129374662D01*
X169369199Y-129173844D01*
X169035250Y-129035518D01*
X168680732Y-128965000D01*
X168319268Y-128965000D01*
X167964750Y-129035518D01*
X167630801Y-129173844D01*
X167330256Y-129374662D01*
X167074662Y-129630256D01*
X166884402Y-129915000D01*
X162935059Y-129915000D01*
X162829987Y-129757748D01*
X162602252Y-129530013D01*
X162334463Y-129351082D01*
X162036912Y-129227832D01*
X161721033Y-129165000D01*
X161398967Y-129165000D01*
X161083088Y-129227832D01*
X160785537Y-129351082D01*
X160517748Y-129530013D01*
X160290013Y-129757748D01*
X160183094Y-129917764D01*
X160173475Y-129903368D01*
X159966632Y-129696525D01*
X159905000Y-129655344D01*
X159905000Y-129504656D01*
X159966632Y-129463475D01*
X160173475Y-129256632D01*
X160335990Y-129013411D01*
X160447932Y-128743158D01*
X160505000Y-128456260D01*
X160505000Y-128163740D01*
X160447932Y-127876842D01*
X160335990Y-127606589D01*
X160173475Y-127363368D01*
X159966632Y-127156525D01*
X159927236Y-127130202D01*
X160062252Y-127039987D01*
X160197189Y-126905050D01*
X162144555Y-126905050D01*
X162240258Y-127169399D01*
X162529787Y-127310238D01*
X162841229Y-127391885D01*
X163162615Y-127411205D01*
X163481595Y-127367454D01*
X163785911Y-127262314D01*
X163959742Y-127169399D01*
X164055445Y-126905050D01*
X163100000Y-125949605D01*
X162144555Y-126905050D01*
X160197189Y-126905050D01*
X160289987Y-126812252D01*
X160468918Y-126544463D01*
X160592168Y-126246912D01*
X160655000Y-125931033D01*
X160655000Y-125832615D01*
X161458795Y-125832615D01*
X161502546Y-126151595D01*
X161607686Y-126455911D01*
X161700601Y-126629742D01*
X161964950Y-126725445D01*
X162920395Y-125770000D01*
X163279605Y-125770000D01*
X164235050Y-126725445D01*
X164499399Y-126629742D01*
X164640238Y-126340213D01*
X164721885Y-126028771D01*
X164741205Y-125707385D01*
X164697454Y-125388405D01*
X164592314Y-125084089D01*
X164499399Y-124910258D01*
X164235050Y-124814555D01*
X163279605Y-125770000D01*
X162920395Y-125770000D01*
X161964950Y-124814555D01*
X161700601Y-124910258D01*
X161559762Y-125199787D01*
X161478115Y-125511229D01*
X161458795Y-125832615D01*
X160655000Y-125832615D01*
X160655000Y-125608967D01*
X160592168Y-125293088D01*
X160468918Y-124995537D01*
X160289987Y-124727748D01*
X160062252Y-124500013D01*
X159927236Y-124409798D01*
X159966632Y-124383475D01*
X159985057Y-124365050D01*
X162144555Y-124365050D01*
X162193411Y-124500000D01*
X162144555Y-124634950D01*
X163100000Y-125590395D01*
X164055445Y-124634950D01*
X164006589Y-124500000D01*
X164055445Y-124365050D01*
X163980116Y-124289721D01*
X167365000Y-124289721D01*
X167365000Y-124710279D01*
X167447047Y-125122756D01*
X167607988Y-125511302D01*
X167841637Y-125860983D01*
X168139017Y-126158363D01*
X168488698Y-126392012D01*
X168877244Y-126552953D01*
X169289721Y-126635000D01*
X169710279Y-126635000D01*
X170122756Y-126552953D01*
X170511302Y-126392012D01*
X170860983Y-126158363D01*
X171158363Y-125860983D01*
X171392012Y-125511302D01*
X171552953Y-125122756D01*
X171635000Y-124710279D01*
X171635000Y-124289721D01*
X171552953Y-123877244D01*
X171392012Y-123488698D01*
X171158363Y-123139017D01*
X170860983Y-122841637D01*
X170511302Y-122607988D01*
X170122756Y-122447047D01*
X169710279Y-122365000D01*
X169289721Y-122365000D01*
X168877244Y-122447047D01*
X168488698Y-122607988D01*
X168139017Y-122841637D01*
X167841637Y-123139017D01*
X167607988Y-123488698D01*
X167447047Y-123877244D01*
X167365000Y-124289721D01*
X163980116Y-124289721D01*
X163100000Y-123409605D01*
X162144555Y-124365050D01*
X159985057Y-124365050D01*
X160173475Y-124176632D01*
X160335990Y-123933411D01*
X160447932Y-123663158D01*
X160505000Y-123376260D01*
X160505000Y-123292615D01*
X161458795Y-123292615D01*
X161502546Y-123611595D01*
X161607686Y-123915911D01*
X161700601Y-124089742D01*
X161964950Y-124185445D01*
X162920395Y-123230000D01*
X163279605Y-123230000D01*
X164235050Y-124185445D01*
X164499399Y-124089742D01*
X164640238Y-123800213D01*
X164721885Y-123488771D01*
X164741205Y-123167385D01*
X164697454Y-122848405D01*
X164592314Y-122544089D01*
X164499399Y-122370258D01*
X164235050Y-122274555D01*
X163279605Y-123230000D01*
X162920395Y-123230000D01*
X161964950Y-122274555D01*
X161700601Y-122370258D01*
X161559762Y-122659787D01*
X161478115Y-122971229D01*
X161458795Y-123292615D01*
X160505000Y-123292615D01*
X160505000Y-123083740D01*
X160447932Y-122796842D01*
X160335990Y-122526589D01*
X160173475Y-122283368D01*
X159985057Y-122094950D01*
X162144555Y-122094950D01*
X163100000Y-123050395D01*
X164055445Y-122094950D01*
X163959742Y-121830601D01*
X163670213Y-121689762D01*
X163358771Y-121608115D01*
X163037385Y-121588795D01*
X162718405Y-121632546D01*
X162414089Y-121737686D01*
X162240258Y-121830601D01*
X162144555Y-122094950D01*
X159985057Y-122094950D01*
X159966632Y-122076525D01*
X159905000Y-122035344D01*
X159905000Y-121884656D01*
X159966632Y-121843475D01*
X160173475Y-121636632D01*
X160335990Y-121393411D01*
X160447932Y-121123158D01*
X160505000Y-120836260D01*
X160505000Y-120543740D01*
X160447932Y-120256842D01*
X160335990Y-119986589D01*
X160173475Y-119743368D01*
X159966632Y-119536525D01*
X159927236Y-119510202D01*
X160062252Y-119419987D01*
X160269975Y-119212264D01*
X160290013Y-119242252D01*
X160517748Y-119469987D01*
X160785537Y-119648918D01*
X161083088Y-119772168D01*
X161398967Y-119835000D01*
X161721033Y-119835000D01*
X162036912Y-119772168D01*
X162334463Y-119648918D01*
X162602252Y-119469987D01*
X162829987Y-119242252D01*
X162935059Y-119085000D01*
X166661928Y-119085000D01*
X166661928Y-119400000D01*
X166674188Y-119524482D01*
X166710498Y-119644180D01*
X166769463Y-119754494D01*
X166848815Y-119851185D01*
X166945506Y-119930537D01*
X167055820Y-119989502D01*
X167175518Y-120025812D01*
X167300000Y-120038072D01*
X169700000Y-120038072D01*
X169824482Y-120025812D01*
X169944180Y-119989502D01*
X170054494Y-119930537D01*
X170151185Y-119851185D01*
X170230537Y-119754494D01*
X170289502Y-119644180D01*
X170325812Y-119524482D01*
X170338072Y-119400000D01*
X170338072Y-117000000D01*
X170325812Y-116875518D01*
X170289502Y-116755820D01*
X170230537Y-116645506D01*
X170151185Y-116548815D01*
X170054494Y-116469463D01*
X169944180Y-116410498D01*
X169824482Y-116374188D01*
X169700000Y-116361928D01*
X169282838Y-116361928D01*
X169369199Y-116326156D01*
X169669744Y-116125338D01*
X169925338Y-115869744D01*
X170126156Y-115569199D01*
X170264482Y-115235250D01*
X170335000Y-114880732D01*
X170335000Y-114519268D01*
X170264482Y-114164750D01*
X170126156Y-113830801D01*
X169925338Y-113530256D01*
X169669744Y-113274662D01*
X169369199Y-113073844D01*
X169070213Y-112950000D01*
X169369199Y-112826156D01*
X169669744Y-112625338D01*
X169925338Y-112369744D01*
X170126156Y-112069199D01*
X170264482Y-111735250D01*
X170335000Y-111380732D01*
X170335000Y-111019268D01*
X170264482Y-110664750D01*
X170126156Y-110330801D01*
X169925338Y-110030256D01*
X169669744Y-109774662D01*
X169369199Y-109573844D01*
X169035250Y-109435518D01*
X168680732Y-109365000D01*
X168319268Y-109365000D01*
X167964750Y-109435518D01*
X167630801Y-109573844D01*
X167330256Y-109774662D01*
X167074662Y-110030256D01*
X166884402Y-110315000D01*
X162935059Y-110315000D01*
X162829987Y-110157748D01*
X162602252Y-109930013D01*
X162334463Y-109751082D01*
X162036912Y-109627832D01*
X161721033Y-109565000D01*
X161398967Y-109565000D01*
X161083088Y-109627832D01*
X160785537Y-109751082D01*
X160517748Y-109930013D01*
X160419518Y-110028243D01*
X160335990Y-109826589D01*
X160173475Y-109583368D01*
X159966632Y-109376525D01*
X159792240Y-109260000D01*
X159966632Y-109143475D01*
X160173475Y-108936632D01*
X160335990Y-108693411D01*
X160447932Y-108423158D01*
X160505000Y-108136260D01*
X160505000Y-107843740D01*
X160447932Y-107556842D01*
X160335990Y-107286589D01*
X160173475Y-107043368D01*
X159966632Y-106836525D01*
X159905000Y-106795344D01*
X159905000Y-106644656D01*
X159966632Y-106603475D01*
X160173475Y-106396632D01*
X160335990Y-106153411D01*
X160447932Y-105883158D01*
X160505000Y-105596260D01*
X160505000Y-105303740D01*
X160489282Y-105224720D01*
X160607988Y-105511302D01*
X160841637Y-105860983D01*
X161139017Y-106158363D01*
X161488698Y-106392012D01*
X161877244Y-106552953D01*
X162289721Y-106635000D01*
X162710279Y-106635000D01*
X163122756Y-106552953D01*
X163511302Y-106392012D01*
X163860983Y-106158363D01*
X164158363Y-105860983D01*
X164392012Y-105511302D01*
X164552953Y-105122756D01*
X164635000Y-104710279D01*
X164635000Y-104289721D01*
X164552953Y-103877244D01*
X164392012Y-103488698D01*
X164158363Y-103139017D01*
X163860983Y-102841637D01*
X163511302Y-102607988D01*
X163122756Y-102447047D01*
X162710279Y-102365000D01*
X162289721Y-102365000D01*
X161877244Y-102447047D01*
X161488698Y-102607988D01*
X161139017Y-102841637D01*
X160841637Y-103139017D01*
X160607988Y-103488698D01*
X160447047Y-103877244D01*
X160365000Y-104289721D01*
X160365000Y-104710279D01*
X160405697Y-104914878D01*
X160335990Y-104746589D01*
X160173475Y-104503368D01*
X159966632Y-104296525D01*
X159953900Y-104288018D01*
X159953900Y-104252386D01*
X160062252Y-104179987D01*
X160289987Y-103952252D01*
X160468918Y-103684463D01*
X160592168Y-103386912D01*
X160655000Y-103071033D01*
X160655000Y-102748967D01*
X160592168Y-102433088D01*
X160468918Y-102135537D01*
X160289987Y-101867748D01*
X160062252Y-101640013D01*
X159794463Y-101461082D01*
X159496912Y-101337832D01*
X159181033Y-101275000D01*
X158858967Y-101275000D01*
X158543088Y-101337832D01*
X158245537Y-101461082D01*
X157977748Y-101640013D01*
X157750013Y-101867748D01*
X157750000Y-101867767D01*
X157749987Y-101867748D01*
X157522252Y-101640013D01*
X157254463Y-101461082D01*
X156956912Y-101337832D01*
X156641033Y-101275000D01*
X156318967Y-101275000D01*
X156003088Y-101337832D01*
X155705537Y-101461082D01*
X155437748Y-101640013D01*
X155210013Y-101867748D01*
X155210000Y-101867767D01*
X155209987Y-101867748D01*
X154982252Y-101640013D01*
X154714463Y-101461082D01*
X154416912Y-101337832D01*
X154101033Y-101275000D01*
X153778967Y-101275000D01*
X153463088Y-101337832D01*
X153165537Y-101461082D01*
X152897748Y-101640013D01*
X152670013Y-101867748D01*
X152670000Y-101867767D01*
X152669987Y-101867748D01*
X152442252Y-101640013D01*
X152174463Y-101461082D01*
X151876912Y-101337832D01*
X151561033Y-101275000D01*
X151238967Y-101275000D01*
X150923088Y-101337832D01*
X150625537Y-101461082D01*
X150357748Y-101640013D01*
X150130013Y-101867748D01*
X150130000Y-101867767D01*
X150129987Y-101867748D01*
X149902252Y-101640013D01*
X149634463Y-101461082D01*
X149336912Y-101337832D01*
X149021033Y-101275000D01*
X148698967Y-101275000D01*
X148383088Y-101337832D01*
X148085537Y-101461082D01*
X147817748Y-101640013D01*
X147590013Y-101867748D01*
X147590000Y-101867767D01*
X147589987Y-101867748D01*
X147362252Y-101640013D01*
X147094463Y-101461082D01*
X146796912Y-101337832D01*
X146481033Y-101275000D01*
X146158967Y-101275000D01*
X145843088Y-101337832D01*
X145545537Y-101461082D01*
X145277748Y-101640013D01*
X145050013Y-101867748D01*
X145050000Y-101867767D01*
X145049987Y-101867748D01*
X144822252Y-101640013D01*
X144554463Y-101461082D01*
X144256912Y-101337832D01*
X143941033Y-101275000D01*
X143618967Y-101275000D01*
X143303088Y-101337832D01*
X143005537Y-101461082D01*
X142737748Y-101640013D01*
X142510013Y-101867748D01*
X142510000Y-101867767D01*
X142509987Y-101867748D01*
X142282252Y-101640013D01*
X142014463Y-101461082D01*
X141716912Y-101337832D01*
X141401033Y-101275000D01*
X141078967Y-101275000D01*
X140763088Y-101337832D01*
X140465537Y-101461082D01*
X140197748Y-101640013D01*
X139970013Y-101867748D01*
X139970000Y-101867767D01*
X139969987Y-101867748D01*
X139742252Y-101640013D01*
X139474463Y-101461082D01*
X139176912Y-101337832D01*
X138861033Y-101275000D01*
X138538967Y-101275000D01*
X138223088Y-101337832D01*
X137925537Y-101461082D01*
X137657748Y-101640013D01*
X137430013Y-101867748D01*
X137430000Y-101867767D01*
X137429987Y-101867748D01*
X137202252Y-101640013D01*
X136934463Y-101461082D01*
X136636912Y-101337832D01*
X136321033Y-101275000D01*
X135998967Y-101275000D01*
X135683088Y-101337832D01*
X135385537Y-101461082D01*
X135117748Y-101640013D01*
X134890013Y-101867748D01*
X134890000Y-101867767D01*
X134889987Y-101867748D01*
X134662252Y-101640013D01*
X134394463Y-101461082D01*
X134096912Y-101337832D01*
X133781033Y-101275000D01*
X133458967Y-101275000D01*
X133143088Y-101337832D01*
X132845537Y-101461082D01*
X132577748Y-101640013D01*
X132350013Y-101867748D01*
X132350000Y-101867767D01*
X132349987Y-101867748D01*
X132122252Y-101640013D01*
X131854463Y-101461082D01*
X131556912Y-101337832D01*
X131241033Y-101275000D01*
X130918967Y-101275000D01*
X130603088Y-101337832D01*
X130305537Y-101461082D01*
X130037748Y-101640013D01*
X129810013Y-101867748D01*
X129810000Y-101867767D01*
X129809987Y-101867748D01*
X129582252Y-101640013D01*
X129314463Y-101461082D01*
X129016912Y-101337832D01*
X128701033Y-101275000D01*
X128378967Y-101275000D01*
X128063088Y-101337832D01*
X127765537Y-101461082D01*
X127497748Y-101640013D01*
X127270013Y-101867748D01*
X127270000Y-101867767D01*
X127269987Y-101867748D01*
X127042252Y-101640013D01*
X126774463Y-101461082D01*
X126476912Y-101337832D01*
X126161033Y-101275000D01*
X125838967Y-101275000D01*
X125523088Y-101337832D01*
X125225537Y-101461082D01*
X124957748Y-101640013D01*
X124730013Y-101867748D01*
X124730000Y-101867767D01*
X124729987Y-101867748D01*
X124502252Y-101640013D01*
X124234463Y-101461082D01*
X123936912Y-101337832D01*
X123621033Y-101275000D01*
X123298967Y-101275000D01*
X122983088Y-101337832D01*
X122685537Y-101461082D01*
X122417748Y-101640013D01*
X122190013Y-101867748D01*
X122190000Y-101867767D01*
X122189987Y-101867748D01*
X121962252Y-101640013D01*
X121694463Y-101461082D01*
X121396912Y-101337832D01*
X121081033Y-101275000D01*
X120758967Y-101275000D01*
X120443088Y-101337832D01*
X120145537Y-101461082D01*
X119877748Y-101640013D01*
X119650013Y-101867748D01*
X119650000Y-101867767D01*
X119649987Y-101867748D01*
X119422252Y-101640013D01*
X119154463Y-101461082D01*
X118856912Y-101337832D01*
X118541033Y-101275000D01*
X118218967Y-101275000D01*
X117903088Y-101337832D01*
X117605537Y-101461082D01*
X117337748Y-101640013D01*
X117110013Y-101867748D01*
X117110000Y-101867767D01*
X117109987Y-101867748D01*
X116882252Y-101640013D01*
X116614463Y-101461082D01*
X116316912Y-101337832D01*
X116001033Y-101275000D01*
X115678967Y-101275000D01*
X115363088Y-101337832D01*
X115065537Y-101461082D01*
X114797748Y-101640013D01*
X114570013Y-101867748D01*
X114570000Y-101867767D01*
X114569987Y-101867748D01*
X114342252Y-101640013D01*
X114074463Y-101461082D01*
X113776912Y-101337832D01*
X113461033Y-101275000D01*
X113138967Y-101275000D01*
X112823088Y-101337832D01*
X112525537Y-101461082D01*
X112257748Y-101640013D01*
X112030013Y-101867748D01*
X112030000Y-101867767D01*
X112029987Y-101867748D01*
X111802252Y-101640013D01*
X111534463Y-101461082D01*
X111236912Y-101337832D01*
X110921033Y-101275000D01*
X110598967Y-101275000D01*
X110283088Y-101337832D01*
X109985537Y-101461082D01*
X109717748Y-101640013D01*
X109490013Y-101867748D01*
X109311082Y-102135537D01*
X109187832Y-102433088D01*
X109125000Y-102748967D01*
X106589579Y-102748967D01*
X106791627Y-102261181D01*
X106823631Y-102162684D01*
X107061738Y-101170898D01*
X107077939Y-101068607D01*
X107110097Y-100660000D01*
X167889903Y-100660000D01*
X167922061Y-101068607D01*
G37*
X167922061Y-101068607D02*
X167938262Y-101170898D01*
X168176369Y-102162684D01*
X168208372Y-102261181D01*
X168598697Y-103203509D01*
X168622207Y-103249648D01*
X168645715Y-103295787D01*
X169178647Y-104165453D01*
X169204829Y-104201489D01*
X169239522Y-104249240D01*
X169901938Y-105024830D01*
X169975170Y-105098062D01*
X170750760Y-105760478D01*
X170834547Y-105821353D01*
X171704213Y-106354284D01*
X171796491Y-106401303D01*
X172738819Y-106791627D01*
X172837316Y-106823631D01*
X173829102Y-107061738D01*
X173931393Y-107077939D01*
X174340000Y-107110097D01*
X174340001Y-141889903D01*
X173931393Y-141922061D01*
X173829102Y-141938262D01*
X172837316Y-142176369D01*
X172738819Y-142208373D01*
X171796491Y-142598697D01*
X171705618Y-142645000D01*
X171704213Y-142645716D01*
X170834547Y-143178647D01*
X170750760Y-143239522D01*
X169975170Y-143901938D01*
X169901938Y-143975170D01*
X169239522Y-144750760D01*
X169209084Y-144792654D01*
X169178647Y-144834547D01*
X168645715Y-145704213D01*
X168626392Y-145742138D01*
X168598697Y-145796491D01*
X168208372Y-146738819D01*
X168178937Y-146829411D01*
X168176369Y-146837316D01*
X167938262Y-147829102D01*
X167922061Y-147931393D01*
X167889903Y-148340000D01*
X107110097Y-148340000D01*
X107077939Y-147931393D01*
X107061738Y-147829102D01*
X106823631Y-146837316D01*
X106791627Y-146738819D01*
X106401303Y-145796491D01*
X106354284Y-145704213D01*
X105821353Y-144834547D01*
X105760478Y-144750760D01*
X105366714Y-144289721D01*
X110365000Y-144289721D01*
X110365000Y-144710279D01*
X110447047Y-145122756D01*
X110607988Y-145511302D01*
X110841637Y-145860983D01*
X111139017Y-146158363D01*
X111488698Y-146392012D01*
X111877244Y-146552953D01*
X112289721Y-146635000D01*
X112710279Y-146635000D01*
X113122756Y-146552953D01*
X113511302Y-146392012D01*
X113860983Y-146158363D01*
X114158363Y-145860983D01*
X114392012Y-145511302D01*
X114552953Y-145122756D01*
X114635000Y-144710279D01*
X114635000Y-144289721D01*
X114552953Y-143877244D01*
X114392012Y-143488698D01*
X114158363Y-143139017D01*
X113860983Y-142841637D01*
X113511302Y-142607988D01*
X113122756Y-142447047D01*
X112710279Y-142365000D01*
X112289721Y-142365000D01*
X111877244Y-142447047D01*
X111488698Y-142607988D01*
X111139017Y-142841637D01*
X110841637Y-143139017D01*
X110607988Y-143488698D01*
X110447047Y-143877244D01*
X110365000Y-144289721D01*
X105366714Y-144289721D01*
X105098062Y-143975170D01*
X105024830Y-143901938D01*
X104249240Y-143239522D01*
X104180784Y-143189786D01*
X104165453Y-143178647D01*
X103295787Y-142645715D01*
X103249648Y-142622207D01*
X103203509Y-142598697D01*
X102261181Y-142208372D01*
X102162684Y-142176369D01*
X101170898Y-141938262D01*
X101068607Y-141922061D01*
X100660000Y-141889903D01*
X100660000Y-124289721D01*
X103365000Y-124289721D01*
X103365000Y-124710279D01*
X103447047Y-125122756D01*
X103607988Y-125511302D01*
X103841637Y-125860983D01*
X104139017Y-126158363D01*
X104488698Y-126392012D01*
X104877244Y-126552953D01*
X105289721Y-126635000D01*
X105710279Y-126635000D01*
X106122756Y-126552953D01*
X106511302Y-126392012D01*
X106860983Y-126158363D01*
X107158363Y-125860983D01*
X107392012Y-125511302D01*
X107552953Y-125122756D01*
X107635000Y-124710279D01*
X107635000Y-124289721D01*
X107552953Y-123877244D01*
X107392012Y-123488698D01*
X107158363Y-123139017D01*
X106860983Y-122841637D01*
X106511302Y-122607988D01*
X106122756Y-122447047D01*
X105710279Y-122365000D01*
X105289721Y-122365000D01*
X104877244Y-122447047D01*
X104488698Y-122607988D01*
X104139017Y-122841637D01*
X103841637Y-123139017D01*
X103607988Y-123488698D01*
X103447047Y-123877244D01*
X103365000Y-124289721D01*
X100660000Y-124289721D01*
X100660000Y-107110097D01*
X101068607Y-107077939D01*
X101170898Y-107061738D01*
X102162684Y-106823631D01*
X102165115Y-106822841D01*
X102261181Y-106791628D01*
X103203509Y-106401303D01*
X103295787Y-106354285D01*
X104165453Y-105821353D01*
X104207346Y-105790916D01*
X104249240Y-105760478D01*
X105024830Y-105098062D01*
X105098063Y-105024829D01*
X105760478Y-104249240D01*
X105821353Y-104165453D01*
X105821354Y-104165452D01*
X106354284Y-103295787D01*
X106401303Y-103203509D01*
X106589579Y-102748967D01*
X109125000Y-102748967D01*
X109125000Y-103071033D01*
X109187832Y-103386912D01*
X109311082Y-103684463D01*
X109490013Y-103952252D01*
X109589209Y-104051448D01*
X109555506Y-104069463D01*
X109458815Y-104148815D01*
X109379463Y-104245506D01*
X109320498Y-104355820D01*
X109284188Y-104475518D01*
X109271928Y-104600000D01*
X109271928Y-106300000D01*
X109284188Y-106424482D01*
X109320498Y-106544180D01*
X109379463Y-106654494D01*
X109433222Y-106720000D01*
X109379463Y-106785506D01*
X109320498Y-106895820D01*
X109284188Y-107015518D01*
X109271928Y-107140000D01*
X109271928Y-108840000D01*
X109284188Y-108964482D01*
X109320498Y-109084180D01*
X109379463Y-109194494D01*
X109433222Y-109260000D01*
X109379463Y-109325506D01*
X109320498Y-109435820D01*
X109284188Y-109555518D01*
X109271928Y-109680000D01*
X109271928Y-111380000D01*
X109284188Y-111504482D01*
X109320498Y-111624180D01*
X109379463Y-111734494D01*
X109458815Y-111831185D01*
X109555506Y-111910537D01*
X109589209Y-111928552D01*
X109490013Y-112027748D01*
X109311082Y-112295537D01*
X109187832Y-112593088D01*
X109125000Y-112908967D01*
X109125000Y-113231033D01*
X109187832Y-113546912D01*
X109311082Y-113844463D01*
X109490013Y-114112252D01*
X109717748Y-114339987D01*
X109717767Y-114340000D01*
X109717748Y-114340013D01*
X109490013Y-114567748D01*
X109311082Y-114835537D01*
X109187832Y-115133088D01*
X109125000Y-115448967D01*
X109125000Y-115771033D01*
X109187832Y-116086912D01*
X109311082Y-116384463D01*
X109490013Y-116652252D01*
X109717748Y-116879987D01*
X109717767Y-116880000D01*
X109717748Y-116880013D01*
X109490013Y-117107748D01*
X109311082Y-117375537D01*
X109187832Y-117673088D01*
X109125000Y-117988967D01*
X109125000Y-118311033D01*
X109187832Y-118626912D01*
X109311082Y-118924463D01*
X109490013Y-119192252D01*
X109589209Y-119291448D01*
X109555506Y-119309463D01*
X109458815Y-119388815D01*
X109379463Y-119485506D01*
X109320498Y-119595820D01*
X109284188Y-119715518D01*
X109271928Y-119840000D01*
X109271928Y-121540000D01*
X109284188Y-121664482D01*
X109320498Y-121784180D01*
X109379463Y-121894494D01*
X109433222Y-121960000D01*
X109379463Y-122025506D01*
X109320498Y-122135820D01*
X109284188Y-122255518D01*
X109271928Y-122380000D01*
X109271928Y-124080000D01*
X109284188Y-124204482D01*
X109320498Y-124324180D01*
X109379463Y-124434494D01*
X109458815Y-124531185D01*
X109555506Y-124610537D01*
X109589209Y-124628552D01*
X109490013Y-124727748D01*
X109311082Y-124995537D01*
X109187832Y-125293088D01*
X109125000Y-125608967D01*
X109125000Y-125931033D01*
X109187832Y-126246912D01*
X109311082Y-126544463D01*
X109490013Y-126812252D01*
X109589209Y-126911448D01*
X109555506Y-126929463D01*
X109458815Y-127008815D01*
X109379463Y-127105506D01*
X109320498Y-127215820D01*
X109284188Y-127335518D01*
X109271928Y-127460000D01*
X109271928Y-129160000D01*
X109284188Y-129284482D01*
X109320498Y-129404180D01*
X109379463Y-129514494D01*
X109433222Y-129580000D01*
X109379463Y-129645506D01*
X109320498Y-129755820D01*
X109284188Y-129875518D01*
X109271928Y-130000000D01*
X109271928Y-131700000D01*
X109284188Y-131824482D01*
X109320498Y-131944180D01*
X109379463Y-132054494D01*
X109433222Y-132120000D01*
X109379463Y-132185506D01*
X109320498Y-132295820D01*
X109284188Y-132415518D01*
X109271928Y-132540000D01*
X109271928Y-134240000D01*
X109284188Y-134364482D01*
X109320498Y-134484180D01*
X109379463Y-134594494D01*
X109458815Y-134691185D01*
X109555506Y-134770537D01*
X109589209Y-134788552D01*
X109490013Y-134887748D01*
X109311082Y-135155537D01*
X109187832Y-135453088D01*
X109125000Y-135768967D01*
X109125000Y-136091033D01*
X109187832Y-136406912D01*
X109311082Y-136704463D01*
X109490013Y-136972252D01*
X109717748Y-137199987D01*
X109717767Y-137200000D01*
X109717748Y-137200013D01*
X109490013Y-137427748D01*
X109311082Y-137695537D01*
X109187832Y-137993088D01*
X109125000Y-138308967D01*
X109125000Y-138631033D01*
X109187832Y-138946912D01*
X109311082Y-139244463D01*
X109490013Y-139512252D01*
X109717748Y-139739987D01*
X109985537Y-139918918D01*
X110283088Y-140042168D01*
X110598967Y-140105000D01*
X110921033Y-140105000D01*
X111236912Y-140042168D01*
X111534463Y-139918918D01*
X111802252Y-139739987D01*
X112029987Y-139512252D01*
X112030000Y-139512233D01*
X112030013Y-139512252D01*
X112257748Y-139739987D01*
X112525537Y-139918918D01*
X112823088Y-140042168D01*
X113138967Y-140105000D01*
X113461033Y-140105000D01*
X113776912Y-140042168D01*
X114074463Y-139918918D01*
X114342252Y-139739987D01*
X114569987Y-139512252D01*
X114570000Y-139512233D01*
X114570013Y-139512252D01*
X114797748Y-139739987D01*
X115065537Y-139918918D01*
X115363088Y-140042168D01*
X115678967Y-140105000D01*
X116001033Y-140105000D01*
X116316912Y-140042168D01*
X116614463Y-139918918D01*
X116882252Y-139739987D01*
X117109987Y-139512252D01*
X117110000Y-139512233D01*
X117110013Y-139512252D01*
X117337748Y-139739987D01*
X117605537Y-139918918D01*
X117903088Y-140042168D01*
X118218967Y-140105000D01*
X118541033Y-140105000D01*
X118856912Y-140042168D01*
X119154463Y-139918918D01*
X119422252Y-139739987D01*
X119649987Y-139512252D01*
X119650000Y-139512233D01*
X119650013Y-139512252D01*
X119877748Y-139739987D01*
X119877767Y-139740000D01*
X119877748Y-139740013D01*
X119650013Y-139967748D01*
X119471082Y-140235537D01*
X119347832Y-140533088D01*
X119285000Y-140848967D01*
X119285000Y-141171033D01*
X119347832Y-141486912D01*
X119471082Y-141784463D01*
X119650013Y-142052252D01*
X119877748Y-142279987D01*
X119877767Y-142280000D01*
X119877748Y-142280013D01*
X119650013Y-142507748D01*
X119471082Y-142775537D01*
X119347832Y-143073088D01*
X119285000Y-143388967D01*
X119285000Y-143711033D01*
X119347832Y-144026912D01*
X119471082Y-144324463D01*
X119650013Y-144592252D01*
X119877748Y-144819987D01*
X119877767Y-144820000D01*
X119877748Y-144820013D01*
X119650013Y-145047748D01*
X119471082Y-145315537D01*
X119347832Y-145613088D01*
X119285000Y-145928967D01*
X119285000Y-146251033D01*
X119347832Y-146566912D01*
X119471082Y-146864463D01*
X119650013Y-147132252D01*
X119877748Y-147359987D01*
X120145537Y-147538918D01*
X120443088Y-147662168D01*
X120758967Y-147725000D01*
X121081033Y-147725000D01*
X121396912Y-147662168D01*
X121694463Y-147538918D01*
X121962252Y-147359987D01*
X122189987Y-147132252D01*
X122190000Y-147132233D01*
X122190013Y-147132252D01*
X122417748Y-147359987D01*
X122685537Y-147538918D01*
X122983088Y-147662168D01*
X123298967Y-147725000D01*
X123621033Y-147725000D01*
X123936912Y-147662168D01*
X124234463Y-147538918D01*
X124502252Y-147359987D01*
X124729987Y-147132252D01*
X124730000Y-147132233D01*
X124730013Y-147132252D01*
X124957748Y-147359987D01*
X125225537Y-147538918D01*
X125523088Y-147662168D01*
X125838967Y-147725000D01*
X126161033Y-147725000D01*
X126476912Y-147662168D01*
X126774463Y-147538918D01*
X127042252Y-147359987D01*
X127269987Y-147132252D01*
X127270000Y-147132233D01*
X127270013Y-147132252D01*
X127497748Y-147359987D01*
X127765537Y-147538918D01*
X128063088Y-147662168D01*
X128378967Y-147725000D01*
X128701033Y-147725000D01*
X129016912Y-147662168D01*
X129314463Y-147538918D01*
X129582252Y-147359987D01*
X129809987Y-147132252D01*
X129810000Y-147132233D01*
X129810013Y-147132252D01*
X130037748Y-147359987D01*
X130305537Y-147538918D01*
X130603088Y-147662168D01*
X130918967Y-147725000D01*
X131241033Y-147725000D01*
X131556912Y-147662168D01*
X131854463Y-147538918D01*
X132122252Y-147359987D01*
X132349987Y-147132252D01*
X132350000Y-147132233D01*
X132350013Y-147132252D01*
X132577748Y-147359987D01*
X132845537Y-147538918D01*
X133143088Y-147662168D01*
X133458967Y-147725000D01*
X133781033Y-147725000D01*
X134096912Y-147662168D01*
X134394463Y-147538918D01*
X134662252Y-147359987D01*
X134889987Y-147132252D01*
X134890000Y-147132233D01*
X134890013Y-147132252D01*
X135117748Y-147359987D01*
X135385537Y-147538918D01*
X135683088Y-147662168D01*
X135998967Y-147725000D01*
X136321033Y-147725000D01*
X136636912Y-147662168D01*
X136934463Y-147538918D01*
X137202252Y-147359987D01*
X137429987Y-147132252D01*
X137430000Y-147132233D01*
X137430013Y-147132252D01*
X137657748Y-147359987D01*
X137925537Y-147538918D01*
X138223088Y-147662168D01*
X138538967Y-147725000D01*
X138861033Y-147725000D01*
X139176912Y-147662168D01*
X139474463Y-147538918D01*
X139742252Y-147359987D01*
X139969987Y-147132252D01*
X139970000Y-147132233D01*
X139970013Y-147132252D01*
X140197748Y-147359987D01*
X140465537Y-147538918D01*
X140763088Y-147662168D01*
X141078967Y-147725000D01*
X141401033Y-147725000D01*
X141716912Y-147662168D01*
X142014463Y-147538918D01*
X142282252Y-147359987D01*
X142509987Y-147132252D01*
X142510000Y-147132233D01*
X142510013Y-147132252D01*
X142737748Y-147359987D01*
X143005537Y-147538918D01*
X143303088Y-147662168D01*
X143618967Y-147725000D01*
X143941033Y-147725000D01*
X144256912Y-147662168D01*
X144554463Y-147538918D01*
X144822252Y-147359987D01*
X145049987Y-147132252D01*
X145050000Y-147132233D01*
X145050013Y-147132252D01*
X145277748Y-147359987D01*
X145545537Y-147538918D01*
X145843088Y-147662168D01*
X146158967Y-147725000D01*
X146481033Y-147725000D01*
X146796912Y-147662168D01*
X147094463Y-147538918D01*
X147362252Y-147359987D01*
X147589987Y-147132252D01*
X147590000Y-147132233D01*
X147590013Y-147132252D01*
X147817748Y-147359987D01*
X148085537Y-147538918D01*
X148383088Y-147662168D01*
X148698967Y-147725000D01*
X149021033Y-147725000D01*
X149336912Y-147662168D01*
X149634463Y-147538918D01*
X149902252Y-147359987D01*
X150129987Y-147132252D01*
X150130000Y-147132233D01*
X150130013Y-147132252D01*
X150357748Y-147359987D01*
X150625537Y-147538918D01*
X150923088Y-147662168D01*
X151238967Y-147725000D01*
X151561033Y-147725000D01*
X151876912Y-147662168D01*
X152174463Y-147538918D01*
X152442252Y-147359987D01*
X152669987Y-147132252D01*
X152670000Y-147132233D01*
X152670013Y-147132252D01*
X152897748Y-147359987D01*
X153165537Y-147538918D01*
X153463088Y-147662168D01*
X153778967Y-147725000D01*
X154101033Y-147725000D01*
X154416912Y-147662168D01*
X154714463Y-147538918D01*
X154982252Y-147359987D01*
X155209987Y-147132252D01*
X155210000Y-147132233D01*
X155210013Y-147132252D01*
X155437748Y-147359987D01*
X155705537Y-147538918D01*
X156003088Y-147662168D01*
X156318967Y-147725000D01*
X156641033Y-147725000D01*
X156956912Y-147662168D01*
X157254463Y-147538918D01*
X157522252Y-147359987D01*
X157749987Y-147132252D01*
X157750000Y-147132233D01*
X157750013Y-147132252D01*
X157977748Y-147359987D01*
X158245537Y-147538918D01*
X158543088Y-147662168D01*
X158858967Y-147725000D01*
X159181033Y-147725000D01*
X159496912Y-147662168D01*
X159794463Y-147538918D01*
X160062252Y-147359987D01*
X160289987Y-147132252D01*
X160468918Y-146864463D01*
X160592168Y-146566912D01*
X160655000Y-146251033D01*
X160655000Y-145928967D01*
X160592168Y-145613088D01*
X160468918Y-145315537D01*
X160289987Y-145047748D01*
X160062252Y-144820013D01*
X160062233Y-144820000D01*
X160062252Y-144819987D01*
X160289987Y-144592252D01*
X160365000Y-144479987D01*
X160365000Y-144710279D01*
X160447047Y-145122756D01*
X160607988Y-145511302D01*
X160841637Y-145860983D01*
X161139017Y-146158363D01*
X161488698Y-146392012D01*
X161877244Y-146552953D01*
X162289721Y-146635000D01*
X162710279Y-146635000D01*
X163122756Y-146552953D01*
X163511302Y-146392012D01*
X163860983Y-146158363D01*
X164158363Y-145860983D01*
X164392012Y-145511302D01*
X164552953Y-145122756D01*
X164635000Y-144710279D01*
X164635000Y-144289721D01*
X164552953Y-143877244D01*
X164392012Y-143488698D01*
X164158363Y-143139017D01*
X163860983Y-142841637D01*
X163511302Y-142607988D01*
X163122756Y-142447047D01*
X162710279Y-142365000D01*
X162289721Y-142365000D01*
X161877244Y-142447047D01*
X161488698Y-142607988D01*
X161139017Y-142841637D01*
X160841637Y-143139017D01*
X160655000Y-143418339D01*
X160655000Y-143388967D01*
X160592168Y-143073088D01*
X160468918Y-142775537D01*
X160289987Y-142507748D01*
X160062252Y-142280013D01*
X160062233Y-142280000D01*
X160062252Y-142279987D01*
X160289987Y-142052252D01*
X160468918Y-141784463D01*
X160592168Y-141486912D01*
X160655000Y-141171033D01*
X160655000Y-140848967D01*
X160592168Y-140533088D01*
X160468918Y-140235537D01*
X160289987Y-139967748D01*
X160062252Y-139740013D01*
X160062233Y-139740000D01*
X160062252Y-139739987D01*
X160289987Y-139512252D01*
X160468918Y-139244463D01*
X160536107Y-139082254D01*
X160785537Y-139248918D01*
X161083088Y-139372168D01*
X161398967Y-139435000D01*
X161721033Y-139435000D01*
X162036912Y-139372168D01*
X162334463Y-139248918D01*
X162602252Y-139069987D01*
X162829987Y-138842252D01*
X162935059Y-138685000D01*
X166661928Y-138685000D01*
X166661928Y-139000000D01*
X166674188Y-139124482D01*
X166710498Y-139244180D01*
X166769463Y-139354494D01*
X166848815Y-139451185D01*
X166945506Y-139530537D01*
X167055820Y-139589502D01*
X167175518Y-139625812D01*
X167300000Y-139638072D01*
X169700000Y-139638072D01*
X169824482Y-139625812D01*
X169944180Y-139589502D01*
X170054494Y-139530537D01*
X170151185Y-139451185D01*
X170230537Y-139354494D01*
X170289502Y-139244180D01*
X170325812Y-139124482D01*
X170338072Y-139000000D01*
X170338072Y-136600000D01*
X170325812Y-136475518D01*
X170289502Y-136355820D01*
X170230537Y-136245506D01*
X170151185Y-136148815D01*
X170054494Y-136069463D01*
X169944180Y-136010498D01*
X169824482Y-135974188D01*
X169700000Y-135961928D01*
X169282838Y-135961928D01*
X169369199Y-135926156D01*
X169669744Y-135725338D01*
X169925338Y-135469744D01*
X170126156Y-135169199D01*
X170264482Y-134835250D01*
X170335000Y-134480732D01*
X170335000Y-134119268D01*
X170264482Y-133764750D01*
X170126156Y-133430801D01*
X169925338Y-133130256D01*
X169669744Y-132874662D01*
X169369199Y-132673844D01*
X169070213Y-132550000D01*
X169369199Y-132426156D01*
X169669744Y-132225338D01*
X169925338Y-131969744D01*
X170126156Y-131669199D01*
X170264482Y-131335250D01*
X170335000Y-130980732D01*
X170335000Y-130619268D01*
X170264482Y-130264750D01*
X170126156Y-129930801D01*
X169925338Y-129630256D01*
X169669744Y-129374662D01*
X169369199Y-129173844D01*
X169035250Y-129035518D01*
X168680732Y-128965000D01*
X168319268Y-128965000D01*
X167964750Y-129035518D01*
X167630801Y-129173844D01*
X167330256Y-129374662D01*
X167074662Y-129630256D01*
X166884402Y-129915000D01*
X162935059Y-129915000D01*
X162829987Y-129757748D01*
X162602252Y-129530013D01*
X162334463Y-129351082D01*
X162036912Y-129227832D01*
X161721033Y-129165000D01*
X161398967Y-129165000D01*
X161083088Y-129227832D01*
X160785537Y-129351082D01*
X160517748Y-129530013D01*
X160290013Y-129757748D01*
X160183094Y-129917764D01*
X160173475Y-129903368D01*
X159966632Y-129696525D01*
X159905000Y-129655344D01*
X159905000Y-129504656D01*
X159966632Y-129463475D01*
X160173475Y-129256632D01*
X160335990Y-129013411D01*
X160447932Y-128743158D01*
X160505000Y-128456260D01*
X160505000Y-128163740D01*
X160447932Y-127876842D01*
X160335990Y-127606589D01*
X160173475Y-127363368D01*
X159966632Y-127156525D01*
X159927236Y-127130202D01*
X160062252Y-127039987D01*
X160197189Y-126905050D01*
X162144555Y-126905050D01*
X162240258Y-127169399D01*
X162529787Y-127310238D01*
X162841229Y-127391885D01*
X163162615Y-127411205D01*
X163481595Y-127367454D01*
X163785911Y-127262314D01*
X163959742Y-127169399D01*
X164055445Y-126905050D01*
X163100000Y-125949605D01*
X162144555Y-126905050D01*
X160197189Y-126905050D01*
X160289987Y-126812252D01*
X160468918Y-126544463D01*
X160592168Y-126246912D01*
X160655000Y-125931033D01*
X160655000Y-125832615D01*
X161458795Y-125832615D01*
X161502546Y-126151595D01*
X161607686Y-126455911D01*
X161700601Y-126629742D01*
X161964950Y-126725445D01*
X162920395Y-125770000D01*
X163279605Y-125770000D01*
X164235050Y-126725445D01*
X164499399Y-126629742D01*
X164640238Y-126340213D01*
X164721885Y-126028771D01*
X164741205Y-125707385D01*
X164697454Y-125388405D01*
X164592314Y-125084089D01*
X164499399Y-124910258D01*
X164235050Y-124814555D01*
X163279605Y-125770000D01*
X162920395Y-125770000D01*
X161964950Y-124814555D01*
X161700601Y-124910258D01*
X161559762Y-125199787D01*
X161478115Y-125511229D01*
X161458795Y-125832615D01*
X160655000Y-125832615D01*
X160655000Y-125608967D01*
X160592168Y-125293088D01*
X160468918Y-124995537D01*
X160289987Y-124727748D01*
X160062252Y-124500013D01*
X159927236Y-124409798D01*
X159966632Y-124383475D01*
X159985057Y-124365050D01*
X162144555Y-124365050D01*
X162193411Y-124500000D01*
X162144555Y-124634950D01*
X163100000Y-125590395D01*
X164055445Y-124634950D01*
X164006589Y-124500000D01*
X164055445Y-124365050D01*
X163980116Y-124289721D01*
X167365000Y-124289721D01*
X167365000Y-124710279D01*
X167447047Y-125122756D01*
X167607988Y-125511302D01*
X167841637Y-125860983D01*
X168139017Y-126158363D01*
X168488698Y-126392012D01*
X168877244Y-126552953D01*
X169289721Y-126635000D01*
X169710279Y-126635000D01*
X170122756Y-126552953D01*
X170511302Y-126392012D01*
X170860983Y-126158363D01*
X171158363Y-125860983D01*
X171392012Y-125511302D01*
X171552953Y-125122756D01*
X171635000Y-124710279D01*
X171635000Y-124289721D01*
X171552953Y-123877244D01*
X171392012Y-123488698D01*
X171158363Y-123139017D01*
X170860983Y-122841637D01*
X170511302Y-122607988D01*
X170122756Y-122447047D01*
X169710279Y-122365000D01*
X169289721Y-122365000D01*
X168877244Y-122447047D01*
X168488698Y-122607988D01*
X168139017Y-122841637D01*
X167841637Y-123139017D01*
X167607988Y-123488698D01*
X167447047Y-123877244D01*
X167365000Y-124289721D01*
X163980116Y-124289721D01*
X163100000Y-123409605D01*
X162144555Y-124365050D01*
X159985057Y-124365050D01*
X160173475Y-124176632D01*
X160335990Y-123933411D01*
X160447932Y-123663158D01*
X160505000Y-123376260D01*
X160505000Y-123292615D01*
X161458795Y-123292615D01*
X161502546Y-123611595D01*
X161607686Y-123915911D01*
X161700601Y-124089742D01*
X161964950Y-124185445D01*
X162920395Y-123230000D01*
X163279605Y-123230000D01*
X164235050Y-124185445D01*
X164499399Y-124089742D01*
X164640238Y-123800213D01*
X164721885Y-123488771D01*
X164741205Y-123167385D01*
X164697454Y-122848405D01*
X164592314Y-122544089D01*
X164499399Y-122370258D01*
X164235050Y-122274555D01*
X163279605Y-123230000D01*
X162920395Y-123230000D01*
X161964950Y-122274555D01*
X161700601Y-122370258D01*
X161559762Y-122659787D01*
X161478115Y-122971229D01*
X161458795Y-123292615D01*
X160505000Y-123292615D01*
X160505000Y-123083740D01*
X160447932Y-122796842D01*
X160335990Y-122526589D01*
X160173475Y-122283368D01*
X159985057Y-122094950D01*
X162144555Y-122094950D01*
X163100000Y-123050395D01*
X164055445Y-122094950D01*
X163959742Y-121830601D01*
X163670213Y-121689762D01*
X163358771Y-121608115D01*
X163037385Y-121588795D01*
X162718405Y-121632546D01*
X162414089Y-121737686D01*
X162240258Y-121830601D01*
X162144555Y-122094950D01*
X159985057Y-122094950D01*
X159966632Y-122076525D01*
X159905000Y-122035344D01*
X159905000Y-121884656D01*
X159966632Y-121843475D01*
X160173475Y-121636632D01*
X160335990Y-121393411D01*
X160447932Y-121123158D01*
X160505000Y-120836260D01*
X160505000Y-120543740D01*
X160447932Y-120256842D01*
X160335990Y-119986589D01*
X160173475Y-119743368D01*
X159966632Y-119536525D01*
X159927236Y-119510202D01*
X160062252Y-119419987D01*
X160269975Y-119212264D01*
X160290013Y-119242252D01*
X160517748Y-119469987D01*
X160785537Y-119648918D01*
X161083088Y-119772168D01*
X161398967Y-119835000D01*
X161721033Y-119835000D01*
X162036912Y-119772168D01*
X162334463Y-119648918D01*
X162602252Y-119469987D01*
X162829987Y-119242252D01*
X162935059Y-119085000D01*
X166661928Y-119085000D01*
X166661928Y-119400000D01*
X166674188Y-119524482D01*
X166710498Y-119644180D01*
X166769463Y-119754494D01*
X166848815Y-119851185D01*
X166945506Y-119930537D01*
X167055820Y-119989502D01*
X167175518Y-120025812D01*
X167300000Y-120038072D01*
X169700000Y-120038072D01*
X169824482Y-120025812D01*
X169944180Y-119989502D01*
X170054494Y-119930537D01*
X170151185Y-119851185D01*
X170230537Y-119754494D01*
X170289502Y-119644180D01*
X170325812Y-119524482D01*
X170338072Y-119400000D01*
X170338072Y-117000000D01*
X170325812Y-116875518D01*
X170289502Y-116755820D01*
X170230537Y-116645506D01*
X170151185Y-116548815D01*
X170054494Y-116469463D01*
X169944180Y-116410498D01*
X169824482Y-116374188D01*
X169700000Y-116361928D01*
X169282838Y-116361928D01*
X169369199Y-116326156D01*
X169669744Y-116125338D01*
X169925338Y-115869744D01*
X170126156Y-115569199D01*
X170264482Y-115235250D01*
X170335000Y-114880732D01*
X170335000Y-114519268D01*
X170264482Y-114164750D01*
X170126156Y-113830801D01*
X169925338Y-113530256D01*
X169669744Y-113274662D01*
X169369199Y-113073844D01*
X169070213Y-112950000D01*
X169369199Y-112826156D01*
X169669744Y-112625338D01*
X169925338Y-112369744D01*
X170126156Y-112069199D01*
X170264482Y-111735250D01*
X170335000Y-111380732D01*
X170335000Y-111019268D01*
X170264482Y-110664750D01*
X170126156Y-110330801D01*
X169925338Y-110030256D01*
X169669744Y-109774662D01*
X169369199Y-109573844D01*
X169035250Y-109435518D01*
X168680732Y-109365000D01*
X168319268Y-109365000D01*
X167964750Y-109435518D01*
X167630801Y-109573844D01*
X167330256Y-109774662D01*
X167074662Y-110030256D01*
X166884402Y-110315000D01*
X162935059Y-110315000D01*
X162829987Y-110157748D01*
X162602252Y-109930013D01*
X162334463Y-109751082D01*
X162036912Y-109627832D01*
X161721033Y-109565000D01*
X161398967Y-109565000D01*
X161083088Y-109627832D01*
X160785537Y-109751082D01*
X160517748Y-109930013D01*
X160419518Y-110028243D01*
X160335990Y-109826589D01*
X160173475Y-109583368D01*
X159966632Y-109376525D01*
X159792240Y-109260000D01*
X159966632Y-109143475D01*
X160173475Y-108936632D01*
X160335990Y-108693411D01*
X160447932Y-108423158D01*
X160505000Y-108136260D01*
X160505000Y-107843740D01*
X160447932Y-107556842D01*
X160335990Y-107286589D01*
X160173475Y-107043368D01*
X159966632Y-106836525D01*
X159905000Y-106795344D01*
X159905000Y-106644656D01*
X159966632Y-106603475D01*
X160173475Y-106396632D01*
X160335990Y-106153411D01*
X160447932Y-105883158D01*
X160505000Y-105596260D01*
X160505000Y-105303740D01*
X160489282Y-105224720D01*
X160607988Y-105511302D01*
X160841637Y-105860983D01*
X161139017Y-106158363D01*
X161488698Y-106392012D01*
X161877244Y-106552953D01*
X162289721Y-106635000D01*
X162710279Y-106635000D01*
X163122756Y-106552953D01*
X163511302Y-106392012D01*
X163860983Y-106158363D01*
X164158363Y-105860983D01*
X164392012Y-105511302D01*
X164552953Y-105122756D01*
X164635000Y-104710279D01*
X164635000Y-104289721D01*
X164552953Y-103877244D01*
X164392012Y-103488698D01*
X164158363Y-103139017D01*
X163860983Y-102841637D01*
X163511302Y-102607988D01*
X163122756Y-102447047D01*
X162710279Y-102365000D01*
X162289721Y-102365000D01*
X161877244Y-102447047D01*
X161488698Y-102607988D01*
X161139017Y-102841637D01*
X160841637Y-103139017D01*
X160607988Y-103488698D01*
X160447047Y-103877244D01*
X160365000Y-104289721D01*
X160365000Y-104710279D01*
X160405697Y-104914878D01*
X160335990Y-104746589D01*
X160173475Y-104503368D01*
X159966632Y-104296525D01*
X159953900Y-104288018D01*
X159953900Y-104252386D01*
X160062252Y-104179987D01*
X160289987Y-103952252D01*
X160468918Y-103684463D01*
X160592168Y-103386912D01*
X160655000Y-103071033D01*
X160655000Y-102748967D01*
X160592168Y-102433088D01*
X160468918Y-102135537D01*
X160289987Y-101867748D01*
X160062252Y-101640013D01*
X159794463Y-101461082D01*
X159496912Y-101337832D01*
X159181033Y-101275000D01*
X158858967Y-101275000D01*
X158543088Y-101337832D01*
X158245537Y-101461082D01*
X157977748Y-101640013D01*
X157750013Y-101867748D01*
X157750000Y-101867767D01*
X157749987Y-101867748D01*
X157522252Y-101640013D01*
X157254463Y-101461082D01*
X156956912Y-101337832D01*
X156641033Y-101275000D01*
X156318967Y-101275000D01*
X156003088Y-101337832D01*
X155705537Y-101461082D01*
X155437748Y-101640013D01*
X155210013Y-101867748D01*
X155210000Y-101867767D01*
X155209987Y-101867748D01*
X154982252Y-101640013D01*
X154714463Y-101461082D01*
X154416912Y-101337832D01*
X154101033Y-101275000D01*
X153778967Y-101275000D01*
X153463088Y-101337832D01*
X153165537Y-101461082D01*
X152897748Y-101640013D01*
X152670013Y-101867748D01*
X152670000Y-101867767D01*
X152669987Y-101867748D01*
X152442252Y-101640013D01*
X152174463Y-101461082D01*
X151876912Y-101337832D01*
X151561033Y-101275000D01*
X151238967Y-101275000D01*
X150923088Y-101337832D01*
X150625537Y-101461082D01*
X150357748Y-101640013D01*
X150130013Y-101867748D01*
X150130000Y-101867767D01*
X150129987Y-101867748D01*
X149902252Y-101640013D01*
X149634463Y-101461082D01*
X149336912Y-101337832D01*
X149021033Y-101275000D01*
X148698967Y-101275000D01*
X148383088Y-101337832D01*
X148085537Y-101461082D01*
X147817748Y-101640013D01*
X147590013Y-101867748D01*
X147590000Y-101867767D01*
X147589987Y-101867748D01*
X147362252Y-101640013D01*
X147094463Y-101461082D01*
X146796912Y-101337832D01*
X146481033Y-101275000D01*
X146158967Y-101275000D01*
X145843088Y-101337832D01*
X145545537Y-101461082D01*
X145277748Y-101640013D01*
X145050013Y-101867748D01*
X145050000Y-101867767D01*
X145049987Y-101867748D01*
X144822252Y-101640013D01*
X144554463Y-101461082D01*
X144256912Y-101337832D01*
X143941033Y-101275000D01*
X143618967Y-101275000D01*
X143303088Y-101337832D01*
X143005537Y-101461082D01*
X142737748Y-101640013D01*
X142510013Y-101867748D01*
X142510000Y-101867767D01*
X142509987Y-101867748D01*
X142282252Y-101640013D01*
X142014463Y-101461082D01*
X141716912Y-101337832D01*
X141401033Y-101275000D01*
X141078967Y-101275000D01*
X140763088Y-101337832D01*
X140465537Y-101461082D01*
X140197748Y-101640013D01*
X139970013Y-101867748D01*
X139970000Y-101867767D01*
X139969987Y-101867748D01*
X139742252Y-101640013D01*
X139474463Y-101461082D01*
X139176912Y-101337832D01*
X138861033Y-101275000D01*
X138538967Y-101275000D01*
X138223088Y-101337832D01*
X137925537Y-101461082D01*
X137657748Y-101640013D01*
X137430013Y-101867748D01*
X137430000Y-101867767D01*
X137429987Y-101867748D01*
X137202252Y-101640013D01*
X136934463Y-101461082D01*
X136636912Y-101337832D01*
X136321033Y-101275000D01*
X135998967Y-101275000D01*
X135683088Y-101337832D01*
X135385537Y-101461082D01*
X135117748Y-101640013D01*
X134890013Y-101867748D01*
X134890000Y-101867767D01*
X134889987Y-101867748D01*
X134662252Y-101640013D01*
X134394463Y-101461082D01*
X134096912Y-101337832D01*
X133781033Y-101275000D01*
X133458967Y-101275000D01*
X133143088Y-101337832D01*
X132845537Y-101461082D01*
X132577748Y-101640013D01*
X132350013Y-101867748D01*
X132350000Y-101867767D01*
X132349987Y-101867748D01*
X132122252Y-101640013D01*
X131854463Y-101461082D01*
X131556912Y-101337832D01*
X131241033Y-101275000D01*
X130918967Y-101275000D01*
X130603088Y-101337832D01*
X130305537Y-101461082D01*
X130037748Y-101640013D01*
X129810013Y-101867748D01*
X129810000Y-101867767D01*
X129809987Y-101867748D01*
X129582252Y-101640013D01*
X129314463Y-101461082D01*
X129016912Y-101337832D01*
X128701033Y-101275000D01*
X128378967Y-101275000D01*
X128063088Y-101337832D01*
X127765537Y-101461082D01*
X127497748Y-101640013D01*
X127270013Y-101867748D01*
X127270000Y-101867767D01*
X127269987Y-101867748D01*
X127042252Y-101640013D01*
X126774463Y-101461082D01*
X126476912Y-101337832D01*
X126161033Y-101275000D01*
X125838967Y-101275000D01*
X125523088Y-101337832D01*
X125225537Y-101461082D01*
X124957748Y-101640013D01*
X124730013Y-101867748D01*
X124730000Y-101867767D01*
X124729987Y-101867748D01*
X124502252Y-101640013D01*
X124234463Y-101461082D01*
X123936912Y-101337832D01*
X123621033Y-101275000D01*
X123298967Y-101275000D01*
X122983088Y-101337832D01*
X122685537Y-101461082D01*
X122417748Y-101640013D01*
X122190013Y-101867748D01*
X122190000Y-101867767D01*
X122189987Y-101867748D01*
X121962252Y-101640013D01*
X121694463Y-101461082D01*
X121396912Y-101337832D01*
X121081033Y-101275000D01*
X120758967Y-101275000D01*
X120443088Y-101337832D01*
X120145537Y-101461082D01*
X119877748Y-101640013D01*
X119650013Y-101867748D01*
X119650000Y-101867767D01*
X119649987Y-101867748D01*
X119422252Y-101640013D01*
X119154463Y-101461082D01*
X118856912Y-101337832D01*
X118541033Y-101275000D01*
X118218967Y-101275000D01*
X117903088Y-101337832D01*
X117605537Y-101461082D01*
X117337748Y-101640013D01*
X117110013Y-101867748D01*
X117110000Y-101867767D01*
X117109987Y-101867748D01*
X116882252Y-101640013D01*
X116614463Y-101461082D01*
X116316912Y-101337832D01*
X116001033Y-101275000D01*
X115678967Y-101275000D01*
X115363088Y-101337832D01*
X115065537Y-101461082D01*
X114797748Y-101640013D01*
X114570013Y-101867748D01*
X114570000Y-101867767D01*
X114569987Y-101867748D01*
X114342252Y-101640013D01*
X114074463Y-101461082D01*
X113776912Y-101337832D01*
X113461033Y-101275000D01*
X113138967Y-101275000D01*
X112823088Y-101337832D01*
X112525537Y-101461082D01*
X112257748Y-101640013D01*
X112030013Y-101867748D01*
X112030000Y-101867767D01*
X112029987Y-101867748D01*
X111802252Y-101640013D01*
X111534463Y-101461082D01*
X111236912Y-101337832D01*
X110921033Y-101275000D01*
X110598967Y-101275000D01*
X110283088Y-101337832D01*
X109985537Y-101461082D01*
X109717748Y-101640013D01*
X109490013Y-101867748D01*
X109311082Y-102135537D01*
X109187832Y-102433088D01*
X109125000Y-102748967D01*
X106589579Y-102748967D01*
X106791627Y-102261181D01*
X106823631Y-102162684D01*
X107061738Y-101170898D01*
X107077939Y-101068607D01*
X107110097Y-100660000D01*
X167889903Y-100660000D01*
X167922061Y-101068607D01*
M02*
