M48
; DRILL file {KiCad 5.1.5+dfsg1-2build2} date mar 15 feb 2022 22:10:15
; FORMAT={-:-/ absolute / metric / decimal}
; #@! TF.CreationDate,2022-02-15T22:10:15-05:00
; #@! TF.GenerationSoftware,Kicad,Pcbnew,5.1.5+dfsg1-2build2
; #@! TF.FileFunction,Plated,1,2,PTH
FMAT,2
METRIC
T1C0.800
T2C1.000
T3C1.200
%
G90
G05
T1
X163.1Y-123.23
X163.1Y-125.77
T2
X110.76Y-130.85
X113.3Y-130.85
X115.84Y-130.85
X118.38Y-130.85
X120.92Y-130.85
X123.46Y-130.85
X126.0Y-130.85
X128.54Y-130.85
X131.08Y-130.85
X133.62Y-130.85
X136.16Y-130.85
X138.7Y-130.85
X141.24Y-130.85
X143.78Y-130.85
X146.32Y-130.85
X148.86Y-130.85
X151.4Y-130.85
X153.94Y-130.85
X156.48Y-130.85
X159.02Y-130.85
X110.76Y-110.53
X113.3Y-110.53
X115.84Y-110.53
X118.38Y-110.53
X120.92Y-110.53
X123.46Y-110.53
X126.0Y-110.53
X128.54Y-110.53
X131.08Y-110.53
X133.62Y-110.53
X136.16Y-110.53
X138.7Y-110.53
X141.24Y-110.53
X143.78Y-110.53
X146.32Y-110.53
X148.86Y-110.53
X151.4Y-110.53
X153.94Y-110.53
X156.48Y-110.53
X159.02Y-110.53
X110.76Y-133.39
X113.3Y-133.39
X115.84Y-133.39
X118.38Y-133.39
X120.92Y-133.39
X123.46Y-133.39
X126.0Y-133.39
X128.54Y-133.39
X131.08Y-133.39
X133.62Y-133.39
X136.16Y-133.39
X138.7Y-133.39
X141.24Y-133.39
X143.78Y-133.39
X146.32Y-133.39
X148.86Y-133.39
X151.4Y-133.39
X153.94Y-133.39
X156.48Y-133.39
X159.02Y-133.39
X110.76Y-120.69
X113.3Y-120.69
X115.84Y-120.69
X118.38Y-120.69
X120.92Y-120.69
X123.46Y-120.69
X126.0Y-120.69
X128.54Y-120.69
X131.08Y-120.69
X133.62Y-120.69
X136.16Y-120.69
X138.7Y-120.69
X141.24Y-120.69
X143.78Y-120.69
X146.32Y-120.69
X148.86Y-120.69
X151.4Y-120.69
X153.94Y-120.69
X156.48Y-120.69
X159.02Y-120.69
X110.76Y-107.99
X113.3Y-107.99
X115.84Y-107.99
X118.38Y-107.99
X120.92Y-107.99
X123.46Y-107.99
X126.0Y-107.99
X128.54Y-107.99
X131.08Y-107.99
X133.62Y-107.99
X136.16Y-107.99
X138.7Y-107.99
X141.24Y-107.99
X143.78Y-107.99
X146.32Y-107.99
X148.86Y-107.99
X151.4Y-107.99
X153.94Y-107.99
X156.48Y-107.99
X159.02Y-107.99
X110.76Y-123.23
X113.3Y-123.23
X115.84Y-123.23
X118.38Y-123.23
X120.92Y-123.23
X123.46Y-123.23
X126.0Y-123.23
X128.54Y-123.23
X131.08Y-123.23
X133.62Y-123.23
X136.16Y-123.23
X138.7Y-123.23
X141.24Y-123.23
X143.78Y-123.23
X146.32Y-123.23
X148.86Y-123.23
X151.4Y-123.23
X153.94Y-123.23
X156.48Y-123.23
X159.02Y-123.23
X110.76Y-105.45
X113.3Y-105.45
X115.84Y-105.45
X118.38Y-105.45
X120.92Y-105.45
X123.46Y-105.45
X126.0Y-105.45
X128.54Y-105.45
X131.08Y-105.45
X133.62Y-105.45
X136.16Y-105.45
X138.7Y-105.45
X141.24Y-105.45
X143.78Y-105.45
X146.32Y-105.45
X148.86Y-105.45
X151.4Y-105.45
X153.94Y-105.45
X156.48Y-105.45
X159.02Y-105.45
X110.76Y-128.31
X113.3Y-128.31
X115.84Y-128.31
X118.38Y-128.31
X120.92Y-128.31
X123.46Y-128.31
X126.0Y-128.31
X128.54Y-128.31
X131.08Y-128.31
X133.62Y-128.31
X136.16Y-128.31
X138.7Y-128.31
X141.24Y-128.31
X143.78Y-128.31
X146.32Y-128.31
X148.86Y-128.31
X151.4Y-128.31
X153.94Y-128.31
X156.48Y-128.31
X159.02Y-128.31
T3
X120.92Y-146.09
X126.0Y-143.55
X113.3Y-135.93
X153.94Y-143.55
X161.56Y-134.3
X159.02Y-141.01
X148.86Y-115.61
X110.76Y-113.07
X120.92Y-118.15
X143.78Y-113.07
X143.78Y-146.09
X136.16Y-102.91
X143.78Y-118.15
X115.84Y-115.61
X118.38Y-102.91
X143.78Y-125.77
X138.7Y-143.55
X123.46Y-141.01
X153.94Y-115.61
X126.0Y-113.07
X126.0Y-118.15
X148.86Y-113.07
X128.54Y-146.09
X141.24Y-141.01
X148.86Y-118.15
X120.92Y-115.61
X131.08Y-141.01
X148.86Y-138.47
X148.86Y-135.93
X153.94Y-118.15
X123.46Y-102.91
X146.32Y-143.55
X115.84Y-125.77
X110.76Y-138.47
X118.38Y-138.47
X120.92Y-125.77
X110.76Y-125.77
X126.0Y-125.77
X141.24Y-102.91
X136.16Y-141.01
X113.3Y-102.91
X128.54Y-143.55
X153.94Y-138.47
X159.02Y-115.61
X131.08Y-113.07
X148.86Y-102.91
X123.46Y-135.93
X131.08Y-118.15
X153.94Y-113.07
X133.62Y-146.09
X126.0Y-115.61
X153.94Y-141.01
X113.3Y-113.07
X161.56Y-114.7
X153.94Y-102.91
X141.24Y-146.09
X138.7Y-141.01
X136.16Y-138.47
X141.24Y-135.93
X131.08Y-115.61
X159.02Y-102.91
X128.54Y-141.01
X131.08Y-138.47
X133.62Y-135.93
X131.08Y-125.77
X161.56Y-111.2
X141.24Y-125.77
X136.16Y-135.93
X113.3Y-118.15
X136.16Y-113.07
X151.4Y-146.09
X136.16Y-118.15
X159.02Y-113.07
X118.38Y-113.07
X120.92Y-143.55
X156.48Y-141.01
X138.7Y-146.09
X126.0Y-138.47
X136.16Y-115.61
X115.84Y-135.93
X159.02Y-135.93
X131.08Y-143.55
X143.78Y-138.47
X159.02Y-146.09
X110.76Y-135.93
X120.92Y-135.93
X128.54Y-102.91
X136.16Y-143.55
X161.56Y-130.8
X148.86Y-143.55
X146.32Y-115.61
X118.38Y-118.15
X141.24Y-113.07
X148.86Y-146.09
X133.62Y-102.91
X141.24Y-118.15
X113.3Y-115.61
X151.4Y-115.61
X123.46Y-113.07
X138.7Y-125.77
X146.32Y-125.77
X123.46Y-118.15
X126.0Y-146.09
X146.32Y-135.93
X153.94Y-135.93
X146.32Y-118.15
X118.38Y-115.61
X141.24Y-115.61
X168.5Y-130.8
X168.5Y-134.3
X168.5Y-137.8
X151.4Y-118.15
X123.46Y-146.09
X159.02Y-143.55
X123.46Y-138.47
X115.84Y-138.47
X161.56Y-137.8
X146.32Y-113.07
X138.7Y-102.91
X151.4Y-125.77
X123.46Y-125.77
X133.62Y-141.01
X146.32Y-141.01
X115.84Y-102.91
X151.4Y-138.47
X126.0Y-141.01
X156.48Y-115.61
X128.54Y-113.07
X168.5Y-111.2
X168.5Y-114.7
X168.5Y-118.2
X156.48Y-143.55
X113.3Y-125.77
X128.54Y-118.15
X151.4Y-113.07
X131.08Y-146.09
X143.78Y-141.01
X148.86Y-125.77
X123.46Y-115.61
X136.16Y-125.77
X151.4Y-141.01
X159.02Y-138.47
X128.54Y-138.47
X151.4Y-102.91
X151.4Y-135.93
X156.48Y-118.15
X128.54Y-115.61
X120.92Y-102.91
X128.54Y-125.77
X113.3Y-138.47
X133.62Y-138.47
X159.02Y-125.77
X156.48Y-102.91
X131.08Y-135.93
X141.24Y-143.55
X143.78Y-102.91
X118.38Y-125.77
X110.76Y-102.91
X128.54Y-135.93
X120.92Y-138.47
X156.48Y-138.47
X110.76Y-118.15
X133.62Y-113.07
X148.86Y-141.01
X126.0Y-135.93
X133.62Y-118.15
X156.48Y-113.07
X136.16Y-146.09
X151.4Y-143.55
X141.24Y-138.47
X115.84Y-113.07
X133.62Y-125.77
X146.32Y-146.09
X133.62Y-115.61
X156.48Y-135.93
X143.78Y-143.55
X146.32Y-102.91
X156.48Y-146.09
X153.94Y-125.77
X120.92Y-141.01
X118.38Y-135.93
X126.0Y-102.91
X161.56Y-118.2
X146.32Y-138.47
X133.62Y-143.55
X143.78Y-115.61
X138.7Y-135.93
X115.84Y-118.15
X138.7Y-113.07
X153.94Y-146.09
X131.08Y-102.91
X138.7Y-118.15
X110.76Y-115.61
X156.48Y-125.77
X120.92Y-113.07
X138.7Y-138.47
X123.46Y-143.55
X143.78Y-135.93
X159.02Y-118.15
X138.7Y-115.61
T0
M30
