G04 #@! TF.GenerationSoftware,KiCad,Pcbnew,7.0.11+dfsg-1build4*
G04 #@! TF.CreationDate,2025-11-24T12:58:41-05:00*
G04 #@! TF.ProjectId,MCU_PROTO_83x58mm,4d43555f-5052-44f5-944f-5f3833783538,rev?*
G04 #@! TF.SameCoordinates,Original*
G04 #@! TF.FileFunction,Soldermask,Bot*
G04 #@! TF.FilePolarity,Negative*
%FSLAX46Y46*%
G04 Gerber Fmt 4.6, Leading zero omitted, Abs format (unit mm)*
G04 Created by KiCad (PCBNEW 7.0.11+dfsg-1build4) date 2025-11-24 12:58:41*
%MOMM*%
%LPD*%
G01*
G04 APERTURE LIST*
%ADD10C,1.700000*%
%ADD11R,2.400000X2.400000*%
%ADD12C,2.400000*%
%ADD13C,3.000000*%
G04 #@! TA.AperFunction,Profile*
%ADD14C,0.050000*%
G04 #@! TD*
G04 APERTURE END LIST*
D10*
X159020000Y-146090000D03*
X156480000Y-146090000D03*
X153940000Y-146090000D03*
X151400000Y-146090000D03*
X148860000Y-146090000D03*
X146320000Y-146090000D03*
X143780000Y-146090000D03*
X141240000Y-146090000D03*
X138700000Y-146090000D03*
X136160000Y-146090000D03*
X133620000Y-146090000D03*
X131080000Y-146090000D03*
X128540000Y-146090000D03*
X126000000Y-146090000D03*
X123460000Y-146090000D03*
X120920000Y-146090000D03*
X159020000Y-143550000D03*
X156480000Y-143550000D03*
X153940000Y-143550000D03*
X151400000Y-143550000D03*
X148860000Y-143550000D03*
X146320000Y-143550000D03*
X143780000Y-143550000D03*
X141240000Y-143550000D03*
X138700000Y-143550000D03*
X136160000Y-143550000D03*
X133620000Y-143550000D03*
X131080000Y-143550000D03*
X128540000Y-143550000D03*
X126000000Y-143550000D03*
X123460000Y-143550000D03*
X120920000Y-143550000D03*
X159020000Y-141010000D03*
X156480000Y-141010000D03*
X153940000Y-141010000D03*
X151400000Y-141010000D03*
X148860000Y-141010000D03*
X146320000Y-141010000D03*
X143780000Y-141010000D03*
X141240000Y-141010000D03*
X138700000Y-141010000D03*
X136160000Y-141010000D03*
X133620000Y-141010000D03*
X131080000Y-141010000D03*
X128540000Y-141010000D03*
X126000000Y-141010000D03*
X123460000Y-141010000D03*
X120920000Y-141010000D03*
X159020000Y-138470000D03*
X156480000Y-138470000D03*
X153940000Y-138470000D03*
X151400000Y-138470000D03*
X148860000Y-138470000D03*
X146320000Y-138470000D03*
X143780000Y-138470000D03*
X141240000Y-138470000D03*
X138700000Y-138470000D03*
X136160000Y-138470000D03*
X133620000Y-138470000D03*
X131080000Y-138470000D03*
X128540000Y-138470000D03*
X126000000Y-138470000D03*
X123460000Y-138470000D03*
X120920000Y-138470000D03*
X118380000Y-138470000D03*
X115840000Y-138470000D03*
X113300000Y-138470000D03*
X110760000Y-138470000D03*
X159020000Y-135930000D03*
X156480000Y-135930000D03*
X153940000Y-135930000D03*
X151400000Y-135930000D03*
X148860000Y-135930000D03*
X146320000Y-135930000D03*
X143780000Y-135930000D03*
X141240000Y-135930000D03*
X138700000Y-135930000D03*
X136160000Y-135930000D03*
X133620000Y-135930000D03*
X131080000Y-135930000D03*
X128540000Y-135930000D03*
X126000000Y-135930000D03*
X123460000Y-135930000D03*
X120920000Y-135930000D03*
X118380000Y-135930000D03*
X115840000Y-135930000D03*
X113300000Y-135930000D03*
X110760000Y-135930000D03*
X159020000Y-133390000D03*
X156480000Y-133390000D03*
X153940000Y-133390000D03*
X151400000Y-133390000D03*
X148860000Y-133390000D03*
X146320000Y-133390000D03*
X143780000Y-133390000D03*
X141240000Y-133390000D03*
X138700000Y-133390000D03*
X136160000Y-133390000D03*
X133620000Y-133390000D03*
X131080000Y-133390000D03*
X128540000Y-133390000D03*
X126000000Y-133390000D03*
X123460000Y-133390000D03*
X120920000Y-133390000D03*
X118380000Y-133390000D03*
X115840000Y-133390000D03*
X113300000Y-133390000D03*
X110760000Y-133390000D03*
X159020000Y-130850000D03*
X156480000Y-130850000D03*
X153940000Y-130850000D03*
X151400000Y-130850000D03*
X148860000Y-130850000D03*
X146320000Y-130850000D03*
X143780000Y-130850000D03*
X141240000Y-130850000D03*
X138700000Y-130850000D03*
X136160000Y-130850000D03*
X133620000Y-130850000D03*
X131080000Y-130850000D03*
X128540000Y-130850000D03*
X126000000Y-130850000D03*
X123460000Y-130850000D03*
X120920000Y-130850000D03*
X118380000Y-130850000D03*
X115840000Y-130850000D03*
X113300000Y-130850000D03*
X110760000Y-130850000D03*
X159020000Y-128310000D03*
X156480000Y-128310000D03*
X153940000Y-128310000D03*
X151400000Y-128310000D03*
X148860000Y-128310000D03*
X146320000Y-128310000D03*
X143780000Y-128310000D03*
X141240000Y-128310000D03*
X138700000Y-128310000D03*
X136160000Y-128310000D03*
X133620000Y-128310000D03*
X131080000Y-128310000D03*
X128540000Y-128310000D03*
X126000000Y-128310000D03*
X123460000Y-128310000D03*
X120920000Y-128310000D03*
X118380000Y-128310000D03*
X115840000Y-128310000D03*
X113300000Y-128310000D03*
X110760000Y-128310000D03*
X159020000Y-125770000D03*
X156480000Y-125770000D03*
X153940000Y-125770000D03*
X151400000Y-125770000D03*
X148860000Y-125770000D03*
X146320000Y-125770000D03*
X143780000Y-125770000D03*
X141240000Y-125770000D03*
X138700000Y-125770000D03*
X136160000Y-125770000D03*
X133620000Y-125770000D03*
X131080000Y-125770000D03*
X128540000Y-125770000D03*
X126000000Y-125770000D03*
X123460000Y-125770000D03*
X120920000Y-125770000D03*
X118380000Y-125770000D03*
X115840000Y-125770000D03*
X113300000Y-125770000D03*
X110760000Y-125770000D03*
X159020000Y-123230000D03*
X156480000Y-123230000D03*
X153940000Y-123230000D03*
X151400000Y-123230000D03*
X148860000Y-123230000D03*
X146320000Y-123230000D03*
X143780000Y-123230000D03*
X141240000Y-123230000D03*
X138700000Y-123230000D03*
X136160000Y-123230000D03*
X133620000Y-123230000D03*
X131080000Y-123230000D03*
X128540000Y-123230000D03*
X126000000Y-123230000D03*
X123460000Y-123230000D03*
X120920000Y-123230000D03*
X118380000Y-123230000D03*
X115840000Y-123230000D03*
X113300000Y-123230000D03*
X110760000Y-123230000D03*
X159020000Y-120690000D03*
X156480000Y-120690000D03*
X153940000Y-120690000D03*
X151400000Y-120690000D03*
X148860000Y-120690000D03*
X146320000Y-120690000D03*
X143780000Y-120690000D03*
X141240000Y-120690000D03*
X138700000Y-120690000D03*
X136160000Y-120690000D03*
X133620000Y-120690000D03*
X131080000Y-120690000D03*
X128540000Y-120690000D03*
X126000000Y-120690000D03*
X123460000Y-120690000D03*
X120920000Y-120690000D03*
X118380000Y-120690000D03*
X115840000Y-120690000D03*
X113300000Y-120690000D03*
X110760000Y-120690000D03*
X159020000Y-118150000D03*
X156480000Y-118150000D03*
X153940000Y-118150000D03*
X151400000Y-118150000D03*
X148860000Y-118150000D03*
X146320000Y-118150000D03*
X143780000Y-118150000D03*
X141240000Y-118150000D03*
X138700000Y-118150000D03*
X136160000Y-118150000D03*
X133620000Y-118150000D03*
X131080000Y-118150000D03*
X128540000Y-118150000D03*
X126000000Y-118150000D03*
X123460000Y-118150000D03*
X120920000Y-118150000D03*
X118380000Y-118150000D03*
X115840000Y-118150000D03*
X113300000Y-118150000D03*
X110760000Y-118150000D03*
X159020000Y-115610000D03*
X156480000Y-115610000D03*
X153940000Y-115610000D03*
X151400000Y-115610000D03*
X148860000Y-115610000D03*
X146320000Y-115610000D03*
X143780000Y-115610000D03*
X141240000Y-115610000D03*
X138700000Y-115610000D03*
X136160000Y-115610000D03*
X133620000Y-115610000D03*
X131080000Y-115610000D03*
X128540000Y-115610000D03*
X126000000Y-115610000D03*
X123460000Y-115610000D03*
X120920000Y-115610000D03*
X118380000Y-115610000D03*
X115840000Y-115610000D03*
X113300000Y-115610000D03*
X110760000Y-115610000D03*
X159020000Y-113070000D03*
X156480000Y-113070000D03*
X153940000Y-113070000D03*
X151400000Y-113070000D03*
X148860000Y-113070000D03*
X146320000Y-113070000D03*
X143780000Y-113070000D03*
X141240000Y-113070000D03*
X138700000Y-113070000D03*
X136160000Y-113070000D03*
X133620000Y-113070000D03*
X131080000Y-113070000D03*
X128540000Y-113070000D03*
X126000000Y-113070000D03*
X123460000Y-113070000D03*
X120920000Y-113070000D03*
X118380000Y-113070000D03*
X115840000Y-113070000D03*
X113300000Y-113070000D03*
X110760000Y-113070000D03*
X159020000Y-110530000D03*
X156480000Y-110530000D03*
X153940000Y-110530000D03*
X151400000Y-110530000D03*
X148860000Y-110530000D03*
X146320000Y-110530000D03*
X143780000Y-110530000D03*
X141240000Y-110530000D03*
X138700000Y-110530000D03*
X136160000Y-110530000D03*
X133620000Y-110530000D03*
X131080000Y-110530000D03*
X128540000Y-110530000D03*
X126000000Y-110530000D03*
X123460000Y-110530000D03*
X120920000Y-110530000D03*
X118380000Y-110530000D03*
X115840000Y-110530000D03*
X113300000Y-110530000D03*
X110760000Y-110530000D03*
X159020000Y-107990000D03*
X156480000Y-107990000D03*
X153940000Y-107990000D03*
X151400000Y-107990000D03*
X148860000Y-107990000D03*
X146320000Y-107990000D03*
X143780000Y-107990000D03*
X141240000Y-107990000D03*
X138700000Y-107990000D03*
X136160000Y-107990000D03*
X133620000Y-107990000D03*
X131080000Y-107990000D03*
X128540000Y-107990000D03*
X126000000Y-107990000D03*
X123460000Y-107990000D03*
X120920000Y-107990000D03*
X118380000Y-107990000D03*
X115840000Y-107990000D03*
X113300000Y-107990000D03*
X110760000Y-107990000D03*
X159020000Y-105450000D03*
X156480000Y-105450000D03*
X153940000Y-105450000D03*
X151400000Y-105450000D03*
X148860000Y-105450000D03*
X146320000Y-105450000D03*
X143780000Y-105450000D03*
X141240000Y-105450000D03*
X138700000Y-105450000D03*
X136160000Y-105450000D03*
X133620000Y-105450000D03*
X131080000Y-105450000D03*
X128540000Y-105450000D03*
X126000000Y-105450000D03*
X123460000Y-105450000D03*
X120920000Y-105450000D03*
X118380000Y-105450000D03*
X115840000Y-105450000D03*
X113300000Y-105450000D03*
X110760000Y-105450000D03*
X159020000Y-102910000D03*
X156480000Y-102910000D03*
X153940000Y-102910000D03*
X151400000Y-102910000D03*
X148860000Y-102910000D03*
X146320000Y-102910000D03*
X143780000Y-102910000D03*
X141240000Y-102910000D03*
X138700000Y-102910000D03*
X136160000Y-102910000D03*
X133620000Y-102910000D03*
X131080000Y-102910000D03*
X128540000Y-102910000D03*
X126000000Y-102910000D03*
X123460000Y-102910000D03*
X120920000Y-102910000D03*
X118380000Y-102910000D03*
X115840000Y-102910000D03*
X113300000Y-102910000D03*
X110760000Y-102910000D03*
D11*
X168500000Y-137800000D03*
D12*
X168500000Y-134300000D03*
X168500000Y-130800000D03*
D11*
X168500000Y-118200000D03*
D12*
X168500000Y-114700000D03*
X168500000Y-111200000D03*
D10*
X161560000Y-137800000D03*
X161560000Y-134300000D03*
X161560000Y-130800000D03*
X161560000Y-118200000D03*
X161560000Y-114700000D03*
X161560000Y-111200000D03*
X163100000Y-125770000D03*
X163100000Y-123230000D03*
D13*
X105500000Y-124500000D03*
X162500000Y-104500000D03*
X169500000Y-124500000D03*
X162500000Y-144500000D03*
X112500000Y-144500000D03*
D14*
X175000000Y-142500000D02*
G75*
G03*
X168500000Y-149000000I0J-6500000D01*
G01*
X168500000Y-100000000D02*
G75*
G03*
X175000000Y-106500000I6500000J0D01*
G01*
X106500000Y-149000000D02*
G75*
G03*
X100000000Y-142500000I-6500000J0D01*
G01*
X100000000Y-106500000D02*
G75*
G03*
X106500000Y-100000000I0J6500000D01*
G01*
X175000000Y-106500000D02*
X175000000Y-142500000D01*
X100000000Y-106500000D02*
X100000000Y-142500000D01*
X106500000Y-149000000D02*
X168500000Y-149000000D01*
X106500000Y-100000000D02*
X168500000Y-100000000D01*
M02*
