G04 #@! TF.GenerationSoftware,KiCad,Pcbnew,5.1.5+dfsg1-2build2*
G04 #@! TF.CreationDate,2021-11-15T17:15:24-05:00*
G04 #@! TF.ProjectId,,58585858-5858-4585-9858-585858585858,rev?*
G04 #@! TF.SameCoordinates,Original*
G04 #@! TF.FileFunction,Legend,Bot*
G04 #@! TF.FilePolarity,Positive*
%FSLAX46Y46*%
G04 Gerber Fmt 4.6, Leading zero omitted, Abs format (unit mm)*
G04 Created by KiCad (PCBNEW 5.1.5+dfsg1-2build2) date 2021-11-15 17:15:24*
%MOMM*%
%LPD*%
G04 APERTURE LIST*
%ADD10C,0.150000*%
%ADD11C,2.100980*%
%ADD12C,3.102000*%
%ADD13R,2.502000X2.502000*%
%ADD14C,2.502000*%
%ADD15R,1.802000X1.802000*%
%ADD16O,1.802000X1.802000*%
%ADD17C,2.102000*%
G04 APERTURE END LIST*
D10*
X107215961Y-133201500D02*
X107177866Y-133125309D01*
X107139771Y-133087214D01*
X107063580Y-133049119D01*
X107025485Y-133049119D01*
X106949295Y-133087214D01*
X106911200Y-133125309D01*
X106873104Y-133201500D01*
X106873104Y-133353880D01*
X106911200Y-133430071D01*
X106949295Y-133468166D01*
X107025485Y-133506261D01*
X107063580Y-133506261D01*
X107139771Y-133468166D01*
X107177866Y-133430071D01*
X107215961Y-133353880D01*
X107215961Y-133201500D01*
X107254057Y-133125309D01*
X107292152Y-133087214D01*
X107368342Y-133049119D01*
X107520723Y-133049119D01*
X107596914Y-133087214D01*
X107635009Y-133125309D01*
X107673104Y-133201500D01*
X107673104Y-133353880D01*
X107635009Y-133430071D01*
X107596914Y-133468166D01*
X107520723Y-133506261D01*
X107368342Y-133506261D01*
X107292152Y-133468166D01*
X107254057Y-133430071D01*
X107215961Y-133353880D01*
X106873104Y-133772928D02*
X106873104Y-134268166D01*
X107177866Y-134001500D01*
X107177866Y-134115785D01*
X107215961Y-134191976D01*
X107254057Y-134230071D01*
X107330247Y-134268166D01*
X107520723Y-134268166D01*
X107596914Y-134230071D01*
X107635009Y-134191976D01*
X107673104Y-134115785D01*
X107673104Y-133887214D01*
X107635009Y-133811023D01*
X107596914Y-133772928D01*
X107673104Y-134534833D02*
X107139771Y-134953880D01*
X107139771Y-134534833D02*
X107673104Y-134953880D01*
X106873104Y-135639595D02*
X106873104Y-135258642D01*
X107254057Y-135220547D01*
X107215961Y-135258642D01*
X107177866Y-135334833D01*
X107177866Y-135525309D01*
X107215961Y-135601500D01*
X107254057Y-135639595D01*
X107330247Y-135677690D01*
X107520723Y-135677690D01*
X107596914Y-135639595D01*
X107635009Y-135601500D01*
X107673104Y-135525309D01*
X107673104Y-135334833D01*
X107635009Y-135258642D01*
X107596914Y-135220547D01*
X107215961Y-136134833D02*
X107177866Y-136058642D01*
X107139771Y-136020547D01*
X107063580Y-135982452D01*
X107025485Y-135982452D01*
X106949295Y-136020547D01*
X106911200Y-136058642D01*
X106873104Y-136134833D01*
X106873104Y-136287214D01*
X106911200Y-136363404D01*
X106949295Y-136401500D01*
X107025485Y-136439595D01*
X107063580Y-136439595D01*
X107139771Y-136401500D01*
X107177866Y-136363404D01*
X107215961Y-136287214D01*
X107215961Y-136134833D01*
X107254057Y-136058642D01*
X107292152Y-136020547D01*
X107368342Y-135982452D01*
X107520723Y-135982452D01*
X107596914Y-136020547D01*
X107635009Y-136058642D01*
X107673104Y-136134833D01*
X107673104Y-136287214D01*
X107635009Y-136363404D01*
X107596914Y-136401500D01*
X107520723Y-136439595D01*
X107368342Y-136439595D01*
X107292152Y-136401500D01*
X107254057Y-136363404D01*
X107215961Y-136287214D01*
X107673104Y-136706261D02*
X107139771Y-137125309D01*
X107139771Y-136706261D02*
X107673104Y-137125309D01*
X106873104Y-137353880D02*
X106873104Y-137849119D01*
X107177866Y-137582452D01*
X107177866Y-137696738D01*
X107215961Y-137772928D01*
X107254057Y-137811023D01*
X107330247Y-137849119D01*
X107520723Y-137849119D01*
X107596914Y-137811023D01*
X107635009Y-137772928D01*
X107673104Y-137696738D01*
X107673104Y-137468166D01*
X107635009Y-137391976D01*
X107596914Y-137353880D01*
X106873104Y-138115785D02*
X106873104Y-138611023D01*
X107177866Y-138344357D01*
X107177866Y-138458642D01*
X107215961Y-138534833D01*
X107254057Y-138572928D01*
X107330247Y-138611023D01*
X107520723Y-138611023D01*
X107596914Y-138572928D01*
X107635009Y-138534833D01*
X107673104Y-138458642D01*
X107673104Y-138230071D01*
X107635009Y-138153880D01*
X107596914Y-138115785D01*
X107673104Y-138953880D02*
X107139771Y-138953880D01*
X107215961Y-138953880D02*
X107177866Y-138991976D01*
X107139771Y-139068166D01*
X107139771Y-139182452D01*
X107177866Y-139258642D01*
X107254057Y-139296738D01*
X107673104Y-139296738D01*
X107254057Y-139296738D02*
X107177866Y-139334833D01*
X107139771Y-139411023D01*
X107139771Y-139525309D01*
X107177866Y-139601500D01*
X107254057Y-139639595D01*
X107673104Y-139639595D01*
X107673104Y-140020547D02*
X107139771Y-140020547D01*
X107215961Y-140020547D02*
X107177866Y-140058642D01*
X107139771Y-140134833D01*
X107139771Y-140249119D01*
X107177866Y-140325309D01*
X107254057Y-140363404D01*
X107673104Y-140363404D01*
X107254057Y-140363404D02*
X107177866Y-140401500D01*
X107139771Y-140477690D01*
X107139771Y-140591976D01*
X107177866Y-140668166D01*
X107254057Y-140706261D01*
X107673104Y-140706261D01*
X108604057Y-133906261D02*
X108604057Y-134172928D01*
X109023104Y-134287214D02*
X109023104Y-133906261D01*
X108223104Y-133906261D01*
X108223104Y-134287214D01*
X109023104Y-134630071D02*
X108223104Y-134630071D01*
X109023104Y-135087214D01*
X108223104Y-135087214D01*
X108946914Y-135925309D02*
X108985009Y-135887214D01*
X109023104Y-135772928D01*
X109023104Y-135696738D01*
X108985009Y-135582452D01*
X108908819Y-135506261D01*
X108832628Y-135468166D01*
X108680247Y-135430071D01*
X108565961Y-135430071D01*
X108413580Y-135468166D01*
X108337390Y-135506261D01*
X108261200Y-135582452D01*
X108223104Y-135696738D01*
X108223104Y-135772928D01*
X108261200Y-135887214D01*
X108299295Y-135925309D01*
X109023104Y-136649119D02*
X109023104Y-136268166D01*
X108223104Y-136268166D01*
X108223104Y-137068166D02*
X108223104Y-137220547D01*
X108261200Y-137296738D01*
X108337390Y-137372928D01*
X108489771Y-137411023D01*
X108756438Y-137411023D01*
X108908819Y-137372928D01*
X108985009Y-137296738D01*
X109023104Y-137220547D01*
X109023104Y-137068166D01*
X108985009Y-136991976D01*
X108908819Y-136915785D01*
X108756438Y-136877690D01*
X108489771Y-136877690D01*
X108337390Y-136915785D01*
X108261200Y-136991976D01*
X108223104Y-137068166D01*
X108985009Y-137715785D02*
X109023104Y-137830071D01*
X109023104Y-138020547D01*
X108985009Y-138096738D01*
X108946914Y-138134833D01*
X108870723Y-138172928D01*
X108794533Y-138172928D01*
X108718342Y-138134833D01*
X108680247Y-138096738D01*
X108642152Y-138020547D01*
X108604057Y-137868166D01*
X108565961Y-137791976D01*
X108527866Y-137753880D01*
X108451676Y-137715785D01*
X108375485Y-137715785D01*
X108299295Y-137753880D01*
X108261200Y-137791976D01*
X108223104Y-137868166D01*
X108223104Y-138058642D01*
X108261200Y-138172928D01*
X108223104Y-138515785D02*
X108870723Y-138515785D01*
X108946914Y-138553880D01*
X108985009Y-138591976D01*
X109023104Y-138668166D01*
X109023104Y-138820547D01*
X108985009Y-138896738D01*
X108946914Y-138934833D01*
X108870723Y-138972928D01*
X108223104Y-138972928D01*
X109023104Y-139811023D02*
X108642152Y-139544357D01*
X109023104Y-139353880D02*
X108223104Y-139353880D01*
X108223104Y-139658642D01*
X108261200Y-139734833D01*
X108299295Y-139772928D01*
X108375485Y-139811023D01*
X108489771Y-139811023D01*
X108565961Y-139772928D01*
X108604057Y-139734833D01*
X108642152Y-139658642D01*
X108642152Y-139353880D01*
X108604057Y-140153880D02*
X108604057Y-140420547D01*
X109023104Y-140534833D02*
X109023104Y-140153880D01*
X108223104Y-140153880D01*
X108223104Y-140534833D01*
X107215961Y-84201500D02*
X107177866Y-84125309D01*
X107139771Y-84087214D01*
X107063580Y-84049119D01*
X107025485Y-84049119D01*
X106949295Y-84087214D01*
X106911200Y-84125309D01*
X106873104Y-84201500D01*
X106873104Y-84353880D01*
X106911200Y-84430071D01*
X106949295Y-84468166D01*
X107025485Y-84506261D01*
X107063580Y-84506261D01*
X107139771Y-84468166D01*
X107177866Y-84430071D01*
X107215961Y-84353880D01*
X107215961Y-84201500D01*
X107254057Y-84125309D01*
X107292152Y-84087214D01*
X107368342Y-84049119D01*
X107520723Y-84049119D01*
X107596914Y-84087214D01*
X107635009Y-84125309D01*
X107673104Y-84201500D01*
X107673104Y-84353880D01*
X107635009Y-84430071D01*
X107596914Y-84468166D01*
X107520723Y-84506261D01*
X107368342Y-84506261D01*
X107292152Y-84468166D01*
X107254057Y-84430071D01*
X107215961Y-84353880D01*
X106873104Y-84772928D02*
X106873104Y-85268166D01*
X107177866Y-85001500D01*
X107177866Y-85115785D01*
X107215961Y-85191976D01*
X107254057Y-85230071D01*
X107330247Y-85268166D01*
X107520723Y-85268166D01*
X107596914Y-85230071D01*
X107635009Y-85191976D01*
X107673104Y-85115785D01*
X107673104Y-84887214D01*
X107635009Y-84811023D01*
X107596914Y-84772928D01*
X107673104Y-85534833D02*
X107139771Y-85953880D01*
X107139771Y-85534833D02*
X107673104Y-85953880D01*
X106873104Y-86639595D02*
X106873104Y-86258642D01*
X107254057Y-86220547D01*
X107215961Y-86258642D01*
X107177866Y-86334833D01*
X107177866Y-86525309D01*
X107215961Y-86601500D01*
X107254057Y-86639595D01*
X107330247Y-86677690D01*
X107520723Y-86677690D01*
X107596914Y-86639595D01*
X107635009Y-86601500D01*
X107673104Y-86525309D01*
X107673104Y-86334833D01*
X107635009Y-86258642D01*
X107596914Y-86220547D01*
X107215961Y-87134833D02*
X107177866Y-87058642D01*
X107139771Y-87020547D01*
X107063580Y-86982452D01*
X107025485Y-86982452D01*
X106949295Y-87020547D01*
X106911200Y-87058642D01*
X106873104Y-87134833D01*
X106873104Y-87287214D01*
X106911200Y-87363404D01*
X106949295Y-87401500D01*
X107025485Y-87439595D01*
X107063580Y-87439595D01*
X107139771Y-87401500D01*
X107177866Y-87363404D01*
X107215961Y-87287214D01*
X107215961Y-87134833D01*
X107254057Y-87058642D01*
X107292152Y-87020547D01*
X107368342Y-86982452D01*
X107520723Y-86982452D01*
X107596914Y-87020547D01*
X107635009Y-87058642D01*
X107673104Y-87134833D01*
X107673104Y-87287214D01*
X107635009Y-87363404D01*
X107596914Y-87401500D01*
X107520723Y-87439595D01*
X107368342Y-87439595D01*
X107292152Y-87401500D01*
X107254057Y-87363404D01*
X107215961Y-87287214D01*
X107673104Y-87706261D02*
X107139771Y-88125309D01*
X107139771Y-87706261D02*
X107673104Y-88125309D01*
X106873104Y-88353880D02*
X106873104Y-88849119D01*
X107177866Y-88582452D01*
X107177866Y-88696738D01*
X107215961Y-88772928D01*
X107254057Y-88811023D01*
X107330247Y-88849119D01*
X107520723Y-88849119D01*
X107596914Y-88811023D01*
X107635009Y-88772928D01*
X107673104Y-88696738D01*
X107673104Y-88468166D01*
X107635009Y-88391976D01*
X107596914Y-88353880D01*
X106873104Y-89115785D02*
X106873104Y-89611023D01*
X107177866Y-89344357D01*
X107177866Y-89458642D01*
X107215961Y-89534833D01*
X107254057Y-89572928D01*
X107330247Y-89611023D01*
X107520723Y-89611023D01*
X107596914Y-89572928D01*
X107635009Y-89534833D01*
X107673104Y-89458642D01*
X107673104Y-89230071D01*
X107635009Y-89153880D01*
X107596914Y-89115785D01*
X107673104Y-89953880D02*
X107139771Y-89953880D01*
X107215961Y-89953880D02*
X107177866Y-89991976D01*
X107139771Y-90068166D01*
X107139771Y-90182452D01*
X107177866Y-90258642D01*
X107254057Y-90296738D01*
X107673104Y-90296738D01*
X107254057Y-90296738D02*
X107177866Y-90334833D01*
X107139771Y-90411023D01*
X107139771Y-90525309D01*
X107177866Y-90601500D01*
X107254057Y-90639595D01*
X107673104Y-90639595D01*
X107673104Y-91020547D02*
X107139771Y-91020547D01*
X107215961Y-91020547D02*
X107177866Y-91058642D01*
X107139771Y-91134833D01*
X107139771Y-91249119D01*
X107177866Y-91325309D01*
X107254057Y-91363404D01*
X107673104Y-91363404D01*
X107254057Y-91363404D02*
X107177866Y-91401500D01*
X107139771Y-91477690D01*
X107139771Y-91591976D01*
X107177866Y-91668166D01*
X107254057Y-91706261D01*
X107673104Y-91706261D01*
X108604057Y-84906261D02*
X108604057Y-85172928D01*
X109023104Y-85287214D02*
X109023104Y-84906261D01*
X108223104Y-84906261D01*
X108223104Y-85287214D01*
X109023104Y-85630071D02*
X108223104Y-85630071D01*
X109023104Y-86087214D01*
X108223104Y-86087214D01*
X108946914Y-86925309D02*
X108985009Y-86887214D01*
X109023104Y-86772928D01*
X109023104Y-86696738D01*
X108985009Y-86582452D01*
X108908819Y-86506261D01*
X108832628Y-86468166D01*
X108680247Y-86430071D01*
X108565961Y-86430071D01*
X108413580Y-86468166D01*
X108337390Y-86506261D01*
X108261200Y-86582452D01*
X108223104Y-86696738D01*
X108223104Y-86772928D01*
X108261200Y-86887214D01*
X108299295Y-86925309D01*
X109023104Y-87649119D02*
X109023104Y-87268166D01*
X108223104Y-87268166D01*
X108223104Y-88068166D02*
X108223104Y-88220547D01*
X108261200Y-88296738D01*
X108337390Y-88372928D01*
X108489771Y-88411023D01*
X108756438Y-88411023D01*
X108908819Y-88372928D01*
X108985009Y-88296738D01*
X109023104Y-88220547D01*
X109023104Y-88068166D01*
X108985009Y-87991976D01*
X108908819Y-87915785D01*
X108756438Y-87877690D01*
X108489771Y-87877690D01*
X108337390Y-87915785D01*
X108261200Y-87991976D01*
X108223104Y-88068166D01*
X108985009Y-88715785D02*
X109023104Y-88830071D01*
X109023104Y-89020547D01*
X108985009Y-89096738D01*
X108946914Y-89134833D01*
X108870723Y-89172928D01*
X108794533Y-89172928D01*
X108718342Y-89134833D01*
X108680247Y-89096738D01*
X108642152Y-89020547D01*
X108604057Y-88868166D01*
X108565961Y-88791976D01*
X108527866Y-88753880D01*
X108451676Y-88715785D01*
X108375485Y-88715785D01*
X108299295Y-88753880D01*
X108261200Y-88791976D01*
X108223104Y-88868166D01*
X108223104Y-89058642D01*
X108261200Y-89172928D01*
X108223104Y-89515785D02*
X108870723Y-89515785D01*
X108946914Y-89553880D01*
X108985009Y-89591976D01*
X109023104Y-89668166D01*
X109023104Y-89820547D01*
X108985009Y-89896738D01*
X108946914Y-89934833D01*
X108870723Y-89972928D01*
X108223104Y-89972928D01*
X109023104Y-90811023D02*
X108642152Y-90544357D01*
X109023104Y-90353880D02*
X108223104Y-90353880D01*
X108223104Y-90658642D01*
X108261200Y-90734833D01*
X108299295Y-90772928D01*
X108375485Y-90811023D01*
X108489771Y-90811023D01*
X108565961Y-90772928D01*
X108604057Y-90734833D01*
X108642152Y-90658642D01*
X108642152Y-90353880D01*
X108604057Y-91153880D02*
X108604057Y-91420547D01*
X109023104Y-91534833D02*
X109023104Y-91153880D01*
X108223104Y-91153880D01*
X108223104Y-91534833D01*
%LPC*%
D11*
X167959400Y-126827500D03*
D12*
X174859400Y-125557500D03*
X110859400Y-125557500D03*
X167859400Y-105557500D03*
X117859400Y-145557500D03*
X117859400Y-105557500D03*
X167859400Y-145557500D03*
D13*
X172359400Y-138857500D03*
D14*
X172359400Y-135357500D03*
X172359400Y-131857500D03*
D15*
X140019400Y-129367500D03*
D16*
X140019400Y-126827500D03*
X140019400Y-124287500D03*
X140019400Y-121747500D03*
X140019400Y-119207500D03*
X140019400Y-116667500D03*
X140019400Y-114127500D03*
X140019400Y-111587500D03*
D15*
X117159400Y-129367500D03*
D16*
X117159400Y-126827500D03*
X117159400Y-124287500D03*
X117159400Y-121747500D03*
X117159400Y-119207500D03*
X117159400Y-116667500D03*
X117159400Y-114127500D03*
X117159400Y-111587500D03*
D15*
X129859400Y-106507500D03*
D16*
X132399400Y-106507500D03*
X134939400Y-106507500D03*
X137479400Y-106507500D03*
X140019400Y-106507500D03*
X142559400Y-106507500D03*
X145099400Y-106507500D03*
X147639400Y-106507500D03*
D15*
X129859400Y-129367500D03*
D16*
X132399400Y-129367500D03*
X134939400Y-129367500D03*
X137479400Y-129367500D03*
X140019400Y-129367500D03*
X142559400Y-129367500D03*
X145099400Y-129367500D03*
X147639400Y-129367500D03*
D17*
X129859400Y-103967500D03*
X132399400Y-103967500D03*
X134939400Y-103967500D03*
X137479400Y-103967500D03*
X140019400Y-103967500D03*
X147639400Y-103967500D03*
X129859400Y-109047500D03*
X132399400Y-109047500D03*
X134939400Y-109047500D03*
X137479400Y-109047500D03*
X140019400Y-109047500D03*
X142559400Y-109047500D03*
X145099400Y-109047500D03*
X147639400Y-109047500D03*
X114619400Y-129367500D03*
X114619400Y-126827500D03*
X114619400Y-124287500D03*
X114619400Y-121747500D03*
X114619400Y-119207500D03*
X114619400Y-116667500D03*
X114619400Y-114127500D03*
X114619400Y-111587500D03*
X119699400Y-129367500D03*
X119699400Y-126827500D03*
X119699400Y-124287500D03*
X119699400Y-121747500D03*
X119699400Y-119207500D03*
X119699400Y-116667500D03*
X119699400Y-114127500D03*
X119699400Y-111587500D03*
X137479400Y-111587500D03*
X137479400Y-114127500D03*
X137479400Y-116667500D03*
X137479400Y-119207500D03*
X137479400Y-121747500D03*
X137479400Y-124306600D03*
X137479400Y-126827500D03*
X142559400Y-111587500D03*
X142559400Y-114127500D03*
X142559400Y-116667500D03*
X142559400Y-119207500D03*
X142559400Y-121747500D03*
X142559400Y-124287500D03*
X142559400Y-126827500D03*
X134939400Y-126827500D03*
X132399400Y-126827500D03*
X129859400Y-126827500D03*
X127319400Y-126827500D03*
X127319400Y-131907500D03*
X129859400Y-131907500D03*
X132399400Y-131907500D03*
X134939400Y-131907500D03*
X145099400Y-126827500D03*
X147639400Y-126827500D03*
X150179400Y-126827500D03*
X145099400Y-131907500D03*
X147639400Y-131907500D03*
X150179400Y-131907500D03*
X137479400Y-131907500D03*
X142559400Y-131907500D03*
X165419400Y-112257500D03*
X165419400Y-119257500D03*
X165419400Y-131857500D03*
X165419400Y-135357500D03*
X165419400Y-138857500D03*
X165419400Y-115757500D03*
D13*
X172359400Y-119257500D03*
D14*
X172359400Y-115757500D03*
X172359400Y-112257500D03*
D17*
X152719400Y-103967500D03*
X152719400Y-106507500D03*
X152719400Y-109047500D03*
X152719400Y-111587500D03*
X152719400Y-114127500D03*
X152719400Y-116667500D03*
X152719400Y-119207500D03*
X152719400Y-121747500D03*
X152719400Y-136987500D03*
X152719400Y-139527500D03*
X152719400Y-142067500D03*
X152719400Y-144607500D03*
X152719400Y-147147500D03*
X155259400Y-103967500D03*
X155259400Y-106507500D03*
X155259400Y-109047500D03*
X155259400Y-111587500D03*
X155259400Y-114127500D03*
X155259400Y-116667500D03*
X155259400Y-119207500D03*
X155259400Y-121747500D03*
X155259400Y-124287500D03*
X155259400Y-126827500D03*
X155259400Y-129367500D03*
X155259400Y-131907500D03*
X155259400Y-134447500D03*
X155259400Y-136987500D03*
X155259400Y-139527500D03*
X155259400Y-142067500D03*
X155259400Y-144607500D03*
X155259400Y-147147500D03*
X157799400Y-103967500D03*
X157799400Y-106507500D03*
X157799400Y-109047500D03*
X157799400Y-111587500D03*
X157799400Y-114127500D03*
X157799400Y-116667500D03*
X157799400Y-119207500D03*
X157799400Y-121747500D03*
X157799400Y-124287500D03*
X157799400Y-126827500D03*
X157799400Y-129367500D03*
X157799400Y-131907500D03*
X157799400Y-134447500D03*
X157799400Y-136987500D03*
X157799400Y-139527500D03*
X157799400Y-142067500D03*
X157799400Y-144607500D03*
X157799400Y-147147500D03*
X160339400Y-103967500D03*
X160339400Y-106507500D03*
X160339400Y-109047500D03*
X160339400Y-111587500D03*
X160339400Y-114127500D03*
X160339400Y-116667500D03*
X160339400Y-119207500D03*
X160339400Y-121747500D03*
X160339400Y-124287500D03*
X160339400Y-126827500D03*
X160339400Y-129367500D03*
X160339400Y-131907500D03*
X160339400Y-134447500D03*
X160339400Y-136987500D03*
X160339400Y-139527500D03*
X145099400Y-103967500D03*
X160339400Y-142067500D03*
X142559400Y-103967500D03*
X160339400Y-144607500D03*
X160339400Y-147147500D03*
X162879400Y-103967500D03*
X162879400Y-106507500D03*
X162879400Y-109047500D03*
X162879400Y-111587500D03*
X162879400Y-114127500D03*
X162879400Y-116667500D03*
X162879400Y-119207500D03*
X162879400Y-121747500D03*
X162879400Y-124287500D03*
X162879400Y-126827500D03*
X132399400Y-134447500D03*
X127319400Y-139527500D03*
X122239400Y-147147500D03*
X127319400Y-142067500D03*
X137479400Y-142067500D03*
X147639400Y-121747500D03*
X150179400Y-136987500D03*
X150179400Y-139527500D03*
X124779400Y-139527500D03*
X145099400Y-114127500D03*
X142559400Y-134447500D03*
X145099400Y-124287500D03*
X162879400Y-129367500D03*
X162879400Y-131907500D03*
X162879400Y-134447500D03*
X162879400Y-136987500D03*
X162879400Y-139527500D03*
X162879400Y-142067500D03*
X162879400Y-144607500D03*
X162879400Y-147147500D03*
X150179400Y-114127500D03*
X150179400Y-116667500D03*
X150179400Y-119207500D03*
X150179400Y-121747500D03*
X147639400Y-114127500D03*
X147639400Y-116667500D03*
X147639400Y-119207500D03*
X127319400Y-147147500D03*
X129859400Y-136987500D03*
X127319400Y-144607500D03*
X147639400Y-134447500D03*
X145099400Y-134447500D03*
X142559400Y-147147500D03*
X150179400Y-124287500D03*
X134939400Y-147147500D03*
X122239400Y-134447500D03*
X132399400Y-136987500D03*
X137479400Y-134447500D03*
X134939400Y-134447500D03*
X134939400Y-144607500D03*
X114619400Y-134447500D03*
X112079400Y-134447500D03*
X140019400Y-142067500D03*
X132399400Y-144607500D03*
X142559400Y-136987500D03*
X147639400Y-142067500D03*
X122239400Y-139527500D03*
X124779400Y-147147500D03*
X119699400Y-136987500D03*
X129859400Y-142067500D03*
X137479400Y-136987500D03*
X147639400Y-124287500D03*
X140019400Y-144607500D03*
X134939400Y-139527500D03*
X124779400Y-144607500D03*
X145099400Y-119207500D03*
X140019400Y-147147500D03*
X147639400Y-144607500D03*
X129859400Y-147147500D03*
X152719400Y-126827500D03*
X145099400Y-111587500D03*
X152719400Y-129367500D03*
X145099400Y-144607500D03*
X124779400Y-136987500D03*
X145099400Y-121747500D03*
X132399400Y-147147500D03*
X145099400Y-116667500D03*
X112079400Y-136987500D03*
X145099400Y-139527500D03*
X150179400Y-134447500D03*
X152719400Y-134447500D03*
X122239400Y-142067500D03*
X124779400Y-142067500D03*
X122239400Y-144607500D03*
X147639400Y-136987500D03*
X142559400Y-142067500D03*
X140019400Y-136987500D03*
X117159400Y-134447500D03*
X150179400Y-144607500D03*
X150179400Y-147147500D03*
X150179400Y-142067500D03*
X145099400Y-136987500D03*
X129859400Y-134447500D03*
X137479400Y-144607500D03*
X127319400Y-134447500D03*
X124779400Y-134447500D03*
X140019400Y-134447500D03*
X152719400Y-131907500D03*
X140019400Y-139527500D03*
X147639400Y-139527500D03*
X137479400Y-139527500D03*
X114619400Y-136987500D03*
X147639400Y-147147500D03*
X132399400Y-142067500D03*
X127319400Y-136987500D03*
X129859400Y-139527500D03*
X134939400Y-142067500D03*
X132399400Y-139527500D03*
X117159400Y-136987500D03*
X145099400Y-142067500D03*
X119699400Y-134447500D03*
X122239400Y-136987500D03*
X142559400Y-144607500D03*
X142559400Y-139527500D03*
X129859400Y-144607500D03*
X134939400Y-136987500D03*
X137479400Y-147147500D03*
X145099400Y-147147500D03*
D11*
X167959400Y-124287500D03*
D17*
X150179400Y-103967500D03*
X150179400Y-106507500D03*
X150179400Y-109047500D03*
X152719400Y-124287500D03*
X150179400Y-111587500D03*
X147639400Y-111587500D03*
D11*
X167959400Y-77827500D03*
X167959400Y-75287500D03*
D17*
X150179400Y-54967500D03*
X150179400Y-57507500D03*
X150179400Y-60047500D03*
X150179400Y-62587500D03*
X147639400Y-62587500D03*
X145099400Y-62587500D03*
X145099400Y-65127500D03*
X145099400Y-67667500D03*
X145099400Y-70207500D03*
X145099400Y-72747500D03*
X145099400Y-75287500D03*
X147639400Y-75287500D03*
X150179400Y-75287500D03*
X152719400Y-82907500D03*
X152719400Y-80367500D03*
X152719400Y-77827500D03*
X152719400Y-75287500D03*
X112079400Y-85447500D03*
X114619400Y-85447500D03*
X117159400Y-85447500D03*
X119699400Y-85447500D03*
X122239400Y-85447500D03*
X124779400Y-85447500D03*
X127319400Y-85447500D03*
X129859400Y-85447500D03*
X132399400Y-85447500D03*
X134939400Y-85447500D03*
X137479400Y-85447500D03*
X140019400Y-85447500D03*
X142559400Y-85447500D03*
X145099400Y-85447500D03*
X147639400Y-85447500D03*
X150179400Y-85447500D03*
X152719400Y-85447500D03*
X112079400Y-87987500D03*
X122239400Y-98147500D03*
X124779400Y-98147500D03*
X122239400Y-95607500D03*
X124779400Y-95607500D03*
X122239400Y-93067500D03*
X124779400Y-93067500D03*
X122239400Y-90527500D03*
X124779400Y-90527500D03*
X114619400Y-87987500D03*
X117159400Y-87987500D03*
X119699400Y-87987500D03*
X122239400Y-87987500D03*
X124779400Y-87987500D03*
X127319400Y-98147500D03*
X129859400Y-98147500D03*
X132399400Y-98147500D03*
X134939400Y-98147500D03*
X137479400Y-98147500D03*
X140019400Y-98147500D03*
X142559400Y-98147500D03*
X145099400Y-98147500D03*
X147639400Y-98147500D03*
X127319400Y-95607500D03*
X129859400Y-95607500D03*
X132399400Y-95607500D03*
X134939400Y-95607500D03*
X137479400Y-95607500D03*
X140019400Y-95607500D03*
X142559400Y-95607500D03*
X145099400Y-95607500D03*
X147639400Y-95607500D03*
X127319400Y-93067500D03*
X129859400Y-93067500D03*
X132399400Y-93067500D03*
X134939400Y-93067500D03*
X137479400Y-93067500D03*
X140019400Y-93067500D03*
X142559400Y-93067500D03*
X145099400Y-93067500D03*
X147639400Y-93067500D03*
X127319400Y-90527500D03*
X129859400Y-90527500D03*
X132399400Y-90527500D03*
X134939400Y-90527500D03*
X137479400Y-90527500D03*
X140019400Y-90527500D03*
X142559400Y-90527500D03*
X145099400Y-90527500D03*
X147639400Y-90527500D03*
X127319400Y-87987500D03*
X129859400Y-87987500D03*
X132399400Y-87987500D03*
X134939400Y-87987500D03*
X137479400Y-87987500D03*
X140019400Y-87987500D03*
X142559400Y-87987500D03*
X145099400Y-87987500D03*
X147639400Y-87987500D03*
X150179400Y-98147500D03*
X150179400Y-95607500D03*
X150179400Y-93067500D03*
X150179400Y-90527500D03*
X150179400Y-87987500D03*
X147639400Y-72747500D03*
X147639400Y-70207500D03*
X147639400Y-67667500D03*
X147639400Y-65127500D03*
X150179400Y-72747500D03*
X150179400Y-70207500D03*
X150179400Y-67667500D03*
X150179400Y-65127500D03*
X162879400Y-98147500D03*
X162879400Y-95607500D03*
X162879400Y-93067500D03*
X162879400Y-90527500D03*
X162879400Y-87987500D03*
X162879400Y-85447500D03*
X162879400Y-82907500D03*
X162879400Y-80367500D03*
X162879400Y-77827500D03*
X162879400Y-75287500D03*
X162879400Y-72747500D03*
X162879400Y-70207500D03*
X162879400Y-67667500D03*
X162879400Y-65127500D03*
X162879400Y-62587500D03*
X162879400Y-60047500D03*
X162879400Y-57507500D03*
X162879400Y-54967500D03*
X160339400Y-98147500D03*
X160339400Y-95607500D03*
X160339400Y-93067500D03*
X160339400Y-90527500D03*
X160339400Y-87987500D03*
X160339400Y-85447500D03*
X160339400Y-82907500D03*
X160339400Y-80367500D03*
X160339400Y-77827500D03*
X160339400Y-75287500D03*
X160339400Y-72747500D03*
X160339400Y-70207500D03*
X160339400Y-67667500D03*
X160339400Y-65127500D03*
X160339400Y-62587500D03*
X160339400Y-60047500D03*
X160339400Y-57507500D03*
X160339400Y-54967500D03*
X157799400Y-98147500D03*
X157799400Y-95607500D03*
X157799400Y-93067500D03*
X157799400Y-90527500D03*
X157799400Y-87987500D03*
X157799400Y-85447500D03*
X157799400Y-82907500D03*
X157799400Y-80367500D03*
X157799400Y-77827500D03*
X157799400Y-75287500D03*
X157799400Y-72747500D03*
X157799400Y-70207500D03*
X157799400Y-67667500D03*
X157799400Y-65127500D03*
X157799400Y-62587500D03*
X157799400Y-60047500D03*
X157799400Y-57507500D03*
X157799400Y-54967500D03*
X155259400Y-98147500D03*
X155259400Y-95607500D03*
X155259400Y-93067500D03*
X155259400Y-90527500D03*
X155259400Y-87987500D03*
X155259400Y-85447500D03*
X155259400Y-82907500D03*
X155259400Y-80367500D03*
X155259400Y-77827500D03*
X155259400Y-75287500D03*
X155259400Y-72747500D03*
X155259400Y-70207500D03*
X155259400Y-67667500D03*
X155259400Y-65127500D03*
X155259400Y-62587500D03*
X155259400Y-60047500D03*
X155259400Y-57507500D03*
X155259400Y-54967500D03*
X152719400Y-98147500D03*
X152719400Y-95607500D03*
X152719400Y-93067500D03*
X152719400Y-90527500D03*
X152719400Y-87987500D03*
X152719400Y-72747500D03*
X152719400Y-70207500D03*
X152719400Y-67667500D03*
X152719400Y-65127500D03*
X152719400Y-62587500D03*
X152719400Y-60047500D03*
X152719400Y-57507500D03*
X152719400Y-54967500D03*
D14*
X172359400Y-63257500D03*
X172359400Y-66757500D03*
D13*
X172359400Y-70257500D03*
D17*
X165419400Y-66757500D03*
X165419400Y-89857500D03*
X165419400Y-86357500D03*
X165419400Y-82857500D03*
X165419400Y-70257500D03*
X165419400Y-63257500D03*
X142559400Y-82907500D03*
X137479400Y-82907500D03*
X150179400Y-82907500D03*
X147639400Y-82907500D03*
X145099400Y-82907500D03*
X150179400Y-77827500D03*
X147639400Y-77827500D03*
X145099400Y-77827500D03*
X134939400Y-82907500D03*
X132399400Y-82907500D03*
X129859400Y-82907500D03*
X127319400Y-82907500D03*
X127319400Y-77827500D03*
X129859400Y-77827500D03*
X132399400Y-77827500D03*
X134939400Y-77827500D03*
X142559400Y-77827500D03*
X142559400Y-75287500D03*
X142559400Y-72747500D03*
X142559400Y-70207500D03*
X142559400Y-67667500D03*
X142559400Y-65127500D03*
X142559400Y-62587500D03*
X137479400Y-77827500D03*
X137479400Y-75306600D03*
X137479400Y-72747500D03*
X137479400Y-70207500D03*
X137479400Y-67667500D03*
X137479400Y-65127500D03*
X137479400Y-62587500D03*
X119699400Y-62587500D03*
X119699400Y-65127500D03*
X119699400Y-67667500D03*
X119699400Y-70207500D03*
X119699400Y-72747500D03*
X119699400Y-75287500D03*
X119699400Y-77827500D03*
X119699400Y-80367500D03*
X114619400Y-62587500D03*
X114619400Y-65127500D03*
X114619400Y-67667500D03*
X114619400Y-70207500D03*
X114619400Y-72747500D03*
X114619400Y-75287500D03*
X114619400Y-77827500D03*
X114619400Y-80367500D03*
X147639400Y-60047500D03*
X145099400Y-60047500D03*
X142559400Y-60047500D03*
X140019400Y-60047500D03*
X137479400Y-60047500D03*
X134939400Y-60047500D03*
X132399400Y-60047500D03*
X129859400Y-60047500D03*
X147639400Y-54967500D03*
X145099400Y-54967500D03*
X142559400Y-54967500D03*
X140019400Y-54967500D03*
X137479400Y-54967500D03*
X134939400Y-54967500D03*
X132399400Y-54967500D03*
X129859400Y-54967500D03*
D16*
X147639400Y-80367500D03*
X145099400Y-80367500D03*
X142559400Y-80367500D03*
X140019400Y-80367500D03*
X137479400Y-80367500D03*
X134939400Y-80367500D03*
X132399400Y-80367500D03*
D15*
X129859400Y-80367500D03*
D16*
X147639400Y-57507500D03*
X145099400Y-57507500D03*
X142559400Y-57507500D03*
X140019400Y-57507500D03*
X137479400Y-57507500D03*
X134939400Y-57507500D03*
X132399400Y-57507500D03*
D15*
X129859400Y-57507500D03*
D16*
X117159400Y-62587500D03*
X117159400Y-65127500D03*
X117159400Y-67667500D03*
X117159400Y-70207500D03*
X117159400Y-72747500D03*
X117159400Y-75287500D03*
X117159400Y-77827500D03*
D15*
X117159400Y-80367500D03*
D16*
X140019400Y-62587500D03*
X140019400Y-65127500D03*
X140019400Y-67667500D03*
X140019400Y-70207500D03*
X140019400Y-72747500D03*
X140019400Y-75287500D03*
X140019400Y-77827500D03*
D15*
X140019400Y-80367500D03*
D14*
X172359400Y-82857500D03*
X172359400Y-86357500D03*
D13*
X172359400Y-89857500D03*
D12*
X167859400Y-96557500D03*
X117859400Y-56557500D03*
X110859400Y-76557500D03*
X117859400Y-96557500D03*
X167859400Y-56557500D03*
X174859400Y-76557500D03*
M02*
